G75*
G70*
%OFA0B0*%
%FSLAX24Y24*%
%IPPOS*%
%LPD*%
%AMOC8*
5,1,8,0,0,1.08239X$1,22.5*
%
%ADD10R,0.0513X0.0474*%
%ADD11R,0.1025X0.1025*%
%ADD12R,0.0530X0.0380*%
%ADD13R,0.0592X0.0671*%
%ADD14R,0.0474X0.0513*%
%ADD15R,0.1143X0.1084*%
%ADD16C,0.0830*%
%ADD17C,0.0168*%
%ADD18OC8,0.0840*%
%ADD19R,0.1143X0.0710*%
%ADD20R,0.0710X0.1143*%
%ADD21R,0.0671X0.0592*%
%ADD22R,0.1084X0.1143*%
%ADD23C,0.0830*%
%ADD24OC8,0.0830*%
%ADD25C,0.2380*%
%ADD26R,0.0690X0.0178*%
%ADD27R,0.1182X0.1655*%
%ADD28R,0.1261X0.1261*%
%ADD29C,0.0790*%
%ADD30C,0.0674*%
D10*
X001535Y012803D03*
X002205Y012803D03*
X008587Y015748D03*
X009178Y015748D03*
X009178Y016417D03*
X008587Y016417D03*
X011106Y017733D03*
X011106Y018402D03*
X011067Y019288D03*
X011067Y019957D03*
X009464Y019938D03*
X008893Y019957D03*
X008185Y019957D03*
X008185Y020627D03*
X008893Y020627D03*
X009464Y020607D03*
X018413Y016882D03*
X018413Y016213D03*
X020433Y017088D03*
X021103Y017088D03*
X021063Y018989D03*
X020394Y018989D03*
X025817Y014935D03*
X026486Y014935D03*
X027096Y012947D03*
X027096Y012277D03*
D11*
X026230Y010801D03*
X024498Y010801D03*
X024410Y020091D03*
X022678Y020091D03*
X003957Y011031D03*
X002224Y011031D03*
D12*
X016929Y017817D03*
X016929Y018317D03*
X016929Y018817D03*
X016929Y019317D03*
X019029Y019317D03*
X019029Y018817D03*
X019029Y018317D03*
X019029Y017817D03*
D13*
X017823Y020101D03*
X017075Y020101D03*
D14*
X020394Y019501D03*
X021063Y019501D03*
X021052Y018329D03*
X020382Y018329D03*
X020394Y017729D03*
X021063Y017729D03*
X022390Y016699D03*
X023059Y016699D03*
X021123Y016530D03*
X020454Y016530D03*
X022647Y014049D03*
X023317Y014010D03*
X023317Y013340D03*
X022647Y013380D03*
X025777Y014384D03*
X026446Y014384D03*
X027076Y014147D03*
X027076Y013517D03*
X027746Y013517D03*
X027746Y014147D03*
X010401Y017583D03*
X009771Y017839D03*
X010401Y018253D03*
X009771Y017170D03*
X005485Y018866D03*
X004815Y018866D03*
X004889Y020075D03*
X005559Y020075D03*
D15*
X014752Y019582D03*
X014752Y017082D03*
X008231Y010993D03*
X008231Y008493D03*
X013710Y008293D03*
X013710Y010793D03*
X027332Y009256D03*
X027332Y006756D03*
D16*
X028967Y007991D02*
X029717Y007991D01*
X029717Y009491D02*
X028967Y009491D01*
X028967Y011933D02*
X029717Y011933D01*
X029717Y013433D02*
X028967Y013433D01*
X025141Y005165D02*
X025141Y004415D01*
X023641Y004415D02*
X023641Y005165D01*
X020791Y005168D02*
X020791Y004418D01*
X019291Y004418D02*
X019291Y005168D01*
X015926Y005180D02*
X015926Y004430D01*
X014426Y004430D02*
X014426Y005180D01*
X011224Y005168D02*
X011224Y004418D01*
X009724Y004418D02*
X009724Y005168D01*
X006553Y005180D02*
X006553Y004430D01*
X005053Y004430D02*
X005053Y005180D01*
D17*
X026498Y019261D02*
X026414Y019345D01*
X026692Y019345D01*
X026888Y019149D01*
X026888Y018871D01*
X026692Y018675D01*
X026414Y018675D01*
X026218Y018871D01*
X026218Y019149D01*
X026414Y019345D01*
X026466Y019219D01*
X026640Y019219D01*
X026762Y019097D01*
X026762Y018923D01*
X026640Y018801D01*
X026466Y018801D01*
X026344Y018923D01*
X026344Y019097D01*
X026466Y019219D01*
X026518Y019093D01*
X026588Y019093D01*
X026636Y019045D01*
X026636Y018975D01*
X026588Y018927D01*
X026518Y018927D01*
X026470Y018975D01*
X026470Y019045D01*
X026518Y019093D01*
X030034Y015725D02*
X029950Y015809D01*
X030228Y015809D01*
X030424Y015613D01*
X030424Y015335D01*
X030228Y015139D01*
X029950Y015139D01*
X029754Y015335D01*
X029754Y015613D01*
X029950Y015809D01*
X030002Y015683D01*
X030176Y015683D01*
X030298Y015561D01*
X030298Y015387D01*
X030176Y015265D01*
X030002Y015265D01*
X029880Y015387D01*
X029880Y015561D01*
X030002Y015683D01*
X030054Y015557D01*
X030124Y015557D01*
X030172Y015509D01*
X030172Y015439D01*
X030124Y015391D01*
X030054Y015391D01*
X030006Y015439D01*
X030006Y015509D01*
X030054Y015557D01*
D18*
X027682Y015907D03*
X027682Y010907D03*
D19*
X022962Y011588D03*
X022962Y012691D03*
X016584Y007217D03*
X015435Y007208D03*
X015435Y006106D03*
X016584Y006114D03*
X011433Y006308D03*
X010192Y006325D03*
X010192Y007428D03*
X011433Y007410D03*
X027132Y005443D03*
X027132Y004341D03*
D20*
X006472Y008173D03*
X005370Y008173D03*
X004402Y006456D03*
X003299Y006456D03*
X003543Y012776D03*
X004645Y012776D03*
D21*
X016065Y017819D03*
X016065Y018567D03*
X024591Y018245D03*
X024591Y018993D03*
D22*
X004104Y008157D03*
X001604Y008157D03*
D23*
X018203Y007079D03*
D24*
X020203Y007079D03*
D25*
X002151Y004006D03*
X002194Y019435D03*
X029635Y019443D03*
X029655Y003990D03*
D26*
X026309Y012179D03*
X026309Y012435D03*
X026309Y012691D03*
X026309Y012947D03*
X026309Y013203D03*
X026309Y013458D03*
X026309Y013714D03*
X024104Y013714D03*
X024104Y013458D03*
X024104Y013203D03*
X024104Y012947D03*
X024104Y012691D03*
X024104Y012435D03*
X024104Y012179D03*
D27*
X025206Y012966D03*
D28*
X021230Y013754D03*
X016506Y009029D03*
D29*
X022872Y007176D02*
X022872Y006466D01*
X024222Y006466D02*
X024222Y007176D01*
X023522Y008016D02*
X023522Y008726D01*
X024922Y008726D02*
X024922Y008016D01*
X025572Y007176D02*
X025572Y006466D01*
D30*
X013710Y007376D03*
X008238Y007573D03*
X001545Y012140D03*
M02*
