G75*
G70*
%OFA0B0*%
%FSLAX24Y24*%
%IPPOS*%
%LPD*%
%AMOC8*
5,1,8,0,0,1.08239X$1,22.5*
%
%ADD10C,0.0110*%
%ADD11C,0.0150*%
%ADD12C,0.0130*%
%ADD13C,0.0100*%
%ADD14R,0.0433X0.0394*%
%ADD15R,0.0945X0.0945*%
%ADD16R,0.0450X0.0300*%
%ADD17R,0.0512X0.0591*%
%ADD18R,0.0394X0.0433*%
%ADD19R,0.1063X0.1004*%
%ADD20C,0.0750*%
%ADD21C,0.0152*%
%ADD22OC8,0.0760*%
%ADD23R,0.1063X0.0630*%
%ADD24R,0.0630X0.1063*%
%ADD25R,0.0591X0.0512*%
%ADD26R,0.1004X0.1063*%
%ADD27C,0.0750*%
%ADD28OC8,0.0750*%
%ADD29C,0.2300*%
%ADD30R,0.0610X0.0098*%
%ADD31R,0.1102X0.1575*%
%ADD32R,0.1181X0.1181*%
%ADD33C,0.0710*%
%ADD34C,0.0436*%
%ADD35C,0.0240*%
%ADD36C,0.0400*%
%ADD37C,0.0160*%
%ADD38C,0.0660*%
%ADD39C,0.0594*%
%ADD40C,0.0320*%
%ADD41C,0.0560*%
D10*
X024959Y016958D02*
X025260Y016958D01*
X024959Y017259D01*
X024959Y017334D01*
X025034Y017409D01*
X025185Y017409D01*
X025260Y017334D01*
X025475Y017409D02*
X025475Y017108D01*
X025625Y016958D01*
X025775Y017108D01*
X025775Y017409D01*
X026506Y016958D02*
X026806Y016958D01*
X026656Y016958D02*
X026656Y017409D01*
X026806Y017259D01*
X027022Y016958D02*
X027322Y016958D01*
X027172Y016958D02*
X027172Y017409D01*
X027322Y017259D01*
X027527Y017259D02*
X027752Y017108D01*
X027527Y016958D01*
X027752Y016958D02*
X027752Y017409D01*
X027967Y017334D02*
X028042Y017409D01*
X028192Y017409D01*
X028267Y017334D01*
X027967Y017334D02*
X027967Y017259D01*
X028267Y016958D01*
X027967Y016958D01*
X028998Y017108D02*
X029299Y017108D01*
X029299Y017033D02*
X029299Y017183D01*
X029224Y017259D01*
X029074Y017259D01*
X028998Y017183D01*
X028998Y017108D01*
X029074Y016958D02*
X029224Y016958D01*
X029299Y017033D01*
X029514Y016958D02*
X029514Y017183D01*
X029589Y017259D01*
X029664Y017183D01*
X029664Y016958D01*
X029814Y016958D02*
X029814Y017259D01*
X029739Y017259D01*
X029664Y017183D01*
X030008Y016958D02*
X030158Y016958D01*
X030083Y016958D02*
X030083Y017259D01*
X030158Y017259D01*
X030083Y017409D02*
X030083Y017484D01*
X030427Y017409D02*
X030427Y016958D01*
X030502Y016958D02*
X030352Y016958D01*
X030717Y016958D02*
X030717Y017259D01*
X030867Y017409D01*
X031017Y017259D01*
X031017Y016958D01*
X031017Y017183D02*
X030717Y017183D01*
X030502Y017409D02*
X030427Y017409D01*
D11*
X025479Y003826D02*
X025479Y003419D01*
X025682Y003622D02*
X025275Y003622D01*
X025187Y003179D02*
X024984Y003179D01*
X024882Y003078D01*
X024882Y002976D01*
X024984Y002874D01*
X024882Y002772D01*
X024882Y002671D01*
X024984Y002569D01*
X025187Y002569D01*
X025289Y002671D01*
X025085Y002874D02*
X024984Y002874D01*
X025289Y003078D02*
X025187Y003179D01*
X024589Y003078D02*
X024589Y002671D01*
X024182Y003078D01*
X024182Y002671D01*
X024284Y002569D01*
X024487Y002569D01*
X024589Y002671D01*
X024589Y003078D02*
X024487Y003179D01*
X024284Y003179D01*
X024182Y003078D01*
X023889Y003179D02*
X023889Y002772D01*
X023686Y002569D01*
X023482Y002772D01*
X023482Y003179D01*
X023583Y003622D02*
X023176Y003622D01*
X020879Y003140D02*
X020676Y003140D01*
X020778Y003140D02*
X020778Y002529D01*
X020879Y002529D02*
X020676Y002529D01*
X020413Y002529D02*
X020006Y003140D01*
X019713Y003038D02*
X019713Y002631D01*
X019611Y002529D01*
X019408Y002529D01*
X019306Y002631D01*
X019306Y003038D01*
X019408Y003140D01*
X019611Y003140D01*
X019713Y003038D01*
X016391Y003543D02*
X015984Y003543D01*
X016188Y003340D02*
X016188Y003747D01*
X015722Y003140D02*
X015315Y003140D01*
X015417Y002936D02*
X015315Y002835D01*
X015315Y002631D01*
X015417Y002529D01*
X015620Y002529D01*
X015722Y002631D01*
X015722Y002835D02*
X015518Y002936D01*
X015417Y002936D01*
X015722Y002835D02*
X015722Y003140D01*
X015022Y003140D02*
X015022Y002733D01*
X014819Y002529D01*
X014615Y002733D01*
X014615Y003140D01*
X014292Y003543D02*
X013885Y003543D01*
X011706Y003543D02*
X011299Y003543D01*
X011503Y003340D02*
X011503Y003747D01*
X010873Y003038D02*
X010669Y003140D01*
X010873Y003038D02*
X011076Y002835D01*
X010771Y002835D01*
X010669Y002733D01*
X010669Y002631D01*
X010771Y002529D01*
X010974Y002529D01*
X011076Y002631D01*
X011076Y002835D01*
X010376Y002733D02*
X010376Y003140D01*
X009969Y003140D02*
X009969Y002733D01*
X010173Y002529D01*
X010376Y002733D01*
X009607Y003543D02*
X009200Y003543D01*
X007139Y003661D02*
X006732Y003661D01*
X006936Y003458D02*
X006936Y003865D01*
X006644Y003140D02*
X006440Y003140D01*
X006338Y003038D01*
X006338Y002936D01*
X006745Y002529D01*
X006338Y002529D01*
X006046Y002835D02*
X005639Y002835D01*
X005346Y002733D02*
X005142Y002529D01*
X004939Y002733D01*
X004939Y003140D01*
X005346Y003140D02*
X005346Y002733D01*
X005740Y002529D02*
X005740Y003140D01*
X006046Y002835D01*
X006644Y003140D02*
X006745Y003038D01*
X005040Y003661D02*
X004633Y003661D01*
D12*
X001964Y013582D02*
X001610Y013582D01*
X001875Y013582D02*
X001875Y013936D01*
X001964Y013936D02*
X002140Y013759D01*
X001964Y013582D01*
X001964Y013936D02*
X001610Y013936D01*
X001610Y014190D02*
X002140Y014190D01*
X002140Y014455D01*
X002052Y014544D01*
X001875Y014544D01*
X001787Y014455D01*
X001787Y014190D01*
X001875Y014798D02*
X001875Y015063D01*
X001787Y015152D01*
X001698Y015152D01*
X001610Y015063D01*
X001610Y014798D01*
X002140Y014798D01*
X002140Y015063D01*
X002052Y015152D01*
X001964Y015152D01*
X001875Y015063D01*
X002140Y015406D02*
X002140Y015759D01*
X002140Y015582D02*
X001610Y015582D01*
X001698Y016013D02*
X001875Y016013D01*
X001964Y016102D01*
X001964Y016279D01*
X001875Y016367D01*
X001787Y016367D01*
X001787Y016013D01*
X001698Y016013D02*
X001610Y016102D01*
X001610Y016279D01*
X001698Y016621D02*
X001787Y016709D01*
X001787Y016975D01*
X001875Y016975D02*
X001610Y016975D01*
X001610Y016709D01*
X001698Y016621D01*
X001964Y016709D02*
X001964Y016886D01*
X001875Y016975D01*
X001964Y017229D02*
X001610Y017229D01*
X001610Y017406D02*
X001875Y017406D01*
X001964Y017494D01*
X001875Y017582D01*
X001610Y017582D01*
X001875Y017406D02*
X001964Y017317D01*
X001964Y017229D01*
X030468Y013400D02*
X030557Y013311D01*
X030910Y013311D01*
X030822Y013223D02*
X030822Y013400D01*
X030733Y012969D02*
X030468Y012969D01*
X030468Y012704D01*
X030557Y012615D01*
X030645Y012704D01*
X030645Y012969D01*
X030733Y012969D02*
X030822Y012881D01*
X030822Y012704D01*
X030822Y012361D02*
X030733Y012273D01*
X030733Y012008D01*
X030468Y012008D02*
X030468Y012273D01*
X030557Y012361D01*
X030645Y012361D01*
X030733Y012273D01*
X030822Y012361D02*
X030910Y012361D01*
X030999Y012273D01*
X030999Y012008D01*
X030468Y012008D01*
X030517Y009771D02*
X030605Y009683D01*
X030959Y009683D01*
X030870Y009595D02*
X030870Y009771D01*
X030870Y009341D02*
X030870Y009075D01*
X030782Y008987D01*
X030694Y009075D01*
X030694Y009252D01*
X030605Y009341D01*
X030517Y009252D01*
X030517Y008987D01*
X030694Y008733D02*
X030694Y008379D01*
X030782Y008379D02*
X030870Y008468D01*
X030870Y008644D01*
X030782Y008733D01*
X030694Y008733D01*
X030517Y008644D02*
X030517Y008468D01*
X030605Y008379D01*
X030782Y008379D01*
X030517Y008125D02*
X031047Y008125D01*
X031047Y007772D02*
X030517Y007772D01*
X030517Y008125D02*
X031047Y007772D01*
D13*
X001314Y015224D02*
X001247Y015224D01*
X001114Y015224D02*
X000847Y015224D01*
X000847Y015157D02*
X000847Y015291D01*
X000847Y015464D02*
X000847Y015598D01*
X000847Y015531D02*
X001247Y015531D01*
X001247Y015464D01*
X001114Y015224D02*
X001114Y015157D01*
X001047Y014964D02*
X000847Y014964D01*
X001047Y014964D02*
X001114Y014897D01*
X001114Y014764D01*
X001047Y014697D01*
X001047Y014504D02*
X000980Y014437D01*
X000980Y014237D01*
X000847Y014237D02*
X001247Y014237D01*
X001247Y014437D01*
X001180Y014504D01*
X001047Y014504D01*
X001247Y014697D02*
X000847Y014697D01*
X000847Y015771D02*
X000847Y015905D01*
X000847Y015838D02*
X001114Y015838D01*
X001114Y015771D01*
X001247Y015838D02*
X001314Y015838D01*
X001314Y016145D02*
X001247Y016145D01*
X001114Y016145D02*
X000847Y016145D01*
X000847Y016078D02*
X000847Y016212D01*
X000847Y016385D02*
X000847Y016518D01*
X000847Y016452D02*
X001114Y016452D01*
X001114Y016385D01*
X001247Y016452D02*
X001314Y016452D01*
X001114Y016145D02*
X001114Y016078D01*
X001114Y016692D02*
X000713Y016692D01*
X000847Y016692D02*
X000847Y016892D01*
X000914Y016959D01*
X001047Y016959D01*
X001114Y016892D01*
X001114Y016692D01*
X001114Y017152D02*
X001180Y017219D01*
X001314Y017219D01*
D14*
X001535Y012803D03*
X002205Y012803D03*
X008587Y015748D03*
X009178Y015748D03*
X009178Y016417D03*
X008587Y016417D03*
X011106Y017733D03*
X011106Y018402D03*
X011067Y019288D03*
X011067Y019957D03*
X009464Y019938D03*
X008893Y019957D03*
X008185Y019957D03*
X008185Y020627D03*
X008893Y020627D03*
X009464Y020607D03*
X018413Y016882D03*
X018413Y016213D03*
X020433Y017088D03*
X021103Y017088D03*
X021063Y018989D03*
X020394Y018989D03*
X025817Y014935D03*
X026486Y014935D03*
X027096Y012947D03*
X027096Y012277D03*
D15*
X026230Y010801D03*
X024498Y010801D03*
X024410Y020091D03*
X022678Y020091D03*
X003957Y011031D03*
X002224Y011031D03*
D16*
X016929Y017817D03*
X016929Y018317D03*
X016929Y018817D03*
X016929Y019317D03*
X019029Y019317D03*
X019029Y018817D03*
X019029Y018317D03*
X019029Y017817D03*
D17*
X017823Y020101D03*
X017075Y020101D03*
D18*
X020394Y019501D03*
X021063Y019501D03*
X021052Y018329D03*
X020382Y018329D03*
X020394Y017729D03*
X021063Y017729D03*
X022390Y016699D03*
X023059Y016699D03*
X021123Y016530D03*
X020454Y016530D03*
X022647Y014049D03*
X023317Y014010D03*
X023317Y013340D03*
X022647Y013380D03*
X025777Y014384D03*
X026446Y014384D03*
X027076Y014147D03*
X027076Y013517D03*
X027746Y013517D03*
X027746Y014147D03*
X010401Y017583D03*
X009771Y017839D03*
X010401Y018253D03*
X009771Y017170D03*
X005485Y018866D03*
X004815Y018866D03*
X004889Y020075D03*
X005559Y020075D03*
D19*
X014752Y019582D03*
X014752Y017082D03*
X008231Y010993D03*
X008231Y008493D03*
X013710Y008293D03*
X013710Y010793D03*
X027332Y009256D03*
X027332Y006756D03*
D20*
X028967Y007991D02*
X029717Y007991D01*
X029717Y009491D02*
X028967Y009491D01*
X028967Y011933D02*
X029717Y011933D01*
X029717Y013433D02*
X028967Y013433D01*
X025141Y005165D02*
X025141Y004415D01*
X023641Y004415D02*
X023641Y005165D01*
X020791Y005168D02*
X020791Y004418D01*
X019291Y004418D02*
X019291Y005168D01*
X015926Y005180D02*
X015926Y004430D01*
X014426Y004430D02*
X014426Y005180D01*
X011224Y005168D02*
X011224Y004418D01*
X009724Y004418D02*
X009724Y005168D01*
X006553Y005180D02*
X006553Y004430D01*
X005053Y004430D02*
X005053Y005180D01*
D21*
X026503Y019237D02*
X026427Y019313D01*
X026679Y019313D01*
X026856Y019136D01*
X026856Y018884D01*
X026679Y018707D01*
X026427Y018707D01*
X026250Y018884D01*
X026250Y019136D01*
X026427Y019313D01*
X026474Y019199D01*
X026632Y019199D01*
X026742Y019089D01*
X026742Y018931D01*
X026632Y018821D01*
X026474Y018821D01*
X026364Y018931D01*
X026364Y019089D01*
X026474Y019199D01*
X026522Y019085D01*
X026584Y019085D01*
X026628Y019041D01*
X026628Y018979D01*
X026584Y018935D01*
X026522Y018935D01*
X026478Y018979D01*
X026478Y019041D01*
X026522Y019085D01*
X030039Y015701D02*
X029963Y015777D01*
X030215Y015777D01*
X030392Y015600D01*
X030392Y015348D01*
X030215Y015171D01*
X029963Y015171D01*
X029786Y015348D01*
X029786Y015600D01*
X029963Y015777D01*
X030010Y015663D01*
X030168Y015663D01*
X030278Y015553D01*
X030278Y015395D01*
X030168Y015285D01*
X030010Y015285D01*
X029900Y015395D01*
X029900Y015553D01*
X030010Y015663D01*
X030058Y015549D01*
X030120Y015549D01*
X030164Y015505D01*
X030164Y015443D01*
X030120Y015399D01*
X030058Y015399D01*
X030014Y015443D01*
X030014Y015505D01*
X030058Y015549D01*
D22*
X027682Y015907D03*
X027682Y010907D03*
D23*
X022962Y011588D03*
X022962Y012691D03*
X016584Y007217D03*
X015435Y007208D03*
X015435Y006106D03*
X016584Y006114D03*
X011433Y006308D03*
X010192Y006325D03*
X010192Y007428D03*
X011433Y007410D03*
X027132Y005443D03*
X027132Y004341D03*
D24*
X006472Y008173D03*
X005370Y008173D03*
X004402Y006456D03*
X003299Y006456D03*
X003543Y012776D03*
X004645Y012776D03*
D25*
X016065Y017819D03*
X016065Y018567D03*
X024591Y018245D03*
X024591Y018993D03*
D26*
X004104Y008157D03*
X001604Y008157D03*
D27*
X018203Y007079D03*
D28*
X020203Y007079D03*
D29*
X029655Y003990D03*
X029635Y019443D03*
X002194Y019435D03*
X002151Y004006D03*
D30*
X024104Y012179D03*
X024104Y012435D03*
X024104Y012691D03*
X024104Y012947D03*
X024104Y013203D03*
X024104Y013458D03*
X024104Y013714D03*
X026309Y013714D03*
X026309Y013458D03*
X026309Y013203D03*
X026309Y012947D03*
X026309Y012691D03*
X026309Y012435D03*
X026309Y012179D03*
D31*
X025206Y012966D03*
D32*
X021230Y013754D03*
X016506Y009029D03*
D33*
X022872Y007176D02*
X022872Y006466D01*
X024222Y006466D02*
X024222Y007176D01*
X023522Y008016D02*
X023522Y008726D01*
X024922Y008726D02*
X024922Y008016D01*
X025572Y007176D02*
X025572Y006466D01*
D34*
X020521Y008596D03*
X020521Y009187D03*
X020521Y009777D03*
X021860Y012021D03*
X019655Y012140D03*
X019261Y012691D03*
X018868Y012140D03*
X018474Y012691D03*
X018986Y014384D03*
X021939Y016273D03*
X021781Y017297D03*
X022017Y017730D03*
X021860Y019187D03*
X018238Y018399D03*
X019183Y016549D03*
X015561Y015132D03*
X015561Y014580D03*
X014891Y014580D03*
X014891Y015132D03*
X014222Y015132D03*
X014222Y014580D03*
X013435Y013242D03*
X010482Y011825D03*
X006978Y014029D03*
X008317Y014462D03*
X008986Y014462D03*
X009655Y014462D03*
X009655Y015014D03*
X008986Y015014D03*
X008317Y015014D03*
X007765Y016195D03*
X008986Y017100D03*
X007490Y017454D03*
X005246Y016116D03*
X003986Y014895D03*
X003474Y014895D03*
X002962Y014895D03*
X002962Y014344D03*
X003474Y014344D03*
X003986Y014344D03*
X005639Y012809D03*
X006820Y012494D03*
X002844Y012651D03*
X001781Y009580D03*
X010836Y008872D03*
X011348Y008872D03*
X015128Y008163D03*
X024970Y012218D03*
X025521Y012218D03*
X025521Y012809D03*
X024970Y012809D03*
X024970Y013399D03*
X025521Y013399D03*
X016348Y020014D03*
X015009Y018557D03*
X014498Y018557D03*
X013080Y019147D03*
X011702Y019856D03*
X010443Y018793D03*
X009419Y019266D03*
X008789Y019187D03*
X010009Y020525D03*
X011624Y017454D03*
X013317Y016273D03*
X011466Y016155D03*
X004340Y020250D03*
X003553Y020643D03*
X003868Y017809D03*
X002962Y017297D03*
D35*
X002205Y012803D02*
X002356Y012651D01*
X002844Y012651D01*
D36*
X002969Y012776D01*
X003543Y012776D01*
X004491Y011031D02*
X005639Y012179D01*
X005639Y012809D01*
X004491Y011031D02*
X003957Y011031D01*
X008231Y008493D02*
X008843Y008493D01*
X009773Y009423D01*
X009773Y013478D01*
X010246Y013951D01*
X010246Y015407D01*
X009891Y015762D01*
X009191Y015762D01*
X009178Y015748D01*
X009178Y016417D02*
X008587Y016417D01*
X007988Y016417D01*
X007765Y016195D01*
X009771Y017170D02*
X010077Y016864D01*
X012765Y016864D01*
X013317Y016313D01*
X013317Y016273D01*
X013317Y014305D01*
X012608Y013596D01*
X012608Y008923D01*
X013238Y008293D01*
X013710Y008293D01*
X022647Y012888D02*
X022844Y012691D01*
X022962Y012691D01*
X023395Y012691D01*
X023513Y012809D01*
X024222Y012809D01*
X024143Y012297D02*
X024143Y012179D01*
X024143Y011706D01*
X024498Y011352D01*
X024498Y010801D01*
X026151Y012061D02*
X026151Y012848D01*
X025521Y012848D01*
X025876Y012691D02*
X025876Y012179D01*
X025836Y012140D01*
X024813Y012140D01*
X026545Y011943D02*
X026545Y012769D01*
X026466Y012769D01*
X027076Y013517D02*
X027076Y014147D01*
X025817Y014423D02*
X025777Y014384D01*
X025817Y014423D02*
X025817Y014935D01*
X027659Y015907D02*
X027682Y015907D01*
X025167Y013714D02*
X024183Y013714D01*
X024104Y013636D01*
X024104Y013872D01*
X024104Y013636D02*
X024104Y013596D01*
X022647Y013380D02*
X022647Y012888D01*
X021191Y015132D02*
X017726Y015132D01*
X016065Y016793D01*
X016065Y017819D01*
X015328Y017082D01*
X014752Y017082D01*
X016065Y017819D02*
X016089Y017795D01*
X016907Y017795D01*
X016929Y017817D02*
X017656Y017817D01*
X018238Y018399D01*
X016929Y018317D02*
X016679Y018567D01*
X016065Y018567D01*
X016902Y019344D02*
X016902Y019927D01*
X017075Y020101D01*
X016435Y020101D01*
X016348Y020014D01*
X016902Y019344D02*
X016929Y019317D01*
X017823Y020101D02*
X018128Y020101D01*
X018395Y020368D01*
X021829Y020368D01*
X021860Y020337D01*
X022017Y020180D01*
X022589Y020180D01*
X022678Y020091D01*
X021860Y020337D02*
X021860Y019187D01*
X021063Y018989D02*
X021063Y019501D01*
X021052Y018329D02*
X022648Y018329D01*
X024410Y020091D01*
X024655Y020091D01*
X024591Y020027D01*
X024591Y018993D01*
X022390Y016699D02*
X021831Y016699D01*
X021663Y016530D01*
X021681Y016530D01*
X021939Y016273D01*
X021663Y016530D02*
X021123Y016530D01*
X021133Y016521D01*
X021123Y016530D02*
X021112Y016519D01*
X020454Y016530D02*
X020454Y017068D01*
X020433Y017088D01*
X021057Y018324D02*
X021052Y018329D01*
X025794Y005443D02*
X025141Y004790D01*
X025794Y005443D02*
X027132Y005443D01*
D37*
X000643Y002498D02*
X000643Y014030D01*
X000683Y013991D01*
X000789Y013947D01*
X000923Y013947D01*
X001038Y013947D01*
X001189Y013947D01*
X001305Y013947D01*
X001305Y013875D01*
X001351Y013763D01*
X001355Y013759D01*
X001351Y013755D01*
X001305Y013643D01*
X001305Y013522D01*
X001351Y013410D01*
X001437Y013324D01*
X001549Y013277D01*
X001814Y013277D01*
X001936Y013277D01*
X002024Y013277D01*
X002136Y013324D01*
X002313Y013501D01*
X002399Y013586D01*
X002445Y013699D01*
X002445Y013820D01*
X002399Y013932D01*
X002356Y013975D01*
X002399Y014017D01*
X002445Y014129D01*
X002445Y014395D01*
X002445Y014516D01*
X002399Y014627D01*
X002445Y014737D01*
X002445Y015002D01*
X002445Y015124D01*
X002399Y015234D01*
X002445Y015345D01*
X002445Y015820D01*
X002399Y015932D01*
X002313Y016018D01*
X002267Y016037D01*
X002268Y016041D01*
X002268Y016218D01*
X002268Y016339D01*
X002222Y016451D01*
X002179Y016494D01*
X002222Y016537D01*
X002268Y016649D01*
X002268Y016826D01*
X002268Y016947D01*
X002223Y017058D01*
X002268Y017168D01*
X002268Y017256D01*
X002268Y017378D01*
X002257Y017406D01*
X002268Y017433D01*
X002268Y017555D01*
X002229Y017649D01*
X002222Y017667D01*
X002134Y017755D01*
X002048Y017841D01*
X001936Y017887D01*
X001549Y017887D01*
X001437Y017841D01*
X001351Y017755D01*
X001305Y017643D01*
X001305Y017522D01*
X001310Y017509D01*
X001238Y017509D01*
X001123Y017509D01*
X001016Y017465D01*
X000868Y017317D01*
X000837Y017241D01*
X000766Y017212D01*
X000749Y017205D01*
X000699Y017154D01*
X000668Y017123D01*
X000651Y017106D01*
X000643Y017098D01*
X000643Y021018D01*
X007823Y021018D01*
X007765Y020959D01*
X007728Y020871D01*
X007728Y020382D01*
X007765Y020294D01*
X007813Y020245D01*
X007800Y020224D01*
X007788Y020178D01*
X007788Y019976D01*
X008166Y019976D01*
X008166Y019939D01*
X007788Y019939D01*
X007788Y019774D01*
X007216Y020347D01*
X007098Y020395D01*
X006971Y020395D01*
X005972Y020395D01*
X005959Y020428D01*
X005891Y020495D01*
X005803Y020532D01*
X005314Y020532D01*
X005226Y020495D01*
X005224Y020493D01*
X005222Y020495D01*
X005134Y020532D01*
X004706Y020532D01*
X004600Y020638D01*
X004431Y020708D01*
X004249Y020708D01*
X004081Y020638D01*
X003952Y020509D01*
X003882Y020341D01*
X003882Y020159D01*
X003952Y019990D01*
X004081Y019861D01*
X004249Y019792D01*
X004363Y019792D01*
X004451Y019755D01*
X004476Y019755D01*
X004489Y019723D01*
X004557Y019655D01*
X004645Y019619D01*
X005134Y019619D01*
X005222Y019655D01*
X005224Y019657D01*
X005226Y019655D01*
X005314Y019619D01*
X005803Y019619D01*
X005891Y019655D01*
X005959Y019723D01*
X005972Y019755D01*
X006902Y019755D01*
X007652Y019005D01*
X007742Y018915D01*
X007859Y018867D01*
X008461Y018867D01*
X008529Y018798D01*
X008698Y018729D01*
X008880Y018729D01*
X009048Y018798D01*
X009143Y018893D01*
X009159Y018877D01*
X009328Y018807D01*
X009510Y018807D01*
X009678Y018877D01*
X009807Y019006D01*
X009877Y019174D01*
X009877Y019357D01*
X009807Y019525D01*
X009801Y019531D01*
X009817Y019537D01*
X009884Y019605D01*
X009921Y019693D01*
X009921Y020067D01*
X010101Y020067D01*
X010269Y020137D01*
X010337Y020205D01*
X010611Y020205D01*
X010610Y020202D01*
X010610Y019713D01*
X010647Y019624D01*
X010648Y019623D01*
X010647Y019621D01*
X010610Y019533D01*
X010610Y019219D01*
X010534Y019251D01*
X010351Y019251D01*
X010183Y019181D01*
X010054Y019053D01*
X009984Y018884D01*
X009984Y018702D01*
X010046Y018554D01*
X010037Y018539D01*
X010024Y018493D01*
X010024Y018271D01*
X010382Y018271D01*
X010382Y018234D01*
X010024Y018234D01*
X010024Y018227D01*
X009992Y018236D01*
X009790Y018236D01*
X009790Y017858D01*
X009753Y017858D01*
X009753Y018236D01*
X009551Y018236D01*
X009505Y018223D01*
X009464Y018200D01*
X009430Y018166D01*
X009407Y018125D01*
X009394Y018079D01*
X009394Y017858D01*
X009753Y017858D01*
X009753Y017821D01*
X009394Y017821D01*
X009394Y017599D01*
X009406Y017557D01*
X009371Y017522D01*
X009357Y017490D01*
X009242Y017490D01*
X009077Y017558D01*
X008895Y017558D01*
X008726Y017489D01*
X008597Y017360D01*
X008528Y017191D01*
X008528Y017009D01*
X008591Y016857D01*
X008076Y016857D01*
X007901Y016857D01*
X007739Y016790D01*
X007550Y016601D01*
X007506Y016583D01*
X007377Y016454D01*
X007307Y016286D01*
X007307Y016104D01*
X007377Y015935D01*
X007506Y015806D01*
X007674Y015737D01*
X007856Y015737D01*
X008025Y015806D01*
X008154Y015935D01*
X008171Y015977D01*
X008193Y015977D01*
X008191Y015969D01*
X008191Y015767D01*
X008569Y015767D01*
X008569Y015730D01*
X008191Y015730D01*
X008191Y015528D01*
X008203Y015482D01*
X008227Y015441D01*
X008260Y015407D01*
X008301Y015384D01*
X008347Y015371D01*
X008569Y015371D01*
X008569Y015729D01*
X008606Y015729D01*
X008606Y015371D01*
X008802Y015371D01*
X008825Y015348D01*
X008914Y015311D01*
X009083Y015311D01*
X009090Y015308D01*
X009265Y015308D01*
X009273Y015311D01*
X009442Y015311D01*
X009467Y015322D01*
X009709Y015322D01*
X009806Y015225D01*
X009806Y014133D01*
X009400Y013727D01*
X009333Y013566D01*
X009333Y013391D01*
X009333Y009605D01*
X008913Y009184D01*
X008899Y009198D01*
X008811Y009235D01*
X007652Y009235D01*
X007564Y009198D01*
X007497Y009131D01*
X007460Y009042D01*
X007460Y007943D01*
X007497Y007855D01*
X007564Y007787D01*
X007652Y007751D01*
X007668Y007751D01*
X007668Y007459D01*
X007755Y007250D01*
X007915Y007089D01*
X008124Y007003D01*
X008351Y007003D01*
X008561Y007089D01*
X008721Y007250D01*
X008808Y007459D01*
X008808Y007751D01*
X008811Y007751D01*
X008899Y007787D01*
X008966Y007855D01*
X009003Y007943D01*
X009003Y008083D01*
X009092Y008120D01*
X009216Y008243D01*
X010146Y009174D01*
X010213Y009335D01*
X010213Y009511D01*
X010213Y013296D01*
X010495Y013578D01*
X010619Y013701D01*
X010686Y013863D01*
X010686Y015320D01*
X010686Y015495D01*
X010619Y015656D01*
X010264Y016011D01*
X010141Y016135D01*
X009979Y016202D01*
X009634Y016202D01*
X009634Y016662D01*
X009619Y016700D01*
X009828Y016491D01*
X009990Y016424D01*
X010165Y016424D01*
X012583Y016424D01*
X012877Y016130D01*
X012877Y014487D01*
X012359Y013969D01*
X012235Y013845D01*
X012168Y013684D01*
X012168Y008835D01*
X012235Y008673D01*
X012359Y008550D01*
X012865Y008043D01*
X012939Y007969D01*
X012939Y007743D01*
X012975Y007655D01*
X013043Y007587D01*
X013131Y007551D01*
X013140Y007551D01*
X013140Y007262D01*
X013227Y007053D01*
X013387Y006893D01*
X013597Y006806D01*
X013824Y006806D01*
X014033Y006893D01*
X014193Y007053D01*
X014280Y007262D01*
X014280Y007551D01*
X014289Y007551D01*
X014378Y007587D01*
X014445Y007655D01*
X014482Y007743D01*
X014482Y008842D01*
X014445Y008931D01*
X014378Y008998D01*
X014289Y009035D01*
X013131Y009035D01*
X013122Y009031D01*
X013048Y009105D01*
X013048Y010167D01*
X013068Y010147D01*
X013109Y010123D01*
X013155Y010111D01*
X013630Y010111D01*
X013630Y010713D01*
X013790Y010713D01*
X013790Y010873D01*
X013630Y010873D01*
X013630Y011475D01*
X013155Y011475D01*
X013109Y011462D01*
X013068Y011439D01*
X013048Y011418D01*
X013048Y013414D01*
X013566Y013932D01*
X013690Y014056D01*
X013756Y014217D01*
X013756Y016139D01*
X013775Y016182D01*
X013775Y016364D01*
X013705Y016533D01*
X013699Y016539D01*
X013690Y016562D01*
X013015Y017237D01*
X012853Y017304D01*
X012678Y017304D01*
X012057Y017304D01*
X012082Y017363D01*
X012082Y017546D01*
X012012Y017714D01*
X011883Y017843D01*
X011715Y017913D01*
X011562Y017913D01*
X011562Y017977D01*
X011526Y018066D01*
X011524Y018067D01*
X011526Y018069D01*
X011562Y018158D01*
X011562Y018647D01*
X011526Y018735D01*
X011458Y018802D01*
X011426Y018816D01*
X011426Y018894D01*
X011486Y018955D01*
X011523Y019043D01*
X011523Y019533D01*
X011486Y019621D01*
X011485Y019623D01*
X011486Y019624D01*
X011523Y019713D01*
X011523Y020202D01*
X011486Y020290D01*
X011419Y020358D01*
X011392Y020369D01*
X011392Y020432D01*
X011344Y020549D01*
X011186Y020707D01*
X011096Y020797D01*
X010979Y020845D01*
X010337Y020845D01*
X010269Y020914D01*
X010101Y020983D01*
X009918Y020983D01*
X009863Y020961D01*
X009817Y021007D01*
X009791Y021018D01*
X031163Y021018D01*
X031163Y017530D01*
X031117Y017576D01*
X031034Y017659D01*
X030926Y017704D01*
X030809Y017704D01*
X030700Y017659D01*
X030685Y017643D01*
X030669Y017659D01*
X030560Y017704D01*
X030485Y017704D01*
X030368Y017704D01*
X030306Y017678D01*
X030250Y017734D01*
X030142Y017779D01*
X030024Y017779D01*
X029916Y017734D01*
X029833Y017651D01*
X029793Y017554D01*
X029681Y017554D01*
X029664Y017547D01*
X029648Y017554D01*
X029530Y017554D01*
X029485Y017535D01*
X029422Y017509D01*
X029422Y017509D01*
X029421Y017507D01*
X029406Y017493D01*
X029391Y017509D01*
X029371Y017517D01*
X029282Y017554D01*
X029132Y017554D01*
X029015Y017554D01*
X028906Y017509D01*
X028831Y017434D01*
X028748Y017351D01*
X028703Y017242D01*
X028703Y017167D01*
X028703Y017050D01*
X028748Y016941D01*
X028779Y016911D01*
X028779Y016900D01*
X028823Y016791D01*
X028906Y016708D01*
X029015Y016663D01*
X029165Y016663D01*
X029282Y016663D01*
X029369Y016699D01*
X029455Y016663D01*
X029573Y016663D01*
X029589Y016670D01*
X029606Y016663D01*
X029723Y016663D01*
X029739Y016670D01*
X029756Y016663D01*
X029873Y016663D01*
X029911Y016679D01*
X029949Y016663D01*
X030217Y016663D01*
X030255Y016679D01*
X030293Y016663D01*
X030560Y016663D01*
X030609Y016684D01*
X030659Y016663D01*
X030776Y016663D01*
X030867Y016701D01*
X030959Y016663D01*
X031076Y016663D01*
X031163Y016699D01*
X031163Y013490D01*
X031083Y013570D01*
X031081Y013571D01*
X031080Y013573D01*
X030995Y013658D01*
X030882Y013705D01*
X030761Y013705D01*
X030649Y013658D01*
X030645Y013654D01*
X030641Y013658D01*
X030529Y013705D01*
X030408Y013705D01*
X030295Y013659D01*
X030291Y013654D01*
X030238Y013782D01*
X030065Y013955D01*
X029839Y014048D01*
X028845Y014048D01*
X028619Y013955D01*
X028446Y013782D01*
X028352Y013556D01*
X028352Y013311D01*
X028446Y013085D01*
X028619Y012912D01*
X028845Y012818D01*
X029839Y012818D01*
X030065Y012912D01*
X030163Y013010D01*
X030163Y012764D01*
X030163Y012643D01*
X030210Y012531D01*
X030252Y012488D01*
X030210Y012446D01*
X030210Y012446D01*
X030210Y012446D01*
X030202Y012428D01*
X030163Y012334D01*
X030163Y012263D01*
X030140Y012295D01*
X030079Y012357D01*
X030008Y012408D01*
X029930Y012448D01*
X029847Y012475D01*
X029761Y012488D01*
X029387Y012488D01*
X029387Y011978D01*
X029297Y011978D01*
X029297Y011888D01*
X029387Y011888D01*
X029387Y011378D01*
X029761Y011378D01*
X029847Y011392D01*
X029930Y011419D01*
X030008Y011459D01*
X030079Y011510D01*
X030140Y011572D01*
X030192Y011642D01*
X030231Y011720D01*
X030254Y011790D01*
X030295Y011749D01*
X030407Y011703D01*
X030938Y011703D01*
X031059Y011703D01*
X031163Y011746D01*
X031163Y009910D01*
X031132Y009942D01*
X031130Y009942D01*
X031129Y009944D01*
X031043Y010030D01*
X030931Y010076D01*
X030810Y010076D01*
X030698Y010030D01*
X030694Y010026D01*
X030693Y010026D01*
X030694Y010026D02*
X030690Y010030D01*
X030578Y010076D01*
X030456Y010076D01*
X030344Y010030D01*
X030258Y009944D01*
X030222Y009856D01*
X030065Y010013D01*
X029839Y010106D01*
X028845Y010106D01*
X028619Y010013D01*
X028446Y009840D01*
X028352Y009614D01*
X028352Y009369D01*
X028446Y009143D01*
X028619Y008970D01*
X028845Y008876D01*
X029839Y008876D01*
X030065Y008970D01*
X030212Y009116D01*
X030212Y008926D01*
X030258Y008816D01*
X030212Y008705D01*
X030212Y008528D01*
X030212Y008407D01*
X030258Y008296D01*
X030246Y008269D01*
X030229Y008244D01*
X030224Y008218D01*
X030192Y008282D01*
X030252Y008282D01*
X030192Y008282D02*
X030140Y008353D01*
X030079Y008415D01*
X030008Y008466D01*
X029930Y008506D01*
X029847Y008533D01*
X029761Y008546D01*
X029387Y008546D01*
X029387Y008037D01*
X029297Y008037D01*
X029297Y008546D01*
X028923Y008546D01*
X028837Y008533D01*
X028754Y008506D01*
X028676Y008466D01*
X028606Y008415D01*
X028544Y008353D01*
X028492Y008282D01*
X025457Y008282D01*
X025457Y008333D02*
X024960Y008333D01*
X024960Y008409D01*
X025457Y008409D01*
X025457Y008768D01*
X025444Y008851D01*
X025418Y008931D01*
X025380Y009006D01*
X025330Y009075D01*
X026561Y009075D01*
X026561Y008916D02*
X025423Y008916D01*
X025457Y008758D02*
X026561Y008758D01*
X026561Y008706D02*
X026597Y008618D01*
X026665Y008550D01*
X026753Y008514D01*
X027911Y008514D01*
X028000Y008550D01*
X028067Y008618D01*
X028104Y008706D01*
X028104Y009805D01*
X028067Y009894D01*
X028000Y009961D01*
X027911Y009998D01*
X027326Y009998D01*
X026942Y010381D01*
X026942Y010875D01*
X026963Y010875D01*
X027062Y010916D01*
X027062Y010650D01*
X027425Y010287D01*
X027939Y010287D01*
X028302Y010650D01*
X028302Y011164D01*
X027939Y011527D01*
X027684Y011527D01*
X028076Y011919D01*
X028125Y012036D01*
X028125Y012164D01*
X028125Y013144D01*
X028146Y013165D01*
X028182Y013253D01*
X028182Y013782D01*
X028146Y013870D01*
X028120Y013896D01*
X028122Y013907D01*
X028122Y014129D01*
X027764Y014129D01*
X027764Y014166D01*
X027727Y014166D01*
X027727Y014544D01*
X027525Y014544D01*
X027479Y014532D01*
X027457Y014519D01*
X027409Y014567D01*
X027321Y014604D01*
X026883Y014604D01*
X026883Y014648D01*
X026872Y014675D01*
X026882Y014714D01*
X026882Y014916D01*
X026504Y014916D01*
X026504Y014953D01*
X026467Y014953D01*
X026467Y015312D01*
X026246Y015312D01*
X026204Y015300D01*
X026169Y015335D01*
X026081Y015372D01*
X025912Y015372D01*
X025904Y015375D01*
X025729Y015375D01*
X025721Y015372D01*
X025552Y015372D01*
X025464Y015335D01*
X025397Y015268D01*
X025360Y015179D01*
X025360Y014695D01*
X025340Y014648D01*
X025340Y014479D01*
X025337Y014471D01*
X025337Y014296D01*
X025340Y014288D01*
X025340Y014119D01*
X025377Y014031D01*
X025444Y013964D01*
X025517Y013934D01*
X025286Y013934D01*
X025286Y013046D01*
X025126Y013046D01*
X025126Y012886D01*
X025286Y012886D01*
X025286Y011999D01*
X025781Y011999D01*
X025827Y012011D01*
X025855Y012027D01*
X025859Y012019D01*
X025893Y011986D01*
X025934Y011962D01*
X025980Y011950D01*
X026308Y011950D01*
X026308Y012178D01*
X026309Y012178D01*
X026309Y011950D01*
X026637Y011950D01*
X026683Y011962D01*
X026724Y011986D01*
X026726Y011987D01*
X026735Y011970D01*
X026769Y011936D01*
X026810Y011913D01*
X026856Y011900D01*
X027078Y011900D01*
X027078Y012259D01*
X027114Y012259D01*
X027114Y011900D01*
X027153Y011900D01*
X026767Y011515D01*
X026687Y011515D01*
X026560Y011515D01*
X026557Y011513D01*
X025710Y011513D01*
X025621Y011477D01*
X025554Y011409D01*
X025517Y011321D01*
X025517Y010391D01*
X025306Y010179D01*
X025160Y010179D01*
X025174Y010193D01*
X025210Y010281D01*
X025210Y011321D01*
X025174Y011409D01*
X025106Y011477D01*
X025018Y011513D01*
X024907Y011513D01*
X024871Y011601D01*
X024583Y011889D01*
X024583Y011965D01*
X024612Y011994D01*
X024616Y012003D01*
X024631Y011999D01*
X025126Y011999D01*
X025126Y012886D01*
X024662Y012886D01*
X024662Y012896D01*
X024649Y012928D01*
X024649Y013044D01*
X024648Y013046D01*
X025126Y013046D01*
X025126Y013934D01*
X024631Y013934D01*
X024586Y013921D01*
X024545Y013898D01*
X024537Y013890D01*
X024520Y013908D01*
X024479Y013931D01*
X024433Y013944D01*
X024104Y013944D01*
X024104Y013715D01*
X024104Y013715D01*
X024104Y013944D01*
X023775Y013944D01*
X023729Y013931D01*
X023693Y013910D01*
X023693Y013991D01*
X023335Y013991D01*
X023335Y014028D01*
X023693Y014028D01*
X023693Y014250D01*
X023681Y014296D01*
X023657Y014337D01*
X023624Y014370D01*
X023583Y014394D01*
X023537Y014406D01*
X023335Y014406D01*
X023335Y014028D01*
X023298Y014028D01*
X023298Y014406D01*
X023096Y014406D01*
X023050Y014394D01*
X023009Y014370D01*
X022998Y014359D01*
X022988Y014376D01*
X022955Y014410D01*
X022914Y014433D01*
X022868Y014445D01*
X022666Y014445D01*
X022666Y014068D01*
X022629Y014068D01*
X022629Y014445D01*
X022427Y014445D01*
X022381Y014433D01*
X022340Y014410D01*
X022306Y014376D01*
X022283Y014335D01*
X022270Y014289D01*
X022270Y014067D01*
X022629Y014067D01*
X022629Y014030D01*
X022270Y014030D01*
X022270Y013809D01*
X022282Y013767D01*
X022247Y013732D01*
X022210Y013644D01*
X022210Y013475D01*
X022207Y013467D01*
X022207Y013408D01*
X022193Y013408D01*
X022060Y013540D01*
X022060Y014392D01*
X022024Y014480D01*
X021956Y014548D01*
X021868Y014584D01*
X021632Y014584D01*
X021632Y014612D01*
X023653Y014612D01*
X023860Y014612D01*
X024051Y014691D01*
X024956Y015596D01*
X027116Y015596D01*
X027425Y015287D01*
X027939Y015287D01*
X028302Y015650D01*
X028302Y016164D01*
X027939Y016527D01*
X027774Y016527D01*
X027745Y016557D01*
X027554Y016636D01*
X024637Y016636D01*
X024446Y016557D01*
X024300Y016410D01*
X023541Y015652D01*
X021087Y015652D01*
X020896Y015572D01*
X020895Y015572D01*
X017908Y015572D01*
X016505Y016975D01*
X016505Y017355D01*
X016994Y017355D01*
X017047Y017377D01*
X017743Y017377D01*
X017905Y017444D01*
X018029Y017568D01*
X018454Y017993D01*
X018497Y018011D01*
X018576Y018090D01*
X018585Y018067D01*
X018564Y018015D01*
X018564Y017918D01*
X018074Y017428D01*
X018013Y017281D01*
X018013Y017235D01*
X017993Y017215D01*
X017957Y017127D01*
X017957Y016638D01*
X017993Y016550D01*
X018042Y016501D01*
X018029Y016479D01*
X018017Y016434D01*
X018017Y016232D01*
X018395Y016232D01*
X018395Y016195D01*
X018017Y016195D01*
X018017Y015993D01*
X018029Y015947D01*
X018053Y015906D01*
X018086Y015872D01*
X018127Y015849D01*
X018173Y015836D01*
X018395Y015836D01*
X018395Y016194D01*
X018432Y016194D01*
X018432Y015836D01*
X018654Y015836D01*
X018699Y015849D01*
X018740Y015872D01*
X018774Y015906D01*
X018798Y015947D01*
X018810Y015993D01*
X018810Y016195D01*
X018432Y016195D01*
X018432Y016232D01*
X018810Y016232D01*
X018810Y016434D01*
X018798Y016479D01*
X018785Y016501D01*
X018833Y016550D01*
X018870Y016638D01*
X018870Y017093D01*
X019204Y017427D01*
X019301Y017427D01*
X019390Y017464D01*
X019413Y017487D01*
X019413Y017455D01*
X019413Y017296D01*
X019474Y017149D01*
X019749Y016874D01*
X019862Y016761D01*
X020009Y016700D01*
X020014Y016700D01*
X020014Y016443D01*
X020017Y016435D01*
X020017Y016266D01*
X020054Y016178D01*
X020121Y016110D01*
X020209Y016074D01*
X020699Y016074D01*
X020787Y016110D01*
X020789Y016112D01*
X020790Y016110D01*
X020879Y016074D01*
X021368Y016074D01*
X021408Y016090D01*
X021499Y016090D01*
X021532Y016058D01*
X021550Y016014D01*
X021679Y015885D01*
X021847Y015815D01*
X022030Y015815D01*
X022198Y015885D01*
X022327Y016014D01*
X022397Y016182D01*
X022397Y016242D01*
X022635Y016242D01*
X022723Y016279D01*
X022771Y016327D01*
X022793Y016315D01*
X022839Y016302D01*
X023041Y016302D01*
X023041Y016680D01*
X023078Y016680D01*
X023078Y016302D01*
X023280Y016302D01*
X023326Y016315D01*
X023367Y016338D01*
X023400Y016372D01*
X023424Y016413D01*
X023436Y016459D01*
X023436Y016680D01*
X023078Y016680D01*
X023078Y016717D01*
X023436Y016717D01*
X023436Y016939D01*
X023424Y016985D01*
X023400Y017026D01*
X023367Y017060D01*
X023326Y017083D01*
X023280Y017095D01*
X023078Y017095D01*
X023078Y016718D01*
X023041Y016718D01*
X023041Y017095D01*
X022839Y017095D01*
X022793Y017083D01*
X022771Y017071D01*
X022723Y017119D01*
X022635Y017155D01*
X022146Y017155D01*
X022106Y017139D01*
X021919Y017139D01*
X021744Y017139D01*
X021582Y017072D01*
X021499Y016989D01*
X021499Y017070D01*
X021121Y017070D01*
X021121Y017107D01*
X021499Y017107D01*
X021499Y017309D01*
X021487Y017355D01*
X021463Y017396D01*
X021430Y017429D01*
X021422Y017433D01*
X021428Y017443D01*
X021440Y017489D01*
X021440Y017710D01*
X021082Y017710D01*
X021082Y017747D01*
X021440Y017747D01*
X021440Y017889D01*
X022561Y017889D01*
X022736Y017889D01*
X022898Y017956D01*
X024056Y019115D01*
X024056Y018690D01*
X024093Y018602D01*
X024127Y018567D01*
X024116Y018525D01*
X024116Y018293D01*
X024543Y018293D01*
X024543Y018197D01*
X024639Y018197D01*
X024639Y017810D01*
X024910Y017810D01*
X024956Y017822D01*
X024997Y017845D01*
X025031Y017879D01*
X025054Y017920D01*
X025067Y017966D01*
X025067Y018197D01*
X024640Y018197D01*
X024640Y018293D01*
X025067Y018293D01*
X025067Y018525D01*
X025055Y018567D01*
X025090Y018602D01*
X025127Y018690D01*
X025127Y019297D01*
X025090Y019385D01*
X025039Y019436D01*
X025086Y019483D01*
X025246Y019483D01*
X025933Y018796D01*
X025933Y018753D01*
X026296Y018390D01*
X026810Y018390D01*
X027173Y018753D01*
X027173Y019267D01*
X026810Y019630D01*
X026711Y019630D01*
X025965Y020376D01*
X025805Y020536D01*
X025595Y020623D01*
X025118Y020623D01*
X025086Y020699D01*
X025019Y020767D01*
X024930Y020804D01*
X023890Y020804D01*
X023802Y020767D01*
X023734Y020699D01*
X023698Y020611D01*
X023698Y020001D01*
X023390Y019693D01*
X023390Y020611D01*
X023354Y020699D01*
X023286Y020767D01*
X023198Y020804D01*
X022158Y020804D01*
X022070Y020767D01*
X022054Y020751D01*
X021917Y020808D01*
X021742Y020808D01*
X018308Y020808D01*
X018146Y020741D01*
X018041Y020636D01*
X017520Y020636D01*
X017449Y020607D01*
X017379Y020636D01*
X016772Y020636D01*
X016683Y020600D01*
X016625Y020541D01*
X016523Y020541D01*
X016348Y020541D01*
X016186Y020474D01*
X016132Y020420D01*
X016089Y020402D01*
X015960Y020273D01*
X015890Y020105D01*
X015890Y019922D01*
X015960Y019754D01*
X016089Y019625D01*
X016257Y019555D01*
X016439Y019555D01*
X016462Y019565D01*
X016462Y019257D01*
X016464Y019251D01*
X016464Y019119D01*
X016500Y019031D01*
X016527Y019004D01*
X016524Y018991D01*
X016524Y018900D01*
X016504Y018934D01*
X016471Y018967D01*
X016430Y018991D01*
X016384Y019003D01*
X016113Y019003D01*
X016113Y018615D01*
X016017Y018615D01*
X016017Y018519D01*
X015590Y018519D01*
X015590Y018287D01*
X015601Y018246D01*
X015566Y018211D01*
X015530Y018123D01*
X015530Y017906D01*
X015414Y017790D01*
X015331Y017824D01*
X014173Y017824D01*
X014084Y017788D01*
X014017Y017720D01*
X013980Y017632D01*
X013980Y016533D01*
X014017Y016444D01*
X014084Y016377D01*
X014173Y016340D01*
X015331Y016340D01*
X015419Y016377D01*
X015487Y016444D01*
X015523Y016533D01*
X015523Y016687D01*
X015578Y016709D01*
X015625Y016757D01*
X015625Y016705D01*
X015692Y016543D01*
X017353Y014882D01*
X017477Y014759D01*
X017638Y014692D01*
X020592Y014692D01*
X020592Y014584D01*
X020592Y014584D01*
X020503Y014548D01*
X020436Y014480D01*
X020399Y014392D01*
X020399Y013115D01*
X020436Y013027D01*
X020503Y012960D01*
X020592Y012923D01*
X021207Y012923D01*
X021498Y012632D01*
X021540Y012590D01*
X021540Y012349D01*
X021471Y012281D01*
X021402Y012113D01*
X021402Y011930D01*
X021471Y011762D01*
X021600Y011633D01*
X021769Y011563D01*
X021951Y011563D01*
X022119Y011633D01*
X022248Y011762D01*
X022251Y011768D01*
X022251Y011666D01*
X022884Y011666D01*
X022884Y011511D01*
X022251Y011511D01*
X022251Y011250D01*
X022263Y011204D01*
X022287Y011163D01*
X022320Y011129D01*
X022361Y011106D01*
X022407Y011093D01*
X022885Y011093D01*
X022885Y011511D01*
X023040Y011511D01*
X023040Y011666D01*
X023674Y011666D01*
X023674Y011922D01*
X023703Y011909D01*
X023703Y011619D01*
X023770Y011457D01*
X023821Y011407D01*
X023785Y011321D01*
X023785Y011085D01*
X017937Y011085D01*
X017746Y011006D01*
X017600Y010859D01*
X016601Y009860D01*
X015867Y009860D01*
X015779Y009823D01*
X015711Y009756D01*
X015675Y009668D01*
X015675Y008391D01*
X015711Y008303D01*
X015779Y008235D01*
X015867Y008199D01*
X017144Y008199D01*
X017232Y008235D01*
X017299Y008303D01*
X017336Y008391D01*
X017336Y009124D01*
X018256Y010045D01*
X022612Y010045D01*
X022521Y009954D01*
X021655Y009088D01*
X021576Y008896D01*
X021576Y008690D01*
X021576Y007494D01*
X021655Y007302D01*
X021801Y007156D01*
X022277Y006681D01*
X022277Y006348D01*
X022368Y006129D01*
X022535Y005962D01*
X022754Y005871D01*
X022990Y005871D01*
X023209Y005962D01*
X023376Y006129D01*
X023467Y006348D01*
X023467Y007294D01*
X023414Y007421D01*
X023640Y007421D01*
X023781Y007479D01*
X023764Y007456D01*
X023726Y007381D01*
X023700Y007301D01*
X023687Y007218D01*
X023687Y006859D01*
X024184Y006859D01*
X024184Y007711D01*
X024180Y007711D01*
X024097Y007698D01*
X024020Y007673D01*
X024026Y007679D01*
X024117Y007898D01*
X024117Y008844D01*
X024026Y009063D01*
X023950Y009139D01*
X024581Y009139D01*
X024574Y009134D01*
X024514Y009075D01*
X024014Y009075D01*
X024087Y008916D02*
X024421Y008916D01*
X024426Y008931D02*
X024400Y008851D01*
X024387Y008768D01*
X024387Y008409D01*
X024884Y008409D01*
X024884Y008333D01*
X024960Y008333D01*
X024960Y007481D01*
X024964Y007481D01*
X025047Y007494D01*
X025062Y007499D01*
X024977Y007294D01*
X024977Y006348D01*
X025068Y006129D01*
X025235Y005962D01*
X025454Y005871D01*
X025677Y005871D01*
X025545Y005816D01*
X025436Y005708D01*
X025263Y005780D01*
X025018Y005780D01*
X024792Y005686D01*
X024619Y005513D01*
X024526Y005287D01*
X024526Y004293D01*
X024619Y004067D01*
X024792Y003894D01*
X025011Y003803D01*
X025008Y003801D01*
X024960Y003685D01*
X024960Y003559D01*
X024987Y003494D01*
X024921Y003494D01*
X024805Y003446D01*
X024735Y003377D01*
X024666Y003446D01*
X024617Y003467D01*
X024550Y003494D01*
X024346Y003494D01*
X024221Y003494D01*
X024105Y003446D01*
X024086Y003428D01*
X024068Y003446D01*
X023952Y003494D01*
X023871Y003494D01*
X023898Y003559D01*
X023898Y003685D01*
X023850Y003801D01*
X023776Y003875D01*
X023854Y003901D01*
X023931Y003940D01*
X024002Y003992D01*
X024064Y004053D01*
X024115Y004124D01*
X024155Y004202D01*
X024182Y004285D01*
X024196Y004371D01*
X024196Y004745D01*
X023686Y004745D01*
X023686Y004835D01*
X024196Y004835D01*
X024196Y005209D01*
X024182Y005295D01*
X024155Y005378D01*
X024115Y005456D01*
X024064Y005526D01*
X024002Y005588D01*
X023931Y005640D01*
X023854Y005679D01*
X023771Y005706D01*
X023686Y005720D01*
X023686Y004835D01*
X023595Y004835D01*
X023595Y004745D01*
X023086Y004745D01*
X023086Y004371D01*
X023099Y004285D01*
X023126Y004202D01*
X023166Y004124D01*
X023217Y004053D01*
X023279Y003992D01*
X023350Y003940D01*
X023356Y003937D01*
X023114Y003937D01*
X022998Y003889D01*
X022909Y003801D01*
X022861Y003685D01*
X022861Y003559D01*
X022909Y003444D01*
X022998Y003355D01*
X023114Y003307D01*
X023194Y003307D01*
X023167Y003242D01*
X023167Y002710D01*
X023215Y002594D01*
X023304Y002505D01*
X023312Y002498D01*
X021194Y002498D01*
X021194Y002592D01*
X021146Y002708D01*
X021093Y002762D01*
X021093Y002908D01*
X021146Y002962D01*
X021194Y003077D01*
X021194Y003203D01*
X021146Y003318D01*
X021058Y003407D01*
X020942Y003455D01*
X020613Y003455D01*
X020497Y003407D01*
X020409Y003318D01*
X020361Y003203D01*
X020361Y003175D01*
X020233Y003367D01*
X020129Y003437D01*
X020006Y003461D01*
X019883Y003437D01*
X019809Y003388D01*
X019791Y003405D01*
X019790Y003407D01*
X019790Y003407D01*
X019743Y003426D01*
X019674Y003455D01*
X019549Y003455D01*
X019470Y003455D01*
X019345Y003455D01*
X019229Y003407D01*
X019039Y003217D01*
X018991Y003101D01*
X018991Y002976D01*
X018991Y002569D01*
X018991Y002568D01*
X019019Y002502D01*
X019020Y002498D01*
X016007Y002498D01*
X016037Y002569D01*
X016037Y002694D01*
X016022Y002730D01*
X016032Y002750D01*
X016032Y002761D01*
X016037Y002772D01*
X016037Y002823D01*
X016040Y002875D01*
X016037Y002886D01*
X016037Y003061D01*
X016125Y003025D01*
X016250Y003025D01*
X016366Y003073D01*
X016455Y003161D01*
X016488Y003243D01*
X016570Y003276D01*
X016658Y003365D01*
X016706Y003481D01*
X016706Y003606D01*
X016658Y003722D01*
X016570Y003810D01*
X016488Y003844D01*
X016455Y003925D01*
X016373Y004007D01*
X016447Y004081D01*
X016541Y004308D01*
X016541Y005265D01*
X016835Y005559D01*
X017163Y005559D01*
X017252Y005596D01*
X017319Y005663D01*
X017356Y005752D01*
X017356Y006477D01*
X017319Y006565D01*
X017252Y006633D01*
X017163Y006669D01*
X016734Y006669D01*
X016698Y006684D01*
X016471Y006684D01*
X016450Y006676D01*
X015321Y006676D01*
X015285Y006661D01*
X014855Y006661D01*
X014767Y006624D01*
X014700Y006557D01*
X014663Y006468D01*
X014663Y005743D01*
X014695Y005665D01*
X014639Y005694D01*
X014556Y005721D01*
X014471Y005735D01*
X014471Y004850D01*
X014981Y004850D01*
X014981Y005224D01*
X014967Y005310D01*
X014940Y005393D01*
X014900Y005471D01*
X014849Y005541D01*
X014828Y005562D01*
X014855Y005551D01*
X015285Y005551D01*
X015321Y005536D01*
X015356Y005536D01*
X015356Y005411D01*
X015311Y005302D01*
X015311Y004308D01*
X015404Y004081D01*
X015577Y003909D01*
X015803Y003815D01*
X015817Y003815D01*
X015806Y003810D01*
X015717Y003722D01*
X015669Y003606D01*
X015669Y003481D01*
X015680Y003455D01*
X015659Y003455D01*
X015252Y003455D01*
X015168Y003420D01*
X015085Y003455D01*
X014959Y003455D01*
X014844Y003407D01*
X014819Y003382D01*
X014794Y003407D01*
X014678Y003455D01*
X014596Y003455D01*
X014607Y003481D01*
X014607Y003606D01*
X014559Y003722D01*
X014470Y003810D01*
X014354Y003858D01*
X013822Y003858D01*
X013706Y003810D01*
X013618Y003722D01*
X013570Y003606D01*
X013570Y003481D01*
X013618Y003365D01*
X013706Y003276D01*
X013822Y003228D01*
X014311Y003228D01*
X014300Y003203D01*
X014300Y002670D01*
X014348Y002555D01*
X014405Y002498D01*
X011362Y002498D01*
X011391Y002569D01*
X011391Y002694D01*
X011391Y002897D01*
X011343Y003013D01*
X011255Y003102D01*
X011103Y003253D01*
X011070Y003292D01*
X011059Y003297D01*
X011051Y003305D01*
X011004Y003325D01*
X010754Y003450D01*
X010629Y003459D01*
X010519Y003422D01*
X010439Y003455D01*
X010314Y003455D01*
X010198Y003407D01*
X010173Y003382D01*
X010148Y003407D01*
X010032Y003455D01*
X009911Y003455D01*
X009922Y003481D01*
X009922Y003606D01*
X009874Y003722D01*
X009785Y003810D01*
X009669Y003858D01*
X009137Y003858D01*
X009021Y003810D01*
X008933Y003722D01*
X008885Y003606D01*
X008885Y003481D01*
X008933Y003365D01*
X009021Y003276D01*
X009137Y003228D01*
X009665Y003228D01*
X009654Y003203D01*
X009654Y002670D01*
X009702Y002555D01*
X009759Y002498D01*
X007060Y002498D01*
X007060Y002592D01*
X007012Y002708D01*
X006936Y002784D01*
X007012Y002860D01*
X007060Y002975D01*
X007060Y003101D01*
X007036Y003159D01*
X007114Y003191D01*
X007203Y003280D01*
X007236Y003361D01*
X007318Y003394D01*
X007406Y003483D01*
X007454Y003599D01*
X007454Y003724D01*
X007406Y003840D01*
X007318Y003929D01*
X007236Y003962D01*
X007203Y004043D01*
X007114Y004132D01*
X007098Y004139D01*
X007168Y004308D01*
X007168Y005302D01*
X007115Y005431D01*
X007115Y005875D01*
X007028Y006084D01*
X006868Y006245D01*
X005920Y007193D01*
X005710Y007280D01*
X005483Y007280D01*
X005225Y007280D01*
X005225Y007402D01*
X005733Y007402D01*
X005821Y007438D01*
X005888Y007506D01*
X005925Y007594D01*
X005925Y008024D01*
X005940Y008060D01*
X005940Y008287D01*
X005925Y008323D01*
X005925Y008753D01*
X005888Y008841D01*
X005821Y008908D01*
X005733Y008945D01*
X005007Y008945D01*
X004919Y008908D01*
X004852Y008841D01*
X004827Y008782D01*
X004810Y008824D01*
X004742Y008892D01*
X004674Y008920D01*
X004674Y010630D01*
X004741Y010658D01*
X004864Y010782D01*
X006012Y011930D01*
X006079Y012091D01*
X006079Y012266D01*
X006079Y012674D01*
X006097Y012718D01*
X006097Y012900D01*
X006028Y013068D01*
X005899Y013197D01*
X009333Y013197D01*
X009333Y013039D02*
X006040Y013039D01*
X006097Y012880D02*
X009333Y012880D01*
X009333Y012721D02*
X006097Y012721D01*
X006079Y012563D02*
X009333Y012563D01*
X009333Y012404D02*
X006079Y012404D01*
X006079Y012246D02*
X009333Y012246D01*
X009333Y012087D02*
X006078Y012087D01*
X006011Y011929D02*
X009333Y011929D01*
X009333Y011770D02*
X005853Y011770D01*
X005694Y011612D02*
X007562Y011612D01*
X007556Y011605D02*
X007532Y011564D01*
X007520Y011518D01*
X007520Y011073D01*
X008151Y011073D01*
X008151Y010913D01*
X007520Y010913D01*
X007520Y010467D01*
X007532Y010421D01*
X007556Y010380D01*
X007589Y010347D01*
X007631Y010323D01*
X007676Y010311D01*
X008152Y010311D01*
X008152Y010913D01*
X008311Y010913D01*
X008311Y010311D01*
X008787Y010311D01*
X008832Y010323D01*
X008874Y010347D01*
X008907Y010380D01*
X008931Y010421D01*
X008943Y010467D01*
X008943Y010913D01*
X008312Y010913D01*
X008312Y011073D01*
X008943Y011073D01*
X008943Y011518D01*
X008931Y011564D01*
X008907Y011605D01*
X008874Y011639D01*
X008832Y011662D01*
X008787Y011675D01*
X008311Y011675D01*
X008311Y011073D01*
X008152Y011073D01*
X008152Y011675D01*
X007676Y011675D01*
X007631Y011662D01*
X007589Y011639D01*
X007556Y011605D01*
X007520Y011453D02*
X005536Y011453D01*
X005377Y011295D02*
X007520Y011295D01*
X007520Y011136D02*
X005219Y011136D01*
X005060Y010978D02*
X008151Y010978D01*
X008152Y011136D02*
X008311Y011136D01*
X008312Y010978D02*
X009333Y010978D01*
X009333Y011136D02*
X008943Y011136D01*
X008943Y011295D02*
X009333Y011295D01*
X009333Y011453D02*
X008943Y011453D01*
X008900Y011612D02*
X009333Y011612D01*
X009333Y010819D02*
X008943Y010819D01*
X008943Y010660D02*
X009333Y010660D01*
X009333Y010502D02*
X008943Y010502D01*
X008868Y010343D02*
X009333Y010343D01*
X009333Y010185D02*
X004674Y010185D01*
X004674Y010343D02*
X007595Y010343D01*
X007520Y010502D02*
X004674Y010502D01*
X004743Y010660D02*
X007520Y010660D01*
X007520Y010819D02*
X004902Y010819D01*
X004674Y010026D02*
X009333Y010026D01*
X009333Y009868D02*
X004674Y009868D01*
X004674Y009709D02*
X009333Y009709D01*
X009279Y009551D02*
X004674Y009551D01*
X004674Y009392D02*
X009120Y009392D01*
X008962Y009234D02*
X008813Y009234D01*
X009572Y008599D02*
X012309Y008599D01*
X012359Y008550D02*
X012359Y008550D01*
X012467Y008441D02*
X009413Y008441D01*
X009255Y008282D02*
X012626Y008282D01*
X012784Y008124D02*
X009096Y008124D01*
X009003Y007965D02*
X012939Y007965D01*
X012865Y008043D02*
X012865Y008043D01*
X012939Y007807D02*
X012125Y007807D01*
X012132Y007795D02*
X012109Y007836D01*
X012075Y007869D01*
X012034Y007893D01*
X011988Y007905D01*
X011511Y007905D01*
X011511Y007488D01*
X012145Y007488D01*
X012145Y007749D01*
X012132Y007795D01*
X012145Y007648D02*
X012982Y007648D01*
X013140Y007490D02*
X012145Y007490D01*
X012145Y007333D02*
X011511Y007333D01*
X011511Y007488D01*
X011356Y007488D01*
X011356Y007905D01*
X010878Y007905D01*
X010832Y007893D01*
X010828Y007890D01*
X010793Y007910D01*
X010747Y007923D01*
X010270Y007923D01*
X010270Y007505D01*
X010722Y007505D01*
X010722Y007488D01*
X011355Y007488D01*
X011355Y007333D01*
X010904Y007333D01*
X010904Y007350D01*
X010270Y007350D01*
X010270Y007505D01*
X010115Y007505D01*
X010115Y007923D01*
X009637Y007923D01*
X009591Y007910D01*
X009550Y007887D01*
X009517Y007853D01*
X009493Y007812D01*
X009481Y007766D01*
X009481Y007505D01*
X010114Y007505D01*
X010114Y007350D01*
X009481Y007350D01*
X009481Y007089D01*
X009493Y007043D01*
X009517Y007002D01*
X009550Y006969D01*
X009591Y006945D01*
X009637Y006933D01*
X010115Y006933D01*
X010115Y007350D01*
X010270Y007350D01*
X010270Y006933D01*
X010747Y006933D01*
X010793Y006945D01*
X010798Y006948D01*
X010832Y006928D01*
X010878Y006915D01*
X011356Y006915D01*
X011356Y007333D01*
X011511Y007333D01*
X011511Y006915D01*
X011988Y006915D01*
X012034Y006928D01*
X012075Y006951D01*
X012109Y006985D01*
X012132Y007026D01*
X012145Y007072D01*
X012145Y007333D01*
X012145Y007331D02*
X013140Y007331D01*
X013177Y007172D02*
X012145Y007172D01*
X012125Y007014D02*
X013266Y007014D01*
X013477Y006855D02*
X012031Y006855D01*
X012012Y006863D02*
X011607Y006863D01*
X011529Y006895D01*
X011302Y006895D01*
X010079Y006895D01*
X010042Y006880D01*
X009613Y006880D01*
X009525Y006844D01*
X009457Y006776D01*
X009421Y006688D01*
X009421Y005963D01*
X009457Y005874D01*
X009525Y005807D01*
X009613Y005770D01*
X010042Y005770D01*
X010079Y005755D01*
X010848Y005755D01*
X010854Y005753D01*
X010863Y005753D01*
X010863Y005677D01*
X010702Y005516D01*
X010609Y005290D01*
X010609Y004296D01*
X010702Y004070D01*
X010875Y003897D01*
X011101Y003803D01*
X011113Y003803D01*
X011032Y003722D01*
X010984Y003606D01*
X010984Y003481D01*
X011032Y003365D01*
X011121Y003276D01*
X011202Y003243D01*
X011236Y003161D01*
X011324Y003073D01*
X011440Y003025D01*
X011565Y003025D01*
X011681Y003073D01*
X011770Y003161D01*
X011803Y003243D01*
X011885Y003276D01*
X011973Y003365D01*
X012021Y003481D01*
X012021Y003606D01*
X011973Y003722D01*
X011885Y003810D01*
X011803Y003844D01*
X011770Y003925D01*
X011685Y004010D01*
X011745Y004070D01*
X011839Y004296D01*
X011839Y004602D01*
X011916Y004680D01*
X012003Y004889D01*
X012003Y005116D01*
X012003Y005753D01*
X012012Y005753D01*
X012101Y005790D01*
X012168Y005857D01*
X012205Y005945D01*
X012205Y006671D01*
X012168Y006759D01*
X012101Y006826D01*
X012012Y006863D01*
X012194Y006697D02*
X017715Y006697D01*
X017682Y006731D02*
X017855Y006558D01*
X018081Y006464D01*
X018325Y006464D01*
X018551Y006558D01*
X018724Y006731D01*
X018818Y006957D01*
X018818Y007201D01*
X018724Y007427D01*
X018551Y007600D01*
X018325Y007694D01*
X018081Y007694D01*
X017855Y007600D01*
X017682Y007427D01*
X017588Y007201D01*
X017588Y006957D01*
X017682Y006731D01*
X017630Y006855D02*
X017290Y006855D01*
X017296Y006878D02*
X017283Y006832D01*
X017260Y006791D01*
X017226Y006758D01*
X017185Y006734D01*
X017139Y006722D01*
X016662Y006722D01*
X016662Y007139D01*
X016662Y007294D01*
X017296Y007294D01*
X017296Y007555D01*
X017283Y007601D01*
X017260Y007642D01*
X017226Y007676D01*
X017185Y007699D01*
X017139Y007712D01*
X016662Y007712D01*
X016662Y007294D01*
X016507Y007294D01*
X016507Y007712D01*
X016029Y007712D01*
X015993Y007702D01*
X015990Y007703D01*
X015512Y007703D01*
X015512Y007286D01*
X015357Y007286D01*
X015357Y007703D01*
X014879Y007703D01*
X014834Y007691D01*
X014793Y007667D01*
X014759Y007634D01*
X014735Y007592D01*
X014723Y007547D01*
X014723Y007286D01*
X015357Y007286D01*
X015357Y007130D01*
X015512Y007130D01*
X015512Y006713D01*
X015990Y006713D01*
X016026Y006723D01*
X016029Y006722D01*
X016507Y006722D01*
X016507Y007139D01*
X016662Y007139D01*
X017296Y007139D01*
X017296Y006878D01*
X017296Y007014D02*
X017588Y007014D01*
X017588Y007172D02*
X016662Y007172D01*
X016506Y007172D02*
X015512Y007172D01*
X015512Y007130D02*
X015512Y007286D01*
X016146Y007286D01*
X016146Y007294D01*
X016506Y007294D01*
X016506Y007139D01*
X015873Y007139D01*
X015873Y007130D01*
X015512Y007130D01*
X015512Y007014D02*
X015357Y007014D01*
X015357Y007130D02*
X015357Y006713D01*
X014879Y006713D01*
X014834Y006725D01*
X014793Y006749D01*
X014759Y006783D01*
X014735Y006824D01*
X014723Y006869D01*
X014723Y007130D01*
X015357Y007130D01*
X015357Y007172D02*
X014243Y007172D01*
X014280Y007331D02*
X014723Y007331D01*
X014723Y007490D02*
X014280Y007490D01*
X014439Y007648D02*
X014774Y007648D01*
X014482Y007807D02*
X021576Y007807D01*
X021576Y007965D02*
X014482Y007965D01*
X014482Y008124D02*
X021576Y008124D01*
X021576Y008282D02*
X017279Y008282D01*
X017336Y008441D02*
X021576Y008441D01*
X021576Y008599D02*
X017336Y008599D01*
X017336Y008758D02*
X021576Y008758D01*
X021584Y008916D02*
X017336Y008916D01*
X017336Y009075D02*
X021650Y009075D01*
X021801Y009234D02*
X017445Y009234D01*
X017604Y009392D02*
X021960Y009392D01*
X022118Y009551D02*
X017762Y009551D01*
X017921Y009709D02*
X022277Y009709D01*
X022435Y009868D02*
X018079Y009868D01*
X018238Y010026D02*
X022594Y010026D01*
X022313Y011136D02*
X014422Y011136D01*
X014422Y010978D02*
X017718Y010978D01*
X017600Y010859D02*
X017600Y010859D01*
X017560Y010819D02*
X013790Y010819D01*
X013790Y010873D02*
X014422Y010873D01*
X014422Y011318D01*
X014409Y011364D01*
X014386Y011405D01*
X014352Y011439D01*
X014311Y011462D01*
X014265Y011475D01*
X013790Y011475D01*
X013790Y010873D01*
X013790Y010978D02*
X013630Y010978D01*
X013630Y011136D02*
X013790Y011136D01*
X013790Y011295D02*
X013630Y011295D01*
X013630Y011453D02*
X013790Y011453D01*
X014327Y011453D02*
X022251Y011453D01*
X022251Y011295D02*
X014422Y011295D01*
X014422Y010713D02*
X013790Y010713D01*
X013790Y010111D01*
X014265Y010111D01*
X014311Y010123D01*
X014352Y010147D01*
X014386Y010180D01*
X014409Y010221D01*
X014422Y010267D01*
X014422Y010713D01*
X014422Y010660D02*
X017401Y010660D01*
X017243Y010502D02*
X014422Y010502D01*
X014422Y010343D02*
X017084Y010343D01*
X016926Y010185D02*
X014388Y010185D01*
X013790Y010185D02*
X013630Y010185D01*
X013630Y010343D02*
X013790Y010343D01*
X013790Y010502D02*
X013630Y010502D01*
X013630Y010660D02*
X013790Y010660D01*
X013048Y010026D02*
X016767Y010026D01*
X016609Y009868D02*
X013048Y009868D01*
X013048Y009709D02*
X015692Y009709D01*
X015675Y009551D02*
X013048Y009551D01*
X013048Y009392D02*
X015675Y009392D01*
X015675Y009234D02*
X013048Y009234D01*
X013078Y009075D02*
X015675Y009075D01*
X015675Y008916D02*
X014451Y008916D01*
X014482Y008758D02*
X015675Y008758D01*
X015675Y008599D02*
X014482Y008599D01*
X014482Y008441D02*
X015675Y008441D01*
X015732Y008282D02*
X014482Y008282D01*
X015357Y007648D02*
X015512Y007648D01*
X015512Y007490D02*
X015357Y007490D01*
X015357Y007331D02*
X015512Y007331D01*
X015512Y006855D02*
X015357Y006855D01*
X014727Y006855D02*
X013943Y006855D01*
X014155Y007014D02*
X014723Y007014D01*
X014692Y006538D02*
X012205Y006538D01*
X012205Y006380D02*
X014663Y006380D01*
X014663Y006221D02*
X012205Y006221D01*
X012205Y006063D02*
X014663Y006063D01*
X014663Y005904D02*
X012187Y005904D01*
X012003Y005746D02*
X014663Y005746D01*
X014471Y005587D02*
X014381Y005587D01*
X014381Y005735D02*
X014296Y005721D01*
X014213Y005694D01*
X014135Y005655D01*
X014064Y005603D01*
X014002Y005541D01*
X013951Y005471D01*
X013911Y005393D01*
X013884Y005310D01*
X013871Y005224D01*
X013871Y004850D01*
X014380Y004850D01*
X014380Y004760D01*
X013871Y004760D01*
X013871Y004386D01*
X013884Y004300D01*
X013911Y004217D01*
X013951Y004139D01*
X014002Y004068D01*
X014064Y004007D01*
X014135Y003955D01*
X014213Y003916D01*
X014296Y003889D01*
X014381Y003875D01*
X014381Y004760D01*
X014471Y004760D01*
X014471Y004850D01*
X014381Y004850D01*
X014381Y005735D01*
X014048Y005587D02*
X012003Y005587D01*
X012003Y005429D02*
X013929Y005429D01*
X013878Y005270D02*
X012003Y005270D01*
X012003Y005111D02*
X013871Y005111D01*
X013871Y004953D02*
X012003Y004953D01*
X011964Y004794D02*
X014380Y004794D01*
X014471Y004794D02*
X015311Y004794D01*
X015311Y004636D02*
X014981Y004636D01*
X014981Y004760D02*
X014471Y004760D01*
X014471Y003875D01*
X014556Y003889D01*
X014639Y003916D01*
X014716Y003955D01*
X014787Y004007D01*
X014849Y004068D01*
X014900Y004139D01*
X014940Y004217D01*
X014967Y004300D01*
X014981Y004386D01*
X014981Y004760D01*
X014981Y004953D02*
X015311Y004953D01*
X015311Y005111D02*
X014981Y005111D01*
X014973Y005270D02*
X015311Y005270D01*
X015356Y005429D02*
X014922Y005429D01*
X014471Y005429D02*
X014381Y005429D01*
X014381Y005270D02*
X014471Y005270D01*
X014471Y005111D02*
X014381Y005111D01*
X014381Y004953D02*
X014471Y004953D01*
X014471Y004636D02*
X014381Y004636D01*
X014381Y004477D02*
X014471Y004477D01*
X014471Y004319D02*
X014381Y004319D01*
X014381Y004160D02*
X014471Y004160D01*
X014471Y004002D02*
X014381Y004002D01*
X014391Y003843D02*
X015735Y003843D01*
X015702Y003685D02*
X014574Y003685D01*
X014607Y003526D02*
X015669Y003526D01*
X015484Y004002D02*
X014780Y004002D01*
X014911Y004160D02*
X015372Y004160D01*
X015311Y004319D02*
X014970Y004319D01*
X014981Y004477D02*
X015311Y004477D01*
X014071Y004002D02*
X011693Y004002D01*
X011782Y004160D02*
X013940Y004160D01*
X013881Y004319D02*
X011839Y004319D01*
X011839Y004477D02*
X013871Y004477D01*
X013871Y004636D02*
X011872Y004636D01*
X010770Y004002D02*
X010092Y004002D01*
X010085Y003995D02*
X010147Y004056D01*
X010198Y004127D01*
X010238Y004205D01*
X010265Y004288D01*
X010279Y004374D01*
X010279Y004748D01*
X009769Y004748D01*
X009769Y004838D01*
X010279Y004838D01*
X010279Y005212D01*
X010265Y005298D01*
X010238Y005381D01*
X010198Y005459D01*
X010147Y005530D01*
X010085Y005591D01*
X010014Y005643D01*
X009937Y005682D01*
X009854Y005709D01*
X009769Y005723D01*
X009769Y004838D01*
X009679Y004838D01*
X009679Y005723D01*
X009594Y005709D01*
X009511Y005682D01*
X009433Y005643D01*
X009362Y005591D01*
X009300Y005530D01*
X009249Y005459D01*
X009209Y005381D01*
X009182Y005298D01*
X009169Y005212D01*
X009169Y004838D01*
X009678Y004838D01*
X009678Y004748D01*
X009169Y004748D01*
X009169Y004374D01*
X009182Y004288D01*
X009209Y004205D01*
X009249Y004127D01*
X009300Y004056D01*
X009362Y003995D01*
X009433Y003943D01*
X009511Y003904D01*
X009594Y003877D01*
X009679Y003863D01*
X009679Y004748D01*
X009769Y004748D01*
X009769Y003863D01*
X009854Y003877D01*
X009937Y003904D01*
X010014Y003943D01*
X010085Y003995D01*
X010215Y004160D02*
X010665Y004160D01*
X010609Y004319D02*
X010270Y004319D01*
X010279Y004477D02*
X010609Y004477D01*
X010609Y004636D02*
X010279Y004636D01*
X010279Y004953D02*
X010609Y004953D01*
X010609Y005111D02*
X010279Y005111D01*
X010269Y005270D02*
X010609Y005270D01*
X010666Y005429D02*
X010214Y005429D01*
X010089Y005587D02*
X010773Y005587D01*
X010863Y005746D02*
X007115Y005746D01*
X007103Y005904D02*
X009445Y005904D01*
X009421Y006063D02*
X007037Y006063D01*
X006891Y006221D02*
X009421Y006221D01*
X009421Y006380D02*
X006733Y006380D01*
X006574Y006538D02*
X009421Y006538D01*
X009424Y006697D02*
X006416Y006697D01*
X006257Y006855D02*
X009553Y006855D01*
X009510Y007014D02*
X008379Y007014D01*
X008097Y007014D02*
X006099Y007014D01*
X005940Y007172D02*
X007832Y007172D01*
X007721Y007331D02*
X005225Y007331D01*
X005872Y007490D02*
X006061Y007490D01*
X006047Y007498D02*
X006088Y007474D01*
X006134Y007462D01*
X006395Y007462D01*
X006395Y008096D01*
X005977Y008096D01*
X005977Y007618D01*
X005990Y007572D01*
X006013Y007531D01*
X006047Y007498D01*
X005977Y007648D02*
X005925Y007648D01*
X005925Y007807D02*
X005977Y007807D01*
X005977Y007965D02*
X005925Y007965D01*
X005940Y008124D02*
X006395Y008124D01*
X006395Y008096D02*
X006395Y008251D01*
X006395Y008885D01*
X006134Y008885D01*
X006088Y008873D01*
X006047Y008849D01*
X006013Y008815D01*
X005990Y008774D01*
X005977Y008729D01*
X005977Y008251D01*
X006395Y008251D01*
X006550Y008251D01*
X006550Y008885D01*
X006811Y008885D01*
X006857Y008873D01*
X006898Y008849D01*
X006931Y008815D01*
X006955Y008774D01*
X006967Y008729D01*
X006967Y008251D01*
X006550Y008251D01*
X006550Y008096D01*
X006967Y008096D01*
X006967Y007618D01*
X006955Y007572D01*
X006931Y007531D01*
X006898Y007498D01*
X006857Y007474D01*
X006811Y007462D01*
X006550Y007462D01*
X006550Y008096D01*
X006395Y008096D01*
X006395Y007965D02*
X006550Y007965D01*
X006550Y007807D02*
X006395Y007807D01*
X006395Y007648D02*
X006550Y007648D01*
X006550Y007490D02*
X006395Y007490D01*
X006884Y007490D02*
X007668Y007490D01*
X007668Y007648D02*
X006967Y007648D01*
X006967Y007807D02*
X007545Y007807D01*
X007460Y007965D02*
X006967Y007965D01*
X006967Y008282D02*
X007460Y008282D01*
X007460Y008124D02*
X006550Y008124D01*
X006550Y008282D02*
X006395Y008282D01*
X006395Y008441D02*
X006550Y008441D01*
X006550Y008599D02*
X006395Y008599D01*
X006395Y008758D02*
X006550Y008758D01*
X006959Y008758D02*
X007460Y008758D01*
X007460Y008916D02*
X005801Y008916D01*
X005923Y008758D02*
X005985Y008758D01*
X005977Y008599D02*
X005925Y008599D01*
X005925Y008441D02*
X005977Y008441D01*
X005977Y008282D02*
X005940Y008282D01*
X006967Y008441D02*
X007460Y008441D01*
X007460Y008599D02*
X006967Y008599D01*
X007474Y009075D02*
X004674Y009075D01*
X004674Y009234D02*
X007650Y009234D01*
X008152Y010343D02*
X008311Y010343D01*
X008311Y010502D02*
X008152Y010502D01*
X008152Y010660D02*
X008311Y010660D01*
X008311Y010819D02*
X008152Y010819D01*
X008152Y011295D02*
X008311Y011295D01*
X008311Y011453D02*
X008152Y011453D01*
X008152Y011612D02*
X008311Y011612D01*
X010213Y011612D02*
X012168Y011612D01*
X012168Y011770D02*
X010213Y011770D01*
X010213Y011929D02*
X012168Y011929D01*
X012168Y012087D02*
X010213Y012087D01*
X010213Y012246D02*
X012168Y012246D01*
X012168Y012404D02*
X010213Y012404D01*
X010213Y012563D02*
X012168Y012563D01*
X012168Y012721D02*
X010213Y012721D01*
X010213Y012880D02*
X012168Y012880D01*
X012168Y013039D02*
X010213Y013039D01*
X010213Y013197D02*
X012168Y013197D01*
X012168Y013356D02*
X010273Y013356D01*
X010432Y013514D02*
X012168Y013514D01*
X012168Y013673D02*
X010590Y013673D01*
X010672Y013831D02*
X012229Y013831D01*
X012379Y013990D02*
X010686Y013990D01*
X010686Y014148D02*
X012538Y014148D01*
X012696Y014307D02*
X010686Y014307D01*
X010686Y014465D02*
X012855Y014465D01*
X012877Y014624D02*
X010686Y014624D01*
X010686Y014783D02*
X012877Y014783D01*
X012877Y014941D02*
X010686Y014941D01*
X010686Y015100D02*
X012877Y015100D01*
X012877Y015258D02*
X010686Y015258D01*
X010686Y015417D02*
X012877Y015417D01*
X012877Y015575D02*
X010652Y015575D01*
X010541Y015734D02*
X012877Y015734D01*
X012877Y015892D02*
X010383Y015892D01*
X010224Y016051D02*
X012877Y016051D01*
X012798Y016209D02*
X009634Y016209D01*
X009634Y016368D02*
X012639Y016368D01*
X013249Y017002D02*
X013980Y017002D01*
X013980Y016844D02*
X013408Y016844D01*
X013566Y016685D02*
X013980Y016685D01*
X013983Y016527D02*
X013708Y016527D01*
X013773Y016368D02*
X014106Y016368D01*
X013775Y016209D02*
X016026Y016209D01*
X016184Y016051D02*
X013756Y016051D01*
X013756Y015892D02*
X016343Y015892D01*
X016502Y015734D02*
X013756Y015734D01*
X013756Y015575D02*
X016660Y015575D01*
X016819Y015417D02*
X013756Y015417D01*
X013756Y015258D02*
X016977Y015258D01*
X017136Y015100D02*
X013756Y015100D01*
X013756Y014941D02*
X017294Y014941D01*
X017453Y014783D02*
X013756Y014783D01*
X013756Y014624D02*
X020592Y014624D01*
X020430Y014465D02*
X013756Y014465D01*
X013756Y014307D02*
X020399Y014307D01*
X020399Y014148D02*
X013728Y014148D01*
X013624Y013990D02*
X020399Y013990D01*
X020399Y013831D02*
X013465Y013831D01*
X013307Y013673D02*
X020399Y013673D01*
X020399Y013514D02*
X013148Y013514D01*
X013048Y013356D02*
X020399Y013356D01*
X020399Y013197D02*
X013048Y013197D01*
X013048Y013039D02*
X020431Y013039D01*
X021250Y012880D02*
X013048Y012880D01*
X013048Y012721D02*
X021409Y012721D01*
X021540Y012563D02*
X013048Y012563D01*
X013048Y012404D02*
X021540Y012404D01*
X021457Y012246D02*
X013048Y012246D01*
X013048Y012087D02*
X021402Y012087D01*
X021402Y011929D02*
X013048Y011929D01*
X013048Y011770D02*
X021468Y011770D01*
X021652Y011612D02*
X013048Y011612D01*
X013048Y011453D02*
X013093Y011453D01*
X012168Y011453D02*
X010213Y011453D01*
X010213Y011295D02*
X012168Y011295D01*
X012168Y011136D02*
X010213Y011136D01*
X010213Y010978D02*
X012168Y010978D01*
X012168Y010819D02*
X010213Y010819D01*
X010213Y010660D02*
X012168Y010660D01*
X012168Y010502D02*
X010213Y010502D01*
X010213Y010343D02*
X012168Y010343D01*
X012168Y010185D02*
X010213Y010185D01*
X010213Y010026D02*
X012168Y010026D01*
X012168Y009868D02*
X010213Y009868D01*
X010213Y009709D02*
X012168Y009709D01*
X012168Y009551D02*
X010213Y009551D01*
X010213Y009392D02*
X012168Y009392D01*
X012168Y009234D02*
X010171Y009234D01*
X010047Y009075D02*
X012168Y009075D01*
X012168Y008916D02*
X009889Y008916D01*
X009730Y008758D02*
X012200Y008758D01*
X011511Y007807D02*
X011356Y007807D01*
X011356Y007648D02*
X011511Y007648D01*
X011511Y007490D02*
X011356Y007490D01*
X011356Y007331D02*
X011511Y007331D01*
X011511Y007172D02*
X011356Y007172D01*
X011356Y007014D02*
X011511Y007014D01*
X010722Y007490D02*
X010270Y007490D01*
X010114Y007490D02*
X008808Y007490D01*
X008808Y007648D02*
X009481Y007648D01*
X009491Y007807D02*
X008918Y007807D01*
X008755Y007331D02*
X009481Y007331D01*
X009481Y007172D02*
X008644Y007172D01*
X010115Y007172D02*
X010270Y007172D01*
X010270Y007014D02*
X010115Y007014D01*
X010115Y007331D02*
X010270Y007331D01*
X010270Y007648D02*
X010115Y007648D01*
X010115Y007807D02*
X010270Y007807D01*
X009769Y005587D02*
X009679Y005587D01*
X009679Y005429D02*
X009769Y005429D01*
X009769Y005270D02*
X009679Y005270D01*
X009679Y005111D02*
X009769Y005111D01*
X009769Y004953D02*
X009679Y004953D01*
X009678Y004794D02*
X007168Y004794D01*
X007168Y004636D02*
X009169Y004636D01*
X009169Y004477D02*
X007168Y004477D01*
X007168Y004319D02*
X009177Y004319D01*
X009232Y004160D02*
X007107Y004160D01*
X007220Y004002D02*
X009355Y004002D01*
X009100Y003843D02*
X007403Y003843D01*
X007454Y003685D02*
X008917Y003685D01*
X008885Y003526D02*
X007424Y003526D01*
X007252Y003367D02*
X008932Y003367D01*
X009657Y003209D02*
X007132Y003209D01*
X007060Y003050D02*
X009654Y003050D01*
X009654Y002892D02*
X007026Y002892D01*
X006987Y002733D02*
X009654Y002733D01*
X009694Y002575D02*
X007060Y002575D01*
X006173Y003318D02*
X006090Y003236D01*
X006007Y003318D01*
X006007Y003318D01*
X005922Y003404D01*
X005919Y003407D01*
X005803Y003455D01*
X005678Y003455D01*
X005675Y003454D01*
X005562Y003407D01*
X005543Y003388D01*
X005524Y003407D01*
X005409Y003455D01*
X005283Y003455D01*
X005276Y003452D01*
X005307Y003483D01*
X005355Y003599D01*
X005355Y003724D01*
X005307Y003840D01*
X005240Y003907D01*
X005266Y003916D01*
X005344Y003955D01*
X005415Y004007D01*
X005476Y004068D01*
X005528Y004139D01*
X005567Y004217D01*
X005594Y004300D01*
X005608Y004386D01*
X005608Y004760D01*
X005098Y004760D01*
X005098Y004850D01*
X005008Y004850D01*
X005008Y005735D01*
X004923Y005721D01*
X004840Y005694D01*
X004762Y005655D01*
X004692Y005603D01*
X004630Y005541D01*
X004578Y005471D01*
X004539Y005393D01*
X004512Y005310D01*
X004498Y005224D01*
X004498Y004850D01*
X005008Y004850D01*
X005008Y004760D01*
X004498Y004760D01*
X004498Y004386D01*
X004512Y004300D01*
X004539Y004217D01*
X004578Y004139D01*
X004630Y004068D01*
X004692Y004007D01*
X004733Y003976D01*
X004570Y003976D01*
X004454Y003929D01*
X004366Y003840D01*
X004318Y003724D01*
X004318Y003599D01*
X004366Y003483D01*
X004454Y003394D01*
X004570Y003346D01*
X004700Y003346D01*
X004672Y003318D01*
X004624Y003203D01*
X004624Y002670D01*
X004672Y002555D01*
X004729Y002498D01*
X000643Y002498D01*
X000643Y002575D02*
X004664Y002575D01*
X004624Y002733D02*
X002538Y002733D01*
X002600Y002752D02*
X002721Y002802D01*
X002836Y002864D01*
X002944Y002936D01*
X003045Y003019D01*
X003138Y003111D01*
X003221Y003212D01*
X003293Y003321D01*
X003355Y003436D01*
X003405Y003557D01*
X003443Y003682D01*
X003468Y003810D01*
X003480Y003926D01*
X002231Y003926D01*
X002231Y004086D01*
X002071Y004086D01*
X002071Y005334D01*
X001956Y005323D01*
X001828Y005297D01*
X001703Y005259D01*
X001582Y005209D01*
X001467Y005148D01*
X001358Y005075D01*
X001257Y004992D01*
X001165Y004900D01*
X001082Y004799D01*
X001009Y004690D01*
X000947Y004575D01*
X000897Y004454D01*
X000859Y004329D01*
X000834Y004201D01*
X000823Y004086D01*
X002071Y004086D01*
X002071Y003926D01*
X000823Y003926D01*
X000834Y003810D01*
X000859Y003682D01*
X000897Y003557D01*
X000947Y003436D01*
X001009Y003321D01*
X001082Y003212D01*
X001165Y003111D01*
X001257Y003019D01*
X001358Y002936D01*
X001467Y002864D01*
X001582Y002802D01*
X001703Y002752D01*
X001828Y002714D01*
X001956Y002688D01*
X002071Y002677D01*
X002071Y003925D01*
X002231Y003925D01*
X002231Y002677D01*
X002347Y002688D01*
X002475Y002714D01*
X002600Y002752D01*
X002878Y002892D02*
X004624Y002892D01*
X004624Y003050D02*
X003077Y003050D01*
X003218Y003209D02*
X004627Y003209D01*
X004520Y003367D02*
X003318Y003367D01*
X003392Y003526D02*
X004348Y003526D01*
X004318Y003685D02*
X003443Y003685D01*
X003472Y003843D02*
X004369Y003843D01*
X004698Y004002D02*
X002231Y004002D01*
X002231Y004086D02*
X003480Y004086D01*
X003468Y004201D01*
X003443Y004329D01*
X003405Y004454D01*
X003355Y004575D01*
X003293Y004690D01*
X003221Y004799D01*
X003138Y004900D01*
X003045Y004992D01*
X002944Y005075D01*
X002836Y005148D01*
X002721Y005209D01*
X002600Y005259D01*
X002475Y005297D01*
X002347Y005323D01*
X002231Y005334D01*
X002231Y004086D01*
X002231Y004160D02*
X002071Y004160D01*
X002071Y004002D02*
X000643Y004002D01*
X000643Y004160D02*
X000830Y004160D01*
X000857Y004319D02*
X000643Y004319D01*
X000643Y004477D02*
X000907Y004477D01*
X000980Y004636D02*
X000643Y004636D01*
X000643Y004794D02*
X001079Y004794D01*
X001218Y004953D02*
X000643Y004953D01*
X000643Y005111D02*
X001412Y005111D01*
X001737Y005270D02*
X000643Y005270D01*
X000643Y005429D02*
X004557Y005429D01*
X004506Y005270D02*
X002565Y005270D01*
X002231Y005270D02*
X002071Y005270D01*
X002071Y005111D02*
X002231Y005111D01*
X002231Y004953D02*
X002071Y004953D01*
X002071Y004794D02*
X002231Y004794D01*
X002231Y004636D02*
X002071Y004636D01*
X002071Y004477D02*
X002231Y004477D01*
X002231Y004319D02*
X002071Y004319D01*
X002071Y003843D02*
X002231Y003843D01*
X002231Y003685D02*
X002071Y003685D01*
X002071Y003526D02*
X002231Y003526D01*
X002231Y003367D02*
X002071Y003367D01*
X002071Y003209D02*
X002231Y003209D01*
X002231Y003050D02*
X002071Y003050D01*
X002071Y002892D02*
X002231Y002892D01*
X002231Y002733D02*
X002071Y002733D01*
X001764Y002733D02*
X000643Y002733D01*
X000643Y002892D02*
X001424Y002892D01*
X001226Y003050D02*
X000643Y003050D01*
X000643Y003209D02*
X001084Y003209D01*
X000984Y003367D02*
X000643Y003367D01*
X000643Y003526D02*
X000910Y003526D01*
X000859Y003685D02*
X000643Y003685D01*
X000643Y003843D02*
X000831Y003843D01*
X002890Y005111D02*
X004498Y005111D01*
X004498Y004953D02*
X003085Y004953D01*
X003224Y004794D02*
X005008Y004794D01*
X005098Y004794D02*
X005938Y004794D01*
X005938Y004636D02*
X005608Y004636D01*
X005608Y004477D02*
X005938Y004477D01*
X005938Y004319D02*
X005597Y004319D01*
X005539Y004160D02*
X005999Y004160D01*
X006032Y004081D02*
X006205Y003909D01*
X006431Y003815D01*
X006455Y003815D01*
X006417Y003724D01*
X006417Y003599D01*
X006465Y003483D01*
X006493Y003455D01*
X006378Y003455D01*
X006262Y003407D01*
X006173Y003318D01*
X006222Y003367D02*
X005958Y003367D01*
X006447Y003526D02*
X005325Y003526D01*
X005355Y003685D02*
X006417Y003685D01*
X006363Y003843D02*
X005304Y003843D01*
X005408Y004002D02*
X006112Y004002D01*
X006032Y004081D02*
X005938Y004308D01*
X005938Y005302D01*
X005975Y005391D01*
X005975Y005525D01*
X005361Y006140D01*
X004956Y006140D01*
X004956Y005877D01*
X004920Y005789D01*
X004852Y005721D01*
X004764Y005685D01*
X004039Y005685D01*
X003951Y005721D01*
X003883Y005789D01*
X003847Y005877D01*
X003847Y006306D01*
X003832Y006343D01*
X003832Y006569D01*
X003847Y006606D01*
X003847Y007035D01*
X003883Y007124D01*
X003951Y007191D01*
X004039Y007228D01*
X004085Y007228D01*
X004085Y007385D01*
X003555Y007385D01*
X003466Y007422D01*
X003399Y007489D01*
X003362Y007578D01*
X003362Y008736D01*
X003399Y008824D01*
X003466Y008892D01*
X003534Y008920D01*
X003534Y010318D01*
X003436Y010318D01*
X003348Y010355D01*
X003281Y010422D01*
X003244Y010511D01*
X003244Y011551D01*
X003281Y011639D01*
X003348Y011707D01*
X003436Y011743D01*
X004477Y011743D01*
X004551Y011713D01*
X004903Y012064D01*
X004722Y012064D01*
X004722Y012698D01*
X004567Y012698D01*
X004567Y012853D01*
X004150Y012853D01*
X004150Y013331D01*
X004162Y013377D01*
X004186Y013418D01*
X004219Y013451D01*
X004260Y013475D01*
X004306Y013487D01*
X004567Y013487D01*
X004567Y012853D01*
X004722Y012853D01*
X004722Y013487D01*
X004984Y013487D01*
X005029Y013475D01*
X005070Y013451D01*
X005104Y013418D01*
X005128Y013377D01*
X005140Y013331D01*
X005140Y012853D01*
X004723Y012853D01*
X004723Y012698D01*
X005140Y012698D01*
X005140Y012302D01*
X005199Y012361D01*
X005199Y012674D01*
X005181Y012718D01*
X005181Y012900D01*
X005251Y013068D01*
X005380Y013197D01*
X005140Y013197D01*
X005140Y013039D02*
X005239Y013039D01*
X005181Y012880D02*
X005140Y012880D01*
X005181Y012721D02*
X004723Y012721D01*
X004567Y012721D02*
X004097Y012721D01*
X004150Y012698D02*
X004150Y012221D01*
X004162Y012175D01*
X004186Y012134D01*
X004219Y012100D01*
X004260Y012077D01*
X004306Y012064D01*
X004567Y012064D01*
X004567Y012698D01*
X004150Y012698D01*
X004150Y012563D02*
X004097Y012563D01*
X004097Y012404D02*
X004150Y012404D01*
X004150Y012246D02*
X004097Y012246D01*
X004097Y012196D02*
X004061Y012108D01*
X003993Y012041D01*
X003905Y012004D01*
X003180Y012004D01*
X003092Y012041D01*
X003024Y012108D01*
X002988Y012196D01*
X002988Y012215D01*
X002935Y012193D01*
X002753Y012193D01*
X002585Y012263D01*
X002556Y012291D01*
X002284Y012291D01*
X002152Y012346D01*
X002132Y012366D01*
X002068Y012366D01*
X002115Y012253D01*
X002115Y011946D01*
X002318Y011743D01*
X002745Y011743D01*
X002833Y011707D01*
X002900Y011639D01*
X002937Y011551D01*
X002937Y010511D01*
X002900Y010422D01*
X002833Y010355D01*
X002745Y010318D01*
X001704Y010318D01*
X001616Y010355D01*
X001549Y010422D01*
X001512Y010511D01*
X001512Y010937D01*
X001062Y011387D01*
X000975Y011597D01*
X000975Y011824D01*
X000975Y012253D01*
X001062Y012462D01*
X001148Y012549D01*
X001139Y012582D01*
X001139Y012784D01*
X001517Y012784D01*
X001517Y012821D01*
X001517Y013179D01*
X001295Y013179D01*
X001249Y013167D01*
X001208Y013143D01*
X001175Y013110D01*
X001151Y013069D01*
X001139Y013023D01*
X001139Y012821D01*
X001517Y012821D01*
X001554Y012821D01*
X001554Y013179D01*
X001776Y013179D01*
X001818Y013168D01*
X001852Y013203D01*
X001940Y013239D01*
X002469Y013239D01*
X002557Y013203D01*
X002625Y013135D01*
X002648Y013078D01*
X002719Y013149D01*
X002881Y013216D01*
X002988Y013216D01*
X002988Y013355D01*
X003024Y013443D01*
X003092Y013511D01*
X003180Y013547D01*
X003905Y013547D01*
X003993Y013511D01*
X004061Y013443D01*
X004097Y013355D01*
X004097Y012196D01*
X004040Y012087D02*
X004242Y012087D01*
X004567Y012087D02*
X004722Y012087D01*
X004722Y012246D02*
X004567Y012246D01*
X004567Y012404D02*
X004722Y012404D01*
X004722Y012563D02*
X004567Y012563D01*
X004567Y012880D02*
X004722Y012880D01*
X004722Y013039D02*
X004567Y013039D01*
X004567Y013197D02*
X004722Y013197D01*
X004722Y013356D02*
X004567Y013356D01*
X004157Y013356D02*
X004097Y013356D01*
X004097Y013197D02*
X004150Y013197D01*
X004150Y013039D02*
X004097Y013039D01*
X004097Y012880D02*
X004150Y012880D01*
X003985Y013514D02*
X009333Y013514D01*
X009333Y013356D02*
X005133Y013356D01*
X005380Y013197D02*
X005548Y013267D01*
X005730Y013267D01*
X005899Y013197D01*
X005199Y012563D02*
X005140Y012563D01*
X005140Y012404D02*
X005199Y012404D01*
X004767Y011929D02*
X002133Y011929D01*
X002115Y012087D02*
X003045Y012087D01*
X002626Y012246D02*
X002115Y012246D01*
X002291Y011770D02*
X004609Y011770D01*
X003269Y011612D02*
X002912Y011612D01*
X002937Y011453D02*
X003244Y011453D01*
X003244Y011295D02*
X002937Y011295D01*
X002937Y011136D02*
X003244Y011136D01*
X003244Y010978D02*
X002937Y010978D01*
X002937Y010819D02*
X003244Y010819D01*
X003244Y010660D02*
X002937Y010660D01*
X002933Y010502D02*
X003248Y010502D01*
X003376Y010343D02*
X002805Y010343D01*
X003534Y010185D02*
X000643Y010185D01*
X000643Y010343D02*
X001644Y010343D01*
X001516Y010502D02*
X000643Y010502D01*
X000643Y010660D02*
X001512Y010660D01*
X001512Y010819D02*
X000643Y010819D01*
X000643Y010978D02*
X001472Y010978D01*
X001313Y011136D02*
X000643Y011136D01*
X000643Y011295D02*
X001155Y011295D01*
X001034Y011453D02*
X000643Y011453D01*
X000643Y011612D02*
X000975Y011612D01*
X000975Y011770D02*
X000643Y011770D01*
X000643Y011929D02*
X000975Y011929D01*
X000975Y012087D02*
X000643Y012087D01*
X000643Y012246D02*
X000975Y012246D01*
X001038Y012404D02*
X000643Y012404D01*
X000643Y012563D02*
X001144Y012563D01*
X001139Y012721D02*
X000643Y012721D01*
X000643Y012880D02*
X001139Y012880D01*
X001143Y013039D02*
X000643Y013039D01*
X000643Y013197D02*
X001847Y013197D01*
X001554Y013039D02*
X001517Y013039D01*
X001517Y012880D02*
X001554Y012880D01*
X001405Y013356D02*
X000643Y013356D01*
X000643Y013514D02*
X001308Y013514D01*
X001317Y013673D02*
X000643Y013673D01*
X000643Y013831D02*
X001323Y013831D01*
X001305Y013947D02*
X001305Y013947D01*
X000685Y013990D02*
X000643Y013990D01*
X002168Y013356D02*
X002988Y013356D01*
X003100Y013514D02*
X002327Y013514D01*
X002435Y013673D02*
X009378Y013673D01*
X009504Y013831D02*
X002441Y013831D01*
X002371Y013990D02*
X009663Y013990D01*
X009806Y014148D02*
X002445Y014148D01*
X002445Y014307D02*
X009806Y014307D01*
X009806Y014465D02*
X002445Y014465D01*
X002401Y014624D02*
X009806Y014624D01*
X009806Y014783D02*
X002445Y014783D01*
X002445Y014941D02*
X009806Y014941D01*
X009806Y015100D02*
X002445Y015100D01*
X002409Y015258D02*
X009772Y015258D01*
X008606Y015417D02*
X008569Y015417D01*
X008569Y015575D02*
X008606Y015575D01*
X008569Y015734D02*
X002445Y015734D01*
X002445Y015575D02*
X008191Y015575D01*
X008251Y015417D02*
X002445Y015417D01*
X002415Y015892D02*
X007420Y015892D01*
X007329Y016051D02*
X002268Y016051D01*
X002268Y016041D02*
X002268Y016041D01*
X002268Y016209D02*
X007307Y016209D01*
X007341Y016368D02*
X002257Y016368D01*
X002212Y016527D02*
X007449Y016527D01*
X007634Y016685D02*
X002268Y016685D01*
X002268Y016844D02*
X007867Y016844D01*
X007749Y017066D02*
X007878Y017195D01*
X007948Y017363D01*
X007948Y017546D01*
X007878Y017714D01*
X007749Y017843D01*
X007581Y017913D01*
X007484Y017913D01*
X006350Y019047D01*
X006260Y019137D01*
X006142Y019186D01*
X005898Y019186D01*
X005885Y019218D01*
X005817Y019286D01*
X005729Y019322D01*
X005240Y019322D01*
X005152Y019286D01*
X005150Y019284D01*
X005148Y019286D01*
X005060Y019322D01*
X004571Y019322D01*
X004483Y019286D01*
X004415Y019218D01*
X004379Y019130D01*
X004379Y018772D01*
X003873Y018267D01*
X003777Y018267D01*
X003608Y018197D01*
X003479Y018068D01*
X003410Y017900D01*
X003410Y017718D01*
X003479Y017549D01*
X003608Y017420D01*
X003777Y017351D01*
X003959Y017351D01*
X004127Y017420D01*
X004256Y017549D01*
X004326Y017718D01*
X004326Y017814D01*
X004921Y018409D01*
X005060Y018409D01*
X005148Y018446D01*
X005150Y018448D01*
X005152Y018446D01*
X005240Y018409D01*
X005729Y018409D01*
X005817Y018446D01*
X005885Y018513D01*
X005898Y018546D01*
X005946Y018546D01*
X007032Y017460D01*
X007032Y017363D01*
X007101Y017195D01*
X007230Y017066D01*
X007399Y016996D01*
X007581Y016996D01*
X007749Y017066D01*
X007844Y017161D02*
X008528Y017161D01*
X008531Y017002D02*
X007595Y017002D01*
X007385Y017002D02*
X002246Y017002D01*
X002265Y017161D02*
X007136Y017161D01*
X007050Y017319D02*
X002268Y017319D01*
X002268Y017433D02*
X002268Y017433D01*
X002268Y017478D02*
X003551Y017478D01*
X003443Y017636D02*
X002235Y017636D01*
X002222Y017667D02*
X002222Y017667D01*
X002222Y017667D01*
X002094Y017795D02*
X003410Y017795D01*
X003432Y017953D02*
X000643Y017953D01*
X000643Y017795D02*
X001391Y017795D01*
X001305Y017636D02*
X000643Y017636D01*
X000643Y017478D02*
X001048Y017478D01*
X000871Y017319D02*
X000643Y017319D01*
X000749Y017205D02*
X000749Y017205D01*
X000749Y017205D01*
X000705Y017161D02*
X000643Y017161D01*
X000668Y017123D02*
X000668Y017123D01*
X000643Y018112D02*
X002056Y018112D01*
X001999Y018118D02*
X002114Y018106D01*
X002114Y019355D01*
X000866Y019355D01*
X000877Y019239D01*
X000903Y019111D01*
X000941Y018986D01*
X000991Y018865D01*
X001052Y018750D01*
X001125Y018642D01*
X001208Y018541D01*
X001300Y018448D01*
X001401Y018365D01*
X001510Y018293D01*
X001625Y018231D01*
X001746Y018181D01*
X001871Y018143D01*
X001999Y018118D01*
X002114Y018112D02*
X002274Y018112D01*
X002274Y018106D02*
X002390Y018118D01*
X002518Y018143D01*
X002643Y018181D01*
X002764Y018231D01*
X002879Y018293D01*
X002988Y018365D01*
X003089Y018448D01*
X003181Y018541D01*
X003264Y018642D01*
X003337Y018750D01*
X003398Y018865D01*
X003448Y018986D01*
X003486Y019111D01*
X003512Y019239D01*
X003523Y019355D01*
X002275Y019355D01*
X002275Y019515D01*
X003523Y019515D01*
X003512Y019630D01*
X003486Y019758D01*
X003448Y019883D01*
X003398Y020004D01*
X003337Y020119D01*
X003264Y020228D01*
X003181Y020329D01*
X003089Y020421D01*
X002988Y020504D01*
X002879Y020577D01*
X002764Y020639D01*
X002643Y020689D01*
X002518Y020726D01*
X002390Y020752D01*
X002274Y020763D01*
X002274Y019515D01*
X002114Y019515D01*
X002114Y019355D01*
X002274Y019355D01*
X002274Y018106D01*
X002333Y018112D02*
X003523Y018112D01*
X003877Y018271D02*
X002838Y018271D01*
X003065Y018429D02*
X004035Y018429D01*
X004194Y018588D02*
X003220Y018588D01*
X003334Y018746D02*
X004352Y018746D01*
X004379Y018905D02*
X003414Y018905D01*
X003472Y019063D02*
X004379Y019063D01*
X004418Y019222D02*
X003508Y019222D01*
X003521Y019539D02*
X007118Y019539D01*
X006960Y019697D02*
X005934Y019697D01*
X005882Y019222D02*
X007435Y019222D01*
X007277Y019380D02*
X002275Y019380D01*
X002274Y019222D02*
X002114Y019222D01*
X002114Y019380D02*
X000643Y019380D01*
X000643Y019222D02*
X000881Y019222D01*
X000917Y019063D02*
X000643Y019063D01*
X000643Y018905D02*
X000974Y018905D01*
X001055Y018746D02*
X000643Y018746D01*
X000643Y018588D02*
X001169Y018588D01*
X001323Y018429D02*
X000643Y018429D01*
X000643Y018271D02*
X001551Y018271D01*
X002114Y018271D02*
X002274Y018271D01*
X002274Y018429D02*
X002114Y018429D01*
X002114Y018588D02*
X002274Y018588D01*
X002274Y018746D02*
X002114Y018746D01*
X002114Y018905D02*
X002274Y018905D01*
X002274Y019063D02*
X002114Y019063D01*
X002114Y019515D02*
X000866Y019515D01*
X000877Y019630D01*
X000903Y019758D01*
X000941Y019883D01*
X000991Y020004D01*
X001052Y020119D01*
X001125Y020228D01*
X001208Y020329D01*
X001300Y020421D01*
X001401Y020504D01*
X001510Y020577D01*
X001625Y020639D01*
X001746Y020689D01*
X001871Y020726D01*
X001999Y020752D01*
X002114Y020763D01*
X002114Y019515D01*
X002114Y019539D02*
X002274Y019539D01*
X002274Y019697D02*
X002114Y019697D01*
X002114Y019856D02*
X002274Y019856D01*
X002274Y020014D02*
X002114Y020014D01*
X002114Y020173D02*
X002274Y020173D01*
X002274Y020332D02*
X002114Y020332D01*
X002114Y020490D02*
X002274Y020490D01*
X002274Y020649D02*
X002114Y020649D01*
X001650Y020649D02*
X000643Y020649D01*
X000643Y020807D02*
X007728Y020807D01*
X007728Y020649D02*
X004574Y020649D01*
X004340Y020250D02*
X004515Y020075D01*
X004889Y020075D01*
X004514Y019697D02*
X003498Y019697D01*
X003457Y019856D02*
X004094Y019856D01*
X003942Y020014D02*
X003393Y020014D01*
X003301Y020173D02*
X003882Y020173D01*
X003882Y020332D02*
X003179Y020332D01*
X003005Y020490D02*
X003944Y020490D01*
X004106Y020649D02*
X002739Y020649D01*
X001384Y020490D02*
X000643Y020490D01*
X000643Y020332D02*
X001210Y020332D01*
X001088Y020173D02*
X000643Y020173D01*
X000643Y020014D02*
X000996Y020014D01*
X000932Y019856D02*
X000643Y019856D01*
X000643Y019697D02*
X000891Y019697D01*
X000868Y019539D02*
X000643Y019539D01*
X000643Y020966D02*
X007771Y020966D01*
X007728Y020490D02*
X005897Y020490D01*
X005559Y020075D02*
X007034Y020075D01*
X007923Y019187D01*
X008789Y019187D01*
X008461Y019507D02*
X008055Y019507D01*
X007982Y019580D01*
X008166Y019580D01*
X008166Y019939D01*
X008203Y019939D01*
X008203Y019580D01*
X008425Y019580D01*
X008471Y019593D01*
X008492Y019605D01*
X008526Y019572D01*
X008461Y019507D01*
X008493Y019539D02*
X008023Y019539D01*
X008166Y019697D02*
X008203Y019697D01*
X008203Y019856D02*
X008166Y019856D01*
X007788Y019856D02*
X007706Y019856D01*
X007788Y020014D02*
X007548Y020014D01*
X007389Y020173D02*
X007788Y020173D01*
X007749Y020332D02*
X007231Y020332D01*
X008185Y020627D02*
X008893Y020627D01*
X009464Y020607D02*
X009928Y020607D01*
X010009Y020525D01*
X010915Y020525D01*
X011072Y020368D01*
X011072Y019963D01*
X011067Y019957D01*
X010610Y020014D02*
X009921Y020014D01*
X009921Y019856D02*
X010610Y019856D01*
X010616Y019697D02*
X009921Y019697D01*
X009818Y019539D02*
X010613Y019539D01*
X010610Y019380D02*
X009867Y019380D01*
X009877Y019222D02*
X010280Y019222D01*
X010065Y019063D02*
X009831Y019063D01*
X009706Y018905D02*
X009993Y018905D01*
X009984Y018746D02*
X008922Y018746D01*
X008656Y018746D02*
X006651Y018746D01*
X006809Y018588D02*
X010032Y018588D01*
X010024Y018429D02*
X006968Y018429D01*
X007126Y018271D02*
X010382Y018271D01*
X009790Y018112D02*
X009753Y018112D01*
X009753Y017953D02*
X009790Y017953D01*
X010401Y017583D02*
X010956Y017583D01*
X011106Y017733D01*
X011384Y017454D01*
X011624Y017454D01*
X012044Y017636D02*
X013982Y017636D01*
X013980Y017478D02*
X012082Y017478D01*
X012063Y017319D02*
X013980Y017319D01*
X013980Y017161D02*
X013091Y017161D01*
X014102Y017795D02*
X011931Y017795D01*
X011562Y017953D02*
X015530Y017953D01*
X015530Y018112D02*
X011544Y018112D01*
X011562Y018271D02*
X015594Y018271D01*
X015590Y018429D02*
X011562Y018429D01*
X011562Y018588D02*
X016017Y018588D01*
X016017Y018615D02*
X015590Y018615D01*
X015590Y018847D01*
X015602Y018892D01*
X015626Y018934D01*
X015659Y018967D01*
X015700Y018991D01*
X015746Y019003D01*
X016017Y019003D01*
X016017Y018615D01*
X016017Y018746D02*
X016113Y018746D01*
X016113Y018905D02*
X016017Y018905D01*
X016487Y019063D02*
X015463Y019063D01*
X015463Y019057D02*
X015463Y019502D01*
X014832Y019502D01*
X014832Y018900D01*
X015307Y018900D01*
X015353Y018913D01*
X015394Y018936D01*
X015427Y018970D01*
X015451Y019011D01*
X015463Y019057D01*
X015463Y019222D02*
X016464Y019222D01*
X016462Y019380D02*
X015463Y019380D01*
X015463Y019662D02*
X015463Y020108D01*
X015451Y020154D01*
X015427Y020195D01*
X015394Y020228D01*
X015353Y020252D01*
X015307Y020264D01*
X014832Y020264D01*
X014832Y019663D01*
X014672Y019663D01*
X014672Y020264D01*
X014197Y020264D01*
X014151Y020252D01*
X014110Y020228D01*
X014076Y020195D01*
X014053Y020154D01*
X014040Y020108D01*
X014040Y019662D01*
X014672Y019662D01*
X014672Y019502D01*
X014832Y019502D01*
X014832Y019662D01*
X015463Y019662D01*
X015463Y019697D02*
X016016Y019697D01*
X015917Y019856D02*
X015463Y019856D01*
X015463Y020014D02*
X015890Y020014D01*
X015918Y020173D02*
X015440Y020173D01*
X016018Y020332D02*
X011445Y020332D01*
X011368Y020490D02*
X016225Y020490D01*
X016462Y019539D02*
X014832Y019539D01*
X014832Y019697D02*
X014672Y019697D01*
X014672Y019539D02*
X011520Y019539D01*
X011517Y019697D02*
X014040Y019697D01*
X014040Y019856D02*
X011523Y019856D01*
X011523Y020014D02*
X014040Y020014D01*
X014064Y020173D02*
X011523Y020173D01*
X011244Y020649D02*
X018054Y020649D01*
X018306Y020807D02*
X011071Y020807D01*
X010143Y020966D02*
X031163Y020966D01*
X031163Y020807D02*
X021918Y020807D01*
X020748Y019928D02*
X020731Y019921D01*
X020682Y019872D01*
X020660Y019885D01*
X020615Y019897D01*
X020413Y019897D01*
X020413Y019519D01*
X020376Y019519D01*
X020376Y019897D01*
X020174Y019897D01*
X020128Y019885D01*
X020087Y019861D01*
X020053Y019828D01*
X020030Y019787D01*
X020017Y019741D01*
X020017Y019519D01*
X020375Y019519D01*
X020375Y019482D01*
X020017Y019482D01*
X020017Y019389D01*
X019979Y019389D01*
X019837Y019531D01*
X019724Y019644D01*
X019577Y019705D01*
X019307Y019705D01*
X019301Y019707D01*
X019132Y019707D01*
X019108Y019717D01*
X018949Y019717D01*
X018925Y019707D01*
X018756Y019707D01*
X018668Y019671D01*
X018600Y019603D01*
X018564Y019515D01*
X018564Y019119D01*
X018585Y019067D01*
X018564Y019015D01*
X018564Y018721D01*
X018497Y018788D01*
X018329Y018857D01*
X018147Y018857D01*
X017978Y018788D01*
X017849Y018659D01*
X017831Y018615D01*
X017473Y018257D01*
X017334Y018257D01*
X017334Y018317D01*
X016929Y018317D01*
X016929Y018317D01*
X017334Y018317D01*
X017334Y018491D01*
X017321Y018537D01*
X017304Y018567D01*
X017321Y018598D01*
X017334Y018643D01*
X017334Y018817D01*
X016929Y018817D01*
X016929Y018817D01*
X017334Y018817D01*
X017334Y018991D01*
X017330Y019004D01*
X017357Y019031D01*
X017394Y019119D01*
X017394Y019515D01*
X017373Y019566D01*
X017379Y019566D01*
X017449Y019595D01*
X017520Y019566D01*
X018127Y019566D01*
X018215Y019602D01*
X018283Y019670D01*
X018292Y019692D01*
X018378Y019728D01*
X018501Y019852D01*
X018577Y019928D01*
X020748Y019928D01*
X020413Y019856D02*
X020376Y019856D01*
X020376Y019697D02*
X020413Y019697D01*
X020413Y019539D02*
X020376Y019539D01*
X020017Y019539D02*
X019829Y019539D01*
X020017Y019697D02*
X019595Y019697D01*
X020082Y019856D02*
X018506Y019856D01*
X018304Y019697D02*
X018733Y019697D01*
X018574Y019539D02*
X017384Y019539D01*
X017394Y019380D02*
X018564Y019380D01*
X018564Y019222D02*
X017394Y019222D01*
X017370Y019063D02*
X018584Y019063D01*
X018564Y018905D02*
X017334Y018905D01*
X017334Y018746D02*
X017937Y018746D01*
X017804Y018588D02*
X017316Y018588D01*
X017334Y018429D02*
X017645Y018429D01*
X017487Y018271D02*
X017334Y018271D01*
X016929Y018317D02*
X016929Y018317D01*
X016929Y018487D01*
X016929Y018817D01*
X016929Y018817D01*
X016929Y018647D01*
X016929Y018317D01*
X016929Y018429D02*
X016929Y018429D01*
X016929Y018588D02*
X016929Y018588D01*
X016929Y018746D02*
X016929Y018746D01*
X016524Y018905D02*
X016521Y018905D01*
X015609Y018905D02*
X015323Y018905D01*
X015590Y018746D02*
X011515Y018746D01*
X011436Y018905D02*
X014181Y018905D01*
X014197Y018900D02*
X014672Y018900D01*
X014672Y019502D01*
X014040Y019502D01*
X014040Y019057D01*
X014053Y019011D01*
X014076Y018970D01*
X014110Y018936D01*
X014151Y018913D01*
X014197Y018900D01*
X014040Y019063D02*
X011523Y019063D01*
X011523Y019222D02*
X014040Y019222D01*
X014040Y019380D02*
X011523Y019380D01*
X011106Y019249D02*
X011106Y018832D01*
X011067Y018793D01*
X010443Y018793D01*
X010605Y019222D02*
X010610Y019222D01*
X011067Y019288D02*
X011106Y019249D01*
X011106Y018832D02*
X011106Y018402D01*
X009771Y017170D02*
X009056Y017170D01*
X008986Y017100D01*
X008581Y017319D02*
X007930Y017319D01*
X007948Y017478D02*
X008716Y017478D01*
X009394Y017636D02*
X007910Y017636D01*
X007797Y017795D02*
X009394Y017795D01*
X009394Y017953D02*
X007443Y017953D01*
X007285Y018112D02*
X009403Y018112D01*
X009419Y019266D02*
X009419Y019938D01*
X008913Y019938D01*
X008893Y019957D01*
X009419Y019938D02*
X009464Y019938D01*
X010305Y020173D02*
X010610Y020173D01*
X009876Y020966D02*
X009858Y020966D01*
X007768Y018905D02*
X006492Y018905D01*
X006334Y019063D02*
X007594Y019063D01*
X006380Y018112D02*
X004623Y018112D01*
X004465Y017953D02*
X006538Y017953D01*
X006697Y017795D02*
X004326Y017795D01*
X004292Y017636D02*
X006855Y017636D01*
X007014Y017478D02*
X004185Y017478D01*
X003868Y017809D02*
X004815Y018756D01*
X004815Y018866D01*
X005107Y018429D02*
X005192Y018429D01*
X004782Y018271D02*
X006221Y018271D01*
X006063Y018429D02*
X005777Y018429D01*
X005485Y018866D02*
X006078Y018866D01*
X007490Y017454D01*
X008111Y015892D02*
X008191Y015892D01*
X009634Y016527D02*
X009792Y016527D01*
X009634Y016685D02*
X009625Y016685D01*
X014672Y018905D02*
X014832Y018905D01*
X014832Y019063D02*
X014672Y019063D01*
X014672Y019222D02*
X014832Y019222D01*
X014832Y019380D02*
X014672Y019380D01*
X014672Y019856D02*
X014832Y019856D01*
X014832Y020014D02*
X014672Y020014D01*
X014672Y020173D02*
X014832Y020173D01*
X015402Y017795D02*
X015419Y017795D01*
X016505Y017319D02*
X018029Y017319D01*
X017971Y017161D02*
X016505Y017161D01*
X016505Y017002D02*
X017957Y017002D01*
X017957Y016844D02*
X016636Y016844D01*
X016795Y016685D02*
X017957Y016685D01*
X018016Y016527D02*
X016953Y016527D01*
X017112Y016368D02*
X018017Y016368D01*
X018017Y016051D02*
X017429Y016051D01*
X017587Y015892D02*
X018066Y015892D01*
X018395Y015892D02*
X018432Y015892D01*
X018432Y016051D02*
X018395Y016051D01*
X018395Y016209D02*
X017270Y016209D01*
X017746Y015734D02*
X023624Y015734D01*
X023782Y015892D02*
X022205Y015892D01*
X022342Y016051D02*
X023941Y016051D01*
X024099Y016209D02*
X022397Y016209D01*
X023041Y016368D02*
X023078Y016368D01*
X023078Y016527D02*
X023041Y016527D01*
X023078Y016685D02*
X024848Y016685D01*
X024901Y016663D02*
X025201Y016663D01*
X025318Y016663D01*
X025427Y016708D01*
X025442Y016724D01*
X025458Y016708D01*
X025566Y016663D01*
X025684Y016663D01*
X025792Y016708D01*
X025875Y016791D01*
X026025Y016941D01*
X026070Y017050D01*
X026070Y017167D01*
X026070Y017467D01*
X026025Y017576D01*
X025942Y017659D01*
X025834Y017704D01*
X025717Y017704D01*
X025625Y017666D01*
X025534Y017704D01*
X025416Y017704D01*
X025330Y017668D01*
X025243Y017704D01*
X025126Y017704D01*
X024976Y017704D01*
X024930Y017685D01*
X024867Y017659D01*
X024866Y017658D01*
X024792Y017584D01*
X024790Y017581D01*
X024709Y017501D01*
X024702Y017483D01*
X024664Y017392D01*
X024664Y017275D01*
X024664Y017200D01*
X024702Y017108D01*
X024664Y017017D01*
X024664Y016900D01*
X024709Y016791D01*
X024792Y016708D01*
X024901Y016663D01*
X024688Y016844D02*
X023436Y016844D01*
X023414Y017002D02*
X024664Y017002D01*
X024681Y017161D02*
X021499Y017161D01*
X021496Y017319D02*
X024664Y017319D01*
X024700Y017478D02*
X021437Y017478D01*
X021440Y017636D02*
X024845Y017636D01*
X024867Y017659D02*
X024867Y017659D01*
X024709Y017501D02*
X024709Y017501D01*
X024709Y017501D01*
X024543Y017810D02*
X024272Y017810D01*
X024227Y017822D01*
X024186Y017845D01*
X024152Y017879D01*
X024128Y017920D01*
X024116Y017966D01*
X024116Y018197D01*
X024543Y018197D01*
X024543Y017810D01*
X024543Y017953D02*
X024639Y017953D01*
X024639Y018112D02*
X024543Y018112D01*
X024543Y018271D02*
X023212Y018271D01*
X023370Y018429D02*
X024116Y018429D01*
X024107Y018588D02*
X023529Y018588D01*
X023687Y018746D02*
X024056Y018746D01*
X024056Y018905D02*
X023846Y018905D01*
X024005Y019063D02*
X024056Y019063D01*
X023394Y019697D02*
X023390Y019697D01*
X023390Y019856D02*
X023553Y019856D01*
X023698Y020014D02*
X023390Y020014D01*
X023390Y020173D02*
X023698Y020173D01*
X023698Y020332D02*
X023390Y020332D01*
X023390Y020490D02*
X023698Y020490D01*
X023713Y020649D02*
X023375Y020649D01*
X025107Y020649D02*
X029072Y020649D01*
X029066Y020646D02*
X028951Y020585D01*
X028842Y020512D01*
X028741Y020429D01*
X028649Y020337D01*
X028566Y020236D01*
X028493Y020127D01*
X028432Y020012D01*
X028382Y019891D01*
X028344Y019766D01*
X028318Y019638D01*
X028307Y019523D01*
X029555Y019523D01*
X029555Y019363D01*
X028307Y019363D01*
X028318Y019247D01*
X028344Y019119D01*
X028382Y018994D01*
X028432Y018873D01*
X028493Y018758D01*
X028566Y018649D01*
X028649Y018548D01*
X028741Y018456D01*
X028842Y018373D01*
X028951Y018301D01*
X029066Y018239D01*
X029187Y018189D01*
X029312Y018151D01*
X029440Y018125D01*
X029555Y018114D01*
X029555Y019362D01*
X029715Y019362D01*
X029715Y018114D01*
X029831Y018125D01*
X029959Y018151D01*
X030084Y018189D01*
X030205Y018239D01*
X030320Y018301D01*
X030429Y018373D01*
X030530Y018456D01*
X030622Y018548D01*
X030705Y018649D01*
X030778Y018758D01*
X030839Y018873D01*
X030889Y018994D01*
X030927Y019119D01*
X030953Y019247D01*
X030964Y019363D01*
X029716Y019363D01*
X029716Y019523D01*
X030964Y019523D01*
X030953Y019638D01*
X030927Y019766D01*
X030889Y019891D01*
X030839Y020012D01*
X030778Y020127D01*
X030705Y020236D01*
X030622Y020337D01*
X030530Y020429D01*
X030429Y020512D01*
X030320Y020585D01*
X030205Y020646D01*
X030084Y020696D01*
X029959Y020734D01*
X029831Y020760D01*
X029715Y020771D01*
X029715Y019523D01*
X029555Y019523D01*
X029555Y020771D01*
X029440Y020760D01*
X029312Y020734D01*
X029187Y020696D01*
X029066Y020646D01*
X028815Y020490D02*
X025851Y020490D01*
X026009Y020332D02*
X028644Y020332D01*
X028524Y020173D02*
X026168Y020173D01*
X026326Y020014D02*
X028433Y020014D01*
X028371Y019856D02*
X026485Y019856D01*
X026643Y019697D02*
X028330Y019697D01*
X028308Y019539D02*
X026901Y019539D01*
X027060Y019380D02*
X029555Y019380D01*
X029555Y019222D02*
X029715Y019222D01*
X029716Y019380D02*
X031163Y019380D01*
X031163Y019222D02*
X030948Y019222D01*
X030910Y019063D02*
X031163Y019063D01*
X031163Y018905D02*
X030852Y018905D01*
X030770Y018746D02*
X031163Y018746D01*
X031163Y018588D02*
X030654Y018588D01*
X030497Y018429D02*
X031163Y018429D01*
X031163Y018271D02*
X030264Y018271D01*
X029715Y018271D02*
X029555Y018271D01*
X029555Y018429D02*
X029715Y018429D01*
X029715Y018588D02*
X029555Y018588D01*
X029555Y018746D02*
X029715Y018746D01*
X029715Y018905D02*
X029555Y018905D01*
X029555Y019063D02*
X029715Y019063D01*
X029715Y019539D02*
X029555Y019539D01*
X029555Y019697D02*
X029715Y019697D01*
X029715Y019856D02*
X029555Y019856D01*
X029555Y020014D02*
X029715Y020014D01*
X029715Y020173D02*
X029555Y020173D01*
X029555Y020332D02*
X029715Y020332D01*
X029715Y020490D02*
X029555Y020490D01*
X029555Y020649D02*
X029715Y020649D01*
X030199Y020649D02*
X031163Y020649D01*
X031163Y020490D02*
X030456Y020490D01*
X030626Y020332D02*
X031163Y020332D01*
X031163Y020173D02*
X030747Y020173D01*
X030838Y020014D02*
X031163Y020014D01*
X031163Y019856D02*
X030900Y019856D01*
X030941Y019697D02*
X031163Y019697D01*
X031163Y019539D02*
X030962Y019539D01*
X029007Y018271D02*
X024640Y018271D01*
X025067Y018429D02*
X026257Y018429D01*
X026099Y018588D02*
X025076Y018588D01*
X025127Y018746D02*
X025940Y018746D01*
X025824Y018905D02*
X025127Y018905D01*
X025127Y019063D02*
X025665Y019063D01*
X025507Y019222D02*
X025127Y019222D01*
X025092Y019380D02*
X025348Y019380D01*
X025086Y019483D02*
X025086Y019483D01*
X025067Y018112D02*
X031163Y018112D01*
X031163Y017953D02*
X025063Y017953D01*
X024119Y017953D02*
X022891Y017953D01*
X023053Y018112D02*
X024116Y018112D01*
X023078Y017002D02*
X023041Y017002D01*
X023041Y016844D02*
X023078Y016844D01*
X023436Y016527D02*
X024416Y016527D01*
X024258Y016368D02*
X023396Y016368D01*
X024777Y015417D02*
X027296Y015417D01*
X027137Y015575D02*
X024936Y015575D01*
X024619Y015258D02*
X025393Y015258D01*
X025360Y015100D02*
X024460Y015100D01*
X024301Y014941D02*
X025360Y014941D01*
X025360Y014783D02*
X024143Y014783D01*
X023890Y014624D02*
X025340Y014624D01*
X025337Y014465D02*
X022030Y014465D01*
X022060Y014307D02*
X022275Y014307D01*
X022270Y014148D02*
X022060Y014148D01*
X022060Y013990D02*
X022270Y013990D01*
X022270Y013831D02*
X022060Y013831D01*
X022060Y013673D02*
X022222Y013673D01*
X022210Y013514D02*
X022087Y013514D01*
X021939Y012927D02*
X021860Y012848D01*
X021860Y012021D01*
X022318Y012045D02*
X022318Y012113D01*
X022292Y012175D01*
X022295Y012172D01*
X022383Y012136D01*
X023541Y012136D01*
X023559Y012143D01*
X023559Y012082D01*
X023563Y012071D01*
X023517Y012083D01*
X023040Y012083D01*
X023040Y011666D01*
X022885Y011666D01*
X022885Y012083D01*
X022407Y012083D01*
X022361Y012071D01*
X022320Y012047D01*
X022318Y012045D01*
X022318Y012087D02*
X023559Y012087D01*
X023563Y012071D02*
X023563Y012071D01*
X023674Y011770D02*
X023703Y011770D01*
X023706Y011612D02*
X023040Y011612D01*
X023040Y011511D02*
X023674Y011511D01*
X023674Y011250D01*
X023661Y011204D01*
X023638Y011163D01*
X023604Y011129D01*
X023563Y011106D01*
X023517Y011093D01*
X023040Y011093D01*
X023040Y011511D01*
X023040Y011453D02*
X022885Y011453D01*
X022885Y011295D02*
X023040Y011295D01*
X023040Y011136D02*
X022885Y011136D01*
X022884Y011612D02*
X022068Y011612D01*
X022885Y011770D02*
X023040Y011770D01*
X023040Y011929D02*
X022885Y011929D01*
X023674Y011453D02*
X023774Y011453D01*
X023785Y011295D02*
X023674Y011295D01*
X023611Y011136D02*
X023785Y011136D01*
X024702Y011770D02*
X027022Y011770D01*
X027078Y011929D02*
X027114Y011929D01*
X027114Y012087D02*
X027078Y012087D01*
X027078Y012246D02*
X027114Y012246D01*
X026782Y011929D02*
X024583Y011929D01*
X024143Y012179D02*
X024104Y012179D01*
X024104Y012435D01*
X024104Y012691D02*
X024222Y012809D01*
X024104Y012691D02*
X024104Y012947D01*
X024104Y013203D02*
X023454Y013203D01*
X023317Y013340D01*
X024104Y013458D02*
X024104Y013596D01*
X024104Y013522D02*
X024104Y013714D01*
X024104Y013522D01*
X024104Y013522D01*
X024104Y013673D02*
X024104Y013673D01*
X024104Y013714D02*
X024104Y013714D01*
X024475Y013714D01*
X024475Y013714D01*
X024104Y013714D01*
X024104Y013714D01*
X024104Y013831D02*
X024104Y013831D01*
X023693Y013990D02*
X025418Y013990D01*
X025340Y014148D02*
X023693Y014148D01*
X023675Y014307D02*
X025337Y014307D01*
X025286Y013831D02*
X025126Y013831D01*
X025126Y013673D02*
X025286Y013673D01*
X025286Y013514D02*
X025126Y013514D01*
X025126Y013356D02*
X025286Y013356D01*
X025286Y013197D02*
X025126Y013197D01*
X025126Y013039D02*
X024649Y013039D01*
X025126Y012880D02*
X025286Y012880D01*
X025286Y012886D02*
X025286Y013046D01*
X025788Y013046D01*
X025800Y013017D01*
X025824Y012994D01*
X025824Y012947D01*
X025875Y012947D01*
X025876Y012946D01*
X025824Y012946D01*
X025824Y012886D01*
X025286Y012886D01*
X025286Y013039D02*
X025791Y013039D01*
X026151Y012848D02*
X026210Y012848D01*
X026309Y012947D01*
X026309Y012690D02*
X026309Y012664D01*
X026309Y012435D01*
X026308Y012435D01*
X026308Y012664D01*
X026308Y012690D01*
X026309Y012690D01*
X026308Y012563D02*
X026309Y012563D01*
X026309Y012434D02*
X026309Y012408D01*
X026309Y012179D01*
X026308Y012179D01*
X025937Y012179D01*
X025937Y012179D01*
X026308Y012179D01*
X026308Y012179D01*
X026308Y012408D01*
X026308Y012434D01*
X026309Y012434D01*
X026308Y012404D02*
X026309Y012404D01*
X026308Y012246D02*
X026309Y012246D01*
X026309Y012179D02*
X026269Y012179D01*
X026151Y012061D01*
X025994Y012061D01*
X025876Y012179D01*
X026308Y012087D02*
X026309Y012087D01*
X026864Y011612D02*
X024860Y011612D01*
X025130Y011453D02*
X025598Y011453D01*
X025517Y011295D02*
X025210Y011295D01*
X025210Y011136D02*
X025517Y011136D01*
X025517Y010978D02*
X025210Y010978D01*
X025210Y010819D02*
X025517Y010819D01*
X025517Y010660D02*
X025210Y010660D01*
X025210Y010502D02*
X025517Y010502D01*
X025470Y010343D02*
X025210Y010343D01*
X025166Y010185D02*
X025311Y010185D01*
X026148Y009551D02*
X026302Y009551D01*
X026225Y009628D02*
X026561Y009292D01*
X026561Y008706D01*
X026616Y008599D02*
X025457Y008599D01*
X025457Y008441D02*
X028641Y008441D01*
X028492Y008282D02*
X028453Y008205D01*
X028426Y008121D01*
X028412Y008036D01*
X029297Y008036D01*
X029297Y007946D01*
X029387Y007946D01*
X029387Y007436D01*
X029761Y007436D01*
X029847Y007450D01*
X029930Y007477D01*
X030008Y007517D01*
X030079Y007568D01*
X030140Y007630D01*
X030192Y007701D01*
X030212Y007740D01*
X030212Y007711D01*
X030258Y007599D01*
X030344Y007513D01*
X030456Y007467D01*
X031017Y007467D01*
X031048Y007461D01*
X031077Y007467D01*
X031108Y007467D01*
X031136Y007478D01*
X031163Y007484D01*
X031163Y002498D01*
X025558Y002498D01*
X025604Y002608D01*
X025604Y002733D01*
X029216Y002733D01*
X029206Y002736D02*
X029332Y002698D01*
X029460Y002673D01*
X029575Y002661D01*
X029575Y003910D01*
X028327Y003910D01*
X028338Y003794D01*
X028363Y003666D01*
X028401Y003541D01*
X028451Y003421D01*
X028513Y003305D01*
X028586Y003197D01*
X028668Y003096D01*
X028761Y003003D01*
X028862Y002920D01*
X028971Y002848D01*
X029086Y002786D01*
X029206Y002736D01*
X028905Y002892D02*
X025548Y002892D01*
X025556Y002899D02*
X025604Y003015D01*
X025604Y003129D01*
X025657Y003152D01*
X025746Y003240D01*
X025780Y003321D01*
X025861Y003355D01*
X025949Y003444D01*
X025997Y003559D01*
X025997Y003685D01*
X025949Y003801D01*
X025861Y003889D01*
X025780Y003923D01*
X025746Y004004D01*
X025668Y004082D01*
X025756Y004293D01*
X025756Y004783D01*
X025976Y005003D01*
X026393Y005003D01*
X026397Y004993D01*
X026465Y004925D01*
X026553Y004889D01*
X027711Y004889D01*
X027800Y004925D01*
X027867Y004993D01*
X027904Y005081D01*
X027904Y005806D01*
X027867Y005894D01*
X027800Y005962D01*
X027711Y005998D01*
X026553Y005998D01*
X026465Y005962D01*
X026397Y005894D01*
X026393Y005883D01*
X025882Y005883D01*
X025720Y005883D01*
X025909Y005962D01*
X026076Y006129D01*
X026167Y006348D01*
X026167Y007294D01*
X026076Y007513D01*
X025909Y007680D01*
X025690Y007771D01*
X025454Y007771D01*
X025383Y007741D01*
X025418Y007811D01*
X025444Y007891D01*
X025457Y007974D01*
X025457Y008333D01*
X025457Y008124D02*
X028427Y008124D01*
X028412Y007946D02*
X028426Y007861D01*
X028453Y007778D01*
X028492Y007701D01*
X028544Y007630D01*
X028606Y007568D01*
X028676Y007517D01*
X028754Y007477D01*
X028837Y007450D01*
X028923Y007436D01*
X029297Y007436D01*
X029297Y007946D01*
X028412Y007946D01*
X028444Y007807D02*
X025416Y007807D01*
X025456Y007965D02*
X029297Y007965D01*
X029297Y007807D02*
X029387Y007807D01*
X029387Y007648D02*
X029297Y007648D01*
X029297Y007490D02*
X029387Y007490D01*
X029954Y007490D02*
X030400Y007490D01*
X030238Y007648D02*
X030154Y007648D01*
X029387Y008124D02*
X029297Y008124D01*
X029297Y008282D02*
X029387Y008282D01*
X029387Y008441D02*
X029297Y008441D01*
X028748Y008916D02*
X028104Y008916D01*
X028104Y008758D02*
X030234Y008758D01*
X030216Y008916D02*
X029936Y008916D01*
X030170Y009075D02*
X030212Y009075D01*
X030212Y008599D02*
X028049Y008599D01*
X028104Y009075D02*
X028514Y009075D01*
X028408Y009234D02*
X028104Y009234D01*
X028104Y009392D02*
X028352Y009392D01*
X028352Y009551D02*
X028104Y009551D01*
X028104Y009709D02*
X028392Y009709D01*
X028474Y009868D02*
X028078Y009868D01*
X028651Y010026D02*
X027297Y010026D01*
X027138Y010185D02*
X031163Y010185D01*
X031163Y010343D02*
X027995Y010343D01*
X028153Y010502D02*
X031163Y010502D01*
X031163Y010660D02*
X028302Y010660D01*
X028302Y010819D02*
X031163Y010819D01*
X031163Y010978D02*
X028302Y010978D01*
X028302Y011136D02*
X031163Y011136D01*
X031163Y011295D02*
X028171Y011295D01*
X028013Y011453D02*
X028687Y011453D01*
X028676Y011459D02*
X028754Y011419D01*
X028837Y011392D01*
X028923Y011378D01*
X029297Y011378D01*
X029297Y011888D01*
X028412Y011888D01*
X028426Y011803D01*
X028453Y011720D01*
X028492Y011642D01*
X028544Y011572D01*
X028606Y011510D01*
X028676Y011459D01*
X028515Y011612D02*
X027769Y011612D01*
X027927Y011770D02*
X028436Y011770D01*
X028412Y011978D02*
X029297Y011978D01*
X029297Y012488D01*
X028923Y012488D01*
X028837Y012475D01*
X028754Y012448D01*
X028676Y012408D01*
X028606Y012357D01*
X028544Y012295D01*
X028492Y012224D01*
X028453Y012146D01*
X028426Y012063D01*
X028412Y011978D01*
X028434Y012087D02*
X028125Y012087D01*
X028125Y012246D02*
X028508Y012246D01*
X028671Y012404D02*
X028125Y012404D01*
X028125Y012563D02*
X030196Y012563D01*
X030193Y012404D02*
X030013Y012404D01*
X030163Y012721D02*
X028125Y012721D01*
X028125Y012880D02*
X028696Y012880D01*
X028492Y013039D02*
X028125Y013039D01*
X028159Y013197D02*
X028399Y013197D01*
X028352Y013356D02*
X028182Y013356D01*
X028182Y013514D02*
X028352Y013514D01*
X028401Y013673D02*
X028182Y013673D01*
X028162Y013831D02*
X028495Y013831D01*
X028704Y013990D02*
X028122Y013990D01*
X028122Y014166D02*
X027764Y014166D01*
X027764Y014544D01*
X027966Y014544D01*
X028012Y014532D01*
X028053Y014508D01*
X028087Y014474D01*
X028110Y014433D01*
X028122Y014388D01*
X028122Y014166D01*
X028122Y014307D02*
X031163Y014307D01*
X031163Y014465D02*
X028092Y014465D01*
X027764Y014465D02*
X027727Y014465D01*
X027727Y014307D02*
X027764Y014307D01*
X027764Y014148D02*
X031163Y014148D01*
X031163Y013990D02*
X029980Y013990D01*
X030189Y013831D02*
X031163Y013831D01*
X031163Y013673D02*
X030960Y013673D01*
X031139Y013514D02*
X031163Y013514D01*
X030684Y013673D02*
X030606Y013673D01*
X030330Y013673D02*
X030284Y013673D01*
X030163Y012880D02*
X029989Y012880D01*
X029387Y012404D02*
X029297Y012404D01*
X029297Y012246D02*
X029387Y012246D01*
X029387Y012087D02*
X029297Y012087D01*
X029297Y011929D02*
X028080Y011929D01*
X027805Y012100D02*
X026899Y011195D01*
X026624Y011195D01*
X026230Y010801D01*
X026942Y010819D02*
X027062Y010819D01*
X027062Y010660D02*
X026942Y010660D01*
X026942Y010502D02*
X027210Y010502D01*
X027369Y010343D02*
X026980Y010343D01*
X026225Y009628D02*
X025816Y009218D01*
X025625Y009139D01*
X025418Y009139D01*
X025263Y009139D01*
X025271Y009134D01*
X025330Y009075D01*
X025831Y009234D02*
X026561Y009234D01*
X026461Y009392D02*
X025989Y009392D01*
X024514Y009075D02*
X024464Y009006D01*
X024426Y008931D01*
X024387Y008758D02*
X024117Y008758D01*
X024117Y008599D02*
X024387Y008599D01*
X024387Y008441D02*
X024117Y008441D01*
X024117Y008282D02*
X024387Y008282D01*
X024387Y008333D02*
X024387Y007974D01*
X024400Y007891D01*
X024426Y007811D01*
X024464Y007736D01*
X024514Y007667D01*
X024574Y007608D01*
X024642Y007558D01*
X024717Y007520D01*
X024797Y007494D01*
X024880Y007481D01*
X024884Y007481D01*
X024884Y008333D01*
X024387Y008333D01*
X024387Y008124D02*
X024117Y008124D01*
X024117Y007965D02*
X024388Y007965D01*
X024428Y007807D02*
X024079Y007807D01*
X024184Y007648D02*
X024260Y007648D01*
X024260Y007711D02*
X024260Y006859D01*
X024184Y006859D01*
X024184Y006783D01*
X024260Y006783D01*
X024260Y006859D01*
X024757Y006859D01*
X024757Y007218D01*
X024744Y007301D01*
X024718Y007381D01*
X024680Y007456D01*
X024630Y007525D01*
X024571Y007584D01*
X024502Y007634D01*
X024427Y007672D01*
X024347Y007698D01*
X024264Y007711D01*
X024260Y007711D01*
X024260Y007490D02*
X024184Y007490D01*
X024184Y007331D02*
X024260Y007331D01*
X024260Y007172D02*
X024184Y007172D01*
X024184Y007014D02*
X024260Y007014D01*
X024260Y006855D02*
X024977Y006855D01*
X024977Y006697D02*
X024757Y006697D01*
X024757Y006783D02*
X024260Y006783D01*
X024260Y005931D01*
X024264Y005931D01*
X024347Y005944D01*
X024427Y005970D01*
X024502Y006008D01*
X024571Y006058D01*
X024630Y006117D01*
X024680Y006186D01*
X024718Y006261D01*
X024744Y006341D01*
X024757Y006424D01*
X024757Y006783D01*
X024757Y007014D02*
X024977Y007014D01*
X024977Y007172D02*
X024757Y007172D01*
X024734Y007331D02*
X024992Y007331D01*
X025018Y007490D02*
X025058Y007490D01*
X024960Y007490D02*
X024884Y007490D01*
X024826Y007490D02*
X024656Y007490D01*
X024533Y007648D02*
X024474Y007648D01*
X024884Y007648D02*
X024960Y007648D01*
X024960Y007807D02*
X024884Y007807D01*
X024884Y007965D02*
X024960Y007965D01*
X024960Y008124D02*
X024884Y008124D01*
X024884Y008282D02*
X024960Y008282D01*
X025941Y007648D02*
X028531Y007648D01*
X028730Y007490D02*
X026086Y007490D01*
X026152Y007331D02*
X026635Y007331D01*
X026633Y007327D02*
X026621Y007281D01*
X026621Y006836D01*
X027252Y006836D01*
X027252Y007438D01*
X026777Y007438D01*
X026731Y007425D01*
X026690Y007402D01*
X026657Y007368D01*
X026633Y007327D01*
X026621Y007172D02*
X026167Y007172D01*
X026167Y007014D02*
X026621Y007014D01*
X026621Y006855D02*
X026167Y006855D01*
X026167Y006697D02*
X027252Y006697D01*
X027252Y006676D02*
X026621Y006676D01*
X026621Y006230D01*
X026633Y006184D01*
X026657Y006143D01*
X026690Y006110D01*
X026731Y006086D01*
X026777Y006074D01*
X027252Y006074D01*
X027252Y006676D01*
X027252Y006836D01*
X027412Y006836D01*
X027412Y007438D01*
X027887Y007438D01*
X027933Y007425D01*
X027974Y007402D01*
X028008Y007368D01*
X028031Y007327D01*
X028044Y007281D01*
X028044Y006836D01*
X027412Y006836D01*
X027412Y006676D01*
X028044Y006676D01*
X028044Y006230D01*
X028031Y006184D01*
X028008Y006143D01*
X027974Y006110D01*
X027933Y006086D01*
X027887Y006074D01*
X027412Y006074D01*
X027412Y006676D01*
X027252Y006676D01*
X027252Y006538D02*
X027412Y006538D01*
X027412Y006380D02*
X027252Y006380D01*
X027252Y006221D02*
X027412Y006221D01*
X028041Y006221D02*
X031163Y006221D01*
X031163Y006063D02*
X026010Y006063D01*
X026115Y006221D02*
X026623Y006221D01*
X026621Y006380D02*
X026167Y006380D01*
X026167Y006538D02*
X026621Y006538D01*
X027252Y006855D02*
X027412Y006855D01*
X027412Y006697D02*
X031163Y006697D01*
X031163Y006855D02*
X028044Y006855D01*
X028044Y007014D02*
X031163Y007014D01*
X031163Y007172D02*
X028044Y007172D01*
X028029Y007331D02*
X031163Y007331D01*
X031163Y006538D02*
X028044Y006538D01*
X028044Y006380D02*
X031163Y006380D01*
X031163Y005904D02*
X027857Y005904D01*
X027904Y005746D02*
X031163Y005746D01*
X031163Y005587D02*
X027904Y005587D01*
X027904Y005429D02*
X031163Y005429D01*
X031163Y005270D02*
X030017Y005270D01*
X029979Y005282D02*
X030104Y005244D01*
X030224Y005194D01*
X030340Y005132D01*
X030448Y005059D01*
X030549Y004977D01*
X030642Y004884D01*
X030725Y004783D01*
X030797Y004674D01*
X030859Y004559D01*
X030909Y004439D01*
X030947Y004313D01*
X030972Y004185D01*
X030984Y004070D01*
X029735Y004070D01*
X029575Y004070D01*
X029575Y005318D01*
X029460Y005307D01*
X029332Y005282D01*
X029206Y005244D01*
X029086Y005194D01*
X028971Y005132D01*
X028862Y005059D01*
X028761Y004977D01*
X028668Y004884D01*
X028586Y004783D01*
X028513Y004674D01*
X028451Y004559D01*
X028401Y004439D01*
X028363Y004313D01*
X028338Y004185D01*
X028327Y004070D01*
X029575Y004070D01*
X029575Y003910D01*
X029735Y003910D01*
X029735Y004070D01*
X029735Y005318D01*
X029851Y005307D01*
X029979Y005282D01*
X029735Y005270D02*
X029575Y005270D01*
X029575Y005111D02*
X029735Y005111D01*
X029735Y004953D02*
X029575Y004953D01*
X029575Y004794D02*
X029735Y004794D01*
X029735Y004636D02*
X029575Y004636D01*
X029575Y004477D02*
X029735Y004477D01*
X029735Y004319D02*
X029575Y004319D01*
X029575Y004160D02*
X029735Y004160D01*
X029735Y004002D02*
X031163Y004002D01*
X031163Y004160D02*
X030975Y004160D01*
X030945Y004319D02*
X031163Y004319D01*
X031163Y004477D02*
X030893Y004477D01*
X030818Y004636D02*
X031163Y004636D01*
X031163Y004794D02*
X030715Y004794D01*
X030573Y004953D02*
X031163Y004953D01*
X031163Y005111D02*
X030371Y005111D01*
X029293Y005270D02*
X027904Y005270D01*
X027904Y005111D02*
X028940Y005111D01*
X028737Y004953D02*
X027828Y004953D01*
X027733Y004824D02*
X027687Y004836D01*
X027210Y004836D01*
X027210Y004419D01*
X027055Y004419D01*
X027055Y004836D01*
X026577Y004836D01*
X026531Y004824D01*
X026490Y004800D01*
X026457Y004767D01*
X026433Y004726D01*
X026421Y004680D01*
X026421Y004419D01*
X027055Y004419D01*
X027055Y004264D01*
X026421Y004264D01*
X026421Y004002D01*
X025747Y004002D01*
X025701Y004160D02*
X026421Y004160D01*
X026421Y004002D02*
X026433Y003957D01*
X026457Y003916D01*
X026490Y003882D01*
X026531Y003858D01*
X026577Y003846D01*
X027055Y003846D01*
X027055Y004263D01*
X027210Y004263D01*
X027210Y003846D01*
X027687Y003846D01*
X027733Y003858D01*
X027774Y003882D01*
X027808Y003916D01*
X027831Y003957D01*
X027844Y004002D01*
X027844Y004264D01*
X027210Y004264D01*
X027210Y004419D01*
X027844Y004419D01*
X027844Y004680D01*
X027831Y004726D01*
X027808Y004767D01*
X027774Y004800D01*
X027733Y004824D01*
X027780Y004794D02*
X028595Y004794D01*
X028492Y004636D02*
X027844Y004636D01*
X027844Y004477D02*
X028417Y004477D01*
X028365Y004319D02*
X027210Y004319D01*
X027055Y004319D02*
X025756Y004319D01*
X025756Y004477D02*
X026421Y004477D01*
X026421Y004636D02*
X025756Y004636D01*
X025767Y004794D02*
X026484Y004794D01*
X026437Y004953D02*
X025926Y004953D01*
X027055Y004794D02*
X027210Y004794D01*
X027210Y004636D02*
X027055Y004636D01*
X027055Y004477D02*
X027210Y004477D01*
X027210Y004160D02*
X027055Y004160D01*
X027055Y004002D02*
X027210Y004002D01*
X027844Y004002D02*
X029575Y004002D01*
X029575Y003843D02*
X029735Y003843D01*
X029735Y003910D02*
X029735Y002661D01*
X029851Y002673D01*
X029979Y002698D01*
X030104Y002736D01*
X030224Y002786D01*
X030340Y002848D01*
X030448Y002920D01*
X030549Y003003D01*
X030642Y003096D01*
X030725Y003197D01*
X030797Y003305D01*
X030859Y003421D01*
X030909Y003541D01*
X030947Y003666D01*
X030972Y003794D01*
X030984Y003910D01*
X029735Y003910D01*
X029735Y003685D02*
X029575Y003685D01*
X029575Y003526D02*
X029735Y003526D01*
X029735Y003367D02*
X029575Y003367D01*
X029575Y003209D02*
X029735Y003209D01*
X029735Y003050D02*
X029575Y003050D01*
X029575Y002892D02*
X029735Y002892D01*
X029735Y002733D02*
X029575Y002733D01*
X030094Y002733D02*
X031163Y002733D01*
X031163Y002575D02*
X025590Y002575D01*
X025604Y002733D02*
X025556Y002849D01*
X025531Y002874D01*
X025556Y002899D01*
X025604Y003050D02*
X028714Y003050D01*
X028577Y003209D02*
X025715Y003209D01*
X025873Y003367D02*
X028480Y003367D01*
X028408Y003526D02*
X025984Y003526D01*
X025997Y003685D02*
X028360Y003685D01*
X028333Y003843D02*
X025907Y003843D01*
X024960Y003685D02*
X023898Y003685D01*
X023884Y003526D02*
X024974Y003526D01*
X024914Y003843D02*
X023808Y003843D01*
X024012Y004002D02*
X024684Y004002D01*
X024580Y004160D02*
X024134Y004160D01*
X024187Y004319D02*
X024526Y004319D01*
X024526Y004477D02*
X024196Y004477D01*
X024196Y004636D02*
X024526Y004636D01*
X024526Y004794D02*
X023686Y004794D01*
X023595Y004794D02*
X021406Y004794D01*
X021406Y004636D02*
X023086Y004636D01*
X023086Y004477D02*
X021406Y004477D01*
X021406Y004319D02*
X023094Y004319D01*
X023147Y004160D02*
X021349Y004160D01*
X021312Y004070D02*
X021406Y004296D01*
X021406Y005290D01*
X021312Y005516D01*
X021139Y005689D01*
X020913Y005783D01*
X020668Y005783D01*
X020442Y005689D01*
X020269Y005516D01*
X020176Y005290D01*
X020176Y004296D01*
X020269Y004070D01*
X020442Y003897D01*
X020668Y003803D01*
X020913Y003803D01*
X021139Y003897D01*
X021312Y004070D01*
X021244Y004002D02*
X023269Y004002D01*
X022952Y003843D02*
X021009Y003843D01*
X020572Y003843D02*
X019509Y003843D01*
X019413Y003803D02*
X019639Y003897D01*
X019812Y004070D01*
X019906Y004296D01*
X019906Y005290D01*
X019812Y005516D01*
X019639Y005689D01*
X019413Y005783D01*
X019168Y005783D01*
X018942Y005689D01*
X018769Y005516D01*
X018676Y005290D01*
X018676Y004296D01*
X018769Y004070D01*
X018942Y003897D01*
X019168Y003803D01*
X019413Y003803D01*
X019072Y003843D02*
X016491Y003843D01*
X016378Y004002D02*
X018837Y004002D01*
X018732Y004160D02*
X016479Y004160D01*
X016541Y004319D02*
X018676Y004319D01*
X018676Y004477D02*
X016541Y004477D01*
X016541Y004636D02*
X018676Y004636D01*
X018676Y004794D02*
X016541Y004794D01*
X016541Y004953D02*
X018676Y004953D01*
X018676Y005111D02*
X016541Y005111D01*
X016546Y005270D02*
X018676Y005270D01*
X018733Y005429D02*
X016705Y005429D01*
X017230Y005587D02*
X018840Y005587D01*
X019078Y005746D02*
X017353Y005746D01*
X017356Y005904D02*
X022674Y005904D01*
X022434Y006063D02*
X017356Y006063D01*
X017356Y006221D02*
X022329Y006221D01*
X022277Y006380D02*
X017356Y006380D01*
X017330Y006538D02*
X017901Y006538D01*
X018505Y006538D02*
X019959Y006538D01*
X019973Y006524D02*
X020203Y006524D01*
X020203Y007078D01*
X020203Y007078D01*
X020203Y006524D01*
X020433Y006524D01*
X020758Y006849D01*
X020758Y007079D01*
X020758Y007309D01*
X020433Y007634D01*
X020203Y007634D01*
X019973Y007634D01*
X019648Y007309D01*
X019648Y007079D01*
X020203Y007079D01*
X020203Y007079D01*
X020203Y007634D01*
X020203Y007079D01*
X020203Y007079D01*
X019648Y007079D01*
X019648Y006849D01*
X019973Y006524D01*
X020203Y006538D02*
X020203Y006538D01*
X020203Y006697D02*
X020203Y006697D01*
X020203Y006855D02*
X020203Y006855D01*
X020203Y007014D02*
X020203Y007014D01*
X020204Y007079D02*
X020204Y007079D01*
X020758Y007079D01*
X020204Y007079D01*
X020203Y007172D02*
X020203Y007172D01*
X020203Y007331D02*
X020203Y007331D01*
X020203Y007490D02*
X020203Y007490D01*
X019829Y007490D02*
X018662Y007490D01*
X018764Y007331D02*
X019670Y007331D01*
X019648Y007172D02*
X018818Y007172D01*
X018818Y007014D02*
X019648Y007014D01*
X019648Y006855D02*
X018776Y006855D01*
X018691Y006697D02*
X019800Y006697D01*
X020447Y006538D02*
X022277Y006538D01*
X022261Y006697D02*
X020606Y006697D01*
X020758Y006855D02*
X022102Y006855D01*
X021944Y007014D02*
X020758Y007014D01*
X020758Y007172D02*
X021785Y007172D01*
X021643Y007331D02*
X020736Y007331D01*
X020577Y007490D02*
X021578Y007490D01*
X021576Y007648D02*
X018436Y007648D01*
X017970Y007648D02*
X017254Y007648D01*
X017296Y007490D02*
X017744Y007490D01*
X017642Y007331D02*
X017296Y007331D01*
X016662Y007331D02*
X016507Y007331D01*
X016507Y007490D02*
X016662Y007490D01*
X016662Y007648D02*
X016507Y007648D01*
X016507Y007014D02*
X016662Y007014D01*
X016662Y006855D02*
X016507Y006855D01*
X019503Y005746D02*
X020578Y005746D01*
X020340Y005587D02*
X019741Y005587D01*
X019848Y005429D02*
X020233Y005429D01*
X020176Y005270D02*
X019906Y005270D01*
X019906Y005111D02*
X020176Y005111D01*
X020176Y004953D02*
X019906Y004953D01*
X019906Y004794D02*
X020176Y004794D01*
X020176Y004636D02*
X019906Y004636D01*
X019906Y004477D02*
X020176Y004477D01*
X020176Y004319D02*
X019906Y004319D01*
X019849Y004160D02*
X020232Y004160D01*
X020337Y004002D02*
X019744Y004002D01*
X020232Y003367D02*
X020458Y003367D01*
X020363Y003209D02*
X020338Y003209D01*
X021097Y003367D02*
X022985Y003367D01*
X022875Y003526D02*
X016706Y003526D01*
X016674Y003685D02*
X022861Y003685D01*
X023167Y003209D02*
X021192Y003209D01*
X021183Y003050D02*
X023167Y003050D01*
X023167Y002892D02*
X021093Y002892D01*
X021121Y002733D02*
X023167Y002733D01*
X023234Y002575D02*
X021194Y002575D01*
X019190Y003367D02*
X016659Y003367D01*
X016474Y003209D02*
X019036Y003209D01*
X018991Y003050D02*
X016312Y003050D01*
X016063Y003050D02*
X016037Y003050D01*
X016037Y002892D02*
X018991Y002892D01*
X018991Y002733D02*
X016023Y002733D01*
X016037Y002575D02*
X018991Y002575D01*
X021406Y004953D02*
X023086Y004953D01*
X023086Y004835D02*
X023595Y004835D01*
X023595Y005720D01*
X023511Y005706D01*
X023427Y005679D01*
X023350Y005640D01*
X023279Y005588D01*
X023217Y005526D01*
X023166Y005456D01*
X023126Y005378D01*
X023099Y005295D01*
X023086Y005209D01*
X023086Y004835D01*
X023086Y005111D02*
X021406Y005111D01*
X021406Y005270D02*
X023095Y005270D01*
X023152Y005429D02*
X021348Y005429D01*
X021241Y005587D02*
X023278Y005587D01*
X023595Y005587D02*
X023686Y005587D01*
X023686Y005429D02*
X023595Y005429D01*
X023595Y005270D02*
X023686Y005270D01*
X023686Y005111D02*
X023595Y005111D01*
X023595Y004953D02*
X023686Y004953D01*
X024196Y004953D02*
X024526Y004953D01*
X024526Y005111D02*
X024196Y005111D01*
X024186Y005270D02*
X024526Y005270D01*
X024584Y005429D02*
X024129Y005429D01*
X024003Y005587D02*
X024693Y005587D01*
X024935Y005746D02*
X021003Y005746D01*
X023070Y005904D02*
X025374Y005904D01*
X025346Y005746D02*
X025474Y005746D01*
X025770Y005904D02*
X026407Y005904D01*
X025134Y006063D02*
X024575Y006063D01*
X024698Y006221D02*
X025029Y006221D01*
X024977Y006380D02*
X024750Y006380D01*
X024757Y006538D02*
X024977Y006538D01*
X024260Y006538D02*
X024184Y006538D01*
X024184Y006380D02*
X024260Y006380D01*
X024260Y006221D02*
X024184Y006221D01*
X024184Y006063D02*
X024260Y006063D01*
X024184Y005931D02*
X024184Y006783D01*
X023687Y006783D01*
X023687Y006424D01*
X023700Y006341D01*
X023726Y006261D01*
X023764Y006186D01*
X023814Y006117D01*
X023874Y006058D01*
X023942Y006008D01*
X024017Y005970D01*
X024097Y005944D01*
X024180Y005931D01*
X024184Y005931D01*
X023869Y006063D02*
X023310Y006063D01*
X023415Y006221D02*
X023746Y006221D01*
X023694Y006380D02*
X023467Y006380D01*
X023467Y006538D02*
X023687Y006538D01*
X023687Y006697D02*
X023467Y006697D01*
X023467Y006855D02*
X024184Y006855D01*
X024184Y006697D02*
X024260Y006697D01*
X023687Y007014D02*
X023467Y007014D01*
X023467Y007172D02*
X023687Y007172D01*
X023710Y007331D02*
X023452Y007331D01*
X027252Y007331D02*
X027412Y007331D01*
X027412Y007172D02*
X027252Y007172D01*
X027252Y007014D02*
X027412Y007014D01*
X030043Y008441D02*
X030212Y008441D01*
X030211Y009868D02*
X030227Y009868D01*
X030340Y010026D02*
X030033Y010026D01*
X031047Y010026D02*
X031163Y010026D01*
X031163Y011453D02*
X029997Y011453D01*
X030169Y011612D02*
X031163Y011612D01*
X030274Y011770D02*
X030248Y011770D01*
X029387Y011770D02*
X029297Y011770D01*
X029297Y011612D02*
X029387Y011612D01*
X029387Y011453D02*
X029297Y011453D01*
X027805Y012100D02*
X027805Y013458D01*
X027746Y013517D01*
X027076Y013517D02*
X027017Y013458D01*
X026309Y013458D01*
X026309Y013203D02*
X026742Y013203D01*
X026998Y012947D01*
X027096Y012947D01*
X026309Y013714D02*
X026309Y014246D01*
X026446Y014384D01*
X026883Y014624D02*
X031163Y014624D01*
X031163Y014783D02*
X026882Y014783D01*
X026882Y014953D02*
X026504Y014953D01*
X026504Y015312D01*
X026726Y015312D01*
X026772Y015299D01*
X026813Y015276D01*
X026846Y015242D01*
X026870Y015201D01*
X026882Y015155D01*
X026882Y014953D01*
X026882Y015100D02*
X029587Y015100D01*
X029469Y015218D02*
X029832Y014855D01*
X030345Y014855D01*
X030709Y015218D01*
X030709Y015731D01*
X030345Y016094D01*
X029832Y016094D01*
X029469Y015731D01*
X029469Y015218D01*
X029469Y015258D02*
X026830Y015258D01*
X026504Y015258D02*
X026467Y015258D01*
X026467Y015100D02*
X026504Y015100D01*
X026504Y014941D02*
X029745Y014941D01*
X029469Y015417D02*
X028068Y015417D01*
X028227Y015575D02*
X029469Y015575D01*
X029471Y015734D02*
X028302Y015734D01*
X028302Y015892D02*
X029630Y015892D01*
X029788Y016051D02*
X028302Y016051D01*
X028256Y016209D02*
X031163Y016209D01*
X031163Y016051D02*
X030389Y016051D01*
X030547Y015892D02*
X031163Y015892D01*
X031163Y015734D02*
X030706Y015734D01*
X030709Y015575D02*
X031163Y015575D01*
X031163Y015417D02*
X030709Y015417D01*
X030709Y015258D02*
X031163Y015258D01*
X031163Y015100D02*
X030591Y015100D01*
X030432Y014941D02*
X031163Y014941D01*
X031163Y016368D02*
X028098Y016368D01*
X027939Y016527D02*
X031163Y016527D01*
X031163Y016685D02*
X031129Y016685D01*
X030906Y016685D02*
X030828Y016685D01*
X031057Y017636D02*
X031163Y017636D01*
X031163Y017795D02*
X021440Y017795D01*
X021499Y017002D02*
X021512Y017002D01*
X021535Y016051D02*
X018810Y016051D01*
X018761Y015892D02*
X021672Y015892D01*
X020903Y015575D02*
X017905Y015575D01*
X018432Y016209D02*
X020041Y016209D01*
X020017Y016368D02*
X018810Y016368D01*
X018810Y016527D02*
X020014Y016527D01*
X020014Y016685D02*
X018870Y016685D01*
X018870Y016844D02*
X019779Y016844D01*
X019620Y017002D02*
X018870Y017002D01*
X018938Y017161D02*
X019469Y017161D01*
X019413Y017319D02*
X019097Y017319D01*
X019404Y017478D02*
X019413Y017478D01*
X018564Y017953D02*
X018414Y017953D01*
X018441Y017795D02*
X018256Y017795D01*
X018282Y017636D02*
X018097Y017636D01*
X018124Y017478D02*
X017938Y017478D01*
X018539Y018746D02*
X018564Y018746D01*
X015633Y016685D02*
X015523Y016685D01*
X015521Y016527D02*
X015709Y016527D01*
X015867Y016368D02*
X015398Y016368D01*
X022629Y014307D02*
X022666Y014307D01*
X022666Y014148D02*
X022629Y014148D01*
X023298Y014148D02*
X023335Y014148D01*
X023335Y014307D02*
X023298Y014307D01*
X025126Y012721D02*
X025286Y012721D01*
X025286Y012563D02*
X025126Y012563D01*
X025126Y012404D02*
X025286Y012404D01*
X025286Y012246D02*
X025126Y012246D01*
X025126Y012087D02*
X025286Y012087D01*
X026448Y016663D02*
X026865Y016663D01*
X026914Y016684D01*
X026963Y016663D01*
X027381Y016663D01*
X027419Y016679D01*
X027526Y016658D01*
X027641Y016680D01*
X027646Y016683D01*
X027693Y016663D01*
X027810Y016663D01*
X027859Y016684D01*
X027909Y016663D01*
X028209Y016663D01*
X028326Y016663D01*
X028435Y016708D01*
X028517Y016791D01*
X028562Y016900D01*
X028562Y017017D01*
X028517Y017125D01*
X028497Y017146D01*
X028517Y017166D01*
X028562Y017275D01*
X028562Y017392D01*
X028517Y017501D01*
X028359Y017659D01*
X028251Y017704D01*
X028134Y017704D01*
X027984Y017704D01*
X027938Y017685D01*
X027897Y017668D01*
X027810Y017704D01*
X027693Y017704D01*
X027585Y017659D01*
X027502Y017576D01*
X027492Y017552D01*
X027453Y017545D01*
X027422Y017576D01*
X027339Y017659D01*
X027231Y017704D01*
X027113Y017704D01*
X027005Y017659D01*
X026922Y017576D01*
X026917Y017565D01*
X026906Y017576D01*
X026823Y017659D01*
X026715Y017704D01*
X026598Y017704D01*
X026489Y017659D01*
X026406Y017576D01*
X026361Y017467D01*
X026361Y017218D01*
X026339Y017208D01*
X026256Y017125D01*
X026211Y017017D01*
X026211Y016900D01*
X026256Y016791D01*
X026339Y016708D01*
X026448Y016663D01*
X026395Y016685D02*
X025736Y016685D01*
X025514Y016685D02*
X025371Y016685D01*
X025928Y016844D02*
X026234Y016844D01*
X026211Y017002D02*
X026050Y017002D01*
X026070Y017161D02*
X026291Y017161D01*
X026361Y017319D02*
X026070Y017319D01*
X026066Y017478D02*
X026366Y017478D01*
X026467Y017636D02*
X025965Y017636D01*
X026846Y017636D02*
X026983Y017636D01*
X027361Y017636D02*
X027562Y017636D01*
X028382Y017636D02*
X029827Y017636D01*
X029648Y017554D02*
X029648Y017554D01*
X029391Y017509D02*
X029391Y017509D01*
X029391Y017509D01*
X029282Y017554D02*
X029282Y017554D01*
X028876Y017478D02*
X028527Y017478D01*
X028562Y017319D02*
X028735Y017319D01*
X028703Y017161D02*
X028512Y017161D01*
X028562Y017002D02*
X028723Y017002D01*
X028802Y016844D02*
X028539Y016844D01*
X028379Y016685D02*
X028962Y016685D01*
X029335Y016685D02*
X029403Y016685D01*
X028774Y018429D02*
X026849Y018429D01*
X027007Y018588D02*
X028617Y018588D01*
X028501Y018746D02*
X027166Y018746D01*
X027173Y018905D02*
X028419Y018905D01*
X028361Y019063D02*
X027173Y019063D01*
X027173Y019222D02*
X028323Y019222D01*
X009358Y005587D02*
X007115Y005587D01*
X007116Y005429D02*
X009233Y005429D01*
X009178Y005270D02*
X007168Y005270D01*
X007168Y005111D02*
X009169Y005111D01*
X009169Y004953D02*
X007168Y004953D01*
X005938Y004953D02*
X005608Y004953D01*
X005608Y004850D02*
X005608Y005224D01*
X005594Y005310D01*
X005567Y005393D01*
X005528Y005471D01*
X005476Y005541D01*
X005415Y005603D01*
X005344Y005655D01*
X005266Y005694D01*
X005183Y005721D01*
X005098Y005735D01*
X005098Y004850D01*
X005608Y004850D01*
X005608Y005111D02*
X005938Y005111D01*
X005938Y005270D02*
X005601Y005270D01*
X005549Y005429D02*
X005975Y005429D01*
X005913Y005587D02*
X005431Y005587D01*
X005098Y005587D02*
X005008Y005587D01*
X005008Y005429D02*
X005098Y005429D01*
X005098Y005270D02*
X005008Y005270D01*
X005008Y005111D02*
X005098Y005111D01*
X005098Y004953D02*
X005008Y004953D01*
X004498Y004636D02*
X003322Y004636D01*
X003395Y004477D02*
X004498Y004477D01*
X004509Y004319D02*
X003445Y004319D01*
X003472Y004160D02*
X004568Y004160D01*
X004675Y005587D02*
X000643Y005587D01*
X000643Y005746D02*
X002957Y005746D01*
X002961Y005745D02*
X003222Y005745D01*
X003222Y006378D01*
X003377Y006378D01*
X003377Y005745D01*
X003638Y005745D01*
X003684Y005757D01*
X003725Y005781D01*
X003758Y005814D01*
X003782Y005855D01*
X003794Y005901D01*
X003794Y006379D01*
X003377Y006379D01*
X003377Y006534D01*
X003222Y006534D01*
X003222Y007168D01*
X002961Y007168D01*
X002915Y007155D01*
X002874Y007132D01*
X002840Y007098D01*
X002817Y007057D01*
X002804Y007011D01*
X002804Y006534D01*
X003221Y006534D01*
X003221Y006379D01*
X002804Y006379D01*
X002804Y005901D01*
X002817Y005855D01*
X002840Y005814D01*
X002874Y005781D01*
X002915Y005757D01*
X002961Y005745D01*
X002804Y005904D02*
X000643Y005904D01*
X000643Y006063D02*
X002804Y006063D01*
X002804Y006221D02*
X000643Y006221D01*
X000643Y006380D02*
X003221Y006380D01*
X003377Y006380D02*
X003832Y006380D01*
X003794Y006534D02*
X003794Y007011D01*
X003782Y007057D01*
X003758Y007098D01*
X003725Y007132D01*
X003684Y007155D01*
X003638Y007168D01*
X003377Y007168D01*
X003377Y006534D01*
X003794Y006534D01*
X003794Y006538D02*
X003832Y006538D01*
X003847Y006697D02*
X003794Y006697D01*
X003794Y006855D02*
X003847Y006855D01*
X003847Y007014D02*
X003793Y007014D01*
X003932Y007172D02*
X000643Y007172D01*
X000643Y007014D02*
X002805Y007014D01*
X002804Y006855D02*
X000643Y006855D01*
X000643Y006697D02*
X002804Y006697D01*
X002804Y006538D02*
X000643Y006538D01*
X000643Y007331D02*
X004085Y007331D01*
X003399Y007490D02*
X002225Y007490D01*
X002217Y007481D02*
X002250Y007515D01*
X002274Y007556D01*
X002286Y007602D01*
X002286Y008077D01*
X001684Y008077D01*
X001684Y007445D01*
X002130Y007445D01*
X002176Y007458D01*
X002217Y007481D01*
X002286Y007648D02*
X003362Y007648D01*
X003362Y007807D02*
X002286Y007807D01*
X002286Y007965D02*
X003362Y007965D01*
X003362Y008124D02*
X001684Y008124D01*
X001684Y008077D02*
X001684Y008237D01*
X001524Y008237D01*
X001524Y008077D01*
X000922Y008077D01*
X000922Y007602D01*
X000935Y007556D01*
X000958Y007515D01*
X000992Y007481D01*
X001033Y007458D01*
X001079Y007445D01*
X001524Y007445D01*
X001524Y008077D01*
X001684Y008077D01*
X001684Y007965D02*
X001524Y007965D01*
X001524Y007807D02*
X001684Y007807D01*
X001684Y007648D02*
X001524Y007648D01*
X001524Y007490D02*
X001684Y007490D01*
X000984Y007490D02*
X000643Y007490D01*
X000643Y007648D02*
X000922Y007648D01*
X000922Y007807D02*
X000643Y007807D01*
X000643Y007965D02*
X000922Y007965D01*
X000922Y008237D02*
X001524Y008237D01*
X001524Y008868D01*
X001079Y008868D01*
X001033Y008856D01*
X000992Y008832D01*
X000958Y008799D01*
X000935Y008758D01*
X000643Y008758D01*
X000643Y008916D02*
X003526Y008916D01*
X003534Y009075D02*
X000643Y009075D01*
X000643Y009234D02*
X003534Y009234D01*
X003534Y009392D02*
X000643Y009392D01*
X000643Y009551D02*
X003534Y009551D01*
X003534Y009709D02*
X000643Y009709D01*
X000643Y009868D02*
X003534Y009868D01*
X003534Y010026D02*
X000643Y010026D01*
X001684Y008868D02*
X002130Y008868D01*
X002176Y008856D01*
X002217Y008832D01*
X002250Y008799D01*
X002274Y008758D01*
X003371Y008758D01*
X003362Y008599D02*
X002286Y008599D01*
X002286Y008712D02*
X002274Y008758D01*
X002286Y008712D02*
X002286Y008237D01*
X001684Y008237D01*
X001684Y008868D01*
X001684Y008758D02*
X001524Y008758D01*
X001524Y008599D02*
X001684Y008599D01*
X001684Y008441D02*
X001524Y008441D01*
X001524Y008282D02*
X001684Y008282D01*
X001524Y008124D02*
X000643Y008124D01*
X000643Y008282D02*
X000922Y008282D01*
X000922Y008237D02*
X000922Y008712D01*
X000935Y008758D01*
X000922Y008599D02*
X000643Y008599D01*
X000643Y008441D02*
X000922Y008441D01*
X002286Y008441D02*
X003362Y008441D01*
X003362Y008282D02*
X002286Y008282D01*
X003222Y007014D02*
X003377Y007014D01*
X003377Y006855D02*
X003222Y006855D01*
X003222Y006697D02*
X003377Y006697D01*
X003377Y006538D02*
X003222Y006538D01*
X003222Y006221D02*
X003377Y006221D01*
X003377Y006063D02*
X003222Y006063D01*
X003222Y005904D02*
X003377Y005904D01*
X003377Y005746D02*
X003222Y005746D01*
X003642Y005746D02*
X003926Y005746D01*
X003847Y005904D02*
X003794Y005904D01*
X003794Y006063D02*
X003847Y006063D01*
X003847Y006221D02*
X003794Y006221D01*
X004877Y005746D02*
X005755Y005746D01*
X005596Y005904D02*
X004956Y005904D01*
X004956Y006063D02*
X005438Y006063D01*
X004939Y008916D02*
X004683Y008916D01*
X009769Y004794D02*
X010609Y004794D01*
X009769Y004636D02*
X009679Y004636D01*
X009679Y004477D02*
X009769Y004477D01*
X009769Y004319D02*
X009679Y004319D01*
X009679Y004160D02*
X009769Y004160D01*
X009769Y004002D02*
X009679Y004002D01*
X009706Y003843D02*
X011005Y003843D01*
X011017Y003685D02*
X009889Y003685D01*
X009922Y003526D02*
X010984Y003526D01*
X011031Y003367D02*
X010919Y003367D01*
X011147Y003209D02*
X011216Y003209D01*
X011306Y003050D02*
X011378Y003050D01*
X011391Y002892D02*
X014300Y002892D01*
X014300Y003050D02*
X011627Y003050D01*
X011789Y003209D02*
X014303Y003209D01*
X014300Y002733D02*
X011391Y002733D01*
X011391Y002575D02*
X014340Y002575D01*
X013617Y003367D02*
X011974Y003367D01*
X012021Y003526D02*
X013570Y003526D01*
X013602Y003685D02*
X011989Y003685D01*
X011806Y003843D02*
X013785Y003843D01*
X024550Y003494D02*
X024550Y003494D01*
X027844Y004160D02*
X028335Y004160D01*
X030406Y002892D02*
X031163Y002892D01*
X031163Y003050D02*
X030596Y003050D01*
X030733Y003209D02*
X031163Y003209D01*
X031163Y003367D02*
X030830Y003367D01*
X030902Y003526D02*
X031163Y003526D01*
X031163Y003685D02*
X030950Y003685D01*
X030977Y003843D02*
X031163Y003843D01*
X002836Y013197D02*
X002563Y013197D01*
D38*
X001545Y012140D02*
X001545Y011710D01*
X002224Y011031D01*
X003957Y011031D02*
X004104Y010883D01*
X004104Y008157D01*
X004121Y008173D01*
X004655Y008173D01*
X004655Y006710D01*
X005597Y006710D01*
X006545Y005762D01*
X006545Y004813D01*
X006553Y004805D01*
X004655Y006710D02*
X004402Y006456D01*
X004655Y008173D02*
X005370Y008173D01*
X008231Y008493D02*
X008238Y008486D01*
X008238Y007573D01*
X010192Y006325D02*
X011416Y006325D01*
X011433Y006308D01*
X011433Y005003D01*
X011224Y004793D01*
X013710Y007376D02*
X013710Y008293D01*
X015435Y006106D02*
X016576Y006106D01*
X015926Y005456D01*
X015926Y004805D01*
X016576Y006106D02*
X016584Y006114D01*
X026525Y019010D02*
X025482Y020053D01*
X024448Y020053D01*
X024410Y020091D01*
X026525Y019010D02*
X026553Y019010D01*
D39*
X013710Y007376D03*
X008238Y007573D03*
X001545Y012140D03*
D40*
X016907Y017795D02*
X016929Y017817D01*
X018413Y017202D02*
X018413Y016882D01*
X018413Y017202D02*
X019029Y017817D01*
X019029Y018317D02*
X019265Y018317D01*
X019813Y017769D01*
X019813Y017376D01*
X020088Y017100D01*
X020422Y017100D01*
X020433Y017088D01*
X020394Y017729D02*
X020394Y018317D01*
X020382Y018329D01*
X019843Y018329D01*
X019340Y018832D01*
X019044Y018832D01*
X019029Y018817D01*
X019041Y019305D02*
X019029Y019317D01*
X019041Y019305D02*
X019498Y019305D01*
X019814Y018989D01*
X020394Y018989D01*
D41*
X023757Y015132D02*
X024741Y016116D01*
X027450Y016116D01*
X027659Y015907D01*
X023757Y015132D02*
X021191Y015132D01*
X021112Y015053D01*
X021112Y013754D01*
X021230Y013754D01*
X021112Y013754D02*
X021939Y012927D01*
X021978Y012888D01*
X022647Y012888D01*
X024340Y010801D02*
X024498Y010801D01*
X024340Y010801D02*
X024104Y010565D01*
X018041Y010565D01*
X016506Y009029D01*
X022096Y008793D02*
X022096Y007597D01*
X022872Y006821D01*
X022096Y008793D02*
X022962Y009659D01*
X025521Y009659D01*
X026230Y010368D01*
X026230Y010801D01*
X026230Y010358D01*
X027332Y009256D01*
M02*
