%
M48
M72
T01C0.0236
T02C0.0320
T03C0.0394
T04C0.0433
T05C0.0470
T06C0.0500
T07C0.1299
%
T01
X10836Y8872
X11348Y8872
X15128Y8163
X20521Y8596
X20521Y9187
X20521Y9777
X21860Y12021
X19655Y12140
X19261Y12691
X18868Y12140
X18474Y12691
X18986Y14384
X21939Y16273
X21781Y17297
X22017Y17730
X21860Y19187
X18238Y18399
X19183Y16549
X15561Y15132
X15561Y14580
X14891Y14580
X14891Y15132
X14222Y15132
X14222Y14580
X13435Y13242
X10482Y11825
X6978Y14029
X8317Y14462
X8986Y14462
X9655Y14462
X9655Y15014
X8986Y15014
X8317Y15014
X7765Y16195
X8986Y17100
X7490Y17454
X5246Y16116
X3986Y14895
X3474Y14895
X2962Y14895
X2962Y14344
X3474Y14344
X3986Y14344
X5639Y12809
X6820Y12494
X2844Y12651
X1781Y9580
X11466Y16155
X13317Y16273
X11624Y17454
X10443Y18793
X9419Y19266
X8789Y19187
X10009Y20525
X11702Y19856
X13080Y19147
X14498Y18557
X15009Y18557
X16348Y20014
X24970Y13399
X25521Y13399
X25521Y12809
X24970Y12809
X24970Y12218
X25521Y12218
X4340Y20250
X3553Y20643
X3868Y17809
X2962Y17297
T02
X18203Y7079
X20203Y7079
T03
X13710Y7376
X8238Y7573
X1545Y12140
T04
X26553Y19010
X27682Y15907
X30089Y15474
X27682Y10907
T05
X24922Y8371
X23522Y8371
X22872Y6821
X24222Y6821
X25572Y6821
T06
X25141Y4790
X23641Y4790
X20791Y4793
X19291Y4793
X15926Y4805
X14426Y4805
X11224Y4793
X9724Y4793
X6553Y4805
X5053Y4805
X29342Y7991
X29342Y9491
X29342Y11933
X29342Y13433
T07
X2151Y4006
X2194Y19435
X29635Y19443
X29655Y3990
M30
