G75*
G70*
%OFA0B0*%
%FSLAX24Y24*%
%IPPOS*%
%LPD*%
%AMOC8*
5,1,8,0,0,1.08239X$1,22.5*
%
%ADD10R,0.0197X0.0866*%
%ADD11R,0.1969X0.0984*%
%ADD12R,0.0630X0.1063*%
%ADD13R,0.0394X0.0433*%
%ADD14R,0.1181X0.1181*%
%ADD15R,0.0945X0.0945*%
%ADD16R,0.0098X0.0610*%
%ADD17R,0.1575X0.1102*%
%ADD18R,0.0433X0.0394*%
%ADD19R,0.1417X0.1181*%
%ADD20R,0.1063X0.1004*%
%ADD21R,0.0500X0.0250*%
%ADD22R,0.1063X0.0630*%
%ADD23R,0.0150X0.0600*%
%ADD24R,0.1409X0.0591*%
%ADD25R,0.0850X0.0701*%
%ADD26R,0.0591X0.0591*%
%ADD27C,0.0236*%
D10*
X008221Y013618D03*
X008721Y013618D03*
X009221Y013618D03*
X009721Y013618D03*
X009721Y015882D03*
X009221Y015882D03*
X008721Y015882D03*
X008221Y015882D03*
X014130Y015982D03*
X014630Y015982D03*
X015130Y015982D03*
X015630Y015982D03*
X015630Y013718D03*
X015130Y013718D03*
X014630Y013718D03*
X014130Y013718D03*
D11*
X014886Y014848D03*
X008977Y014748D03*
D12*
X008728Y012471D03*
X007626Y012471D03*
X013513Y012180D03*
X014616Y012180D03*
D13*
X016228Y013813D03*
X016228Y014482D03*
X014439Y016902D03*
X014439Y017453D03*
X013769Y017453D03*
X013769Y016902D03*
X012590Y018121D03*
X011921Y018121D03*
X011775Y018658D03*
X012444Y018658D03*
X012295Y019918D03*
X012964Y019918D03*
X006598Y015181D03*
X005928Y015181D03*
X005374Y015512D03*
X005374Y014843D03*
X005902Y014649D03*
X006571Y014649D03*
X004885Y014217D03*
X004885Y013547D03*
X003492Y016456D03*
X002823Y016456D03*
X010359Y014331D03*
X010359Y013662D03*
D14*
X011578Y011554D03*
X006201Y008432D03*
X006854Y006829D03*
X012293Y006705D03*
X017017Y011429D03*
X001476Y013157D03*
D15*
X011512Y013601D03*
X011512Y015333D03*
X017372Y015606D03*
X017372Y013873D03*
X024032Y014735D03*
X024032Y016467D03*
D16*
X004228Y015713D03*
X003972Y015713D03*
X003717Y015713D03*
X003461Y015713D03*
X003205Y015713D03*
X002949Y015713D03*
X002693Y015713D03*
X002693Y013508D03*
X002949Y013508D03*
X003205Y013508D03*
X003461Y013508D03*
X003717Y013508D03*
X003972Y013508D03*
X004228Y013508D03*
D17*
X003480Y014610D03*
D18*
X004842Y014830D03*
X004842Y015499D03*
X008126Y018186D03*
X008126Y018855D03*
X008086Y019406D03*
X008086Y020075D03*
X011075Y019901D03*
X011075Y019232D03*
X011889Y019197D03*
X012559Y019197D03*
X011086Y018390D03*
X011086Y017721D03*
X015620Y012810D03*
X016289Y012810D03*
X020579Y012409D03*
X021141Y012403D03*
X021141Y011733D03*
X020579Y011740D03*
X026624Y007710D03*
X026624Y007041D03*
X026846Y005434D03*
X026846Y004764D03*
X017396Y004784D03*
X017396Y005454D03*
X012728Y005463D03*
X012728Y004793D03*
X008065Y004799D03*
X008065Y005468D03*
X009669Y012656D03*
X010338Y012656D03*
D19*
X017629Y017174D03*
X020463Y017174D03*
X020463Y020009D03*
X017629Y020009D03*
D20*
X024691Y020312D03*
X024691Y017812D03*
D21*
X021693Y013651D03*
X021693Y013277D03*
X021693Y012903D03*
X020662Y012903D03*
X020662Y013277D03*
X020662Y013651D03*
D22*
X017823Y009632D03*
X017823Y008530D03*
D23*
X010520Y017764D03*
X010270Y017764D03*
X010020Y017764D03*
X009770Y017764D03*
X009520Y017764D03*
X009270Y017764D03*
X009020Y017764D03*
X008770Y017764D03*
X008770Y019882D03*
X009020Y019882D03*
X009270Y019882D03*
X009520Y019882D03*
X009770Y019882D03*
X010020Y019882D03*
X010270Y019882D03*
X010520Y019882D03*
D24*
X007010Y020113D03*
X007010Y019113D03*
X007010Y018113D03*
X005010Y017613D03*
X005010Y018613D03*
X005010Y019613D03*
D25*
X022973Y019279D03*
X022973Y017677D03*
X025973Y016419D03*
X025973Y014816D03*
D26*
X008093Y002812D03*
X008093Y004190D03*
X012756Y004158D03*
X012756Y002780D03*
X017454Y002791D03*
X017454Y004169D03*
X026844Y004153D03*
X026844Y002775D03*
D27*
X021496Y008825D02*
X021122Y008825D01*
X021122Y009325D02*
X021496Y009325D01*
X021496Y009825D02*
X021122Y009825D01*
X021122Y010325D02*
X021496Y010325D01*
X019802Y011130D02*
X019802Y011504D01*
X019302Y011504D02*
X019302Y011130D01*
X018802Y011130D02*
X018802Y011504D01*
X018302Y011504D02*
X018302Y011130D01*
X018996Y010325D02*
X019370Y010325D01*
X019370Y009825D02*
X018996Y009825D01*
X018996Y009325D02*
X019370Y009325D01*
X019370Y008825D02*
X018996Y008825D01*
X018802Y013256D02*
X018802Y013630D01*
X018302Y013630D02*
X018302Y013256D01*
X019302Y013256D02*
X019302Y013630D01*
X019802Y013630D02*
X019802Y013256D01*
M02*
