G75*
G70*
%OFA0B0*%
%FSLAX24Y24*%
%IPPOS*%
%LPD*%
%AMOC8*
5,1,8,0,0,1.08239X$1,22.5*
%
%ADD10C,0.0100*%
D10*
X001061Y004136D02*
X000994Y004203D01*
X000994Y004403D01*
X001128Y004337D02*
X001128Y004203D01*
X001061Y004136D01*
X001128Y004337D02*
X001195Y004403D01*
X001261Y004337D01*
X001261Y004136D01*
X001261Y004597D02*
X001261Y004797D01*
X001195Y004864D01*
X001061Y004864D01*
X000994Y004797D01*
X000994Y004597D01*
X001395Y004597D01*
X001195Y005057D02*
X001061Y005057D01*
X000994Y005124D01*
X000994Y005257D01*
X001061Y005324D01*
X001195Y005324D01*
X001261Y005257D01*
X001261Y005124D01*
X001195Y005057D01*
X001261Y005517D02*
X000861Y005517D01*
X000994Y005718D02*
X001128Y005517D01*
X001261Y005718D01*
X001195Y005901D02*
X001061Y005901D01*
X000994Y005968D01*
X000994Y006101D01*
X001061Y006168D01*
X001128Y006168D01*
X001128Y005901D01*
X001195Y005901D02*
X001261Y005968D01*
X001261Y006101D01*
X001061Y006361D02*
X001061Y006628D01*
X000994Y006822D02*
X000994Y007022D01*
X001061Y007089D01*
X001195Y007089D01*
X001261Y007022D01*
X001261Y006822D01*
X000861Y006822D01*
X000994Y007282D02*
X000994Y007349D01*
X001261Y007349D01*
X001261Y007282D02*
X001261Y007416D01*
X001195Y007589D02*
X001061Y007589D01*
X000994Y007656D01*
X000994Y007789D01*
X001061Y007856D01*
X001128Y007856D01*
X001128Y007589D01*
X001195Y007589D02*
X001261Y007656D01*
X001261Y007789D01*
X001261Y008049D02*
X000994Y008049D01*
X000994Y008183D02*
X000994Y008250D01*
X000994Y008183D02*
X001128Y008049D01*
X001128Y008433D02*
X001128Y008700D01*
X001061Y008700D01*
X000994Y008633D01*
X000994Y008500D01*
X001061Y008433D01*
X001195Y008433D01*
X001261Y008500D01*
X001261Y008633D01*
X000861Y007349D02*
X000794Y007349D01*
X004405Y004003D02*
X004538Y004137D01*
X004538Y003736D01*
X004405Y003736D02*
X004672Y003736D01*
X005522Y001026D02*
X005522Y000626D01*
X005389Y000626D02*
X005656Y000626D01*
X005389Y000893D02*
X005522Y001026D01*
M02*
