G75*
G70*
%OFA0B0*%
%FSLAX24Y24*%
%IPPOS*%
%LPD*%
%AMOC8*
5,1,8,0,0,1.08239X$1,22.5*
%
%ADD10C,0.0634*%
%ADD11R,0.0433X0.0394*%
%ADD12C,0.0160*%
D10*
X005300Y004117D02*
X005300Y004751D01*
X006300Y004751D02*
X006300Y004117D01*
X007300Y004117D02*
X007300Y004751D01*
X008300Y004751D02*
X008300Y004117D01*
X009300Y004117D02*
X009300Y004751D01*
X010300Y004751D02*
X010300Y004117D01*
X009280Y001680D02*
X009280Y001047D01*
X008280Y001047D02*
X008280Y001680D01*
X007280Y001680D02*
X007280Y001047D01*
X006280Y001047D02*
X006280Y001680D01*
D11*
X006618Y002978D03*
X007288Y002978D03*
X008154Y002978D03*
X008823Y002978D03*
X009729Y002978D03*
X010398Y002978D03*
D12*
X000361Y002518D02*
X000361Y009542D01*
X015001Y009542D01*
X015001Y002540D01*
X014819Y002918D01*
X014479Y003285D01*
X014479Y003285D01*
X014045Y003536D01*
X013557Y003647D01*
X013557Y003647D01*
X013058Y003610D01*
X013058Y003610D01*
X012591Y003427D01*
X012200Y003114D01*
X011918Y002701D01*
X011770Y002222D01*
X011770Y001721D01*
X011918Y001243D01*
X011918Y001243D01*
X012200Y000829D01*
X012591Y000517D01*
X012591Y000517D01*
X012885Y000402D01*
X002518Y000402D01*
X002545Y000408D01*
X002545Y000408D01*
X002979Y000658D01*
X002979Y000658D01*
X002979Y000658D01*
X003319Y001025D01*
X003537Y001477D01*
X003611Y001972D01*
X003537Y002467D01*
X003319Y002918D01*
X002979Y003285D01*
X002979Y003285D01*
X002545Y003536D01*
X002057Y003647D01*
X002057Y003647D01*
X001558Y003610D01*
X001558Y003610D01*
X001091Y003427D01*
X000700Y003114D01*
X000418Y002701D01*
X000418Y002701D01*
X000361Y002518D01*
X000361Y002600D02*
X000387Y002600D01*
X000361Y002758D02*
X000457Y002758D01*
X000361Y002917D02*
X000565Y002917D01*
X000673Y003076D02*
X000361Y003076D01*
X000361Y003234D02*
X000850Y003234D01*
X000700Y003114D02*
X000700Y003114D01*
X000700Y003114D01*
X000361Y003393D02*
X001049Y003393D01*
X001091Y003427D02*
X001091Y003427D01*
X001409Y003551D02*
X000361Y003551D01*
X000361Y003710D02*
X004934Y003710D01*
X004990Y003654D02*
X005191Y003571D01*
X005408Y003571D01*
X005609Y003654D01*
X005763Y003808D01*
X005800Y003896D01*
X005836Y003808D01*
X005990Y003654D01*
X006191Y003571D01*
X006408Y003571D01*
X006609Y003654D01*
X006763Y003808D01*
X006800Y003896D01*
X006836Y003808D01*
X006990Y003654D01*
X007191Y003571D01*
X007408Y003571D01*
X007609Y003654D01*
X007763Y003808D01*
X007800Y003896D01*
X007836Y003808D01*
X007844Y003800D01*
X007844Y003404D01*
X007842Y003404D01*
X007725Y003288D01*
X007716Y003288D01*
X007599Y003404D01*
X006976Y003404D01*
X006910Y003339D01*
X006904Y003342D01*
X006859Y003354D01*
X006637Y003354D01*
X006637Y002996D01*
X006600Y002996D01*
X006600Y002959D01*
X006637Y002959D01*
X006637Y002601D01*
X006859Y002601D01*
X006904Y002613D01*
X006910Y002616D01*
X006970Y002557D01*
X006970Y002144D01*
X006816Y001990D01*
X006752Y001835D01*
X006740Y001871D01*
X006705Y001941D01*
X006659Y002004D01*
X006604Y002059D01*
X006540Y002105D01*
X006471Y002141D01*
X006396Y002165D01*
X006319Y002177D01*
X006298Y002177D01*
X006298Y001382D01*
X006261Y001382D01*
X006261Y001345D01*
X005783Y001345D01*
X005783Y001007D01*
X005795Y000930D01*
X005819Y000856D01*
X003162Y000856D01*
X003015Y000697D02*
X005926Y000697D01*
X005901Y000723D02*
X005956Y000668D01*
X006019Y000622D01*
X006089Y000586D01*
X006163Y000562D01*
X006241Y000550D01*
X006261Y000550D01*
X006261Y001345D01*
X006298Y001345D01*
X006298Y000550D01*
X006319Y000550D01*
X006396Y000562D01*
X006471Y000586D01*
X006540Y000622D01*
X006604Y000668D01*
X006659Y000723D01*
X006705Y000786D01*
X006740Y000856D01*
X006767Y000856D01*
X006740Y000856D02*
X006752Y000892D01*
X006816Y000737D01*
X006970Y000583D01*
X007171Y000500D01*
X007389Y000500D01*
X007590Y000583D01*
X007743Y000737D01*
X007780Y000825D01*
X007816Y000737D01*
X007970Y000583D01*
X008171Y000500D01*
X008389Y000500D01*
X008590Y000583D01*
X008743Y000737D01*
X008780Y000825D01*
X008816Y000737D01*
X008970Y000583D01*
X009171Y000500D01*
X009389Y000500D01*
X009590Y000583D01*
X009743Y000737D01*
X009827Y000938D01*
X009827Y001472D01*
X009904Y001549D01*
X009991Y001637D01*
X010039Y001751D01*
X010039Y002551D01*
X010040Y002551D01*
X010106Y002616D01*
X010112Y002613D01*
X010158Y002601D01*
X010379Y002601D01*
X010379Y002959D01*
X010416Y002959D01*
X010416Y002601D01*
X010638Y002601D01*
X010684Y002613D01*
X010725Y002637D01*
X010759Y002670D01*
X010782Y002711D01*
X010794Y002757D01*
X010794Y002959D01*
X010417Y002959D01*
X010417Y002996D01*
X010794Y002996D01*
X010794Y003198D01*
X010782Y003244D01*
X010759Y003285D01*
X010725Y003319D01*
X010684Y003342D01*
X010638Y003354D01*
X010416Y003354D01*
X010416Y002996D01*
X010379Y002996D01*
X010379Y003354D01*
X010158Y003354D01*
X010112Y003342D01*
X010106Y003339D01*
X010040Y003404D01*
X010039Y003404D01*
X010039Y003459D01*
X010162Y003583D01*
X010191Y003571D01*
X010408Y003571D01*
X010609Y003654D01*
X010763Y003808D01*
X010846Y004009D01*
X010846Y004860D01*
X010763Y005061D01*
X010609Y005215D01*
X010408Y005298D01*
X010191Y005298D01*
X009990Y005215D01*
X009836Y005061D01*
X009772Y004906D01*
X009760Y004942D01*
X009724Y005012D01*
X009678Y005075D01*
X009623Y005130D01*
X009560Y005176D01*
X009490Y005212D01*
X009416Y005236D01*
X009339Y005248D01*
X009318Y005248D01*
X009318Y004453D01*
X009281Y004453D01*
X009281Y005248D01*
X009260Y005248D01*
X009183Y005236D01*
X009109Y005212D01*
X009039Y005176D01*
X008976Y005130D01*
X008921Y005075D01*
X008875Y005012D01*
X008839Y004942D01*
X008827Y004906D01*
X008763Y005061D01*
X008609Y005215D01*
X008408Y005298D01*
X008191Y005298D01*
X007990Y005215D01*
X007836Y005061D01*
X007800Y004973D01*
X007763Y005061D01*
X007609Y005215D01*
X007408Y005298D01*
X007191Y005298D01*
X006990Y005215D01*
X006836Y005061D01*
X006800Y004973D01*
X006763Y005061D01*
X006609Y005215D01*
X006408Y005298D01*
X006191Y005298D01*
X005990Y005215D01*
X005836Y005061D01*
X005800Y004973D01*
X005763Y005061D01*
X005609Y005215D01*
X005408Y005298D01*
X005191Y005298D01*
X004990Y005215D01*
X004836Y005061D01*
X004753Y004860D01*
X004753Y004009D01*
X004836Y003808D01*
X004990Y003654D01*
X004811Y003868D02*
X000361Y003868D01*
X000361Y004027D02*
X004753Y004027D01*
X004753Y004185D02*
X000361Y004185D01*
X000361Y004344D02*
X004753Y004344D01*
X004753Y004502D02*
X000361Y004502D01*
X000361Y004661D02*
X004753Y004661D01*
X004753Y004819D02*
X000361Y004819D01*
X000361Y004978D02*
X004802Y004978D01*
X004912Y005137D02*
X000361Y005137D01*
X000361Y005295D02*
X005184Y005295D01*
X005415Y005295D02*
X006184Y005295D01*
X006415Y005295D02*
X007184Y005295D01*
X007415Y005295D02*
X008184Y005295D01*
X008415Y005295D02*
X010184Y005295D01*
X010415Y005295D02*
X015001Y005295D01*
X015001Y005137D02*
X010687Y005137D01*
X010797Y004978D02*
X015001Y004978D01*
X015001Y004819D02*
X010846Y004819D01*
X010846Y004661D02*
X015001Y004661D01*
X015001Y004502D02*
X010846Y004502D01*
X010846Y004344D02*
X015001Y004344D01*
X015001Y004185D02*
X010846Y004185D01*
X010846Y004027D02*
X015001Y004027D01*
X015001Y003868D02*
X010788Y003868D01*
X010665Y003710D02*
X015001Y003710D01*
X015001Y003551D02*
X013977Y003551D01*
X014045Y003536D02*
X014045Y003536D01*
X014293Y003393D02*
X015001Y003393D01*
X015001Y003234D02*
X014526Y003234D01*
X014673Y003076D02*
X015001Y003076D01*
X015001Y002917D02*
X014820Y002917D01*
X014819Y002918D02*
X014819Y002918D01*
X014896Y002758D02*
X015001Y002758D01*
X015001Y002600D02*
X014973Y002600D01*
X012909Y003551D02*
X010130Y003551D01*
X010052Y003393D02*
X012549Y003393D01*
X012591Y003427D02*
X012591Y003427D01*
X012350Y003234D02*
X010785Y003234D01*
X010794Y003076D02*
X012173Y003076D01*
X012200Y003114D02*
X012200Y003114D01*
X012065Y002917D02*
X010794Y002917D01*
X010794Y002758D02*
X011957Y002758D01*
X011887Y002600D02*
X010090Y002600D01*
X010039Y002441D02*
X011838Y002441D01*
X011789Y002283D02*
X010039Y002283D01*
X010039Y002124D02*
X011770Y002124D01*
X011770Y001966D02*
X010039Y001966D01*
X010039Y001807D02*
X011770Y001807D01*
X011793Y001649D02*
X009996Y001649D01*
X009845Y001490D02*
X011841Y001490D01*
X011890Y001332D02*
X009827Y001332D01*
X009827Y001173D02*
X011965Y001173D01*
X012073Y001014D02*
X009827Y001014D01*
X009793Y000856D02*
X012182Y000856D01*
X012200Y000829D02*
X012200Y000829D01*
X012200Y000829D01*
X012365Y000697D02*
X009704Y000697D01*
X009483Y000539D02*
X012564Y000539D01*
X010416Y002758D02*
X010379Y002758D01*
X010379Y002917D02*
X010416Y002917D01*
X010416Y003076D02*
X010379Y003076D01*
X010379Y003234D02*
X010416Y003234D01*
X009729Y002978D02*
X009729Y001812D01*
X009280Y001363D01*
X008780Y001902D02*
X008743Y001990D01*
X008590Y002144D01*
X008389Y002227D01*
X008171Y002227D01*
X007970Y002144D01*
X007816Y001990D01*
X007780Y001902D01*
X007743Y001990D01*
X007590Y002144D01*
X007590Y002551D01*
X007599Y002551D01*
X007716Y002668D01*
X007725Y002668D01*
X007842Y002551D01*
X008466Y002551D01*
X008531Y002616D01*
X008537Y002613D01*
X008583Y002601D01*
X008805Y002601D01*
X008805Y002959D01*
X008842Y002959D01*
X008842Y002996D01*
X009220Y002996D01*
X009220Y003198D01*
X009207Y003244D01*
X009184Y003285D01*
X009150Y003319D01*
X009109Y003342D01*
X009063Y003354D01*
X008842Y003354D01*
X008842Y002996D01*
X008805Y002996D01*
X008805Y003354D01*
X008583Y003354D01*
X008537Y003342D01*
X008531Y003339D01*
X008466Y003404D01*
X008464Y003404D01*
X008464Y003594D01*
X008609Y003654D01*
X008763Y003808D01*
X008827Y003963D01*
X008839Y003927D01*
X008875Y003857D01*
X008921Y003794D01*
X008976Y003739D01*
X009039Y003693D01*
X009109Y003657D01*
X009183Y003633D01*
X009260Y003621D01*
X009281Y003621D01*
X009281Y004416D01*
X009318Y004416D01*
X009318Y003621D01*
X009339Y003621D01*
X009416Y003633D01*
X009419Y003634D01*
X009419Y003526D01*
X009419Y003404D01*
X009417Y003404D01*
X009282Y003270D01*
X009282Y002686D01*
X009417Y002551D01*
X009419Y002551D01*
X009419Y002215D01*
X009389Y002227D01*
X009171Y002227D01*
X008970Y002144D01*
X008816Y001990D01*
X008780Y001902D01*
X008754Y001966D02*
X008806Y001966D01*
X008950Y002124D02*
X008609Y002124D01*
X008515Y002600D02*
X009368Y002600D01*
X009419Y002441D02*
X007590Y002441D01*
X007590Y002283D02*
X009419Y002283D01*
X009150Y002637D02*
X009184Y002670D01*
X009207Y002711D01*
X009220Y002757D01*
X009220Y002959D01*
X008842Y002959D01*
X008842Y002601D01*
X009063Y002601D01*
X009109Y002613D01*
X009150Y002637D01*
X009220Y002758D02*
X009282Y002758D01*
X009282Y002917D02*
X009220Y002917D01*
X009220Y003076D02*
X009282Y003076D01*
X009282Y003234D02*
X009210Y003234D01*
X009405Y003393D02*
X008477Y003393D01*
X008464Y003551D02*
X009419Y003551D01*
X009318Y003710D02*
X009281Y003710D01*
X009281Y003868D02*
X009318Y003868D01*
X009318Y004027D02*
X009281Y004027D01*
X009281Y004185D02*
X009318Y004185D01*
X009318Y004344D02*
X009281Y004344D01*
X009281Y004502D02*
X009318Y004502D01*
X009318Y004661D02*
X009281Y004661D01*
X009281Y004819D02*
X009318Y004819D01*
X009318Y004978D02*
X009281Y004978D01*
X009281Y005137D02*
X009318Y005137D01*
X009614Y005137D02*
X009912Y005137D01*
X009802Y004978D02*
X009742Y004978D01*
X010300Y004434D02*
X010300Y004159D01*
X009729Y003588D01*
X009729Y002978D01*
X009015Y003710D02*
X008665Y003710D01*
X008788Y003868D02*
X008869Y003868D01*
X008842Y003234D02*
X008805Y003234D01*
X008805Y003076D02*
X008842Y003076D01*
X008842Y002917D02*
X008805Y002917D01*
X008805Y002758D02*
X008842Y002758D01*
X008154Y002978D02*
X008154Y004289D01*
X008300Y004434D01*
X008797Y004978D02*
X008858Y004978D01*
X008985Y005137D02*
X008687Y005137D01*
X007912Y005137D02*
X007687Y005137D01*
X007797Y004978D02*
X007802Y004978D01*
X006912Y005137D02*
X006687Y005137D01*
X006797Y004978D02*
X006802Y004978D01*
X005912Y005137D02*
X005687Y005137D01*
X005797Y004978D02*
X005802Y004978D01*
X005788Y003868D02*
X005811Y003868D01*
X005934Y003710D02*
X005665Y003710D01*
X006258Y003285D02*
X006234Y003244D01*
X006222Y003198D01*
X006222Y002996D01*
X006600Y002996D01*
X006600Y003354D01*
X006378Y003354D01*
X006332Y003342D01*
X006291Y003319D01*
X006258Y003285D01*
X006232Y003234D02*
X003026Y003234D01*
X003173Y003076D02*
X006222Y003076D01*
X006222Y002959D02*
X006222Y002757D01*
X006234Y002711D01*
X006258Y002670D01*
X006291Y002637D01*
X006332Y002613D01*
X006378Y002601D01*
X006600Y002601D01*
X006600Y002959D01*
X006222Y002959D01*
X006222Y002917D02*
X003320Y002917D01*
X003319Y002918D02*
X003319Y002918D01*
X003396Y002758D02*
X006222Y002758D01*
X006600Y002758D02*
X006637Y002758D01*
X006637Y002917D02*
X006600Y002917D01*
X006600Y003076D02*
X006637Y003076D01*
X006637Y003234D02*
X006600Y003234D01*
X006964Y003393D02*
X002793Y003393D01*
X002545Y003536D02*
X002545Y003536D01*
X002477Y003551D02*
X007844Y003551D01*
X007844Y003710D02*
X007665Y003710D01*
X007788Y003868D02*
X007811Y003868D01*
X007830Y003393D02*
X007611Y003393D01*
X007288Y002978D02*
X008154Y002978D01*
X007793Y002600D02*
X007649Y002600D01*
X007288Y002978D02*
X007280Y002978D01*
X007280Y001363D01*
X007754Y001966D02*
X007806Y001966D01*
X007950Y002124D02*
X007609Y002124D01*
X006950Y002124D02*
X006503Y002124D01*
X006687Y001966D02*
X006806Y001966D01*
X006970Y002283D02*
X003564Y002283D01*
X003541Y002441D02*
X006970Y002441D01*
X006927Y002600D02*
X003473Y002600D01*
X003537Y002467D02*
X003537Y002467D01*
X003588Y002124D02*
X006057Y002124D01*
X006089Y002141D02*
X006019Y002105D01*
X005956Y002059D01*
X005901Y002004D01*
X005855Y001941D01*
X005819Y001871D01*
X005795Y001797D01*
X005783Y001719D01*
X005783Y001382D01*
X006261Y001382D01*
X006261Y002177D01*
X006241Y002177D01*
X006163Y002165D01*
X006089Y002141D01*
X006261Y002124D02*
X006298Y002124D01*
X006298Y001966D02*
X006261Y001966D01*
X006261Y001807D02*
X006298Y001807D01*
X006298Y001649D02*
X006261Y001649D01*
X006261Y001490D02*
X006298Y001490D01*
X006298Y001332D02*
X006261Y001332D01*
X006261Y001173D02*
X006298Y001173D01*
X006298Y001014D02*
X006261Y001014D01*
X006261Y000856D02*
X006298Y000856D01*
X006298Y000697D02*
X006261Y000697D01*
X005901Y000723D02*
X005855Y000786D01*
X005819Y000856D01*
X005783Y001014D02*
X003309Y001014D01*
X003319Y001025D02*
X003319Y001025D01*
X003391Y001173D02*
X005783Y001173D01*
X005783Y001332D02*
X003467Y001332D01*
X003537Y001477D02*
X003537Y001477D01*
X003539Y001490D02*
X005783Y001490D01*
X005783Y001649D02*
X003563Y001649D01*
X003587Y001807D02*
X005799Y001807D01*
X005873Y001966D02*
X003610Y001966D01*
X002772Y000539D02*
X007077Y000539D01*
X006856Y000697D02*
X006633Y000697D01*
X007483Y000539D02*
X008077Y000539D01*
X007856Y000697D02*
X007704Y000697D01*
X008483Y000539D02*
X009077Y000539D01*
X008856Y000697D02*
X008704Y000697D01*
X006934Y003710D02*
X006665Y003710D01*
X006788Y003868D02*
X006811Y003868D01*
X003800Y007158D02*
X004072Y007430D01*
X004220Y007785D01*
X004220Y008170D01*
X004072Y008526D01*
X003800Y008798D01*
X003445Y008945D01*
X003060Y008945D01*
X002704Y008798D01*
X002432Y008526D01*
X002285Y008170D01*
X002285Y007785D01*
X002432Y007430D01*
X002704Y007158D01*
X003060Y007010D01*
X003445Y007010D01*
X003800Y007158D01*
X003840Y007198D02*
X011759Y007198D01*
X011799Y007158D02*
X012154Y007010D01*
X012539Y007010D01*
X012895Y007158D01*
X013167Y007430D01*
X013314Y007785D01*
X013314Y008170D01*
X013167Y008526D01*
X012895Y008798D01*
X012539Y008945D01*
X012154Y008945D01*
X011799Y008798D01*
X011527Y008526D01*
X011379Y008170D01*
X011379Y007785D01*
X011527Y007430D01*
X011799Y007158D01*
X011600Y007356D02*
X003999Y007356D01*
X004108Y007515D02*
X011491Y007515D01*
X011426Y007673D02*
X004173Y007673D01*
X004220Y007832D02*
X011379Y007832D01*
X011379Y007990D02*
X004220Y007990D01*
X004220Y008149D02*
X011379Y008149D01*
X011436Y008307D02*
X004163Y008307D01*
X004097Y008466D02*
X011502Y008466D01*
X011626Y008625D02*
X003973Y008625D01*
X003815Y008783D02*
X011784Y008783D01*
X012146Y008942D02*
X003453Y008942D01*
X003052Y008942D02*
X000361Y008942D01*
X000361Y009100D02*
X015001Y009100D01*
X015001Y008942D02*
X012547Y008942D01*
X012909Y008783D02*
X015001Y008783D01*
X015001Y008625D02*
X013068Y008625D01*
X013192Y008466D02*
X015001Y008466D01*
X015001Y008307D02*
X013257Y008307D01*
X013314Y008149D02*
X015001Y008149D01*
X015001Y007990D02*
X013314Y007990D01*
X013314Y007832D02*
X015001Y007832D01*
X015001Y007673D02*
X013268Y007673D01*
X013202Y007515D02*
X015001Y007515D01*
X015001Y007356D02*
X013093Y007356D01*
X012935Y007198D02*
X015001Y007198D01*
X015001Y007039D02*
X012609Y007039D01*
X012085Y007039D02*
X003514Y007039D01*
X002990Y007039D02*
X000361Y007039D01*
X000361Y006881D02*
X015001Y006881D01*
X015001Y006722D02*
X000361Y006722D01*
X000361Y006563D02*
X015001Y006563D01*
X015001Y006405D02*
X000361Y006405D01*
X000361Y006246D02*
X015001Y006246D01*
X015001Y006088D02*
X000361Y006088D01*
X000361Y005929D02*
X015001Y005929D01*
X015001Y005771D02*
X000361Y005771D01*
X000361Y005612D02*
X015001Y005612D01*
X015001Y005454D02*
X000361Y005454D01*
X000361Y007198D02*
X002664Y007198D01*
X002506Y007356D02*
X000361Y007356D01*
X000361Y007515D02*
X002397Y007515D01*
X002331Y007673D02*
X000361Y007673D01*
X000361Y007832D02*
X002285Y007832D01*
X002285Y007990D02*
X000361Y007990D01*
X000361Y008149D02*
X002285Y008149D01*
X002342Y008307D02*
X000361Y008307D01*
X000361Y008466D02*
X002407Y008466D01*
X002531Y008625D02*
X000361Y008625D01*
X000361Y008783D02*
X002690Y008783D01*
X000361Y009259D02*
X015001Y009259D01*
X015001Y009417D02*
X000361Y009417D01*
M02*
