G75*
G70*
%OFA0B0*%
%FSLAX24Y24*%
%IPPOS*%
%LPD*%
%AMOC8*
5,1,8,0,0,1.08239X$1,22.5*
%
%ADD10C,0.0130*%
%ADD11C,0.0634*%
%ADD12C,0.0160*%
D10*
X004259Y006783D02*
X004613Y006783D01*
X004259Y007136D01*
X004259Y007225D01*
X004347Y007313D01*
X004524Y007313D01*
X004613Y007225D01*
X005044Y007313D02*
X005044Y006783D01*
X005220Y006783D02*
X004867Y006783D01*
X005220Y007136D02*
X005044Y007313D01*
X005474Y007225D02*
X005474Y006871D01*
X005563Y006783D01*
X005740Y006783D01*
X005828Y006871D01*
X005474Y007225D01*
X005563Y007313D01*
X005740Y007313D01*
X005828Y007225D01*
X005828Y006871D01*
X006082Y006783D02*
X006436Y006783D01*
X006082Y007136D01*
X006082Y007225D01*
X006171Y007313D01*
X006347Y007313D01*
X006436Y007225D01*
X007298Y007048D02*
X007298Y006783D01*
X007474Y006783D02*
X007474Y007048D01*
X007386Y007136D01*
X007298Y007048D01*
X007474Y007048D02*
X007563Y007136D01*
X007651Y007136D01*
X007651Y006783D01*
X007905Y006783D02*
X007905Y007048D01*
X007994Y007136D01*
X008171Y007136D01*
X008171Y006960D02*
X007905Y006960D01*
X007905Y006783D02*
X008171Y006783D01*
X008259Y006871D01*
X008171Y006960D01*
X008513Y006960D02*
X008867Y006960D01*
X008867Y007048D02*
X008778Y007136D01*
X008601Y007136D01*
X008513Y007048D01*
X008513Y006960D01*
X008601Y006783D02*
X008778Y006783D01*
X008867Y006871D01*
X008867Y007048D01*
X009121Y007313D02*
X009474Y007313D01*
X009298Y007313D02*
X009298Y006783D01*
X009728Y006871D02*
X009817Y006783D01*
X010082Y006783D01*
X010082Y007313D01*
X009817Y007313D01*
X009728Y007225D01*
X009728Y007136D01*
X009817Y007048D01*
X010082Y007048D01*
X010336Y007048D02*
X010425Y006960D01*
X010690Y006960D01*
X010690Y006783D02*
X010690Y007313D01*
X010425Y007313D01*
X010336Y007225D01*
X010336Y007048D01*
X009817Y007048D02*
X009728Y006960D01*
X009728Y006871D01*
X010944Y006783D02*
X010944Y007136D01*
X011121Y007313D01*
X011298Y007136D01*
X011298Y006783D01*
X011298Y007048D02*
X010944Y007048D01*
X012931Y005483D02*
X012931Y005306D01*
X013108Y005129D01*
X012931Y005483D02*
X013108Y005660D01*
X013323Y005748D02*
X013323Y005571D01*
X013412Y005483D01*
X013640Y005483D02*
X013729Y005483D01*
X013729Y005394D01*
X013640Y005394D01*
X013640Y005483D01*
X013640Y005218D02*
X013729Y005218D01*
X013729Y005129D01*
X013640Y005129D01*
X013640Y005218D01*
X013640Y005129D02*
X013817Y004952D01*
X014013Y004724D02*
X014013Y004548D01*
X014101Y004459D01*
X014190Y004548D02*
X014190Y004724D01*
X014190Y004548D02*
X014278Y004459D01*
X014507Y004636D02*
X014683Y004459D01*
X014683Y004282D01*
X014507Y004106D01*
X013772Y004106D02*
X013595Y004282D01*
X013595Y004459D01*
X013772Y004636D01*
X013367Y004459D02*
X013367Y004282D01*
X013190Y004106D01*
X013367Y004459D02*
X013190Y004636D01*
X012962Y004459D02*
X012873Y004548D01*
X012873Y004724D01*
X012696Y004724D02*
X012696Y004548D01*
X012785Y004459D01*
X012455Y004636D02*
X012278Y004459D01*
X012278Y004282D01*
X012455Y004106D01*
X014032Y005571D02*
X014032Y005748D01*
X014032Y005571D02*
X014121Y005483D01*
X014349Y005660D02*
X014526Y005483D01*
X014526Y005306D01*
X014349Y005129D01*
X014310Y006035D02*
X014486Y006212D01*
X014486Y006388D01*
X014310Y006565D01*
X014081Y006565D02*
X013905Y006388D01*
X013905Y006212D01*
X014081Y006035D01*
X013676Y006212D02*
X013676Y006388D01*
X013499Y006565D01*
X013271Y006565D02*
X013094Y006388D01*
X013094Y006212D01*
X013271Y006035D01*
X013499Y006035D02*
X013676Y006212D01*
D11*
X010300Y004751D02*
X010300Y004117D01*
X009300Y004117D02*
X009300Y004751D01*
X008300Y004751D02*
X008300Y004117D01*
X007300Y004117D02*
X007300Y004751D01*
X006300Y004751D02*
X006300Y004117D01*
X005300Y004117D02*
X005300Y004751D01*
X006280Y001680D02*
X006280Y001047D01*
X007280Y001047D02*
X007280Y001680D01*
X008280Y001680D02*
X008280Y001047D01*
X009280Y001047D02*
X009280Y001680D01*
D12*
X000361Y002518D02*
X000361Y009542D01*
X015001Y009542D01*
X015001Y002540D01*
X014819Y002918D01*
X014479Y003285D01*
X014479Y003285D01*
X014045Y003536D01*
X013557Y003647D01*
X013557Y003647D01*
X013058Y003610D01*
X013058Y003610D01*
X012591Y003427D01*
X012200Y003114D01*
X011918Y002701D01*
X011918Y002701D01*
X011770Y002222D01*
X011770Y001721D01*
X011918Y001243D01*
X011918Y001243D01*
X012200Y000829D01*
X012591Y000517D01*
X012591Y000517D01*
X012885Y000402D01*
X002518Y000402D01*
X002545Y000408D01*
X002545Y000408D01*
X002979Y000658D01*
X003319Y001025D01*
X003537Y001477D01*
X003611Y001972D01*
X003537Y002467D01*
X003319Y002918D01*
X002979Y003285D01*
X002979Y003285D01*
X002545Y003536D01*
X002057Y003647D01*
X002057Y003647D01*
X001558Y003610D01*
X001558Y003610D01*
X001091Y003427D01*
X000700Y003114D01*
X000418Y002701D01*
X000418Y002701D01*
X000361Y002518D01*
X000361Y002600D02*
X000387Y002600D01*
X000361Y002758D02*
X000457Y002758D01*
X000361Y002917D02*
X000565Y002917D01*
X000673Y003076D02*
X000361Y003076D01*
X000361Y003234D02*
X000850Y003234D01*
X000700Y003114D02*
X000700Y003114D01*
X000700Y003114D01*
X000361Y003393D02*
X001049Y003393D01*
X001091Y003427D02*
X001091Y003427D01*
X001409Y003551D02*
X000361Y003551D01*
X000361Y003710D02*
X004934Y003710D01*
X004990Y003654D02*
X005191Y003571D01*
X005408Y003571D01*
X005609Y003654D01*
X005763Y003808D01*
X005800Y003896D01*
X005836Y003808D01*
X005990Y003654D01*
X006191Y003571D01*
X006408Y003571D01*
X006609Y003654D01*
X006763Y003808D01*
X006800Y003896D01*
X006836Y003808D01*
X006990Y003654D01*
X007191Y003571D01*
X007408Y003571D01*
X007609Y003654D01*
X007763Y003808D01*
X007800Y003896D01*
X007836Y003808D01*
X007990Y003654D01*
X008191Y003571D01*
X008408Y003571D01*
X008609Y003654D01*
X008763Y003808D01*
X008827Y003963D01*
X008839Y003927D01*
X008875Y003857D01*
X008921Y003794D01*
X008976Y003739D01*
X009039Y003693D01*
X009109Y003657D01*
X009183Y003633D01*
X009260Y003621D01*
X009281Y003621D01*
X009281Y004416D01*
X009318Y004416D01*
X009318Y003621D01*
X009339Y003621D01*
X009416Y003633D01*
X009490Y003657D01*
X009560Y003693D01*
X009623Y003739D01*
X009678Y003794D01*
X009724Y003857D01*
X009760Y003927D01*
X009772Y003963D01*
X009836Y003808D01*
X009990Y003654D01*
X010191Y003571D01*
X010408Y003571D01*
X010609Y003654D01*
X010763Y003808D01*
X010846Y004009D01*
X010846Y004860D01*
X010763Y005061D01*
X010609Y005215D01*
X010408Y005298D01*
X010191Y005298D01*
X009990Y005215D01*
X009836Y005061D01*
X009772Y004906D01*
X009760Y004942D01*
X009724Y005012D01*
X009678Y005075D01*
X009623Y005130D01*
X009560Y005176D01*
X009490Y005212D01*
X009416Y005236D01*
X009339Y005248D01*
X009318Y005248D01*
X009318Y004453D01*
X009281Y004453D01*
X009281Y005248D01*
X009260Y005248D01*
X009183Y005236D01*
X009109Y005212D01*
X009039Y005176D01*
X008976Y005130D01*
X008921Y005075D01*
X008875Y005012D01*
X008839Y004942D01*
X008827Y004906D01*
X008763Y005061D01*
X008609Y005215D01*
X008408Y005298D01*
X008191Y005298D01*
X007990Y005215D01*
X007836Y005061D01*
X007800Y004973D01*
X007763Y005061D01*
X007609Y005215D01*
X007408Y005298D01*
X007191Y005298D01*
X006990Y005215D01*
X006836Y005061D01*
X006800Y004973D01*
X006763Y005061D01*
X006609Y005215D01*
X006408Y005298D01*
X006191Y005298D01*
X005990Y005215D01*
X005836Y005061D01*
X005800Y004973D01*
X005763Y005061D01*
X005609Y005215D01*
X005408Y005298D01*
X005191Y005298D01*
X004990Y005215D01*
X004836Y005061D01*
X004753Y004860D01*
X004753Y004009D01*
X004836Y003808D01*
X004990Y003654D01*
X004811Y003868D02*
X000361Y003868D01*
X000361Y004027D02*
X004753Y004027D01*
X004753Y004185D02*
X000361Y004185D01*
X000361Y004344D02*
X004753Y004344D01*
X004753Y004502D02*
X000361Y004502D01*
X000361Y004661D02*
X004753Y004661D01*
X004753Y004819D02*
X000361Y004819D01*
X000361Y004978D02*
X004802Y004978D01*
X004912Y005137D02*
X000361Y005137D01*
X000361Y005295D02*
X005184Y005295D01*
X005415Y005295D02*
X006184Y005295D01*
X006415Y005295D02*
X007184Y005295D01*
X007415Y005295D02*
X008184Y005295D01*
X008415Y005295D02*
X010184Y005295D01*
X010415Y005295D02*
X012636Y005295D01*
X012636Y005247D02*
X012681Y005139D01*
X012764Y005056D01*
X012805Y005015D01*
X012785Y005007D01*
X012755Y005019D01*
X012638Y005019D01*
X012529Y004975D01*
X012486Y004931D01*
X012396Y004931D01*
X012288Y004886D01*
X012028Y004626D01*
X011983Y004518D01*
X011983Y004401D01*
X011983Y004224D01*
X012028Y004115D01*
X012111Y004032D01*
X012288Y003856D01*
X012396Y003811D01*
X012514Y003811D01*
X012622Y003856D01*
X012705Y003939D01*
X012750Y004047D01*
X012750Y004164D01*
X012843Y004164D01*
X012873Y004177D01*
X012896Y004167D01*
X012895Y004164D01*
X012895Y004047D01*
X012940Y003939D01*
X013023Y003856D01*
X013131Y003811D01*
X013249Y003811D01*
X013357Y003856D01*
X013481Y003979D01*
X013605Y003856D01*
X013713Y003811D01*
X013830Y003811D01*
X013939Y003856D01*
X014022Y003939D01*
X014067Y004047D01*
X014067Y004164D01*
X014160Y004164D01*
X014190Y004177D01*
X014213Y004167D01*
X014212Y004164D01*
X014212Y004047D01*
X014256Y003939D01*
X014339Y003856D01*
X014448Y003811D01*
X014565Y003811D01*
X014674Y003856D01*
X014850Y004032D01*
X014933Y004115D01*
X014978Y004224D01*
X014978Y004401D01*
X014978Y004518D01*
X014933Y004626D01*
X014674Y004886D01*
X014567Y004930D01*
X014693Y005056D01*
X014776Y005139D01*
X014821Y005247D01*
X014821Y005424D01*
X014821Y005542D01*
X014776Y005650D01*
X014559Y005867D01*
X014654Y005961D01*
X014737Y006044D01*
X014781Y006153D01*
X014781Y006330D01*
X014781Y006447D01*
X014737Y006555D01*
X014477Y006815D01*
X014368Y006860D01*
X014251Y006860D01*
X014196Y006837D01*
X014140Y006860D01*
X014023Y006860D01*
X013914Y006815D01*
X013790Y006691D01*
X013667Y006815D01*
X013558Y006860D01*
X013441Y006860D01*
X013385Y006837D01*
X013330Y006860D01*
X013212Y006860D01*
X013104Y006815D01*
X012844Y006555D01*
X012799Y006447D01*
X012799Y006330D01*
X012799Y006153D01*
X012844Y006044D01*
X012927Y005961D01*
X012968Y005921D01*
X012941Y005910D01*
X012681Y005650D01*
X012636Y005542D01*
X012636Y005424D01*
X012636Y005247D01*
X012683Y005137D02*
X010687Y005137D01*
X010797Y004978D02*
X012538Y004978D01*
X012221Y004819D02*
X010846Y004819D01*
X010846Y004661D02*
X012063Y004661D01*
X011983Y004502D02*
X010846Y004502D01*
X010846Y004344D02*
X011983Y004344D01*
X011999Y004185D02*
X010846Y004185D01*
X010846Y004027D02*
X012117Y004027D01*
X012275Y003868D02*
X010788Y003868D01*
X010665Y003710D02*
X015001Y003710D01*
X015001Y003868D02*
X014686Y003868D01*
X014845Y004027D02*
X015001Y004027D01*
X015001Y004185D02*
X014962Y004185D01*
X014978Y004344D02*
X015001Y004344D01*
X015001Y004502D02*
X014978Y004502D01*
X015001Y004661D02*
X014899Y004661D01*
X015001Y004819D02*
X014740Y004819D01*
X014615Y004978D02*
X015001Y004978D01*
X015001Y005137D02*
X014774Y005137D01*
X014821Y005295D02*
X015001Y005295D01*
X015001Y005454D02*
X014821Y005454D01*
X014792Y005612D02*
X015001Y005612D01*
X015001Y005771D02*
X014655Y005771D01*
X014621Y005929D02*
X015001Y005929D01*
X015001Y006088D02*
X014754Y006088D01*
X014781Y006246D02*
X015001Y006246D01*
X015001Y006405D02*
X014781Y006405D01*
X014729Y006563D02*
X015001Y006563D01*
X015001Y006722D02*
X014570Y006722D01*
X015001Y006881D02*
X011592Y006881D01*
X011592Y006989D02*
X011592Y006724D01*
X011548Y006616D01*
X011465Y006533D01*
X011356Y006488D01*
X011239Y006488D01*
X011130Y006533D01*
X011121Y006542D01*
X011111Y006533D01*
X011003Y006488D01*
X010885Y006488D01*
X010817Y006516D01*
X010748Y006488D01*
X010631Y006488D01*
X010523Y006533D01*
X010440Y006616D01*
X010419Y006665D01*
X010366Y006665D01*
X010354Y006669D01*
X010332Y006616D01*
X010249Y006533D01*
X010141Y006488D01*
X009758Y006488D01*
X009679Y006520D01*
X009650Y006533D01*
X009650Y006533D01*
X009650Y006533D01*
X009567Y006616D01*
X009561Y006621D01*
X009561Y006621D01*
X009553Y006629D01*
X009548Y006616D01*
X009465Y006533D01*
X009356Y006488D01*
X009239Y006488D01*
X009130Y006533D01*
X009047Y006616D01*
X009042Y006629D01*
X009034Y006621D01*
X008945Y006533D01*
X008837Y006488D01*
X008720Y006488D01*
X008543Y006488D01*
X008434Y006533D01*
X008386Y006581D01*
X008338Y006533D01*
X008229Y006488D01*
X008112Y006488D01*
X007847Y006488D01*
X007778Y006516D01*
X007710Y006488D01*
X007593Y006488D01*
X007563Y006500D01*
X007533Y006488D01*
X007416Y006488D01*
X007386Y006500D01*
X007356Y006488D01*
X007239Y006488D01*
X007130Y006533D01*
X007048Y006616D01*
X007003Y006724D01*
X007003Y007107D01*
X007048Y007215D01*
X007130Y007298D01*
X007219Y007386D01*
X007219Y007386D01*
X007219Y007386D01*
X007249Y007399D01*
X007327Y007431D01*
X007445Y007431D01*
X007445Y007431D01*
X007474Y007419D01*
X007504Y007431D01*
X007621Y007431D01*
X007710Y007431D01*
X007818Y007386D01*
X007822Y007382D01*
X007827Y007386D01*
X007935Y007431D01*
X008052Y007431D01*
X008229Y007431D01*
X008338Y007386D01*
X008386Y007338D01*
X008434Y007386D01*
X008543Y007431D01*
X008660Y007431D01*
X008837Y007431D01*
X008837Y007431D01*
X008848Y007427D01*
X008871Y007480D01*
X008954Y007563D01*
X009062Y007608D01*
X009533Y007608D01*
X009641Y007563D01*
X009646Y007559D01*
X009650Y007563D01*
X009758Y007608D01*
X009876Y007608D01*
X010141Y007608D01*
X010249Y007563D01*
X010253Y007559D01*
X010257Y007563D01*
X010366Y007608D01*
X010483Y007608D01*
X010748Y007608D01*
X010857Y007563D01*
X010905Y007515D01*
X010954Y007563D01*
X011062Y007608D01*
X011179Y007608D01*
X011288Y007563D01*
X011371Y007480D01*
X011548Y007304D01*
X011592Y007195D01*
X011592Y007107D01*
X011592Y006989D01*
X011592Y007039D02*
X012085Y007039D01*
X012154Y007010D02*
X012539Y007010D01*
X012895Y007158D01*
X013167Y007430D01*
X013314Y007785D01*
X013314Y008170D01*
X013167Y008526D01*
X012895Y008798D01*
X012539Y008945D01*
X012154Y008945D01*
X011799Y008798D01*
X011527Y008526D01*
X011379Y008170D01*
X011379Y007785D01*
X011527Y007430D01*
X011799Y007158D01*
X012154Y007010D01*
X011759Y007198D02*
X011591Y007198D01*
X011600Y007356D02*
X011495Y007356D01*
X011491Y007515D02*
X011336Y007515D01*
X011426Y007673D02*
X004173Y007673D01*
X004180Y007563D02*
X004289Y007608D01*
X004466Y007608D01*
X004583Y007608D01*
X004647Y007581D01*
X004691Y007563D01*
X004691Y007563D01*
X004693Y007562D01*
X004774Y007480D01*
X004774Y007480D01*
X004788Y007467D01*
X004793Y007480D01*
X004876Y007563D01*
X004985Y007608D01*
X005102Y007608D01*
X005211Y007563D01*
X005294Y007480D01*
X005303Y007471D01*
X005307Y007475D01*
X005396Y007563D01*
X005504Y007608D01*
X005622Y007608D01*
X005798Y007608D01*
X005798Y007608D01*
X005861Y007582D01*
X005907Y007563D01*
X005955Y007515D01*
X006003Y007563D01*
X006112Y007608D01*
X006289Y007608D01*
X006406Y007608D01*
X006471Y007581D01*
X006514Y007563D01*
X006515Y007563D01*
X006516Y007562D01*
X006597Y007480D01*
X006597Y007480D01*
X006686Y007392D01*
X006731Y007283D01*
X006731Y007166D01*
X006686Y007058D01*
X006632Y007004D01*
X006686Y006950D01*
X006731Y006841D01*
X006731Y006724D01*
X006686Y006616D01*
X006603Y006533D01*
X006494Y006488D01*
X006377Y006488D01*
X006023Y006488D01*
X005915Y006533D01*
X005911Y006537D01*
X005907Y006533D01*
X005798Y006488D01*
X005681Y006488D01*
X005504Y006488D01*
X005425Y006520D01*
X005396Y006533D01*
X005396Y006533D01*
X005396Y006533D01*
X005392Y006537D01*
X005387Y006533D01*
X005279Y006488D01*
X004808Y006488D01*
X004740Y006516D01*
X004671Y006488D01*
X004554Y006488D01*
X004200Y006488D01*
X004092Y006533D01*
X004009Y006616D01*
X003964Y006724D01*
X003964Y006841D01*
X004009Y006950D01*
X004019Y006960D01*
X004009Y006969D01*
X003964Y007078D01*
X003964Y007166D01*
X003964Y007283D01*
X003991Y007348D01*
X003800Y007158D01*
X003445Y007010D01*
X003060Y007010D01*
X002704Y007158D01*
X002432Y007430D01*
X002285Y007785D01*
X002285Y008170D01*
X002432Y008526D01*
X002704Y008798D01*
X003060Y008945D01*
X003445Y008945D01*
X003800Y008798D01*
X004072Y008526D01*
X004220Y008170D01*
X004220Y007785D01*
X004090Y007473D01*
X004097Y007480D01*
X004180Y007563D01*
X004132Y007515D02*
X004108Y007515D01*
X004220Y007832D02*
X011379Y007832D01*
X011379Y007990D02*
X004220Y007990D01*
X004220Y008149D02*
X011379Y008149D01*
X011436Y008307D02*
X004163Y008307D01*
X004097Y008466D02*
X011502Y008466D01*
X011626Y008625D02*
X003973Y008625D01*
X003815Y008783D02*
X011784Y008783D01*
X012146Y008942D02*
X003453Y008942D01*
X003052Y008942D02*
X000361Y008942D01*
X000361Y009100D02*
X015001Y009100D01*
X015001Y008942D02*
X012547Y008942D01*
X012909Y008783D02*
X015001Y008783D01*
X015001Y008625D02*
X013068Y008625D01*
X013192Y008466D02*
X015001Y008466D01*
X015001Y008307D02*
X013257Y008307D01*
X013314Y008149D02*
X015001Y008149D01*
X015001Y007990D02*
X013314Y007990D01*
X013314Y007832D02*
X015001Y007832D01*
X015001Y007673D02*
X013268Y007673D01*
X013202Y007515D02*
X015001Y007515D01*
X015001Y007356D02*
X013093Y007356D01*
X012935Y007198D02*
X015001Y007198D01*
X015001Y007039D02*
X012609Y007039D01*
X013011Y006722D02*
X011592Y006722D01*
X011495Y006563D02*
X012852Y006563D01*
X012799Y006405D02*
X000361Y006405D01*
X000361Y006563D02*
X004061Y006563D01*
X003965Y006722D02*
X000361Y006722D01*
X000361Y006881D02*
X003980Y006881D01*
X003980Y007039D02*
X003514Y007039D01*
X003840Y007198D02*
X003964Y007198D01*
X004740Y007515D02*
X004828Y007515D01*
X005259Y007515D02*
X005347Y007515D01*
X006563Y007515D02*
X008905Y007515D01*
X008404Y007356D02*
X008368Y007356D01*
X008368Y006563D02*
X008404Y006563D01*
X008976Y006563D02*
X009100Y006563D01*
X009495Y006563D02*
X009619Y006563D01*
X010280Y006563D02*
X010492Y006563D01*
X009912Y005137D02*
X009614Y005137D01*
X009742Y004978D02*
X009802Y004978D01*
X009318Y004978D02*
X009281Y004978D01*
X009281Y004819D02*
X009318Y004819D01*
X009318Y004661D02*
X009281Y004661D01*
X009281Y004502D02*
X009318Y004502D01*
X009318Y004344D02*
X009281Y004344D01*
X009281Y004185D02*
X009318Y004185D01*
X009318Y004027D02*
X009281Y004027D01*
X009281Y003868D02*
X009318Y003868D01*
X009318Y003710D02*
X009281Y003710D01*
X009015Y003710D02*
X008665Y003710D01*
X008788Y003868D02*
X008869Y003868D01*
X009584Y003710D02*
X009934Y003710D01*
X009811Y003868D02*
X009730Y003868D01*
X008858Y004978D02*
X008797Y004978D01*
X008687Y005137D02*
X008985Y005137D01*
X009281Y005137D02*
X009318Y005137D01*
X007912Y005137D02*
X007687Y005137D01*
X007797Y004978D02*
X007802Y004978D01*
X006912Y005137D02*
X006687Y005137D01*
X006797Y004978D02*
X006802Y004978D01*
X005912Y005137D02*
X005687Y005137D01*
X005797Y004978D02*
X005802Y004978D01*
X005788Y003868D02*
X005811Y003868D01*
X005934Y003710D02*
X005665Y003710D01*
X006665Y003710D02*
X006934Y003710D01*
X006811Y003868D02*
X006788Y003868D01*
X007665Y003710D02*
X007934Y003710D01*
X007811Y003868D02*
X007788Y003868D01*
X008171Y002227D02*
X007970Y002144D01*
X007816Y001990D01*
X007780Y001902D01*
X007743Y001990D01*
X007590Y002144D01*
X007389Y002227D01*
X007171Y002227D01*
X006970Y002144D01*
X006816Y001990D01*
X006752Y001835D01*
X006740Y001871D01*
X006705Y001941D01*
X006659Y002004D01*
X006604Y002059D01*
X006540Y002105D01*
X006471Y002141D01*
X006396Y002165D01*
X006319Y002177D01*
X006298Y002177D01*
X006298Y001382D01*
X006261Y001382D01*
X006261Y001345D01*
X005783Y001345D01*
X005783Y001007D01*
X005795Y000930D01*
X005819Y000856D01*
X003162Y000856D01*
X003015Y000697D02*
X005926Y000697D01*
X005901Y000723D02*
X005956Y000668D01*
X006019Y000622D01*
X006089Y000586D01*
X006163Y000562D01*
X006241Y000550D01*
X006261Y000550D01*
X006261Y001345D01*
X006298Y001345D01*
X006298Y000550D01*
X006319Y000550D01*
X006396Y000562D01*
X006471Y000586D01*
X006540Y000622D01*
X006604Y000668D01*
X006659Y000723D01*
X006705Y000786D01*
X006740Y000856D01*
X006767Y000856D01*
X006740Y000856D02*
X006752Y000892D01*
X006816Y000737D01*
X006970Y000583D01*
X007171Y000500D01*
X007389Y000500D01*
X007590Y000583D01*
X007743Y000737D01*
X007780Y000825D01*
X007816Y000737D01*
X007970Y000583D01*
X008171Y000500D01*
X008389Y000500D01*
X008590Y000583D01*
X008743Y000737D01*
X008780Y000825D01*
X008816Y000737D01*
X008970Y000583D01*
X009171Y000500D01*
X009389Y000500D01*
X009590Y000583D01*
X009743Y000737D01*
X009827Y000938D01*
X009827Y001789D01*
X009743Y001990D01*
X009590Y002144D01*
X009389Y002227D01*
X009171Y002227D01*
X008970Y002144D01*
X008816Y001990D01*
X008780Y001902D01*
X008743Y001990D01*
X008590Y002144D01*
X008389Y002227D01*
X008171Y002227D01*
X007950Y002124D02*
X007609Y002124D01*
X007754Y001966D02*
X007806Y001966D01*
X006950Y002124D02*
X006503Y002124D01*
X006687Y001966D02*
X006806Y001966D01*
X006298Y001966D02*
X006261Y001966D01*
X006261Y002124D02*
X006298Y002124D01*
X006261Y002177D02*
X006241Y002177D01*
X006163Y002165D01*
X006089Y002141D01*
X006019Y002105D01*
X005956Y002059D01*
X005901Y002004D01*
X005855Y001941D01*
X005819Y001871D01*
X005795Y001797D01*
X005783Y001719D01*
X005783Y001382D01*
X006261Y001382D01*
X006261Y002177D01*
X006057Y002124D02*
X003588Y002124D01*
X003611Y001972D02*
X003611Y001972D01*
X003610Y001966D02*
X005873Y001966D01*
X005799Y001807D02*
X003587Y001807D01*
X003563Y001649D02*
X005783Y001649D01*
X005783Y001490D02*
X003539Y001490D01*
X003537Y001477D02*
X003537Y001477D01*
X003467Y001332D02*
X005783Y001332D01*
X005783Y001173D02*
X003391Y001173D01*
X003319Y001025D02*
X003319Y001025D01*
X003309Y001014D02*
X005783Y001014D01*
X005819Y000856D02*
X005855Y000786D01*
X005901Y000723D01*
X006261Y000697D02*
X006298Y000697D01*
X006298Y000856D02*
X006261Y000856D01*
X006261Y001014D02*
X006298Y001014D01*
X006298Y001173D02*
X006261Y001173D01*
X006261Y001332D02*
X006298Y001332D01*
X006298Y001490D02*
X006261Y001490D01*
X006261Y001649D02*
X006298Y001649D01*
X006298Y001807D02*
X006261Y001807D01*
X006633Y000697D02*
X006856Y000697D01*
X007077Y000539D02*
X002772Y000539D01*
X002979Y000658D02*
X002979Y000658D01*
X003564Y002283D02*
X011789Y002283D01*
X011770Y002222D02*
X011770Y002222D01*
X011770Y002124D02*
X009609Y002124D01*
X009754Y001966D02*
X011770Y001966D01*
X011770Y001807D02*
X009819Y001807D01*
X009827Y001649D02*
X011793Y001649D01*
X011770Y001721D02*
X011770Y001721D01*
X011841Y001490D02*
X009827Y001490D01*
X009827Y001332D02*
X011890Y001332D01*
X011965Y001173D02*
X009827Y001173D01*
X009827Y001014D02*
X012073Y001014D01*
X012182Y000856D02*
X009793Y000856D01*
X009704Y000697D02*
X012365Y000697D01*
X012200Y000829D02*
X012200Y000829D01*
X012200Y000829D01*
X012564Y000539D02*
X009483Y000539D01*
X009077Y000539D02*
X008483Y000539D01*
X008704Y000697D02*
X008856Y000697D01*
X008077Y000539D02*
X007483Y000539D01*
X007704Y000697D02*
X007856Y000697D01*
X008754Y001966D02*
X008806Y001966D01*
X008950Y002124D02*
X008609Y002124D01*
X011838Y002441D02*
X003541Y002441D01*
X003473Y002600D02*
X011887Y002600D01*
X011957Y002758D02*
X003396Y002758D01*
X003320Y002917D02*
X012065Y002917D01*
X012173Y003076D02*
X003173Y003076D01*
X003319Y002918D02*
X003319Y002918D01*
X003026Y003234D02*
X012350Y003234D01*
X012200Y003114D02*
X012200Y003114D01*
X012549Y003393D02*
X002793Y003393D01*
X002545Y003536D02*
X002545Y003536D01*
X002477Y003551D02*
X012909Y003551D01*
X013010Y003868D02*
X012635Y003868D01*
X012742Y004027D02*
X012903Y004027D01*
X013370Y003868D02*
X013592Y003868D01*
X013952Y003868D02*
X014327Y003868D01*
X014220Y004027D02*
X014058Y004027D01*
X013977Y003551D02*
X015001Y003551D01*
X015001Y003393D02*
X014293Y003393D01*
X014045Y003536D02*
X014045Y003536D01*
X014526Y003234D02*
X015001Y003234D01*
X015001Y003076D02*
X014673Y003076D01*
X014819Y002918D02*
X014819Y002918D01*
X014820Y002917D02*
X015001Y002917D01*
X015001Y002758D02*
X014896Y002758D01*
X014973Y002600D02*
X015001Y002600D01*
X012591Y003427D02*
X012591Y003427D01*
X012636Y005454D02*
X000361Y005454D01*
X000361Y005612D02*
X012665Y005612D01*
X012802Y005771D02*
X000361Y005771D01*
X000361Y005929D02*
X012959Y005929D01*
X012826Y006088D02*
X000361Y006088D01*
X000361Y006246D02*
X012799Y006246D01*
X013760Y006722D02*
X013821Y006722D01*
X014654Y005961D02*
X014654Y005961D01*
X015001Y009259D02*
X000361Y009259D01*
X000361Y009417D02*
X015001Y009417D01*
X007189Y007356D02*
X006701Y007356D01*
X006731Y007198D02*
X007040Y007198D01*
X007003Y007039D02*
X006667Y007039D01*
X006715Y006881D02*
X007003Y006881D01*
X007003Y006722D02*
X006730Y006722D01*
X006634Y006563D02*
X007100Y006563D01*
X002990Y007039D02*
X000361Y007039D01*
X000361Y007198D02*
X002664Y007198D01*
X002506Y007356D02*
X000361Y007356D01*
X000361Y007515D02*
X002397Y007515D01*
X002331Y007673D02*
X000361Y007673D01*
X000361Y007832D02*
X002285Y007832D01*
X002285Y007990D02*
X000361Y007990D01*
X000361Y008149D02*
X002285Y008149D01*
X002342Y008307D02*
X000361Y008307D01*
X000361Y008466D02*
X002407Y008466D01*
X002531Y008625D02*
X000361Y008625D01*
X000361Y008783D02*
X002690Y008783D01*
M02*
