G75*
G70*
%OFA0B0*%
%FSLAX24Y24*%
%IPPOS*%
%LPD*%
%AMOC8*
5,1,8,0,0,1.08239X$1,22.5*
%
%ADD10C,0.1559*%
%ADD11C,0.0792*%
%ADD12O,0.0900X0.1650*%
%ADD13R,0.0512X0.0472*%
%ADD14R,0.0991X0.0841*%
%ADD15R,0.0260X0.0516*%
%ADD16R,0.0630X0.0472*%
%ADD17R,0.0472X0.0512*%
%ADD18R,0.1884X0.1884*%
%ADD19R,0.0709X0.0906*%
%ADD20R,0.0552X0.0722*%
%ADD21R,0.0060X0.0720*%
%ADD22R,0.0472X0.0630*%
%ADD23O,0.0720X0.1320*%
%ADD24R,0.0614X0.0693*%
%ADD25R,0.0874X0.2311*%
%ADD26OC8,0.1200*%
%ADD27C,0.1200*%
%ADD28C,0.1063*%
%ADD29R,0.0283X0.0913*%
%ADD30R,0.0444X0.0326*%
%ADD31OC8,0.0912*%
%ADD32OC8,0.0480*%
%ADD33OC8,0.0918*%
%ADD34OC8,0.0921*%
D10*
X003324Y006840D03*
X030824Y006840D03*
D11*
X030474Y008740D03*
X031624Y010390D03*
X030474Y012740D03*
X030474Y013390D03*
X031624Y014390D03*
X031624Y015190D03*
X030474Y017390D03*
X031624Y019190D03*
X023224Y018890D03*
X022124Y017140D03*
X023224Y014890D03*
X023224Y014090D03*
X022124Y013140D03*
X022124Y012340D03*
X023224Y010090D03*
X022124Y008340D03*
X011274Y016490D03*
X011274Y020490D03*
D12*
X011524Y006990D03*
X013024Y006990D03*
X016324Y006990D03*
X017824Y006990D03*
X021124Y006990D03*
X022624Y006990D03*
X025924Y006990D03*
X027424Y006990D03*
X008174Y006990D03*
X006674Y006990D03*
D13*
X003374Y010605D03*
X003374Y011274D03*
X004190Y010740D03*
X004859Y010740D03*
X004740Y011640D03*
X005409Y011640D03*
X006190Y011940D03*
X006859Y011940D03*
X002724Y014255D03*
X002724Y014924D03*
X012540Y009790D03*
X013209Y009790D03*
X013409Y010690D03*
X012740Y010690D03*
X015674Y008824D03*
X015674Y008155D03*
X014274Y019805D03*
X014274Y020474D03*
D14*
X014874Y007989D03*
X014874Y006387D03*
X009574Y006487D03*
X009574Y008089D03*
D15*
X008648Y010078D03*
X008274Y010077D03*
X007900Y010078D03*
X007900Y011102D03*
X008274Y011102D03*
X008648Y011102D03*
D16*
X006891Y009864D03*
X007758Y009490D03*
X006891Y009116D03*
X012141Y012416D03*
X012141Y013164D03*
X013008Y012790D03*
X006858Y013666D03*
X006858Y014414D03*
X005991Y014040D03*
D17*
X006740Y013090D03*
X007409Y013090D03*
X004609Y013140D03*
X004609Y013690D03*
X003940Y013690D03*
X003409Y013690D03*
X002740Y013690D03*
X002740Y013090D03*
X003409Y013090D03*
X003940Y013140D03*
X003309Y011790D03*
X002640Y011790D03*
X002524Y010974D03*
X002524Y010305D03*
X002840Y009540D03*
X002840Y008990D03*
X003509Y008990D03*
X003509Y009540D03*
X004190Y010140D03*
X004859Y010140D03*
X006274Y009224D03*
X006274Y008555D03*
X007890Y008940D03*
X008559Y008940D03*
X011240Y010690D03*
X011909Y010690D03*
X012040Y011490D03*
X012709Y011490D03*
X014774Y011455D03*
X014774Y012124D03*
X017624Y009724D03*
X018224Y009724D03*
X018874Y009724D03*
X019474Y009724D03*
X019474Y009055D03*
X018874Y009055D03*
X018224Y009055D03*
X017624Y009055D03*
X025174Y009124D03*
X025774Y009124D03*
X026374Y009124D03*
X026974Y009124D03*
X026974Y008455D03*
X026374Y008455D03*
X025774Y008455D03*
X025174Y008455D03*
X014274Y018605D03*
X014274Y019274D03*
X003459Y016790D03*
X002790Y016790D03*
X002859Y020040D03*
X002190Y020040D03*
D18*
X004774Y021690D03*
X009974Y021990D03*
X009974Y017090D03*
X004674Y017090D03*
X015974Y016390D03*
X020874Y016390D03*
X024124Y016440D03*
X029024Y016440D03*
X024424Y011240D03*
X020874Y011090D03*
X016274Y011190D03*
X029024Y011140D03*
D19*
X007815Y023140D03*
X006634Y023140D03*
D20*
X003974Y014390D03*
X003374Y014390D03*
D21*
X003674Y014390D03*
D22*
X008250Y012873D03*
X008998Y012873D03*
X008624Y012007D03*
X013300Y011457D03*
X014048Y011457D03*
X013674Y012323D03*
D23*
X004174Y018940D03*
X003174Y018940D03*
D24*
X008040Y013590D03*
X008709Y013590D03*
D25*
X007771Y015090D03*
X009778Y015090D03*
X018721Y018640D03*
X020728Y018640D03*
X026921Y018640D03*
X028928Y018640D03*
D26*
X031624Y022440D03*
X021174Y022440D03*
D27*
X021174Y020440D03*
X031624Y020440D03*
D28*
X014943Y013661D03*
X012974Y014646D03*
X011006Y013661D03*
X011006Y009646D03*
X014943Y009646D03*
D29*
X013774Y018516D03*
X013274Y018516D03*
X012774Y018516D03*
X012274Y018516D03*
X012274Y020563D03*
X012774Y020563D03*
X013274Y020563D03*
X013774Y020563D03*
X003624Y020916D03*
X003124Y020916D03*
X002624Y020916D03*
X002124Y020916D03*
X002124Y022963D03*
X002624Y022963D03*
X003124Y022963D03*
X003624Y022963D03*
D30*
X006017Y011464D03*
X006017Y011090D03*
X006017Y010716D03*
X007036Y010716D03*
X007036Y011464D03*
D31*
X005624Y007990D03*
X010624Y007990D03*
X013424Y008290D03*
X018424Y008290D03*
D32*
X016924Y009890D03*
X015674Y008840D03*
X013424Y009240D03*
X012324Y010690D03*
X010674Y010340D03*
X008924Y010590D03*
X008924Y011090D03*
X007624Y010590D03*
X008724Y009540D03*
X008774Y008390D03*
X005424Y010440D03*
X004124Y009740D03*
X003324Y009990D03*
X002074Y009740D03*
X002024Y009240D03*
X002024Y008240D03*
X002024Y010440D03*
X004174Y011440D03*
X005874Y012840D03*
X006574Y012540D03*
X007124Y011940D03*
X008274Y012940D03*
X008674Y013690D03*
X008924Y014440D03*
X010874Y015190D03*
X010624Y015790D03*
X012124Y015740D03*
X013574Y013390D03*
X014724Y012740D03*
X012824Y012090D03*
X010674Y012440D03*
X010024Y012290D03*
X006324Y014990D03*
X004724Y015590D03*
X004674Y017090D03*
X006474Y019140D03*
X007074Y019740D03*
X008774Y019190D03*
X008174Y017890D03*
X008224Y015890D03*
X012624Y019540D03*
X014274Y020490D03*
X013774Y021340D03*
X015074Y019490D03*
X016374Y017840D03*
X017824Y018840D03*
X019524Y016640D03*
X017674Y015290D03*
X021474Y012740D03*
X019324Y011290D03*
X018724Y010340D03*
X013874Y007040D03*
X004774Y008890D03*
X010074Y020440D03*
X006724Y021890D03*
X004024Y020590D03*
X002624Y021840D03*
X024674Y017940D03*
X025874Y018840D03*
X027724Y016690D03*
X025974Y015240D03*
X029824Y012990D03*
X030774Y014390D03*
X027324Y011190D03*
X026074Y009740D03*
D33*
X002774Y015890D03*
D34*
X016824Y010690D03*
X018524Y011140D03*
X020424Y011590D03*
X020624Y012740D03*
X024924Y010740D03*
X026374Y010740D03*
X028524Y011640D03*
X028924Y012890D03*
X029474Y017940D03*
X029474Y018640D03*
X021174Y018640D03*
X021174Y017940D03*
M02*
