G75*
G70*
%OFA0B0*%
%FSLAX24Y24*%
%IPPOS*%
%LPD*%
%AMOC8*
5,1,8,0,0,1.08239X$1,22.5*
%
%ADD10C,0.0080*%
%ADD11C,0.0100*%
D10*
X007584Y006360D02*
X007724Y006360D01*
X007654Y006360D02*
X007654Y006780D01*
X007584Y006780D02*
X007724Y006780D01*
X007891Y006710D02*
X007961Y006780D01*
X008101Y006780D01*
X008171Y006710D01*
X008171Y006640D01*
X007891Y006360D01*
X008171Y006360D01*
X008351Y006430D02*
X008421Y006360D01*
X008561Y006360D01*
X008631Y006430D01*
X008351Y006430D02*
X008351Y006710D01*
X008421Y006780D01*
X008561Y006780D01*
X008631Y006710D01*
X016584Y006780D02*
X016724Y006780D01*
X016654Y006780D02*
X016654Y006360D01*
X016584Y006360D02*
X016724Y006360D01*
X016891Y006430D02*
X016961Y006360D01*
X017101Y006360D01*
X017171Y006430D01*
X017171Y006710D01*
X017101Y006780D01*
X016961Y006780D01*
X016891Y006710D01*
X016891Y006430D01*
X017351Y006430D02*
X017631Y006710D01*
X017631Y006430D01*
X017561Y006360D01*
X017421Y006360D01*
X017351Y006430D01*
X017351Y006710D01*
X017421Y006780D01*
X017561Y006780D01*
X017631Y006710D01*
X024084Y006780D02*
X024224Y006780D01*
X024154Y006780D02*
X024154Y006360D01*
X024084Y006360D02*
X024224Y006360D01*
X024391Y006430D02*
X024461Y006360D01*
X024601Y006360D01*
X024671Y006430D01*
X024671Y006710D01*
X024601Y006780D01*
X024461Y006780D01*
X024391Y006710D01*
X024391Y006430D01*
X024851Y006360D02*
X025131Y006360D01*
X024991Y006360D02*
X024991Y006780D01*
X024851Y006640D01*
X022928Y012860D02*
X022648Y012860D01*
X022788Y012860D02*
X022788Y013280D01*
X022648Y013140D01*
X022468Y012860D02*
X022187Y012860D01*
X022327Y012860D02*
X022327Y013280D01*
X022187Y013140D01*
X022007Y013210D02*
X021727Y012930D01*
X021797Y012860D01*
X021937Y012860D01*
X022007Y012930D01*
X022007Y013210D01*
X021937Y013280D01*
X021797Y013280D01*
X021727Y013210D01*
X021727Y012930D01*
X021547Y012860D02*
X021267Y012860D01*
X021547Y013140D01*
X021547Y013210D01*
X021477Y013280D01*
X021337Y013280D01*
X021267Y013210D01*
X021023Y013610D02*
X020883Y013610D01*
X020953Y013610D02*
X020953Y014030D01*
X020883Y014030D01*
X020703Y013820D02*
X020703Y013610D01*
X020493Y013610D01*
X020423Y013680D01*
X020493Y013750D01*
X020703Y013750D01*
X020703Y013820D02*
X020633Y013890D01*
X020493Y013890D01*
X020186Y013890D02*
X020186Y013610D01*
X020116Y013610D02*
X020256Y013610D01*
X020186Y013890D02*
X020116Y013890D01*
X020186Y014030D02*
X020186Y014100D01*
X019942Y013890D02*
X019872Y013890D01*
X019732Y013750D01*
X019732Y013610D02*
X019732Y013890D01*
X019552Y013820D02*
X019552Y013750D01*
X019272Y013750D01*
X019272Y013820D02*
X019342Y013890D01*
X019482Y013890D01*
X019552Y013820D01*
X019482Y013610D02*
X019342Y013610D01*
X019272Y013680D01*
X019272Y013820D01*
X019092Y013890D02*
X018881Y013890D01*
X018811Y013820D01*
X018881Y013750D01*
X019022Y013750D01*
X019092Y013680D01*
X019022Y013610D01*
X018811Y013610D01*
X018631Y013820D02*
X018351Y013820D01*
X018171Y013820D02*
X018101Y013890D01*
X017961Y013890D01*
X017891Y013820D01*
X017891Y013680D01*
X017961Y013610D01*
X018101Y013610D01*
X018171Y013680D01*
X018171Y013820D01*
X017724Y013610D02*
X017584Y013610D01*
X017654Y013610D02*
X017654Y013890D01*
X017584Y013890D01*
X017654Y014030D02*
X017654Y014100D01*
X017724Y013280D02*
X017864Y013140D01*
X017864Y012860D01*
X018044Y012860D02*
X018044Y013280D01*
X018254Y013280D01*
X018324Y013210D01*
X018324Y013070D01*
X018254Y013000D01*
X018044Y013000D01*
X017864Y013070D02*
X017584Y013070D01*
X017584Y013140D02*
X017724Y013280D01*
X017584Y013140D02*
X017584Y012860D01*
X018504Y012860D02*
X018715Y012860D01*
X018785Y012930D01*
X018785Y013000D01*
X018715Y013070D01*
X018504Y013070D01*
X018504Y012860D02*
X018504Y013280D01*
X018715Y013280D01*
X018785Y013210D01*
X018785Y013140D01*
X018715Y013070D01*
X018965Y013280D02*
X019245Y013280D01*
X019105Y013280D02*
X019105Y012860D01*
X019425Y012930D02*
X019425Y013070D01*
X019495Y013140D01*
X019635Y013140D01*
X019705Y013070D01*
X019705Y013000D01*
X019425Y013000D01*
X019425Y012930D02*
X019495Y012860D01*
X019635Y012860D01*
X019886Y012930D02*
X019956Y013000D01*
X020166Y013000D01*
X020166Y013070D02*
X020166Y012860D01*
X019956Y012860D01*
X019886Y012930D01*
X019956Y013140D02*
X020096Y013140D01*
X020166Y013070D01*
X020346Y013140D02*
X020346Y012860D01*
X020486Y012860D02*
X020486Y013070D01*
X020556Y013140D01*
X020626Y013070D01*
X020626Y012860D01*
X020486Y013070D02*
X020416Y013140D01*
X020346Y013140D01*
X024584Y016360D02*
X024584Y016780D01*
X024794Y016780D01*
X024864Y016710D01*
X024864Y016570D01*
X024794Y016500D01*
X024584Y016500D01*
X024724Y016500D02*
X024864Y016360D01*
X025044Y016430D02*
X025114Y016360D01*
X025254Y016360D01*
X025324Y016430D01*
X025324Y016500D01*
X025254Y016570D01*
X025114Y016570D01*
X025044Y016640D01*
X025044Y016710D01*
X025114Y016780D01*
X025254Y016780D01*
X025324Y016710D01*
X025504Y016710D02*
X025575Y016780D01*
X025715Y016780D01*
X025785Y016710D01*
X025785Y016640D01*
X025504Y016360D01*
X025785Y016360D01*
X025965Y016430D02*
X026035Y016360D01*
X026175Y016360D01*
X026245Y016430D01*
X026245Y016500D01*
X026175Y016570D01*
X026105Y016570D01*
X026175Y016570D02*
X026245Y016640D01*
X026245Y016710D01*
X026175Y016780D01*
X026035Y016780D01*
X025965Y016710D01*
X026425Y016710D02*
X026495Y016780D01*
X026635Y016780D01*
X026705Y016710D01*
X026705Y016640D01*
X026425Y016360D01*
X026705Y016360D01*
X025785Y017360D02*
X025504Y017360D01*
X025504Y017780D01*
X025324Y017780D02*
X025044Y017780D01*
X025184Y017780D02*
X025184Y017360D01*
X024724Y017360D02*
X024724Y017780D01*
X024584Y017780D02*
X024864Y017780D01*
X019754Y018430D02*
X019684Y018360D01*
X019754Y018430D02*
X019754Y018570D01*
X019684Y018640D01*
X019614Y018640D01*
X019544Y018570D01*
X019544Y018430D01*
X019474Y018360D01*
X019404Y018360D01*
X019333Y018430D01*
X019333Y018570D01*
X019404Y018640D01*
X019333Y018820D02*
X019754Y018820D01*
X019754Y019100D01*
X019754Y019281D02*
X019333Y019281D01*
X019333Y019491D01*
X019404Y019561D01*
X019544Y019561D01*
X019614Y019491D01*
X019614Y019281D01*
X019614Y019421D02*
X019754Y019561D01*
X019754Y019741D02*
X019754Y019881D01*
X019754Y019811D02*
X019333Y019811D01*
X019333Y019741D02*
X019333Y019881D01*
X019474Y020048D02*
X019333Y020188D01*
X019474Y020328D01*
X019754Y020328D01*
X019754Y020508D02*
X019333Y020508D01*
X019544Y020328D02*
X019544Y020048D01*
X019474Y020048D02*
X019754Y020048D01*
X019754Y020508D02*
X019754Y020788D01*
X019754Y020969D02*
X019754Y021249D01*
X019754Y021109D02*
X019333Y021109D01*
X019474Y020969D01*
X019333Y019100D02*
X019333Y018820D01*
X019544Y018820D02*
X019544Y018960D01*
X014754Y018820D02*
X014754Y019100D01*
X014754Y019281D02*
X014333Y019281D01*
X014333Y019491D01*
X014404Y019561D01*
X014544Y019561D01*
X014614Y019491D01*
X014614Y019281D01*
X014614Y019421D02*
X014754Y019561D01*
X014754Y019741D02*
X014754Y019881D01*
X014754Y019811D02*
X014333Y019811D01*
X014333Y019741D02*
X014333Y019881D01*
X014474Y020048D02*
X014333Y020188D01*
X014474Y020328D01*
X014754Y020328D01*
X014754Y020508D02*
X014754Y020788D01*
X014684Y020969D02*
X014404Y021249D01*
X014684Y021249D01*
X014754Y021179D01*
X014754Y021039D01*
X014684Y020969D01*
X014404Y020969D01*
X014333Y021039D01*
X014333Y021179D01*
X014404Y021249D01*
X014333Y020508D02*
X014754Y020508D01*
X014544Y020328D02*
X014544Y020048D01*
X014474Y020048D02*
X014754Y020048D01*
X014333Y019100D02*
X014333Y018820D01*
X014754Y018820D01*
X014684Y018640D02*
X014754Y018570D01*
X014754Y018430D01*
X014684Y018360D01*
X014544Y018430D02*
X014544Y018570D01*
X014614Y018640D01*
X014684Y018640D01*
X014544Y018820D02*
X014544Y018960D01*
X014404Y018640D02*
X014333Y018570D01*
X014333Y018430D01*
X014404Y018360D01*
X014474Y018360D01*
X014544Y018430D01*
X012891Y017710D02*
X012891Y017430D01*
X012821Y017360D01*
X012681Y017360D01*
X012611Y017430D01*
X012891Y017710D01*
X012821Y017780D01*
X012681Y017780D01*
X012611Y017710D01*
X012611Y017430D01*
X012437Y017640D02*
X012367Y017640D01*
X012227Y017500D01*
X012227Y017360D02*
X012227Y017640D01*
X012047Y017570D02*
X012047Y017500D01*
X011767Y017500D01*
X011767Y017570D02*
X011837Y017640D01*
X011977Y017640D01*
X012047Y017570D01*
X011977Y017360D02*
X011837Y017360D01*
X011767Y017430D01*
X011767Y017570D01*
X011586Y017640D02*
X011376Y017640D01*
X011306Y017570D01*
X011376Y017500D01*
X011516Y017500D01*
X011586Y017430D01*
X011516Y017360D01*
X011306Y017360D01*
X011267Y017030D02*
X011267Y016750D01*
X011407Y016610D01*
X011547Y016750D01*
X011547Y017030D01*
X011727Y017030D02*
X011937Y017030D01*
X012007Y016960D01*
X012007Y016820D01*
X011937Y016750D01*
X011727Y016750D01*
X011867Y016750D02*
X012007Y016610D01*
X011727Y016610D02*
X011727Y017030D01*
X011086Y016890D02*
X011086Y016610D01*
X011086Y016820D02*
X010806Y016820D01*
X010806Y016890D02*
X010946Y017030D01*
X011086Y016890D01*
X010806Y016890D02*
X010806Y016610D01*
X010166Y016820D02*
X009886Y016610D01*
X009705Y016820D02*
X009425Y016820D01*
X009886Y017030D02*
X010166Y016820D01*
X010386Y017360D02*
X010666Y017570D01*
X010386Y017780D01*
X010205Y017570D02*
X009925Y017570D01*
X009285Y017500D02*
X009285Y017780D01*
X009285Y017500D02*
X009145Y017360D01*
X009004Y017500D01*
X009004Y017780D01*
X008824Y017780D02*
X008544Y017780D01*
X008544Y017360D01*
X008824Y017360D01*
X008684Y017570D02*
X008544Y017570D01*
X008364Y017710D02*
X008294Y017780D01*
X008084Y017780D01*
X008084Y017360D01*
X008294Y017360D01*
X008364Y017430D01*
X008364Y017710D01*
X008324Y017030D02*
X008044Y017030D01*
X008044Y016610D01*
X008324Y016610D01*
X008504Y016750D02*
X008645Y016610D01*
X008785Y016750D01*
X008785Y017030D01*
X008504Y017030D02*
X008504Y016750D01*
X008184Y016820D02*
X008044Y016820D01*
X007864Y016680D02*
X007864Y016960D01*
X007794Y017030D01*
X007584Y017030D01*
X007584Y016610D01*
X007794Y016610D01*
X007864Y016680D01*
X006285Y014780D02*
X006285Y014500D01*
X006145Y014360D01*
X006004Y014500D01*
X006004Y014780D01*
X005824Y014780D02*
X005544Y014780D01*
X005544Y014360D01*
X005824Y014360D01*
X005684Y014570D02*
X005544Y014570D01*
X005364Y014430D02*
X005294Y014360D01*
X005084Y014360D01*
X005084Y014780D01*
X005294Y014780D01*
X005364Y014710D01*
X005364Y014430D01*
X005904Y019610D02*
X005834Y019680D01*
X005904Y019610D02*
X006044Y019610D01*
X006114Y019680D01*
X006114Y019820D01*
X006044Y019890D01*
X005974Y019890D01*
X005834Y019820D01*
X005834Y020030D01*
X006114Y020030D01*
X006294Y020030D02*
X006294Y019750D01*
X006434Y019610D01*
X006574Y019750D01*
X006574Y020030D01*
X006114Y022570D02*
X005834Y022570D01*
D11*
X007371Y017797D02*
X007017Y017443D01*
X007217Y017243D02*
X007571Y017597D01*
X006767Y017097D02*
X007121Y016743D01*
X006921Y016543D02*
X006567Y016897D01*
X024044Y016820D02*
X024044Y016320D01*
X024044Y017320D02*
X024044Y017820D01*
M02*
