%
M48
M72
T01C0.0200
T02C0.0320
T03C0.0360
T04C0.0394
T05C0.0400
T06C0.0500
T07C0.1299
%
T01
X9244Y4320
X10344Y4420
X11294Y5320
X12294Y4570
X12794Y6820
X13294Y7920
X14444Y7870
X14594Y8520
X13644Y9820
X13944Y10220
X13944Y10870
X13544Y11720
X13044Y11720
X12094Y10870
X10644Y10920
X10644Y10320
X11794Y9170
X12344Y9170
X14594Y7170
X18794Y9320
X16544Y10570
X13544Y12470
X12644Y12470
X12094Y12470
X11294Y12370
X14794Y13320
X15144Y14720
X17044Y15320
X16344Y16220
X17044Y16820
X16544Y17820
X15144Y17420
X14544Y16320
X12244Y16470
X12244Y16970
X10794Y17820
X11894Y18670
X12394Y18670
X12894Y18670
X12894Y18170
X13244Y19820
X12344Y19820
X11994Y20220
X11294Y20220
X12694Y21970
X14694Y21670
X15094Y22020
X16544Y22120
X17294Y21820
X14694Y19920
X14094Y20020
X13694Y20470
X9794Y22370
X9044Y20570
X6544Y15520
X5894Y15370
X7394Y12520
X7044Y10820
X8444Y9870
X8644Y8770
X8844Y8070
X9044Y7370
X8494Y7070
X7544Y8820
X16794Y13320
X19294Y15070
X19594Y15870
X20894Y17070
X22094Y16020
X22544Y14820
X24794Y11820
X22544Y7570
X22994Y5120
X23594Y5020
X18044Y17820
X22294Y21820
X21544Y22120
X29294Y21570
T02
X7294Y4570
X8294Y4570
X8794Y5570
X7794Y5570
X17044Y4570
X18044Y4570
X19044Y4570
X20044Y4570
X21044Y4570
X21544Y5570
X20544Y5570
X19544Y5570
X18544Y5570
X17544Y5570
X24544Y4570
X25544Y4570
X26544Y4570
X27544Y4570
X28544Y4570
X29044Y5570
X28044Y5570
X27044Y5570
X26044Y5570
X25044Y5570
X12994Y15070
X11094Y15070
T03
X6044Y13820
X5044Y13820
X5044Y12820
X6044Y12820
X6044Y11820
X5044Y11820
X5044Y10820
X6044Y10820
X6044Y9820
X5044Y9820
T04
X15544Y18820
X16544Y18820
X17544Y18820
X18544Y18820
X20544Y18820
X21544Y18820
X22544Y18820
X23544Y18820
T05
X8501Y14820
X7794Y15527
X7087Y14820
X7794Y14113
T06
X5044Y20320
X5044Y21820
T07
X4794Y5570
X32294Y5570
X32294Y17070
X32294Y21070
M30
