G75*
G70*
%OFA0B0*%
%FSLAX24Y24*%
%IPPOS*%
%LPD*%
%AMOC8*
5,1,8,0,0,1.08239X$1,22.5*
%
%ADD10OC8,0.0680*%
%ADD11C,0.0640*%
%ADD12R,0.0474X0.0513*%
%ADD13R,0.0513X0.0474*%
%ADD14C,0.0144*%
%ADD15C,0.0830*%
%ADD16C,0.0714*%
%ADD17C,0.1379*%
D10*
X005044Y009820D03*
X006044Y009820D03*
X006044Y010820D03*
X005044Y010820D03*
X005044Y011820D03*
X006044Y011820D03*
X006044Y012820D03*
X005044Y012820D03*
X005044Y013820D03*
X006044Y013820D03*
D11*
X007294Y004570D03*
X008294Y004570D03*
X008794Y005570D03*
X007794Y005570D03*
X017044Y004570D03*
X018044Y004570D03*
X019044Y004570D03*
X020044Y004570D03*
X021044Y004570D03*
X021544Y005570D03*
X020544Y005570D03*
X019544Y005570D03*
X018544Y005570D03*
X017544Y005570D03*
X024544Y004570D03*
X025544Y004570D03*
X026544Y004570D03*
X027544Y004570D03*
X028544Y004570D03*
X029044Y005570D03*
X028044Y005570D03*
X027044Y005570D03*
X026044Y005570D03*
X025044Y005570D03*
X012994Y015070D03*
X011094Y015070D03*
D12*
X010294Y015404D03*
X010294Y014735D03*
X013794Y014735D03*
X013794Y015404D03*
X014544Y010904D03*
X014544Y010235D03*
X010044Y010235D03*
X010044Y010904D03*
X007044Y005904D03*
X007044Y005235D03*
X012794Y020235D03*
X012794Y020904D03*
D13*
X012878Y019320D03*
X012209Y019320D03*
X011378Y019320D03*
X010709Y019320D03*
X011959Y013070D03*
X012628Y013070D03*
X012378Y008570D03*
X011709Y008570D03*
X009628Y004820D03*
X008959Y004820D03*
D14*
X008009Y014160D02*
X008081Y014232D01*
X008081Y013994D01*
X007913Y013826D01*
X007675Y013826D01*
X007507Y013994D01*
X007507Y014232D01*
X007675Y014400D01*
X007913Y014400D01*
X008081Y014232D01*
X007973Y014187D01*
X007973Y014039D01*
X007868Y013934D01*
X007720Y013934D01*
X007615Y014039D01*
X007615Y014187D01*
X007720Y014292D01*
X007868Y014292D01*
X007973Y014187D01*
X007865Y014143D01*
X007865Y014083D01*
X007824Y014042D01*
X007764Y014042D01*
X007723Y014083D01*
X007723Y014143D01*
X007764Y014184D01*
X007824Y014184D01*
X007865Y014143D01*
X008716Y014867D02*
X008788Y014939D01*
X008788Y014701D01*
X008620Y014533D01*
X008382Y014533D01*
X008214Y014701D01*
X008214Y014939D01*
X008382Y015107D01*
X008620Y015107D01*
X008788Y014939D01*
X008680Y014894D01*
X008680Y014746D01*
X008575Y014641D01*
X008427Y014641D01*
X008322Y014746D01*
X008322Y014894D01*
X008427Y014999D01*
X008575Y014999D01*
X008680Y014894D01*
X008572Y014850D01*
X008572Y014790D01*
X008531Y014749D01*
X008471Y014749D01*
X008430Y014790D01*
X008430Y014850D01*
X008471Y014891D01*
X008531Y014891D01*
X008572Y014850D01*
X008009Y015574D02*
X008081Y015646D01*
X008081Y015408D01*
X007913Y015240D01*
X007675Y015240D01*
X007507Y015408D01*
X007507Y015646D01*
X007675Y015814D01*
X007913Y015814D01*
X008081Y015646D01*
X007973Y015601D01*
X007973Y015453D01*
X007868Y015348D01*
X007720Y015348D01*
X007615Y015453D01*
X007615Y015601D01*
X007720Y015706D01*
X007868Y015706D01*
X007973Y015601D01*
X007865Y015557D01*
X007865Y015497D01*
X007824Y015456D01*
X007764Y015456D01*
X007723Y015497D01*
X007723Y015557D01*
X007764Y015598D01*
X007824Y015598D01*
X007865Y015557D01*
X007302Y014867D02*
X007374Y014939D01*
X007374Y014701D01*
X007206Y014533D01*
X006968Y014533D01*
X006800Y014701D01*
X006800Y014939D01*
X006968Y015107D01*
X007206Y015107D01*
X007374Y014939D01*
X007266Y014894D01*
X007266Y014746D01*
X007161Y014641D01*
X007013Y014641D01*
X006908Y014746D01*
X006908Y014894D01*
X007013Y014999D01*
X007161Y014999D01*
X007266Y014894D01*
X007158Y014850D01*
X007158Y014790D01*
X007117Y014749D01*
X007057Y014749D01*
X007016Y014790D01*
X007016Y014850D01*
X007057Y014891D01*
X007117Y014891D01*
X007158Y014850D01*
D15*
X005419Y020320D02*
X004669Y020320D01*
X004669Y021820D02*
X005419Y021820D01*
D16*
X015544Y019137D02*
X015544Y018503D01*
X016544Y018503D02*
X016544Y019137D01*
X017544Y019137D02*
X017544Y018503D01*
X018544Y018503D02*
X018544Y019137D01*
X020544Y019137D02*
X020544Y018503D01*
X021544Y018503D02*
X021544Y019137D01*
X022544Y019137D02*
X022544Y018503D01*
X023544Y018503D02*
X023544Y019137D01*
D17*
X032294Y021070D03*
X032294Y017070D03*
X032294Y005570D03*
X004794Y005570D03*
M02*
