G75*
G70*
%OFA0B0*%
%FSLAX24Y24*%
%IPPOS*%
%LPD*%
%AMOC8*
5,1,8,0,0,1.08239X$1,22.5*
%
%ADD10C,0.0500*%
%ADD11C,0.0700*%
%ADD12R,0.0661X0.1606*%
%ADD13OC8,0.0624*%
%ADD14R,0.0836X0.0756*%
%ADD15R,0.0283X0.0913*%
%ADD16R,0.1402X0.0850*%
%ADD17R,0.0913X0.0283*%
%ADD18R,0.0850X0.1402*%
%ADD19R,0.0408X0.0468*%
%ADD20R,0.0468X0.0408*%
%ADD21R,0.0274X0.0227*%
%ADD22R,0.0307X0.0189*%
%ADD23C,0.0624*%
%ADD24R,0.0512X0.0472*%
%ADD25R,0.0630X0.0472*%
%ADD26R,0.0472X0.0512*%
%ADD27R,0.0874X0.2311*%
%ADD28O,0.0624X0.1144*%
%ADD29OC8,0.0672*%
%ADD30C,0.0082*%
%ADD31C,0.2700*%
%ADD32O,0.0990X0.1815*%
%ADD33R,0.0709X0.1528*%
%ADD34OC8,0.0720*%
%ADD35OC8,0.0480*%
%ADD36OC8,0.0600*%
D10*
X006998Y002956D02*
X006998Y003656D01*
X007348Y003306D01*
X008998Y003306D01*
X009048Y003256D01*
X008848Y003406D02*
X008548Y003106D01*
X008848Y003406D02*
X011498Y003406D01*
X011298Y003206D01*
X011298Y003106D01*
X012198Y004006D01*
X012198Y004456D01*
X012048Y004306D01*
X012048Y003706D01*
X011298Y002956D01*
X009998Y002956D01*
X010448Y003406D01*
X010448Y003506D01*
X009898Y002956D01*
X007698Y002956D01*
X007348Y003306D01*
X006998Y003656D02*
X006998Y003706D01*
X008148Y004206D02*
X008198Y004206D01*
X008498Y004506D01*
X009048Y004506D01*
X009298Y004756D01*
X006948Y005456D02*
X006548Y005856D01*
X006548Y006106D01*
X009198Y006956D02*
X009248Y007006D01*
X009248Y009306D01*
X009298Y009356D01*
X009748Y009356D01*
X009798Y009356D02*
X009798Y007156D01*
X009948Y007006D01*
X011248Y007056D02*
X012148Y006156D01*
X011248Y007056D02*
X011248Y007456D01*
X008098Y008256D02*
X008048Y008306D01*
X007298Y008306D01*
X006998Y008606D01*
X006998Y008656D01*
X006998Y008706D01*
X006998Y008656D02*
X006848Y008806D01*
X006098Y008806D01*
X006248Y011356D02*
X006298Y011406D01*
X010648Y011406D01*
X011248Y012006D01*
X013848Y012006D01*
X014698Y011156D01*
X014698Y010606D01*
X015598Y009706D01*
X015598Y009106D01*
X017198Y007506D01*
X017198Y006306D01*
X017098Y006156D02*
X017498Y006156D01*
X017548Y006206D01*
X017748Y006156D02*
X017998Y006406D01*
X017998Y007106D01*
X018248Y007356D01*
X018248Y007456D01*
X018398Y007606D01*
X018398Y005206D01*
X018048Y004856D01*
X018048Y005206D01*
X017098Y006156D01*
X017748Y006156D02*
X017748Y005056D01*
X017848Y005006D02*
X018248Y005406D01*
X018248Y007356D01*
X018248Y007756D01*
X018398Y007906D01*
X018398Y009506D01*
X019998Y011106D01*
X025198Y011106D01*
X025398Y010906D01*
X027098Y010906D01*
X026548Y008806D02*
X026498Y008756D01*
X026048Y008756D01*
X025848Y008556D01*
X025848Y005206D01*
X027498Y005506D02*
X027848Y005856D01*
X027848Y006906D01*
X024048Y004756D02*
X023548Y004756D01*
X023048Y004256D01*
X022898Y004256D01*
X022598Y003956D01*
X022648Y003956D01*
X023198Y003206D02*
X023098Y003106D01*
X022198Y003106D01*
X022148Y003056D01*
X019148Y003056D01*
X019098Y003106D01*
X018448Y002856D02*
X027448Y002856D01*
X027598Y003006D01*
X027598Y003106D01*
X027498Y003206D01*
X023198Y003206D01*
X026798Y002706D02*
X017798Y002706D01*
X017548Y002756D02*
X017548Y002806D01*
X017148Y003206D01*
X016698Y003206D01*
X016898Y003406D01*
X016848Y003406D01*
X016498Y003756D01*
X016498Y004156D01*
X016448Y004206D01*
X016498Y004206D01*
X017348Y003356D01*
X016698Y003206D02*
X016498Y003206D01*
X016298Y003206D02*
X015998Y003206D01*
X015498Y003706D01*
X015848Y003706D01*
X015898Y003756D01*
X015698Y003756D01*
X015448Y003506D01*
X014848Y003156D02*
X016248Y003156D01*
X016298Y003206D01*
X016248Y003006D02*
X016498Y002756D01*
X016098Y002756D01*
X016048Y002806D01*
X017498Y002806D01*
X017548Y002756D01*
X017448Y002956D02*
X018198Y002956D01*
X019398Y004156D01*
X019398Y003806D01*
X018448Y002856D01*
X016698Y002956D02*
X011398Y002956D01*
X011548Y003156D02*
X014748Y003156D01*
X016298Y004706D01*
X015748Y004706D01*
X014498Y003456D01*
X012098Y003456D01*
X011948Y003306D01*
X015598Y005306D02*
X015598Y006056D01*
X015548Y006156D02*
X015948Y005756D01*
X015948Y004956D01*
X015598Y005306D01*
X015948Y004956D02*
X015998Y004906D01*
X016248Y004706D02*
X016248Y003006D01*
X017848Y004856D02*
X017848Y005006D01*
X016248Y005156D02*
X016248Y006056D01*
X016098Y006206D01*
X015598Y006206D01*
X015548Y006156D01*
X015498Y006156D02*
X014948Y006156D01*
X015398Y005706D01*
X014948Y006156D02*
X014898Y006156D01*
X019848Y005706D02*
X020348Y005706D01*
X020348Y005256D01*
X020348Y005706D02*
X020648Y005706D01*
X020098Y007906D02*
X019898Y008106D01*
X020498Y008106D01*
X020498Y009006D01*
X020048Y009006D01*
X020098Y007906D02*
X022548Y007906D01*
D11*
X025548Y005856D02*
X025748Y006056D01*
X025748Y005606D01*
X025948Y005406D01*
X025948Y004656D01*
X025748Y004456D01*
X025548Y005206D02*
X025548Y005856D01*
X018998Y003306D02*
X017348Y003306D01*
X016498Y004156D01*
X015698Y005006D02*
X014548Y006156D01*
X014548Y006556D01*
X010998Y005406D02*
X010848Y005406D01*
X009598Y006656D01*
X008648Y004856D02*
X008298Y004506D01*
X008148Y004506D01*
D12*
X027748Y013925D03*
X031248Y013925D03*
X031248Y016288D03*
X031248Y018075D03*
X027748Y018075D03*
X027748Y016288D03*
X027748Y020438D03*
X031248Y020438D03*
D13*
X008098Y008256D03*
X008098Y004256D03*
X022548Y003906D03*
X022548Y007906D03*
D14*
X030498Y011247D03*
X030498Y012366D03*
X022198Y017697D03*
X021348Y017697D03*
X021348Y018816D03*
X022198Y018816D03*
X012298Y018966D03*
X011448Y018966D03*
X011448Y017847D03*
X012298Y017847D03*
D15*
X010598Y011380D03*
X010098Y011380D03*
X009598Y011380D03*
X009098Y011380D03*
X007598Y011330D03*
X007098Y011330D03*
X006598Y011330D03*
X006098Y011330D03*
X006098Y009283D03*
X006598Y009283D03*
X007098Y009283D03*
X007598Y009283D03*
X009098Y009333D03*
X009598Y009333D03*
X010098Y009333D03*
X010598Y009333D03*
X012298Y010130D03*
X012798Y010130D03*
X013298Y010130D03*
X013798Y010130D03*
X013798Y008083D03*
X013298Y008083D03*
X012798Y008083D03*
X012298Y008083D03*
X007598Y008180D03*
X007098Y008180D03*
X006598Y008180D03*
X006098Y008180D03*
X005048Y007433D03*
X004548Y007433D03*
X004048Y007433D03*
X003548Y007433D03*
X006098Y006133D03*
X006598Y006133D03*
X007098Y006133D03*
X007598Y006133D03*
X005048Y009480D03*
X004548Y009480D03*
X004048Y009480D03*
X003548Y009480D03*
X019898Y009033D03*
X020398Y009033D03*
X020898Y009033D03*
X021398Y009033D03*
X023248Y009180D03*
X023748Y009180D03*
X024248Y009180D03*
X024748Y009180D03*
X025748Y008783D03*
X026248Y008783D03*
X026748Y008783D03*
X027248Y008783D03*
X028898Y008780D03*
X029398Y008780D03*
X029898Y008780D03*
X030398Y008780D03*
X030398Y006733D03*
X029898Y006733D03*
X029398Y006733D03*
X028898Y006733D03*
X024748Y007133D03*
X024248Y007133D03*
X023748Y007133D03*
X023248Y007133D03*
X021448Y007780D03*
X020948Y007780D03*
X020448Y007780D03*
X019948Y007780D03*
X019948Y005733D03*
X020448Y005733D03*
X020948Y005733D03*
X021448Y005733D03*
X025748Y010830D03*
X026248Y010830D03*
X026748Y010830D03*
X027248Y010830D03*
X021398Y011080D03*
X020898Y011080D03*
X020398Y011080D03*
X019898Y011080D03*
D16*
X020548Y005009D03*
X020548Y002804D03*
X027598Y002854D03*
X027598Y005059D03*
X006948Y005109D03*
X006948Y002904D03*
D17*
X009224Y006706D03*
X009224Y007206D03*
X009224Y007706D03*
X009224Y008206D03*
X011272Y008206D03*
X011272Y007706D03*
X011272Y007206D03*
X011272Y006706D03*
X025824Y006556D03*
X025824Y006056D03*
X027872Y006056D03*
X027872Y006556D03*
X027872Y007056D03*
X027872Y007556D03*
X025824Y007556D03*
X025824Y007056D03*
D18*
X014250Y006306D03*
X012046Y006306D03*
D19*
X004423Y010306D03*
X003773Y010306D03*
X005273Y014256D03*
X005923Y014256D03*
X005923Y014756D03*
X005273Y014756D03*
X005323Y015756D03*
X005973Y015756D03*
X006873Y017006D03*
X007523Y017006D03*
X010123Y015706D03*
X010773Y015706D03*
X010773Y015106D03*
X010123Y015106D03*
X011923Y015106D03*
X012573Y015106D03*
X012573Y015706D03*
X011923Y015706D03*
X016073Y013906D03*
X016723Y013906D03*
X017173Y013856D03*
X017823Y013856D03*
X013123Y011106D03*
X012473Y011106D03*
X019873Y016706D03*
X020523Y016706D03*
X020523Y017256D03*
X019873Y017256D03*
X032023Y017256D03*
X032673Y017256D03*
X023923Y010256D03*
X023273Y010256D03*
X028923Y009756D03*
X029573Y009756D03*
X029373Y002706D03*
X028723Y002706D03*
D20*
X030548Y009732D03*
X030548Y010381D03*
X026498Y011582D03*
X026498Y012231D03*
X023848Y014582D03*
X023848Y015231D03*
X018848Y015032D03*
X018298Y015032D03*
X018298Y015681D03*
X018848Y015681D03*
X020298Y018332D03*
X020298Y018981D03*
X013148Y016331D03*
X013148Y015682D03*
X013148Y015131D03*
X013148Y014482D03*
X011348Y014482D03*
X011348Y015131D03*
X011348Y015682D03*
X011348Y016331D03*
X008298Y011231D03*
X008298Y010582D03*
X005148Y010332D03*
X005148Y010981D03*
X014648Y008781D03*
X014648Y008132D03*
D21*
X008542Y012481D03*
X008542Y013032D03*
X007754Y013032D03*
X007754Y012481D03*
X023304Y012632D03*
X024092Y012632D03*
X024092Y012081D03*
X023304Y012081D03*
D22*
X024111Y012356D03*
X008561Y012756D03*
D23*
X023248Y019706D03*
X024248Y019706D03*
X024748Y020706D03*
X023748Y020706D03*
X019048Y020106D03*
X017148Y020106D03*
D24*
X024398Y015241D03*
X024398Y014572D03*
D25*
X029065Y016832D03*
X029931Y017206D03*
X029065Y017580D03*
D26*
X015248Y015741D03*
X015248Y015072D03*
X014998Y018172D03*
X014998Y018841D03*
D27*
X023994Y017206D03*
X026002Y017206D03*
D28*
X025248Y015256D03*
X025248Y012256D03*
D29*
X014148Y019706D03*
X013148Y019706D03*
X012148Y019706D03*
X011148Y019706D03*
X010148Y019706D03*
X010148Y020706D03*
X011148Y020706D03*
X012148Y020706D03*
X013148Y020706D03*
X014148Y020706D03*
D30*
X010563Y012793D02*
X010793Y012563D01*
X010521Y012291D01*
X010291Y012521D01*
X010563Y012793D01*
X010602Y012372D02*
X010440Y012372D01*
X010359Y012453D02*
X010683Y012453D01*
X010764Y012534D02*
X010304Y012534D01*
X010385Y012615D02*
X010741Y012615D01*
X010660Y012696D02*
X010466Y012696D01*
X010547Y012777D02*
X010579Y012777D01*
X011022Y012334D02*
X011252Y012104D01*
X010980Y011832D01*
X010750Y012062D01*
X011022Y012334D01*
X011061Y011913D02*
X010899Y011913D01*
X010818Y011994D02*
X011142Y011994D01*
X011223Y012075D02*
X010763Y012075D01*
X010844Y012156D02*
X011200Y012156D01*
X011119Y012237D02*
X010925Y012237D01*
X011006Y012318D02*
X011038Y012318D01*
X018204Y010722D02*
X018434Y010492D01*
X018162Y010220D01*
X017932Y010450D01*
X018204Y010722D01*
X018243Y010301D02*
X018081Y010301D01*
X018000Y010382D02*
X018324Y010382D01*
X018405Y010463D02*
X017945Y010463D01*
X018026Y010544D02*
X018382Y010544D01*
X018301Y010625D02*
X018107Y010625D01*
X018188Y010706D02*
X018220Y010706D01*
X018663Y010263D02*
X018893Y010033D01*
X018621Y009761D01*
X018391Y009991D01*
X018663Y010263D01*
X018702Y009842D02*
X018540Y009842D01*
X018459Y009923D02*
X018783Y009923D01*
X018864Y010004D02*
X018404Y010004D01*
X018485Y010085D02*
X018841Y010085D01*
X018760Y010166D02*
X018566Y010166D01*
X018647Y010247D02*
X018679Y010247D01*
D31*
X031548Y003856D03*
X004048Y003856D03*
D32*
X009148Y004706D03*
X011148Y004706D03*
X016198Y004756D03*
X018198Y004756D03*
X023398Y004756D03*
X025398Y004756D03*
D33*
X007948Y018206D03*
X006948Y018206D03*
X005948Y018206D03*
X004948Y018206D03*
X003948Y018206D03*
X004448Y020206D03*
X005448Y020206D03*
X006448Y020206D03*
X007448Y020206D03*
X003448Y020206D03*
D34*
X016098Y012706D03*
X017098Y012706D03*
X017098Y011706D03*
X016098Y011706D03*
D35*
X005748Y002656D03*
X006948Y003856D03*
X006598Y004356D03*
X002898Y005506D03*
X008248Y006756D03*
X010198Y006056D03*
X012148Y004456D03*
X013698Y005106D03*
X015548Y006056D03*
X017148Y006206D03*
X018298Y006206D03*
X017848Y006956D03*
X018448Y008056D03*
X016748Y008056D03*
X016598Y009606D03*
X017698Y010706D03*
X019898Y009856D03*
X024248Y007906D03*
X026898Y007606D03*
X028298Y008956D03*
X030198Y008006D03*
X029898Y005956D03*
X029398Y005856D03*
X028898Y005856D03*
X026948Y004306D03*
X026398Y003806D03*
X026448Y003206D03*
X024848Y003206D03*
X022048Y005056D03*
X019898Y004056D03*
X018048Y003406D03*
X018698Y002956D03*
X016548Y002706D03*
X010398Y003456D03*
X013448Y006306D03*
X011148Y008756D03*
X008248Y009156D03*
X006898Y008706D03*
X008798Y010556D03*
X011698Y010706D03*
X010198Y012306D03*
X009548Y012706D03*
X009748Y013506D03*
X008948Y013506D03*
X008298Y013556D03*
X007698Y013456D03*
X007148Y013406D03*
X005448Y013556D03*
X004748Y014206D03*
X004748Y014756D03*
X004998Y015256D03*
X004798Y015756D03*
X005398Y016256D03*
X006298Y017156D03*
X007048Y016306D03*
X007548Y016356D03*
X008848Y017056D03*
X009348Y017056D03*
X010198Y017056D03*
X010798Y017006D03*
X011148Y016606D03*
X011948Y016256D03*
X012948Y017706D03*
X013398Y018256D03*
X011648Y019306D03*
X010598Y019306D03*
X009348Y019706D03*
X008148Y019506D03*
X006748Y019156D03*
X005948Y019256D03*
X005448Y019256D03*
X004948Y019256D03*
X004448Y019256D03*
X003948Y019256D03*
X003448Y020706D03*
X008798Y020956D03*
X008548Y018506D03*
X009048Y018256D03*
X008548Y017856D03*
X009848Y018256D03*
X010598Y018256D03*
X010798Y017706D03*
X009198Y015856D03*
X008398Y014706D03*
X006998Y015256D03*
X003598Y016806D03*
X002848Y013806D03*
X003198Y012306D03*
X004098Y012256D03*
X005198Y011456D03*
X003548Y008306D03*
X012898Y013456D03*
X011948Y014406D03*
X014148Y014706D03*
X014598Y015006D03*
X014598Y014256D03*
X017148Y014756D03*
X017648Y014756D03*
X018148Y014556D03*
X018698Y014556D03*
X017448Y015556D03*
X018848Y016206D03*
X017948Y016306D03*
X016698Y016556D03*
X015998Y016756D03*
X015898Y016256D03*
X015898Y015706D03*
X019148Y017256D03*
X018698Y017856D03*
X018148Y017856D03*
X017198Y017856D03*
X019498Y018506D03*
X019798Y019506D03*
X019898Y020406D03*
X021598Y020856D03*
X022498Y020306D03*
X022198Y019556D03*
X025298Y018606D03*
X026848Y019856D03*
X029498Y018906D03*
X028498Y018256D03*
X032048Y018206D03*
X028698Y015256D03*
X028648Y014306D03*
X029798Y014356D03*
X030548Y013956D03*
X032498Y013856D03*
X027848Y012056D03*
X025898Y012256D03*
X025098Y014006D03*
X023998Y014056D03*
X023298Y014556D03*
X022598Y014206D03*
X021698Y015156D03*
X021348Y015556D03*
X022048Y015606D03*
X020648Y015856D03*
X020648Y015306D03*
X023198Y015556D03*
X026148Y015356D03*
X026498Y014406D03*
X022048Y013006D03*
X021498Y013156D03*
X020798Y012656D03*
X018398Y012856D03*
X015448Y012806D03*
X023948Y017206D03*
X024998Y017206D03*
X016248Y020306D03*
X015748Y020756D03*
X014998Y020356D03*
X029648Y011006D03*
X024848Y010106D03*
X019598Y006756D03*
X025798Y005656D03*
X028948Y003206D03*
X029998Y002756D03*
X032748Y005056D03*
D36*
X023848Y006306D03*
X023248Y006306D03*
X013148Y007056D03*
X012498Y007306D03*
X018998Y013206D03*
X019648Y013206D03*
X020448Y014456D03*
X020998Y014806D03*
M02*
