G75*
G70*
%OFA0B0*%
%FSLAX24Y24*%
%IPPOS*%
%LPD*%
%AMOC8*
5,1,8,0,0,1.08239X$1,22.5*
%
%ADD10C,0.0700*%
%ADD11C,0.0400*%
%ADD12OC8,0.0624*%
%ADD13R,0.0468X0.0408*%
%ADD14R,0.0614X0.0693*%
%ADD15R,0.0516X0.0260*%
%ADD16R,0.0408X0.0468*%
%ADD17R,0.0630X0.0472*%
%ADD18R,0.0693X0.0614*%
%ADD19R,0.0843X0.0803*%
%ADD20R,0.0472X0.0512*%
%ADD21R,0.0841X0.0991*%
%ADD22R,0.0283X0.0913*%
%ADD23R,0.0512X0.0472*%
%ADD24R,0.0472X0.0630*%
%ADD25R,0.0260X0.0516*%
%ADD26C,0.0624*%
%ADD27O,0.0624X0.1144*%
%ADD28R,0.0414X0.0144*%
%ADD29R,0.0236X0.0630*%
%ADD30R,0.0630X0.0236*%
%ADD31OC8,0.0672*%
%ADD32C,0.2700*%
%ADD33O,0.0990X0.1815*%
%ADD34OC8,0.0720*%
%ADD35OC8,0.0480*%
%ADD36OC8,0.0600*%
D10*
X034203Y007756D02*
X034303Y007656D01*
X034303Y004556D01*
X034503Y004356D01*
X034803Y004356D01*
X034953Y004506D01*
X034953Y007106D01*
X034203Y007856D01*
X034203Y008006D01*
X035353Y007456D02*
X035703Y007806D01*
X035353Y007456D02*
X035353Y006306D01*
X034353Y005306D01*
X034353Y005156D01*
X041603Y005256D02*
X041653Y005256D01*
X042503Y006106D01*
D11*
X044003Y005006D02*
X044203Y004806D01*
X044203Y004656D01*
X044103Y004556D01*
X043903Y004556D01*
X044003Y004856D02*
X044503Y004356D01*
X044503Y004306D01*
X044003Y004856D02*
X044003Y005006D01*
X030003Y004106D02*
X029553Y004556D01*
X029553Y004056D01*
X029653Y003956D01*
X029803Y003956D01*
X030003Y003956D02*
X030003Y004106D01*
D12*
X030103Y003906D03*
X030103Y007906D03*
X044553Y008256D03*
X044553Y004256D03*
D13*
X038003Y004182D03*
X037403Y003932D03*
X037353Y003381D03*
X037353Y002732D03*
X037403Y004581D03*
X038003Y004831D03*
X031253Y004981D03*
X031253Y004332D03*
X025203Y004182D03*
X025203Y004831D03*
X027883Y008870D03*
X027883Y009520D03*
X037303Y013282D03*
X037303Y013931D03*
X044653Y017882D03*
X044653Y018531D03*
X047203Y019932D03*
X047203Y020581D03*
X048203Y020581D03*
X048203Y019932D03*
X038753Y018881D03*
X038753Y018232D03*
X032203Y018832D03*
X032203Y019481D03*
X029203Y018681D03*
X029203Y018032D03*
X029203Y017581D03*
X029203Y016932D03*
X026753Y019332D03*
X026753Y019981D03*
X021053Y015281D03*
X022053Y015181D03*
X022053Y014532D03*
X021053Y014632D03*
X047403Y008381D03*
X047953Y008381D03*
X047953Y007732D03*
X047403Y007732D03*
D14*
X042838Y005006D03*
X042169Y005006D03*
X028588Y004906D03*
X027919Y004906D03*
X024638Y019156D03*
X023969Y019156D03*
D15*
X047041Y007180D03*
X047041Y006806D03*
X047041Y006432D03*
X048065Y006432D03*
X048066Y006806D03*
X048065Y007180D03*
X039465Y003580D03*
X039466Y003206D03*
X039465Y002832D03*
X038441Y002832D03*
X038441Y003206D03*
X038441Y003580D03*
X024465Y003682D03*
X024465Y004056D03*
X024465Y004430D03*
X023441Y004430D03*
X023440Y004056D03*
X023441Y003682D03*
D16*
X025229Y003556D03*
X025878Y003556D03*
X024378Y005106D03*
X023729Y005106D03*
X031779Y004506D03*
X032428Y004506D03*
X032679Y003356D03*
X033328Y003356D03*
X033328Y002806D03*
X032679Y002806D03*
X039029Y004256D03*
X039678Y004256D03*
X045879Y006406D03*
X046528Y006406D03*
X046229Y005856D03*
X046878Y005856D03*
X049029Y014756D03*
X049678Y014756D03*
X049678Y015506D03*
X049029Y015506D03*
X043328Y017706D03*
X042679Y017706D03*
X040828Y018756D03*
X040179Y018756D03*
X038778Y017106D03*
X038129Y017106D03*
X038129Y016556D03*
X038778Y016556D03*
X039079Y015756D03*
X039728Y015756D03*
X040229Y015756D03*
X040878Y015756D03*
X039728Y015256D03*
X039079Y015256D03*
X039079Y014756D03*
X039728Y014756D03*
X035578Y019256D03*
X034929Y019256D03*
X034428Y019256D03*
X033779Y019256D03*
X021728Y018856D03*
X021079Y018856D03*
D17*
X024670Y015180D03*
X024670Y014432D03*
X025536Y014806D03*
X037270Y018506D03*
X038136Y018132D03*
X038136Y018880D03*
X048820Y006530D03*
X049686Y006156D03*
X048820Y005782D03*
D18*
X027003Y016272D03*
X027003Y016941D03*
D19*
X041696Y004206D03*
X043310Y004206D03*
X029060Y003956D03*
X027446Y003956D03*
D20*
X030519Y017456D03*
X031188Y017456D03*
X031188Y018256D03*
X030519Y018256D03*
D21*
X035704Y007106D03*
X037306Y007106D03*
D22*
X022553Y016133D03*
X022053Y016133D03*
X021553Y016133D03*
X021053Y016133D03*
X024603Y016233D03*
X025103Y016233D03*
X025603Y016233D03*
X026103Y016233D03*
X026103Y018280D03*
X025603Y018280D03*
X025103Y018280D03*
X024603Y018280D03*
X022553Y018180D03*
X022053Y018180D03*
X021553Y018180D03*
X021053Y018180D03*
D23*
X029853Y018022D03*
X029853Y017491D03*
X029853Y016822D03*
X029853Y018691D03*
X037953Y013941D03*
X037953Y013272D03*
X044769Y014756D03*
X045438Y014756D03*
D24*
X021027Y006423D03*
X020279Y006423D03*
X020653Y007290D03*
D25*
X031379Y003768D03*
X031753Y003768D03*
X032127Y003768D03*
X032127Y002745D03*
X031753Y002743D03*
X031379Y002745D03*
D26*
X029403Y019706D03*
X028403Y019706D03*
X027903Y020706D03*
X028903Y020706D03*
X033603Y020106D03*
X035503Y020106D03*
D27*
X027403Y015256D03*
X027403Y012256D03*
D28*
X046155Y014105D03*
X046155Y014361D03*
X046155Y014617D03*
X046155Y014873D03*
X046155Y015129D03*
X046155Y015384D03*
X046155Y015640D03*
X046155Y015896D03*
X046155Y016152D03*
X046155Y016408D03*
X048452Y016408D03*
X048452Y016152D03*
X048452Y015896D03*
X048452Y015640D03*
X048452Y015384D03*
X048452Y015129D03*
X048452Y014873D03*
X048452Y014617D03*
X048452Y014361D03*
X048452Y014105D03*
D29*
X036728Y013923D03*
X036413Y013923D03*
X036098Y013923D03*
X035783Y013923D03*
X035468Y013923D03*
X035153Y013923D03*
X034838Y013923D03*
X034523Y013923D03*
X034208Y013923D03*
X033894Y013923D03*
X033579Y013923D03*
X033579Y018490D03*
X033894Y018490D03*
X034208Y018490D03*
X034523Y018490D03*
X034838Y018490D03*
X035153Y018490D03*
X035468Y018490D03*
X035783Y018490D03*
X036098Y018490D03*
X036413Y018490D03*
X036728Y018490D03*
D30*
X037437Y017781D03*
X037437Y017466D03*
X037437Y017151D03*
X037437Y016836D03*
X037437Y016521D03*
X037437Y016206D03*
X037437Y015891D03*
X037437Y015577D03*
X037437Y015262D03*
X037437Y014947D03*
X037437Y014632D03*
X032870Y014632D03*
X032870Y014947D03*
X032870Y015262D03*
X032870Y015577D03*
X032870Y015891D03*
X032870Y016206D03*
X032870Y016521D03*
X032870Y016836D03*
X032870Y017151D03*
X032870Y017466D03*
X032870Y017781D03*
D31*
X038503Y019706D03*
X039503Y019706D03*
X040503Y019706D03*
X041503Y019706D03*
X042503Y019706D03*
X042503Y020706D03*
X041503Y020706D03*
X040503Y020706D03*
X039503Y020706D03*
X038503Y020706D03*
D32*
X048603Y003856D03*
X021103Y003856D03*
D33*
X027253Y004756D03*
X029253Y004756D03*
X034453Y004756D03*
X036453Y004756D03*
X041503Y004706D03*
X043503Y004706D03*
D34*
X036553Y011706D03*
X035553Y011706D03*
X035553Y012706D03*
X036553Y012706D03*
D35*
X019903Y005056D03*
X022753Y005956D03*
X023253Y005856D03*
X023753Y005856D03*
X025703Y004306D03*
X026253Y003806D03*
X026203Y003206D03*
X027803Y003206D03*
X030603Y005056D03*
X032753Y004056D03*
X034603Y003406D03*
X033953Y002956D03*
X036103Y002706D03*
X040503Y004456D03*
X038953Y005106D03*
X037103Y006056D03*
X035503Y006206D03*
X034353Y006206D03*
X034803Y006956D03*
X034203Y008056D03*
X035903Y008056D03*
X036053Y009606D03*
X034953Y010706D03*
X032753Y009856D03*
X028403Y007906D03*
X025753Y007606D03*
X024353Y008956D03*
X022453Y008006D03*
X026853Y005656D03*
X023703Y003206D03*
X022653Y002756D03*
X033053Y006756D03*
X039203Y006306D03*
X042453Y006056D03*
X044403Y006756D03*
X045753Y008706D03*
X044403Y009156D03*
X043853Y010556D03*
X040953Y010706D03*
X042453Y012306D03*
X043103Y012706D03*
X042903Y013506D03*
X043703Y013506D03*
X044353Y013556D03*
X044953Y013456D03*
X045503Y013406D03*
X047203Y013556D03*
X047903Y014206D03*
X047903Y014756D03*
X047653Y015256D03*
X047853Y015756D03*
X047253Y016256D03*
X046353Y017156D03*
X045603Y016306D03*
X045103Y016356D03*
X043803Y017056D03*
X043303Y017056D03*
X042453Y017056D03*
X041853Y017006D03*
X041503Y016606D03*
X040703Y016256D03*
X039703Y017706D03*
X039253Y018256D03*
X041003Y019306D03*
X042053Y019306D03*
X043303Y019706D03*
X044503Y019506D03*
X045903Y019156D03*
X046703Y019256D03*
X047203Y019256D03*
X047703Y019256D03*
X048203Y019256D03*
X048703Y019256D03*
X049203Y020706D03*
X043853Y020956D03*
X044103Y018506D03*
X043603Y018256D03*
X044103Y017856D03*
X042803Y018256D03*
X042053Y018256D03*
X041853Y017706D03*
X043453Y015856D03*
X044253Y014706D03*
X045653Y015256D03*
X049053Y016806D03*
X049803Y013806D03*
X049453Y012306D03*
X048553Y012256D03*
X047453Y011456D03*
X049103Y008306D03*
X049753Y005506D03*
X046053Y004356D03*
X045703Y003856D03*
X046903Y002656D03*
X042253Y003456D03*
X041503Y008756D03*
X037203Y012806D03*
X039753Y013456D03*
X040703Y014406D03*
X038503Y014706D03*
X038053Y015006D03*
X038053Y014256D03*
X035503Y014756D03*
X035003Y014756D03*
X034503Y014556D03*
X033953Y014556D03*
X035203Y015556D03*
X033803Y016206D03*
X034703Y016306D03*
X035953Y016556D03*
X036653Y016756D03*
X036753Y016256D03*
X036753Y015706D03*
X033503Y017256D03*
X033953Y017856D03*
X034503Y017856D03*
X035453Y017856D03*
X033153Y018506D03*
X032853Y019506D03*
X032753Y020406D03*
X031053Y020856D03*
X030153Y020306D03*
X030453Y019556D03*
X027353Y018606D03*
X025803Y019856D03*
X023153Y018906D03*
X024153Y018256D03*
X020603Y018206D03*
X023953Y015256D03*
X024003Y014306D03*
X022853Y014356D03*
X022103Y013956D03*
X020153Y013856D03*
X024803Y012056D03*
X026753Y012256D03*
X027553Y014006D03*
X028653Y014056D03*
X029353Y014556D03*
X030053Y014206D03*
X030953Y015156D03*
X031303Y015556D03*
X030603Y015606D03*
X032003Y015856D03*
X032003Y015306D03*
X029453Y015556D03*
X026503Y015356D03*
X026153Y014406D03*
X030603Y013006D03*
X031153Y013156D03*
X031853Y012656D03*
X034253Y012856D03*
X027803Y010106D03*
X023003Y011006D03*
X027653Y017206D03*
X028703Y017206D03*
X036403Y020306D03*
X036903Y020756D03*
X037653Y020356D03*
D36*
X031653Y014806D03*
X032203Y014456D03*
X033003Y013206D03*
X033653Y013206D03*
X040153Y007306D03*
X039503Y007056D03*
X029403Y006306D03*
X028803Y006306D03*
M02*
