G75*
G70*
%OFA0B0*%
%FSLAX24Y24*%
%IPPOS*%
%LPD*%
%AMOC8*
5,1,8,0,0,1.08239X$1,22.5*
%
%ADD10C,0.0110*%
%ADD11R,0.0551X0.1496*%
%ADD12OC8,0.0520*%
%ADD13R,0.0710X0.0630*%
%ADD14R,0.0236X0.0866*%
%ADD15R,0.1260X0.0709*%
%ADD16R,0.0866X0.0236*%
%ADD17R,0.0709X0.1260*%
%ADD18R,0.0340X0.0400*%
%ADD19R,0.0400X0.0340*%
%ADD20R,0.0236X0.0189*%
%ADD21R,0.0276X0.0157*%
%ADD22C,0.0520*%
%ADD23R,0.0433X0.0394*%
%ADD24R,0.0551X0.0394*%
%ADD25R,0.0394X0.0433*%
%ADD26R,0.0728X0.2165*%
%ADD27O,0.0520X0.1040*%
%ADD28OC8,0.0560*%
%ADD29C,0.0068*%
%ADD30C,0.2300*%
%ADD31O,0.0825X0.1650*%
%ADD32R,0.0591X0.1409*%
%ADD33OC8,0.0600*%
%ADD34C,0.0160*%
%ADD35C,0.0240*%
%ADD36C,0.0100*%
%ADD37OC8,0.0400*%
%ADD38C,0.0120*%
%ADD39C,0.0500*%
%ADD40C,0.1500*%
%ADD41C,0.0700*%
%ADD42C,0.1000*%
%ADD43C,0.0860*%
%ADD44C,0.0400*%
%ADD45C,0.0660*%
%ADD46OC8,0.0500*%
D10*
X032202Y005511D02*
X032399Y005708D01*
X032202Y005905D01*
X032793Y005905D01*
X032695Y006156D02*
X032498Y006156D01*
X032399Y006254D01*
X032399Y006451D01*
X032498Y006550D01*
X032695Y006550D01*
X032793Y006451D01*
X032793Y006254D01*
X032695Y006156D01*
X032793Y005511D02*
X032202Y005511D01*
X032399Y006801D02*
X032399Y006997D01*
X032301Y006899D02*
X032695Y006899D01*
X032793Y006997D01*
X032695Y007230D02*
X032498Y007230D01*
X032399Y007329D01*
X032399Y007525D01*
X032498Y007624D01*
X032695Y007624D01*
X032793Y007525D01*
X032793Y007329D01*
X032695Y007230D01*
X032793Y007875D02*
X032399Y007875D01*
X032596Y007875D02*
X032399Y008072D01*
X032399Y008170D01*
X032498Y008412D02*
X032498Y008805D01*
X032399Y009056D02*
X032399Y009352D01*
X032498Y009450D01*
X032695Y009450D01*
X032793Y009352D01*
X032793Y009056D01*
X032990Y009056D02*
X032399Y009056D01*
X032498Y009701D02*
X032695Y009701D01*
X032793Y009799D01*
X032793Y009996D01*
X032695Y010095D01*
X032498Y010095D01*
X032399Y009996D01*
X032399Y009799D01*
X032498Y009701D01*
X032399Y010345D02*
X032695Y010345D01*
X032793Y010444D01*
X032695Y010542D01*
X032793Y010641D01*
X032695Y010739D01*
X032399Y010739D01*
X032498Y010990D02*
X032399Y011088D01*
X032399Y011285D01*
X032498Y011384D01*
X032596Y011384D01*
X032596Y010990D01*
X032498Y010990D02*
X032695Y010990D01*
X032793Y011088D01*
X032793Y011285D01*
X032793Y011634D02*
X032399Y011634D01*
X032596Y011634D02*
X032399Y011831D01*
X032399Y011930D01*
X032891Y012172D02*
X032891Y012565D01*
X032793Y012816D02*
X032793Y013210D01*
X032793Y013013D02*
X032202Y013013D01*
X032399Y012816D01*
D11*
X031248Y013925D03*
X027748Y013925D03*
X027748Y016288D03*
X027748Y018075D03*
X031248Y018075D03*
X031248Y016288D03*
X031248Y020438D03*
X027748Y020438D03*
D12*
X008098Y008256D03*
X008098Y004256D03*
X022548Y003906D03*
X022548Y007906D03*
D13*
X030498Y011247D03*
X030498Y012366D03*
X022198Y017697D03*
X021348Y017697D03*
X021348Y018816D03*
X022198Y018816D03*
X012298Y018966D03*
X011448Y018966D03*
X011448Y017847D03*
X012298Y017847D03*
D14*
X010598Y011380D03*
X010098Y011380D03*
X009598Y011380D03*
X009098Y011380D03*
X007598Y011330D03*
X007098Y011330D03*
X006598Y011330D03*
X006098Y011330D03*
X006098Y009283D03*
X006598Y009283D03*
X007098Y009283D03*
X007598Y009283D03*
X009098Y009333D03*
X009598Y009333D03*
X010098Y009333D03*
X010598Y009333D03*
X012298Y010130D03*
X012798Y010130D03*
X013298Y010130D03*
X013798Y010130D03*
X013798Y008083D03*
X013298Y008083D03*
X012798Y008083D03*
X012298Y008083D03*
X007598Y008180D03*
X007098Y008180D03*
X006598Y008180D03*
X006098Y008180D03*
X005048Y007433D03*
X004548Y007433D03*
X004048Y007433D03*
X003548Y007433D03*
X006098Y006133D03*
X006598Y006133D03*
X007098Y006133D03*
X007598Y006133D03*
X005048Y009480D03*
X004548Y009480D03*
X004048Y009480D03*
X003548Y009480D03*
X019898Y009033D03*
X020398Y009033D03*
X020898Y009033D03*
X021398Y009033D03*
X023248Y009180D03*
X023748Y009180D03*
X024248Y009180D03*
X024748Y009180D03*
X025748Y008783D03*
X026248Y008783D03*
X026748Y008783D03*
X027248Y008783D03*
X028898Y008780D03*
X029398Y008780D03*
X029898Y008780D03*
X030398Y008780D03*
X030398Y006733D03*
X029898Y006733D03*
X029398Y006733D03*
X028898Y006733D03*
X024748Y007133D03*
X024248Y007133D03*
X023748Y007133D03*
X023248Y007133D03*
X021448Y007780D03*
X020948Y007780D03*
X020448Y007780D03*
X019948Y007780D03*
X019948Y005733D03*
X020448Y005733D03*
X020948Y005733D03*
X021448Y005733D03*
X025748Y010830D03*
X026248Y010830D03*
X026748Y010830D03*
X027248Y010830D03*
X021398Y011080D03*
X020898Y011080D03*
X020398Y011080D03*
X019898Y011080D03*
D15*
X020548Y005009D03*
X020548Y002804D03*
X027598Y002854D03*
X027598Y005059D03*
X006948Y005109D03*
X006948Y002904D03*
D16*
X009224Y006706D03*
X009224Y007206D03*
X009224Y007706D03*
X009224Y008206D03*
X011272Y008206D03*
X011272Y007706D03*
X011272Y007206D03*
X011272Y006706D03*
X025824Y006556D03*
X025824Y006056D03*
X027872Y006056D03*
X027872Y006556D03*
X027872Y007056D03*
X027872Y007556D03*
X025824Y007556D03*
X025824Y007056D03*
D17*
X014250Y006306D03*
X012046Y006306D03*
D18*
X004423Y010306D03*
X003773Y010306D03*
X005273Y014256D03*
X005923Y014256D03*
X005923Y014756D03*
X005273Y014756D03*
X005323Y015756D03*
X005973Y015756D03*
X006873Y017006D03*
X007523Y017006D03*
X010123Y015706D03*
X010773Y015706D03*
X010773Y015106D03*
X010123Y015106D03*
X011923Y015106D03*
X012573Y015106D03*
X012573Y015706D03*
X011923Y015706D03*
X016073Y013906D03*
X016723Y013906D03*
X017173Y013856D03*
X017823Y013856D03*
X013123Y011106D03*
X012473Y011106D03*
X019873Y016706D03*
X020523Y016706D03*
X020523Y017256D03*
X019873Y017256D03*
X032023Y017256D03*
X032673Y017256D03*
X023923Y010256D03*
X023273Y010256D03*
X028923Y009756D03*
X029573Y009756D03*
X029373Y002706D03*
X028723Y002706D03*
D19*
X030548Y009732D03*
X030548Y010381D03*
X026498Y011582D03*
X026498Y012231D03*
X023848Y014582D03*
X023848Y015231D03*
X018848Y015032D03*
X018298Y015032D03*
X018298Y015681D03*
X018848Y015681D03*
X020298Y018332D03*
X020298Y018981D03*
X013148Y016331D03*
X013148Y015682D03*
X013148Y015131D03*
X013148Y014482D03*
X011348Y014482D03*
X011348Y015131D03*
X011348Y015682D03*
X011348Y016331D03*
X008298Y011231D03*
X008298Y010582D03*
X005148Y010332D03*
X005148Y010981D03*
X014648Y008781D03*
X014648Y008132D03*
D20*
X008542Y012481D03*
X008542Y013032D03*
X007754Y013032D03*
X007754Y012481D03*
X023304Y012632D03*
X024092Y012632D03*
X024092Y012081D03*
X023304Y012081D03*
D21*
X024111Y012356D03*
X008561Y012756D03*
D22*
X023248Y019706D03*
X024248Y019706D03*
X024748Y020706D03*
X023748Y020706D03*
X019048Y020106D03*
X017148Y020106D03*
D23*
X024398Y015241D03*
X024398Y014572D03*
D24*
X029065Y016832D03*
X029931Y017206D03*
X029065Y017580D03*
D25*
X015248Y015741D03*
X015248Y015072D03*
X014998Y018172D03*
X014998Y018841D03*
D26*
X023994Y017206D03*
X026002Y017206D03*
D27*
X025248Y015256D03*
X025248Y012256D03*
D28*
X014148Y019706D03*
X013148Y019706D03*
X012148Y019706D03*
X011148Y019706D03*
X010148Y019706D03*
X010148Y020706D03*
X011148Y020706D03*
X012148Y020706D03*
X013148Y020706D03*
X014148Y020706D03*
D29*
X010563Y012755D02*
X010755Y012563D01*
X010521Y012329D01*
X010329Y012521D01*
X010563Y012755D01*
X010588Y012396D02*
X010454Y012396D01*
X010387Y012463D02*
X010655Y012463D01*
X010722Y012530D02*
X010338Y012530D01*
X010405Y012597D02*
X010721Y012597D01*
X010654Y012664D02*
X010472Y012664D01*
X010539Y012731D02*
X010587Y012731D01*
X011022Y012296D02*
X011214Y012104D01*
X010980Y011870D01*
X010788Y012062D01*
X011022Y012296D01*
X011047Y011937D02*
X010913Y011937D01*
X010846Y012004D02*
X011114Y012004D01*
X011181Y012071D02*
X010797Y012071D01*
X010864Y012138D02*
X011180Y012138D01*
X011113Y012205D02*
X010931Y012205D01*
X010998Y012272D02*
X011046Y012272D01*
X018204Y010684D02*
X018396Y010492D01*
X018162Y010258D01*
X017970Y010450D01*
X018204Y010684D01*
X018229Y010325D02*
X018095Y010325D01*
X018028Y010392D02*
X018296Y010392D01*
X018363Y010459D02*
X017979Y010459D01*
X018046Y010526D02*
X018362Y010526D01*
X018295Y010593D02*
X018113Y010593D01*
X018180Y010660D02*
X018228Y010660D01*
X018663Y010225D02*
X018855Y010033D01*
X018621Y009799D01*
X018429Y009991D01*
X018663Y010225D01*
X018688Y009866D02*
X018554Y009866D01*
X018487Y009933D02*
X018755Y009933D01*
X018822Y010000D02*
X018438Y010000D01*
X018505Y010067D02*
X018821Y010067D01*
X018754Y010134D02*
X018572Y010134D01*
X018639Y010201D02*
X018687Y010201D01*
D30*
X031548Y003856D03*
X004048Y003856D03*
D31*
X009148Y004706D03*
X011148Y004706D03*
X016198Y004756D03*
X018198Y004756D03*
X023398Y004756D03*
X025398Y004756D03*
D32*
X007948Y018206D03*
X006948Y018206D03*
X005948Y018206D03*
X004948Y018206D03*
X003948Y018206D03*
X004448Y020206D03*
X005448Y020206D03*
X006448Y020206D03*
X007448Y020206D03*
X003448Y020206D03*
D33*
X016098Y012706D03*
X017098Y012706D03*
X017098Y011706D03*
X016098Y011706D03*
D34*
X014348Y009606D02*
X013798Y010106D01*
X014348Y009606D02*
X014448Y009606D01*
X010098Y009333D02*
X010098Y009906D01*
X007098Y008180D02*
X006598Y008180D01*
X006648Y008180D01*
X006648Y008156D01*
X006648Y008180D02*
X006148Y008180D01*
X006148Y008156D01*
X006148Y008180D02*
X006598Y008180D01*
X006148Y008180D02*
X006098Y008180D01*
X005848Y008356D02*
X005848Y008406D01*
X005798Y008456D01*
X004048Y008456D01*
X003548Y008956D01*
X003548Y009480D01*
X005048Y009480D02*
X005048Y010256D01*
X005148Y010356D01*
X005148Y010332D01*
X005398Y009706D02*
X005398Y008756D01*
X005348Y008756D01*
X005848Y008356D02*
X006098Y008606D01*
X006098Y009283D01*
X006098Y011330D02*
X006048Y011330D01*
X006048Y011356D01*
X009224Y007206D02*
X009248Y007206D01*
X009248Y007056D01*
X009248Y006706D01*
X009224Y006706D01*
X019898Y011080D02*
X019898Y011106D01*
X019924Y011080D01*
X020398Y011080D01*
X020548Y009206D02*
X020722Y009033D01*
X020898Y009033D01*
X020948Y007806D02*
X020974Y007780D01*
X021448Y007780D01*
X021524Y007780D01*
X021548Y007756D01*
X021448Y007780D02*
X020948Y007780D01*
X020948Y007806D01*
X020948Y007780D02*
X020448Y007780D01*
X024798Y009256D02*
X025548Y010006D01*
X027448Y010006D01*
X027748Y010306D01*
X029898Y010306D01*
X030398Y009806D01*
X030398Y009706D01*
X030423Y009732D01*
X030548Y009732D01*
X030398Y009706D02*
X030398Y008780D01*
X030398Y008756D01*
X028348Y008106D02*
X028298Y008156D01*
X027448Y010006D02*
X027448Y010056D01*
X029198Y011806D01*
X029198Y014756D01*
X028698Y015256D01*
X028548Y015106D01*
X026548Y015106D01*
X025848Y014406D01*
X025848Y013706D01*
X025148Y013006D01*
X024998Y013006D01*
X030438Y012347D02*
X030548Y012456D01*
X030548Y013956D01*
X030498Y012366D02*
X030438Y012347D01*
X022798Y017256D02*
X022398Y016856D01*
X021348Y016856D01*
X020798Y016306D01*
X018898Y016306D01*
X018798Y016206D01*
X018848Y016206D01*
X018848Y016156D01*
X015998Y016256D02*
X015898Y016256D01*
X022198Y019556D02*
X022298Y019456D01*
X022498Y019456D01*
X022798Y019156D01*
X022798Y017256D01*
X015748Y020756D02*
X015698Y020756D01*
X015548Y020906D01*
D35*
X025248Y015906D02*
X025248Y015256D01*
X025198Y015206D01*
X025248Y015906D02*
X025952Y016610D01*
X026052Y016610D01*
X026648Y017206D01*
X027598Y017206D01*
X027598Y016756D01*
X027748Y016288D01*
X027598Y017206D02*
X027598Y017606D01*
X027748Y017706D01*
X027748Y018075D01*
X028317Y018125D01*
X028498Y018256D01*
X027848Y017806D02*
X027723Y017681D01*
X027824Y017580D01*
X029065Y017580D01*
X029931Y017206D02*
X029931Y016190D01*
X029898Y016156D01*
X031148Y016156D01*
X031248Y016256D01*
X031248Y016288D01*
X031248Y016556D01*
X031298Y016656D01*
X031323Y016781D01*
X031298Y017256D01*
X031323Y017931D01*
X031298Y018106D02*
X031848Y018106D01*
X032048Y018206D01*
X032023Y018181D01*
X032023Y017256D01*
X029898Y016156D02*
X029598Y016156D01*
X028698Y015256D01*
X025952Y016610D02*
X026002Y017206D01*
X027598Y017606D02*
X027723Y017681D01*
X027748Y017756D02*
X027798Y017806D01*
X027748Y017806D01*
X027698Y017756D01*
X027748Y017756D01*
X027798Y017806D02*
X027848Y017806D01*
X025248Y012256D02*
X025248Y011106D01*
X024848Y010106D02*
X024848Y009306D01*
X024798Y009256D01*
X024748Y009206D01*
X024748Y009180D01*
X024248Y009180D02*
X024248Y009756D01*
X023923Y010082D01*
X023923Y010256D01*
X023273Y010256D02*
X023248Y010256D01*
X023198Y010206D01*
X023198Y010056D01*
X023011Y009870D01*
X023011Y009757D01*
X023248Y009521D01*
X023248Y009180D01*
X023748Y009180D02*
X023748Y008556D01*
X023598Y008456D01*
X022948Y008456D01*
X022372Y009033D01*
X021398Y009033D01*
X020548Y009206D02*
X020548Y009406D01*
X020848Y009706D01*
X020898Y009756D01*
X022948Y009756D01*
X020872Y009730D02*
X020848Y009706D01*
X020398Y009056D02*
X020398Y009033D01*
X024248Y007906D02*
X024248Y007133D01*
X024748Y007133D02*
X024748Y006406D01*
X024198Y005806D01*
X022998Y005806D01*
X022874Y005733D01*
X021448Y005733D01*
X015598Y007056D02*
X015298Y007356D01*
X014648Y007706D01*
X014648Y008132D01*
X013798Y008083D02*
X013798Y008606D01*
X013548Y008856D01*
X011898Y008856D01*
X011448Y008206D01*
X011272Y008206D01*
X010598Y009256D02*
X012524Y009283D01*
X012798Y009556D01*
X012798Y010130D01*
X013298Y010130D02*
X013298Y011006D01*
X013148Y011156D01*
X013123Y011106D01*
X012473Y011106D02*
X012448Y011156D01*
X012298Y011006D01*
X012298Y010130D01*
X012274Y010130D01*
X012248Y010156D01*
X010348Y010156D01*
X010098Y009906D01*
X010598Y009333D02*
X010598Y009256D01*
X013298Y008083D02*
X013298Y007656D01*
X013598Y007356D01*
X015148Y007356D01*
X015198Y007406D01*
X015248Y007406D01*
X015298Y007356D01*
X013798Y008056D02*
X013798Y008083D01*
X014648Y008781D02*
X014648Y009306D01*
X014624Y009330D01*
X014395Y009552D01*
X013798Y010130D01*
X007598Y009706D02*
X007598Y009283D01*
X007598Y009706D02*
X007198Y010106D01*
X005798Y010106D01*
X005398Y009706D01*
X004548Y009480D02*
X004548Y010156D01*
X004398Y010306D01*
X004423Y010306D01*
X003773Y010306D02*
X003748Y010306D01*
X003548Y010106D01*
X003548Y009480D01*
X004048Y009480D02*
X004048Y008906D01*
X004198Y008756D01*
X005348Y008756D01*
X005048Y007433D02*
X005048Y007406D01*
X005398Y007056D01*
X007448Y007056D01*
X007598Y006906D01*
X007598Y006133D01*
X005948Y004906D02*
X005948Y003906D01*
X006948Y002906D01*
X006948Y002904D01*
X005948Y004906D02*
X005348Y005506D01*
X005348Y006106D01*
X004548Y006906D01*
X004548Y007433D01*
X026748Y008783D02*
X026748Y009406D01*
X026848Y009506D01*
X028548Y009506D01*
X028798Y009756D01*
X028898Y009756D01*
X028923Y009756D01*
X028898Y009756D02*
X028848Y009756D01*
X028898Y009706D01*
X028898Y008780D01*
X029398Y008780D02*
X029398Y008256D01*
X029248Y008106D01*
X028348Y008106D01*
X028298Y008156D02*
X027672Y008783D01*
X027248Y008783D01*
X027872Y007556D02*
X030048Y007556D01*
X030398Y007206D01*
X030398Y006733D01*
X029898Y006733D02*
X029898Y005956D01*
X027548Y005059D02*
X027548Y005056D01*
X029898Y008780D02*
X029898Y009506D01*
X029648Y009756D01*
X029573Y009756D01*
D36*
X002598Y002406D02*
X002598Y021156D01*
X006765Y021156D01*
X006670Y021061D01*
X006091Y021061D01*
X006003Y020973D01*
X006003Y019440D01*
X006091Y019352D01*
X006448Y019352D01*
X006398Y019301D01*
X006398Y019011D01*
X006503Y018907D01*
X006503Y017594D01*
X006415Y017506D01*
X006153Y017506D01*
X005948Y017301D01*
X005948Y017011D01*
X006153Y016806D01*
X006443Y016806D01*
X006553Y016917D01*
X006553Y016744D01*
X006641Y016656D01*
X007105Y016656D01*
X007193Y016744D01*
X007193Y017269D01*
X007148Y017314D01*
X007148Y017352D01*
X007286Y017352D01*
X007203Y017269D01*
X007203Y016744D01*
X007290Y016656D01*
X007348Y016656D01*
X007348Y016651D01*
X007198Y016501D01*
X007198Y016211D01*
X007403Y016006D01*
X007465Y016006D01*
X007065Y015606D01*
X006853Y015606D01*
X006648Y015401D01*
X006648Y015111D01*
X006853Y014906D01*
X007143Y014906D01*
X007348Y015111D01*
X007348Y015324D01*
X008031Y016006D01*
X008148Y016124D01*
X008148Y016874D01*
X008531Y017256D01*
X008648Y017374D01*
X008648Y017506D01*
X008693Y017506D01*
X008898Y017711D01*
X008898Y018001D01*
X008718Y018181D01*
X008898Y018361D01*
X008898Y018651D01*
X008693Y018856D01*
X008403Y018856D01*
X008393Y018847D01*
X008393Y018973D01*
X008305Y019061D01*
X007591Y019061D01*
X007503Y018973D01*
X007503Y017440D01*
X007586Y017356D01*
X007310Y017356D01*
X007393Y017440D01*
X007393Y018973D01*
X007305Y019061D01*
X007098Y019061D01*
X007098Y019301D01*
X006893Y019506D01*
X006893Y020719D01*
X007003Y020828D01*
X007003Y019440D01*
X007091Y019352D01*
X007805Y019352D01*
X007893Y019440D01*
X007893Y020006D01*
X007965Y020006D01*
X008398Y019574D01*
X008398Y019439D01*
X008398Y019274D01*
X008848Y018824D01*
X008965Y018706D01*
X009665Y018706D01*
X009898Y018474D01*
X010015Y018356D01*
X010215Y018356D01*
X010248Y018324D01*
X010248Y018111D01*
X010453Y017906D01*
X010503Y017906D01*
X010448Y017851D01*
X010448Y017561D01*
X010453Y017556D01*
X010415Y017556D01*
X010265Y017406D01*
X010053Y017406D01*
X009848Y017201D01*
X009848Y016911D01*
X010053Y016706D01*
X010343Y016706D01*
X010473Y016837D01*
X010653Y016656D01*
X010943Y016656D01*
X011093Y016806D01*
X012115Y016806D01*
X011915Y016606D01*
X011803Y016606D01*
X011598Y016401D01*
X011598Y016111D01*
X011672Y016037D01*
X011623Y015989D01*
X011610Y016002D01*
X011086Y016002D01*
X011073Y015989D01*
X011005Y016056D01*
X010540Y016056D01*
X010453Y015969D01*
X010453Y015444D01*
X010490Y015406D01*
X010453Y015369D01*
X010453Y014844D01*
X010540Y014756D01*
X011005Y014756D01*
X011073Y014824D01*
X011086Y014811D01*
X011610Y014811D01*
X011623Y014824D01*
X011691Y014756D01*
X012155Y014756D01*
X012243Y014844D01*
X012243Y015369D01*
X012205Y015406D01*
X012243Y015444D01*
X012243Y015969D01*
X012199Y016013D01*
X012298Y016111D01*
X012298Y016401D01*
X012287Y016412D01*
X012431Y016556D01*
X013831Y016556D01*
X013948Y016674D01*
X014181Y016906D01*
X015653Y016906D01*
X015648Y016901D01*
X015648Y016611D01*
X015853Y016406D01*
X016143Y016406D01*
X016348Y016611D01*
X016348Y016706D01*
X016353Y016706D01*
X016348Y016701D01*
X016348Y016411D01*
X016553Y016206D01*
X016843Y016206D01*
X017048Y016411D01*
X017048Y016506D01*
X018653Y016506D01*
X018498Y016351D01*
X018498Y016061D01*
X018572Y015987D01*
X018498Y015913D01*
X018498Y015449D01*
X018586Y015361D01*
X019110Y015361D01*
X019198Y015449D01*
X019198Y015913D01*
X019124Y015987D01*
X019198Y016061D01*
X019198Y016076D01*
X020373Y016076D01*
X020298Y016001D01*
X019137Y016001D01*
X019198Y015903D02*
X020298Y015903D01*
X020298Y016001D02*
X020298Y015711D01*
X020428Y015581D01*
X020298Y015451D01*
X020298Y015161D01*
X020503Y014956D01*
X020598Y014956D01*
X020598Y014856D01*
X020282Y014856D01*
X020048Y014622D01*
X020048Y014291D01*
X020282Y014056D01*
X020614Y014056D01*
X020848Y014291D01*
X020848Y014406D01*
X021164Y014406D01*
X021398Y014641D01*
X021398Y014962D01*
X021553Y014806D01*
X021565Y014806D01*
X021648Y014724D01*
X021648Y013589D01*
X021565Y013506D01*
X021353Y013506D01*
X021148Y013301D01*
X021148Y013011D01*
X021353Y012806D01*
X021643Y012806D01*
X021698Y012862D01*
X021698Y012861D01*
X021903Y012656D01*
X022193Y012656D01*
X022398Y012861D01*
X022398Y013151D01*
X022248Y013301D01*
X022248Y015311D01*
X022398Y015311D01*
X022398Y015213D02*
X022248Y015213D01*
X022248Y015311D02*
X022398Y015461D01*
X022398Y015751D01*
X022193Y015956D01*
X021903Y015956D01*
X021698Y015751D01*
X021698Y015506D01*
X021553Y015506D01*
X021348Y015301D01*
X021348Y015022D01*
X021164Y015206D01*
X020998Y015206D01*
X020998Y015424D01*
X021081Y015506D01*
X021198Y015624D01*
X021198Y015674D01*
X021681Y016156D01*
X022465Y016156D01*
X022398Y016089D01*
X022398Y015924D01*
X022398Y014501D01*
X022248Y014351D01*
X022248Y014061D01*
X022453Y013856D01*
X022743Y013856D01*
X022948Y014061D01*
X022948Y014351D01*
X022798Y014501D01*
X022798Y015924D01*
X023531Y016656D01*
X023648Y016774D01*
X023648Y019124D01*
X023831Y019306D01*
X023948Y019424D01*
X023948Y020346D01*
X023980Y020359D01*
X024096Y020474D01*
X024158Y020625D01*
X024158Y020788D01*
X024096Y020939D01*
X023980Y021054D01*
X023829Y021116D01*
X023666Y021116D01*
X023516Y021054D01*
X023400Y020939D01*
X023338Y020788D01*
X023338Y020625D01*
X023400Y020474D01*
X023516Y020359D01*
X023548Y020346D01*
X023548Y019986D01*
X023480Y020054D01*
X023329Y020116D01*
X023166Y020116D01*
X023016Y020054D01*
X022900Y019939D01*
X022841Y019796D01*
X022698Y019939D01*
X022698Y020011D01*
X022848Y020161D01*
X022848Y020451D01*
X022643Y020656D01*
X022353Y020656D01*
X022148Y020451D01*
X022148Y020161D01*
X022298Y020011D01*
X022298Y019906D01*
X022053Y019906D01*
X021848Y019701D01*
X021848Y019411D01*
X022053Y019206D01*
X022343Y019206D01*
X022363Y019226D01*
X022393Y019226D01*
X022403Y019226D01*
X022568Y019061D01*
X022568Y018162D01*
X021781Y018162D01*
X021773Y018154D01*
X021765Y018162D01*
X020931Y018162D01*
X020843Y018074D01*
X020843Y017606D01*
X020755Y017606D01*
X020290Y017606D01*
X020203Y017519D01*
X020203Y016994D01*
X020215Y016981D01*
X020203Y016969D01*
X020203Y016536D01*
X020193Y016536D01*
X020193Y016969D01*
X020180Y016981D01*
X020193Y016994D01*
X020193Y017519D01*
X020105Y017606D01*
X019641Y017606D01*
X019553Y017519D01*
X019553Y017295D01*
X019365Y017106D01*
X018781Y017106D01*
X019331Y017656D01*
X019481Y017656D01*
X019598Y017774D01*
X019598Y017939D01*
X019598Y018156D01*
X019643Y018156D01*
X019754Y018268D01*
X019890Y018132D01*
X019948Y018132D01*
X019948Y018100D01*
X020036Y018012D01*
X020560Y018012D01*
X020648Y018100D01*
X020648Y018564D01*
X020560Y018652D01*
X020036Y018652D01*
X019986Y018602D01*
X019881Y018706D01*
X019793Y018706D01*
X019643Y018856D01*
X019431Y018856D01*
X019731Y019156D01*
X019815Y019156D01*
X019948Y019024D01*
X019948Y018749D01*
X020036Y018661D01*
X020560Y018661D01*
X020648Y018749D01*
X020648Y019213D01*
X020560Y019301D01*
X020236Y019301D01*
X020148Y019389D01*
X020148Y019651D01*
X019943Y019856D01*
X019653Y019856D01*
X019448Y019651D01*
X019448Y019439D01*
X018465Y018456D01*
X017515Y018456D01*
X017398Y018339D01*
X017265Y018206D01*
X017131Y018206D01*
X016965Y018372D01*
X016800Y018372D01*
X015345Y018372D01*
X015345Y018450D01*
X015257Y018538D01*
X014739Y018538D01*
X014657Y018456D01*
X013693Y018456D01*
X013543Y018606D01*
X013253Y018606D01*
X013048Y018401D01*
X013048Y018111D01*
X013253Y017906D01*
X013543Y017906D01*
X013693Y018056D01*
X014651Y018056D01*
X014651Y017893D01*
X014739Y017805D01*
X015257Y017805D01*
X015345Y017893D01*
X015345Y017972D01*
X016800Y017972D01*
X016848Y017924D01*
X016848Y017711D01*
X016853Y017706D01*
X013781Y017706D01*
X013615Y017706D01*
X013465Y017556D01*
X013293Y017556D01*
X013298Y017561D01*
X013298Y017851D01*
X013093Y018056D01*
X012803Y018056D01*
X012803Y018206D01*
X012831Y018206D01*
X012948Y018324D01*
X013935Y019311D01*
X013970Y019276D01*
X014326Y019276D01*
X014578Y019528D01*
X014578Y019704D01*
X014881Y020006D01*
X015143Y020006D01*
X015348Y020211D01*
X015348Y020501D01*
X015143Y020706D01*
X014853Y020706D01*
X014648Y020501D01*
X014648Y020339D01*
X014386Y020077D01*
X014326Y020136D01*
X013970Y020136D01*
X013718Y019885D01*
X013718Y019659D01*
X012665Y018606D01*
X011081Y018606D01*
X010848Y018839D01*
X010731Y018956D01*
X010281Y018956D01*
X009931Y019306D01*
X009765Y019306D01*
X009231Y019306D01*
X008998Y019539D01*
X008998Y020389D01*
X008881Y020506D01*
X008231Y021156D01*
X010315Y021156D01*
X010295Y021136D01*
X009970Y021136D01*
X009718Y020885D01*
X009718Y020528D01*
X009840Y020406D01*
X009765Y020406D01*
X009415Y020056D01*
X009203Y020056D01*
X008998Y019851D01*
X008998Y019561D01*
X009203Y019356D01*
X009493Y019356D01*
X009698Y019561D01*
X009698Y019774D01*
X009718Y019794D01*
X009718Y019528D01*
X009970Y019276D01*
X010248Y019276D01*
X010248Y019161D01*
X010453Y018956D01*
X010743Y018956D01*
X010948Y019161D01*
X010948Y019298D01*
X010970Y019276D01*
X011326Y019276D01*
X011578Y019528D01*
X011578Y019885D01*
X011406Y020056D01*
X011890Y020056D01*
X011718Y019885D01*
X011718Y019528D01*
X011970Y019276D01*
X012326Y019276D01*
X012578Y019528D01*
X012578Y019885D01*
X012406Y020056D01*
X012565Y020056D01*
X012731Y020056D01*
X012960Y020286D01*
X012970Y020276D01*
X013326Y020276D01*
X013578Y020528D01*
X013578Y020885D01*
X013506Y020956D01*
X015165Y020956D01*
X015398Y020724D01*
X015398Y020611D01*
X015603Y020406D01*
X015893Y020406D01*
X016098Y020611D01*
X016098Y020901D01*
X015893Y021106D01*
X015673Y021106D01*
X015643Y021136D01*
X015551Y021136D01*
X015531Y021156D01*
X032998Y021156D01*
X032998Y012748D01*
X032998Y012748D01*
X032998Y013295D01*
X032878Y013415D01*
X032708Y013415D01*
X032588Y013295D01*
X032588Y013218D01*
X032118Y013218D01*
X031997Y013098D01*
X031997Y012928D01*
X032118Y012808D01*
X032314Y012611D01*
X032484Y012611D01*
X032596Y012723D01*
X032686Y012633D01*
X032686Y012087D01*
X032806Y011967D01*
X032976Y011967D01*
X032998Y011988D01*
X032998Y009261D01*
X032998Y009436D01*
X032919Y009515D01*
X032900Y009535D01*
X032859Y009575D01*
X032878Y009594D01*
X032998Y009714D01*
X032998Y010081D01*
X032900Y010179D01*
X032859Y010220D01*
X032878Y010239D01*
X032998Y010359D01*
X032998Y010529D01*
X032984Y010542D01*
X032998Y010556D01*
X032998Y010725D01*
X032998Y010726D01*
X032920Y010803D01*
X032900Y010824D01*
X032859Y010864D01*
X032900Y010905D01*
X032998Y011003D01*
X032998Y011173D01*
X032998Y011370D01*
X032908Y011460D01*
X032998Y011550D01*
X032998Y011719D01*
X032878Y011839D01*
X032681Y011839D01*
X032604Y011916D01*
X032604Y012015D01*
X032484Y012135D01*
X032314Y012135D01*
X032194Y012015D01*
X032194Y011746D01*
X032208Y011733D01*
X032194Y011719D01*
X032194Y011550D01*
X032284Y011460D01*
X032194Y011370D01*
X032194Y011200D01*
X032194Y011003D01*
X032237Y010961D01*
X032254Y010943D01*
X032255Y010943D01*
X032284Y010914D01*
X032194Y010824D01*
X032194Y010654D01*
X032306Y010542D01*
X032194Y010430D01*
X032194Y010260D01*
X032284Y010171D01*
X032194Y010081D01*
X032194Y009884D01*
X032194Y009714D01*
X032254Y009654D01*
X032256Y009653D01*
X032314Y009594D01*
X032314Y009594D01*
X032333Y009576D01*
X032333Y009575D01*
X032293Y009535D01*
X032194Y009436D01*
X032194Y009267D01*
X032194Y008971D01*
X032293Y008873D01*
X032293Y008353D01*
X032194Y008255D01*
X032194Y007987D01*
X032208Y007973D01*
X032194Y007960D01*
X032194Y007790D01*
X032284Y007700D01*
X032194Y007610D01*
X032194Y007413D01*
X032194Y007244D01*
X032254Y007184D01*
X032258Y007180D01*
X032275Y007163D01*
X032194Y007082D01*
X032096Y006984D01*
X032096Y006814D01*
X032216Y006694D01*
X032284Y006626D01*
X032194Y006536D01*
X032194Y006339D01*
X032194Y006169D01*
X032254Y006110D01*
X032118Y006110D01*
X031997Y005990D01*
X031997Y005820D01*
X032001Y005816D01*
X032109Y005708D01*
X031997Y005596D01*
X031997Y005427D01*
X032118Y005306D01*
X032287Y005306D01*
X032878Y005306D01*
X032998Y005427D01*
X032998Y005596D01*
X032886Y005708D01*
X032998Y005820D01*
X032998Y005990D01*
X032908Y006080D01*
X032998Y006169D01*
X032998Y006339D01*
X032998Y006366D01*
X032998Y006536D01*
X032998Y006536D01*
X032920Y006614D01*
X032900Y006634D01*
X032900Y006635D01*
X032810Y006724D01*
X032839Y006754D01*
X032842Y006757D01*
X032900Y006814D01*
X032998Y006912D01*
X032998Y007082D01*
X032917Y007163D01*
X032998Y007244D01*
X032998Y007413D01*
X032998Y007441D01*
X032998Y007610D01*
X032998Y007610D01*
X032921Y007687D01*
X032908Y007700D01*
X032998Y007790D01*
X032998Y007960D01*
X032878Y008080D01*
X032681Y008080D01*
X032604Y008156D01*
X032604Y008228D01*
X032703Y008327D01*
X032703Y008851D01*
X032708Y008851D01*
X032878Y008851D01*
X032998Y008851D01*
X032998Y002406D01*
X029655Y002406D01*
X029693Y002444D01*
X029693Y002969D01*
X029605Y003056D01*
X029384Y003056D01*
X029298Y003189D01*
X029298Y003351D01*
X029093Y003556D01*
X028803Y003556D01*
X028598Y003351D01*
X028598Y003061D01*
X028803Y002856D01*
X029037Y002856D01*
X029053Y002832D01*
X029053Y002444D01*
X029091Y002406D01*
X002598Y002406D01*
X002598Y002501D02*
X029053Y002501D01*
X029053Y002599D02*
X002598Y002599D01*
X002598Y002698D02*
X029053Y002698D01*
X029053Y002796D02*
X002598Y002796D01*
X002598Y002895D02*
X028765Y002895D01*
X028666Y002993D02*
X002598Y002993D01*
X002598Y003092D02*
X028598Y003092D01*
X028598Y003190D02*
X002598Y003190D01*
X002598Y003289D02*
X028598Y003289D01*
X028634Y003388D02*
X022999Y003388D01*
X022988Y003376D02*
X023328Y003716D01*
X023393Y003781D01*
X023631Y003781D01*
X023960Y004111D01*
X023960Y004349D01*
X023978Y004366D01*
X023978Y004847D01*
X023978Y004997D01*
X023960Y005014D01*
X023960Y005402D01*
X023826Y005536D01*
X024086Y005536D01*
X024310Y005536D01*
X024393Y005620D01*
X024468Y005695D01*
X024468Y005701D01*
X024943Y006220D01*
X025018Y006295D01*
X025018Y006301D01*
X025018Y006518D01*
X025018Y007245D01*
X025016Y007246D01*
X025016Y007628D01*
X024928Y007716D01*
X024568Y007716D01*
X024480Y007628D01*
X024480Y007246D01*
X024478Y007245D01*
X024478Y006511D01*
X024248Y006260D01*
X024248Y006472D01*
X024016Y006704D01*
X024016Y007628D01*
X023928Y007716D01*
X023568Y007716D01*
X023498Y007646D01*
X023428Y007716D01*
X023068Y007716D01*
X022980Y007628D01*
X022980Y006638D01*
X022997Y006621D01*
X022848Y006472D01*
X022848Y006141D01*
X022912Y006076D01*
X022886Y006076D01*
X022831Y006021D01*
X022800Y006003D01*
X021716Y006003D01*
X021716Y006228D01*
X021628Y006316D01*
X021268Y006316D01*
X021198Y006246D01*
X021128Y006316D01*
X020958Y006316D01*
X020867Y006406D01*
X020329Y006406D01*
X020305Y006383D01*
X020179Y006383D01*
X019679Y006383D01*
X019298Y006002D01*
X019298Y005464D01*
X019679Y005083D01*
X019768Y005083D01*
X019768Y004592D01*
X019856Y004504D01*
X020113Y004504D01*
X020015Y004406D01*
X019753Y004406D01*
X019548Y004201D01*
X019548Y003911D01*
X019753Y003706D01*
X020043Y003706D01*
X020248Y003911D01*
X020248Y004074D01*
X020581Y004406D01*
X020767Y004406D01*
X020865Y004504D01*
X021240Y004504D01*
X021328Y004592D01*
X021328Y005150D01*
X021628Y005150D01*
X021716Y005238D01*
X021716Y005463D01*
X022762Y005463D01*
X022896Y005463D01*
X022835Y005402D01*
X022835Y005014D01*
X022818Y004997D01*
X022818Y004847D01*
X022508Y004536D01*
X022358Y004536D01*
X021968Y004147D01*
X021968Y003666D01*
X022308Y003326D01*
X022788Y003326D01*
X022838Y003376D01*
X022988Y003376D01*
X023098Y003486D02*
X028733Y003486D01*
X028948Y003206D02*
X029048Y003206D01*
X029373Y002706D01*
X029348Y002706D01*
X029693Y002698D02*
X032998Y002698D01*
X032998Y002796D02*
X029693Y002796D01*
X029693Y002895D02*
X032998Y002895D01*
X032998Y002993D02*
X029668Y002993D01*
X029361Y003092D02*
X032998Y003092D01*
X032998Y003190D02*
X029298Y003190D01*
X029298Y003289D02*
X032998Y003289D01*
X032998Y003388D02*
X029262Y003388D01*
X029163Y003486D02*
X032998Y003486D01*
X032998Y003585D02*
X023196Y003585D01*
X023295Y003683D02*
X032998Y003683D01*
X032998Y003782D02*
X025631Y003782D01*
X025631Y003781D02*
X025726Y003876D01*
X026138Y003876D01*
X026349Y004087D01*
X026478Y004216D01*
X026478Y004266D01*
X026578Y004366D01*
X026578Y004666D01*
X026578Y004767D01*
X026818Y004767D01*
X026818Y004669D02*
X026578Y004669D01*
X026578Y004767D02*
X026598Y004787D01*
X026598Y005326D01*
X026598Y007437D01*
X026598Y007976D01*
X026598Y008133D01*
X026694Y008133D01*
X026717Y008156D01*
X026760Y008200D01*
X026928Y008200D01*
X026998Y008270D01*
X027068Y008200D01*
X027428Y008200D01*
X027516Y008288D01*
X027516Y008513D01*
X027560Y008513D01*
X028078Y007995D01*
X028078Y007995D01*
X028236Y007836D01*
X029360Y007836D01*
X029518Y007995D01*
X029668Y008145D01*
X029668Y008247D01*
X029718Y008197D01*
X030078Y008197D01*
X030148Y008267D01*
X030218Y008197D01*
X030578Y008197D01*
X030666Y008285D01*
X030666Y009275D01*
X030628Y009313D01*
X030628Y009412D01*
X030810Y009412D01*
X030898Y009500D01*
X030898Y009964D01*
X030810Y010052D01*
X030478Y010052D01*
X029993Y010536D01*
X029803Y010536D01*
X028253Y010536D01*
X029293Y011576D01*
X029428Y011711D01*
X029428Y014661D01*
X029428Y014852D01*
X029051Y015228D01*
X029710Y015886D01*
X029786Y015886D01*
X030010Y015886D01*
X030822Y015886D01*
X030822Y015477D01*
X030910Y015390D01*
X031586Y015390D01*
X031674Y015477D01*
X031674Y017098D01*
X031590Y017181D01*
X031674Y017265D01*
X031674Y017836D01*
X031736Y017836D01*
X031753Y017836D01*
X031753Y017569D01*
X031703Y017519D01*
X031703Y016994D01*
X031791Y016906D01*
X032255Y016906D01*
X032343Y016994D01*
X032343Y017519D01*
X032293Y017569D01*
X032293Y017957D01*
X032398Y018061D01*
X032398Y018351D01*
X032193Y018556D01*
X031903Y018556D01*
X031723Y018376D01*
X031674Y018376D01*
X031674Y018886D01*
X031586Y018973D01*
X030910Y018973D01*
X030822Y018886D01*
X030822Y017265D01*
X030906Y017181D01*
X030822Y017098D01*
X030822Y016426D01*
X030201Y016426D01*
X030201Y016860D01*
X030269Y016860D01*
X030357Y016947D01*
X030357Y017465D01*
X030269Y017553D01*
X029593Y017553D01*
X029505Y017465D01*
X029505Y016947D01*
X029593Y016860D01*
X029661Y016860D01*
X029661Y016426D01*
X029486Y016426D01*
X029328Y016268D01*
X028666Y015606D01*
X028553Y015606D01*
X028348Y015401D01*
X028348Y015336D01*
X026643Y015336D01*
X026453Y015336D01*
X025753Y014636D01*
X025618Y014502D01*
X025618Y013802D01*
X025053Y013236D01*
X024903Y013236D01*
X024768Y013102D01*
X024768Y013059D01*
X024665Y012956D01*
X024548Y012839D01*
X024548Y012289D01*
X024360Y012101D01*
X024360Y012237D01*
X024272Y012325D01*
X023911Y012325D01*
X023824Y012237D01*
X023824Y012006D01*
X023572Y012006D01*
X023572Y012156D01*
X023681Y012156D01*
X023798Y012274D01*
X023912Y012388D01*
X024272Y012388D01*
X024360Y012475D01*
X024360Y012789D01*
X024272Y012876D01*
X023911Y012876D01*
X023841Y012806D01*
X023781Y012806D01*
X024331Y013356D01*
X024615Y013356D01*
X024781Y013356D01*
X024843Y013419D01*
X024843Y013419D01*
X024898Y013474D01*
X024898Y013480D01*
X025054Y013656D01*
X025243Y013656D01*
X025448Y013861D01*
X025448Y014151D01*
X025243Y014356D01*
X024953Y014356D01*
X024748Y014151D01*
X024748Y013914D01*
X024608Y013756D01*
X024165Y013756D01*
X024048Y013639D01*
X023285Y012876D01*
X023124Y012876D01*
X023036Y012789D01*
X023036Y012556D01*
X022965Y012556D01*
X022915Y012506D01*
X021015Y012506D01*
X020965Y012456D01*
X018665Y012456D01*
X017484Y012456D01*
X017548Y012520D01*
X017548Y012893D01*
X017434Y013006D01*
X018331Y013006D01*
X018448Y013124D01*
X018598Y013274D01*
X018598Y013041D01*
X018832Y012806D01*
X019164Y012806D01*
X019323Y012966D01*
X019482Y012806D01*
X019814Y012806D01*
X020048Y013041D01*
X020048Y013372D01*
X019814Y013606D01*
X019482Y013606D01*
X019323Y013447D01*
X019164Y013606D01*
X018832Y013606D01*
X018648Y013422D01*
X018648Y013489D01*
X018648Y014184D01*
X018667Y014206D01*
X018843Y014206D01*
X019048Y014411D01*
X019048Y014701D01*
X019037Y014712D01*
X019110Y014712D01*
X019198Y014800D01*
X019198Y015264D01*
X019110Y015352D01*
X018586Y015352D01*
X018573Y015339D01*
X018560Y015352D01*
X018036Y015352D01*
X017948Y015264D01*
X017948Y015106D01*
X017765Y015106D01*
X017503Y015106D01*
X017398Y015001D01*
X017293Y015106D01*
X017003Y015106D01*
X016798Y014901D01*
X016798Y014611D01*
X016948Y014461D01*
X016948Y014256D01*
X016490Y014256D01*
X016403Y014169D01*
X016403Y013644D01*
X016441Y013606D01*
X015181Y013606D01*
X014798Y013989D01*
X014681Y014106D01*
X013581Y014106D01*
X013498Y014189D01*
X013381Y014306D01*
X012631Y014306D01*
X012465Y014306D01*
X012015Y013856D01*
X010731Y013856D01*
X010248Y014339D01*
X010131Y014456D01*
X007181Y014456D01*
X007015Y014456D01*
X003815Y011256D01*
X003431Y011256D01*
X003265Y011256D01*
X002815Y010806D01*
X002698Y010689D01*
X002698Y007239D01*
X002698Y007074D01*
X003048Y006724D01*
X003165Y006606D01*
X003665Y006606D01*
X003831Y006606D01*
X004074Y006850D01*
X004228Y006850D01*
X004316Y006938D01*
X004316Y007928D01*
X004228Y008016D01*
X003868Y008016D01*
X003798Y007946D01*
X003728Y008016D01*
X003368Y008016D01*
X003319Y007968D01*
X003298Y007989D01*
X003298Y008967D01*
X003318Y008947D01*
X003318Y008861D01*
X003453Y008726D01*
X003953Y008226D01*
X004143Y008226D01*
X005448Y008226D01*
X005448Y007887D01*
X005829Y007506D01*
X007429Y007506D01*
X008267Y007506D01*
X008598Y007837D01*
X008598Y007499D01*
X008574Y007476D01*
X008574Y006811D01*
X008641Y006744D01*
X008641Y006526D01*
X008729Y006438D01*
X008939Y006438D01*
X009548Y005797D01*
X009548Y005787D01*
X009732Y005603D01*
X009732Y005603D01*
X009929Y005406D01*
X010498Y004837D01*
X010498Y004437D01*
X010585Y004350D01*
X010585Y004061D01*
X010915Y003731D01*
X011381Y003731D01*
X011710Y004061D01*
X011710Y004350D01*
X011798Y004437D01*
X011798Y004837D01*
X011798Y005256D01*
X012421Y005256D01*
X012836Y005672D01*
X013348Y005159D01*
X013348Y004961D01*
X013553Y004756D01*
X013843Y004756D01*
X014048Y004961D01*
X014048Y005251D01*
X013843Y005456D01*
X013645Y005456D01*
X012948Y006153D01*
X012948Y006529D01*
X012571Y006906D01*
X012664Y006906D01*
X012748Y006991D01*
X012748Y006891D01*
X012982Y006656D01*
X013314Y006656D01*
X013548Y006891D01*
X013548Y007222D01*
X013314Y007456D01*
X013281Y007456D01*
X013231Y007506D01*
X013066Y007671D01*
X013066Y008578D01*
X013058Y008586D01*
X013436Y008586D01*
X013528Y008495D01*
X013528Y007971D01*
X013528Y007945D01*
X013530Y007943D01*
X013530Y007588D01*
X013618Y007500D01*
X013978Y007500D01*
X014066Y007588D01*
X014066Y007943D01*
X014068Y007945D01*
X014068Y007971D01*
X014068Y008718D01*
X013910Y008876D01*
X013660Y009126D01*
X013436Y009126D01*
X012750Y009126D01*
X012910Y009286D01*
X013068Y009445D01*
X013068Y009597D01*
X013118Y009547D01*
X013478Y009547D01*
X013548Y009617D01*
X013618Y009547D01*
X013978Y009547D01*
X013995Y009564D01*
X014206Y009360D01*
X014206Y009359D01*
X014270Y009297D01*
X014286Y009282D01*
X014378Y009193D01*
X014378Y009093D01*
X014298Y009013D01*
X014298Y008549D01*
X014386Y008461D01*
X014910Y008461D01*
X014998Y008549D01*
X014998Y009013D01*
X014918Y009093D01*
X014918Y009195D01*
X014918Y009418D01*
X014736Y009600D01*
X014734Y009600D01*
X014678Y009654D01*
X014678Y009702D01*
X014543Y009836D01*
X014489Y009836D01*
X014066Y010246D01*
X014066Y010369D01*
X014183Y010252D01*
X014998Y009396D01*
X014998Y008687D01*
X015379Y008306D01*
X015829Y007856D01*
X015879Y007856D01*
X016498Y007237D01*
X016498Y006876D01*
X016498Y006626D01*
X016498Y006087D01*
X016498Y005837D01*
X016848Y005487D01*
X016898Y005437D01*
X016898Y005337D01*
X016948Y005287D01*
X016948Y004926D01*
X016948Y004387D01*
X017148Y004187D01*
X017529Y003806D01*
X017940Y003806D01*
X017965Y003781D01*
X018431Y003781D01*
X018456Y003806D01*
X018617Y003806D01*
X018998Y004187D01*
X018998Y004737D01*
X018998Y005287D01*
X018998Y005787D01*
X018998Y006326D01*
X018998Y006376D01*
X018998Y006876D01*
X018998Y007387D01*
X019098Y007487D01*
X019098Y008326D01*
X019098Y009337D01*
X019873Y010112D01*
X019979Y010006D01*
X020766Y010006D01*
X020736Y009976D01*
X020466Y009706D01*
X020179Y009706D01*
X020129Y009706D01*
X020079Y009706D01*
X019679Y009706D01*
X019655Y009683D01*
X019629Y009683D01*
X019248Y009302D01*
X019248Y008764D01*
X019298Y008714D01*
X019298Y007637D01*
X019298Y007511D01*
X019679Y007130D01*
X019729Y007130D01*
X020155Y007130D01*
X020179Y007106D01*
X020717Y007106D01*
X020808Y007197D01*
X021128Y007197D01*
X021188Y007256D01*
X021208Y007256D01*
X021268Y007197D01*
X021628Y007197D01*
X021688Y007256D01*
X022517Y007256D01*
X022898Y007637D01*
X022898Y007677D01*
X022958Y007737D01*
X022958Y008076D01*
X022898Y008136D01*
X022898Y008176D01*
X022887Y008186D01*
X023486Y008186D01*
X023680Y008186D01*
X023710Y008186D01*
X023770Y008247D01*
X023830Y008286D01*
X023860Y008286D01*
X023920Y008347D01*
X023972Y008399D01*
X024018Y008445D01*
X024018Y008647D01*
X024068Y008597D01*
X024428Y008597D01*
X024498Y008667D01*
X024568Y008597D01*
X024928Y008597D01*
X025016Y008685D01*
X025016Y009066D01*
X025018Y009068D01*
X025018Y009095D01*
X025068Y009145D01*
X025118Y009195D01*
X025118Y009251D01*
X025643Y009776D01*
X027353Y009776D01*
X027543Y009776D01*
X027678Y009911D01*
X027678Y009911D01*
X027843Y010076D01*
X028661Y010076D01*
X028603Y010019D01*
X028603Y009944D01*
X028528Y009868D01*
X028436Y009776D01*
X026736Y009776D01*
X026578Y009618D01*
X026478Y009518D01*
X026478Y009456D01*
X026267Y009456D01*
X025729Y009456D01*
X025679Y009406D01*
X025638Y009366D01*
X025568Y009366D01*
X025480Y009278D01*
X025480Y009208D01*
X025298Y009026D01*
X025298Y007976D01*
X025148Y007826D01*
X025148Y007526D01*
X025098Y007476D01*
X025098Y006937D01*
X025174Y006861D01*
X025174Y006827D01*
X025173Y006826D01*
X025173Y006352D01*
X024818Y005997D01*
X024818Y005516D01*
X024818Y005047D01*
X024743Y004972D01*
X024743Y004872D01*
X024743Y004391D01*
X024835Y004299D01*
X024835Y004111D01*
X025165Y003781D01*
X025631Y003781D01*
X025165Y003782D02*
X023631Y003782D01*
X023730Y003880D02*
X025066Y003880D01*
X024968Y003979D02*
X023828Y003979D01*
X023927Y004077D02*
X024869Y004077D01*
X024835Y004176D02*
X023960Y004176D01*
X023960Y004274D02*
X024835Y004274D01*
X024761Y004373D02*
X023978Y004373D01*
X023978Y004471D02*
X024743Y004471D01*
X024743Y004570D02*
X023978Y004570D01*
X023978Y004669D02*
X024743Y004669D01*
X024743Y004767D02*
X023978Y004767D01*
X023978Y004866D02*
X024743Y004866D01*
X024743Y004964D02*
X023978Y004964D01*
X023960Y005063D02*
X024818Y005063D01*
X024818Y005161D02*
X023960Y005161D01*
X023960Y005260D02*
X024818Y005260D01*
X024818Y005358D02*
X023960Y005358D01*
X023905Y005457D02*
X024818Y005457D01*
X024818Y005555D02*
X024329Y005555D01*
X024393Y005620D02*
X024393Y005620D01*
X024427Y005654D02*
X024818Y005654D01*
X024818Y005753D02*
X024515Y005753D01*
X024605Y005851D02*
X024818Y005851D01*
X024818Y005950D02*
X024695Y005950D01*
X024786Y006048D02*
X024870Y006048D01*
X024876Y006147D02*
X024968Y006147D01*
X024969Y006245D02*
X025067Y006245D01*
X025018Y006344D02*
X025165Y006344D01*
X025173Y006442D02*
X025018Y006442D01*
X025018Y006541D02*
X025173Y006541D01*
X025173Y006639D02*
X025018Y006639D01*
X025018Y006738D02*
X025173Y006738D01*
X025174Y006837D02*
X025018Y006837D01*
X025018Y006935D02*
X025100Y006935D01*
X025098Y007034D02*
X025018Y007034D01*
X025018Y007132D02*
X025098Y007132D01*
X025098Y007231D02*
X025018Y007231D01*
X025016Y007329D02*
X025098Y007329D01*
X025098Y007428D02*
X025016Y007428D01*
X025016Y007526D02*
X025148Y007526D01*
X025148Y007625D02*
X025016Y007625D01*
X025148Y007723D02*
X022945Y007723D01*
X022958Y007822D02*
X025148Y007822D01*
X025243Y007921D02*
X022958Y007921D01*
X022958Y008019D02*
X025298Y008019D01*
X025298Y008118D02*
X022917Y008118D01*
X022648Y007906D02*
X022548Y007906D01*
X022248Y007906D01*
X022787Y007526D02*
X022980Y007526D01*
X022980Y007428D02*
X022689Y007428D01*
X022590Y007329D02*
X022980Y007329D01*
X022980Y007231D02*
X021662Y007231D01*
X021234Y007231D02*
X021162Y007231D01*
X020743Y007132D02*
X022980Y007132D01*
X022980Y007034D02*
X018998Y007034D01*
X018998Y007132D02*
X019677Y007132D01*
X019578Y007231D02*
X018998Y007231D01*
X018998Y007329D02*
X019480Y007329D01*
X019381Y007428D02*
X019039Y007428D01*
X019098Y007526D02*
X019298Y007526D01*
X019298Y007625D02*
X019098Y007625D01*
X019098Y007723D02*
X019298Y007723D01*
X019298Y007822D02*
X019098Y007822D01*
X019098Y007921D02*
X019298Y007921D01*
X019298Y008019D02*
X019098Y008019D01*
X019098Y008118D02*
X019298Y008118D01*
X019298Y008216D02*
X019098Y008216D01*
X019098Y008315D02*
X019298Y008315D01*
X019298Y008413D02*
X019098Y008413D01*
X019098Y008512D02*
X019298Y008512D01*
X019298Y008610D02*
X019098Y008610D01*
X019098Y008709D02*
X019298Y008709D01*
X019248Y008807D02*
X019098Y008807D01*
X019098Y008906D02*
X019248Y008906D01*
X019248Y009004D02*
X019098Y009004D01*
X019098Y009103D02*
X019248Y009103D01*
X019248Y009202D02*
X019098Y009202D01*
X019098Y009300D02*
X019248Y009300D01*
X019159Y009399D02*
X019345Y009399D01*
X019258Y009497D02*
X019443Y009497D01*
X019356Y009596D02*
X019542Y009596D01*
X019455Y009694D02*
X019667Y009694D01*
X019554Y009793D02*
X020553Y009793D01*
X020651Y009891D02*
X019652Y009891D01*
X019751Y009990D02*
X020750Y009990D01*
X020736Y009976D02*
X020736Y009976D01*
X020198Y010231D02*
X020248Y010656D01*
X019897Y010088D02*
X019849Y010088D01*
X018742Y009951D02*
X018448Y009656D01*
X018473Y009631D01*
X018642Y010012D02*
X018742Y009951D01*
X018208Y010286D02*
X015946Y010286D01*
X015853Y010384D02*
X018306Y010384D01*
X018405Y010483D02*
X015759Y010483D01*
X015665Y010581D02*
X018503Y010581D01*
X018602Y010680D02*
X015571Y010680D01*
X015477Y010778D02*
X018701Y010778D01*
X018799Y010877D02*
X015383Y010877D01*
X015298Y010966D02*
X015298Y011476D01*
X015248Y011526D01*
X015248Y011626D01*
X014117Y012756D01*
X013579Y012756D01*
X011567Y012756D01*
X011029Y012756D01*
X010329Y012056D01*
X010329Y012056D01*
X010302Y012030D01*
X009654Y012030D01*
X010481Y012856D01*
X014215Y012856D01*
X015348Y011724D01*
X015348Y011539D01*
X015348Y011374D01*
X015548Y011174D01*
X015548Y011174D01*
X015665Y011056D01*
X018681Y011056D01*
X018798Y011174D01*
X019481Y011856D01*
X021065Y011856D01*
X021231Y011856D01*
X021281Y011906D01*
X022715Y011906D01*
X022865Y011756D01*
X021979Y011756D01*
X021952Y011730D01*
X021705Y011730D01*
X021667Y011730D01*
X020629Y011730D01*
X020129Y011730D01*
X019629Y011730D01*
X019248Y011349D01*
X019248Y011326D01*
X017823Y009901D01*
X017798Y009876D01*
X017798Y009337D01*
X017798Y008326D01*
X017798Y008026D01*
X017698Y007926D01*
X017698Y007876D01*
X016798Y008776D01*
X016417Y009156D01*
X016367Y009156D01*
X016298Y009226D01*
X016298Y009387D01*
X016298Y009916D01*
X016298Y009926D01*
X016113Y010111D01*
X015298Y010966D01*
X015298Y010975D02*
X018898Y010975D01*
X018996Y011074D02*
X018698Y011074D01*
X018797Y011172D02*
X019095Y011172D01*
X019193Y011271D02*
X018895Y011271D01*
X018798Y011174D02*
X018798Y011174D01*
X018598Y011256D02*
X019398Y012056D01*
X021148Y012056D01*
X021198Y012106D01*
X022798Y012106D01*
X023098Y011806D01*
X024348Y011806D01*
X024748Y012206D01*
X024748Y012756D01*
X024998Y013006D01*
X024810Y013143D02*
X024118Y013143D01*
X024216Y013242D02*
X025058Y013242D01*
X025157Y013340D02*
X024315Y013340D01*
X024248Y013556D02*
X024698Y013556D01*
X025098Y014006D01*
X025448Y014030D02*
X025618Y014030D01*
X025618Y013932D02*
X025448Y013932D01*
X025420Y013833D02*
X025618Y013833D01*
X025551Y013735D02*
X025321Y013735D01*
X025452Y013636D02*
X025036Y013636D01*
X024949Y013537D02*
X025354Y013537D01*
X025255Y013439D02*
X024863Y013439D01*
X024676Y013833D02*
X022248Y013833D01*
X022248Y013735D02*
X024143Y013735D01*
X024045Y013636D02*
X022248Y013636D01*
X022248Y013537D02*
X023946Y013537D01*
X023848Y013439D02*
X022248Y013439D01*
X022248Y013340D02*
X023749Y013340D01*
X023651Y013242D02*
X022307Y013242D01*
X022398Y013143D02*
X023552Y013143D01*
X023453Y013045D02*
X022398Y013045D01*
X022398Y012946D02*
X023355Y012946D01*
X023095Y012848D02*
X022384Y012848D01*
X022286Y012749D02*
X023036Y012749D01*
X023036Y012651D02*
X017548Y012651D01*
X017548Y012749D02*
X021810Y012749D01*
X021712Y012848D02*
X021684Y012848D01*
X021312Y012848D02*
X019855Y012848D01*
X019953Y012946D02*
X021213Y012946D01*
X021148Y013045D02*
X020048Y013045D01*
X020048Y013143D02*
X021148Y013143D01*
X021148Y013242D02*
X020048Y013242D01*
X020048Y013340D02*
X021187Y013340D01*
X021286Y013439D02*
X019981Y013439D01*
X019883Y013537D02*
X021596Y013537D01*
X021648Y013636D02*
X018648Y013636D01*
X018648Y013537D02*
X018763Y013537D01*
X018665Y013439D02*
X018648Y013439D01*
X018448Y013406D02*
X018248Y013206D01*
X014948Y013206D01*
X014448Y013706D01*
X013298Y013706D01*
X013098Y013906D01*
X012698Y013906D01*
X012248Y013456D01*
X010498Y013456D01*
X009898Y014056D01*
X007248Y014056D01*
X004048Y010856D01*
X003498Y010856D01*
X003098Y010456D01*
X003098Y007906D01*
X003548Y007456D01*
X003548Y007433D01*
X004048Y007433D02*
X004048Y007106D01*
X003748Y006806D01*
X003248Y006806D01*
X002898Y007156D01*
X002898Y010606D01*
X003348Y011056D01*
X003898Y011056D01*
X007098Y014256D01*
X010048Y014256D01*
X010648Y013656D01*
X012098Y013656D01*
X012548Y014106D01*
X013298Y014106D01*
X013498Y013906D01*
X014598Y013906D01*
X015098Y013406D01*
X018048Y013406D01*
X018148Y013506D01*
X018148Y014556D01*
X018148Y014906D02*
X017848Y014906D01*
X017648Y014756D01*
X017648Y014106D01*
X017798Y013956D01*
X017798Y013856D01*
X017823Y013856D01*
X017173Y013856D02*
X017098Y013856D01*
X017073Y013856D01*
X017098Y013856D02*
X017148Y013906D01*
X017123Y013932D01*
X017148Y013956D01*
X016748Y013956D01*
X016723Y013931D01*
X016723Y013906D01*
X016403Y013932D02*
X014856Y013932D01*
X014954Y013833D02*
X016403Y013833D01*
X016403Y013735D02*
X015053Y013735D01*
X015151Y013636D02*
X016411Y013636D01*
X016403Y014030D02*
X014757Y014030D01*
X014293Y014356D02*
X014498Y014561D01*
X014498Y014656D01*
X014743Y014656D01*
X014948Y014861D01*
X014948Y015151D01*
X014743Y015356D01*
X014531Y015356D01*
X014198Y015689D01*
X014198Y015689D01*
X014081Y015806D01*
X013498Y015806D01*
X013498Y015914D01*
X013410Y016002D01*
X012886Y016002D01*
X012873Y015989D01*
X012805Y016056D01*
X012340Y016056D01*
X012253Y015969D01*
X012253Y015444D01*
X012290Y015406D01*
X012253Y015369D01*
X012253Y014844D01*
X012340Y014756D01*
X012805Y014756D01*
X012873Y014824D01*
X012886Y014811D01*
X013410Y014811D01*
X013498Y014899D01*
X013498Y014906D01*
X013665Y014906D01*
X013798Y014774D01*
X013798Y014561D01*
X014003Y014356D01*
X014293Y014356D01*
X014361Y014424D02*
X016948Y014424D01*
X016948Y014326D02*
X010261Y014326D01*
X010163Y014424D02*
X013935Y014424D01*
X013837Y014523D02*
X005593Y014523D01*
X005593Y014519D02*
X005593Y015019D01*
X005505Y015106D01*
X005041Y015106D01*
X004967Y015032D01*
X004893Y015106D01*
X004603Y015106D01*
X004398Y014901D01*
X004398Y014611D01*
X004528Y014481D01*
X004398Y014351D01*
X004398Y014189D01*
X003048Y012839D01*
X003048Y012674D01*
X003048Y012651D01*
X002848Y012451D01*
X002848Y012161D01*
X003053Y011956D01*
X003343Y011956D01*
X003548Y012161D01*
X003548Y012451D01*
X003448Y012551D01*
X003448Y012674D01*
X004631Y013856D01*
X004893Y013856D01*
X004992Y013956D01*
X005041Y013906D01*
X005505Y013906D01*
X005593Y013994D01*
X005593Y014219D01*
X005648Y014274D01*
X005648Y014439D01*
X005593Y014494D01*
X005593Y014519D01*
X005593Y014621D02*
X013798Y014621D01*
X013798Y014720D02*
X005593Y014720D01*
X005593Y014819D02*
X009829Y014819D01*
X009803Y014844D02*
X009891Y014756D01*
X010355Y014756D01*
X010443Y014844D01*
X010443Y015369D01*
X010405Y015406D01*
X010443Y015444D01*
X010443Y015969D01*
X010355Y016056D01*
X009891Y016056D01*
X009803Y015969D01*
X009803Y015956D01*
X009681Y015956D01*
X009515Y015956D01*
X009215Y015656D01*
X009131Y015656D01*
X008998Y015789D01*
X008998Y016424D01*
X009281Y016706D01*
X009493Y016706D01*
X009698Y016911D01*
X009698Y017201D01*
X009493Y017406D01*
X009203Y017406D01*
X009098Y017301D01*
X008993Y017406D01*
X008703Y017406D01*
X008498Y017201D01*
X008498Y016989D01*
X008398Y016889D01*
X008398Y015524D01*
X008515Y015406D01*
X009015Y014906D01*
X009181Y014906D01*
X009803Y014906D01*
X009803Y014844D01*
X010123Y015106D02*
X009098Y015106D01*
X008598Y015606D01*
X008598Y016806D01*
X008848Y017056D01*
X008498Y017085D02*
X008359Y017085D01*
X008261Y016986D02*
X008495Y016986D01*
X008398Y016888D02*
X008162Y016888D01*
X008148Y016789D02*
X008398Y016789D01*
X008398Y016691D02*
X008148Y016691D01*
X008148Y016592D02*
X008398Y016592D01*
X008398Y016494D02*
X008148Y016494D01*
X008148Y016395D02*
X008398Y016395D01*
X008398Y016297D02*
X008148Y016297D01*
X008148Y016198D02*
X008398Y016198D01*
X008398Y016100D02*
X008124Y016100D01*
X008025Y016001D02*
X008398Y016001D01*
X008398Y015903D02*
X007927Y015903D01*
X007828Y015804D02*
X008398Y015804D01*
X008398Y015705D02*
X007730Y015705D01*
X007631Y015607D02*
X008398Y015607D01*
X008413Y015508D02*
X007533Y015508D01*
X007434Y015410D02*
X008512Y015410D01*
X008610Y015311D02*
X007348Y015311D01*
X007348Y015213D02*
X008709Y015213D01*
X008807Y015114D02*
X007348Y015114D01*
X007252Y015016D02*
X008906Y015016D01*
X009004Y014917D02*
X007154Y014917D01*
X006842Y014917D02*
X005593Y014917D01*
X005593Y015016D02*
X006744Y015016D01*
X006648Y015114D02*
X002598Y015114D01*
X002598Y015016D02*
X004512Y015016D01*
X004414Y014917D02*
X002598Y014917D01*
X002598Y014819D02*
X004398Y014819D01*
X004398Y014720D02*
X002598Y014720D01*
X002598Y014621D02*
X004398Y014621D01*
X004487Y014523D02*
X002598Y014523D01*
X002598Y014424D02*
X004471Y014424D01*
X004398Y014326D02*
X002598Y014326D01*
X002598Y014227D02*
X004398Y014227D01*
X004337Y014129D02*
X002598Y014129D01*
X002598Y014030D02*
X004239Y014030D01*
X004140Y013932D02*
X002598Y013932D01*
X002598Y013833D02*
X004042Y013833D01*
X003943Y013735D02*
X002598Y013735D01*
X002598Y013636D02*
X003845Y013636D01*
X003746Y013537D02*
X002598Y013537D01*
X002598Y013439D02*
X003648Y013439D01*
X003549Y013340D02*
X002598Y013340D01*
X002598Y013242D02*
X003451Y013242D01*
X003352Y013143D02*
X002598Y013143D01*
X002598Y013045D02*
X003253Y013045D01*
X003155Y012946D02*
X002598Y012946D01*
X002598Y012848D02*
X003056Y012848D01*
X003048Y012749D02*
X002598Y012749D01*
X002598Y012651D02*
X003047Y012651D01*
X002949Y012552D02*
X002598Y012552D01*
X002598Y012454D02*
X002850Y012454D01*
X002848Y012355D02*
X002598Y012355D01*
X002598Y012256D02*
X002848Y012256D01*
X002852Y012158D02*
X002598Y012158D01*
X002598Y012059D02*
X002950Y012059D01*
X003049Y011961D02*
X002598Y011961D01*
X002598Y011862D02*
X004421Y011862D01*
X004322Y011764D02*
X002598Y011764D01*
X002598Y011665D02*
X004224Y011665D01*
X004125Y011567D02*
X002598Y011567D01*
X002598Y011468D02*
X004027Y011468D01*
X003928Y011370D02*
X002598Y011370D01*
X002598Y011271D02*
X003830Y011271D01*
X004351Y010877D02*
X005448Y010877D01*
X005448Y010975D02*
X004450Y010975D01*
X004548Y011074D02*
X005448Y011074D01*
X005448Y011172D02*
X004647Y011172D01*
X004745Y011271D02*
X005448Y011271D01*
X005448Y011370D02*
X004844Y011370D01*
X004942Y011468D02*
X005448Y011468D01*
X005448Y011567D02*
X005041Y011567D01*
X005139Y011665D02*
X005448Y011665D01*
X005448Y011764D02*
X005238Y011764D01*
X005337Y011862D02*
X005521Y011862D01*
X005565Y011906D02*
X005448Y011789D01*
X005448Y010689D01*
X005410Y010652D01*
X004886Y010652D01*
X004798Y010564D01*
X004798Y010288D01*
X004743Y010344D01*
X004743Y010569D01*
X004655Y010656D01*
X004190Y010656D01*
X004103Y010569D01*
X004103Y010063D01*
X004093Y010063D01*
X004093Y010569D01*
X004005Y010656D01*
X003581Y010656D01*
X004131Y010656D01*
X004248Y010774D01*
X007331Y013856D01*
X009815Y013856D01*
X010415Y013256D01*
X010581Y013256D01*
X012331Y013256D01*
X012448Y013374D01*
X012548Y013474D01*
X012548Y013311D01*
X012603Y013256D01*
X010315Y013256D01*
X010198Y013139D01*
X009465Y012406D01*
X008810Y012406D01*
X008810Y012637D01*
X008722Y012725D01*
X008361Y012725D01*
X008274Y012637D01*
X008274Y012406D01*
X008022Y012406D01*
X008022Y012637D01*
X007934Y012725D01*
X007574Y012725D01*
X007486Y012637D01*
X007486Y012406D01*
X006065Y012406D01*
X005948Y012289D01*
X005565Y011906D01*
X005565Y011906D01*
X005620Y011961D02*
X005435Y011961D01*
X005534Y012059D02*
X005718Y012059D01*
X005632Y012158D02*
X005817Y012158D01*
X005731Y012256D02*
X005915Y012256D01*
X005829Y012355D02*
X006014Y012355D01*
X005928Y012454D02*
X007486Y012454D01*
X007486Y012552D02*
X006026Y012552D01*
X006125Y012651D02*
X007499Y012651D01*
X007574Y012788D02*
X007934Y012788D01*
X008022Y012875D01*
X008022Y013189D01*
X007974Y013237D01*
X008048Y013311D01*
X008048Y013601D01*
X007843Y013806D01*
X007553Y013806D01*
X007348Y013601D01*
X007348Y013311D01*
X007486Y013173D01*
X007486Y012875D01*
X007574Y012788D01*
X007514Y012848D02*
X006322Y012848D01*
X006421Y012946D02*
X007486Y012946D01*
X007486Y013045D02*
X006519Y013045D01*
X006618Y013143D02*
X007486Y013143D01*
X007418Y013242D02*
X006716Y013242D01*
X006815Y013340D02*
X007348Y013340D01*
X007348Y013439D02*
X006913Y013439D01*
X007012Y013537D02*
X007348Y013537D01*
X007383Y013636D02*
X007110Y013636D01*
X007209Y013735D02*
X007481Y013735D01*
X007307Y013833D02*
X008780Y013833D01*
X008803Y013856D02*
X008598Y013651D01*
X008598Y013389D01*
X008485Y013276D01*
X008361Y013276D01*
X008274Y013189D01*
X008274Y012875D01*
X008361Y012788D01*
X008722Y012788D01*
X008810Y012875D01*
X008810Y013035D01*
X008931Y013156D01*
X009093Y013156D01*
X009298Y013361D01*
X009298Y013651D01*
X009093Y013856D01*
X008803Y013856D01*
X008681Y013735D02*
X007915Y013735D01*
X008013Y013636D02*
X008598Y013636D01*
X008598Y013537D02*
X008048Y013537D01*
X008048Y013439D02*
X008598Y013439D01*
X008549Y013340D02*
X008048Y013340D01*
X007978Y013242D02*
X008327Y013242D01*
X008274Y013143D02*
X008022Y013143D01*
X008022Y013045D02*
X008274Y013045D01*
X008274Y012946D02*
X008022Y012946D01*
X007995Y012848D02*
X008301Y012848D01*
X008287Y012651D02*
X008009Y012651D01*
X008022Y012552D02*
X008274Y012552D01*
X008274Y012454D02*
X008022Y012454D01*
X008810Y012454D02*
X009512Y012454D01*
X009611Y012552D02*
X008810Y012552D01*
X008797Y012651D02*
X009709Y012651D01*
X009808Y012749D02*
X006223Y012749D01*
X005603Y013045D02*
X003819Y013045D01*
X003918Y013143D02*
X005702Y013143D01*
X005801Y013242D02*
X004016Y013242D01*
X004115Y013340D02*
X005899Y013340D01*
X005998Y013439D02*
X004213Y013439D01*
X004312Y013537D02*
X006096Y013537D01*
X006195Y013636D02*
X004410Y013636D01*
X004509Y013735D02*
X006293Y013735D01*
X006392Y013833D02*
X004607Y013833D01*
X004968Y013932D02*
X005016Y013932D01*
X005248Y014206D02*
X005273Y014232D01*
X005273Y014256D01*
X005298Y014256D01*
X005398Y014356D01*
X005448Y014356D01*
X005298Y014256D02*
X005248Y014206D01*
X004748Y014206D01*
X004698Y014206D01*
X003248Y012756D01*
X003248Y012506D01*
X003198Y012306D01*
X003446Y012059D02*
X004618Y012059D01*
X004519Y011961D02*
X003347Y011961D01*
X003544Y012158D02*
X004717Y012158D01*
X004815Y012256D02*
X003548Y012256D01*
X003548Y012355D02*
X004914Y012355D01*
X005012Y012454D02*
X003546Y012454D01*
X003448Y012552D02*
X005111Y012552D01*
X005209Y012651D02*
X003448Y012651D01*
X003523Y012749D02*
X005308Y012749D01*
X005406Y012848D02*
X003622Y012848D01*
X003721Y012946D02*
X005505Y012946D01*
X006148Y012206D02*
X009548Y012206D01*
X010398Y013056D01*
X014298Y013056D01*
X015548Y011806D01*
X015548Y011456D01*
X015748Y011256D01*
X018598Y011256D01*
X018515Y011456D02*
X019115Y012056D01*
X018665Y012056D01*
X015581Y012056D01*
X015631Y012006D01*
X015748Y011889D01*
X015748Y011539D01*
X015831Y011456D01*
X018515Y011456D01*
X018527Y011468D02*
X015819Y011468D01*
X015748Y011567D02*
X018625Y011567D01*
X018724Y011665D02*
X015748Y011665D01*
X015748Y011764D02*
X018822Y011764D01*
X018921Y011862D02*
X015748Y011862D01*
X015676Y011961D02*
X019020Y011961D01*
X018798Y012256D02*
X018748Y012256D01*
X021048Y012256D01*
X021098Y012306D01*
X022998Y012306D01*
X023048Y012356D01*
X023598Y012356D01*
X023848Y012606D01*
X024098Y012606D01*
X024092Y012613D01*
X024092Y012632D01*
X024360Y012651D02*
X024548Y012651D01*
X024548Y012749D02*
X024360Y012749D01*
X024301Y012848D02*
X024556Y012848D01*
X024655Y012946D02*
X023920Y012946D01*
X023883Y012848D02*
X023822Y012848D01*
X024019Y013045D02*
X024754Y013045D01*
X024665Y012956D02*
X024665Y012956D01*
X024548Y012552D02*
X024360Y012552D01*
X024338Y012454D02*
X024548Y012454D01*
X024548Y012355D02*
X023879Y012355D01*
X023842Y012256D02*
X023781Y012256D01*
X023824Y012158D02*
X023682Y012158D01*
X023572Y012059D02*
X023824Y012059D01*
X024360Y012158D02*
X024417Y012158D01*
X024341Y012256D02*
X024515Y012256D01*
X025418Y012926D02*
X025658Y012686D01*
X025658Y011827D01*
X025588Y011756D01*
X025979Y011756D01*
X026054Y011756D01*
X026148Y011756D01*
X026148Y011814D01*
X026236Y011902D01*
X026760Y011902D01*
X026848Y011814D01*
X026848Y011756D01*
X026867Y011756D01*
X027210Y011413D01*
X027428Y011413D01*
X027516Y011325D01*
X027516Y010946D01*
X027523Y010939D01*
X027523Y010774D01*
X027516Y010767D01*
X027516Y010450D01*
X028968Y011902D01*
X028968Y014661D01*
X028723Y014906D01*
X028673Y014906D01*
X028643Y014876D01*
X026643Y014876D01*
X026078Y014311D01*
X026078Y013802D01*
X026078Y013611D01*
X025393Y012926D01*
X025418Y012926D01*
X025413Y012946D02*
X028968Y012946D01*
X028968Y012848D02*
X025496Y012848D01*
X025595Y012749D02*
X028968Y012749D01*
X028968Y012651D02*
X025658Y012651D01*
X025658Y012552D02*
X028968Y012552D01*
X028968Y012454D02*
X025658Y012454D01*
X025658Y012355D02*
X028968Y012355D01*
X028968Y012256D02*
X025658Y012256D01*
X025658Y012158D02*
X028968Y012158D01*
X028968Y012059D02*
X025658Y012059D01*
X025658Y011961D02*
X028968Y011961D01*
X028929Y011862D02*
X026800Y011862D01*
X026848Y011764D02*
X028830Y011764D01*
X028731Y011665D02*
X026958Y011665D01*
X027057Y011567D02*
X028633Y011567D01*
X028534Y011468D02*
X027156Y011468D01*
X027472Y011370D02*
X028436Y011370D01*
X028337Y011271D02*
X027516Y011271D01*
X027516Y011172D02*
X028239Y011172D01*
X028140Y011074D02*
X027516Y011074D01*
X027516Y010975D02*
X028042Y010975D01*
X027943Y010877D02*
X027523Y010877D01*
X027523Y010778D02*
X027845Y010778D01*
X027746Y010680D02*
X027516Y010680D01*
X027516Y010581D02*
X027647Y010581D01*
X027549Y010483D02*
X027516Y010483D01*
X028298Y010581D02*
X032267Y010581D01*
X032247Y010483D02*
X030047Y010483D01*
X030146Y010384D02*
X032194Y010384D01*
X032194Y010286D02*
X030244Y010286D01*
X030343Y010187D02*
X032268Y010187D01*
X032202Y010088D02*
X030441Y010088D01*
X030872Y009990D02*
X032194Y009990D01*
X032194Y009891D02*
X030898Y009891D01*
X030898Y009793D02*
X032194Y009793D01*
X032214Y009694D02*
X030898Y009694D01*
X030898Y009596D02*
X032313Y009596D01*
X032255Y009497D02*
X030895Y009497D01*
X030628Y009399D02*
X032194Y009399D01*
X032194Y009300D02*
X030641Y009300D01*
X030666Y009202D02*
X032194Y009202D01*
X032194Y009103D02*
X030666Y009103D01*
X030666Y009004D02*
X032194Y009004D01*
X032260Y008906D02*
X030666Y008906D01*
X030666Y008807D02*
X032293Y008807D01*
X032293Y008709D02*
X030666Y008709D01*
X030666Y008610D02*
X032293Y008610D01*
X032293Y008512D02*
X030666Y008512D01*
X030666Y008413D02*
X032293Y008413D01*
X032254Y008315D02*
X030666Y008315D01*
X030597Y008216D02*
X032194Y008216D01*
X032194Y008118D02*
X029641Y008118D01*
X029668Y008216D02*
X029699Y008216D01*
X029542Y008019D02*
X032194Y008019D01*
X032194Y007921D02*
X029444Y007921D01*
X029936Y007826D02*
X027760Y007826D01*
X027758Y007825D01*
X027376Y007825D01*
X027289Y007737D01*
X027289Y007376D01*
X027358Y007306D01*
X027289Y007237D01*
X027289Y007016D01*
X027248Y006976D01*
X027248Y006852D01*
X027222Y006826D01*
X027222Y006649D01*
X026898Y006326D01*
X026898Y005555D01*
X026818Y005475D01*
X026818Y004656D01*
X026803Y004656D01*
X026598Y004451D01*
X026598Y004161D01*
X026803Y003956D01*
X027093Y003956D01*
X027298Y004161D01*
X027298Y004409D01*
X027817Y004409D01*
X027867Y004409D01*
X028013Y004554D01*
X028290Y004554D01*
X028378Y004642D01*
X028378Y005475D01*
X028307Y005546D01*
X028548Y005787D01*
X028548Y006826D01*
X028548Y006976D01*
X028455Y007069D01*
X028455Y007237D01*
X028405Y007286D01*
X028688Y007286D01*
X028630Y007228D01*
X028630Y006238D01*
X028698Y006169D01*
X028698Y006151D01*
X028548Y006001D01*
X028548Y005711D01*
X028753Y005506D01*
X029043Y005506D01*
X029148Y005612D01*
X029253Y005506D01*
X029543Y005506D01*
X029748Y005711D01*
X029748Y006001D01*
X029598Y006151D01*
X029598Y006169D01*
X029666Y006238D01*
X029666Y007228D01*
X029608Y007286D01*
X029936Y007286D01*
X030128Y007095D01*
X030128Y006621D01*
X030130Y006619D01*
X030130Y006238D01*
X030218Y006150D01*
X030578Y006150D01*
X030666Y006238D01*
X030666Y006619D01*
X030668Y006621D01*
X030668Y007318D01*
X030510Y007476D01*
X030160Y007826D01*
X029936Y007826D01*
X030164Y007822D02*
X032194Y007822D01*
X032261Y007723D02*
X030263Y007723D01*
X030361Y007625D02*
X032209Y007625D01*
X032194Y007526D02*
X030460Y007526D01*
X030558Y007428D02*
X032194Y007428D01*
X032194Y007329D02*
X030657Y007329D01*
X030668Y007231D02*
X032207Y007231D01*
X032244Y007132D02*
X030668Y007132D01*
X030668Y007034D02*
X032146Y007034D01*
X032096Y006935D02*
X030668Y006935D01*
X030668Y006837D02*
X032096Y006837D01*
X032172Y006738D02*
X030668Y006738D01*
X030668Y006639D02*
X032270Y006639D01*
X032216Y006694D02*
X032216Y006694D01*
X032199Y006541D02*
X030666Y006541D01*
X030666Y006442D02*
X032194Y006442D01*
X032194Y006344D02*
X030666Y006344D01*
X030666Y006245D02*
X032194Y006245D01*
X032217Y006147D02*
X029603Y006147D01*
X029666Y006245D02*
X030130Y006245D01*
X030130Y006344D02*
X029666Y006344D01*
X029666Y006442D02*
X030130Y006442D01*
X030130Y006541D02*
X029666Y006541D01*
X029666Y006639D02*
X030128Y006639D01*
X030128Y006738D02*
X029666Y006738D01*
X029666Y006837D02*
X030128Y006837D01*
X030128Y006935D02*
X029666Y006935D01*
X029666Y007034D02*
X030128Y007034D01*
X030090Y007132D02*
X029666Y007132D01*
X029663Y007231D02*
X029992Y007231D01*
X029398Y006733D02*
X029398Y005856D01*
X029748Y005851D02*
X031997Y005851D01*
X031997Y005950D02*
X029748Y005950D01*
X029701Y006048D02*
X032056Y006048D01*
X032065Y005753D02*
X029748Y005753D01*
X029690Y005654D02*
X032055Y005654D01*
X031997Y005555D02*
X029592Y005555D01*
X029204Y005555D02*
X029092Y005555D01*
X028898Y005856D02*
X028898Y006733D01*
X028630Y006738D02*
X028548Y006738D01*
X028548Y006837D02*
X028630Y006837D01*
X028630Y006935D02*
X028548Y006935D01*
X028490Y007034D02*
X028630Y007034D01*
X028630Y007132D02*
X028455Y007132D01*
X028455Y007231D02*
X028633Y007231D01*
X028152Y007921D02*
X026598Y007921D01*
X026598Y008019D02*
X028054Y008019D01*
X027955Y008118D02*
X026598Y008118D01*
X026598Y007822D02*
X027374Y007822D01*
X027289Y007723D02*
X026598Y007723D01*
X026598Y007625D02*
X027289Y007625D01*
X027289Y007526D02*
X026598Y007526D01*
X026598Y007428D02*
X027289Y007428D01*
X027335Y007329D02*
X026598Y007329D01*
X026598Y007231D02*
X027289Y007231D01*
X027289Y007132D02*
X026598Y007132D01*
X026598Y007034D02*
X027289Y007034D01*
X027248Y006935D02*
X026598Y006935D01*
X026598Y006837D02*
X027232Y006837D01*
X027222Y006738D02*
X026598Y006738D01*
X026598Y006639D02*
X027212Y006639D01*
X027113Y006541D02*
X026598Y006541D01*
X026598Y006442D02*
X027015Y006442D01*
X026916Y006344D02*
X026598Y006344D01*
X026598Y006245D02*
X026898Y006245D01*
X026898Y006147D02*
X026598Y006147D01*
X026598Y006048D02*
X026898Y006048D01*
X026898Y005950D02*
X026598Y005950D01*
X026598Y005851D02*
X026898Y005851D01*
X026898Y005753D02*
X026598Y005753D01*
X026598Y005654D02*
X026898Y005654D01*
X026898Y005555D02*
X026598Y005555D01*
X026598Y005457D02*
X026818Y005457D01*
X026818Y005358D02*
X026598Y005358D01*
X026598Y005260D02*
X026818Y005260D01*
X026818Y005161D02*
X026598Y005161D01*
X026598Y005063D02*
X026818Y005063D01*
X026818Y004964D02*
X026598Y004964D01*
X026598Y004866D02*
X026818Y004866D01*
X026717Y004570D02*
X026578Y004570D01*
X026578Y004471D02*
X026618Y004471D01*
X026598Y004373D02*
X026578Y004373D01*
X026598Y004274D02*
X026486Y004274D01*
X026438Y004176D02*
X026598Y004176D01*
X026682Y004077D02*
X026339Y004077D01*
X026240Y003979D02*
X026781Y003979D01*
X027115Y003979D02*
X032998Y003979D01*
X032998Y004077D02*
X027214Y004077D01*
X027298Y004176D02*
X032998Y004176D01*
X032998Y004274D02*
X027298Y004274D01*
X027298Y004373D02*
X032998Y004373D01*
X032998Y004471D02*
X027930Y004471D01*
X028306Y004570D02*
X032998Y004570D01*
X032998Y004669D02*
X028378Y004669D01*
X028378Y004767D02*
X032998Y004767D01*
X032998Y004866D02*
X028378Y004866D01*
X028378Y004964D02*
X032998Y004964D01*
X032998Y005063D02*
X028378Y005063D01*
X028378Y005161D02*
X032998Y005161D01*
X032998Y005260D02*
X028378Y005260D01*
X028378Y005358D02*
X032066Y005358D01*
X031997Y005457D02*
X028378Y005457D01*
X028316Y005555D02*
X028704Y005555D01*
X028605Y005654D02*
X028415Y005654D01*
X028513Y005753D02*
X028548Y005753D01*
X028548Y005851D02*
X028548Y005851D01*
X028548Y005950D02*
X028548Y005950D01*
X028548Y006048D02*
X028595Y006048D01*
X028548Y006147D02*
X028693Y006147D01*
X028630Y006245D02*
X028548Y006245D01*
X028548Y006344D02*
X028630Y006344D01*
X028630Y006442D02*
X028548Y006442D01*
X028548Y006541D02*
X028630Y006541D01*
X028630Y006639D02*
X028548Y006639D01*
X025823Y006556D02*
X025823Y006106D01*
X025824Y006056D01*
X025823Y006556D02*
X025823Y006981D01*
X025824Y007056D01*
X024478Y007034D02*
X024016Y007034D01*
X024016Y007132D02*
X024478Y007132D01*
X024478Y007231D02*
X024016Y007231D01*
X024016Y007329D02*
X024480Y007329D01*
X024480Y007428D02*
X024016Y007428D01*
X024016Y007526D02*
X024480Y007526D01*
X024480Y007625D02*
X024016Y007625D01*
X023748Y007133D02*
X023748Y006356D01*
X023848Y006306D01*
X024248Y006344D02*
X024324Y006344D01*
X024248Y006442D02*
X024415Y006442D01*
X024478Y006541D02*
X024179Y006541D01*
X024081Y006639D02*
X024478Y006639D01*
X024478Y006738D02*
X024016Y006738D01*
X024016Y006837D02*
X024478Y006837D01*
X024478Y006935D02*
X024016Y006935D01*
X023248Y007133D02*
X023248Y006306D01*
X022848Y006344D02*
X020930Y006344D01*
X020948Y005733D02*
X020948Y005731D01*
X020472Y005733D01*
X019640Y006344D02*
X018998Y006344D01*
X018998Y006442D02*
X022848Y006442D01*
X022917Y006541D02*
X018998Y006541D01*
X018998Y006639D02*
X022980Y006639D01*
X022980Y006738D02*
X018998Y006738D01*
X018998Y006837D02*
X022980Y006837D01*
X022980Y006935D02*
X018998Y006935D01*
X018998Y006245D02*
X019541Y006245D01*
X019443Y006147D02*
X018998Y006147D01*
X018998Y006048D02*
X019344Y006048D01*
X019298Y005950D02*
X018998Y005950D01*
X018998Y005851D02*
X019298Y005851D01*
X019298Y005753D02*
X018998Y005753D01*
X018998Y005654D02*
X019298Y005654D01*
X019298Y005555D02*
X018998Y005555D01*
X018998Y005457D02*
X019305Y005457D01*
X019403Y005358D02*
X018998Y005358D01*
X018998Y005260D02*
X019502Y005260D01*
X019600Y005161D02*
X018998Y005161D01*
X018998Y005063D02*
X019768Y005063D01*
X019768Y004964D02*
X018998Y004964D01*
X018998Y004866D02*
X019768Y004866D01*
X019768Y004767D02*
X018998Y004767D01*
X018998Y004669D02*
X019768Y004669D01*
X019790Y004570D02*
X018998Y004570D01*
X018998Y004471D02*
X020080Y004471D01*
X020048Y004156D02*
X019998Y004156D01*
X019898Y004056D01*
X020048Y004156D02*
X020548Y004656D01*
X020548Y005006D01*
X020498Y005056D01*
X020548Y005009D02*
X020548Y005006D01*
X021328Y004964D02*
X022818Y004964D01*
X022818Y004866D02*
X021328Y004866D01*
X021328Y004767D02*
X022738Y004767D01*
X022640Y004669D02*
X021328Y004669D01*
X021306Y004570D02*
X022541Y004570D01*
X022293Y004471D02*
X020832Y004471D01*
X020547Y004373D02*
X022194Y004373D01*
X022096Y004274D02*
X020449Y004274D01*
X020350Y004176D02*
X021997Y004176D01*
X021968Y004077D02*
X020252Y004077D01*
X020248Y003979D02*
X021968Y003979D01*
X021968Y003880D02*
X020217Y003880D01*
X020118Y003782D02*
X021968Y003782D01*
X021968Y003683D02*
X008644Y003683D01*
X008617Y003656D02*
X008804Y003843D01*
X008915Y003731D01*
X009381Y003731D01*
X009710Y004061D01*
X009710Y004350D01*
X009798Y004437D01*
X009798Y004976D01*
X009710Y005063D01*
X009710Y005352D01*
X009381Y005681D01*
X008915Y005681D01*
X008690Y005456D01*
X008379Y005456D01*
X007728Y004806D01*
X007728Y005525D01*
X007703Y005550D01*
X007778Y005550D01*
X007866Y005638D01*
X007866Y006019D01*
X007868Y006021D01*
X007868Y006795D01*
X007868Y007018D01*
X007718Y007168D01*
X007560Y007326D01*
X005510Y007326D01*
X005318Y007518D01*
X005318Y007545D01*
X005316Y007546D01*
X005316Y007928D01*
X005228Y008016D01*
X004868Y008016D01*
X004780Y007928D01*
X004780Y007546D01*
X004778Y007545D01*
X004778Y007518D01*
X004778Y007295D01*
X004780Y007293D01*
X004780Y006938D01*
X004868Y006850D01*
X005223Y006850D01*
X005286Y006786D01*
X005510Y006786D01*
X007328Y006786D01*
X007328Y006666D01*
X007278Y006716D01*
X006918Y006716D01*
X006848Y006646D01*
X006778Y006716D01*
X006418Y006716D01*
X006348Y006646D01*
X006278Y006716D01*
X005918Y006716D01*
X005830Y006628D01*
X005830Y006430D01*
X005698Y006298D01*
X005698Y005967D01*
X005830Y005835D01*
X005830Y005638D01*
X005918Y005550D01*
X006089Y005550D01*
X006168Y005471D01*
X006168Y004692D01*
X006256Y004604D01*
X006351Y004604D01*
X006248Y004501D01*
X006248Y004211D01*
X006453Y004006D01*
X006743Y004006D01*
X006948Y004211D01*
X006948Y004501D01*
X006845Y004604D01*
X007527Y004604D01*
X007498Y004576D01*
X007448Y004526D01*
X007448Y003987D01*
X007829Y003606D01*
X008367Y003606D01*
X008417Y003656D01*
X008617Y003656D01*
X008742Y003782D02*
X008865Y003782D01*
X009431Y003782D02*
X010865Y003782D01*
X010766Y003880D02*
X009530Y003880D01*
X009628Y003979D02*
X010668Y003979D01*
X010585Y004077D02*
X009710Y004077D01*
X009710Y004176D02*
X010585Y004176D01*
X010585Y004274D02*
X009710Y004274D01*
X009734Y004373D02*
X010562Y004373D01*
X010498Y004471D02*
X009798Y004471D01*
X009798Y004570D02*
X010498Y004570D01*
X010498Y004669D02*
X009798Y004669D01*
X009798Y004767D02*
X010498Y004767D01*
X010469Y004866D02*
X009798Y004866D01*
X009798Y004964D02*
X010371Y004964D01*
X010272Y005063D02*
X009711Y005063D01*
X009710Y005161D02*
X010174Y005161D01*
X010075Y005260D02*
X009710Y005260D01*
X009704Y005358D02*
X009977Y005358D01*
X009878Y005457D02*
X009605Y005457D01*
X009507Y005555D02*
X009780Y005555D01*
X009681Y005654D02*
X009408Y005654D01*
X009583Y005753D02*
X007866Y005753D01*
X007866Y005851D02*
X009496Y005851D01*
X009403Y005950D02*
X007866Y005950D01*
X007868Y006048D02*
X009309Y006048D01*
X009216Y006147D02*
X007868Y006147D01*
X007868Y006245D02*
X009122Y006245D01*
X009028Y006344D02*
X007868Y006344D01*
X007868Y006442D02*
X008725Y006442D01*
X008641Y006541D02*
X007868Y006541D01*
X007868Y006639D02*
X008641Y006639D01*
X008641Y006738D02*
X007868Y006738D01*
X007868Y006837D02*
X008574Y006837D01*
X008574Y006935D02*
X007868Y006935D01*
X007853Y007034D02*
X008574Y007034D01*
X008574Y007132D02*
X007754Y007132D01*
X007655Y007231D02*
X008574Y007231D01*
X008574Y007329D02*
X005507Y007329D01*
X005408Y007428D02*
X008574Y007428D01*
X008598Y007526D02*
X008287Y007526D01*
X008386Y007625D02*
X008598Y007625D01*
X008598Y007723D02*
X008484Y007723D01*
X008583Y007822D02*
X008598Y007822D01*
X009198Y007731D02*
X009224Y007706D01*
X009198Y007731D02*
X009498Y007731D01*
X009948Y007731D01*
X010048Y007406D01*
X010398Y007764D02*
X010548Y007614D01*
X010548Y006699D01*
X010515Y006666D01*
X010622Y006554D01*
X010622Y006999D01*
X010648Y007026D01*
X010648Y007029D01*
X010648Y007476D01*
X010694Y007521D01*
X010689Y007526D01*
X010689Y007887D01*
X010758Y007956D01*
X010689Y008026D01*
X010689Y008387D01*
X010776Y008475D01*
X011158Y008475D01*
X011160Y008476D01*
X011306Y008476D01*
X011628Y008941D01*
X011628Y008968D01*
X011661Y009001D01*
X010866Y008990D01*
X010866Y008838D01*
X010778Y008750D01*
X010418Y008750D01*
X010398Y008770D01*
X010398Y008609D01*
X010398Y007859D01*
X010398Y007764D01*
X010438Y007723D02*
X010689Y007723D01*
X010689Y007625D02*
X010537Y007625D01*
X010548Y007526D02*
X010689Y007526D01*
X010648Y007428D02*
X010548Y007428D01*
X010548Y007329D02*
X010648Y007329D01*
X010648Y007231D02*
X010548Y007231D01*
X010548Y007132D02*
X010648Y007132D01*
X010648Y007034D02*
X010548Y007034D01*
X010548Y006935D02*
X010622Y006935D01*
X010622Y006837D02*
X010548Y006837D01*
X010548Y006738D02*
X010622Y006738D01*
X010622Y006639D02*
X010541Y006639D01*
X009498Y007356D02*
X009198Y006731D01*
X009224Y006706D01*
X010398Y007822D02*
X010689Y007822D01*
X010722Y007921D02*
X010398Y007921D01*
X010398Y008019D02*
X010696Y008019D01*
X010689Y008118D02*
X010398Y008118D01*
X010398Y008216D02*
X010689Y008216D01*
X010689Y008315D02*
X010398Y008315D01*
X010398Y008413D02*
X010715Y008413D01*
X010398Y008512D02*
X011331Y008512D01*
X011399Y008610D02*
X010398Y008610D01*
X010398Y008709D02*
X011467Y008709D01*
X011536Y008807D02*
X010836Y008807D01*
X010866Y008906D02*
X011604Y008906D01*
X012825Y009202D02*
X014369Y009202D01*
X014378Y009103D02*
X013683Y009103D01*
X013782Y009004D02*
X014298Y009004D01*
X014298Y008906D02*
X013880Y008906D01*
X013979Y008807D02*
X014298Y008807D01*
X014298Y008709D02*
X014068Y008709D01*
X014068Y008610D02*
X014298Y008610D01*
X014335Y008512D02*
X014068Y008512D01*
X014068Y008413D02*
X015272Y008413D01*
X015370Y008315D02*
X014068Y008315D01*
X014068Y008216D02*
X015469Y008216D01*
X015568Y008118D02*
X014068Y008118D01*
X014068Y008019D02*
X015666Y008019D01*
X015765Y007921D02*
X014066Y007921D01*
X014066Y007822D02*
X015913Y007822D01*
X016012Y007723D02*
X014066Y007723D01*
X014066Y007625D02*
X016110Y007625D01*
X016209Y007526D02*
X014005Y007526D01*
X013591Y007526D02*
X013211Y007526D01*
X013112Y007625D02*
X013530Y007625D01*
X013530Y007723D02*
X013066Y007723D01*
X013066Y007822D02*
X013530Y007822D01*
X013530Y007921D02*
X013066Y007921D01*
X013066Y008019D02*
X013528Y008019D01*
X013528Y008118D02*
X013066Y008118D01*
X013066Y008216D02*
X013528Y008216D01*
X013528Y008315D02*
X013066Y008315D01*
X013066Y008413D02*
X013528Y008413D01*
X013511Y008512D02*
X013066Y008512D01*
X012798Y008083D02*
X012798Y007656D01*
X013148Y007306D01*
X013148Y007056D01*
X013441Y007329D02*
X016406Y007329D01*
X016498Y007231D02*
X013539Y007231D01*
X013548Y007132D02*
X016498Y007132D01*
X016498Y007034D02*
X013548Y007034D01*
X013548Y006935D02*
X016498Y006935D01*
X016498Y006837D02*
X013494Y006837D01*
X013395Y006738D02*
X016498Y006738D01*
X016498Y006639D02*
X012838Y006639D01*
X012901Y006738D02*
X012739Y006738D01*
X012802Y006837D02*
X012641Y006837D01*
X012692Y006935D02*
X012748Y006935D01*
X012936Y006541D02*
X016498Y006541D01*
X016498Y006442D02*
X012948Y006442D01*
X012948Y006344D02*
X016498Y006344D01*
X016498Y006245D02*
X012948Y006245D01*
X012955Y006147D02*
X016498Y006147D01*
X016498Y006048D02*
X013053Y006048D01*
X013152Y005950D02*
X016498Y005950D01*
X016498Y005851D02*
X013250Y005851D01*
X013349Y005753D02*
X016583Y005753D01*
X016681Y005654D02*
X013447Y005654D01*
X013546Y005555D02*
X016780Y005555D01*
X016878Y005457D02*
X013644Y005457D01*
X013941Y005358D02*
X016898Y005358D01*
X016948Y005260D02*
X014039Y005260D01*
X014048Y005161D02*
X016948Y005161D01*
X016948Y005063D02*
X014048Y005063D01*
X014048Y004964D02*
X016948Y004964D01*
X016948Y004866D02*
X013952Y004866D01*
X013854Y004767D02*
X016948Y004767D01*
X016948Y004669D02*
X011798Y004669D01*
X011798Y004767D02*
X013542Y004767D01*
X013444Y004866D02*
X011798Y004866D01*
X011798Y004964D02*
X013348Y004964D01*
X013348Y005063D02*
X011798Y005063D01*
X011798Y005161D02*
X013346Y005161D01*
X013248Y005260D02*
X012424Y005260D01*
X012523Y005358D02*
X013149Y005358D01*
X013050Y005457D02*
X012621Y005457D01*
X012720Y005555D02*
X012952Y005555D01*
X012853Y005654D02*
X012818Y005654D01*
X011798Y004570D02*
X016948Y004570D01*
X016948Y004471D02*
X011798Y004471D01*
X011734Y004373D02*
X016962Y004373D01*
X017061Y004274D02*
X011710Y004274D01*
X011710Y004176D02*
X017159Y004176D01*
X017258Y004077D02*
X011710Y004077D01*
X011628Y003979D02*
X017356Y003979D01*
X017455Y003880D02*
X011530Y003880D01*
X011431Y003782D02*
X017965Y003782D01*
X018431Y003782D02*
X019678Y003782D01*
X019579Y003880D02*
X018691Y003880D01*
X018789Y003979D02*
X019548Y003979D01*
X019548Y004077D02*
X018888Y004077D01*
X018987Y004176D02*
X019548Y004176D01*
X019621Y004274D02*
X018998Y004274D01*
X018998Y004373D02*
X019720Y004373D01*
X021328Y005063D02*
X022835Y005063D01*
X022835Y005161D02*
X021640Y005161D01*
X021716Y005260D02*
X022835Y005260D01*
X022835Y005358D02*
X021716Y005358D01*
X021716Y005457D02*
X022890Y005457D01*
X022858Y006048D02*
X021716Y006048D01*
X021716Y006147D02*
X022848Y006147D01*
X022848Y006245D02*
X021699Y006245D01*
X022886Y007625D02*
X022980Y007625D01*
X023739Y008216D02*
X025298Y008216D01*
X025298Y008315D02*
X023888Y008315D01*
X023987Y008413D02*
X025298Y008413D01*
X025298Y008512D02*
X024018Y008512D01*
X024018Y008610D02*
X024054Y008610D01*
X024441Y008610D02*
X024554Y008610D01*
X024941Y008610D02*
X025298Y008610D01*
X025298Y008709D02*
X025016Y008709D01*
X025016Y008807D02*
X025298Y008807D01*
X025298Y008906D02*
X025016Y008906D01*
X025016Y009004D02*
X025298Y009004D01*
X025375Y009103D02*
X025026Y009103D01*
X025068Y009145D02*
X025068Y009145D01*
X025118Y009202D02*
X025474Y009202D01*
X025502Y009300D02*
X025167Y009300D01*
X025265Y009399D02*
X025671Y009399D01*
X025679Y009406D02*
X025679Y009406D01*
X025462Y009596D02*
X026555Y009596D01*
X026478Y009497D02*
X025364Y009497D01*
X025561Y009694D02*
X026654Y009694D01*
X027560Y009793D02*
X028453Y009793D01*
X028551Y009891D02*
X027658Y009891D01*
X027757Y009990D02*
X028603Y009990D01*
X028396Y010680D02*
X032194Y010680D01*
X032194Y010778D02*
X028495Y010778D01*
X028594Y010877D02*
X032247Y010877D01*
X032222Y010975D02*
X028692Y010975D01*
X028791Y011074D02*
X032194Y011074D01*
X032194Y011172D02*
X028889Y011172D01*
X028988Y011271D02*
X032194Y011271D01*
X032194Y011370D02*
X029086Y011370D01*
X029185Y011468D02*
X032276Y011468D01*
X032194Y011567D02*
X029283Y011567D01*
X029382Y011665D02*
X032194Y011665D01*
X032194Y011764D02*
X029428Y011764D01*
X029428Y011862D02*
X032194Y011862D01*
X032194Y011961D02*
X030974Y011961D01*
X031003Y011989D02*
X031003Y012743D01*
X030915Y012831D01*
X030778Y012831D01*
X030778Y013691D01*
X030898Y013811D01*
X030898Y014101D01*
X030693Y014306D01*
X030403Y014306D01*
X030198Y014101D01*
X030198Y013811D01*
X030318Y013691D01*
X030318Y012831D01*
X030081Y012831D01*
X029993Y012743D01*
X029993Y011989D01*
X030081Y011901D01*
X030915Y011901D01*
X031003Y011989D01*
X031003Y012059D02*
X032239Y012059D01*
X032559Y012059D02*
X032714Y012059D01*
X032686Y012158D02*
X031003Y012158D01*
X031003Y012256D02*
X032686Y012256D01*
X032686Y012355D02*
X031003Y012355D01*
X031003Y012454D02*
X032686Y012454D01*
X032686Y012552D02*
X031003Y012552D01*
X031003Y012651D02*
X032275Y012651D01*
X032176Y012749D02*
X030997Y012749D01*
X030778Y012848D02*
X032078Y012848D01*
X031997Y012946D02*
X030778Y012946D01*
X030778Y013045D02*
X031997Y013045D01*
X032043Y013143D02*
X030778Y013143D01*
X030778Y013242D02*
X032588Y013242D01*
X032634Y013340D02*
X030778Y013340D01*
X030778Y013439D02*
X032998Y013439D01*
X032998Y013537D02*
X030778Y013537D01*
X030778Y013636D02*
X032998Y013636D01*
X032998Y013735D02*
X030821Y013735D01*
X030898Y013833D02*
X032998Y013833D01*
X032998Y013932D02*
X030898Y013932D01*
X030898Y014030D02*
X032998Y014030D01*
X032998Y014129D02*
X030871Y014129D01*
X030772Y014227D02*
X032998Y014227D01*
X032998Y014326D02*
X029428Y014326D01*
X029428Y014424D02*
X032998Y014424D01*
X032998Y014523D02*
X029428Y014523D01*
X029428Y014621D02*
X032998Y014621D01*
X032998Y014720D02*
X029428Y014720D01*
X029428Y014819D02*
X032998Y014819D01*
X032998Y014917D02*
X029363Y014917D01*
X029264Y015016D02*
X032998Y015016D01*
X032998Y015114D02*
X029165Y015114D01*
X029067Y015213D02*
X032998Y015213D01*
X032998Y015311D02*
X029135Y015311D01*
X029233Y015410D02*
X030890Y015410D01*
X030822Y015508D02*
X029332Y015508D01*
X029430Y015607D02*
X030822Y015607D01*
X030822Y015705D02*
X029529Y015705D01*
X029627Y015804D02*
X030822Y015804D01*
X031674Y015804D02*
X032998Y015804D01*
X032998Y015903D02*
X031674Y015903D01*
X031674Y016001D02*
X032998Y016001D01*
X032998Y016100D02*
X031674Y016100D01*
X031674Y016198D02*
X032998Y016198D01*
X032998Y016297D02*
X031674Y016297D01*
X031674Y016395D02*
X032998Y016395D01*
X032998Y016494D02*
X031674Y016494D01*
X031674Y016592D02*
X032998Y016592D01*
X032998Y016691D02*
X031674Y016691D01*
X031674Y016789D02*
X032998Y016789D01*
X032998Y016888D02*
X031674Y016888D01*
X031674Y016986D02*
X031711Y016986D01*
X031703Y017085D02*
X031674Y017085D01*
X031703Y017184D02*
X031592Y017184D01*
X031674Y017282D02*
X031703Y017282D01*
X031703Y017381D02*
X031674Y017381D01*
X031674Y017479D02*
X031703Y017479D01*
X031674Y017578D02*
X031753Y017578D01*
X031753Y017676D02*
X031674Y017676D01*
X031674Y017775D02*
X031753Y017775D01*
X032293Y017775D02*
X032998Y017775D01*
X032998Y017873D02*
X032293Y017873D01*
X032308Y017972D02*
X032998Y017972D01*
X032998Y018070D02*
X032398Y018070D01*
X032398Y018169D02*
X032998Y018169D01*
X032998Y018268D02*
X032398Y018268D01*
X032383Y018366D02*
X032998Y018366D01*
X032998Y018465D02*
X032285Y018465D01*
X031811Y018465D02*
X031674Y018465D01*
X031674Y018563D02*
X032998Y018563D01*
X032998Y018662D02*
X031674Y018662D01*
X031674Y018760D02*
X032998Y018760D01*
X032998Y018859D02*
X031674Y018859D01*
X031602Y018957D02*
X032998Y018957D01*
X032998Y019056D02*
X023648Y019056D01*
X023648Y018957D02*
X027394Y018957D01*
X027410Y018973D02*
X027322Y018886D01*
X027322Y017476D01*
X026536Y017476D01*
X026516Y017456D01*
X026516Y018351D01*
X026428Y018439D01*
X025576Y018439D01*
X025488Y018351D01*
X025488Y016528D01*
X025136Y016176D01*
X024978Y016018D01*
X024978Y015826D01*
X024838Y015686D01*
X024838Y015441D01*
X024764Y015441D01*
X024764Y015500D01*
X024677Y015588D01*
X024119Y015588D01*
X024031Y015500D01*
X024031Y014982D01*
X024107Y014906D01*
X024102Y014902D01*
X023586Y014902D01*
X023517Y014833D01*
X023443Y014906D01*
X023153Y014906D01*
X022948Y014701D01*
X022948Y014411D01*
X023153Y014206D01*
X023443Y014206D01*
X023542Y014306D01*
X023586Y014262D01*
X024082Y014262D01*
X024119Y014225D01*
X024677Y014225D01*
X024764Y014313D01*
X024764Y014831D01*
X024689Y014906D01*
X024764Y014982D01*
X024764Y015041D01*
X024838Y015041D01*
X024838Y014827D01*
X025078Y014586D01*
X025418Y014586D01*
X025658Y014827D01*
X025658Y015686D01*
X025534Y015810D01*
X025697Y015974D01*
X026428Y015974D01*
X026516Y016062D01*
X026516Y016693D01*
X026760Y016936D01*
X027322Y016936D01*
X027322Y015477D01*
X027410Y015390D01*
X028086Y015390D01*
X028174Y015477D01*
X028174Y017098D01*
X028090Y017181D01*
X028174Y017265D01*
X028174Y017310D01*
X028650Y017310D01*
X028727Y017234D01*
X028855Y017234D01*
X028855Y017179D01*
X028727Y017179D01*
X028639Y017091D01*
X028639Y016573D01*
X028727Y016486D01*
X029403Y016486D01*
X029490Y016573D01*
X029490Y017091D01*
X029403Y017179D01*
X029275Y017179D01*
X029275Y017234D01*
X029403Y017234D01*
X029490Y017321D01*
X029490Y017839D01*
X029403Y017927D01*
X028727Y017927D01*
X028650Y017850D01*
X028272Y017850D01*
X028329Y017855D01*
X028404Y017855D01*
X028415Y017863D01*
X028438Y017865D01*
X028480Y017906D01*
X028643Y017906D01*
X028848Y018111D01*
X028848Y018401D01*
X028643Y018606D01*
X028353Y018606D01*
X028174Y018427D01*
X028174Y018886D01*
X028086Y018973D01*
X027410Y018973D01*
X027322Y018859D02*
X023648Y018859D01*
X023648Y018760D02*
X027322Y018760D01*
X027322Y018662D02*
X023648Y018662D01*
X023648Y018563D02*
X027322Y018563D01*
X027322Y018465D02*
X023648Y018465D01*
X023648Y018366D02*
X025503Y018366D01*
X025488Y018268D02*
X023648Y018268D01*
X023648Y018169D02*
X025488Y018169D01*
X025488Y018070D02*
X023648Y018070D01*
X023648Y017972D02*
X025488Y017972D01*
X025488Y017873D02*
X023648Y017873D01*
X023648Y017775D02*
X025488Y017775D01*
X025488Y017676D02*
X023648Y017676D01*
X023648Y017578D02*
X025488Y017578D01*
X025488Y017479D02*
X023648Y017479D01*
X023648Y017381D02*
X025488Y017381D01*
X025488Y017282D02*
X023648Y017282D01*
X023648Y017184D02*
X025488Y017184D01*
X025488Y017085D02*
X023648Y017085D01*
X023648Y016986D02*
X025488Y016986D01*
X025488Y016888D02*
X023648Y016888D01*
X023648Y016789D02*
X025488Y016789D01*
X025488Y016691D02*
X023565Y016691D01*
X023467Y016592D02*
X025488Y016592D01*
X025454Y016494D02*
X023368Y016494D01*
X023270Y016395D02*
X025355Y016395D01*
X025256Y016297D02*
X023171Y016297D01*
X023072Y016198D02*
X025158Y016198D01*
X025059Y016100D02*
X022974Y016100D01*
X022875Y016001D02*
X024978Y016001D01*
X024978Y015903D02*
X022798Y015903D01*
X022798Y015804D02*
X024956Y015804D01*
X024857Y015705D02*
X022798Y015705D01*
X022798Y015607D02*
X024838Y015607D01*
X024838Y015508D02*
X024756Y015508D01*
X024398Y015241D02*
X025233Y015241D01*
X025248Y015256D01*
X025658Y015213D02*
X026329Y015213D01*
X026428Y015311D02*
X025658Y015311D01*
X025658Y015410D02*
X027390Y015410D01*
X027322Y015508D02*
X025658Y015508D01*
X025658Y015607D02*
X027322Y015607D01*
X027322Y015705D02*
X025639Y015705D01*
X025540Y015804D02*
X027322Y015804D01*
X027322Y015903D02*
X025626Y015903D01*
X026455Y016001D02*
X027322Y016001D01*
X027322Y016100D02*
X026516Y016100D01*
X026516Y016198D02*
X027322Y016198D01*
X027322Y016297D02*
X026516Y016297D01*
X026516Y016395D02*
X027322Y016395D01*
X027322Y016494D02*
X026516Y016494D01*
X026516Y016592D02*
X027322Y016592D01*
X027322Y016691D02*
X026516Y016691D01*
X026613Y016789D02*
X027322Y016789D01*
X027322Y016888D02*
X026711Y016888D01*
X026516Y017479D02*
X027322Y017479D01*
X027322Y017578D02*
X026516Y017578D01*
X026516Y017676D02*
X027322Y017676D01*
X027322Y017775D02*
X026516Y017775D01*
X026516Y017873D02*
X027322Y017873D01*
X027322Y017972D02*
X026516Y017972D01*
X026516Y018070D02*
X027322Y018070D01*
X027322Y018169D02*
X026516Y018169D01*
X026516Y018268D02*
X027322Y018268D01*
X027322Y018366D02*
X026501Y018366D01*
X028174Y018465D02*
X028211Y018465D01*
X028174Y018563D02*
X028310Y018563D01*
X028174Y018662D02*
X030822Y018662D01*
X030822Y018760D02*
X028174Y018760D01*
X028174Y018859D02*
X030822Y018859D01*
X030894Y018957D02*
X028102Y018957D01*
X028686Y018563D02*
X030822Y018563D01*
X030822Y018465D02*
X028785Y018465D01*
X028848Y018366D02*
X030822Y018366D01*
X030822Y018268D02*
X028848Y018268D01*
X028848Y018169D02*
X030822Y018169D01*
X030822Y018070D02*
X028807Y018070D01*
X028708Y017972D02*
X030822Y017972D01*
X030822Y017873D02*
X029456Y017873D01*
X029490Y017775D02*
X030822Y017775D01*
X030822Y017676D02*
X029490Y017676D01*
X029490Y017578D02*
X030822Y017578D01*
X030822Y017479D02*
X030343Y017479D01*
X030357Y017381D02*
X030822Y017381D01*
X030822Y017282D02*
X030357Y017282D01*
X030357Y017184D02*
X030904Y017184D01*
X030822Y017085D02*
X030357Y017085D01*
X030357Y016986D02*
X030822Y016986D01*
X030822Y016888D02*
X030297Y016888D01*
X030201Y016789D02*
X030822Y016789D01*
X030822Y016691D02*
X030201Y016691D01*
X030201Y016592D02*
X030822Y016592D01*
X030822Y016494D02*
X030201Y016494D01*
X029661Y016494D02*
X029411Y016494D01*
X029455Y016395D02*
X028174Y016395D01*
X028174Y016297D02*
X029356Y016297D01*
X029258Y016198D02*
X028174Y016198D01*
X028174Y016100D02*
X029159Y016100D01*
X029061Y016001D02*
X028174Y016001D01*
X028174Y015903D02*
X028962Y015903D01*
X028864Y015804D02*
X028174Y015804D01*
X028174Y015705D02*
X028765Y015705D01*
X028667Y015607D02*
X028174Y015607D01*
X028174Y015508D02*
X028455Y015508D01*
X028356Y015410D02*
X028106Y015410D01*
X028811Y014819D02*
X026585Y014819D01*
X026487Y014720D02*
X028909Y014720D01*
X028968Y014621D02*
X026388Y014621D01*
X026290Y014523D02*
X028968Y014523D01*
X028968Y014424D02*
X026191Y014424D01*
X026093Y014326D02*
X028968Y014326D01*
X028968Y014227D02*
X026078Y014227D01*
X026078Y014129D02*
X028968Y014129D01*
X028968Y014030D02*
X026078Y014030D01*
X026078Y013932D02*
X028968Y013932D01*
X028968Y013833D02*
X026078Y013833D01*
X026078Y013735D02*
X028968Y013735D01*
X028968Y013636D02*
X026078Y013636D01*
X026004Y013537D02*
X028968Y013537D01*
X028968Y013439D02*
X025906Y013439D01*
X025807Y013340D02*
X028968Y013340D01*
X028968Y013242D02*
X025709Y013242D01*
X025610Y013143D02*
X028968Y013143D01*
X028968Y013045D02*
X025511Y013045D01*
X024248Y013556D02*
X023324Y012632D01*
X023304Y012632D01*
X022961Y012552D02*
X017548Y012552D01*
X017548Y012848D02*
X018791Y012848D01*
X018693Y012946D02*
X017495Y012946D01*
X018369Y013045D02*
X018598Y013045D01*
X018598Y013143D02*
X018468Y013143D01*
X018566Y013242D02*
X018598Y013242D01*
X018448Y013406D02*
X018448Y014256D01*
X018698Y014556D01*
X018962Y014326D02*
X020048Y014326D01*
X020048Y014424D02*
X019048Y014424D01*
X019048Y014523D02*
X020048Y014523D01*
X020048Y014621D02*
X019048Y014621D01*
X019118Y014720D02*
X020146Y014720D01*
X020244Y014819D02*
X019198Y014819D01*
X019198Y014917D02*
X020598Y014917D01*
X020444Y015016D02*
X019198Y015016D01*
X019198Y015114D02*
X020345Y015114D01*
X020298Y015213D02*
X019198Y015213D01*
X019151Y015311D02*
X020298Y015311D01*
X020298Y015410D02*
X019159Y015410D01*
X019198Y015508D02*
X020355Y015508D01*
X020403Y015607D02*
X019198Y015607D01*
X019198Y015705D02*
X020304Y015705D01*
X020298Y015804D02*
X019198Y015804D01*
X018848Y015681D02*
X018848Y016156D01*
X018558Y016001D02*
X016098Y016001D01*
X016043Y016056D02*
X015753Y016056D01*
X015638Y015941D01*
X015595Y015941D01*
X015595Y016020D01*
X015507Y016108D01*
X014989Y016108D01*
X014901Y016020D01*
X014901Y015462D01*
X014989Y015375D01*
X015507Y015375D01*
X015595Y015462D01*
X015595Y015515D01*
X015753Y015356D01*
X016043Y015356D01*
X016248Y015561D01*
X016248Y015851D01*
X016043Y016056D01*
X016197Y015903D02*
X018498Y015903D01*
X018498Y015804D02*
X016248Y015804D01*
X016248Y015705D02*
X018498Y015705D01*
X018498Y015607D02*
X016248Y015607D01*
X016195Y015508D02*
X018498Y015508D01*
X018537Y015410D02*
X016096Y015410D01*
X015700Y015410D02*
X015542Y015410D01*
X015595Y015508D02*
X015601Y015508D01*
X015863Y015741D02*
X015248Y015741D01*
X014901Y015705D02*
X014182Y015705D01*
X014280Y015607D02*
X014901Y015607D01*
X014901Y015508D02*
X014379Y015508D01*
X014477Y015410D02*
X014954Y015410D01*
X014788Y015311D02*
X017995Y015311D01*
X017948Y015213D02*
X014887Y015213D01*
X014948Y015114D02*
X017948Y015114D01*
X018148Y014906D02*
X018273Y015032D01*
X018298Y015032D01*
X018848Y015032D01*
X018273Y015032D02*
X018248Y015006D01*
X017412Y015016D02*
X017384Y015016D01*
X017148Y014756D02*
X017148Y013906D01*
X016461Y014227D02*
X013460Y014227D01*
X013558Y014129D02*
X016403Y014129D01*
X016887Y014523D02*
X014459Y014523D01*
X014498Y014621D02*
X016798Y014621D01*
X016798Y014720D02*
X014806Y014720D01*
X014905Y014819D02*
X016798Y014819D01*
X016814Y014917D02*
X014948Y014917D01*
X014948Y015016D02*
X016912Y015016D01*
X015898Y015706D02*
X015863Y015741D01*
X015698Y016001D02*
X015595Y016001D01*
X015515Y016100D02*
X018498Y016100D01*
X018498Y016198D02*
X012298Y016198D01*
X012298Y016297D02*
X016463Y016297D01*
X016364Y016395D02*
X012298Y016395D01*
X012368Y016494D02*
X015766Y016494D01*
X015667Y016592D02*
X013867Y016592D01*
X013965Y016691D02*
X015648Y016691D01*
X015648Y016789D02*
X014064Y016789D01*
X014162Y016888D02*
X015648Y016888D01*
X015998Y016756D02*
X016148Y016806D01*
X016248Y016906D01*
X019448Y016906D01*
X019798Y017256D01*
X019873Y017256D01*
X020193Y017282D02*
X020203Y017282D01*
X020193Y017184D02*
X020203Y017184D01*
X020193Y017085D02*
X020203Y017085D01*
X020210Y016986D02*
X020185Y016986D01*
X020193Y016888D02*
X020203Y016888D01*
X020193Y016789D02*
X020203Y016789D01*
X020193Y016691D02*
X020203Y016691D01*
X020193Y016592D02*
X020203Y016592D01*
X020523Y016706D02*
X020748Y016706D01*
X021198Y017156D01*
X021898Y017156D01*
X022398Y017656D01*
X022198Y017697D01*
X022568Y018169D02*
X020648Y018169D01*
X020648Y018268D02*
X022568Y018268D01*
X022568Y018366D02*
X020648Y018366D01*
X020648Y018465D02*
X022568Y018465D01*
X022568Y018563D02*
X020648Y018563D01*
X020561Y018662D02*
X022568Y018662D01*
X022568Y018760D02*
X020648Y018760D01*
X020648Y018859D02*
X022568Y018859D01*
X022568Y018957D02*
X020648Y018957D01*
X020648Y019056D02*
X022568Y019056D01*
X022475Y019154D02*
X020648Y019154D01*
X020608Y019253D02*
X022006Y019253D01*
X021908Y019352D02*
X020186Y019352D01*
X020148Y019450D02*
X021848Y019450D01*
X021848Y019549D02*
X020148Y019549D01*
X020148Y019647D02*
X021848Y019647D01*
X021892Y019746D02*
X020054Y019746D01*
X019955Y019844D02*
X021991Y019844D01*
X022298Y019943D02*
X019424Y019943D01*
X019396Y019874D02*
X019458Y020025D01*
X019458Y020188D01*
X019396Y020339D01*
X019280Y020454D01*
X019129Y020516D01*
X018966Y020516D01*
X018816Y020454D01*
X018700Y020339D01*
X018638Y020188D01*
X018638Y020025D01*
X018700Y019874D01*
X018816Y019759D01*
X018966Y019696D01*
X019129Y019696D01*
X019280Y019759D01*
X019396Y019874D01*
X019366Y019844D02*
X019641Y019844D01*
X019542Y019746D02*
X019248Y019746D01*
X019448Y019647D02*
X014578Y019647D01*
X014578Y019549D02*
X019448Y019549D01*
X019448Y019450D02*
X014500Y019450D01*
X014401Y019352D02*
X019360Y019352D01*
X019262Y019253D02*
X013877Y019253D01*
X013779Y019154D02*
X019163Y019154D01*
X019065Y019056D02*
X013680Y019056D01*
X013582Y018957D02*
X018966Y018957D01*
X018868Y018859D02*
X013483Y018859D01*
X013385Y018760D02*
X018769Y018760D01*
X018670Y018662D02*
X013286Y018662D01*
X013210Y018563D02*
X013187Y018563D01*
X013111Y018465D02*
X013089Y018465D01*
X013048Y018366D02*
X012990Y018366D01*
X012948Y018324D02*
X012948Y018324D01*
X012892Y018268D02*
X013048Y018268D01*
X013048Y018169D02*
X012803Y018169D01*
X012803Y018070D02*
X013089Y018070D01*
X013177Y017972D02*
X013188Y017972D01*
X013276Y017873D02*
X014671Y017873D01*
X014651Y017972D02*
X013608Y017972D01*
X013585Y017676D02*
X013298Y017676D01*
X013298Y017578D02*
X013486Y017578D01*
X013698Y017506D02*
X013548Y017356D01*
X010498Y017356D01*
X010198Y017056D01*
X010426Y016789D02*
X010520Y016789D01*
X010619Y016691D02*
X009265Y016691D01*
X009167Y016592D02*
X011789Y016592D01*
X011690Y016494D02*
X009068Y016494D01*
X008998Y016395D02*
X011598Y016395D01*
X011598Y016297D02*
X008998Y016297D01*
X008998Y016198D02*
X011598Y016198D01*
X011610Y016100D02*
X008998Y016100D01*
X008998Y016001D02*
X009836Y016001D01*
X009598Y015756D02*
X009298Y015456D01*
X009048Y015456D01*
X008798Y015706D01*
X008798Y016506D01*
X009348Y017056D01*
X009576Y016789D02*
X009970Y016789D01*
X009871Y016888D02*
X009674Y016888D01*
X009698Y016986D02*
X009848Y016986D01*
X009848Y017085D02*
X009698Y017085D01*
X009698Y017184D02*
X009848Y017184D01*
X009929Y017282D02*
X009617Y017282D01*
X009519Y017381D02*
X010027Y017381D01*
X010338Y017479D02*
X008648Y017479D01*
X008648Y017381D02*
X008677Y017381D01*
X008579Y017282D02*
X008556Y017282D01*
X008498Y017184D02*
X008458Y017184D01*
X008448Y017456D02*
X007948Y016956D01*
X007948Y016206D01*
X006998Y015256D01*
X006755Y015508D02*
X005643Y015508D01*
X005643Y015494D02*
X005555Y015406D01*
X005381Y015406D01*
X005215Y015406D01*
X005091Y015406D01*
X005017Y015481D01*
X004943Y015406D01*
X004653Y015406D01*
X004448Y015611D01*
X004448Y015901D01*
X004653Y016106D01*
X004943Y016106D01*
X005017Y016032D01*
X005091Y016106D01*
X005555Y016106D01*
X005643Y016019D01*
X005643Y015494D01*
X005643Y015607D02*
X007066Y015607D01*
X007164Y015705D02*
X005643Y015705D01*
X005643Y015804D02*
X007263Y015804D01*
X007361Y015903D02*
X005643Y015903D01*
X005643Y016001D02*
X007460Y016001D01*
X007310Y016100D02*
X005562Y016100D01*
X005323Y015756D02*
X004798Y015756D01*
X004551Y015508D02*
X002598Y015508D01*
X002598Y015410D02*
X004650Y015410D01*
X004453Y015607D02*
X002598Y015607D01*
X002598Y015705D02*
X004448Y015705D01*
X004448Y015804D02*
X002598Y015804D01*
X002598Y015903D02*
X004449Y015903D01*
X004548Y016001D02*
X002598Y016001D01*
X002598Y016100D02*
X004646Y016100D01*
X004950Y016100D02*
X005084Y016100D01*
X005323Y015756D02*
X005298Y015606D01*
X005088Y015410D02*
X004946Y015410D01*
X005559Y015410D02*
X006656Y015410D01*
X006648Y015311D02*
X002598Y015311D01*
X002598Y015213D02*
X006648Y015213D01*
X005298Y014756D02*
X005273Y014756D01*
X004748Y014756D01*
X005648Y014424D02*
X006983Y014424D01*
X006885Y014326D02*
X005648Y014326D01*
X005602Y014227D02*
X006786Y014227D01*
X006687Y014129D02*
X005593Y014129D01*
X005593Y014030D02*
X006589Y014030D01*
X006490Y013932D02*
X005531Y013932D01*
X007698Y013456D02*
X007754Y013413D01*
X007754Y013032D01*
X008542Y013032D02*
X008542Y013050D01*
X008948Y013456D01*
X008948Y013506D01*
X009178Y013242D02*
X010301Y013242D01*
X010331Y013340D02*
X009277Y013340D01*
X009298Y013439D02*
X010233Y013439D01*
X010134Y013537D02*
X009298Y013537D01*
X009298Y013636D02*
X010036Y013636D01*
X009937Y013735D02*
X009215Y013735D01*
X009116Y013833D02*
X009838Y013833D01*
X010458Y014129D02*
X012287Y014129D01*
X012189Y014030D02*
X010557Y014030D01*
X010656Y013932D02*
X012090Y013932D01*
X012386Y014227D02*
X010360Y014227D01*
X010418Y014819D02*
X010478Y014819D01*
X010453Y014917D02*
X010443Y014917D01*
X010443Y015016D02*
X010453Y015016D01*
X010443Y015114D02*
X010453Y015114D01*
X010443Y015213D02*
X010453Y015213D01*
X010443Y015311D02*
X010453Y015311D01*
X010487Y015410D02*
X010409Y015410D01*
X010443Y015508D02*
X010453Y015508D01*
X010443Y015607D02*
X010453Y015607D01*
X010443Y015705D02*
X010453Y015705D01*
X010443Y015804D02*
X010453Y015804D01*
X010443Y015903D02*
X010453Y015903D01*
X010485Y016001D02*
X010411Y016001D01*
X010113Y015772D02*
X010123Y015706D01*
X010123Y015731D01*
X010098Y015756D01*
X009598Y015756D01*
X009461Y015903D02*
X008998Y015903D01*
X008998Y015804D02*
X009363Y015804D01*
X009264Y015705D02*
X009082Y015705D01*
X010098Y015756D02*
X010113Y015772D01*
X010773Y015706D02*
X011498Y015706D01*
X011473Y015682D01*
X011348Y015682D01*
X011498Y015706D02*
X011923Y015706D01*
X012243Y015705D02*
X012253Y015705D01*
X012243Y015607D02*
X012253Y015607D01*
X012243Y015508D02*
X012253Y015508D01*
X012287Y015410D02*
X012209Y015410D01*
X012243Y015311D02*
X012253Y015311D01*
X012243Y015213D02*
X012253Y015213D01*
X012243Y015114D02*
X012253Y015114D01*
X012243Y015016D02*
X012253Y015016D01*
X012243Y014917D02*
X012253Y014917D01*
X012278Y014819D02*
X012218Y014819D01*
X011923Y015106D02*
X011923Y015131D01*
X011898Y015156D01*
X011848Y015106D01*
X011498Y015106D01*
X011498Y015156D01*
X011473Y015131D01*
X011348Y015131D01*
X011498Y015106D02*
X010773Y015106D01*
X011067Y014819D02*
X011078Y014819D01*
X011618Y014819D02*
X011629Y014819D01*
X012573Y015106D02*
X013148Y015106D01*
X013748Y015106D01*
X014148Y014706D01*
X013753Y014819D02*
X013418Y014819D01*
X013148Y015106D02*
X013148Y015131D01*
X012878Y014819D02*
X012867Y014819D01*
X013248Y015606D02*
X013173Y015682D01*
X013148Y015682D01*
X013148Y015656D01*
X013098Y015706D01*
X012573Y015706D01*
X012253Y015804D02*
X012243Y015804D01*
X012243Y015903D02*
X012253Y015903D01*
X012285Y016001D02*
X012211Y016001D01*
X012286Y016100D02*
X014981Y016100D01*
X014901Y016001D02*
X013411Y016001D01*
X013498Y015903D02*
X014901Y015903D01*
X014901Y015804D02*
X014083Y015804D01*
X013998Y015606D02*
X013248Y015606D01*
X013998Y015606D02*
X014598Y015006D01*
X012885Y016001D02*
X012860Y016001D01*
X012348Y016756D02*
X011948Y016356D01*
X011948Y016256D01*
X011636Y016001D02*
X011611Y016001D01*
X011085Y016001D02*
X011060Y016001D01*
X010977Y016691D02*
X012000Y016691D01*
X012098Y016789D02*
X011076Y016789D01*
X010798Y017006D02*
X013598Y017006D01*
X013898Y017306D01*
X018248Y017306D01*
X018698Y017756D01*
X018698Y017856D01*
X018548Y018256D02*
X017598Y018256D01*
X017198Y017856D01*
X016883Y018172D01*
X014998Y018172D01*
X014798Y018256D01*
X013498Y018256D01*
X013498Y018306D01*
X013398Y018256D01*
X013685Y018465D02*
X014665Y018465D01*
X015331Y018465D02*
X018473Y018465D01*
X018572Y018563D02*
X013586Y018563D01*
X013016Y018957D02*
X010744Y018957D01*
X010828Y018859D02*
X012918Y018859D01*
X012819Y018760D02*
X010927Y018760D01*
X011025Y018662D02*
X012720Y018662D01*
X012748Y018406D02*
X010998Y018406D01*
X010648Y018756D01*
X010198Y018756D01*
X009848Y019106D01*
X009148Y019106D01*
X008798Y019456D01*
X008798Y020306D01*
X007998Y021106D01*
X006998Y021106D01*
X006548Y020656D01*
X006548Y020306D01*
X006448Y020206D01*
X006893Y020238D02*
X007003Y020238D01*
X007003Y020140D02*
X006893Y020140D01*
X006893Y020041D02*
X007003Y020041D01*
X007003Y019943D02*
X006893Y019943D01*
X006893Y019844D02*
X007003Y019844D01*
X007003Y019746D02*
X006893Y019746D01*
X006893Y019647D02*
X007003Y019647D01*
X007003Y019549D02*
X006893Y019549D01*
X006949Y019450D02*
X007003Y019450D01*
X007048Y019352D02*
X008398Y019352D01*
X008398Y019450D02*
X007893Y019450D01*
X007893Y019549D02*
X008398Y019549D01*
X008324Y019647D02*
X007893Y019647D01*
X007893Y019746D02*
X008226Y019746D01*
X008127Y019844D02*
X007893Y019844D01*
X007893Y019943D02*
X008029Y019943D01*
X008048Y020206D02*
X007648Y020206D01*
X007598Y020256D01*
X007548Y020206D01*
X007448Y020206D01*
X007003Y020337D02*
X006893Y020337D01*
X006893Y020436D02*
X007003Y020436D01*
X007003Y020534D02*
X006893Y020534D01*
X006893Y020633D02*
X007003Y020633D01*
X007003Y020731D02*
X006905Y020731D01*
X006734Y021125D02*
X002598Y021125D01*
X002598Y021027D02*
X004056Y021027D01*
X004091Y021061D02*
X004003Y020973D01*
X004003Y019606D01*
X003803Y019606D01*
X003598Y019401D01*
X003598Y019111D01*
X003648Y019061D01*
X003591Y019061D01*
X003503Y018973D01*
X003503Y017440D01*
X003591Y017352D01*
X004305Y017352D01*
X004393Y017440D01*
X004393Y018906D01*
X004503Y018906D01*
X004503Y017440D01*
X004591Y017352D01*
X005305Y017352D01*
X005393Y017440D01*
X005393Y018906D01*
X005593Y018906D01*
X005798Y019111D01*
X005798Y019352D01*
X005805Y019352D01*
X005893Y019440D01*
X005893Y020973D01*
X005805Y021061D01*
X005091Y021061D01*
X005003Y020973D01*
X005003Y019606D01*
X004893Y019606D01*
X004893Y020973D01*
X004805Y021061D01*
X004091Y021061D01*
X004003Y020928D02*
X002598Y020928D01*
X002598Y020830D02*
X004003Y020830D01*
X004003Y020731D02*
X002598Y020731D01*
X002598Y020633D02*
X004003Y020633D01*
X004003Y020534D02*
X002598Y020534D01*
X002598Y020436D02*
X004003Y020436D01*
X004003Y020337D02*
X002598Y020337D01*
X002598Y020238D02*
X004003Y020238D01*
X004003Y020140D02*
X002598Y020140D01*
X002598Y020041D02*
X004003Y020041D01*
X004003Y019943D02*
X002598Y019943D01*
X002598Y019844D02*
X004003Y019844D01*
X004003Y019746D02*
X002598Y019746D01*
X002598Y019647D02*
X004003Y019647D01*
X003745Y019549D02*
X002598Y019549D01*
X002598Y019450D02*
X003647Y019450D01*
X003598Y019352D02*
X002598Y019352D01*
X002598Y019253D02*
X003598Y019253D01*
X003598Y019154D02*
X002598Y019154D01*
X002598Y019056D02*
X003585Y019056D01*
X003503Y018957D02*
X002598Y018957D01*
X002598Y018859D02*
X003503Y018859D01*
X003503Y018760D02*
X002598Y018760D01*
X002598Y018662D02*
X003503Y018662D01*
X003503Y018563D02*
X002598Y018563D01*
X002598Y018465D02*
X003503Y018465D01*
X003503Y018366D02*
X002598Y018366D01*
X002598Y018268D02*
X003503Y018268D01*
X003503Y018169D02*
X002598Y018169D01*
X002598Y018070D02*
X003503Y018070D01*
X003503Y017972D02*
X002598Y017972D01*
X002598Y017873D02*
X003503Y017873D01*
X003503Y017775D02*
X002598Y017775D01*
X002598Y017676D02*
X003503Y017676D01*
X003503Y017578D02*
X002598Y017578D01*
X002598Y017479D02*
X003503Y017479D01*
X003562Y017381D02*
X002598Y017381D01*
X002598Y017282D02*
X005948Y017282D01*
X005948Y017184D02*
X002598Y017184D01*
X002598Y017085D02*
X005948Y017085D01*
X005973Y016986D02*
X002598Y016986D01*
X002598Y016888D02*
X006071Y016888D01*
X006298Y017156D02*
X006348Y017156D01*
X006898Y017706D01*
X006948Y017706D01*
X006948Y018206D01*
X006948Y018756D01*
X006748Y018956D01*
X006748Y019156D01*
X007098Y019154D02*
X008517Y019154D01*
X008616Y019056D02*
X008311Y019056D01*
X008393Y018957D02*
X008714Y018957D01*
X008813Y018859D02*
X008393Y018859D01*
X008419Y019253D02*
X007098Y019253D01*
X007311Y019056D02*
X007585Y019056D01*
X007503Y018957D02*
X007393Y018957D01*
X007393Y018859D02*
X007503Y018859D01*
X007503Y018760D02*
X007393Y018760D01*
X007393Y018662D02*
X007503Y018662D01*
X007503Y018563D02*
X007393Y018563D01*
X007393Y018465D02*
X007503Y018465D01*
X007503Y018366D02*
X007393Y018366D01*
X007393Y018268D02*
X007503Y018268D01*
X007503Y018169D02*
X007393Y018169D01*
X007393Y018070D02*
X007503Y018070D01*
X007503Y017972D02*
X007393Y017972D01*
X007393Y017873D02*
X007503Y017873D01*
X007503Y017775D02*
X007393Y017775D01*
X007393Y017676D02*
X007503Y017676D01*
X007503Y017578D02*
X007393Y017578D01*
X007393Y017479D02*
X007503Y017479D01*
X007562Y017381D02*
X007334Y017381D01*
X007216Y017282D02*
X007180Y017282D01*
X007193Y017184D02*
X007203Y017184D01*
X007193Y017085D02*
X007203Y017085D01*
X007193Y016986D02*
X007203Y016986D01*
X007193Y016888D02*
X007203Y016888D01*
X007193Y016789D02*
X007203Y016789D01*
X007256Y016691D02*
X007140Y016691D01*
X007289Y016592D02*
X002598Y016592D01*
X002598Y016494D02*
X007198Y016494D01*
X007198Y016395D02*
X002598Y016395D01*
X002598Y016297D02*
X007198Y016297D01*
X007211Y016198D02*
X002598Y016198D01*
X002598Y016691D02*
X006607Y016691D01*
X006553Y016789D02*
X002598Y016789D01*
X004334Y017381D02*
X004562Y017381D01*
X004503Y017479D02*
X004393Y017479D01*
X004393Y017578D02*
X004503Y017578D01*
X004503Y017676D02*
X004393Y017676D01*
X004393Y017775D02*
X004503Y017775D01*
X004503Y017873D02*
X004393Y017873D01*
X004393Y017972D02*
X004503Y017972D01*
X004503Y018070D02*
X004393Y018070D01*
X004393Y018169D02*
X004503Y018169D01*
X004503Y018268D02*
X004393Y018268D01*
X004393Y018366D02*
X004503Y018366D01*
X004503Y018465D02*
X004393Y018465D01*
X004393Y018563D02*
X004503Y018563D01*
X004503Y018662D02*
X004393Y018662D01*
X004393Y018760D02*
X004503Y018760D01*
X004503Y018859D02*
X004393Y018859D01*
X004448Y019256D02*
X004448Y020206D01*
X004893Y020238D02*
X005003Y020238D01*
X005003Y020140D02*
X004893Y020140D01*
X004893Y020041D02*
X005003Y020041D01*
X005003Y019943D02*
X004893Y019943D01*
X004893Y019844D02*
X005003Y019844D01*
X005003Y019746D02*
X004893Y019746D01*
X004893Y019647D02*
X005003Y019647D01*
X005448Y019856D02*
X005498Y019906D01*
X005498Y020156D01*
X005448Y020206D01*
X005448Y019856D02*
X005448Y019256D01*
X005798Y019253D02*
X006398Y019253D01*
X006398Y019154D02*
X005798Y019154D01*
X005742Y019056D02*
X006398Y019056D01*
X006452Y018957D02*
X005644Y018957D01*
X005393Y018859D02*
X006503Y018859D01*
X006503Y018760D02*
X005393Y018760D01*
X005393Y018662D02*
X006503Y018662D01*
X006503Y018563D02*
X005393Y018563D01*
X005393Y018465D02*
X006503Y018465D01*
X006503Y018366D02*
X005393Y018366D01*
X005393Y018268D02*
X006503Y018268D01*
X006503Y018169D02*
X005393Y018169D01*
X005393Y018070D02*
X006503Y018070D01*
X006503Y017972D02*
X005393Y017972D01*
X005393Y017873D02*
X006503Y017873D01*
X006503Y017775D02*
X005393Y017775D01*
X005393Y017676D02*
X006503Y017676D01*
X006486Y017578D02*
X005393Y017578D01*
X005393Y017479D02*
X006126Y017479D01*
X006027Y017381D02*
X005334Y017381D01*
X006524Y016888D02*
X006553Y016888D01*
X006873Y017006D02*
X006873Y017032D01*
X006948Y017106D01*
X006948Y017706D01*
X007523Y017006D02*
X007548Y017006D01*
X007548Y016356D01*
X008448Y017456D02*
X008448Y017756D01*
X008548Y017856D01*
X008898Y017873D02*
X010470Y017873D01*
X010448Y017775D02*
X008898Y017775D01*
X008863Y017676D02*
X010448Y017676D01*
X010448Y017578D02*
X008764Y017578D01*
X009019Y017381D02*
X009177Y017381D01*
X008898Y017972D02*
X010388Y017972D01*
X010289Y018070D02*
X008829Y018070D01*
X008730Y018169D02*
X010248Y018169D01*
X010248Y018268D02*
X008804Y018268D01*
X008898Y018366D02*
X010005Y018366D01*
X009907Y018465D02*
X008898Y018465D01*
X008898Y018563D02*
X009808Y018563D01*
X009710Y018662D02*
X008888Y018662D01*
X008911Y018760D02*
X008789Y018760D01*
X009048Y018906D02*
X009748Y018906D01*
X010098Y018556D01*
X010298Y018556D01*
X010598Y018256D01*
X011298Y017706D02*
X011498Y017906D01*
X011448Y017847D01*
X011298Y017706D02*
X010798Y017706D01*
X012298Y017847D02*
X012298Y017906D01*
X012498Y017706D01*
X012948Y017706D01*
X013298Y017775D02*
X016848Y017775D01*
X016848Y017873D02*
X015325Y017873D01*
X014098Y017106D02*
X013748Y016756D01*
X012348Y016756D01*
X013698Y017506D02*
X017798Y017506D01*
X018148Y017856D01*
X018548Y018256D02*
X019648Y019356D01*
X019798Y019406D01*
X019848Y019406D01*
X020298Y018956D01*
X020298Y018981D01*
X019948Y018957D02*
X019532Y018957D01*
X019630Y019056D02*
X019916Y019056D01*
X019817Y019154D02*
X019729Y019154D01*
X019798Y019406D02*
X019798Y019506D01*
X019458Y020041D02*
X022268Y020041D01*
X022170Y020140D02*
X019458Y020140D01*
X019437Y020238D02*
X022148Y020238D01*
X022148Y020337D02*
X019396Y020337D01*
X019299Y020436D02*
X022148Y020436D01*
X022231Y020534D02*
X016020Y020534D01*
X016098Y020633D02*
X022329Y020633D01*
X022667Y020633D02*
X023338Y020633D01*
X023338Y020731D02*
X016098Y020731D01*
X016098Y020830D02*
X023355Y020830D01*
X023396Y020928D02*
X016071Y020928D01*
X015973Y021027D02*
X023488Y021027D01*
X023748Y020706D02*
X023748Y019506D01*
X023448Y019206D01*
X023448Y016856D01*
X022598Y016006D01*
X022598Y014206D01*
X022948Y014227D02*
X023132Y014227D01*
X023034Y014326D02*
X022948Y014326D01*
X022948Y014424D02*
X022875Y014424D01*
X022948Y014523D02*
X022798Y014523D01*
X022798Y014621D02*
X022948Y014621D01*
X022967Y014720D02*
X022798Y014720D01*
X022798Y014819D02*
X023065Y014819D01*
X022798Y014917D02*
X024096Y014917D01*
X024031Y015016D02*
X022798Y015016D01*
X022798Y015114D02*
X024031Y015114D01*
X024031Y015213D02*
X022798Y015213D01*
X022798Y015311D02*
X024031Y015311D01*
X024031Y015410D02*
X022798Y015410D01*
X022798Y015508D02*
X024040Y015508D01*
X024764Y015016D02*
X024838Y015016D01*
X024838Y014917D02*
X024699Y014917D01*
X024764Y014819D02*
X024846Y014819D01*
X024764Y014720D02*
X024945Y014720D01*
X025043Y014621D02*
X024764Y014621D01*
X024764Y014523D02*
X025639Y014523D01*
X025618Y014424D02*
X024764Y014424D01*
X024764Y014326D02*
X024922Y014326D01*
X024824Y014227D02*
X024679Y014227D01*
X024748Y014129D02*
X022948Y014129D01*
X022917Y014030D02*
X024748Y014030D01*
X024748Y013932D02*
X022818Y013932D01*
X022378Y013932D02*
X022248Y013932D01*
X022248Y014030D02*
X022279Y014030D01*
X022248Y014129D02*
X022248Y014129D01*
X022248Y014227D02*
X022248Y014227D01*
X022248Y014326D02*
X022248Y014326D01*
X022248Y014424D02*
X022321Y014424D01*
X022248Y014523D02*
X022398Y014523D01*
X022398Y014621D02*
X022248Y014621D01*
X022248Y014720D02*
X022398Y014720D01*
X022398Y014819D02*
X022248Y014819D01*
X022248Y014917D02*
X022398Y014917D01*
X022398Y015016D02*
X022248Y015016D01*
X022248Y015114D02*
X022398Y015114D01*
X022398Y015410D02*
X022346Y015410D01*
X022398Y015508D02*
X022398Y015508D01*
X022398Y015607D02*
X022398Y015607D01*
X022398Y015705D02*
X022398Y015705D01*
X022398Y015804D02*
X022345Y015804D01*
X022398Y015903D02*
X022247Y015903D01*
X022398Y016001D02*
X021525Y016001D01*
X021427Y015903D02*
X021849Y015903D01*
X021751Y015804D02*
X021328Y015804D01*
X021230Y015705D02*
X021698Y015705D01*
X021698Y015607D02*
X021181Y015607D01*
X021083Y015508D02*
X021698Y015508D01*
X021456Y015410D02*
X020998Y015410D01*
X020998Y015311D02*
X021358Y015311D01*
X021348Y015213D02*
X020998Y015213D01*
X021256Y015114D02*
X021348Y015114D01*
X021398Y014917D02*
X021442Y014917D01*
X021398Y014819D02*
X021541Y014819D01*
X021648Y014720D02*
X021398Y014720D01*
X021379Y014621D02*
X021648Y014621D01*
X021648Y014523D02*
X021280Y014523D01*
X021181Y014424D02*
X021648Y014424D01*
X021648Y014326D02*
X020848Y014326D01*
X020784Y014227D02*
X021648Y014227D01*
X021648Y014129D02*
X020686Y014129D01*
X020210Y014129D02*
X018648Y014129D01*
X018648Y014030D02*
X021648Y014030D01*
X021648Y013932D02*
X018648Y013932D01*
X018648Y013833D02*
X021648Y013833D01*
X021648Y013735D02*
X018648Y013735D01*
X019233Y013537D02*
X019413Y013537D01*
X019648Y013206D02*
X019698Y013106D01*
X019441Y012848D02*
X019205Y012848D01*
X019303Y012946D02*
X019343Y012946D01*
X018998Y013206D02*
X018898Y013106D01*
X018748Y012256D02*
X015448Y012256D01*
X014248Y013456D01*
X012898Y013456D01*
X012548Y013439D02*
X012513Y013439D01*
X012548Y013340D02*
X012415Y013340D01*
X011021Y012749D02*
X010373Y012749D01*
X010275Y012651D02*
X010923Y012651D01*
X010824Y012552D02*
X010176Y012552D01*
X010078Y012454D02*
X010726Y012454D01*
X010627Y012355D02*
X009979Y012355D01*
X009881Y012256D02*
X010529Y012256D01*
X010430Y012158D02*
X009782Y012158D01*
X009684Y012059D02*
X010332Y012059D01*
X011001Y012083D02*
X011374Y012083D01*
X011398Y012106D01*
X010472Y012848D02*
X014224Y012848D01*
X014322Y012749D02*
X014124Y012749D01*
X014223Y012651D02*
X014421Y012651D01*
X014322Y012552D02*
X014520Y012552D01*
X014618Y012454D02*
X014420Y012454D01*
X014519Y012355D02*
X014717Y012355D01*
X014815Y012256D02*
X014617Y012256D01*
X014716Y012158D02*
X014914Y012158D01*
X015012Y012059D02*
X014814Y012059D01*
X014913Y011961D02*
X015111Y011961D01*
X015209Y011862D02*
X015011Y011862D01*
X015110Y011764D02*
X015308Y011764D01*
X015348Y011665D02*
X015208Y011665D01*
X015248Y011567D02*
X015348Y011567D01*
X015348Y011468D02*
X015298Y011468D01*
X015298Y011370D02*
X015352Y011370D01*
X015298Y011271D02*
X015451Y011271D01*
X015549Y011172D02*
X015298Y011172D01*
X015298Y011074D02*
X015648Y011074D01*
X013798Y011206D02*
X013548Y011456D01*
X011698Y011456D01*
X010848Y010606D01*
X009398Y010606D01*
X008998Y010206D01*
X008048Y010206D01*
X007648Y010606D01*
X005798Y010606D01*
X005648Y010756D01*
X005648Y011706D01*
X006148Y012206D01*
X006198Y011356D02*
X006598Y011356D01*
X006198Y011356D02*
X006098Y011330D01*
X007098Y011330D02*
X007198Y011356D01*
X007198Y011380D01*
X007598Y011406D02*
X007598Y011330D01*
X007698Y011356D01*
X007698Y011380D01*
X007648Y011456D02*
X007823Y011281D01*
X008298Y011231D01*
X007648Y011456D02*
X007598Y011406D01*
X007807Y010730D02*
X008829Y010730D01*
X009239Y010730D01*
X009198Y010689D01*
X008915Y010406D01*
X008131Y010406D01*
X007807Y010730D01*
X007857Y010680D02*
X009188Y010680D01*
X009090Y010581D02*
X007956Y010581D01*
X008055Y010483D02*
X008991Y010483D01*
X008875Y010006D02*
X007965Y010006D01*
X007848Y010124D01*
X007565Y010406D01*
X005731Y010406D01*
X005701Y010376D01*
X005910Y010376D01*
X007310Y010376D01*
X007468Y010218D01*
X007868Y009818D01*
X007868Y009595D01*
X007868Y009171D01*
X007866Y009169D01*
X007866Y008806D01*
X008267Y008806D01*
X008598Y008476D01*
X008598Y008609D01*
X008598Y009729D01*
X008875Y010006D01*
X008859Y009990D02*
X007696Y009990D01*
X007598Y010088D02*
X007883Y010088D01*
X007785Y010187D02*
X007499Y010187D01*
X007401Y010286D02*
X007686Y010286D01*
X007587Y010384D02*
X005708Y010384D01*
X005648Y010606D02*
X005373Y010332D01*
X005148Y010332D01*
X004798Y010384D02*
X004743Y010384D01*
X004743Y010483D02*
X004798Y010483D01*
X004815Y010581D02*
X004730Y010581D01*
X004253Y010778D02*
X005448Y010778D01*
X005438Y010680D02*
X004154Y010680D01*
X004115Y010581D02*
X004081Y010581D01*
X004093Y010483D02*
X004103Y010483D01*
X004093Y010384D02*
X004103Y010384D01*
X004093Y010286D02*
X004103Y010286D01*
X004093Y010187D02*
X004103Y010187D01*
X004093Y010088D02*
X004103Y010088D01*
X003581Y010656D02*
X003581Y010656D01*
X002984Y010975D02*
X002598Y010975D01*
X002598Y010877D02*
X002886Y010877D01*
X002787Y010778D02*
X002598Y010778D01*
X002598Y010680D02*
X002698Y010680D01*
X002698Y010581D02*
X002598Y010581D01*
X002598Y010483D02*
X002698Y010483D01*
X002698Y010384D02*
X002598Y010384D01*
X002598Y010286D02*
X002698Y010286D01*
X002698Y010187D02*
X002598Y010187D01*
X002598Y010088D02*
X002698Y010088D01*
X002698Y009990D02*
X002598Y009990D01*
X002598Y009891D02*
X002698Y009891D01*
X002698Y009793D02*
X002598Y009793D01*
X002598Y009694D02*
X002698Y009694D01*
X002698Y009596D02*
X002598Y009596D01*
X002598Y009497D02*
X002698Y009497D01*
X002698Y009399D02*
X002598Y009399D01*
X002598Y009300D02*
X002698Y009300D01*
X002698Y009202D02*
X002598Y009202D01*
X002598Y009103D02*
X002698Y009103D01*
X002698Y009004D02*
X002598Y009004D01*
X002598Y008906D02*
X002698Y008906D01*
X002698Y008807D02*
X002598Y008807D01*
X002598Y008709D02*
X002698Y008709D01*
X002698Y008610D02*
X002598Y008610D01*
X002598Y008512D02*
X002698Y008512D01*
X002698Y008413D02*
X002598Y008413D01*
X002598Y008315D02*
X002698Y008315D01*
X002698Y008216D02*
X002598Y008216D01*
X002598Y008118D02*
X002698Y008118D01*
X002698Y008019D02*
X002598Y008019D01*
X002598Y007921D02*
X002698Y007921D01*
X002698Y007822D02*
X002598Y007822D01*
X002598Y007723D02*
X002698Y007723D01*
X002698Y007625D02*
X002598Y007625D01*
X002598Y007526D02*
X002698Y007526D01*
X002698Y007428D02*
X002598Y007428D01*
X002598Y007329D02*
X002698Y007329D01*
X002698Y007231D02*
X002598Y007231D01*
X002598Y007132D02*
X002698Y007132D01*
X002738Y007034D02*
X002598Y007034D01*
X002598Y006935D02*
X002836Y006935D01*
X002935Y006837D02*
X002598Y006837D01*
X002598Y006738D02*
X003034Y006738D01*
X003132Y006639D02*
X002598Y006639D01*
X002598Y006541D02*
X005830Y006541D01*
X005830Y006442D02*
X002598Y006442D01*
X002598Y006344D02*
X005743Y006344D01*
X005698Y006245D02*
X002598Y006245D01*
X002598Y006147D02*
X005698Y006147D01*
X005698Y006048D02*
X002598Y006048D01*
X002598Y005950D02*
X005715Y005950D01*
X005814Y005851D02*
X002598Y005851D01*
X002598Y005753D02*
X005830Y005753D01*
X005830Y005654D02*
X002598Y005654D01*
X002598Y005555D02*
X005912Y005555D01*
X006168Y005457D02*
X002598Y005457D01*
X002598Y005358D02*
X006168Y005358D01*
X006168Y005260D02*
X002598Y005260D01*
X002598Y005161D02*
X006168Y005161D01*
X006168Y005063D02*
X002598Y005063D01*
X002598Y004964D02*
X006168Y004964D01*
X006168Y004866D02*
X002598Y004866D01*
X002598Y004767D02*
X006168Y004767D01*
X006192Y004669D02*
X002598Y004669D01*
X002598Y004570D02*
X006317Y004570D01*
X006248Y004471D02*
X002598Y004471D01*
X002598Y004373D02*
X006248Y004373D01*
X006248Y004274D02*
X002598Y004274D01*
X002598Y004176D02*
X006284Y004176D01*
X006382Y004077D02*
X002598Y004077D01*
X002598Y003979D02*
X007456Y003979D01*
X007448Y004077D02*
X006814Y004077D01*
X006912Y004176D02*
X007448Y004176D01*
X007448Y004274D02*
X006948Y004274D01*
X006948Y004373D02*
X007448Y004373D01*
X007448Y004471D02*
X006948Y004471D01*
X006879Y004570D02*
X007492Y004570D01*
X007728Y004866D02*
X007788Y004866D01*
X007728Y004964D02*
X007887Y004964D01*
X007985Y005063D02*
X007728Y005063D01*
X007728Y005161D02*
X008084Y005161D01*
X008182Y005260D02*
X007728Y005260D01*
X007728Y005358D02*
X008281Y005358D01*
X008690Y005457D02*
X007728Y005457D01*
X007784Y005555D02*
X008789Y005555D01*
X008888Y005654D02*
X007866Y005654D01*
X006848Y005556D02*
X006848Y004906D01*
X006948Y005056D02*
X006598Y004706D01*
X006598Y004356D01*
X007555Y003880D02*
X002598Y003880D01*
X002598Y003782D02*
X007653Y003782D01*
X007752Y003683D02*
X002598Y003683D01*
X002598Y003585D02*
X022050Y003585D01*
X022148Y003486D02*
X002598Y003486D01*
X002598Y003388D02*
X022247Y003388D01*
X025660Y004769D02*
X025698Y004731D01*
X026142Y003880D02*
X032998Y003880D01*
X032998Y002599D02*
X029693Y002599D01*
X029693Y002501D02*
X032998Y002501D01*
X028723Y002706D02*
X028573Y002856D01*
X028198Y002856D01*
X027598Y002854D01*
X026948Y004306D02*
X026948Y004456D01*
X027548Y005056D01*
X027550Y005059D01*
X027598Y005059D01*
X027598Y005106D01*
X032930Y005358D02*
X032998Y005358D01*
X032998Y005457D02*
X032998Y005457D01*
X032998Y005555D02*
X032998Y005555D01*
X032998Y005654D02*
X032940Y005654D01*
X032930Y005753D02*
X032998Y005753D01*
X032998Y005851D02*
X032998Y005851D01*
X032998Y005950D02*
X032998Y005950D01*
X032998Y006048D02*
X032940Y006048D01*
X032975Y006147D02*
X032998Y006147D01*
X032998Y006245D02*
X032998Y006245D01*
X032998Y006344D02*
X032998Y006344D01*
X032998Y006442D02*
X032998Y006442D01*
X032993Y006541D02*
X032998Y006541D01*
X032998Y006639D02*
X032895Y006639D01*
X032824Y006738D02*
X032998Y006738D01*
X032998Y006837D02*
X032922Y006837D01*
X032900Y006814D02*
X032900Y006814D01*
X032998Y006935D02*
X032998Y006935D01*
X032998Y007034D02*
X032998Y007034D01*
X032998Y007132D02*
X032948Y007132D01*
X032985Y007231D02*
X032998Y007231D01*
X032998Y007329D02*
X032998Y007329D01*
X032998Y007428D02*
X032998Y007428D01*
X032998Y007526D02*
X032998Y007526D01*
X032998Y007625D02*
X032983Y007625D01*
X032998Y007723D02*
X032931Y007723D01*
X032998Y007822D02*
X032998Y007822D01*
X032998Y007921D02*
X032998Y007921D01*
X032998Y008019D02*
X032938Y008019D01*
X032998Y008118D02*
X032643Y008118D01*
X032604Y008216D02*
X032998Y008216D01*
X032998Y008315D02*
X032690Y008315D01*
X032703Y008413D02*
X032998Y008413D01*
X032998Y008512D02*
X032703Y008512D01*
X032703Y008610D02*
X032998Y008610D01*
X032998Y008709D02*
X032703Y008709D01*
X032703Y008807D02*
X032998Y008807D01*
X032998Y009261D02*
X032998Y009261D01*
X032998Y009300D02*
X032998Y009300D01*
X032998Y009399D02*
X032998Y009399D01*
X032998Y009497D02*
X032937Y009497D01*
X032900Y009535D02*
X032900Y009535D01*
X032878Y009594D02*
X032878Y009594D01*
X032879Y009596D02*
X032998Y009596D01*
X032998Y009694D02*
X032978Y009694D01*
X032998Y009793D02*
X032998Y009793D01*
X032998Y009891D02*
X032998Y009891D01*
X032998Y009990D02*
X032998Y009990D01*
X032990Y010088D02*
X032998Y010088D01*
X032998Y010187D02*
X032892Y010187D01*
X032900Y010179D02*
X032900Y010179D01*
X032925Y010286D02*
X032998Y010286D01*
X032998Y010384D02*
X032998Y010384D01*
X032998Y010483D02*
X032998Y010483D01*
X032998Y010529D02*
X032998Y010529D01*
X032998Y010581D02*
X032998Y010581D01*
X032998Y010680D02*
X032998Y010680D01*
X032998Y010778D02*
X032945Y010778D01*
X032900Y010824D02*
X032900Y010824D01*
X032871Y010877D02*
X032998Y010877D01*
X032998Y010975D02*
X032970Y010975D01*
X032998Y011074D02*
X032998Y011074D01*
X032998Y011172D02*
X032998Y011172D01*
X032998Y011271D02*
X032998Y011271D01*
X032998Y011370D02*
X032998Y011370D01*
X032998Y011468D02*
X032916Y011468D01*
X032998Y011567D02*
X032998Y011567D01*
X032998Y011665D02*
X032998Y011665D01*
X032998Y011764D02*
X032954Y011764D01*
X032998Y011862D02*
X032658Y011862D01*
X032604Y011961D02*
X032998Y011961D01*
X032669Y012651D02*
X032524Y012651D01*
X032998Y012749D02*
X032998Y012749D01*
X032998Y012848D02*
X032998Y012848D01*
X032998Y012946D02*
X032998Y012946D01*
X032998Y013045D02*
X032998Y013045D01*
X032998Y013143D02*
X032998Y013143D01*
X032998Y013242D02*
X032998Y013242D01*
X032998Y013340D02*
X032952Y013340D01*
X030318Y013340D02*
X029428Y013340D01*
X029428Y013242D02*
X030318Y013242D01*
X030318Y013143D02*
X029428Y013143D01*
X029428Y013045D02*
X030318Y013045D01*
X030318Y012946D02*
X029428Y012946D01*
X029428Y012848D02*
X030318Y012848D01*
X029999Y012749D02*
X029428Y012749D01*
X029428Y012651D02*
X029993Y012651D01*
X029993Y012552D02*
X029428Y012552D01*
X029428Y012454D02*
X029993Y012454D01*
X029993Y012355D02*
X029428Y012355D01*
X029428Y012256D02*
X029993Y012256D01*
X029993Y012158D02*
X029428Y012158D01*
X029428Y012059D02*
X029993Y012059D01*
X030021Y011961D02*
X029428Y011961D01*
X027323Y010856D02*
X026848Y010856D01*
X027248Y010830D02*
X027323Y010856D01*
X026398Y011206D02*
X026248Y011056D01*
X026248Y011106D01*
X026323Y011106D02*
X026323Y010856D01*
X026248Y010830D01*
X026398Y011206D02*
X026498Y011582D01*
X026148Y011764D02*
X025595Y011764D01*
X025658Y011862D02*
X026196Y011862D01*
X025823Y011106D02*
X025823Y010856D01*
X025748Y010830D01*
X023011Y009757D02*
X022948Y009731D01*
X022948Y009756D01*
X021448Y010656D02*
X021448Y011106D01*
X021398Y011080D01*
X021237Y011862D02*
X022759Y011862D01*
X022858Y011764D02*
X019388Y011764D01*
X019289Y011665D02*
X019564Y011665D01*
X019465Y011567D02*
X019191Y011567D01*
X019092Y011468D02*
X019367Y011468D01*
X019268Y011370D02*
X018994Y011370D01*
X018109Y010187D02*
X016040Y010187D01*
X016135Y010088D02*
X018011Y010088D01*
X017912Y009990D02*
X016234Y009990D01*
X016298Y009891D02*
X017814Y009891D01*
X017798Y009793D02*
X016298Y009793D01*
X016298Y009694D02*
X017798Y009694D01*
X017798Y009596D02*
X016298Y009596D01*
X016298Y009497D02*
X017798Y009497D01*
X017798Y009399D02*
X016298Y009399D01*
X016298Y009300D02*
X017798Y009300D01*
X017798Y009202D02*
X016322Y009202D01*
X016471Y009103D02*
X017798Y009103D01*
X017798Y009004D02*
X016569Y009004D01*
X016668Y008906D02*
X017798Y008906D01*
X017798Y008807D02*
X016766Y008807D01*
X016865Y008709D02*
X017798Y008709D01*
X017798Y008610D02*
X016963Y008610D01*
X017062Y008512D02*
X017798Y008512D01*
X017798Y008413D02*
X017160Y008413D01*
X017259Y008315D02*
X017798Y008315D01*
X017798Y008216D02*
X017357Y008216D01*
X017456Y008118D02*
X017798Y008118D01*
X017791Y008019D02*
X017555Y008019D01*
X017653Y007921D02*
X017698Y007921D01*
X017148Y007506D02*
X017198Y007106D01*
X016307Y007428D02*
X013342Y007428D01*
X012548Y007306D02*
X012298Y007556D01*
X012298Y008083D01*
X012498Y007306D02*
X012548Y007306D01*
X014961Y008512D02*
X015173Y008512D01*
X015075Y008610D02*
X014998Y008610D01*
X014998Y008709D02*
X014998Y008709D01*
X014998Y008807D02*
X014998Y008807D01*
X014998Y008906D02*
X014998Y008906D01*
X014998Y009004D02*
X014998Y009004D01*
X014998Y009103D02*
X014918Y009103D01*
X014918Y009202D02*
X014998Y009202D01*
X014998Y009300D02*
X014918Y009300D01*
X014918Y009399D02*
X014996Y009399D01*
X014902Y009497D02*
X014839Y009497D01*
X014808Y009596D02*
X014740Y009596D01*
X014714Y009694D02*
X014678Y009694D01*
X014620Y009793D02*
X014587Y009793D01*
X014527Y009891D02*
X014433Y009891D01*
X014433Y009990D02*
X014331Y009990D01*
X014339Y010088D02*
X014229Y010088D01*
X014245Y010187D02*
X014127Y010187D01*
X014150Y010286D02*
X014066Y010286D01*
X013798Y010106D02*
X013798Y011206D01*
X012153Y011244D02*
X012028Y011118D01*
X012028Y010895D01*
X012028Y010426D01*
X010951Y010426D01*
X011048Y010524D01*
X011781Y011256D01*
X012153Y011256D01*
X012153Y011244D01*
X012082Y011172D02*
X011697Y011172D01*
X011598Y011074D02*
X012028Y011074D01*
X012028Y010975D02*
X011500Y010975D01*
X011401Y010877D02*
X012028Y010877D01*
X012028Y010778D02*
X011303Y010778D01*
X011204Y010680D02*
X012028Y010680D01*
X012028Y010581D02*
X011105Y010581D01*
X011007Y010483D02*
X012028Y010483D01*
X013068Y009596D02*
X013069Y009596D01*
X013068Y009497D02*
X014064Y009497D01*
X014165Y009399D02*
X013022Y009399D01*
X012923Y009300D02*
X014267Y009300D01*
X014448Y009506D02*
X014605Y009349D01*
X014448Y009506D02*
X014448Y009606D01*
X014395Y009552D01*
X013569Y009596D02*
X013527Y009596D01*
X010098Y009333D02*
X010073Y008981D01*
X009498Y008981D01*
X009498Y009356D02*
X009198Y009356D01*
X009098Y009333D01*
X008598Y009300D02*
X007868Y009300D01*
X007868Y009202D02*
X008598Y009202D01*
X008598Y009103D02*
X007866Y009103D01*
X007866Y009004D02*
X008598Y009004D01*
X008598Y008906D02*
X007866Y008906D01*
X007866Y008807D02*
X008598Y008807D01*
X008598Y008709D02*
X008365Y008709D01*
X008463Y008610D02*
X008598Y008610D01*
X008598Y008512D02*
X008562Y008512D01*
X009224Y008206D02*
X009573Y008231D01*
X009498Y008231D01*
X007698Y008231D02*
X007698Y008156D01*
X007698Y008231D02*
X007598Y008180D01*
X005809Y007526D02*
X005318Y007526D01*
X005316Y007625D02*
X005710Y007625D01*
X005612Y007723D02*
X005316Y007723D01*
X005316Y007822D02*
X005513Y007822D01*
X005448Y007921D02*
X005316Y007921D01*
X005448Y008019D02*
X003298Y008019D01*
X003298Y008118D02*
X005448Y008118D01*
X005448Y008216D02*
X003298Y008216D01*
X003298Y008315D02*
X003864Y008315D01*
X003766Y008413D02*
X003298Y008413D01*
X003298Y008512D02*
X003667Y008512D01*
X003569Y008610D02*
X003298Y008610D01*
X003298Y008709D02*
X003470Y008709D01*
X003372Y008807D02*
X003298Y008807D01*
X003298Y008906D02*
X003318Y008906D01*
X004316Y007921D02*
X004780Y007921D01*
X004780Y007822D02*
X004316Y007822D01*
X004316Y007723D02*
X004780Y007723D01*
X004780Y007625D02*
X004316Y007625D01*
X004316Y007526D02*
X004778Y007526D01*
X004778Y007428D02*
X004316Y007428D01*
X004316Y007329D02*
X004778Y007329D01*
X004780Y007231D02*
X004316Y007231D01*
X004316Y007132D02*
X004780Y007132D01*
X004780Y007034D02*
X004316Y007034D01*
X004314Y006935D02*
X004782Y006935D01*
X005236Y006837D02*
X004061Y006837D01*
X003962Y006738D02*
X007328Y006738D01*
X005841Y006639D02*
X003864Y006639D01*
X004048Y007433D02*
X004048Y007456D01*
X006098Y006133D02*
X006098Y006006D01*
X006398Y006006D01*
X006848Y005556D01*
X006948Y005156D02*
X006098Y006006D01*
X006948Y005156D02*
X006948Y005109D01*
X006948Y005056D01*
X007023Y002931D02*
X006948Y002904D01*
X007023Y002931D02*
X007073Y002881D01*
X006798Y009256D02*
X007198Y009356D01*
X007098Y009283D01*
X006598Y009283D02*
X006573Y009356D01*
X006098Y009283D01*
X007868Y009399D02*
X008598Y009399D01*
X008598Y009497D02*
X007868Y009497D01*
X007868Y009596D02*
X008598Y009596D01*
X008598Y009694D02*
X007868Y009694D01*
X007868Y009793D02*
X008662Y009793D01*
X008760Y009891D02*
X007795Y009891D01*
X005648Y010606D02*
X005648Y010756D01*
X005410Y010652D02*
X005410Y010652D01*
X003181Y011172D02*
X002598Y011172D01*
X002598Y011074D02*
X003083Y011074D01*
X008782Y012848D02*
X009906Y012848D01*
X010005Y012946D02*
X008810Y012946D01*
X008819Y013045D02*
X010103Y013045D01*
X010202Y013143D02*
X008918Y013143D01*
X009198Y011481D02*
X009198Y011380D01*
X009098Y011380D02*
X009198Y011481D01*
X009598Y011380D02*
X009698Y011481D01*
X009698Y011380D01*
X010098Y011380D02*
X010198Y011481D01*
X010598Y011406D01*
X010148Y015106D02*
X010123Y015106D01*
X014098Y017106D02*
X018498Y017106D01*
X019248Y017856D01*
X019398Y017856D01*
X019398Y018406D01*
X019498Y018506D01*
X019798Y018506D01*
X019973Y018332D01*
X020298Y018332D01*
X020619Y018070D02*
X020843Y018070D01*
X020843Y017972D02*
X019598Y017972D01*
X019598Y018070D02*
X019977Y018070D01*
X019853Y018169D02*
X019655Y018169D01*
X019754Y018268D02*
X019754Y018268D01*
X019598Y017873D02*
X020843Y017873D01*
X020843Y017775D02*
X019598Y017775D01*
X019501Y017676D02*
X020843Y017676D01*
X020748Y017406D02*
X021298Y017406D01*
X021548Y017656D01*
X021348Y017697D01*
X020748Y017406D02*
X020598Y017256D01*
X020523Y017256D01*
X020203Y017381D02*
X020193Y017381D01*
X020193Y017479D02*
X020203Y017479D01*
X020262Y017578D02*
X020134Y017578D01*
X019612Y017578D02*
X019252Y017578D01*
X019153Y017479D02*
X019553Y017479D01*
X019553Y017381D02*
X019055Y017381D01*
X018956Y017282D02*
X019541Y017282D01*
X019442Y017184D02*
X018858Y017184D01*
X018640Y016494D02*
X017048Y016494D01*
X017032Y016395D02*
X018542Y016395D01*
X018498Y016297D02*
X016933Y016297D01*
X016748Y016556D02*
X016898Y016706D01*
X019873Y016706D01*
X020648Y015856D02*
X020798Y015856D01*
X021498Y016556D01*
X022498Y016556D01*
X023048Y017106D01*
X023048Y019306D01*
X022498Y019856D01*
X022498Y020306D01*
X022728Y020041D02*
X023003Y020041D01*
X022904Y019943D02*
X022698Y019943D01*
X022793Y019844D02*
X022861Y019844D01*
X022826Y020140D02*
X023548Y020140D01*
X023548Y020238D02*
X022848Y020238D01*
X022848Y020337D02*
X023548Y020337D01*
X023439Y020436D02*
X022848Y020436D01*
X022765Y020534D02*
X023376Y020534D01*
X023948Y020337D02*
X024569Y020337D01*
X024516Y020359D02*
X024666Y020296D01*
X024829Y020296D01*
X024980Y020359D01*
X025096Y020474D01*
X025158Y020625D01*
X025158Y020788D01*
X025096Y020939D01*
X024980Y021054D01*
X024829Y021116D01*
X024666Y021116D01*
X024516Y021054D01*
X024400Y020939D01*
X024338Y020788D01*
X024338Y020625D01*
X024400Y020474D01*
X024516Y020359D01*
X024439Y020436D02*
X024057Y020436D01*
X024120Y020534D02*
X024376Y020534D01*
X024338Y020633D02*
X024158Y020633D01*
X024158Y020731D02*
X024338Y020731D01*
X024355Y020830D02*
X024141Y020830D01*
X024100Y020928D02*
X024396Y020928D01*
X024488Y021027D02*
X024007Y021027D01*
X025007Y021027D02*
X032998Y021027D01*
X032998Y021125D02*
X015654Y021125D01*
X015548Y020906D02*
X015498Y020906D01*
X015248Y021156D01*
X010598Y021156D01*
X010148Y020706D01*
X009718Y020731D02*
X008656Y020731D01*
X008755Y020633D02*
X009718Y020633D01*
X009718Y020534D02*
X008853Y020534D01*
X008952Y020436D02*
X009811Y020436D01*
X009696Y020337D02*
X008998Y020337D01*
X008998Y020238D02*
X009597Y020238D01*
X009499Y020140D02*
X008998Y020140D01*
X008998Y020041D02*
X009188Y020041D01*
X009089Y019943D02*
X008998Y019943D01*
X008998Y019844D02*
X008998Y019844D01*
X008998Y019746D02*
X008998Y019746D01*
X008998Y019647D02*
X008998Y019647D01*
X008998Y019549D02*
X009011Y019549D01*
X009087Y019450D02*
X009109Y019450D01*
X009186Y019352D02*
X009895Y019352D01*
X009984Y019253D02*
X010248Y019253D01*
X010255Y019154D02*
X010083Y019154D01*
X010181Y019056D02*
X010354Y019056D01*
X010280Y018957D02*
X010452Y018957D01*
X010598Y019306D02*
X010598Y019806D01*
X011048Y020256D01*
X012648Y020256D01*
X013098Y020706D01*
X013148Y020706D01*
X013578Y020731D02*
X015390Y020731D01*
X015398Y020633D02*
X015217Y020633D01*
X015315Y020534D02*
X015475Y020534D01*
X015574Y020436D02*
X015348Y020436D01*
X015348Y020337D02*
X016800Y020337D01*
X016800Y020339D02*
X016738Y020188D01*
X016738Y020025D01*
X016800Y019874D01*
X016916Y019759D01*
X017066Y019696D01*
X017229Y019696D01*
X017380Y019759D01*
X017496Y019874D01*
X017558Y020025D01*
X017558Y020188D01*
X017496Y020339D01*
X017380Y020454D01*
X017229Y020516D01*
X017066Y020516D01*
X016916Y020454D01*
X016800Y020339D01*
X016759Y020238D02*
X015348Y020238D01*
X015276Y020140D02*
X016738Y020140D01*
X016738Y020041D02*
X015178Y020041D01*
X014817Y019943D02*
X016772Y019943D01*
X016830Y019844D02*
X014719Y019844D01*
X014620Y019746D02*
X016947Y019746D01*
X017348Y019746D02*
X018847Y019746D01*
X018730Y019844D02*
X017466Y019844D01*
X017524Y019943D02*
X018672Y019943D01*
X018638Y020041D02*
X017558Y020041D01*
X017558Y020140D02*
X018638Y020140D01*
X018659Y020238D02*
X017537Y020238D01*
X017496Y020337D02*
X018700Y020337D01*
X018797Y020436D02*
X017399Y020436D01*
X016897Y020436D02*
X015922Y020436D01*
X015292Y020830D02*
X013578Y020830D01*
X013534Y020928D02*
X015193Y020928D01*
X014779Y020633D02*
X013578Y020633D01*
X013578Y020534D02*
X014681Y020534D01*
X014648Y020436D02*
X013485Y020436D01*
X013387Y020337D02*
X014646Y020337D01*
X014547Y020238D02*
X012913Y020238D01*
X012970Y020136D02*
X012718Y019885D01*
X012718Y019528D01*
X012970Y019276D01*
X013326Y019276D01*
X013578Y019528D01*
X013578Y019885D01*
X013326Y020136D01*
X012970Y020136D01*
X012875Y020041D02*
X012421Y020041D01*
X012520Y019943D02*
X012776Y019943D01*
X012718Y019844D02*
X012578Y019844D01*
X012578Y019746D02*
X012718Y019746D01*
X012718Y019647D02*
X012578Y019647D01*
X012578Y019549D02*
X012718Y019549D01*
X012796Y019450D02*
X012500Y019450D01*
X012401Y019352D02*
X012895Y019352D01*
X013115Y019056D02*
X010842Y019056D01*
X010941Y019154D02*
X013213Y019154D01*
X013312Y019253D02*
X010948Y019253D01*
X011401Y019352D02*
X011895Y019352D01*
X011796Y019450D02*
X011500Y019450D01*
X011578Y019549D02*
X011718Y019549D01*
X011718Y019647D02*
X011578Y019647D01*
X011578Y019746D02*
X011718Y019746D01*
X011718Y019844D02*
X011578Y019844D01*
X011520Y019943D02*
X011776Y019943D01*
X011875Y020041D02*
X011421Y020041D01*
X010998Y020706D02*
X010498Y020206D01*
X009848Y020206D01*
X009348Y019706D01*
X009586Y019450D02*
X009796Y019450D01*
X009718Y019549D02*
X009685Y019549D01*
X009698Y019647D02*
X009718Y019647D01*
X009718Y019746D02*
X009698Y019746D01*
X009048Y018906D02*
X008598Y019356D01*
X008598Y019656D01*
X008048Y020206D01*
X008557Y020830D02*
X009718Y020830D01*
X009762Y020928D02*
X008459Y020928D01*
X008360Y021027D02*
X009860Y021027D01*
X009959Y021125D02*
X008262Y021125D01*
X006056Y021027D02*
X005840Y021027D01*
X005893Y020928D02*
X006003Y020928D01*
X006003Y020830D02*
X005893Y020830D01*
X005893Y020731D02*
X006003Y020731D01*
X006003Y020633D02*
X005893Y020633D01*
X005893Y020534D02*
X006003Y020534D01*
X006003Y020436D02*
X005893Y020436D01*
X005893Y020337D02*
X006003Y020337D01*
X006003Y020238D02*
X005893Y020238D01*
X005893Y020140D02*
X006003Y020140D01*
X006003Y020041D02*
X005893Y020041D01*
X005893Y019943D02*
X006003Y019943D01*
X006003Y019844D02*
X005893Y019844D01*
X005893Y019746D02*
X006003Y019746D01*
X006003Y019647D02*
X005893Y019647D01*
X005893Y019549D02*
X006003Y019549D01*
X006003Y019450D02*
X005893Y019450D01*
X005798Y019352D02*
X006448Y019352D01*
X004948Y019256D02*
X004948Y018206D01*
X003998Y018206D02*
X003948Y018256D01*
X003948Y019256D01*
X003948Y018206D02*
X003998Y018206D01*
X004893Y020337D02*
X005003Y020337D01*
X005003Y020436D02*
X004893Y020436D01*
X004893Y020534D02*
X005003Y020534D01*
X005003Y020633D02*
X004893Y020633D01*
X004893Y020731D02*
X005003Y020731D01*
X005003Y020830D02*
X004893Y020830D01*
X004893Y020928D02*
X005003Y020928D01*
X005056Y021027D02*
X004840Y021027D01*
X007948Y018406D02*
X008048Y018406D01*
X008148Y018506D01*
X008548Y018506D01*
X007948Y018406D02*
X007948Y018206D01*
X012748Y018406D02*
X013948Y019606D01*
X013948Y019706D01*
X014148Y019706D01*
X014298Y019706D01*
X014948Y020356D01*
X014998Y020356D01*
X014449Y020140D02*
X012814Y020140D01*
X013421Y020041D02*
X013875Y020041D01*
X013776Y019943D02*
X013520Y019943D01*
X013578Y019844D02*
X013718Y019844D01*
X013718Y019746D02*
X013578Y019746D01*
X013578Y019647D02*
X013706Y019647D01*
X013607Y019549D02*
X013578Y019549D01*
X013509Y019450D02*
X013500Y019450D01*
X013410Y019352D02*
X013401Y019352D01*
X012803Y018056D02*
X012803Y018056D01*
X016230Y016494D02*
X016348Y016494D01*
X016348Y016592D02*
X016329Y016592D01*
X016348Y016691D02*
X016348Y016691D01*
X016698Y016556D02*
X016748Y016556D01*
X017070Y018268D02*
X017326Y018268D01*
X017398Y018339D02*
X017398Y018339D01*
X017425Y018366D02*
X016971Y018366D01*
X019433Y018859D02*
X019948Y018859D01*
X019948Y018760D02*
X019739Y018760D01*
X019925Y018662D02*
X020035Y018662D01*
X023248Y019706D02*
X023248Y016956D01*
X022648Y016356D01*
X021598Y016356D01*
X020998Y015756D01*
X020998Y015706D01*
X020648Y015356D01*
X020648Y015306D01*
X021698Y015156D02*
X021698Y014956D01*
X021848Y014806D01*
X021848Y013506D01*
X021498Y013156D01*
X022048Y013006D02*
X022048Y015606D01*
X022408Y016100D02*
X021624Y016100D01*
X023948Y017206D02*
X023898Y017306D01*
X023948Y017256D01*
X023944Y017253D01*
X023994Y017206D01*
X023679Y019154D02*
X032998Y019154D01*
X032998Y019253D02*
X023777Y019253D01*
X023876Y019352D02*
X032998Y019352D01*
X032998Y019450D02*
X023948Y019450D01*
X023948Y019549D02*
X032998Y019549D01*
X032998Y019647D02*
X023948Y019647D01*
X023948Y019746D02*
X032998Y019746D01*
X032998Y019844D02*
X023948Y019844D01*
X023948Y019943D02*
X032998Y019943D01*
X032998Y020041D02*
X023948Y020041D01*
X023948Y020140D02*
X032998Y020140D01*
X032998Y020238D02*
X023948Y020238D01*
X023548Y020041D02*
X023493Y020041D01*
X024927Y020337D02*
X032998Y020337D01*
X032998Y020436D02*
X025057Y020436D01*
X025120Y020534D02*
X032998Y020534D01*
X032998Y020633D02*
X025158Y020633D01*
X025158Y020731D02*
X032998Y020731D01*
X032998Y020830D02*
X025141Y020830D01*
X025100Y020928D02*
X032998Y020928D01*
X028673Y017873D02*
X028447Y017873D01*
X028679Y017282D02*
X028174Y017282D01*
X028092Y017184D02*
X028855Y017184D01*
X028639Y017085D02*
X028174Y017085D01*
X028174Y016986D02*
X028639Y016986D01*
X028639Y016888D02*
X028174Y016888D01*
X028174Y016789D02*
X028639Y016789D01*
X028639Y016691D02*
X028174Y016691D01*
X028174Y016592D02*
X028639Y016592D01*
X028719Y016494D02*
X028174Y016494D01*
X029275Y017184D02*
X029505Y017184D01*
X029505Y017282D02*
X029451Y017282D01*
X029490Y017381D02*
X029505Y017381D01*
X029519Y017479D02*
X029490Y017479D01*
X029490Y017085D02*
X029505Y017085D01*
X029505Y016986D02*
X029490Y016986D01*
X029490Y016888D02*
X029565Y016888D01*
X029490Y016789D02*
X029661Y016789D01*
X029661Y016691D02*
X029490Y016691D01*
X029490Y016592D02*
X029661Y016592D01*
X031674Y015705D02*
X032998Y015705D01*
X032998Y015607D02*
X031674Y015607D01*
X031674Y015508D02*
X032998Y015508D01*
X032998Y015410D02*
X031606Y015410D01*
X030324Y014227D02*
X029428Y014227D01*
X029428Y014129D02*
X030225Y014129D01*
X030198Y014030D02*
X029428Y014030D01*
X029428Y013932D02*
X030198Y013932D01*
X030198Y013833D02*
X029428Y013833D01*
X029428Y013735D02*
X030275Y013735D01*
X030318Y013636D02*
X029428Y013636D01*
X029428Y013537D02*
X030318Y013537D01*
X030318Y013439D02*
X029428Y013439D01*
X026230Y015114D02*
X025658Y015114D01*
X025658Y015016D02*
X026132Y015016D01*
X026033Y014917D02*
X025658Y014917D01*
X025650Y014819D02*
X025935Y014819D01*
X025836Y014720D02*
X025551Y014720D01*
X025453Y014621D02*
X025738Y014621D01*
X025618Y014326D02*
X025273Y014326D01*
X025372Y014227D02*
X025618Y014227D01*
X025618Y014129D02*
X025448Y014129D01*
X024398Y014572D02*
X024398Y014606D01*
X024373Y014582D01*
X023848Y014582D01*
X023848Y014556D01*
X023298Y014556D01*
X023464Y014227D02*
X024117Y014227D01*
X023898Y014556D02*
X023873Y014582D01*
X023848Y014582D01*
X020111Y014227D02*
X018864Y014227D01*
X027516Y009236D02*
X028436Y009236D01*
X028628Y009236D01*
X028628Y008668D01*
X028630Y008666D01*
X028630Y008376D01*
X028460Y008376D01*
X027783Y009053D01*
X027560Y009053D01*
X027516Y009053D01*
X027516Y009236D01*
X027516Y009202D02*
X028628Y009202D01*
X028628Y009103D02*
X027516Y009103D01*
X027832Y009004D02*
X028628Y009004D01*
X028628Y008906D02*
X027930Y008906D01*
X028029Y008807D02*
X028628Y008807D01*
X028628Y008709D02*
X028127Y008709D01*
X028226Y008610D02*
X028630Y008610D01*
X028630Y008512D02*
X028324Y008512D01*
X028423Y008413D02*
X028630Y008413D01*
X027856Y008216D02*
X027445Y008216D01*
X027516Y008315D02*
X027758Y008315D01*
X027659Y008413D02*
X027516Y008413D01*
X027516Y008512D02*
X027561Y008512D01*
X027051Y008216D02*
X026945Y008216D01*
X026748Y008783D02*
X026823Y008856D01*
X026448Y008806D01*
X025948Y008756D02*
X025823Y008856D01*
X025748Y008783D01*
X030097Y008216D02*
X030199Y008216D01*
X032335Y016986D02*
X032998Y016986D01*
X032998Y017085D02*
X032343Y017085D01*
X032343Y017184D02*
X032998Y017184D01*
X032998Y017282D02*
X032343Y017282D01*
X032343Y017381D02*
X032998Y017381D01*
X032998Y017479D02*
X032343Y017479D01*
X032293Y017578D02*
X032998Y017578D01*
X032998Y017676D02*
X032293Y017676D01*
X011148Y020706D02*
X010998Y020706D01*
D37*
X009348Y019706D03*
X008148Y019506D03*
X006748Y019156D03*
X005948Y019256D03*
X005448Y019256D03*
X004948Y019256D03*
X004448Y019256D03*
X003948Y019256D03*
X003448Y020706D03*
X008798Y020956D03*
X010598Y019306D03*
X011648Y019306D03*
X010598Y018256D03*
X010798Y017706D03*
X010798Y017006D03*
X010198Y017056D03*
X009348Y017056D03*
X008848Y017056D03*
X008548Y017856D03*
X009048Y018256D03*
X008548Y018506D03*
X009848Y018256D03*
X011148Y016606D03*
X011948Y016256D03*
X012948Y017706D03*
X013398Y018256D03*
X015998Y016756D03*
X016698Y016556D03*
X015898Y016256D03*
X015898Y015706D03*
X014598Y015006D03*
X014148Y014706D03*
X014598Y014256D03*
X012898Y013456D03*
X011948Y014406D03*
X009748Y013506D03*
X008948Y013506D03*
X008298Y013556D03*
X007698Y013456D03*
X007148Y013406D03*
X005448Y013556D03*
X004748Y014206D03*
X004748Y014756D03*
X004998Y015256D03*
X004798Y015756D03*
X005398Y016256D03*
X006298Y017156D03*
X007048Y016306D03*
X007548Y016356D03*
X009198Y015856D03*
X008398Y014706D03*
X006998Y015256D03*
X003598Y016806D03*
X002848Y013806D03*
X003198Y012306D03*
X004098Y012256D03*
X005198Y011456D03*
X008798Y010556D03*
X008248Y009156D03*
X006898Y008706D03*
X008248Y006756D03*
X010198Y006056D03*
X012148Y004456D03*
X013698Y005106D03*
X015548Y006056D03*
X017148Y006206D03*
X018298Y006206D03*
X017848Y006956D03*
X018448Y008056D03*
X016748Y008056D03*
X016598Y009606D03*
X017698Y010706D03*
X019898Y009856D03*
X024248Y007906D03*
X026898Y007606D03*
X028298Y008956D03*
X030198Y008006D03*
X029898Y005956D03*
X029398Y005856D03*
X028898Y005856D03*
X026948Y004306D03*
X026398Y003806D03*
X026448Y003206D03*
X024848Y003206D03*
X022048Y005056D03*
X019898Y004056D03*
X018048Y003406D03*
X018698Y002956D03*
X016548Y002706D03*
X010398Y003456D03*
X006948Y003856D03*
X006598Y004356D03*
X005748Y002656D03*
X002898Y005506D03*
X003548Y008306D03*
X011148Y008756D03*
X011698Y010706D03*
X010198Y012306D03*
X009548Y012706D03*
X015448Y012806D03*
X018398Y012856D03*
X020798Y012656D03*
X021498Y013156D03*
X022048Y013006D03*
X023998Y014056D03*
X023298Y014556D03*
X022598Y014206D03*
X021698Y015156D03*
X021348Y015556D03*
X022048Y015606D03*
X020648Y015856D03*
X020648Y015306D03*
X018848Y016206D03*
X017948Y016306D03*
X017448Y015556D03*
X017648Y014756D03*
X017148Y014756D03*
X018148Y014556D03*
X018698Y014556D03*
X023198Y015556D03*
X026148Y015356D03*
X026498Y014406D03*
X025098Y014006D03*
X025898Y012256D03*
X027848Y012056D03*
X029648Y011006D03*
X024848Y010106D03*
X019598Y006756D03*
X025798Y005656D03*
X028948Y003206D03*
X029998Y002756D03*
X032748Y005056D03*
X032498Y013856D03*
X030548Y013956D03*
X029798Y014356D03*
X028648Y014306D03*
X028698Y015256D03*
X024998Y017206D03*
X023948Y017206D03*
X025298Y018606D03*
X026848Y019856D03*
X029498Y018906D03*
X028498Y018256D03*
X032048Y018206D03*
X022498Y020306D03*
X022198Y019556D03*
X019798Y019506D03*
X019898Y020406D03*
X021598Y020856D03*
X019498Y018506D03*
X018698Y017856D03*
X018148Y017856D03*
X017198Y017856D03*
X019148Y017256D03*
X016248Y020306D03*
X015748Y020756D03*
X014998Y020356D03*
X013448Y006306D03*
D38*
X012698Y006106D02*
X013698Y005106D01*
X012698Y006106D02*
X012046Y006306D01*
X020498Y005056D02*
X020848Y005056D01*
X029065Y016832D02*
X029065Y016840D01*
X029048Y016856D01*
X029065Y016873D01*
X029065Y017580D01*
X031248Y018075D02*
X031279Y018125D01*
X031298Y018106D01*
X031323Y017931D01*
D39*
X020548Y009206D02*
X020448Y009206D01*
X020448Y009056D01*
X020448Y009033D01*
X020398Y009033D01*
X012546Y006109D02*
X012448Y006156D01*
X012048Y006156D01*
X012046Y006306D02*
X012546Y006109D01*
X011548Y006656D02*
X011272Y006706D01*
X011298Y007206D02*
X011272Y007206D01*
X011298Y007206D02*
X011298Y007706D01*
X011272Y007706D01*
X007998Y008156D02*
X007998Y008256D01*
X007098Y006156D02*
X007098Y005406D01*
X007048Y005356D01*
X006848Y005356D01*
X006398Y005806D01*
X006748Y005806D01*
X006748Y005956D01*
X006598Y006106D01*
X006598Y006133D01*
X006974Y006133D01*
X007074Y006133D01*
X007098Y006156D01*
X007098Y006133D02*
X007022Y006133D01*
X006998Y006156D01*
X006974Y006133D01*
X006598Y006133D02*
X006098Y006133D01*
X007100Y002909D02*
X007073Y002881D01*
X006998Y002806D01*
D40*
X011548Y006656D02*
X012048Y006156D01*
X009498Y007356D02*
X009498Y007731D01*
X009498Y008231D01*
X009498Y008981D01*
X009498Y009356D01*
X009522Y009333D01*
X009598Y009333D01*
D41*
X006898Y008706D02*
X006798Y008706D01*
X006698Y008706D01*
X010048Y007406D02*
X010048Y006906D01*
X008548Y004706D02*
X008148Y004306D01*
D42*
X008648Y004806D01*
X008848Y004806D02*
X008348Y004306D01*
X008148Y004306D02*
X008098Y004256D01*
X008848Y004806D02*
X009148Y004706D01*
X010198Y006056D02*
X011148Y005106D01*
X011148Y004706D01*
X010198Y006056D02*
X009248Y007056D01*
X009224Y007080D01*
X009224Y007206D01*
X007998Y008156D02*
X007698Y008156D01*
X006098Y008156D01*
X006098Y008180D01*
X006098Y009283D01*
X006598Y009283D02*
X006772Y009283D01*
X006798Y009256D01*
X006798Y008706D01*
X006798Y008656D01*
X006898Y008556D01*
X011298Y007206D02*
X011298Y006756D01*
X011272Y006730D01*
X011272Y006706D01*
X014250Y006306D02*
X014998Y006106D01*
X015598Y006406D01*
X015598Y004806D01*
X016298Y004256D02*
X017650Y002904D01*
X018048Y002904D01*
X018148Y003006D01*
X018048Y002904D02*
X018796Y002904D01*
X018848Y002956D01*
X018348Y004456D02*
X018348Y004931D01*
X018273Y004931D01*
X017798Y004456D01*
X017598Y004656D01*
X017598Y005556D01*
X017548Y005606D01*
X017548Y005706D01*
X017148Y006106D01*
X018348Y006106D01*
X018348Y005556D01*
X018248Y005456D01*
X018348Y005756D02*
X017948Y005756D01*
X017698Y006006D01*
X017748Y005856D02*
X017748Y005456D01*
X017598Y005306D01*
X017598Y004656D01*
X018098Y004806D02*
X018098Y004456D01*
X018348Y004456D01*
X018198Y004756D02*
X018098Y004806D01*
X018273Y004931D02*
X018298Y004956D01*
X018298Y006556D01*
X018348Y006606D01*
X017148Y006606D01*
X017148Y006206D01*
X017148Y006106D01*
X017148Y006206D02*
X017148Y006356D01*
X017348Y006156D01*
X017748Y006156D01*
X017798Y005706D02*
X017148Y006356D01*
X017148Y006606D01*
X017148Y007306D01*
X017148Y007506D01*
X016148Y008506D01*
X016098Y008506D01*
X015648Y008956D01*
X015648Y009656D01*
X014648Y010706D01*
X014648Y011206D01*
X014548Y011306D01*
X014598Y011356D01*
X013848Y012106D01*
X011398Y012106D01*
X011298Y012106D01*
X010598Y011406D01*
X010598Y011380D01*
X010098Y011380D02*
X009698Y011380D01*
X009598Y011380D01*
X009198Y011380D01*
X009098Y011380D01*
X007698Y011380D01*
X007198Y011380D01*
X006622Y011380D01*
X006598Y011356D01*
X006598Y011330D01*
X017148Y007306D02*
X017798Y006656D01*
X017798Y005706D01*
X017548Y005706D01*
X017498Y005756D01*
X018048Y005756D01*
X018348Y006056D01*
X018348Y006106D01*
X018348Y006606D01*
X018348Y007656D01*
X018448Y007756D01*
X018448Y008056D01*
X018448Y009606D01*
X018473Y009631D01*
X019898Y011056D01*
X019898Y011080D01*
X020398Y011080D02*
X020398Y010806D01*
X020248Y010656D01*
X021448Y010656D01*
X021798Y010656D01*
X022098Y010956D01*
X021974Y011080D01*
X021398Y011080D01*
X020898Y011080D01*
X022098Y010956D02*
X022248Y011106D01*
X025248Y011106D01*
X025823Y011106D01*
X026248Y011106D01*
X026323Y011106D01*
X026598Y011106D01*
X026848Y010856D01*
X026822Y010830D01*
X026748Y010830D01*
X026448Y008806D02*
X025998Y008806D01*
X025948Y008756D01*
X025948Y007706D01*
X025798Y007556D01*
X025824Y007556D01*
X025824Y007283D01*
X025748Y007206D01*
X025824Y007130D01*
X025824Y007056D01*
X025823Y006556D02*
X025824Y006556D01*
X027548Y006056D02*
X027548Y005059D01*
X027598Y005059D01*
X025948Y005056D02*
X025923Y005031D01*
X025660Y004769D01*
X025648Y004756D01*
X025948Y005056D02*
X025948Y008756D01*
X026248Y008783D02*
X026424Y008783D01*
X026448Y008806D01*
X027898Y006706D02*
X027898Y006606D01*
X027898Y006556D01*
X027898Y006056D01*
X027872Y006056D01*
X027548Y006056D01*
X027872Y006556D02*
X027898Y006556D01*
X022248Y007906D02*
X019998Y007906D01*
X019948Y007906D01*
X019948Y009033D01*
X019898Y009033D01*
X020348Y009033D01*
X020348Y009056D01*
X020348Y009033D02*
X020398Y009033D01*
X020398Y009056D02*
X020448Y009056D01*
X020448Y007780D01*
X020448Y007756D01*
X019998Y007780D02*
X019998Y007906D01*
X019998Y007780D02*
X019948Y007780D01*
X019948Y009033D02*
X019948Y009056D01*
X019948Y005733D02*
X020448Y005733D01*
X020472Y005733D01*
X020598Y005606D01*
X020498Y005506D01*
X020498Y005056D01*
X020472Y005733D02*
X020574Y005733D01*
X020598Y005756D01*
X018348Y005756D02*
X018348Y005006D01*
X018298Y004956D01*
D43*
X018848Y002956D02*
X027598Y002906D01*
X027598Y002854D01*
X025898Y004456D02*
X025498Y004456D01*
X025323Y004631D01*
X025323Y004731D01*
X025398Y004756D02*
X025398Y005756D01*
X025698Y006056D01*
X025824Y006056D01*
X025923Y005031D02*
X025998Y004906D01*
X025998Y004606D01*
X025898Y004456D01*
X023398Y004606D02*
X022748Y003956D01*
X022598Y003956D01*
X022548Y003906D01*
X023398Y004606D02*
X023398Y004756D01*
D44*
X027872Y006556D02*
X027872Y006580D01*
X027898Y006606D01*
X027872Y006633D01*
X027872Y007056D01*
X008348Y004306D02*
X008148Y004306D01*
D45*
X025798Y005656D02*
X025798Y006206D01*
X025748Y006256D01*
D46*
X023848Y006306D03*
X023248Y006306D03*
X013148Y007056D03*
X012498Y007306D03*
X018998Y013206D03*
X019648Y013206D03*
X020448Y014456D03*
X020998Y014806D03*
M02*
