G75*
G70*
%OFA0B0*%
%FSLAX24Y24*%
%IPPOS*%
%LPD*%
%AMOC8*
5,1,8,0,0,1.08239X$1,22.5*
%
%ADD10C,0.0110*%
%ADD11OC8,0.0520*%
%ADD12R,0.0400X0.0340*%
%ADD13R,0.0512X0.0591*%
%ADD14R,0.0472X0.0217*%
%ADD15R,0.0340X0.0400*%
%ADD16R,0.0551X0.0394*%
%ADD17R,0.0591X0.0512*%
%ADD18R,0.0709X0.0669*%
%ADD19R,0.0394X0.0433*%
%ADD20R,0.0701X0.0850*%
%ADD21R,0.0236X0.0866*%
%ADD22R,0.0433X0.0394*%
%ADD23R,0.0394X0.0551*%
%ADD24R,0.0217X0.0472*%
%ADD25C,0.0520*%
%ADD26O,0.0520X0.1040*%
%ADD27R,0.0390X0.0120*%
%ADD28R,0.0197X0.0591*%
%ADD29R,0.0591X0.0197*%
%ADD30OC8,0.0560*%
%ADD31C,0.2300*%
%ADD32O,0.0825X0.1650*%
%ADD33OC8,0.0600*%
%ADD34C,0.0240*%
%ADD35OC8,0.0400*%
%ADD36C,0.0100*%
%ADD37C,0.1000*%
%ADD38C,0.0400*%
%ADD39C,0.0120*%
%ADD40C,0.0160*%
%ADD41C,0.0700*%
%ADD42C,0.0860*%
%ADD43OC8,0.0500*%
D10*
X019658Y019561D02*
X020052Y019561D01*
X020303Y019660D02*
X020401Y019561D01*
X020598Y019561D01*
X020697Y019660D01*
X020697Y020054D01*
X020303Y019660D01*
X020303Y020054D01*
X020401Y020152D01*
X020598Y020152D01*
X020697Y020054D01*
X020947Y020054D02*
X021046Y020152D01*
X021243Y020152D01*
X021341Y020054D01*
X020947Y019660D01*
X021046Y019561D01*
X021243Y019561D01*
X021341Y019660D01*
X021341Y020054D01*
X021592Y020152D02*
X021986Y020152D01*
X021986Y020054D01*
X021592Y019660D01*
X021592Y019561D01*
X020947Y019660D02*
X020947Y020054D01*
X020052Y020054D02*
X019954Y020152D01*
X019757Y020152D01*
X019658Y020054D01*
X020052Y020054D02*
X020052Y019955D01*
X019658Y019561D01*
X019658Y020561D02*
X019658Y021152D01*
X019954Y021152D01*
X020052Y021054D01*
X020052Y020857D01*
X019954Y020758D01*
X019658Y020758D01*
X020303Y020758D02*
X020598Y020758D01*
X020697Y020857D01*
X020697Y021054D01*
X020598Y021152D01*
X020303Y021152D01*
X020303Y020561D01*
X021592Y020857D02*
X021986Y020857D01*
X022881Y020857D02*
X023275Y020857D01*
X023275Y020955D02*
X023275Y020561D01*
X023526Y020561D02*
X023526Y021152D01*
X023821Y021152D01*
X023919Y021054D01*
X023919Y020857D01*
X023821Y020758D01*
X023526Y020758D01*
X023275Y020955D02*
X023078Y021152D01*
X022881Y020955D01*
X022881Y020561D01*
X024170Y020561D02*
X024465Y020561D01*
X024564Y020660D01*
X024564Y020758D01*
X024465Y020857D01*
X024170Y020857D01*
X024170Y021152D02*
X024465Y021152D01*
X024564Y021054D01*
X024564Y020955D01*
X024465Y020857D01*
X024170Y020561D02*
X024170Y021152D01*
X024815Y021152D02*
X025208Y021152D01*
X025011Y021152D02*
X025011Y020561D01*
X025459Y020660D02*
X025459Y020857D01*
X025557Y020955D01*
X025754Y020955D01*
X025853Y020857D01*
X025853Y020758D01*
X025459Y020758D01*
X025459Y020660D02*
X025557Y020561D01*
X025754Y020561D01*
X026104Y020660D02*
X026202Y020758D01*
X026497Y020758D01*
X026497Y020857D02*
X026497Y020561D01*
X026202Y020561D01*
X026104Y020660D01*
X026202Y020955D02*
X026399Y020955D01*
X026497Y020857D01*
X026748Y020955D02*
X026847Y020955D01*
X026945Y020857D01*
X027043Y020955D01*
X027142Y020857D01*
X027142Y020561D01*
X026945Y020561D02*
X026945Y020857D01*
X026748Y020955D02*
X026748Y020561D01*
D11*
X044553Y008256D03*
X044553Y004256D03*
X030103Y003906D03*
X030103Y007906D03*
D12*
X027883Y008870D03*
X027883Y009520D03*
X031253Y004981D03*
X031253Y004332D03*
X037353Y003381D03*
X037403Y003932D03*
X038003Y004182D03*
X037403Y004581D03*
X038003Y004831D03*
X037353Y002732D03*
X047403Y007732D03*
X047953Y007732D03*
X047953Y008381D03*
X047403Y008381D03*
X037303Y013282D03*
X037303Y013931D03*
X044653Y017882D03*
X044653Y018531D03*
X047203Y019932D03*
X047203Y020581D03*
X048203Y020581D03*
X048203Y019932D03*
X038753Y018881D03*
X038753Y018232D03*
X032203Y018832D03*
X032203Y019481D03*
X029203Y018681D03*
X029203Y018032D03*
X029203Y017581D03*
X029203Y016932D03*
X026753Y019332D03*
X026753Y019981D03*
X021053Y015281D03*
X022053Y015181D03*
X022053Y014532D03*
X021053Y014632D03*
X025203Y004831D03*
X025203Y004182D03*
D13*
X027919Y004906D03*
X028588Y004906D03*
X042169Y005006D03*
X042838Y005006D03*
X024638Y019156D03*
X023969Y019156D03*
D14*
X047041Y007180D03*
X047041Y006806D03*
X047041Y006432D03*
X048065Y006432D03*
X048066Y006806D03*
X048065Y007180D03*
X039465Y003580D03*
X039466Y003206D03*
X039465Y002832D03*
X038441Y002832D03*
X038441Y003206D03*
X038441Y003580D03*
X024465Y003682D03*
X024465Y004056D03*
X024465Y004430D03*
X023441Y004430D03*
X023440Y004056D03*
X023441Y003682D03*
D15*
X025229Y003556D03*
X025878Y003556D03*
X024378Y005106D03*
X023729Y005106D03*
X031779Y004506D03*
X032428Y004506D03*
X032679Y003356D03*
X033328Y003356D03*
X033328Y002806D03*
X032679Y002806D03*
X039029Y004256D03*
X039678Y004256D03*
X045879Y006406D03*
X046528Y006406D03*
X046229Y005856D03*
X046878Y005856D03*
X049029Y014756D03*
X049678Y014756D03*
X049678Y015506D03*
X049029Y015506D03*
X043328Y017706D03*
X042679Y017706D03*
X040828Y018756D03*
X040179Y018756D03*
X038778Y017106D03*
X038129Y017106D03*
X038129Y016556D03*
X038778Y016556D03*
X039079Y015756D03*
X039728Y015756D03*
X040229Y015756D03*
X040878Y015756D03*
X039728Y015256D03*
X039079Y015256D03*
X039079Y014756D03*
X039728Y014756D03*
X035578Y019256D03*
X034929Y019256D03*
X034428Y019256D03*
X033779Y019256D03*
X021728Y018856D03*
X021079Y018856D03*
D16*
X024670Y015180D03*
X024670Y014432D03*
X025536Y014806D03*
X037270Y018506D03*
X038136Y018132D03*
X038136Y018880D03*
X048820Y006530D03*
X049686Y006156D03*
X048820Y005782D03*
D17*
X027003Y016272D03*
X027003Y016941D03*
D18*
X041696Y004206D03*
X043310Y004206D03*
X029060Y003956D03*
X027446Y003956D03*
D19*
X030519Y017456D03*
X031188Y017456D03*
X031188Y018256D03*
X030519Y018256D03*
D20*
X035704Y007106D03*
X037306Y007106D03*
D21*
X022553Y016133D03*
X022053Y016133D03*
X021553Y016133D03*
X021053Y016133D03*
X024603Y016233D03*
X025103Y016233D03*
X025603Y016233D03*
X026103Y016233D03*
X026103Y018280D03*
X025603Y018280D03*
X025103Y018280D03*
X024603Y018280D03*
X022553Y018180D03*
X022053Y018180D03*
X021553Y018180D03*
X021053Y018180D03*
D22*
X029853Y018022D03*
X029853Y017491D03*
X029853Y016822D03*
X029853Y018691D03*
X037953Y013941D03*
X037953Y013272D03*
X044769Y014756D03*
X045438Y014756D03*
D23*
X021027Y006423D03*
X020279Y006423D03*
X020653Y007290D03*
D24*
X031379Y003768D03*
X031753Y003768D03*
X032127Y003768D03*
X032127Y002745D03*
X031753Y002743D03*
X031379Y002745D03*
D25*
X029403Y019706D03*
X028403Y019706D03*
X027903Y020706D03*
X028903Y020706D03*
X033603Y020106D03*
X035503Y020106D03*
D26*
X027403Y015256D03*
X027403Y012256D03*
D27*
X046155Y014105D03*
X046155Y014361D03*
X046155Y014617D03*
X046155Y014873D03*
X046155Y015129D03*
X046155Y015384D03*
X046155Y015640D03*
X046155Y015896D03*
X046155Y016152D03*
X046155Y016408D03*
X048452Y016408D03*
X048452Y016152D03*
X048452Y015896D03*
X048452Y015640D03*
X048452Y015384D03*
X048452Y015129D03*
X048452Y014873D03*
X048452Y014617D03*
X048452Y014361D03*
X048452Y014105D03*
D28*
X036728Y013923D03*
X036413Y013923D03*
X036098Y013923D03*
X035783Y013923D03*
X035468Y013923D03*
X035153Y013923D03*
X034838Y013923D03*
X034523Y013923D03*
X034208Y013923D03*
X033894Y013923D03*
X033579Y013923D03*
X033579Y018490D03*
X033894Y018490D03*
X034208Y018490D03*
X034523Y018490D03*
X034838Y018490D03*
X035153Y018490D03*
X035468Y018490D03*
X035783Y018490D03*
X036098Y018490D03*
X036413Y018490D03*
X036728Y018490D03*
D29*
X037437Y017781D03*
X037437Y017466D03*
X037437Y017151D03*
X037437Y016836D03*
X037437Y016521D03*
X037437Y016206D03*
X037437Y015891D03*
X037437Y015577D03*
X037437Y015262D03*
X037437Y014947D03*
X037437Y014632D03*
X032870Y014632D03*
X032870Y014947D03*
X032870Y015262D03*
X032870Y015577D03*
X032870Y015891D03*
X032870Y016206D03*
X032870Y016521D03*
X032870Y016836D03*
X032870Y017151D03*
X032870Y017466D03*
X032870Y017781D03*
D30*
X038503Y019706D03*
X039503Y019706D03*
X040503Y019706D03*
X041503Y019706D03*
X042503Y019706D03*
X042503Y020706D03*
X041503Y020706D03*
X040503Y020706D03*
X039503Y020706D03*
X038503Y020706D03*
D31*
X048603Y003856D03*
X021103Y003856D03*
D32*
X027253Y004756D03*
X029253Y004756D03*
X034453Y004756D03*
X036453Y004756D03*
X041503Y004706D03*
X043503Y004706D03*
D33*
X036553Y011706D03*
X035553Y011706D03*
X035553Y012706D03*
X036553Y012706D03*
D34*
X027883Y010027D02*
X027883Y009520D01*
X027883Y010027D02*
X027803Y010106D01*
X028403Y007906D02*
X028603Y007906D01*
X028603Y007856D01*
X022803Y005956D02*
X022753Y005956D01*
X024670Y014432D02*
X024670Y014440D01*
X024653Y014456D01*
X024670Y014473D01*
X024670Y015180D01*
X024670Y015190D01*
X024603Y015256D01*
X024603Y016233D01*
X024603Y015906D01*
X023953Y015256D01*
X023803Y016056D02*
X023003Y015256D01*
X022003Y015256D01*
X021203Y015256D01*
X021053Y015406D01*
X021053Y015281D01*
X023803Y016056D02*
X023803Y016806D01*
X024153Y017156D01*
X025103Y017156D01*
X025103Y016233D01*
X025130Y016233D01*
X025203Y016306D01*
X025203Y016706D01*
X025603Y016306D01*
X025603Y016233D01*
X025603Y014906D01*
X025503Y014806D01*
X027003Y015606D02*
X027353Y015256D01*
X027403Y015256D01*
X027003Y015606D02*
X027003Y016272D01*
X025203Y016706D02*
X025203Y018256D01*
X025403Y018456D01*
X025403Y018406D01*
X025553Y018256D01*
X025577Y018280D01*
X025603Y018280D01*
X025203Y018256D02*
X025180Y018280D01*
X025103Y018280D01*
X024603Y018280D02*
X024577Y018280D01*
X024553Y018256D01*
X024603Y018306D01*
X024603Y018606D01*
X024603Y018280D02*
X024603Y018256D01*
X024553Y018256D01*
X024153Y018256D01*
X021079Y018856D02*
X021053Y018806D01*
X021053Y018180D01*
X021053Y018156D01*
X021003Y018206D01*
X020603Y018206D01*
D35*
X020603Y018206D03*
X023153Y018906D03*
X024153Y018256D03*
X027353Y018606D03*
X025803Y019856D03*
X030153Y020306D03*
X030453Y019556D03*
X032853Y019506D03*
X032753Y020406D03*
X031053Y020856D03*
X033153Y018506D03*
X033953Y017856D03*
X034503Y017856D03*
X035453Y017856D03*
X036653Y016756D03*
X035953Y016556D03*
X036753Y016256D03*
X036753Y015706D03*
X038053Y015006D03*
X038503Y014706D03*
X038053Y014256D03*
X039753Y013456D03*
X040703Y014406D03*
X042903Y013506D03*
X043703Y013506D03*
X044353Y013556D03*
X044953Y013456D03*
X045503Y013406D03*
X047203Y013556D03*
X047903Y014206D03*
X047903Y014756D03*
X047653Y015256D03*
X047853Y015756D03*
X047253Y016256D03*
X046353Y017156D03*
X045603Y016306D03*
X045103Y016356D03*
X043803Y017056D03*
X043303Y017056D03*
X042453Y017056D03*
X041853Y017006D03*
X041503Y016606D03*
X040703Y016256D03*
X039703Y017706D03*
X039253Y018256D03*
X041003Y019306D03*
X042053Y019306D03*
X043303Y019706D03*
X044503Y019506D03*
X045903Y019156D03*
X046703Y019256D03*
X047203Y019256D03*
X047703Y019256D03*
X048203Y019256D03*
X048703Y019256D03*
X049203Y020706D03*
X043853Y020956D03*
X044103Y018506D03*
X043603Y018256D03*
X044103Y017856D03*
X042803Y018256D03*
X042053Y018256D03*
X041853Y017706D03*
X043453Y015856D03*
X044253Y014706D03*
X045653Y015256D03*
X049053Y016806D03*
X049803Y013806D03*
X049453Y012306D03*
X048553Y012256D03*
X047453Y011456D03*
X043853Y010556D03*
X044403Y009156D03*
X045753Y008706D03*
X044403Y006756D03*
X042453Y006056D03*
X040503Y004456D03*
X038953Y005106D03*
X037103Y006056D03*
X035503Y006206D03*
X034353Y006206D03*
X034803Y006956D03*
X034203Y008056D03*
X035903Y008056D03*
X036053Y009606D03*
X034953Y010706D03*
X032753Y009856D03*
X028403Y007906D03*
X025753Y007606D03*
X024353Y008956D03*
X022453Y008006D03*
X022753Y005956D03*
X023253Y005856D03*
X023753Y005856D03*
X025703Y004306D03*
X026253Y003806D03*
X026203Y003206D03*
X027803Y003206D03*
X030603Y005056D03*
X032753Y004056D03*
X034603Y003406D03*
X033953Y002956D03*
X036103Y002706D03*
X042253Y003456D03*
X045703Y003856D03*
X046053Y004356D03*
X046903Y002656D03*
X049753Y005506D03*
X049103Y008306D03*
X041503Y008756D03*
X040953Y010706D03*
X042453Y012306D03*
X043103Y012706D03*
X037203Y012806D03*
X034253Y012856D03*
X031853Y012656D03*
X031153Y013156D03*
X030603Y013006D03*
X028653Y014056D03*
X029353Y014556D03*
X030053Y014206D03*
X030953Y015156D03*
X031303Y015556D03*
X030603Y015606D03*
X032003Y015856D03*
X032003Y015306D03*
X033803Y016206D03*
X034703Y016306D03*
X035203Y015556D03*
X035003Y014756D03*
X035503Y014756D03*
X034503Y014556D03*
X033953Y014556D03*
X029453Y015556D03*
X026503Y015356D03*
X026153Y014406D03*
X027553Y014006D03*
X026753Y012256D03*
X024803Y012056D03*
X023003Y011006D03*
X027803Y010106D03*
X033053Y006756D03*
X026853Y005656D03*
X023703Y003206D03*
X022653Y002756D03*
X019903Y005056D03*
X020153Y013856D03*
X022103Y013956D03*
X022853Y014356D03*
X024003Y014306D03*
X023953Y015256D03*
X027653Y017206D03*
X028703Y017206D03*
X033503Y017256D03*
X036403Y020306D03*
X036903Y020756D03*
X037653Y020356D03*
X039203Y006306D03*
D36*
X023671Y002406D02*
X019653Y002406D01*
X019653Y019356D01*
X019743Y019356D01*
X020137Y019356D01*
X020227Y019446D01*
X020316Y019356D01*
X020486Y019356D01*
X020683Y019356D01*
X020763Y019436D01*
X020781Y019455D01*
X020781Y019455D01*
X020822Y019495D01*
X020863Y019455D01*
X020961Y019356D01*
X021131Y019356D01*
X021328Y019356D01*
X021407Y019436D01*
X021417Y019446D01*
X021507Y019356D01*
X021677Y019356D01*
X021797Y019477D01*
X021797Y019575D01*
X022191Y019969D01*
X022191Y020138D01*
X022191Y020237D01*
X022071Y020357D01*
X021901Y020357D01*
X021507Y020357D01*
X021417Y020267D01*
X021405Y020280D01*
X021328Y020357D01*
X021328Y020357D01*
X021158Y020357D01*
X020961Y020357D01*
X020841Y020237D01*
X020822Y020218D01*
X020781Y020259D01*
X020781Y020259D01*
X020761Y020279D01*
X020683Y020357D01*
X020683Y020357D01*
X020513Y020357D01*
X020388Y020357D01*
X020508Y020477D01*
X020508Y020553D01*
X020683Y020553D01*
X020803Y020673D01*
X020902Y020772D01*
X020902Y020942D01*
X020902Y021138D01*
X020883Y021156D01*
X022793Y021156D01*
X022676Y021040D01*
X022676Y020942D01*
X022676Y020772D01*
X022676Y020477D01*
X022796Y020356D01*
X022966Y020356D01*
X023078Y020468D01*
X023190Y020356D01*
X023360Y020356D01*
X023400Y020397D01*
X023441Y020356D01*
X023610Y020356D01*
X023731Y020477D01*
X023731Y020553D01*
X023906Y020553D01*
X023965Y020613D01*
X023965Y020477D01*
X024085Y020356D01*
X024550Y020356D01*
X024629Y020436D01*
X024649Y020455D01*
X024649Y020455D01*
X024705Y020511D01*
X024709Y020515D01*
X024769Y020575D01*
X024769Y020745D01*
X024769Y020843D01*
X024755Y020857D01*
X024769Y020870D01*
X024769Y020947D01*
X024806Y020947D01*
X024806Y020477D01*
X024926Y020356D01*
X025096Y020356D01*
X025216Y020477D01*
X025216Y020947D01*
X025260Y020947D01*
X025254Y020942D01*
X025254Y020942D01*
X025254Y020772D01*
X025254Y020575D01*
X025374Y020455D01*
X025473Y020356D01*
X025642Y020356D01*
X025839Y020356D01*
X025959Y020477D01*
X025959Y020514D01*
X026019Y020455D01*
X026117Y020356D01*
X026287Y020356D01*
X026582Y020356D01*
X026623Y020397D01*
X026663Y020356D01*
X026833Y020356D01*
X026847Y020370D01*
X026860Y020356D01*
X027030Y020356D01*
X027043Y020370D01*
X027057Y020356D01*
X027227Y020356D01*
X027347Y020477D01*
X027347Y020942D01*
X027227Y021062D01*
X027132Y021156D01*
X032028Y021156D01*
X032023Y021152D01*
X032008Y021136D01*
X031873Y021002D01*
X031873Y019802D01*
X031873Y019733D01*
X031853Y019713D01*
X031853Y019636D01*
X030803Y019636D01*
X030803Y019701D01*
X030598Y019906D01*
X030308Y019906D01*
X030103Y019701D01*
X030103Y019539D01*
X030021Y019456D01*
X029733Y019456D01*
X029751Y019474D01*
X029813Y019625D01*
X029813Y019788D01*
X029751Y019939D01*
X029636Y020054D01*
X029485Y020116D01*
X029322Y020116D01*
X029171Y020054D01*
X029056Y019939D01*
X028993Y019788D01*
X028993Y019625D01*
X029056Y019474D01*
X029074Y019456D01*
X028329Y019456D01*
X028224Y019562D01*
X027103Y019562D01*
X027103Y019564D01*
X027016Y019652D01*
X026491Y019652D01*
X026403Y019564D01*
X026403Y019486D01*
X025658Y019486D01*
X025523Y019352D01*
X025523Y019352D01*
X025044Y019352D01*
X025044Y019450D02*
X025622Y019450D01*
X025523Y019352D02*
X025308Y019136D01*
X025308Y019136D01*
X025173Y019002D01*
X025173Y018863D01*
X025044Y018863D01*
X025044Y019514D01*
X024956Y019602D01*
X024320Y019602D01*
X024232Y019514D01*
X024232Y018799D01*
X024320Y018711D01*
X024333Y018711D01*
X024333Y018571D01*
X024298Y018606D01*
X024008Y018606D01*
X023803Y018401D01*
X023803Y018111D01*
X024008Y017906D01*
X024298Y017906D01*
X024335Y017943D01*
X024335Y017785D01*
X024423Y017697D01*
X024784Y017697D01*
X024853Y017767D01*
X024923Y017697D01*
X024933Y017697D01*
X024933Y017426D01*
X024265Y017426D01*
X024042Y017426D01*
X023692Y017076D01*
X023533Y016918D01*
X023533Y016168D01*
X022892Y015526D01*
X022115Y015526D01*
X021390Y015526D01*
X021316Y015601D01*
X021285Y015601D01*
X021321Y015638D01*
X021321Y016628D01*
X021234Y016716D01*
X020873Y016716D01*
X020785Y016628D01*
X020785Y015638D01*
X020822Y015601D01*
X020791Y015601D01*
X020703Y015513D01*
X020703Y015049D01*
X020791Y014961D01*
X021316Y014961D01*
X021341Y014986D01*
X021703Y014986D01*
X021703Y014949D01*
X021791Y014861D01*
X022316Y014861D01*
X022403Y014949D01*
X022403Y014986D01*
X023115Y014986D01*
X023273Y015145D01*
X024073Y015945D01*
X024073Y016168D01*
X024073Y016695D01*
X024265Y016886D01*
X024833Y016886D01*
X024833Y016766D01*
X024784Y016816D01*
X024423Y016816D01*
X024335Y016728D01*
X024335Y016347D01*
X024333Y016345D01*
X024333Y016018D01*
X023922Y015606D01*
X023808Y015606D01*
X023603Y015401D01*
X023603Y015111D01*
X023808Y014906D01*
X024098Y014906D01*
X024245Y015053D01*
X024245Y014921D01*
X024333Y014834D01*
X024400Y014834D01*
X024400Y014779D01*
X024333Y014779D01*
X024245Y014691D01*
X024245Y014173D01*
X024333Y014086D01*
X025008Y014086D01*
X025096Y014173D01*
X025096Y014691D01*
X025008Y014779D01*
X024940Y014779D01*
X024940Y014834D01*
X025008Y014834D01*
X025096Y014921D01*
X025096Y015439D01*
X025008Y015527D01*
X024873Y015527D01*
X024873Y015700D01*
X024923Y015650D01*
X025284Y015650D01*
X025333Y015700D01*
X025333Y015153D01*
X025199Y015153D01*
X025111Y015065D01*
X025111Y014547D01*
X025199Y014460D01*
X025317Y014460D01*
X025421Y014356D01*
X025971Y013806D01*
X026136Y013806D01*
X027258Y013806D01*
X027259Y013806D01*
X022871Y013806D01*
X022753Y013689D01*
X020871Y011806D01*
X020871Y011806D01*
X020553Y011489D01*
X020453Y011389D01*
X020453Y011224D01*
X020453Y007715D01*
X020394Y007715D01*
X020307Y007627D01*
X020307Y006952D01*
X020394Y006864D01*
X020912Y006864D01*
X021000Y006952D01*
X021000Y007627D01*
X020912Y007715D01*
X020853Y007715D01*
X020853Y011224D01*
X021153Y011524D01*
X021153Y011524D01*
X023036Y013406D01*
X023121Y013406D01*
X021221Y011506D01*
X021221Y011506D01*
X021103Y011389D01*
X021103Y009303D01*
X021093Y009293D01*
X021093Y006849D01*
X020768Y006849D01*
X020681Y006761D01*
X020681Y006140D01*
X020626Y006199D01*
X020626Y006761D01*
X020538Y006849D01*
X020020Y006849D01*
X019933Y006761D01*
X019933Y006086D01*
X020020Y005998D01*
X020268Y005998D01*
X020653Y005579D01*
X020653Y005574D01*
X020709Y005518D01*
X020709Y005518D01*
X020771Y005456D01*
X020936Y005456D01*
X021821Y005456D01*
X022853Y004424D01*
X022853Y003224D01*
X022971Y003106D01*
X023671Y002406D01*
X023576Y002501D02*
X019653Y002501D01*
X019653Y002599D02*
X023478Y002599D01*
X023379Y002698D02*
X019653Y002698D01*
X019653Y002796D02*
X023281Y002796D01*
X023182Y002895D02*
X019653Y002895D01*
X019653Y002993D02*
X023084Y002993D01*
X022985Y003092D02*
X019653Y003092D01*
X019653Y003190D02*
X022887Y003190D01*
X022853Y003289D02*
X019653Y003289D01*
X019653Y003388D02*
X022853Y003388D01*
X022853Y003486D02*
X019653Y003486D01*
X019653Y003585D02*
X022853Y003585D01*
X022853Y003683D02*
X019653Y003683D01*
X019653Y003782D02*
X022853Y003782D01*
X022853Y003880D02*
X019653Y003880D01*
X019653Y003979D02*
X022853Y003979D01*
X022853Y004077D02*
X019653Y004077D01*
X019653Y004176D02*
X022853Y004176D01*
X022853Y004274D02*
X019653Y004274D01*
X019653Y004373D02*
X022853Y004373D01*
X022806Y004471D02*
X019653Y004471D01*
X019653Y004570D02*
X022707Y004570D01*
X022608Y004669D02*
X019653Y004669D01*
X019653Y004767D02*
X022510Y004767D01*
X022411Y004866D02*
X019653Y004866D01*
X019653Y004964D02*
X022313Y004964D01*
X022214Y005063D02*
X019653Y005063D01*
X019653Y005161D02*
X022116Y005161D01*
X022017Y005260D02*
X019653Y005260D01*
X019653Y005358D02*
X021919Y005358D01*
X021903Y005656D02*
X020853Y005656D01*
X020326Y006230D01*
X020328Y006231D01*
X020279Y006423D01*
X020303Y006256D02*
X020326Y006230D01*
X020312Y005950D02*
X019653Y005950D01*
X019653Y006048D02*
X019970Y006048D01*
X019933Y006147D02*
X019653Y006147D01*
X019653Y006245D02*
X019933Y006245D01*
X019933Y006344D02*
X019653Y006344D01*
X019653Y006442D02*
X019933Y006442D01*
X019933Y006541D02*
X019653Y006541D01*
X019653Y006639D02*
X019933Y006639D01*
X019933Y006738D02*
X019653Y006738D01*
X019653Y006837D02*
X020008Y006837D01*
X020323Y006935D02*
X019653Y006935D01*
X019653Y007034D02*
X020307Y007034D01*
X020307Y007132D02*
X019653Y007132D01*
X019653Y007231D02*
X020307Y007231D01*
X020307Y007329D02*
X019653Y007329D01*
X019653Y007428D02*
X020307Y007428D01*
X020307Y007526D02*
X019653Y007526D01*
X019653Y007625D02*
X020307Y007625D01*
X020453Y007723D02*
X019653Y007723D01*
X019653Y007822D02*
X020453Y007822D01*
X020453Y007921D02*
X019653Y007921D01*
X019653Y008019D02*
X020453Y008019D01*
X020453Y008118D02*
X019653Y008118D01*
X019653Y008216D02*
X020453Y008216D01*
X020453Y008315D02*
X019653Y008315D01*
X019653Y008413D02*
X020453Y008413D01*
X020453Y008512D02*
X019653Y008512D01*
X019653Y008610D02*
X020453Y008610D01*
X020453Y008709D02*
X019653Y008709D01*
X019653Y008807D02*
X020453Y008807D01*
X020453Y008906D02*
X019653Y008906D01*
X019653Y009004D02*
X020453Y009004D01*
X020453Y009103D02*
X019653Y009103D01*
X019653Y009202D02*
X020453Y009202D01*
X020453Y009300D02*
X019653Y009300D01*
X019653Y009399D02*
X020453Y009399D01*
X020453Y009497D02*
X019653Y009497D01*
X019653Y009596D02*
X020453Y009596D01*
X020453Y009694D02*
X019653Y009694D01*
X019653Y009793D02*
X020453Y009793D01*
X020453Y009891D02*
X019653Y009891D01*
X019653Y009990D02*
X020453Y009990D01*
X020453Y010088D02*
X019653Y010088D01*
X019653Y010187D02*
X020453Y010187D01*
X020453Y010286D02*
X019653Y010286D01*
X019653Y010384D02*
X020453Y010384D01*
X020453Y010483D02*
X019653Y010483D01*
X019653Y010581D02*
X020453Y010581D01*
X020453Y010680D02*
X019653Y010680D01*
X019653Y010778D02*
X020453Y010778D01*
X020453Y010877D02*
X019653Y010877D01*
X019653Y010975D02*
X020453Y010975D01*
X020453Y011074D02*
X019653Y011074D01*
X019653Y011172D02*
X020453Y011172D01*
X020453Y011271D02*
X019653Y011271D01*
X019653Y011370D02*
X020453Y011370D01*
X020532Y011468D02*
X019653Y011468D01*
X019653Y011567D02*
X020631Y011567D01*
X020729Y011665D02*
X019653Y011665D01*
X019653Y011764D02*
X020828Y011764D01*
X020926Y011862D02*
X019653Y011862D01*
X019653Y011961D02*
X021025Y011961D01*
X021123Y012059D02*
X019653Y012059D01*
X019653Y012158D02*
X021222Y012158D01*
X021321Y012256D02*
X019653Y012256D01*
X019653Y012355D02*
X021419Y012355D01*
X021518Y012454D02*
X019653Y012454D01*
X019653Y012552D02*
X021616Y012552D01*
X021715Y012651D02*
X019653Y012651D01*
X019653Y012749D02*
X021813Y012749D01*
X021912Y012848D02*
X019653Y012848D01*
X019653Y012946D02*
X022010Y012946D01*
X022109Y013045D02*
X019653Y013045D01*
X019653Y013143D02*
X022207Y013143D01*
X022306Y013242D02*
X019653Y013242D01*
X019653Y013340D02*
X022405Y013340D01*
X022503Y013439D02*
X019653Y013439D01*
X019653Y013537D02*
X022602Y013537D01*
X022700Y013636D02*
X022278Y013636D01*
X022248Y013606D02*
X021958Y013606D01*
X021753Y013811D01*
X021753Y014101D01*
X021823Y014171D01*
X021823Y014212D01*
X021791Y014212D01*
X021703Y014300D01*
X021703Y014764D01*
X021791Y014852D01*
X022316Y014852D01*
X022403Y014764D01*
X022403Y014300D01*
X022329Y014226D01*
X022453Y014101D01*
X022453Y013811D01*
X022248Y013606D01*
X022376Y013735D02*
X022799Y013735D01*
X022953Y013606D02*
X027803Y013606D01*
X028053Y013856D01*
X028053Y015156D01*
X028053Y014756D01*
X027853Y014720D02*
X027707Y014720D01*
X027805Y014819D02*
X027853Y014819D01*
X027813Y014827D02*
X027573Y014586D01*
X027234Y014586D01*
X026993Y014827D01*
X026993Y015235D01*
X026733Y015495D01*
X026733Y015718D01*
X026733Y015866D01*
X026646Y015866D01*
X026558Y015954D01*
X026558Y016590D01*
X026646Y016678D01*
X027361Y016678D01*
X027449Y016590D01*
X027449Y015954D01*
X027421Y015926D01*
X027573Y015926D01*
X027813Y015686D01*
X027813Y014827D01*
X027813Y014917D02*
X027853Y014917D01*
X027853Y015016D02*
X027813Y015016D01*
X027813Y015114D02*
X027853Y015114D01*
X027853Y015213D02*
X027813Y015213D01*
X027853Y015239D02*
X027853Y018174D01*
X027853Y018339D01*
X028571Y019056D01*
X028121Y019056D01*
X028075Y019102D01*
X027103Y019102D01*
X027103Y019100D01*
X027016Y019012D01*
X026491Y019012D01*
X026477Y019026D01*
X025849Y019026D01*
X025685Y018863D01*
X025784Y018863D01*
X025853Y018793D01*
X025923Y018863D01*
X026284Y018863D01*
X026371Y018775D01*
X026371Y017785D01*
X026284Y017697D01*
X025923Y017697D01*
X025853Y017767D01*
X025784Y017697D01*
X025473Y017697D01*
X025473Y016818D01*
X025476Y016816D01*
X025784Y016816D01*
X025853Y016746D01*
X025923Y016816D01*
X026284Y016816D01*
X026371Y016728D01*
X026371Y015738D01*
X026284Y015650D01*
X025923Y015650D01*
X025873Y015700D01*
X025873Y015153D01*
X025874Y015153D01*
X025962Y015065D01*
X025962Y014547D01*
X025879Y014464D01*
X026136Y014206D01*
X027258Y014206D01*
X027408Y014356D01*
X027698Y014356D01*
X027853Y014201D01*
X027853Y015239D01*
X027853Y015311D02*
X027813Y015311D01*
X027813Y015410D02*
X027853Y015410D01*
X027853Y015508D02*
X027813Y015508D01*
X027813Y015607D02*
X027853Y015607D01*
X027853Y015705D02*
X027794Y015705D01*
X027853Y015804D02*
X027696Y015804D01*
X027597Y015903D02*
X027853Y015903D01*
X027853Y016001D02*
X027449Y016001D01*
X027449Y016100D02*
X027853Y016100D01*
X027853Y016198D02*
X027449Y016198D01*
X027449Y016297D02*
X027853Y016297D01*
X027853Y016395D02*
X027449Y016395D01*
X027449Y016494D02*
X027853Y016494D01*
X027853Y016592D02*
X027446Y016592D01*
X027853Y016691D02*
X026371Y016691D01*
X026371Y016592D02*
X026561Y016592D01*
X026558Y016494D02*
X026371Y016494D01*
X026371Y016395D02*
X026558Y016395D01*
X026558Y016297D02*
X026371Y016297D01*
X026371Y016198D02*
X026558Y016198D01*
X026558Y016100D02*
X026371Y016100D01*
X026371Y016001D02*
X026558Y016001D01*
X026609Y015903D02*
X026371Y015903D01*
X026371Y015804D02*
X026733Y015804D01*
X026733Y015705D02*
X026339Y015705D01*
X026733Y015607D02*
X025873Y015607D01*
X025873Y015508D02*
X026733Y015508D01*
X026818Y015410D02*
X025873Y015410D01*
X025873Y015311D02*
X026917Y015311D01*
X026993Y015213D02*
X025873Y015213D01*
X025913Y015114D02*
X026993Y015114D01*
X026993Y015016D02*
X025962Y015016D01*
X025962Y014917D02*
X026993Y014917D01*
X027001Y014819D02*
X025962Y014819D01*
X025962Y014720D02*
X027100Y014720D01*
X027199Y014621D02*
X025962Y014621D01*
X025937Y014523D02*
X027853Y014523D01*
X027853Y014621D02*
X027608Y014621D01*
X027853Y014424D02*
X025918Y014424D01*
X026017Y014326D02*
X027378Y014326D01*
X027279Y014227D02*
X026115Y014227D01*
X026053Y014006D02*
X025503Y014556D01*
X025503Y014756D01*
X025553Y014806D01*
X025503Y014806D01*
X025536Y014806D02*
X025553Y014806D01*
X025353Y014424D02*
X025096Y014424D01*
X025096Y014326D02*
X025451Y014326D01*
X025550Y014227D02*
X025096Y014227D01*
X025051Y014129D02*
X025648Y014129D01*
X025747Y014030D02*
X022453Y014030D01*
X022453Y013932D02*
X025845Y013932D01*
X025944Y013833D02*
X022453Y013833D01*
X022426Y014129D02*
X024289Y014129D01*
X024245Y014227D02*
X022331Y014227D01*
X022403Y014326D02*
X024245Y014326D01*
X024245Y014424D02*
X022403Y014424D01*
X022403Y014523D02*
X024245Y014523D01*
X024245Y014621D02*
X022403Y014621D01*
X022403Y014720D02*
X024273Y014720D01*
X024400Y014819D02*
X022349Y014819D01*
X022371Y014917D02*
X023798Y014917D01*
X023699Y015016D02*
X023144Y015016D01*
X023243Y015114D02*
X023603Y015114D01*
X023603Y015213D02*
X023341Y015213D01*
X023440Y015311D02*
X023603Y015311D01*
X023612Y015410D02*
X023539Y015410D01*
X023637Y015508D02*
X023710Y015508D01*
X023736Y015607D02*
X023922Y015607D01*
X023834Y015705D02*
X024021Y015705D01*
X023933Y015804D02*
X024119Y015804D01*
X024031Y015903D02*
X024218Y015903D01*
X024316Y016001D02*
X024073Y016001D01*
X024073Y016100D02*
X024333Y016100D01*
X024333Y016198D02*
X024073Y016198D01*
X024073Y016297D02*
X024333Y016297D01*
X024335Y016395D02*
X024073Y016395D01*
X024073Y016494D02*
X024335Y016494D01*
X024335Y016592D02*
X024073Y016592D01*
X024073Y016691D02*
X024335Y016691D01*
X024397Y016789D02*
X024168Y016789D01*
X023799Y017184D02*
X019653Y017184D01*
X019653Y017282D02*
X023897Y017282D01*
X023996Y017381D02*
X019653Y017381D01*
X019653Y017479D02*
X024933Y017479D01*
X024933Y017578D02*
X019653Y017578D01*
X019653Y017676D02*
X020794Y017676D01*
X020785Y017685D02*
X020785Y017893D01*
X020748Y017856D01*
X020458Y017856D01*
X020253Y018061D01*
X020253Y018351D01*
X020458Y018556D01*
X020748Y018556D01*
X020783Y018521D01*
X020783Y018570D01*
X020759Y018594D01*
X020759Y019119D01*
X020847Y019206D01*
X021311Y019206D01*
X021399Y019119D01*
X021399Y018594D01*
X021323Y018519D01*
X021323Y018292D01*
X021323Y018268D01*
X021323Y018045D01*
X021321Y018043D01*
X021321Y017685D01*
X021234Y017597D01*
X020873Y017597D01*
X020785Y017685D01*
X020785Y017775D02*
X019653Y017775D01*
X019653Y017873D02*
X020441Y017873D01*
X020343Y017972D02*
X019653Y017972D01*
X019653Y018070D02*
X020253Y018070D01*
X020253Y018169D02*
X019653Y018169D01*
X019653Y018268D02*
X020253Y018268D01*
X020268Y018366D02*
X019653Y018366D01*
X019653Y018465D02*
X020367Y018465D01*
X020783Y018563D02*
X019653Y018563D01*
X019653Y018662D02*
X020759Y018662D01*
X020759Y018760D02*
X019653Y018760D01*
X019653Y018859D02*
X020759Y018859D01*
X020759Y018957D02*
X019653Y018957D01*
X019653Y019056D02*
X020759Y019056D01*
X020795Y019154D02*
X019653Y019154D01*
X019653Y019253D02*
X024232Y019253D01*
X024232Y019154D02*
X021363Y019154D01*
X021399Y019056D02*
X024232Y019056D01*
X024232Y018957D02*
X021399Y018957D01*
X021399Y018859D02*
X024232Y018859D01*
X024271Y018760D02*
X022736Y018760D01*
X022734Y018763D02*
X022821Y018675D01*
X022821Y017685D01*
X022734Y017597D01*
X022373Y017597D01*
X022285Y017685D01*
X022285Y018675D01*
X022373Y018763D01*
X022734Y018763D01*
X022821Y018662D02*
X024333Y018662D01*
X023965Y018563D02*
X022821Y018563D01*
X022821Y018465D02*
X023867Y018465D01*
X023803Y018366D02*
X022821Y018366D01*
X022821Y018268D02*
X023803Y018268D01*
X023803Y018169D02*
X022821Y018169D01*
X022821Y018070D02*
X023844Y018070D01*
X023943Y017972D02*
X022821Y017972D01*
X022821Y017873D02*
X024335Y017873D01*
X024345Y017775D02*
X022821Y017775D01*
X022813Y017676D02*
X024933Y017676D01*
X025473Y017676D02*
X027853Y017676D01*
X027853Y017578D02*
X025473Y017578D01*
X025473Y017479D02*
X027853Y017479D01*
X027853Y017381D02*
X025473Y017381D01*
X025473Y017282D02*
X027853Y017282D01*
X027853Y017184D02*
X025473Y017184D01*
X025473Y017085D02*
X027853Y017085D01*
X027853Y016986D02*
X025473Y016986D01*
X025473Y016888D02*
X027853Y016888D01*
X027853Y016789D02*
X026310Y016789D01*
X025897Y016789D02*
X025810Y016789D01*
X024833Y016789D02*
X024810Y016789D01*
X023700Y017085D02*
X019653Y017085D01*
X019653Y016986D02*
X023602Y016986D01*
X023533Y016888D02*
X019653Y016888D01*
X019653Y016789D02*
X023533Y016789D01*
X023533Y016691D02*
X022759Y016691D01*
X022734Y016716D02*
X022821Y016628D01*
X022821Y015638D01*
X022734Y015550D01*
X022373Y015550D01*
X022285Y015638D01*
X022285Y016628D01*
X022373Y016716D01*
X022734Y016716D01*
X022821Y016592D02*
X023533Y016592D01*
X023533Y016494D02*
X022821Y016494D01*
X022821Y016395D02*
X023533Y016395D01*
X023533Y016297D02*
X022821Y016297D01*
X022821Y016198D02*
X023533Y016198D01*
X023465Y016100D02*
X022821Y016100D01*
X022821Y016001D02*
X023366Y016001D01*
X023268Y015903D02*
X022821Y015903D01*
X022821Y015804D02*
X023169Y015804D01*
X023071Y015705D02*
X022821Y015705D01*
X022791Y015607D02*
X022972Y015607D01*
X022316Y015607D02*
X021291Y015607D01*
X021321Y015705D02*
X022285Y015705D01*
X022285Y015804D02*
X021321Y015804D01*
X021321Y015903D02*
X022285Y015903D01*
X022285Y016001D02*
X021321Y016001D01*
X021321Y016100D02*
X022285Y016100D01*
X022285Y016198D02*
X021321Y016198D01*
X021321Y016297D02*
X022285Y016297D01*
X022285Y016395D02*
X021321Y016395D01*
X021321Y016494D02*
X022285Y016494D01*
X022285Y016592D02*
X021321Y016592D01*
X021259Y016691D02*
X022348Y016691D01*
X020848Y016691D02*
X019653Y016691D01*
X019653Y016592D02*
X020785Y016592D01*
X020785Y016494D02*
X019653Y016494D01*
X019653Y016395D02*
X020785Y016395D01*
X020785Y016297D02*
X019653Y016297D01*
X019653Y016198D02*
X020785Y016198D01*
X020785Y016100D02*
X019653Y016100D01*
X019653Y016001D02*
X020785Y016001D01*
X020785Y015903D02*
X019653Y015903D01*
X019653Y015804D02*
X020785Y015804D01*
X020785Y015705D02*
X019653Y015705D01*
X019653Y015607D02*
X020816Y015607D01*
X020703Y015508D02*
X019653Y015508D01*
X019653Y015410D02*
X020703Y015410D01*
X020703Y015311D02*
X019653Y015311D01*
X019653Y015213D02*
X020703Y015213D01*
X020703Y015114D02*
X019653Y015114D01*
X019653Y015016D02*
X020737Y015016D01*
X021735Y014917D02*
X019653Y014917D01*
X019653Y014819D02*
X021758Y014819D01*
X021703Y014720D02*
X019653Y014720D01*
X019653Y014621D02*
X021703Y014621D01*
X021703Y014523D02*
X019653Y014523D01*
X019653Y014424D02*
X021703Y014424D01*
X021703Y014326D02*
X019653Y014326D01*
X019653Y014227D02*
X021776Y014227D01*
X021781Y014129D02*
X019653Y014129D01*
X019653Y014030D02*
X021753Y014030D01*
X021753Y013932D02*
X019653Y013932D01*
X019653Y013833D02*
X021753Y013833D01*
X021830Y013735D02*
X019653Y013735D01*
X019653Y013636D02*
X021929Y013636D01*
X022576Y012946D02*
X022660Y012946D01*
X022674Y013045D02*
X022759Y013045D01*
X022773Y013143D02*
X022857Y013143D01*
X022872Y013242D02*
X022956Y013242D01*
X022970Y013340D02*
X023055Y013340D01*
X022953Y013606D02*
X020753Y011406D01*
X020953Y011606D01*
X021098Y011468D02*
X021182Y011468D01*
X021196Y011567D02*
X021281Y011567D01*
X021295Y011665D02*
X021379Y011665D01*
X021393Y011764D02*
X021478Y011764D01*
X021492Y011862D02*
X021576Y011862D01*
X021591Y011961D02*
X021675Y011961D01*
X021689Y012059D02*
X021774Y012059D01*
X021788Y012158D02*
X021872Y012158D01*
X021886Y012256D02*
X021971Y012256D01*
X021985Y012355D02*
X022069Y012355D01*
X022083Y012454D02*
X022168Y012454D01*
X022182Y012552D02*
X022266Y012552D01*
X022280Y012651D02*
X022365Y012651D01*
X022379Y012749D02*
X022463Y012749D01*
X022477Y012848D02*
X022562Y012848D01*
X023628Y013031D02*
X023653Y013006D01*
X023803Y013156D01*
X030203Y013156D01*
X030403Y013356D01*
X030803Y013356D01*
X031003Y013156D01*
X031153Y013156D01*
X031503Y013143D02*
X031734Y013143D01*
X031832Y013045D02*
X031503Y013045D01*
X031503Y013011D02*
X031298Y012806D01*
X031008Y012806D01*
X030953Y012862D01*
X030953Y012861D01*
X030748Y012656D01*
X030458Y012656D01*
X030408Y012706D01*
X029586Y012706D01*
X029421Y012706D01*
X029371Y012756D01*
X027743Y012756D01*
X027813Y012686D01*
X027813Y011827D01*
X027573Y011586D01*
X027234Y011586D01*
X026993Y011827D01*
X026993Y012686D01*
X027064Y012756D01*
X026936Y012756D01*
X026903Y012724D01*
X026786Y012606D01*
X023886Y012606D01*
X022203Y010924D01*
X022203Y007789D01*
X023786Y006206D01*
X023898Y006206D01*
X024103Y006001D01*
X024103Y005711D01*
X023898Y005506D01*
X023608Y005506D01*
X023503Y005612D01*
X023398Y005506D01*
X023108Y005506D01*
X022903Y005711D01*
X022903Y006001D01*
X022965Y006063D01*
X021513Y007514D01*
X021513Y006929D01*
X023409Y005034D01*
X023409Y005369D01*
X023497Y005456D01*
X023961Y005456D01*
X024049Y005369D01*
X024049Y004844D01*
X024023Y004819D01*
X024053Y004789D01*
X024053Y004624D01*
X024053Y004139D01*
X024252Y003941D01*
X024764Y003941D01*
X024851Y003853D01*
X024851Y003512D01*
X024764Y003424D01*
X024665Y003424D01*
X024665Y003127D01*
X024736Y003056D01*
X030549Y003056D01*
X030803Y003419D01*
X030803Y003439D01*
X030850Y003485D01*
X030921Y003556D01*
X031086Y003556D01*
X031121Y003556D01*
X031121Y004012D01*
X030991Y004012D01*
X030903Y004100D01*
X030903Y004564D01*
X030991Y004652D01*
X031459Y004652D01*
X031459Y004769D01*
X031547Y004856D01*
X032011Y004856D01*
X032099Y004769D01*
X032099Y004244D01*
X032011Y004156D01*
X031603Y004156D01*
X031603Y004101D01*
X031638Y004067D01*
X031638Y003556D01*
X031869Y003556D01*
X031869Y004067D01*
X031957Y004154D01*
X032298Y004154D01*
X032386Y004067D01*
X032386Y003807D01*
X032486Y003706D01*
X032911Y003706D01*
X032999Y003619D01*
X032999Y003094D01*
X032986Y003081D01*
X032999Y003069D01*
X032999Y002694D01*
X033036Y002656D01*
X034971Y002656D01*
X035571Y003256D01*
X035736Y003256D01*
X036636Y003256D01*
X036753Y003139D01*
X037003Y002889D01*
X037003Y002964D01*
X037091Y003052D01*
X037603Y003052D01*
X037603Y003574D01*
X037565Y003612D01*
X037141Y003612D01*
X037053Y003700D01*
X037053Y004164D01*
X037141Y004252D01*
X037653Y004252D01*
X037653Y004414D01*
X037741Y004502D01*
X038266Y004502D01*
X038353Y004414D01*
X038353Y003950D01*
X038266Y003862D01*
X038003Y003862D01*
X038003Y003574D01*
X038003Y003139D01*
X038098Y003045D01*
X038143Y003091D01*
X038740Y003091D01*
X038803Y003027D01*
X038803Y003386D01*
X038740Y003322D01*
X038143Y003322D01*
X038055Y003410D01*
X038055Y003751D01*
X038143Y003839D01*
X038539Y003839D01*
X038543Y003843D01*
X038709Y004009D01*
X038709Y004519D01*
X038797Y004606D01*
X039261Y004606D01*
X039349Y004519D01*
X039349Y004309D01*
X039389Y004269D01*
X039389Y004095D01*
X039360Y004066D01*
X039840Y004066D01*
X039963Y003943D01*
X039963Y003929D01*
X040136Y003756D01*
X040236Y003756D01*
X040353Y003639D01*
X040836Y003156D01*
X045871Y003156D01*
X046003Y003289D01*
X040704Y003289D01*
X040802Y003190D02*
X045905Y003190D01*
X046003Y003289D02*
X046303Y003589D01*
X046303Y004112D01*
X046198Y004006D01*
X045908Y004006D01*
X045703Y004211D01*
X045703Y004501D01*
X045908Y004706D01*
X046029Y004706D01*
X046029Y005506D01*
X045997Y005506D01*
X045909Y005594D01*
X045909Y006119D01*
X045997Y006206D01*
X046208Y006206D01*
X046208Y006669D01*
X046296Y006756D01*
X046760Y006756D01*
X046826Y006691D01*
X047253Y006691D01*
X047253Y006922D01*
X046743Y006922D01*
X046655Y007010D01*
X046655Y007351D01*
X046743Y007439D01*
X046842Y007439D01*
X046842Y007721D01*
X046743Y007819D01*
X046743Y012343D01*
X046753Y012353D01*
X046753Y012374D01*
X046621Y012506D01*
X043786Y012506D01*
X043621Y012506D01*
X043221Y012906D01*
X038686Y012906D01*
X037736Y011956D01*
X037571Y011956D01*
X033786Y011956D01*
X033621Y011956D01*
X033221Y012356D01*
X032686Y012356D01*
X032521Y012356D01*
X031521Y013356D01*
X031448Y013356D01*
X031503Y013301D01*
X031503Y013011D01*
X031438Y012946D02*
X031931Y012946D01*
X032029Y012848D02*
X031340Y012848D01*
X030967Y012848D02*
X030940Y012848D01*
X030841Y012749D02*
X032128Y012749D01*
X032226Y012651D02*
X027813Y012651D01*
X027813Y012552D02*
X032325Y012552D01*
X032424Y012454D02*
X027813Y012454D01*
X027813Y012355D02*
X033222Y012355D01*
X033321Y012256D02*
X027813Y012256D01*
X027813Y012158D02*
X033419Y012158D01*
X033518Y012059D02*
X027813Y012059D01*
X027813Y011961D02*
X033616Y011961D01*
X033703Y012156D02*
X033303Y012556D01*
X032603Y012556D01*
X031603Y013556D01*
X029353Y013556D01*
X029003Y013906D01*
X029003Y014256D01*
X028953Y014306D01*
X028953Y016706D01*
X029203Y016956D01*
X029203Y016932D01*
X029828Y016932D01*
X029853Y016906D01*
X029853Y016822D01*
X030019Y016822D01*
X030553Y017356D01*
X030519Y017391D01*
X030519Y017456D01*
X030172Y017479D02*
X028503Y017479D01*
X028503Y017381D02*
X030172Y017381D01*
X030172Y017282D02*
X028503Y017282D01*
X028503Y017184D02*
X028873Y017184D01*
X028853Y017164D02*
X028941Y017252D01*
X029466Y017252D01*
X029553Y017164D01*
X029553Y017147D01*
X029575Y017169D01*
X030083Y017169D01*
X030172Y017258D01*
X030172Y017735D01*
X030260Y017823D01*
X030778Y017823D01*
X030853Y017747D01*
X030929Y017823D01*
X031447Y017823D01*
X031535Y017735D01*
X031535Y017556D01*
X031849Y017556D01*
X031489Y017932D01*
X031447Y017890D01*
X030929Y017890D01*
X030853Y017966D01*
X030778Y017890D01*
X030260Y017890D01*
X030172Y017978D01*
X030172Y018355D01*
X030157Y018370D01*
X030132Y018344D01*
X029575Y018344D01*
X029512Y018407D01*
X029466Y018361D01*
X028941Y018361D01*
X028941Y018361D01*
X028503Y017924D01*
X028503Y013489D01*
X028503Y013356D01*
X030121Y013356D01*
X029436Y013356D01*
X029271Y013356D01*
X028803Y013824D01*
X028803Y013989D01*
X028803Y014174D01*
X028753Y014224D01*
X028753Y014389D01*
X028753Y016624D01*
X028753Y016789D01*
X028853Y016889D01*
X028853Y017164D01*
X028853Y017085D02*
X028503Y017085D01*
X028503Y016986D02*
X028853Y016986D01*
X028852Y016888D02*
X028503Y016888D01*
X028503Y016789D02*
X028754Y016789D01*
X028753Y016691D02*
X028503Y016691D01*
X028503Y016592D02*
X028753Y016592D01*
X028753Y016494D02*
X028503Y016494D01*
X028503Y016395D02*
X028753Y016395D01*
X028753Y016297D02*
X028503Y016297D01*
X028503Y016198D02*
X028753Y016198D01*
X028753Y016100D02*
X028503Y016100D01*
X028503Y016001D02*
X028753Y016001D01*
X028753Y015903D02*
X028503Y015903D01*
X028503Y015804D02*
X028753Y015804D01*
X028753Y015705D02*
X028503Y015705D01*
X028503Y015607D02*
X028753Y015607D01*
X028753Y015508D02*
X028503Y015508D01*
X028503Y015410D02*
X028753Y015410D01*
X028753Y015311D02*
X028503Y015311D01*
X028503Y015213D02*
X028753Y015213D01*
X028753Y015114D02*
X028503Y015114D01*
X028503Y015016D02*
X028753Y015016D01*
X028753Y014917D02*
X028503Y014917D01*
X028503Y014819D02*
X028753Y014819D01*
X028753Y014720D02*
X028503Y014720D01*
X028503Y014621D02*
X028753Y014621D01*
X028753Y014523D02*
X028503Y014523D01*
X028503Y014424D02*
X028753Y014424D01*
X028753Y014326D02*
X028503Y014326D01*
X028503Y014227D02*
X028753Y014227D01*
X028803Y014129D02*
X028503Y014129D01*
X028503Y014030D02*
X028803Y014030D01*
X028803Y013932D02*
X028503Y013932D01*
X028503Y013833D02*
X028803Y013833D01*
X028892Y013735D02*
X028503Y013735D01*
X028503Y013636D02*
X028991Y013636D01*
X029090Y013537D02*
X028503Y013537D01*
X028503Y013439D02*
X029188Y013439D01*
X029453Y012956D02*
X029503Y012906D01*
X030503Y012906D01*
X030603Y013006D01*
X030121Y013356D02*
X030121Y013356D01*
X029453Y012956D02*
X026853Y012956D01*
X026703Y012806D01*
X023803Y012806D01*
X022003Y011006D01*
X022003Y007706D01*
X023753Y005956D01*
X023753Y005856D01*
X024103Y005851D02*
X026353Y005851D01*
X026353Y005864D02*
X026646Y006156D01*
X027060Y006156D01*
X027485Y005731D01*
X027486Y005731D01*
X027816Y005402D01*
X027816Y005352D01*
X028237Y005352D01*
X028253Y005335D01*
X028270Y005352D01*
X028691Y005352D01*
X028691Y005402D01*
X029020Y005731D01*
X029486Y005731D01*
X029816Y005402D01*
X029816Y005014D01*
X030333Y004497D01*
X030333Y004284D01*
X030503Y004114D01*
X030503Y004086D01*
X030513Y004076D01*
X030513Y003737D01*
X030503Y003727D01*
X030503Y003699D01*
X030210Y003406D01*
X029796Y003406D01*
X029626Y003576D01*
X029565Y003576D01*
X029565Y003560D01*
X029477Y003472D01*
X028644Y003472D01*
X028556Y003560D01*
X028556Y004353D01*
X028644Y004441D01*
X028691Y004441D01*
X028691Y004461D01*
X028270Y004461D01*
X028253Y004478D01*
X028237Y004461D01*
X027816Y004461D01*
X027816Y004441D01*
X027863Y004441D01*
X027951Y004353D01*
X027951Y003560D01*
X027863Y003472D01*
X027030Y003472D01*
X026942Y003560D01*
X026942Y003860D01*
X026691Y004111D01*
X026691Y005112D01*
X026353Y005449D01*
X026353Y005864D01*
X026353Y005753D02*
X024103Y005753D01*
X024046Y005654D02*
X026353Y005654D01*
X026353Y005555D02*
X023947Y005555D01*
X024049Y005358D02*
X026444Y005358D01*
X026353Y005457D02*
X022986Y005457D01*
X023059Y005555D02*
X022887Y005555D01*
X022961Y005654D02*
X022789Y005654D01*
X022690Y005753D02*
X022903Y005753D01*
X022903Y005851D02*
X022591Y005851D01*
X022493Y005950D02*
X022903Y005950D01*
X022950Y006048D02*
X022394Y006048D01*
X022296Y006147D02*
X022880Y006147D01*
X022782Y006245D02*
X022197Y006245D01*
X022099Y006344D02*
X022683Y006344D01*
X022585Y006442D02*
X022000Y006442D01*
X021902Y006541D02*
X022486Y006541D01*
X022388Y006639D02*
X021803Y006639D01*
X021705Y006738D02*
X022289Y006738D01*
X022191Y006837D02*
X021606Y006837D01*
X021513Y006935D02*
X022092Y006935D01*
X021993Y007034D02*
X021513Y007034D01*
X021513Y007132D02*
X021895Y007132D01*
X021796Y007231D02*
X021513Y007231D01*
X021513Y007329D02*
X021698Y007329D01*
X021599Y007428D02*
X021513Y007428D01*
X021653Y007656D02*
X023253Y006056D01*
X023253Y005856D01*
X023253Y005906D01*
X023447Y005555D02*
X023559Y005555D01*
X023409Y005358D02*
X023084Y005358D01*
X023183Y005260D02*
X023409Y005260D01*
X023409Y005161D02*
X023281Y005161D01*
X023380Y005063D02*
X023409Y005063D01*
X023353Y004806D02*
X023603Y004806D01*
X023729Y004932D01*
X023729Y005106D01*
X023753Y004806D02*
X023853Y004706D01*
X023853Y004056D01*
X024227Y003682D01*
X024465Y003682D01*
X024465Y003045D01*
X024653Y002856D01*
X030653Y002856D01*
X031003Y003356D01*
X032003Y003356D01*
X032127Y003480D01*
X032127Y003768D01*
X032127Y003782D01*
X032553Y003356D01*
X032679Y003356D01*
X032999Y003388D02*
X037603Y003388D01*
X037603Y003486D02*
X032999Y003486D01*
X032999Y003585D02*
X037592Y003585D01*
X037803Y003656D02*
X037803Y004006D01*
X037979Y004182D01*
X038003Y004182D01*
X038353Y004176D02*
X038709Y004176D01*
X038709Y004274D02*
X038353Y004274D01*
X038353Y004373D02*
X038709Y004373D01*
X038709Y004471D02*
X038296Y004471D01*
X038266Y004511D02*
X037741Y004511D01*
X037653Y004599D01*
X037653Y005063D01*
X035703Y005063D01*
X035703Y005161D02*
X038475Y005161D01*
X038377Y005063D02*
X038353Y005063D01*
X038353Y005039D01*
X038621Y005306D01*
X038656Y005306D01*
X038666Y005316D01*
X038668Y005316D01*
X038808Y005456D01*
X039098Y005456D01*
X039303Y005251D01*
X039303Y004961D01*
X039098Y004756D01*
X038808Y004756D01*
X038722Y004843D01*
X038603Y004724D01*
X038603Y004724D01*
X038486Y004606D01*
X038353Y004606D01*
X038353Y004599D01*
X038266Y004511D01*
X038324Y004570D02*
X038760Y004570D01*
X038798Y004767D02*
X038647Y004767D01*
X038548Y004669D02*
X040853Y004669D01*
X040853Y004687D02*
X040853Y005036D01*
X040853Y005226D01*
X040903Y005276D01*
X040903Y005426D01*
X040966Y005489D01*
X041038Y005561D01*
X042184Y006706D01*
X042723Y006706D01*
X043103Y006326D01*
X043103Y005787D01*
X042768Y005452D01*
X043041Y005452D01*
X043270Y005681D01*
X043736Y005681D01*
X044066Y005352D01*
X044066Y005315D01*
X044443Y005286D01*
X044803Y004926D01*
X044803Y004586D01*
X044963Y004426D01*
X044963Y004087D01*
X044723Y003846D01*
X044384Y003846D01*
X044224Y004006D01*
X044128Y004006D01*
X044020Y004015D01*
X043815Y003810D01*
X043815Y003810D01*
X043727Y003722D01*
X042894Y003722D01*
X042806Y003810D01*
X042806Y004561D01*
X042520Y004561D01*
X042503Y004578D01*
X042487Y004561D01*
X042201Y004561D01*
X042201Y003810D01*
X042113Y003722D01*
X041280Y003722D01*
X041192Y003810D01*
X040941Y004061D01*
X040941Y004350D01*
X040853Y004437D01*
X040853Y004637D01*
X040853Y004687D01*
X040853Y004767D02*
X039109Y004767D01*
X039208Y004866D02*
X040853Y004866D01*
X040853Y004964D02*
X039303Y004964D01*
X039303Y005063D02*
X040853Y005063D01*
X040853Y005161D02*
X039303Y005161D01*
X039295Y005260D02*
X040888Y005260D01*
X040903Y005358D02*
X039196Y005358D01*
X038710Y005358D02*
X035703Y005358D01*
X035703Y005406D02*
X035703Y004926D01*
X035703Y004387D01*
X035123Y003806D01*
X035023Y003806D01*
X034711Y003806D01*
X034686Y003781D01*
X034220Y003781D01*
X034195Y003806D01*
X034034Y003806D01*
X033653Y004187D01*
X033653Y005076D01*
X033653Y005276D01*
X033653Y005787D01*
X033653Y007387D01*
X033553Y007487D01*
X033553Y007787D01*
X033553Y008326D01*
X033934Y008706D01*
X034473Y008706D01*
X034573Y008606D01*
X034953Y008226D01*
X034953Y007976D01*
X035003Y007926D01*
X035153Y008076D01*
X035153Y008176D01*
X035534Y008556D01*
X036073Y008556D01*
X036453Y008176D01*
X036453Y008076D01*
X036453Y007537D01*
X036205Y007288D01*
X036205Y006619D01*
X036153Y006568D01*
X036153Y006476D01*
X036153Y006326D01*
X036153Y005787D01*
X035773Y005406D01*
X035703Y005406D01*
X035823Y005457D02*
X040935Y005457D01*
X041033Y005555D02*
X035922Y005555D01*
X036020Y005654D02*
X041132Y005654D01*
X041230Y005753D02*
X036119Y005753D01*
X036153Y005851D02*
X041329Y005851D01*
X041427Y005950D02*
X036153Y005950D01*
X036153Y006048D02*
X041526Y006048D01*
X041624Y006147D02*
X036153Y006147D01*
X036153Y006245D02*
X041723Y006245D01*
X041822Y006344D02*
X036153Y006344D01*
X036153Y006442D02*
X041920Y006442D01*
X042019Y006541D02*
X036153Y006541D01*
X036205Y006639D02*
X042117Y006639D01*
X042790Y006639D02*
X046208Y006639D01*
X046208Y006541D02*
X042888Y006541D01*
X042987Y006442D02*
X046208Y006442D01*
X046208Y006344D02*
X043085Y006344D01*
X043103Y006245D02*
X046208Y006245D01*
X045937Y006147D02*
X043103Y006147D01*
X043103Y006048D02*
X045909Y006048D01*
X045909Y005950D02*
X043103Y005950D01*
X043103Y005851D02*
X045909Y005851D01*
X045909Y005753D02*
X043069Y005753D01*
X042970Y005654D02*
X043243Y005654D01*
X043144Y005555D02*
X042872Y005555D01*
X042773Y005457D02*
X043046Y005457D01*
X043764Y005654D02*
X045909Y005654D01*
X045948Y005555D02*
X043862Y005555D01*
X043961Y005457D02*
X046029Y005457D01*
X046029Y005358D02*
X044059Y005358D01*
X044469Y005260D02*
X046029Y005260D01*
X046029Y005161D02*
X044568Y005161D01*
X044666Y005063D02*
X046029Y005063D01*
X046029Y004964D02*
X044765Y004964D01*
X044803Y004866D02*
X046029Y004866D01*
X046029Y004767D02*
X044803Y004767D01*
X044803Y004669D02*
X045871Y004669D01*
X045772Y004570D02*
X044820Y004570D01*
X044918Y004471D02*
X045703Y004471D01*
X045703Y004373D02*
X044963Y004373D01*
X044963Y004274D02*
X045703Y004274D01*
X045739Y004176D02*
X044963Y004176D01*
X044954Y004077D02*
X045838Y004077D01*
X046053Y004356D02*
X046229Y004532D01*
X046229Y005856D01*
X046528Y006406D02*
X047003Y006406D01*
X047029Y006432D01*
X047041Y006432D01*
X047003Y006406D02*
X046878Y006281D01*
X046878Y005856D01*
X047453Y005706D02*
X046503Y004756D01*
X046503Y003506D01*
X046203Y003206D01*
X046403Y003406D01*
X046299Y003585D02*
X040408Y003585D01*
X040309Y003683D02*
X046303Y003683D01*
X046303Y003782D02*
X043787Y003782D01*
X043885Y003880D02*
X044350Y003880D01*
X044251Y003979D02*
X043984Y003979D01*
X044757Y003880D02*
X046303Y003880D01*
X046303Y003979D02*
X044856Y003979D01*
X046102Y003388D02*
X040605Y003388D01*
X040507Y003486D02*
X046200Y003486D01*
X046003Y003289D02*
X046003Y003289D01*
X046203Y003206D02*
X045953Y002956D01*
X040753Y002956D01*
X040153Y003556D01*
X040053Y003556D01*
X039753Y003856D01*
X039928Y003979D02*
X041023Y003979D01*
X040941Y004077D02*
X039371Y004077D01*
X039389Y004176D02*
X040941Y004176D01*
X040941Y004274D02*
X039383Y004274D01*
X039349Y004373D02*
X040918Y004373D01*
X040853Y004471D02*
X039349Y004471D01*
X039297Y004570D02*
X040853Y004570D01*
X041122Y003880D02*
X040012Y003880D01*
X040111Y003782D02*
X041220Y003782D01*
X041192Y003810D02*
X041192Y003810D01*
X042173Y003782D02*
X042834Y003782D01*
X042806Y003880D02*
X042201Y003880D01*
X042201Y003979D02*
X042806Y003979D01*
X042806Y004077D02*
X042201Y004077D01*
X042201Y004176D02*
X042806Y004176D01*
X042806Y004274D02*
X042201Y004274D01*
X042201Y004373D02*
X042806Y004373D01*
X042806Y004471D02*
X042201Y004471D01*
X042496Y004570D02*
X042511Y004570D01*
X039903Y003406D02*
X039753Y003556D01*
X039403Y003556D01*
X039427Y003580D01*
X039465Y003580D01*
X039403Y003556D02*
X039003Y003556D01*
X039003Y002556D01*
X038153Y002556D01*
X037053Y002556D01*
X037503Y002706D01*
X037353Y002756D01*
X037353Y002732D01*
X037053Y002556D02*
X036553Y003056D01*
X035653Y003056D01*
X035053Y002456D01*
X032953Y002456D01*
X032703Y002706D01*
X032679Y002806D01*
X032153Y002806D01*
X032153Y002956D01*
X031953Y003156D01*
X031153Y003156D01*
X030803Y002656D01*
X024353Y002656D01*
X024103Y002906D01*
X024103Y003406D01*
X023803Y003706D01*
X023503Y003706D01*
X023479Y003682D01*
X023479Y003430D01*
X023703Y003206D01*
X024665Y003190D02*
X030643Y003190D01*
X030574Y003092D02*
X024701Y003092D01*
X024853Y003206D02*
X024853Y003906D01*
X024703Y004056D01*
X024465Y004056D01*
X024214Y003979D02*
X024853Y003979D01*
X024853Y003950D02*
X024853Y004224D01*
X024847Y004230D01*
X024822Y004230D01*
X024764Y004172D01*
X024167Y004172D01*
X024079Y004260D01*
X024079Y004601D01*
X024167Y004689D01*
X024764Y004689D01*
X024822Y004630D01*
X024847Y004630D01*
X024853Y004630D01*
X024853Y005063D01*
X024049Y005063D01*
X024049Y005161D02*
X026641Y005161D01*
X026691Y005063D02*
X025553Y005063D01*
X025553Y004789D01*
X025686Y004656D01*
X025848Y004656D01*
X026053Y004451D01*
X026053Y004161D01*
X025848Y003956D01*
X025558Y003956D01*
X025553Y003962D01*
X025553Y003950D01*
X025485Y003882D01*
X025549Y003819D01*
X025549Y003294D01*
X025461Y003206D01*
X024997Y003206D01*
X024909Y003294D01*
X024909Y003504D01*
X024893Y003519D01*
X024893Y003693D01*
X024909Y003709D01*
X024909Y003819D01*
X024952Y003862D01*
X024941Y003862D01*
X024853Y003950D01*
X024824Y003880D02*
X024923Y003880D01*
X024909Y003782D02*
X024851Y003782D01*
X024851Y003683D02*
X024893Y003683D01*
X024893Y003585D02*
X024851Y003585D01*
X024825Y003486D02*
X024909Y003486D01*
X024909Y003388D02*
X024665Y003388D01*
X024665Y003289D02*
X024914Y003289D01*
X025229Y003556D02*
X025253Y003556D01*
X025203Y003606D01*
X025203Y004182D01*
X025203Y004156D01*
X024929Y004430D01*
X024465Y004430D01*
X024079Y004471D02*
X024053Y004471D01*
X024053Y004373D02*
X024079Y004373D01*
X024079Y004274D02*
X024053Y004274D01*
X024053Y004176D02*
X024163Y004176D01*
X024115Y004077D02*
X024853Y004077D01*
X024853Y004176D02*
X024767Y004176D01*
X025487Y003880D02*
X026922Y003880D01*
X026942Y003782D02*
X025549Y003782D01*
X025549Y003683D02*
X026942Y003683D01*
X026942Y003585D02*
X025549Y003585D01*
X025549Y003486D02*
X027016Y003486D01*
X027877Y003486D02*
X028630Y003486D01*
X028556Y003585D02*
X027951Y003585D01*
X027951Y003683D02*
X028556Y003683D01*
X028556Y003782D02*
X027951Y003782D01*
X027951Y003880D02*
X028556Y003880D01*
X028556Y003979D02*
X027951Y003979D01*
X027951Y004077D02*
X028556Y004077D01*
X028556Y004176D02*
X027951Y004176D01*
X027951Y004274D02*
X028556Y004274D01*
X028576Y004373D02*
X027931Y004373D01*
X028247Y004471D02*
X028260Y004471D01*
X028691Y005358D02*
X027816Y005358D01*
X027761Y005457D02*
X028746Y005457D01*
X028844Y005555D02*
X027662Y005555D01*
X027564Y005654D02*
X028943Y005654D01*
X028969Y005906D02*
X028638Y005906D01*
X028403Y006141D01*
X028403Y006472D01*
X028638Y006706D01*
X028969Y006706D01*
X029103Y006572D01*
X029238Y006706D01*
X029569Y006706D01*
X029803Y006472D01*
X029803Y006141D01*
X029569Y005906D01*
X029238Y005906D01*
X029103Y006041D01*
X028969Y005906D01*
X029012Y005950D02*
X029195Y005950D01*
X029403Y006306D02*
X029403Y006506D01*
X029171Y006639D02*
X029036Y006639D01*
X028853Y006506D02*
X028803Y006306D01*
X028496Y006048D02*
X027169Y006048D01*
X027267Y005950D02*
X028595Y005950D01*
X028403Y006147D02*
X027070Y006147D01*
X027366Y005851D02*
X033653Y005851D01*
X033653Y005753D02*
X027464Y005753D01*
X026637Y006147D02*
X023958Y006147D01*
X024057Y006048D02*
X026538Y006048D01*
X026439Y005950D02*
X024103Y005950D01*
X023747Y006245D02*
X028403Y006245D01*
X028403Y006344D02*
X023649Y006344D01*
X023550Y006442D02*
X028403Y006442D01*
X028472Y006541D02*
X023452Y006541D01*
X023353Y006639D02*
X028571Y006639D01*
X029636Y006639D02*
X033653Y006639D01*
X033653Y006541D02*
X029735Y006541D01*
X029803Y006442D02*
X033653Y006442D01*
X033653Y006344D02*
X029803Y006344D01*
X029803Y006245D02*
X033653Y006245D01*
X033653Y006147D02*
X029803Y006147D01*
X029711Y006048D02*
X033653Y006048D01*
X033653Y005950D02*
X029612Y005950D01*
X029564Y005654D02*
X033653Y005654D01*
X033653Y005555D02*
X029662Y005555D01*
X029761Y005457D02*
X033653Y005457D01*
X033653Y005358D02*
X029816Y005358D01*
X029816Y005260D02*
X033653Y005260D01*
X033653Y005161D02*
X029816Y005161D01*
X029816Y005063D02*
X033653Y005063D01*
X033653Y004964D02*
X029866Y004964D01*
X029964Y004866D02*
X033653Y004866D01*
X033653Y004767D02*
X032748Y004767D01*
X032748Y004769D02*
X032748Y004456D01*
X032794Y004406D01*
X032898Y004406D01*
X033103Y004201D01*
X033103Y003911D01*
X032898Y003706D01*
X032608Y003706D01*
X032403Y003911D01*
X032403Y004156D01*
X032196Y004156D01*
X032108Y004244D01*
X032108Y004769D01*
X032196Y004856D01*
X032660Y004856D01*
X032748Y004769D01*
X032748Y004669D02*
X033653Y004669D01*
X033653Y004570D02*
X032748Y004570D01*
X032748Y004471D02*
X033653Y004471D01*
X033653Y004373D02*
X032932Y004373D01*
X033030Y004274D02*
X033653Y004274D01*
X033665Y004176D02*
X033103Y004176D01*
X033103Y004077D02*
X033763Y004077D01*
X033862Y003979D02*
X033103Y003979D01*
X033072Y003880D02*
X033960Y003880D01*
X034220Y003782D02*
X032974Y003782D01*
X032934Y003683D02*
X037070Y003683D01*
X037053Y003782D02*
X034687Y003782D01*
X035196Y003880D02*
X037053Y003880D01*
X037053Y003979D02*
X035295Y003979D01*
X035393Y004077D02*
X037053Y004077D01*
X037065Y004176D02*
X035492Y004176D01*
X035591Y004274D02*
X037653Y004274D01*
X037653Y004373D02*
X035689Y004373D01*
X035703Y004471D02*
X037711Y004471D01*
X037682Y004570D02*
X035703Y004570D01*
X035703Y004669D02*
X037653Y004669D01*
X037653Y004767D02*
X035703Y004767D01*
X035703Y004866D02*
X037653Y004866D01*
X037653Y004964D02*
X035703Y004964D01*
X035703Y005260D02*
X038574Y005260D01*
X038703Y005106D02*
X038403Y004806D01*
X038053Y004806D01*
X038003Y004856D01*
X038003Y004831D01*
X037741Y005151D02*
X037653Y005063D01*
X037741Y005151D02*
X038266Y005151D01*
X038353Y005063D01*
X038703Y005106D02*
X038753Y005106D01*
X038709Y004077D02*
X038353Y004077D01*
X038353Y003979D02*
X038679Y003979D01*
X038603Y004056D02*
X038403Y003856D01*
X038053Y003856D01*
X038003Y003706D01*
X038003Y003356D01*
X038053Y003206D01*
X038441Y003206D01*
X038453Y003556D02*
X038441Y003568D01*
X038441Y003580D01*
X038055Y003585D02*
X038003Y003585D01*
X038003Y003683D02*
X038055Y003683D01*
X038086Y003782D02*
X038003Y003782D01*
X037803Y003656D02*
X037503Y003956D01*
X037479Y003932D01*
X037403Y003932D01*
X037803Y003656D02*
X037803Y003056D01*
X038027Y002832D01*
X038441Y002832D01*
X038153Y002556D02*
X038103Y002556D01*
X037003Y002895D02*
X036998Y002895D01*
X037033Y002993D02*
X036899Y002993D01*
X036801Y003092D02*
X037603Y003092D01*
X037603Y003190D02*
X036702Y003190D01*
X036471Y002856D02*
X036853Y002474D01*
X036921Y002406D01*
X035286Y002406D01*
X035736Y002856D01*
X036471Y002856D01*
X036531Y002796D02*
X035676Y002796D01*
X035577Y002698D02*
X036629Y002698D01*
X036728Y002599D02*
X035479Y002599D01*
X035380Y002501D02*
X036826Y002501D01*
X035307Y002993D02*
X032999Y002993D01*
X032999Y002895D02*
X035209Y002895D01*
X035110Y002796D02*
X032999Y002796D01*
X032999Y002698D02*
X035012Y002698D01*
X035406Y003092D02*
X032996Y003092D01*
X032999Y003190D02*
X035505Y003190D01*
X037603Y003289D02*
X032999Y003289D01*
X032533Y003782D02*
X032411Y003782D01*
X032435Y003880D02*
X032386Y003880D01*
X032386Y003979D02*
X032403Y003979D01*
X032403Y004077D02*
X032375Y004077D01*
X032176Y004176D02*
X032030Y004176D01*
X032099Y004274D02*
X032108Y004274D01*
X032108Y004373D02*
X032099Y004373D01*
X032108Y004471D02*
X032099Y004471D01*
X032108Y004570D02*
X032099Y004570D01*
X032108Y004669D02*
X032099Y004669D01*
X032108Y004767D02*
X032099Y004767D01*
X031779Y004506D02*
X031753Y004506D01*
X031653Y004406D01*
X031353Y004406D01*
X031303Y004356D01*
X031379Y004280D01*
X031379Y003768D01*
X031121Y003782D02*
X030513Y003782D01*
X030513Y003880D02*
X031121Y003880D01*
X031121Y003979D02*
X030513Y003979D01*
X030512Y004077D02*
X030926Y004077D01*
X030903Y004176D02*
X030441Y004176D01*
X030342Y004274D02*
X030903Y004274D01*
X030903Y004373D02*
X030333Y004373D01*
X030333Y004471D02*
X030903Y004471D01*
X030909Y004570D02*
X030260Y004570D01*
X030161Y004669D02*
X031459Y004669D01*
X031459Y004767D02*
X030063Y004767D01*
X031253Y004332D02*
X031279Y004332D01*
X031303Y004356D01*
X031253Y004306D01*
X031253Y004332D01*
X031627Y004077D02*
X031880Y004077D01*
X031869Y003979D02*
X031638Y003979D01*
X031638Y003880D02*
X031869Y003880D01*
X031869Y003782D02*
X031638Y003782D01*
X031638Y003683D02*
X031869Y003683D01*
X031869Y003585D02*
X031638Y003585D01*
X032103Y003806D02*
X032127Y003782D01*
X032753Y004056D02*
X032753Y004156D01*
X032428Y004506D01*
X031121Y003683D02*
X030487Y003683D01*
X030389Y003585D02*
X031121Y003585D01*
X030850Y003486D02*
X030290Y003486D01*
X030712Y003289D02*
X025543Y003289D01*
X025549Y003388D02*
X030781Y003388D01*
X029717Y003486D02*
X029491Y003486D01*
X030953Y002456D02*
X031241Y002745D01*
X031379Y002745D01*
X030953Y002456D02*
X023903Y002456D01*
X023053Y003306D01*
X023053Y004506D01*
X021903Y005656D01*
X022003Y005856D02*
X021203Y005856D01*
X021003Y006056D01*
X021003Y006356D01*
X020953Y006356D01*
X021027Y006423D01*
X020681Y006442D02*
X020626Y006442D01*
X020626Y006344D02*
X020681Y006344D01*
X020681Y006245D02*
X020626Y006245D01*
X020674Y006147D02*
X020681Y006147D01*
X020403Y005851D02*
X019653Y005851D01*
X019653Y005753D02*
X020493Y005753D01*
X020584Y005654D02*
X019653Y005654D01*
X019653Y005555D02*
X020672Y005555D01*
X020770Y005457D02*
X019653Y005457D01*
X020626Y006541D02*
X020681Y006541D01*
X020681Y006639D02*
X020626Y006639D01*
X020626Y006738D02*
X020681Y006738D01*
X020756Y006837D02*
X020551Y006837D01*
X020984Y006935D02*
X021093Y006935D01*
X021093Y007034D02*
X021000Y007034D01*
X021000Y007132D02*
X021093Y007132D01*
X021093Y007231D02*
X021000Y007231D01*
X021000Y007329D02*
X021093Y007329D01*
X021093Y007428D02*
X021000Y007428D01*
X021000Y007526D02*
X021093Y007526D01*
X021093Y007625D02*
X021000Y007625D01*
X021093Y007723D02*
X020853Y007723D01*
X020853Y007822D02*
X021093Y007822D01*
X021093Y007921D02*
X020853Y007921D01*
X020853Y008019D02*
X021093Y008019D01*
X021093Y008118D02*
X020853Y008118D01*
X020853Y008216D02*
X021093Y008216D01*
X021093Y008315D02*
X020853Y008315D01*
X020853Y008413D02*
X021093Y008413D01*
X021093Y008512D02*
X020853Y008512D01*
X020853Y008610D02*
X021093Y008610D01*
X021093Y008709D02*
X020853Y008709D01*
X020853Y008807D02*
X021093Y008807D01*
X021093Y008906D02*
X020853Y008906D01*
X020853Y009004D02*
X021093Y009004D01*
X021093Y009103D02*
X020853Y009103D01*
X020853Y009202D02*
X021093Y009202D01*
X021100Y009300D02*
X020853Y009300D01*
X020853Y009399D02*
X021103Y009399D01*
X021103Y009497D02*
X020853Y009497D01*
X020853Y009596D02*
X021103Y009596D01*
X021103Y009694D02*
X020853Y009694D01*
X020853Y009793D02*
X021103Y009793D01*
X021103Y009891D02*
X020853Y009891D01*
X020853Y009990D02*
X021103Y009990D01*
X021103Y010088D02*
X020853Y010088D01*
X020853Y010187D02*
X021103Y010187D01*
X021103Y010286D02*
X020853Y010286D01*
X020853Y010384D02*
X021103Y010384D01*
X021103Y010483D02*
X020853Y010483D01*
X020853Y010581D02*
X021103Y010581D01*
X021103Y010680D02*
X020853Y010680D01*
X020853Y010778D02*
X021103Y010778D01*
X021103Y010877D02*
X020853Y010877D01*
X020853Y010975D02*
X021103Y010975D01*
X021103Y011074D02*
X020853Y011074D01*
X020853Y011172D02*
X021103Y011172D01*
X021103Y011271D02*
X020901Y011271D01*
X020999Y011370D02*
X021103Y011370D01*
X021303Y011306D02*
X023403Y013406D01*
X028303Y013406D01*
X028303Y018006D01*
X029078Y018781D01*
X029203Y018681D01*
X029779Y018681D01*
X029803Y018756D01*
X029838Y018791D01*
X029853Y018691D01*
X030119Y018691D01*
X030519Y018291D01*
X030519Y018256D01*
X030172Y018268D02*
X028847Y018268D01*
X028749Y018169D02*
X030172Y018169D01*
X030172Y018070D02*
X028650Y018070D01*
X028552Y017972D02*
X030178Y017972D01*
X030212Y017775D02*
X028503Y017775D01*
X028503Y017873D02*
X031545Y017873D01*
X031495Y017775D02*
X031640Y017775D01*
X031734Y017676D02*
X031535Y017676D01*
X031535Y017578D02*
X031829Y017578D01*
X032078Y017606D02*
X032203Y017481D01*
X032578Y017481D01*
X032870Y017466D01*
X032870Y017151D02*
X032578Y017106D01*
X032203Y017106D01*
X031953Y017356D01*
X031328Y017356D01*
X031188Y017456D01*
X031266Y017036D02*
X031991Y017036D01*
X031871Y017156D01*
X031514Y017156D01*
X031447Y017090D01*
X030929Y017090D01*
X030853Y017166D01*
X030778Y017090D01*
X030570Y017090D01*
X030220Y016740D01*
X030220Y016563D01*
X030132Y016475D01*
X029575Y016475D01*
X029487Y016563D01*
X029487Y016633D01*
X029466Y016612D01*
X029153Y016612D01*
X029153Y014851D01*
X029208Y014906D01*
X029498Y014906D01*
X029648Y014756D01*
X030671Y014756D01*
X030836Y014756D01*
X031386Y014206D01*
X031671Y014206D01*
X031836Y014206D01*
X032086Y013956D01*
X032621Y013956D01*
X033047Y014383D01*
X032603Y014383D01*
X032603Y014291D01*
X032369Y014056D01*
X032038Y014056D01*
X031803Y014291D01*
X031803Y014406D01*
X031488Y014406D01*
X031253Y014641D01*
X031253Y014962D01*
X031098Y014806D01*
X030808Y014806D01*
X030603Y015011D01*
X030603Y015256D01*
X030458Y015256D01*
X030253Y015461D01*
X030253Y015751D01*
X030403Y015901D01*
X030403Y016339D01*
X030521Y016456D01*
X031100Y017036D01*
X031266Y017036D01*
X031183Y016836D02*
X030603Y016256D01*
X030603Y015606D01*
X030253Y015607D02*
X029153Y015607D01*
X029153Y015705D02*
X030253Y015705D01*
X030306Y015804D02*
X029153Y015804D01*
X029153Y015903D02*
X030403Y015903D01*
X030403Y016001D02*
X029153Y016001D01*
X029153Y016100D02*
X030403Y016100D01*
X030403Y016198D02*
X029153Y016198D01*
X029153Y016297D02*
X030403Y016297D01*
X030459Y016395D02*
X029153Y016395D01*
X029153Y016494D02*
X029556Y016494D01*
X029487Y016592D02*
X029153Y016592D01*
X029534Y017184D02*
X030098Y017184D01*
X030368Y016888D02*
X030952Y016888D01*
X030854Y016789D02*
X030269Y016789D01*
X030220Y016691D02*
X030755Y016691D01*
X030656Y016592D02*
X030220Y016592D01*
X030151Y016494D02*
X030558Y016494D01*
X030466Y016986D02*
X031051Y016986D01*
X031183Y016836D02*
X032870Y016836D01*
X032870Y016521D02*
X031418Y016521D01*
X030953Y016056D01*
X030953Y015156D01*
X030698Y014917D02*
X029153Y014917D01*
X029153Y015016D02*
X030603Y015016D01*
X030603Y015114D02*
X029153Y015114D01*
X029153Y015213D02*
X030603Y015213D01*
X030404Y015311D02*
X029153Y015311D01*
X029153Y015410D02*
X030305Y015410D01*
X030253Y015508D02*
X029153Y015508D01*
X028053Y015156D02*
X028053Y018256D01*
X028853Y019056D01*
X031253Y019056D01*
X032303Y018006D01*
X032203Y018106D01*
X032203Y018832D01*
X031853Y018859D02*
X031734Y018859D01*
X031832Y018760D02*
X031853Y018760D01*
X031853Y018739D02*
X031853Y019064D01*
X031941Y019152D01*
X032466Y019152D01*
X032553Y019064D01*
X032553Y018600D01*
X032466Y018512D01*
X032403Y018512D01*
X032403Y018189D01*
X032503Y018089D01*
X032563Y018030D01*
X033227Y018030D01*
X033315Y017942D01*
X033315Y017627D01*
X033315Y017312D01*
X033315Y016997D01*
X033315Y016682D01*
X033315Y016406D01*
X033508Y016406D01*
X033658Y016556D01*
X033948Y016556D01*
X034098Y016406D01*
X034186Y016406D01*
X034536Y016056D01*
X034871Y016056D01*
X035153Y016339D01*
X035268Y016454D01*
X035268Y017547D01*
X035103Y017711D01*
X035103Y018001D01*
X035227Y018125D01*
X035220Y018132D01*
X035220Y018847D01*
X035308Y018935D01*
X035629Y018935D01*
X035898Y018935D01*
X035898Y019034D01*
X037053Y020189D01*
X037053Y020412D01*
X037048Y020406D01*
X036758Y020406D01*
X036553Y020611D01*
X036553Y020826D01*
X032349Y020826D01*
X032333Y020811D01*
X032333Y019802D01*
X032334Y019801D01*
X032466Y019801D01*
X032553Y019713D01*
X032553Y019701D01*
X032708Y019856D01*
X032998Y019856D01*
X033203Y019651D01*
X033203Y019361D01*
X032998Y019156D01*
X032708Y019156D01*
X032584Y019281D01*
X032553Y019281D01*
X032553Y019249D01*
X032466Y019161D01*
X031941Y019161D01*
X031926Y019176D01*
X031416Y019176D01*
X031853Y018739D01*
X031853Y018957D02*
X031635Y018957D01*
X031537Y019056D02*
X031853Y019056D01*
X031438Y019154D02*
X034108Y019154D01*
X034108Y019056D02*
X032553Y019056D01*
X032553Y018957D02*
X034145Y018957D01*
X034167Y018935D02*
X034108Y018994D01*
X034108Y019383D01*
X033730Y019715D01*
X033685Y019696D01*
X033522Y019696D01*
X033371Y019759D01*
X033256Y019874D01*
X033193Y020025D01*
X033193Y020188D01*
X033256Y020339D01*
X033371Y020454D01*
X033522Y020516D01*
X033685Y020516D01*
X033836Y020454D01*
X033951Y020339D01*
X034013Y020188D01*
X034013Y020026D01*
X034490Y019606D01*
X034660Y019606D01*
X034678Y019588D01*
X034697Y019606D01*
X034802Y019606D01*
X035115Y019974D01*
X035093Y020025D01*
X035093Y020188D01*
X035156Y020339D01*
X035271Y020454D01*
X035422Y020516D01*
X035585Y020516D01*
X035736Y020454D01*
X035851Y020339D01*
X035913Y020188D01*
X035913Y020025D01*
X035851Y019874D01*
X035736Y019759D01*
X035585Y019696D01*
X035430Y019696D01*
X035249Y019484D01*
X035249Y018994D01*
X035161Y018906D01*
X035048Y018906D01*
X035048Y018886D01*
X035087Y018847D01*
X035087Y018132D01*
X034999Y018045D01*
X034810Y018045D01*
X034853Y018001D01*
X034853Y017711D01*
X034648Y017506D01*
X034358Y017506D01*
X034228Y017637D01*
X034098Y017506D01*
X033808Y017506D01*
X033603Y017711D01*
X033603Y018001D01*
X033647Y018045D01*
X033418Y018045D01*
X033330Y018132D01*
X033330Y018188D01*
X033298Y018156D01*
X033008Y018156D01*
X032803Y018361D01*
X032803Y018651D01*
X033008Y018856D01*
X033298Y018856D01*
X033330Y018825D01*
X033330Y018847D01*
X033418Y018935D01*
X033739Y018935D01*
X034054Y018935D01*
X034167Y018935D01*
X034108Y019253D02*
X033095Y019253D01*
X033193Y019352D02*
X034108Y019352D01*
X034032Y019450D02*
X033203Y019450D01*
X033203Y019549D02*
X033920Y019549D01*
X033808Y019647D02*
X033203Y019647D01*
X033109Y019746D02*
X033403Y019746D01*
X033286Y019844D02*
X033010Y019844D01*
X033227Y019943D02*
X032333Y019943D01*
X032333Y020041D02*
X033193Y020041D01*
X033193Y020140D02*
X032333Y020140D01*
X032333Y020238D02*
X033214Y020238D01*
X033255Y020337D02*
X032333Y020337D01*
X032333Y020436D02*
X033353Y020436D01*
X033854Y020436D02*
X035253Y020436D01*
X035155Y020337D02*
X033952Y020337D01*
X033992Y020238D02*
X035114Y020238D01*
X035093Y020140D02*
X034013Y020140D01*
X034013Y020041D02*
X035093Y020041D01*
X035088Y019943D02*
X034108Y019943D01*
X034220Y019844D02*
X035004Y019844D01*
X034920Y019746D02*
X034332Y019746D01*
X034444Y019647D02*
X034836Y019647D01*
X035249Y019450D02*
X036314Y019450D01*
X036216Y019352D02*
X035249Y019352D01*
X035249Y019253D02*
X036117Y019253D01*
X036019Y019154D02*
X035249Y019154D01*
X035249Y019056D02*
X035920Y019056D01*
X035898Y018957D02*
X035212Y018957D01*
X035231Y018859D02*
X035075Y018859D01*
X035153Y018856D02*
X035153Y018490D01*
X035087Y018465D02*
X035220Y018465D01*
X035220Y018563D02*
X035087Y018563D01*
X035087Y018662D02*
X035220Y018662D01*
X035220Y018760D02*
X035087Y018760D01*
X035087Y018366D02*
X035220Y018366D01*
X035220Y018268D02*
X035087Y018268D01*
X035087Y018169D02*
X035220Y018169D01*
X035172Y018070D02*
X035025Y018070D01*
X035103Y017972D02*
X034853Y017972D01*
X034853Y017873D02*
X035103Y017873D01*
X035103Y017775D02*
X034853Y017775D01*
X034818Y017676D02*
X035139Y017676D01*
X035237Y017578D02*
X034720Y017578D01*
X034503Y017856D02*
X034208Y018151D01*
X034208Y018490D01*
X033894Y018490D02*
X033894Y017766D01*
X033953Y017856D01*
X033603Y017873D02*
X033315Y017873D01*
X033315Y017775D02*
X033603Y017775D01*
X033639Y017676D02*
X033315Y017676D01*
X033315Y017578D02*
X033737Y017578D01*
X033603Y017972D02*
X033285Y017972D01*
X033392Y018070D02*
X032522Y018070D01*
X032503Y018089D02*
X032503Y018089D01*
X032424Y018169D02*
X032996Y018169D01*
X032897Y018268D02*
X032403Y018268D01*
X032403Y018366D02*
X032803Y018366D01*
X032803Y018465D02*
X032403Y018465D01*
X032517Y018563D02*
X032803Y018563D01*
X032814Y018662D02*
X032553Y018662D01*
X032553Y018760D02*
X032912Y018760D01*
X033153Y018506D02*
X033270Y018490D01*
X033537Y018490D01*
X033553Y018506D01*
X033579Y018490D01*
X033330Y018169D02*
X033311Y018169D01*
X032870Y017781D02*
X032529Y017781D01*
X032303Y018006D01*
X032078Y017606D02*
X031478Y018231D01*
X031328Y018231D01*
X031188Y018256D01*
X030881Y017775D02*
X030826Y017775D01*
X030172Y017676D02*
X028503Y017676D01*
X028503Y017578D02*
X030172Y017578D01*
X030565Y017085D02*
X031942Y017085D01*
X031501Y016321D02*
X032425Y016321D01*
X032425Y016046D01*
X032512Y015958D01*
X033227Y015958D01*
X033276Y016006D01*
X033508Y016006D01*
X033658Y015856D01*
X033948Y015856D01*
X034059Y015968D01*
X034253Y015774D01*
X034371Y015656D01*
X034871Y015656D01*
X035036Y015656D01*
X035328Y015949D01*
X035586Y015691D01*
X035751Y015691D01*
X036403Y015691D01*
X036403Y015561D01*
X036608Y015356D01*
X036898Y015356D01*
X036992Y015450D01*
X036992Y015416D01*
X036992Y015101D01*
X036992Y014786D01*
X036992Y014471D01*
X037079Y014383D01*
X037794Y014383D01*
X037843Y014432D01*
X038283Y014432D01*
X038358Y014356D01*
X038648Y014356D01*
X038772Y014481D01*
X038847Y014406D01*
X039311Y014406D01*
X039399Y014494D01*
X039399Y014994D01*
X039399Y015494D01*
X039399Y015769D01*
X039586Y015956D01*
X039909Y015956D01*
X039909Y015494D01*
X039997Y015406D01*
X040353Y015406D01*
X040353Y015374D01*
X040471Y015256D01*
X041421Y014306D01*
X041586Y014306D01*
X042321Y014306D01*
X043053Y013574D01*
X043053Y013539D01*
X043053Y013374D01*
X043121Y013306D01*
X040098Y013306D01*
X040103Y013311D01*
X040103Y013601D01*
X039953Y013751D01*
X039953Y014406D01*
X039960Y014406D01*
X040048Y014494D01*
X040048Y015019D01*
X039960Y015106D01*
X039496Y015106D01*
X039408Y015019D01*
X039408Y014494D01*
X039496Y014406D01*
X039553Y014406D01*
X039553Y013751D01*
X039403Y013601D01*
X039403Y013311D01*
X039409Y013306D01*
X038686Y013306D01*
X038521Y013306D01*
X038320Y013106D01*
X038320Y013531D01*
X038232Y013619D01*
X037675Y013619D01*
X037612Y013556D01*
X037566Y013602D01*
X037191Y013602D01*
X037029Y013764D01*
X037029Y013914D01*
X036977Y013966D01*
X036977Y014280D01*
X036889Y014368D01*
X036874Y014368D01*
X036786Y014456D01*
X036786Y014456D01*
X036053Y015189D01*
X036053Y015189D01*
X035936Y015306D01*
X034036Y015306D01*
X033871Y015306D01*
X033421Y014856D01*
X033315Y014751D01*
X033315Y014792D01*
X033315Y015107D01*
X033315Y015422D01*
X033315Y015737D01*
X033227Y015825D01*
X032512Y015825D01*
X032464Y015776D01*
X032416Y015776D01*
X032353Y015839D01*
X032353Y016001D01*
X032469Y016001D01*
X032425Y016100D02*
X032255Y016100D01*
X032157Y016198D02*
X032425Y016198D01*
X032425Y016297D02*
X031476Y016297D01*
X031501Y016321D02*
X031153Y015974D01*
X031153Y015451D01*
X031303Y015301D01*
X031303Y015022D01*
X031488Y015206D01*
X031653Y015206D01*
X031653Y015451D01*
X031783Y015581D01*
X031653Y015711D01*
X031653Y016001D01*
X031181Y016001D01*
X031153Y015903D02*
X031653Y015903D01*
X031653Y016001D02*
X031858Y016206D01*
X032148Y016206D01*
X032353Y016001D01*
X032353Y015903D02*
X033612Y015903D01*
X033514Y016001D02*
X033270Y016001D01*
X033248Y015804D02*
X034223Y015804D01*
X034125Y015903D02*
X033994Y015903D01*
X034103Y016206D02*
X034453Y015856D01*
X034953Y015856D01*
X035353Y016256D01*
X035353Y016206D01*
X035668Y015891D01*
X036853Y015891D01*
X036853Y015806D01*
X036753Y015706D01*
X036853Y015891D02*
X037437Y015891D01*
X037703Y015856D01*
X038153Y015856D01*
X038303Y016006D01*
X038603Y016006D01*
X038753Y016156D01*
X039103Y016156D01*
X039553Y016606D01*
X041003Y016606D01*
X041353Y016256D01*
X044503Y016256D01*
X045303Y015456D01*
X045487Y015640D01*
X046155Y015640D01*
X046155Y015384D02*
X046431Y015384D01*
X046503Y015456D01*
X046503Y016556D01*
X046353Y016706D01*
X042803Y016706D01*
X042453Y017056D01*
X042453Y017206D01*
X042503Y017256D01*
X042503Y017456D01*
X042679Y017632D01*
X042679Y017706D01*
X042999Y017676D02*
X043008Y017676D01*
X043008Y017578D02*
X042999Y017578D01*
X043008Y017479D02*
X042999Y017479D01*
X042999Y017444D02*
X042911Y017356D01*
X042703Y017356D01*
X042703Y017301D01*
X042803Y017201D01*
X042803Y016989D01*
X042886Y016906D01*
X042959Y016906D01*
X042953Y016911D01*
X042953Y017201D01*
X043109Y017356D01*
X043096Y017356D01*
X043008Y017444D01*
X043008Y017969D01*
X043033Y017994D01*
X043003Y018024D01*
X043003Y018374D01*
X043003Y018539D01*
X043103Y018639D01*
X043103Y019374D01*
X042903Y019174D01*
X042786Y019056D01*
X042298Y019056D01*
X043103Y019056D01*
X043103Y019154D02*
X042884Y019154D01*
X042983Y019253D02*
X043103Y019253D01*
X043103Y019352D02*
X043081Y019352D01*
X042953Y019506D02*
X042703Y019256D01*
X042103Y019256D01*
X042053Y019306D01*
X041809Y019056D02*
X040461Y019056D01*
X040423Y019094D02*
X040499Y019019D01*
X040499Y018556D01*
X041858Y018556D01*
X041908Y018606D01*
X042198Y018606D01*
X042403Y018401D01*
X042403Y018111D01*
X042198Y017906D01*
X042148Y017906D01*
X042203Y017851D01*
X042203Y017561D01*
X041998Y017356D01*
X042128Y017226D01*
X042303Y017401D01*
X042303Y017539D01*
X042359Y017595D01*
X042359Y017969D01*
X042447Y018056D01*
X042911Y018056D01*
X042999Y017969D01*
X042999Y017444D01*
X042935Y017381D02*
X043072Y017381D01*
X043034Y017282D02*
X042723Y017282D01*
X042803Y017184D02*
X042953Y017184D01*
X042953Y017085D02*
X042803Y017085D01*
X042806Y016986D02*
X042953Y016986D01*
X043303Y017056D02*
X043703Y017456D01*
X045253Y017456D01*
X045903Y018106D01*
X047053Y018106D01*
X047703Y018756D01*
X047703Y019256D01*
X047453Y019012D02*
X047348Y018906D01*
X047058Y018906D01*
X046853Y019111D01*
X046853Y019401D01*
X047003Y019551D01*
X047003Y019612D01*
X046941Y019612D01*
X046853Y019700D01*
X046853Y020056D01*
X044786Y020056D01*
X045486Y019356D01*
X045608Y019356D01*
X045758Y019506D01*
X046048Y019506D01*
X046253Y019301D01*
X046253Y019011D01*
X046048Y018806D01*
X045758Y018806D01*
X045608Y018956D01*
X045486Y018956D01*
X045321Y018956D01*
X044421Y019856D01*
X043648Y019856D01*
X043653Y019851D01*
X043653Y019561D01*
X043503Y019411D01*
X043503Y018639D01*
X043503Y018474D01*
X043403Y018374D01*
X043403Y018189D01*
X043511Y018082D01*
X043561Y018082D01*
X043834Y018082D01*
X043933Y018181D01*
X043753Y018361D01*
X043753Y018651D01*
X043958Y018856D01*
X044248Y018856D01*
X044322Y018782D01*
X044391Y018851D01*
X044916Y018851D01*
X045003Y018763D01*
X045003Y018299D01*
X044916Y018211D01*
X044391Y018211D01*
X044347Y018255D01*
X044273Y018181D01*
X044322Y018133D01*
X044391Y018202D01*
X044916Y018202D01*
X045003Y018114D01*
X045003Y017656D01*
X045171Y017656D01*
X045703Y018189D01*
X045821Y018306D01*
X046971Y018306D01*
X047503Y018839D01*
X047503Y018961D01*
X047453Y019012D01*
X047503Y018957D02*
X047399Y018957D01*
X047503Y018859D02*
X046101Y018859D01*
X046199Y018957D02*
X047008Y018957D01*
X046909Y019056D02*
X046253Y019056D01*
X046253Y019154D02*
X046853Y019154D01*
X046853Y019253D02*
X046253Y019253D01*
X046203Y019352D02*
X046853Y019352D01*
X046902Y019450D02*
X046105Y019450D01*
X045903Y019156D02*
X045403Y019156D01*
X044503Y020056D01*
X043103Y020056D01*
X042953Y019906D01*
X042953Y019506D01*
X043303Y019706D02*
X043303Y018556D01*
X043203Y018456D01*
X043203Y018106D01*
X043428Y017881D01*
X043353Y017781D01*
X043353Y017706D01*
X043328Y017706D01*
X043428Y017881D02*
X043478Y017882D01*
X044653Y017882D01*
X044129Y017882D01*
X044103Y017856D01*
X043921Y018169D02*
X043424Y018169D01*
X043403Y018268D02*
X043847Y018268D01*
X043753Y018366D02*
X043403Y018366D01*
X043494Y018465D02*
X043753Y018465D01*
X043753Y018563D02*
X043503Y018563D01*
X043503Y018662D02*
X043764Y018662D01*
X043862Y018760D02*
X043503Y018760D01*
X043503Y018859D02*
X045706Y018859D01*
X045320Y018957D02*
X043503Y018957D01*
X043503Y019056D02*
X045221Y019056D01*
X045123Y019154D02*
X043503Y019154D01*
X043503Y019253D02*
X045024Y019253D01*
X044925Y019352D02*
X043503Y019352D01*
X043542Y019450D02*
X044827Y019450D01*
X044728Y019549D02*
X043640Y019549D01*
X043653Y019647D02*
X044630Y019647D01*
X044531Y019746D02*
X043653Y019746D01*
X043653Y019844D02*
X044433Y019844D01*
X044801Y020041D02*
X046853Y020041D01*
X046853Y019943D02*
X044900Y019943D01*
X044998Y019844D02*
X046853Y019844D01*
X046853Y019746D02*
X045097Y019746D01*
X045195Y019647D02*
X046906Y019647D01*
X047001Y019549D02*
X045294Y019549D01*
X045392Y019450D02*
X045702Y019450D01*
X045003Y018760D02*
X047424Y018760D01*
X047326Y018662D02*
X045003Y018662D01*
X045003Y018563D02*
X047227Y018563D01*
X047129Y018465D02*
X045003Y018465D01*
X045003Y018366D02*
X047030Y018366D01*
X047753Y017856D02*
X048703Y018806D01*
X048703Y019256D01*
X048453Y019501D02*
X048558Y019606D01*
X048848Y019606D01*
X049053Y019401D01*
X049053Y019111D01*
X048903Y018961D01*
X048903Y018724D01*
X048786Y018606D01*
X047836Y017656D01*
X047671Y017656D01*
X046036Y017656D01*
X045286Y016906D01*
X046109Y016906D01*
X046003Y017011D01*
X046003Y017301D01*
X046208Y017506D01*
X046498Y017506D01*
X046703Y017301D01*
X046703Y017089D01*
X046903Y016889D01*
X046903Y016724D01*
X046903Y015124D01*
X046786Y015006D01*
X046452Y014673D01*
X046422Y014673D01*
X046412Y014663D01*
X045897Y014663D01*
X045853Y014707D01*
X045853Y014574D01*
X045853Y014556D01*
X045883Y014556D01*
X045897Y014571D01*
X046412Y014571D01*
X046422Y014561D01*
X047604Y014561D01*
X047553Y014611D01*
X047553Y014901D01*
X047758Y015106D01*
X048048Y015106D01*
X048107Y015048D01*
X048107Y015251D01*
X048113Y015256D01*
X048107Y015262D01*
X048107Y015440D01*
X048032Y015440D01*
X047998Y015406D01*
X047708Y015406D01*
X047503Y015611D01*
X047503Y015901D01*
X047708Y016106D01*
X047998Y016106D01*
X048107Y015998D01*
X048107Y016018D01*
X048113Y016024D01*
X048107Y016030D01*
X048107Y016274D01*
X048113Y016280D01*
X048107Y016286D01*
X048107Y016530D01*
X048195Y016618D01*
X048709Y016618D01*
X048797Y016530D01*
X048797Y016286D01*
X048791Y016280D01*
X048797Y016274D01*
X048797Y016030D01*
X048791Y016024D01*
X048797Y016018D01*
X048797Y015856D01*
X049261Y015856D01*
X049349Y015769D01*
X049349Y015435D01*
X049358Y015444D01*
X049358Y015769D01*
X049446Y015856D01*
X049910Y015856D01*
X049998Y015769D01*
X049998Y015244D01*
X049910Y015156D01*
X049636Y015156D01*
X049586Y015106D01*
X049910Y015106D01*
X049998Y015019D01*
X049998Y014494D01*
X049910Y014406D01*
X049636Y014406D01*
X049391Y014161D01*
X049225Y014161D01*
X048719Y014161D01*
X048709Y014151D01*
X048253Y014151D01*
X048253Y014061D01*
X048048Y013856D01*
X047758Y013856D01*
X047553Y014061D01*
X047553Y014161D01*
X046500Y014161D01*
X046500Y013983D01*
X046412Y013895D01*
X045897Y013895D01*
X045886Y013906D01*
X045736Y013906D01*
X045686Y013906D01*
X045303Y013524D01*
X045303Y013311D01*
X045098Y013106D01*
X044808Y013106D01*
X044603Y013311D01*
X044603Y013601D01*
X044808Y013806D01*
X045021Y013806D01*
X045403Y014189D01*
X045453Y014239D01*
X045453Y014274D01*
X045453Y014410D01*
X045159Y014410D01*
X045071Y014497D01*
X045071Y014906D01*
X045053Y014924D01*
X045053Y015089D01*
X045053Y015324D01*
X045053Y015424D01*
X044421Y016056D01*
X041436Y016056D01*
X041271Y016056D01*
X041053Y016274D01*
X041053Y016111D01*
X041048Y016106D01*
X041110Y016106D01*
X041198Y016019D01*
X041198Y015956D01*
X041371Y015956D01*
X041536Y015956D01*
X043636Y013856D01*
X043848Y013856D01*
X044053Y013651D01*
X044053Y013361D01*
X043848Y013156D01*
X043836Y013156D01*
X043886Y013106D01*
X044571Y013106D01*
X045971Y013106D01*
X046003Y013139D01*
X046121Y013256D01*
X047771Y013256D01*
X049471Y013256D01*
X049636Y013256D01*
X050053Y012839D01*
X050053Y012674D01*
X050053Y006624D01*
X049936Y006506D01*
X049933Y006503D01*
X050024Y006503D01*
X050053Y006474D01*
X050053Y021156D01*
X043186Y021156D01*
X043686Y020656D01*
X046771Y020656D01*
X046853Y020739D01*
X046853Y020813D01*
X046941Y020901D01*
X047466Y020901D01*
X047553Y020813D01*
X047553Y020456D01*
X047671Y020456D01*
X047853Y020639D01*
X047853Y020813D01*
X047941Y020901D01*
X048466Y020901D01*
X048553Y020813D01*
X048553Y020349D01*
X048466Y020261D01*
X048041Y020261D01*
X048031Y020252D01*
X048466Y020252D01*
X048553Y020164D01*
X048553Y019700D01*
X048466Y019612D01*
X048403Y019612D01*
X048403Y019551D01*
X048453Y019501D01*
X048501Y019549D02*
X048406Y019549D01*
X048501Y019647D02*
X050053Y019647D01*
X050053Y019549D02*
X048906Y019549D01*
X049005Y019450D02*
X050053Y019450D01*
X050053Y019352D02*
X049053Y019352D01*
X049053Y019253D02*
X050053Y019253D01*
X050053Y019154D02*
X049053Y019154D01*
X048998Y019056D02*
X050053Y019056D01*
X050053Y018957D02*
X048903Y018957D01*
X048903Y018859D02*
X050053Y018859D01*
X050053Y018760D02*
X048903Y018760D01*
X048841Y018662D02*
X050053Y018662D01*
X050053Y018563D02*
X048743Y018563D01*
X048644Y018465D02*
X050053Y018465D01*
X050053Y018366D02*
X048546Y018366D01*
X048447Y018268D02*
X050053Y018268D01*
X050053Y018169D02*
X048349Y018169D01*
X048250Y018070D02*
X050053Y018070D01*
X050053Y017972D02*
X048152Y017972D01*
X048053Y017873D02*
X050053Y017873D01*
X050053Y017775D02*
X047955Y017775D01*
X047856Y017676D02*
X050053Y017676D01*
X050053Y017578D02*
X045957Y017578D01*
X045859Y017479D02*
X046181Y017479D01*
X046083Y017381D02*
X045760Y017381D01*
X045662Y017282D02*
X046003Y017282D01*
X046003Y017184D02*
X045563Y017184D01*
X045465Y017085D02*
X046003Y017085D01*
X046028Y016986D02*
X045366Y016986D01*
X045153Y017056D02*
X045953Y017856D01*
X047753Y017856D01*
X046703Y017282D02*
X050053Y017282D01*
X050053Y017184D02*
X046703Y017184D01*
X046708Y017085D02*
X050053Y017085D01*
X050053Y016986D02*
X046806Y016986D01*
X046903Y016888D02*
X050053Y016888D01*
X050053Y016789D02*
X046903Y016789D01*
X046903Y016691D02*
X050053Y016691D01*
X050053Y016592D02*
X048735Y016592D01*
X048797Y016494D02*
X050053Y016494D01*
X050053Y016395D02*
X048797Y016395D01*
X048797Y016297D02*
X050053Y016297D01*
X050053Y016198D02*
X048797Y016198D01*
X048797Y016100D02*
X050053Y016100D01*
X050053Y016001D02*
X048797Y016001D01*
X048797Y015903D02*
X050053Y015903D01*
X050053Y015804D02*
X049963Y015804D01*
X049998Y015705D02*
X050053Y015705D01*
X050053Y015607D02*
X049998Y015607D01*
X049998Y015508D02*
X050053Y015508D01*
X050053Y015410D02*
X049998Y015410D01*
X049998Y015311D02*
X050053Y015311D01*
X050053Y015213D02*
X049966Y015213D01*
X050053Y015114D02*
X049594Y015114D01*
X049325Y015129D02*
X049678Y015481D01*
X049678Y015506D01*
X049358Y015508D02*
X049349Y015508D01*
X049358Y015607D02*
X049349Y015607D01*
X049358Y015705D02*
X049349Y015705D01*
X049313Y015804D02*
X049393Y015804D01*
X049053Y015506D02*
X048931Y015384D01*
X048452Y015384D01*
X048452Y015129D02*
X049325Y015129D01*
X049053Y014756D02*
X048937Y014873D01*
X048452Y014873D01*
X048452Y014617D02*
X048043Y014617D01*
X047903Y014756D01*
X047668Y015016D02*
X046795Y015016D01*
X046697Y014917D02*
X047569Y014917D01*
X047553Y014819D02*
X046598Y014819D01*
X046500Y014720D02*
X047553Y014720D01*
X047553Y014621D02*
X045853Y014621D01*
X045653Y014656D02*
X045653Y014356D01*
X045653Y014106D01*
X045603Y014106D01*
X044953Y013456D01*
X044603Y013439D02*
X044053Y013439D01*
X044053Y013537D02*
X044603Y013537D01*
X044638Y013636D02*
X044053Y013636D01*
X043970Y013735D02*
X044737Y013735D01*
X045047Y013833D02*
X043872Y013833D01*
X043561Y013932D02*
X045146Y013932D01*
X045244Y014030D02*
X043462Y014030D01*
X043364Y014129D02*
X045343Y014129D01*
X045441Y014227D02*
X043265Y014227D01*
X043167Y014326D02*
X045453Y014326D01*
X045653Y014356D02*
X046153Y014356D01*
X046155Y014358D01*
X046155Y014361D01*
X047749Y014361D01*
X047903Y014206D01*
X048005Y014105D01*
X048124Y013932D02*
X050053Y013932D01*
X050053Y014030D02*
X048222Y014030D01*
X048253Y014129D02*
X050053Y014129D01*
X050053Y014227D02*
X049457Y014227D01*
X049556Y014326D02*
X050053Y014326D01*
X050053Y014424D02*
X049928Y014424D01*
X049998Y014523D02*
X050053Y014523D01*
X050053Y014621D02*
X049998Y014621D01*
X049998Y014720D02*
X050053Y014720D01*
X050053Y014819D02*
X049998Y014819D01*
X049998Y014917D02*
X050053Y014917D01*
X050053Y015016D02*
X049998Y015016D01*
X049753Y014806D02*
X049703Y014756D01*
X049308Y014361D01*
X048452Y014361D01*
X048452Y014105D02*
X048305Y014105D01*
X048353Y014056D01*
X048305Y014105D02*
X048303Y014106D01*
X047683Y013932D02*
X046449Y013932D01*
X046500Y014030D02*
X047585Y014030D01*
X047553Y014129D02*
X046500Y014129D01*
X046203Y014106D02*
X046202Y014105D01*
X046203Y014106D02*
X046153Y014106D01*
X046155Y014105D01*
X046155Y014105D01*
X046153Y014106D02*
X045653Y014106D01*
X045613Y013833D02*
X050053Y013833D01*
X050053Y013735D02*
X045514Y013735D01*
X045416Y013636D02*
X050053Y013636D01*
X050053Y013537D02*
X045317Y013537D01*
X045303Y013439D02*
X050053Y013439D01*
X050053Y013340D02*
X045303Y013340D01*
X045234Y013242D02*
X046106Y013242D01*
X046007Y013143D02*
X045135Y013143D01*
X044772Y013143D02*
X043849Y013143D01*
X043934Y013242D02*
X044673Y013242D01*
X044603Y013340D02*
X044032Y013340D01*
X043703Y013506D02*
X041453Y015756D01*
X040878Y015756D01*
X041198Y016001D02*
X044476Y016001D01*
X044575Y015903D02*
X041590Y015903D01*
X041689Y015804D02*
X044673Y015804D01*
X044772Y015705D02*
X041787Y015705D01*
X041886Y015607D02*
X044870Y015607D01*
X044969Y015508D02*
X041984Y015508D01*
X042083Y015410D02*
X045053Y015410D01*
X045053Y015311D02*
X042181Y015311D01*
X042280Y015213D02*
X045053Y015213D01*
X045053Y015114D02*
X042378Y015114D01*
X042477Y015016D02*
X045053Y015016D01*
X045060Y014917D02*
X042576Y014917D01*
X042674Y014819D02*
X045071Y014819D01*
X045071Y014720D02*
X042773Y014720D01*
X042871Y014621D02*
X045071Y014621D01*
X045071Y014523D02*
X042970Y014523D01*
X043068Y014424D02*
X045145Y014424D01*
X045438Y014756D02*
X045438Y014791D01*
X045453Y014806D01*
X045253Y015006D01*
X045253Y015406D01*
X045303Y015456D01*
X045653Y015256D02*
X045881Y015129D01*
X046155Y015129D01*
X046155Y014873D02*
X046369Y014873D01*
X046703Y015206D01*
X046703Y016806D01*
X046353Y017156D01*
X046624Y017381D02*
X050053Y017381D01*
X050053Y017479D02*
X046526Y017479D01*
X045486Y017972D02*
X045003Y017972D01*
X045003Y018070D02*
X045585Y018070D01*
X045683Y018169D02*
X044948Y018169D01*
X044972Y018268D02*
X045782Y018268D01*
X045388Y017873D02*
X045003Y017873D01*
X045003Y017775D02*
X045289Y017775D01*
X045190Y017676D02*
X045003Y017676D01*
X045153Y017056D02*
X043803Y017056D01*
X044553Y016506D02*
X044903Y016156D01*
X044953Y016156D01*
X044953Y016206D01*
X045103Y016356D01*
X044903Y016156D02*
X045164Y015896D01*
X046155Y015896D01*
X046303Y016106D02*
X046303Y016198D01*
X045897Y016198D01*
X045440Y016198D01*
X045453Y016211D02*
X045338Y016096D01*
X045887Y016096D01*
X045897Y016106D01*
X046303Y016106D01*
X045891Y016100D02*
X045341Y016100D01*
X045453Y016211D02*
X045453Y016501D01*
X045448Y016506D01*
X045810Y016506D01*
X045810Y016286D01*
X045897Y016198D01*
X045810Y016297D02*
X045453Y016297D01*
X045453Y016395D02*
X045810Y016395D01*
X045810Y016494D02*
X045453Y016494D01*
X044553Y016506D02*
X042353Y016506D01*
X041853Y017006D01*
X041503Y016986D02*
X040816Y016986D01*
X040718Y016888D02*
X041503Y016888D01*
X041503Y016861D02*
X041503Y017151D01*
X041708Y017356D01*
X041998Y017356D01*
X041708Y017356D01*
X041558Y017506D01*
X041336Y017506D01*
X040636Y016806D01*
X041086Y016806D01*
X041203Y016689D01*
X041436Y016456D01*
X042121Y016456D01*
X041921Y016656D01*
X041708Y016656D01*
X041503Y016861D01*
X041575Y016789D02*
X041103Y016789D01*
X041202Y016691D02*
X041674Y016691D01*
X041985Y016592D02*
X041300Y016592D01*
X041399Y016494D02*
X042083Y016494D01*
X041503Y017085D02*
X040915Y017085D01*
X041013Y017184D02*
X041536Y017184D01*
X041634Y017282D02*
X041112Y017282D01*
X041210Y017381D02*
X041684Y017381D01*
X041586Y017479D02*
X041309Y017479D01*
X041253Y017706D02*
X041853Y017706D01*
X042121Y017479D02*
X042303Y017479D01*
X042283Y017381D02*
X042023Y017381D01*
X042073Y017282D02*
X042184Y017282D01*
X042203Y017578D02*
X042342Y017578D01*
X042359Y017676D02*
X042203Y017676D01*
X042203Y017775D02*
X042359Y017775D01*
X042359Y017873D02*
X042181Y017873D01*
X042264Y017972D02*
X042362Y017972D01*
X042362Y018070D02*
X043003Y018070D01*
X043011Y017972D02*
X042995Y017972D01*
X043008Y017873D02*
X042999Y017873D01*
X043008Y017775D02*
X042999Y017775D01*
X043003Y018169D02*
X042403Y018169D01*
X042403Y018268D02*
X043003Y018268D01*
X043003Y018366D02*
X042403Y018366D01*
X042340Y018465D02*
X043003Y018465D01*
X043027Y018563D02*
X042242Y018563D01*
X041953Y018356D02*
X039853Y018356D01*
X039278Y017781D01*
X037437Y017781D01*
X037882Y017581D02*
X037882Y017442D01*
X037897Y017456D01*
X038361Y017456D01*
X038449Y017369D01*
X038449Y016844D01*
X038436Y016831D01*
X038449Y016819D01*
X038449Y016294D01*
X038361Y016206D01*
X037897Y016206D01*
X037812Y016291D01*
X037794Y016273D01*
X037079Y016273D01*
X036992Y016361D01*
X036992Y016600D01*
X036798Y016406D01*
X036508Y016406D01*
X036303Y016611D01*
X036303Y016724D01*
X036292Y016712D01*
X036303Y016701D01*
X036303Y016411D01*
X036098Y016206D01*
X035808Y016206D01*
X035668Y016347D01*
X035668Y016289D01*
X035611Y016231D01*
X035751Y016091D01*
X036771Y016091D01*
X036936Y016091D01*
X037031Y016091D01*
X037079Y016140D01*
X037794Y016140D01*
X037878Y016056D01*
X038071Y016056D01*
X038103Y016089D01*
X038221Y016206D01*
X038521Y016206D01*
X038533Y016219D01*
X038458Y016294D01*
X038458Y016819D01*
X038471Y016831D01*
X038458Y016844D01*
X038458Y017369D01*
X038546Y017456D01*
X039010Y017456D01*
X039098Y017369D01*
X039098Y017334D01*
X039345Y017581D01*
X039195Y017581D01*
X037882Y017581D01*
X037882Y017578D02*
X039342Y017578D01*
X039243Y017479D02*
X037882Y017479D01*
X038079Y017082D02*
X038003Y017006D01*
X037953Y017006D01*
X037783Y016836D01*
X037437Y016836D01*
X037503Y016556D02*
X038129Y016556D01*
X038449Y016592D02*
X038458Y016592D01*
X038458Y016494D02*
X038449Y016494D01*
X038458Y016395D02*
X038449Y016395D01*
X038458Y016297D02*
X038449Y016297D01*
X038212Y016198D02*
X035644Y016198D01*
X035668Y016297D02*
X035718Y016297D01*
X035743Y016100D02*
X037039Y016100D01*
X037056Y016297D02*
X036189Y016297D01*
X036287Y016395D02*
X036992Y016395D01*
X036992Y016494D02*
X036886Y016494D01*
X036984Y016592D02*
X036992Y016592D01*
X036653Y016756D02*
X036653Y016806D01*
X036998Y017151D01*
X037437Y017151D01*
X037437Y017466D02*
X036753Y017466D01*
X036753Y017456D01*
X035953Y016656D01*
X035953Y016556D01*
X036303Y016592D02*
X036323Y016592D01*
X036303Y016494D02*
X036421Y016494D01*
X036303Y016691D02*
X036303Y016691D01*
X035468Y016371D02*
X035353Y016256D01*
X035468Y016371D02*
X035468Y018490D01*
X035468Y018441D01*
X035503Y018406D01*
X035453Y018356D01*
X035453Y017856D01*
X035783Y018077D02*
X035953Y017906D01*
X036853Y017906D01*
X037253Y018306D01*
X037270Y018506D01*
X037270Y019023D01*
X037503Y019256D01*
X038553Y019256D01*
X038753Y019056D01*
X038753Y018906D01*
X038803Y018956D01*
X040003Y018956D01*
X040503Y019456D01*
X040503Y019706D01*
X040933Y019746D02*
X041073Y019746D01*
X041073Y019844D02*
X040933Y019844D01*
X040933Y019885D02*
X040933Y019528D01*
X040681Y019276D01*
X040606Y019276D01*
X040586Y019256D01*
X040423Y019094D01*
X040484Y019154D02*
X041710Y019154D01*
X041703Y019161D02*
X041703Y019298D01*
X041681Y019276D01*
X041325Y019276D01*
X041073Y019528D01*
X041073Y019885D01*
X041145Y019956D01*
X040861Y019956D01*
X040933Y019885D01*
X040875Y019943D02*
X041132Y019943D01*
X041073Y019647D02*
X040933Y019647D01*
X040933Y019549D02*
X041073Y019549D01*
X041152Y019450D02*
X040855Y019450D01*
X040757Y019352D02*
X041250Y019352D01*
X041703Y019253D02*
X040583Y019253D01*
X040499Y018957D02*
X041908Y018957D01*
X041908Y018956D02*
X041703Y019161D01*
X041908Y018956D02*
X042198Y018956D01*
X042298Y019056D01*
X042199Y018957D02*
X043103Y018957D01*
X043103Y018859D02*
X040499Y018859D01*
X040499Y018760D02*
X043103Y018760D01*
X043103Y018662D02*
X040499Y018662D01*
X040499Y018563D02*
X041865Y018563D01*
X041953Y018356D02*
X042053Y018256D01*
X041253Y017706D02*
X040403Y016856D01*
X039453Y016856D01*
X039153Y016556D01*
X038778Y016556D01*
X038458Y016691D02*
X038449Y016691D01*
X038458Y016789D02*
X038449Y016789D01*
X038458Y016888D02*
X038449Y016888D01*
X038458Y016986D02*
X038449Y016986D01*
X038458Y017085D02*
X038449Y017085D01*
X038458Y017184D02*
X038449Y017184D01*
X038458Y017282D02*
X038449Y017282D01*
X038437Y017381D02*
X038470Y017381D01*
X038778Y017106D02*
X039153Y017106D01*
X039703Y017656D01*
X039703Y017706D01*
X039145Y017381D02*
X039086Y017381D01*
X038129Y017106D02*
X038079Y017082D01*
X037503Y016556D02*
X037468Y016521D01*
X037437Y016521D01*
X037834Y016100D02*
X038114Y016100D01*
X038403Y015756D02*
X039079Y015756D01*
X039103Y015756D01*
X039503Y016156D01*
X040103Y016156D01*
X040229Y016031D01*
X040229Y015756D01*
X039909Y015804D02*
X039434Y015804D01*
X039399Y015705D02*
X039909Y015705D01*
X039909Y015607D02*
X039399Y015607D01*
X039399Y015508D02*
X039909Y015508D01*
X039993Y015410D02*
X039399Y015410D01*
X039399Y015311D02*
X040416Y015311D01*
X040514Y015213D02*
X039399Y015213D01*
X039399Y015114D02*
X040613Y015114D01*
X040711Y015016D02*
X040048Y015016D01*
X040048Y014917D02*
X040810Y014917D01*
X040908Y014819D02*
X040048Y014819D01*
X040048Y014720D02*
X041007Y014720D01*
X041106Y014621D02*
X040048Y014621D01*
X040048Y014523D02*
X041204Y014523D01*
X041303Y014424D02*
X039978Y014424D01*
X039953Y014326D02*
X041401Y014326D01*
X041503Y014506D02*
X040553Y015456D01*
X040553Y016106D01*
X040703Y016256D01*
X041053Y016198D02*
X041129Y016198D01*
X041117Y016100D02*
X041227Y016100D01*
X039909Y015903D02*
X039532Y015903D01*
X038953Y015406D02*
X039103Y015256D01*
X039079Y015256D01*
X039053Y015256D01*
X039079Y015231D01*
X039079Y014756D01*
X039399Y014720D02*
X039408Y014720D01*
X039408Y014819D02*
X039399Y014819D01*
X039408Y014917D02*
X039399Y014917D01*
X039408Y015016D02*
X039399Y015016D01*
X039728Y014756D02*
X039803Y014756D01*
X039753Y014706D01*
X039753Y013456D01*
X039403Y013439D02*
X038320Y013439D01*
X038320Y013340D02*
X039403Y013340D01*
X039403Y013537D02*
X038313Y013537D01*
X038320Y013242D02*
X038456Y013242D01*
X038357Y013143D02*
X038320Y013143D01*
X038603Y013106D02*
X037653Y012156D01*
X033703Y012156D01*
X033803Y012356D02*
X033403Y012756D01*
X032703Y012756D01*
X031653Y013806D01*
X031153Y013806D01*
X030753Y014206D01*
X030053Y014206D01*
X030753Y014556D02*
X029353Y014556D01*
X029586Y014819D02*
X030796Y014819D01*
X030873Y014720D02*
X031253Y014720D01*
X031253Y014819D02*
X031110Y014819D01*
X031209Y014917D02*
X031253Y014917D01*
X031303Y015114D02*
X031395Y015114D01*
X031303Y015213D02*
X031653Y015213D01*
X031653Y015311D02*
X031293Y015311D01*
X031195Y015410D02*
X031653Y015410D01*
X031710Y015508D02*
X031153Y015508D01*
X031153Y015607D02*
X031758Y015607D01*
X031659Y015705D02*
X031153Y015705D01*
X031153Y015804D02*
X031653Y015804D01*
X031752Y016100D02*
X031279Y016100D01*
X031378Y016198D02*
X031850Y016198D01*
X032003Y015856D02*
X032053Y015806D01*
X032103Y015806D01*
X032333Y015577D01*
X032870Y015577D01*
X032870Y015262D02*
X032048Y015262D01*
X032003Y015306D01*
X032344Y014947D02*
X032253Y014856D01*
X031803Y014856D01*
X031653Y014806D01*
X031371Y014523D02*
X031070Y014523D01*
X031168Y014424D02*
X031470Y014424D01*
X031365Y014227D02*
X031867Y014227D01*
X031914Y014129D02*
X031965Y014129D01*
X032012Y014030D02*
X032694Y014030D01*
X032793Y014129D02*
X032441Y014129D01*
X032540Y014227D02*
X032891Y014227D01*
X032990Y014326D02*
X032603Y014326D01*
X032429Y014632D02*
X032870Y014632D01*
X032429Y014632D02*
X032203Y014456D01*
X031803Y014326D02*
X031267Y014326D01*
X031273Y014621D02*
X030971Y014621D01*
X030753Y014556D02*
X031303Y014006D01*
X031753Y014006D01*
X032003Y013756D01*
X032703Y013756D01*
X033503Y014556D01*
X033503Y014656D01*
X033953Y015106D01*
X035853Y015106D01*
X036703Y014256D01*
X036703Y013956D01*
X036728Y013932D01*
X036829Y013831D01*
X036829Y013681D01*
X037228Y013282D01*
X037303Y013282D01*
X037303Y013306D01*
X037203Y013206D01*
X037203Y012806D01*
X036553Y012706D02*
X036413Y013147D01*
X036413Y013923D01*
X036098Y013923D02*
X036098Y013251D01*
X035553Y012706D01*
X034903Y012756D02*
X034903Y013006D01*
X035153Y013256D01*
X035703Y013256D01*
X035783Y013336D01*
X035783Y013923D01*
X035503Y013906D02*
X035487Y013923D01*
X035468Y013923D01*
X035503Y013906D02*
X035503Y014756D01*
X035253Y014512D02*
X035303Y014461D01*
X035303Y014364D01*
X035220Y014280D01*
X035220Y013566D01*
X035308Y013478D01*
X035583Y013478D01*
X035583Y013456D01*
X035236Y013456D01*
X035071Y013456D01*
X034821Y013206D01*
X034703Y013089D01*
X034703Y012839D01*
X034421Y012556D01*
X033886Y012556D01*
X033636Y012806D01*
X033819Y012806D01*
X034053Y013041D01*
X034053Y013324D01*
X034094Y013364D01*
X034094Y013478D01*
X034363Y013478D01*
X034678Y013478D01*
X034999Y013478D01*
X035087Y013566D01*
X035087Y014207D01*
X035203Y014324D01*
X035203Y014461D01*
X035253Y014512D01*
X035303Y014424D02*
X035203Y014424D01*
X035203Y014326D02*
X035265Y014326D01*
X035220Y014227D02*
X035107Y014227D01*
X035087Y014129D02*
X035220Y014129D01*
X035220Y014030D02*
X035087Y014030D01*
X035087Y013932D02*
X035220Y013932D01*
X035153Y013923D02*
X035153Y013506D01*
X035103Y013456D01*
X034553Y013456D01*
X034153Y013056D01*
X034153Y013006D01*
X034053Y012906D01*
X034053Y012856D01*
X033853Y012656D01*
X033792Y012651D02*
X034515Y012651D01*
X034613Y012749D02*
X033693Y012749D01*
X033860Y012848D02*
X034703Y012848D01*
X034703Y012946D02*
X033959Y012946D01*
X034053Y013045D02*
X034703Y013045D01*
X034757Y013143D02*
X034053Y013143D01*
X034053Y013242D02*
X034856Y013242D01*
X034955Y013340D02*
X034070Y013340D01*
X034094Y013439D02*
X035053Y013439D01*
X035059Y013537D02*
X035248Y013537D01*
X035220Y013636D02*
X035087Y013636D01*
X035087Y013735D02*
X035220Y013735D01*
X035220Y013833D02*
X035087Y013833D01*
X034838Y013923D02*
X034838Y014241D01*
X035003Y014406D01*
X035003Y014756D01*
X034503Y014556D02*
X034523Y014436D01*
X034523Y013923D01*
X034208Y013923D02*
X034208Y014251D01*
X033953Y014556D01*
X033481Y014917D02*
X033315Y014917D01*
X033315Y014819D02*
X033383Y014819D01*
X033315Y015016D02*
X033580Y015016D01*
X033678Y015114D02*
X033315Y015114D01*
X033315Y015213D02*
X033777Y015213D01*
X033315Y015311D02*
X036992Y015311D01*
X036992Y015213D02*
X036030Y015213D01*
X036128Y015114D02*
X036992Y015114D01*
X036992Y015016D02*
X036227Y015016D01*
X036325Y014917D02*
X036992Y014917D01*
X036992Y014819D02*
X036424Y014819D01*
X036523Y014720D02*
X036992Y014720D01*
X036992Y014621D02*
X036621Y014621D01*
X036720Y014523D02*
X036992Y014523D01*
X037038Y014424D02*
X036818Y014424D01*
X036931Y014326D02*
X039553Y014326D01*
X039553Y014227D02*
X036977Y014227D01*
X036977Y014129D02*
X039553Y014129D01*
X039553Y014030D02*
X036977Y014030D01*
X037011Y013932D02*
X039553Y013932D01*
X039553Y013833D02*
X037029Y013833D01*
X037058Y013735D02*
X039537Y013735D01*
X039438Y013636D02*
X037157Y013636D01*
X037303Y013282D02*
X037303Y013256D01*
X037319Y013272D01*
X037953Y013272D01*
X038603Y013106D02*
X043303Y013106D01*
X043703Y012706D01*
X046703Y012706D01*
X046953Y012456D01*
X046953Y012256D01*
X046743Y012256D02*
X038036Y012256D01*
X037938Y012158D02*
X046743Y012158D01*
X046743Y012059D02*
X037839Y012059D01*
X037741Y011961D02*
X046743Y011961D01*
X046743Y011862D02*
X027813Y011862D01*
X027750Y011764D02*
X046743Y011764D01*
X046743Y011665D02*
X027652Y011665D01*
X027155Y011665D02*
X022945Y011665D01*
X022846Y011567D02*
X046743Y011567D01*
X046743Y011468D02*
X022748Y011468D01*
X022649Y011370D02*
X046743Y011370D01*
X046743Y011271D02*
X022551Y011271D01*
X022452Y011172D02*
X046743Y011172D01*
X046743Y011074D02*
X022354Y011074D01*
X022255Y010975D02*
X046743Y010975D01*
X046743Y010877D02*
X022203Y010877D01*
X022203Y010778D02*
X046743Y010778D01*
X046743Y010680D02*
X022203Y010680D01*
X022203Y010581D02*
X046743Y010581D01*
X046743Y010483D02*
X022203Y010483D01*
X022203Y010384D02*
X027586Y010384D01*
X027658Y010456D02*
X027948Y010456D01*
X028153Y010251D01*
X028153Y009961D01*
X028153Y009915D01*
X028153Y009832D01*
X028233Y009752D01*
X028233Y009288D01*
X028145Y009200D01*
X027621Y009200D01*
X027533Y009288D01*
X027533Y009752D01*
X027598Y009817D01*
X027453Y009961D01*
X027453Y010251D01*
X027658Y010456D01*
X027488Y010286D02*
X022203Y010286D01*
X022203Y010187D02*
X027453Y010187D01*
X027453Y010088D02*
X022203Y010088D01*
X022203Y009990D02*
X027453Y009990D01*
X027524Y009891D02*
X022203Y009891D01*
X022203Y009793D02*
X027574Y009793D01*
X027533Y009694D02*
X022203Y009694D01*
X022203Y009596D02*
X027533Y009596D01*
X027533Y009497D02*
X022203Y009497D01*
X022203Y009399D02*
X027533Y009399D01*
X027533Y009300D02*
X022203Y009300D01*
X022203Y009202D02*
X027619Y009202D01*
X028147Y009202D02*
X045541Y009202D01*
X045546Y009206D02*
X045960Y009206D01*
X046253Y008914D01*
X046253Y008499D01*
X045510Y007756D01*
X045096Y007756D01*
X044346Y007756D01*
X044053Y008049D01*
X044053Y008464D01*
X044346Y008756D01*
X045096Y008756D01*
X045546Y009206D01*
X045443Y009103D02*
X022203Y009103D01*
X022203Y009004D02*
X045344Y009004D01*
X045246Y008906D02*
X022203Y008906D01*
X022203Y008807D02*
X045147Y008807D01*
X044299Y008709D02*
X022203Y008709D01*
X022203Y008610D02*
X033838Y008610D01*
X033739Y008512D02*
X022203Y008512D01*
X022203Y008413D02*
X033641Y008413D01*
X033553Y008315D02*
X030275Y008315D01*
X030273Y008316D02*
X030513Y008076D01*
X030513Y007737D01*
X030273Y007496D01*
X029934Y007496D01*
X029693Y007737D01*
X029693Y008076D01*
X029934Y008316D01*
X030273Y008316D01*
X030373Y008216D02*
X033553Y008216D01*
X033553Y008118D02*
X030472Y008118D01*
X030513Y008019D02*
X033553Y008019D01*
X033553Y007921D02*
X030513Y007921D01*
X030513Y007822D02*
X033553Y007822D01*
X033553Y007723D02*
X030500Y007723D01*
X030402Y007625D02*
X033553Y007625D01*
X033553Y007526D02*
X030303Y007526D01*
X029904Y007526D02*
X022466Y007526D01*
X022565Y007428D02*
X033613Y007428D01*
X033653Y007329D02*
X022663Y007329D01*
X022762Y007231D02*
X033653Y007231D01*
X033653Y007132D02*
X022860Y007132D01*
X022959Y007034D02*
X033653Y007034D01*
X033653Y006935D02*
X023058Y006935D01*
X023156Y006837D02*
X033653Y006837D01*
X033653Y006738D02*
X023255Y006738D01*
X022368Y007625D02*
X029805Y007625D01*
X029707Y007723D02*
X022269Y007723D01*
X022203Y007822D02*
X029693Y007822D01*
X029693Y007921D02*
X022203Y007921D01*
X022203Y008019D02*
X029693Y008019D01*
X029735Y008118D02*
X022203Y008118D01*
X022203Y008216D02*
X029833Y008216D01*
X029932Y008315D02*
X022203Y008315D01*
X021653Y007656D02*
X021653Y011056D01*
X023628Y013031D01*
X023753Y013156D01*
X023832Y012552D02*
X026993Y012552D01*
X026993Y012454D02*
X023733Y012454D01*
X023635Y012355D02*
X026993Y012355D01*
X026993Y012256D02*
X023536Y012256D01*
X023438Y012158D02*
X026993Y012158D01*
X026993Y012059D02*
X023339Y012059D01*
X023241Y011961D02*
X026993Y011961D01*
X026993Y011862D02*
X023142Y011862D01*
X023043Y011764D02*
X027056Y011764D01*
X026993Y012651D02*
X026830Y012651D01*
X026929Y012749D02*
X027056Y012749D01*
X027750Y012749D02*
X029378Y012749D01*
X031464Y013340D02*
X031537Y013340D01*
X031503Y013242D02*
X031635Y013242D01*
X033003Y013206D02*
X033003Y013406D01*
X033429Y013832D01*
X033579Y013832D01*
X033579Y013923D01*
X033894Y013923D02*
X033894Y013447D01*
X033653Y013206D01*
X034503Y012356D02*
X034903Y012756D01*
X034503Y012356D02*
X033803Y012356D01*
X036728Y013923D02*
X036728Y013932D01*
X037437Y014632D02*
X038429Y014632D01*
X038503Y014706D01*
X038291Y014424D02*
X037835Y014424D01*
X037994Y014947D02*
X038053Y015006D01*
X037994Y014947D02*
X037437Y014947D01*
X037437Y015262D02*
X037758Y015262D01*
X037903Y015406D01*
X038953Y015406D01*
X038403Y015756D02*
X038253Y015606D01*
X037753Y015606D01*
X037723Y015577D01*
X037437Y015577D01*
X036992Y015410D02*
X036952Y015410D01*
X036555Y015410D02*
X033315Y015410D01*
X033315Y015508D02*
X036457Y015508D01*
X036403Y015607D02*
X033315Y015607D01*
X033315Y015705D02*
X034322Y015705D01*
X035085Y015705D02*
X035572Y015705D01*
X035473Y015804D02*
X035184Y015804D01*
X035282Y015903D02*
X035374Y015903D01*
X035012Y016198D02*
X034394Y016198D01*
X034296Y016297D02*
X035111Y016297D01*
X035209Y016395D02*
X034197Y016395D01*
X034103Y016206D02*
X033803Y016206D01*
X032870Y016206D01*
X032853Y016206D01*
X032870Y016206D02*
X033803Y016206D01*
X034493Y016100D02*
X034914Y016100D01*
X035268Y016494D02*
X034011Y016494D01*
X033596Y016494D02*
X033315Y016494D01*
X033315Y016592D02*
X035268Y016592D01*
X035268Y016691D02*
X033315Y016691D01*
X033315Y016789D02*
X035268Y016789D01*
X035268Y016888D02*
X033315Y016888D01*
X033315Y016986D02*
X035268Y016986D01*
X035268Y017085D02*
X033315Y017085D01*
X033315Y017184D02*
X035268Y017184D01*
X035268Y017282D02*
X033315Y017282D01*
X033315Y017381D02*
X035268Y017381D01*
X035268Y017479D02*
X033315Y017479D01*
X034170Y017578D02*
X034287Y017578D01*
X035783Y018077D02*
X035783Y018490D01*
X036098Y018490D02*
X036098Y018951D01*
X037253Y020106D01*
X037253Y020506D01*
X037903Y021156D01*
X038953Y021156D01*
X038953Y020206D01*
X039453Y019706D01*
X039503Y019706D01*
X039253Y019256D02*
X039003Y019506D01*
X039003Y019856D01*
X038653Y020206D01*
X038053Y020206D01*
X036728Y018881D01*
X036728Y018490D01*
X036413Y018490D02*
X036413Y018916D01*
X037653Y020156D01*
X037653Y020356D01*
X037872Y020633D02*
X038753Y020633D01*
X038753Y020731D02*
X037761Y020731D01*
X037736Y020706D02*
X037798Y020706D01*
X038003Y020501D01*
X038003Y020406D01*
X038136Y020406D01*
X038736Y020406D01*
X038753Y020389D01*
X038753Y020956D01*
X037986Y020956D01*
X037736Y020706D01*
X037859Y020830D02*
X038753Y020830D01*
X038753Y020928D02*
X037958Y020928D01*
X038953Y021156D02*
X042903Y021156D01*
X043603Y020456D01*
X046903Y020456D01*
X046853Y020456D02*
X046978Y020581D01*
X047203Y020581D01*
X047553Y020534D02*
X047748Y020534D01*
X047847Y020633D02*
X047553Y020633D01*
X047553Y020731D02*
X047853Y020731D01*
X047870Y020830D02*
X047537Y020830D01*
X048078Y020581D02*
X047753Y020256D01*
X042803Y020256D01*
X042503Y019956D01*
X042503Y019706D01*
X042453Y019706D01*
X042003Y020156D01*
X040203Y020156D01*
X040003Y019956D01*
X040003Y019506D01*
X039753Y019256D01*
X039253Y019256D01*
X038753Y018906D02*
X038753Y018881D01*
X038136Y018880D02*
X038136Y018323D01*
X038153Y018306D01*
X038136Y018290D01*
X038136Y018132D01*
X038279Y018132D01*
X038303Y018156D01*
X038653Y018156D01*
X038727Y018230D01*
X038727Y018232D01*
X038753Y018206D01*
X038753Y018232D01*
X039229Y018232D01*
X039253Y018256D01*
X038753Y018232D02*
X038753Y018306D01*
X040003Y018956D02*
X040179Y018756D01*
X037053Y020238D02*
X035892Y020238D01*
X035913Y020140D02*
X037004Y020140D01*
X036905Y020041D02*
X035913Y020041D01*
X035879Y019943D02*
X036807Y019943D01*
X036708Y019844D02*
X035821Y019844D01*
X035704Y019746D02*
X036610Y019746D01*
X036511Y019647D02*
X035388Y019647D01*
X035304Y019549D02*
X036413Y019549D01*
X035852Y020337D02*
X037053Y020337D01*
X036729Y020436D02*
X035754Y020436D01*
X036553Y020633D02*
X032333Y020633D01*
X032333Y020731D02*
X036553Y020731D01*
X036631Y020534D02*
X032333Y020534D01*
X031873Y020534D02*
X030421Y020534D01*
X030503Y020451D02*
X030503Y020161D01*
X030298Y019956D01*
X030008Y019956D01*
X029803Y020161D01*
X029803Y020206D01*
X029286Y020206D01*
X029186Y020106D01*
X029136Y020106D01*
X029086Y020056D01*
X028736Y020056D01*
X028571Y020056D01*
X028202Y020425D01*
X028136Y020359D01*
X027985Y020296D01*
X027822Y020296D01*
X027671Y020359D01*
X027556Y020474D01*
X027493Y020625D01*
X027493Y020788D01*
X027556Y020939D01*
X027671Y021054D01*
X027822Y021116D01*
X027985Y021116D01*
X028136Y021054D01*
X028251Y020939D01*
X028264Y020906D01*
X028286Y020906D01*
X028493Y020699D01*
X028493Y020788D01*
X028556Y020939D01*
X028671Y021054D01*
X028822Y021116D01*
X028985Y021116D01*
X029136Y021054D01*
X029251Y020939D01*
X029313Y020788D01*
X029313Y020625D01*
X029306Y020606D01*
X029958Y020606D01*
X030008Y020656D01*
X030298Y020656D01*
X030503Y020451D01*
X030503Y020436D02*
X031873Y020436D01*
X031873Y020337D02*
X030503Y020337D01*
X030503Y020238D02*
X031873Y020238D01*
X031873Y020140D02*
X030482Y020140D01*
X030383Y020041D02*
X031873Y020041D01*
X031873Y019943D02*
X029747Y019943D01*
X029790Y019844D02*
X030246Y019844D01*
X030148Y019746D02*
X029813Y019746D01*
X029813Y019647D02*
X030103Y019647D01*
X030103Y019549D02*
X029782Y019549D01*
X030103Y019256D02*
X030403Y019556D01*
X030453Y019556D01*
X030759Y019746D02*
X031873Y019746D01*
X031873Y019844D02*
X030660Y019844D01*
X030803Y019647D02*
X031853Y019647D01*
X032203Y019481D02*
X032829Y019481D01*
X032853Y019506D01*
X032612Y019253D02*
X032553Y019253D01*
X032553Y018859D02*
X033342Y018859D01*
X032598Y019746D02*
X032521Y019746D01*
X032696Y019844D02*
X032333Y019844D01*
X031873Y020633D02*
X030322Y020633D01*
X029985Y020633D02*
X029313Y020633D01*
X029313Y020731D02*
X031873Y020731D01*
X031873Y020830D02*
X029296Y020830D01*
X029255Y020928D02*
X031873Y020928D01*
X031898Y021027D02*
X029163Y021027D01*
X028644Y021027D02*
X028163Y021027D01*
X028255Y020928D02*
X028551Y020928D01*
X028511Y020830D02*
X028363Y020830D01*
X028461Y020731D02*
X028493Y020731D01*
X028203Y020706D02*
X028653Y020256D01*
X029003Y020256D01*
X029053Y020306D01*
X029103Y020306D01*
X029203Y020406D01*
X030053Y020406D01*
X030153Y020306D01*
X029924Y020041D02*
X029648Y020041D01*
X029825Y020140D02*
X029220Y020140D01*
X029158Y020041D02*
X022191Y020041D01*
X022191Y020140D02*
X028487Y020140D01*
X028389Y020238D02*
X022189Y020238D01*
X022090Y020337D02*
X027724Y020337D01*
X027594Y020436D02*
X027306Y020436D01*
X027347Y020534D02*
X027531Y020534D01*
X027493Y020633D02*
X027347Y020633D01*
X027347Y020731D02*
X027493Y020731D01*
X027511Y020830D02*
X027347Y020830D01*
X027347Y020928D02*
X027551Y020928D01*
X027644Y021027D02*
X027262Y021027D01*
X027163Y021125D02*
X031997Y021125D01*
X029060Y019943D02*
X022165Y019943D01*
X022066Y019844D02*
X029017Y019844D01*
X028993Y019746D02*
X021968Y019746D01*
X021869Y019647D02*
X026487Y019647D01*
X026403Y019549D02*
X025009Y019549D01*
X025044Y019253D02*
X025425Y019253D01*
X025326Y019154D02*
X025044Y019154D01*
X025044Y019056D02*
X025228Y019056D01*
X025173Y018957D02*
X025044Y018957D01*
X025779Y018957D02*
X028471Y018957D01*
X028373Y018859D02*
X026288Y018859D01*
X026371Y018760D02*
X028274Y018760D01*
X028176Y018662D02*
X026371Y018662D01*
X026371Y018563D02*
X028077Y018563D01*
X027979Y018465D02*
X026371Y018465D01*
X026371Y018366D02*
X027880Y018366D01*
X027853Y018268D02*
X026371Y018268D01*
X026371Y018169D02*
X027853Y018169D01*
X027853Y018070D02*
X026371Y018070D01*
X026371Y017972D02*
X027853Y017972D01*
X027853Y017873D02*
X026371Y017873D01*
X026361Y017775D02*
X027853Y017775D01*
X028778Y017581D02*
X028703Y017206D01*
X028778Y017581D02*
X029203Y017581D01*
X029471Y018366D02*
X029553Y018366D01*
X030154Y018366D02*
X030161Y018366D01*
X030103Y019256D02*
X028203Y019256D01*
X028129Y019332D01*
X028237Y019549D02*
X029025Y019549D01*
X028993Y019647D02*
X027020Y019647D01*
X027060Y019056D02*
X028570Y019056D01*
X028290Y020337D02*
X028083Y020337D01*
X028203Y020706D02*
X027903Y020706D01*
X026038Y020436D02*
X025918Y020436D01*
X025394Y020436D02*
X025175Y020436D01*
X025216Y020534D02*
X025295Y020534D01*
X025254Y020633D02*
X025216Y020633D01*
X025216Y020731D02*
X025254Y020731D01*
X025254Y020830D02*
X025216Y020830D01*
X025216Y020928D02*
X025254Y020928D01*
X024806Y020928D02*
X024769Y020928D01*
X024769Y020830D02*
X024806Y020830D01*
X024806Y020731D02*
X024769Y020731D01*
X024769Y020633D02*
X024806Y020633D01*
X024806Y020534D02*
X024728Y020534D01*
X024629Y020436D02*
X024847Y020436D01*
X024006Y020436D02*
X023689Y020436D01*
X023731Y020534D02*
X023965Y020534D01*
X023111Y020436D02*
X023045Y020436D01*
X022717Y020436D02*
X020467Y020436D01*
X020508Y020534D02*
X022676Y020534D01*
X022676Y020633D02*
X020762Y020633D01*
X020861Y020731D02*
X021428Y020731D01*
X021387Y020772D02*
X021507Y020652D01*
X022071Y020652D01*
X022191Y020772D01*
X022191Y020942D01*
X022071Y021062D01*
X021507Y021062D01*
X021387Y020942D01*
X021387Y020772D01*
X021387Y020830D02*
X020902Y020830D01*
X020902Y020928D02*
X021387Y020928D01*
X021472Y021027D02*
X020902Y021027D01*
X020902Y021125D02*
X022761Y021125D01*
X022676Y021027D02*
X022105Y021027D01*
X022191Y020928D02*
X022676Y020928D01*
X022676Y020830D02*
X022191Y020830D01*
X022150Y020731D02*
X022676Y020731D01*
X021487Y020337D02*
X021347Y020337D01*
X020941Y020337D02*
X020703Y020337D01*
X020801Y020238D02*
X020842Y020238D01*
X020867Y019450D02*
X020777Y019450D01*
X021770Y019450D02*
X024232Y019450D01*
X024232Y019352D02*
X019653Y019352D01*
X021399Y018760D02*
X022370Y018760D01*
X022285Y018662D02*
X021399Y018662D01*
X021368Y018563D02*
X022285Y018563D01*
X022285Y018465D02*
X021323Y018465D01*
X021323Y018366D02*
X022285Y018366D01*
X022285Y018268D02*
X021323Y018268D01*
X021323Y018169D02*
X022285Y018169D01*
X022285Y018070D02*
X021323Y018070D01*
X021321Y017972D02*
X022285Y017972D01*
X022285Y017873D02*
X021321Y017873D01*
X021321Y017775D02*
X022285Y017775D01*
X022294Y017676D02*
X021313Y017676D01*
X020785Y017873D02*
X020765Y017873D01*
X021797Y019549D02*
X024267Y019549D01*
X025788Y018859D02*
X025919Y018859D01*
X032389Y015804D02*
X032492Y015804D01*
X032344Y014947D02*
X032870Y014947D01*
X028653Y014156D02*
X028653Y014056D01*
X027853Y014227D02*
X027827Y014227D01*
X027853Y014326D02*
X027729Y014326D01*
X027553Y014006D02*
X026053Y014006D01*
X025135Y014523D02*
X025096Y014523D01*
X025096Y014621D02*
X025111Y014621D01*
X025111Y014720D02*
X025067Y014720D01*
X025111Y014819D02*
X024940Y014819D01*
X025091Y014917D02*
X025111Y014917D01*
X025111Y015016D02*
X025096Y015016D01*
X025096Y015114D02*
X025160Y015114D01*
X025096Y015213D02*
X025333Y015213D01*
X025333Y015311D02*
X025096Y015311D01*
X025096Y015410D02*
X025333Y015410D01*
X025333Y015508D02*
X025027Y015508D01*
X024873Y015607D02*
X025333Y015607D01*
X024245Y015016D02*
X024207Y015016D01*
X024249Y014917D02*
X024109Y014917D01*
X022053Y015181D02*
X022003Y015256D01*
X020753Y011406D02*
X020653Y011306D01*
X020653Y007290D01*
X021303Y006856D02*
X023353Y004806D01*
X023603Y004806D02*
X023753Y004806D01*
X024049Y004866D02*
X024853Y004866D01*
X024853Y004964D02*
X024049Y004964D01*
X024053Y004767D02*
X024853Y004767D01*
X024853Y004669D02*
X024784Y004669D01*
X024853Y005063D02*
X024941Y005151D01*
X025466Y005151D01*
X025553Y005063D01*
X025553Y004964D02*
X026691Y004964D01*
X026691Y004866D02*
X025553Y004866D01*
X025575Y004767D02*
X026691Y004767D01*
X026691Y004669D02*
X025674Y004669D01*
X025935Y004570D02*
X026691Y004570D01*
X026691Y004471D02*
X026033Y004471D01*
X026053Y004373D02*
X026691Y004373D01*
X026691Y004274D02*
X026053Y004274D01*
X026053Y004176D02*
X026691Y004176D01*
X026724Y004077D02*
X025969Y004077D01*
X025871Y003979D02*
X026823Y003979D01*
X025703Y004306D02*
X025703Y004356D01*
X025229Y004831D01*
X025203Y004831D01*
X025703Y004306D02*
X025653Y004256D01*
X024147Y004669D02*
X024053Y004669D01*
X024053Y004570D02*
X024079Y004570D01*
X023441Y004430D02*
X023429Y004430D01*
X022003Y005856D01*
X024049Y005260D02*
X026543Y005260D01*
X023479Y003682D02*
X023441Y003682D01*
X023341Y003695D01*
X023353Y003706D01*
X032127Y002745D02*
X032153Y002745D01*
X032153Y002806D01*
X032153Y002756D02*
X032141Y002745D01*
X032127Y002745D01*
X038003Y003190D02*
X038803Y003190D01*
X038803Y003092D02*
X038051Y003092D01*
X038003Y003289D02*
X038803Y003289D01*
X038078Y003388D02*
X038003Y003388D01*
X038003Y003486D02*
X038055Y003486D01*
X038284Y003880D02*
X038580Y003880D01*
X039903Y003406D02*
X039903Y003006D01*
X040153Y002756D01*
X046053Y002756D01*
X046703Y003406D01*
X046703Y004606D01*
X047653Y005556D01*
X047653Y007056D01*
X047753Y007156D01*
X048003Y007156D01*
X048027Y007180D01*
X048065Y007180D01*
X047979Y007180D01*
X047953Y007206D01*
X048603Y007206D01*
X049603Y008206D01*
X049603Y012156D01*
X049453Y012306D01*
X049206Y012059D02*
X047163Y012059D01*
X047163Y011961D02*
X049304Y011961D01*
X049308Y011956D02*
X049103Y012161D01*
X049103Y012451D01*
X049308Y012656D01*
X049598Y012656D01*
X049653Y012601D01*
X049653Y012674D01*
X049471Y012856D01*
X047771Y012856D01*
X046836Y012856D01*
X046903Y012789D01*
X047153Y012539D01*
X047153Y012374D01*
X047153Y012353D01*
X047163Y012343D01*
X047163Y008052D01*
X047666Y008052D01*
X047678Y008039D01*
X047691Y008052D01*
X048066Y008052D01*
X048271Y008256D01*
X048436Y008256D01*
X048553Y008139D01*
X048553Y007974D01*
X048303Y007724D01*
X048303Y007500D01*
X048242Y007439D01*
X048364Y007439D01*
X048396Y007406D01*
X048521Y007406D01*
X049403Y008289D01*
X049403Y011956D01*
X049308Y011956D01*
X049403Y011862D02*
X047163Y011862D01*
X047163Y011764D02*
X049403Y011764D01*
X049403Y011665D02*
X047163Y011665D01*
X047163Y011567D02*
X049403Y011567D01*
X049403Y011468D02*
X047163Y011468D01*
X047163Y011370D02*
X049403Y011370D01*
X049403Y011271D02*
X047163Y011271D01*
X047163Y011172D02*
X049403Y011172D01*
X049403Y011074D02*
X047163Y011074D01*
X047163Y010975D02*
X049403Y010975D01*
X049403Y010877D02*
X047163Y010877D01*
X047163Y010778D02*
X049403Y010778D01*
X049403Y010680D02*
X047163Y010680D01*
X047163Y010581D02*
X049403Y010581D01*
X049403Y010483D02*
X047163Y010483D01*
X047163Y010384D02*
X049403Y010384D01*
X049403Y010286D02*
X047163Y010286D01*
X047163Y010187D02*
X049403Y010187D01*
X049403Y010088D02*
X047163Y010088D01*
X047163Y009990D02*
X049403Y009990D01*
X049403Y009891D02*
X047163Y009891D01*
X047163Y009793D02*
X049403Y009793D01*
X049403Y009694D02*
X047163Y009694D01*
X047163Y009596D02*
X049403Y009596D01*
X049403Y009497D02*
X047163Y009497D01*
X047163Y009399D02*
X049403Y009399D01*
X049403Y009300D02*
X047163Y009300D01*
X047163Y009202D02*
X049403Y009202D01*
X049403Y009103D02*
X047163Y009103D01*
X047163Y009004D02*
X049403Y009004D01*
X049403Y008906D02*
X047163Y008906D01*
X047163Y008807D02*
X049403Y008807D01*
X049403Y008709D02*
X047163Y008709D01*
X047163Y008610D02*
X049403Y008610D01*
X049403Y008512D02*
X047163Y008512D01*
X047163Y008413D02*
X049403Y008413D01*
X049403Y008315D02*
X047163Y008315D01*
X047163Y008216D02*
X048230Y008216D01*
X048132Y008118D02*
X047163Y008118D01*
X047003Y007906D02*
X046953Y007906D01*
X047003Y007906D02*
X047041Y007868D01*
X047041Y007195D01*
X047041Y007180D01*
X047279Y007180D01*
X047453Y007006D01*
X047453Y005706D01*
X047853Y005739D02*
X048097Y005982D01*
X048262Y005982D01*
X048395Y005982D01*
X048395Y006041D01*
X048483Y006129D01*
X049158Y006129D01*
X049246Y006041D01*
X049246Y005523D01*
X049158Y005436D01*
X048483Y005436D01*
X048395Y005523D01*
X048395Y005582D01*
X048262Y005582D01*
X047786Y005106D01*
X047103Y004424D01*
X047103Y003224D01*
X046986Y003106D01*
X046286Y002406D01*
X050053Y002406D01*
X050053Y005839D01*
X050024Y005810D01*
X049349Y005810D01*
X049261Y005897D01*
X049261Y006415D01*
X049349Y006503D01*
X049486Y006503D01*
X049486Y006622D01*
X049653Y006789D01*
X049653Y007974D01*
X048803Y007124D01*
X048803Y007124D01*
X048686Y007006D01*
X048448Y007006D01*
X048435Y006994D01*
X048453Y006977D01*
X048453Y006847D01*
X048483Y006877D01*
X049158Y006877D01*
X049246Y006789D01*
X049246Y006271D01*
X049158Y006184D01*
X048483Y006184D01*
X048428Y006238D01*
X048364Y006174D01*
X047853Y006174D01*
X047853Y005739D01*
X047853Y005753D02*
X047867Y005753D01*
X047853Y005851D02*
X047965Y005851D01*
X048064Y005950D02*
X047853Y005950D01*
X047853Y006048D02*
X048401Y006048D01*
X048179Y005782D02*
X048820Y005782D01*
X049246Y005753D02*
X050053Y005753D01*
X050053Y005654D02*
X049246Y005654D01*
X049246Y005555D02*
X050053Y005555D01*
X050053Y005457D02*
X049179Y005457D01*
X049246Y005851D02*
X049307Y005851D01*
X049261Y005950D02*
X049246Y005950D01*
X049239Y006048D02*
X049261Y006048D01*
X049261Y006147D02*
X047853Y006147D01*
X048065Y006432D02*
X048077Y006432D01*
X048103Y006406D01*
X048303Y006406D01*
X048427Y006530D01*
X048820Y006530D01*
X049246Y006541D02*
X049486Y006541D01*
X049504Y006639D02*
X049246Y006639D01*
X049246Y006738D02*
X049602Y006738D01*
X049653Y006837D02*
X049199Y006837D01*
X049246Y006442D02*
X049288Y006442D01*
X049261Y006344D02*
X049246Y006344D01*
X049261Y006245D02*
X049220Y006245D01*
X049686Y006156D02*
X049686Y006540D01*
X049853Y006706D01*
X049853Y012756D01*
X049553Y013056D01*
X047853Y013056D01*
X046203Y013056D01*
X046053Y012906D01*
X044653Y012906D01*
X043803Y012906D01*
X043253Y013456D01*
X043253Y013656D01*
X042403Y014506D01*
X041503Y014506D01*
X042400Y014227D02*
X039953Y014227D01*
X039953Y014129D02*
X042498Y014129D01*
X042597Y014030D02*
X039953Y014030D01*
X039953Y013932D02*
X042695Y013932D01*
X042794Y013833D02*
X039953Y013833D01*
X039970Y013735D02*
X042892Y013735D01*
X042991Y013636D02*
X040069Y013636D01*
X040103Y013537D02*
X043053Y013537D01*
X043053Y013439D02*
X040103Y013439D01*
X040103Y013340D02*
X043087Y013340D01*
X043279Y012848D02*
X038627Y012848D01*
X038529Y012749D02*
X043378Y012749D01*
X043476Y012651D02*
X038430Y012651D01*
X038332Y012552D02*
X043575Y012552D01*
X044553Y012906D02*
X044653Y012906D01*
X046003Y013139D02*
X046003Y013139D01*
X046845Y012848D02*
X049479Y012848D01*
X049578Y012749D02*
X046943Y012749D01*
X047042Y012651D02*
X049303Y012651D01*
X049204Y012552D02*
X047141Y012552D01*
X047153Y012454D02*
X049106Y012454D01*
X049103Y012355D02*
X047153Y012355D01*
X047163Y012256D02*
X049103Y012256D01*
X049107Y012158D02*
X047163Y012158D01*
X046753Y012355D02*
X038135Y012355D01*
X038233Y012454D02*
X046674Y012454D01*
X047853Y013056D02*
X048403Y013056D01*
X049651Y013242D02*
X050053Y013242D01*
X050053Y013143D02*
X049749Y013143D01*
X049848Y013045D02*
X050053Y013045D01*
X050053Y012946D02*
X049946Y012946D01*
X050045Y012848D02*
X050053Y012848D01*
X050053Y012749D02*
X050053Y012749D01*
X050053Y012651D02*
X050053Y012651D01*
X050053Y012552D02*
X050053Y012552D01*
X050053Y012454D02*
X050053Y012454D01*
X050053Y012355D02*
X050053Y012355D01*
X050053Y012256D02*
X050053Y012256D01*
X050053Y012158D02*
X050053Y012158D01*
X050053Y012059D02*
X050053Y012059D01*
X050053Y011961D02*
X050053Y011961D01*
X050053Y011862D02*
X050053Y011862D01*
X050053Y011764D02*
X050053Y011764D01*
X050053Y011665D02*
X050053Y011665D01*
X050053Y011567D02*
X050053Y011567D01*
X050053Y011468D02*
X050053Y011468D01*
X050053Y011370D02*
X050053Y011370D01*
X050053Y011271D02*
X050053Y011271D01*
X050053Y011172D02*
X050053Y011172D01*
X050053Y011074D02*
X050053Y011074D01*
X050053Y010975D02*
X050053Y010975D01*
X050053Y010877D02*
X050053Y010877D01*
X050053Y010778D02*
X050053Y010778D01*
X050053Y010680D02*
X050053Y010680D01*
X050053Y010581D02*
X050053Y010581D01*
X050053Y010483D02*
X050053Y010483D01*
X050053Y010384D02*
X050053Y010384D01*
X050053Y010286D02*
X050053Y010286D01*
X050053Y010187D02*
X050053Y010187D01*
X050053Y010088D02*
X050053Y010088D01*
X050053Y009990D02*
X050053Y009990D01*
X050053Y009891D02*
X050053Y009891D01*
X050053Y009793D02*
X050053Y009793D01*
X050053Y009694D02*
X050053Y009694D01*
X050053Y009596D02*
X050053Y009596D01*
X050053Y009497D02*
X050053Y009497D01*
X050053Y009399D02*
X050053Y009399D01*
X050053Y009300D02*
X050053Y009300D01*
X050053Y009202D02*
X050053Y009202D01*
X050053Y009103D02*
X050053Y009103D01*
X050053Y009004D02*
X050053Y009004D01*
X050053Y008906D02*
X050053Y008906D01*
X050053Y008807D02*
X050053Y008807D01*
X050053Y008709D02*
X050053Y008709D01*
X050053Y008610D02*
X050053Y008610D01*
X050053Y008512D02*
X050053Y008512D01*
X050053Y008413D02*
X050053Y008413D01*
X050053Y008315D02*
X050053Y008315D01*
X050053Y008216D02*
X050053Y008216D01*
X050053Y008118D02*
X050053Y008118D01*
X050053Y008019D02*
X050053Y008019D01*
X050053Y007921D02*
X050053Y007921D01*
X050053Y007822D02*
X050053Y007822D01*
X050053Y007723D02*
X050053Y007723D01*
X050053Y007625D02*
X050053Y007625D01*
X050053Y007526D02*
X050053Y007526D01*
X050053Y007428D02*
X050053Y007428D01*
X050053Y007329D02*
X050053Y007329D01*
X050053Y007231D02*
X050053Y007231D01*
X050053Y007132D02*
X050053Y007132D01*
X050053Y007034D02*
X050053Y007034D01*
X050053Y006935D02*
X050053Y006935D01*
X050053Y006837D02*
X050053Y006837D01*
X050053Y006738D02*
X050053Y006738D01*
X050053Y006639D02*
X050053Y006639D01*
X050053Y006541D02*
X049971Y006541D01*
X049653Y006935D02*
X048453Y006935D01*
X048713Y007034D02*
X049653Y007034D01*
X049653Y007132D02*
X048812Y007132D01*
X048910Y007231D02*
X049653Y007231D01*
X049653Y007329D02*
X049009Y007329D01*
X049107Y007428D02*
X049653Y007428D01*
X049653Y007526D02*
X049206Y007526D01*
X049305Y007625D02*
X049653Y007625D01*
X049653Y007723D02*
X049403Y007723D01*
X049502Y007822D02*
X049653Y007822D01*
X049653Y007921D02*
X049600Y007921D01*
X049330Y008216D02*
X048476Y008216D01*
X048553Y008118D02*
X049232Y008118D01*
X049133Y008019D02*
X048553Y008019D01*
X048500Y007921D02*
X049035Y007921D01*
X048936Y007822D02*
X048402Y007822D01*
X048303Y007723D02*
X048838Y007723D01*
X048739Y007625D02*
X048303Y007625D01*
X048303Y007526D02*
X048640Y007526D01*
X048542Y007428D02*
X048374Y007428D01*
X048065Y007195D02*
X047953Y007306D01*
X047953Y007732D01*
X048029Y007732D01*
X048353Y008056D01*
X047953Y008381D02*
X047929Y008381D01*
X047903Y008406D01*
X047403Y007732D02*
X047028Y007332D01*
X047053Y007206D01*
X047041Y007195D01*
X047003Y007206D01*
X046655Y007231D02*
X040553Y007231D01*
X040553Y007141D02*
X040319Y006906D01*
X039988Y006906D01*
X039903Y006991D01*
X039903Y006891D01*
X039669Y006656D01*
X039338Y006656D01*
X039103Y006891D01*
X039103Y007222D01*
X039338Y007456D01*
X039669Y007456D01*
X039753Y007372D01*
X039753Y007472D01*
X039988Y007706D01*
X040319Y007706D01*
X040553Y007472D01*
X040553Y007141D01*
X040545Y007132D02*
X046655Y007132D01*
X046655Y007034D02*
X040446Y007034D01*
X040348Y006935D02*
X046730Y006935D01*
X046779Y006738D02*
X047253Y006738D01*
X047253Y006837D02*
X039849Y006837D01*
X039903Y006935D02*
X039959Y006935D01*
X039751Y006738D02*
X046277Y006738D01*
X046655Y007329D02*
X040553Y007329D01*
X040553Y007428D02*
X046732Y007428D01*
X046842Y007526D02*
X040499Y007526D01*
X040401Y007625D02*
X046842Y007625D01*
X046839Y007723D02*
X036453Y007723D01*
X036453Y007625D02*
X039906Y007625D01*
X039808Y007526D02*
X036442Y007526D01*
X036344Y007428D02*
X039309Y007428D01*
X039211Y007329D02*
X036245Y007329D01*
X036205Y007231D02*
X039112Y007231D01*
X039103Y007132D02*
X036205Y007132D01*
X036205Y007034D02*
X039103Y007034D01*
X039103Y006935D02*
X036205Y006935D01*
X036205Y006837D02*
X039158Y006837D01*
X039256Y006738D02*
X036205Y006738D01*
X035704Y007106D02*
X035703Y007106D01*
X035503Y007106D01*
X035403Y007106D01*
X036453Y007822D02*
X044281Y007822D01*
X044182Y007921D02*
X036453Y007921D01*
X036453Y008019D02*
X044084Y008019D01*
X044053Y008118D02*
X036453Y008118D01*
X036413Y008216D02*
X044053Y008216D01*
X044053Y008315D02*
X036314Y008315D01*
X036216Y008413D02*
X044053Y008413D01*
X044102Y008512D02*
X036117Y008512D01*
X035489Y008512D02*
X034667Y008512D01*
X034569Y008610D02*
X044200Y008610D01*
X045576Y007822D02*
X046743Y007822D01*
X046743Y007921D02*
X045675Y007921D01*
X045773Y008019D02*
X046743Y008019D01*
X046743Y008118D02*
X045872Y008118D01*
X045970Y008216D02*
X046743Y008216D01*
X046743Y008315D02*
X046069Y008315D01*
X046167Y008413D02*
X046743Y008413D01*
X046743Y008512D02*
X046253Y008512D01*
X046253Y008610D02*
X046743Y008610D01*
X046743Y008709D02*
X046253Y008709D01*
X046253Y008807D02*
X046743Y008807D01*
X046743Y008906D02*
X046253Y008906D01*
X046162Y009004D02*
X046743Y009004D01*
X046743Y009103D02*
X046064Y009103D01*
X045965Y009202D02*
X046743Y009202D01*
X046743Y009300D02*
X028233Y009300D01*
X028233Y009399D02*
X046743Y009399D01*
X046743Y009497D02*
X028233Y009497D01*
X028233Y009596D02*
X046743Y009596D01*
X046743Y009694D02*
X028233Y009694D01*
X028192Y009793D02*
X046743Y009793D01*
X046743Y009891D02*
X028153Y009891D01*
X028153Y009961D02*
X028153Y009961D01*
X028153Y009990D02*
X046743Y009990D01*
X046743Y010088D02*
X028153Y010088D01*
X028153Y010187D02*
X046743Y010187D01*
X046743Y010286D02*
X028119Y010286D01*
X028021Y010384D02*
X046743Y010384D01*
X049604Y012651D02*
X049653Y012651D01*
X047653Y015256D02*
X047014Y014617D01*
X046155Y014617D01*
X045653Y014656D02*
X045453Y014856D01*
X045438Y014756D01*
X046894Y015114D02*
X048107Y015114D01*
X048107Y015213D02*
X046903Y015213D01*
X046903Y015311D02*
X048107Y015311D01*
X048107Y015410D02*
X048002Y015410D01*
X047937Y015640D02*
X048452Y015640D01*
X047937Y015640D02*
X047853Y015756D01*
X047607Y015508D02*
X046903Y015508D01*
X046903Y015410D02*
X047705Y015410D01*
X047508Y015607D02*
X046903Y015607D01*
X046903Y015705D02*
X047503Y015705D01*
X047503Y015804D02*
X046903Y015804D01*
X046903Y015903D02*
X047505Y015903D01*
X047603Y016001D02*
X046903Y016001D01*
X046903Y016100D02*
X047702Y016100D01*
X048005Y016100D02*
X048107Y016100D01*
X048107Y016198D02*
X046903Y016198D01*
X046903Y016297D02*
X048107Y016297D01*
X048107Y016395D02*
X046903Y016395D01*
X046903Y016494D02*
X048107Y016494D01*
X048169Y016592D02*
X046903Y016592D01*
X048104Y016001D02*
X048107Y016001D01*
X049029Y015506D02*
X049053Y015506D01*
X049053Y014756D02*
X049029Y014756D01*
X049678Y014756D02*
X049703Y014756D01*
X044358Y018169D02*
X044286Y018169D01*
X044103Y018506D02*
X044128Y018531D01*
X044653Y018531D01*
X047203Y019256D02*
X047203Y019932D01*
X046853Y020456D02*
X043603Y020456D01*
X043611Y020731D02*
X046845Y020731D01*
X046870Y020830D02*
X043513Y020830D01*
X043414Y020928D02*
X050053Y020928D01*
X050053Y020830D02*
X048537Y020830D01*
X048553Y020731D02*
X050053Y020731D01*
X050053Y020633D02*
X048553Y020633D01*
X048553Y020534D02*
X050053Y020534D01*
X050053Y020436D02*
X048553Y020436D01*
X048541Y020337D02*
X050053Y020337D01*
X050053Y020238D02*
X048479Y020238D01*
X048553Y020140D02*
X050053Y020140D01*
X050053Y020041D02*
X048553Y020041D01*
X048553Y019943D02*
X050053Y019943D01*
X050053Y019844D02*
X048553Y019844D01*
X048553Y019746D02*
X050053Y019746D01*
X048203Y019932D02*
X048203Y019256D01*
X048203Y019932D02*
X048203Y020006D01*
X048203Y020581D02*
X048078Y020581D01*
X050053Y021027D02*
X043316Y021027D01*
X043217Y021125D02*
X050053Y021125D01*
X038753Y020534D02*
X037971Y020534D01*
X038003Y020436D02*
X038753Y020436D01*
X039399Y014621D02*
X039408Y014621D01*
X039408Y014523D02*
X039399Y014523D01*
X039329Y014424D02*
X039478Y014424D01*
X038829Y014424D02*
X038716Y014424D01*
X035391Y008413D02*
X034766Y008413D01*
X034864Y008315D02*
X035292Y008315D01*
X035194Y008216D02*
X034953Y008216D01*
X034953Y008118D02*
X035153Y008118D01*
X035097Y008019D02*
X034953Y008019D01*
X034203Y008056D02*
X033828Y008231D01*
X039698Y007428D02*
X039753Y007428D01*
X040103Y007306D02*
X040153Y007306D01*
X046269Y004077D02*
X046303Y004077D01*
X046903Y004506D02*
X047703Y005306D01*
X048179Y005782D01*
X048235Y005555D02*
X048395Y005555D01*
X048461Y005457D02*
X048137Y005457D01*
X048038Y005358D02*
X050053Y005358D01*
X050053Y005260D02*
X047940Y005260D01*
X047841Y005161D02*
X050053Y005161D01*
X050053Y005063D02*
X047742Y005063D01*
X047644Y004964D02*
X050053Y004964D01*
X050053Y004866D02*
X047545Y004866D01*
X047447Y004767D02*
X050053Y004767D01*
X050053Y004669D02*
X047348Y004669D01*
X047250Y004570D02*
X050053Y004570D01*
X050053Y004471D02*
X047151Y004471D01*
X047103Y004373D02*
X050053Y004373D01*
X050053Y004274D02*
X047103Y004274D01*
X047103Y004176D02*
X050053Y004176D01*
X050053Y004077D02*
X047103Y004077D01*
X047103Y003979D02*
X050053Y003979D01*
X050053Y003880D02*
X047103Y003880D01*
X047103Y003782D02*
X050053Y003782D01*
X050053Y003683D02*
X047103Y003683D01*
X047103Y003585D02*
X050053Y003585D01*
X050053Y003486D02*
X047103Y003486D01*
X047103Y003388D02*
X050053Y003388D01*
X050053Y003289D02*
X047103Y003289D01*
X047070Y003190D02*
X050053Y003190D01*
X050053Y003092D02*
X046972Y003092D01*
X046873Y002993D02*
X050053Y002993D01*
X050053Y002895D02*
X046775Y002895D01*
X046676Y002796D02*
X050053Y002796D01*
X050053Y002698D02*
X046577Y002698D01*
X046479Y002599D02*
X050053Y002599D01*
X050053Y002501D02*
X046380Y002501D01*
X046153Y002556D02*
X046903Y003306D01*
X046903Y004506D01*
X047703Y005306D02*
X047803Y005406D01*
X048065Y007180D02*
X048065Y007195D01*
X039853Y002556D02*
X039615Y002818D01*
X039465Y002832D01*
X039853Y002556D02*
X046153Y002556D01*
X021303Y009206D02*
X021303Y011306D01*
D37*
X034203Y008056D02*
X034303Y007956D01*
X034303Y007706D01*
X034653Y007356D01*
X034653Y006606D01*
X034753Y006506D01*
X035503Y006206D02*
X035503Y006056D01*
X035403Y006056D01*
X034953Y005606D01*
X035003Y005606D01*
X035053Y005556D01*
X035053Y004656D01*
X034853Y004456D01*
X034753Y004456D02*
X034303Y004456D01*
X034303Y004806D01*
X034453Y004756D01*
X034303Y005006D02*
X034753Y005006D01*
X034753Y004456D01*
X034303Y005006D02*
X034303Y006056D01*
X034303Y007656D01*
X034203Y007756D01*
X034203Y007906D01*
X035503Y007506D02*
X035503Y007106D01*
X035503Y006206D01*
X035503Y007506D02*
X035803Y007806D01*
X035803Y007856D01*
X035803Y007906D01*
X041553Y005156D02*
X041503Y004956D01*
X041503Y004906D01*
X041503Y004706D01*
X041553Y005156D02*
X042453Y006056D01*
X043503Y004706D02*
X044153Y004656D01*
D38*
X044353Y004456D02*
X044553Y004256D01*
X043503Y004506D02*
X043503Y004706D01*
X043503Y005006D01*
X042838Y005006D01*
X042169Y005006D02*
X041703Y005056D01*
X041503Y004956D01*
X041503Y004906D02*
X041596Y004814D01*
X041696Y004206D01*
X043210Y004214D02*
X043503Y004506D01*
X043310Y004206D02*
X043210Y004214D01*
X029253Y004656D02*
X029203Y004606D01*
X029203Y004256D01*
X029060Y004114D01*
X029060Y003956D01*
X029253Y004656D02*
X029253Y004756D01*
X028953Y005056D01*
X028588Y004906D01*
X027919Y004906D02*
X027503Y005056D01*
X027253Y004806D01*
X027253Y004756D01*
X027446Y004564D01*
X027446Y003956D01*
X027203Y004706D02*
X027253Y004756D01*
D39*
X025229Y003632D02*
X025103Y003606D01*
X025229Y003556D01*
X021303Y006856D02*
X021303Y009206D01*
X038753Y005106D02*
X038953Y005106D01*
X039029Y004256D02*
X039179Y004182D01*
X038753Y003756D01*
X038553Y003556D01*
X038529Y003580D01*
X038441Y003580D01*
X038753Y003756D02*
X038853Y003856D01*
X039753Y003856D01*
X046953Y007906D02*
X046953Y012256D01*
X049678Y014682D02*
X049703Y014656D01*
X049678Y014682D02*
X049678Y014756D01*
X035453Y019156D02*
X035153Y018856D01*
X034838Y019141D02*
X034903Y019206D01*
X034929Y019256D01*
X034929Y019432D01*
X035503Y020106D01*
X034428Y019382D02*
X033603Y020106D01*
X034428Y019382D02*
X034428Y019256D01*
X034453Y019206D01*
X034523Y019136D01*
X034523Y018490D01*
X034838Y018490D02*
X034838Y019141D01*
D40*
X032253Y019556D02*
X032103Y019706D01*
X032103Y020906D01*
X032253Y021056D01*
X037003Y021056D01*
X036903Y020756D01*
X032253Y019556D02*
X032203Y019506D01*
X032203Y019481D01*
X032203Y019456D01*
X032153Y019406D01*
X030603Y019406D01*
X030453Y019556D01*
X028129Y019332D02*
X026753Y019332D01*
X026753Y019306D01*
X026703Y019256D01*
X025753Y019256D01*
X025403Y018906D01*
X025403Y018456D01*
X024603Y018606D02*
X024603Y019056D01*
X024653Y019106D01*
X024638Y019156D01*
X021053Y016156D02*
X021053Y016133D01*
X021053Y015406D01*
X022053Y014532D02*
X022053Y014006D01*
X022103Y013956D01*
X035803Y008056D02*
X035803Y007856D01*
X035803Y008056D02*
X035903Y008056D01*
X034853Y006956D02*
X034853Y006506D01*
X034753Y006506D01*
X034353Y006206D02*
X034253Y006206D01*
X034253Y006056D01*
X034303Y006056D01*
X034803Y006956D02*
X034853Y006956D01*
X037253Y013906D02*
X037253Y013931D01*
X037253Y013941D01*
X037953Y013941D01*
X037303Y013931D02*
X037303Y014056D01*
X037303Y013931D02*
X037253Y013931D01*
X037437Y016206D02*
X036803Y016206D01*
X036753Y016256D01*
D41*
X045303Y008256D02*
X045753Y008706D01*
X045303Y008256D02*
X044553Y008256D01*
X030003Y003906D02*
X029753Y004156D01*
X027203Y004706D02*
X027203Y005306D01*
X026853Y005656D01*
D42*
X029253Y004756D02*
X029753Y004256D01*
X029753Y004156D01*
D43*
X029403Y006306D03*
X028803Y006306D03*
X039503Y007056D03*
X040153Y007306D03*
X033653Y013206D03*
X033003Y013206D03*
X032203Y014456D03*
X031653Y014806D03*
M02*
