G75*
G70*
%OFA0B0*%
%FSLAX24Y24*%
%IPPOS*%
%LPD*%
%AMOC8*
5,1,8,0,0,1.08239X$1,22.5*
%
%ADD10C,0.0100*%
%ADD11C,0.0160*%
%ADD12C,0.0110*%
D10*
X002298Y002106D02*
X002298Y021456D01*
X033298Y021456D01*
X002298Y021456D01*
X002298Y002106D01*
X033298Y002106D01*
X033298Y021456D01*
X033298Y002106D01*
X002298Y002106D01*
X007748Y002056D02*
X007748Y000856D01*
X008798Y000856D01*
X009498Y000856D01*
X010798Y000856D01*
X011498Y000856D01*
X012548Y000856D01*
X012548Y002056D01*
X012548Y005606D01*
X011398Y005606D01*
X011231Y005873D02*
X011231Y006140D01*
X011098Y006007D02*
X011365Y006007D01*
X010898Y005606D02*
X009398Y005606D01*
X008898Y005606D02*
X007748Y005606D01*
X007748Y002056D01*
X012548Y002056D01*
X011348Y001356D02*
X010948Y001356D01*
X010798Y000856D01*
X011498Y000856D02*
X011348Y001356D01*
X009498Y000856D02*
X009348Y001356D01*
X008948Y001356D01*
X008798Y000856D01*
X014798Y000856D02*
X014798Y002056D01*
X019598Y002056D01*
X019598Y000856D01*
X018548Y000856D01*
X017848Y000856D01*
X017998Y001356D01*
X018398Y001356D01*
X018548Y000856D01*
X017848Y000856D02*
X016548Y000856D01*
X015848Y000856D01*
X015998Y001356D01*
X016398Y001356D01*
X016548Y000856D01*
X015848Y000856D02*
X014798Y000856D01*
X014798Y002056D02*
X014798Y005606D01*
X015948Y005606D01*
X016448Y005606D02*
X017948Y005606D01*
X018448Y005606D02*
X019598Y005606D01*
X019598Y002056D01*
X021998Y002006D02*
X021998Y000806D01*
X023048Y000806D01*
X023748Y000806D01*
X025048Y000806D01*
X025748Y000806D01*
X026798Y000806D01*
X026798Y002006D01*
X026798Y005556D01*
X025648Y005556D01*
X025148Y005556D02*
X023648Y005556D01*
X023415Y005807D02*
X023148Y005807D01*
X023148Y005556D02*
X021998Y005556D01*
X021998Y002006D01*
X026798Y002006D01*
X025598Y001306D02*
X025198Y001306D01*
X025048Y000806D01*
X025748Y000806D02*
X025598Y001306D01*
X023748Y000806D02*
X023598Y001306D01*
X023198Y001306D01*
X023048Y000806D01*
X024931Y005773D02*
X024931Y006040D01*
X024798Y005907D02*
X025065Y005907D01*
X019115Y006057D02*
X018848Y006057D01*
X018981Y006190D02*
X018981Y005923D01*
X016115Y006657D02*
X015848Y006657D01*
X009215Y005957D02*
X008948Y005957D01*
X015948Y010656D02*
X015948Y010923D01*
X016081Y011057D01*
X016215Y010923D01*
X016215Y010656D01*
X016215Y010857D02*
X015948Y010857D01*
X015848Y011206D02*
X016348Y011206D01*
X016598Y011456D01*
X016598Y012956D01*
X016848Y013206D01*
X017348Y013206D01*
X017598Y012956D01*
X017598Y011456D01*
X017348Y011206D01*
X016848Y011206D01*
X016598Y011456D01*
X015848Y011206D02*
X015598Y011456D01*
X015598Y012956D01*
X015848Y013206D01*
X016348Y013206D01*
X016598Y012956D01*
X016998Y011057D02*
X017198Y011057D01*
X017265Y010990D01*
X017265Y010923D01*
X017198Y010857D01*
X016998Y010857D01*
X016998Y011057D02*
X016998Y010656D01*
X017198Y010656D01*
X017265Y010723D01*
X017265Y010790D01*
X017198Y010857D01*
X021198Y015506D02*
X021598Y015506D01*
X021598Y015773D01*
X021598Y015967D02*
X021198Y015967D01*
X021198Y016234D01*
X021198Y016427D02*
X021198Y016627D01*
X021264Y016694D01*
X021531Y016694D01*
X021598Y016627D01*
X021598Y016427D01*
X021198Y016427D01*
X021398Y016100D02*
X021398Y015967D01*
X021598Y015967D02*
X021598Y016234D01*
X021998Y016284D02*
X021998Y016017D01*
X022398Y016017D01*
X022398Y016284D01*
X022398Y016477D02*
X022398Y016677D01*
X022331Y016744D01*
X022064Y016744D01*
X021998Y016677D01*
X021998Y016477D01*
X022398Y016477D01*
X022198Y016150D02*
X022198Y016017D01*
X022398Y015823D02*
X022398Y015556D01*
X021998Y015556D01*
X022198Y016938D02*
X022198Y017204D01*
X022398Y017138D02*
X021998Y017138D01*
X022198Y016938D01*
X021598Y016954D02*
X021598Y017088D01*
X021531Y017154D01*
X021465Y017154D01*
X021398Y017088D01*
X021398Y017021D01*
X021398Y017088D02*
X021331Y017154D01*
X021264Y017154D01*
X021198Y017088D01*
X021198Y016954D01*
X021264Y016888D01*
X021531Y016888D02*
X021598Y016954D01*
X019198Y019306D02*
X016798Y019306D01*
X017728Y019706D02*
X017728Y020106D01*
X017728Y020506D01*
X017878Y020506D02*
X017878Y019706D01*
X018128Y019706D01*
X018128Y020506D01*
X017878Y020506D01*
X018268Y020506D02*
X018268Y020106D01*
X018548Y020106D01*
X018268Y020106D02*
X018268Y019706D01*
X017728Y020106D02*
X017448Y020106D01*
X016798Y020906D02*
X016742Y020904D01*
X016687Y020898D01*
X016632Y020889D01*
X016577Y020875D01*
X016524Y020858D01*
X016473Y020837D01*
X016422Y020812D01*
X016374Y020784D01*
X016328Y020753D01*
X016284Y020719D01*
X016242Y020681D01*
X016203Y020641D01*
X016168Y020599D01*
X016135Y020553D01*
X016105Y020506D01*
X016079Y020457D01*
X016056Y020406D01*
X016037Y020353D01*
X016022Y020300D01*
X016010Y020245D01*
X016002Y020190D01*
X015998Y020134D01*
X015998Y020078D01*
X016002Y020022D01*
X016010Y019967D01*
X016022Y019912D01*
X016037Y019859D01*
X016056Y019806D01*
X016079Y019755D01*
X016105Y019706D01*
X016135Y019659D01*
X016168Y019613D01*
X016203Y019571D01*
X016242Y019531D01*
X016284Y019493D01*
X016328Y019459D01*
X016374Y019428D01*
X016422Y019400D01*
X016473Y019375D01*
X016524Y019354D01*
X016577Y019337D01*
X016632Y019323D01*
X016687Y019314D01*
X016742Y019308D01*
X016798Y019306D01*
X019198Y019306D02*
X019254Y019308D01*
X019309Y019314D01*
X019364Y019323D01*
X019419Y019337D01*
X019472Y019354D01*
X019523Y019375D01*
X019574Y019400D01*
X019622Y019428D01*
X019668Y019459D01*
X019712Y019493D01*
X019754Y019531D01*
X019793Y019571D01*
X019828Y019613D01*
X019861Y019659D01*
X019891Y019706D01*
X019917Y019755D01*
X019940Y019806D01*
X019959Y019859D01*
X019974Y019912D01*
X019986Y019967D01*
X019994Y020022D01*
X019998Y020078D01*
X019998Y020134D01*
X019994Y020190D01*
X019986Y020245D01*
X019974Y020300D01*
X019959Y020353D01*
X019940Y020406D01*
X019917Y020457D01*
X019891Y020506D01*
X019861Y020553D01*
X019828Y020599D01*
X019793Y020641D01*
X019754Y020681D01*
X019712Y020719D01*
X019668Y020753D01*
X019622Y020784D01*
X019574Y020812D01*
X019523Y020837D01*
X019472Y020858D01*
X019419Y020875D01*
X019364Y020889D01*
X019309Y020898D01*
X019254Y020904D01*
X019198Y020906D01*
X016798Y020906D01*
X009848Y017706D02*
X009448Y017706D01*
X009948Y017357D02*
X009948Y016956D01*
X010215Y016956D01*
X010408Y016956D02*
X010675Y016956D01*
X010869Y016956D02*
X011069Y016956D01*
X011136Y017023D01*
X011136Y017290D01*
X011069Y017357D01*
X010869Y017357D01*
X010869Y016956D01*
X010542Y017157D02*
X010408Y017157D01*
X010408Y017357D02*
X010408Y016956D01*
X010408Y017357D02*
X010675Y017357D01*
X011329Y017223D02*
X011462Y017357D01*
X011462Y016956D01*
X011329Y016956D02*
X011596Y016956D01*
X011998Y017006D02*
X012265Y017006D01*
X012458Y017006D02*
X012725Y017006D01*
X012919Y017006D02*
X013119Y017006D01*
X013186Y017073D01*
X013186Y017340D01*
X013119Y017407D01*
X012919Y017407D01*
X012919Y017006D01*
X012592Y017207D02*
X012458Y017207D01*
X012458Y017407D02*
X012458Y017006D01*
X012458Y017407D02*
X012725Y017407D01*
X013379Y017340D02*
X013446Y017407D01*
X013579Y017407D01*
X013646Y017340D01*
X013646Y017273D01*
X013379Y017006D01*
X013646Y017006D01*
X011998Y017006D02*
X011998Y017407D01*
X007398Y016656D02*
X006998Y016656D01*
X026998Y012157D02*
X026998Y011756D01*
X026998Y011890D02*
X027198Y011890D01*
X027265Y011957D01*
X027265Y012090D01*
X027198Y012157D01*
X026998Y012157D01*
X027458Y012157D02*
X027458Y011756D01*
X027592Y011890D01*
X027725Y011756D01*
X027725Y012157D01*
X027919Y012157D02*
X028119Y012157D01*
X028186Y012090D01*
X028186Y011957D01*
X028119Y011890D01*
X027919Y011890D01*
X028052Y011890D02*
X028186Y011756D01*
X028379Y011690D02*
X028646Y011690D01*
X028839Y011756D02*
X029106Y011756D01*
X029300Y011823D02*
X029300Y011957D01*
X029366Y012023D01*
X029500Y012023D01*
X029567Y011957D01*
X029567Y011890D01*
X029300Y011890D01*
X029300Y011823D02*
X029366Y011756D01*
X029500Y011756D01*
X029760Y011823D02*
X029760Y011957D01*
X029827Y012023D01*
X030027Y012023D01*
X030027Y012157D02*
X030027Y011756D01*
X029827Y011756D01*
X029760Y011823D01*
X028839Y011756D02*
X028839Y012157D01*
X027919Y012157D02*
X027919Y011756D01*
D11*
X019198Y019106D02*
X016798Y019106D01*
X016735Y019108D01*
X016673Y019114D01*
X016611Y019124D01*
X016549Y019137D01*
X016489Y019155D01*
X016430Y019176D01*
X016372Y019201D01*
X016316Y019230D01*
X016262Y019262D01*
X016210Y019297D01*
X016161Y019335D01*
X016113Y019377D01*
X016069Y019421D01*
X016027Y019469D01*
X015989Y019518D01*
X015954Y019570D01*
X015922Y019624D01*
X015893Y019680D01*
X015868Y019738D01*
X015847Y019797D01*
X015829Y019857D01*
X015816Y019919D01*
X015806Y019981D01*
X015800Y020043D01*
X015798Y020106D01*
X015800Y020169D01*
X015806Y020231D01*
X015816Y020293D01*
X015829Y020355D01*
X015847Y020415D01*
X015868Y020474D01*
X015893Y020532D01*
X015922Y020588D01*
X015954Y020642D01*
X015989Y020694D01*
X016027Y020743D01*
X016069Y020791D01*
X016113Y020835D01*
X016161Y020877D01*
X016210Y020915D01*
X016262Y020950D01*
X016316Y020982D01*
X016372Y021011D01*
X016430Y021036D01*
X016489Y021057D01*
X016549Y021075D01*
X016611Y021088D01*
X016673Y021098D01*
X016735Y021104D01*
X016798Y021106D01*
X019198Y021106D01*
X019261Y021104D01*
X019323Y021098D01*
X019385Y021088D01*
X019447Y021075D01*
X019507Y021057D01*
X019566Y021036D01*
X019624Y021011D01*
X019680Y020982D01*
X019734Y020950D01*
X019786Y020915D01*
X019835Y020877D01*
X019883Y020835D01*
X019927Y020791D01*
X019969Y020743D01*
X020007Y020694D01*
X020042Y020642D01*
X020074Y020588D01*
X020103Y020532D01*
X020128Y020474D01*
X020149Y020415D01*
X020167Y020355D01*
X020180Y020293D01*
X020190Y020231D01*
X020196Y020169D01*
X020198Y020106D01*
X020196Y020043D01*
X020190Y019981D01*
X020180Y019919D01*
X020167Y019857D01*
X020149Y019797D01*
X020128Y019738D01*
X020103Y019680D01*
X020074Y019624D01*
X020042Y019570D01*
X020007Y019518D01*
X019969Y019469D01*
X019927Y019421D01*
X019883Y019377D01*
X019835Y019335D01*
X019786Y019297D01*
X019734Y019262D01*
X019680Y019230D01*
X019624Y019201D01*
X019566Y019176D01*
X019507Y019155D01*
X019447Y019137D01*
X019385Y019124D01*
X019323Y019114D01*
X019261Y019108D01*
X019198Y019106D01*
D12*
X020803Y020061D02*
X021000Y020061D01*
X020901Y020061D02*
X020901Y020652D01*
X020803Y020652D02*
X021000Y020652D01*
X021233Y020554D02*
X021331Y020652D01*
X021528Y020652D01*
X021626Y020554D01*
X021626Y020455D01*
X021233Y020061D01*
X021626Y020061D01*
X021877Y020160D02*
X021976Y020061D01*
X022172Y020061D01*
X022271Y020160D01*
X022271Y020554D02*
X022172Y020652D01*
X021976Y020652D01*
X021877Y020554D01*
X021877Y020160D01*
X015736Y019605D02*
X015539Y019211D01*
X015342Y019605D01*
X015091Y019507D02*
X015091Y019408D01*
X014697Y019408D01*
X014697Y019310D02*
X014697Y019507D01*
X014796Y019605D01*
X014993Y019605D01*
X015091Y019507D01*
X014993Y019211D02*
X014796Y019211D01*
X014697Y019310D01*
X014447Y019310D02*
X014447Y019704D01*
X014348Y019802D01*
X014053Y019802D01*
X014053Y019211D01*
X014348Y019211D01*
X014447Y019310D01*
X005686Y017252D02*
X005686Y016661D01*
X005390Y016661D01*
X005292Y016760D01*
X005292Y016957D01*
X005390Y017055D01*
X005686Y017055D01*
X005041Y016957D02*
X005041Y016661D01*
X004844Y016661D02*
X004844Y016957D01*
X004943Y017055D01*
X005041Y016957D01*
X004844Y016957D02*
X004746Y017055D01*
X004647Y017055D01*
X004647Y016661D01*
X004397Y016760D02*
X004298Y016661D01*
X004101Y016661D01*
X004003Y016760D01*
X004003Y017154D01*
X004101Y017252D01*
X004298Y017252D01*
X004397Y017154D01*
X015203Y007652D02*
X015498Y007652D01*
X015597Y007554D01*
X015597Y007455D01*
X015498Y007357D01*
X015203Y007357D01*
X015203Y007652D02*
X015203Y007061D01*
X015498Y007061D01*
X015597Y007160D01*
X015597Y007258D01*
X015498Y007357D01*
X015847Y007160D02*
X015946Y007258D01*
X016241Y007258D01*
X016241Y007357D02*
X016241Y007061D01*
X015946Y007061D01*
X015847Y007160D01*
X015946Y007455D02*
X016143Y007455D01*
X016241Y007357D01*
X016492Y007455D02*
X016689Y007455D01*
X016590Y007554D02*
X016590Y007160D01*
X016689Y007061D01*
X005419Y006255D02*
X005222Y006255D01*
X005320Y006354D02*
X005320Y005960D01*
X005419Y005861D01*
X004989Y006157D02*
X004792Y006157D01*
X004890Y006354D02*
X004890Y005861D01*
X004541Y006058D02*
X004147Y006058D01*
X004147Y005960D02*
X004147Y006157D01*
X004246Y006255D01*
X004443Y006255D01*
X004541Y006157D01*
X004541Y006058D01*
X004443Y005861D02*
X004246Y005861D01*
X004147Y005960D01*
X003897Y005861D02*
X003503Y005861D01*
X003503Y006452D01*
X004890Y006354D02*
X004989Y006452D01*
X028453Y005502D02*
X028453Y004911D01*
X028453Y005108D02*
X028748Y005108D01*
X028847Y005207D01*
X028847Y005404D01*
X028748Y005502D01*
X028453Y005502D01*
X029097Y005305D02*
X029196Y005305D01*
X029196Y004911D01*
X029294Y004911D02*
X029097Y004911D01*
X028847Y004911D02*
X028650Y005108D01*
X029196Y005502D02*
X029196Y005600D01*
X029527Y005207D02*
X029527Y005010D01*
X029626Y004911D01*
X029921Y004911D01*
X029921Y004813D02*
X029921Y005305D01*
X029626Y005305D01*
X029527Y005207D01*
X030172Y005207D02*
X030270Y005305D01*
X030467Y005305D01*
X030565Y005207D01*
X030565Y004911D01*
X030915Y005010D02*
X031013Y004911D01*
X030915Y005010D02*
X030915Y005404D01*
X031013Y005305D02*
X030816Y005305D01*
X031302Y005708D02*
X031499Y005511D01*
X031302Y005708D02*
X031893Y005708D01*
X031893Y005511D02*
X031893Y005905D01*
X031893Y006156D02*
X031499Y006550D01*
X031401Y006550D01*
X031302Y006451D01*
X031302Y006254D01*
X031401Y006156D01*
X031893Y006156D02*
X031893Y006550D01*
X031893Y006801D02*
X031302Y007194D01*
X031401Y007445D02*
X031302Y007543D01*
X031302Y007740D01*
X031401Y007839D01*
X031499Y007839D01*
X031893Y007445D01*
X031893Y007839D01*
X031795Y008090D02*
X031696Y008090D01*
X031598Y008188D01*
X031598Y008385D01*
X031696Y008483D01*
X031795Y008483D01*
X031893Y008385D01*
X031893Y008188D01*
X031795Y008090D01*
X031598Y008188D02*
X031499Y008090D01*
X031401Y008090D01*
X031302Y008188D01*
X031302Y008385D01*
X031401Y008483D01*
X031499Y008483D01*
X031598Y008385D01*
X031696Y008734D02*
X031302Y008734D01*
X031696Y008734D02*
X031893Y008931D01*
X031696Y009128D01*
X031302Y009128D01*
X031598Y009379D02*
X031598Y009772D01*
X031401Y010023D02*
X031302Y010122D01*
X031302Y010318D01*
X031401Y010417D01*
X031499Y010417D01*
X031893Y010023D01*
X031893Y010417D01*
X031893Y010668D02*
X031499Y011061D01*
X031499Y011312D02*
X031302Y011509D01*
X031893Y011509D01*
X031893Y011312D02*
X031893Y011706D01*
X031795Y011957D02*
X031893Y012055D01*
X031893Y012252D01*
X031795Y012350D01*
X031598Y012350D01*
X031499Y012252D01*
X031499Y012154D01*
X031598Y011957D01*
X031302Y011957D01*
X031302Y012350D01*
X031499Y012601D02*
X031302Y012798D01*
X031499Y012995D01*
X031893Y012995D01*
X031598Y012995D02*
X031598Y012601D01*
X031499Y012601D02*
X031893Y012601D01*
X031893Y011061D02*
X031499Y010668D01*
X030172Y005502D02*
X030172Y004911D01*
X029921Y004813D02*
X029822Y004715D01*
X029724Y004715D01*
M02*
