G75*
G70*
%OFA0B0*%
%FSLAX24Y24*%
%IPPOS*%
%LPD*%
%AMOC8*
5,1,8,0,0,1.08239X$1,22.5*
%
%ADD10C,0.0750*%
%ADD11C,0.0640*%
%ADD12C,0.0634*%
%ADD13C,0.0560*%
%ADD14C,0.2300*%
%ADD15OC8,0.0600*%
%ADD16C,0.0476*%
%ADD17C,0.0400*%
%ADD18C,0.0240*%
%ADD19C,0.0400*%
%ADD20C,0.0320*%
%ADD21C,0.0160*%
%ADD22C,0.0200*%
%ADD23C,0.0560*%
%ADD24C,0.0500*%
%ADD25C,0.0100*%
%ADD26C,0.0500*%
%ADD27C,0.0120*%
D10*
X002905Y005839D02*
X003655Y005839D01*
X003655Y007339D02*
X002905Y007339D01*
X002905Y017239D02*
X003655Y017239D01*
X003655Y018739D02*
X002905Y018739D01*
X011380Y018464D02*
X011380Y017714D01*
X012880Y017714D02*
X012880Y018464D01*
D11*
X022560Y004139D02*
X023200Y004139D01*
X024260Y004139D02*
X024900Y004139D01*
X025960Y004139D02*
X026600Y004139D01*
X026600Y003139D02*
X025960Y003139D01*
X025960Y002139D02*
X026600Y002139D01*
X024900Y002139D02*
X024260Y002139D01*
X023200Y002139D02*
X022560Y002139D01*
X022560Y003139D02*
X023200Y003139D01*
X024260Y003139D02*
X024900Y003139D01*
D12*
X027813Y003139D02*
X028447Y003139D01*
X028447Y002139D02*
X027813Y002139D01*
X027813Y004139D02*
X028447Y004139D01*
X020730Y002805D02*
X020730Y002172D01*
X019730Y002172D02*
X019730Y002805D01*
X018730Y002805D02*
X018730Y002172D01*
X006447Y002639D02*
X005813Y002639D01*
X005813Y001639D02*
X006447Y001639D01*
D13*
X007430Y003839D03*
X007430Y004539D03*
X014180Y013939D03*
X009880Y017739D03*
X009880Y018439D03*
X009880Y019139D03*
X025780Y018389D03*
X026780Y018389D03*
X026280Y019389D03*
X027280Y019389D03*
D14*
X030530Y018339D03*
X030530Y002839D03*
X003030Y002839D03*
D15*
X016380Y017689D03*
X017380Y017689D03*
X018380Y017689D03*
X019380Y017689D03*
X020380Y017689D03*
X020380Y018689D03*
X019380Y018689D03*
X018380Y018689D03*
X017380Y018689D03*
X016380Y018689D03*
D16*
X017480Y006889D03*
X017480Y006239D03*
X017480Y004839D03*
D17*
X016030Y004889D03*
X013380Y004889D03*
X010880Y004889D03*
X009330Y005789D03*
X009530Y006789D03*
X007330Y006489D03*
X005830Y007339D03*
X007330Y007739D03*
X006580Y009489D03*
X006580Y009989D03*
X007080Y009989D03*
X007080Y010489D03*
X006580Y010489D03*
X006080Y010489D03*
X006080Y009989D03*
X006080Y009489D03*
X007580Y010489D03*
X009130Y010289D03*
X010580Y009789D03*
X013380Y007739D03*
X015980Y007739D03*
X018230Y006839D03*
X019080Y006939D03*
X019080Y007439D03*
X019680Y007439D03*
X019680Y006939D03*
X020980Y007839D03*
X019680Y007939D03*
X019680Y008439D03*
X019680Y008939D03*
X019030Y008939D03*
X019080Y008439D03*
X019080Y007939D03*
X018230Y009039D03*
X018530Y009589D03*
X019580Y010889D03*
X019330Y011389D03*
X018580Y012239D03*
X018380Y012939D03*
X016530Y013139D03*
X015930Y012389D03*
X015830Y010839D03*
X015280Y010739D03*
X014780Y010739D03*
X014280Y010739D03*
X013780Y010739D03*
X013780Y010139D03*
X014280Y010139D03*
X014780Y010139D03*
X015280Y010139D03*
X010880Y012339D03*
X007680Y012189D03*
X005680Y013189D03*
X004480Y013739D03*
X001580Y013789D03*
X001580Y014289D03*
X001580Y014789D03*
X001580Y015289D03*
X001580Y015789D03*
X001580Y016289D03*
X001580Y016789D03*
X001580Y017289D03*
X001580Y017789D03*
X001580Y018289D03*
X001580Y018789D03*
X001580Y019289D03*
X001580Y019789D03*
X002030Y019789D03*
X002480Y019789D03*
X002930Y019789D03*
X003380Y019789D03*
X003830Y019789D03*
X004280Y019789D03*
X004730Y019789D03*
X005180Y019789D03*
X005630Y019789D03*
X006080Y019789D03*
X006530Y019789D03*
X006980Y019789D03*
X007430Y019789D03*
X007880Y019789D03*
X008330Y019789D03*
X008780Y019789D03*
X009230Y019789D03*
X009680Y019789D03*
X010130Y019789D03*
X010580Y019789D03*
X011030Y019789D03*
X011480Y019789D03*
X011930Y019789D03*
X012380Y019789D03*
X012830Y019789D03*
X013280Y019789D03*
X013730Y019789D03*
X014180Y019789D03*
X014630Y019789D03*
X015080Y019789D03*
X015530Y019789D03*
X015980Y019789D03*
X016430Y019789D03*
X016880Y019789D03*
X017330Y019789D03*
X017780Y019789D03*
X018230Y019789D03*
X018680Y019789D03*
X019130Y019789D03*
X019580Y019789D03*
X020030Y019789D03*
X020480Y019789D03*
X020930Y019789D03*
X021380Y019789D03*
X021830Y019789D03*
X022280Y019789D03*
X022730Y019789D03*
X023180Y019789D03*
X023630Y019789D03*
X024080Y019789D03*
X024530Y019789D03*
X024980Y019789D03*
X025430Y019789D03*
X025880Y019789D03*
X026780Y019789D03*
X027680Y019789D03*
X028130Y019789D03*
X028580Y019789D03*
X029030Y019789D03*
X029480Y019789D03*
X029930Y019789D03*
X026830Y017589D03*
X026280Y017589D03*
X025780Y017589D03*
X025130Y016739D03*
X024630Y015039D03*
X022480Y013889D03*
X022330Y013389D03*
X021180Y012239D03*
X020480Y012639D03*
X021930Y011739D03*
X021130Y010889D03*
X017630Y014389D03*
X017630Y014989D03*
X017030Y015289D03*
X016380Y015889D03*
X016880Y016139D03*
X018380Y015189D03*
X018880Y015639D03*
X020380Y016189D03*
X021080Y015739D03*
X022230Y014939D03*
X021630Y017539D03*
X021630Y018889D03*
X027580Y016189D03*
X027980Y015789D03*
X029930Y015939D03*
X029930Y016389D03*
X029930Y016839D03*
X029930Y015489D03*
X029930Y015039D03*
X029930Y014589D03*
X029930Y014139D03*
X029930Y013689D03*
X029186Y013845D03*
X028580Y014039D03*
X027980Y013889D03*
X027580Y013389D03*
X028680Y013389D03*
X029930Y013239D03*
X029930Y007039D03*
X029930Y006589D03*
X029930Y006139D03*
X029930Y005689D03*
X029930Y005239D03*
X029930Y004789D03*
X029930Y004339D03*
X028980Y005189D03*
X026880Y006489D03*
X024680Y006489D03*
X022880Y005339D03*
X022330Y005689D03*
X021080Y006489D03*
X020730Y004289D03*
X021980Y004389D03*
X021680Y002489D03*
X021830Y001439D03*
X021380Y001439D03*
X020930Y001439D03*
X020480Y001439D03*
X020030Y001439D03*
X019580Y001439D03*
X019130Y001439D03*
X018680Y001439D03*
X018230Y001439D03*
X017780Y001439D03*
X017330Y001439D03*
X016880Y001439D03*
X016430Y001439D03*
X015980Y001439D03*
X015530Y001439D03*
X015080Y001439D03*
X014630Y001439D03*
X014180Y001439D03*
X013730Y001439D03*
X013280Y001439D03*
X012830Y001439D03*
X012380Y001439D03*
X011930Y001439D03*
X011480Y001439D03*
X011030Y001439D03*
X010580Y001439D03*
X010130Y001439D03*
X009680Y001439D03*
X009230Y001439D03*
X008780Y001439D03*
X010630Y002439D03*
X012680Y002439D03*
X008280Y004739D03*
X007930Y002689D03*
X005180Y001439D03*
X004730Y001439D03*
X004280Y001439D03*
X003830Y001439D03*
X003380Y001439D03*
X002930Y001439D03*
X002480Y001439D03*
X002030Y001439D03*
X001580Y001439D03*
X001580Y001889D03*
X001580Y002339D03*
X001580Y002789D03*
X001580Y003289D03*
X001580Y003789D03*
X001580Y004289D03*
X001580Y004789D03*
X001580Y005289D03*
X001580Y005789D03*
X001580Y006289D03*
X001580Y006789D03*
X001580Y007289D03*
X001580Y007789D03*
X001580Y008289D03*
X001580Y008789D03*
X001580Y009289D03*
X001580Y009789D03*
X001580Y010289D03*
X001580Y010789D03*
X001580Y011289D03*
X001580Y011789D03*
X001580Y012289D03*
X001580Y012789D03*
X001580Y013289D03*
X003330Y010239D03*
X003330Y008939D03*
X010830Y015139D03*
X011380Y016089D03*
X012330Y016139D03*
X011380Y016889D03*
X014480Y017489D03*
X014480Y016139D03*
X015230Y013839D03*
X014480Y018889D03*
X007730Y017889D03*
X005180Y019139D03*
X007580Y015439D03*
X017930Y002489D03*
X022280Y001439D03*
X022730Y001439D03*
X023180Y001439D03*
X023630Y001439D03*
X024080Y001439D03*
X024530Y001439D03*
X024980Y001439D03*
X025430Y001439D03*
X025880Y001439D03*
X026330Y001439D03*
X026780Y001439D03*
X027230Y001439D03*
X027680Y001439D03*
X028130Y001439D03*
X028580Y001439D03*
X029030Y001439D03*
X029480Y001439D03*
X029930Y001389D03*
D18*
X026280Y004139D02*
X025630Y004789D01*
X024280Y004789D01*
X023530Y005539D01*
X023530Y011589D01*
X024930Y012989D01*
X028280Y012989D01*
X028680Y013389D01*
X029186Y013845D02*
X029186Y014182D01*
X029180Y014189D02*
X028480Y014889D01*
X025780Y014889D01*
X025280Y014389D01*
X022280Y014389D01*
X021180Y013289D01*
X021180Y012239D01*
X020480Y012639D02*
X020480Y013189D01*
X022230Y014939D01*
X022305Y015014D01*
X023480Y016189D01*
X027580Y016189D01*
X026280Y017589D02*
X026280Y018639D01*
X027030Y019389D01*
X027280Y019389D01*
X025780Y018389D02*
X025780Y017589D01*
X025130Y016739D02*
X023080Y016739D01*
X018580Y012239D01*
X018380Y012939D02*
X019380Y013939D01*
X019380Y017689D01*
X018880Y018189D02*
X018880Y015639D01*
X018380Y015189D02*
X018380Y017689D01*
X018880Y018189D02*
X019380Y018689D01*
X020380Y017689D02*
X020380Y016189D01*
X022480Y013889D02*
X027980Y013889D01*
X027580Y013389D02*
X022330Y013389D01*
X021930Y011739D02*
X022880Y010789D01*
X022880Y005339D01*
X022330Y005689D02*
X022330Y010339D01*
X021280Y011389D01*
X019330Y011389D01*
X016530Y013139D02*
X016530Y014589D01*
X015530Y015589D01*
X015530Y017839D01*
X016380Y018689D01*
X021080Y006489D02*
X021080Y005289D01*
X021980Y004389D01*
D19*
X017480Y004839D02*
X017480Y006239D01*
X017480Y006889D01*
X012030Y004089D02*
X012030Y003839D01*
X005830Y007339D02*
X003280Y007339D01*
D20*
X017480Y004839D02*
X020830Y004839D01*
X022530Y003139D01*
X022880Y003139D01*
X024580Y003139D01*
X026280Y003139D01*
D21*
X020930Y004839D02*
X020830Y004839D01*
D22*
X018730Y002489D02*
X017930Y002489D01*
X029186Y014182D02*
X029180Y014189D01*
X017380Y018689D02*
X016880Y018189D01*
X016880Y016139D01*
X016380Y015889D02*
X016380Y017689D01*
D23*
X014180Y013939D02*
X013380Y013939D01*
X012030Y012589D01*
X012030Y004089D01*
X007430Y003839D02*
X007430Y004539D01*
X006130Y005839D01*
X003280Y005839D01*
X012030Y012589D02*
X009880Y014739D01*
X009880Y017739D01*
X009880Y019139D01*
D24*
X011380Y018089D02*
X011380Y016089D01*
X012030Y003839D02*
X007430Y003839D01*
X012030Y003839D02*
X019030Y003839D01*
X019730Y003139D01*
X019730Y002489D01*
D25*
X001430Y001238D02*
X001430Y019939D01*
X029980Y019939D01*
X029980Y019518D01*
X029974Y019515D01*
X029861Y019455D01*
X029755Y019384D01*
X029656Y019303D01*
X029566Y019213D01*
X029485Y019114D01*
X029414Y019008D01*
X029353Y018895D01*
X029305Y018777D01*
X029267Y018655D01*
X029243Y018529D01*
X029230Y018402D01*
X029230Y018388D01*
X029980Y018388D01*
X029980Y018289D01*
X029230Y018289D01*
X029230Y018275D01*
X029243Y018147D01*
X029267Y018022D01*
X029305Y017900D01*
X029353Y017782D01*
X029414Y017669D01*
X029485Y017563D01*
X029566Y017464D01*
X029656Y017374D01*
X029755Y017293D01*
X029861Y017222D01*
X029974Y017162D01*
X029980Y017159D01*
X029980Y004018D01*
X029974Y004015D01*
X029861Y003955D01*
X029755Y003884D01*
X029656Y003803D01*
X029566Y003713D01*
X029485Y003614D01*
X029414Y003508D01*
X029353Y003395D01*
X029305Y003277D01*
X029267Y003155D01*
X029243Y003029D01*
X029230Y002902D01*
X029230Y002888D01*
X029980Y002888D01*
X029980Y002789D01*
X029230Y002789D01*
X029230Y002775D01*
X029243Y002647D01*
X029267Y002522D01*
X029305Y002400D01*
X029353Y002282D01*
X029414Y002169D01*
X029485Y002063D01*
X029566Y001964D01*
X029656Y001874D01*
X029755Y001793D01*
X029861Y001722D01*
X029974Y001662D01*
X029980Y001659D01*
X029980Y001238D01*
X006701Y001238D01*
X006711Y001243D01*
X006843Y001374D01*
X006914Y001546D01*
X006914Y001731D01*
X006843Y001903D01*
X006711Y002034D01*
X006540Y002105D01*
X005720Y002105D01*
X005549Y002034D01*
X005417Y001903D01*
X005346Y001731D01*
X005346Y001546D01*
X005417Y001374D01*
X005549Y001243D01*
X005559Y001238D01*
X001430Y001238D01*
X001430Y001286D02*
X005506Y001286D01*
X005413Y001384D02*
X001430Y001384D01*
X001430Y001483D02*
X005372Y001483D01*
X005346Y001581D02*
X003364Y001581D01*
X003346Y001576D02*
X003468Y001613D01*
X003586Y001662D01*
X003699Y001722D01*
X003805Y001793D01*
X003904Y001874D01*
X003994Y001964D01*
X004075Y002063D01*
X004146Y002169D01*
X004207Y002282D01*
X004255Y002400D01*
X004293Y002522D01*
X004317Y002647D01*
X004330Y002775D01*
X004330Y002789D01*
X003080Y002789D01*
X003080Y002888D01*
X004330Y002888D01*
X004330Y002902D01*
X004317Y003029D01*
X004293Y003155D01*
X004255Y003277D01*
X004207Y003395D01*
X004146Y003508D01*
X004075Y003614D01*
X003994Y003713D01*
X003904Y003803D01*
X003805Y003884D01*
X003699Y003955D01*
X003586Y004015D01*
X003468Y004064D01*
X003346Y004101D01*
X003221Y004126D01*
X003094Y004138D01*
X003080Y004138D01*
X003080Y002889D01*
X002980Y002889D01*
X002980Y004138D01*
X002966Y004138D01*
X002839Y004126D01*
X002714Y004101D01*
X002591Y004064D01*
X002474Y004015D01*
X002361Y003955D01*
X002255Y003884D01*
X002156Y003803D01*
X002066Y003713D01*
X001985Y003614D01*
X001914Y003508D01*
X001853Y003395D01*
X001805Y003277D01*
X001767Y003155D01*
X001743Y003029D01*
X001730Y002902D01*
X001730Y002888D01*
X002980Y002888D01*
X002980Y002789D01*
X001730Y002789D01*
X001730Y002775D01*
X001743Y002647D01*
X001767Y002522D01*
X001805Y002400D01*
X001853Y002282D01*
X001914Y002169D01*
X001985Y002063D01*
X002066Y001964D01*
X002156Y001874D01*
X002255Y001793D01*
X002361Y001722D01*
X002474Y001662D01*
X002591Y001613D01*
X002714Y001576D01*
X002839Y001551D01*
X002966Y001539D01*
X002980Y001539D01*
X002980Y002788D01*
X003080Y002788D01*
X003080Y001539D01*
X003094Y001539D01*
X003221Y001551D01*
X003346Y001576D01*
X003080Y001581D02*
X002980Y001581D01*
X002980Y001680D02*
X003080Y001680D01*
X003080Y001778D02*
X002980Y001778D01*
X002980Y001877D02*
X003080Y001877D01*
X003080Y001975D02*
X002980Y001975D01*
X002980Y002074D02*
X003080Y002074D01*
X003080Y002172D02*
X002980Y002172D01*
X002980Y002271D02*
X003080Y002271D01*
X003080Y002370D02*
X002980Y002370D01*
X002980Y002468D02*
X003080Y002468D01*
X003080Y002567D02*
X002980Y002567D01*
X002980Y002665D02*
X003080Y002665D01*
X003080Y002764D02*
X002980Y002764D01*
X002980Y002862D02*
X001430Y002862D01*
X001430Y002764D02*
X001731Y002764D01*
X001741Y002665D02*
X001430Y002665D01*
X001430Y002567D02*
X001759Y002567D01*
X001784Y002468D02*
X001430Y002468D01*
X001430Y002370D02*
X001817Y002370D01*
X001859Y002271D02*
X001430Y002271D01*
X001430Y002172D02*
X001912Y002172D01*
X001977Y002074D02*
X001430Y002074D01*
X001430Y001975D02*
X002057Y001975D01*
X002153Y001877D02*
X001430Y001877D01*
X001430Y001778D02*
X002277Y001778D01*
X002440Y001680D02*
X001430Y001680D01*
X001430Y001581D02*
X002696Y001581D01*
X003620Y001680D02*
X005346Y001680D01*
X005366Y001778D02*
X003783Y001778D01*
X003907Y001877D02*
X005407Y001877D01*
X005490Y001975D02*
X004003Y001975D01*
X004083Y002074D02*
X005645Y002074D01*
X005704Y002183D02*
X005776Y002172D01*
X006081Y002172D01*
X006081Y002590D01*
X005348Y002590D01*
X005358Y002529D01*
X005381Y002459D01*
X005414Y002394D01*
X005457Y002334D01*
X005509Y002282D01*
X005568Y002239D01*
X005634Y002206D01*
X005704Y002183D01*
X005771Y002172D02*
X004148Y002172D01*
X004201Y002271D02*
X005525Y002271D01*
X005431Y002370D02*
X004243Y002370D01*
X004276Y002468D02*
X005378Y002468D01*
X005352Y002567D02*
X004301Y002567D01*
X004319Y002665D02*
X006081Y002665D01*
X006081Y002687D02*
X006081Y002590D01*
X006178Y002590D01*
X006178Y002172D01*
X006484Y002172D01*
X006556Y002183D01*
X006626Y002206D01*
X006691Y002239D01*
X006751Y002282D01*
X006803Y002334D01*
X006846Y002394D01*
X006879Y002459D01*
X006902Y002529D01*
X006912Y002590D01*
X006179Y002590D01*
X006179Y002687D01*
X006912Y002687D01*
X006902Y002748D01*
X006879Y002818D01*
X006846Y002883D01*
X006803Y002943D01*
X006751Y002995D01*
X006691Y003038D01*
X006626Y003071D01*
X006556Y003094D01*
X006484Y003105D01*
X006178Y003105D01*
X006178Y002687D01*
X006081Y002687D01*
X005348Y002687D01*
X005358Y002748D01*
X005381Y002818D01*
X005414Y002883D01*
X005457Y002943D01*
X005509Y002995D01*
X005568Y003038D01*
X005634Y003071D01*
X005704Y003094D01*
X005776Y003105D01*
X006081Y003105D01*
X006081Y002687D01*
X006081Y002764D02*
X006178Y002764D01*
X006178Y002862D02*
X006081Y002862D01*
X006081Y002961D02*
X006178Y002961D01*
X006178Y003059D02*
X006081Y003059D01*
X005611Y003059D02*
X004312Y003059D01*
X004324Y002961D02*
X005475Y002961D01*
X005403Y002862D02*
X003080Y002862D01*
X003080Y002961D02*
X002980Y002961D01*
X002980Y003059D02*
X003080Y003059D01*
X003080Y003158D02*
X002980Y003158D01*
X002980Y003256D02*
X003080Y003256D01*
X003080Y003355D02*
X002980Y003355D01*
X002980Y003454D02*
X003080Y003454D01*
X003080Y003552D02*
X002980Y003552D01*
X002980Y003651D02*
X003080Y003651D01*
X003080Y003749D02*
X002980Y003749D01*
X002980Y003848D02*
X003080Y003848D01*
X003080Y003946D02*
X002980Y003946D01*
X002980Y004045D02*
X003080Y004045D01*
X003515Y004045D02*
X007000Y004045D01*
X007000Y004143D02*
X001430Y004143D01*
X001430Y004045D02*
X002545Y004045D01*
X002348Y003946D02*
X001430Y003946D01*
X001430Y003848D02*
X002211Y003848D01*
X002102Y003749D02*
X001430Y003749D01*
X001430Y003651D02*
X002015Y003651D01*
X001943Y003552D02*
X001430Y003552D01*
X001430Y003454D02*
X001885Y003454D01*
X001837Y003355D02*
X001430Y003355D01*
X001430Y003256D02*
X001798Y003256D01*
X001768Y003158D02*
X001430Y003158D01*
X001430Y003059D02*
X001748Y003059D01*
X001736Y002961D02*
X001430Y002961D01*
X001430Y004242D02*
X007000Y004242D01*
X007000Y004340D02*
X001430Y004340D01*
X001430Y004439D02*
X006921Y004439D01*
X007000Y004360D02*
X007000Y003753D01*
X007065Y003595D01*
X007186Y003474D01*
X007344Y003409D01*
X007516Y003409D01*
X007588Y003439D01*
X011950Y003439D01*
X018864Y003439D01*
X019305Y002998D01*
X019263Y002898D01*
X019263Y002079D01*
X019334Y001907D01*
X019466Y001776D01*
X019637Y001705D01*
X019823Y001705D01*
X019994Y001776D01*
X020126Y001907D01*
X020197Y002079D01*
X020197Y002898D01*
X020130Y003060D01*
X020130Y003218D01*
X020069Y003365D01*
X019957Y003478D01*
X019257Y004178D01*
X019110Y004238D01*
X018950Y004238D01*
X012460Y004238D01*
X012460Y012410D01*
X013558Y013509D01*
X014266Y013509D01*
X014424Y013574D01*
X014544Y013695D01*
X014610Y013853D01*
X014610Y014024D01*
X014544Y014182D01*
X014424Y014303D01*
X014266Y014368D01*
X013294Y014368D01*
X013136Y014303D01*
X013015Y014182D01*
X012030Y013197D01*
X010310Y014917D01*
X010310Y017824D01*
X010310Y018353D01*
X010310Y018524D01*
X010310Y019224D01*
X010244Y019382D01*
X010124Y019503D01*
X009966Y019568D01*
X009794Y019568D01*
X009636Y019503D01*
X009515Y019382D01*
X009450Y019224D01*
X009450Y018524D01*
X009450Y018353D01*
X009450Y017824D01*
X009450Y014653D01*
X009515Y014495D01*
X009636Y014374D01*
X011600Y012410D01*
X011600Y004238D01*
X007860Y004238D01*
X007860Y004624D01*
X007794Y004782D01*
X007674Y004903D01*
X006494Y006082D01*
X006374Y006203D01*
X006216Y006268D01*
X003967Y006268D01*
X003952Y006284D01*
X003759Y006363D01*
X002801Y006363D01*
X002608Y006284D01*
X002460Y006136D01*
X002380Y005943D01*
X002380Y005734D01*
X002460Y005541D01*
X002608Y005393D01*
X002801Y005314D01*
X003759Y005314D01*
X003952Y005393D01*
X003967Y005409D01*
X005952Y005409D01*
X007000Y004360D01*
X006823Y004538D02*
X001430Y004538D01*
X001430Y004636D02*
X006724Y004636D01*
X006626Y004735D02*
X001430Y004735D01*
X001430Y004833D02*
X006527Y004833D01*
X006429Y004932D02*
X001430Y004932D01*
X001430Y005030D02*
X006330Y005030D01*
X006232Y005129D02*
X001430Y005129D01*
X001430Y005227D02*
X006133Y005227D01*
X006035Y005326D02*
X003789Y005326D01*
X002771Y005326D02*
X001430Y005326D01*
X001430Y005424D02*
X002577Y005424D01*
X002478Y005523D02*
X001430Y005523D01*
X001430Y005621D02*
X002427Y005621D01*
X002386Y005720D02*
X001430Y005720D01*
X001430Y005819D02*
X002380Y005819D01*
X002380Y005917D02*
X001430Y005917D01*
X001430Y006016D02*
X002410Y006016D01*
X002451Y006114D02*
X001430Y006114D01*
X001430Y006213D02*
X002537Y006213D01*
X002675Y006311D02*
X001430Y006311D01*
X001430Y006410D02*
X011600Y006410D01*
X011600Y006508D02*
X001430Y006508D01*
X001430Y006607D02*
X011600Y006607D01*
X011600Y006705D02*
X001430Y006705D01*
X001430Y006804D02*
X011600Y006804D01*
X011600Y006903D02*
X003961Y006903D01*
X003952Y006893D02*
X004047Y006989D01*
X005900Y006989D01*
X006028Y007042D01*
X006127Y007140D01*
X006180Y007269D01*
X006180Y007408D01*
X006127Y007537D01*
X006028Y007635D01*
X005900Y007688D01*
X004047Y007688D01*
X003952Y007784D01*
X003759Y007863D01*
X002801Y007863D01*
X002608Y007784D01*
X002460Y007636D01*
X002380Y007443D01*
X002380Y007234D01*
X002460Y007041D01*
X002608Y006893D01*
X002801Y006814D01*
X003759Y006814D01*
X003952Y006893D01*
X003885Y006311D02*
X011600Y006311D01*
X011600Y006213D02*
X006350Y006213D01*
X006462Y006114D02*
X011600Y006114D01*
X011600Y006016D02*
X006561Y006016D01*
X006659Y005917D02*
X011600Y005917D01*
X011600Y005819D02*
X006758Y005819D01*
X006856Y005720D02*
X011600Y005720D01*
X011600Y005621D02*
X006955Y005621D01*
X007054Y005523D02*
X011600Y005523D01*
X011600Y005424D02*
X007152Y005424D01*
X007251Y005326D02*
X011600Y005326D01*
X011600Y005227D02*
X007349Y005227D01*
X007448Y005129D02*
X011600Y005129D01*
X011600Y005030D02*
X007546Y005030D01*
X007645Y004932D02*
X011600Y004932D01*
X011600Y004833D02*
X007743Y004833D01*
X007814Y004735D02*
X011600Y004735D01*
X011600Y004636D02*
X007855Y004636D01*
X007860Y004538D02*
X011600Y004538D01*
X011600Y004439D02*
X007860Y004439D01*
X007860Y004340D02*
X011600Y004340D01*
X011600Y004242D02*
X007860Y004242D01*
X007000Y003946D02*
X003712Y003946D01*
X003849Y003848D02*
X007000Y003848D01*
X007002Y003749D02*
X003958Y003749D01*
X004045Y003651D02*
X007042Y003651D01*
X007108Y003552D02*
X004117Y003552D01*
X004175Y003454D02*
X007236Y003454D01*
X006649Y003059D02*
X018330Y003059D01*
X018334Y003070D02*
X018263Y002898D01*
X018263Y002738D01*
X018175Y002738D01*
X018128Y002785D01*
X018000Y002838D01*
X017860Y002838D01*
X017732Y002785D01*
X017633Y002687D01*
X017580Y002558D01*
X017580Y002419D01*
X017633Y002290D01*
X017732Y002192D01*
X017860Y002139D01*
X018000Y002139D01*
X018128Y002192D01*
X018175Y002239D01*
X018263Y002239D01*
X018263Y002079D01*
X018334Y001907D01*
X018466Y001776D01*
X018637Y001705D01*
X018823Y001705D01*
X018994Y001776D01*
X019126Y001907D01*
X019197Y002079D01*
X019197Y002898D01*
X019126Y003070D01*
X018994Y003201D01*
X018823Y003272D01*
X018637Y003272D01*
X018466Y003201D01*
X018334Y003070D01*
X018289Y002961D02*
X006785Y002961D01*
X006857Y002862D02*
X018263Y002862D01*
X018263Y002764D02*
X018150Y002764D01*
X017710Y002764D02*
X006897Y002764D01*
X006908Y002567D02*
X017584Y002567D01*
X017580Y002468D02*
X006882Y002468D01*
X006828Y002370D02*
X017600Y002370D01*
X017652Y002271D02*
X006735Y002271D01*
X006615Y002074D02*
X018265Y002074D01*
X018263Y002172D02*
X018082Y002172D01*
X018306Y001975D02*
X006770Y001975D01*
X006853Y001877D02*
X018365Y001877D01*
X018463Y001778D02*
X006894Y001778D01*
X006914Y001680D02*
X022452Y001680D01*
X022450Y001680D02*
X022523Y001669D01*
X022830Y001669D01*
X022830Y002088D01*
X022930Y002088D01*
X022930Y001669D01*
X023237Y001669D01*
X023310Y001680D01*
X023380Y001703D01*
X023446Y001737D01*
X023506Y001780D01*
X023558Y001832D01*
X023602Y001892D01*
X023636Y001958D01*
X023658Y002028D01*
X023668Y002089D01*
X022930Y002089D01*
X022930Y002188D01*
X023668Y002188D01*
X023658Y002249D01*
X023636Y002319D01*
X023602Y002385D01*
X023558Y002445D01*
X023506Y002497D01*
X023446Y002540D01*
X023380Y002574D01*
X023310Y002597D01*
X023237Y002608D01*
X022930Y002608D01*
X022930Y002189D01*
X022830Y002189D01*
X022830Y002608D01*
X022523Y002608D01*
X022450Y002597D01*
X022380Y002574D01*
X022314Y002540D01*
X022254Y002497D01*
X022201Y002445D01*
X022158Y002385D01*
X022124Y002319D01*
X022102Y002249D01*
X022092Y002188D01*
X022830Y002188D01*
X022830Y002089D01*
X022092Y002089D01*
X022102Y002028D01*
X022124Y001958D01*
X022158Y001892D01*
X022201Y001832D01*
X022254Y001780D01*
X022314Y001737D01*
X022380Y001703D01*
X022450Y001680D01*
X022256Y001778D02*
X020983Y001778D01*
X020975Y001772D02*
X021034Y001816D01*
X021086Y001868D01*
X021129Y001927D01*
X021163Y001992D01*
X021185Y002062D01*
X021197Y002135D01*
X021197Y002440D01*
X020779Y002440D01*
X020779Y002537D01*
X021197Y002537D01*
X021197Y002842D01*
X021185Y002915D01*
X021163Y002985D01*
X021129Y003050D01*
X021086Y003109D01*
X021034Y003161D01*
X020975Y003205D01*
X020909Y003238D01*
X020839Y003261D01*
X020778Y003270D01*
X020778Y002537D01*
X020681Y002537D01*
X020681Y002440D01*
X020263Y002440D01*
X020263Y002135D01*
X020275Y002062D01*
X020297Y001992D01*
X020331Y001927D01*
X020374Y001868D01*
X020426Y001816D01*
X020485Y001772D01*
X020551Y001739D01*
X020621Y001716D01*
X020681Y001707D01*
X020681Y002440D01*
X020778Y002440D01*
X020778Y001707D01*
X020839Y001716D01*
X020909Y001739D01*
X020975Y001772D01*
X021093Y001877D02*
X022169Y001877D01*
X022119Y001975D02*
X021154Y001975D01*
X021187Y002074D02*
X022094Y002074D01*
X022109Y002271D02*
X021197Y002271D01*
X021197Y002172D02*
X022830Y002172D01*
X022830Y002074D02*
X022930Y002074D01*
X022930Y002172D02*
X024530Y002172D01*
X024530Y002188D02*
X024530Y002089D01*
X023792Y002089D01*
X023802Y002028D01*
X023824Y001958D01*
X023858Y001892D01*
X023901Y001832D01*
X023954Y001780D01*
X024014Y001737D01*
X024080Y001703D01*
X024150Y001680D01*
X024223Y001669D01*
X024530Y001669D01*
X024530Y002088D01*
X024630Y002088D01*
X024630Y001669D01*
X024937Y001669D01*
X025010Y001680D01*
X025080Y001703D01*
X025146Y001737D01*
X025206Y001780D01*
X025258Y001832D01*
X025302Y001892D01*
X025336Y001958D01*
X025358Y002028D01*
X025368Y002089D01*
X024630Y002089D01*
X024630Y002188D01*
X025368Y002188D01*
X025358Y002249D01*
X025336Y002319D01*
X025302Y002385D01*
X025258Y002445D01*
X025206Y002497D01*
X025146Y002540D01*
X025080Y002574D01*
X025010Y002597D01*
X024937Y002608D01*
X024630Y002608D01*
X024630Y002189D01*
X024530Y002189D01*
X024530Y002608D01*
X024223Y002608D01*
X024150Y002597D01*
X024080Y002574D01*
X024014Y002540D01*
X023954Y002497D01*
X023901Y002445D01*
X023858Y002385D01*
X023824Y002319D01*
X023802Y002249D01*
X023792Y002188D01*
X024530Y002188D01*
X024530Y002271D02*
X024630Y002271D01*
X024630Y002172D02*
X026230Y002172D01*
X026230Y002188D02*
X026230Y002089D01*
X025492Y002089D01*
X025502Y002028D01*
X025524Y001958D01*
X025558Y001892D01*
X025601Y001832D01*
X025654Y001780D01*
X025714Y001737D01*
X025780Y001703D01*
X025850Y001680D01*
X025923Y001669D01*
X026230Y001669D01*
X026230Y002088D01*
X026330Y002088D01*
X026330Y001669D01*
X026637Y001669D01*
X026710Y001680D01*
X026780Y001703D01*
X026846Y001737D01*
X026906Y001780D01*
X026958Y001832D01*
X027002Y001892D01*
X027036Y001958D01*
X027058Y002028D01*
X027068Y002089D01*
X026330Y002089D01*
X026330Y002188D01*
X027068Y002188D01*
X027058Y002249D01*
X027036Y002319D01*
X027002Y002385D01*
X026958Y002445D01*
X026906Y002497D01*
X026846Y002540D01*
X026780Y002574D01*
X026710Y002597D01*
X026637Y002608D01*
X026330Y002608D01*
X026330Y002189D01*
X026230Y002189D01*
X026230Y002608D01*
X025923Y002608D01*
X025850Y002597D01*
X025780Y002574D01*
X025714Y002540D01*
X025654Y002497D01*
X025601Y002445D01*
X025558Y002385D01*
X025524Y002319D01*
X025502Y002249D01*
X025492Y002188D01*
X026230Y002188D01*
X026230Y002271D02*
X026330Y002271D01*
X026330Y002172D02*
X027346Y002172D01*
X027346Y002231D02*
X027346Y002046D01*
X027417Y001874D01*
X027549Y001743D01*
X027720Y001672D01*
X028540Y001672D01*
X028711Y001743D01*
X028843Y001874D01*
X028914Y002046D01*
X028914Y002231D01*
X028843Y002403D01*
X028711Y002534D01*
X028540Y002605D01*
X027720Y002605D01*
X027549Y002534D01*
X027417Y002403D01*
X027346Y002231D01*
X027363Y002271D02*
X027051Y002271D01*
X027010Y002370D02*
X027404Y002370D01*
X027483Y002468D02*
X026935Y002468D01*
X026795Y002567D02*
X027627Y002567D01*
X027720Y002672D02*
X028540Y002672D01*
X028711Y002743D01*
X028843Y002874D01*
X028914Y003046D01*
X028914Y003231D01*
X028843Y003403D01*
X028711Y003534D01*
X028540Y003605D01*
X027720Y003605D01*
X027549Y003534D01*
X027417Y003403D01*
X027346Y003231D01*
X027346Y003046D01*
X027417Y002874D01*
X027549Y002743D01*
X027720Y002672D01*
X027528Y002764D02*
X026890Y002764D01*
X026866Y002740D02*
X026998Y002872D01*
X027070Y003045D01*
X027070Y003232D01*
X026998Y003405D01*
X026866Y003537D01*
X026693Y003608D01*
X025866Y003608D01*
X025694Y003537D01*
X025605Y003448D01*
X025255Y003448D01*
X025166Y003537D01*
X024993Y003608D01*
X024166Y003608D01*
X023994Y003537D01*
X023905Y003448D01*
X023555Y003448D01*
X023466Y003537D01*
X023293Y003608D01*
X022498Y003608D01*
X022418Y003688D01*
X022466Y003669D01*
X023293Y003669D01*
X023466Y003740D01*
X023598Y003872D01*
X023670Y004045D01*
X023670Y004232D01*
X023598Y004405D01*
X023466Y004537D01*
X023366Y004579D01*
X023443Y004579D01*
X023790Y004232D01*
X023790Y004045D01*
X023862Y003872D01*
X023994Y003740D01*
X024166Y003669D01*
X024993Y003669D01*
X025166Y003740D01*
X025298Y003872D01*
X025370Y004045D01*
X025370Y004232D01*
X025298Y004405D01*
X025185Y004519D01*
X025518Y004519D01*
X025597Y004440D01*
X025562Y004405D01*
X025490Y004232D01*
X025490Y004045D01*
X025562Y003872D01*
X025694Y003740D01*
X025866Y003669D01*
X026693Y003669D01*
X026866Y003740D01*
X026998Y003872D01*
X027070Y004045D01*
X027070Y004232D01*
X026998Y004405D01*
X026866Y004537D01*
X026693Y004608D01*
X026192Y004608D01*
X025783Y005017D01*
X025684Y005058D01*
X025576Y005058D01*
X024392Y005058D01*
X023800Y005650D01*
X023800Y011477D01*
X025042Y012719D01*
X028226Y012719D01*
X028334Y012719D01*
X028433Y012760D01*
X028712Y013039D01*
X028750Y013039D01*
X028878Y013092D01*
X028977Y013190D01*
X029030Y013319D01*
X029030Y013458D01*
X028994Y013546D01*
X029117Y013495D01*
X029256Y013495D01*
X029385Y013548D01*
X029483Y013647D01*
X029536Y013775D01*
X029536Y013914D01*
X029483Y014043D01*
X029456Y014070D01*
X029456Y014236D01*
X029415Y014335D01*
X029339Y014411D01*
X028709Y015041D01*
X028633Y015117D01*
X028534Y015158D01*
X025834Y015158D01*
X025726Y015158D01*
X025627Y015117D01*
X025168Y014658D01*
X022445Y014658D01*
X022527Y014740D01*
X022580Y014869D01*
X022580Y014907D01*
X023592Y015919D01*
X027355Y015919D01*
X027382Y015892D01*
X027510Y015839D01*
X027650Y015839D01*
X027778Y015892D01*
X027877Y015990D01*
X027930Y016119D01*
X027930Y016258D01*
X027877Y016387D01*
X027778Y016485D01*
X027650Y016538D01*
X027510Y016538D01*
X027382Y016485D01*
X027355Y016458D01*
X025345Y016458D01*
X025427Y016540D01*
X025480Y016669D01*
X025480Y016808D01*
X025427Y016937D01*
X025328Y017035D01*
X025200Y017088D01*
X025060Y017088D01*
X024932Y017035D01*
X024905Y017008D01*
X023134Y017008D01*
X023026Y017008D01*
X022927Y016967D01*
X018548Y012588D01*
X018510Y012588D01*
X018382Y012535D01*
X018283Y012437D01*
X018230Y012308D01*
X018230Y012169D01*
X018283Y012040D01*
X018382Y011942D01*
X018510Y011889D01*
X018650Y011889D01*
X018778Y011942D01*
X018877Y012040D01*
X018930Y012169D01*
X018930Y012207D01*
X023192Y016469D01*
X024905Y016469D01*
X024915Y016458D01*
X023534Y016458D01*
X023426Y016458D01*
X023327Y016417D01*
X022198Y015288D01*
X022160Y015288D01*
X022032Y015235D01*
X021933Y015137D01*
X021880Y015008D01*
X021880Y014970D01*
X020327Y013417D01*
X020251Y013341D01*
X020210Y013242D01*
X020210Y012863D01*
X020183Y012837D01*
X020130Y012708D01*
X020130Y012569D01*
X020183Y012440D01*
X020282Y012342D01*
X020410Y012289D01*
X020550Y012289D01*
X020678Y012342D01*
X020777Y012440D01*
X020830Y012569D01*
X020830Y012708D01*
X020777Y012837D01*
X020750Y012863D01*
X020750Y013077D01*
X020910Y013237D01*
X020910Y012463D01*
X020883Y012437D01*
X020830Y012308D01*
X020830Y012169D01*
X020883Y012040D01*
X020982Y011942D01*
X021110Y011889D01*
X021250Y011889D01*
X021378Y011942D01*
X021477Y012040D01*
X021530Y012169D01*
X021530Y012308D01*
X021477Y012437D01*
X021450Y012463D01*
X021450Y013177D01*
X022130Y013857D01*
X022130Y013819D01*
X022178Y013704D01*
X022132Y013685D01*
X022033Y013587D01*
X021980Y013458D01*
X021980Y013319D01*
X022033Y013190D01*
X022132Y013092D01*
X022260Y013039D01*
X022400Y013039D01*
X022528Y013092D01*
X022555Y013119D01*
X024678Y013119D01*
X023301Y011741D01*
X023260Y011642D01*
X023260Y011535D01*
X023260Y005592D01*
X023260Y005485D01*
X023301Y005386D01*
X024051Y004636D01*
X023979Y004636D01*
X024051Y004636D02*
X024104Y004583D01*
X024054Y004562D01*
X023617Y004998D01*
X023443Y004998D01*
X022974Y004998D01*
X023078Y005042D01*
X023177Y005140D01*
X023230Y005269D01*
X023230Y005408D01*
X023177Y005537D01*
X023150Y005563D01*
X023150Y010842D01*
X023109Y010941D01*
X023033Y011017D01*
X022280Y011770D01*
X022280Y011808D01*
X022227Y011937D01*
X022128Y012035D01*
X022000Y012088D01*
X021860Y012088D01*
X021732Y012035D01*
X021633Y011937D01*
X021580Y011808D01*
X021580Y011669D01*
X021633Y011540D01*
X021732Y011442D01*
X021860Y011389D01*
X021898Y011389D01*
X022610Y010677D01*
X022610Y005903D01*
X022600Y005913D01*
X022600Y010392D01*
X022559Y010491D01*
X022483Y010567D01*
X021433Y011617D01*
X021334Y011658D01*
X021226Y011658D01*
X019555Y011658D01*
X019528Y011685D01*
X019400Y011738D01*
X019260Y011738D01*
X019132Y011685D01*
X019033Y011587D01*
X018980Y011458D01*
X018980Y011319D01*
X019033Y011190D01*
X019132Y011092D01*
X019260Y011039D01*
X019400Y011039D01*
X019528Y011092D01*
X019555Y011119D01*
X021168Y011119D01*
X022060Y010227D01*
X022060Y005913D01*
X022040Y005893D01*
X022040Y008675D01*
X021917Y008798D01*
X020067Y010648D01*
X019893Y010648D01*
X019367Y010648D01*
X018190Y011825D01*
X018190Y012638D01*
X018310Y012589D01*
X018450Y012589D01*
X018578Y012642D01*
X018677Y012740D01*
X018730Y012869D01*
X018730Y012907D01*
X019609Y013786D01*
X019650Y013885D01*
X019650Y013992D01*
X019650Y017322D01*
X019830Y017502D01*
X019830Y017875D01*
X019566Y018138D01*
X019212Y018138D01*
X019312Y018239D01*
X019566Y018239D01*
X019830Y018502D01*
X019830Y018875D01*
X019566Y019138D01*
X019194Y019138D01*
X018930Y018875D01*
X018930Y018620D01*
X018830Y018520D01*
X018830Y018875D01*
X018566Y019138D01*
X018194Y019138D01*
X017930Y018875D01*
X017930Y018502D01*
X018194Y018239D01*
X018566Y018239D01*
X018638Y018310D01*
X018610Y018242D01*
X018610Y018095D01*
X018566Y018138D01*
X018194Y018138D01*
X017930Y017875D01*
X017930Y017502D01*
X018110Y017322D01*
X018110Y015413D01*
X018083Y015387D01*
X018030Y015258D01*
X018030Y015119D01*
X018083Y014990D01*
X018182Y014892D01*
X018310Y014839D01*
X018450Y014839D01*
X018578Y014892D01*
X018677Y014990D01*
X018730Y015119D01*
X018730Y015258D01*
X018698Y015335D01*
X018810Y015289D01*
X018950Y015289D01*
X019078Y015342D01*
X019110Y015374D01*
X019110Y014050D01*
X018348Y013288D01*
X018310Y013288D01*
X018190Y013239D01*
X018190Y013551D01*
X018340Y013701D01*
X018340Y013875D01*
X018340Y014725D01*
X018217Y014848D01*
X017961Y015105D01*
X017927Y015187D01*
X017828Y015285D01*
X017700Y015338D01*
X017560Y015338D01*
X017432Y015285D01*
X017333Y015187D01*
X017280Y015058D01*
X017280Y014919D01*
X017333Y014790D01*
X017432Y014692D01*
X017440Y014688D01*
X017432Y014685D01*
X017333Y014587D01*
X017280Y014458D01*
X017280Y014319D01*
X017333Y014190D01*
X017420Y014104D01*
X017420Y011551D01*
X017543Y011429D01*
X019043Y009929D01*
X019217Y009929D01*
X019743Y009929D01*
X021270Y008401D01*
X021270Y006789D01*
X021150Y006838D01*
X021010Y006838D01*
X020882Y006785D01*
X020783Y006687D01*
X020730Y006558D01*
X020730Y006419D01*
X020783Y006290D01*
X020810Y006264D01*
X020810Y005342D01*
X020810Y005235D01*
X020846Y005148D01*
X017830Y005148D01*
X017830Y006070D01*
X017868Y006161D01*
X017868Y006316D01*
X017830Y006407D01*
X017830Y006720D01*
X017868Y006811D01*
X017868Y006966D01*
X017809Y007108D01*
X017700Y007217D01*
X017557Y007276D01*
X017403Y007276D01*
X017260Y007217D01*
X017151Y007108D01*
X017092Y006966D01*
X017092Y006811D01*
X017130Y006720D01*
X017130Y006407D01*
X017092Y006316D01*
X017092Y006161D01*
X017130Y006070D01*
X017130Y005007D01*
X017092Y004916D01*
X017092Y004761D01*
X017151Y004619D01*
X017260Y004510D01*
X017403Y004451D01*
X017557Y004451D01*
X017700Y004510D01*
X017718Y004529D01*
X020702Y004529D01*
X022090Y003140D01*
X022090Y003045D01*
X022162Y002872D01*
X022294Y002740D01*
X022466Y002669D01*
X023293Y002669D01*
X023466Y002740D01*
X023555Y002829D01*
X023905Y002829D01*
X023994Y002740D01*
X024166Y002669D01*
X024993Y002669D01*
X025166Y002740D01*
X025255Y002829D01*
X025605Y002829D01*
X025694Y002740D01*
X025866Y002669D01*
X026693Y002669D01*
X026866Y002740D01*
X026988Y002862D02*
X027429Y002862D01*
X027381Y002961D02*
X027035Y002961D01*
X027070Y003059D02*
X027346Y003059D01*
X027346Y003158D02*
X027070Y003158D01*
X027060Y003256D02*
X027357Y003256D01*
X027398Y003355D02*
X027019Y003355D01*
X026950Y003454D02*
X027468Y003454D01*
X027592Y003552D02*
X026830Y003552D01*
X026875Y003749D02*
X027555Y003749D01*
X027568Y003739D02*
X027634Y003706D01*
X027704Y003683D01*
X027776Y003672D01*
X028081Y003672D01*
X028081Y004090D01*
X027348Y004090D01*
X027358Y004029D01*
X027381Y003959D01*
X027414Y003894D01*
X027457Y003834D01*
X027509Y003782D01*
X027568Y003739D01*
X027447Y003848D02*
X026974Y003848D01*
X027029Y003946D02*
X027387Y003946D01*
X027355Y004045D02*
X027070Y004045D01*
X027070Y004143D02*
X028081Y004143D01*
X028081Y004187D02*
X028081Y004090D01*
X028178Y004090D01*
X028178Y003672D01*
X028484Y003672D01*
X028556Y003683D01*
X028626Y003706D01*
X028691Y003739D01*
X028751Y003782D01*
X028803Y003834D01*
X028846Y003894D01*
X028879Y003959D01*
X028902Y004029D01*
X028912Y004090D01*
X028179Y004090D01*
X028179Y004187D01*
X028912Y004187D01*
X028902Y004248D01*
X028879Y004318D01*
X028846Y004383D01*
X028803Y004443D01*
X028751Y004495D01*
X028691Y004538D01*
X028626Y004571D01*
X028556Y004594D01*
X028484Y004605D01*
X028178Y004605D01*
X028178Y004187D01*
X028081Y004187D01*
X027348Y004187D01*
X027358Y004248D01*
X027381Y004318D01*
X027414Y004383D01*
X027457Y004443D01*
X027509Y004495D01*
X027568Y004538D01*
X026865Y004538D01*
X026964Y004439D02*
X027454Y004439D01*
X027392Y004340D02*
X027025Y004340D01*
X027066Y004242D02*
X027357Y004242D01*
X027568Y004538D02*
X027634Y004571D01*
X027704Y004594D01*
X027776Y004605D01*
X028081Y004605D01*
X028081Y004187D01*
X028081Y004242D02*
X028178Y004242D01*
X028178Y004340D02*
X028081Y004340D01*
X028081Y004439D02*
X028178Y004439D01*
X028178Y004538D02*
X028081Y004538D01*
X028179Y004143D02*
X029980Y004143D01*
X029980Y004045D02*
X028905Y004045D01*
X028873Y003946D02*
X029848Y003946D01*
X029711Y003848D02*
X028813Y003848D01*
X028705Y003749D02*
X029602Y003749D01*
X029515Y003651D02*
X022456Y003651D01*
X021974Y003256D02*
X020852Y003256D01*
X020778Y003256D02*
X020681Y003256D01*
X020681Y003270D02*
X020621Y003261D01*
X020551Y003238D01*
X020485Y003205D01*
X020426Y003161D01*
X020374Y003109D01*
X020331Y003050D01*
X020297Y002985D01*
X020275Y002915D01*
X020263Y002842D01*
X020263Y002537D01*
X020681Y002537D01*
X020681Y003270D01*
X020608Y003256D02*
X020114Y003256D01*
X020130Y003158D02*
X020422Y003158D01*
X020338Y003059D02*
X020130Y003059D01*
X020171Y002961D02*
X020290Y002961D01*
X020266Y002862D02*
X020197Y002862D01*
X020197Y002764D02*
X020263Y002764D01*
X020263Y002665D02*
X020197Y002665D01*
X020197Y002567D02*
X020263Y002567D01*
X020197Y002468D02*
X020681Y002468D01*
X020779Y002468D02*
X022225Y002468D01*
X022150Y002370D02*
X021197Y002370D01*
X021197Y002567D02*
X022365Y002567D01*
X022270Y002764D02*
X021197Y002764D01*
X021194Y002862D02*
X022171Y002862D01*
X022125Y002961D02*
X021170Y002961D01*
X021122Y003059D02*
X022090Y003059D01*
X022072Y003158D02*
X021038Y003158D01*
X020778Y003158D02*
X020681Y003158D01*
X020681Y003059D02*
X020778Y003059D01*
X020778Y002961D02*
X020681Y002961D01*
X020681Y002862D02*
X020778Y002862D01*
X020778Y002764D02*
X020681Y002764D01*
X020681Y002665D02*
X020778Y002665D01*
X020778Y002567D02*
X020681Y002567D01*
X020681Y002370D02*
X020778Y002370D01*
X020778Y002271D02*
X020681Y002271D01*
X020681Y002172D02*
X020778Y002172D01*
X020778Y002074D02*
X020681Y002074D01*
X020681Y001975D02*
X020778Y001975D01*
X020778Y001877D02*
X020681Y001877D01*
X020681Y001778D02*
X020778Y001778D01*
X020477Y001778D02*
X019997Y001778D01*
X020095Y001877D02*
X020367Y001877D01*
X020306Y001975D02*
X020154Y001975D01*
X020195Y002074D02*
X020273Y002074D01*
X020263Y002172D02*
X020197Y002172D01*
X020197Y002271D02*
X020263Y002271D01*
X020263Y002370D02*
X020197Y002370D01*
X019263Y002370D02*
X019197Y002370D01*
X019197Y002468D02*
X019263Y002468D01*
X019263Y002567D02*
X019197Y002567D01*
X019197Y002665D02*
X019263Y002665D01*
X019263Y002764D02*
X019197Y002764D01*
X019197Y002862D02*
X019263Y002862D01*
X019289Y002961D02*
X019171Y002961D01*
X019130Y003059D02*
X019243Y003059D01*
X019145Y003158D02*
X019038Y003158D01*
X019046Y003256D02*
X018861Y003256D01*
X018948Y003355D02*
X004223Y003355D01*
X004262Y003256D02*
X018599Y003256D01*
X018422Y003158D02*
X004292Y003158D01*
X004329Y002764D02*
X005363Y002764D01*
X006081Y002567D02*
X006178Y002567D01*
X006179Y002665D02*
X017624Y002665D01*
X017778Y002172D02*
X006489Y002172D01*
X006178Y002172D02*
X006081Y002172D01*
X006081Y002271D02*
X006178Y002271D01*
X006178Y002370D02*
X006081Y002370D01*
X006081Y002468D02*
X006178Y002468D01*
X006914Y001581D02*
X029980Y001581D01*
X029980Y001483D02*
X006888Y001483D01*
X006847Y001384D02*
X029980Y001384D01*
X029980Y001286D02*
X006754Y001286D01*
X012460Y004242D02*
X020988Y004242D01*
X020890Y004340D02*
X012460Y004340D01*
X012460Y004439D02*
X020791Y004439D01*
X021087Y004143D02*
X019291Y004143D01*
X019389Y004045D02*
X021185Y004045D01*
X021284Y003946D02*
X019488Y003946D01*
X019586Y003848D02*
X021382Y003848D01*
X021481Y003749D02*
X019685Y003749D01*
X019784Y003651D02*
X021579Y003651D01*
X021678Y003552D02*
X019882Y003552D01*
X019981Y003454D02*
X021777Y003454D01*
X021875Y003355D02*
X020073Y003355D01*
X021197Y002665D02*
X029241Y002665D01*
X029231Y002764D02*
X028732Y002764D01*
X028831Y002862D02*
X029980Y002862D01*
X029236Y002961D02*
X028879Y002961D01*
X028914Y003059D02*
X029248Y003059D01*
X029268Y003158D02*
X028914Y003158D01*
X028903Y003256D02*
X029298Y003256D01*
X029337Y003355D02*
X028862Y003355D01*
X028792Y003454D02*
X029385Y003454D01*
X029443Y003552D02*
X028668Y003552D01*
X028178Y003749D02*
X028081Y003749D01*
X028081Y003848D02*
X028178Y003848D01*
X028178Y003946D02*
X028081Y003946D01*
X028081Y004045D02*
X028178Y004045D01*
X028806Y004439D02*
X029980Y004439D01*
X029980Y004538D02*
X028692Y004538D01*
X028868Y004340D02*
X029980Y004340D01*
X029980Y004242D02*
X028903Y004242D01*
X029980Y004636D02*
X026164Y004636D01*
X026066Y004735D02*
X029980Y004735D01*
X029980Y004833D02*
X025967Y004833D01*
X025869Y004932D02*
X029980Y004932D01*
X029980Y005030D02*
X025752Y005030D01*
X025596Y004439D02*
X025264Y004439D01*
X025325Y004340D02*
X025535Y004340D01*
X025494Y004242D02*
X025366Y004242D01*
X025370Y004143D02*
X025490Y004143D01*
X025490Y004045D02*
X025370Y004045D01*
X025329Y003946D02*
X025531Y003946D01*
X025586Y003848D02*
X025274Y003848D01*
X025175Y003749D02*
X025685Y003749D01*
X025730Y003552D02*
X025130Y003552D01*
X025250Y003454D02*
X025610Y003454D01*
X025670Y002764D02*
X025190Y002764D01*
X025095Y002567D02*
X025765Y002567D01*
X025625Y002468D02*
X025235Y002468D01*
X025310Y002370D02*
X025550Y002370D01*
X025509Y002271D02*
X025351Y002271D01*
X025366Y002074D02*
X025494Y002074D01*
X025519Y001975D02*
X025341Y001975D01*
X025291Y001877D02*
X025569Y001877D01*
X025656Y001778D02*
X025204Y001778D01*
X025008Y001680D02*
X025852Y001680D01*
X026230Y001680D02*
X026330Y001680D01*
X026330Y001778D02*
X026230Y001778D01*
X026230Y001877D02*
X026330Y001877D01*
X026330Y001975D02*
X026230Y001975D01*
X026230Y002074D02*
X026330Y002074D01*
X026330Y002370D02*
X026230Y002370D01*
X026230Y002468D02*
X026330Y002468D01*
X026330Y002567D02*
X026230Y002567D01*
X027066Y002074D02*
X027346Y002074D01*
X027375Y001975D02*
X027041Y001975D01*
X026991Y001877D02*
X027416Y001877D01*
X027513Y001778D02*
X026904Y001778D01*
X026708Y001680D02*
X027701Y001680D01*
X028559Y001680D02*
X029940Y001680D01*
X029777Y001778D02*
X028747Y001778D01*
X028844Y001877D02*
X029653Y001877D01*
X029557Y001975D02*
X028885Y001975D01*
X028914Y002074D02*
X029477Y002074D01*
X029412Y002172D02*
X028914Y002172D01*
X028897Y002271D02*
X029359Y002271D01*
X029317Y002370D02*
X028856Y002370D01*
X028777Y002468D02*
X029284Y002468D01*
X029259Y002567D02*
X028633Y002567D01*
X029980Y005129D02*
X024321Y005129D01*
X024223Y005227D02*
X029980Y005227D01*
X029980Y005326D02*
X024124Y005326D01*
X024026Y005424D02*
X029980Y005424D01*
X029980Y005523D02*
X023927Y005523D01*
X023829Y005621D02*
X029980Y005621D01*
X029980Y005720D02*
X023800Y005720D01*
X023800Y005819D02*
X029980Y005819D01*
X029980Y005917D02*
X023800Y005917D01*
X023800Y006016D02*
X029980Y006016D01*
X029980Y006114D02*
X023800Y006114D01*
X023800Y006213D02*
X029980Y006213D01*
X029980Y006311D02*
X023800Y006311D01*
X023800Y006410D02*
X029980Y006410D01*
X029980Y006508D02*
X023800Y006508D01*
X023800Y006607D02*
X029980Y006607D01*
X029980Y006705D02*
X023800Y006705D01*
X023800Y006804D02*
X029980Y006804D01*
X029980Y006903D02*
X023800Y006903D01*
X023800Y007001D02*
X029980Y007001D01*
X029980Y007100D02*
X023800Y007100D01*
X023800Y007198D02*
X029980Y007198D01*
X029980Y007297D02*
X023800Y007297D01*
X023800Y007395D02*
X029980Y007395D01*
X029980Y007494D02*
X023800Y007494D01*
X023800Y007592D02*
X029980Y007592D01*
X029980Y007691D02*
X023800Y007691D01*
X023800Y007789D02*
X029980Y007789D01*
X029980Y007888D02*
X023800Y007888D01*
X023800Y007987D02*
X029980Y007987D01*
X029980Y008085D02*
X023800Y008085D01*
X023800Y008184D02*
X029980Y008184D01*
X029980Y008282D02*
X023800Y008282D01*
X023800Y008381D02*
X029980Y008381D01*
X029980Y008479D02*
X023800Y008479D01*
X023800Y008578D02*
X029980Y008578D01*
X029980Y008676D02*
X023800Y008676D01*
X023800Y008775D02*
X029980Y008775D01*
X029980Y008873D02*
X023800Y008873D01*
X023800Y008972D02*
X029980Y008972D01*
X029980Y009071D02*
X023800Y009071D01*
X023800Y009169D02*
X029980Y009169D01*
X029980Y009268D02*
X023800Y009268D01*
X023800Y009366D02*
X029980Y009366D01*
X029980Y009465D02*
X023800Y009465D01*
X023800Y009563D02*
X029980Y009563D01*
X029980Y009662D02*
X023800Y009662D01*
X023800Y009760D02*
X029980Y009760D01*
X029980Y009859D02*
X023800Y009859D01*
X023800Y009957D02*
X029980Y009957D01*
X029980Y010056D02*
X023800Y010056D01*
X023800Y010154D02*
X029980Y010154D01*
X029980Y010253D02*
X023800Y010253D01*
X023800Y010352D02*
X029980Y010352D01*
X029980Y010450D02*
X023800Y010450D01*
X023800Y010549D02*
X029980Y010549D01*
X029980Y010647D02*
X023800Y010647D01*
X023800Y010746D02*
X029980Y010746D01*
X029980Y010844D02*
X023800Y010844D01*
X023800Y010943D02*
X029980Y010943D01*
X029980Y011041D02*
X023800Y011041D01*
X023800Y011140D02*
X029980Y011140D01*
X029980Y011238D02*
X023800Y011238D01*
X023800Y011337D02*
X029980Y011337D01*
X029980Y011436D02*
X023800Y011436D01*
X023857Y011534D02*
X029980Y011534D01*
X029980Y011633D02*
X023956Y011633D01*
X024054Y011731D02*
X029980Y011731D01*
X029980Y011830D02*
X024153Y011830D01*
X024252Y011928D02*
X029980Y011928D01*
X029980Y012027D02*
X024350Y012027D01*
X024449Y012125D02*
X029980Y012125D01*
X029980Y012224D02*
X024547Y012224D01*
X024646Y012322D02*
X029980Y012322D01*
X029980Y012421D02*
X024744Y012421D01*
X024843Y012520D02*
X029980Y012520D01*
X029980Y012618D02*
X024941Y012618D01*
X025040Y012717D02*
X029980Y012717D01*
X029980Y012815D02*
X028488Y012815D01*
X028587Y012914D02*
X029980Y012914D01*
X029980Y013012D02*
X028686Y013012D01*
X028897Y013111D02*
X029980Y013111D01*
X029980Y013209D02*
X028985Y013209D01*
X029025Y013308D02*
X029980Y013308D01*
X029980Y013406D02*
X029030Y013406D01*
X029011Y013505D02*
X029092Y013505D01*
X029280Y013505D02*
X029980Y013505D01*
X029980Y013604D02*
X029440Y013604D01*
X029506Y013702D02*
X029980Y013702D01*
X029980Y013801D02*
X029536Y013801D01*
X029536Y013899D02*
X029980Y013899D01*
X029980Y013998D02*
X029502Y013998D01*
X029456Y014096D02*
X029980Y014096D01*
X029980Y014195D02*
X029456Y014195D01*
X029432Y014293D02*
X029980Y014293D01*
X029980Y014392D02*
X029358Y014392D01*
X029339Y014411D02*
X029339Y014411D01*
X029260Y014490D02*
X029980Y014490D01*
X029980Y014589D02*
X029161Y014589D01*
X029063Y014687D02*
X029980Y014687D01*
X029980Y014786D02*
X028964Y014786D01*
X028866Y014885D02*
X029980Y014885D01*
X029980Y014983D02*
X028767Y014983D01*
X028669Y015082D02*
X029980Y015082D01*
X029980Y015180D02*
X022854Y015180D01*
X022952Y015279D02*
X029980Y015279D01*
X029980Y015377D02*
X023051Y015377D01*
X023149Y015476D02*
X029980Y015476D01*
X029980Y015574D02*
X023248Y015574D01*
X023346Y015673D02*
X029980Y015673D01*
X029980Y015771D02*
X023445Y015771D01*
X023543Y015870D02*
X027434Y015870D01*
X027726Y015870D02*
X029980Y015870D01*
X029980Y015969D02*
X027855Y015969D01*
X027909Y016067D02*
X029980Y016067D01*
X029980Y016166D02*
X027930Y016166D01*
X027927Y016264D02*
X029980Y016264D01*
X029980Y016363D02*
X027887Y016363D01*
X027802Y016461D02*
X029980Y016461D01*
X029980Y016560D02*
X025435Y016560D01*
X025476Y016658D02*
X029980Y016658D01*
X029980Y016757D02*
X025480Y016757D01*
X025460Y016855D02*
X029980Y016855D01*
X029980Y016954D02*
X025409Y016954D01*
X025286Y017053D02*
X029980Y017053D01*
X029980Y017151D02*
X020650Y017151D01*
X020650Y017053D02*
X024974Y017053D01*
X024912Y016461D02*
X023185Y016461D01*
X023272Y016363D02*
X023086Y016363D01*
X023174Y016264D02*
X022987Y016264D01*
X023075Y016166D02*
X022889Y016166D01*
X022977Y016067D02*
X022790Y016067D01*
X022878Y015969D02*
X022692Y015969D01*
X022780Y015870D02*
X022593Y015870D01*
X022681Y015771D02*
X022495Y015771D01*
X022583Y015673D02*
X022396Y015673D01*
X022484Y015574D02*
X022298Y015574D01*
X022386Y015476D02*
X022199Y015476D01*
X022287Y015377D02*
X022101Y015377D01*
X022137Y015279D02*
X022002Y015279D01*
X021977Y015180D02*
X021904Y015180D01*
X021910Y015082D02*
X021805Y015082D01*
X021880Y014983D02*
X021706Y014983D01*
X021794Y014885D02*
X021608Y014885D01*
X021696Y014786D02*
X021509Y014786D01*
X021597Y014687D02*
X021411Y014687D01*
X021499Y014589D02*
X021312Y014589D01*
X021400Y014490D02*
X021214Y014490D01*
X021302Y014392D02*
X021115Y014392D01*
X021203Y014293D02*
X021017Y014293D01*
X021104Y014195D02*
X020918Y014195D01*
X021006Y014096D02*
X020820Y014096D01*
X020907Y013998D02*
X020721Y013998D01*
X020809Y013899D02*
X020622Y013899D01*
X020710Y013801D02*
X020524Y013801D01*
X020612Y013702D02*
X020425Y013702D01*
X020513Y013604D02*
X020327Y013604D01*
X020415Y013505D02*
X020228Y013505D01*
X020316Y013406D02*
X020130Y013406D01*
X020031Y013308D02*
X020237Y013308D01*
X020210Y013209D02*
X019933Y013209D01*
X019834Y013111D02*
X020210Y013111D01*
X020210Y013012D02*
X019736Y013012D01*
X019637Y012914D02*
X020210Y012914D01*
X020174Y012815D02*
X019538Y012815D01*
X019440Y012717D02*
X020134Y012717D01*
X020130Y012618D02*
X019341Y012618D01*
X019243Y012520D02*
X020150Y012520D01*
X020203Y012421D02*
X019144Y012421D01*
X019046Y012322D02*
X020328Y012322D01*
X020632Y012322D02*
X020836Y012322D01*
X020830Y012224D02*
X018947Y012224D01*
X018912Y012125D02*
X020848Y012125D01*
X020897Y012027D02*
X018863Y012027D01*
X018746Y011928D02*
X021014Y011928D01*
X021346Y011928D02*
X021630Y011928D01*
X021589Y011830D02*
X018190Y011830D01*
X018190Y011928D02*
X018414Y011928D01*
X018297Y012027D02*
X018190Y012027D01*
X018190Y012125D02*
X018248Y012125D01*
X018230Y012224D02*
X018190Y012224D01*
X018190Y012322D02*
X018236Y012322D01*
X018277Y012421D02*
X018190Y012421D01*
X018190Y012520D02*
X018366Y012520D01*
X018239Y012618D02*
X018190Y012618D01*
X018521Y012618D02*
X018578Y012618D01*
X018653Y012717D02*
X018676Y012717D01*
X018708Y012815D02*
X018775Y012815D01*
X018737Y012914D02*
X018873Y012914D01*
X018836Y013012D02*
X018972Y013012D01*
X018934Y013111D02*
X019070Y013111D01*
X019033Y013209D02*
X019169Y013209D01*
X019131Y013308D02*
X019268Y013308D01*
X019230Y013406D02*
X019366Y013406D01*
X019328Y013505D02*
X019465Y013505D01*
X019427Y013604D02*
X019563Y013604D01*
X019525Y013702D02*
X019662Y013702D01*
X019615Y013801D02*
X019760Y013801D01*
X019859Y013899D02*
X019650Y013899D01*
X019650Y013998D02*
X019957Y013998D01*
X020056Y014096D02*
X019650Y014096D01*
X019650Y014195D02*
X020154Y014195D01*
X020253Y014293D02*
X019650Y014293D01*
X019650Y014392D02*
X020352Y014392D01*
X020450Y014490D02*
X019650Y014490D01*
X019650Y014589D02*
X020549Y014589D01*
X020647Y014687D02*
X019650Y014687D01*
X019650Y014786D02*
X020746Y014786D01*
X020844Y014885D02*
X019650Y014885D01*
X019650Y014983D02*
X020943Y014983D01*
X021041Y015082D02*
X019650Y015082D01*
X019650Y015180D02*
X021140Y015180D01*
X021238Y015279D02*
X019650Y015279D01*
X019650Y015377D02*
X021337Y015377D01*
X021436Y015476D02*
X019650Y015476D01*
X019650Y015574D02*
X021534Y015574D01*
X021633Y015673D02*
X019650Y015673D01*
X019650Y015771D02*
X021731Y015771D01*
X021830Y015870D02*
X020526Y015870D01*
X020578Y015892D02*
X020677Y015990D01*
X020730Y016119D01*
X020730Y016258D01*
X020677Y016387D01*
X020650Y016413D01*
X020650Y017322D01*
X020830Y017502D01*
X020830Y017875D01*
X020566Y018138D01*
X020194Y018138D01*
X019930Y017875D01*
X019930Y017502D01*
X020110Y017322D01*
X020110Y016413D01*
X020083Y016387D01*
X020030Y016258D01*
X020030Y016119D01*
X020083Y015990D01*
X020182Y015892D01*
X020310Y015839D01*
X020450Y015839D01*
X020578Y015892D01*
X020655Y015969D02*
X021928Y015969D01*
X022027Y016067D02*
X020709Y016067D01*
X020730Y016166D02*
X022125Y016166D01*
X022224Y016264D02*
X020727Y016264D01*
X020687Y016363D02*
X022322Y016363D01*
X022421Y016461D02*
X020650Y016461D01*
X020650Y016560D02*
X022519Y016560D01*
X022618Y016658D02*
X020650Y016658D01*
X020650Y016757D02*
X022717Y016757D01*
X022815Y016855D02*
X020650Y016855D01*
X020650Y016954D02*
X022914Y016954D01*
X023721Y017762D02*
X023833Y017649D01*
X023980Y017589D01*
X024140Y017589D01*
X024287Y017649D01*
X024399Y017762D01*
X024460Y017909D01*
X024460Y018068D01*
X024399Y018215D01*
X024287Y018328D01*
X024140Y018388D01*
X023980Y018388D01*
X023833Y018328D01*
X023721Y018215D01*
X023660Y018068D01*
X023660Y017909D01*
X023721Y017762D01*
X023740Y017742D02*
X020830Y017742D01*
X020830Y017644D02*
X023847Y017644D01*
X023688Y017841D02*
X020830Y017841D01*
X020765Y017939D02*
X023660Y017939D01*
X023660Y018038D02*
X020667Y018038D01*
X020568Y018136D02*
X023688Y018136D01*
X023741Y018235D02*
X019308Y018235D01*
X019568Y018136D02*
X020192Y018136D01*
X020194Y018239D02*
X020340Y018239D01*
X020340Y018648D01*
X020420Y018648D01*
X020420Y018239D01*
X020566Y018239D01*
X020830Y018502D01*
X020830Y018648D01*
X020420Y018648D01*
X020420Y018729D01*
X020340Y018729D01*
X020340Y019138D01*
X020194Y019138D01*
X019930Y018875D01*
X019930Y018729D01*
X020340Y018729D01*
X020340Y018648D01*
X019930Y018648D01*
X019930Y018502D01*
X020194Y018239D01*
X020099Y018334D02*
X019661Y018334D01*
X019760Y018432D02*
X020000Y018432D01*
X019930Y018531D02*
X019830Y018531D01*
X019830Y018629D02*
X019930Y018629D01*
X019830Y018728D02*
X020340Y018728D01*
X020420Y018729D02*
X020420Y019138D01*
X020566Y019138D01*
X020830Y018875D01*
X020830Y018729D01*
X020420Y018729D01*
X020420Y018728D02*
X025511Y018728D01*
X025536Y018753D02*
X025415Y018632D01*
X025350Y018474D01*
X025350Y018303D01*
X025415Y018145D01*
X025510Y018050D01*
X025510Y017813D01*
X025483Y017787D01*
X025430Y017658D01*
X025430Y017519D01*
X025483Y017390D01*
X025582Y017292D01*
X025710Y017239D01*
X025850Y017239D01*
X025978Y017292D01*
X026030Y017344D01*
X026082Y017292D01*
X026210Y017239D01*
X026350Y017239D01*
X026478Y017292D01*
X026577Y017390D01*
X026630Y017519D01*
X026630Y017658D01*
X026577Y017787D01*
X026550Y017813D01*
X026550Y018024D01*
X026555Y018021D01*
X026615Y017990D01*
X026679Y017969D01*
X026746Y017959D01*
X026750Y017959D01*
X026750Y018358D01*
X026810Y018358D01*
X026810Y017959D01*
X026814Y017959D01*
X026881Y017969D01*
X026945Y017990D01*
X027005Y018021D01*
X027060Y018061D01*
X027108Y018108D01*
X027148Y018163D01*
X027178Y018223D01*
X027199Y018288D01*
X027210Y018355D01*
X027210Y018358D01*
X026810Y018358D01*
X026810Y018419D01*
X027210Y018419D01*
X027210Y018422D01*
X027199Y018489D01*
X027178Y018554D01*
X027148Y018614D01*
X027108Y018669D01*
X027060Y018716D01*
X027005Y018756D01*
X026945Y018787D01*
X026881Y018808D01*
X026838Y018815D01*
X027044Y019021D01*
X027194Y018959D01*
X027366Y018959D01*
X027524Y019024D01*
X027644Y019145D01*
X027710Y019303D01*
X027710Y019474D01*
X027644Y019632D01*
X027524Y019753D01*
X027366Y019818D01*
X027194Y019818D01*
X027036Y019753D01*
X026918Y019634D01*
X026877Y019617D01*
X026710Y019450D01*
X026710Y019474D01*
X026644Y019632D01*
X026524Y019753D01*
X026366Y019818D01*
X026194Y019818D01*
X026036Y019753D01*
X025915Y019632D01*
X025850Y019474D01*
X025850Y019303D01*
X025915Y019145D01*
X026036Y019024D01*
X026194Y018959D01*
X026218Y018959D01*
X026127Y018867D01*
X026051Y018791D01*
X026032Y018745D01*
X026024Y018753D01*
X025866Y018818D01*
X025694Y018818D01*
X025536Y018753D01*
X025414Y018629D02*
X020830Y018629D01*
X020830Y018531D02*
X025374Y018531D01*
X025350Y018432D02*
X020760Y018432D01*
X020661Y018334D02*
X023848Y018334D01*
X024272Y018334D02*
X025350Y018334D01*
X025378Y018235D02*
X024379Y018235D01*
X024432Y018136D02*
X025424Y018136D01*
X025510Y018038D02*
X024460Y018038D01*
X024460Y017939D02*
X025510Y017939D01*
X025510Y017841D02*
X024432Y017841D01*
X024379Y017742D02*
X025465Y017742D01*
X025430Y017644D02*
X024273Y017644D01*
X025430Y017545D02*
X020830Y017545D01*
X020775Y017447D02*
X025460Y017447D01*
X025525Y017348D02*
X020676Y017348D01*
X020650Y017250D02*
X025684Y017250D01*
X025876Y017250D02*
X026184Y017250D01*
X026376Y017250D02*
X029820Y017250D01*
X029688Y017348D02*
X026535Y017348D01*
X026600Y017447D02*
X029583Y017447D01*
X029499Y017545D02*
X026630Y017545D01*
X026630Y017644D02*
X029431Y017644D01*
X029375Y017742D02*
X026595Y017742D01*
X026550Y017841D02*
X029329Y017841D01*
X029293Y017939D02*
X026550Y017939D01*
X026750Y018038D02*
X026810Y018038D01*
X026810Y018136D02*
X026750Y018136D01*
X026750Y018235D02*
X026810Y018235D01*
X026810Y018334D02*
X026750Y018334D01*
X027029Y018038D02*
X029264Y018038D01*
X029245Y018136D02*
X027128Y018136D01*
X027182Y018235D02*
X029234Y018235D01*
X029233Y018432D02*
X027208Y018432D01*
X027207Y018334D02*
X029980Y018334D01*
X029243Y018531D02*
X027186Y018531D01*
X027137Y018629D02*
X029262Y018629D01*
X029290Y018728D02*
X027045Y018728D01*
X026850Y018826D02*
X029325Y018826D01*
X029369Y018925D02*
X026948Y018925D01*
X027522Y019023D02*
X029424Y019023D01*
X029491Y019122D02*
X027621Y019122D01*
X027676Y019220D02*
X029574Y019220D01*
X029676Y019319D02*
X027710Y019319D01*
X027710Y019418D02*
X029805Y019418D01*
X029976Y019516D02*
X027693Y019516D01*
X027652Y019615D02*
X029980Y019615D01*
X029980Y019713D02*
X027563Y019713D01*
X027382Y019812D02*
X029980Y019812D01*
X029980Y019910D02*
X001430Y019910D01*
X001430Y019812D02*
X026178Y019812D01*
X026382Y019812D02*
X027178Y019812D01*
X026997Y019713D02*
X026563Y019713D01*
X026652Y019615D02*
X026874Y019615D01*
X026776Y019516D02*
X026693Y019516D01*
X025997Y019713D02*
X001430Y019713D01*
X001430Y019615D02*
X025908Y019615D01*
X025867Y019516D02*
X010092Y019516D01*
X010209Y019418D02*
X025850Y019418D01*
X025850Y019319D02*
X010271Y019319D01*
X010310Y019220D02*
X025884Y019220D01*
X025938Y019122D02*
X020583Y019122D01*
X020681Y019023D02*
X026038Y019023D01*
X026185Y018925D02*
X020780Y018925D01*
X020830Y018826D02*
X026086Y018826D01*
X025348Y016461D02*
X027358Y016461D01*
X025591Y015082D02*
X022755Y015082D01*
X022656Y014983D02*
X025493Y014983D01*
X025394Y014885D02*
X022580Y014885D01*
X022546Y014786D02*
X025296Y014786D01*
X025197Y014687D02*
X022474Y014687D01*
X022138Y013801D02*
X022074Y013801D01*
X022172Y013702D02*
X021975Y013702D01*
X022050Y013604D02*
X021877Y013604D01*
X021778Y013505D02*
X021999Y013505D01*
X021980Y013406D02*
X021680Y013406D01*
X021581Y013308D02*
X021985Y013308D01*
X022025Y013209D02*
X021483Y013209D01*
X021450Y013111D02*
X022113Y013111D01*
X022547Y013111D02*
X024671Y013111D01*
X024572Y013012D02*
X021450Y013012D01*
X021450Y012914D02*
X024473Y012914D01*
X024375Y012815D02*
X021450Y012815D01*
X021450Y012717D02*
X024276Y012717D01*
X024178Y012618D02*
X021450Y012618D01*
X021450Y012520D02*
X024079Y012520D01*
X023981Y012421D02*
X021483Y012421D01*
X021524Y012322D02*
X023882Y012322D01*
X023784Y012224D02*
X021530Y012224D01*
X021512Y012125D02*
X023685Y012125D01*
X023587Y012027D02*
X022137Y012027D01*
X022230Y011928D02*
X023488Y011928D01*
X023389Y011830D02*
X022271Y011830D01*
X022319Y011731D02*
X023297Y011731D01*
X023260Y011633D02*
X022418Y011633D01*
X022516Y011534D02*
X023260Y011534D01*
X023260Y011436D02*
X022615Y011436D01*
X022713Y011337D02*
X023260Y011337D01*
X023260Y011238D02*
X022812Y011238D01*
X022910Y011140D02*
X023260Y011140D01*
X023260Y011041D02*
X023009Y011041D01*
X023107Y010943D02*
X023260Y010943D01*
X023260Y010844D02*
X023149Y010844D01*
X023150Y010746D02*
X023260Y010746D01*
X023260Y010647D02*
X023150Y010647D01*
X023150Y010549D02*
X023260Y010549D01*
X023260Y010450D02*
X023150Y010450D01*
X023150Y010352D02*
X023260Y010352D01*
X023260Y010253D02*
X023150Y010253D01*
X023150Y010154D02*
X023260Y010154D01*
X023260Y010056D02*
X023150Y010056D01*
X023150Y009957D02*
X023260Y009957D01*
X023260Y009859D02*
X023150Y009859D01*
X023150Y009760D02*
X023260Y009760D01*
X023260Y009662D02*
X023150Y009662D01*
X023150Y009563D02*
X023260Y009563D01*
X023260Y009465D02*
X023150Y009465D01*
X023150Y009366D02*
X023260Y009366D01*
X023260Y009268D02*
X023150Y009268D01*
X023150Y009169D02*
X023260Y009169D01*
X023260Y009071D02*
X023150Y009071D01*
X023150Y008972D02*
X023260Y008972D01*
X023260Y008873D02*
X023150Y008873D01*
X023150Y008775D02*
X023260Y008775D01*
X023260Y008676D02*
X023150Y008676D01*
X023150Y008578D02*
X023260Y008578D01*
X023260Y008479D02*
X023150Y008479D01*
X023150Y008381D02*
X023260Y008381D01*
X023260Y008282D02*
X023150Y008282D01*
X023150Y008184D02*
X023260Y008184D01*
X023260Y008085D02*
X023150Y008085D01*
X023150Y007987D02*
X023260Y007987D01*
X023260Y007888D02*
X023150Y007888D01*
X023150Y007789D02*
X023260Y007789D01*
X023260Y007691D02*
X023150Y007691D01*
X023150Y007592D02*
X023260Y007592D01*
X023260Y007494D02*
X023150Y007494D01*
X023150Y007395D02*
X023260Y007395D01*
X023260Y007297D02*
X023150Y007297D01*
X023150Y007198D02*
X023260Y007198D01*
X023260Y007100D02*
X023150Y007100D01*
X023150Y007001D02*
X023260Y007001D01*
X023260Y006903D02*
X023150Y006903D01*
X023150Y006804D02*
X023260Y006804D01*
X023260Y006705D02*
X023150Y006705D01*
X023150Y006607D02*
X023260Y006607D01*
X023260Y006508D02*
X023150Y006508D01*
X023150Y006410D02*
X023260Y006410D01*
X023260Y006311D02*
X023150Y006311D01*
X023150Y006213D02*
X023260Y006213D01*
X023260Y006114D02*
X023150Y006114D01*
X023150Y006016D02*
X023260Y006016D01*
X023260Y005917D02*
X023150Y005917D01*
X023150Y005819D02*
X023260Y005819D01*
X023260Y005720D02*
X023150Y005720D01*
X023150Y005621D02*
X023260Y005621D01*
X023260Y005523D02*
X023182Y005523D01*
X023223Y005424D02*
X023285Y005424D01*
X023230Y005326D02*
X023361Y005326D01*
X023459Y005227D02*
X023213Y005227D01*
X023165Y005129D02*
X023558Y005129D01*
X023656Y005030D02*
X023050Y005030D01*
X023684Y004932D02*
X023755Y004932D01*
X023782Y004833D02*
X023854Y004833D01*
X023881Y004735D02*
X023952Y004735D01*
X023484Y004538D02*
X023465Y004538D01*
X023564Y004439D02*
X023583Y004439D01*
X023625Y004340D02*
X023681Y004340D01*
X023666Y004242D02*
X023780Y004242D01*
X023790Y004143D02*
X023670Y004143D01*
X023670Y004045D02*
X023790Y004045D01*
X023831Y003946D02*
X023629Y003946D01*
X023574Y003848D02*
X023886Y003848D01*
X023985Y003749D02*
X023475Y003749D01*
X023430Y003552D02*
X024030Y003552D01*
X023910Y003454D02*
X023550Y003454D01*
X024480Y004139D02*
X024580Y004139D01*
X023970Y002764D02*
X023490Y002764D01*
X023395Y002567D02*
X024065Y002567D01*
X023925Y002468D02*
X023535Y002468D01*
X023610Y002370D02*
X023850Y002370D01*
X023809Y002271D02*
X023651Y002271D01*
X023666Y002074D02*
X023794Y002074D01*
X023819Y001975D02*
X023641Y001975D01*
X023591Y001877D02*
X023869Y001877D01*
X023956Y001778D02*
X023504Y001778D01*
X023308Y001680D02*
X024152Y001680D01*
X024530Y001680D02*
X024630Y001680D01*
X024630Y001778D02*
X024530Y001778D01*
X024530Y001877D02*
X024630Y001877D01*
X024630Y001975D02*
X024530Y001975D01*
X024530Y002074D02*
X024630Y002074D01*
X024630Y002370D02*
X024530Y002370D01*
X024530Y002468D02*
X024630Y002468D01*
X024630Y002567D02*
X024530Y002567D01*
X022930Y002567D02*
X022830Y002567D01*
X022830Y002468D02*
X022930Y002468D01*
X022930Y002370D02*
X022830Y002370D01*
X022830Y002271D02*
X022930Y002271D01*
X022930Y001975D02*
X022830Y001975D01*
X022830Y001877D02*
X022930Y001877D01*
X022930Y001778D02*
X022830Y001778D01*
X022830Y001680D02*
X022930Y001680D01*
X019463Y001778D02*
X018997Y001778D01*
X019095Y001877D02*
X019365Y001877D01*
X019306Y001975D02*
X019154Y001975D01*
X019195Y002074D02*
X019265Y002074D01*
X019263Y002172D02*
X019197Y002172D01*
X019197Y002271D02*
X019263Y002271D01*
X017233Y004538D02*
X012460Y004538D01*
X012460Y004636D02*
X017144Y004636D01*
X017103Y004735D02*
X012460Y004735D01*
X012460Y004833D02*
X017092Y004833D01*
X017099Y004932D02*
X012460Y004932D01*
X012460Y005030D02*
X017130Y005030D01*
X017130Y005129D02*
X012460Y005129D01*
X012460Y005227D02*
X017130Y005227D01*
X017130Y005326D02*
X012460Y005326D01*
X012460Y005424D02*
X017130Y005424D01*
X017130Y005523D02*
X012460Y005523D01*
X012460Y005621D02*
X017130Y005621D01*
X017130Y005720D02*
X012460Y005720D01*
X012460Y005819D02*
X017130Y005819D01*
X017130Y005917D02*
X012460Y005917D01*
X012460Y006016D02*
X017130Y006016D01*
X017112Y006114D02*
X012460Y006114D01*
X012460Y006213D02*
X017092Y006213D01*
X017092Y006311D02*
X012460Y006311D01*
X012460Y006410D02*
X017130Y006410D01*
X017130Y006508D02*
X012460Y006508D01*
X012460Y006607D02*
X017130Y006607D01*
X017130Y006705D02*
X012460Y006705D01*
X012460Y006804D02*
X017095Y006804D01*
X017092Y006903D02*
X012460Y006903D01*
X012460Y007001D02*
X017107Y007001D01*
X017148Y007100D02*
X012460Y007100D01*
X012460Y007198D02*
X017241Y007198D01*
X017719Y007198D02*
X021270Y007198D01*
X021270Y007100D02*
X017812Y007100D01*
X017853Y007001D02*
X021270Y007001D01*
X021270Y006903D02*
X017868Y006903D01*
X017865Y006804D02*
X020927Y006804D01*
X020802Y006705D02*
X017830Y006705D01*
X017830Y006607D02*
X020750Y006607D01*
X020730Y006508D02*
X017830Y006508D01*
X017830Y006410D02*
X020734Y006410D01*
X020775Y006311D02*
X017868Y006311D01*
X017868Y006213D02*
X020810Y006213D01*
X020810Y006114D02*
X017848Y006114D01*
X017830Y006016D02*
X020810Y006016D01*
X020810Y005917D02*
X017830Y005917D01*
X017830Y005819D02*
X020810Y005819D01*
X020810Y005720D02*
X017830Y005720D01*
X017830Y005621D02*
X020810Y005621D01*
X020810Y005523D02*
X017830Y005523D01*
X017830Y005424D02*
X020810Y005424D01*
X020810Y005326D02*
X017830Y005326D01*
X017830Y005227D02*
X020813Y005227D01*
X022040Y005917D02*
X022060Y005917D01*
X022060Y006016D02*
X022040Y006016D01*
X022040Y006114D02*
X022060Y006114D01*
X022060Y006213D02*
X022040Y006213D01*
X022040Y006311D02*
X022060Y006311D01*
X022060Y006410D02*
X022040Y006410D01*
X022040Y006508D02*
X022060Y006508D01*
X022060Y006607D02*
X022040Y006607D01*
X022040Y006705D02*
X022060Y006705D01*
X022060Y006804D02*
X022040Y006804D01*
X022040Y006903D02*
X022060Y006903D01*
X022060Y007001D02*
X022040Y007001D01*
X022040Y007100D02*
X022060Y007100D01*
X022060Y007198D02*
X022040Y007198D01*
X022040Y007297D02*
X022060Y007297D01*
X022060Y007395D02*
X022040Y007395D01*
X022040Y007494D02*
X022060Y007494D01*
X022060Y007592D02*
X022040Y007592D01*
X022040Y007691D02*
X022060Y007691D01*
X022060Y007789D02*
X022040Y007789D01*
X022040Y007888D02*
X022060Y007888D01*
X022060Y007987D02*
X022040Y007987D01*
X022040Y008085D02*
X022060Y008085D01*
X022060Y008184D02*
X022040Y008184D01*
X022040Y008282D02*
X022060Y008282D01*
X022060Y008381D02*
X022040Y008381D01*
X022040Y008479D02*
X022060Y008479D01*
X022060Y008578D02*
X022040Y008578D01*
X022039Y008676D02*
X022060Y008676D01*
X022060Y008775D02*
X021941Y008775D01*
X021842Y008873D02*
X022060Y008873D01*
X022060Y008972D02*
X021743Y008972D01*
X021645Y009071D02*
X022060Y009071D01*
X022060Y009169D02*
X021546Y009169D01*
X021448Y009268D02*
X022060Y009268D01*
X022060Y009366D02*
X021349Y009366D01*
X021251Y009465D02*
X022060Y009465D01*
X022060Y009563D02*
X021152Y009563D01*
X021054Y009662D02*
X022060Y009662D01*
X022060Y009760D02*
X020955Y009760D01*
X020857Y009859D02*
X022060Y009859D01*
X022060Y009957D02*
X020758Y009957D01*
X020659Y010056D02*
X022060Y010056D01*
X022060Y010154D02*
X020561Y010154D01*
X020462Y010253D02*
X022034Y010253D01*
X021935Y010352D02*
X020364Y010352D01*
X020265Y010450D02*
X021837Y010450D01*
X021738Y010549D02*
X020167Y010549D01*
X020068Y010647D02*
X021639Y010647D01*
X021541Y010746D02*
X019270Y010746D01*
X019171Y010844D02*
X021442Y010844D01*
X021344Y010943D02*
X019073Y010943D01*
X018974Y011041D02*
X019253Y011041D01*
X019407Y011041D02*
X021245Y011041D01*
X021615Y011436D02*
X021747Y011436D01*
X021713Y011337D02*
X021950Y011337D01*
X022048Y011238D02*
X021812Y011238D01*
X021910Y011140D02*
X022147Y011140D01*
X022245Y011041D02*
X022009Y011041D01*
X022107Y010943D02*
X022344Y010943D01*
X022442Y010844D02*
X022206Y010844D01*
X022305Y010746D02*
X022541Y010746D01*
X022610Y010647D02*
X022403Y010647D01*
X022502Y010549D02*
X022610Y010549D01*
X022610Y010450D02*
X022576Y010450D01*
X022600Y010352D02*
X022610Y010352D01*
X022600Y010253D02*
X022610Y010253D01*
X022600Y010154D02*
X022610Y010154D01*
X022600Y010056D02*
X022610Y010056D01*
X022600Y009957D02*
X022610Y009957D01*
X022600Y009859D02*
X022610Y009859D01*
X022600Y009760D02*
X022610Y009760D01*
X022600Y009662D02*
X022610Y009662D01*
X022600Y009563D02*
X022610Y009563D01*
X022600Y009465D02*
X022610Y009465D01*
X022600Y009366D02*
X022610Y009366D01*
X022600Y009268D02*
X022610Y009268D01*
X022600Y009169D02*
X022610Y009169D01*
X022600Y009071D02*
X022610Y009071D01*
X022600Y008972D02*
X022610Y008972D01*
X022600Y008873D02*
X022610Y008873D01*
X022600Y008775D02*
X022610Y008775D01*
X022600Y008676D02*
X022610Y008676D01*
X022600Y008578D02*
X022610Y008578D01*
X022600Y008479D02*
X022610Y008479D01*
X022600Y008381D02*
X022610Y008381D01*
X022600Y008282D02*
X022610Y008282D01*
X022600Y008184D02*
X022610Y008184D01*
X022600Y008085D02*
X022610Y008085D01*
X022600Y007987D02*
X022610Y007987D01*
X022600Y007888D02*
X022610Y007888D01*
X022600Y007789D02*
X022610Y007789D01*
X022600Y007691D02*
X022610Y007691D01*
X022600Y007592D02*
X022610Y007592D01*
X022600Y007494D02*
X022610Y007494D01*
X022600Y007395D02*
X022610Y007395D01*
X022600Y007297D02*
X022610Y007297D01*
X022600Y007198D02*
X022610Y007198D01*
X022600Y007100D02*
X022610Y007100D01*
X022600Y007001D02*
X022610Y007001D01*
X022600Y006903D02*
X022610Y006903D01*
X022600Y006804D02*
X022610Y006804D01*
X022600Y006705D02*
X022610Y006705D01*
X022600Y006607D02*
X022610Y006607D01*
X022600Y006508D02*
X022610Y006508D01*
X022600Y006410D02*
X022610Y006410D01*
X022600Y006311D02*
X022610Y006311D01*
X022600Y006213D02*
X022610Y006213D01*
X022600Y006114D02*
X022610Y006114D01*
X022600Y006016D02*
X022610Y006016D01*
X022600Y005917D02*
X022610Y005917D01*
X021270Y006804D02*
X021233Y006804D01*
X021270Y007297D02*
X012460Y007297D01*
X012460Y007395D02*
X021270Y007395D01*
X021270Y007494D02*
X012460Y007494D01*
X012460Y007592D02*
X021270Y007592D01*
X021270Y007691D02*
X012460Y007691D01*
X012460Y007789D02*
X021270Y007789D01*
X021270Y007888D02*
X012460Y007888D01*
X012460Y007987D02*
X021270Y007987D01*
X021270Y008085D02*
X012460Y008085D01*
X012460Y008184D02*
X021270Y008184D01*
X021270Y008282D02*
X012460Y008282D01*
X012460Y008381D02*
X021270Y008381D01*
X021192Y008479D02*
X012460Y008479D01*
X012460Y008578D02*
X021094Y008578D01*
X020995Y008676D02*
X012460Y008676D01*
X012460Y008775D02*
X020897Y008775D01*
X020798Y008873D02*
X012460Y008873D01*
X012460Y008972D02*
X020700Y008972D01*
X020601Y009071D02*
X012460Y009071D01*
X012460Y009169D02*
X020502Y009169D01*
X020404Y009268D02*
X012460Y009268D01*
X012460Y009366D02*
X020305Y009366D01*
X020207Y009465D02*
X012460Y009465D01*
X012460Y009563D02*
X020108Y009563D01*
X020010Y009662D02*
X012460Y009662D01*
X012460Y009760D02*
X019911Y009760D01*
X019813Y009859D02*
X012460Y009859D01*
X012460Y009957D02*
X019014Y009957D01*
X018916Y010056D02*
X012460Y010056D01*
X012460Y010154D02*
X018817Y010154D01*
X018718Y010253D02*
X012460Y010253D01*
X012460Y010352D02*
X018620Y010352D01*
X018521Y010450D02*
X012460Y010450D01*
X012460Y010549D02*
X018423Y010549D01*
X018324Y010647D02*
X012460Y010647D01*
X012460Y010746D02*
X018226Y010746D01*
X018127Y010844D02*
X012460Y010844D01*
X012460Y010943D02*
X018029Y010943D01*
X017930Y011041D02*
X012460Y011041D01*
X012460Y011140D02*
X017832Y011140D01*
X017733Y011238D02*
X012460Y011238D01*
X012460Y011337D02*
X017634Y011337D01*
X017536Y011436D02*
X012460Y011436D01*
X012460Y011534D02*
X017437Y011534D01*
X017420Y011633D02*
X012460Y011633D01*
X012460Y011731D02*
X017420Y011731D01*
X017420Y011830D02*
X012460Y011830D01*
X012460Y011928D02*
X017420Y011928D01*
X017420Y012027D02*
X012460Y012027D01*
X012460Y012125D02*
X017420Y012125D01*
X017420Y012224D02*
X012460Y012224D01*
X012460Y012322D02*
X017420Y012322D01*
X017420Y012421D02*
X012471Y012421D01*
X012569Y012520D02*
X017420Y012520D01*
X017420Y012618D02*
X012668Y012618D01*
X012766Y012717D02*
X017420Y012717D01*
X017420Y012815D02*
X016664Y012815D01*
X016600Y012789D02*
X016728Y012842D01*
X016827Y012940D01*
X016880Y013069D01*
X016880Y013208D01*
X016827Y013337D01*
X016800Y013363D01*
X016800Y014642D01*
X016759Y014741D01*
X016683Y014817D01*
X015800Y015700D01*
X015800Y017727D01*
X015930Y017857D01*
X015930Y017502D01*
X016130Y017302D01*
X016130Y016133D01*
X016083Y016087D01*
X016030Y015958D01*
X016030Y015819D01*
X016083Y015690D01*
X016182Y015592D01*
X016310Y015539D01*
X016450Y015539D01*
X016578Y015592D01*
X016677Y015690D01*
X016730Y015819D01*
X016730Y015822D01*
X016810Y015789D01*
X016950Y015789D01*
X017078Y015842D01*
X017177Y015940D01*
X017230Y016069D01*
X017230Y016208D01*
X017177Y016337D01*
X017130Y016383D01*
X017130Y017302D01*
X017194Y017239D01*
X017566Y017239D01*
X017830Y017502D01*
X017830Y017875D01*
X017566Y018138D01*
X017194Y018138D01*
X017130Y018075D01*
X017130Y018085D01*
X017283Y018239D01*
X017566Y018239D01*
X017830Y018502D01*
X017830Y018875D01*
X017566Y019138D01*
X017194Y019138D01*
X016930Y018875D01*
X016930Y018592D01*
X016738Y018400D01*
X016668Y018330D01*
X016630Y018238D01*
X016630Y018075D01*
X016566Y018138D01*
X016212Y018138D01*
X016312Y018239D01*
X016566Y018239D01*
X016830Y018502D01*
X016830Y018875D01*
X016566Y019138D01*
X016194Y019138D01*
X015930Y018875D01*
X015930Y018620D01*
X015301Y017991D01*
X015260Y017892D01*
X015260Y017785D01*
X015260Y015642D01*
X015260Y015535D01*
X015301Y015436D01*
X016260Y014477D01*
X016260Y013363D01*
X016233Y013337D01*
X016180Y013208D01*
X016180Y013069D01*
X016233Y012940D01*
X016332Y012842D01*
X016460Y012789D01*
X016600Y012789D01*
X016396Y012815D02*
X012865Y012815D01*
X012963Y012914D02*
X016260Y012914D01*
X016203Y013012D02*
X013062Y013012D01*
X013160Y013111D02*
X016180Y013111D01*
X016181Y013209D02*
X013259Y013209D01*
X013357Y013308D02*
X016221Y013308D01*
X016260Y013406D02*
X013456Y013406D01*
X013554Y013505D02*
X016260Y013505D01*
X016260Y013604D02*
X014453Y013604D01*
X014547Y013702D02*
X016260Y013702D01*
X016260Y013801D02*
X014588Y013801D01*
X014610Y013899D02*
X016260Y013899D01*
X016260Y013998D02*
X014610Y013998D01*
X014580Y014096D02*
X016260Y014096D01*
X016260Y014195D02*
X014532Y014195D01*
X014433Y014293D02*
X016260Y014293D01*
X016260Y014392D02*
X010835Y014392D01*
X010933Y014293D02*
X013127Y014293D01*
X013028Y014195D02*
X011032Y014195D01*
X011130Y014096D02*
X012930Y014096D01*
X012831Y013998D02*
X011229Y013998D01*
X011327Y013899D02*
X012733Y013899D01*
X012634Y013801D02*
X011426Y013801D01*
X011524Y013702D02*
X012536Y013702D01*
X012437Y013604D02*
X011623Y013604D01*
X011722Y013505D02*
X012338Y013505D01*
X012240Y013406D02*
X011820Y013406D01*
X011919Y013308D02*
X012141Y013308D01*
X012043Y013209D02*
X012017Y013209D01*
X011392Y012618D02*
X001430Y012618D01*
X001430Y012520D02*
X011491Y012520D01*
X011589Y012421D02*
X001430Y012421D01*
X001430Y012322D02*
X011600Y012322D01*
X011600Y012224D02*
X001430Y012224D01*
X001430Y012125D02*
X011600Y012125D01*
X011600Y012027D02*
X001430Y012027D01*
X001430Y011928D02*
X011600Y011928D01*
X011600Y011830D02*
X001430Y011830D01*
X001430Y011731D02*
X011600Y011731D01*
X011600Y011633D02*
X001430Y011633D01*
X001430Y011534D02*
X011600Y011534D01*
X011600Y011436D02*
X001430Y011436D01*
X001430Y011337D02*
X011600Y011337D01*
X011600Y011238D02*
X001430Y011238D01*
X001430Y011140D02*
X011600Y011140D01*
X011600Y011041D02*
X001430Y011041D01*
X001430Y010943D02*
X011600Y010943D01*
X011600Y010844D02*
X001430Y010844D01*
X001430Y010746D02*
X011600Y010746D01*
X011600Y010647D02*
X001430Y010647D01*
X001430Y010549D02*
X011600Y010549D01*
X011600Y010450D02*
X001430Y010450D01*
X001430Y010352D02*
X011600Y010352D01*
X011600Y010253D02*
X001430Y010253D01*
X001430Y010154D02*
X011600Y010154D01*
X011600Y010056D02*
X001430Y010056D01*
X001430Y009957D02*
X011600Y009957D01*
X011600Y009859D02*
X001430Y009859D01*
X001430Y009760D02*
X011600Y009760D01*
X011600Y009662D02*
X001430Y009662D01*
X001430Y009563D02*
X011600Y009563D01*
X011600Y009465D02*
X001430Y009465D01*
X001430Y009366D02*
X011600Y009366D01*
X011600Y009268D02*
X001430Y009268D01*
X001430Y009169D02*
X011600Y009169D01*
X011600Y009071D02*
X001430Y009071D01*
X001430Y008972D02*
X011600Y008972D01*
X011600Y008873D02*
X001430Y008873D01*
X001430Y008775D02*
X011600Y008775D01*
X011600Y008676D02*
X001430Y008676D01*
X001430Y008578D02*
X011600Y008578D01*
X011600Y008479D02*
X001430Y008479D01*
X001430Y008381D02*
X011600Y008381D01*
X011600Y008282D02*
X001430Y008282D01*
X001430Y008184D02*
X011600Y008184D01*
X011600Y008085D02*
X001430Y008085D01*
X001430Y007987D02*
X011600Y007987D01*
X011600Y007888D02*
X001430Y007888D01*
X001430Y007789D02*
X002622Y007789D01*
X002515Y007691D02*
X001430Y007691D01*
X001430Y007592D02*
X002442Y007592D01*
X002401Y007494D02*
X001430Y007494D01*
X001430Y007395D02*
X002380Y007395D01*
X002380Y007297D02*
X001430Y007297D01*
X001430Y007198D02*
X002395Y007198D01*
X002436Y007100D02*
X001430Y007100D01*
X001430Y007001D02*
X002500Y007001D01*
X002598Y006903D02*
X001430Y006903D01*
X003938Y007789D02*
X011600Y007789D01*
X011600Y007691D02*
X004045Y007691D01*
X005930Y007001D02*
X011600Y007001D01*
X011600Y007100D02*
X006086Y007100D01*
X006151Y007198D02*
X011600Y007198D01*
X011600Y007297D02*
X006180Y007297D01*
X006180Y007395D02*
X011600Y007395D01*
X011600Y007494D02*
X006144Y007494D01*
X006071Y007592D02*
X011600Y007592D01*
X018284Y011731D02*
X019243Y011731D01*
X019417Y011731D02*
X021580Y011731D01*
X021595Y011633D02*
X021396Y011633D01*
X021516Y011534D02*
X021639Y011534D01*
X021723Y012027D02*
X021463Y012027D01*
X020877Y012421D02*
X020757Y012421D01*
X020810Y012520D02*
X020910Y012520D01*
X020910Y012618D02*
X020830Y012618D01*
X020826Y012717D02*
X020910Y012717D01*
X020910Y012815D02*
X020786Y012815D01*
X020750Y012914D02*
X020910Y012914D01*
X020910Y013012D02*
X020750Y013012D01*
X020784Y013111D02*
X020910Y013111D01*
X020910Y013209D02*
X020883Y013209D01*
X019110Y014096D02*
X018340Y014096D01*
X018340Y013998D02*
X019057Y013998D01*
X018959Y013899D02*
X018340Y013899D01*
X018340Y013801D02*
X018860Y013801D01*
X018762Y013702D02*
X018340Y013702D01*
X018242Y013604D02*
X018663Y013604D01*
X018565Y013505D02*
X018190Y013505D01*
X018190Y013406D02*
X018466Y013406D01*
X018368Y013308D02*
X018190Y013308D01*
X017420Y013308D02*
X016839Y013308D01*
X016800Y013406D02*
X017420Y013406D01*
X017420Y013505D02*
X016800Y013505D01*
X016800Y013604D02*
X017420Y013604D01*
X017420Y013702D02*
X016800Y013702D01*
X016800Y013801D02*
X017420Y013801D01*
X017420Y013899D02*
X016800Y013899D01*
X016800Y013998D02*
X017420Y013998D01*
X017420Y014096D02*
X016800Y014096D01*
X016800Y014195D02*
X017331Y014195D01*
X017291Y014293D02*
X016800Y014293D01*
X016800Y014392D02*
X017280Y014392D01*
X017293Y014490D02*
X016800Y014490D01*
X016800Y014589D02*
X017335Y014589D01*
X017437Y014687D02*
X016781Y014687D01*
X016714Y014786D02*
X017337Y014786D01*
X017294Y014885D02*
X016616Y014885D01*
X016517Y014983D02*
X017280Y014983D01*
X017290Y015082D02*
X016419Y015082D01*
X016320Y015180D02*
X017331Y015180D01*
X017425Y015279D02*
X016222Y015279D01*
X016123Y015377D02*
X018079Y015377D01*
X018110Y015476D02*
X016024Y015476D01*
X015926Y015574D02*
X016224Y015574D01*
X016101Y015673D02*
X015827Y015673D01*
X015800Y015771D02*
X016050Y015771D01*
X016030Y015870D02*
X015800Y015870D01*
X015800Y015969D02*
X016034Y015969D01*
X016075Y016067D02*
X015800Y016067D01*
X015800Y016166D02*
X016130Y016166D01*
X016130Y016264D02*
X015800Y016264D01*
X015800Y016363D02*
X016130Y016363D01*
X016130Y016461D02*
X015800Y016461D01*
X015800Y016560D02*
X016130Y016560D01*
X016130Y016658D02*
X015800Y016658D01*
X015800Y016757D02*
X016130Y016757D01*
X016130Y016855D02*
X015800Y016855D01*
X015800Y016954D02*
X016130Y016954D01*
X016130Y017053D02*
X015800Y017053D01*
X015800Y017151D02*
X016130Y017151D01*
X016130Y017250D02*
X015800Y017250D01*
X015800Y017348D02*
X016084Y017348D01*
X015985Y017447D02*
X015800Y017447D01*
X015800Y017545D02*
X015930Y017545D01*
X015930Y017644D02*
X015800Y017644D01*
X015816Y017742D02*
X015930Y017742D01*
X015930Y017841D02*
X015914Y017841D01*
X015545Y018235D02*
X013405Y018235D01*
X013405Y018138D02*
X013405Y018505D01*
X013392Y018586D01*
X013366Y018665D01*
X013329Y018739D01*
X013280Y018806D01*
X013222Y018864D01*
X013155Y018912D01*
X013081Y018950D01*
X013003Y018976D01*
X012930Y018987D01*
X012930Y018139D01*
X012830Y018139D01*
X012830Y018987D01*
X012757Y018976D01*
X012678Y018950D01*
X012605Y018912D01*
X012538Y018864D01*
X012480Y018806D01*
X012431Y018739D01*
X012393Y018665D01*
X012368Y018586D01*
X012355Y018505D01*
X012355Y018138D01*
X012830Y018138D01*
X012830Y018039D01*
X012355Y018039D01*
X012355Y017672D01*
X012368Y017591D01*
X012393Y017512D01*
X012431Y017438D01*
X012480Y017371D01*
X012538Y017313D01*
X012605Y017264D01*
X012678Y017227D01*
X012757Y017201D01*
X012830Y017190D01*
X012830Y018038D01*
X012930Y018038D01*
X012930Y017190D01*
X013003Y017201D01*
X013081Y017227D01*
X013155Y017264D01*
X013222Y017313D01*
X013280Y017371D01*
X013329Y017438D01*
X013366Y017512D01*
X013392Y017591D01*
X013405Y017672D01*
X013405Y018039D01*
X012930Y018039D01*
X012930Y018138D01*
X013405Y018138D01*
X013405Y018038D02*
X015348Y018038D01*
X015280Y017939D02*
X013405Y017939D01*
X013405Y017841D02*
X015260Y017841D01*
X015260Y017742D02*
X013405Y017742D01*
X013400Y017644D02*
X015260Y017644D01*
X015260Y017545D02*
X013377Y017545D01*
X013333Y017447D02*
X015260Y017447D01*
X015260Y017348D02*
X013257Y017348D01*
X013126Y017250D02*
X015260Y017250D01*
X015260Y017151D02*
X011780Y017151D01*
X011780Y017053D02*
X015260Y017053D01*
X015260Y016954D02*
X011780Y016954D01*
X011780Y016855D02*
X015260Y016855D01*
X015260Y016757D02*
X011780Y016757D01*
X011780Y016658D02*
X015260Y016658D01*
X015260Y016560D02*
X011780Y016560D01*
X011780Y016461D02*
X015260Y016461D01*
X015260Y016363D02*
X011780Y016363D01*
X011780Y016264D02*
X015260Y016264D01*
X015260Y016166D02*
X011780Y016166D01*
X011780Y016067D02*
X015260Y016067D01*
X015260Y015969D02*
X011763Y015969D01*
X011780Y016009D02*
X011780Y017371D01*
X011825Y017416D01*
X011905Y017609D01*
X011905Y018568D01*
X011825Y018761D01*
X011677Y018909D01*
X011484Y018988D01*
X011276Y018988D01*
X011083Y018909D01*
X010935Y018761D01*
X010855Y018568D01*
X010855Y017609D01*
X010935Y017416D01*
X010980Y017371D01*
X010980Y016009D01*
X011041Y015862D01*
X011153Y015749D01*
X011300Y015689D01*
X011460Y015689D01*
X011607Y015749D01*
X011719Y015862D01*
X011780Y016009D01*
X011722Y015870D02*
X015260Y015870D01*
X015260Y015771D02*
X011629Y015771D01*
X011131Y015771D02*
X010310Y015771D01*
X010310Y015673D02*
X015260Y015673D01*
X015260Y015574D02*
X010310Y015574D01*
X010310Y015476D02*
X015284Y015476D01*
X015359Y015377D02*
X010310Y015377D01*
X010310Y015279D02*
X015458Y015279D01*
X015556Y015180D02*
X010310Y015180D01*
X010310Y015082D02*
X015655Y015082D01*
X015754Y014983D02*
X010310Y014983D01*
X010342Y014885D02*
X015852Y014885D01*
X015951Y014786D02*
X010441Y014786D01*
X010539Y014687D02*
X016049Y014687D01*
X016148Y014589D02*
X010638Y014589D01*
X010736Y014490D02*
X016246Y014490D01*
X016536Y015574D02*
X018110Y015574D01*
X018110Y015673D02*
X016659Y015673D01*
X016710Y015771D02*
X018110Y015771D01*
X018110Y015870D02*
X017106Y015870D01*
X017188Y015969D02*
X018110Y015969D01*
X018110Y016067D02*
X017229Y016067D01*
X017230Y016166D02*
X018110Y016166D01*
X018110Y016264D02*
X017207Y016264D01*
X017151Y016363D02*
X018110Y016363D01*
X018110Y016461D02*
X017130Y016461D01*
X017130Y016560D02*
X018110Y016560D01*
X018110Y016658D02*
X017130Y016658D01*
X017130Y016757D02*
X018110Y016757D01*
X018110Y016855D02*
X017130Y016855D01*
X017130Y016954D02*
X018110Y016954D01*
X018110Y017053D02*
X017130Y017053D01*
X017130Y017151D02*
X018110Y017151D01*
X018110Y017250D02*
X017577Y017250D01*
X017676Y017348D02*
X018084Y017348D01*
X017985Y017447D02*
X017775Y017447D01*
X017830Y017545D02*
X017930Y017545D01*
X017930Y017644D02*
X017830Y017644D01*
X017830Y017742D02*
X017930Y017742D01*
X017930Y017841D02*
X017830Y017841D01*
X017765Y017939D02*
X017995Y017939D01*
X018093Y018038D02*
X017667Y018038D01*
X017568Y018136D02*
X018192Y018136D01*
X018099Y018334D02*
X017661Y018334D01*
X017760Y018432D02*
X018000Y018432D01*
X017930Y018531D02*
X017830Y018531D01*
X017830Y018629D02*
X017930Y018629D01*
X017930Y018728D02*
X017830Y018728D01*
X017830Y018826D02*
X017930Y018826D01*
X017980Y018925D02*
X017780Y018925D01*
X017681Y019023D02*
X018079Y019023D01*
X018177Y019122D02*
X017583Y019122D01*
X017177Y019122D02*
X016583Y019122D01*
X016681Y019023D02*
X017079Y019023D01*
X016980Y018925D02*
X016780Y018925D01*
X016830Y018826D02*
X016930Y018826D01*
X016930Y018728D02*
X016830Y018728D01*
X016830Y018629D02*
X016930Y018629D01*
X016869Y018531D02*
X016830Y018531D01*
X016770Y018432D02*
X016760Y018432D01*
X016672Y018334D02*
X016661Y018334D01*
X016630Y018235D02*
X016308Y018235D01*
X016568Y018136D02*
X016630Y018136D01*
X017181Y018136D02*
X017192Y018136D01*
X017280Y018235D02*
X018610Y018235D01*
X018610Y018136D02*
X018568Y018136D01*
X018830Y018531D02*
X018840Y018531D01*
X018830Y018629D02*
X018930Y018629D01*
X018930Y018728D02*
X018830Y018728D01*
X018830Y018826D02*
X018930Y018826D01*
X018980Y018925D02*
X018780Y018925D01*
X018681Y019023D02*
X019079Y019023D01*
X019177Y019122D02*
X018583Y019122D01*
X019583Y019122D02*
X020177Y019122D01*
X020079Y019023D02*
X019681Y019023D01*
X019780Y018925D02*
X019980Y018925D01*
X019930Y018826D02*
X019830Y018826D01*
X020340Y018826D02*
X020420Y018826D01*
X020420Y018925D02*
X020340Y018925D01*
X020340Y019023D02*
X020420Y019023D01*
X020420Y019122D02*
X020340Y019122D01*
X020340Y018629D02*
X020420Y018629D01*
X020420Y018531D02*
X020340Y018531D01*
X020340Y018432D02*
X020420Y018432D01*
X020420Y018334D02*
X020340Y018334D01*
X020093Y018038D02*
X019667Y018038D01*
X019765Y017939D02*
X019995Y017939D01*
X019930Y017841D02*
X019830Y017841D01*
X019830Y017742D02*
X019930Y017742D01*
X019930Y017644D02*
X019830Y017644D01*
X019830Y017545D02*
X019930Y017545D01*
X019985Y017447D02*
X019775Y017447D01*
X019676Y017348D02*
X020084Y017348D01*
X020110Y017250D02*
X019650Y017250D01*
X019650Y017151D02*
X020110Y017151D01*
X020110Y017053D02*
X019650Y017053D01*
X019650Y016954D02*
X020110Y016954D01*
X020110Y016855D02*
X019650Y016855D01*
X019650Y016757D02*
X020110Y016757D01*
X020110Y016658D02*
X019650Y016658D01*
X019650Y016560D02*
X020110Y016560D01*
X020110Y016461D02*
X019650Y016461D01*
X019650Y016363D02*
X020073Y016363D01*
X020033Y016264D02*
X019650Y016264D01*
X019650Y016166D02*
X020030Y016166D01*
X020051Y016067D02*
X019650Y016067D01*
X019650Y015969D02*
X020105Y015969D01*
X020234Y015870D02*
X019650Y015870D01*
X019110Y015279D02*
X018721Y015279D01*
X018730Y015180D02*
X019110Y015180D01*
X019110Y015082D02*
X018715Y015082D01*
X018670Y014983D02*
X019110Y014983D01*
X019110Y014885D02*
X018561Y014885D01*
X018340Y014687D02*
X019110Y014687D01*
X019110Y014589D02*
X018340Y014589D01*
X018340Y014490D02*
X019110Y014490D01*
X019110Y014392D02*
X018340Y014392D01*
X018340Y014293D02*
X019110Y014293D01*
X019110Y014195D02*
X018340Y014195D01*
X018279Y014786D02*
X019110Y014786D01*
X018199Y014885D02*
X018181Y014885D01*
X018090Y014983D02*
X018082Y014983D01*
X018045Y015082D02*
X017984Y015082D01*
X018030Y015180D02*
X017929Y015180D01*
X017835Y015279D02*
X018039Y015279D01*
X017182Y017250D02*
X017130Y017250D01*
X015643Y018334D02*
X013405Y018334D01*
X013405Y018432D02*
X015742Y018432D01*
X015840Y018531D02*
X013401Y018531D01*
X013378Y018629D02*
X015930Y018629D01*
X015930Y018728D02*
X013335Y018728D01*
X013260Y018826D02*
X015930Y018826D01*
X015980Y018925D02*
X013131Y018925D01*
X012930Y018925D02*
X012830Y018925D01*
X012830Y018826D02*
X012930Y018826D01*
X012930Y018728D02*
X012830Y018728D01*
X012830Y018629D02*
X012930Y018629D01*
X012930Y018531D02*
X012830Y018531D01*
X012830Y018432D02*
X012930Y018432D01*
X012930Y018334D02*
X012830Y018334D01*
X012830Y018235D02*
X012930Y018235D01*
X012930Y018136D02*
X015446Y018136D01*
X016079Y019023D02*
X010310Y019023D01*
X010310Y018925D02*
X011122Y018925D01*
X011000Y018826D02*
X010310Y018826D01*
X010310Y018728D02*
X010921Y018728D01*
X010880Y018629D02*
X010310Y018629D01*
X010310Y018531D02*
X010855Y018531D01*
X010855Y018432D02*
X010310Y018432D01*
X010310Y018334D02*
X010855Y018334D01*
X010855Y018235D02*
X010310Y018235D01*
X010310Y018136D02*
X010855Y018136D01*
X010855Y018038D02*
X010310Y018038D01*
X010310Y017939D02*
X010855Y017939D01*
X010855Y017841D02*
X010310Y017841D01*
X010310Y017742D02*
X010855Y017742D01*
X010855Y017644D02*
X010310Y017644D01*
X010310Y017545D02*
X010881Y017545D01*
X010922Y017447D02*
X010310Y017447D01*
X010310Y017348D02*
X010980Y017348D01*
X010980Y017250D02*
X010310Y017250D01*
X010310Y017151D02*
X010980Y017151D01*
X010980Y017053D02*
X010310Y017053D01*
X010310Y016954D02*
X010980Y016954D01*
X010980Y016855D02*
X010310Y016855D01*
X010310Y016757D02*
X010980Y016757D01*
X010980Y016658D02*
X010310Y016658D01*
X010310Y016560D02*
X010980Y016560D01*
X010980Y016461D02*
X010310Y016461D01*
X010310Y016363D02*
X010980Y016363D01*
X010980Y016264D02*
X010310Y016264D01*
X010310Y016166D02*
X010980Y016166D01*
X010980Y016067D02*
X010310Y016067D01*
X010310Y015969D02*
X010997Y015969D01*
X011038Y015870D02*
X010310Y015870D01*
X009450Y015870D02*
X001430Y015870D01*
X001430Y015969D02*
X009450Y015969D01*
X009450Y016067D02*
X001430Y016067D01*
X001430Y016166D02*
X009450Y016166D01*
X009450Y016264D02*
X001430Y016264D01*
X001430Y016363D02*
X009450Y016363D01*
X009450Y016461D02*
X001430Y016461D01*
X001430Y016560D02*
X009450Y016560D01*
X009450Y016658D02*
X001430Y016658D01*
X001430Y016757D02*
X002696Y016757D01*
X002608Y016793D02*
X002801Y016714D01*
X003759Y016714D01*
X003952Y016793D01*
X004100Y016941D01*
X004180Y017134D01*
X004180Y017343D01*
X004100Y017536D01*
X003952Y017684D01*
X003759Y017763D01*
X002801Y017763D01*
X002608Y017684D01*
X002460Y017536D01*
X002380Y017343D01*
X002380Y017134D01*
X002460Y016941D01*
X002608Y016793D01*
X002546Y016855D02*
X001430Y016855D01*
X001430Y016954D02*
X002455Y016954D01*
X002414Y017053D02*
X001430Y017053D01*
X001430Y017151D02*
X002380Y017151D01*
X002380Y017250D02*
X001430Y017250D01*
X001430Y017348D02*
X002382Y017348D01*
X002423Y017447D02*
X001430Y017447D01*
X001430Y017545D02*
X002469Y017545D01*
X002568Y017644D02*
X001430Y017644D01*
X001430Y017742D02*
X002750Y017742D01*
X002864Y018214D02*
X003230Y018214D01*
X003230Y018688D01*
X003330Y018688D01*
X003330Y018214D01*
X003696Y018214D01*
X003778Y018226D01*
X003856Y018252D01*
X003930Y018289D01*
X003997Y018338D01*
X004055Y018396D01*
X004104Y018463D01*
X004141Y018537D01*
X004167Y018616D01*
X004179Y018689D01*
X003330Y018689D01*
X003330Y018788D01*
X004179Y018788D01*
X004167Y018861D01*
X004141Y018940D01*
X004104Y019014D01*
X004055Y019081D01*
X003997Y019139D01*
X003930Y019187D01*
X003856Y019225D01*
X003778Y019251D01*
X003696Y019263D01*
X003330Y019263D01*
X003330Y018789D01*
X003230Y018789D01*
X003230Y019263D01*
X002864Y019263D01*
X002782Y019251D01*
X002703Y019225D01*
X002630Y019187D01*
X002563Y019139D01*
X002505Y019081D01*
X002456Y019014D01*
X002418Y018940D01*
X002393Y018861D01*
X002381Y018788D01*
X003230Y018788D01*
X003230Y018689D01*
X002381Y018689D01*
X002393Y018616D01*
X002418Y018537D01*
X002456Y018463D01*
X002505Y018396D01*
X002563Y018338D01*
X002630Y018289D01*
X002703Y018252D01*
X002782Y018226D01*
X002864Y018214D01*
X002756Y018235D02*
X001430Y018235D01*
X001430Y018136D02*
X009450Y018136D01*
X009450Y018038D02*
X001430Y018038D01*
X001430Y017939D02*
X009450Y017939D01*
X009450Y017841D02*
X001430Y017841D01*
X001430Y018334D02*
X002569Y018334D01*
X002479Y018432D02*
X001430Y018432D01*
X001430Y018531D02*
X002422Y018531D01*
X002391Y018629D02*
X001430Y018629D01*
X001430Y018728D02*
X003230Y018728D01*
X003230Y018826D02*
X003330Y018826D01*
X003330Y018728D02*
X009450Y018728D01*
X009450Y018826D02*
X004173Y018826D01*
X004146Y018925D02*
X009450Y018925D01*
X009450Y019023D02*
X004097Y019023D01*
X004014Y019122D02*
X009450Y019122D01*
X009450Y019220D02*
X003865Y019220D01*
X003330Y019220D02*
X003230Y019220D01*
X003230Y019122D02*
X003330Y019122D01*
X003330Y019023D02*
X003230Y019023D01*
X003230Y018925D02*
X003330Y018925D01*
X003330Y018629D02*
X003230Y018629D01*
X003230Y018531D02*
X003330Y018531D01*
X003330Y018432D02*
X003230Y018432D01*
X003230Y018334D02*
X003330Y018334D01*
X003330Y018235D02*
X003230Y018235D01*
X003804Y018235D02*
X009450Y018235D01*
X009450Y018334D02*
X003991Y018334D01*
X004081Y018432D02*
X009450Y018432D01*
X009450Y018531D02*
X004138Y018531D01*
X004169Y018629D02*
X009450Y018629D01*
X010310Y019122D02*
X016177Y019122D01*
X012930Y018038D02*
X012830Y018038D01*
X012830Y018136D02*
X011905Y018136D01*
X011905Y018038D02*
X012355Y018038D01*
X012355Y017939D02*
X011905Y017939D01*
X011905Y017841D02*
X012355Y017841D01*
X012355Y017742D02*
X011905Y017742D01*
X011905Y017644D02*
X012359Y017644D01*
X012383Y017545D02*
X011879Y017545D01*
X011838Y017447D02*
X012427Y017447D01*
X012503Y017348D02*
X011780Y017348D01*
X011780Y017250D02*
X012634Y017250D01*
X012830Y017250D02*
X012930Y017250D01*
X012930Y017348D02*
X012830Y017348D01*
X012830Y017447D02*
X012930Y017447D01*
X012930Y017545D02*
X012830Y017545D01*
X012830Y017644D02*
X012930Y017644D01*
X012930Y017742D02*
X012830Y017742D01*
X012830Y017841D02*
X012930Y017841D01*
X012930Y017939D02*
X012830Y017939D01*
X012355Y018235D02*
X011905Y018235D01*
X011905Y018334D02*
X012355Y018334D01*
X012355Y018432D02*
X011905Y018432D01*
X011905Y018531D02*
X012359Y018531D01*
X012382Y018629D02*
X011880Y018629D01*
X011839Y018728D02*
X012425Y018728D01*
X012500Y018826D02*
X011760Y018826D01*
X011638Y018925D02*
X012629Y018925D01*
X009668Y019516D02*
X001430Y019516D01*
X001430Y019418D02*
X009551Y019418D01*
X009489Y019319D02*
X001430Y019319D01*
X001430Y019220D02*
X002695Y019220D01*
X002546Y019122D02*
X001430Y019122D01*
X001430Y019023D02*
X002463Y019023D01*
X002414Y018925D02*
X001430Y018925D01*
X001430Y018826D02*
X002387Y018826D01*
X003810Y017742D02*
X009450Y017742D01*
X009450Y017644D02*
X003992Y017644D01*
X004091Y017545D02*
X009450Y017545D01*
X009450Y017447D02*
X004137Y017447D01*
X004178Y017348D02*
X009450Y017348D01*
X009450Y017250D02*
X004180Y017250D01*
X004180Y017151D02*
X009450Y017151D01*
X009450Y017053D02*
X004146Y017053D01*
X004105Y016954D02*
X009450Y016954D01*
X009450Y016855D02*
X004014Y016855D01*
X003864Y016757D02*
X009450Y016757D01*
X009450Y015771D02*
X001430Y015771D01*
X001430Y015673D02*
X009450Y015673D01*
X009450Y015574D02*
X001430Y015574D01*
X001430Y015476D02*
X009450Y015476D01*
X009450Y015377D02*
X001430Y015377D01*
X001430Y015279D02*
X009450Y015279D01*
X009450Y015180D02*
X001430Y015180D01*
X001430Y015082D02*
X009450Y015082D01*
X009450Y014983D02*
X001430Y014983D01*
X001430Y014885D02*
X009450Y014885D01*
X009450Y014786D02*
X001430Y014786D01*
X001430Y014687D02*
X009450Y014687D01*
X009476Y014589D02*
X001430Y014589D01*
X001430Y014490D02*
X009520Y014490D01*
X009619Y014392D02*
X001430Y014392D01*
X001430Y014293D02*
X009717Y014293D01*
X009816Y014195D02*
X001430Y014195D01*
X001430Y014096D02*
X009914Y014096D01*
X010013Y013998D02*
X001430Y013998D01*
X001430Y013899D02*
X010111Y013899D01*
X010210Y013801D02*
X001430Y013801D01*
X001430Y013702D02*
X010308Y013702D01*
X010407Y013604D02*
X001430Y013604D01*
X001430Y013505D02*
X010505Y013505D01*
X010604Y013406D02*
X001430Y013406D01*
X001430Y013308D02*
X010703Y013308D01*
X010801Y013209D02*
X001430Y013209D01*
X001430Y013111D02*
X010900Y013111D01*
X010998Y013012D02*
X001430Y013012D01*
X001430Y012914D02*
X011097Y012914D01*
X011195Y012815D02*
X001430Y012815D01*
X001430Y012717D02*
X011294Y012717D01*
X016800Y012914D02*
X017420Y012914D01*
X017420Y013012D02*
X016856Y013012D01*
X016880Y013111D02*
X017420Y013111D01*
X017420Y013209D02*
X016879Y013209D01*
X018383Y011633D02*
X019079Y011633D01*
X019011Y011534D02*
X018481Y011534D01*
X018580Y011436D02*
X018980Y011436D01*
X018980Y011337D02*
X018678Y011337D01*
X018777Y011238D02*
X019013Y011238D01*
X019084Y011140D02*
X018875Y011140D01*
X025430Y014158D02*
X025433Y014160D01*
X025509Y014236D01*
X025892Y014619D01*
X028368Y014619D01*
X028916Y014070D01*
X028890Y014043D01*
X028836Y013914D01*
X028836Y013775D01*
X028873Y013688D01*
X028750Y013738D01*
X028610Y013738D01*
X028482Y013685D01*
X028383Y013587D01*
X028330Y013458D01*
X028330Y013420D01*
X028168Y013258D01*
X027905Y013258D01*
X027930Y013319D01*
X027930Y013458D01*
X027894Y013545D01*
X027910Y013539D01*
X028050Y013539D01*
X028178Y013592D01*
X028277Y013690D01*
X028330Y013819D01*
X028330Y013958D01*
X028277Y014087D01*
X028178Y014185D01*
X028050Y014238D01*
X027910Y014238D01*
X027782Y014185D01*
X027755Y014158D01*
X025430Y014158D01*
X025468Y014195D02*
X027805Y014195D01*
X028155Y014195D02*
X028792Y014195D01*
X028693Y014293D02*
X025567Y014293D01*
X025665Y014392D02*
X028595Y014392D01*
X028496Y014490D02*
X025764Y014490D01*
X025862Y014589D02*
X028398Y014589D01*
X028267Y014096D02*
X028890Y014096D01*
X028916Y014070D02*
X028916Y014070D01*
X028871Y013998D02*
X028314Y013998D01*
X028330Y013899D02*
X028836Y013899D01*
X028836Y013801D02*
X028322Y013801D01*
X028282Y013702D02*
X028522Y013702D01*
X028400Y013604D02*
X028190Y013604D01*
X028349Y013505D02*
X027911Y013505D01*
X027930Y013406D02*
X028316Y013406D01*
X028218Y013308D02*
X027925Y013308D01*
X028838Y013702D02*
X028867Y013702D01*
D26*
X024060Y017989D03*
D27*
X018130Y014639D02*
X018130Y013789D01*
X017980Y013639D01*
X017980Y011739D01*
X019280Y010439D01*
X019980Y010439D01*
X021830Y008589D01*
X021830Y005539D01*
X022580Y004789D01*
X023530Y004789D01*
X024180Y004139D01*
X024580Y004139D01*
X022880Y004139D02*
X022780Y004139D01*
X021480Y005439D01*
X021480Y008489D01*
X019830Y010139D01*
X019130Y010139D01*
X017630Y011639D01*
X017630Y014389D01*
X018130Y014639D02*
X017780Y014989D01*
X017630Y014989D01*
M02*
