G75*
G70*
%OFA0B0*%
%FSLAX24Y24*%
%IPPOS*%
%LPD*%
%AMOC8*
5,1,8,0,0,1.08239X$1,22.5*
%
%ADD10R,0.0330X0.0580*%
%ADD11R,0.0580X0.0330*%
%ADD12R,0.0671X0.0592*%
%ADD13R,0.0592X0.0671*%
%ADD14R,0.0513X0.0474*%
%ADD15R,0.0474X0.0513*%
%ADD16R,0.1025X0.1025*%
%ADD17C,0.0830*%
%ADD18C,0.0720*%
%ADD19R,0.0592X0.0710*%
%ADD20C,0.0714*%
%ADD21C,0.0640*%
%ADD22R,0.0470X0.0200*%
%ADD23R,0.1143X0.0710*%
%ADD24R,0.1104X0.0631*%
%ADD25R,0.0710X0.0790*%
%ADD26R,0.0790X0.0710*%
%ADD27R,0.0781X0.0930*%
%ADD28R,0.0828X0.1320*%
%ADD29C,0.2380*%
%ADD30R,0.1084X0.1143*%
%ADD31R,0.0631X0.0474*%
%ADD32R,0.0352X0.0470*%
%ADD33R,0.0946X0.1497*%
%ADD34R,0.0710X0.1143*%
%ADD35R,0.0474X0.0237*%
%ADD36OC8,0.0680*%
%ADD37R,0.1261X0.1261*%
%ADD38R,0.0789X0.0710*%
%ADD39R,0.1497X0.1261*%
%ADD40R,0.0380X0.0530*%
%ADD41R,0.0277X0.0946*%
%ADD42C,0.0556*%
%ADD43C,0.0580*%
D10*
X022884Y007513D03*
X023278Y007513D03*
X023672Y007513D03*
X024065Y007513D03*
X024459Y007513D03*
X024853Y007513D03*
X025247Y007513D03*
X025640Y007513D03*
X026034Y007513D03*
X026428Y007513D03*
X026821Y007513D03*
X027215Y007513D03*
X027609Y007513D03*
X028002Y007513D03*
X028396Y007513D03*
X028790Y007513D03*
X029184Y007513D03*
X029577Y007513D03*
X029577Y012749D03*
X029184Y012749D03*
X028790Y012749D03*
X028396Y012749D03*
X028002Y012749D03*
X027609Y012749D03*
X027215Y012749D03*
X026821Y012749D03*
X026428Y012749D03*
X026034Y012749D03*
X025640Y012749D03*
X025247Y012749D03*
X024853Y012749D03*
X024459Y012749D03*
X024065Y012749D03*
X023672Y012749D03*
X023278Y012749D03*
X022884Y012749D03*
D11*
X022569Y011312D03*
X022569Y010918D03*
X022569Y010525D03*
X022569Y010131D03*
X022569Y009737D03*
X022569Y009344D03*
X022569Y008950D03*
X020443Y008939D03*
X020443Y008439D03*
X020443Y007939D03*
X020443Y007439D03*
X020443Y006939D03*
D12*
X021130Y009214D03*
X021930Y009214D03*
X021930Y009963D03*
X021130Y009963D03*
X005580Y014264D03*
X005580Y015013D03*
D13*
X003604Y013739D03*
X002856Y013739D03*
X008456Y010989D03*
X009204Y010989D03*
X019556Y006239D03*
X020304Y006239D03*
X025556Y006489D03*
X026304Y006489D03*
X025954Y014689D03*
X025206Y014689D03*
D14*
X024130Y014554D03*
X023480Y014554D03*
X022830Y014554D03*
X022830Y015223D03*
X023480Y015223D03*
X024130Y015223D03*
X027580Y016754D03*
X027580Y017423D03*
X028480Y016173D03*
X028480Y015504D03*
X029030Y015523D03*
X029030Y014854D03*
X019765Y009589D03*
X019095Y009589D03*
X015980Y009304D03*
X015980Y009973D03*
X012715Y009189D03*
X012045Y009189D03*
X009730Y009554D03*
X009730Y010223D03*
X005380Y010254D03*
X005380Y010923D03*
X008295Y005289D03*
X008965Y005289D03*
X008965Y004239D03*
X008295Y004239D03*
X013830Y002823D03*
X013830Y002154D03*
X016945Y012189D03*
X017615Y012189D03*
D15*
X019830Y011954D03*
X019830Y012623D03*
X020495Y015039D03*
X021165Y015039D03*
X025095Y015439D03*
X025765Y015439D03*
X017465Y009289D03*
X016795Y009289D03*
X021595Y006489D03*
X022265Y006489D03*
X018565Y004289D03*
X017895Y004289D03*
X009780Y004754D03*
X009780Y005423D03*
X008815Y008889D03*
X008145Y008889D03*
X008480Y009554D03*
X008480Y010223D03*
X010295Y010589D03*
X010965Y010589D03*
X005380Y009573D03*
X005380Y008904D03*
X004615Y010239D03*
X003945Y010239D03*
X003945Y010889D03*
X003315Y010889D03*
X002645Y010889D03*
X004615Y010889D03*
X008295Y019139D03*
X008965Y019139D03*
D16*
X004646Y015039D03*
X002914Y015039D03*
X011264Y011539D03*
X012996Y011539D03*
X004880Y005605D03*
X004880Y003872D03*
D17*
X003655Y005839D02*
X002905Y005839D01*
X002905Y007339D02*
X003655Y007339D01*
X003655Y017239D02*
X002905Y017239D01*
X002905Y018739D02*
X003655Y018739D01*
X011380Y018464D02*
X011380Y017714D01*
X012880Y017714D02*
X012880Y018464D01*
D18*
X022560Y004139D02*
X023200Y004139D01*
X024260Y004139D02*
X024900Y004139D01*
X025960Y004139D02*
X026600Y004139D01*
X026600Y003139D02*
X025960Y003139D01*
X025960Y002139D02*
X026600Y002139D01*
X024900Y002139D02*
X024260Y002139D01*
X023200Y002139D02*
X022560Y002139D01*
X022560Y003139D02*
X023200Y003139D01*
X024260Y003139D02*
X024900Y003139D01*
D19*
X020154Y004289D03*
X019406Y004289D03*
X023056Y006489D03*
X023804Y006489D03*
D20*
X027813Y004139D02*
X028447Y004139D01*
X028447Y003139D02*
X027813Y003139D01*
X027813Y002139D02*
X028447Y002139D01*
X020730Y002172D02*
X020730Y002805D01*
X019730Y002805D02*
X019730Y002172D01*
X018730Y002172D02*
X018730Y002805D01*
X006447Y002639D02*
X005813Y002639D01*
X005813Y001639D02*
X006447Y001639D01*
D21*
X007430Y003839D03*
X007430Y004539D03*
X014180Y013939D03*
X009880Y017739D03*
X009880Y018439D03*
X009880Y019139D03*
X025780Y018389D03*
X026780Y018389D03*
X026280Y019389D03*
X027280Y019389D03*
D22*
X019329Y014890D03*
X019329Y014634D03*
X019329Y014378D03*
X019329Y014122D03*
X019329Y013866D03*
X019329Y013611D03*
X019329Y013355D03*
X019329Y013099D03*
X019329Y012843D03*
X019329Y012587D03*
X017031Y012587D03*
X017031Y012843D03*
X017031Y013099D03*
X017031Y013355D03*
X017031Y013611D03*
X017031Y013866D03*
X017031Y014122D03*
X017031Y014378D03*
X017031Y014634D03*
X017031Y014890D03*
D23*
X021680Y008390D03*
X021680Y007287D03*
D24*
X018237Y010839D03*
X016623Y010839D03*
D25*
X007390Y019139D03*
X006270Y019139D03*
X014520Y002189D03*
X015640Y002189D03*
D26*
X022830Y015929D03*
X023630Y015929D03*
X024430Y015929D03*
X024430Y017048D03*
X023630Y017048D03*
X022830Y017048D03*
X028630Y016829D03*
X028630Y017948D03*
D27*
X015783Y014939D03*
X014181Y014939D03*
D28*
X008745Y017889D03*
X006815Y017889D03*
D29*
X003030Y002839D03*
X030530Y002839D03*
X030530Y018339D03*
D30*
X008980Y012189D03*
X006480Y012189D03*
X005280Y012189D03*
X002780Y012189D03*
D31*
X006713Y006463D03*
X005847Y006089D03*
X006713Y005714D03*
D32*
X008356Y006281D03*
X008730Y006281D03*
X009104Y006281D03*
X009104Y007300D03*
X008356Y007300D03*
D33*
X018199Y007939D03*
D34*
X015281Y012939D03*
X014179Y012939D03*
D35*
X026521Y014655D03*
X026521Y014911D03*
X026521Y015166D03*
X026521Y015422D03*
X027939Y015422D03*
X027939Y015166D03*
X027939Y014911D03*
X027939Y014655D03*
D36*
X020380Y017689D03*
X019380Y017689D03*
X018380Y017689D03*
X017380Y017689D03*
X016380Y017689D03*
X016380Y018689D03*
X017380Y018689D03*
X018380Y018689D03*
X019380Y018689D03*
X020380Y018689D03*
D37*
X010418Y008251D03*
X015142Y003526D03*
D38*
X006480Y003837D03*
X006480Y004940D03*
D39*
X006863Y013671D03*
X009697Y013671D03*
X009697Y016506D03*
X006863Y016506D03*
D40*
X007080Y011039D03*
X006580Y011039D03*
X006080Y011039D03*
X007580Y011039D03*
X007580Y008939D03*
X007080Y008939D03*
X006580Y008939D03*
X006080Y008939D03*
D41*
X013802Y009292D03*
X014302Y009292D03*
X014802Y009292D03*
X015302Y009292D03*
X015302Y011556D03*
X014802Y011556D03*
X014302Y011556D03*
X013802Y011556D03*
D42*
X017480Y006889D03*
X017480Y006239D03*
X017480Y004839D03*
D43*
X024060Y017989D03*
M02*
