G75*
G70*
%OFA0B0*%
%FSLAX24Y24*%
%IPPOS*%
%LPD*%
%AMOC8*
5,1,8,0,0,1.08239X$1,22.5*
%
%ADD10C,0.0080*%
D10*
X005828Y004216D02*
X005808Y004276D01*
X005788Y004456D01*
X005788Y004856D01*
X005988Y006006D01*
X006228Y007656D01*
X006388Y008416D01*
X009868Y010216D01*
X011148Y009376D01*
X011175Y009500D02*
X011243Y009493D01*
X011302Y009499D01*
X011359Y009516D01*
X011412Y009544D01*
X011458Y009582D01*
X011496Y009628D01*
X011524Y009681D01*
X011541Y009738D01*
X011547Y009797D01*
X010895Y009797D01*
X010895Y010015D01*
X010460Y010015D01*
X010469Y010124D01*
X010494Y010230D01*
X010536Y010331D01*
X010593Y010424D01*
X010664Y010507D01*
X010747Y010578D01*
X010840Y010635D01*
X010941Y010676D01*
X011047Y010702D01*
X011156Y010710D01*
X011460Y010710D01*
X011721Y010667D01*
X011938Y010580D01*
X011938Y010276D01*
X011721Y010406D01*
X011460Y010450D01*
X011286Y010450D01*
X011218Y010444D01*
X011152Y010426D01*
X011090Y010397D01*
X011035Y010358D01*
X010986Y010310D01*
X010947Y010254D01*
X010918Y010192D01*
X010901Y010126D01*
X010895Y010058D01*
X012025Y010058D01*
X012025Y009971D01*
X012016Y009849D01*
X011987Y009729D01*
X011940Y009616D01*
X011876Y009511D01*
X011796Y009418D01*
X011703Y009338D01*
X011598Y009274D01*
X011484Y009227D01*
X011365Y009198D01*
X011243Y009189D01*
X011199Y009189D01*
X011084Y009198D01*
X010971Y009225D01*
X010864Y009269D01*
X010765Y009330D01*
X010676Y009405D01*
X010601Y009493D01*
X010541Y009592D01*
X010496Y009699D01*
X010469Y009812D01*
X010460Y009928D01*
X010460Y010015D01*
X010895Y010015D01*
X010895Y009841D01*
X010901Y009773D01*
X010921Y009708D01*
X010953Y009648D01*
X010997Y009595D01*
X011049Y009552D01*
X011110Y009519D01*
X011175Y009500D01*
X011159Y009504D02*
X010594Y009504D01*
X010546Y009583D02*
X011011Y009583D01*
X010946Y009662D02*
X010512Y009662D01*
X010486Y009740D02*
X010911Y009740D01*
X010897Y009819D02*
X012008Y009819D01*
X012019Y009897D02*
X010895Y009897D01*
X010462Y009897D01*
X010469Y009819D02*
X010895Y009819D01*
X010895Y009976D02*
X012025Y009976D01*
X012025Y010054D02*
X010463Y010054D01*
X010460Y009976D02*
X010895Y009976D01*
X010903Y010133D02*
X010471Y010133D01*
X010490Y010211D02*
X010927Y010211D01*
X010972Y010290D02*
X010519Y010290D01*
X010559Y010368D02*
X011049Y010368D01*
X011257Y010447D02*
X010613Y010447D01*
X010686Y010526D02*
X011938Y010526D01*
X011938Y010447D02*
X011475Y010447D01*
X011784Y010368D02*
X011938Y010368D01*
X011938Y010290D02*
X011915Y010290D01*
X012286Y010276D02*
X012330Y010015D01*
X012460Y009884D01*
X012634Y009797D01*
X012895Y009754D01*
X013330Y009754D01*
X013330Y009623D01*
X013243Y009536D01*
X013156Y009493D01*
X012721Y009493D01*
X012547Y009536D01*
X012417Y009580D01*
X012417Y009319D01*
X012677Y009232D01*
X012851Y009189D01*
X013199Y009189D01*
X013373Y009232D01*
X013504Y009319D01*
X013634Y009449D01*
X013721Y009580D01*
X013764Y009667D01*
X013764Y010667D01*
X013634Y010667D01*
X013330Y010015D01*
X012851Y010015D01*
X012764Y010102D01*
X012721Y010232D01*
X012764Y010363D01*
X012895Y010450D01*
X013025Y010450D01*
X013156Y010406D01*
X013330Y010232D01*
X013330Y010058D01*
X013634Y010667D01*
X013330Y010667D01*
X013330Y010450D01*
X013156Y010623D01*
X013025Y010667D01*
X012677Y010667D01*
X012504Y010623D01*
X012373Y010493D01*
X012286Y010276D01*
X012292Y010290D02*
X012740Y010290D01*
X012728Y010211D02*
X012297Y010211D01*
X012310Y010133D02*
X012754Y010133D01*
X012812Y010054D02*
X012323Y010054D01*
X012369Y009976D02*
X013764Y009976D01*
X013764Y010054D02*
X013348Y010054D01*
X013330Y010133D02*
X013367Y010133D01*
X013385Y010133D02*
X013764Y010133D01*
X013764Y010211D02*
X013421Y010211D01*
X013406Y010211D02*
X013330Y010211D01*
X013272Y010290D02*
X013446Y010290D01*
X013458Y010290D02*
X013764Y010290D01*
X013764Y010368D02*
X013495Y010368D01*
X013485Y010368D02*
X013193Y010368D01*
X013254Y010526D02*
X012406Y010526D01*
X012355Y010447D02*
X012891Y010447D01*
X012773Y010368D02*
X012323Y010368D01*
X012484Y010604D02*
X013175Y010604D01*
X013330Y010604D02*
X013603Y010604D01*
X013605Y010604D02*
X013764Y010604D01*
X013764Y010526D02*
X013568Y010526D01*
X013563Y010526D02*
X013330Y010526D01*
X013524Y010447D02*
X013033Y010447D01*
X013531Y010447D02*
X013764Y010447D01*
X014243Y010447D02*
X014678Y010447D01*
X014678Y010526D02*
X014243Y010526D01*
X014243Y010604D02*
X014678Y010604D01*
X014678Y010667D02*
X014243Y010667D01*
X014243Y009232D01*
X014678Y009232D01*
X014678Y009449D01*
X014764Y009363D01*
X014895Y009276D01*
X015069Y009232D01*
X015199Y009232D01*
X015373Y009276D01*
X015504Y009363D01*
X015591Y009449D01*
X015678Y009449D01*
X015765Y009319D01*
X015895Y009232D01*
X016286Y009232D01*
X016373Y009276D01*
X016504Y009406D01*
X016547Y009536D01*
X016547Y010667D01*
X016156Y010667D01*
X016156Y009667D01*
X016069Y009580D01*
X015982Y009536D01*
X015851Y009536D01*
X015721Y009580D01*
X015634Y009754D01*
X015634Y010667D01*
X015199Y010667D01*
X015199Y009667D01*
X015112Y009580D01*
X015025Y009536D01*
X014851Y009536D01*
X014764Y009580D01*
X014678Y009754D01*
X014678Y010667D01*
X014678Y010368D02*
X014243Y010368D01*
X014243Y010290D02*
X014678Y010290D01*
X014678Y010211D02*
X014243Y010211D01*
X014243Y010133D02*
X014678Y010133D01*
X014678Y010054D02*
X014243Y010054D01*
X014243Y009976D02*
X014678Y009976D01*
X014678Y009897D02*
X014243Y009897D01*
X014243Y009819D02*
X014678Y009819D01*
X014684Y009740D02*
X014243Y009740D01*
X014243Y009662D02*
X014724Y009662D01*
X014763Y009583D02*
X014243Y009583D01*
X014243Y009504D02*
X016536Y009504D01*
X016547Y009583D02*
X016072Y009583D01*
X016151Y009662D02*
X016547Y009662D01*
X016547Y009740D02*
X016156Y009740D01*
X016156Y009819D02*
X016547Y009819D01*
X016547Y009897D02*
X016156Y009897D01*
X016156Y009976D02*
X016547Y009976D01*
X016547Y010054D02*
X016156Y010054D01*
X016156Y010133D02*
X016547Y010133D01*
X016547Y010211D02*
X016156Y010211D01*
X016156Y010290D02*
X016547Y010290D01*
X016547Y010368D02*
X016156Y010368D01*
X016156Y010447D02*
X016547Y010447D01*
X016547Y010526D02*
X016156Y010526D01*
X016156Y010604D02*
X016547Y010604D01*
X015634Y010604D02*
X015199Y010604D01*
X015199Y010526D02*
X015634Y010526D01*
X015634Y010447D02*
X015199Y010447D01*
X015199Y010368D02*
X015634Y010368D01*
X015634Y010290D02*
X015199Y010290D01*
X015199Y010211D02*
X015634Y010211D01*
X015634Y010133D02*
X015199Y010133D01*
X015199Y010054D02*
X015634Y010054D01*
X015634Y009976D02*
X015199Y009976D01*
X015199Y009897D02*
X015634Y009897D01*
X015634Y009819D02*
X015199Y009819D01*
X015199Y009740D02*
X015641Y009740D01*
X015680Y009662D02*
X015194Y009662D01*
X015115Y009583D02*
X015720Y009583D01*
X015693Y009426D02*
X016510Y009426D01*
X016445Y009347D02*
X015746Y009347D01*
X015840Y009269D02*
X016360Y009269D01*
X015567Y009426D02*
X014701Y009426D01*
X014678Y009426D02*
X014243Y009426D01*
X014243Y009347D02*
X014678Y009347D01*
X014678Y009269D02*
X014243Y009269D01*
X014787Y009347D02*
X015481Y009347D01*
X015346Y009269D02*
X014922Y009269D01*
X013762Y009662D02*
X013330Y009662D01*
X013330Y009740D02*
X013764Y009740D01*
X013764Y009819D02*
X012591Y009819D01*
X012447Y009897D02*
X013764Y009897D01*
X013723Y009583D02*
X013289Y009583D01*
X013179Y009504D02*
X013671Y009504D01*
X013610Y009426D02*
X012417Y009426D01*
X012417Y009504D02*
X012675Y009504D01*
X012567Y009269D02*
X013428Y009269D01*
X013532Y009347D02*
X012417Y009347D01*
X011108Y009216D02*
X011100Y009144D01*
X011096Y009071D01*
X011095Y008999D01*
X011099Y008926D01*
X011107Y008854D01*
X011119Y008783D01*
X011134Y008712D01*
X011153Y008642D01*
X011177Y008573D01*
X011203Y008506D01*
X011234Y008440D01*
X011268Y008376D01*
X011828Y009456D02*
X011889Y009441D01*
X011949Y009423D01*
X012008Y009401D01*
X012066Y009375D01*
X012122Y009346D01*
X012176Y009314D01*
X012228Y009279D01*
X012278Y009241D01*
X012325Y009200D01*
X012370Y009156D01*
X012412Y009109D01*
X012452Y009060D01*
X012489Y009009D01*
X012522Y008956D01*
X012552Y008901D01*
X012579Y008844D01*
X012603Y008786D01*
X012623Y008726D01*
X012639Y008665D01*
X012652Y008604D01*
X012661Y008541D01*
X012666Y008479D01*
X012668Y008416D01*
X012708Y008416D02*
X013548Y007896D01*
X013548Y005456D01*
X013508Y004736D01*
X013468Y004376D01*
X013348Y004016D01*
X013228Y003896D01*
X013068Y003856D01*
X012148Y004136D01*
X012028Y004096D02*
X011708Y003896D01*
X011308Y003736D01*
X011028Y003656D01*
X010748Y003616D01*
X010428Y003576D01*
X010028Y003616D01*
X009668Y003696D01*
X009308Y003816D01*
X008988Y003976D01*
X008748Y004216D01*
X008548Y004496D01*
X008428Y004776D01*
X008408Y004936D01*
X008468Y005136D01*
X008408Y005156D01*
X008408Y004936D01*
X008468Y005136D02*
X008508Y005276D01*
X008588Y005456D01*
X008908Y005736D01*
X009308Y005976D01*
X009708Y006096D01*
X010148Y006176D01*
X010668Y006176D01*
X011108Y006136D01*
X011508Y006016D01*
X011828Y005816D01*
X012108Y005616D01*
X012208Y005556D01*
X012168Y005216D01*
X012208Y005216D01*
X012288Y005156D01*
X012308Y005096D01*
X012288Y005016D01*
X012228Y004976D01*
X012048Y005096D01*
X012008Y005056D01*
X012008Y004976D01*
X011908Y004936D01*
X011828Y004976D01*
X011808Y005076D01*
X011888Y005156D01*
X011988Y005216D01*
X012068Y005236D01*
X012108Y005616D01*
X012348Y005336D01*
X012428Y004976D01*
X012428Y004736D01*
X012388Y004536D01*
X012228Y004296D01*
X012028Y004096D01*
X011948Y004296D02*
X012028Y004376D01*
X012048Y004456D01*
X012148Y004556D01*
X012148Y004636D01*
X012088Y004696D01*
X012148Y004776D02*
X011988Y004656D01*
X011828Y004736D02*
X012028Y004896D01*
X012028Y005056D01*
X012008Y005027D02*
X011818Y005027D01*
X011838Y005106D02*
X012305Y005106D01*
X012291Y005027D02*
X012151Y005027D01*
X012188Y004976D02*
X012188Y004856D01*
X012148Y004776D01*
X011908Y004816D02*
X011608Y004976D01*
X011708Y005056D01*
X011708Y005216D01*
X011728Y005236D02*
X011568Y005336D01*
X011528Y005296D01*
X011508Y005196D01*
X011428Y005176D01*
X011348Y005236D01*
X011348Y005356D01*
X011428Y005436D01*
X011548Y005496D01*
X011588Y005536D01*
X011608Y005936D01*
X011708Y005896D01*
X011668Y005496D01*
X011728Y005456D01*
X011788Y005396D01*
X011788Y005336D01*
X011768Y005276D01*
X011728Y005236D01*
X011755Y005263D02*
X011685Y005263D01*
X011788Y005342D02*
X011348Y005342D01*
X011348Y005263D02*
X011522Y005263D01*
X011548Y005296D02*
X011548Y005136D01*
X011348Y004976D01*
X011428Y005056D02*
X011128Y005216D01*
X011188Y005256D02*
X011228Y005296D01*
X011228Y005456D01*
X011228Y005476D02*
X011088Y005576D01*
X011048Y005516D01*
X011008Y005396D01*
X010888Y005396D01*
X010828Y005456D01*
X010828Y005576D01*
X010928Y005676D01*
X011048Y005736D01*
X011088Y005776D01*
X011108Y006096D01*
X011208Y006096D01*
X011188Y005876D01*
X011168Y005736D01*
X011228Y005696D01*
X011308Y005636D01*
X011308Y005576D01*
X011268Y005496D01*
X011228Y005476D01*
X011197Y005499D02*
X011270Y005499D01*
X011308Y005577D02*
X010829Y005577D01*
X010828Y005499D02*
X011043Y005499D01*
X011068Y005536D02*
X011068Y005376D01*
X010968Y005296D01*
X010668Y005456D01*
X010708Y005536D02*
X010548Y005376D01*
X010388Y005456D02*
X010548Y005616D01*
X010548Y005776D01*
X010565Y005813D02*
X010387Y005813D01*
X010368Y005756D02*
X010408Y005876D01*
X010468Y005916D01*
X010588Y005936D01*
X010588Y006136D01*
X010708Y006136D01*
X010708Y005936D01*
X010808Y005896D01*
X010828Y005816D01*
X010808Y005716D01*
X010748Y005656D01*
X010728Y005716D01*
X010568Y005816D01*
X010508Y005756D01*
X010488Y005616D01*
X010408Y005636D01*
X010368Y005756D01*
X010376Y005734D02*
X010505Y005734D01*
X010494Y005656D02*
X010402Y005656D01*
X010468Y005556D02*
X010188Y005696D01*
X010108Y005736D01*
X010028Y005736D01*
X009868Y005696D01*
X009508Y005536D01*
X009628Y005596D01*
X009148Y005896D01*
X009028Y005836D01*
X009508Y005536D01*
X009188Y005376D01*
X008948Y005176D01*
X008788Y005016D01*
X008828Y004856D01*
X008908Y004736D01*
X009028Y004696D01*
X010748Y003896D01*
X010908Y003856D01*
X011068Y003896D01*
X011468Y004056D01*
X011948Y004296D01*
X012048Y004456D02*
X010148Y005376D01*
X010068Y005376D01*
X009868Y005296D01*
X009268Y005016D01*
X009028Y004816D01*
X009028Y004696D01*
X008968Y004713D02*
X008717Y004713D01*
X008748Y004676D02*
X008868Y004616D01*
X008968Y004656D01*
X008968Y004716D01*
X008888Y004736D01*
X008808Y004836D01*
X008788Y004996D01*
X008708Y004976D01*
X008648Y004896D01*
X008648Y004796D01*
X008748Y004676D01*
X008831Y004635D02*
X008915Y004635D01*
X008844Y004792D02*
X008652Y004792D01*
X008648Y004870D02*
X008804Y004870D01*
X008794Y004949D02*
X008688Y004949D01*
X008482Y005185D02*
X008413Y005185D01*
X008408Y005156D02*
X008468Y005536D01*
X008528Y005676D01*
X008628Y005816D01*
X008788Y005996D01*
X008948Y006136D01*
X009348Y006376D01*
X009788Y006496D01*
X010188Y006576D01*
X010548Y006616D01*
X011108Y006536D01*
X011668Y006296D01*
X011708Y006256D01*
X011668Y006176D01*
X011668Y006096D01*
X011708Y005976D01*
X011828Y005936D01*
X011948Y005936D01*
X012068Y006016D01*
X012228Y005816D01*
X012388Y005496D01*
X012428Y005296D01*
X012428Y004976D01*
X012428Y005027D02*
X012417Y005027D01*
X012428Y005106D02*
X012399Y005106D01*
X012382Y005185D02*
X012428Y005185D01*
X012428Y005263D02*
X012365Y005263D01*
X012344Y005342D02*
X012419Y005342D01*
X012404Y005420D02*
X012276Y005420D01*
X012192Y005420D02*
X012088Y005420D01*
X012079Y005342D02*
X012183Y005342D01*
X012174Y005263D02*
X012071Y005263D01*
X011936Y005185D02*
X012250Y005185D01*
X012209Y005499D02*
X012387Y005499D01*
X012348Y005577D02*
X012142Y005577D01*
X012173Y005577D02*
X012104Y005577D01*
X012096Y005499D02*
X012202Y005499D01*
X012309Y005656D02*
X012053Y005656D01*
X011943Y005734D02*
X012269Y005734D01*
X012230Y005813D02*
X011833Y005813D01*
X011700Y005813D02*
X011602Y005813D01*
X011606Y005891D02*
X011708Y005891D01*
X012168Y005891D01*
X012105Y005970D02*
X011999Y005970D01*
X012028Y005976D02*
X012268Y006176D01*
X012203Y006127D02*
X012512Y006127D01*
X012548Y006136D02*
X012388Y006096D01*
X012148Y006136D01*
X011988Y006216D01*
X011908Y006376D01*
X011708Y006216D01*
X011683Y006206D02*
X009064Y006206D01*
X008938Y006127D02*
X009879Y006127D01*
X009550Y006049D02*
X008848Y006049D01*
X008765Y005970D02*
X009298Y005970D01*
X009258Y005970D02*
X009476Y005970D01*
X009386Y005891D02*
X009603Y005891D01*
X009514Y005813D02*
X009731Y005813D01*
X009641Y005734D02*
X009859Y005734D01*
X009888Y005716D02*
X009768Y005656D01*
X009248Y005976D01*
X009368Y006036D01*
X009888Y005716D01*
X009591Y005577D02*
X009443Y005577D01*
X009388Y005476D02*
X009248Y005416D01*
X008808Y005676D01*
X008908Y005756D01*
X009388Y005476D01*
X009350Y005499D02*
X009109Y005499D01*
X009215Y005577D02*
X008976Y005577D01*
X009080Y005656D02*
X008843Y005656D01*
X008817Y005656D02*
X008520Y005656D01*
X008486Y005577D02*
X008727Y005577D01*
X008637Y005499D02*
X008462Y005499D01*
X007628Y005336D02*
X007619Y005394D01*
X007613Y005451D01*
X007611Y005509D01*
X007613Y005568D01*
X007618Y005625D01*
X007628Y005683D01*
X007641Y005739D01*
X007657Y005795D01*
X007677Y005849D01*
X007701Y005902D01*
X007728Y005954D01*
X007758Y006003D01*
X007792Y006051D01*
X007828Y006096D01*
X007868Y006096D01*
X007749Y006176D02*
X007762Y006195D01*
X007777Y006212D01*
X007795Y006226D01*
X007815Y006238D01*
X007837Y006246D01*
X007859Y006252D01*
X007882Y006254D01*
X007905Y006253D01*
X007928Y006248D01*
X007949Y006240D01*
X007970Y006229D01*
X007988Y006216D01*
X007828Y006016D02*
X007908Y005776D01*
X007828Y005496D01*
X007668Y005336D01*
X007668Y005696D01*
X007828Y006016D01*
X007844Y005970D02*
X007805Y005970D01*
X007766Y005891D02*
X007870Y005891D01*
X007896Y005813D02*
X007727Y005813D01*
X007687Y005734D02*
X007896Y005734D01*
X007874Y005656D02*
X007668Y005656D01*
X007668Y005577D02*
X007851Y005577D01*
X007829Y005499D02*
X007668Y005499D01*
X007668Y005420D02*
X007752Y005420D01*
X007788Y005336D02*
X007708Y005296D01*
X007668Y005296D01*
X007628Y005336D01*
X007668Y005342D02*
X007674Y005342D01*
X007428Y005016D02*
X007433Y004982D01*
X007440Y004949D01*
X007451Y004916D01*
X007465Y004885D01*
X007482Y004855D01*
X007501Y004826D01*
X007524Y004800D01*
X007548Y004776D01*
X007549Y004776D02*
X007567Y004763D01*
X007588Y004752D01*
X007609Y004744D01*
X007632Y004739D01*
X007655Y004738D01*
X007678Y004740D01*
X007700Y004746D01*
X007722Y004754D01*
X007742Y004766D01*
X007760Y004780D01*
X007775Y004797D01*
X007788Y004816D01*
X006588Y004896D02*
X006579Y004954D01*
X006573Y005011D01*
X006571Y005069D01*
X006573Y005128D01*
X006578Y005185D01*
X006588Y005243D01*
X006601Y005299D01*
X006617Y005355D01*
X006637Y005409D01*
X006661Y005462D01*
X006688Y005514D01*
X006718Y005563D01*
X006752Y005611D01*
X006788Y005656D01*
X006828Y005656D01*
X006709Y005736D02*
X006722Y005755D01*
X006737Y005772D01*
X006755Y005786D01*
X006775Y005798D01*
X006797Y005806D01*
X006819Y005812D01*
X006842Y005814D01*
X006865Y005813D01*
X006888Y005808D01*
X006909Y005800D01*
X006930Y005789D01*
X006948Y005776D01*
X008108Y005977D02*
X008122Y005912D01*
X008133Y005847D01*
X008141Y005781D01*
X008144Y005715D01*
X008145Y005648D01*
X008141Y005582D01*
X008134Y005516D01*
X008124Y005451D01*
X008110Y005386D01*
X008092Y005323D01*
X008071Y005260D01*
X008046Y005198D01*
X008019Y005138D01*
X007988Y005080D01*
X007954Y005023D01*
X007916Y004968D01*
X007876Y004915D01*
X007833Y004865D01*
X007788Y004817D01*
X006708Y005736D02*
X006661Y005662D01*
X006617Y005587D01*
X006577Y005509D01*
X006540Y005429D01*
X006508Y005348D01*
X006479Y005266D01*
X006454Y005182D01*
X006432Y005097D01*
X006415Y005012D01*
X006401Y004925D01*
X006392Y004838D01*
X006386Y004751D01*
X006385Y004663D01*
X006388Y004576D01*
X006509Y004336D02*
X006527Y004323D01*
X006548Y004312D01*
X006569Y004304D01*
X006592Y004299D01*
X006615Y004298D01*
X006638Y004300D01*
X006660Y004306D01*
X006682Y004314D01*
X006702Y004326D01*
X006720Y004340D01*
X006735Y004357D01*
X006748Y004376D01*
X006508Y004336D02*
X006484Y004360D01*
X006461Y004386D01*
X006442Y004415D01*
X006425Y004445D01*
X006411Y004476D01*
X006400Y004509D01*
X006393Y004542D01*
X006388Y004576D01*
X006628Y004856D02*
X006668Y004856D01*
X006748Y004896D01*
X006681Y004949D02*
X006628Y004949D01*
X006628Y004896D02*
X006788Y005056D01*
X006868Y005336D01*
X006788Y005576D01*
X006628Y005256D01*
X006628Y004896D01*
X006588Y004896D02*
X006628Y004856D01*
X006628Y005027D02*
X006760Y005027D01*
X006803Y005106D02*
X006628Y005106D01*
X006628Y005185D02*
X006825Y005185D01*
X006847Y005263D02*
X006632Y005263D01*
X006671Y005342D02*
X006867Y005342D01*
X006840Y005420D02*
X006710Y005420D01*
X006750Y005499D02*
X006814Y005499D01*
X007068Y005536D02*
X007060Y005574D01*
X007048Y005611D01*
X007034Y005647D01*
X007017Y005682D01*
X006996Y005715D01*
X006974Y005747D01*
X006948Y005776D01*
X007788Y005336D02*
X007820Y005376D01*
X007848Y005418D01*
X007873Y005462D01*
X007894Y005508D01*
X007913Y005555D01*
X007927Y005604D01*
X007938Y005653D01*
X007945Y005704D01*
X007949Y005754D01*
X007948Y005805D01*
X007944Y005856D01*
X007936Y005906D01*
X007925Y005955D01*
X007909Y006004D01*
X007891Y006051D01*
X007868Y006096D01*
X007988Y006216D02*
X008014Y006187D01*
X008036Y006155D01*
X008057Y006122D01*
X008074Y006087D01*
X008088Y006051D01*
X008100Y006014D01*
X008108Y005976D01*
X008570Y005734D02*
X008906Y005734D01*
X008881Y005734D02*
X008946Y005734D01*
X009036Y005813D02*
X008626Y005813D01*
X008695Y005891D02*
X009167Y005891D01*
X009156Y005891D02*
X009139Y005891D01*
X009066Y005813D02*
X009281Y005813D01*
X009191Y005734D02*
X009407Y005734D01*
X009317Y005656D02*
X009533Y005656D01*
X009258Y005420D02*
X009241Y005420D01*
X007748Y006176D02*
X007701Y006102D01*
X007657Y006027D01*
X007617Y005949D01*
X007580Y005869D01*
X007548Y005788D01*
X007519Y005706D01*
X007494Y005622D01*
X007472Y005537D01*
X007455Y005452D01*
X007441Y005365D01*
X007432Y005278D01*
X007426Y005191D01*
X007425Y005103D01*
X007428Y005016D01*
X008425Y005263D02*
X008505Y005263D01*
X008537Y005342D02*
X008438Y005342D01*
X008450Y005420D02*
X008572Y005420D01*
X009188Y004616D02*
X009648Y004396D01*
X009548Y004336D01*
X009388Y004316D01*
X009228Y004416D01*
X009168Y004516D01*
X009188Y004616D01*
X009176Y004556D02*
X009314Y004556D01*
X009191Y004478D02*
X009478Y004478D01*
X009424Y004321D02*
X009381Y004321D01*
X009256Y004399D02*
X009642Y004399D01*
X009708Y004376D02*
X010148Y004136D01*
X010108Y004076D01*
X010008Y004056D01*
X009828Y004116D01*
X009688Y004256D01*
X009708Y004376D01*
X009699Y004321D02*
X009810Y004321D01*
X009702Y004242D02*
X009954Y004242D01*
X009922Y004085D02*
X010114Y004085D01*
X010098Y004164D02*
X009781Y004164D01*
X009968Y004456D02*
X009948Y004476D01*
X009988Y004476D02*
X010008Y004536D01*
X009888Y004576D02*
X009868Y004576D01*
X009868Y004556D02*
X009808Y004636D01*
X009788Y004616D02*
X009768Y004596D01*
X009728Y004676D02*
X009648Y004636D01*
X009648Y004716D01*
X010088Y004396D02*
X010148Y004456D01*
X010148Y004436D02*
X010148Y004416D01*
X010228Y004356D02*
X010248Y004356D01*
X010288Y004336D02*
X010288Y004396D01*
X010408Y004356D02*
X010408Y004296D01*
X010428Y004276D02*
X010508Y004276D01*
X010468Y004256D02*
X010468Y004236D01*
X010608Y004176D02*
X010648Y004216D01*
X010768Y004116D02*
X010888Y004096D01*
X010828Y004056D02*
X010808Y004096D01*
X010499Y004006D02*
X010240Y004006D01*
X010228Y004036D02*
X010268Y003936D01*
X010408Y003856D01*
X010568Y003836D01*
X010688Y003916D01*
X010268Y004116D01*
X010228Y004036D01*
X010253Y004085D02*
X010334Y004085D01*
X010283Y003928D02*
X010664Y003928D01*
X010588Y003849D02*
X010463Y003849D01*
X009668Y002836D02*
X009468Y002796D01*
X009228Y002796D01*
X008788Y002916D01*
X007988Y003196D01*
X006228Y003896D01*
X006068Y003996D01*
X005908Y004136D01*
X005828Y004216D01*
X006748Y004377D02*
X006793Y004425D01*
X006836Y004475D01*
X006876Y004528D01*
X006914Y004583D01*
X006948Y004640D01*
X006979Y004698D01*
X007006Y004758D01*
X007031Y004820D01*
X007052Y004883D01*
X007070Y004946D01*
X007084Y005011D01*
X007094Y005076D01*
X007101Y005142D01*
X007105Y005208D01*
X007104Y005275D01*
X007101Y005341D01*
X007093Y005407D01*
X007082Y005472D01*
X007068Y005537D01*
X006828Y005656D02*
X006851Y005611D01*
X006869Y005564D01*
X006885Y005515D01*
X006896Y005466D01*
X006904Y005416D01*
X006908Y005365D01*
X006909Y005314D01*
X006905Y005264D01*
X006898Y005213D01*
X006887Y005164D01*
X006873Y005115D01*
X006854Y005068D01*
X006833Y005022D01*
X006808Y004978D01*
X006780Y004936D01*
X006748Y004896D01*
X009195Y006284D02*
X011680Y006284D01*
X011668Y006127D02*
X011139Y006127D01*
X011105Y006049D02*
X011204Y006049D01*
X011197Y005970D02*
X011100Y005970D01*
X011096Y005891D02*
X011190Y005891D01*
X011179Y005813D02*
X011091Y005813D01*
X011045Y005734D02*
X011171Y005734D01*
X011282Y005656D02*
X010908Y005656D01*
X010812Y005734D02*
X010699Y005734D01*
X010708Y005696D02*
X010708Y005536D01*
X010864Y005420D02*
X011016Y005420D01*
X010968Y005296D02*
X010868Y005216D01*
X011028Y005136D02*
X011188Y005256D01*
X011417Y005185D02*
X011462Y005185D01*
X011412Y005420D02*
X011764Y005420D01*
X011669Y005499D02*
X011551Y005499D01*
X011590Y005577D02*
X011676Y005577D01*
X011684Y005656D02*
X011594Y005656D01*
X011598Y005734D02*
X011692Y005734D01*
X011727Y005970D02*
X011582Y005970D01*
X011684Y006049D02*
X011400Y006049D01*
X011513Y006363D02*
X009326Y006363D01*
X006509Y006447D02*
X006516Y006583D01*
X006531Y006718D01*
X006551Y006853D01*
X006578Y006986D01*
X006612Y007118D01*
X006651Y007248D01*
X006697Y007377D01*
X006749Y007503D01*
X006806Y007626D01*
X006870Y007747D01*
X006939Y007864D01*
X007014Y007978D01*
X007093Y008088D01*
X007179Y008194D01*
X007269Y008297D01*
X007460Y008754D02*
X007025Y008754D01*
X007025Y010667D01*
X007460Y010667D01*
X007460Y010363D01*
X007895Y010363D01*
X007946Y010358D01*
X007995Y010343D01*
X008040Y010319D01*
X008079Y010286D01*
X008112Y010247D01*
X008136Y010202D01*
X008151Y010153D01*
X008156Y010102D01*
X008156Y010058D01*
X008151Y010007D01*
X008136Y009958D01*
X008112Y009913D01*
X008079Y009874D01*
X008040Y009841D01*
X007994Y009817D01*
X007946Y009802D01*
X007895Y009797D01*
X007460Y009797D01*
X007460Y009493D01*
X007895Y009493D01*
X007937Y009489D01*
X007978Y009476D01*
X008015Y009456D01*
X008048Y009429D01*
X008075Y009396D01*
X008096Y009359D01*
X008108Y009318D01*
X008112Y009276D01*
X008112Y009232D01*
X008108Y009193D01*
X008095Y009157D01*
X008074Y009124D01*
X008047Y009096D01*
X008014Y009075D01*
X007977Y009063D01*
X007938Y009058D01*
X007460Y009058D01*
X007460Y008754D01*
X008156Y008754D01*
X008228Y008757D01*
X008299Y008774D01*
X008365Y008804D01*
X008423Y008847D01*
X008473Y008900D01*
X008510Y008962D01*
X008536Y009030D01*
X008547Y009102D01*
X008547Y009363D01*
X008541Y009422D01*
X008524Y009479D01*
X008496Y009532D01*
X008458Y009578D01*
X008412Y009616D01*
X008359Y009644D01*
X008302Y009661D01*
X008243Y009667D01*
X008310Y009673D01*
X008376Y009690D01*
X008438Y009719D01*
X008494Y009758D01*
X008542Y009807D01*
X008581Y009863D01*
X008610Y009924D01*
X008628Y009990D01*
X008634Y010058D01*
X008634Y010102D01*
X008625Y010200D01*
X008600Y010295D01*
X008558Y010384D01*
X008502Y010465D01*
X008432Y010535D01*
X008351Y010591D01*
X008262Y010633D01*
X008167Y010658D01*
X008069Y010667D01*
X007460Y010667D01*
X007460Y008754D01*
X007460Y008798D02*
X008351Y008798D01*
X008451Y008876D02*
X007460Y008876D01*
X007025Y008876D01*
X007025Y008798D02*
X007460Y008798D01*
X007460Y008955D02*
X008506Y008955D01*
X008536Y009033D02*
X007460Y009033D01*
X007025Y009033D01*
X007025Y008955D02*
X007460Y008955D01*
X007460Y009112D02*
X007025Y009112D01*
X007025Y009190D02*
X007460Y009190D01*
X007460Y009269D02*
X007025Y009269D01*
X007025Y009347D02*
X007460Y009347D01*
X007460Y009426D02*
X007025Y009426D01*
X007025Y009504D02*
X007460Y009504D01*
X008510Y009504D01*
X008540Y009426D02*
X008051Y009426D01*
X008099Y009347D02*
X008547Y009347D01*
X008547Y009269D02*
X008112Y009269D01*
X008107Y009190D02*
X008547Y009190D01*
X008547Y009112D02*
X008062Y009112D01*
X008451Y009583D02*
X007460Y009583D01*
X007025Y009583D01*
X007025Y009662D02*
X007460Y009662D01*
X008297Y009662D01*
X008468Y009740D02*
X007460Y009740D01*
X007025Y009740D01*
X007025Y009819D02*
X007460Y009819D01*
X007460Y009897D02*
X007025Y009897D01*
X007025Y009976D02*
X007460Y009976D01*
X007460Y010054D02*
X007025Y010054D01*
X007025Y010133D02*
X007460Y010133D01*
X007460Y010211D02*
X007025Y010211D01*
X007025Y010290D02*
X007460Y010290D01*
X007460Y010368D02*
X008565Y010368D01*
X008601Y010290D02*
X008075Y010290D01*
X008131Y010211D02*
X008622Y010211D01*
X008631Y010133D02*
X008153Y010133D01*
X008155Y010054D02*
X008634Y010054D01*
X008624Y009976D02*
X008141Y009976D01*
X008098Y009897D02*
X008598Y009897D01*
X008551Y009819D02*
X007997Y009819D01*
X007460Y010368D02*
X007025Y010368D01*
X007025Y010447D02*
X007460Y010447D01*
X008514Y010447D01*
X008441Y010526D02*
X007460Y010526D01*
X007025Y010526D01*
X007025Y010604D02*
X007460Y010604D01*
X008324Y010604D01*
X009547Y010604D02*
X009982Y010604D01*
X009982Y010667D02*
X009547Y010667D01*
X009547Y009102D01*
X008895Y009102D01*
X008895Y008754D01*
X010634Y008754D01*
X010634Y009102D01*
X009982Y009102D01*
X009982Y010667D01*
X009982Y010526D02*
X009547Y010526D01*
X009547Y010447D02*
X009982Y010447D01*
X009982Y010368D02*
X009547Y010368D01*
X009547Y010290D02*
X009982Y010290D01*
X009982Y010211D02*
X009547Y010211D01*
X009547Y010133D02*
X009982Y010133D01*
X009982Y010054D02*
X009547Y010054D01*
X009547Y009976D02*
X009982Y009976D01*
X009982Y009897D02*
X009547Y009897D01*
X009547Y009819D02*
X009982Y009819D01*
X009982Y009740D02*
X009547Y009740D01*
X009547Y009662D02*
X009982Y009662D01*
X009982Y009583D02*
X009547Y009583D01*
X009547Y009504D02*
X009982Y009504D01*
X009982Y009426D02*
X009547Y009426D01*
X009547Y009347D02*
X009982Y009347D01*
X009982Y009269D02*
X009547Y009269D01*
X009547Y009190D02*
X009982Y009190D01*
X009982Y009112D02*
X009547Y009112D01*
X009628Y008736D02*
X009428Y007736D01*
X009348Y007136D01*
X009308Y006456D01*
X009348Y006256D01*
X009587Y006441D02*
X011330Y006441D01*
X011146Y006520D02*
X009907Y006520D01*
X010388Y006598D02*
X010673Y006598D01*
X010708Y006127D02*
X010588Y006127D01*
X010588Y006049D02*
X010708Y006049D01*
X010708Y005970D02*
X010588Y005970D01*
X010574Y005813D02*
X010828Y005813D01*
X010809Y005891D02*
X010431Y005891D01*
X010188Y005696D02*
X010188Y005576D01*
X010148Y005416D01*
X011508Y004896D02*
X011608Y004976D01*
X011883Y004949D02*
X011940Y004949D01*
X013108Y003856D02*
X009668Y002836D01*
X012009Y006206D02*
X012667Y006206D01*
X012548Y006136D02*
X013028Y006416D01*
X013548Y006776D01*
X014028Y007176D01*
X014428Y007496D01*
X014588Y007736D01*
X014628Y007936D01*
X014588Y008136D01*
X014508Y008256D01*
X014268Y008296D01*
X013868Y008256D01*
X013628Y008136D01*
X013228Y007896D01*
X012388Y007176D01*
X011908Y006696D01*
X011868Y006536D01*
X011908Y006376D01*
X011915Y006363D02*
X012937Y006363D01*
X013065Y006441D02*
X011892Y006441D01*
X011872Y006520D02*
X013178Y006520D01*
X013292Y006598D02*
X011884Y006598D01*
X011904Y006677D02*
X013405Y006677D01*
X013518Y006755D02*
X011968Y006755D01*
X012046Y006834D02*
X013618Y006834D01*
X013712Y006913D02*
X012125Y006913D01*
X012203Y006991D02*
X013806Y006991D01*
X013901Y007070D02*
X012282Y007070D01*
X012360Y007148D02*
X013995Y007148D01*
X014092Y007227D02*
X012447Y007227D01*
X012539Y007305D02*
X014190Y007305D01*
X014288Y007384D02*
X012631Y007384D01*
X012722Y007462D02*
X014386Y007462D01*
X014458Y007541D02*
X012814Y007541D01*
X012905Y007619D02*
X014511Y007619D01*
X014563Y007698D02*
X012997Y007698D01*
X013089Y007776D02*
X014596Y007776D01*
X014612Y007855D02*
X013180Y007855D01*
X013291Y007934D02*
X014628Y007934D01*
X014613Y008012D02*
X013422Y008012D01*
X013553Y008091D02*
X014597Y008091D01*
X014566Y008169D02*
X013694Y008169D01*
X013852Y008248D02*
X014514Y008248D01*
X013206Y009190D02*
X012845Y009190D01*
X011748Y007896D02*
X011695Y007919D01*
X011643Y007946D01*
X011593Y007976D01*
X011546Y008010D01*
X011501Y008047D01*
X011458Y008086D01*
X011419Y008129D01*
X011382Y008174D01*
X011348Y008221D01*
X011318Y008271D01*
X011291Y008323D01*
X011268Y008376D01*
X010634Y008798D02*
X008895Y008798D01*
X008895Y008876D02*
X010634Y008876D01*
X010634Y008955D02*
X008895Y008955D01*
X008895Y009033D02*
X010634Y009033D01*
X010864Y009269D02*
X011586Y009269D01*
X011714Y009347D02*
X010744Y009347D01*
X010659Y009426D02*
X011803Y009426D01*
X011870Y009504D02*
X011320Y009504D01*
X011459Y009583D02*
X011920Y009583D01*
X011959Y009662D02*
X011513Y009662D01*
X011541Y009740D02*
X011990Y009740D01*
X011264Y009190D02*
X011178Y009190D01*
X011748Y007896D02*
X011794Y007875D01*
X011841Y007857D01*
X011889Y007843D01*
X011938Y007833D01*
X011988Y007827D01*
X012038Y007825D01*
X012088Y007827D01*
X012138Y007833D01*
X012187Y007843D01*
X012235Y007856D01*
X012282Y007874D01*
X012327Y007895D01*
X012371Y007919D01*
X012413Y007947D01*
X012452Y007979D01*
X012488Y008013D01*
X012522Y008050D01*
X012553Y008090D01*
X012580Y008132D01*
X012604Y008176D01*
X012625Y008221D01*
X012641Y008268D01*
X012654Y008317D01*
X012664Y008366D01*
X012669Y008416D01*
X012802Y006284D02*
X011954Y006284D01*
X008908Y007856D02*
X008883Y007915D01*
X008855Y007972D01*
X008823Y008027D01*
X008788Y008080D01*
X008750Y008131D01*
X008709Y008180D01*
X008665Y008226D01*
X008618Y008269D01*
X008569Y008310D01*
X008517Y008347D01*
X008463Y008381D01*
X008407Y008412D01*
X008350Y008439D01*
X008291Y008463D01*
X008230Y008483D01*
X008169Y008500D01*
X008106Y008513D01*
X008043Y008522D01*
X007980Y008527D01*
X007916Y008528D01*
X007852Y008525D01*
X007789Y008519D01*
X007726Y008509D01*
X007664Y008495D01*
X007603Y008477D01*
X007543Y008455D01*
X007484Y008430D01*
X007427Y008402D01*
X007372Y008370D01*
X007319Y008334D01*
X007268Y008296D01*
X006470Y008900D02*
X006411Y008847D01*
X006343Y008804D01*
X006269Y008774D01*
X006192Y008757D01*
X006112Y008754D01*
X005503Y008754D01*
X005503Y009058D01*
X005895Y009058D01*
X005954Y009064D01*
X006011Y009081D01*
X006064Y009109D01*
X006110Y009147D01*
X006148Y009193D01*
X006176Y009246D01*
X006193Y009303D01*
X006199Y009363D01*
X006199Y009406D01*
X006194Y009457D01*
X006179Y009506D01*
X006155Y009551D01*
X006123Y009590D01*
X006083Y009623D01*
X006038Y009647D01*
X005989Y009662D01*
X005938Y009667D01*
X005503Y009667D01*
X005503Y009971D01*
X006069Y009971D01*
X006149Y009976D01*
X006229Y009966D01*
X006306Y009943D01*
X006377Y009906D01*
X006442Y009858D01*
X006496Y009799D01*
X006540Y009732D01*
X006572Y009658D01*
X006590Y009580D01*
X006590Y009189D01*
X006580Y009110D01*
X006555Y009034D01*
X006518Y008963D01*
X006470Y008900D01*
X006443Y008876D02*
X005503Y008876D01*
X005068Y008876D01*
X005068Y008798D02*
X005503Y008798D01*
X006327Y008798D01*
X006512Y008955D02*
X005503Y008955D01*
X005068Y008955D01*
X005068Y009033D02*
X005503Y009033D01*
X006555Y009033D01*
X006580Y009112D02*
X006066Y009112D01*
X006145Y009190D02*
X006590Y009190D01*
X006590Y009269D02*
X006183Y009269D01*
X006197Y009347D02*
X006590Y009347D01*
X006590Y009426D02*
X006197Y009426D01*
X006180Y009504D02*
X006590Y009504D01*
X006590Y009583D02*
X006129Y009583D01*
X005990Y009662D02*
X006571Y009662D01*
X006535Y009740D02*
X005503Y009740D01*
X005068Y009740D01*
X005068Y009662D02*
X005503Y009662D01*
X005503Y009583D02*
X005068Y009583D01*
X005068Y009504D02*
X005503Y009504D01*
X005503Y009426D02*
X005068Y009426D01*
X005068Y009347D02*
X005503Y009347D01*
X005503Y009269D02*
X005068Y009269D01*
X005068Y009190D02*
X005503Y009190D01*
X005503Y009112D02*
X005068Y009112D01*
X005068Y008754D02*
X005503Y008754D01*
X005503Y010667D01*
X005068Y010667D01*
X005068Y008754D01*
X004163Y009112D02*
X003710Y009112D01*
X003674Y009112D02*
X003321Y009112D01*
X003291Y009190D02*
X003720Y009190D01*
X003721Y009189D02*
X003460Y008754D01*
X002721Y010667D01*
X003155Y010667D01*
X003286Y010319D01*
X004199Y010319D01*
X004329Y010667D01*
X004764Y010667D01*
X004025Y008754D01*
X003460Y008754D01*
X003764Y009189D01*
X004068Y009971D01*
X003416Y009971D01*
X003721Y009189D01*
X003765Y009190D02*
X004194Y009190D01*
X004224Y009269D02*
X003795Y009269D01*
X003826Y009347D02*
X004254Y009347D01*
X004285Y009426D02*
X003856Y009426D01*
X003887Y009504D02*
X004315Y009504D01*
X004345Y009583D02*
X003917Y009583D01*
X003948Y009662D02*
X004376Y009662D01*
X004406Y009740D02*
X003979Y009740D01*
X004009Y009819D02*
X004436Y009819D01*
X004467Y009897D02*
X004040Y009897D01*
X003567Y009583D02*
X003139Y009583D01*
X003109Y009662D02*
X003537Y009662D01*
X003506Y009740D02*
X003079Y009740D01*
X003048Y009819D02*
X003476Y009819D01*
X003445Y009897D02*
X003018Y009897D01*
X002988Y009976D02*
X004497Y009976D01*
X004527Y010054D02*
X002957Y010054D01*
X002927Y010133D02*
X004558Y010133D01*
X004588Y010211D02*
X002897Y010211D01*
X002866Y010290D02*
X004618Y010290D01*
X004649Y010368D02*
X004217Y010368D01*
X004247Y010447D02*
X004679Y010447D01*
X004709Y010526D02*
X004276Y010526D01*
X004306Y010604D02*
X004740Y010604D01*
X005068Y010604D02*
X005503Y010604D01*
X005503Y010526D02*
X005068Y010526D01*
X005068Y010447D02*
X005503Y010447D01*
X005503Y010368D02*
X005068Y010368D01*
X005068Y010290D02*
X005503Y010290D01*
X005503Y010211D02*
X005068Y010211D01*
X005068Y010133D02*
X005503Y010133D01*
X005503Y010054D02*
X005068Y010054D01*
X005068Y009976D02*
X005503Y009976D01*
X005503Y009897D02*
X006390Y009897D01*
X006479Y009819D02*
X005503Y009819D01*
X005068Y009819D01*
X005068Y009897D02*
X005503Y009897D01*
X004133Y009033D02*
X003655Y009033D01*
X003627Y009033D02*
X003352Y009033D01*
X003382Y008955D02*
X003580Y008955D01*
X003600Y008955D02*
X004103Y008955D01*
X004072Y008876D02*
X003545Y008876D01*
X003533Y008876D02*
X003412Y008876D01*
X003443Y008798D02*
X003486Y008798D01*
X003490Y008798D02*
X004042Y008798D01*
X003689Y009269D02*
X003261Y009269D01*
X003230Y009347D02*
X003659Y009347D01*
X003628Y009426D02*
X003200Y009426D01*
X003170Y009504D02*
X003598Y009504D01*
X003267Y010368D02*
X002836Y010368D01*
X002806Y010447D02*
X003238Y010447D01*
X003208Y010526D02*
X002775Y010526D01*
X002745Y010604D02*
X003179Y010604D01*
X010443Y011786D02*
X010693Y011786D01*
X010967Y010683D02*
X011627Y010683D01*
X011878Y010604D02*
X010790Y010604D01*
M02*
