G75*
G70*
%OFA0B0*%
%FSLAX24Y24*%
%IPPOS*%
%LPD*%
%AMOC8*
5,1,8,0,0,1.08239X$1,22.5*
%
%ADD10C,0.0060*%
%ADD11C,0.0080*%
D10*
X001233Y002996D02*
X001319Y002996D01*
X001363Y003039D01*
X001363Y003126D01*
X001276Y003126D01*
X001189Y003213D02*
X001189Y003039D01*
X001233Y002996D01*
X001189Y003213D02*
X001233Y003256D01*
X001319Y003256D01*
X001363Y003213D01*
X001484Y003256D02*
X001658Y002996D01*
X001658Y003256D01*
X001779Y003256D02*
X001779Y002996D01*
X001909Y002996D01*
X001952Y003039D01*
X001952Y003213D01*
X001909Y003256D01*
X001779Y003256D01*
X001484Y003256D02*
X001484Y002996D01*
X002359Y003039D02*
X002402Y002996D01*
X002489Y002996D01*
X002533Y003039D01*
X002533Y003126D01*
X002489Y003170D01*
X002446Y003170D01*
X002359Y003126D01*
X002359Y003256D01*
X002533Y003256D01*
X002654Y003256D02*
X002654Y003083D01*
X002740Y002996D01*
X002827Y003083D01*
X002827Y003256D01*
X003359Y003256D02*
X003359Y002996D01*
X003489Y002996D01*
X003533Y003039D01*
X003533Y003083D01*
X003489Y003126D01*
X003359Y003126D01*
X003489Y003126D02*
X003533Y003170D01*
X003533Y003213D01*
X003489Y003256D01*
X003359Y003256D01*
X003654Y003213D02*
X003654Y003039D01*
X003827Y003213D01*
X003827Y003039D01*
X003784Y002996D01*
X003697Y002996D01*
X003654Y003039D01*
X003654Y003213D02*
X003697Y003256D01*
X003784Y003256D01*
X003827Y003213D01*
X004359Y003256D02*
X004359Y002996D01*
X004489Y002996D01*
X004533Y003039D01*
X004533Y003083D01*
X004489Y003126D01*
X004359Y003126D01*
X004489Y003126D02*
X004533Y003170D01*
X004533Y003213D01*
X004489Y003256D01*
X004359Y003256D01*
X004654Y003170D02*
X004740Y003256D01*
X004740Y002996D01*
X004654Y002996D02*
X004827Y002996D01*
X005359Y002996D02*
X005489Y002996D01*
X005533Y003039D01*
X005533Y003083D01*
X005489Y003126D01*
X005359Y003126D01*
X005359Y002996D02*
X005359Y003256D01*
X005489Y003256D01*
X005533Y003213D01*
X005533Y003170D01*
X005489Y003126D01*
X005654Y003213D02*
X005697Y003256D01*
X005784Y003256D01*
X005827Y003213D01*
X005827Y003170D01*
X005654Y002996D01*
X005827Y002996D01*
X006359Y002996D02*
X006489Y002996D01*
X006533Y003039D01*
X006533Y003083D01*
X006489Y003126D01*
X006359Y003126D01*
X006359Y002996D02*
X006359Y003256D01*
X006489Y003256D01*
X006533Y003213D01*
X006533Y003170D01*
X006489Y003126D01*
X006654Y003039D02*
X006697Y002996D01*
X006784Y002996D01*
X006827Y003039D01*
X006827Y003083D01*
X006784Y003126D01*
X006740Y003126D01*
X006784Y003126D02*
X006827Y003170D01*
X006827Y003213D01*
X006784Y003256D01*
X006697Y003256D01*
X006654Y003213D01*
X007359Y003256D02*
X007359Y002996D01*
X007489Y002996D01*
X007533Y003039D01*
X007533Y003083D01*
X007489Y003126D01*
X007359Y003126D01*
X007489Y003126D02*
X007533Y003170D01*
X007533Y003213D01*
X007489Y003256D01*
X007359Y003256D01*
X007654Y003256D02*
X007827Y003256D01*
X007827Y003213D01*
X007654Y003039D01*
X007654Y002996D01*
X008359Y002996D02*
X008489Y002996D01*
X008533Y003039D01*
X008533Y003213D01*
X008489Y003256D01*
X008359Y003256D01*
X008359Y002996D01*
X008654Y003039D02*
X008827Y003213D01*
X008827Y003039D01*
X008784Y002996D01*
X008697Y002996D01*
X008654Y003039D01*
X008654Y003213D01*
X008697Y003256D01*
X008784Y003256D01*
X008827Y003213D01*
X009359Y003256D02*
X009359Y002996D01*
X009489Y002996D01*
X009533Y003039D01*
X009533Y003213D01*
X009489Y003256D01*
X009359Y003256D01*
X009654Y003170D02*
X009740Y003256D01*
X009740Y002996D01*
X009654Y002996D02*
X009827Y002996D01*
X010359Y002996D02*
X010489Y002996D01*
X010533Y003039D01*
X010533Y003213D01*
X010489Y003256D01*
X010359Y003256D01*
X010359Y002996D01*
X010654Y002996D02*
X010827Y003170D01*
X010827Y003213D01*
X010784Y003256D01*
X010697Y003256D01*
X010654Y003213D01*
X010654Y002996D02*
X010827Y002996D01*
X011359Y002996D02*
X011489Y002996D01*
X011533Y003039D01*
X011533Y003213D01*
X011489Y003256D01*
X011359Y003256D01*
X011359Y002996D01*
X011654Y003039D02*
X011697Y002996D01*
X011784Y002996D01*
X011827Y003039D01*
X011827Y003083D01*
X011784Y003126D01*
X011740Y003126D01*
X011784Y003126D02*
X011827Y003170D01*
X011827Y003213D01*
X011784Y003256D01*
X011697Y003256D01*
X011654Y003213D01*
X011295Y003566D02*
X011121Y003566D01*
X011078Y003609D01*
X011078Y003696D01*
X011121Y003740D01*
X011078Y003861D02*
X011208Y003861D01*
X011165Y003948D01*
X011165Y003991D01*
X011208Y004034D01*
X011295Y004034D01*
X011338Y003991D01*
X011338Y003904D01*
X011295Y003861D01*
X011295Y003740D02*
X011338Y003696D01*
X011338Y003609D01*
X011295Y003566D01*
X011078Y003861D02*
X011078Y004034D01*
X012359Y003256D02*
X012359Y002996D01*
X012489Y002996D01*
X012533Y003039D01*
X012533Y003213D01*
X012489Y003256D01*
X012359Y003256D01*
X012654Y003126D02*
X012827Y003126D01*
X012784Y002996D02*
X012784Y003256D01*
X012654Y003126D01*
X013359Y002996D02*
X013489Y002996D01*
X013533Y003039D01*
X013533Y003213D01*
X013489Y003256D01*
X013359Y003256D01*
X013359Y002996D01*
X013654Y003039D02*
X013697Y002996D01*
X013784Y002996D01*
X013827Y003039D01*
X013827Y003126D01*
X013784Y003170D01*
X013740Y003170D01*
X013654Y003126D01*
X013654Y003256D01*
X013827Y003256D01*
X014359Y003256D02*
X014359Y002996D01*
X014489Y002996D01*
X014533Y003039D01*
X014533Y003213D01*
X014489Y003256D01*
X014359Y003256D01*
X014654Y003126D02*
X014654Y003039D01*
X014697Y002996D01*
X014784Y002996D01*
X014827Y003039D01*
X014827Y003083D01*
X014784Y003126D01*
X014654Y003126D01*
X014740Y003213D01*
X014827Y003256D01*
X015359Y003256D02*
X015359Y002996D01*
X015489Y002996D01*
X015533Y003039D01*
X015533Y003213D01*
X015489Y003256D01*
X015359Y003256D01*
X015654Y003256D02*
X015827Y003256D01*
X015827Y003213D01*
X015654Y003039D01*
X015654Y002996D01*
X016359Y003039D02*
X016402Y002996D01*
X016489Y002996D01*
X016533Y003039D01*
X016533Y003126D01*
X016489Y003170D01*
X016446Y003170D01*
X016359Y003126D01*
X016359Y003256D01*
X016533Y003256D01*
X016654Y003256D02*
X016654Y003083D01*
X016740Y002996D01*
X016827Y003083D01*
X016827Y003256D01*
X017189Y003213D02*
X017189Y003039D01*
X017233Y002996D01*
X017319Y002996D01*
X017363Y003039D01*
X017363Y003126D01*
X017276Y003126D01*
X017189Y003213D02*
X017233Y003256D01*
X017319Y003256D01*
X017363Y003213D01*
X017484Y003256D02*
X017484Y002996D01*
X017658Y002996D02*
X017484Y003256D01*
X017658Y003256D02*
X017658Y002996D01*
X017779Y002996D02*
X017909Y002996D01*
X017952Y003039D01*
X017952Y003213D01*
X017909Y003256D01*
X017779Y003256D01*
X017779Y002996D01*
X015316Y005266D02*
X015143Y005266D01*
X015230Y005266D02*
X015230Y005526D01*
X015143Y005440D01*
X015022Y005483D02*
X014978Y005526D01*
X014892Y005526D01*
X014848Y005483D01*
X014848Y005309D01*
X014892Y005266D01*
X014978Y005266D01*
X015022Y005309D01*
X016128Y006566D02*
X016388Y006740D01*
X016388Y006861D02*
X016388Y007034D01*
X016388Y006948D02*
X016128Y006948D01*
X016215Y006861D01*
X016128Y006740D02*
X016388Y006566D01*
X015316Y009766D02*
X015143Y009766D01*
X015316Y009940D01*
X015316Y009983D01*
X015273Y010026D01*
X015186Y010026D01*
X015143Y009983D01*
X015022Y009983D02*
X014978Y010026D01*
X014892Y010026D01*
X014848Y009983D01*
X014848Y009809D01*
X014892Y009766D01*
X014978Y009766D01*
X015022Y009809D01*
X014773Y010316D02*
X014686Y010316D01*
X014643Y010359D01*
X014643Y010446D02*
X014730Y010490D01*
X014773Y010490D01*
X014816Y010446D01*
X014816Y010359D01*
X014773Y010316D01*
X014643Y010446D02*
X014643Y010576D01*
X014816Y010576D01*
X014522Y010533D02*
X014522Y010490D01*
X014478Y010446D01*
X014348Y010446D01*
X014348Y010316D02*
X014478Y010316D01*
X014522Y010359D01*
X014522Y010403D01*
X014478Y010446D01*
X014522Y010533D02*
X014478Y010576D01*
X014348Y010576D01*
X014348Y010316D01*
X013816Y010359D02*
X013773Y010316D01*
X013686Y010316D01*
X013643Y010359D01*
X013643Y010446D01*
X013773Y010446D01*
X013816Y010403D01*
X013816Y010359D01*
X013643Y010446D02*
X013730Y010533D01*
X013816Y010576D01*
X013522Y010533D02*
X013522Y010490D01*
X013478Y010446D01*
X013348Y010446D01*
X013348Y010316D02*
X013478Y010316D01*
X013522Y010359D01*
X013522Y010403D01*
X013478Y010446D01*
X013522Y010533D02*
X013478Y010576D01*
X013348Y010576D01*
X013348Y010316D01*
X012816Y010359D02*
X012773Y010316D01*
X012686Y010316D01*
X012643Y010359D01*
X012643Y010446D01*
X012773Y010446D01*
X012816Y010403D01*
X012816Y010359D01*
X012643Y010446D02*
X012730Y010533D01*
X012816Y010576D01*
X012522Y010533D02*
X012478Y010576D01*
X012392Y010576D01*
X012348Y010533D01*
X012348Y010359D01*
X012392Y010316D01*
X012478Y010316D01*
X012522Y010359D01*
X011816Y010533D02*
X011643Y010359D01*
X011643Y010316D01*
X011522Y010359D02*
X011478Y010316D01*
X011392Y010316D01*
X011348Y010359D01*
X011348Y010533D01*
X011392Y010576D01*
X011478Y010576D01*
X011522Y010533D01*
X011643Y010576D02*
X011816Y010576D01*
X011816Y010533D01*
X010986Y010033D02*
X010986Y009990D01*
X010943Y009946D01*
X010813Y009946D01*
X010943Y009946D02*
X010986Y009903D01*
X010986Y009859D01*
X010943Y009816D01*
X010813Y009816D01*
X010813Y010076D01*
X010943Y010076D01*
X010986Y010033D01*
X010691Y010076D02*
X010691Y009816D01*
X010605Y009903D01*
X010518Y009816D01*
X010518Y010076D01*
X010397Y010076D02*
X010397Y009816D01*
X010397Y009946D02*
X010223Y009946D01*
X010223Y009816D02*
X010223Y010076D01*
X010348Y010316D02*
X010522Y010316D01*
X010643Y010316D02*
X010816Y010490D01*
X010816Y010533D01*
X010773Y010576D01*
X010686Y010576D01*
X010643Y010533D01*
X010522Y010576D02*
X010348Y010576D01*
X010348Y010316D01*
X010348Y010446D02*
X010435Y010446D01*
X010643Y010316D02*
X010816Y010316D01*
X009816Y010533D02*
X009643Y010359D01*
X009643Y010316D01*
X009435Y010446D02*
X009348Y010446D01*
X009348Y010316D02*
X009348Y010576D01*
X009522Y010576D01*
X009643Y010576D02*
X009816Y010576D01*
X009816Y010533D01*
X008816Y010576D02*
X008730Y010533D01*
X008643Y010446D01*
X008773Y010446D01*
X008816Y010403D01*
X008816Y010359D01*
X008773Y010316D01*
X008686Y010316D01*
X008643Y010359D01*
X008643Y010446D01*
X008522Y010576D02*
X008348Y010576D01*
X008348Y010316D01*
X008348Y010446D02*
X008435Y010446D01*
X007816Y010446D02*
X007816Y010359D01*
X007773Y010316D01*
X007686Y010316D01*
X007643Y010359D01*
X007643Y010446D02*
X007730Y010490D01*
X007773Y010490D01*
X007816Y010446D01*
X007816Y010576D02*
X007643Y010576D01*
X007643Y010446D01*
X007522Y010576D02*
X007348Y010576D01*
X007348Y010316D01*
X007348Y010446D02*
X007435Y010446D01*
X006816Y010446D02*
X006643Y010446D01*
X006773Y010576D01*
X006773Y010316D01*
X006522Y010576D02*
X006348Y010576D01*
X006348Y010316D01*
X006348Y010446D02*
X006435Y010446D01*
X005816Y010316D02*
X005643Y010316D01*
X005730Y010316D02*
X005730Y010576D01*
X005643Y010490D01*
X005522Y010576D02*
X005348Y010576D01*
X005348Y010316D01*
X005348Y010446D02*
X005435Y010446D01*
X004816Y010359D02*
X004773Y010316D01*
X004686Y010316D01*
X004643Y010359D01*
X004816Y010533D01*
X004816Y010359D01*
X004643Y010359D02*
X004643Y010533D01*
X004686Y010576D01*
X004773Y010576D01*
X004816Y010533D01*
X004522Y010576D02*
X004348Y010576D01*
X004348Y010316D01*
X004348Y010446D02*
X004435Y010446D01*
X003816Y010403D02*
X003773Y010446D01*
X003643Y010446D01*
X003643Y010359D01*
X003686Y010316D01*
X003773Y010316D01*
X003816Y010359D01*
X003816Y010403D01*
X003730Y010533D02*
X003643Y010446D01*
X003730Y010533D02*
X003816Y010576D01*
X003522Y010576D02*
X003348Y010576D01*
X003348Y010316D01*
X003522Y010316D01*
X003435Y010446D02*
X003348Y010446D01*
X002816Y010403D02*
X002816Y010576D01*
X002643Y010576D02*
X002643Y010403D01*
X002730Y010316D01*
X002816Y010403D01*
X002522Y010446D02*
X002522Y010359D01*
X002478Y010316D01*
X002392Y010316D01*
X002348Y010359D01*
X002348Y010446D02*
X002435Y010490D01*
X002478Y010490D01*
X002522Y010446D01*
X002522Y010576D02*
X002348Y010576D01*
X002348Y010446D01*
X001986Y010359D02*
X001943Y010316D01*
X001813Y010316D01*
X001813Y010576D01*
X001943Y010576D01*
X001986Y010533D01*
X001986Y010359D01*
X001691Y010316D02*
X001691Y010576D01*
X001518Y010576D02*
X001691Y010316D01*
X001518Y010316D02*
X001518Y010576D01*
X001397Y010533D02*
X001353Y010576D01*
X001267Y010576D01*
X001223Y010533D01*
X001223Y010359D01*
X001267Y010316D01*
X001353Y010316D01*
X001397Y010359D01*
X001397Y010446D01*
X001310Y010446D01*
X003578Y010034D02*
X003621Y009948D01*
X003708Y009861D01*
X003708Y009991D01*
X003752Y010034D01*
X003795Y010034D01*
X003838Y009991D01*
X003838Y009904D01*
X003795Y009861D01*
X003708Y009861D01*
X003621Y009740D02*
X003578Y009696D01*
X003578Y009609D01*
X003621Y009566D01*
X003795Y009566D01*
X003838Y009609D01*
X003838Y009696D01*
X003795Y009740D01*
X003708Y009034D02*
X003708Y008861D01*
X003578Y008991D01*
X003838Y008991D01*
X003795Y008740D02*
X003838Y008696D01*
X003838Y008609D01*
X003795Y008566D01*
X003621Y008566D01*
X003578Y008609D01*
X003578Y008696D01*
X003621Y008740D01*
X003621Y007534D02*
X003578Y007491D01*
X003578Y007404D01*
X003621Y007361D01*
X003621Y007240D02*
X003708Y007240D01*
X003752Y007196D01*
X003752Y007066D01*
X003838Y007066D02*
X003578Y007066D01*
X003578Y007196D01*
X003621Y007240D01*
X003752Y007153D02*
X003838Y007240D01*
X003838Y007361D02*
X003665Y007534D01*
X003621Y007534D01*
X003838Y007534D02*
X003838Y007361D01*
X003838Y006534D02*
X003838Y006361D01*
X003838Y006448D02*
X003578Y006448D01*
X003665Y006361D01*
X003708Y006240D02*
X003752Y006196D01*
X003752Y006066D01*
X003838Y006066D02*
X003578Y006066D01*
X003578Y006196D01*
X003621Y006240D01*
X003708Y006240D01*
X003752Y006153D02*
X003838Y006240D01*
X003795Y005034D02*
X003838Y004991D01*
X003838Y004904D01*
X003795Y004861D01*
X003795Y004740D02*
X003838Y004696D01*
X003838Y004609D01*
X003795Y004566D01*
X003621Y004566D01*
X003578Y004609D01*
X003578Y004696D01*
X003621Y004740D01*
X003621Y004861D02*
X003578Y004904D01*
X003578Y004991D01*
X003621Y005034D01*
X003665Y005034D01*
X003708Y004991D01*
X003752Y005034D01*
X003795Y005034D01*
X003708Y004991D02*
X003708Y004948D01*
X004098Y004176D02*
X004228Y004176D01*
X004272Y004133D01*
X004272Y004046D01*
X004228Y004003D01*
X004098Y004003D01*
X004098Y003916D02*
X004098Y004176D01*
X004185Y004003D02*
X004272Y003916D01*
X004393Y003959D02*
X004436Y003916D01*
X004523Y003916D01*
X004566Y003959D01*
X004566Y004003D01*
X004523Y004046D01*
X004436Y004046D01*
X004393Y004090D01*
X004393Y004133D01*
X004436Y004176D01*
X004523Y004176D01*
X004566Y004133D01*
X004688Y004176D02*
X004861Y004176D01*
X004774Y004176D02*
X004774Y003916D01*
X015348Y010316D02*
X015478Y010316D01*
X015522Y010359D01*
X015522Y010403D01*
X015478Y010446D01*
X015348Y010446D01*
X015348Y010316D02*
X015348Y010576D01*
X015478Y010576D01*
X015522Y010533D01*
X015522Y010490D01*
X015478Y010446D01*
X015643Y010446D02*
X015816Y010446D01*
X015773Y010316D02*
X015773Y010576D01*
X015643Y010446D01*
X016348Y010446D02*
X016435Y010490D01*
X016478Y010490D01*
X016522Y010446D01*
X016522Y010359D01*
X016478Y010316D01*
X016392Y010316D01*
X016348Y010359D01*
X016348Y010446D02*
X016348Y010576D01*
X016522Y010576D01*
X016643Y010576D02*
X016643Y010403D01*
X016730Y010316D01*
X016816Y010403D01*
X016816Y010576D01*
X017223Y010533D02*
X017223Y010359D01*
X017267Y010316D01*
X017353Y010316D01*
X017397Y010359D01*
X017397Y010446D01*
X017310Y010446D01*
X017223Y010533D02*
X017267Y010576D01*
X017353Y010576D01*
X017397Y010533D01*
X017518Y010576D02*
X017691Y010316D01*
X017691Y010576D01*
X017813Y010576D02*
X017943Y010576D01*
X017986Y010533D01*
X017986Y010359D01*
X017943Y010316D01*
X017813Y010316D01*
X017813Y010576D01*
X017518Y010576D02*
X017518Y010316D01*
D11*
X015218Y009036D02*
X014918Y009036D01*
X010693Y011786D02*
X010443Y011786D01*
X010418Y008786D02*
X010568Y008786D01*
X010568Y008636D01*
X006968Y008386D02*
X006668Y008686D01*
X006568Y008586D02*
X006568Y008786D01*
X006768Y008786D01*
X004568Y008936D02*
X004568Y008636D01*
X004568Y009636D02*
X004568Y009936D01*
X004568Y007436D02*
X004568Y007136D01*
X004568Y006436D02*
X004568Y006136D01*
X004568Y004936D02*
X004568Y004636D01*
X006568Y004786D02*
X006718Y004786D01*
X006568Y004786D02*
X006568Y004936D01*
X010418Y004786D02*
X010568Y004786D01*
X010568Y004936D01*
X012068Y003936D02*
X012068Y003636D01*
X014918Y004536D02*
X015218Y004536D01*
M02*
