%
M48
M72
T01C0.0236
T02C0.0400
%
T01
X6518Y4586
X7818Y5436
X8418Y5636
X8868Y5236
X10768Y4786
X13018Y3536
X16818Y6336
X17168Y6786
X16818Y7286
X10068Y6786
X9818Y8386
X7318Y8386
X6968Y7086
X4218Y5436
X5468Y9286
X2568Y9836
T02
X1568Y1286
X2568Y1286
X3568Y1286
X4568Y1286
X5568Y1286
X6568Y1286
X7568Y1286
X8568Y1286
X9568Y1286
X10568Y1286
X11568Y1286
X12568Y1286
X13568Y1286
X14568Y1286
X15568Y1286
X16568Y1286
X17568Y1286
X16568Y2236
X15568Y2336
X14568Y2236
X13568Y2336
X12568Y2236
X11568Y2336
X10568Y2236
X9568Y2336
X8568Y2236
X7568Y2336
X6568Y2236
X5568Y2336
X4568Y2236
X3568Y2336
X2568Y2236
X1568Y2336
X2568Y4036
X3568Y4036
X3568Y11236
X4568Y11336
X5568Y11236
X6568Y11336
X7568Y11236
X8568Y11336
X9568Y11236
X10568Y11336
X11568Y11236
X12568Y11336
X13568Y11236
X14568Y11336
X15568Y11236
X16568Y11336
X17568Y11236
X17568Y12286
X16568Y12286
X15568Y12286
X14568Y12286
X13568Y12286
X12568Y12286
X11568Y12286
X10568Y12286
X9568Y12286
X8568Y12286
X7568Y12286
X6568Y12286
X5568Y12286
X4568Y12286
X3568Y12286
X2568Y12286
X1568Y12286
X2568Y11336
X1568Y11236
X17568Y2336
M30
