G75*
G70*
%OFA0B0*%
%FSLAX24Y24*%
%IPPOS*%
%LPD*%
%AMOC8*
5,1,8,0,0,1.08239X$1,22.5*
%
%ADD10C,0.0080*%
%ADD11R,0.0394X0.0433*%
%ADD12R,0.0433X0.0394*%
%ADD13R,0.0700X0.2000*%
%ADD14R,0.0787X0.0138*%
%ADD15R,0.0748X0.0709*%
%ADD16R,0.0630X0.0827*%
%ADD17R,0.0580X0.0200*%
%ADD18R,0.0200X0.0580*%
%ADD19R,0.0640X0.0640*%
%ADD20C,0.0640*%
%ADD21C,0.0100*%
%ADD22C,0.0436*%
D10*
X003068Y002036D02*
X003318Y001786D01*
X007818Y001786D01*
X008068Y002036D01*
X008068Y002786D01*
X007318Y003536D01*
X007318Y004566D01*
X007308Y004576D01*
X006998Y004576D02*
X006998Y003406D01*
X007568Y002836D01*
X007568Y002336D01*
X006568Y002236D02*
X006068Y002736D01*
X006068Y005136D01*
X006148Y005216D01*
X006358Y005216D01*
X006358Y005526D02*
X005958Y005526D01*
X005868Y005436D01*
X005868Y003736D01*
X005568Y003436D01*
X005568Y002336D01*
X004568Y002236D02*
X004568Y002786D01*
X005668Y003886D01*
X005668Y005586D01*
X005928Y005846D01*
X006358Y005846D01*
X006358Y006156D02*
X005888Y006156D01*
X005468Y005736D01*
X005468Y004036D01*
X003768Y002336D01*
X003568Y002336D01*
X003068Y002036D02*
X003068Y003536D01*
X003568Y004036D01*
X008568Y002736D02*
X008568Y002236D01*
X008568Y002736D02*
X008878Y003046D01*
X008878Y004576D01*
X009198Y004576D02*
X009198Y003156D01*
X009568Y002786D01*
X009568Y002336D01*
X010568Y002236D02*
X010568Y002786D01*
X009508Y003846D01*
X009508Y004576D01*
X009828Y004576D02*
X009828Y003876D01*
X010718Y002986D01*
X011368Y002986D01*
X011568Y002786D01*
X011568Y002336D01*
X012018Y002986D02*
X012768Y002986D01*
X012968Y002786D01*
X013118Y002786D01*
X013568Y002336D01*
X013918Y001836D02*
X014068Y001986D01*
X014068Y003086D01*
X011308Y005846D01*
X010778Y005846D01*
X010778Y006156D02*
X011348Y006156D01*
X014568Y002936D01*
X014568Y002236D01*
X013918Y001836D02*
X012968Y001836D01*
X012568Y002236D01*
X012018Y002986D02*
X011768Y003236D01*
X010818Y003236D01*
X010138Y003916D01*
X010138Y004576D01*
X012440Y005651D02*
X012440Y005745D01*
X012487Y005792D01*
X012676Y005792D01*
X012723Y005839D01*
X012723Y005934D01*
X012628Y005934D01*
X012581Y005886D01*
X012581Y005509D01*
X012487Y005603D02*
X012440Y005651D01*
X012487Y005603D02*
X012676Y005603D01*
X012847Y005527D02*
X013035Y005338D01*
X013082Y005385D02*
X012894Y005196D01*
X013018Y005073D02*
X013301Y005356D01*
X013442Y005214D01*
X013442Y005120D01*
X013348Y005025D01*
X013253Y005025D01*
X013112Y005167D01*
X013082Y005385D02*
X013082Y005574D01*
X012894Y005574D01*
X012705Y005385D01*
X013341Y005929D02*
X013461Y005929D01*
X013501Y005969D01*
X013501Y006129D01*
X013461Y006169D01*
X013341Y006169D01*
X013341Y005929D01*
X013701Y005929D02*
X013701Y006169D01*
X013861Y006169D01*
X013781Y006049D02*
X013701Y006049D01*
X013701Y005929D02*
X013861Y005929D01*
X014071Y005969D02*
X014111Y005929D01*
X014191Y005929D01*
X014231Y005969D01*
X014231Y006009D01*
X014191Y006049D01*
X014111Y006049D01*
X014071Y006089D01*
X014071Y006129D01*
X014111Y006169D01*
X014191Y006169D01*
X014231Y006129D01*
X014441Y006169D02*
X014441Y005929D01*
X014691Y005969D02*
X014731Y005929D01*
X014811Y005929D01*
X014851Y005969D01*
X014851Y006049D01*
X014771Y006049D01*
X014851Y006129D02*
X014811Y006169D01*
X014731Y006169D01*
X014691Y006129D01*
X014691Y005969D01*
X015081Y005929D02*
X015081Y006169D01*
X015241Y005929D01*
X015241Y006169D01*
X015283Y006331D02*
X012143Y006331D01*
X012133Y006501D02*
X012183Y006501D01*
X012183Y006961D01*
X012133Y006961D01*
X012133Y006751D01*
X012593Y006751D01*
X012593Y006961D02*
X012243Y006961D01*
X012243Y006501D01*
X012183Y006501D01*
X012133Y006501D02*
X012133Y006751D01*
X012183Y006961D02*
X012243Y006961D01*
X012463Y007421D02*
X013573Y008031D01*
X013443Y008251D02*
X013723Y008251D01*
X013713Y009471D01*
X014493Y008251D01*
X014443Y008181D01*
X014883Y007401D01*
X013453Y007321D01*
X013393Y007401D01*
X012463Y007421D01*
X013173Y008721D01*
X013253Y008721D01*
X013713Y009471D01*
X013173Y008721D02*
X013703Y007801D01*
X013843Y008011D02*
X014873Y007401D01*
X014953Y006981D02*
X015033Y006981D01*
X015053Y006981D01*
X015033Y006981D02*
X015123Y006971D01*
X015243Y006921D01*
X015183Y006731D02*
X015083Y006761D01*
X014953Y006791D01*
X014893Y006841D01*
X014883Y006861D01*
X014903Y006911D01*
X014953Y006951D01*
X015033Y006981D01*
X014953Y006981D02*
X014853Y006951D01*
X014783Y006911D01*
X014783Y006821D01*
X014843Y006781D01*
X014843Y006821D01*
X014833Y006901D01*
X014843Y006781D02*
X014973Y006751D01*
X015123Y006701D01*
X015173Y006651D01*
X015173Y006571D01*
X015093Y006511D01*
X015063Y006501D02*
X015163Y006511D01*
X015243Y006541D01*
X015213Y006541D01*
X015213Y006561D01*
X015223Y006661D01*
X015253Y006701D02*
X015183Y006731D01*
X015253Y006701D02*
X015293Y006641D01*
X015293Y006601D01*
X015243Y006541D01*
X015063Y006501D02*
X014943Y006501D01*
X014863Y006521D01*
X014803Y006551D01*
X014623Y006951D02*
X014363Y006761D01*
X014363Y006721D01*
X014363Y006511D01*
X014263Y006511D01*
X014263Y006721D01*
X014003Y006941D01*
X014123Y006941D01*
X014331Y006751D01*
X014323Y006751D01*
X014323Y006731D01*
X014313Y006541D01*
X014363Y006721D02*
X014331Y006751D01*
X013883Y006631D02*
X013843Y006691D01*
X013773Y006721D01*
X013673Y006751D01*
X013543Y006781D01*
X013483Y006831D01*
X013473Y006851D01*
X013493Y006901D01*
X013543Y006941D01*
X013623Y006971D01*
X013643Y006969D01*
X013643Y006969D01*
X013713Y006961D01*
X013833Y006911D01*
X013643Y006969D02*
X013643Y006971D01*
X013543Y006971D01*
X013443Y006941D01*
X013373Y006901D01*
X013373Y006811D01*
X013403Y006791D01*
X013433Y006791D01*
X013433Y006811D01*
X013423Y006891D01*
X013403Y006791D02*
X013433Y006771D01*
X013563Y006741D01*
X013713Y006691D01*
X013763Y006641D01*
X013763Y006561D01*
X013683Y006501D01*
X013653Y006491D02*
X013753Y006501D01*
X013833Y006531D01*
X013833Y006551D01*
X013803Y006551D01*
X013813Y006651D01*
X013883Y006631D02*
X013883Y006591D01*
X013833Y006531D01*
X013653Y006491D02*
X013533Y006491D01*
X013453Y006511D01*
X013393Y006541D01*
X013233Y006501D02*
X012883Y006501D01*
X012833Y006501D01*
X012833Y006961D01*
X012883Y006961D01*
X012883Y006501D01*
X012833Y006501D02*
X012783Y006501D01*
X012783Y006961D01*
X012833Y006961D01*
X013453Y007321D02*
X013843Y008011D01*
X013973Y008241D01*
X013723Y008251D02*
X014493Y008251D01*
X015068Y008701D02*
X016818Y008701D01*
X016818Y008686D01*
X014668Y010336D02*
X015568Y011236D01*
X014568Y011336D02*
X013768Y010536D01*
X012668Y010536D01*
X011968Y009836D01*
X011968Y007736D01*
X011328Y007096D01*
X010778Y007096D01*
X010778Y007416D02*
X011298Y007416D01*
X011768Y007886D01*
X011768Y009986D01*
X012518Y010736D01*
X013068Y010736D01*
X013568Y011236D01*
X012568Y011136D02*
X012568Y011336D01*
X012568Y011136D02*
X011568Y010136D01*
X011568Y008036D01*
X011258Y007726D01*
X010778Y007726D01*
X010778Y008046D02*
X011228Y008046D01*
X011368Y008186D01*
X011368Y010886D01*
X011568Y011086D01*
X011568Y011236D01*
X010778Y011126D02*
X010568Y011336D01*
X010778Y011126D02*
X010778Y008356D01*
X009508Y008996D02*
X009508Y011176D01*
X009568Y011236D01*
X009198Y010706D02*
X008568Y011336D01*
X009198Y010706D02*
X009198Y008996D01*
X008878Y008996D02*
X008878Y009676D01*
X007568Y010986D01*
X007568Y011236D01*
X007568Y010636D02*
X007268Y010636D01*
X006568Y011336D01*
X007568Y010636D02*
X008568Y009636D01*
X008568Y008996D01*
X008258Y008996D02*
X008258Y009596D01*
X007868Y009986D01*
X006268Y009986D01*
X005568Y010686D01*
X005568Y011236D01*
X004768Y010786D02*
X004018Y010786D01*
X003568Y011236D01*
X004568Y011336D02*
X006118Y009786D01*
X007718Y009786D01*
X007938Y009566D01*
X007938Y008996D01*
X006358Y009196D02*
X006358Y008356D01*
X006358Y009196D02*
X004768Y010786D01*
X010778Y006786D02*
X011368Y006786D01*
X012168Y007586D01*
X012168Y009686D01*
X012818Y010336D01*
X014668Y010336D01*
X012593Y006501D02*
X012243Y006501D01*
X011378Y006476D02*
X015518Y002336D01*
X015568Y002336D01*
X014769Y003321D02*
X014910Y003463D01*
X014910Y003557D01*
X014816Y003557D01*
X014674Y003416D01*
X014580Y003510D02*
X014769Y003699D01*
X014816Y003652D01*
X014816Y003557D01*
X014598Y003775D02*
X014598Y003870D01*
X014503Y003964D01*
X014409Y003870D02*
X014550Y003728D01*
X014598Y003775D02*
X014456Y003634D01*
X014315Y003775D01*
X014315Y003870D01*
X014409Y003870D01*
X014238Y004041D02*
X014049Y004229D01*
X014002Y004182D02*
X014096Y004277D01*
X014191Y004277D01*
X014285Y004182D01*
X014285Y004088D01*
X014238Y004041D01*
X014096Y003994D02*
X014002Y004088D01*
X014002Y004182D01*
X013737Y004353D02*
X014020Y004636D01*
X014114Y004542D02*
X013926Y004731D01*
X013755Y004807D02*
X013707Y004760D01*
X013613Y004760D01*
X013471Y004902D01*
X013330Y004760D02*
X013471Y004619D01*
X013566Y004619D01*
X013613Y004666D01*
X013613Y004760D01*
X013755Y004807D02*
X013755Y004902D01*
X013613Y005043D01*
X013330Y004760D01*
X015068Y004871D02*
X016818Y004871D01*
X016818Y004886D01*
X011378Y006476D02*
X010778Y006476D01*
D11*
X015068Y004871D03*
X015068Y004201D03*
X015068Y008701D03*
X015068Y009371D03*
X004903Y007286D03*
X004234Y007286D03*
X004234Y006286D03*
X004903Y006286D03*
D12*
X004903Y004786D03*
X004234Y004786D03*
X004234Y008786D03*
X004903Y008786D03*
X004903Y009786D03*
X004234Y009786D03*
X011734Y003786D03*
X012403Y003786D03*
D13*
X016818Y004886D03*
X016818Y008686D03*
D14*
X002722Y007304D03*
X002722Y007048D03*
X002722Y006792D03*
X002722Y006536D03*
X002722Y006280D03*
D15*
X001560Y005217D03*
X001560Y008367D03*
D16*
X002564Y008013D03*
X002564Y005572D03*
D17*
X006358Y005526D03*
X006358Y005216D03*
X006358Y005846D03*
X006358Y006156D03*
X006358Y006476D03*
X006358Y006786D03*
X006358Y007096D03*
X006358Y007416D03*
X006358Y007726D03*
X006358Y008046D03*
X006358Y008356D03*
X010778Y008356D03*
X010778Y008046D03*
X010778Y007726D03*
X010778Y007416D03*
X010778Y007096D03*
X010778Y006786D03*
X010778Y006476D03*
X010778Y006156D03*
X010778Y005846D03*
X010778Y005526D03*
X010778Y005216D03*
D18*
X010138Y004576D03*
X009828Y004576D03*
X009508Y004576D03*
X009198Y004576D03*
X008878Y004576D03*
X008568Y004576D03*
X008258Y004576D03*
X007938Y004576D03*
X007628Y004576D03*
X007308Y004576D03*
X006998Y004576D03*
X006998Y008996D03*
X007308Y008996D03*
X007628Y008996D03*
X007938Y008996D03*
X008258Y008996D03*
X008568Y008996D03*
X008878Y008996D03*
X009198Y008996D03*
X009508Y008996D03*
X009828Y008996D03*
X010138Y008996D03*
D19*
X001568Y011236D03*
X017568Y002336D03*
D20*
X016568Y002236D03*
X015568Y002336D03*
X014568Y002236D03*
X013568Y002336D03*
X012568Y002236D03*
X011568Y002336D03*
X010568Y002236D03*
X009568Y002336D03*
X008568Y002236D03*
X007568Y002336D03*
X006568Y002236D03*
X005568Y002336D03*
X004568Y002236D03*
X003568Y002336D03*
X002568Y002236D03*
X001568Y002336D03*
X001568Y001286D03*
X002568Y001286D03*
X003568Y001286D03*
X004568Y001286D03*
X005568Y001286D03*
X006568Y001286D03*
X007568Y001286D03*
X008568Y001286D03*
X009568Y001286D03*
X010568Y001286D03*
X011568Y001286D03*
X012568Y001286D03*
X013568Y001286D03*
X014568Y001286D03*
X015568Y001286D03*
X016568Y001286D03*
X017568Y001286D03*
X017568Y011236D03*
X016568Y011336D03*
X015568Y011236D03*
X014568Y011336D03*
X013568Y011236D03*
X012568Y011336D03*
X011568Y011236D03*
X010568Y011336D03*
X009568Y011236D03*
X008568Y011336D03*
X007568Y011236D03*
X006568Y011336D03*
X005568Y011236D03*
X004568Y011336D03*
X003568Y011236D03*
X002568Y011336D03*
X002568Y012286D03*
X001568Y012286D03*
X003568Y012286D03*
X004568Y012286D03*
X005568Y012286D03*
X006568Y012286D03*
X007568Y012286D03*
X008568Y012286D03*
X009568Y012286D03*
X010568Y012286D03*
X011568Y012286D03*
X012568Y012286D03*
X013568Y012286D03*
X014568Y012286D03*
X015568Y012286D03*
X016568Y012286D03*
X017568Y012286D03*
X003568Y004036D03*
X002568Y004036D03*
D21*
X001518Y001754D02*
X001518Y001336D01*
X001618Y001336D01*
X001618Y001754D01*
X001678Y001745D01*
X001749Y001722D01*
X001815Y001688D01*
X001874Y001645D01*
X001927Y001592D01*
X001970Y001532D01*
X002004Y001467D01*
X002027Y001396D01*
X002036Y001336D01*
X001619Y001336D01*
X001619Y001236D01*
X002036Y001236D01*
X002027Y001176D01*
X002004Y001106D01*
X001970Y001040D01*
X001927Y000980D01*
X001883Y000936D01*
X002254Y000936D01*
X002210Y000980D01*
X002166Y001040D01*
X002133Y001106D01*
X002110Y001176D01*
X002100Y001236D01*
X002518Y001236D01*
X002518Y001336D01*
X002100Y001336D01*
X002110Y001396D01*
X002133Y001467D01*
X002166Y001532D01*
X002210Y001592D01*
X002262Y001645D01*
X002322Y001688D01*
X002388Y001722D01*
X002458Y001745D01*
X002518Y001754D01*
X002518Y001336D01*
X002618Y001336D01*
X002618Y001754D01*
X002678Y001745D01*
X002749Y001722D01*
X002815Y001688D01*
X002874Y001645D01*
X002927Y001592D01*
X002970Y001532D01*
X003004Y001467D01*
X003027Y001396D01*
X003036Y001336D01*
X002619Y001336D01*
X002619Y001236D01*
X003036Y001236D01*
X003027Y001176D01*
X003004Y001106D01*
X002970Y001040D01*
X002927Y000980D01*
X002883Y000936D01*
X003254Y000936D01*
X003210Y000980D01*
X003166Y001040D01*
X003133Y001106D01*
X003110Y001176D01*
X003100Y001236D01*
X003518Y001236D01*
X003518Y001336D01*
X003100Y001336D01*
X003110Y001396D01*
X003133Y001467D01*
X003166Y001532D01*
X003210Y001592D01*
X003227Y001609D01*
X003128Y001707D01*
X002916Y001919D01*
X002835Y001838D01*
X002662Y001766D01*
X002475Y001766D01*
X002302Y001838D01*
X002170Y001970D01*
X002098Y002143D01*
X002098Y002330D01*
X002170Y002502D01*
X002302Y002635D01*
X002475Y002706D01*
X002662Y002706D01*
X002835Y002635D01*
X002878Y002591D01*
X002878Y003615D01*
X002990Y003726D01*
X003130Y003866D01*
X003098Y003943D01*
X003098Y004130D01*
X003170Y004302D01*
X003302Y004435D01*
X003475Y004506D01*
X003662Y004506D01*
X003835Y004435D01*
X003967Y004302D01*
X004038Y004130D01*
X004038Y003943D01*
X003967Y003770D01*
X003835Y003638D01*
X003662Y003566D01*
X003475Y003566D01*
X003399Y003598D01*
X003258Y003457D01*
X003258Y002691D01*
X003302Y002735D01*
X003475Y002806D01*
X003662Y002806D01*
X003835Y002735D01*
X003866Y002703D01*
X005278Y004115D01*
X005278Y004863D01*
X005269Y004854D01*
X005269Y004527D01*
X005182Y004439D01*
X004624Y004439D01*
X004568Y004495D01*
X004542Y004469D01*
X004508Y004450D01*
X004470Y004439D01*
X004282Y004439D01*
X004282Y004737D01*
X004185Y004737D01*
X004185Y004439D01*
X003997Y004439D01*
X003959Y004450D01*
X003925Y004469D01*
X003897Y004497D01*
X003877Y004531D01*
X003867Y004570D01*
X003867Y004738D01*
X004185Y004738D01*
X004185Y004835D01*
X004185Y005133D01*
X003997Y005133D01*
X003959Y005123D01*
X003925Y005103D01*
X003897Y005075D01*
X003877Y005041D01*
X003867Y005003D01*
X003867Y004835D01*
X004185Y004835D01*
X004282Y004835D01*
X004282Y005133D01*
X004470Y005133D01*
X004508Y005123D01*
X004542Y005103D01*
X004568Y005077D01*
X004624Y005133D01*
X004982Y005133D01*
X005018Y005169D01*
X005018Y005753D01*
X005018Y005919D01*
X005019Y005920D01*
X004644Y005920D01*
X004568Y005995D01*
X004493Y005920D01*
X003975Y005920D01*
X003887Y006007D01*
X003887Y006350D01*
X003645Y006592D01*
X003266Y006592D01*
X003266Y006405D01*
X003258Y006397D01*
X003266Y006369D01*
X003266Y006280D01*
X002722Y006280D01*
X003424Y006280D01*
X003668Y006036D01*
X003668Y004836D01*
X003718Y004786D01*
X004234Y004786D01*
X004234Y005421D01*
X004218Y005436D01*
X004185Y005122D02*
X004282Y005122D01*
X004282Y005024D02*
X004185Y005024D01*
X004185Y004925D02*
X004282Y004925D01*
X004185Y004826D02*
X002084Y004826D01*
X002084Y004801D02*
X002084Y005436D01*
X002099Y005436D01*
X002099Y005096D01*
X002187Y005008D01*
X002941Y005008D01*
X003029Y005096D01*
X003029Y006047D01*
X003015Y006061D01*
X003135Y006061D01*
X003173Y006072D01*
X003208Y006091D01*
X003236Y006119D01*
X003255Y006153D01*
X003266Y006192D01*
X003266Y006280D01*
X002722Y006280D01*
X002722Y006280D01*
X003029Y006009D02*
X003887Y006009D01*
X003887Y006107D02*
X003224Y006107D01*
X003266Y006206D02*
X003887Y006206D01*
X003887Y006305D02*
X003266Y006305D01*
X003264Y006403D02*
X003834Y006403D01*
X003735Y006502D02*
X003266Y006502D01*
X003728Y006792D02*
X002722Y006792D01*
X002722Y007048D02*
X003630Y007048D01*
X003868Y007286D01*
X004234Y007286D01*
X003728Y006792D02*
X004234Y006286D01*
X004903Y006286D02*
X004918Y006286D01*
X006018Y007386D01*
X006328Y007386D01*
X006358Y007416D01*
X006358Y007726D02*
X005908Y007726D01*
X005468Y007286D01*
X004903Y007286D01*
X005618Y006536D02*
X005868Y006786D01*
X006358Y006786D01*
X006368Y006486D02*
X006358Y006476D01*
X006368Y006486D02*
X007168Y006486D01*
X007168Y006086D01*
X007218Y006036D01*
X008818Y006036D01*
X009328Y005526D01*
X010778Y005526D01*
X011278Y005526D01*
X012718Y004086D01*
X012418Y003786D01*
X012403Y003786D01*
X012660Y003439D02*
X012124Y003439D01*
X012068Y003495D01*
X012042Y003469D01*
X012008Y003450D01*
X011970Y003439D01*
X011782Y003439D01*
X011782Y003737D01*
X011685Y003737D01*
X011685Y003439D01*
X011497Y003439D01*
X011459Y003450D01*
X011425Y003469D01*
X011397Y003497D01*
X011377Y003531D01*
X011367Y003570D01*
X011367Y003738D01*
X011685Y003738D01*
X011685Y003835D01*
X011685Y004133D01*
X011497Y004133D01*
X011459Y004123D01*
X011425Y004103D01*
X011397Y004075D01*
X011377Y004041D01*
X011367Y004003D01*
X011367Y003835D01*
X011685Y003835D01*
X011782Y003835D01*
X011782Y004133D01*
X011970Y004133D01*
X012008Y004123D01*
X012042Y004103D01*
X012068Y004077D01*
X012124Y004133D01*
X012389Y004133D01*
X011218Y005303D01*
X011218Y005216D01*
X010779Y005216D01*
X010779Y005216D01*
X011218Y005216D01*
X011218Y005096D01*
X011208Y005058D01*
X011188Y005024D01*
X011160Y004996D01*
X011126Y004976D01*
X011088Y004966D01*
X010779Y004966D01*
X010779Y005216D01*
X010778Y005216D01*
X010338Y005216D01*
X010338Y005096D01*
X010349Y005058D01*
X010368Y005024D01*
X010396Y004996D01*
X010430Y004976D01*
X010469Y004966D01*
X010778Y004966D01*
X010778Y005216D01*
X010778Y005216D01*
X010338Y005216D01*
X010338Y005326D01*
X009411Y005326D01*
X009245Y005326D01*
X009218Y005354D01*
X009236Y005309D01*
X009236Y005163D01*
X009180Y005028D01*
X009169Y005016D01*
X009346Y005016D01*
X009666Y005016D01*
X009976Y005016D01*
X010300Y005016D01*
X010388Y004928D01*
X010388Y004224D01*
X010328Y004164D01*
X010328Y003995D01*
X010897Y003426D01*
X011690Y003426D01*
X011847Y003426D01*
X012097Y003176D01*
X012690Y003176D01*
X012847Y003176D01*
X013047Y002976D01*
X013197Y002976D01*
X013399Y002775D01*
X013475Y002806D01*
X013662Y002806D01*
X013835Y002735D01*
X013878Y002691D01*
X013878Y003007D01*
X013386Y003499D01*
X013386Y003463D01*
X013330Y003328D01*
X013227Y003224D01*
X013092Y003168D01*
X012945Y003168D01*
X012810Y003224D01*
X012706Y003328D01*
X012660Y003439D01*
X012698Y003348D02*
X011925Y003348D01*
X011998Y003447D02*
X012117Y003447D01*
X012023Y003250D02*
X012784Y003250D01*
X012872Y003151D02*
X013735Y003151D01*
X013833Y003053D02*
X012971Y003053D01*
X013219Y002954D02*
X013878Y002954D01*
X013878Y002856D02*
X013318Y002856D01*
X013040Y002596D02*
X013130Y002506D01*
X013098Y002430D01*
X013098Y002243D01*
X013170Y002070D01*
X013214Y002026D01*
X013047Y002026D01*
X013007Y002066D01*
X013038Y002143D01*
X013038Y002330D01*
X012967Y002502D01*
X012835Y002635D01*
X012662Y002706D01*
X012475Y002706D01*
X012302Y002635D01*
X012170Y002502D01*
X012098Y002330D01*
X012098Y002143D01*
X012170Y001970D01*
X012302Y001838D01*
X012475Y001766D01*
X012662Y001766D01*
X012738Y001798D01*
X012778Y001757D01*
X012890Y001646D01*
X013264Y001646D01*
X013262Y001645D01*
X013210Y001592D01*
X013166Y001532D01*
X013133Y001467D01*
X013110Y001396D01*
X013100Y001336D01*
X013518Y001336D01*
X013518Y001236D01*
X013100Y001236D01*
X013110Y001176D01*
X013133Y001106D01*
X013166Y001040D01*
X013210Y000980D01*
X013254Y000936D01*
X012883Y000936D01*
X012927Y000980D01*
X012970Y001040D01*
X013004Y001106D01*
X013027Y001176D01*
X013036Y001236D01*
X012619Y001236D01*
X012619Y001336D01*
X013036Y001336D01*
X013027Y001396D01*
X013004Y001467D01*
X012970Y001532D01*
X012927Y001592D01*
X012874Y001645D01*
X012815Y001688D01*
X012749Y001722D01*
X012678Y001745D01*
X012618Y001754D01*
X012618Y001336D01*
X012518Y001336D01*
X012518Y001236D01*
X012100Y001236D01*
X012110Y001176D01*
X012133Y001106D01*
X012166Y001040D01*
X012210Y000980D01*
X012254Y000936D01*
X011883Y000936D01*
X011927Y000980D01*
X011970Y001040D01*
X012004Y001106D01*
X012027Y001176D01*
X012036Y001236D01*
X011619Y001236D01*
X011619Y001336D01*
X012036Y001336D01*
X012027Y001396D01*
X012004Y001467D01*
X011970Y001532D01*
X011927Y001592D01*
X011874Y001645D01*
X011815Y001688D01*
X011749Y001722D01*
X011678Y001745D01*
X011618Y001754D01*
X011618Y001336D01*
X011518Y001336D01*
X011518Y001236D01*
X011100Y001236D01*
X011110Y001176D01*
X011133Y001106D01*
X011166Y001040D01*
X011210Y000980D01*
X011254Y000936D01*
X010883Y000936D01*
X010927Y000980D01*
X010970Y001040D01*
X011004Y001106D01*
X011027Y001176D01*
X011036Y001236D01*
X010619Y001236D01*
X010619Y001336D01*
X011036Y001336D01*
X011027Y001396D01*
X011004Y001467D01*
X010970Y001532D01*
X010927Y001592D01*
X010874Y001645D01*
X010815Y001688D01*
X010749Y001722D01*
X010678Y001745D01*
X010618Y001754D01*
X010618Y001336D01*
X010518Y001336D01*
X010518Y001236D01*
X010100Y001236D01*
X010110Y001176D01*
X010133Y001106D01*
X010166Y001040D01*
X010210Y000980D01*
X010254Y000936D01*
X009883Y000936D01*
X009927Y000980D01*
X009970Y001040D01*
X010004Y001106D01*
X010027Y001176D01*
X010036Y001236D01*
X009619Y001236D01*
X009619Y001336D01*
X010036Y001336D01*
X010027Y001396D01*
X010004Y001467D01*
X009970Y001532D01*
X009927Y001592D01*
X009874Y001645D01*
X009815Y001688D01*
X009749Y001722D01*
X009678Y001745D01*
X009618Y001754D01*
X009618Y001336D01*
X009518Y001336D01*
X009518Y001236D01*
X009100Y001236D01*
X009110Y001176D01*
X009133Y001106D01*
X009166Y001040D01*
X009210Y000980D01*
X009254Y000936D01*
X008883Y000936D01*
X008927Y000980D01*
X008970Y001040D01*
X009004Y001106D01*
X009027Y001176D01*
X009036Y001236D01*
X008619Y001236D01*
X008619Y001336D01*
X009036Y001336D01*
X009027Y001396D01*
X009004Y001467D01*
X008970Y001532D01*
X008927Y001592D01*
X008874Y001645D01*
X008815Y001688D01*
X008749Y001722D01*
X008678Y001745D01*
X008618Y001754D01*
X008618Y001336D01*
X008518Y001336D01*
X008518Y001236D01*
X008100Y001236D01*
X008110Y001176D01*
X008133Y001106D01*
X008166Y001040D01*
X008210Y000980D01*
X008254Y000936D01*
X007883Y000936D01*
X007927Y000980D01*
X007970Y001040D01*
X008004Y001106D01*
X008027Y001176D01*
X008036Y001236D01*
X007619Y001236D01*
X007619Y001336D01*
X008036Y001336D01*
X008027Y001396D01*
X008004Y001467D01*
X007970Y001532D01*
X007927Y001592D01*
X007910Y001609D01*
X008147Y001846D01*
X008220Y001919D01*
X008302Y001838D01*
X008475Y001766D01*
X008662Y001766D01*
X008835Y001838D01*
X008967Y001970D01*
X009038Y002143D01*
X009038Y002330D01*
X008967Y002502D01*
X008835Y002635D01*
X008764Y002664D01*
X009068Y002967D01*
X009068Y003017D01*
X009337Y002749D01*
X009302Y002735D01*
X009170Y002602D01*
X009098Y002430D01*
X009098Y002243D01*
X009170Y002070D01*
X009302Y001938D01*
X009475Y001866D01*
X009662Y001866D01*
X009835Y001938D01*
X009967Y002070D01*
X010038Y002243D01*
X010038Y002430D01*
X009967Y002602D01*
X009835Y002735D01*
X009758Y002766D01*
X009758Y002865D01*
X009647Y002976D01*
X009388Y003235D01*
X009388Y003697D01*
X010378Y002707D01*
X010378Y002666D01*
X010302Y002635D01*
X010170Y002502D01*
X010098Y002330D01*
X010098Y002143D01*
X010170Y001970D01*
X010302Y001838D01*
X010475Y001766D01*
X010662Y001766D01*
X010835Y001838D01*
X010967Y001970D01*
X011038Y002143D01*
X011038Y002330D01*
X010967Y002502D01*
X010835Y002635D01*
X010758Y002666D01*
X010758Y002796D01*
X011290Y002796D01*
X011337Y002749D01*
X011302Y002735D01*
X011170Y002602D01*
X011098Y002430D01*
X011098Y002243D01*
X011170Y002070D01*
X011302Y001938D01*
X011475Y001866D01*
X011662Y001866D01*
X011835Y001938D01*
X011967Y002070D01*
X012038Y002243D01*
X012038Y002430D01*
X011967Y002602D01*
X011835Y002735D01*
X011758Y002766D01*
X011758Y002865D01*
X011647Y002976D01*
X011577Y003046D01*
X011690Y003046D01*
X011828Y002907D01*
X011940Y002796D01*
X012690Y002796D01*
X012778Y002707D01*
X012890Y002596D01*
X013040Y002596D01*
X013076Y002560D02*
X012909Y002560D01*
X012984Y002461D02*
X013112Y002461D01*
X013098Y002363D02*
X013025Y002363D01*
X013038Y002264D02*
X013098Y002264D01*
X013130Y002166D02*
X013038Y002166D01*
X013007Y002067D02*
X013173Y002067D01*
X012764Y001772D02*
X012675Y001772D01*
X012618Y001673D02*
X012518Y001673D01*
X012518Y001754D02*
X012458Y001745D01*
X012388Y001722D01*
X012322Y001688D01*
X012262Y001645D01*
X012210Y001592D01*
X012166Y001532D01*
X012133Y001467D01*
X012110Y001396D01*
X012100Y001336D01*
X012518Y001336D01*
X012518Y001754D01*
X012462Y001772D02*
X010675Y001772D01*
X010618Y001673D02*
X010518Y001673D01*
X010518Y001754D02*
X010458Y001745D01*
X010388Y001722D01*
X010322Y001688D01*
X010262Y001645D01*
X010210Y001592D01*
X010166Y001532D01*
X010133Y001467D01*
X010110Y001396D01*
X010100Y001336D01*
X010518Y001336D01*
X010518Y001754D01*
X010462Y001772D02*
X008675Y001772D01*
X008618Y001673D02*
X008518Y001673D01*
X008518Y001754D02*
X008458Y001745D01*
X008388Y001722D01*
X008322Y001688D01*
X008262Y001645D01*
X008210Y001592D01*
X008166Y001532D01*
X008133Y001467D01*
X008110Y001396D01*
X008100Y001336D01*
X008518Y001336D01*
X008518Y001754D01*
X008462Y001772D02*
X008072Y001772D01*
X007974Y001673D02*
X008301Y001673D01*
X008197Y001574D02*
X007940Y001574D01*
X007999Y001476D02*
X008138Y001476D01*
X008107Y001377D02*
X008030Y001377D01*
X008027Y001180D02*
X008109Y001180D01*
X008145Y001082D02*
X007992Y001082D01*
X007929Y000983D02*
X008207Y000983D01*
X008518Y001279D02*
X007619Y001279D01*
X007568Y001286D02*
X008568Y001286D01*
X009568Y001286D01*
X010568Y001286D01*
X011568Y001286D01*
X012568Y001286D01*
X013568Y001286D01*
X014568Y001286D01*
X015568Y001286D01*
X016568Y001286D01*
X017568Y001286D01*
X017568Y002336D01*
X017568Y003536D01*
X015318Y003536D01*
X015068Y003786D01*
X015068Y004201D01*
X015020Y004235D02*
X014475Y004235D01*
X014475Y004261D02*
X014381Y004355D01*
X014381Y004355D01*
X014326Y004410D01*
X014289Y004448D01*
X014304Y004463D01*
X014304Y004621D01*
X014210Y004715D01*
X014099Y004826D01*
X014099Y004826D01*
X014004Y004921D01*
X013945Y004921D01*
X013945Y004980D01*
X013833Y005092D01*
X013692Y005233D01*
X013632Y005233D01*
X013632Y005293D01*
X013521Y005404D01*
X013379Y005546D01*
X013272Y005546D01*
X013272Y005653D01*
X013161Y005764D01*
X013004Y005764D01*
X012913Y005764D01*
X012913Y005840D01*
X012913Y005855D01*
X012913Y005887D01*
X012913Y005918D01*
X012913Y005918D01*
X012913Y005934D01*
X012913Y006012D01*
X012913Y006012D01*
X012913Y006012D01*
X012856Y006069D01*
X012801Y006124D01*
X012717Y006124D01*
X012644Y006124D01*
X012644Y006124D01*
X012634Y006124D01*
X012550Y006124D01*
X012550Y006123D01*
X012496Y006069D01*
X012408Y005982D01*
X012352Y005926D01*
X012275Y005848D01*
X011487Y006636D01*
X012247Y007396D01*
X012263Y007412D01*
X012259Y007399D01*
X012272Y007374D01*
X012272Y007347D01*
X012294Y007323D01*
X012303Y007292D01*
X012324Y007281D01*
X012335Y007261D01*
X012361Y007253D01*
X012381Y007233D01*
X012413Y007232D01*
X012441Y007217D01*
X012464Y007223D01*
X012486Y007217D01*
X012510Y007230D01*
X013286Y007213D01*
X013291Y007194D01*
X013325Y007175D01*
X013349Y007144D01*
X013370Y007141D01*
X013385Y007127D01*
X013386Y007127D01*
X013368Y007117D01*
X013313Y007100D01*
X013308Y007091D01*
X013295Y007091D01*
X013257Y007053D01*
X013211Y007027D01*
X013203Y007000D01*
X013183Y006980D01*
X013183Y006927D01*
X013169Y006875D01*
X013178Y006860D01*
X013172Y006851D01*
X013183Y006792D01*
X013183Y006732D01*
X013198Y006717D01*
X013202Y006697D01*
X013211Y006691D01*
X013073Y006691D01*
X013073Y007040D01*
X012962Y007151D01*
X012912Y007151D01*
X012755Y007151D01*
X012705Y007151D01*
X012688Y007135D01*
X012672Y007151D01*
X012322Y007151D01*
X012262Y007151D01*
X012105Y007151D01*
X012055Y007151D01*
X011943Y007040D01*
X011943Y006830D01*
X011943Y006672D01*
X011943Y006580D01*
X011943Y006422D01*
X011955Y006411D01*
X011953Y006410D01*
X011953Y006252D01*
X012065Y006141D01*
X013151Y006141D01*
X013151Y006090D01*
X013151Y006007D01*
X013151Y005850D01*
X013262Y005739D01*
X013460Y005739D01*
X013539Y005739D01*
X013540Y005739D02*
X013540Y005739D01*
X013580Y005779D01*
X013581Y005780D01*
X013622Y005739D01*
X013940Y005739D01*
X013986Y005785D01*
X014032Y005739D01*
X014190Y005739D01*
X014192Y005739D01*
X014270Y005739D01*
X014310Y005779D01*
X014316Y005785D01*
X014362Y005739D01*
X014520Y005739D01*
X014586Y005805D01*
X014652Y005739D01*
X014810Y005739D01*
X014890Y005739D01*
X014930Y005779D01*
X014946Y005795D01*
X015002Y005739D01*
X015160Y005739D01*
X015161Y005740D01*
X015162Y005739D01*
X015222Y005739D01*
X015281Y005727D01*
X015298Y005739D01*
X015320Y005739D01*
X015362Y005781D01*
X015412Y005814D01*
X015416Y005835D01*
X015431Y005850D01*
X015431Y005910D01*
X015443Y005969D01*
X015431Y005986D01*
X015431Y006210D01*
X015473Y006252D01*
X015473Y006410D01*
X015427Y006456D01*
X015433Y006462D01*
X015433Y006472D01*
X015434Y006473D01*
X015483Y006522D01*
X015483Y006532D01*
X015490Y006540D01*
X015483Y006610D01*
X015483Y006622D01*
X015495Y006681D01*
X015483Y006699D01*
X016732Y006699D01*
X016745Y006704D02*
X016610Y006648D01*
X016506Y006545D01*
X016450Y006409D01*
X016450Y006263D01*
X016506Y006128D01*
X016598Y006036D01*
X016406Y006036D01*
X016318Y005948D01*
X016318Y005061D01*
X015415Y005061D01*
X015415Y005149D01*
X015327Y005237D01*
X014809Y005237D01*
X014721Y005149D01*
X014721Y004592D01*
X014777Y004536D01*
X014751Y004510D01*
X014732Y004476D01*
X014721Y004438D01*
X014721Y004250D01*
X015020Y004250D01*
X015020Y004153D01*
X015117Y004153D01*
X015117Y004250D01*
X015415Y004250D01*
X015415Y004438D01*
X015405Y004476D01*
X015385Y004510D01*
X015359Y004536D01*
X015415Y004592D01*
X015415Y004681D01*
X016318Y004681D01*
X016318Y003824D01*
X016406Y003736D01*
X017230Y003736D01*
X017318Y003824D01*
X017318Y005948D01*
X017230Y006036D01*
X017039Y006036D01*
X017130Y006128D01*
X017186Y006263D01*
X017186Y006409D01*
X017130Y006545D01*
X017027Y006648D01*
X016892Y006704D01*
X016745Y006704D01*
X016905Y006699D02*
X017918Y006699D01*
X017918Y006797D02*
X015419Y006797D01*
X015422Y006790D02*
X015409Y006824D01*
X015449Y006921D01*
X015389Y007066D01*
X015241Y007128D01*
X015223Y007151D01*
X015171Y007157D01*
X015124Y007177D01*
X015110Y007171D01*
X015074Y007171D01*
X015040Y007187D01*
X015009Y007175D01*
X014990Y007177D01*
X014974Y007186D01*
X014925Y007171D01*
X014875Y007171D01*
X014853Y007149D01*
X014851Y007149D01*
X014827Y007155D01*
X014778Y007127D01*
X014739Y007115D01*
X014730Y007127D01*
X014575Y007151D01*
X014353Y006989D01*
X014255Y007078D01*
X014202Y007131D01*
X014197Y007131D01*
X014194Y007134D01*
X014119Y007131D01*
X014073Y007131D01*
X014066Y007137D01*
X013996Y007131D01*
X013925Y007131D01*
X013918Y007125D01*
X013909Y007124D01*
X013885Y007095D01*
X013831Y007118D01*
X013813Y007141D01*
X013761Y007147D01*
X013759Y007148D01*
X014827Y007208D01*
X014844Y007198D01*
X014876Y007206D01*
X014908Y007197D01*
X014938Y007214D01*
X014973Y007216D01*
X014989Y007235D01*
X014997Y007237D01*
X015006Y007252D01*
X015045Y007274D01*
X015054Y007307D01*
X015077Y007333D01*
X015075Y007369D01*
X015077Y007372D01*
X015075Y007380D01*
X015075Y007380D01*
X015087Y007426D01*
X015071Y007456D01*
X015069Y007490D01*
X015040Y007516D01*
X015038Y007524D01*
X015029Y007530D01*
X014672Y008162D01*
X014683Y008172D01*
X014683Y008190D01*
X014694Y008205D01*
X014687Y008246D01*
X014696Y008287D01*
X014683Y008307D01*
X014683Y008330D01*
X014671Y008342D01*
X014668Y008360D01*
X014634Y008384D01*
X013903Y009527D01*
X013903Y009551D01*
X013885Y009568D01*
X013880Y009592D01*
X013850Y009610D01*
X013831Y009640D01*
X013808Y009645D01*
X013790Y009662D01*
X013766Y009662D01*
X013746Y009674D01*
X013712Y009666D01*
X013677Y009674D01*
X013657Y009661D01*
X013633Y009660D01*
X013616Y009643D01*
X013593Y009638D01*
X013574Y009608D01*
X013545Y009589D01*
X013540Y009565D01*
X013523Y009548D01*
X013523Y009524D01*
X013154Y008923D01*
X013147Y008925D01*
X013122Y008911D01*
X013095Y008911D01*
X013073Y008890D01*
X013044Y008881D01*
X013032Y008859D01*
X013010Y008846D01*
X013003Y008820D01*
X012983Y008800D01*
X012983Y008770D01*
X012358Y007625D01*
X012358Y009607D01*
X012897Y010146D01*
X014590Y010146D01*
X014747Y010146D01*
X015399Y010798D01*
X015475Y010766D01*
X015662Y010766D01*
X015835Y010838D01*
X015967Y010970D01*
X016038Y011143D01*
X016038Y011330D01*
X016098Y011330D01*
X016038Y011330D02*
X015967Y011502D01*
X015835Y011635D01*
X015662Y011706D01*
X015475Y011706D01*
X015302Y011635D01*
X015170Y011502D01*
X015098Y011330D01*
X015098Y011143D01*
X015130Y011066D01*
X014590Y010526D01*
X014027Y010526D01*
X014399Y010898D01*
X014475Y010866D01*
X014662Y010866D01*
X014835Y010938D01*
X014967Y011070D01*
X015038Y011243D01*
X015038Y011430D01*
X014967Y011602D01*
X014835Y011735D01*
X014662Y011806D01*
X014475Y011806D01*
X014302Y011735D01*
X014170Y011602D01*
X014098Y011430D01*
X014098Y011243D01*
X014130Y011166D01*
X013990Y011027D01*
X014038Y011143D01*
X014038Y011330D01*
X014098Y011330D01*
X014038Y011330D02*
X013967Y011502D01*
X013835Y011635D01*
X013662Y011706D01*
X013475Y011706D01*
X013302Y011635D01*
X013170Y011502D01*
X013098Y011330D01*
X013098Y011143D01*
X013130Y011066D01*
X012990Y010926D01*
X012807Y010926D01*
X012835Y010938D01*
X012967Y011070D01*
X013038Y011243D01*
X013038Y011430D01*
X012967Y011602D01*
X012835Y011735D01*
X012662Y011806D01*
X012475Y011806D01*
X012302Y011735D01*
X012170Y011602D01*
X012098Y011430D01*
X012098Y011243D01*
X012170Y011070D01*
X012202Y011038D01*
X011558Y010395D01*
X011558Y010766D01*
X011662Y010766D01*
X011835Y010838D01*
X011967Y010970D01*
X012038Y011143D01*
X012038Y011330D01*
X012098Y011330D01*
X012038Y011330D02*
X011967Y011502D01*
X011835Y011635D01*
X011662Y011706D01*
X011475Y011706D01*
X011302Y011635D01*
X011170Y011502D01*
X011098Y011330D01*
X011098Y011143D01*
X011170Y010970D01*
X011178Y010961D01*
X011178Y008558D01*
X011130Y008606D01*
X010968Y008606D01*
X010968Y011074D01*
X011038Y011243D01*
X011038Y011430D01*
X010967Y011602D01*
X010835Y011735D01*
X010662Y011806D01*
X010475Y011806D01*
X010302Y011735D01*
X010170Y011602D01*
X010098Y011430D01*
X010098Y011243D01*
X010170Y011070D01*
X010302Y010938D01*
X010475Y010866D01*
X010588Y010866D01*
X010588Y008606D01*
X010468Y008606D01*
X010468Y008719D01*
X010388Y008799D01*
X010388Y009348D01*
X010300Y009436D01*
X009976Y009436D01*
X009970Y009430D01*
X009948Y009436D01*
X009829Y009436D01*
X009829Y008997D01*
X009828Y008997D01*
X009828Y009436D01*
X009709Y009436D01*
X009698Y009433D01*
X009698Y010781D01*
X009835Y010838D01*
X009967Y010970D01*
X010038Y011143D01*
X010038Y011330D01*
X010098Y011330D01*
X010038Y011330D02*
X009967Y011502D01*
X009835Y011635D01*
X009662Y011706D01*
X009475Y011706D01*
X009302Y011635D01*
X009170Y011502D01*
X009098Y011330D01*
X009098Y011143D01*
X009146Y011027D01*
X009007Y011166D01*
X009038Y011243D01*
X009038Y011430D01*
X008967Y011602D01*
X008835Y011735D01*
X008662Y011806D01*
X008475Y011806D01*
X008302Y011735D01*
X008170Y011602D01*
X008098Y011430D01*
X008098Y011243D01*
X008170Y011070D01*
X008302Y010938D01*
X008475Y010866D01*
X008662Y010866D01*
X008738Y010898D01*
X009008Y010627D01*
X009008Y009815D01*
X007910Y010913D01*
X007967Y010970D01*
X008038Y011143D01*
X008038Y011330D01*
X008098Y011330D01*
X008038Y011330D02*
X007967Y011502D01*
X007835Y011635D01*
X007662Y011706D01*
X007475Y011706D01*
X007302Y011635D01*
X007170Y011502D01*
X007098Y011330D01*
X007098Y011143D01*
X007146Y011027D01*
X007007Y011166D01*
X007038Y011243D01*
X007038Y011430D01*
X006967Y011602D01*
X006835Y011735D01*
X006662Y011806D01*
X006475Y011806D01*
X006302Y011735D01*
X006170Y011602D01*
X006098Y011430D01*
X006098Y011243D01*
X006170Y011070D01*
X006302Y010938D01*
X006475Y010866D01*
X006662Y010866D01*
X006738Y010898D01*
X007190Y010446D01*
X007347Y010446D01*
X007490Y010446D01*
X007760Y010176D01*
X006347Y010176D01*
X005758Y010765D01*
X005758Y010806D01*
X005835Y010838D01*
X005967Y010970D01*
X006038Y011143D01*
X006038Y011330D01*
X006098Y011330D01*
X006038Y011330D02*
X005967Y011502D01*
X005835Y011635D01*
X005662Y011706D01*
X005475Y011706D01*
X005302Y011635D01*
X005170Y011502D01*
X005098Y011330D01*
X005098Y011143D01*
X005146Y011027D01*
X005007Y011166D01*
X005038Y011243D01*
X005038Y011430D01*
X004967Y011602D01*
X004835Y011735D01*
X004662Y011806D01*
X004475Y011806D01*
X004302Y011735D01*
X004170Y011602D01*
X004098Y011430D01*
X004098Y011243D01*
X004170Y011070D01*
X004264Y010976D01*
X004097Y010976D01*
X004007Y011066D01*
X004038Y011143D01*
X004038Y011330D01*
X004098Y011330D01*
X004038Y011330D02*
X003967Y011502D01*
X003835Y011635D01*
X003662Y011706D01*
X003475Y011706D01*
X003302Y011635D01*
X003170Y011502D01*
X003098Y011330D01*
X003098Y011143D01*
X003136Y011051D01*
X003011Y011176D01*
X003038Y011243D01*
X003038Y011430D01*
X002967Y011602D01*
X002835Y011735D01*
X002662Y011806D01*
X002475Y011806D01*
X002302Y011735D01*
X002170Y011602D01*
X002098Y011430D01*
X002098Y011243D01*
X002170Y011070D01*
X002302Y010938D01*
X002475Y010866D01*
X002662Y010866D01*
X002728Y010894D01*
X003867Y009754D01*
X001218Y009754D01*
X001218Y009852D02*
X003769Y009852D01*
X003867Y009754D02*
X003867Y009527D01*
X003955Y009439D01*
X004034Y009439D01*
X004034Y009133D01*
X003955Y009133D01*
X003867Y009045D01*
X003867Y008527D01*
X003955Y008439D01*
X004034Y008439D01*
X004034Y008236D01*
X003735Y008236D01*
X003618Y008119D01*
X003022Y007523D01*
X003015Y007523D01*
X003029Y007537D01*
X003029Y008488D01*
X002941Y008576D01*
X002187Y008576D01*
X002099Y008488D01*
X002099Y008136D01*
X002084Y008136D01*
X002084Y008783D01*
X001997Y008871D01*
X001218Y008871D01*
X001218Y010769D01*
X001229Y010766D01*
X001518Y010766D01*
X001518Y011186D01*
X001618Y011186D01*
X001618Y010766D01*
X001908Y010766D01*
X001946Y010776D01*
X001980Y010796D01*
X002008Y010824D01*
X002028Y010858D01*
X002038Y010896D01*
X002038Y011186D01*
X001619Y011186D01*
X001619Y011286D01*
X002038Y011286D01*
X002038Y011576D01*
X002028Y011614D01*
X002008Y011648D01*
X001980Y011676D01*
X001946Y011696D01*
X001908Y011706D01*
X001618Y011706D01*
X001618Y011286D01*
X001518Y011286D01*
X001518Y011706D01*
X001229Y011706D01*
X001218Y011703D01*
X001218Y011972D01*
X001262Y011928D01*
X001322Y011884D01*
X001388Y011851D01*
X001458Y011828D01*
X001518Y011818D01*
X001518Y012236D01*
X001618Y012236D01*
X001618Y011818D01*
X001678Y011828D01*
X001749Y011851D01*
X001815Y011884D01*
X001874Y011928D01*
X001927Y011980D01*
X001970Y012040D01*
X002004Y012106D01*
X002027Y012176D01*
X002036Y012236D01*
X001619Y012236D01*
X001619Y012336D01*
X002036Y012336D01*
X002027Y012396D01*
X002004Y012467D01*
X001970Y012532D01*
X001927Y012592D01*
X001883Y012636D01*
X002254Y012636D01*
X002210Y012592D01*
X002166Y012532D01*
X002133Y012467D01*
X002110Y012396D01*
X002100Y012336D01*
X002518Y012336D01*
X002518Y012236D01*
X002100Y012236D01*
X002110Y012176D01*
X002133Y012106D01*
X002166Y012040D01*
X002210Y011980D01*
X002262Y011928D01*
X002322Y011884D01*
X002388Y011851D01*
X002458Y011828D01*
X002518Y011818D01*
X002518Y012236D01*
X002618Y012236D01*
X002618Y011818D01*
X002678Y011828D01*
X002749Y011851D01*
X002815Y011884D01*
X002874Y011928D01*
X002927Y011980D01*
X002970Y012040D01*
X003004Y012106D01*
X003027Y012176D01*
X003036Y012236D01*
X002619Y012236D01*
X002619Y012336D01*
X003036Y012336D01*
X003027Y012396D01*
X003004Y012467D01*
X002970Y012532D01*
X002927Y012592D01*
X002883Y012636D01*
X003254Y012636D01*
X003210Y012592D01*
X003166Y012532D01*
X003133Y012467D01*
X003110Y012396D01*
X003100Y012336D01*
X003518Y012336D01*
X003518Y012236D01*
X003100Y012236D01*
X003110Y012176D01*
X003133Y012106D01*
X003166Y012040D01*
X003210Y011980D01*
X003262Y011928D01*
X003322Y011884D01*
X003388Y011851D01*
X003458Y011828D01*
X003518Y011818D01*
X003518Y012236D01*
X003618Y012236D01*
X003618Y011818D01*
X003678Y011828D01*
X003749Y011851D01*
X003815Y011884D01*
X003874Y011928D01*
X003927Y011980D01*
X003970Y012040D01*
X004004Y012106D01*
X004027Y012176D01*
X004036Y012236D01*
X003619Y012236D01*
X003619Y012336D01*
X004036Y012336D01*
X004027Y012396D01*
X004004Y012467D01*
X003970Y012532D01*
X003927Y012592D01*
X003883Y012636D01*
X004254Y012636D01*
X004210Y012592D01*
X004166Y012532D01*
X004133Y012467D01*
X004110Y012396D01*
X004100Y012336D01*
X004518Y012336D01*
X004518Y012236D01*
X004100Y012236D01*
X004110Y012176D01*
X004133Y012106D01*
X004166Y012040D01*
X004210Y011980D01*
X004262Y011928D01*
X004322Y011884D01*
X004388Y011851D01*
X004458Y011828D01*
X004518Y011818D01*
X004518Y012236D01*
X004618Y012236D01*
X004618Y011818D01*
X004678Y011828D01*
X004749Y011851D01*
X004815Y011884D01*
X004874Y011928D01*
X004927Y011980D01*
X004970Y012040D01*
X005004Y012106D01*
X005027Y012176D01*
X005036Y012236D01*
X004619Y012236D01*
X004619Y012336D01*
X005036Y012336D01*
X005027Y012396D01*
X005004Y012467D01*
X004970Y012532D01*
X004927Y012592D01*
X004883Y012636D01*
X005254Y012636D01*
X005210Y012592D01*
X005166Y012532D01*
X005133Y012467D01*
X005110Y012396D01*
X005100Y012336D01*
X005518Y012336D01*
X005518Y012236D01*
X005100Y012236D01*
X005110Y012176D01*
X005133Y012106D01*
X005166Y012040D01*
X005210Y011980D01*
X005262Y011928D01*
X005322Y011884D01*
X005388Y011851D01*
X005458Y011828D01*
X005518Y011818D01*
X005518Y012236D01*
X005618Y012236D01*
X005618Y011818D01*
X005678Y011828D01*
X005749Y011851D01*
X005815Y011884D01*
X005874Y011928D01*
X005927Y011980D01*
X005970Y012040D01*
X006004Y012106D01*
X006027Y012176D01*
X006036Y012236D01*
X005619Y012236D01*
X005619Y012336D01*
X006036Y012336D01*
X006027Y012396D01*
X006004Y012467D01*
X005970Y012532D01*
X005927Y012592D01*
X005883Y012636D01*
X006254Y012636D01*
X006210Y012592D01*
X006166Y012532D01*
X006133Y012467D01*
X006110Y012396D01*
X006100Y012336D01*
X006518Y012336D01*
X006518Y012236D01*
X006100Y012236D01*
X006110Y012176D01*
X006133Y012106D01*
X006166Y012040D01*
X006210Y011980D01*
X006262Y011928D01*
X006322Y011884D01*
X006388Y011851D01*
X006458Y011828D01*
X006518Y011818D01*
X006518Y012236D01*
X006618Y012236D01*
X006618Y011818D01*
X006678Y011828D01*
X006749Y011851D01*
X006815Y011884D01*
X006874Y011928D01*
X006927Y011980D01*
X006970Y012040D01*
X007004Y012106D01*
X007027Y012176D01*
X007036Y012236D01*
X006619Y012236D01*
X006619Y012336D01*
X007036Y012336D01*
X007027Y012396D01*
X007004Y012467D01*
X006970Y012532D01*
X006927Y012592D01*
X006883Y012636D01*
X007254Y012636D01*
X007210Y012592D01*
X007166Y012532D01*
X007133Y012467D01*
X007110Y012396D01*
X007100Y012336D01*
X007518Y012336D01*
X007518Y012236D01*
X007100Y012236D01*
X007110Y012176D01*
X007133Y012106D01*
X007166Y012040D01*
X007210Y011980D01*
X007262Y011928D01*
X007322Y011884D01*
X007388Y011851D01*
X007458Y011828D01*
X007518Y011818D01*
X007518Y012236D01*
X007618Y012236D01*
X007618Y011818D01*
X007678Y011828D01*
X007749Y011851D01*
X007815Y011884D01*
X007874Y011928D01*
X007927Y011980D01*
X007970Y012040D01*
X008004Y012106D01*
X008027Y012176D01*
X008036Y012236D01*
X007619Y012236D01*
X007619Y012336D01*
X008036Y012336D01*
X008027Y012396D01*
X008004Y012467D01*
X007970Y012532D01*
X007927Y012592D01*
X007883Y012636D01*
X008254Y012636D01*
X008210Y012592D01*
X008166Y012532D01*
X008133Y012467D01*
X008110Y012396D01*
X008100Y012336D01*
X008518Y012336D01*
X008518Y012236D01*
X008100Y012236D01*
X008110Y012176D01*
X008133Y012106D01*
X008166Y012040D01*
X008210Y011980D01*
X008262Y011928D01*
X008322Y011884D01*
X008388Y011851D01*
X008458Y011828D01*
X008518Y011818D01*
X008518Y012236D01*
X008618Y012236D01*
X008618Y011818D01*
X008678Y011828D01*
X008749Y011851D01*
X008815Y011884D01*
X008874Y011928D01*
X008927Y011980D01*
X008970Y012040D01*
X009004Y012106D01*
X009027Y012176D01*
X009036Y012236D01*
X008619Y012236D01*
X008619Y012336D01*
X009036Y012336D01*
X009027Y012396D01*
X009004Y012467D01*
X008970Y012532D01*
X008927Y012592D01*
X008883Y012636D01*
X009254Y012636D01*
X009210Y012592D01*
X009166Y012532D01*
X009133Y012467D01*
X009110Y012396D01*
X009100Y012336D01*
X009518Y012336D01*
X009518Y012236D01*
X009100Y012236D01*
X009110Y012176D01*
X009133Y012106D01*
X009166Y012040D01*
X009210Y011980D01*
X009262Y011928D01*
X009322Y011884D01*
X009388Y011851D01*
X009458Y011828D01*
X009518Y011818D01*
X009518Y012236D01*
X009618Y012236D01*
X009618Y011818D01*
X009678Y011828D01*
X009749Y011851D01*
X009815Y011884D01*
X009874Y011928D01*
X009927Y011980D01*
X009970Y012040D01*
X010004Y012106D01*
X010027Y012176D01*
X010036Y012236D01*
X009619Y012236D01*
X009619Y012336D01*
X010036Y012336D01*
X010027Y012396D01*
X010004Y012467D01*
X009970Y012532D01*
X009927Y012592D01*
X009883Y012636D01*
X010254Y012636D01*
X010210Y012592D01*
X010166Y012532D01*
X010133Y012467D01*
X010110Y012396D01*
X010100Y012336D01*
X010518Y012336D01*
X010518Y012236D01*
X010100Y012236D01*
X010110Y012176D01*
X010133Y012106D01*
X010166Y012040D01*
X010210Y011980D01*
X010262Y011928D01*
X010322Y011884D01*
X010388Y011851D01*
X010458Y011828D01*
X010518Y011818D01*
X010518Y012236D01*
X010618Y012236D01*
X010618Y011818D01*
X010678Y011828D01*
X010749Y011851D01*
X010815Y011884D01*
X010874Y011928D01*
X010927Y011980D01*
X010970Y012040D01*
X011004Y012106D01*
X011027Y012176D01*
X011036Y012236D01*
X010619Y012236D01*
X010619Y012336D01*
X011036Y012336D01*
X011027Y012396D01*
X011004Y012467D01*
X010970Y012532D01*
X010927Y012592D01*
X010883Y012636D01*
X011254Y012636D01*
X011210Y012592D01*
X011166Y012532D01*
X011133Y012467D01*
X011110Y012396D01*
X011100Y012336D01*
X011518Y012336D01*
X011518Y012236D01*
X011100Y012236D01*
X011110Y012176D01*
X011133Y012106D01*
X011166Y012040D01*
X011210Y011980D01*
X011262Y011928D01*
X011322Y011884D01*
X011388Y011851D01*
X011458Y011828D01*
X011518Y011818D01*
X011518Y012236D01*
X011618Y012236D01*
X011618Y011818D01*
X011678Y011828D01*
X011749Y011851D01*
X011815Y011884D01*
X011874Y011928D01*
X011927Y011980D01*
X011970Y012040D01*
X012004Y012106D01*
X012027Y012176D01*
X012036Y012236D01*
X011619Y012236D01*
X011619Y012336D01*
X012036Y012336D01*
X012027Y012396D01*
X012004Y012467D01*
X011970Y012532D01*
X011927Y012592D01*
X011883Y012636D01*
X012254Y012636D01*
X012210Y012592D01*
X012166Y012532D01*
X012133Y012467D01*
X012110Y012396D01*
X012100Y012336D01*
X012518Y012336D01*
X012518Y012236D01*
X012100Y012236D01*
X012110Y012176D01*
X012133Y012106D01*
X012166Y012040D01*
X012210Y011980D01*
X012262Y011928D01*
X012322Y011884D01*
X012388Y011851D01*
X012458Y011828D01*
X012518Y011818D01*
X012518Y012236D01*
X012618Y012236D01*
X012618Y011818D01*
X012678Y011828D01*
X012749Y011851D01*
X012815Y011884D01*
X012874Y011928D01*
X012927Y011980D01*
X012970Y012040D01*
X013004Y012106D01*
X013027Y012176D01*
X013036Y012236D01*
X012619Y012236D01*
X012619Y012336D01*
X013036Y012336D01*
X013027Y012396D01*
X013004Y012467D01*
X012970Y012532D01*
X012927Y012592D01*
X012883Y012636D01*
X013254Y012636D01*
X013210Y012592D01*
X013166Y012532D01*
X013133Y012467D01*
X013110Y012396D01*
X013100Y012336D01*
X013518Y012336D01*
X013518Y012236D01*
X013100Y012236D01*
X013110Y012176D01*
X013133Y012106D01*
X013166Y012040D01*
X013210Y011980D01*
X013262Y011928D01*
X013322Y011884D01*
X013388Y011851D01*
X013458Y011828D01*
X013518Y011818D01*
X013518Y012236D01*
X013618Y012236D01*
X013618Y011818D01*
X013678Y011828D01*
X013749Y011851D01*
X013815Y011884D01*
X013874Y011928D01*
X013927Y011980D01*
X013970Y012040D01*
X014004Y012106D01*
X014027Y012176D01*
X014036Y012236D01*
X013619Y012236D01*
X013619Y012336D01*
X014036Y012336D01*
X014027Y012396D01*
X014004Y012467D01*
X013970Y012532D01*
X013927Y012592D01*
X013883Y012636D01*
X014254Y012636D01*
X014210Y012592D01*
X014166Y012532D01*
X014133Y012467D01*
X014110Y012396D01*
X014100Y012336D01*
X014518Y012336D01*
X014518Y012236D01*
X014100Y012236D01*
X014110Y012176D01*
X014133Y012106D01*
X014166Y012040D01*
X014210Y011980D01*
X014262Y011928D01*
X014322Y011884D01*
X014388Y011851D01*
X014458Y011828D01*
X014518Y011818D01*
X014518Y012236D01*
X014618Y012236D01*
X014618Y011818D01*
X014678Y011828D01*
X014749Y011851D01*
X014815Y011884D01*
X014874Y011928D01*
X014927Y011980D01*
X014970Y012040D01*
X015004Y012106D01*
X015027Y012176D01*
X015036Y012236D01*
X014619Y012236D01*
X014619Y012336D01*
X015036Y012336D01*
X015027Y012396D01*
X015004Y012467D01*
X014970Y012532D01*
X014927Y012592D01*
X014883Y012636D01*
X015254Y012636D01*
X015210Y012592D01*
X015166Y012532D01*
X015133Y012467D01*
X015110Y012396D01*
X015100Y012336D01*
X015518Y012336D01*
X015518Y012236D01*
X015100Y012236D01*
X015110Y012176D01*
X015133Y012106D01*
X015166Y012040D01*
X015210Y011980D01*
X015262Y011928D01*
X015322Y011884D01*
X015388Y011851D01*
X015458Y011828D01*
X015518Y011818D01*
X015518Y012236D01*
X015618Y012236D01*
X015618Y011818D01*
X015678Y011828D01*
X015749Y011851D01*
X015815Y011884D01*
X015874Y011928D01*
X015927Y011980D01*
X015970Y012040D01*
X016004Y012106D01*
X016027Y012176D01*
X016036Y012236D01*
X015619Y012236D01*
X015619Y012336D01*
X016036Y012336D01*
X016027Y012396D01*
X016004Y012467D01*
X015970Y012532D01*
X015927Y012592D01*
X015883Y012636D01*
X016254Y012636D01*
X016210Y012592D01*
X016166Y012532D01*
X016133Y012467D01*
X016110Y012396D01*
X016100Y012336D01*
X016518Y012336D01*
X016518Y012236D01*
X016100Y012236D01*
X016110Y012176D01*
X016133Y012106D01*
X016166Y012040D01*
X016210Y011980D01*
X016262Y011928D01*
X016322Y011884D01*
X016388Y011851D01*
X016458Y011828D01*
X016518Y011818D01*
X016518Y012236D01*
X016618Y012236D01*
X016618Y011818D01*
X016678Y011828D01*
X016749Y011851D01*
X016815Y011884D01*
X016874Y011928D01*
X016927Y011980D01*
X016970Y012040D01*
X017004Y012106D01*
X017027Y012176D01*
X017036Y012236D01*
X016619Y012236D01*
X016619Y012336D01*
X017036Y012336D01*
X017027Y012396D01*
X017004Y012467D01*
X016970Y012532D01*
X016927Y012592D01*
X016883Y012636D01*
X017254Y012636D01*
X017210Y012592D01*
X017166Y012532D01*
X017133Y012467D01*
X017110Y012396D01*
X017100Y012336D01*
X017518Y012336D01*
X017518Y012236D01*
X017100Y012236D01*
X017110Y012176D01*
X017133Y012106D01*
X017166Y012040D01*
X017210Y011980D01*
X017262Y011928D01*
X017322Y011884D01*
X017388Y011851D01*
X017458Y011828D01*
X017518Y011818D01*
X017518Y012236D01*
X017618Y012236D01*
X017618Y011818D01*
X017678Y011828D01*
X017749Y011851D01*
X017815Y011884D01*
X017874Y011928D01*
X017918Y011972D01*
X017918Y011551D01*
X017874Y011595D01*
X017815Y011638D01*
X017749Y011672D01*
X017678Y011695D01*
X017618Y011704D01*
X017618Y011286D01*
X017518Y011286D01*
X017518Y011186D01*
X017100Y011186D01*
X017110Y011126D01*
X017133Y011056D01*
X017166Y010990D01*
X017210Y010930D01*
X017262Y010878D01*
X017322Y010834D01*
X017388Y010801D01*
X017458Y010778D01*
X017518Y010768D01*
X017518Y011186D01*
X017618Y011186D01*
X017618Y010768D01*
X017678Y010778D01*
X017749Y010801D01*
X017815Y010834D01*
X017874Y010878D01*
X017918Y010922D01*
X017918Y002803D01*
X017908Y002806D01*
X017618Y002806D01*
X017618Y002386D01*
X017518Y002386D01*
X017518Y002286D01*
X017098Y002286D01*
X017098Y001996D01*
X017109Y001958D01*
X017128Y001924D01*
X017156Y001896D01*
X017190Y001876D01*
X017229Y001866D01*
X017518Y001866D01*
X017518Y002286D01*
X017618Y002286D01*
X017618Y001866D01*
X017908Y001866D01*
X017918Y001869D01*
X017918Y001601D01*
X017874Y001645D01*
X017815Y001688D01*
X017749Y001722D01*
X017678Y001745D01*
X017618Y001754D01*
X017618Y001336D01*
X017518Y001336D01*
X017518Y001236D01*
X017100Y001236D01*
X017110Y001176D01*
X017133Y001106D01*
X017166Y001040D01*
X017210Y000980D01*
X017254Y000936D01*
X016883Y000936D01*
X016927Y000980D01*
X016970Y001040D01*
X017004Y001106D01*
X017027Y001176D01*
X017036Y001236D01*
X016619Y001236D01*
X016619Y001336D01*
X017036Y001336D01*
X017027Y001396D01*
X017004Y001467D01*
X016970Y001532D01*
X016927Y001592D01*
X016874Y001645D01*
X016815Y001688D01*
X016749Y001722D01*
X016678Y001745D01*
X016618Y001754D01*
X016618Y001336D01*
X016518Y001336D01*
X016518Y001236D01*
X016100Y001236D01*
X016110Y001176D01*
X016133Y001106D01*
X016166Y001040D01*
X016210Y000980D01*
X016254Y000936D01*
X015883Y000936D01*
X015927Y000980D01*
X015970Y001040D01*
X016004Y001106D01*
X016027Y001176D01*
X016036Y001236D01*
X015619Y001236D01*
X015619Y001336D01*
X016036Y001336D01*
X016027Y001396D01*
X016004Y001467D01*
X015970Y001532D01*
X015927Y001592D01*
X015874Y001645D01*
X015815Y001688D01*
X015749Y001722D01*
X015678Y001745D01*
X015618Y001754D01*
X015618Y001336D01*
X015518Y001336D01*
X015518Y001236D01*
X015100Y001236D01*
X015110Y001176D01*
X015133Y001106D01*
X015166Y001040D01*
X015210Y000980D01*
X015254Y000936D01*
X014883Y000936D01*
X014927Y000980D01*
X014970Y001040D01*
X015004Y001106D01*
X015027Y001176D01*
X015036Y001236D01*
X014619Y001236D01*
X014619Y001336D01*
X015036Y001336D01*
X015027Y001396D01*
X015004Y001467D01*
X014970Y001532D01*
X014927Y001592D01*
X014874Y001645D01*
X014815Y001688D01*
X014749Y001722D01*
X014678Y001745D01*
X014618Y001754D01*
X014618Y001336D01*
X014518Y001336D01*
X014518Y001236D01*
X014100Y001236D01*
X014110Y001176D01*
X014133Y001106D01*
X014166Y001040D01*
X014210Y000980D01*
X014254Y000936D01*
X013883Y000936D01*
X013927Y000980D01*
X013970Y001040D01*
X014004Y001106D01*
X014027Y001176D01*
X014036Y001236D01*
X013619Y001236D01*
X013619Y001336D01*
X014036Y001336D01*
X014027Y001396D01*
X014004Y001467D01*
X013970Y001532D01*
X013927Y001592D01*
X013874Y001645D01*
X013872Y001646D01*
X013997Y001646D01*
X014147Y001796D01*
X014245Y001894D01*
X014302Y001838D01*
X014475Y001766D01*
X014662Y001766D01*
X014835Y001838D01*
X014967Y001970D01*
X015038Y002143D01*
X015038Y002330D01*
X014967Y002502D01*
X014835Y002635D01*
X014758Y002666D01*
X014758Y002827D01*
X015115Y002470D01*
X015098Y002430D01*
X015098Y002243D01*
X015170Y002070D01*
X015302Y001938D01*
X015475Y001866D01*
X015662Y001866D01*
X015835Y001938D01*
X015967Y002070D01*
X016038Y002243D01*
X016038Y002430D01*
X015967Y002602D01*
X015835Y002735D01*
X015662Y002806D01*
X015475Y002806D01*
X015363Y002760D01*
X014920Y003204D01*
X015100Y003384D01*
X015100Y003542D01*
X015100Y003636D01*
X014989Y003747D01*
X014901Y003835D01*
X015020Y003835D01*
X015020Y004153D01*
X014721Y004153D01*
X014721Y004015D01*
X014676Y004060D01*
X014582Y004154D01*
X014475Y004154D01*
X014475Y004167D01*
X014475Y004261D01*
X014402Y004334D02*
X014721Y004334D01*
X014721Y004432D02*
X014304Y004432D01*
X014304Y004531D02*
X014772Y004531D01*
X014721Y004629D02*
X014296Y004629D01*
X014210Y004715D02*
X014210Y004715D01*
X014197Y004728D02*
X014721Y004728D01*
X014721Y004826D02*
X014098Y004826D01*
X013945Y004925D02*
X014721Y004925D01*
X014721Y005024D02*
X013901Y005024D01*
X013803Y005122D02*
X014721Y005122D01*
X014793Y005221D02*
X013704Y005221D01*
X013606Y005319D02*
X016318Y005319D01*
X016318Y005221D02*
X015344Y005221D01*
X015415Y005122D02*
X016318Y005122D01*
X016318Y005418D02*
X013507Y005418D01*
X013409Y005516D02*
X016318Y005516D01*
X016318Y005615D02*
X013272Y005615D01*
X013212Y005713D02*
X016318Y005713D01*
X016318Y005812D02*
X015408Y005812D01*
X015431Y005910D02*
X016318Y005910D01*
X016379Y006009D02*
X015431Y006009D01*
X015431Y006107D02*
X016526Y006107D01*
X016474Y006206D02*
X015431Y006206D01*
X015473Y006305D02*
X016450Y006305D01*
X016450Y006403D02*
X015473Y006403D01*
X015463Y006502D02*
X016488Y006502D01*
X016562Y006600D02*
X015484Y006600D01*
X015483Y006699D02*
X015483Y006720D01*
X015441Y006762D01*
X015422Y006790D01*
X015439Y006896D02*
X017918Y006896D01*
X017918Y006994D02*
X017047Y006994D01*
X017027Y006974D02*
X016892Y006918D01*
X016745Y006918D01*
X016610Y006974D01*
X016506Y007078D01*
X016450Y007213D01*
X016450Y007359D01*
X016506Y007495D01*
X016548Y007536D01*
X016406Y007536D01*
X016318Y007624D01*
X016318Y008511D01*
X015415Y008511D01*
X015415Y008423D01*
X015327Y008335D01*
X014809Y008335D01*
X014721Y008423D01*
X014721Y008980D01*
X014777Y009036D01*
X014751Y009062D01*
X014732Y009096D01*
X014721Y009134D01*
X014721Y009322D01*
X015020Y009322D01*
X015020Y009419D01*
X014721Y009419D01*
X014721Y009607D01*
X014732Y009645D01*
X014751Y009679D01*
X014779Y009707D01*
X014814Y009727D01*
X014852Y009737D01*
X015020Y009737D01*
X015020Y009419D01*
X015117Y009419D01*
X015415Y009419D01*
X015415Y009607D01*
X015405Y009645D01*
X015385Y009679D01*
X015357Y009707D01*
X015323Y009727D01*
X015285Y009737D01*
X015117Y009737D01*
X015117Y009419D01*
X015117Y009322D01*
X015415Y009322D01*
X015415Y009134D01*
X015405Y009096D01*
X015385Y009062D01*
X015359Y009036D01*
X015415Y008980D01*
X015415Y008891D01*
X016318Y008891D01*
X016318Y009748D01*
X016406Y009836D01*
X017230Y009836D01*
X017318Y009748D01*
X017318Y007624D01*
X017230Y007536D01*
X017089Y007536D01*
X017130Y007495D01*
X017186Y007359D01*
X017186Y007213D01*
X017130Y007078D01*
X017027Y006974D01*
X017137Y007093D02*
X017918Y007093D01*
X017918Y007191D02*
X017178Y007191D01*
X017186Y007290D02*
X017918Y007290D01*
X017918Y007389D02*
X017174Y007389D01*
X017134Y007487D02*
X017918Y007487D01*
X017918Y007586D02*
X017280Y007586D01*
X017318Y007684D02*
X017918Y007684D01*
X017918Y007783D02*
X017318Y007783D01*
X017318Y007881D02*
X017918Y007881D01*
X017918Y007980D02*
X017318Y007980D01*
X017318Y008078D02*
X017918Y008078D01*
X017918Y008177D02*
X017318Y008177D01*
X017318Y008275D02*
X017918Y008275D01*
X017918Y008374D02*
X017318Y008374D01*
X017318Y008473D02*
X017918Y008473D01*
X017918Y008571D02*
X017318Y008571D01*
X017318Y008670D02*
X017918Y008670D01*
X017918Y008768D02*
X017318Y008768D01*
X017318Y008867D02*
X017918Y008867D01*
X017918Y008965D02*
X017318Y008965D01*
X017318Y009064D02*
X017918Y009064D01*
X017918Y009162D02*
X017318Y009162D01*
X017318Y009261D02*
X017918Y009261D01*
X017918Y009359D02*
X017318Y009359D01*
X017318Y009458D02*
X017918Y009458D01*
X017918Y009556D02*
X017318Y009556D01*
X017318Y009655D02*
X017918Y009655D01*
X017918Y009754D02*
X017313Y009754D01*
X017568Y010036D02*
X015318Y010036D01*
X015068Y009786D01*
X015068Y009371D01*
X015020Y009359D02*
X014010Y009359D01*
X014073Y009261D02*
X014721Y009261D01*
X014721Y009162D02*
X014136Y009162D01*
X014199Y009064D02*
X014750Y009064D01*
X014721Y008965D02*
X014262Y008965D01*
X014325Y008867D02*
X014721Y008867D01*
X014721Y008768D02*
X014388Y008768D01*
X014451Y008670D02*
X014721Y008670D01*
X014721Y008571D02*
X014514Y008571D01*
X014577Y008473D02*
X014721Y008473D01*
X014770Y008374D02*
X014648Y008374D01*
X014693Y008275D02*
X016318Y008275D01*
X016318Y008177D02*
X014683Y008177D01*
X014719Y008078D02*
X016318Y008078D01*
X016318Y007980D02*
X014775Y007980D01*
X014831Y007881D02*
X016318Y007881D01*
X016318Y007783D02*
X014886Y007783D01*
X014942Y007684D02*
X016318Y007684D01*
X016357Y007586D02*
X014997Y007586D01*
X015069Y007487D02*
X016503Y007487D01*
X016462Y007389D02*
X015077Y007389D01*
X015050Y007290D02*
X016450Y007290D01*
X016459Y007191D02*
X014536Y007191D01*
X014495Y007093D02*
X014240Y007093D01*
X014346Y006994D02*
X014361Y006994D01*
X015325Y007093D02*
X016500Y007093D01*
X016589Y006994D02*
X015419Y006994D01*
X016818Y007286D02*
X016818Y008686D01*
X016318Y008473D02*
X015415Y008473D01*
X015366Y008374D02*
X016318Y008374D01*
X016318Y008965D02*
X015415Y008965D01*
X015386Y009064D02*
X016318Y009064D01*
X016318Y009162D02*
X015415Y009162D01*
X015415Y009261D02*
X016318Y009261D01*
X016318Y009359D02*
X015117Y009359D01*
X015117Y009458D02*
X015020Y009458D01*
X015020Y009556D02*
X015117Y009556D01*
X015117Y009655D02*
X015020Y009655D01*
X014737Y009655D02*
X013797Y009655D01*
X013897Y009556D02*
X014721Y009556D01*
X014721Y009458D02*
X013947Y009458D01*
X013628Y009655D02*
X012406Y009655D01*
X012358Y009556D02*
X013531Y009556D01*
X013482Y009458D02*
X012358Y009458D01*
X012358Y009359D02*
X013422Y009359D01*
X013362Y009261D02*
X012358Y009261D01*
X012358Y009162D02*
X013301Y009162D01*
X013241Y009064D02*
X012358Y009064D01*
X012358Y008965D02*
X013180Y008965D01*
X013036Y008867D02*
X012358Y008867D01*
X012358Y008768D02*
X012983Y008768D01*
X012929Y008670D02*
X012358Y008670D01*
X012358Y008571D02*
X012875Y008571D01*
X012821Y008473D02*
X012358Y008473D01*
X012358Y008374D02*
X012767Y008374D01*
X012713Y008275D02*
X012358Y008275D01*
X012358Y008177D02*
X012660Y008177D01*
X012606Y008078D02*
X012358Y008078D01*
X012358Y007980D02*
X012552Y007980D01*
X012498Y007881D02*
X012358Y007881D01*
X012358Y007783D02*
X012444Y007783D01*
X012391Y007684D02*
X012358Y007684D01*
X012264Y007389D02*
X012239Y007389D01*
X012307Y007290D02*
X012141Y007290D01*
X012042Y007191D02*
X013297Y007191D01*
X013309Y007093D02*
X013020Y007093D01*
X013073Y006994D02*
X013198Y006994D01*
X013175Y006896D02*
X013073Y006896D01*
X013073Y006797D02*
X013182Y006797D01*
X013202Y006699D02*
X013073Y006699D01*
X012801Y006124D02*
X012801Y006124D01*
X012801Y006124D01*
X012818Y006107D02*
X013151Y006107D01*
X013151Y006009D02*
X012913Y006009D01*
X012913Y005910D02*
X013151Y005910D01*
X013189Y005812D02*
X012913Y005812D01*
X012913Y005855D02*
X012913Y005855D01*
X012550Y006123D02*
X012550Y006123D01*
X012534Y006107D02*
X012016Y006107D01*
X012000Y006206D02*
X011917Y006206D01*
X011953Y006305D02*
X011819Y006305D01*
X011720Y006403D02*
X011953Y006403D01*
X011943Y006502D02*
X011621Y006502D01*
X011523Y006600D02*
X011943Y006600D01*
X011943Y006699D02*
X011550Y006699D01*
X011648Y006797D02*
X011943Y006797D01*
X011943Y006896D02*
X011747Y006896D01*
X011845Y006994D02*
X011943Y006994D01*
X011944Y007093D02*
X011996Y007093D01*
X012114Y006009D02*
X012435Y006009D01*
X012408Y005982D02*
X012408Y005982D01*
X012337Y005910D02*
X012213Y005910D01*
X011301Y005221D02*
X011218Y005221D01*
X011218Y005122D02*
X011400Y005122D01*
X011498Y005024D02*
X011188Y005024D01*
X011168Y004786D02*
X010768Y004786D01*
X010768Y005216D01*
X010778Y005216D01*
X010778Y005122D02*
X010779Y005122D01*
X010778Y005024D02*
X010779Y005024D01*
X010388Y004925D02*
X011597Y004925D01*
X011695Y004826D02*
X010388Y004826D01*
X010388Y004728D02*
X011794Y004728D01*
X011892Y004629D02*
X010388Y004629D01*
X010388Y004531D02*
X011991Y004531D01*
X012089Y004432D02*
X010388Y004432D01*
X010388Y004334D02*
X012188Y004334D01*
X012286Y004235D02*
X010388Y004235D01*
X010328Y004137D02*
X012385Y004137D01*
X012718Y004086D02*
X013018Y003786D01*
X013018Y003536D01*
X013339Y003348D02*
X013537Y003348D01*
X013439Y003447D02*
X013380Y003447D01*
X013253Y003250D02*
X013636Y003250D01*
X013780Y002757D02*
X013878Y002757D01*
X014758Y002757D02*
X014829Y002757D01*
X014777Y002658D02*
X014927Y002658D01*
X014909Y002560D02*
X015026Y002560D01*
X014984Y002461D02*
X015112Y002461D01*
X015098Y002363D02*
X015025Y002363D01*
X015038Y002264D02*
X015098Y002264D01*
X015130Y002166D02*
X015038Y002166D01*
X015007Y002067D02*
X015173Y002067D01*
X015271Y001969D02*
X014966Y001969D01*
X014867Y001870D02*
X015465Y001870D01*
X015458Y001745D02*
X015388Y001722D01*
X015322Y001688D01*
X015262Y001645D01*
X015210Y001592D01*
X015166Y001532D01*
X015133Y001467D01*
X015110Y001396D01*
X015100Y001336D01*
X015518Y001336D01*
X015518Y001754D01*
X015458Y001745D01*
X015518Y001673D02*
X015618Y001673D01*
X015618Y001574D02*
X015518Y001574D01*
X015518Y001476D02*
X015618Y001476D01*
X015618Y001377D02*
X015518Y001377D01*
X015518Y001279D02*
X014619Y001279D01*
X014618Y001377D02*
X014518Y001377D01*
X014518Y001336D02*
X014518Y001754D01*
X014458Y001745D01*
X014388Y001722D01*
X014322Y001688D01*
X014262Y001645D01*
X014210Y001592D01*
X014166Y001532D01*
X014133Y001467D01*
X014110Y001396D01*
X014100Y001336D01*
X014518Y001336D01*
X014518Y001279D02*
X013619Y001279D01*
X013518Y001279D02*
X012619Y001279D01*
X012618Y001377D02*
X012518Y001377D01*
X012518Y001279D02*
X011619Y001279D01*
X011618Y001377D02*
X011518Y001377D01*
X011518Y001336D02*
X011518Y001754D01*
X011458Y001745D01*
X011388Y001722D01*
X011322Y001688D01*
X011262Y001645D01*
X011210Y001592D01*
X011166Y001532D01*
X011133Y001467D01*
X011110Y001396D01*
X011100Y001336D01*
X011518Y001336D01*
X011518Y001279D02*
X010619Y001279D01*
X010618Y001377D02*
X010518Y001377D01*
X010518Y001279D02*
X009619Y001279D01*
X009618Y001377D02*
X009518Y001377D01*
X009518Y001336D02*
X009518Y001754D01*
X009458Y001745D01*
X009388Y001722D01*
X009322Y001688D01*
X009262Y001645D01*
X009210Y001592D01*
X009166Y001532D01*
X009133Y001467D01*
X009110Y001396D01*
X009100Y001336D01*
X009518Y001336D01*
X009518Y001279D02*
X008619Y001279D01*
X008618Y001377D02*
X008518Y001377D01*
X008518Y001476D02*
X008618Y001476D01*
X008618Y001574D02*
X008518Y001574D01*
X008835Y001673D02*
X009301Y001673D01*
X009197Y001574D02*
X008940Y001574D01*
X008999Y001476D02*
X009138Y001476D01*
X009107Y001377D02*
X009030Y001377D01*
X009027Y001180D02*
X009109Y001180D01*
X009145Y001082D02*
X008992Y001082D01*
X008929Y000983D02*
X009207Y000983D01*
X009518Y001476D02*
X009618Y001476D01*
X009618Y001574D02*
X009518Y001574D01*
X009518Y001673D02*
X009618Y001673D01*
X009671Y001870D02*
X010270Y001870D01*
X010171Y001969D02*
X009866Y001969D01*
X009964Y002067D02*
X010130Y002067D01*
X010098Y002166D02*
X010006Y002166D01*
X010038Y002264D02*
X010098Y002264D01*
X010112Y002363D02*
X010038Y002363D01*
X010025Y002461D02*
X010153Y002461D01*
X010227Y002560D02*
X009984Y002560D01*
X009911Y002658D02*
X010360Y002658D01*
X010329Y002757D02*
X009780Y002757D01*
X009758Y002856D02*
X010230Y002856D01*
X010132Y002954D02*
X009669Y002954D01*
X009571Y003053D02*
X010033Y003053D01*
X009935Y003151D02*
X009472Y003151D01*
X009388Y003250D02*
X009836Y003250D01*
X009738Y003348D02*
X009388Y003348D01*
X009388Y003447D02*
X009639Y003447D01*
X009540Y003545D02*
X009388Y003545D01*
X009388Y003644D02*
X009442Y003644D01*
X008688Y003644D02*
X007508Y003644D01*
X007508Y003615D02*
X007508Y004136D01*
X007790Y004136D01*
X007796Y004142D01*
X007819Y004136D01*
X007938Y004136D01*
X007938Y004576D01*
X007878Y004576D01*
X007878Y004576D01*
X007938Y004576D01*
X007938Y004576D01*
X007939Y004576D01*
X007939Y004136D01*
X008058Y004136D01*
X008088Y004144D01*
X008096Y004136D01*
X008406Y004136D01*
X008688Y004136D01*
X008688Y003125D01*
X008490Y002926D01*
X008378Y002815D01*
X008378Y002666D01*
X008302Y002635D01*
X008258Y002591D01*
X008258Y002707D01*
X008258Y002865D01*
X007508Y003615D01*
X007578Y003545D02*
X008688Y003545D01*
X008688Y003447D02*
X007676Y003447D01*
X007775Y003348D02*
X008688Y003348D01*
X008688Y003250D02*
X007873Y003250D01*
X007972Y003151D02*
X008688Y003151D01*
X008616Y003053D02*
X008071Y003053D01*
X008169Y002954D02*
X008518Y002954D01*
X008419Y002856D02*
X008258Y002856D01*
X008258Y002757D02*
X008378Y002757D01*
X008360Y002658D02*
X008258Y002658D01*
X008777Y002658D02*
X009226Y002658D01*
X009152Y002560D02*
X008909Y002560D01*
X008984Y002461D02*
X009112Y002461D01*
X009098Y002363D02*
X009025Y002363D01*
X009038Y002264D02*
X009098Y002264D01*
X009130Y002166D02*
X009038Y002166D01*
X009007Y002067D02*
X009173Y002067D01*
X009271Y001969D02*
X008966Y001969D01*
X008867Y001870D02*
X009465Y001870D01*
X009835Y001673D02*
X010301Y001673D01*
X010197Y001574D02*
X009940Y001574D01*
X009999Y001476D02*
X010138Y001476D01*
X010107Y001377D02*
X010030Y001377D01*
X010027Y001180D02*
X010109Y001180D01*
X010145Y001082D02*
X009992Y001082D01*
X009929Y000983D02*
X010207Y000983D01*
X010518Y001476D02*
X010618Y001476D01*
X010618Y001574D02*
X010518Y001574D01*
X010835Y001673D02*
X011301Y001673D01*
X011197Y001574D02*
X010940Y001574D01*
X010999Y001476D02*
X011138Y001476D01*
X011107Y001377D02*
X011030Y001377D01*
X011027Y001180D02*
X011109Y001180D01*
X011145Y001082D02*
X010992Y001082D01*
X010929Y000983D02*
X011207Y000983D01*
X011518Y001476D02*
X011618Y001476D01*
X011618Y001574D02*
X011518Y001574D01*
X011518Y001673D02*
X011618Y001673D01*
X011671Y001870D02*
X012270Y001870D01*
X012171Y001969D02*
X011866Y001969D01*
X011964Y002067D02*
X012130Y002067D01*
X012098Y002166D02*
X012006Y002166D01*
X012038Y002264D02*
X012098Y002264D01*
X012112Y002363D02*
X012038Y002363D01*
X012025Y002461D02*
X012153Y002461D01*
X012227Y002560D02*
X011984Y002560D01*
X011911Y002658D02*
X012360Y002658D01*
X012729Y002757D02*
X011780Y002757D01*
X011758Y002856D02*
X011880Y002856D01*
X011782Y002954D02*
X011669Y002954D01*
X011329Y002757D02*
X010758Y002757D01*
X010777Y002658D02*
X011226Y002658D01*
X011152Y002560D02*
X010909Y002560D01*
X010984Y002461D02*
X011112Y002461D01*
X011098Y002363D02*
X011025Y002363D01*
X011038Y002264D02*
X011098Y002264D01*
X011130Y002166D02*
X011038Y002166D01*
X011007Y002067D02*
X011173Y002067D01*
X011271Y001969D02*
X010966Y001969D01*
X010867Y001870D02*
X011465Y001870D01*
X011835Y001673D02*
X012301Y001673D01*
X012197Y001574D02*
X011940Y001574D01*
X011999Y001476D02*
X012138Y001476D01*
X012107Y001377D02*
X012030Y001377D01*
X012027Y001180D02*
X012109Y001180D01*
X012145Y001082D02*
X011992Y001082D01*
X011929Y000983D02*
X012207Y000983D01*
X012518Y001476D02*
X012618Y001476D01*
X012618Y001574D02*
X012518Y001574D01*
X012835Y001673D02*
X012863Y001673D01*
X012940Y001574D02*
X013197Y001574D01*
X013138Y001476D02*
X012999Y001476D01*
X013030Y001377D02*
X013107Y001377D01*
X013109Y001180D02*
X013027Y001180D01*
X012992Y001082D02*
X013145Y001082D01*
X013207Y000983D02*
X012929Y000983D01*
X013929Y000983D02*
X014207Y000983D01*
X014145Y001082D02*
X013992Y001082D01*
X014027Y001180D02*
X014109Y001180D01*
X014107Y001377D02*
X014030Y001377D01*
X013999Y001476D02*
X014138Y001476D01*
X014197Y001574D02*
X013940Y001574D01*
X014024Y001673D02*
X014301Y001673D01*
X014462Y001772D02*
X014122Y001772D01*
X014221Y001870D02*
X014270Y001870D01*
X014518Y001673D02*
X014618Y001673D01*
X014618Y001574D02*
X014518Y001574D01*
X014518Y001476D02*
X014618Y001476D01*
X014940Y001574D02*
X015197Y001574D01*
X015138Y001476D02*
X014999Y001476D01*
X015030Y001377D02*
X015107Y001377D01*
X015109Y001180D02*
X015027Y001180D01*
X014992Y001082D02*
X015145Y001082D01*
X015207Y000983D02*
X014929Y000983D01*
X015619Y001279D02*
X016518Y001279D01*
X016518Y001336D02*
X016100Y001336D01*
X016110Y001396D01*
X016133Y001467D01*
X016166Y001532D01*
X016210Y001592D01*
X016262Y001645D01*
X016322Y001688D01*
X016388Y001722D01*
X016458Y001745D01*
X016518Y001754D01*
X016518Y001336D01*
X016518Y001377D02*
X016618Y001377D01*
X016619Y001279D02*
X017518Y001279D01*
X017518Y001336D02*
X017100Y001336D01*
X017110Y001396D01*
X017133Y001467D01*
X017166Y001532D01*
X017210Y001592D01*
X017262Y001645D01*
X017322Y001688D01*
X017388Y001722D01*
X017458Y001745D01*
X017518Y001754D01*
X017518Y001336D01*
X017518Y001377D02*
X017618Y001377D01*
X017618Y001476D02*
X017518Y001476D01*
X017518Y001574D02*
X017618Y001574D01*
X017618Y001673D02*
X017518Y001673D01*
X017518Y001870D02*
X017618Y001870D01*
X017618Y001969D02*
X017518Y001969D01*
X017518Y002067D02*
X017618Y002067D01*
X017618Y002166D02*
X017518Y002166D01*
X017518Y002264D02*
X017618Y002264D01*
X017518Y002363D02*
X017025Y002363D01*
X017038Y002330D02*
X016967Y002502D01*
X016835Y002635D01*
X016662Y002706D01*
X016475Y002706D01*
X016302Y002635D01*
X016170Y002502D01*
X016098Y002330D01*
X016098Y002143D01*
X016170Y001970D01*
X016302Y001838D01*
X016475Y001766D01*
X016662Y001766D01*
X016835Y001838D01*
X016967Y001970D01*
X017038Y002143D01*
X017038Y002330D01*
X017038Y002264D02*
X017098Y002264D01*
X017098Y002166D02*
X017038Y002166D01*
X017007Y002067D02*
X017098Y002067D01*
X017106Y001969D02*
X016966Y001969D01*
X016867Y001870D02*
X017214Y001870D01*
X017301Y001673D02*
X016835Y001673D01*
X016940Y001574D02*
X017197Y001574D01*
X017138Y001476D02*
X016999Y001476D01*
X017030Y001377D02*
X017107Y001377D01*
X017109Y001180D02*
X017027Y001180D01*
X016992Y001082D02*
X017145Y001082D01*
X017207Y000983D02*
X016929Y000983D01*
X016618Y001476D02*
X016518Y001476D01*
X016518Y001574D02*
X016618Y001574D01*
X016618Y001673D02*
X016518Y001673D01*
X016462Y001772D02*
X014675Y001772D01*
X014835Y001673D02*
X015301Y001673D01*
X015671Y001870D02*
X016270Y001870D01*
X016171Y001969D02*
X015866Y001969D01*
X015964Y002067D02*
X016130Y002067D01*
X016098Y002166D02*
X016006Y002166D01*
X016038Y002264D02*
X016098Y002264D01*
X016112Y002363D02*
X016038Y002363D01*
X016025Y002461D02*
X016153Y002461D01*
X016227Y002560D02*
X015984Y002560D01*
X015911Y002658D02*
X016360Y002658D01*
X016777Y002658D02*
X017098Y002658D01*
X017098Y002676D02*
X017098Y002386D01*
X017518Y002386D01*
X017518Y002806D01*
X017229Y002806D01*
X017190Y002796D01*
X017156Y002776D01*
X017128Y002748D01*
X017109Y002714D01*
X017098Y002676D01*
X017137Y002757D02*
X015780Y002757D01*
X015268Y002856D02*
X017918Y002856D01*
X017918Y002954D02*
X015169Y002954D01*
X015071Y003053D02*
X017918Y003053D01*
X017918Y003151D02*
X014972Y003151D01*
X014966Y003250D02*
X017918Y003250D01*
X017918Y003348D02*
X015064Y003348D01*
X015100Y003447D02*
X017918Y003447D01*
X017918Y003545D02*
X015100Y003545D01*
X015092Y003644D02*
X017918Y003644D01*
X017918Y003742D02*
X017237Y003742D01*
X017318Y003841D02*
X017918Y003841D01*
X017918Y003940D02*
X017318Y003940D01*
X017318Y004038D02*
X017918Y004038D01*
X017918Y004137D02*
X017318Y004137D01*
X017318Y004235D02*
X017918Y004235D01*
X017918Y004334D02*
X017318Y004334D01*
X017318Y004432D02*
X017918Y004432D01*
X017918Y004531D02*
X017318Y004531D01*
X017318Y004629D02*
X017918Y004629D01*
X017918Y004728D02*
X017318Y004728D01*
X017318Y004826D02*
X017918Y004826D01*
X017918Y004925D02*
X017318Y004925D01*
X017318Y005024D02*
X017918Y005024D01*
X017918Y005122D02*
X017318Y005122D01*
X017318Y005221D02*
X017918Y005221D01*
X017918Y005319D02*
X017318Y005319D01*
X017318Y005418D02*
X017918Y005418D01*
X017918Y005516D02*
X017318Y005516D01*
X017318Y005615D02*
X017918Y005615D01*
X017918Y005713D02*
X017318Y005713D01*
X017318Y005812D02*
X017918Y005812D01*
X017918Y005910D02*
X017318Y005910D01*
X017258Y006009D02*
X017918Y006009D01*
X017918Y006107D02*
X017110Y006107D01*
X017163Y006206D02*
X017918Y006206D01*
X017918Y006305D02*
X017186Y006305D01*
X017186Y006403D02*
X017918Y006403D01*
X017918Y006502D02*
X017148Y006502D01*
X017075Y006600D02*
X017918Y006600D01*
X017568Y006786D02*
X017168Y006786D01*
X017568Y006786D02*
X017568Y010036D01*
X017568Y011236D01*
X017568Y012286D01*
X016568Y012286D01*
X015568Y012286D01*
X014568Y012286D01*
X013568Y012286D01*
X012568Y012286D01*
X011568Y012286D01*
X010568Y012286D01*
X009568Y012286D01*
X008568Y012286D01*
X007568Y012286D01*
X006568Y012286D01*
X005568Y012286D01*
X004568Y012286D01*
X003568Y012286D01*
X002568Y012286D01*
X001568Y012286D01*
X001568Y011236D01*
X001568Y010836D01*
X002568Y009836D01*
X003178Y010443D02*
X001218Y010443D01*
X001218Y010345D02*
X003277Y010345D01*
X003375Y010246D02*
X001218Y010246D01*
X001218Y010148D02*
X003474Y010148D01*
X003572Y010049D02*
X001218Y010049D01*
X001218Y009951D02*
X003671Y009951D01*
X003867Y009655D02*
X001218Y009655D01*
X001218Y009556D02*
X003867Y009556D01*
X003936Y009458D02*
X001218Y009458D01*
X001218Y009359D02*
X004034Y009359D01*
X004034Y009261D02*
X001218Y009261D01*
X001218Y009162D02*
X004034Y009162D01*
X003886Y009064D02*
X001218Y009064D01*
X001218Y008965D02*
X003867Y008965D01*
X003867Y008867D02*
X002001Y008867D01*
X002084Y008768D02*
X003867Y008768D01*
X003867Y008670D02*
X002084Y008670D01*
X002084Y008571D02*
X002182Y008571D01*
X002099Y008473D02*
X002084Y008473D01*
X002084Y008374D02*
X002099Y008374D01*
X002099Y008275D02*
X002084Y008275D01*
X002084Y008177D02*
X002099Y008177D01*
X002946Y008571D02*
X003867Y008571D01*
X003922Y008473D02*
X003029Y008473D01*
X003029Y008374D02*
X004034Y008374D01*
X004034Y008275D02*
X003029Y008275D01*
X003029Y008177D02*
X003676Y008177D01*
X003578Y008078D02*
X003029Y008078D01*
X003029Y007980D02*
X003479Y007980D01*
X003381Y007881D02*
X003029Y007881D01*
X003029Y007783D02*
X003282Y007783D01*
X003184Y007684D02*
X003029Y007684D01*
X003029Y007586D02*
X003085Y007586D01*
X003086Y007304D02*
X002722Y007304D01*
X003086Y007304D02*
X003818Y008036D01*
X004268Y008036D01*
X004234Y008071D01*
X004234Y008786D01*
X004234Y009786D01*
X004118Y009786D01*
X002568Y011336D01*
X002098Y011330D02*
X002038Y011330D01*
X002038Y011429D02*
X002098Y011429D01*
X002139Y011527D02*
X002038Y011527D01*
X002021Y011626D02*
X002193Y011626D01*
X002292Y011724D02*
X001218Y011724D01*
X001218Y011823D02*
X001488Y011823D01*
X001518Y011823D02*
X001618Y011823D01*
X001649Y011823D02*
X002488Y011823D01*
X002518Y011823D02*
X002618Y011823D01*
X002649Y011823D02*
X003488Y011823D01*
X003518Y011823D02*
X003618Y011823D01*
X003649Y011823D02*
X004488Y011823D01*
X004518Y011823D02*
X004618Y011823D01*
X004649Y011823D02*
X005488Y011823D01*
X005518Y011823D02*
X005618Y011823D01*
X005649Y011823D02*
X006488Y011823D01*
X006518Y011823D02*
X006618Y011823D01*
X006649Y011823D02*
X007488Y011823D01*
X007518Y011823D02*
X007618Y011823D01*
X007649Y011823D02*
X008488Y011823D01*
X008518Y011823D02*
X008618Y011823D01*
X008649Y011823D02*
X009488Y011823D01*
X009518Y011823D02*
X009618Y011823D01*
X009649Y011823D02*
X010488Y011823D01*
X010518Y011823D02*
X010618Y011823D01*
X010649Y011823D02*
X011488Y011823D01*
X011518Y011823D02*
X011618Y011823D01*
X011649Y011823D02*
X012488Y011823D01*
X012518Y011823D02*
X012618Y011823D01*
X012649Y011823D02*
X013488Y011823D01*
X013518Y011823D02*
X013618Y011823D01*
X013649Y011823D02*
X014488Y011823D01*
X014518Y011823D02*
X014618Y011823D01*
X014649Y011823D02*
X015488Y011823D01*
X015518Y011823D02*
X015618Y011823D01*
X015649Y011823D02*
X016488Y011823D01*
X016475Y011806D02*
X016302Y011735D01*
X016170Y011602D01*
X016098Y011430D01*
X016098Y011243D01*
X016170Y011070D01*
X016302Y010938D01*
X016475Y010866D01*
X016662Y010866D01*
X016835Y010938D01*
X016967Y011070D01*
X017038Y011243D01*
X017038Y011430D01*
X016967Y011602D01*
X016835Y011735D01*
X016662Y011806D01*
X016475Y011806D01*
X016518Y011823D02*
X016618Y011823D01*
X016649Y011823D02*
X017488Y011823D01*
X017518Y011823D02*
X017618Y011823D01*
X017649Y011823D02*
X017918Y011823D01*
X017918Y011922D02*
X017866Y011922D01*
X017918Y011724D02*
X016845Y011724D01*
X016943Y011626D02*
X017305Y011626D01*
X017322Y011638D02*
X017262Y011595D01*
X017210Y011542D01*
X017166Y011482D01*
X017133Y011417D01*
X017110Y011346D01*
X017100Y011286D01*
X017518Y011286D01*
X017518Y011704D01*
X017458Y011695D01*
X017388Y011672D01*
X017322Y011638D01*
X017199Y011527D02*
X016998Y011527D01*
X017038Y011429D02*
X017139Y011429D01*
X017107Y011330D02*
X017038Y011330D01*
X017034Y011232D02*
X017518Y011232D01*
X017518Y011330D02*
X017618Y011330D01*
X017618Y011429D02*
X017518Y011429D01*
X017518Y011527D02*
X017618Y011527D01*
X017618Y011626D02*
X017518Y011626D01*
X017518Y011922D02*
X017618Y011922D01*
X017618Y012020D02*
X017518Y012020D01*
X017518Y012119D02*
X017618Y012119D01*
X017618Y012217D02*
X017518Y012217D01*
X017518Y012316D02*
X016619Y012316D01*
X016618Y012217D02*
X016518Y012217D01*
X016518Y012119D02*
X016618Y012119D01*
X016618Y012020D02*
X016518Y012020D01*
X016518Y011922D02*
X016618Y011922D01*
X016292Y011724D02*
X014845Y011724D01*
X014943Y011626D02*
X015293Y011626D01*
X015195Y011527D02*
X014998Y011527D01*
X015038Y011429D02*
X015139Y011429D01*
X015099Y011330D02*
X015038Y011330D01*
X015034Y011232D02*
X015098Y011232D01*
X015102Y011133D02*
X014993Y011133D01*
X014932Y011035D02*
X015098Y011035D01*
X015000Y010936D02*
X014831Y010936D01*
X014901Y010838D02*
X014338Y010838D01*
X014240Y010739D02*
X014803Y010739D01*
X014704Y010640D02*
X014141Y010640D01*
X014043Y010542D02*
X014605Y010542D01*
X014847Y010246D02*
X017918Y010246D01*
X017918Y010148D02*
X014749Y010148D01*
X014946Y010345D02*
X017918Y010345D01*
X017918Y010443D02*
X015044Y010443D01*
X015143Y010542D02*
X017918Y010542D01*
X017918Y010640D02*
X015241Y010640D01*
X015340Y010739D02*
X017918Y010739D01*
X017918Y010838D02*
X017819Y010838D01*
X017618Y010838D02*
X017518Y010838D01*
X017518Y010936D02*
X017618Y010936D01*
X017618Y011035D02*
X017518Y011035D01*
X017518Y011133D02*
X017618Y011133D01*
X017317Y010838D02*
X015834Y010838D01*
X015933Y010936D02*
X016306Y010936D01*
X016205Y011035D02*
X015994Y011035D01*
X016034Y011133D02*
X016144Y011133D01*
X016103Y011232D02*
X016038Y011232D01*
X015997Y011429D02*
X016098Y011429D01*
X016139Y011527D02*
X015942Y011527D01*
X015843Y011626D02*
X016193Y011626D01*
X016271Y011922D02*
X015866Y011922D01*
X015956Y012020D02*
X016181Y012020D01*
X016129Y012119D02*
X016008Y012119D01*
X016033Y012217D02*
X016103Y012217D01*
X016116Y012414D02*
X016021Y012414D01*
X015980Y012513D02*
X016156Y012513D01*
X016229Y012611D02*
X015908Y012611D01*
X015619Y012316D02*
X016518Y012316D01*
X016908Y012611D02*
X017229Y012611D01*
X017156Y012513D02*
X016980Y012513D01*
X017021Y012414D02*
X017116Y012414D01*
X017103Y012217D02*
X017033Y012217D01*
X017008Y012119D02*
X017129Y012119D01*
X017181Y012020D02*
X016956Y012020D01*
X016866Y011922D02*
X017271Y011922D01*
X017831Y011626D02*
X017918Y011626D01*
X017109Y011133D02*
X016993Y011133D01*
X016932Y011035D02*
X017144Y011035D01*
X017205Y010936D02*
X016831Y010936D01*
X017918Y010049D02*
X012800Y010049D01*
X012702Y009951D02*
X017918Y009951D01*
X017918Y009852D02*
X012603Y009852D01*
X012504Y009754D02*
X016324Y009754D01*
X016318Y009655D02*
X015399Y009655D01*
X015415Y009556D02*
X016318Y009556D01*
X016318Y009458D02*
X015415Y009458D01*
X013998Y011035D02*
X013994Y011035D01*
X014034Y011133D02*
X014097Y011133D01*
X014103Y011232D02*
X014038Y011232D01*
X013997Y011429D02*
X014098Y011429D01*
X014139Y011527D02*
X013942Y011527D01*
X013843Y011626D02*
X014193Y011626D01*
X014292Y011724D02*
X012845Y011724D01*
X012943Y011626D02*
X013293Y011626D01*
X013195Y011527D02*
X012998Y011527D01*
X013038Y011429D02*
X013139Y011429D01*
X013099Y011330D02*
X013038Y011330D01*
X013034Y011232D02*
X013098Y011232D01*
X013102Y011133D02*
X012993Y011133D01*
X012932Y011035D02*
X013098Y011035D01*
X013000Y010936D02*
X012831Y010936D01*
X012198Y011035D02*
X011994Y011035D01*
X012034Y011133D02*
X012144Y011133D01*
X012103Y011232D02*
X012038Y011232D01*
X011997Y011429D02*
X012098Y011429D01*
X012139Y011527D02*
X011942Y011527D01*
X011843Y011626D02*
X012193Y011626D01*
X012292Y011724D02*
X010845Y011724D01*
X010943Y011626D02*
X011293Y011626D01*
X011195Y011527D02*
X010998Y011527D01*
X011038Y011429D02*
X011139Y011429D01*
X011099Y011330D02*
X011038Y011330D01*
X011034Y011232D02*
X011098Y011232D01*
X011102Y011133D02*
X010993Y011133D01*
X010968Y011035D02*
X011143Y011035D01*
X011178Y010936D02*
X010968Y010936D01*
X010968Y010838D02*
X011178Y010838D01*
X011178Y010739D02*
X010968Y010739D01*
X010968Y010640D02*
X011178Y010640D01*
X011178Y010542D02*
X010968Y010542D01*
X010968Y010443D02*
X011178Y010443D01*
X011178Y010345D02*
X010968Y010345D01*
X010968Y010246D02*
X011178Y010246D01*
X011178Y010148D02*
X010968Y010148D01*
X010968Y010049D02*
X011178Y010049D01*
X011178Y009951D02*
X010968Y009951D01*
X010968Y009852D02*
X011178Y009852D01*
X011178Y009754D02*
X010968Y009754D01*
X010968Y009655D02*
X011178Y009655D01*
X011178Y009556D02*
X010968Y009556D01*
X010968Y009458D02*
X011178Y009458D01*
X011178Y009359D02*
X010968Y009359D01*
X010968Y009261D02*
X011178Y009261D01*
X011178Y009162D02*
X010968Y009162D01*
X010968Y009064D02*
X011178Y009064D01*
X011178Y008965D02*
X010968Y008965D01*
X010968Y008867D02*
X011178Y008867D01*
X011178Y008768D02*
X010968Y008768D01*
X010968Y008670D02*
X011178Y008670D01*
X011166Y008571D02*
X011178Y008571D01*
X010588Y008670D02*
X010468Y008670D01*
X010419Y008768D02*
X010588Y008768D01*
X010588Y008867D02*
X010388Y008867D01*
X010388Y008965D02*
X010588Y008965D01*
X010588Y009064D02*
X010388Y009064D01*
X010388Y009162D02*
X010588Y009162D01*
X010588Y009261D02*
X010388Y009261D01*
X010377Y009359D02*
X010588Y009359D01*
X010588Y009458D02*
X009698Y009458D01*
X009698Y009556D02*
X010588Y009556D01*
X010588Y009655D02*
X009698Y009655D01*
X009698Y009754D02*
X010588Y009754D01*
X010588Y009852D02*
X009698Y009852D01*
X009698Y009951D02*
X010588Y009951D01*
X010588Y010049D02*
X009698Y010049D01*
X009698Y010148D02*
X010588Y010148D01*
X010588Y010246D02*
X009698Y010246D01*
X009698Y010345D02*
X010588Y010345D01*
X010588Y010443D02*
X009698Y010443D01*
X009698Y010542D02*
X010588Y010542D01*
X010588Y010640D02*
X009698Y010640D01*
X009698Y010739D02*
X010588Y010739D01*
X010588Y010838D02*
X009834Y010838D01*
X009933Y010936D02*
X010306Y010936D01*
X010205Y011035D02*
X009994Y011035D01*
X010034Y011133D02*
X010144Y011133D01*
X010103Y011232D02*
X010038Y011232D01*
X009997Y011429D02*
X010098Y011429D01*
X010139Y011527D02*
X009942Y011527D01*
X009843Y011626D02*
X010193Y011626D01*
X010292Y011724D02*
X008845Y011724D01*
X008943Y011626D02*
X009293Y011626D01*
X009195Y011527D02*
X008998Y011527D01*
X009038Y011429D02*
X009139Y011429D01*
X009099Y011330D02*
X009038Y011330D01*
X009034Y011232D02*
X009098Y011232D01*
X009102Y011133D02*
X009040Y011133D01*
X009139Y011035D02*
X009143Y011035D01*
X008897Y010739D02*
X008084Y010739D01*
X007986Y010838D02*
X008798Y010838D01*
X008995Y010640D02*
X008183Y010640D01*
X008281Y010542D02*
X009008Y010542D01*
X009008Y010443D02*
X008380Y010443D01*
X008478Y010345D02*
X009008Y010345D01*
X009008Y010246D02*
X008577Y010246D01*
X008675Y010148D02*
X009008Y010148D01*
X009008Y010049D02*
X008774Y010049D01*
X008872Y009951D02*
X009008Y009951D01*
X009008Y009852D02*
X008971Y009852D01*
X009828Y009359D02*
X009829Y009359D01*
X009828Y009261D02*
X009829Y009261D01*
X009828Y009162D02*
X009829Y009162D01*
X009828Y009064D02*
X009829Y009064D01*
X009828Y008996D02*
X009828Y008396D01*
X009818Y008386D01*
X010068Y008374D02*
X007068Y008374D01*
X007068Y008403D02*
X007198Y008533D01*
X007198Y008556D01*
X007308Y008556D01*
X007308Y008996D01*
X007309Y008996D01*
X007309Y008996D01*
X007378Y008996D01*
X007378Y008996D01*
X007309Y008996D01*
X007309Y008556D01*
X007428Y008556D01*
X007458Y008564D01*
X007466Y008556D01*
X007790Y008556D01*
X008100Y008556D01*
X008420Y008556D01*
X008730Y008556D01*
X009040Y008556D01*
X009360Y008556D01*
X009670Y008556D01*
X009679Y008564D01*
X009709Y008556D01*
X009828Y008556D01*
X009828Y008996D01*
X009829Y008996D01*
X009829Y008556D01*
X009948Y008556D01*
X009970Y008562D01*
X009976Y008556D01*
X010065Y008556D01*
X010068Y008553D01*
X010068Y008269D01*
X009735Y007936D01*
X007501Y007936D01*
X007151Y008286D01*
X007068Y008286D01*
X007068Y008403D01*
X007138Y008473D02*
X010068Y008473D01*
X010268Y008636D02*
X010168Y008736D01*
X010168Y008966D01*
X010138Y008996D01*
X009829Y008965D02*
X009828Y008965D01*
X009828Y008867D02*
X009829Y008867D01*
X009828Y008768D02*
X009829Y008768D01*
X009828Y008670D02*
X009829Y008670D01*
X009828Y008571D02*
X009829Y008571D01*
X010268Y008636D02*
X010268Y008186D01*
X009818Y007736D01*
X007418Y007736D01*
X007418Y006736D01*
X007168Y006486D01*
X007368Y006403D02*
X007618Y006653D01*
X007618Y006819D01*
X007618Y007536D01*
X009735Y007536D01*
X009901Y007536D01*
X010338Y007973D01*
X010338Y007884D01*
X010338Y007564D01*
X010338Y007254D01*
X010338Y006934D01*
X010338Y006624D01*
X010338Y006314D01*
X010338Y005994D01*
X010338Y005726D01*
X009411Y005726D01*
X009018Y006119D01*
X008901Y006236D01*
X007368Y006236D01*
X007368Y006403D01*
X010338Y006403D01*
X010338Y006305D02*
X007368Y006305D01*
X007467Y006502D02*
X010338Y006502D01*
X010338Y006600D02*
X007565Y006600D01*
X007618Y006699D02*
X010338Y006699D01*
X010338Y006797D02*
X007618Y006797D01*
X007618Y006896D02*
X010338Y006896D01*
X010338Y006994D02*
X007618Y006994D01*
X007618Y007093D02*
X010338Y007093D01*
X010338Y007191D02*
X007618Y007191D01*
X007618Y007290D02*
X010338Y007290D01*
X010338Y007389D02*
X007618Y007389D01*
X007618Y007487D02*
X010338Y007487D01*
X010338Y007586D02*
X009951Y007586D01*
X010049Y007684D02*
X010338Y007684D01*
X010338Y007783D02*
X010148Y007783D01*
X010246Y007881D02*
X010338Y007881D01*
X009976Y008177D02*
X007260Y008177D01*
X007162Y008275D02*
X010068Y008275D01*
X009878Y008078D02*
X007359Y008078D01*
X007457Y007980D02*
X009779Y007980D01*
X007628Y008996D02*
X007618Y009006D01*
X007618Y009436D01*
X007568Y009486D01*
X007068Y009486D01*
X007018Y009436D01*
X007018Y009016D01*
X006998Y008996D01*
X006998Y008616D01*
X006868Y008486D01*
X006868Y008086D01*
X007068Y008086D01*
X007418Y007736D01*
X007218Y007653D02*
X007218Y006819D01*
X007085Y006686D01*
X006798Y006686D01*
X006798Y006948D01*
X006792Y006954D01*
X006798Y006976D01*
X006798Y007096D01*
X006359Y007096D01*
X006359Y007096D01*
X006798Y007096D01*
X006798Y007216D01*
X006790Y007246D01*
X006798Y007254D01*
X006798Y007578D01*
X006798Y007886D01*
X006951Y007886D01*
X006985Y007886D01*
X007218Y007653D01*
X007187Y007684D02*
X006798Y007684D01*
X006798Y007586D02*
X007218Y007586D01*
X007218Y007487D02*
X006798Y007487D01*
X006798Y007389D02*
X007218Y007389D01*
X007218Y007290D02*
X006798Y007290D01*
X006798Y007191D02*
X007218Y007191D01*
X007218Y007093D02*
X006798Y007093D01*
X006798Y006994D02*
X007218Y006994D01*
X007218Y006896D02*
X006798Y006896D01*
X006798Y006797D02*
X007197Y006797D01*
X007098Y006699D02*
X006798Y006699D01*
X006798Y006286D02*
X006968Y006286D01*
X006968Y006169D01*
X006968Y006003D01*
X006968Y005569D01*
X006968Y005403D01*
X007356Y005016D01*
X007146Y005016D01*
X006836Y005016D01*
X006748Y004928D01*
X006748Y004224D01*
X006808Y004164D01*
X006808Y003485D01*
X006808Y003327D01*
X007372Y002764D01*
X007302Y002735D01*
X007170Y002602D01*
X007098Y002430D01*
X007098Y002243D01*
X007170Y002070D01*
X007264Y001976D01*
X006969Y001976D01*
X007038Y002143D01*
X007038Y002330D01*
X006967Y002502D01*
X006835Y002635D01*
X006662Y002706D01*
X006475Y002706D01*
X006399Y002675D01*
X006258Y002815D01*
X006258Y004966D01*
X006710Y004966D01*
X006798Y005054D01*
X006798Y005378D01*
X006798Y005688D01*
X006798Y006008D01*
X006798Y006286D01*
X006798Y006206D02*
X006968Y006206D01*
X006968Y006107D02*
X006798Y006107D01*
X006798Y006009D02*
X006968Y006009D01*
X006968Y005910D02*
X006798Y005910D01*
X006798Y005812D02*
X006968Y005812D01*
X006968Y005713D02*
X006798Y005713D01*
X006798Y005615D02*
X006968Y005615D01*
X006968Y005516D02*
X006798Y005516D01*
X006798Y005418D02*
X006968Y005418D01*
X007052Y005319D02*
X006798Y005319D01*
X006798Y005221D02*
X007151Y005221D01*
X007250Y005122D02*
X006798Y005122D01*
X006768Y005024D02*
X007348Y005024D01*
X007618Y005036D02*
X007618Y004586D01*
X007628Y004576D01*
X007918Y004576D02*
X007918Y005336D01*
X007818Y005436D01*
X007618Y005319D02*
X008068Y005319D01*
X008068Y005403D02*
X008068Y005013D01*
X008058Y005016D01*
X007939Y005016D01*
X007939Y004577D01*
X007938Y004577D01*
X007938Y005016D01*
X007819Y005016D01*
X007818Y005016D01*
X007818Y005119D01*
X007701Y005236D01*
X007368Y005569D01*
X007368Y005836D01*
X008103Y005836D01*
X008050Y005709D01*
X008050Y005563D01*
X008068Y005519D01*
X008068Y005403D01*
X008068Y005418D02*
X007520Y005418D01*
X007421Y005516D02*
X008068Y005516D01*
X008050Y005615D02*
X007368Y005615D01*
X007368Y005713D02*
X008052Y005713D01*
X008093Y005812D02*
X007368Y005812D01*
X007168Y006086D02*
X007168Y005486D01*
X007618Y005036D01*
X007818Y005024D02*
X008068Y005024D01*
X008068Y005122D02*
X007815Y005122D01*
X007717Y005221D02*
X008068Y005221D01*
X007939Y004925D02*
X007938Y004925D01*
X007938Y004826D02*
X007939Y004826D01*
X007938Y004728D02*
X007939Y004728D01*
X007938Y004629D02*
X007939Y004629D01*
X007938Y004576D02*
X007918Y004576D01*
X007938Y004531D02*
X007939Y004531D01*
X007938Y004432D02*
X007939Y004432D01*
X007938Y004334D02*
X007939Y004334D01*
X007938Y004235D02*
X007939Y004235D01*
X007938Y004137D02*
X007939Y004137D01*
X008060Y004137D02*
X008096Y004137D01*
X007817Y004137D02*
X007791Y004137D01*
X007508Y004038D02*
X008688Y004038D01*
X008688Y003940D02*
X007508Y003940D01*
X007508Y003841D02*
X008688Y003841D01*
X008688Y003742D02*
X007508Y003742D01*
X006808Y003742D02*
X006258Y003742D01*
X006258Y003644D02*
X006808Y003644D01*
X006808Y003545D02*
X006258Y003545D01*
X006258Y003447D02*
X006808Y003447D01*
X006808Y003348D02*
X006258Y003348D01*
X006258Y003250D02*
X006886Y003250D01*
X006985Y003151D02*
X006258Y003151D01*
X006258Y003053D02*
X007083Y003053D01*
X007182Y002954D02*
X006258Y002954D01*
X006258Y002856D02*
X007280Y002856D01*
X007356Y002757D02*
X006316Y002757D01*
X006777Y002658D02*
X007226Y002658D01*
X007152Y002560D02*
X006909Y002560D01*
X006984Y002461D02*
X007112Y002461D01*
X007098Y002363D02*
X007025Y002363D01*
X007038Y002264D02*
X007098Y002264D01*
X007130Y002166D02*
X007038Y002166D01*
X007007Y002067D02*
X007173Y002067D01*
X007214Y001596D02*
X006923Y001596D01*
X006927Y001592D01*
X006970Y001532D01*
X007004Y001467D01*
X007027Y001396D01*
X007036Y001336D01*
X006619Y001336D01*
X006619Y001236D01*
X007036Y001236D01*
X007027Y001176D01*
X007004Y001106D01*
X006970Y001040D01*
X006927Y000980D01*
X006883Y000936D01*
X007254Y000936D01*
X007210Y000980D01*
X007166Y001040D01*
X007133Y001106D01*
X007110Y001176D01*
X007100Y001236D01*
X007518Y001236D01*
X007518Y001336D01*
X007100Y001336D01*
X007110Y001396D01*
X007133Y001467D01*
X007166Y001532D01*
X007210Y001592D01*
X007214Y001596D01*
X007197Y001574D02*
X006940Y001574D01*
X006999Y001476D02*
X007138Y001476D01*
X007107Y001377D02*
X007030Y001377D01*
X007027Y001180D02*
X007109Y001180D01*
X007145Y001082D02*
X006992Y001082D01*
X006929Y000983D02*
X007207Y000983D01*
X007518Y001279D02*
X006619Y001279D01*
X006568Y001286D02*
X007568Y001286D01*
X008171Y001870D02*
X008270Y001870D01*
X008858Y002757D02*
X009329Y002757D01*
X009230Y002856D02*
X008956Y002856D01*
X009055Y002954D02*
X009132Y002954D01*
X010482Y003841D02*
X011367Y003841D01*
X011367Y003940D02*
X010384Y003940D01*
X010328Y004038D02*
X011377Y004038D01*
X011685Y004038D02*
X011782Y004038D01*
X011782Y003940D02*
X011685Y003940D01*
X011685Y003841D02*
X011782Y003841D01*
X011734Y003786D02*
X011734Y004221D01*
X011168Y004786D01*
X010369Y005024D02*
X009176Y005024D01*
X009219Y005122D02*
X010338Y005122D01*
X010338Y005221D02*
X009236Y005221D01*
X009232Y005319D02*
X010338Y005319D01*
X010338Y005812D02*
X009325Y005812D01*
X009227Y005910D02*
X010338Y005910D01*
X010338Y006009D02*
X009128Y006009D01*
X009030Y006107D02*
X010338Y006107D01*
X010338Y006206D02*
X008931Y006206D01*
X008418Y005636D02*
X008268Y005486D01*
X008268Y004586D01*
X008258Y004576D01*
X008568Y004576D02*
X008568Y004936D01*
X008868Y005236D01*
X006748Y004925D02*
X006258Y004925D01*
X006258Y004826D02*
X006748Y004826D01*
X006748Y004728D02*
X006258Y004728D01*
X006258Y004629D02*
X006748Y004629D01*
X006748Y004531D02*
X006258Y004531D01*
X006258Y004432D02*
X006748Y004432D01*
X006748Y004334D02*
X006258Y004334D01*
X006258Y004235D02*
X006748Y004235D01*
X006808Y004137D02*
X006258Y004137D01*
X006258Y004038D02*
X006808Y004038D01*
X006808Y003940D02*
X006258Y003940D01*
X006258Y003841D02*
X006808Y003841D01*
X005278Y004137D02*
X004035Y004137D01*
X004038Y004038D02*
X005202Y004038D01*
X005103Y003940D02*
X004037Y003940D01*
X003996Y003841D02*
X005005Y003841D01*
X004906Y003742D02*
X003939Y003742D01*
X003841Y003644D02*
X004807Y003644D01*
X004709Y003545D02*
X003346Y003545D01*
X003258Y003447D02*
X004610Y003447D01*
X004512Y003348D02*
X003258Y003348D01*
X003258Y003250D02*
X004413Y003250D01*
X004315Y003151D02*
X003258Y003151D01*
X003258Y003053D02*
X004216Y003053D01*
X004118Y002954D02*
X003258Y002954D01*
X003258Y002856D02*
X004019Y002856D01*
X003921Y002757D02*
X003780Y002757D01*
X003356Y002757D02*
X003258Y002757D01*
X002878Y002757D02*
X001778Y002757D01*
X001749Y002772D02*
X001678Y002795D01*
X001618Y002804D01*
X001618Y002386D01*
X001518Y002386D01*
X001518Y002804D01*
X001458Y002795D01*
X001388Y002772D01*
X001322Y002738D01*
X001262Y002695D01*
X001218Y002651D01*
X001218Y004713D01*
X001997Y004713D01*
X002084Y004801D01*
X002012Y004728D02*
X003867Y004728D01*
X003867Y004629D02*
X001218Y004629D01*
X001218Y004531D02*
X003878Y004531D01*
X003837Y004432D02*
X005278Y004432D01*
X005278Y004334D02*
X003935Y004334D01*
X003995Y004235D02*
X005278Y004235D01*
X005269Y004531D02*
X005278Y004531D01*
X005269Y004629D02*
X005278Y004629D01*
X005269Y004728D02*
X005278Y004728D01*
X005269Y004826D02*
X005278Y004826D01*
X005218Y005086D02*
X005218Y005836D01*
X005618Y006236D01*
X005618Y006536D01*
X006358Y007096D02*
X006968Y007096D01*
X006968Y007086D01*
X007089Y007783D02*
X006798Y007783D01*
X006798Y007881D02*
X006990Y007881D01*
X006868Y008086D02*
X006398Y008086D01*
X006358Y008046D01*
X006348Y008036D01*
X004268Y008036D01*
X004434Y008236D02*
X004434Y008439D01*
X004512Y008439D01*
X004568Y008495D01*
X004594Y008469D01*
X004629Y008450D01*
X004667Y008439D01*
X004854Y008439D01*
X004854Y008737D01*
X004951Y008737D01*
X004951Y008439D01*
X005139Y008439D01*
X005177Y008450D01*
X005212Y008469D01*
X005240Y008497D01*
X005259Y008531D01*
X005269Y008570D01*
X005269Y008738D01*
X004952Y008738D01*
X004952Y008835D01*
X005269Y008835D01*
X005269Y009003D01*
X005259Y009041D01*
X005240Y009075D01*
X005212Y009103D01*
X005177Y009123D01*
X005139Y009133D01*
X004951Y009133D01*
X004951Y008835D01*
X004854Y008835D01*
X004854Y009133D01*
X004667Y009133D01*
X004629Y009123D01*
X004594Y009103D01*
X004568Y009077D01*
X004512Y009133D01*
X004434Y009133D01*
X004434Y009439D01*
X004512Y009439D01*
X004568Y009495D01*
X004594Y009469D01*
X004629Y009450D01*
X004667Y009439D01*
X004854Y009439D01*
X004854Y009737D01*
X004951Y009737D01*
X004951Y009439D01*
X005139Y009439D01*
X005177Y009450D01*
X005212Y009469D01*
X005240Y009497D01*
X005259Y009531D01*
X005269Y009570D01*
X005269Y009738D01*
X004952Y009738D01*
X004952Y009835D01*
X005269Y009835D01*
X005269Y010003D01*
X005264Y010021D01*
X006168Y009117D01*
X006168Y008606D01*
X006006Y008606D01*
X005918Y008518D01*
X005918Y008236D01*
X004434Y008236D01*
X004434Y008275D02*
X005918Y008275D01*
X005918Y008374D02*
X004434Y008374D01*
X004546Y008473D02*
X004591Y008473D01*
X004854Y008473D02*
X004951Y008473D01*
X004951Y008571D02*
X004854Y008571D01*
X004854Y008670D02*
X004951Y008670D01*
X004952Y008768D02*
X006168Y008768D01*
X006168Y008670D02*
X005269Y008670D01*
X005269Y008571D02*
X005971Y008571D01*
X005918Y008473D02*
X005215Y008473D01*
X004903Y008786D02*
X004903Y009281D01*
X005464Y009281D01*
X005468Y009286D01*
X005246Y009064D02*
X006168Y009064D01*
X006168Y008965D02*
X005269Y008965D01*
X005269Y008867D02*
X006168Y008867D01*
X006123Y009162D02*
X004434Y009162D01*
X004434Y009261D02*
X006025Y009261D01*
X005926Y009359D02*
X004434Y009359D01*
X004531Y009458D02*
X004614Y009458D01*
X004854Y009458D02*
X004951Y009458D01*
X004951Y009556D02*
X004854Y009556D01*
X004854Y009655D02*
X004951Y009655D01*
X004952Y009754D02*
X005532Y009754D01*
X005434Y009852D02*
X005269Y009852D01*
X005269Y009951D02*
X005335Y009951D01*
X005158Y010128D02*
X004690Y010596D01*
X004097Y010596D01*
X003940Y010596D01*
X003738Y010798D01*
X003662Y010766D01*
X003475Y010766D01*
X003383Y010804D01*
X004054Y010133D01*
X004512Y010133D01*
X004568Y010077D01*
X004594Y010103D01*
X004629Y010123D01*
X004667Y010133D01*
X004854Y010133D01*
X004854Y009835D01*
X004951Y009835D01*
X004951Y010133D01*
X005139Y010133D01*
X005158Y010128D01*
X005138Y010148D02*
X004040Y010148D01*
X003941Y010246D02*
X005039Y010246D01*
X004941Y010345D02*
X003842Y010345D01*
X003744Y010443D02*
X004842Y010443D01*
X004744Y010542D02*
X003645Y010542D01*
X003547Y010640D02*
X003895Y010640D01*
X003797Y010739D02*
X003448Y010739D01*
X003080Y010542D02*
X001218Y010542D01*
X001218Y010640D02*
X002981Y010640D01*
X002883Y010739D02*
X001218Y010739D01*
X001518Y010838D02*
X001618Y010838D01*
X001618Y010936D02*
X001518Y010936D01*
X001518Y011035D02*
X001618Y011035D01*
X001618Y011133D02*
X001518Y011133D01*
X001619Y011232D02*
X002103Y011232D01*
X002144Y011133D02*
X002038Y011133D01*
X002038Y011035D02*
X002205Y011035D01*
X002306Y010936D02*
X002038Y010936D01*
X002016Y010838D02*
X002784Y010838D01*
X003054Y011133D02*
X003102Y011133D01*
X003098Y011232D02*
X003034Y011232D01*
X003038Y011330D02*
X003099Y011330D01*
X003139Y011429D02*
X003038Y011429D01*
X002998Y011527D02*
X003195Y011527D01*
X003293Y011626D02*
X002943Y011626D01*
X002845Y011724D02*
X004292Y011724D01*
X004193Y011626D02*
X003843Y011626D01*
X003942Y011527D02*
X004139Y011527D01*
X004098Y011429D02*
X003997Y011429D01*
X004038Y011232D02*
X004103Y011232D01*
X004144Y011133D02*
X004034Y011133D01*
X004039Y011035D02*
X004205Y011035D01*
X005040Y011133D02*
X005102Y011133D01*
X005098Y011232D02*
X005034Y011232D01*
X005038Y011330D02*
X005099Y011330D01*
X005139Y011429D02*
X005038Y011429D01*
X004998Y011527D02*
X005195Y011527D01*
X005293Y011626D02*
X004943Y011626D01*
X004845Y011724D02*
X006292Y011724D01*
X006193Y011626D02*
X005843Y011626D01*
X005942Y011527D02*
X006139Y011527D01*
X006098Y011429D02*
X005997Y011429D01*
X006038Y011232D02*
X006103Y011232D01*
X006144Y011133D02*
X006034Y011133D01*
X005994Y011035D02*
X006205Y011035D01*
X006306Y010936D02*
X005933Y010936D01*
X005834Y010838D02*
X006798Y010838D01*
X006897Y010739D02*
X005784Y010739D01*
X005883Y010640D02*
X006995Y010640D01*
X007094Y010542D02*
X005981Y010542D01*
X006080Y010443D02*
X007492Y010443D01*
X007591Y010345D02*
X006178Y010345D01*
X006277Y010246D02*
X007689Y010246D01*
X007933Y010936D02*
X008306Y010936D01*
X008205Y011035D02*
X007994Y011035D01*
X008034Y011133D02*
X008144Y011133D01*
X008103Y011232D02*
X008038Y011232D01*
X007997Y011429D02*
X008098Y011429D01*
X008139Y011527D02*
X007942Y011527D01*
X007843Y011626D02*
X008193Y011626D01*
X008292Y011724D02*
X006845Y011724D01*
X006943Y011626D02*
X007293Y011626D01*
X007195Y011527D02*
X006998Y011527D01*
X007038Y011429D02*
X007139Y011429D01*
X007099Y011330D02*
X007038Y011330D01*
X007034Y011232D02*
X007098Y011232D01*
X007102Y011133D02*
X007040Y011133D01*
X007139Y011035D02*
X007143Y011035D01*
X007271Y011922D02*
X006866Y011922D01*
X006956Y012020D02*
X007181Y012020D01*
X007129Y012119D02*
X007008Y012119D01*
X007033Y012217D02*
X007103Y012217D01*
X007116Y012414D02*
X007021Y012414D01*
X006980Y012513D02*
X007156Y012513D01*
X007229Y012611D02*
X006908Y012611D01*
X006619Y012316D02*
X007518Y012316D01*
X007518Y012217D02*
X007618Y012217D01*
X007618Y012119D02*
X007518Y012119D01*
X007518Y012020D02*
X007618Y012020D01*
X007618Y011922D02*
X007518Y011922D01*
X007866Y011922D02*
X008271Y011922D01*
X008181Y012020D02*
X007956Y012020D01*
X008008Y012119D02*
X008129Y012119D01*
X008103Y012217D02*
X008033Y012217D01*
X008021Y012414D02*
X008116Y012414D01*
X008156Y012513D02*
X007980Y012513D01*
X007908Y012611D02*
X008229Y012611D01*
X008518Y012316D02*
X007619Y012316D01*
X008518Y012217D02*
X008618Y012217D01*
X008618Y012119D02*
X008518Y012119D01*
X008518Y012020D02*
X008618Y012020D01*
X008618Y011922D02*
X008518Y011922D01*
X008866Y011922D02*
X009271Y011922D01*
X009181Y012020D02*
X008956Y012020D01*
X009008Y012119D02*
X009129Y012119D01*
X009103Y012217D02*
X009033Y012217D01*
X009021Y012414D02*
X009116Y012414D01*
X009156Y012513D02*
X008980Y012513D01*
X008908Y012611D02*
X009229Y012611D01*
X009518Y012316D02*
X008619Y012316D01*
X009518Y012217D02*
X009618Y012217D01*
X009618Y012119D02*
X009518Y012119D01*
X009518Y012020D02*
X009618Y012020D01*
X009618Y011922D02*
X009518Y011922D01*
X009866Y011922D02*
X010271Y011922D01*
X010181Y012020D02*
X009956Y012020D01*
X010008Y012119D02*
X010129Y012119D01*
X010103Y012217D02*
X010033Y012217D01*
X010021Y012414D02*
X010116Y012414D01*
X010156Y012513D02*
X009980Y012513D01*
X009908Y012611D02*
X010229Y012611D01*
X010518Y012316D02*
X009619Y012316D01*
X010518Y012217D02*
X010618Y012217D01*
X010618Y012119D02*
X010518Y012119D01*
X010518Y012020D02*
X010618Y012020D01*
X010618Y011922D02*
X010518Y011922D01*
X010866Y011922D02*
X011271Y011922D01*
X011181Y012020D02*
X010956Y012020D01*
X011008Y012119D02*
X011129Y012119D01*
X011103Y012217D02*
X011033Y012217D01*
X011021Y012414D02*
X011116Y012414D01*
X011156Y012513D02*
X010980Y012513D01*
X010908Y012611D02*
X011229Y012611D01*
X011518Y012316D02*
X010619Y012316D01*
X011518Y012217D02*
X011618Y012217D01*
X011618Y012119D02*
X011518Y012119D01*
X011518Y012020D02*
X011618Y012020D01*
X011618Y011922D02*
X011518Y011922D01*
X011866Y011922D02*
X012271Y011922D01*
X012181Y012020D02*
X011956Y012020D01*
X012008Y012119D02*
X012129Y012119D01*
X012103Y012217D02*
X012033Y012217D01*
X012021Y012414D02*
X012116Y012414D01*
X012156Y012513D02*
X011980Y012513D01*
X011908Y012611D02*
X012229Y012611D01*
X012518Y012316D02*
X011619Y012316D01*
X012518Y012217D02*
X012618Y012217D01*
X012618Y012119D02*
X012518Y012119D01*
X012518Y012020D02*
X012618Y012020D01*
X012618Y011922D02*
X012518Y011922D01*
X012866Y011922D02*
X013271Y011922D01*
X013181Y012020D02*
X012956Y012020D01*
X013008Y012119D02*
X013129Y012119D01*
X013103Y012217D02*
X013033Y012217D01*
X013021Y012414D02*
X013116Y012414D01*
X013156Y012513D02*
X012980Y012513D01*
X012908Y012611D02*
X013229Y012611D01*
X013518Y012316D02*
X012619Y012316D01*
X013518Y012217D02*
X013618Y012217D01*
X013618Y012119D02*
X013518Y012119D01*
X013518Y012020D02*
X013618Y012020D01*
X013618Y011922D02*
X013518Y011922D01*
X013866Y011922D02*
X014271Y011922D01*
X014181Y012020D02*
X013956Y012020D01*
X014008Y012119D02*
X014129Y012119D01*
X014103Y012217D02*
X014033Y012217D01*
X014021Y012414D02*
X014116Y012414D01*
X014156Y012513D02*
X013980Y012513D01*
X013908Y012611D02*
X014229Y012611D01*
X014518Y012316D02*
X013619Y012316D01*
X014518Y012217D02*
X014618Y012217D01*
X014618Y012119D02*
X014518Y012119D01*
X014518Y012020D02*
X014618Y012020D01*
X014618Y011922D02*
X014518Y011922D01*
X014866Y011922D02*
X015271Y011922D01*
X015181Y012020D02*
X014956Y012020D01*
X015008Y012119D02*
X015129Y012119D01*
X015103Y012217D02*
X015033Y012217D01*
X015021Y012414D02*
X015116Y012414D01*
X015156Y012513D02*
X014980Y012513D01*
X014908Y012611D02*
X015229Y012611D01*
X015518Y012316D02*
X014619Y012316D01*
X015518Y012217D02*
X015618Y012217D01*
X015618Y012119D02*
X015518Y012119D01*
X015518Y012020D02*
X015618Y012020D01*
X015618Y011922D02*
X015518Y011922D01*
X012100Y010936D02*
X011933Y010936D01*
X012001Y010838D02*
X011834Y010838D01*
X011903Y010739D02*
X011558Y010739D01*
X011558Y010640D02*
X011804Y010640D01*
X011705Y010542D02*
X011558Y010542D01*
X011558Y010443D02*
X011607Y010443D01*
X007318Y008996D02*
X007318Y008386D01*
X007308Y008571D02*
X007309Y008571D01*
X007308Y008670D02*
X007309Y008670D01*
X007308Y008768D02*
X007309Y008768D01*
X007308Y008867D02*
X007309Y008867D01*
X007308Y008965D02*
X007309Y008965D01*
X007308Y008996D02*
X007318Y008996D01*
X005828Y009458D02*
X005192Y009458D01*
X005266Y009556D02*
X005729Y009556D01*
X005631Y009655D02*
X005269Y009655D01*
X004951Y009852D02*
X004854Y009852D01*
X004903Y009786D02*
X004903Y009281D01*
X004854Y009064D02*
X004951Y009064D01*
X004951Y008965D02*
X004854Y008965D01*
X004854Y008867D02*
X004951Y008867D01*
X004951Y009951D02*
X004854Y009951D01*
X004854Y010049D02*
X004951Y010049D01*
X005139Y011035D02*
X005143Y011035D01*
X005271Y011922D02*
X004866Y011922D01*
X004956Y012020D02*
X005181Y012020D01*
X005129Y012119D02*
X005008Y012119D01*
X005033Y012217D02*
X005103Y012217D01*
X005116Y012414D02*
X005021Y012414D01*
X004980Y012513D02*
X005156Y012513D01*
X005229Y012611D02*
X004908Y012611D01*
X004619Y012316D02*
X005518Y012316D01*
X005518Y012217D02*
X005618Y012217D01*
X005618Y012119D02*
X005518Y012119D01*
X005518Y012020D02*
X005618Y012020D01*
X005618Y011922D02*
X005518Y011922D01*
X005866Y011922D02*
X006271Y011922D01*
X006181Y012020D02*
X005956Y012020D01*
X006008Y012119D02*
X006129Y012119D01*
X006103Y012217D02*
X006033Y012217D01*
X006021Y012414D02*
X006116Y012414D01*
X006156Y012513D02*
X005980Y012513D01*
X005908Y012611D02*
X006229Y012611D01*
X006518Y012316D02*
X005619Y012316D01*
X006518Y012217D02*
X006618Y012217D01*
X006618Y012119D02*
X006518Y012119D01*
X006518Y012020D02*
X006618Y012020D01*
X006618Y011922D02*
X006518Y011922D01*
X004618Y011922D02*
X004518Y011922D01*
X004518Y012020D02*
X004618Y012020D01*
X004618Y012119D02*
X004518Y012119D01*
X004518Y012217D02*
X004618Y012217D01*
X004518Y012316D02*
X003619Y012316D01*
X003618Y012217D02*
X003518Y012217D01*
X003518Y012119D02*
X003618Y012119D01*
X003618Y012020D02*
X003518Y012020D01*
X003518Y011922D02*
X003618Y011922D01*
X003866Y011922D02*
X004271Y011922D01*
X004181Y012020D02*
X003956Y012020D01*
X004008Y012119D02*
X004129Y012119D01*
X004103Y012217D02*
X004033Y012217D01*
X004021Y012414D02*
X004116Y012414D01*
X004156Y012513D02*
X003980Y012513D01*
X003908Y012611D02*
X004229Y012611D01*
X003518Y012316D02*
X002619Y012316D01*
X002618Y012217D02*
X002518Y012217D01*
X002518Y012119D02*
X002618Y012119D01*
X002618Y012020D02*
X002518Y012020D01*
X002518Y011922D02*
X002618Y011922D01*
X002271Y011922D02*
X001866Y011922D01*
X001956Y012020D02*
X002181Y012020D01*
X002129Y012119D02*
X002008Y012119D01*
X002033Y012217D02*
X002103Y012217D01*
X002116Y012414D02*
X002021Y012414D01*
X001980Y012513D02*
X002156Y012513D01*
X002229Y012611D02*
X001908Y012611D01*
X001619Y012316D02*
X002518Y012316D01*
X002908Y012611D02*
X003229Y012611D01*
X003156Y012513D02*
X002980Y012513D01*
X003021Y012414D02*
X003116Y012414D01*
X003103Y012217D02*
X003033Y012217D01*
X003008Y012119D02*
X003129Y012119D01*
X003181Y012020D02*
X002956Y012020D01*
X002866Y011922D02*
X003271Y011922D01*
X001618Y011922D02*
X001518Y011922D01*
X001518Y012020D02*
X001618Y012020D01*
X001618Y012119D02*
X001518Y012119D01*
X001518Y012217D02*
X001618Y012217D01*
X001271Y011922D02*
X001218Y011922D01*
X001518Y011626D02*
X001618Y011626D01*
X001618Y011527D02*
X001518Y011527D01*
X001518Y011429D02*
X001618Y011429D01*
X001618Y011330D02*
X001518Y011330D01*
X003029Y005910D02*
X005018Y005910D01*
X005018Y005812D02*
X003029Y005812D01*
X003029Y005713D02*
X005018Y005713D01*
X005018Y005615D02*
X003029Y005615D01*
X003029Y005516D02*
X005018Y005516D01*
X005018Y005418D02*
X003029Y005418D01*
X003029Y005319D02*
X005018Y005319D01*
X005018Y005221D02*
X003029Y005221D01*
X003029Y005122D02*
X003958Y005122D01*
X003873Y005024D02*
X002957Y005024D01*
X002749Y004472D02*
X002678Y004495D01*
X002618Y004504D01*
X002618Y004086D01*
X002518Y004086D01*
X002518Y003986D01*
X002100Y003986D01*
X002110Y003926D01*
X002133Y003856D01*
X002166Y003790D01*
X002210Y003730D01*
X002262Y003678D01*
X002322Y003634D01*
X002388Y003601D01*
X002458Y003578D01*
X002518Y003568D01*
X002518Y003986D01*
X002618Y003986D01*
X002618Y003568D01*
X002678Y003578D01*
X002749Y003601D01*
X002815Y003634D01*
X002874Y003678D01*
X002927Y003730D01*
X002970Y003790D01*
X003004Y003856D01*
X003027Y003926D01*
X003036Y003986D01*
X002619Y003986D01*
X002619Y004086D01*
X003036Y004086D01*
X003027Y004146D01*
X003004Y004217D01*
X002970Y004282D01*
X002927Y004342D01*
X002874Y004395D01*
X002815Y004438D01*
X002749Y004472D01*
X002823Y004432D02*
X003300Y004432D01*
X003201Y004334D02*
X002933Y004334D01*
X002994Y004235D02*
X003142Y004235D01*
X003101Y004137D02*
X003028Y004137D01*
X003098Y004038D02*
X002619Y004038D01*
X002568Y004036D02*
X002568Y003736D01*
X001568Y002736D01*
X001568Y002336D01*
X001568Y001286D01*
X002568Y001286D01*
X003568Y001286D01*
X004568Y001286D01*
X005568Y001286D01*
X006568Y001286D01*
X006518Y001279D02*
X005619Y001279D01*
X005619Y001236D02*
X005619Y001336D01*
X006036Y001336D01*
X006027Y001396D01*
X006004Y001467D01*
X005970Y001532D01*
X005927Y001592D01*
X005923Y001596D01*
X006214Y001596D01*
X006210Y001592D01*
X006166Y001532D01*
X006133Y001467D01*
X006110Y001396D01*
X006100Y001336D01*
X006518Y001336D01*
X006518Y001236D01*
X006100Y001236D01*
X006110Y001176D01*
X006133Y001106D01*
X006166Y001040D01*
X006210Y000980D01*
X006254Y000936D01*
X005883Y000936D01*
X005927Y000980D01*
X005970Y001040D01*
X006004Y001106D01*
X006027Y001176D01*
X006036Y001236D01*
X005619Y001236D01*
X005518Y001236D02*
X005100Y001236D01*
X005110Y001176D01*
X005133Y001106D01*
X005166Y001040D01*
X005210Y000980D01*
X005254Y000936D01*
X004883Y000936D01*
X004927Y000980D01*
X004970Y001040D01*
X005004Y001106D01*
X005027Y001176D01*
X005036Y001236D01*
X004619Y001236D01*
X004619Y001336D01*
X005036Y001336D01*
X005027Y001396D01*
X005004Y001467D01*
X004970Y001532D01*
X004927Y001592D01*
X004923Y001596D01*
X005214Y001596D01*
X005210Y001592D01*
X005166Y001532D01*
X005133Y001467D01*
X005110Y001396D01*
X005100Y001336D01*
X005518Y001336D01*
X005518Y001236D01*
X005518Y001279D02*
X004619Y001279D01*
X004518Y001279D02*
X003619Y001279D01*
X003619Y001236D02*
X003619Y001336D01*
X004036Y001336D01*
X004027Y001396D01*
X004004Y001467D01*
X003970Y001532D01*
X003927Y001592D01*
X003923Y001596D01*
X004214Y001596D01*
X004210Y001592D01*
X004166Y001532D01*
X004133Y001467D01*
X004110Y001396D01*
X004100Y001336D01*
X004518Y001336D01*
X004518Y001236D01*
X004100Y001236D01*
X004110Y001176D01*
X004133Y001106D01*
X004166Y001040D01*
X004210Y000980D01*
X004254Y000936D01*
X003883Y000936D01*
X003927Y000980D01*
X003970Y001040D01*
X004004Y001106D01*
X004027Y001176D01*
X004036Y001236D01*
X003619Y001236D01*
X003518Y001279D02*
X002619Y001279D01*
X002618Y001377D02*
X002518Y001377D01*
X002518Y001279D02*
X001619Y001279D01*
X001618Y001377D02*
X001518Y001377D01*
X001518Y001476D02*
X001618Y001476D01*
X001618Y001574D02*
X001518Y001574D01*
X001518Y001673D02*
X001618Y001673D01*
X001518Y001754D02*
X001458Y001745D01*
X001388Y001722D01*
X001322Y001688D01*
X001262Y001645D01*
X001218Y001601D01*
X001218Y002022D01*
X001262Y001978D01*
X001322Y001934D01*
X001388Y001901D01*
X001458Y001878D01*
X001518Y001868D01*
X001518Y002286D01*
X001618Y002286D01*
X001618Y001868D01*
X001678Y001878D01*
X001749Y001901D01*
X001815Y001934D01*
X001874Y001978D01*
X001927Y002030D01*
X001970Y002090D01*
X002004Y002156D01*
X002027Y002226D01*
X002036Y002286D01*
X001619Y002286D01*
X001619Y002386D01*
X002036Y002386D01*
X002027Y002446D01*
X002004Y002517D01*
X001970Y002582D01*
X001927Y002642D01*
X001874Y002695D01*
X001815Y002738D01*
X001749Y002772D01*
X001618Y002757D02*
X001518Y002757D01*
X001518Y002658D02*
X001618Y002658D01*
X001618Y002560D02*
X001518Y002560D01*
X001518Y002461D02*
X001618Y002461D01*
X001619Y002363D02*
X002112Y002363D01*
X002098Y002264D02*
X002033Y002264D01*
X002007Y002166D02*
X002098Y002166D01*
X002130Y002067D02*
X001954Y002067D01*
X001862Y001969D02*
X002171Y001969D01*
X002270Y001870D02*
X001630Y001870D01*
X001618Y001870D02*
X001518Y001870D01*
X001506Y001870D02*
X001218Y001870D01*
X001218Y001772D02*
X002462Y001772D01*
X002518Y001673D02*
X002618Y001673D01*
X002618Y001574D02*
X002518Y001574D01*
X002518Y001476D02*
X002618Y001476D01*
X002835Y001673D02*
X003163Y001673D01*
X003197Y001574D02*
X002940Y001574D01*
X002999Y001476D02*
X003138Y001476D01*
X003107Y001377D02*
X003030Y001377D01*
X003027Y001180D02*
X003109Y001180D01*
X003145Y001082D02*
X002992Y001082D01*
X002929Y000983D02*
X003207Y000983D01*
X003929Y000983D02*
X004207Y000983D01*
X004145Y001082D02*
X003992Y001082D01*
X004027Y001180D02*
X004109Y001180D01*
X004107Y001377D02*
X004030Y001377D01*
X003999Y001476D02*
X004138Y001476D01*
X004197Y001574D02*
X003940Y001574D01*
X003064Y001772D02*
X002675Y001772D01*
X002867Y001870D02*
X002966Y001870D01*
X002301Y001673D02*
X001835Y001673D01*
X001940Y001574D02*
X002197Y001574D01*
X002138Y001476D02*
X001999Y001476D01*
X002030Y001377D02*
X002107Y001377D01*
X002109Y001180D02*
X002027Y001180D01*
X001992Y001082D02*
X002145Y001082D01*
X002207Y000983D02*
X001929Y000983D01*
X001301Y001673D02*
X001218Y001673D01*
X001218Y001969D02*
X001274Y001969D01*
X001518Y001969D02*
X001618Y001969D01*
X001618Y002067D02*
X001518Y002067D01*
X001518Y002166D02*
X001618Y002166D01*
X001618Y002264D02*
X001518Y002264D01*
X002022Y002461D02*
X002153Y002461D01*
X002227Y002560D02*
X001982Y002560D01*
X001911Y002658D02*
X002360Y002658D01*
X002777Y002658D02*
X002878Y002658D01*
X002878Y002856D02*
X001218Y002856D01*
X001218Y002954D02*
X002878Y002954D01*
X002878Y003053D02*
X001218Y003053D01*
X001218Y003151D02*
X002878Y003151D01*
X002878Y003250D02*
X001218Y003250D01*
X001218Y003348D02*
X002878Y003348D01*
X002878Y003447D02*
X001218Y003447D01*
X001218Y003545D02*
X002878Y003545D01*
X002907Y003644D02*
X002828Y003644D01*
X002936Y003742D02*
X003006Y003742D01*
X002996Y003841D02*
X003104Y003841D01*
X003100Y003940D02*
X003029Y003940D01*
X002618Y003940D02*
X002518Y003940D01*
X002518Y004038D02*
X001218Y004038D01*
X001218Y003940D02*
X002108Y003940D01*
X002140Y003841D02*
X001218Y003841D01*
X001218Y003742D02*
X002201Y003742D01*
X002309Y003644D02*
X001218Y003644D01*
X001218Y004137D02*
X002108Y004137D01*
X002110Y004146D02*
X002100Y004086D01*
X002518Y004086D01*
X002518Y004504D01*
X002458Y004495D01*
X002388Y004472D01*
X002322Y004438D01*
X002262Y004395D01*
X002210Y004342D01*
X002166Y004282D01*
X002133Y004217D01*
X002110Y004146D01*
X002142Y004235D02*
X001218Y004235D01*
X001218Y004334D02*
X002204Y004334D01*
X002314Y004432D02*
X001218Y004432D01*
X002084Y004925D02*
X003867Y004925D01*
X004185Y004728D02*
X004282Y004728D01*
X004282Y004629D02*
X004185Y004629D01*
X004185Y004531D02*
X004282Y004531D01*
X004509Y005122D02*
X004613Y005122D01*
X004903Y004786D02*
X004918Y004786D01*
X005218Y005086D01*
X002618Y004432D02*
X002518Y004432D01*
X002518Y004334D02*
X002618Y004334D01*
X002618Y004235D02*
X002518Y004235D01*
X002518Y004137D02*
X002618Y004137D01*
X002618Y003841D02*
X002518Y003841D01*
X002518Y003742D02*
X002618Y003742D01*
X002618Y003644D02*
X002518Y003644D01*
X001359Y002757D02*
X001218Y002757D01*
X001218Y002658D02*
X001226Y002658D01*
X002084Y005024D02*
X002172Y005024D01*
X002099Y005122D02*
X002084Y005122D01*
X002084Y005221D02*
X002099Y005221D01*
X002099Y005319D02*
X002084Y005319D01*
X002084Y005418D02*
X002099Y005418D01*
X004940Y001574D02*
X005197Y001574D01*
X005138Y001476D02*
X004999Y001476D01*
X005030Y001377D02*
X005107Y001377D01*
X005109Y001180D02*
X005027Y001180D01*
X004992Y001082D02*
X005145Y001082D01*
X005207Y000983D02*
X004929Y000983D01*
X005929Y000983D02*
X006207Y000983D01*
X006145Y001082D02*
X005992Y001082D01*
X006027Y001180D02*
X006109Y001180D01*
X006107Y001377D02*
X006030Y001377D01*
X005999Y001476D02*
X006138Y001476D01*
X006197Y001574D02*
X005940Y001574D01*
X010581Y003742D02*
X011685Y003742D01*
X011685Y003644D02*
X011782Y003644D01*
X011782Y003545D02*
X011685Y003545D01*
X011685Y003447D02*
X011782Y003447D01*
X011469Y003447D02*
X010876Y003447D01*
X010778Y003545D02*
X011374Y003545D01*
X011367Y003644D02*
X010679Y003644D01*
X012777Y002658D02*
X012827Y002658D01*
X014698Y004038D02*
X014721Y004038D01*
X014721Y004137D02*
X014599Y004137D01*
X015020Y004137D02*
X015117Y004137D01*
X015117Y004153D02*
X015117Y003835D01*
X015285Y003835D01*
X015323Y003845D01*
X015357Y003865D01*
X015385Y003893D01*
X015405Y003927D01*
X015415Y003965D01*
X015415Y004153D01*
X015117Y004153D01*
X015117Y004235D02*
X016318Y004235D01*
X016318Y004137D02*
X015415Y004137D01*
X015415Y004038D02*
X016318Y004038D01*
X016318Y003940D02*
X015408Y003940D01*
X015307Y003841D02*
X016318Y003841D01*
X016400Y003742D02*
X014994Y003742D01*
X015020Y003841D02*
X015117Y003841D01*
X015117Y003940D02*
X015020Y003940D01*
X015020Y004038D02*
X015117Y004038D01*
X015415Y004334D02*
X016318Y004334D01*
X016318Y004432D02*
X015415Y004432D01*
X015365Y004531D02*
X016318Y004531D01*
X016318Y004629D02*
X015415Y004629D01*
X016818Y004886D02*
X016818Y006336D01*
X017568Y006786D02*
X017568Y003536D01*
X017518Y002757D02*
X017618Y002757D01*
X017618Y002658D02*
X017518Y002658D01*
X017518Y002560D02*
X017618Y002560D01*
X017618Y002461D02*
X017518Y002461D01*
X017098Y002461D02*
X016984Y002461D01*
X016909Y002560D02*
X017098Y002560D01*
X016675Y001772D02*
X017918Y001772D01*
X017918Y001673D02*
X017835Y001673D01*
X016301Y001673D02*
X015835Y001673D01*
X015940Y001574D02*
X016197Y001574D01*
X016138Y001476D02*
X015999Y001476D01*
X016030Y001377D02*
X016107Y001377D01*
X016109Y001180D02*
X016027Y001180D01*
X015992Y001082D02*
X016145Y001082D01*
X016207Y000983D02*
X015929Y000983D01*
X014890Y005739D02*
X014890Y005739D01*
X014890Y005739D01*
X014930Y005779D02*
X014930Y005779D01*
X014310Y005779D02*
X014310Y005779D01*
X014270Y005739D02*
X014270Y005739D01*
X014270Y005739D01*
X013580Y005779D02*
X013580Y005779D01*
X013540Y005739D02*
X013539Y005739D01*
D22*
X010768Y004786D03*
X008868Y005236D03*
X008418Y005636D03*
X007818Y005436D03*
X006518Y004586D03*
X004218Y005436D03*
X006968Y007086D03*
X007318Y008386D03*
X005468Y009286D03*
X002568Y009836D03*
X009818Y008386D03*
X010068Y006786D03*
X013018Y003536D03*
X016818Y006336D03*
X017168Y006786D03*
X016818Y007286D03*
M02*
