G75*
G70*
%OFA0B0*%
%FSLAX24Y24*%
%IPPOS*%
%LPD*%
%AMOC8*
5,1,8,0,0,1.08239X$1,22.5*
%
%ADD10R,0.0474X0.0513*%
%ADD11R,0.0513X0.0474*%
%ADD12R,0.0780X0.2080*%
%ADD13R,0.0867X0.0218*%
%ADD14R,0.0828X0.0789*%
%ADD15R,0.0710X0.0907*%
%ADD16R,0.0660X0.0280*%
%ADD17R,0.0280X0.0660*%
%ADD18R,0.0720X0.0720*%
%ADD19C,0.0720*%
D10*
X004234Y006286D03*
X004903Y006286D03*
X004903Y007286D03*
X004234Y007286D03*
X015068Y008701D03*
X015068Y009371D03*
X015068Y004871D03*
X015068Y004201D03*
D11*
X012403Y003786D03*
X011734Y003786D03*
X004903Y004786D03*
X004234Y004786D03*
X004234Y008786D03*
X004903Y008786D03*
X004903Y009786D03*
X004234Y009786D03*
D12*
X016818Y008686D03*
X016818Y004886D03*
D13*
X002722Y006280D03*
X002722Y006536D03*
X002722Y006792D03*
X002722Y007048D03*
X002722Y007304D03*
D14*
X001560Y008367D03*
X001560Y005217D03*
D15*
X002564Y005572D03*
X002564Y008013D03*
D16*
X006358Y008046D03*
X006358Y008356D03*
X006358Y007726D03*
X006358Y007416D03*
X006358Y007096D03*
X006358Y006786D03*
X006358Y006476D03*
X006358Y006156D03*
X006358Y005846D03*
X006358Y005526D03*
X006358Y005216D03*
X010778Y005216D03*
X010778Y005526D03*
X010778Y005846D03*
X010778Y006156D03*
X010778Y006476D03*
X010778Y006786D03*
X010778Y007096D03*
X010778Y007416D03*
X010778Y007726D03*
X010778Y008046D03*
X010778Y008356D03*
D17*
X010138Y008996D03*
X009828Y008996D03*
X009508Y008996D03*
X009198Y008996D03*
X008878Y008996D03*
X008568Y008996D03*
X008258Y008996D03*
X007938Y008996D03*
X007628Y008996D03*
X007308Y008996D03*
X006998Y008996D03*
X006998Y004576D03*
X007308Y004576D03*
X007628Y004576D03*
X007938Y004576D03*
X008258Y004576D03*
X008568Y004576D03*
X008878Y004576D03*
X009198Y004576D03*
X009508Y004576D03*
X009828Y004576D03*
X010138Y004576D03*
D18*
X017568Y002336D03*
X001568Y011236D03*
D19*
X001568Y001286D03*
X002568Y001286D03*
X003568Y001286D03*
X004568Y001286D03*
X005568Y001286D03*
X006568Y001286D03*
X007568Y001286D03*
X008568Y001286D03*
X009568Y001286D03*
X010568Y001286D03*
X011568Y001286D03*
X012568Y001286D03*
X013568Y001286D03*
X014568Y001286D03*
X015568Y001286D03*
X016568Y001286D03*
X017568Y001286D03*
X016568Y002236D03*
X015568Y002336D03*
X014568Y002236D03*
X013568Y002336D03*
X012568Y002236D03*
X011568Y002336D03*
X010568Y002236D03*
X009568Y002336D03*
X008568Y002236D03*
X007568Y002336D03*
X006568Y002236D03*
X005568Y002336D03*
X004568Y002236D03*
X003568Y002336D03*
X002568Y002236D03*
X001568Y002336D03*
X002568Y004036D03*
X003568Y004036D03*
X003568Y011236D03*
X004568Y011336D03*
X005568Y011236D03*
X006568Y011336D03*
X007568Y011236D03*
X008568Y011336D03*
X009568Y011236D03*
X010568Y011336D03*
X011568Y011236D03*
X012568Y011336D03*
X013568Y011236D03*
X014568Y011336D03*
X015568Y011236D03*
X016568Y011336D03*
X017568Y011236D03*
X017568Y012286D03*
X016568Y012286D03*
X015568Y012286D03*
X014568Y012286D03*
X013568Y012286D03*
X012568Y012286D03*
X011568Y012286D03*
X010568Y012286D03*
X009568Y012286D03*
X008568Y012286D03*
X007568Y012286D03*
X006568Y012286D03*
X005568Y012286D03*
X004568Y012286D03*
X003568Y012286D03*
X002568Y012286D03*
X001568Y012286D03*
X002568Y011336D03*
M02*
