G75*
G70*
%OFA0B0*%
%FSLAX24Y24*%
%IPPOS*%
%LPD*%
%AMOC8*
5,1,8,0,0,1.08239X$1,22.5*
%
%ADD10C,0.0000*%
%ADD11C,0.0060*%
%ADD12R,0.0210X0.0500*%
%ADD13R,0.0500X0.0210*%
%ADD14R,0.0394X0.0433*%
%ADD15R,0.0433X0.0394*%
%ADD16R,0.2000X0.0700*%
%ADD17OC8,0.0640*%
%ADD18R,0.0138X0.0551*%
%ADD19R,0.0709X0.0748*%
%ADD20R,0.0827X0.0630*%
%ADD21C,0.0100*%
%ADD22C,0.0436*%
%ADD23C,0.0400*%
%ADD24C,0.0080*%
D10*
X000151Y001068D02*
X000151Y013068D01*
X017151Y013068D01*
X017151Y001068D01*
X000151Y001068D01*
D11*
X000956Y007323D02*
X001136Y007323D01*
X001136Y007443D02*
X000956Y007443D01*
X000956Y007323D02*
X001136Y007443D01*
X001106Y007713D02*
X001136Y007743D01*
X001136Y007803D01*
X001106Y007833D01*
X000986Y007833D01*
X000956Y007803D01*
X000956Y007743D01*
X000986Y007713D01*
X001046Y007713D01*
X001046Y007773D01*
X001136Y008083D02*
X000956Y008083D01*
X000986Y008333D02*
X000956Y008363D01*
X000956Y008423D01*
X000986Y008453D01*
X001046Y008423D02*
X001046Y008363D01*
X001016Y008333D01*
X000986Y008333D01*
X001046Y008423D02*
X001076Y008453D01*
X001106Y008453D01*
X001136Y008423D01*
X001136Y008363D01*
X001106Y008333D01*
X001136Y008703D02*
X001136Y008823D01*
X000956Y008823D01*
X000956Y008703D01*
X001046Y008763D02*
X001046Y008823D01*
X000986Y009063D02*
X001106Y009063D01*
X001136Y009093D01*
X001136Y009183D01*
X000956Y009183D01*
X000956Y009093D01*
X000986Y009063D01*
X011431Y009356D02*
X011431Y009529D01*
X011431Y009443D02*
X011691Y009443D01*
X011605Y009529D01*
X011431Y009651D02*
X011431Y009824D01*
X011431Y009737D02*
X011691Y009737D01*
X011605Y009824D01*
X011648Y009945D02*
X011475Y010119D01*
X011431Y010075D01*
X011431Y009989D01*
X011475Y009945D01*
X011648Y009945D01*
X011691Y009989D01*
X011691Y010075D01*
X011648Y010119D01*
X011475Y010119D01*
X011431Y010240D02*
X011431Y010413D01*
X011605Y010240D01*
X011648Y010240D01*
X011691Y010283D01*
X011691Y010370D01*
X011648Y010413D01*
X011931Y010370D02*
X011931Y010240D01*
X011931Y010119D02*
X012105Y010119D01*
X012105Y010075D01*
X012061Y010032D01*
X012105Y009989D01*
X012061Y009945D01*
X011931Y009945D01*
X011931Y010032D02*
X012061Y010032D01*
X012061Y009824D02*
X012105Y009781D01*
X012105Y009651D01*
X012018Y009694D02*
X011975Y009651D01*
X011931Y009694D01*
X011931Y009824D01*
X012018Y009781D02*
X012061Y009824D01*
X012018Y009781D02*
X012018Y009694D01*
X012061Y009529D02*
X012061Y009356D01*
X012105Y009235D02*
X012105Y009191D01*
X011931Y009191D01*
X011931Y009148D02*
X011931Y009235D01*
X011931Y009038D02*
X012105Y009038D01*
X012105Y008908D01*
X012061Y008865D01*
X011931Y008865D01*
X011975Y008700D02*
X011931Y008657D01*
X011975Y008700D02*
X012148Y008700D01*
X012105Y008657D02*
X012105Y008744D01*
X012105Y008547D02*
X011931Y008547D01*
X012018Y008547D02*
X012105Y008461D01*
X012105Y008417D01*
X012061Y008302D02*
X011975Y008302D01*
X011931Y008258D01*
X011931Y008172D01*
X011975Y008128D01*
X012061Y008128D01*
X012105Y008172D01*
X012105Y008258D01*
X012061Y008302D01*
X012431Y008345D02*
X012431Y008515D01*
X012488Y008572D01*
X012545Y008515D01*
X012545Y008345D01*
X012601Y008345D02*
X012431Y008345D01*
X012431Y008204D02*
X012658Y008204D01*
X012658Y008147D01*
X012601Y008090D01*
X012658Y008033D01*
X012601Y007977D01*
X012431Y007977D01*
X012431Y008090D02*
X012601Y008090D01*
X012601Y008345D02*
X012658Y008402D01*
X012658Y008515D01*
X012601Y008713D02*
X012545Y008713D01*
X012545Y008940D01*
X012601Y008940D02*
X012658Y008883D01*
X012658Y008770D01*
X012601Y008713D01*
X012431Y008770D02*
X012431Y008883D01*
X012488Y008940D01*
X012601Y008940D01*
X012771Y009082D02*
X012771Y009308D01*
X012771Y009195D02*
X012431Y009195D01*
X012235Y009191D02*
X012191Y009191D01*
X012488Y009450D02*
X012431Y009507D01*
X012431Y009677D01*
X012771Y009677D01*
X012771Y009507D01*
X012715Y009450D01*
X012658Y009450D01*
X012601Y009507D01*
X012601Y009677D01*
X012601Y009818D02*
X012545Y009875D01*
X012545Y010045D01*
X012431Y010045D02*
X012771Y010045D01*
X012771Y009875D01*
X012715Y009818D01*
X012601Y009818D01*
X012601Y009507D02*
X012545Y009450D01*
X012488Y009450D01*
X012431Y010186D02*
X012658Y010186D01*
X012771Y010300D01*
X012658Y010413D01*
X012431Y010413D01*
X012601Y010413D02*
X012601Y010186D01*
X012105Y010240D02*
X012105Y010370D01*
X012061Y010413D01*
X011975Y010413D01*
X011931Y010370D01*
D12*
X010754Y008258D03*
X010439Y008258D03*
X010124Y008258D03*
X009809Y008258D03*
X009494Y008258D03*
X009179Y008258D03*
X008864Y008258D03*
X008549Y008258D03*
X008549Y004878D03*
X008864Y004878D03*
X009179Y004878D03*
X009494Y004878D03*
X009809Y004878D03*
X010124Y004878D03*
X010439Y004878D03*
X010754Y004878D03*
D13*
X011341Y005466D03*
X011341Y005781D03*
X011341Y006096D03*
X011341Y006411D03*
X011341Y006726D03*
X011341Y007041D03*
X011341Y007356D03*
X011341Y007671D03*
X007961Y007671D03*
X007961Y007356D03*
X007961Y007041D03*
X007961Y006726D03*
X007961Y006411D03*
X007961Y006096D03*
X007961Y005781D03*
X007961Y005466D03*
D14*
X006151Y002903D03*
X006151Y002234D03*
X013151Y002234D03*
X013151Y002903D03*
D15*
X006486Y005568D03*
X005817Y005568D03*
X005817Y007568D03*
X006486Y007568D03*
X003151Y006453D03*
X003151Y005784D03*
X002151Y005784D03*
X002151Y006453D03*
D16*
X007751Y002568D03*
X011551Y002568D03*
D17*
X015651Y002568D03*
X016651Y002568D03*
X016651Y001568D03*
X015651Y001568D03*
X015651Y003568D03*
X016651Y003568D03*
X016651Y004568D03*
X015651Y004568D03*
X015651Y005568D03*
X016651Y005568D03*
X016651Y006568D03*
X015651Y006568D03*
X015651Y007568D03*
X016651Y007568D03*
X016651Y008568D03*
X015651Y008568D03*
X015651Y009568D03*
X016651Y009568D03*
X016651Y010568D03*
X015651Y010568D03*
X015651Y011568D03*
X016651Y011568D03*
X016651Y012568D03*
X015651Y012568D03*
X014651Y012568D03*
X013651Y012568D03*
X012651Y012568D03*
X011651Y012568D03*
X010651Y012568D03*
X009651Y012568D03*
X008651Y012568D03*
X007651Y012568D03*
X006651Y012568D03*
X005651Y012568D03*
X004651Y012568D03*
X003651Y012568D03*
X002651Y012568D03*
X001651Y012568D03*
X000651Y012568D03*
X000651Y011568D03*
X001651Y011568D03*
X002651Y011568D03*
X003651Y011568D03*
X004651Y011568D03*
X005651Y011568D03*
X006651Y011568D03*
X007651Y011568D03*
X008651Y011568D03*
X009651Y011568D03*
X010651Y011568D03*
X011651Y011568D03*
X012651Y011568D03*
X013651Y011568D03*
X014651Y011568D03*
D18*
X003157Y002604D03*
X002901Y002604D03*
X002645Y002604D03*
X002389Y002604D03*
X002133Y002604D03*
D19*
X001070Y001560D03*
X004220Y001560D03*
D20*
X003866Y002564D03*
X001425Y002564D03*
D21*
X001695Y003029D02*
X000949Y003029D01*
X000861Y002941D01*
X000301Y002941D01*
X000301Y003039D02*
X001685Y003039D01*
X001695Y003029D02*
X001654Y003070D01*
X001601Y003199D01*
X001601Y003338D01*
X001654Y003467D01*
X001751Y003563D01*
X001751Y004485D01*
X000301Y005936D01*
X000301Y001218D01*
X000566Y001218D01*
X000566Y001997D01*
X000654Y002084D01*
X001301Y002084D01*
X001301Y002099D01*
X000949Y002099D01*
X000861Y002187D01*
X000861Y002941D01*
X000861Y002842D02*
X000301Y002842D01*
X000301Y002744D02*
X000861Y002744D01*
X000861Y002645D02*
X000301Y002645D01*
X000301Y002546D02*
X000861Y002546D01*
X000861Y002448D02*
X000301Y002448D01*
X000301Y002349D02*
X000861Y002349D01*
X000861Y002251D02*
X000301Y002251D01*
X000301Y002152D02*
X000896Y002152D01*
X000623Y002054D02*
X000301Y002054D01*
X000301Y001955D02*
X000566Y001955D01*
X000566Y001857D02*
X000301Y001857D01*
X000301Y001758D02*
X000566Y001758D01*
X000566Y001660D02*
X000301Y001660D01*
X000301Y001561D02*
X000566Y001561D01*
X000566Y001463D02*
X000301Y001463D01*
X000301Y001364D02*
X000566Y001364D01*
X000566Y001265D02*
X000301Y001265D01*
X002133Y002604D02*
X002133Y003086D01*
X001951Y003268D01*
X001951Y004568D01*
X000451Y006068D01*
X000451Y011218D01*
X000651Y011418D01*
X000651Y011568D01*
X001151Y012068D01*
X007151Y012068D01*
X007651Y011568D01*
X008151Y012068D01*
X015951Y012068D01*
X016151Y011868D01*
X016151Y011068D01*
X015651Y010568D01*
X015251Y010304D02*
X015456Y010098D01*
X015846Y010098D01*
X016121Y010374D01*
X016121Y010755D01*
X016234Y010868D01*
X016351Y010985D01*
X016351Y011204D01*
X016456Y011098D01*
X016601Y011098D01*
X016601Y011518D01*
X016701Y011518D01*
X016701Y011098D01*
X016846Y011098D01*
X017001Y011254D01*
X017001Y010883D01*
X016846Y011038D01*
X016701Y011038D01*
X016701Y010619D01*
X016601Y010619D01*
X016601Y011038D01*
X016456Y011038D01*
X016181Y010763D01*
X016181Y010618D01*
X016601Y010618D01*
X016601Y010518D01*
X016701Y010518D01*
X016701Y010098D01*
X016846Y010098D01*
X017001Y010254D01*
X017001Y009883D01*
X016846Y010038D01*
X016701Y010038D01*
X016701Y009619D01*
X016601Y009619D01*
X016601Y010038D01*
X016456Y010038D01*
X016181Y009763D01*
X016181Y009618D01*
X016601Y009618D01*
X016601Y009518D01*
X016701Y009518D01*
X016701Y009098D01*
X016846Y009098D01*
X017001Y009254D01*
X017001Y008883D01*
X016846Y009038D01*
X016701Y009038D01*
X016701Y008619D01*
X016601Y008619D01*
X016601Y009038D01*
X016456Y009038D01*
X016181Y008763D01*
X016181Y008618D01*
X016601Y008618D01*
X016601Y008518D01*
X016701Y008518D01*
X016701Y008098D01*
X016846Y008098D01*
X017001Y008254D01*
X017001Y007883D01*
X016846Y008038D01*
X016701Y008038D01*
X016701Y007619D01*
X016601Y007619D01*
X016601Y008038D01*
X016456Y008038D01*
X016181Y007763D01*
X016181Y007618D01*
X016601Y007618D01*
X016601Y007518D01*
X016701Y007518D01*
X016701Y007098D01*
X016846Y007098D01*
X017001Y007254D01*
X017001Y006883D01*
X016846Y007038D01*
X016701Y007038D01*
X016701Y006619D01*
X016601Y006619D01*
X016601Y007038D01*
X016456Y007038D01*
X016181Y006763D01*
X016181Y006618D01*
X016601Y006618D01*
X016601Y006518D01*
X016701Y006518D01*
X016701Y006098D01*
X016846Y006098D01*
X017001Y006254D01*
X017001Y005883D01*
X016846Y006038D01*
X016701Y006038D01*
X016701Y005619D01*
X016601Y005619D01*
X016601Y006038D01*
X016456Y006038D01*
X016181Y005763D01*
X016181Y005618D01*
X016601Y005618D01*
X016601Y005518D01*
X016701Y005518D01*
X016701Y005098D01*
X016846Y005098D01*
X017001Y005254D01*
X017001Y004883D01*
X016846Y005038D01*
X016701Y005038D01*
X016701Y004619D01*
X016601Y004619D01*
X016601Y005038D01*
X016456Y005038D01*
X016181Y004763D01*
X016181Y004618D01*
X016601Y004618D01*
X016601Y004518D01*
X016701Y004518D01*
X016701Y004098D01*
X016846Y004098D01*
X017001Y004254D01*
X017001Y003883D01*
X016846Y004038D01*
X016701Y004038D01*
X016701Y003619D01*
X016601Y003619D01*
X016601Y004038D01*
X016456Y004038D01*
X016181Y003763D01*
X016181Y003618D01*
X016601Y003618D01*
X016601Y003518D01*
X016701Y003518D01*
X016701Y003098D01*
X016846Y003098D01*
X017001Y003254D01*
X017001Y002883D01*
X016846Y003038D01*
X016701Y003038D01*
X016701Y002619D01*
X016601Y002619D01*
X016601Y003038D01*
X016456Y003038D01*
X016181Y002763D01*
X016181Y002618D01*
X016601Y002618D01*
X016601Y002518D01*
X016701Y002518D01*
X016701Y002098D01*
X016846Y002098D01*
X017001Y002254D01*
X017001Y001883D01*
X016846Y002038D01*
X016701Y002038D01*
X016701Y001619D01*
X016601Y001619D01*
X016601Y002038D01*
X016456Y002038D01*
X016181Y001763D01*
X016181Y001618D01*
X016601Y001618D01*
X016601Y001518D01*
X016181Y001518D01*
X016181Y001374D01*
X016337Y001218D01*
X015966Y001218D01*
X016121Y001374D01*
X016121Y001518D01*
X015701Y001518D01*
X015701Y001618D01*
X016121Y001618D01*
X016121Y001763D01*
X015846Y002038D01*
X015701Y002038D01*
X015701Y001619D01*
X015601Y001619D01*
X015601Y002038D01*
X015456Y002038D01*
X015181Y001763D01*
X015181Y001618D01*
X015601Y001618D01*
X015601Y001518D01*
X015181Y001518D01*
X015181Y001374D01*
X015337Y001218D01*
X004724Y001218D01*
X004724Y001997D01*
X004637Y002084D01*
X004001Y002084D01*
X004001Y002099D01*
X004341Y002099D01*
X004429Y002187D01*
X004429Y002941D01*
X006102Y002941D01*
X006102Y002951D02*
X006102Y002854D01*
X005804Y002854D01*
X005804Y002667D01*
X005815Y002629D01*
X005834Y002594D01*
X005860Y002568D01*
X005804Y002512D01*
X005804Y001955D01*
X005892Y001867D01*
X006410Y001867D01*
X006498Y001955D01*
X006498Y002298D01*
X006569Y002368D01*
X006601Y002368D01*
X006601Y002156D01*
X006689Y002068D01*
X008813Y002068D01*
X008901Y002156D01*
X008901Y002936D01*
X009351Y002485D01*
X009468Y002368D01*
X010401Y002368D01*
X010401Y002156D01*
X010489Y002068D01*
X012613Y002068D01*
X012701Y002156D01*
X012701Y002368D01*
X012734Y002368D01*
X012804Y002298D01*
X012804Y001955D01*
X012892Y001867D01*
X013410Y001867D01*
X013498Y001955D01*
X013498Y002512D01*
X013442Y002568D01*
X013468Y002594D01*
X013488Y002629D01*
X013498Y002667D01*
X013498Y002854D01*
X013200Y002854D01*
X013200Y002951D01*
X013498Y002951D01*
X013498Y003139D01*
X013488Y003177D01*
X013468Y003212D01*
X013440Y003240D01*
X013406Y003259D01*
X013368Y003269D01*
X013200Y003269D01*
X013200Y002952D01*
X013103Y002952D01*
X013103Y003269D01*
X012935Y003269D01*
X012896Y003259D01*
X012862Y003240D01*
X012834Y003212D01*
X012815Y003177D01*
X012804Y003139D01*
X012804Y002951D01*
X013102Y002951D01*
X013102Y002854D01*
X012804Y002854D01*
X012804Y002768D01*
X012734Y002768D01*
X012701Y002768D01*
X012701Y002980D01*
X012613Y003068D01*
X010489Y003068D01*
X010401Y002980D01*
X010401Y002768D01*
X009634Y002768D01*
X009064Y003339D01*
X009064Y004478D01*
X009176Y004478D01*
X009176Y004876D01*
X009181Y004876D01*
X009181Y004478D01*
X009303Y004478D01*
X009322Y004483D01*
X009327Y004478D01*
X009641Y004478D01*
X009924Y004478D01*
X009924Y004313D01*
X010251Y003985D01*
X010368Y003868D01*
X011018Y003868D01*
X011184Y003868D01*
X011634Y004318D01*
X014268Y004318D01*
X014901Y003685D01*
X014901Y003201D01*
X014901Y003035D01*
X015181Y002755D01*
X015181Y002374D01*
X015456Y002098D01*
X015846Y002098D01*
X016121Y002374D01*
X016121Y002763D01*
X015846Y003038D01*
X015464Y003038D01*
X015301Y003201D01*
X015301Y003254D01*
X015456Y003098D01*
X015846Y003098D01*
X016121Y003374D01*
X016121Y003763D01*
X015846Y004038D01*
X015664Y004038D01*
X015604Y004098D01*
X015846Y004098D01*
X016121Y004374D01*
X016121Y004763D01*
X015846Y005038D01*
X015456Y005038D01*
X015360Y004942D01*
X015036Y005266D01*
X015289Y005266D01*
X015456Y005098D01*
X015846Y005098D01*
X016121Y005374D01*
X016121Y005763D01*
X015846Y006038D01*
X015456Y006038D01*
X015181Y005763D01*
X015181Y005666D01*
X015032Y005666D01*
X015464Y006098D01*
X015846Y006098D01*
X016121Y006374D01*
X016121Y006763D01*
X015846Y007038D01*
X015456Y007038D01*
X015301Y006883D01*
X015301Y006935D01*
X015464Y007098D01*
X015846Y007098D01*
X016121Y007374D01*
X016121Y007763D01*
X015846Y008038D01*
X015456Y008038D01*
X015181Y007763D01*
X015181Y007381D01*
X015001Y007201D01*
X015001Y007635D01*
X015464Y008098D01*
X015846Y008098D01*
X016121Y008374D01*
X016121Y008763D01*
X015846Y009038D01*
X015456Y009038D01*
X015181Y008763D01*
X015181Y008381D01*
X014701Y007901D01*
X014701Y008335D01*
X015464Y009098D01*
X015846Y009098D01*
X016121Y009374D01*
X016121Y009763D01*
X015846Y010038D01*
X015456Y010038D01*
X015181Y009763D01*
X015181Y009381D01*
X014401Y008601D01*
X014401Y009135D01*
X015134Y009868D01*
X015251Y009985D01*
X015251Y010304D01*
X015251Y010233D02*
X015322Y010233D01*
X015251Y010134D02*
X015421Y010134D01*
X015454Y010036D02*
X015251Y010036D01*
X015203Y009937D02*
X015355Y009937D01*
X015257Y009839D02*
X015104Y009839D01*
X015181Y009740D02*
X015006Y009740D01*
X014907Y009642D02*
X015181Y009642D01*
X015181Y009543D02*
X014809Y009543D01*
X014710Y009445D02*
X015181Y009445D01*
X015146Y009346D02*
X014612Y009346D01*
X014513Y009247D02*
X015047Y009247D01*
X014949Y009149D02*
X014415Y009149D01*
X014401Y009050D02*
X014850Y009050D01*
X014752Y008952D02*
X014401Y008952D01*
X014401Y008853D02*
X014653Y008853D01*
X014555Y008755D02*
X014401Y008755D01*
X014401Y008656D02*
X014456Y008656D01*
X014501Y008418D02*
X015651Y009568D01*
X015947Y009937D02*
X016355Y009937D01*
X016257Y009839D02*
X016045Y009839D01*
X016121Y009740D02*
X016181Y009740D01*
X016181Y009642D02*
X016121Y009642D01*
X016121Y009543D02*
X016601Y009543D01*
X016601Y009518D02*
X016181Y009518D01*
X016181Y009374D01*
X016456Y009098D01*
X016601Y009098D01*
X016601Y009518D01*
X016601Y009445D02*
X016701Y009445D01*
X016701Y009346D02*
X016601Y009346D01*
X016601Y009247D02*
X016701Y009247D01*
X016701Y009149D02*
X016601Y009149D01*
X016406Y009149D02*
X015896Y009149D01*
X015995Y009247D02*
X016307Y009247D01*
X016209Y009346D02*
X016093Y009346D01*
X016121Y009445D02*
X016181Y009445D01*
X016601Y009642D02*
X016701Y009642D01*
X016701Y009740D02*
X016601Y009740D01*
X016601Y009839D02*
X016701Y009839D01*
X016701Y009937D02*
X016601Y009937D01*
X016601Y010036D02*
X016701Y010036D01*
X016701Y010134D02*
X016601Y010134D01*
X016601Y010098D02*
X016456Y010098D01*
X016181Y010374D01*
X016181Y010518D01*
X016601Y010518D01*
X016601Y010098D01*
X016601Y010233D02*
X016701Y010233D01*
X016701Y010331D02*
X016601Y010331D01*
X016601Y010430D02*
X016701Y010430D01*
X016601Y010529D02*
X016121Y010529D01*
X016121Y010627D02*
X016181Y010627D01*
X016181Y010726D02*
X016121Y010726D01*
X016190Y010824D02*
X016242Y010824D01*
X016288Y010923D02*
X016341Y010923D01*
X016351Y011021D02*
X016439Y011021D01*
X016435Y011120D02*
X016351Y011120D01*
X016601Y011120D02*
X016701Y011120D01*
X016701Y011218D02*
X016601Y011218D01*
X016601Y011317D02*
X016701Y011317D01*
X016701Y011415D02*
X016601Y011415D01*
X016601Y011514D02*
X016701Y011514D01*
X016701Y011619D02*
X016601Y011619D01*
X016601Y012038D01*
X016456Y012038D01*
X016351Y011933D01*
X016351Y011951D01*
X016151Y012151D01*
X016034Y012268D01*
X016016Y012268D01*
X016121Y012374D01*
X016121Y012518D01*
X015701Y012518D01*
X015701Y012618D01*
X016121Y012618D01*
X016121Y012763D01*
X015966Y012918D01*
X016337Y012918D01*
X016181Y012763D01*
X016181Y012618D01*
X016601Y012618D01*
X016601Y012518D01*
X016701Y012518D01*
X016701Y012098D01*
X016846Y012098D01*
X017001Y012254D01*
X017001Y011883D01*
X016846Y012038D01*
X016701Y012038D01*
X016701Y011619D01*
X016701Y011711D02*
X016601Y011711D01*
X016601Y011810D02*
X016701Y011810D01*
X016701Y011908D02*
X016601Y011908D01*
X016601Y012007D02*
X016701Y012007D01*
X016701Y012105D02*
X016601Y012105D01*
X016601Y012098D02*
X016601Y012518D01*
X016181Y012518D01*
X016181Y012374D01*
X016456Y012098D01*
X016601Y012098D01*
X016601Y012204D02*
X016701Y012204D01*
X016701Y012302D02*
X016601Y012302D01*
X016601Y012401D02*
X016701Y012401D01*
X016701Y012499D02*
X016601Y012499D01*
X016601Y012598D02*
X015701Y012598D01*
X015601Y012598D02*
X014701Y012598D01*
X014701Y012618D02*
X015121Y012618D01*
X015121Y012763D01*
X014966Y012918D01*
X015337Y012918D01*
X015181Y012763D01*
X015181Y012618D01*
X015601Y012618D01*
X015601Y012518D01*
X015181Y012518D01*
X015181Y012374D01*
X015287Y012268D01*
X015016Y012268D01*
X015121Y012374D01*
X015121Y012518D01*
X014701Y012518D01*
X014701Y012618D01*
X014601Y012618D02*
X014601Y012518D01*
X014181Y012518D01*
X014181Y012374D01*
X014287Y012268D01*
X014016Y012268D01*
X014121Y012374D01*
X014121Y012518D01*
X013701Y012518D01*
X013701Y012618D01*
X014121Y012618D01*
X014121Y012763D01*
X013966Y012918D01*
X014337Y012918D01*
X014181Y012763D01*
X014181Y012618D01*
X014601Y012618D01*
X014601Y012598D02*
X013701Y012598D01*
X013601Y012598D02*
X012701Y012598D01*
X012701Y012618D02*
X013121Y012618D01*
X013121Y012763D01*
X012966Y012918D01*
X013337Y012918D01*
X013181Y012763D01*
X013181Y012618D01*
X013601Y012618D01*
X013601Y012518D01*
X013181Y012518D01*
X013181Y012374D01*
X013287Y012268D01*
X013016Y012268D01*
X013121Y012374D01*
X013121Y012518D01*
X012701Y012518D01*
X012701Y012618D01*
X012601Y012618D02*
X012601Y012518D01*
X012181Y012518D01*
X012181Y012374D01*
X012287Y012268D01*
X012016Y012268D01*
X012121Y012374D01*
X012121Y012518D01*
X011701Y012518D01*
X011701Y012618D01*
X012121Y012618D01*
X012121Y012763D01*
X011966Y012918D01*
X012337Y012918D01*
X012181Y012763D01*
X012181Y012618D01*
X012601Y012618D01*
X012601Y012598D02*
X011701Y012598D01*
X011601Y012598D02*
X010701Y012598D01*
X010701Y012618D02*
X011121Y012618D01*
X011121Y012763D01*
X010966Y012918D01*
X011337Y012918D01*
X011181Y012763D01*
X011181Y012618D01*
X011601Y012618D01*
X011601Y012518D01*
X011181Y012518D01*
X011181Y012374D01*
X011287Y012268D01*
X011016Y012268D01*
X011121Y012374D01*
X011121Y012518D01*
X010701Y012518D01*
X010701Y012618D01*
X010601Y012618D02*
X010601Y012518D01*
X010181Y012518D01*
X010181Y012374D01*
X010287Y012268D01*
X010016Y012268D01*
X010121Y012374D01*
X010121Y012518D01*
X009701Y012518D01*
X009701Y012618D01*
X010121Y012618D01*
X010121Y012763D01*
X009966Y012918D01*
X010337Y012918D01*
X010181Y012763D01*
X010181Y012618D01*
X010601Y012618D01*
X010601Y012598D02*
X009701Y012598D01*
X009601Y012598D02*
X008701Y012598D01*
X008701Y012618D02*
X009121Y012618D01*
X009121Y012763D01*
X008966Y012918D01*
X009337Y012918D01*
X009181Y012763D01*
X009181Y012618D01*
X009601Y012618D01*
X009601Y012518D01*
X009181Y012518D01*
X009181Y012374D01*
X009287Y012268D01*
X009016Y012268D01*
X009121Y012374D01*
X009121Y012518D01*
X008701Y012518D01*
X008701Y012618D01*
X008601Y012618D02*
X008601Y012518D01*
X008181Y012518D01*
X008181Y012374D01*
X008287Y012268D01*
X008234Y012268D01*
X008068Y012268D01*
X007838Y012038D01*
X007464Y012038D01*
X007351Y012151D01*
X007234Y012268D01*
X007016Y012268D01*
X007121Y012374D01*
X007121Y012518D01*
X006701Y012518D01*
X006701Y012618D01*
X007121Y012618D01*
X007121Y012763D01*
X006966Y012918D01*
X007337Y012918D01*
X007181Y012763D01*
X007181Y012618D01*
X007601Y012618D01*
X007601Y012518D01*
X007701Y012518D01*
X007701Y012098D01*
X007846Y012098D01*
X008121Y012374D01*
X008121Y012518D01*
X007701Y012518D01*
X007701Y012618D01*
X008121Y012618D01*
X008121Y012763D01*
X007966Y012918D01*
X008337Y012918D01*
X008181Y012763D01*
X008181Y012618D01*
X008601Y012618D01*
X008601Y012598D02*
X007701Y012598D01*
X007701Y012499D02*
X007601Y012499D01*
X007601Y012518D02*
X007601Y012098D01*
X007456Y012098D01*
X007181Y012374D01*
X007181Y012518D01*
X007601Y012518D01*
X007601Y012598D02*
X006701Y012598D01*
X006601Y012598D02*
X005701Y012598D01*
X005701Y012618D02*
X006121Y012618D01*
X006121Y012763D01*
X005966Y012918D01*
X006337Y012918D01*
X006181Y012763D01*
X006181Y012618D01*
X006601Y012618D01*
X006601Y012518D01*
X006181Y012518D01*
X006181Y012374D01*
X006287Y012268D01*
X006016Y012268D01*
X006121Y012374D01*
X006121Y012518D01*
X005701Y012518D01*
X005701Y012618D01*
X005601Y012618D02*
X005601Y012518D01*
X005181Y012518D01*
X005181Y012374D01*
X005287Y012268D01*
X005016Y012268D01*
X005121Y012374D01*
X005121Y012518D01*
X004701Y012518D01*
X004701Y012618D01*
X005121Y012618D01*
X005121Y012763D01*
X004966Y012918D01*
X005337Y012918D01*
X005181Y012763D01*
X005181Y012618D01*
X005601Y012618D01*
X005601Y012598D02*
X004701Y012598D01*
X004601Y012598D02*
X003701Y012598D01*
X003701Y012618D02*
X004121Y012618D01*
X004121Y012763D01*
X003966Y012918D01*
X004337Y012918D01*
X004181Y012763D01*
X004181Y012618D01*
X004601Y012618D01*
X004601Y012518D01*
X004181Y012518D01*
X004181Y012374D01*
X004287Y012268D01*
X004016Y012268D01*
X004121Y012374D01*
X004121Y012518D01*
X003701Y012518D01*
X003701Y012618D01*
X003601Y012618D02*
X003601Y012518D01*
X003181Y012518D01*
X003181Y012374D01*
X003287Y012268D01*
X003016Y012268D01*
X003121Y012374D01*
X003121Y012518D01*
X002701Y012518D01*
X002701Y012618D01*
X003121Y012618D01*
X003121Y012763D01*
X002966Y012918D01*
X003337Y012918D01*
X003181Y012763D01*
X003181Y012618D01*
X003601Y012618D01*
X003601Y012598D02*
X002701Y012598D01*
X002601Y012598D02*
X001701Y012598D01*
X001701Y012618D02*
X002121Y012618D01*
X002121Y012763D01*
X001966Y012918D01*
X002337Y012918D01*
X002181Y012763D01*
X002181Y012618D01*
X002601Y012618D01*
X002601Y012518D01*
X002181Y012518D01*
X002181Y012374D01*
X002287Y012268D01*
X002016Y012268D01*
X002121Y012374D01*
X002121Y012518D01*
X001701Y012518D01*
X001701Y012618D01*
X001601Y012618D02*
X001601Y012518D01*
X001181Y012518D01*
X001181Y012374D01*
X001287Y012268D01*
X001068Y012268D01*
X000951Y012151D01*
X000838Y012038D01*
X000456Y012038D01*
X000301Y011883D01*
X000301Y012254D01*
X000456Y012098D01*
X000601Y012098D01*
X000601Y012518D01*
X000701Y012518D01*
X000701Y012098D01*
X000846Y012098D01*
X001121Y012374D01*
X001121Y012518D01*
X000701Y012518D01*
X000701Y012618D01*
X001121Y012618D01*
X001121Y012763D01*
X000966Y012918D01*
X001337Y012918D01*
X001181Y012763D01*
X001181Y012618D01*
X001601Y012618D01*
X001601Y012598D02*
X000701Y012598D01*
X000701Y012499D02*
X000601Y012499D01*
X000601Y012401D02*
X000701Y012401D01*
X000701Y012302D02*
X000601Y012302D01*
X000601Y012204D02*
X000701Y012204D01*
X000701Y012105D02*
X000601Y012105D01*
X000450Y012105D02*
X000301Y012105D01*
X000301Y012007D02*
X000425Y012007D01*
X000326Y011908D02*
X000301Y011908D01*
X000301Y012204D02*
X000351Y012204D01*
X000853Y012105D02*
X000905Y012105D01*
X000951Y012151D02*
X000951Y012151D01*
X000951Y012204D02*
X001004Y012204D01*
X001050Y012302D02*
X001253Y012302D01*
X001181Y012401D02*
X001121Y012401D01*
X001121Y012499D02*
X001181Y012499D01*
X001181Y012696D02*
X001121Y012696D01*
X001089Y012795D02*
X001213Y012795D01*
X001312Y012894D02*
X000991Y012894D01*
X001991Y012894D02*
X002312Y012894D01*
X002213Y012795D02*
X002089Y012795D01*
X002121Y012696D02*
X002181Y012696D01*
X002181Y012499D02*
X002121Y012499D01*
X002121Y012401D02*
X002181Y012401D01*
X002253Y012302D02*
X002050Y012302D01*
X001287Y011868D02*
X001181Y011763D01*
X001181Y011374D01*
X001456Y011098D01*
X001838Y011098D01*
X002551Y010385D01*
X002668Y010268D01*
X004468Y010268D01*
X004951Y009785D01*
X005068Y009668D01*
X006433Y009668D01*
X006433Y009645D01*
X006489Y009510D01*
X006593Y009406D01*
X006728Y009350D01*
X006874Y009350D01*
X007010Y009406D01*
X007101Y009498D01*
X007101Y007751D01*
X007084Y007768D01*
X006918Y007768D01*
X006852Y007768D01*
X006852Y007827D01*
X006764Y007915D01*
X006207Y007915D01*
X006151Y007859D01*
X006125Y007885D01*
X006091Y007905D01*
X006053Y007915D01*
X005865Y007915D01*
X005865Y007617D01*
X005768Y007617D01*
X005768Y007915D01*
X005580Y007915D01*
X005542Y007905D01*
X005508Y007885D01*
X005480Y007857D01*
X005460Y007823D01*
X005450Y007785D01*
X005450Y007617D01*
X005768Y007617D01*
X005768Y007520D01*
X005450Y007520D01*
X005450Y007352D01*
X005460Y007314D01*
X005480Y007279D01*
X005508Y007251D01*
X005542Y007232D01*
X005580Y007221D01*
X005768Y007221D01*
X005768Y007520D01*
X005865Y007520D01*
X005865Y007221D01*
X006053Y007221D01*
X006091Y007232D01*
X006125Y007251D01*
X006151Y007277D01*
X006207Y007221D01*
X006764Y007221D01*
X006852Y007309D01*
X006852Y007368D01*
X006918Y007368D01*
X007446Y006841D01*
X007561Y006841D01*
X007561Y006728D01*
X007958Y006728D01*
X007958Y006723D01*
X007561Y006723D01*
X007561Y006618D01*
X003518Y006618D01*
X003518Y006712D01*
X003430Y006800D01*
X002872Y006800D01*
X002785Y006712D01*
X002785Y006318D01*
X002584Y006318D01*
X002518Y006385D01*
X002518Y006712D01*
X002430Y006800D01*
X001872Y006800D01*
X001785Y006712D01*
X001785Y006194D01*
X001860Y006118D01*
X001785Y006043D01*
X001785Y005525D01*
X001872Y005437D01*
X002189Y005437D01*
X002189Y003525D01*
X002151Y003563D01*
X002151Y004485D01*
X002151Y004651D01*
X000651Y006151D01*
X000651Y011098D01*
X000846Y011098D01*
X001121Y011374D01*
X001121Y011756D01*
X001234Y011868D01*
X001287Y011868D01*
X001228Y011810D02*
X001175Y011810D01*
X001181Y011711D02*
X001121Y011711D01*
X001121Y011612D02*
X001181Y011612D01*
X001181Y011514D02*
X001121Y011514D01*
X001121Y011415D02*
X001181Y011415D01*
X001238Y011317D02*
X001064Y011317D01*
X000966Y011218D02*
X001337Y011218D01*
X001435Y011120D02*
X000867Y011120D01*
X000651Y011021D02*
X001915Y011021D01*
X002014Y010923D02*
X000651Y010923D01*
X000651Y010824D02*
X002113Y010824D01*
X002211Y010726D02*
X000651Y010726D01*
X000651Y010627D02*
X001211Y010627D01*
X001217Y010633D02*
X001106Y010522D01*
X001106Y009363D01*
X001062Y009363D01*
X001031Y009363D01*
X000882Y009363D01*
X000776Y009258D01*
X000776Y009094D01*
X000776Y009019D01*
X000776Y009019D01*
X000776Y009019D01*
X000806Y008989D01*
X000806Y008989D01*
X000837Y008958D01*
X000776Y008898D01*
X000776Y008629D01*
X000842Y008563D01*
X000776Y008498D01*
X000776Y008362D01*
X000776Y008289D01*
X000776Y008289D01*
X000776Y008289D01*
X000806Y008259D01*
X000806Y008259D01*
X000842Y008223D01*
X000776Y008158D01*
X000776Y008009D01*
X000842Y007943D01*
X000776Y007878D01*
X000776Y007744D01*
X000776Y007669D01*
X000776Y007669D01*
X000776Y007669D01*
X000806Y007639D01*
X000806Y007639D01*
X000852Y007593D01*
X000776Y007518D01*
X000776Y007398D01*
X000776Y007341D01*
X000765Y007285D01*
X000776Y007269D01*
X000776Y007249D01*
X000816Y007209D01*
X000848Y007161D01*
X000867Y007157D01*
X000882Y007143D01*
X000938Y007143D01*
X000994Y007132D01*
X001011Y007143D01*
X001188Y007143D01*
X001217Y007113D01*
X001375Y007113D01*
X001421Y007160D01*
X001427Y007153D01*
X001437Y007153D01*
X001438Y007153D01*
X001487Y007103D01*
X001497Y007103D01*
X001505Y007097D01*
X001575Y007103D01*
X001587Y007103D01*
X001646Y007092D01*
X001664Y007103D01*
X001685Y007103D01*
X001727Y007146D01*
X001755Y007164D01*
X001789Y007178D01*
X001886Y007138D01*
X002031Y007198D01*
X002093Y007345D01*
X002116Y007364D01*
X002122Y007415D01*
X002142Y007463D01*
X002136Y007477D01*
X002136Y007512D01*
X002152Y007546D01*
X002140Y007578D01*
X002142Y007596D01*
X002151Y007613D01*
X002136Y007661D01*
X002136Y007712D01*
X002114Y007734D01*
X002114Y007736D01*
X002120Y007759D01*
X002092Y007809D01*
X002080Y007848D01*
X002092Y007856D01*
X002116Y008012D01*
X001954Y008234D01*
X002043Y008332D01*
X002096Y008385D01*
X002096Y008389D01*
X002099Y008393D01*
X002096Y008467D01*
X002096Y008514D01*
X002102Y008521D01*
X002096Y008591D01*
X002096Y008662D01*
X002090Y008668D01*
X002089Y008678D01*
X002060Y008702D01*
X002083Y008755D01*
X002106Y008774D01*
X002112Y008825D01*
X002113Y008828D01*
X002173Y007760D01*
X002163Y007742D01*
X002171Y007710D01*
X002162Y007679D01*
X002179Y007649D01*
X002181Y007614D01*
X002200Y007597D01*
X002202Y007590D01*
X002217Y007581D01*
X002239Y007541D01*
X002273Y007532D01*
X002298Y007509D01*
X002335Y007511D01*
X002337Y007510D01*
X002345Y007512D01*
X002345Y007512D01*
X002391Y007499D01*
X002421Y007516D01*
X002455Y007518D01*
X002481Y007547D01*
X002490Y007549D01*
X002495Y007558D01*
X003127Y007914D01*
X003137Y007903D01*
X003155Y007903D01*
X003170Y007893D01*
X003211Y007900D01*
X003252Y007891D01*
X003272Y007903D01*
X003295Y007903D01*
X003307Y007916D01*
X003325Y007919D01*
X003349Y007953D01*
X004492Y008684D01*
X004516Y008684D01*
X004533Y008701D01*
X004557Y008707D01*
X004575Y008737D01*
X004605Y008756D01*
X004610Y008779D01*
X004627Y008796D01*
X004627Y008820D01*
X004639Y008841D01*
X004631Y008875D01*
X004639Y008909D01*
X004626Y008930D01*
X004625Y008954D01*
X004608Y008971D01*
X004603Y008994D01*
X004573Y009012D01*
X004554Y009042D01*
X004530Y009047D01*
X004513Y009064D01*
X004489Y009064D01*
X003888Y009432D01*
X003890Y009440D01*
X003876Y009464D01*
X003876Y009492D01*
X003855Y009513D01*
X003846Y009542D01*
X003824Y009554D01*
X003811Y009576D01*
X003785Y009584D01*
X003765Y009603D01*
X003735Y009603D01*
X002526Y010264D01*
X002515Y010284D01*
X002488Y010291D01*
X002469Y010312D01*
X002437Y010312D01*
X002408Y010328D01*
X002386Y010321D01*
X002364Y010328D01*
X002339Y010314D01*
X002312Y010315D01*
X002288Y010293D01*
X002257Y010283D01*
X002246Y010263D01*
X002226Y010252D01*
X002218Y010225D01*
X002198Y010206D01*
X002197Y010174D01*
X002182Y010145D01*
X002188Y010123D01*
X002182Y010101D01*
X002195Y010076D01*
X002178Y009301D01*
X002159Y009295D01*
X002140Y009261D01*
X002109Y009238D01*
X002106Y009217D01*
X002092Y009201D01*
X002082Y009219D01*
X002066Y009273D01*
X002056Y009278D01*
X002056Y009292D01*
X002018Y009330D01*
X001992Y009376D01*
X001965Y009383D01*
X001945Y009403D01*
X001892Y009403D01*
X001840Y009417D01*
X001825Y009409D01*
X001816Y009415D01*
X001757Y009403D01*
X001697Y009403D01*
X001682Y009388D01*
X001662Y009384D01*
X001656Y009376D01*
X001656Y009513D01*
X002005Y009513D01*
X002116Y009625D01*
X002116Y009675D01*
X002116Y009832D01*
X002116Y009882D01*
X002100Y009898D01*
X002116Y009915D01*
X002116Y010265D01*
X002116Y010325D01*
X002116Y010482D01*
X002116Y010532D01*
X002005Y010643D01*
X001795Y010643D01*
X001637Y010643D01*
X001545Y010643D01*
X001387Y010643D01*
X001376Y010632D01*
X001375Y010633D01*
X001217Y010633D01*
X001113Y010529D02*
X000651Y010529D01*
X000651Y010430D02*
X001106Y010430D01*
X001106Y010331D02*
X000651Y010331D01*
X000651Y010233D02*
X001106Y010233D01*
X001106Y010134D02*
X000651Y010134D01*
X000651Y010036D02*
X001106Y010036D01*
X001106Y009937D02*
X000651Y009937D01*
X000651Y009839D02*
X001106Y009839D01*
X001106Y009740D02*
X000651Y009740D01*
X000651Y009642D02*
X001106Y009642D01*
X001106Y009543D02*
X000651Y009543D01*
X000651Y009445D02*
X001106Y009445D01*
X000864Y009346D02*
X000651Y009346D01*
X000651Y009247D02*
X000776Y009247D01*
X000776Y009149D02*
X000651Y009149D01*
X000651Y009050D02*
X000776Y009050D01*
X000830Y008952D02*
X000651Y008952D01*
X000651Y008853D02*
X000776Y008853D01*
X000776Y008755D02*
X000651Y008755D01*
X000651Y008656D02*
X000776Y008656D01*
X000836Y008558D02*
X000651Y008558D01*
X000651Y008459D02*
X000776Y008459D01*
X000776Y008361D02*
X000651Y008361D01*
X000651Y008262D02*
X000803Y008262D01*
X000782Y008163D02*
X000651Y008163D01*
X000651Y008065D02*
X000776Y008065D01*
X000819Y007966D02*
X000651Y007966D01*
X000651Y007868D02*
X000776Y007868D01*
X000776Y007769D02*
X000651Y007769D01*
X000651Y007671D02*
X000776Y007671D01*
X000831Y007572D02*
X000651Y007572D01*
X000651Y007474D02*
X000776Y007474D01*
X000776Y007375D02*
X000651Y007375D01*
X000651Y007277D02*
X000771Y007277D01*
X000837Y007178D02*
X000651Y007178D01*
X000651Y007079D02*
X007207Y007079D01*
X007306Y006981D02*
X000651Y006981D01*
X000651Y006882D02*
X007404Y006882D01*
X007561Y006784D02*
X003446Y006784D01*
X003518Y006685D02*
X007561Y006685D01*
X007961Y006726D02*
X008594Y006726D01*
X008601Y006718D01*
X008361Y006723D02*
X007964Y006723D01*
X007964Y006728D01*
X008361Y006728D01*
X008361Y006851D01*
X008356Y006869D01*
X008361Y006874D01*
X008361Y007208D01*
X008361Y007523D01*
X008361Y007576D01*
X009609Y006328D01*
X009609Y005444D01*
X009501Y005551D01*
X009384Y005668D01*
X008361Y005668D01*
X008361Y005948D01*
X008361Y006263D01*
X008361Y006578D01*
X008356Y006583D01*
X008361Y006601D01*
X008361Y006723D01*
X008361Y006685D02*
X009251Y006685D01*
X009153Y006784D02*
X008361Y006784D01*
X008361Y006882D02*
X009054Y006882D01*
X008956Y006981D02*
X008361Y006981D01*
X008361Y007079D02*
X008857Y007079D01*
X008759Y007178D02*
X008361Y007178D01*
X008361Y007277D02*
X008660Y007277D01*
X008562Y007375D02*
X008361Y007375D01*
X008361Y007474D02*
X008463Y007474D01*
X008364Y007572D02*
X008361Y007572D01*
X007961Y007671D02*
X007799Y007671D01*
X007601Y007868D01*
X007601Y010118D01*
X007251Y010468D01*
X005351Y010468D01*
X004751Y011068D01*
X004151Y011068D01*
X003651Y011568D01*
X003253Y012302D02*
X003050Y012302D01*
X003121Y012401D02*
X003181Y012401D01*
X003181Y012499D02*
X003121Y012499D01*
X003121Y012696D02*
X003181Y012696D01*
X003213Y012795D02*
X003089Y012795D01*
X002991Y012894D02*
X003312Y012894D01*
X003991Y012894D02*
X004312Y012894D01*
X004213Y012795D02*
X004089Y012795D01*
X004121Y012696D02*
X004181Y012696D01*
X004181Y012499D02*
X004121Y012499D01*
X004121Y012401D02*
X004181Y012401D01*
X004253Y012302D02*
X004050Y012302D01*
X004651Y011568D02*
X005451Y010768D01*
X008451Y010768D01*
X008864Y010356D01*
X008864Y008258D01*
X009179Y008258D02*
X009179Y010541D01*
X008651Y011068D01*
X006151Y011068D01*
X005651Y011568D01*
X006121Y011612D02*
X006601Y011612D01*
X006601Y011618D02*
X006601Y011518D01*
X006181Y011518D01*
X006181Y011374D01*
X006287Y011268D01*
X006234Y011268D01*
X006121Y011381D01*
X006121Y011763D01*
X006016Y011868D01*
X006287Y011868D01*
X006181Y011763D01*
X006181Y011618D01*
X006601Y011618D01*
X006701Y011618D02*
X007121Y011618D01*
X007121Y011763D01*
X007016Y011868D01*
X007068Y011868D01*
X007181Y011755D01*
X007181Y011374D01*
X007287Y011268D01*
X007016Y011268D01*
X007121Y011374D01*
X007121Y011518D01*
X006701Y011518D01*
X006701Y011618D01*
X006701Y011612D02*
X007181Y011612D01*
X007181Y011514D02*
X007121Y011514D01*
X007121Y011415D02*
X007181Y011415D01*
X007238Y011317D02*
X007064Y011317D01*
X007121Y011711D02*
X007181Y011711D01*
X007127Y011810D02*
X007075Y011810D01*
X007397Y012105D02*
X007450Y012105D01*
X007351Y012204D02*
X007299Y012204D01*
X007253Y012302D02*
X007050Y012302D01*
X007121Y012401D02*
X007181Y012401D01*
X007181Y012499D02*
X007121Y012499D01*
X007121Y012696D02*
X007181Y012696D01*
X007213Y012795D02*
X007089Y012795D01*
X006991Y012894D02*
X007312Y012894D01*
X007601Y012401D02*
X007701Y012401D01*
X007701Y012302D02*
X007601Y012302D01*
X007601Y012204D02*
X007701Y012204D01*
X007701Y012105D02*
X007601Y012105D01*
X007853Y012105D02*
X007905Y012105D01*
X007951Y012204D02*
X008004Y012204D01*
X008050Y012302D02*
X008253Y012302D01*
X008181Y012401D02*
X008121Y012401D01*
X008121Y012499D02*
X008181Y012499D01*
X008181Y012696D02*
X008121Y012696D01*
X008089Y012795D02*
X008213Y012795D01*
X008312Y012894D02*
X007991Y012894D01*
X008991Y012894D02*
X009312Y012894D01*
X009213Y012795D02*
X009089Y012795D01*
X009121Y012696D02*
X009181Y012696D01*
X009181Y012499D02*
X009121Y012499D01*
X009121Y012401D02*
X009181Y012401D01*
X009253Y012302D02*
X009050Y012302D01*
X008651Y011568D02*
X009494Y010726D01*
X009494Y008258D01*
X009809Y008258D02*
X009809Y011411D01*
X009651Y011568D01*
X010050Y012302D02*
X010253Y012302D01*
X010181Y012401D02*
X010121Y012401D01*
X010121Y012499D02*
X010181Y012499D01*
X010181Y012696D02*
X010121Y012696D01*
X010089Y012795D02*
X010213Y012795D01*
X010312Y012894D02*
X009991Y012894D01*
X010991Y012894D02*
X011312Y012894D01*
X011213Y012795D02*
X011089Y012795D01*
X011121Y012696D02*
X011181Y012696D01*
X011181Y012499D02*
X011121Y012499D01*
X011121Y012401D02*
X011181Y012401D01*
X011253Y012302D02*
X011050Y012302D01*
X010651Y011568D02*
X010551Y011468D01*
X010551Y011168D01*
X010124Y010741D01*
X010124Y008258D01*
X010439Y008258D02*
X010439Y010556D01*
X010951Y011068D01*
X011151Y011068D01*
X011651Y011568D01*
X011851Y010768D02*
X012651Y011568D01*
X012253Y012302D02*
X012050Y012302D01*
X012121Y012401D02*
X012181Y012401D01*
X012181Y012499D02*
X012121Y012499D01*
X012121Y012696D02*
X012181Y012696D01*
X012213Y012795D02*
X012089Y012795D01*
X011991Y012894D02*
X012312Y012894D01*
X012991Y012894D02*
X013312Y012894D01*
X013213Y012795D02*
X013089Y012795D01*
X013121Y012696D02*
X013181Y012696D01*
X013181Y012499D02*
X013121Y012499D01*
X013121Y012401D02*
X013181Y012401D01*
X013253Y012302D02*
X013050Y012302D01*
X013651Y011568D02*
X013601Y011518D01*
X013601Y007868D01*
X013404Y007671D01*
X011341Y007671D01*
X011341Y007356D02*
X013639Y007356D01*
X013901Y007618D01*
X013901Y010018D01*
X014651Y010768D01*
X014651Y011568D01*
X015051Y010968D02*
X015651Y011568D01*
X016296Y012007D02*
X016425Y012007D01*
X016450Y012105D02*
X016197Y012105D01*
X016099Y012204D02*
X016351Y012204D01*
X016253Y012302D02*
X016050Y012302D01*
X016121Y012401D02*
X016181Y012401D01*
X016181Y012499D02*
X016121Y012499D01*
X016121Y012696D02*
X016181Y012696D01*
X016213Y012795D02*
X016089Y012795D01*
X015991Y012894D02*
X016312Y012894D01*
X016951Y012204D02*
X017001Y012204D01*
X017001Y012105D02*
X016853Y012105D01*
X016877Y012007D02*
X017001Y012007D01*
X017001Y011908D02*
X016976Y011908D01*
X016966Y011218D02*
X017001Y011218D01*
X017001Y011120D02*
X016867Y011120D01*
X016863Y011021D02*
X017001Y011021D01*
X017001Y010923D02*
X016961Y010923D01*
X016701Y010923D02*
X016601Y010923D01*
X016601Y011021D02*
X016701Y011021D01*
X016701Y010824D02*
X016601Y010824D01*
X016601Y010726D02*
X016701Y010726D01*
X016701Y010627D02*
X016601Y010627D01*
X016181Y010430D02*
X016121Y010430D01*
X016079Y010331D02*
X016223Y010331D01*
X016322Y010233D02*
X015980Y010233D01*
X015882Y010134D02*
X016421Y010134D01*
X016454Y010036D02*
X015848Y010036D01*
X015051Y010068D02*
X015051Y010968D01*
X015051Y010068D02*
X014201Y009218D01*
X014201Y007368D01*
X013874Y007041D01*
X011341Y007041D01*
X011341Y006726D02*
X014109Y006726D01*
X014501Y007118D01*
X014501Y008418D01*
X014726Y008361D02*
X015161Y008361D01*
X015181Y008459D02*
X014825Y008459D01*
X014923Y008558D02*
X015181Y008558D01*
X015181Y008656D02*
X015022Y008656D01*
X015120Y008755D02*
X015181Y008755D01*
X015219Y008853D02*
X015271Y008853D01*
X015317Y008952D02*
X015370Y008952D01*
X015416Y009050D02*
X017001Y009050D01*
X017001Y008952D02*
X016932Y008952D01*
X016701Y008952D02*
X016601Y008952D01*
X016601Y008853D02*
X016701Y008853D01*
X016701Y008755D02*
X016601Y008755D01*
X016601Y008656D02*
X016701Y008656D01*
X016601Y008558D02*
X016121Y008558D01*
X016181Y008518D02*
X016181Y008374D01*
X016456Y008098D01*
X016601Y008098D01*
X016601Y008518D01*
X016181Y008518D01*
X016181Y008459D02*
X016121Y008459D01*
X016108Y008361D02*
X016194Y008361D01*
X016293Y008262D02*
X016009Y008262D01*
X015911Y008163D02*
X016391Y008163D01*
X016601Y008163D02*
X016701Y008163D01*
X016701Y008262D02*
X016601Y008262D01*
X016601Y008361D02*
X016701Y008361D01*
X016701Y008459D02*
X016601Y008459D01*
X016911Y008163D02*
X017001Y008163D01*
X017001Y008065D02*
X015431Y008065D01*
X015385Y007966D02*
X015332Y007966D01*
X015286Y007868D02*
X015234Y007868D01*
X015187Y007769D02*
X015135Y007769D01*
X015181Y007671D02*
X015036Y007671D01*
X015001Y007572D02*
X015181Y007572D01*
X015181Y007474D02*
X015001Y007474D01*
X015001Y007375D02*
X015175Y007375D01*
X015077Y007277D02*
X015001Y007277D01*
X015101Y007018D02*
X015651Y007568D01*
X016024Y007277D02*
X016278Y007277D01*
X016181Y007374D02*
X016456Y007098D01*
X016601Y007098D01*
X016601Y007518D01*
X016181Y007518D01*
X016181Y007374D01*
X016181Y007375D02*
X016121Y007375D01*
X016121Y007474D02*
X016181Y007474D01*
X016121Y007572D02*
X016601Y007572D01*
X016601Y007474D02*
X016701Y007474D01*
X016701Y007375D02*
X016601Y007375D01*
X016601Y007277D02*
X016701Y007277D01*
X016701Y007178D02*
X016601Y007178D01*
X016377Y007178D02*
X015926Y007178D01*
X015903Y006981D02*
X016399Y006981D01*
X016301Y006882D02*
X016002Y006882D01*
X016100Y006784D02*
X016202Y006784D01*
X016181Y006685D02*
X016121Y006685D01*
X016121Y006587D02*
X016601Y006587D01*
X016601Y006518D02*
X016181Y006518D01*
X016181Y006374D01*
X016456Y006098D01*
X016601Y006098D01*
X016601Y006518D01*
X016601Y006488D02*
X016701Y006488D01*
X016701Y006390D02*
X016601Y006390D01*
X016601Y006291D02*
X016701Y006291D01*
X016701Y006193D02*
X016601Y006193D01*
X016362Y006193D02*
X015940Y006193D01*
X016039Y006291D02*
X016264Y006291D01*
X016181Y006390D02*
X016121Y006390D01*
X016121Y006488D02*
X016181Y006488D01*
X016601Y006685D02*
X016701Y006685D01*
X016701Y006784D02*
X016601Y006784D01*
X016601Y006882D02*
X016701Y006882D01*
X016701Y006981D02*
X016601Y006981D01*
X016903Y006981D02*
X017001Y006981D01*
X017001Y007079D02*
X015445Y007079D01*
X015399Y006981D02*
X015347Y006981D01*
X015101Y007018D02*
X015101Y006618D01*
X014579Y006096D01*
X011341Y006096D01*
X011341Y006411D02*
X014344Y006411D01*
X014801Y006868D01*
X014801Y007718D01*
X015651Y008568D01*
X016031Y008853D02*
X016271Y008853D01*
X016181Y008755D02*
X016121Y008755D01*
X016121Y008656D02*
X016181Y008656D01*
X016370Y008952D02*
X015932Y008952D01*
X015062Y008262D02*
X014701Y008262D01*
X014701Y008163D02*
X014964Y008163D01*
X014865Y008065D02*
X014701Y008065D01*
X014701Y007966D02*
X014766Y007966D01*
X015918Y007966D02*
X016385Y007966D01*
X016286Y007868D02*
X016016Y007868D01*
X016115Y007769D02*
X016187Y007769D01*
X016181Y007671D02*
X016121Y007671D01*
X016601Y007671D02*
X016701Y007671D01*
X016701Y007769D02*
X016601Y007769D01*
X016601Y007868D02*
X016701Y007868D01*
X016701Y007966D02*
X016601Y007966D01*
X016918Y007966D02*
X017001Y007966D01*
X017001Y007178D02*
X016925Y007178D01*
X016940Y006193D02*
X017001Y006193D01*
X017001Y006094D02*
X015460Y006094D01*
X015414Y005996D02*
X015361Y005996D01*
X015315Y005897D02*
X015263Y005897D01*
X015217Y005798D02*
X015164Y005798D01*
X015181Y005700D02*
X015066Y005700D01*
X014864Y005781D02*
X015651Y006568D01*
X015889Y005996D02*
X016414Y005996D01*
X016315Y005897D02*
X015987Y005897D01*
X016086Y005798D02*
X016217Y005798D01*
X016181Y005700D02*
X016121Y005700D01*
X016121Y005601D02*
X016601Y005601D01*
X016601Y005518D02*
X016181Y005518D01*
X016181Y005374D01*
X016456Y005098D01*
X016601Y005098D01*
X016601Y005518D01*
X016601Y005503D02*
X016701Y005503D01*
X016701Y005404D02*
X016601Y005404D01*
X016601Y005306D02*
X016701Y005306D01*
X016701Y005207D02*
X016601Y005207D01*
X016601Y005109D02*
X016701Y005109D01*
X016701Y005010D02*
X016601Y005010D01*
X016601Y004912D02*
X016701Y004912D01*
X016701Y004813D02*
X016601Y004813D01*
X016601Y004714D02*
X016701Y004714D01*
X016601Y004616D02*
X016121Y004616D01*
X016121Y004714D02*
X016181Y004714D01*
X016231Y004813D02*
X016071Y004813D01*
X015973Y004912D02*
X016330Y004912D01*
X016428Y005010D02*
X015874Y005010D01*
X015856Y005109D02*
X016446Y005109D01*
X016348Y005207D02*
X015955Y005207D01*
X016053Y005306D02*
X016249Y005306D01*
X016181Y005404D02*
X016121Y005404D01*
X016121Y005503D02*
X016181Y005503D01*
X016601Y005700D02*
X016701Y005700D01*
X016701Y005798D02*
X016601Y005798D01*
X016601Y005897D02*
X016701Y005897D01*
X016701Y005996D02*
X016601Y005996D01*
X016889Y005996D02*
X017001Y005996D01*
X016987Y005897D02*
X017001Y005897D01*
X017001Y005207D02*
X016955Y005207D01*
X017001Y005109D02*
X016856Y005109D01*
X016874Y005010D02*
X017001Y005010D01*
X017001Y004912D02*
X016973Y004912D01*
X016701Y004517D02*
X016601Y004517D01*
X016601Y004518D02*
X016601Y004098D01*
X016456Y004098D01*
X016181Y004374D01*
X016181Y004518D01*
X016601Y004518D01*
X016601Y004419D02*
X016701Y004419D01*
X016701Y004320D02*
X016601Y004320D01*
X016601Y004222D02*
X016701Y004222D01*
X016701Y004123D02*
X016601Y004123D01*
X016601Y004025D02*
X016701Y004025D01*
X016701Y003926D02*
X016601Y003926D01*
X016601Y003828D02*
X016701Y003828D01*
X016701Y003729D02*
X016601Y003729D01*
X016601Y003630D02*
X016701Y003630D01*
X016601Y003532D02*
X016121Y003532D01*
X016181Y003518D02*
X016181Y003374D01*
X016456Y003098D01*
X016601Y003098D01*
X016601Y003518D01*
X016181Y003518D01*
X016181Y003433D02*
X016121Y003433D01*
X016082Y003335D02*
X016220Y003335D01*
X016319Y003236D02*
X015984Y003236D01*
X015885Y003138D02*
X016417Y003138D01*
X016601Y003138D02*
X016701Y003138D01*
X016701Y003236D02*
X016601Y003236D01*
X016601Y003335D02*
X016701Y003335D01*
X016701Y003433D02*
X016601Y003433D01*
X016885Y003138D02*
X017001Y003138D01*
X017001Y003236D02*
X016984Y003236D01*
X017001Y003039D02*
X015463Y003039D01*
X015417Y003138D02*
X015365Y003138D01*
X015319Y003236D02*
X015301Y003236D01*
X015101Y003118D02*
X015651Y002568D01*
X015304Y002251D02*
X013498Y002251D01*
X013498Y002349D02*
X015205Y002349D01*
X015181Y002448D02*
X013498Y002448D01*
X013464Y002546D02*
X015181Y002546D01*
X015181Y002645D02*
X013492Y002645D01*
X013498Y002744D02*
X015181Y002744D01*
X015095Y002842D02*
X013498Y002842D01*
X013498Y003039D02*
X014901Y003039D01*
X014901Y003138D02*
X013498Y003138D01*
X013443Y003236D02*
X014901Y003236D01*
X014901Y003335D02*
X009067Y003335D01*
X009064Y003433D02*
X014901Y003433D01*
X014901Y003532D02*
X009064Y003532D01*
X009064Y003630D02*
X014901Y003630D01*
X014858Y003729D02*
X009064Y003729D01*
X009064Y003828D02*
X014759Y003828D01*
X014661Y003926D02*
X011242Y003926D01*
X011340Y004025D02*
X014562Y004025D01*
X014463Y004123D02*
X011439Y004123D01*
X011537Y004222D02*
X014365Y004222D01*
X014351Y004518D02*
X015101Y003768D01*
X015101Y003118D01*
X014996Y002941D02*
X013200Y002941D01*
X013151Y002903D02*
X013151Y003518D01*
X013103Y003236D02*
X013200Y003236D01*
X013200Y003138D02*
X013103Y003138D01*
X013103Y003039D02*
X013200Y003039D01*
X013102Y002941D02*
X012701Y002941D01*
X012701Y002842D02*
X012804Y002842D01*
X012804Y003039D02*
X012642Y003039D01*
X012804Y003138D02*
X009265Y003138D01*
X009363Y003039D02*
X010460Y003039D01*
X010401Y002941D02*
X009462Y002941D01*
X009560Y002842D02*
X010401Y002842D01*
X010401Y002349D02*
X008901Y002349D01*
X008901Y002251D02*
X010401Y002251D01*
X010405Y002152D02*
X008897Y002152D01*
X008901Y002448D02*
X009389Y002448D01*
X009290Y002546D02*
X008901Y002546D01*
X008901Y002645D02*
X009192Y002645D01*
X009093Y002744D02*
X008901Y002744D01*
X008901Y002842D02*
X008995Y002842D01*
X008551Y002568D02*
X007751Y002568D01*
X006486Y002568D01*
X006151Y002234D01*
X005804Y002251D02*
X004429Y002251D01*
X004429Y002349D02*
X005804Y002349D01*
X005804Y002448D02*
X004429Y002448D01*
X004429Y002546D02*
X005838Y002546D01*
X005810Y002645D02*
X004429Y002645D01*
X004429Y002744D02*
X005804Y002744D01*
X005804Y002842D02*
X004429Y002842D01*
X004429Y002941D02*
X004341Y003029D01*
X003390Y003029D01*
X003339Y002978D01*
X003318Y002999D01*
X003284Y003019D01*
X003246Y003029D01*
X003157Y003029D01*
X003068Y003029D01*
X003040Y003022D01*
X003032Y003029D01*
X002845Y003029D01*
X002845Y003479D01*
X002853Y003472D01*
X002982Y003418D01*
X003121Y003418D01*
X003249Y003472D01*
X003348Y003570D01*
X003401Y003699D01*
X003401Y003838D01*
X003348Y003967D01*
X003249Y004065D01*
X003151Y004106D01*
X003151Y004685D01*
X003334Y004868D01*
X006434Y004868D01*
X006551Y004985D01*
X006701Y005135D01*
X006701Y005221D01*
X006764Y005221D01*
X006809Y005266D01*
X007594Y005266D01*
X007649Y005211D01*
X008273Y005211D01*
X008331Y005268D01*
X008372Y005268D01*
X008294Y005190D01*
X008294Y004566D01*
X008349Y004511D01*
X008349Y003068D01*
X006689Y003068D01*
X006601Y002980D01*
X006601Y002768D01*
X006569Y002768D01*
X006498Y002768D01*
X006498Y002854D01*
X006200Y002854D01*
X006200Y002951D01*
X006498Y002951D01*
X006498Y003139D01*
X006488Y003177D01*
X006468Y003212D01*
X006440Y003240D01*
X006406Y003259D01*
X006368Y003269D01*
X006200Y003269D01*
X006200Y002952D01*
X006103Y002952D01*
X006103Y003269D01*
X005935Y003269D01*
X005896Y003259D01*
X005862Y003240D01*
X005834Y003212D01*
X005815Y003177D01*
X005804Y003139D01*
X005804Y002951D01*
X006102Y002951D01*
X006151Y002903D02*
X006151Y003518D01*
X006103Y003236D02*
X006200Y003236D01*
X006200Y003138D02*
X006103Y003138D01*
X006103Y003039D02*
X006200Y003039D01*
X006200Y002941D02*
X006601Y002941D01*
X006601Y002842D02*
X006498Y002842D01*
X006498Y003039D02*
X006660Y003039D01*
X006498Y003138D02*
X008349Y003138D01*
X008349Y003236D02*
X006443Y003236D01*
X005859Y003236D02*
X002845Y003236D01*
X002845Y003138D02*
X005804Y003138D01*
X005804Y003039D02*
X002845Y003039D01*
X002845Y003335D02*
X008349Y003335D01*
X008349Y003433D02*
X003157Y003433D01*
X003310Y003532D02*
X008349Y003532D01*
X008349Y003630D02*
X003373Y003630D01*
X003401Y003729D02*
X008349Y003729D01*
X008349Y003828D02*
X003401Y003828D01*
X003365Y003926D02*
X008349Y003926D01*
X008349Y004025D02*
X003290Y004025D01*
X003151Y004123D02*
X008349Y004123D01*
X008349Y004222D02*
X003151Y004222D01*
X003151Y004320D02*
X008349Y004320D01*
X008349Y004419D02*
X003151Y004419D01*
X003151Y004517D02*
X008343Y004517D01*
X008294Y004616D02*
X003151Y004616D01*
X003180Y004714D02*
X008294Y004714D01*
X008294Y004813D02*
X003279Y004813D01*
X003251Y005068D02*
X002951Y004768D01*
X002951Y003868D01*
X003051Y003768D01*
X002945Y003433D02*
X002845Y003433D01*
X003157Y003029D02*
X003157Y002604D01*
X003157Y002604D01*
X003157Y003029D01*
X003157Y002941D02*
X003157Y002941D01*
X003157Y002842D02*
X003157Y002842D01*
X003157Y002744D02*
X003157Y002744D01*
X003157Y002645D02*
X003157Y002645D01*
X002645Y002604D02*
X002645Y005278D01*
X003151Y005784D01*
X003518Y005798D02*
X005454Y005798D01*
X005450Y005785D02*
X005450Y005617D01*
X005768Y005617D01*
X005768Y005915D01*
X005580Y005915D01*
X005542Y005905D01*
X005508Y005885D01*
X005480Y005857D01*
X005460Y005823D01*
X005450Y005785D01*
X005450Y005700D02*
X003518Y005700D01*
X003518Y005601D02*
X005768Y005601D01*
X005768Y005617D02*
X005768Y005520D01*
X005450Y005520D01*
X005450Y005352D01*
X005460Y005314D01*
X005480Y005279D01*
X005491Y005268D01*
X003334Y005268D01*
X003168Y005268D01*
X002868Y004968D01*
X002845Y004945D01*
X002845Y005195D01*
X003087Y005437D01*
X003430Y005437D01*
X003518Y005525D01*
X003518Y005918D01*
X007561Y005918D01*
X007561Y005666D01*
X006852Y005666D01*
X006852Y005827D01*
X006764Y005915D01*
X006207Y005915D01*
X006151Y005859D01*
X006125Y005885D01*
X006091Y005905D01*
X006053Y005915D01*
X005865Y005915D01*
X005865Y005617D01*
X005768Y005617D01*
X005817Y005568D02*
X005301Y005568D01*
X005450Y005503D02*
X003496Y005503D01*
X003107Y005207D02*
X002857Y005207D01*
X002845Y005109D02*
X003009Y005109D01*
X002910Y005010D02*
X002845Y005010D01*
X002956Y005306D02*
X005465Y005306D01*
X005450Y005404D02*
X003055Y005404D01*
X003251Y005068D02*
X006351Y005068D01*
X006501Y005218D01*
X006501Y005553D01*
X006486Y005568D01*
X006501Y005553D02*
X006588Y005466D01*
X007961Y005466D01*
X007964Y005468D01*
X009301Y005468D01*
X009494Y005276D01*
X009494Y004878D01*
X009809Y004878D02*
X009809Y006411D01*
X007901Y008318D01*
X007901Y010118D01*
X008101Y010318D01*
X007301Y009868D02*
X007001Y010168D01*
X005251Y010168D01*
X004651Y010768D01*
X003451Y010768D01*
X002651Y011568D01*
X001651Y011568D02*
X002751Y010468D01*
X004551Y010468D01*
X005151Y009868D01*
X006651Y009868D01*
X006801Y009718D01*
X006554Y009445D02*
X003887Y009445D01*
X003845Y009543D02*
X006475Y009543D01*
X006434Y009642D02*
X003665Y009642D01*
X003484Y009740D02*
X004996Y009740D01*
X004898Y009839D02*
X003304Y009839D01*
X003123Y009937D02*
X004799Y009937D01*
X004701Y010036D02*
X002943Y010036D01*
X002762Y010134D02*
X004602Y010134D01*
X004504Y010233D02*
X002582Y010233D01*
X002605Y010331D02*
X002116Y010331D01*
X002116Y010233D02*
X002220Y010233D01*
X002185Y010134D02*
X002116Y010134D01*
X002116Y010036D02*
X002194Y010036D01*
X002192Y009937D02*
X002116Y009937D01*
X002116Y009839D02*
X002190Y009839D01*
X002188Y009740D02*
X002116Y009740D01*
X002116Y009642D02*
X002186Y009642D01*
X002184Y009543D02*
X002035Y009543D01*
X002182Y009445D02*
X001656Y009445D01*
X002009Y009346D02*
X002179Y009346D01*
X002122Y009247D02*
X002073Y009247D01*
X002092Y009201D02*
X002092Y009201D01*
X002083Y008755D02*
X002117Y008755D01*
X002123Y008656D02*
X002096Y008656D01*
X002099Y008558D02*
X002128Y008558D01*
X002134Y008459D02*
X002097Y008459D01*
X002072Y008361D02*
X002139Y008361D01*
X002145Y008262D02*
X001979Y008262D01*
X002005Y008163D02*
X002150Y008163D01*
X002156Y008065D02*
X002077Y008065D01*
X002109Y007966D02*
X002161Y007966D01*
X002167Y007868D02*
X002094Y007868D01*
X002114Y007769D02*
X002172Y007769D01*
X002166Y007671D02*
X002136Y007671D01*
X002142Y007572D02*
X002222Y007572D01*
X002137Y007474D02*
X005450Y007474D01*
X005450Y007375D02*
X002117Y007375D01*
X002064Y007277D02*
X005483Y007277D01*
X005768Y007277D02*
X005865Y007277D01*
X005865Y007375D02*
X005768Y007375D01*
X005768Y007474D02*
X005865Y007474D01*
X005817Y007568D02*
X005301Y007568D01*
X005450Y007671D02*
X002695Y007671D01*
X002870Y007769D02*
X005450Y007769D01*
X005491Y007868D02*
X003044Y007868D01*
X003370Y007966D02*
X007101Y007966D01*
X007101Y007868D02*
X006812Y007868D01*
X006852Y007769D02*
X007101Y007769D01*
X007301Y007668D02*
X007301Y009868D01*
X007101Y009445D02*
X007048Y009445D01*
X007101Y009346D02*
X004029Y009346D01*
X004190Y009247D02*
X007101Y009247D01*
X007101Y009149D02*
X004350Y009149D01*
X004527Y009050D02*
X007101Y009050D01*
X007101Y008952D02*
X004626Y008952D01*
X004636Y008853D02*
X007101Y008853D01*
X007101Y008755D02*
X004603Y008755D01*
X004449Y008656D02*
X007101Y008656D01*
X007101Y008558D02*
X004295Y008558D01*
X004141Y008459D02*
X007101Y008459D01*
X007101Y008361D02*
X003987Y008361D01*
X003833Y008262D02*
X007101Y008262D01*
X007101Y008163D02*
X003679Y008163D01*
X003524Y008065D02*
X007101Y008065D01*
X007301Y007668D02*
X007614Y007356D01*
X007961Y007356D01*
X007961Y007041D02*
X007529Y007041D01*
X007001Y007568D01*
X006486Y007568D01*
X006820Y007277D02*
X007010Y007277D01*
X007109Y007178D02*
X001984Y007178D01*
X001857Y006784D02*
X000651Y006784D01*
X000651Y006685D02*
X001785Y006685D01*
X001785Y006587D02*
X000651Y006587D01*
X000651Y006488D02*
X001785Y006488D01*
X001785Y006390D02*
X000651Y006390D01*
X000651Y006291D02*
X001785Y006291D01*
X001786Y006193D02*
X000651Y006193D01*
X000708Y006094D02*
X001836Y006094D01*
X001785Y005996D02*
X000807Y005996D01*
X000905Y005897D02*
X001785Y005897D01*
X001785Y005798D02*
X001004Y005798D01*
X001102Y005700D02*
X001785Y005700D01*
X001785Y005601D02*
X001201Y005601D01*
X001300Y005503D02*
X001807Y005503D01*
X001595Y005207D02*
X002189Y005207D01*
X002189Y005109D02*
X001694Y005109D01*
X001792Y005010D02*
X002189Y005010D01*
X002189Y004912D02*
X001891Y004912D01*
X001989Y004813D02*
X002189Y004813D01*
X002189Y004714D02*
X002088Y004714D01*
X002151Y004616D02*
X002189Y004616D01*
X002189Y004517D02*
X002151Y004517D01*
X002151Y004419D02*
X002189Y004419D01*
X002189Y004320D02*
X002151Y004320D01*
X002151Y004222D02*
X002189Y004222D01*
X002189Y004123D02*
X002151Y004123D01*
X002151Y004025D02*
X002189Y004025D01*
X002189Y003926D02*
X002151Y003926D01*
X002151Y003828D02*
X002189Y003828D01*
X002189Y003729D02*
X002151Y003729D01*
X002151Y003630D02*
X002189Y003630D01*
X002183Y003532D02*
X002189Y003532D01*
X001751Y003630D02*
X000301Y003630D01*
X000301Y003532D02*
X001720Y003532D01*
X001641Y003433D02*
X000301Y003433D01*
X000301Y003335D02*
X001601Y003335D01*
X001601Y003236D02*
X000301Y003236D01*
X000301Y003138D02*
X001626Y003138D01*
X001751Y003729D02*
X000301Y003729D01*
X000301Y003828D02*
X001751Y003828D01*
X001751Y003926D02*
X000301Y003926D01*
X000301Y004025D02*
X001751Y004025D01*
X001751Y004123D02*
X000301Y004123D01*
X000301Y004222D02*
X001751Y004222D01*
X001751Y004320D02*
X000301Y004320D01*
X000301Y004419D02*
X001751Y004419D01*
X001719Y004517D02*
X000301Y004517D01*
X000301Y004616D02*
X001621Y004616D01*
X001522Y004714D02*
X000301Y004714D01*
X000301Y004813D02*
X001424Y004813D01*
X001325Y004912D02*
X000301Y004912D01*
X000301Y005010D02*
X001227Y005010D01*
X001128Y005109D02*
X000301Y005109D01*
X000301Y005207D02*
X001029Y005207D01*
X000931Y005306D02*
X000301Y005306D01*
X000301Y005404D02*
X000832Y005404D01*
X000734Y005503D02*
X000301Y005503D01*
X000301Y005601D02*
X000635Y005601D01*
X000537Y005700D02*
X000301Y005700D01*
X000301Y005798D02*
X000438Y005798D01*
X000340Y005897D02*
X000301Y005897D01*
X001398Y005404D02*
X002189Y005404D01*
X002189Y005306D02*
X001497Y005306D01*
X002151Y005784D02*
X002389Y005546D01*
X002389Y002604D01*
X004394Y002152D02*
X005804Y002152D01*
X005804Y002054D02*
X004667Y002054D01*
X004724Y001955D02*
X005804Y001955D01*
X006498Y001955D02*
X012804Y001955D01*
X012804Y002054D02*
X006498Y002054D01*
X006498Y002152D02*
X006605Y002152D01*
X006601Y002251D02*
X006498Y002251D01*
X006550Y002349D02*
X006601Y002349D01*
X004724Y001857D02*
X015275Y001857D01*
X015181Y001758D02*
X004724Y001758D01*
X004724Y001660D02*
X015181Y001660D01*
X015181Y001463D02*
X004724Y001463D01*
X004724Y001561D02*
X015601Y001561D01*
X015601Y001660D02*
X015701Y001660D01*
X015701Y001758D02*
X015601Y001758D01*
X015601Y001857D02*
X015701Y001857D01*
X015701Y001955D02*
X015601Y001955D01*
X015929Y001955D02*
X016373Y001955D01*
X016275Y001857D02*
X016027Y001857D01*
X016121Y001758D02*
X016181Y001758D01*
X016181Y001660D02*
X016121Y001660D01*
X016121Y001463D02*
X016181Y001463D01*
X016191Y001364D02*
X016111Y001364D01*
X016013Y001265D02*
X016289Y001265D01*
X016601Y001561D02*
X015701Y001561D01*
X015289Y001265D02*
X004724Y001265D01*
X004724Y001364D02*
X015191Y001364D01*
X015373Y001955D02*
X013498Y001955D01*
X013498Y002054D02*
X017001Y002054D01*
X017001Y002152D02*
X016900Y002152D01*
X016998Y002251D02*
X017001Y002251D01*
X016701Y002251D02*
X016601Y002251D01*
X016601Y002349D02*
X016701Y002349D01*
X016701Y002448D02*
X016601Y002448D01*
X016601Y002518D02*
X016601Y002098D01*
X016456Y002098D01*
X016181Y002374D01*
X016181Y002518D01*
X016601Y002518D01*
X016601Y002546D02*
X016121Y002546D01*
X016121Y002448D02*
X016181Y002448D01*
X016205Y002349D02*
X016097Y002349D01*
X015998Y002251D02*
X016304Y002251D01*
X016403Y002152D02*
X015900Y002152D01*
X015403Y002152D02*
X013498Y002152D01*
X013151Y002234D02*
X012817Y002568D01*
X011551Y002568D01*
X009551Y002568D01*
X008864Y003256D01*
X008864Y004878D01*
X008549Y004878D02*
X008549Y002571D01*
X008551Y002568D01*
X009166Y003236D02*
X012859Y003236D01*
X012753Y002349D02*
X012701Y002349D01*
X012701Y002251D02*
X012804Y002251D01*
X012804Y002152D02*
X012697Y002152D01*
X011101Y004068D02*
X010451Y004068D01*
X010124Y004396D01*
X010124Y004878D01*
X010439Y004878D02*
X010439Y004531D01*
X010601Y004368D01*
X010951Y004368D01*
X011401Y004818D01*
X014601Y004818D01*
X015651Y003768D01*
X015651Y003568D01*
X015958Y003926D02*
X016344Y003926D01*
X016246Y003828D02*
X016057Y003828D01*
X016121Y003729D02*
X016181Y003729D01*
X016181Y003630D02*
X016121Y003630D01*
X015859Y004025D02*
X016443Y004025D01*
X016432Y004123D02*
X015871Y004123D01*
X015969Y004222D02*
X016333Y004222D01*
X016235Y004320D02*
X016068Y004320D01*
X016121Y004419D02*
X016181Y004419D01*
X016181Y004517D02*
X016121Y004517D01*
X015651Y004568D02*
X015451Y004568D01*
X014901Y005118D01*
X010901Y005118D01*
X010754Y004971D01*
X010754Y004878D01*
X011341Y005466D02*
X015549Y005466D01*
X015651Y005568D01*
X015348Y005207D02*
X015095Y005207D01*
X015194Y005109D02*
X015446Y005109D01*
X015428Y005010D02*
X015292Y005010D01*
X014351Y004518D02*
X011551Y004518D01*
X011101Y004068D01*
X010311Y003926D02*
X009064Y003926D01*
X009064Y004025D02*
X010212Y004025D01*
X010113Y004123D02*
X009064Y004123D01*
X009064Y004222D02*
X010015Y004222D01*
X009924Y004320D02*
X009064Y004320D01*
X009064Y004419D02*
X009924Y004419D01*
X009351Y004218D02*
X009179Y004391D01*
X009179Y004878D01*
X009176Y004813D02*
X009181Y004813D01*
X009176Y004714D02*
X009181Y004714D01*
X009176Y004616D02*
X009181Y004616D01*
X009176Y004517D02*
X009181Y004517D01*
X008294Y004912D02*
X006477Y004912D01*
X006576Y005010D02*
X008294Y005010D01*
X008294Y005109D02*
X006674Y005109D01*
X006701Y005207D02*
X008311Y005207D01*
X007961Y005466D02*
X007961Y005781D01*
X007961Y006096D02*
X007939Y006118D01*
X002501Y006118D01*
X002167Y006453D01*
X002151Y006453D01*
X002518Y006488D02*
X002785Y006488D01*
X002785Y006390D02*
X002518Y006390D01*
X002518Y006587D02*
X002785Y006587D01*
X002785Y006685D02*
X002518Y006685D01*
X002446Y006784D02*
X002857Y006784D01*
X003151Y006453D02*
X003217Y006453D01*
X003251Y006418D01*
X007954Y006418D01*
X007961Y006411D01*
X008361Y006390D02*
X009547Y006390D01*
X009609Y006291D02*
X008361Y006291D01*
X008361Y006193D02*
X009609Y006193D01*
X009609Y006094D02*
X008361Y006094D01*
X008361Y005996D02*
X009609Y005996D01*
X009609Y005897D02*
X008361Y005897D01*
X008361Y005798D02*
X009609Y005798D01*
X009609Y005700D02*
X008361Y005700D01*
X007561Y005700D02*
X006852Y005700D01*
X006852Y005798D02*
X007561Y005798D01*
X007561Y005897D02*
X006783Y005897D01*
X006189Y005897D02*
X006105Y005897D01*
X005865Y005897D02*
X005768Y005897D01*
X005768Y005798D02*
X005865Y005798D01*
X005865Y005700D02*
X005768Y005700D01*
X005528Y005897D02*
X003518Y005897D01*
X002520Y007572D02*
X005768Y007572D01*
X005768Y007671D02*
X005865Y007671D01*
X005865Y007769D02*
X005768Y007769D01*
X005768Y007868D02*
X005865Y007868D01*
X006143Y007868D02*
X006160Y007868D01*
X006150Y007277D02*
X006152Y007277D01*
X008357Y006587D02*
X009350Y006587D01*
X009448Y006488D02*
X008361Y006488D01*
X009451Y005601D02*
X009609Y005601D01*
X009609Y005503D02*
X009550Y005503D01*
X011341Y005781D02*
X014864Y005781D01*
X016969Y004222D02*
X017001Y004222D01*
X017001Y004123D02*
X016871Y004123D01*
X016859Y004025D02*
X017001Y004025D01*
X017001Y003926D02*
X016958Y003926D01*
X016943Y002941D02*
X017001Y002941D01*
X016701Y002941D02*
X016601Y002941D01*
X016601Y002842D02*
X016701Y002842D01*
X016701Y002744D02*
X016601Y002744D01*
X016601Y002645D02*
X016701Y002645D01*
X016359Y002941D02*
X015943Y002941D01*
X016042Y002842D02*
X016260Y002842D01*
X016181Y002744D02*
X016121Y002744D01*
X016121Y002645D02*
X016181Y002645D01*
X016601Y002152D02*
X016701Y002152D01*
X016701Y001955D02*
X016601Y001955D01*
X016601Y001857D02*
X016701Y001857D01*
X016701Y001758D02*
X016601Y001758D01*
X016601Y001660D02*
X016701Y001660D01*
X016929Y001955D02*
X017001Y001955D01*
X010754Y008258D02*
X010754Y010371D01*
X011151Y010768D01*
X011851Y010768D01*
X014050Y012302D02*
X014253Y012302D01*
X014181Y012401D02*
X014121Y012401D01*
X014121Y012499D02*
X014181Y012499D01*
X014181Y012696D02*
X014121Y012696D01*
X014089Y012795D02*
X014213Y012795D01*
X014312Y012894D02*
X013991Y012894D01*
X014991Y012894D02*
X015312Y012894D01*
X015213Y012795D02*
X015089Y012795D01*
X015121Y012696D02*
X015181Y012696D01*
X015181Y012499D02*
X015121Y012499D01*
X015121Y012401D02*
X015181Y012401D01*
X015253Y012302D02*
X015050Y012302D01*
X016980Y010233D02*
X017001Y010233D01*
X017001Y010134D02*
X016882Y010134D01*
X016848Y010036D02*
X017001Y010036D01*
X017001Y009937D02*
X016947Y009937D01*
X016995Y009247D02*
X017001Y009247D01*
X017001Y009149D02*
X016896Y009149D01*
X006238Y011317D02*
X006185Y011317D01*
X006181Y011415D02*
X006121Y011415D01*
X006121Y011514D02*
X006181Y011514D01*
X006181Y011711D02*
X006121Y011711D01*
X006075Y011810D02*
X006228Y011810D01*
X006253Y012302D02*
X006050Y012302D01*
X006121Y012401D02*
X006181Y012401D01*
X006181Y012499D02*
X006121Y012499D01*
X006121Y012696D02*
X006181Y012696D01*
X006213Y012795D02*
X006089Y012795D01*
X005991Y012894D02*
X006312Y012894D01*
X005312Y012894D02*
X004991Y012894D01*
X005089Y012795D02*
X005213Y012795D01*
X005181Y012696D02*
X005121Y012696D01*
X005121Y012499D02*
X005181Y012499D01*
X005181Y012401D02*
X005121Y012401D01*
X005050Y012302D02*
X005253Y012302D01*
X002507Y010430D02*
X002116Y010430D01*
X002116Y010529D02*
X002408Y010529D01*
X002310Y010627D02*
X002021Y010627D01*
D22*
X005301Y007568D03*
X005301Y005568D03*
X006151Y003518D03*
X009351Y004218D03*
X008601Y006718D03*
X006801Y009718D03*
X008101Y010318D03*
X001501Y003668D03*
X013151Y003518D03*
D23*
X003051Y003768D03*
X001951Y003268D03*
D24*
X001606Y007293D02*
X001666Y007333D01*
X001696Y007403D01*
X001726Y007503D01*
X001756Y007633D01*
X001806Y007693D01*
X001826Y007703D01*
X001876Y007683D01*
X001916Y007633D01*
X001946Y007553D01*
X001946Y007633D01*
X001916Y007733D01*
X001876Y007803D01*
X001786Y007803D01*
X001746Y007743D01*
X001786Y007743D01*
X001866Y007753D01*
X001746Y007743D02*
X001716Y007613D01*
X001666Y007463D01*
X001616Y007413D01*
X001536Y007413D01*
X001476Y007493D01*
X001466Y007523D02*
X001476Y007423D01*
X001506Y007343D01*
X001506Y007373D01*
X001526Y007373D01*
X001626Y007363D01*
X001606Y007293D02*
X001566Y007293D01*
X001506Y007343D01*
X001466Y007523D02*
X001466Y007643D01*
X001486Y007723D01*
X001516Y007783D01*
X001916Y007963D02*
X001726Y008223D01*
X001686Y008223D01*
X001476Y008223D01*
X001476Y008323D01*
X001686Y008323D01*
X001906Y008583D01*
X001906Y008463D01*
X001716Y008256D01*
X001716Y008263D01*
X001696Y008263D01*
X001506Y008273D01*
X001686Y008223D02*
X001716Y008256D01*
X001596Y008703D02*
X001656Y008743D01*
X001686Y008813D01*
X001716Y008913D01*
X001746Y009043D01*
X001796Y009103D01*
X001816Y009113D01*
X001866Y009093D01*
X001906Y009043D01*
X001936Y008963D01*
X001934Y008944D01*
X001934Y008943D01*
X001936Y008943D01*
X001936Y009043D01*
X001906Y009143D01*
X001866Y009213D01*
X001776Y009213D01*
X001756Y009183D01*
X001756Y009153D01*
X001776Y009153D01*
X001856Y009163D01*
X001756Y009183D02*
X001736Y009153D01*
X001706Y009023D01*
X001656Y008873D01*
X001606Y008823D01*
X001526Y008823D01*
X001466Y008903D01*
X001456Y008933D02*
X001466Y008833D01*
X001496Y008753D01*
X001516Y008753D01*
X001516Y008783D01*
X001616Y008773D01*
X001596Y008703D02*
X001556Y008703D01*
X001496Y008753D01*
X001456Y008933D02*
X001456Y009053D01*
X001476Y009133D01*
X001506Y009193D01*
X001466Y009353D02*
X001466Y009703D01*
X001466Y009753D01*
X001926Y009753D01*
X001926Y009703D01*
X001466Y009703D01*
X001466Y009753D02*
X001466Y009803D01*
X001926Y009803D01*
X001926Y009753D01*
X001926Y009993D02*
X001926Y010343D01*
X001466Y010343D01*
X001466Y010403D01*
X001926Y010403D01*
X001926Y010453D01*
X001716Y010453D01*
X001716Y009993D01*
X001466Y009993D02*
X001466Y010343D01*
X001466Y010403D02*
X001466Y010453D01*
X001716Y010453D01*
X001926Y010403D02*
X001926Y010343D01*
X002386Y010123D02*
X002996Y009013D01*
X003216Y009143D02*
X003216Y008863D01*
X004436Y008873D01*
X003216Y008093D01*
X003146Y008143D01*
X002366Y007703D01*
X002286Y009133D01*
X002366Y009193D01*
X002386Y010123D01*
X003686Y009413D01*
X003686Y009333D01*
X004436Y008873D01*
X003686Y009413D02*
X002766Y008883D01*
X002976Y008743D02*
X002366Y007713D01*
X001946Y007553D02*
X001946Y007533D01*
X001946Y007553D02*
X001936Y007463D01*
X001886Y007343D01*
X001296Y007303D02*
X001296Y010443D01*
X002286Y009133D02*
X002976Y008743D01*
X003206Y008613D01*
X003216Y008863D02*
X003216Y008093D01*
X001876Y008753D02*
X001926Y008873D01*
X001934Y008944D01*
M02*
