G75*
G70*
%OFA0B0*%
%FSLAX24Y24*%
%IPPOS*%
%LPD*%
%AMOC8*
5,1,8,0,0,1.08239X$1,22.5*
%
%ADD10OC8,0.0720*%
D10*
X000651Y011568D03*
X001651Y011568D03*
X002651Y011568D03*
X003651Y011568D03*
X004651Y011568D03*
X005651Y011568D03*
X006651Y011568D03*
X007651Y011568D03*
X008651Y011568D03*
X009651Y011568D03*
X010651Y011568D03*
X011651Y011568D03*
X012651Y011568D03*
X013651Y011568D03*
X014651Y011568D03*
X015651Y011568D03*
X016651Y011568D03*
X016651Y010568D03*
X015651Y010568D03*
X015651Y009568D03*
X016651Y009568D03*
X016651Y008568D03*
X015651Y008568D03*
X015651Y007568D03*
X016651Y007568D03*
X016651Y006568D03*
X015651Y006568D03*
X015651Y005568D03*
X016651Y005568D03*
X016651Y004568D03*
X015651Y004568D03*
X015651Y003568D03*
X016651Y003568D03*
X016651Y002568D03*
X015651Y002568D03*
X015651Y001568D03*
X016651Y001568D03*
X016651Y012568D03*
X015651Y012568D03*
X014651Y012568D03*
X013651Y012568D03*
X012651Y012568D03*
X011651Y012568D03*
X010651Y012568D03*
X009651Y012568D03*
X008651Y012568D03*
X007651Y012568D03*
X006651Y012568D03*
X005651Y012568D03*
X004651Y012568D03*
X003651Y012568D03*
X002651Y012568D03*
X001651Y012568D03*
X000651Y012568D03*
M02*
