%
M48
M72
T01C0.0200
T02C0.0236
T03C0.0400
%
T01
X1951Y3268
X3051Y3768
T02
X1501Y3668
X5301Y5568
X5301Y7568
X6801Y9718
X8101Y10318
X8601Y6718
X9351Y4218
X6151Y3518
X13151Y3518
T03
X15651Y3568
X16651Y3568
X16651Y2568
X15651Y2568
X15651Y1568
X16651Y1568
X16651Y4568
X15651Y4568
X15651Y5568
X16651Y5568
X16651Y6568
X15651Y6568
X15651Y7568
X16651Y7568
X16651Y8568
X15651Y8568
X15651Y9568
X16651Y9568
X16651Y10568
X15651Y10568
X15651Y11568
X16651Y11568
X16651Y12568
X15651Y12568
X14651Y12568
X13651Y12568
X12651Y12568
X11651Y12568
X10651Y12568
X9651Y12568
X8651Y12568
X7651Y12568
X6651Y12568
X5651Y12568
X4651Y12568
X3651Y12568
X2651Y12568
X1651Y12568
X651Y12568
X651Y11568
X1651Y11568
X2651Y11568
X3651Y11568
X4651Y11568
X5651Y11568
X6651Y11568
X7651Y11568
X8651Y11568
X9651Y11568
X10651Y11568
X11651Y11568
X12651Y11568
X13651Y11568
X14651Y11568
M30
