G75*
G70*
%OFA0B0*%
%FSLAX24Y24*%
%IPPOS*%
%LPD*%
%AMOC8*
5,1,8,0,0,1.08239X$1,22.5*
%
%ADD10C,0.0080*%
%ADD11C,0.0060*%
D10*
X003901Y003528D02*
X004061Y003428D01*
X005821Y002628D01*
X006621Y002348D01*
X007061Y002228D01*
X007301Y002228D01*
X007501Y002268D01*
X010941Y003388D01*
X010901Y003388D02*
X009981Y003668D01*
X009861Y003628D02*
X009541Y003428D01*
X009141Y003268D01*
X008861Y003188D01*
X008581Y003148D01*
X008261Y003108D01*
X007861Y003148D01*
X007501Y003228D01*
X007141Y003348D01*
X006821Y003508D01*
X006581Y003748D01*
X006381Y004028D01*
X006261Y004308D01*
X006241Y004468D01*
X006301Y004668D01*
X006241Y004688D01*
X006241Y004468D01*
X006481Y004428D02*
X006481Y004328D01*
X006581Y004208D01*
X006701Y004148D01*
X006801Y004188D01*
X006801Y004248D01*
X006721Y004268D01*
X006641Y004368D01*
X006621Y004528D01*
X006541Y004508D01*
X006481Y004428D01*
X006494Y004446D02*
X006632Y004446D01*
X006661Y004388D02*
X006741Y004268D01*
X006861Y004228D01*
X008581Y003428D01*
X008741Y003388D01*
X008901Y003428D01*
X009301Y003588D01*
X009781Y003828D01*
X009861Y003908D01*
X009881Y003988D01*
X009981Y004088D01*
X009981Y004168D01*
X009921Y004228D01*
X009981Y004308D02*
X009821Y004188D01*
X009661Y004268D02*
X009861Y004428D01*
X009861Y004588D01*
X009856Y004603D02*
X009642Y004603D01*
X009641Y004608D02*
X009721Y004688D01*
X009821Y004748D01*
X009901Y004768D01*
X009941Y005148D01*
X010041Y005088D01*
X010001Y004748D01*
X010041Y004748D01*
X010121Y004688D01*
X010141Y004628D01*
X010121Y004548D01*
X010061Y004508D01*
X009881Y004628D01*
X009841Y004588D01*
X009841Y004508D01*
X009741Y004468D01*
X009661Y004508D01*
X009641Y004608D01*
X009658Y004524D02*
X009841Y004524D01*
X009920Y004603D02*
X010135Y004603D01*
X010124Y004681D02*
X009714Y004681D01*
X009601Y004808D02*
X009561Y004768D01*
X009401Y004868D01*
X009361Y004828D01*
X009341Y004728D01*
X009261Y004708D01*
X009181Y004768D01*
X009181Y004888D01*
X009261Y004968D01*
X009381Y005028D01*
X009421Y005068D01*
X009441Y005468D01*
X009541Y005428D01*
X009501Y005028D01*
X009561Y004988D01*
X009621Y004928D01*
X009621Y004868D01*
X009601Y004808D01*
X009611Y004838D02*
X009449Y004838D01*
X009381Y004828D02*
X009381Y004668D01*
X009181Y004508D01*
X009261Y004588D02*
X008961Y004748D01*
X009021Y004788D02*
X009061Y004828D01*
X009061Y004988D01*
X009061Y005008D02*
X008921Y005108D01*
X008881Y005048D01*
X008841Y004928D01*
X008721Y004928D01*
X008661Y004988D01*
X008661Y005108D01*
X008761Y005208D01*
X008881Y005268D01*
X008921Y005308D01*
X008941Y005628D01*
X009041Y005628D01*
X009021Y005408D01*
X009001Y005268D01*
X009061Y005228D01*
X009141Y005168D01*
X009141Y005108D01*
X009101Y005028D01*
X009061Y005008D01*
X009124Y005074D02*
X008969Y005074D01*
X008901Y005068D02*
X008901Y004908D01*
X008801Y004828D01*
X008501Y004988D01*
X008541Y005068D02*
X008381Y004908D01*
X008221Y004988D02*
X008381Y005148D01*
X008381Y005308D01*
X008363Y005310D02*
X008208Y005310D01*
X008201Y005288D02*
X008241Y005408D01*
X008301Y005448D01*
X008421Y005468D01*
X008421Y005668D01*
X008541Y005668D01*
X008541Y005468D01*
X008641Y005428D01*
X008661Y005348D01*
X008641Y005248D01*
X008581Y005188D01*
X008561Y005248D01*
X008401Y005348D01*
X008341Y005288D01*
X008321Y005148D01*
X008241Y005168D01*
X008201Y005288D01*
X008220Y005231D02*
X008333Y005231D01*
X008322Y005153D02*
X008304Y005153D01*
X008301Y005088D02*
X008021Y005228D01*
X007941Y005268D01*
X007861Y005268D01*
X007701Y005228D01*
X007341Y005068D01*
X007461Y005128D01*
X006981Y005428D01*
X006861Y005368D01*
X007341Y005068D01*
X007021Y004908D01*
X006781Y004708D01*
X006621Y004548D01*
X006661Y004388D01*
X006642Y004367D02*
X006481Y004367D01*
X006514Y004289D02*
X006705Y004289D01*
X006801Y004210D02*
X006580Y004210D01*
X006861Y004228D02*
X006861Y004348D01*
X007101Y004548D01*
X007701Y004828D01*
X007901Y004908D01*
X007981Y004908D01*
X009881Y003988D01*
X010061Y003828D02*
X009861Y003628D01*
X010061Y003828D02*
X010221Y004068D01*
X010261Y004268D01*
X010261Y004508D01*
X010181Y004868D01*
X009941Y005148D01*
X009661Y005348D01*
X009341Y005548D01*
X008941Y005668D01*
X008501Y005708D01*
X007981Y005708D01*
X007541Y005628D01*
X007141Y005508D01*
X006741Y005268D01*
X006421Y004988D01*
X006341Y004808D01*
X006301Y004668D01*
X006305Y004681D02*
X006262Y004681D01*
X006241Y004688D02*
X006301Y005068D01*
X006361Y005208D01*
X006461Y005348D01*
X006621Y005528D01*
X006781Y005668D01*
X007181Y005908D01*
X007621Y006028D01*
X008021Y006108D01*
X008381Y006148D01*
X008941Y006068D01*
X009501Y005828D01*
X009541Y005788D01*
X009501Y005708D01*
X009501Y005628D01*
X009541Y005508D01*
X009661Y005468D01*
X009781Y005468D01*
X009901Y005548D01*
X010061Y005348D01*
X010221Y005028D01*
X010261Y004828D01*
X010261Y004508D01*
X010258Y004524D02*
X010261Y004524D01*
X010261Y004603D02*
X010240Y004603D01*
X010223Y004681D02*
X010261Y004681D01*
X010261Y004760D02*
X010205Y004760D01*
X010188Y004838D02*
X010259Y004838D01*
X010243Y004917D02*
X010140Y004917D01*
X010072Y004996D02*
X010228Y004996D01*
X010198Y005074D02*
X010005Y005074D01*
X010040Y005074D02*
X009933Y005074D01*
X009935Y005153D02*
X010159Y005153D01*
X010120Y005231D02*
X009825Y005231D01*
X009715Y005310D02*
X010081Y005310D01*
X010029Y005388D02*
X009597Y005388D01*
X009537Y005388D02*
X009437Y005388D01*
X009433Y005310D02*
X009529Y005310D01*
X009521Y005231D02*
X009429Y005231D01*
X009425Y005153D02*
X009514Y005153D01*
X009506Y005074D02*
X009421Y005074D01*
X009316Y004996D02*
X009550Y004996D01*
X009621Y004917D02*
X009210Y004917D01*
X009181Y004838D02*
X009371Y004838D01*
X009348Y004760D02*
X009192Y004760D01*
X009021Y004788D02*
X008861Y004668D01*
X008801Y004828D02*
X008701Y004748D01*
X008661Y004996D02*
X008864Y004996D01*
X008898Y005074D02*
X008661Y005074D01*
X008705Y005153D02*
X009141Y005153D01*
X009057Y005231D02*
X008807Y005231D01*
X008921Y005310D02*
X009007Y005310D01*
X009018Y005388D02*
X008926Y005388D01*
X008931Y005467D02*
X009026Y005467D01*
X009034Y005545D02*
X008936Y005545D01*
X008941Y005624D02*
X009041Y005624D01*
X009089Y005624D02*
X009503Y005624D01*
X009501Y005702D02*
X008567Y005702D01*
X008541Y005624D02*
X008421Y005624D01*
X008421Y005545D02*
X008541Y005545D01*
X008545Y005467D02*
X008412Y005467D01*
X008463Y005310D02*
X008653Y005310D01*
X008651Y005388D02*
X008234Y005388D01*
X008021Y005228D02*
X008021Y005108D01*
X007981Y004948D01*
X007721Y005248D02*
X007601Y005188D01*
X007081Y005508D01*
X007201Y005568D01*
X007721Y005248D01*
X007687Y005231D02*
X007532Y005231D01*
X007621Y005310D02*
X007404Y005310D01*
X007494Y005388D02*
X007276Y005388D01*
X007366Y005467D02*
X007149Y005467D01*
X007072Y005467D02*
X006566Y005467D01*
X006497Y005388D02*
X006941Y005388D01*
X006901Y005388D02*
X007045Y005388D01*
X006955Y005310D02*
X007171Y005310D01*
X007081Y005231D02*
X007297Y005231D01*
X007206Y005153D02*
X007422Y005153D01*
X007353Y005074D02*
X007332Y005074D01*
X007221Y005008D02*
X007081Y004948D01*
X006641Y005208D01*
X006741Y005288D01*
X007221Y005008D01*
X007191Y004996D02*
X007001Y004996D01*
X007109Y005074D02*
X006868Y005074D01*
X006974Y005153D02*
X006736Y005153D01*
X006699Y005231D02*
X006377Y005231D01*
X006337Y005153D02*
X006609Y005153D01*
X006670Y005231D02*
X006839Y005231D01*
X006810Y005310D02*
X006434Y005310D01*
X006519Y005074D02*
X006304Y005074D01*
X005661Y005628D02*
X005625Y005583D01*
X005591Y005535D01*
X005561Y005486D01*
X005534Y005434D01*
X005510Y005381D01*
X005490Y005327D01*
X005474Y005271D01*
X005461Y005215D01*
X005451Y005157D01*
X005446Y005100D01*
X005444Y005041D01*
X005446Y004983D01*
X005452Y004926D01*
X005461Y004868D01*
X005501Y004828D01*
X005541Y004828D01*
X005621Y004868D01*
X005550Y004917D02*
X005501Y004917D01*
X005501Y004868D02*
X005661Y005028D01*
X005741Y005308D01*
X005661Y005548D01*
X005501Y005228D01*
X005501Y004868D01*
X005501Y004996D02*
X005628Y004996D01*
X005674Y005074D02*
X005501Y005074D01*
X005501Y005153D02*
X005697Y005153D01*
X005719Y005231D02*
X005503Y005231D01*
X005542Y005310D02*
X005741Y005310D01*
X005715Y005388D02*
X005581Y005388D01*
X005620Y005467D02*
X005688Y005467D01*
X005660Y005545D02*
X005662Y005545D01*
X005661Y005628D02*
X005701Y005628D01*
X005582Y005708D02*
X005595Y005727D01*
X005610Y005744D01*
X005628Y005758D01*
X005648Y005770D01*
X005670Y005778D01*
X005692Y005784D01*
X005715Y005786D01*
X005738Y005785D01*
X005761Y005780D01*
X005782Y005772D01*
X005803Y005761D01*
X005821Y005748D01*
X005847Y005719D01*
X005869Y005687D01*
X005890Y005654D01*
X005907Y005619D01*
X005921Y005583D01*
X005933Y005546D01*
X005941Y005508D01*
X006290Y004996D02*
X006429Y004996D01*
X006389Y004917D02*
X006277Y004917D01*
X006265Y004838D02*
X006355Y004838D01*
X006327Y004760D02*
X006252Y004760D01*
X006605Y004524D02*
X006622Y004524D01*
X007021Y004148D02*
X007481Y003928D01*
X007381Y003868D01*
X007221Y003848D01*
X007061Y003948D01*
X007001Y004048D01*
X007021Y004148D01*
X007018Y004132D02*
X007056Y004132D01*
X007002Y004053D02*
X007221Y004053D01*
X007145Y003896D02*
X007427Y003896D01*
X007385Y003974D02*
X007046Y003974D01*
X007481Y004168D02*
X007561Y004208D01*
X007621Y004148D02*
X007601Y004128D01*
X007641Y004168D02*
X007701Y004088D01*
X007701Y004108D02*
X007721Y004108D01*
X007781Y004008D02*
X007801Y003988D01*
X007821Y004008D02*
X007841Y004068D01*
X007981Y003988D02*
X007921Y003928D01*
X007981Y003948D02*
X007981Y003968D01*
X008061Y003888D02*
X008081Y003888D01*
X008121Y003868D02*
X008121Y003928D01*
X008241Y003888D02*
X008241Y003828D01*
X008261Y003808D02*
X008341Y003808D01*
X008301Y003788D02*
X008301Y003768D01*
X008441Y003708D02*
X008481Y003748D01*
X008601Y003648D02*
X008721Y003628D01*
X008661Y003588D02*
X008641Y003628D01*
X008521Y003448D02*
X008401Y003368D01*
X008241Y003388D01*
X008101Y003468D01*
X008061Y003568D01*
X008101Y003648D01*
X008521Y003448D01*
X008486Y003425D02*
X008178Y003425D01*
X008087Y003503D02*
X008406Y003503D01*
X008241Y003582D02*
X008068Y003582D01*
X007976Y003660D02*
X007649Y003660D01*
X007661Y003648D02*
X007841Y003588D01*
X007941Y003608D01*
X007981Y003668D01*
X007541Y003908D01*
X007521Y003788D01*
X007661Y003648D01*
X007571Y003739D02*
X007852Y003739D01*
X007708Y003817D02*
X007526Y003817D01*
X007539Y003896D02*
X007564Y003896D01*
X007481Y004168D02*
X007481Y004248D01*
X005261Y004548D02*
X005258Y004635D01*
X005259Y004723D01*
X005265Y004810D01*
X005274Y004897D01*
X005288Y004984D01*
X005305Y005069D01*
X005327Y005154D01*
X005352Y005238D01*
X005381Y005320D01*
X005413Y005401D01*
X005450Y005481D01*
X005490Y005559D01*
X005534Y005634D01*
X005581Y005708D01*
X005701Y005628D02*
X005724Y005583D01*
X005742Y005536D01*
X005758Y005487D01*
X005769Y005438D01*
X005777Y005388D01*
X005781Y005337D01*
X005782Y005286D01*
X005778Y005236D01*
X005771Y005185D01*
X005760Y005136D01*
X005746Y005087D01*
X005727Y005040D01*
X005706Y004994D01*
X005681Y004950D01*
X005653Y004908D01*
X005621Y004868D01*
X005261Y004548D02*
X005266Y004514D01*
X005273Y004481D01*
X005284Y004448D01*
X005298Y004417D01*
X005315Y004387D01*
X005334Y004358D01*
X005357Y004332D01*
X005381Y004308D01*
X005382Y004308D02*
X005400Y004295D01*
X005421Y004284D01*
X005442Y004276D01*
X005465Y004271D01*
X005488Y004270D01*
X005511Y004272D01*
X005533Y004278D01*
X005555Y004286D01*
X005575Y004298D01*
X005593Y004312D01*
X005608Y004329D01*
X005621Y004348D01*
X004421Y004428D02*
X004412Y004486D01*
X004406Y004543D01*
X004404Y004601D01*
X004406Y004660D01*
X004411Y004717D01*
X004421Y004775D01*
X004434Y004831D01*
X004450Y004887D01*
X004470Y004941D01*
X004494Y004994D01*
X004521Y005046D01*
X004551Y005095D01*
X004585Y005143D01*
X004621Y005188D01*
X004661Y005188D01*
X004542Y005268D02*
X004555Y005287D01*
X004570Y005304D01*
X004588Y005318D01*
X004608Y005330D01*
X004630Y005338D01*
X004652Y005344D01*
X004675Y005346D01*
X004698Y005345D01*
X004721Y005340D01*
X004742Y005332D01*
X004763Y005321D01*
X004781Y005308D01*
X005941Y005509D02*
X005955Y005444D01*
X005966Y005379D01*
X005974Y005313D01*
X005977Y005247D01*
X005978Y005180D01*
X005974Y005114D01*
X005967Y005048D01*
X005957Y004983D01*
X005943Y004918D01*
X005925Y004855D01*
X005904Y004792D01*
X005879Y004730D01*
X005852Y004670D01*
X005821Y004612D01*
X005787Y004555D01*
X005749Y004500D01*
X005709Y004447D01*
X005666Y004397D01*
X005621Y004349D01*
X004541Y005268D02*
X004494Y005194D01*
X004450Y005119D01*
X004410Y005041D01*
X004373Y004961D01*
X004341Y004880D01*
X004312Y004798D01*
X004287Y004714D01*
X004265Y004629D01*
X004248Y004544D01*
X004234Y004457D01*
X004225Y004370D01*
X004219Y004283D01*
X004218Y004195D01*
X004221Y004108D01*
X004342Y003868D02*
X004360Y003855D01*
X004381Y003844D01*
X004402Y003836D01*
X004425Y003831D01*
X004448Y003830D01*
X004471Y003832D01*
X004493Y003838D01*
X004515Y003846D01*
X004535Y003858D01*
X004553Y003872D01*
X004568Y003889D01*
X004581Y003908D01*
X004341Y003868D02*
X004317Y003892D01*
X004294Y003918D01*
X004275Y003947D01*
X004258Y003977D01*
X004244Y004008D01*
X004233Y004041D01*
X004226Y004074D01*
X004221Y004108D01*
X004461Y004388D02*
X004501Y004388D01*
X004581Y004428D01*
X004557Y004524D02*
X004461Y004524D01*
X004461Y004446D02*
X004479Y004446D01*
X004461Y004428D02*
X004621Y004588D01*
X004701Y004868D01*
X004621Y005108D01*
X004461Y004788D01*
X004461Y004428D01*
X004421Y004428D02*
X004461Y004388D01*
X004461Y004603D02*
X004625Y004603D01*
X004648Y004681D02*
X004461Y004681D01*
X004461Y004760D02*
X004670Y004760D01*
X004693Y004838D02*
X004486Y004838D01*
X004526Y004917D02*
X004685Y004917D01*
X004659Y004996D02*
X004565Y004996D01*
X004604Y005074D02*
X004633Y005074D01*
X004901Y005068D02*
X004893Y005106D01*
X004881Y005143D01*
X004867Y005179D01*
X004850Y005214D01*
X004829Y005247D01*
X004807Y005279D01*
X004781Y005308D01*
X004661Y005188D02*
X004684Y005143D01*
X004702Y005096D01*
X004718Y005047D01*
X004729Y004998D01*
X004737Y004948D01*
X004741Y004897D01*
X004742Y004846D01*
X004738Y004796D01*
X004731Y004745D01*
X004720Y004696D01*
X004706Y004647D01*
X004687Y004600D01*
X004666Y004554D01*
X004641Y004510D01*
X004613Y004468D01*
X004581Y004428D01*
X004581Y003909D02*
X004626Y003957D01*
X004669Y004007D01*
X004709Y004060D01*
X004747Y004115D01*
X004781Y004172D01*
X004812Y004230D01*
X004839Y004290D01*
X004864Y004352D01*
X004885Y004415D01*
X004903Y004478D01*
X004917Y004543D01*
X004927Y004608D01*
X004934Y004674D01*
X004938Y004740D01*
X004937Y004807D01*
X004934Y004873D01*
X004926Y004939D01*
X004915Y005004D01*
X004901Y005069D01*
X003821Y005538D02*
X004061Y007188D01*
X004221Y007948D01*
X007701Y009748D01*
X008981Y008908D01*
X009008Y009032D02*
X009075Y009025D01*
X009135Y009031D01*
X009192Y009048D01*
X009245Y009076D01*
X009291Y009114D01*
X009329Y009160D01*
X009357Y009213D01*
X009374Y009270D01*
X009380Y009330D01*
X008728Y009330D01*
X008728Y009547D01*
X008293Y009547D01*
X008301Y009656D01*
X008327Y009762D01*
X008369Y009863D01*
X008426Y009956D01*
X008497Y010039D01*
X008580Y010110D01*
X008673Y010167D01*
X008774Y010209D01*
X008880Y010234D01*
X008989Y010243D01*
X009293Y010243D01*
X009554Y010199D01*
X009771Y010112D01*
X009771Y009808D01*
X009554Y009938D01*
X009293Y009982D01*
X009119Y009982D01*
X009051Y009976D01*
X008985Y009958D01*
X008923Y009929D01*
X008867Y009890D01*
X008819Y009842D01*
X008780Y009786D01*
X008751Y009724D01*
X008734Y009658D01*
X008728Y009590D01*
X009858Y009590D01*
X009858Y009503D01*
X009848Y009381D01*
X009820Y009262D01*
X009773Y009148D01*
X009709Y009043D01*
X009629Y008950D01*
X009536Y008870D01*
X009431Y008806D01*
X009317Y008759D01*
X009198Y008730D01*
X009075Y008721D01*
X009032Y008721D01*
X008916Y008730D01*
X008804Y008757D01*
X008696Y008801D01*
X008598Y008862D01*
X008509Y008937D01*
X008434Y009026D01*
X008373Y009124D01*
X008329Y009232D01*
X008302Y009344D01*
X008293Y009460D01*
X008293Y009547D01*
X008728Y009547D01*
X008728Y009373D01*
X008734Y009305D01*
X008754Y009240D01*
X008786Y009180D01*
X008830Y009127D01*
X008882Y009084D01*
X008942Y009052D01*
X009008Y009032D01*
X008890Y009080D02*
X008401Y009080D01*
X008359Y009158D02*
X008804Y009158D01*
X008756Y009237D02*
X008328Y009237D01*
X008309Y009315D02*
X008733Y009315D01*
X008728Y009394D02*
X009849Y009394D01*
X009856Y009472D02*
X008728Y009472D01*
X008293Y009472D01*
X008298Y009394D02*
X008728Y009394D01*
X008731Y009630D02*
X008299Y009630D01*
X008293Y009551D02*
X009858Y009551D01*
X010162Y009547D02*
X010119Y009808D01*
X010206Y010025D01*
X010336Y010156D01*
X010510Y010199D01*
X010858Y010199D01*
X010989Y010156D01*
X011163Y009982D01*
X011163Y010199D01*
X011467Y010199D01*
X011597Y010199D01*
X011597Y009199D01*
X011554Y009112D01*
X011467Y008982D01*
X011336Y008851D01*
X011206Y008764D01*
X011032Y008721D01*
X010684Y008721D01*
X010510Y008764D01*
X010249Y008851D01*
X010249Y009112D01*
X010380Y009069D01*
X010554Y009025D01*
X010989Y009025D01*
X011076Y009069D01*
X011163Y009156D01*
X011163Y009286D01*
X010728Y009286D01*
X010467Y009330D01*
X010293Y009416D01*
X010162Y009547D01*
X010162Y009551D02*
X010680Y009551D01*
X010684Y009547D02*
X011163Y009547D01*
X011467Y010199D01*
X011163Y009590D01*
X011163Y009764D01*
X010989Y009938D01*
X010858Y009982D01*
X010728Y009982D01*
X010597Y009895D01*
X010554Y009764D01*
X010597Y009634D01*
X010684Y009547D01*
X010602Y009630D02*
X010149Y009630D01*
X010136Y009708D02*
X010572Y009708D01*
X010561Y009787D02*
X010123Y009787D01*
X010142Y009865D02*
X010587Y009865D01*
X010671Y009944D02*
X010173Y009944D01*
X010205Y010022D02*
X011122Y010022D01*
X011163Y010022D02*
X011378Y010022D01*
X011384Y010022D02*
X011597Y010022D01*
X011597Y009944D02*
X011348Y009944D01*
X011339Y009944D02*
X010972Y009944D01*
X011062Y009865D02*
X011300Y009865D01*
X011311Y009865D02*
X011597Y009865D01*
X011597Y009787D02*
X011274Y009787D01*
X011261Y009787D02*
X011140Y009787D01*
X011163Y009708D02*
X011221Y009708D01*
X011238Y009708D02*
X011597Y009708D01*
X011597Y009630D02*
X011201Y009630D01*
X011182Y009630D02*
X011163Y009630D01*
X011164Y009551D02*
X011597Y009551D01*
X011597Y009472D02*
X010237Y009472D01*
X010338Y009394D02*
X011597Y009394D01*
X011597Y009315D02*
X010552Y009315D01*
X010347Y009080D02*
X010249Y009080D01*
X010249Y009001D02*
X011480Y009001D01*
X011532Y009080D02*
X011087Y009080D01*
X011163Y009158D02*
X011577Y009158D01*
X011597Y009237D02*
X011163Y009237D01*
X011408Y008923D02*
X010249Y008923D01*
X010271Y008844D02*
X011326Y008844D01*
X011208Y008766D02*
X010506Y008766D01*
X008941Y008749D02*
X008933Y008677D01*
X008929Y008604D01*
X008928Y008532D01*
X008932Y008459D01*
X008940Y008387D01*
X008952Y008316D01*
X008967Y008245D01*
X008986Y008175D01*
X009010Y008106D01*
X009036Y008039D01*
X009067Y007973D01*
X009101Y007909D01*
X009661Y008988D02*
X009722Y008973D01*
X009782Y008955D01*
X009841Y008933D01*
X009899Y008907D01*
X009955Y008878D01*
X010009Y008846D01*
X010061Y008811D01*
X010111Y008773D01*
X010158Y008732D01*
X010203Y008688D01*
X010245Y008641D01*
X010285Y008592D01*
X010322Y008541D01*
X010355Y008488D01*
X010385Y008433D01*
X010412Y008376D01*
X010436Y008318D01*
X010456Y008258D01*
X010472Y008197D01*
X010485Y008136D01*
X010494Y008073D01*
X010499Y008011D01*
X010501Y007948D01*
X010541Y007948D02*
X011381Y007428D01*
X011381Y004988D01*
X011341Y004268D01*
X011301Y003908D01*
X011181Y003548D01*
X011061Y003428D01*
X010901Y003388D01*
X009981Y004308D02*
X010021Y004388D01*
X010021Y004508D01*
X010037Y004524D02*
X010085Y004524D01*
X010003Y004760D02*
X009867Y004760D01*
X009909Y004838D02*
X010012Y004838D01*
X010021Y004917D02*
X009917Y004917D01*
X009925Y004996D02*
X010030Y004996D01*
X009966Y005467D02*
X009472Y005467D01*
X009445Y005467D02*
X009441Y005467D01*
X009529Y005545D02*
X009346Y005545D01*
X009541Y005748D02*
X009741Y005908D01*
X009701Y006068D01*
X009741Y006228D01*
X010221Y006708D01*
X011061Y007428D01*
X011461Y007668D01*
X011701Y007788D01*
X012101Y007828D01*
X012341Y007788D01*
X012421Y007668D01*
X012461Y007468D01*
X012421Y007268D01*
X012261Y007028D01*
X011861Y006708D01*
X011381Y006308D01*
X010861Y005948D01*
X010381Y005668D01*
X010221Y005628D01*
X009981Y005668D01*
X009821Y005748D01*
X009741Y005908D01*
X009734Y005938D02*
X010844Y005938D01*
X010960Y006017D02*
X009714Y006017D01*
X009708Y006095D02*
X011073Y006095D01*
X011187Y006174D02*
X009727Y006174D01*
X009765Y006252D02*
X011300Y006252D01*
X011408Y006331D02*
X009844Y006331D01*
X009922Y006409D02*
X011502Y006409D01*
X011597Y006488D02*
X010001Y006488D01*
X010079Y006566D02*
X011691Y006566D01*
X011785Y006645D02*
X010158Y006645D01*
X010239Y006723D02*
X011880Y006723D01*
X011978Y006802D02*
X010330Y006802D01*
X010422Y006881D02*
X012076Y006881D01*
X012175Y006959D02*
X010514Y006959D01*
X010605Y007038D02*
X012267Y007038D01*
X012320Y007116D02*
X010697Y007116D01*
X010789Y007195D02*
X012372Y007195D01*
X012422Y007273D02*
X010880Y007273D01*
X010972Y007352D02*
X012438Y007352D01*
X012454Y007430D02*
X011065Y007430D01*
X011195Y007509D02*
X012453Y007509D01*
X012437Y007587D02*
X011326Y007587D01*
X011457Y007666D02*
X012422Y007666D01*
X012370Y007745D02*
X011614Y007745D01*
X012048Y007823D02*
X012133Y007823D01*
X012076Y008764D02*
X012510Y008764D01*
X012510Y008982D01*
X012597Y008895D01*
X012728Y008808D01*
X012902Y008764D01*
X013032Y008764D01*
X013206Y008808D01*
X013336Y008895D01*
X013423Y008982D01*
X013510Y008982D01*
X013597Y008851D01*
X013728Y008764D01*
X014119Y008764D01*
X014206Y008808D01*
X014337Y008938D01*
X014380Y009069D01*
X014380Y010199D01*
X013989Y010199D01*
X013989Y009199D01*
X013902Y009112D01*
X013815Y009069D01*
X013684Y009069D01*
X013554Y009112D01*
X013467Y009286D01*
X013467Y010199D01*
X013032Y010199D01*
X013032Y009199D01*
X012945Y009112D01*
X012858Y009069D01*
X012684Y009069D01*
X012597Y009112D01*
X012510Y009286D01*
X012510Y010199D01*
X012076Y010199D01*
X012076Y008764D01*
X012076Y008766D02*
X012510Y008766D01*
X012510Y008844D02*
X012076Y008844D01*
X012076Y008923D02*
X012510Y008923D01*
X012569Y008923D02*
X013364Y008923D01*
X013261Y008844D02*
X012673Y008844D01*
X012662Y009080D02*
X012076Y009080D01*
X012076Y009158D02*
X012574Y009158D01*
X012535Y009237D02*
X012076Y009237D01*
X012076Y009315D02*
X012510Y009315D01*
X012510Y009394D02*
X012076Y009394D01*
X012076Y009472D02*
X012510Y009472D01*
X012510Y009551D02*
X012076Y009551D01*
X012076Y009630D02*
X012510Y009630D01*
X012510Y009708D02*
X012076Y009708D01*
X012076Y009787D02*
X012510Y009787D01*
X012510Y009865D02*
X012076Y009865D01*
X012076Y009944D02*
X012510Y009944D01*
X012510Y010022D02*
X012076Y010022D01*
X012076Y010101D02*
X012510Y010101D01*
X012510Y010179D02*
X012076Y010179D01*
X011597Y010179D02*
X011458Y010179D01*
X011457Y010179D02*
X011163Y010179D01*
X011163Y010101D02*
X011418Y010101D01*
X011421Y010101D02*
X011597Y010101D01*
X011043Y010101D02*
X010282Y010101D01*
X010431Y010179D02*
X010917Y010179D01*
X009833Y009315D02*
X009378Y009315D01*
X009364Y009237D02*
X009810Y009237D01*
X009777Y009158D02*
X009327Y009158D01*
X009249Y009080D02*
X009731Y009080D01*
X009673Y009001D02*
X008455Y009001D01*
X008526Y008923D02*
X009597Y008923D01*
X009493Y008844D02*
X008627Y008844D01*
X008783Y008766D02*
X009333Y008766D01*
X009101Y007908D02*
X009124Y007855D01*
X009151Y007803D01*
X009181Y007753D01*
X009215Y007706D01*
X009252Y007661D01*
X009291Y007618D01*
X009334Y007579D01*
X009379Y007542D01*
X009426Y007508D01*
X009476Y007478D01*
X009528Y007451D01*
X009581Y007428D01*
X009627Y007407D01*
X009674Y007389D01*
X009722Y007375D01*
X009771Y007365D01*
X009821Y007359D01*
X009871Y007357D01*
X009921Y007359D01*
X009971Y007365D01*
X010020Y007375D01*
X010068Y007388D01*
X010115Y007406D01*
X010160Y007427D01*
X010204Y007451D01*
X010246Y007479D01*
X010285Y007511D01*
X010321Y007545D01*
X010355Y007582D01*
X010386Y007622D01*
X010413Y007664D01*
X010437Y007708D01*
X010458Y007753D01*
X010474Y007800D01*
X010487Y007849D01*
X010497Y007898D01*
X010502Y007948D01*
X012076Y009001D02*
X014358Y009001D01*
X014380Y009080D02*
X013837Y009080D01*
X013948Y009158D02*
X014380Y009158D01*
X014380Y009237D02*
X013989Y009237D01*
X013989Y009315D02*
X014380Y009315D01*
X014380Y009394D02*
X013989Y009394D01*
X013989Y009472D02*
X014380Y009472D01*
X014380Y009551D02*
X013989Y009551D01*
X013989Y009630D02*
X014380Y009630D01*
X014380Y009708D02*
X013989Y009708D01*
X013989Y009787D02*
X014380Y009787D01*
X014380Y009865D02*
X013989Y009865D01*
X013989Y009944D02*
X014380Y009944D01*
X014380Y010022D02*
X013989Y010022D01*
X013989Y010101D02*
X014380Y010101D01*
X014380Y010179D02*
X013989Y010179D01*
X013467Y010179D02*
X013032Y010179D01*
X013032Y010101D02*
X013467Y010101D01*
X013467Y010022D02*
X013032Y010022D01*
X013032Y009944D02*
X013467Y009944D01*
X013467Y009865D02*
X013032Y009865D01*
X013032Y009787D02*
X013467Y009787D01*
X013467Y009708D02*
X013032Y009708D01*
X013032Y009630D02*
X013467Y009630D01*
X013467Y009551D02*
X013032Y009551D01*
X013032Y009472D02*
X013467Y009472D01*
X013467Y009394D02*
X013032Y009394D01*
X013032Y009315D02*
X013467Y009315D01*
X013492Y009237D02*
X013032Y009237D01*
X012991Y009158D02*
X013531Y009158D01*
X013651Y009080D02*
X012880Y009080D01*
X012896Y008766D02*
X013037Y008766D01*
X013550Y008923D02*
X014321Y008923D01*
X014242Y008844D02*
X013608Y008844D01*
X013726Y008766D02*
X014122Y008766D01*
X016026Y009568D02*
X016276Y009568D01*
X010709Y005859D02*
X009766Y005859D01*
X009805Y005781D02*
X010574Y005781D01*
X010440Y005702D02*
X009913Y005702D01*
X009897Y005545D02*
X009904Y005545D01*
X009861Y005508D02*
X010101Y005708D01*
X009537Y005781D02*
X006969Y005781D01*
X007100Y005859D02*
X009429Y005859D01*
X009245Y005938D02*
X007290Y005938D01*
X005102Y007829D02*
X005012Y007726D01*
X004926Y007620D01*
X004847Y007510D01*
X004772Y007396D01*
X004703Y007279D01*
X004639Y007158D01*
X004582Y007035D01*
X004530Y006909D01*
X004484Y006780D01*
X004445Y006650D01*
X004411Y006518D01*
X004384Y006385D01*
X004364Y006250D01*
X004349Y006115D01*
X004342Y005979D01*
X003821Y005538D02*
X003621Y004388D01*
X003621Y003988D01*
X003641Y003808D01*
X003661Y003748D01*
X003741Y003668D01*
X003901Y003528D01*
X006641Y005545D02*
X007264Y005545D01*
X007239Y005545D02*
X007155Y005545D01*
X007181Y005788D02*
X007141Y005988D01*
X007181Y006668D01*
X007261Y007268D01*
X007461Y008268D01*
X007380Y008634D02*
X006728Y008634D01*
X006728Y008286D01*
X008467Y008286D01*
X008467Y008634D01*
X007815Y008634D01*
X007815Y010199D01*
X007380Y010199D01*
X007380Y008634D01*
X007380Y008687D02*
X007815Y008687D01*
X007815Y008766D02*
X007380Y008766D01*
X007380Y008844D02*
X007815Y008844D01*
X007815Y008923D02*
X007380Y008923D01*
X007380Y009001D02*
X007815Y009001D01*
X007815Y009080D02*
X007380Y009080D01*
X007380Y009158D02*
X007815Y009158D01*
X007815Y009237D02*
X007380Y009237D01*
X007380Y009315D02*
X007815Y009315D01*
X007815Y009394D02*
X007380Y009394D01*
X007380Y009472D02*
X007815Y009472D01*
X007815Y009551D02*
X007380Y009551D01*
X007380Y009630D02*
X007815Y009630D01*
X007815Y009708D02*
X007380Y009708D01*
X007380Y009787D02*
X007815Y009787D01*
X007815Y009865D02*
X007380Y009865D01*
X007380Y009944D02*
X007815Y009944D01*
X007815Y010022D02*
X007380Y010022D01*
X007380Y010101D02*
X007815Y010101D01*
X007815Y010179D02*
X007380Y010179D01*
X006433Y009827D02*
X006458Y009732D01*
X006467Y009634D01*
X006467Y009590D01*
X006461Y009522D01*
X006443Y009457D01*
X006414Y009395D01*
X006375Y009339D01*
X006327Y009291D01*
X006271Y009252D01*
X006209Y009223D01*
X006143Y009205D01*
X006075Y009199D01*
X006135Y009193D01*
X006192Y009176D01*
X006244Y009148D01*
X006291Y009110D01*
X006328Y009064D01*
X006357Y009011D01*
X006374Y008954D01*
X006380Y008895D01*
X006380Y008634D01*
X006368Y008562D01*
X006343Y008494D01*
X006305Y008432D01*
X006256Y008379D01*
X006197Y008336D01*
X006131Y008306D01*
X006061Y008289D01*
X005988Y008286D01*
X005293Y008286D01*
X005293Y008590D01*
X005771Y008590D01*
X005810Y008595D01*
X005846Y008608D01*
X005879Y008628D01*
X005907Y008656D01*
X005928Y008689D01*
X005941Y008726D01*
X005945Y008764D01*
X005945Y008808D01*
X005941Y008850D01*
X005928Y008891D01*
X005908Y008929D01*
X005881Y008962D01*
X005848Y008989D01*
X005811Y009009D01*
X005770Y009021D01*
X005728Y009025D01*
X005293Y009025D01*
X005293Y009330D01*
X005727Y009330D01*
X005778Y009335D01*
X005827Y009349D01*
X005872Y009374D01*
X005912Y009406D01*
X005944Y009445D01*
X005969Y009491D01*
X005983Y009540D01*
X005988Y009590D01*
X005988Y009634D01*
X005983Y009685D01*
X005969Y009734D01*
X005944Y009779D01*
X005912Y009818D01*
X005872Y009851D01*
X005827Y009875D01*
X005778Y009890D01*
X005728Y009895D01*
X005293Y009895D01*
X005293Y010199D01*
X005901Y010199D01*
X006000Y010191D01*
X006095Y010165D01*
X006184Y010123D01*
X006265Y010067D01*
X006334Y009997D01*
X006391Y009916D01*
X006433Y009827D01*
X006443Y009787D02*
X005938Y009787D01*
X005976Y009708D02*
X006460Y009708D01*
X006467Y009630D02*
X005988Y009630D01*
X005984Y009551D02*
X006463Y009551D01*
X006447Y009472D02*
X005959Y009472D01*
X005897Y009394D02*
X006414Y009394D01*
X006352Y009315D02*
X005293Y009315D01*
X004858Y009315D01*
X004858Y009237D02*
X005293Y009237D01*
X006240Y009237D01*
X006225Y009158D02*
X005293Y009158D01*
X004858Y009158D01*
X004858Y009080D02*
X005293Y009080D01*
X006315Y009080D01*
X006360Y009001D02*
X005825Y009001D01*
X005911Y008923D02*
X006377Y008923D01*
X006380Y008844D02*
X005941Y008844D01*
X005945Y008766D02*
X006380Y008766D01*
X006380Y008687D02*
X005927Y008687D01*
X005848Y008609D02*
X006376Y008609D01*
X006356Y008530D02*
X005293Y008530D01*
X004858Y008530D01*
X004858Y008609D02*
X005293Y008609D01*
X005293Y008687D02*
X004858Y008687D01*
X004858Y008766D02*
X005293Y008766D01*
X005293Y008844D02*
X004858Y008844D01*
X004858Y008923D02*
X005293Y008923D01*
X005293Y009001D02*
X004858Y009001D01*
X004858Y009394D02*
X005293Y009394D01*
X005293Y009472D02*
X004858Y009472D01*
X004858Y009551D02*
X005293Y009551D01*
X005293Y009630D02*
X004858Y009630D01*
X004858Y009708D02*
X005293Y009708D01*
X005293Y009787D02*
X004858Y009787D01*
X004858Y009865D02*
X005293Y009865D01*
X005293Y009944D02*
X006372Y009944D01*
X006415Y009865D02*
X005846Y009865D01*
X006041Y010179D02*
X005293Y010179D01*
X004858Y010179D01*
X004858Y010199D02*
X005293Y010199D01*
X005293Y008286D01*
X004858Y008286D01*
X004858Y010199D01*
X004858Y010101D02*
X005293Y010101D01*
X006216Y010101D01*
X006309Y010022D02*
X005293Y010022D01*
X004858Y010022D01*
X004858Y009944D02*
X005293Y009944D01*
X004329Y009332D02*
X004373Y009264D01*
X004405Y009190D01*
X004423Y009112D01*
X004423Y008721D01*
X004412Y008642D01*
X004388Y008566D01*
X004351Y008495D01*
X004302Y008432D01*
X004243Y008379D01*
X004176Y008336D01*
X004102Y008306D01*
X004024Y008289D01*
X003945Y008286D01*
X003336Y008286D01*
X003336Y008590D01*
X003727Y008590D01*
X003787Y008596D01*
X003844Y008614D01*
X003896Y008642D01*
X003943Y008680D01*
X003980Y008726D01*
X004009Y008778D01*
X004026Y008835D01*
X004032Y008895D01*
X004032Y008938D01*
X004027Y008989D01*
X004012Y009038D01*
X003988Y009083D01*
X003955Y009123D01*
X003916Y009155D01*
X003871Y009179D01*
X003822Y009194D01*
X003771Y009199D01*
X003336Y009199D01*
X003336Y009503D01*
X003901Y009503D01*
X003982Y009508D01*
X004061Y009498D01*
X004138Y009475D01*
X004210Y009439D01*
X004274Y009390D01*
X004329Y009332D01*
X004340Y009315D02*
X003336Y009315D01*
X002901Y009315D01*
X002901Y009237D02*
X003336Y009237D01*
X004385Y009237D01*
X004412Y009158D02*
X003910Y009158D01*
X003990Y009080D02*
X004423Y009080D01*
X004423Y009001D02*
X004023Y009001D01*
X004032Y008923D02*
X004423Y008923D01*
X004423Y008844D02*
X004027Y008844D01*
X004002Y008766D02*
X004423Y008766D01*
X004419Y008687D02*
X003949Y008687D01*
X003827Y008609D02*
X004402Y008609D01*
X004369Y008530D02*
X003336Y008530D01*
X002901Y008530D01*
X002901Y008609D02*
X003336Y008609D01*
X003336Y008687D02*
X002901Y008687D01*
X002901Y008766D02*
X003336Y008766D01*
X003336Y008844D02*
X002901Y008844D01*
X002901Y008923D02*
X003336Y008923D01*
X003336Y009001D02*
X002901Y009001D01*
X002901Y009080D02*
X003336Y009080D01*
X003336Y009158D02*
X002901Y009158D01*
X002901Y009394D02*
X003336Y009394D01*
X004270Y009394D01*
X004143Y009472D02*
X003336Y009472D01*
X002901Y009472D01*
X002901Y009551D02*
X003336Y009551D01*
X003336Y009630D02*
X002901Y009630D01*
X002901Y009708D02*
X003336Y009708D01*
X003336Y009787D02*
X002901Y009787D01*
X002901Y009865D02*
X003336Y009865D01*
X003336Y009944D02*
X002901Y009944D01*
X002901Y010022D02*
X003336Y010022D01*
X003336Y010101D02*
X002901Y010101D01*
X002901Y010179D02*
X003336Y010179D01*
X003336Y010199D02*
X002901Y010199D01*
X002901Y008286D01*
X003336Y008286D01*
X003336Y010199D01*
X002597Y010199D02*
X001858Y008286D01*
X001293Y008286D01*
X000553Y010199D01*
X000988Y010199D01*
X001119Y009851D01*
X002032Y009851D01*
X002162Y010199D01*
X002597Y010199D01*
X002589Y010179D02*
X002155Y010179D01*
X002125Y010101D02*
X002559Y010101D01*
X002529Y010022D02*
X002096Y010022D01*
X002066Y009944D02*
X002498Y009944D01*
X002468Y009865D02*
X002037Y009865D01*
X002407Y009708D02*
X000743Y009708D01*
X000773Y009630D02*
X002377Y009630D01*
X002347Y009551D02*
X000804Y009551D01*
X000834Y009472D02*
X001261Y009472D01*
X001249Y009503D02*
X001553Y008721D01*
X001293Y008286D01*
X001597Y008721D01*
X001901Y009503D01*
X001249Y009503D01*
X001292Y009394D02*
X000865Y009394D01*
X000895Y009315D02*
X001322Y009315D01*
X001353Y009237D02*
X000925Y009237D01*
X000956Y009158D02*
X001383Y009158D01*
X001414Y009080D02*
X000986Y009080D01*
X001016Y009001D02*
X001444Y009001D01*
X001475Y008923D02*
X001047Y008923D01*
X001077Y008844D02*
X001505Y008844D01*
X001536Y008766D02*
X001107Y008766D01*
X001138Y008687D02*
X001533Y008687D01*
X001573Y008687D02*
X002013Y008687D01*
X002043Y008766D02*
X001614Y008766D01*
X001645Y008844D02*
X002073Y008844D01*
X002104Y008923D02*
X001675Y008923D01*
X001706Y009001D02*
X002134Y009001D01*
X002164Y009080D02*
X001736Y009080D01*
X001767Y009158D02*
X002195Y009158D01*
X002225Y009237D02*
X001798Y009237D01*
X001828Y009315D02*
X002256Y009315D01*
X002286Y009394D02*
X001859Y009394D01*
X001889Y009472D02*
X002316Y009472D01*
X002438Y009787D02*
X000713Y009787D01*
X000682Y009865D02*
X001113Y009865D01*
X001084Y009944D02*
X000652Y009944D01*
X000622Y010022D02*
X001054Y010022D01*
X001025Y010101D02*
X000591Y010101D01*
X000561Y010179D02*
X000996Y010179D01*
X001168Y008609D02*
X001486Y008609D01*
X001518Y008609D02*
X001982Y008609D01*
X001952Y008530D02*
X001463Y008530D01*
X001439Y008530D02*
X001198Y008530D01*
X001229Y008451D02*
X001392Y008451D01*
X001408Y008451D02*
X001922Y008451D01*
X001891Y008373D02*
X001353Y008373D01*
X001345Y008373D02*
X001259Y008373D01*
X001289Y008294D02*
X001298Y008294D01*
X001861Y008294D01*
X002901Y008294D02*
X003336Y008294D01*
X004048Y008294D01*
X004234Y008373D02*
X003336Y008373D01*
X002901Y008373D01*
X002901Y008451D02*
X003336Y008451D01*
X004317Y008451D01*
X004858Y008451D02*
X005293Y008451D01*
X006317Y008451D01*
X006248Y008373D02*
X005293Y008373D01*
X004858Y008373D01*
X004858Y008294D02*
X005293Y008294D01*
X006084Y008294D01*
X006728Y008294D02*
X008467Y008294D01*
X008467Y008373D02*
X006728Y008373D01*
X006728Y008451D02*
X008467Y008451D01*
X008467Y008530D02*
X006728Y008530D01*
X006728Y008609D02*
X008467Y008609D01*
X008314Y009708D02*
X008747Y009708D01*
X008780Y009787D02*
X008337Y009787D01*
X008370Y009865D02*
X008842Y009865D01*
X008954Y009944D02*
X008418Y009944D01*
X008482Y010022D02*
X009771Y010022D01*
X009771Y009944D02*
X009521Y009944D01*
X009676Y009865D02*
X009771Y009865D01*
X009771Y010101D02*
X008569Y010101D01*
X008703Y010179D02*
X009603Y010179D01*
X006741Y007388D02*
X006716Y007447D01*
X006688Y007504D01*
X006656Y007559D01*
X006621Y007612D01*
X006583Y007663D01*
X006542Y007712D01*
X006498Y007758D01*
X006451Y007801D01*
X006402Y007842D01*
X006350Y007879D01*
X006296Y007913D01*
X006240Y007944D01*
X006183Y007971D01*
X006124Y007995D01*
X006063Y008015D01*
X006002Y008032D01*
X005939Y008045D01*
X005876Y008054D01*
X005813Y008059D01*
X005749Y008060D01*
X005685Y008057D01*
X005622Y008051D01*
X005559Y008041D01*
X005497Y008027D01*
X005436Y008009D01*
X005376Y007987D01*
X005317Y007962D01*
X005260Y007934D01*
X005205Y007902D01*
X005152Y007866D01*
X005101Y007828D01*
X007578Y006017D02*
X009062Y006017D01*
X008754Y006095D02*
X007955Y006095D01*
X007949Y005702D02*
X006838Y005702D01*
X006730Y005624D02*
X007526Y005624D01*
X008541Y005228D02*
X008541Y005068D01*
X008567Y005231D02*
X008624Y005231D01*
X009541Y004748D02*
X009541Y004588D01*
X009441Y004508D01*
X009741Y004348D01*
X009441Y004508D02*
X009341Y004428D01*
D11*
X014611Y005524D02*
X014654Y005481D01*
X014828Y005654D01*
X014871Y005611D01*
X014871Y005524D01*
X014828Y005481D01*
X014654Y005481D01*
X014611Y005524D02*
X014611Y005611D01*
X014654Y005654D01*
X014828Y005654D01*
X014828Y005758D02*
X014871Y005758D01*
X014871Y005802D01*
X014828Y005802D01*
X014828Y005758D01*
X014828Y005906D02*
X014871Y005906D01*
X014871Y005949D01*
X014828Y005949D01*
X014828Y005906D01*
X014654Y006070D02*
X014828Y006244D01*
X014871Y006244D01*
X014828Y006365D02*
X014654Y006365D01*
X014611Y006408D01*
X014611Y006538D01*
X014871Y006538D01*
X014871Y006408D01*
X014828Y006365D01*
X014611Y006244D02*
X014611Y006070D01*
X014654Y006070D01*
X014654Y009151D02*
X014698Y009151D01*
X014741Y009194D01*
X014741Y009324D01*
X014611Y009324D02*
X014611Y009194D01*
X014654Y009151D01*
X014741Y009194D02*
X014784Y009151D01*
X014828Y009151D01*
X014871Y009194D01*
X014871Y009324D01*
X014611Y009324D01*
X014611Y009445D02*
X014871Y009445D01*
X014784Y009532D01*
X014871Y009619D01*
X014611Y009619D01*
X014611Y009740D02*
X014871Y009740D01*
X014741Y009740D02*
X014741Y009913D01*
X014871Y009913D02*
X014611Y009913D01*
X014611Y010320D02*
X014784Y010320D01*
X014871Y010407D01*
X014784Y010494D01*
X014611Y010494D01*
X014611Y010615D02*
X014611Y010788D01*
X014741Y010788D01*
X014698Y010702D01*
X014698Y010658D01*
X014741Y010615D01*
X014828Y010615D01*
X014871Y010658D01*
X014871Y010745D01*
X014828Y010788D01*
X012614Y010745D02*
X012614Y010571D01*
X012440Y010745D01*
X012483Y010788D01*
X012570Y010788D01*
X012614Y010745D01*
X012614Y010571D02*
X012570Y010528D01*
X012483Y010528D01*
X012440Y010571D01*
X012440Y010745D01*
X012336Y010745D02*
X012336Y010788D01*
X012293Y010788D01*
X012293Y010745D01*
X012336Y010745D01*
X012189Y010745D02*
X012189Y010788D01*
X012145Y010788D01*
X012145Y010745D01*
X012189Y010745D01*
X012024Y010571D02*
X011851Y010745D01*
X011851Y010788D01*
X011730Y010745D02*
X011686Y010788D01*
X011556Y010788D01*
X011556Y010528D01*
X011686Y010528D01*
X011730Y010571D01*
X011730Y010615D01*
X011686Y010658D01*
X011556Y010658D01*
X011686Y010658D02*
X011730Y010702D01*
X011730Y010745D01*
X011851Y010528D02*
X012024Y010528D01*
X012024Y010571D01*
X007899Y010528D02*
X007899Y010702D01*
X007813Y010788D01*
X007726Y010702D01*
X007726Y010528D01*
X007605Y010528D02*
X007431Y010528D01*
X007431Y010658D01*
X007518Y010615D01*
X007561Y010615D01*
X007605Y010658D01*
X007605Y010745D01*
X007561Y010788D01*
X007475Y010788D01*
X007431Y010745D01*
X007069Y010745D02*
X007069Y010571D01*
X007026Y010528D01*
X006895Y010528D01*
X006895Y010788D01*
X007026Y010788D01*
X007069Y010745D01*
X006774Y010788D02*
X006774Y010528D01*
X006601Y010528D02*
X006601Y010788D01*
X006480Y010745D02*
X006480Y010658D01*
X006393Y010658D01*
X006480Y010571D02*
X006436Y010528D01*
X006350Y010528D01*
X006306Y010571D01*
X006306Y010745D01*
X006350Y010788D01*
X006436Y010788D01*
X006480Y010745D01*
X006601Y010528D02*
X006774Y010788D01*
X004578Y010571D02*
X004404Y010745D01*
X004404Y010788D01*
X004300Y010788D02*
X004257Y010788D01*
X004257Y010745D01*
X004300Y010745D01*
X004300Y010788D01*
X004153Y010788D02*
X004110Y010788D01*
X004110Y010745D01*
X004153Y010745D01*
X004153Y010788D01*
X003945Y010788D02*
X003945Y010528D01*
X003815Y010658D01*
X003989Y010658D01*
X004404Y010528D02*
X004578Y010528D01*
X004578Y010571D01*
X003399Y010571D02*
X003356Y010528D01*
X003269Y010528D01*
X003226Y010571D01*
X003105Y010571D02*
X003061Y010528D01*
X002975Y010528D01*
X002931Y010571D01*
X002931Y010745D01*
X002975Y010788D01*
X003061Y010788D01*
X003105Y010745D01*
X003226Y010788D02*
X003399Y010615D01*
X003399Y010571D01*
X003399Y010788D02*
X003226Y010788D01*
X000899Y010702D02*
X000899Y010528D01*
X000726Y010528D02*
X000726Y010702D01*
X000813Y010788D01*
X000899Y010702D01*
X000605Y010658D02*
X000605Y010745D01*
X000561Y010788D01*
X000475Y010788D01*
X000431Y010745D01*
X000431Y010658D02*
X000518Y010615D01*
X000561Y010615D01*
X000605Y010658D01*
X000605Y010528D02*
X000431Y010528D01*
X000431Y010658D01*
X014611Y001995D02*
X014611Y001908D01*
X014654Y001865D01*
X014741Y001865D02*
X014741Y001952D01*
X014741Y001865D02*
X014828Y001865D01*
X014871Y001908D01*
X014871Y001995D01*
X014828Y002038D01*
X014654Y002038D01*
X014611Y001995D01*
X014611Y001744D02*
X014871Y001570D01*
X014611Y001570D01*
X014611Y001449D02*
X014611Y001319D01*
X014654Y001276D01*
X014828Y001276D01*
X014871Y001319D01*
X014871Y001449D01*
X014611Y001449D01*
X014611Y001744D02*
X014871Y001744D01*
M02*
