G75*
G70*
%OFA0B0*%
%FSLAX24Y24*%
%IPPOS*%
%LPD*%
%AMOC8*
5,1,8,0,0,1.08239X$1,22.5*
%
%ADD10R,0.0290X0.0580*%
%ADD11R,0.0580X0.0290*%
%ADD12R,0.0474X0.0513*%
%ADD13R,0.0513X0.0474*%
%ADD14R,0.2080X0.0780*%
%ADD15OC8,0.0720*%
%ADD16R,0.0218X0.0631*%
%ADD17R,0.0789X0.0828*%
%ADD18R,0.0907X0.0710*%
D10*
X008549Y004878D03*
X008864Y004878D03*
X009179Y004878D03*
X009494Y004878D03*
X009809Y004878D03*
X010124Y004878D03*
X010439Y004878D03*
X010754Y004878D03*
X010754Y008258D03*
X010439Y008258D03*
X010124Y008258D03*
X009809Y008258D03*
X009494Y008258D03*
X009179Y008258D03*
X008864Y008258D03*
X008549Y008258D03*
D11*
X007961Y007671D03*
X007961Y007356D03*
X007961Y007041D03*
X007961Y006726D03*
X007961Y006411D03*
X007961Y006096D03*
X007961Y005781D03*
X007961Y005466D03*
X011341Y005466D03*
X011341Y005781D03*
X011341Y006096D03*
X011341Y006411D03*
X011341Y006726D03*
X011341Y007041D03*
X011341Y007356D03*
X011341Y007671D03*
D12*
X013151Y002903D03*
X013151Y002234D03*
X006151Y002234D03*
X006151Y002903D03*
D13*
X005817Y005568D03*
X006486Y005568D03*
X006486Y007568D03*
X005817Y007568D03*
X003151Y006453D03*
X003151Y005784D03*
X002151Y005784D03*
X002151Y006453D03*
D14*
X007751Y002568D03*
X011551Y002568D03*
D15*
X015651Y002568D03*
X016651Y002568D03*
X016651Y001568D03*
X015651Y001568D03*
X015651Y003568D03*
X016651Y003568D03*
X016651Y004568D03*
X015651Y004568D03*
X015651Y005568D03*
X016651Y005568D03*
X016651Y006568D03*
X015651Y006568D03*
X015651Y007568D03*
X016651Y007568D03*
X016651Y008568D03*
X015651Y008568D03*
X015651Y009568D03*
X016651Y009568D03*
X016651Y010568D03*
X015651Y010568D03*
X015651Y011568D03*
X016651Y011568D03*
X016651Y012568D03*
X015651Y012568D03*
X014651Y012568D03*
X013651Y012568D03*
X012651Y012568D03*
X011651Y012568D03*
X010651Y012568D03*
X009651Y012568D03*
X008651Y012568D03*
X007651Y012568D03*
X006651Y012568D03*
X005651Y012568D03*
X004651Y012568D03*
X003651Y012568D03*
X002651Y012568D03*
X001651Y012568D03*
X000651Y012568D03*
X000651Y011568D03*
X001651Y011568D03*
X002651Y011568D03*
X003651Y011568D03*
X004651Y011568D03*
X005651Y011568D03*
X006651Y011568D03*
X007651Y011568D03*
X008651Y011568D03*
X009651Y011568D03*
X010651Y011568D03*
X011651Y011568D03*
X012651Y011568D03*
X013651Y011568D03*
X014651Y011568D03*
D16*
X003157Y002604D03*
X002901Y002604D03*
X002645Y002604D03*
X002389Y002604D03*
X002133Y002604D03*
D17*
X001070Y001560D03*
X004220Y001560D03*
D18*
X003866Y002564D03*
X001425Y002564D03*
M02*
