G75*
G70*
%OFA0B0*%
%FSLAX24Y24*%
%IPPOS*%
%LPD*%
%AMOC8*
5,1,8,0,0,1.08239X$1,22.5*
%
%ADD10C,0.0060*%
%ADD11C,0.0080*%
D10*
X000475Y010598D02*
X000431Y010642D01*
X000475Y010598D02*
X000561Y010598D01*
X000605Y010642D01*
X000605Y010728D01*
X000561Y010772D01*
X000518Y010772D01*
X000431Y010728D01*
X000431Y010859D01*
X000605Y010859D01*
X000726Y010859D02*
X000726Y010685D01*
X000813Y010598D01*
X000899Y010685D01*
X000899Y010859D01*
X002931Y010815D02*
X002931Y010642D01*
X002975Y010598D01*
X003061Y010598D01*
X003105Y010642D01*
X003226Y010598D02*
X003399Y010772D01*
X003399Y010815D01*
X003356Y010859D01*
X003269Y010859D01*
X003226Y010815D01*
X003105Y010815D02*
X003061Y010859D01*
X002975Y010859D01*
X002931Y010815D01*
X003226Y010598D02*
X003399Y010598D01*
X003815Y010728D02*
X003989Y010728D01*
X003945Y010598D02*
X003945Y010859D01*
X003815Y010728D01*
X004110Y010642D02*
X004153Y010642D01*
X004153Y010598D01*
X004110Y010598D01*
X004110Y010642D01*
X004257Y010642D02*
X004300Y010642D01*
X004300Y010598D01*
X004257Y010598D01*
X004257Y010642D01*
X004404Y010642D02*
X004404Y010598D01*
X004404Y010642D02*
X004578Y010815D01*
X004578Y010859D01*
X004404Y010859D01*
X006306Y010815D02*
X006306Y010642D01*
X006350Y010598D01*
X006436Y010598D01*
X006480Y010642D01*
X006480Y010728D01*
X006393Y010728D01*
X006480Y010815D02*
X006436Y010859D01*
X006350Y010859D01*
X006306Y010815D01*
X006601Y010859D02*
X006601Y010598D01*
X006774Y010598D02*
X006774Y010859D01*
X006895Y010859D02*
X007026Y010859D01*
X007069Y010815D01*
X007069Y010642D01*
X007026Y010598D01*
X006895Y010598D01*
X006895Y010859D01*
X006774Y010598D02*
X006601Y010859D01*
X007431Y010859D02*
X007431Y010728D01*
X007518Y010772D01*
X007561Y010772D01*
X007605Y010728D01*
X007605Y010642D01*
X007561Y010598D01*
X007475Y010598D01*
X007431Y010642D01*
X007726Y010685D02*
X007813Y010598D01*
X007899Y010685D01*
X007899Y010859D01*
X007726Y010859D02*
X007726Y010685D01*
X007605Y010859D02*
X007431Y010859D01*
X011556Y010859D02*
X011556Y010598D01*
X011686Y010598D01*
X011730Y010642D01*
X011730Y010685D01*
X011686Y010728D01*
X011556Y010728D01*
X011686Y010728D02*
X011730Y010772D01*
X011730Y010815D01*
X011686Y010859D01*
X011556Y010859D01*
X011851Y010859D02*
X012024Y010859D01*
X012024Y010815D01*
X011851Y010642D01*
X011851Y010598D01*
X012145Y010598D02*
X012189Y010598D01*
X012189Y010642D01*
X012145Y010642D01*
X012145Y010598D01*
X012293Y010598D02*
X012336Y010598D01*
X012336Y010642D01*
X012293Y010642D01*
X012293Y010598D01*
X012440Y010642D02*
X012614Y010815D01*
X012614Y010642D01*
X012570Y010598D01*
X012483Y010598D01*
X012440Y010642D01*
X012440Y010815D01*
X012483Y010859D01*
X012570Y010859D01*
X012614Y010815D01*
X014681Y010745D02*
X014681Y010658D01*
X014725Y010615D01*
X014811Y010615D01*
X014855Y010658D01*
X014855Y010702D01*
X014811Y010788D01*
X014941Y010788D01*
X014941Y010615D01*
X014941Y010494D02*
X014768Y010494D01*
X014681Y010407D01*
X014768Y010320D01*
X014941Y010320D01*
X014941Y009913D02*
X014681Y009913D01*
X014811Y009913D02*
X014811Y009740D01*
X014941Y009740D02*
X014681Y009740D01*
X014681Y009619D02*
X014768Y009532D01*
X014681Y009445D01*
X014941Y009445D01*
X014941Y009324D02*
X014681Y009324D01*
X014681Y009194D01*
X014725Y009151D01*
X014768Y009151D01*
X014811Y009194D01*
X014811Y009324D01*
X014811Y009194D02*
X014855Y009151D01*
X014898Y009151D01*
X014941Y009194D01*
X014941Y009324D01*
X014941Y009619D02*
X014681Y009619D01*
X014681Y010745D02*
X014725Y010788D01*
X014681Y006538D02*
X014681Y006408D01*
X014725Y006365D01*
X014898Y006365D01*
X014941Y006408D01*
X014941Y006538D01*
X014681Y006538D01*
X014681Y006244D02*
X014725Y006244D01*
X014898Y006070D01*
X014941Y006070D01*
X014941Y006244D01*
X014725Y005949D02*
X014725Y005906D01*
X014681Y005906D01*
X014681Y005949D01*
X014725Y005949D01*
X014725Y005802D02*
X014725Y005758D01*
X014681Y005758D01*
X014681Y005802D01*
X014725Y005802D01*
X014725Y005654D02*
X014898Y005481D01*
X014725Y005481D01*
X014681Y005524D01*
X014681Y005611D01*
X014725Y005654D01*
X014898Y005654D01*
X014941Y005611D01*
X014941Y005524D01*
X014898Y005481D01*
X014898Y002038D02*
X014725Y002038D01*
X014681Y001995D01*
X014681Y001908D01*
X014725Y001865D01*
X014811Y001865D01*
X014811Y001952D01*
X014898Y002038D02*
X014941Y001995D01*
X014941Y001908D01*
X014898Y001865D01*
X014941Y001744D02*
X014681Y001744D01*
X014681Y001570D02*
X014941Y001570D01*
X014941Y001449D02*
X014681Y001449D01*
X014681Y001319D01*
X014725Y001276D01*
X014898Y001276D01*
X014941Y001319D01*
X014941Y001449D01*
X014681Y001570D02*
X014941Y001744D01*
D11*
X016026Y009568D02*
X016276Y009568D01*
M02*
