%
M48
M72
T01C0.0236
T02C0.0320
T03C0.0394
T04C0.0433
T05C0.0500
T06C0.1299
%
T01
X10836Y8872
X11348Y8872
X10482Y11825
X13435Y13242
X14222Y14580
X14222Y15132
X14891Y15132
X14891Y14580
X15561Y14580
X15561Y15132
X13317Y16273
X11466Y16155
X9655Y15014
X8986Y15014
X8317Y15014
X8317Y14462
X8986Y14462
X9655Y14462
X7765Y16195
X8986Y17100
X7490Y17454
X8789Y19187
X9419Y19266
X10443Y18793
X11702Y19856
X13080Y19147
X14498Y18557
X15009Y18557
X16348Y20014
X18238Y18399
X21860Y19187
X22096Y17336
X22569Y17336
X22017Y16273
X19340Y15919
X19183Y14423
X18671Y14423
X19065Y12691
X19065Y12140
X19655Y12140
X19655Y12691
X21820Y11943
X20561Y10565
X20561Y10053
X20561Y9541
X20561Y9029
X22254Y9462
X24458Y8636
X25285Y6549
X27726Y5289
X27569Y8832
X27687Y9344
X26702Y11628
X25049Y12533
X22883Y13911
X16860Y10250
X6820Y12494
X5639Y12809
X6978Y14029
X3986Y14344
X3474Y14344
X2962Y14344
X2962Y14895
X3474Y14895
X3986Y14895
X5246Y16116
X3868Y17809
X2962Y17297
X4340Y20250
X3553Y20643
X10009Y20525
X11624Y17454
X1506Y9384
X27372Y18163
T02
X20203Y7079
X18203Y7079
T03
X13710Y7376
X8238Y7573
X1545Y12140
X2844Y12651
T04
X26057Y15423
X27682Y15907
X26057Y20423
X27682Y10907
T05
X29342Y11933
X29342Y13433
X29342Y9491
X29342Y7991
X25141Y4790
X23641Y4790
X20791Y4793
X19291Y4793
X15926Y4805
X14426Y4805
X11224Y4793
X9724Y4793
X6553Y4805
X5053Y4805
T06
X2151Y4006
X2194Y19435
X29635Y19443
X29655Y3990
M30
