G75*
G70*
%OFA0B0*%
%FSLAX24Y24*%
%IPPOS*%
%LPD*%
%AMOC8*
5,1,8,0,0,1.08239X$1,22.5*
%
%ADD10C,0.0050*%
%ADD11C,0.0040*%
%ADD12C,0.0080*%
%ADD13C,0.0236*%
%ADD14C,0.0060*%
%ADD15R,0.0300X0.0110*%
%ADD16R,0.0128X0.0167*%
%ADD17R,0.0138X0.0138*%
%ADD18R,0.0167X0.0128*%
%ADD19C,0.0197*%
%ADD20C,0.0295*%
%ADD21R,0.0200X0.0800*%
D10*
X004030Y001655D02*
X004030Y005277D01*
X007573Y005277D01*
X007573Y001655D01*
X004030Y001655D01*
X004053Y002805D02*
X007553Y002805D01*
X008724Y002793D02*
X012224Y002793D01*
X013426Y002805D02*
X016926Y002805D01*
X018291Y002793D02*
X021791Y002793D01*
X022641Y002790D02*
X026141Y002790D01*
X026160Y001640D02*
X026160Y005262D01*
X022617Y005262D01*
X022617Y001640D01*
X026160Y001640D01*
X021810Y001643D02*
X021810Y005265D01*
X018267Y005265D01*
X018267Y001643D01*
X021810Y001643D01*
X016945Y001655D02*
X016945Y005277D01*
X013402Y005277D01*
X013402Y001655D01*
X016945Y001655D01*
X012243Y001643D02*
X012243Y005265D01*
X008700Y005265D01*
X008700Y001643D01*
X012243Y001643D01*
X012293Y006705D02*
X012293Y011429D01*
X017017Y011429D01*
X017017Y006705D01*
X012293Y006705D01*
X011578Y006829D02*
X011578Y011554D01*
X006854Y011554D01*
X006854Y006829D01*
X011578Y006829D01*
X006201Y008432D02*
X001476Y008432D01*
X001476Y013157D01*
X006201Y013157D01*
X006201Y008432D01*
X005650Y008826D02*
X005652Y008851D01*
X005658Y008875D01*
X005667Y008897D01*
X005680Y008918D01*
X005696Y008937D01*
X005715Y008953D01*
X005736Y008966D01*
X005758Y008975D01*
X005782Y008981D01*
X005807Y008983D01*
X005832Y008981D01*
X005856Y008975D01*
X005878Y008966D01*
X005899Y008953D01*
X005918Y008937D01*
X005934Y008918D01*
X005947Y008897D01*
X005956Y008875D01*
X005962Y008851D01*
X005964Y008826D01*
X005962Y008801D01*
X005956Y008777D01*
X005947Y008755D01*
X005934Y008734D01*
X005918Y008715D01*
X005899Y008699D01*
X005878Y008686D01*
X005856Y008677D01*
X005832Y008671D01*
X005807Y008669D01*
X005782Y008671D01*
X005758Y008677D01*
X005736Y008686D01*
X005715Y008699D01*
X005696Y008715D01*
X005680Y008734D01*
X005667Y008755D01*
X005658Y008777D01*
X005652Y008801D01*
X005650Y008826D01*
X011027Y011160D02*
X011029Y011185D01*
X011035Y011209D01*
X011044Y011231D01*
X011057Y011252D01*
X011073Y011271D01*
X011092Y011287D01*
X011113Y011300D01*
X011135Y011309D01*
X011159Y011315D01*
X011184Y011317D01*
X011209Y011315D01*
X011233Y011309D01*
X011255Y011300D01*
X011276Y011287D01*
X011295Y011271D01*
X011311Y011252D01*
X011324Y011231D01*
X011333Y011209D01*
X011339Y011185D01*
X011341Y011160D01*
X011339Y011135D01*
X011333Y011111D01*
X011324Y011089D01*
X011311Y011068D01*
X011295Y011049D01*
X011276Y011033D01*
X011255Y011020D01*
X011233Y011011D01*
X011209Y011005D01*
X011184Y011003D01*
X011159Y011005D01*
X011135Y011011D01*
X011113Y011020D01*
X011092Y011033D01*
X011073Y011049D01*
X011057Y011068D01*
X011044Y011089D01*
X011035Y011111D01*
X011029Y011135D01*
X011027Y011160D01*
X009961Y013961D02*
X007993Y013961D01*
X007993Y015339D01*
X009961Y015339D01*
X009961Y013961D01*
X009961Y015339D02*
X009961Y015536D01*
X007993Y015536D01*
X007993Y015339D01*
X005885Y017488D02*
X005385Y017488D01*
X005385Y017738D01*
X005885Y017738D01*
X005885Y017488D01*
X006135Y017988D02*
X006135Y018238D01*
X006635Y018238D01*
X006635Y017988D01*
X006135Y017988D01*
X005885Y018488D02*
X005385Y018488D01*
X005385Y018738D01*
X005885Y018738D01*
X005885Y018488D01*
X006135Y018988D02*
X006135Y019238D01*
X006635Y019238D01*
X006635Y018988D01*
X006135Y018988D01*
X005885Y019488D02*
X005385Y019488D01*
X005385Y019738D01*
X005885Y019738D01*
X005885Y019488D01*
X006135Y019988D02*
X006135Y020238D01*
X006635Y020238D01*
X006635Y019988D01*
X006135Y019988D01*
X004465Y015398D02*
X002457Y015398D01*
X002457Y013823D01*
X004465Y013823D01*
X004465Y015398D01*
X002535Y013980D02*
X002537Y013998D01*
X002543Y014014D01*
X002552Y014029D01*
X002565Y014042D01*
X002580Y014051D01*
X002596Y014057D01*
X002614Y014059D01*
X002632Y014057D01*
X002648Y014051D01*
X002663Y014042D01*
X002676Y014029D01*
X002685Y014014D01*
X002691Y013998D01*
X002693Y013980D01*
X002691Y013962D01*
X002685Y013946D01*
X002676Y013931D01*
X002663Y013918D01*
X002648Y013909D01*
X002632Y013903D01*
X002614Y013901D01*
X002596Y013903D01*
X002580Y013909D01*
X002565Y013918D01*
X002552Y013931D01*
X002543Y013946D01*
X002537Y013962D01*
X002535Y013980D01*
X013902Y014061D02*
X013902Y015439D01*
X015870Y015439D01*
X015870Y014061D01*
X013902Y014061D01*
X013902Y015439D02*
X013902Y015636D01*
X015870Y015636D01*
X015870Y015439D01*
X017550Y017292D02*
X017550Y019930D01*
X020503Y019930D01*
X020503Y017292D01*
X017550Y017292D01*
X020156Y019694D02*
X020158Y019714D01*
X020163Y019734D01*
X020173Y019752D01*
X020185Y019769D01*
X020200Y019783D01*
X020218Y019793D01*
X020237Y019801D01*
X020257Y019805D01*
X020277Y019805D01*
X020297Y019801D01*
X020316Y019793D01*
X020334Y019783D01*
X020349Y019769D01*
X020361Y019752D01*
X020371Y019734D01*
X020376Y019714D01*
X020378Y019694D01*
X020376Y019674D01*
X020371Y019654D01*
X020361Y019636D01*
X020349Y019619D01*
X020334Y019605D01*
X020316Y019595D01*
X020297Y019587D01*
X020277Y019583D01*
X020257Y019583D01*
X020237Y019587D01*
X020218Y019595D01*
X020200Y019605D01*
X020185Y019619D01*
X020173Y019636D01*
X020163Y019654D01*
X020158Y019674D01*
X020156Y019694D01*
X028870Y014453D02*
X028870Y010910D01*
X032492Y010910D01*
X032492Y014453D01*
X028870Y014453D01*
X031342Y014433D02*
X031342Y010933D01*
X031342Y010491D02*
X031342Y006991D01*
X032492Y006968D02*
X028870Y006968D01*
X028870Y010511D01*
X032492Y010511D01*
X032492Y006968D01*
X026577Y006226D02*
X026577Y008588D01*
X024215Y008588D01*
X024215Y006226D01*
X026577Y006226D01*
X026324Y006423D02*
X026326Y006437D01*
X026332Y006451D01*
X026340Y006463D01*
X026352Y006471D01*
X026366Y006477D01*
X026380Y006479D01*
X026394Y006477D01*
X026408Y006471D01*
X026420Y006463D01*
X026428Y006451D01*
X026434Y006437D01*
X026436Y006423D01*
X026434Y006409D01*
X026428Y006395D01*
X026420Y006383D01*
X026408Y006375D01*
X026394Y006369D01*
X026380Y006367D01*
X026366Y006369D01*
X026352Y006375D01*
X026340Y006383D01*
X026332Y006395D01*
X026326Y006409D01*
X026324Y006423D01*
X020857Y008591D02*
X019636Y008591D01*
X019636Y010559D01*
X020857Y010559D01*
X020857Y008591D01*
X016467Y011036D02*
X016469Y011061D01*
X016475Y011085D01*
X016484Y011107D01*
X016497Y011128D01*
X016513Y011147D01*
X016532Y011163D01*
X016553Y011176D01*
X016575Y011185D01*
X016599Y011191D01*
X016624Y011193D01*
X016649Y011191D01*
X016673Y011185D01*
X016695Y011176D01*
X016716Y011163D01*
X016735Y011147D01*
X016751Y011128D01*
X016764Y011107D01*
X016773Y011085D01*
X016779Y011061D01*
X016781Y011036D01*
X016779Y011011D01*
X016773Y010987D01*
X016764Y010965D01*
X016751Y010944D01*
X016735Y010925D01*
X016716Y010909D01*
X016695Y010896D01*
X016673Y010887D01*
X016649Y010881D01*
X016624Y010879D01*
X016599Y010881D01*
X016575Y010887D01*
X016553Y010896D01*
X016532Y010909D01*
X016513Y010925D01*
X016497Y010944D01*
X016484Y010965D01*
X016475Y010987D01*
X016469Y011011D01*
X016467Y011036D01*
X018068Y011770D02*
X018068Y012990D01*
X020037Y012990D01*
X020037Y011770D01*
X018068Y011770D01*
X020819Y012706D02*
X020819Y013848D01*
X021508Y013848D01*
X021508Y012706D01*
X020819Y012706D01*
X020873Y013769D02*
X020875Y013779D01*
X020880Y013787D01*
X020888Y013792D01*
X020898Y013794D01*
X020908Y013792D01*
X020916Y013787D01*
X020921Y013779D01*
X020923Y013769D01*
X020921Y013759D01*
X020916Y013751D01*
X020908Y013746D01*
X020898Y013744D01*
X020888Y013746D01*
X020880Y013751D01*
X020875Y013759D01*
X020873Y013769D01*
D11*
X023125Y013499D02*
X023125Y011719D01*
X024625Y011719D02*
X024625Y013499D01*
X024824Y013470D02*
X024824Y011706D01*
X026335Y011706D02*
X026335Y013470D01*
X025125Y014843D02*
X025125Y016606D01*
X023613Y016606D02*
X023613Y014843D01*
X018122Y015630D02*
X018122Y013850D01*
X016622Y013850D02*
X016622Y015630D01*
X012262Y015357D02*
X012262Y013577D01*
X010762Y013577D02*
X010762Y015357D01*
X006640Y017040D02*
X006640Y017158D01*
X006522Y017277D01*
X006561Y017198D02*
X006522Y017158D01*
X006128Y017158D01*
X006089Y017198D01*
X006128Y017158D02*
X006128Y017040D01*
X006010Y017040D02*
X006010Y017158D01*
X006128Y017277D01*
X006010Y017277D02*
X006010Y017158D01*
X006522Y017158D02*
X006522Y017040D01*
X006640Y017158D02*
X006640Y017277D01*
X004990Y016980D02*
X004990Y016673D01*
X004990Y016826D02*
X004529Y016826D01*
X004683Y016673D01*
X024816Y010268D02*
X026596Y010268D01*
X026596Y008768D02*
X024816Y008768D01*
X030612Y008662D02*
X030612Y008509D01*
X030689Y008432D01*
X030689Y008279D02*
X030612Y008202D01*
X030612Y008049D01*
X030689Y007972D01*
X030995Y007972D01*
X031072Y008049D01*
X031072Y008202D01*
X030995Y008279D01*
X031072Y008432D02*
X030765Y008739D01*
X030689Y008739D01*
X030612Y008662D01*
X031072Y008739D02*
X031072Y008432D01*
X031072Y007818D02*
X030612Y007818D01*
X030765Y007665D01*
X030612Y007511D01*
X031072Y007511D01*
X031072Y011453D02*
X030612Y011453D01*
X030765Y011607D01*
X030612Y011760D01*
X031072Y011760D01*
X030995Y011914D02*
X030689Y011914D01*
X030612Y011990D01*
X030612Y012144D01*
X030689Y012220D01*
X030689Y012374D02*
X030612Y012451D01*
X030612Y012604D01*
X030689Y012681D01*
X030765Y012681D01*
X031072Y012374D01*
X031072Y012681D01*
X030995Y012220D02*
X031072Y012144D01*
X031072Y011990D01*
X030995Y011914D01*
X024311Y003520D02*
X024158Y003520D01*
X024081Y003444D01*
X023928Y003444D02*
X023851Y003520D01*
X023698Y003520D01*
X023621Y003444D01*
X023621Y003137D01*
X023698Y003060D01*
X023851Y003060D01*
X023928Y003137D01*
X024081Y003060D02*
X024388Y003367D01*
X024388Y003444D01*
X024311Y003520D01*
X024388Y003060D02*
X024081Y003060D01*
X023467Y003060D02*
X023467Y003520D01*
X023314Y003367D01*
X023161Y003520D01*
X023161Y003060D01*
X020038Y003063D02*
X019731Y003063D01*
X020038Y003370D01*
X020038Y003447D01*
X019961Y003523D01*
X019808Y003523D01*
X019731Y003447D01*
X019578Y003447D02*
X019501Y003523D01*
X019348Y003523D01*
X019271Y003447D01*
X019271Y003140D01*
X019348Y003063D01*
X019501Y003063D01*
X019578Y003140D01*
X019117Y003063D02*
X019117Y003523D01*
X018964Y003370D01*
X018811Y003523D01*
X018811Y003063D01*
X015173Y003075D02*
X014866Y003075D01*
X015173Y003382D01*
X015173Y003459D01*
X015096Y003535D01*
X014943Y003535D01*
X014866Y003459D01*
X014713Y003459D02*
X014636Y003535D01*
X014483Y003535D01*
X014406Y003459D01*
X014406Y003152D01*
X014483Y003075D01*
X014636Y003075D01*
X014713Y003152D01*
X014252Y003075D02*
X014252Y003535D01*
X014099Y003382D01*
X013946Y003535D01*
X013946Y003075D01*
X010471Y003063D02*
X010164Y003063D01*
X010471Y003370D01*
X010471Y003447D01*
X010394Y003523D01*
X010241Y003523D01*
X010164Y003447D01*
X010011Y003447D02*
X009934Y003523D01*
X009781Y003523D01*
X009704Y003447D01*
X009704Y003140D01*
X009781Y003063D01*
X009934Y003063D01*
X010011Y003140D01*
X009551Y003063D02*
X009551Y003523D01*
X009397Y003370D01*
X009244Y003523D01*
X009244Y003063D01*
X005801Y003075D02*
X005494Y003075D01*
X005801Y003382D01*
X005801Y003459D01*
X005724Y003535D01*
X005571Y003535D01*
X005494Y003459D01*
X005340Y003459D02*
X005264Y003535D01*
X005110Y003535D01*
X005034Y003459D01*
X005034Y003152D01*
X005110Y003075D01*
X005264Y003075D01*
X005340Y003152D01*
X004880Y003075D02*
X004880Y003535D01*
X004727Y003382D01*
X004573Y003535D01*
X004573Y003075D01*
D12*
X001482Y004006D02*
X001484Y004057D01*
X001490Y004108D01*
X001500Y004158D01*
X001513Y004208D01*
X001531Y004256D01*
X001551Y004303D01*
X001576Y004348D01*
X001604Y004391D01*
X001635Y004432D01*
X001669Y004470D01*
X001706Y004505D01*
X001745Y004538D01*
X001787Y004568D01*
X001831Y004594D01*
X001877Y004616D01*
X001925Y004636D01*
X001974Y004651D01*
X002024Y004663D01*
X002074Y004671D01*
X002125Y004675D01*
X002177Y004675D01*
X002228Y004671D01*
X002278Y004663D01*
X002328Y004651D01*
X002377Y004636D01*
X002425Y004616D01*
X002471Y004594D01*
X002515Y004568D01*
X002557Y004538D01*
X002596Y004505D01*
X002633Y004470D01*
X002667Y004432D01*
X002698Y004391D01*
X002726Y004348D01*
X002751Y004303D01*
X002771Y004256D01*
X002789Y004208D01*
X002802Y004158D01*
X002812Y004108D01*
X002818Y004057D01*
X002820Y004006D01*
X002818Y003955D01*
X002812Y003904D01*
X002802Y003854D01*
X002789Y003804D01*
X002771Y003756D01*
X002751Y003709D01*
X002726Y003664D01*
X002698Y003621D01*
X002667Y003580D01*
X002633Y003542D01*
X002596Y003507D01*
X002557Y003474D01*
X002515Y003444D01*
X002471Y003418D01*
X002425Y003396D01*
X002377Y003376D01*
X002328Y003361D01*
X002278Y003349D01*
X002228Y003341D01*
X002177Y003337D01*
X002125Y003337D01*
X002074Y003341D01*
X002024Y003349D01*
X001974Y003361D01*
X001925Y003376D01*
X001877Y003396D01*
X001831Y003418D01*
X001787Y003444D01*
X001745Y003474D01*
X001706Y003507D01*
X001669Y003542D01*
X001635Y003580D01*
X001604Y003621D01*
X001576Y003664D01*
X001551Y003709D01*
X001531Y003756D01*
X001513Y003804D01*
X001500Y003854D01*
X001490Y003904D01*
X001484Y003955D01*
X001482Y004006D01*
X011512Y014140D02*
X011906Y014543D01*
X011118Y014543D01*
X011512Y014140D01*
X006955Y017001D02*
X006955Y020725D01*
X005065Y020725D01*
X005065Y017001D01*
X006955Y017001D01*
X006640Y016962D02*
X006640Y016804D01*
X006482Y016804D01*
X006482Y016962D01*
X006285Y016962D02*
X006285Y016804D01*
X005734Y016804D01*
X005734Y016962D01*
X005537Y016962D02*
X005537Y016804D01*
X005380Y016804D01*
X005380Y016962D01*
X005222Y017316D02*
X005222Y020410D01*
X006797Y020410D01*
X006797Y017316D01*
X005222Y017316D01*
X008673Y018095D02*
X008673Y019552D01*
X010618Y019552D01*
X010618Y018095D01*
X008673Y018095D01*
X006640Y020765D02*
X006640Y020922D01*
X006482Y020922D01*
X006482Y020765D01*
X006285Y020765D02*
X006285Y020922D01*
X005734Y020922D01*
X005734Y020765D01*
X005537Y020765D02*
X005537Y020922D01*
X005380Y020922D01*
X005380Y020765D01*
X001525Y019435D02*
X001527Y019486D01*
X001533Y019537D01*
X001543Y019587D01*
X001556Y019637D01*
X001574Y019685D01*
X001594Y019732D01*
X001619Y019777D01*
X001647Y019820D01*
X001678Y019861D01*
X001712Y019899D01*
X001749Y019934D01*
X001788Y019967D01*
X001830Y019997D01*
X001874Y020023D01*
X001920Y020045D01*
X001968Y020065D01*
X002017Y020080D01*
X002067Y020092D01*
X002117Y020100D01*
X002168Y020104D01*
X002220Y020104D01*
X002271Y020100D01*
X002321Y020092D01*
X002371Y020080D01*
X002420Y020065D01*
X002468Y020045D01*
X002514Y020023D01*
X002558Y019997D01*
X002600Y019967D01*
X002639Y019934D01*
X002676Y019899D01*
X002710Y019861D01*
X002741Y019820D01*
X002769Y019777D01*
X002794Y019732D01*
X002814Y019685D01*
X002832Y019637D01*
X002845Y019587D01*
X002855Y019537D01*
X002861Y019486D01*
X002863Y019435D01*
X002861Y019384D01*
X002855Y019333D01*
X002845Y019283D01*
X002832Y019233D01*
X002814Y019185D01*
X002794Y019138D01*
X002769Y019093D01*
X002741Y019050D01*
X002710Y019009D01*
X002676Y018971D01*
X002639Y018936D01*
X002600Y018903D01*
X002558Y018873D01*
X002514Y018847D01*
X002468Y018825D01*
X002420Y018805D01*
X002371Y018790D01*
X002321Y018778D01*
X002271Y018770D01*
X002220Y018766D01*
X002168Y018766D01*
X002117Y018770D01*
X002067Y018778D01*
X002017Y018790D01*
X001968Y018805D01*
X001920Y018825D01*
X001874Y018847D01*
X001830Y018873D01*
X001788Y018903D01*
X001749Y018936D01*
X001712Y018971D01*
X001678Y019009D01*
X001647Y019050D01*
X001619Y019093D01*
X001594Y019138D01*
X001574Y019185D01*
X001556Y019233D01*
X001543Y019283D01*
X001533Y019333D01*
X001527Y019384D01*
X001525Y019435D01*
X016978Y014816D02*
X017765Y014816D01*
X017372Y014413D01*
X016978Y014816D01*
X023481Y012685D02*
X024269Y012685D01*
X023875Y012282D01*
X023481Y012685D01*
X025782Y009912D02*
X025782Y009124D01*
X025379Y009518D01*
X025782Y009912D01*
X028986Y003990D02*
X028988Y004041D01*
X028994Y004092D01*
X029004Y004142D01*
X029017Y004192D01*
X029035Y004240D01*
X029055Y004287D01*
X029080Y004332D01*
X029108Y004375D01*
X029139Y004416D01*
X029173Y004454D01*
X029210Y004489D01*
X029249Y004522D01*
X029291Y004552D01*
X029335Y004578D01*
X029381Y004600D01*
X029429Y004620D01*
X029478Y004635D01*
X029528Y004647D01*
X029578Y004655D01*
X029629Y004659D01*
X029681Y004659D01*
X029732Y004655D01*
X029782Y004647D01*
X029832Y004635D01*
X029881Y004620D01*
X029929Y004600D01*
X029975Y004578D01*
X030019Y004552D01*
X030061Y004522D01*
X030100Y004489D01*
X030137Y004454D01*
X030171Y004416D01*
X030202Y004375D01*
X030230Y004332D01*
X030255Y004287D01*
X030275Y004240D01*
X030293Y004192D01*
X030306Y004142D01*
X030316Y004092D01*
X030322Y004041D01*
X030324Y003990D01*
X030322Y003939D01*
X030316Y003888D01*
X030306Y003838D01*
X030293Y003788D01*
X030275Y003740D01*
X030255Y003693D01*
X030230Y003648D01*
X030202Y003605D01*
X030171Y003564D01*
X030137Y003526D01*
X030100Y003491D01*
X030061Y003458D01*
X030019Y003428D01*
X029975Y003402D01*
X029929Y003380D01*
X029881Y003360D01*
X029832Y003345D01*
X029782Y003333D01*
X029732Y003325D01*
X029681Y003321D01*
X029629Y003321D01*
X029578Y003325D01*
X029528Y003333D01*
X029478Y003345D01*
X029429Y003360D01*
X029381Y003380D01*
X029335Y003402D01*
X029291Y003428D01*
X029249Y003458D01*
X029210Y003491D01*
X029173Y003526D01*
X029139Y003564D01*
X029108Y003605D01*
X029080Y003648D01*
X029055Y003693D01*
X029035Y003740D01*
X029017Y003788D01*
X029004Y003838D01*
X028994Y003888D01*
X028988Y003939D01*
X028986Y003990D01*
X028966Y019443D02*
X028968Y019494D01*
X028974Y019545D01*
X028984Y019595D01*
X028997Y019645D01*
X029015Y019693D01*
X029035Y019740D01*
X029060Y019785D01*
X029088Y019828D01*
X029119Y019869D01*
X029153Y019907D01*
X029190Y019942D01*
X029229Y019975D01*
X029271Y020005D01*
X029315Y020031D01*
X029361Y020053D01*
X029409Y020073D01*
X029458Y020088D01*
X029508Y020100D01*
X029558Y020108D01*
X029609Y020112D01*
X029661Y020112D01*
X029712Y020108D01*
X029762Y020100D01*
X029812Y020088D01*
X029861Y020073D01*
X029909Y020053D01*
X029955Y020031D01*
X029999Y020005D01*
X030041Y019975D01*
X030080Y019942D01*
X030117Y019907D01*
X030151Y019869D01*
X030182Y019828D01*
X030210Y019785D01*
X030235Y019740D01*
X030255Y019693D01*
X030273Y019645D01*
X030286Y019595D01*
X030296Y019545D01*
X030302Y019494D01*
X030304Y019443D01*
X030302Y019392D01*
X030296Y019341D01*
X030286Y019291D01*
X030273Y019241D01*
X030255Y019193D01*
X030235Y019146D01*
X030210Y019101D01*
X030182Y019058D01*
X030151Y019017D01*
X030117Y018979D01*
X030080Y018944D01*
X030041Y018911D01*
X029999Y018881D01*
X029955Y018855D01*
X029909Y018833D01*
X029861Y018813D01*
X029812Y018798D01*
X029762Y018786D01*
X029712Y018778D01*
X029661Y018774D01*
X029609Y018774D01*
X029558Y018778D01*
X029508Y018786D01*
X029458Y018798D01*
X029409Y018813D01*
X029361Y018833D01*
X029315Y018855D01*
X029271Y018881D01*
X029229Y018911D01*
X029190Y018944D01*
X029153Y018979D01*
X029119Y019017D01*
X029088Y019058D01*
X029060Y019101D01*
X029035Y019146D01*
X029015Y019193D01*
X028997Y019241D01*
X028984Y019291D01*
X028974Y019341D01*
X028968Y019392D01*
X028966Y019443D01*
D13*
X008996Y018410D03*
D14*
X000844Y019435D02*
X000846Y019508D01*
X000852Y019581D01*
X000862Y019653D01*
X000876Y019725D01*
X000893Y019796D01*
X000915Y019866D01*
X000940Y019935D01*
X000969Y020002D01*
X001001Y020067D01*
X001037Y020131D01*
X001077Y020193D01*
X001119Y020252D01*
X001165Y020309D01*
X001214Y020363D01*
X001266Y020415D01*
X001320Y020464D01*
X001377Y020510D01*
X001436Y020552D01*
X001498Y020592D01*
X001562Y020628D01*
X001627Y020660D01*
X001694Y020689D01*
X001763Y020714D01*
X001833Y020736D01*
X001904Y020753D01*
X001976Y020767D01*
X002048Y020777D01*
X002121Y020783D01*
X002194Y020785D01*
X002267Y020783D01*
X002340Y020777D01*
X002412Y020767D01*
X002484Y020753D01*
X002555Y020736D01*
X002625Y020714D01*
X002694Y020689D01*
X002761Y020660D01*
X002826Y020628D01*
X002890Y020592D01*
X002952Y020552D01*
X003011Y020510D01*
X003068Y020464D01*
X003122Y020415D01*
X003174Y020363D01*
X003223Y020309D01*
X003269Y020252D01*
X003311Y020193D01*
X003351Y020131D01*
X003387Y020067D01*
X003419Y020002D01*
X003448Y019935D01*
X003473Y019866D01*
X003495Y019796D01*
X003512Y019725D01*
X003526Y019653D01*
X003536Y019581D01*
X003542Y019508D01*
X003544Y019435D01*
X003542Y019362D01*
X003536Y019289D01*
X003526Y019217D01*
X003512Y019145D01*
X003495Y019074D01*
X003473Y019004D01*
X003448Y018935D01*
X003419Y018868D01*
X003387Y018803D01*
X003351Y018739D01*
X003311Y018677D01*
X003269Y018618D01*
X003223Y018561D01*
X003174Y018507D01*
X003122Y018455D01*
X003068Y018406D01*
X003011Y018360D01*
X002952Y018318D01*
X002890Y018278D01*
X002826Y018242D01*
X002761Y018210D01*
X002694Y018181D01*
X002625Y018156D01*
X002555Y018134D01*
X002484Y018117D01*
X002412Y018103D01*
X002340Y018093D01*
X002267Y018087D01*
X002194Y018085D01*
X002121Y018087D01*
X002048Y018093D01*
X001976Y018103D01*
X001904Y018117D01*
X001833Y018134D01*
X001763Y018156D01*
X001694Y018181D01*
X001627Y018210D01*
X001562Y018242D01*
X001498Y018278D01*
X001436Y018318D01*
X001377Y018360D01*
X001320Y018406D01*
X001266Y018455D01*
X001214Y018507D01*
X001165Y018561D01*
X001119Y018618D01*
X001077Y018677D01*
X001037Y018739D01*
X001001Y018803D01*
X000969Y018868D01*
X000940Y018935D01*
X000915Y019004D01*
X000893Y019074D01*
X000876Y019145D01*
X000862Y019217D01*
X000852Y019289D01*
X000846Y019362D01*
X000844Y019435D01*
X018703Y007429D02*
X018703Y007229D01*
X018603Y007329D02*
X018803Y007329D01*
X018903Y007479D02*
X018903Y007079D01*
X018903Y006679D01*
X019103Y006679D01*
X019103Y007479D01*
X018903Y007479D01*
X018903Y007079D02*
X018653Y007079D01*
X018354Y006550D02*
X018388Y006499D01*
X018425Y006450D01*
X018466Y006404D01*
X018508Y006360D01*
X018554Y006318D01*
X018602Y006280D01*
X018652Y006244D01*
X018704Y006212D01*
X018758Y006183D01*
X018814Y006158D01*
X018872Y006136D01*
X018930Y006117D01*
X018990Y006102D01*
X019050Y006091D01*
X019111Y006083D01*
X019172Y006079D01*
X019234Y006079D01*
X019295Y006083D01*
X019356Y006091D01*
X019416Y006102D01*
X019476Y006117D01*
X019534Y006136D01*
X019592Y006158D01*
X019648Y006183D01*
X019702Y006212D01*
X019754Y006244D01*
X019804Y006280D01*
X019852Y006318D01*
X019898Y006360D01*
X019940Y006404D01*
X019981Y006450D01*
X020018Y006499D01*
X020052Y006550D01*
X019753Y007079D02*
X019453Y007079D01*
X020052Y007608D02*
X020018Y007659D01*
X019981Y007708D01*
X019940Y007754D01*
X019898Y007798D01*
X019852Y007840D01*
X019804Y007878D01*
X019754Y007914D01*
X019702Y007946D01*
X019648Y007975D01*
X019592Y008000D01*
X019534Y008022D01*
X019476Y008041D01*
X019416Y008056D01*
X019356Y008067D01*
X019295Y008075D01*
X019234Y008079D01*
X019172Y008079D01*
X019111Y008075D01*
X019050Y008067D01*
X018990Y008056D01*
X018930Y008041D01*
X018872Y008022D01*
X018814Y008000D01*
X018758Y007975D01*
X018704Y007946D01*
X018652Y007914D01*
X018602Y007878D01*
X018554Y007840D01*
X018508Y007798D01*
X018466Y007754D01*
X018425Y007708D01*
X018388Y007659D01*
X018354Y007608D01*
X026882Y011557D02*
X026882Y011807D01*
X026932Y011857D01*
X026932Y014957D01*
X026882Y015007D01*
X026882Y015257D01*
X026884Y015280D01*
X026889Y015303D01*
X026898Y015325D01*
X026911Y015345D01*
X026926Y015363D01*
X026944Y015378D01*
X026964Y015391D01*
X026986Y015400D01*
X027009Y015405D01*
X027032Y015407D01*
X028332Y015407D01*
X028355Y015405D01*
X028378Y015400D01*
X028400Y015391D01*
X028420Y015378D01*
X028438Y015363D01*
X028453Y015345D01*
X028466Y015325D01*
X028475Y015303D01*
X028480Y015280D01*
X028482Y015257D01*
X028482Y015007D01*
X028432Y014957D01*
X028432Y011857D01*
X028482Y011807D01*
X028482Y011557D01*
X028480Y011534D01*
X028475Y011511D01*
X028466Y011489D01*
X028453Y011469D01*
X028438Y011451D01*
X028420Y011436D01*
X028400Y011423D01*
X028378Y011414D01*
X028355Y011409D01*
X028332Y011407D01*
X027032Y011407D01*
X027009Y011409D01*
X026986Y011414D01*
X026964Y011423D01*
X026944Y011436D01*
X026926Y011451D01*
X026911Y011469D01*
X026898Y011489D01*
X026889Y011511D01*
X026884Y011534D01*
X026882Y011557D01*
X026707Y015923D02*
X025407Y015923D01*
X025384Y015925D01*
X025361Y015930D01*
X025339Y015939D01*
X025319Y015952D01*
X025301Y015967D01*
X025286Y015985D01*
X025273Y016005D01*
X025264Y016027D01*
X025259Y016050D01*
X025257Y016073D01*
X025257Y016323D01*
X025307Y016373D01*
X025307Y019473D01*
X025257Y019523D01*
X025257Y019773D01*
X025259Y019796D01*
X025264Y019819D01*
X025273Y019841D01*
X025286Y019861D01*
X025301Y019879D01*
X025319Y019894D01*
X025339Y019907D01*
X025361Y019916D01*
X025384Y019921D01*
X025407Y019923D01*
X026707Y019923D01*
X026730Y019921D01*
X026753Y019916D01*
X026775Y019907D01*
X026795Y019894D01*
X026813Y019879D01*
X026828Y019861D01*
X026841Y019841D01*
X026850Y019819D01*
X026855Y019796D01*
X026857Y019773D01*
X026857Y019523D01*
X026807Y019473D01*
X026807Y016373D01*
X026857Y016323D01*
X026857Y016073D01*
X026855Y016050D01*
X026850Y016027D01*
X026841Y016005D01*
X026828Y015985D01*
X026813Y015967D01*
X026795Y015952D01*
X026775Y015939D01*
X026753Y015930D01*
X026730Y015925D01*
X026707Y015923D01*
X028285Y019443D02*
X028287Y019516D01*
X028293Y019589D01*
X028303Y019661D01*
X028317Y019733D01*
X028334Y019804D01*
X028356Y019874D01*
X028381Y019943D01*
X028410Y020010D01*
X028442Y020075D01*
X028478Y020139D01*
X028518Y020201D01*
X028560Y020260D01*
X028606Y020317D01*
X028655Y020371D01*
X028707Y020423D01*
X028761Y020472D01*
X028818Y020518D01*
X028877Y020560D01*
X028939Y020600D01*
X029003Y020636D01*
X029068Y020668D01*
X029135Y020697D01*
X029204Y020722D01*
X029274Y020744D01*
X029345Y020761D01*
X029417Y020775D01*
X029489Y020785D01*
X029562Y020791D01*
X029635Y020793D01*
X029708Y020791D01*
X029781Y020785D01*
X029853Y020775D01*
X029925Y020761D01*
X029996Y020744D01*
X030066Y020722D01*
X030135Y020697D01*
X030202Y020668D01*
X030267Y020636D01*
X030331Y020600D01*
X030393Y020560D01*
X030452Y020518D01*
X030509Y020472D01*
X030563Y020423D01*
X030615Y020371D01*
X030664Y020317D01*
X030710Y020260D01*
X030752Y020201D01*
X030792Y020139D01*
X030828Y020075D01*
X030860Y020010D01*
X030889Y019943D01*
X030914Y019874D01*
X030936Y019804D01*
X030953Y019733D01*
X030967Y019661D01*
X030977Y019589D01*
X030983Y019516D01*
X030985Y019443D01*
X030983Y019370D01*
X030977Y019297D01*
X030967Y019225D01*
X030953Y019153D01*
X030936Y019082D01*
X030914Y019012D01*
X030889Y018943D01*
X030860Y018876D01*
X030828Y018811D01*
X030792Y018747D01*
X030752Y018685D01*
X030710Y018626D01*
X030664Y018569D01*
X030615Y018515D01*
X030563Y018463D01*
X030509Y018414D01*
X030452Y018368D01*
X030393Y018326D01*
X030331Y018286D01*
X030267Y018250D01*
X030202Y018218D01*
X030135Y018189D01*
X030066Y018164D01*
X029996Y018142D01*
X029925Y018125D01*
X029853Y018111D01*
X029781Y018101D01*
X029708Y018095D01*
X029635Y018093D01*
X029562Y018095D01*
X029489Y018101D01*
X029417Y018111D01*
X029345Y018125D01*
X029274Y018142D01*
X029204Y018164D01*
X029135Y018189D01*
X029068Y018218D01*
X029003Y018250D01*
X028939Y018286D01*
X028877Y018326D01*
X028818Y018368D01*
X028761Y018414D01*
X028707Y018463D01*
X028655Y018515D01*
X028606Y018569D01*
X028560Y018626D01*
X028518Y018685D01*
X028478Y018747D01*
X028442Y018811D01*
X028410Y018876D01*
X028381Y018943D01*
X028356Y019012D01*
X028334Y019082D01*
X028317Y019153D01*
X028303Y019225D01*
X028293Y019297D01*
X028287Y019370D01*
X028285Y019443D01*
X028305Y003990D02*
X028307Y004063D01*
X028313Y004136D01*
X028323Y004208D01*
X028337Y004280D01*
X028354Y004351D01*
X028376Y004421D01*
X028401Y004490D01*
X028430Y004557D01*
X028462Y004622D01*
X028498Y004686D01*
X028538Y004748D01*
X028580Y004807D01*
X028626Y004864D01*
X028675Y004918D01*
X028727Y004970D01*
X028781Y005019D01*
X028838Y005065D01*
X028897Y005107D01*
X028959Y005147D01*
X029023Y005183D01*
X029088Y005215D01*
X029155Y005244D01*
X029224Y005269D01*
X029294Y005291D01*
X029365Y005308D01*
X029437Y005322D01*
X029509Y005332D01*
X029582Y005338D01*
X029655Y005340D01*
X029728Y005338D01*
X029801Y005332D01*
X029873Y005322D01*
X029945Y005308D01*
X030016Y005291D01*
X030086Y005269D01*
X030155Y005244D01*
X030222Y005215D01*
X030287Y005183D01*
X030351Y005147D01*
X030413Y005107D01*
X030472Y005065D01*
X030529Y005019D01*
X030583Y004970D01*
X030635Y004918D01*
X030684Y004864D01*
X030730Y004807D01*
X030772Y004748D01*
X030812Y004686D01*
X030848Y004622D01*
X030880Y004557D01*
X030909Y004490D01*
X030934Y004421D01*
X030956Y004351D01*
X030973Y004280D01*
X030987Y004208D01*
X030997Y004136D01*
X031003Y004063D01*
X031005Y003990D01*
X031003Y003917D01*
X030997Y003844D01*
X030987Y003772D01*
X030973Y003700D01*
X030956Y003629D01*
X030934Y003559D01*
X030909Y003490D01*
X030880Y003423D01*
X030848Y003358D01*
X030812Y003294D01*
X030772Y003232D01*
X030730Y003173D01*
X030684Y003116D01*
X030635Y003062D01*
X030583Y003010D01*
X030529Y002961D01*
X030472Y002915D01*
X030413Y002873D01*
X030351Y002833D01*
X030287Y002797D01*
X030222Y002765D01*
X030155Y002736D01*
X030086Y002711D01*
X030016Y002689D01*
X029945Y002672D01*
X029873Y002658D01*
X029801Y002648D01*
X029728Y002642D01*
X029655Y002640D01*
X029582Y002642D01*
X029509Y002648D01*
X029437Y002658D01*
X029365Y002672D01*
X029294Y002689D01*
X029224Y002711D01*
X029155Y002736D01*
X029088Y002765D01*
X029023Y002797D01*
X028959Y002833D01*
X028897Y002873D01*
X028838Y002915D01*
X028781Y002961D01*
X028727Y003010D01*
X028675Y003062D01*
X028626Y003116D01*
X028580Y003173D01*
X028538Y003232D01*
X028498Y003294D01*
X028462Y003358D01*
X028430Y003423D01*
X028401Y003490D01*
X028376Y003559D01*
X028354Y003629D01*
X028337Y003700D01*
X028323Y003772D01*
X028313Y003844D01*
X028307Y003917D01*
X028305Y003990D01*
X000801Y004006D02*
X000803Y004079D01*
X000809Y004152D01*
X000819Y004224D01*
X000833Y004296D01*
X000850Y004367D01*
X000872Y004437D01*
X000897Y004506D01*
X000926Y004573D01*
X000958Y004638D01*
X000994Y004702D01*
X001034Y004764D01*
X001076Y004823D01*
X001122Y004880D01*
X001171Y004934D01*
X001223Y004986D01*
X001277Y005035D01*
X001334Y005081D01*
X001393Y005123D01*
X001455Y005163D01*
X001519Y005199D01*
X001584Y005231D01*
X001651Y005260D01*
X001720Y005285D01*
X001790Y005307D01*
X001861Y005324D01*
X001933Y005338D01*
X002005Y005348D01*
X002078Y005354D01*
X002151Y005356D01*
X002224Y005354D01*
X002297Y005348D01*
X002369Y005338D01*
X002441Y005324D01*
X002512Y005307D01*
X002582Y005285D01*
X002651Y005260D01*
X002718Y005231D01*
X002783Y005199D01*
X002847Y005163D01*
X002909Y005123D01*
X002968Y005081D01*
X003025Y005035D01*
X003079Y004986D01*
X003131Y004934D01*
X003180Y004880D01*
X003226Y004823D01*
X003268Y004764D01*
X003308Y004702D01*
X003344Y004638D01*
X003376Y004573D01*
X003405Y004506D01*
X003430Y004437D01*
X003452Y004367D01*
X003469Y004296D01*
X003483Y004224D01*
X003493Y004152D01*
X003499Y004079D01*
X003501Y004006D01*
X003499Y003933D01*
X003493Y003860D01*
X003483Y003788D01*
X003469Y003716D01*
X003452Y003645D01*
X003430Y003575D01*
X003405Y003506D01*
X003376Y003439D01*
X003344Y003374D01*
X003308Y003310D01*
X003268Y003248D01*
X003226Y003189D01*
X003180Y003132D01*
X003131Y003078D01*
X003079Y003026D01*
X003025Y002977D01*
X002968Y002931D01*
X002909Y002889D01*
X002847Y002849D01*
X002783Y002813D01*
X002718Y002781D01*
X002651Y002752D01*
X002582Y002727D01*
X002512Y002705D01*
X002441Y002688D01*
X002369Y002674D01*
X002297Y002664D01*
X002224Y002658D01*
X002151Y002656D01*
X002078Y002658D01*
X002005Y002664D01*
X001933Y002674D01*
X001861Y002688D01*
X001790Y002705D01*
X001720Y002727D01*
X001651Y002752D01*
X001584Y002781D01*
X001519Y002813D01*
X001455Y002849D01*
X001393Y002889D01*
X001334Y002931D01*
X001277Y002977D01*
X001223Y003026D01*
X001171Y003078D01*
X001122Y003132D01*
X001076Y003189D01*
X001034Y003248D01*
X000994Y003310D01*
X000958Y003374D01*
X000926Y003439D01*
X000897Y003506D01*
X000872Y003575D01*
X000850Y003645D01*
X000833Y003716D01*
X000819Y003788D01*
X000809Y003860D01*
X000803Y003933D01*
X000801Y004006D01*
D15*
X026057Y015868D03*
X027682Y015462D03*
X027682Y011352D03*
X026057Y019978D03*
D16*
X026573Y003242D03*
X027114Y003242D03*
X017725Y003259D03*
X017184Y003259D03*
X013027Y003248D03*
X012485Y003248D03*
X008363Y003280D03*
X007822Y003280D03*
D17*
X008093Y003432D03*
X012756Y003401D03*
X017454Y003411D03*
X026844Y003395D03*
X030187Y006249D03*
D18*
X030340Y006519D03*
X030340Y005978D03*
D19*
X018977Y010641D03*
X017986Y011110D03*
D20*
X018363Y012065D03*
X019931Y010264D03*
D21*
X019403Y007079D03*
M02*
