G75*
G70*
%OFA0B0*%
%FSLAX24Y24*%
%IPPOS*%
%LPD*%
%AMOC8*
5,1,8,0,0,1.08239X$1,22.5*
%
%ADD10C,0.0000*%
%ADD11C,0.0100*%
%ADD12R,0.0197X0.0866*%
%ADD13R,0.1969X0.0984*%
%ADD14R,0.0630X0.1063*%
%ADD15R,0.0394X0.0433*%
%ADD16R,0.1181X0.1181*%
%ADD17R,0.0945X0.0945*%
%ADD18R,0.0098X0.0610*%
%ADD19R,0.1575X0.1102*%
%ADD20R,0.0433X0.0394*%
%ADD21R,0.1417X0.1181*%
%ADD22R,0.1063X0.1004*%
%ADD23R,0.0500X0.0250*%
%ADD24R,0.1063X0.0630*%
%ADD25C,0.0750*%
%ADD26R,0.0150X0.0600*%
%ADD27R,0.1409X0.0591*%
%ADD28R,0.0850X0.0701*%
%ADD29OC8,0.0760*%
%ADD30R,0.0591X0.0591*%
%ADD31C,0.0236*%
%ADD32C,0.0750*%
%ADD33OC8,0.0750*%
%ADD34C,0.2300*%
%ADD35C,0.0860*%
%ADD36C,0.0400*%
%ADD37C,0.0160*%
%ADD38C,0.0594*%
%ADD39C,0.0660*%
%ADD40C,0.0436*%
%ADD41C,0.0120*%
%ADD42C,0.0320*%
%ADD43C,0.0240*%
%ADD44C,0.0500*%
D10*
X000403Y002258D02*
X000403Y021258D01*
X031403Y021258D01*
X031403Y002258D01*
X000403Y002258D01*
D11*
X028800Y015473D02*
X028933Y015339D01*
X028800Y015473D02*
X028800Y015606D01*
X028933Y015739D01*
X029106Y015606D02*
X029173Y015673D01*
X029173Y015806D01*
X029307Y015806D02*
X029307Y015673D01*
X029240Y015606D01*
X029490Y015739D02*
X029624Y015606D01*
X029624Y015473D01*
X029490Y015339D01*
X029797Y015473D02*
X029797Y015606D01*
X029930Y015739D01*
X030104Y015606D02*
X030171Y015673D01*
X030171Y015806D01*
X030304Y015806D02*
X030304Y015673D01*
X030237Y015606D01*
X030488Y015739D02*
X030621Y015606D01*
X030621Y015473D01*
X030488Y015339D01*
X029930Y015339D02*
X029797Y015473D01*
X029755Y015894D02*
X029909Y016048D01*
X029832Y016048D01*
X029832Y016124D01*
X029909Y016124D01*
X029909Y016048D01*
X029909Y016278D02*
X029832Y016278D01*
X029832Y016355D01*
X029909Y016355D01*
X029909Y016278D01*
X030099Y016355D02*
X030176Y016431D01*
X030176Y016585D01*
X030357Y016508D02*
X030510Y016355D01*
X030510Y016201D01*
X030357Y016048D01*
X029574Y016431D02*
X029498Y016355D01*
X029574Y016431D02*
X029574Y016585D01*
X029524Y016796D02*
X029390Y016929D01*
X029390Y017063D01*
X029524Y017196D01*
X029697Y017196D02*
X029830Y017063D01*
X029830Y016929D01*
X029697Y016796D01*
X030004Y016929D02*
X030004Y017063D01*
X030137Y017196D01*
X030311Y017196D02*
X030444Y017063D01*
X030444Y016929D01*
X030311Y016796D01*
X030137Y016796D02*
X030004Y016929D01*
X029307Y016508D02*
X029154Y016355D01*
X029154Y016201D01*
X029307Y016048D01*
D12*
X015630Y015982D03*
X015130Y015982D03*
X014630Y015982D03*
X014130Y015982D03*
X014130Y013718D03*
X014630Y013718D03*
X015130Y013718D03*
X015630Y013718D03*
X009721Y013618D03*
X009221Y013618D03*
X008721Y013618D03*
X008221Y013618D03*
X008221Y015882D03*
X008721Y015882D03*
X009221Y015882D03*
X009721Y015882D03*
D13*
X008977Y014748D03*
X014886Y014848D03*
D14*
X014616Y012180D03*
X013513Y012180D03*
X008728Y012471D03*
X007626Y012471D03*
D15*
X004885Y013547D03*
X004885Y014217D03*
X005374Y014843D03*
X005902Y014649D03*
X006571Y014649D03*
X006598Y015181D03*
X005928Y015181D03*
X005374Y015512D03*
X003492Y016456D03*
X002823Y016456D03*
X010359Y014331D03*
X010359Y013662D03*
X013769Y016902D03*
X014439Y016902D03*
X014439Y017453D03*
X013769Y017453D03*
X012590Y018121D03*
X011921Y018121D03*
X011775Y018658D03*
X012444Y018658D03*
X012295Y019918D03*
X012964Y019918D03*
X016228Y014482D03*
X016228Y013813D03*
X028170Y006299D03*
X028839Y006299D03*
D16*
X026577Y007407D03*
X024215Y007407D03*
X017017Y011429D03*
X011578Y011554D03*
X006201Y008432D03*
X006854Y006829D03*
X012293Y006705D03*
X001476Y013157D03*
D17*
X011512Y013601D03*
X011512Y015333D03*
X017372Y015606D03*
X017372Y013873D03*
X023875Y013475D03*
X023875Y011743D03*
X024840Y009518D03*
X026572Y009518D03*
D18*
X004228Y013508D03*
X003972Y013508D03*
X003717Y013508D03*
X003461Y013508D03*
X003205Y013508D03*
X002949Y013508D03*
X002693Y013508D03*
X002693Y015713D03*
X002949Y015713D03*
X003205Y015713D03*
X003461Y015713D03*
X003717Y015713D03*
X003972Y015713D03*
X004228Y015713D03*
D19*
X003480Y014610D03*
D20*
X004842Y014830D03*
X004842Y015499D03*
X008126Y018186D03*
X008126Y018855D03*
X008086Y019406D03*
X008086Y020075D03*
X011075Y019901D03*
X011075Y019232D03*
X011889Y019197D03*
X012559Y019197D03*
X011086Y018390D03*
X011086Y017721D03*
X015620Y012810D03*
X016289Y012810D03*
X020579Y012409D03*
X021141Y012403D03*
X021141Y011733D03*
X020579Y011740D03*
X017396Y005454D03*
X017396Y004784D03*
X012728Y004793D03*
X012728Y005463D03*
X008065Y005468D03*
X008065Y004799D03*
X009669Y012656D03*
X010338Y012656D03*
X026846Y005434D03*
X026846Y004764D03*
D21*
X020463Y017174D03*
X017629Y017174D03*
X017629Y020009D03*
X020463Y020009D03*
D22*
X023904Y020352D03*
X023904Y017852D03*
D23*
X021693Y013651D03*
X021693Y013277D03*
X021693Y012903D03*
X020662Y012903D03*
X020662Y013277D03*
X020662Y013651D03*
D24*
X017823Y009632D03*
X017823Y008530D03*
D25*
X019291Y005168D02*
X019291Y004418D01*
X020791Y004418D02*
X020791Y005168D01*
X023641Y005165D02*
X023641Y004415D01*
X025141Y004415D02*
X025141Y005165D01*
X028967Y007991D02*
X029717Y007991D01*
X029717Y009491D02*
X028967Y009491D01*
X028967Y011933D02*
X029717Y011933D01*
X029717Y013433D02*
X028967Y013433D01*
X015926Y005180D02*
X015926Y004430D01*
X014426Y004430D02*
X014426Y005180D01*
X011224Y005168D02*
X011224Y004418D01*
X009724Y004418D02*
X009724Y005168D01*
X006553Y005180D02*
X006553Y004430D01*
X005053Y004430D02*
X005053Y005180D01*
D26*
X008770Y017764D03*
X009020Y017764D03*
X009270Y017764D03*
X009520Y017764D03*
X009770Y017764D03*
X010020Y017764D03*
X010270Y017764D03*
X010520Y017764D03*
X010520Y019882D03*
X010270Y019882D03*
X010020Y019882D03*
X009770Y019882D03*
X009520Y019882D03*
X009270Y019882D03*
X009020Y019882D03*
X008770Y019882D03*
D27*
X007010Y020113D03*
X007010Y019113D03*
X007010Y018113D03*
X005010Y017613D03*
X005010Y018613D03*
X005010Y019613D03*
D28*
X024369Y016524D03*
X024369Y014921D03*
X025580Y013387D03*
X025580Y011785D03*
D29*
X027682Y010907D03*
X026057Y015423D03*
X027682Y015907D03*
X026057Y020423D03*
D30*
X029430Y006249D03*
X030807Y006249D03*
X026844Y004153D03*
X026844Y002775D03*
X017454Y002791D03*
X017454Y004169D03*
X012756Y004158D03*
X012756Y002780D03*
X008093Y002812D03*
X008093Y004190D03*
D31*
X018996Y008825D02*
X019370Y008825D01*
X019370Y009325D02*
X018996Y009325D01*
X018996Y009825D02*
X019370Y009825D01*
X019370Y010325D02*
X018996Y010325D01*
X018802Y011130D02*
X018802Y011504D01*
X018302Y011504D02*
X018302Y011130D01*
X019302Y011130D02*
X019302Y011504D01*
X019802Y011504D02*
X019802Y011130D01*
X021122Y010325D02*
X021496Y010325D01*
X021496Y009825D02*
X021122Y009825D01*
X021122Y009325D02*
X021496Y009325D01*
X021496Y008825D02*
X021122Y008825D01*
X019802Y013256D02*
X019802Y013630D01*
X019302Y013630D02*
X019302Y013256D01*
X018802Y013256D02*
X018802Y013630D01*
X018302Y013630D02*
X018302Y013256D01*
D32*
X018203Y007079D03*
D33*
X020203Y007079D03*
D34*
X029655Y003990D03*
X029635Y019443D03*
X002194Y019435D03*
X002151Y004006D03*
D35*
X006191Y010210D02*
X006197Y010217D01*
X018203Y007079D02*
X019291Y005991D01*
X019291Y004793D01*
X027682Y010907D02*
X029098Y009491D01*
X029342Y009491D01*
X026769Y013387D02*
X025580Y013387D01*
X023963Y013387D01*
X026769Y013387D02*
X027687Y014305D01*
X027687Y015903D01*
X027682Y015907D01*
X024186Y017852D02*
X026072Y019738D01*
X026072Y020407D01*
X026057Y020423D01*
X024186Y017852D02*
X023904Y017852D01*
D36*
X024041Y017715D01*
X021860Y019187D02*
X020836Y018163D01*
X018868Y018163D01*
X017879Y017174D01*
X017629Y017174D01*
X017629Y016924D01*
X016228Y015803D02*
X015994Y016037D01*
X015836Y016037D01*
X016228Y015803D02*
X016228Y014482D01*
X015620Y012810D02*
X015205Y012810D01*
X015167Y012848D01*
X015087Y012299D02*
X015088Y012297D01*
X015088Y012061D01*
X014969Y012180D01*
X014616Y012180D01*
X012647Y010250D02*
X012687Y010210D01*
X012687Y010171D01*
X012647Y010210D01*
X012647Y010250D01*
X012647Y017297D01*
X013592Y018242D01*
X013592Y019580D01*
X013255Y019918D01*
X012964Y019918D01*
X016348Y020014D02*
X016353Y020009D01*
X017629Y020009D01*
X018238Y018399D02*
X019847Y020009D01*
X020463Y020009D01*
X020463Y017174D02*
X021117Y017174D01*
X022017Y016273D01*
X026702Y013321D02*
X026769Y013387D01*
X026702Y013321D02*
X026702Y011628D01*
X026572Y009518D02*
X024461Y007407D01*
X024215Y007407D01*
X026577Y007407D02*
X027685Y006299D01*
X028170Y006299D01*
X026846Y005434D02*
X025784Y005434D01*
X025141Y004790D01*
X026844Y004762D02*
X026844Y004153D01*
X026844Y004762D02*
X026846Y004764D01*
X012728Y005463D02*
X012467Y005463D01*
X011742Y004738D01*
X011279Y004738D01*
X011224Y004793D01*
X008065Y004799D02*
X008065Y004218D01*
X008093Y004190D01*
X007217Y005468D02*
X006553Y004805D01*
X007217Y005468D02*
X008065Y005468D01*
X008728Y012471D02*
X009002Y012471D01*
X009222Y012691D01*
X009257Y012656D01*
X009669Y012656D01*
X010359Y014331D02*
X010359Y015688D01*
X010128Y015919D01*
X009758Y015919D01*
X009721Y015882D01*
X008221Y015882D02*
X007909Y016195D01*
X007765Y016195D01*
X005902Y014649D02*
X005902Y013071D01*
X005639Y012809D01*
X004104Y013675D02*
X004104Y014029D01*
X003986Y014147D01*
X003986Y014344D01*
X004842Y014830D02*
X004854Y014843D01*
X005374Y014843D01*
X003301Y012947D02*
X003139Y012947D01*
X002844Y012651D01*
X007010Y018113D02*
X007082Y018186D01*
X008126Y018186D01*
X007010Y019113D02*
X007303Y019406D01*
X008086Y019406D01*
X013317Y016273D02*
X013769Y016726D01*
X013769Y016902D01*
X014439Y016902D02*
X014439Y017453D01*
D37*
X014879Y017478D02*
X016680Y017478D01*
X016680Y017636D02*
X014875Y017636D01*
X014875Y017717D02*
X014839Y017805D01*
X014771Y017873D01*
X014683Y017909D01*
X014194Y017909D01*
X014106Y017873D01*
X014057Y017825D01*
X014036Y017837D01*
X013990Y017849D01*
X013822Y017849D01*
X013841Y017869D01*
X013965Y017993D01*
X014032Y018154D01*
X014032Y019668D01*
X013965Y019830D01*
X013841Y019953D01*
X013628Y020167D01*
X013504Y020291D01*
X013342Y020358D01*
X013249Y020358D01*
X013209Y020374D01*
X012720Y020374D01*
X012631Y020338D01*
X012630Y020336D01*
X012628Y020338D01*
X012539Y020374D01*
X012403Y020374D01*
X012139Y020639D01*
X012021Y020688D01*
X011894Y020688D01*
X010467Y020688D01*
X010438Y020688D01*
X010398Y020785D01*
X010269Y020914D01*
X010101Y020983D01*
X009918Y020983D01*
X009750Y020914D01*
X009621Y020785D01*
X009551Y020616D01*
X009551Y020434D01*
X009556Y020422D01*
X009398Y020422D01*
X009309Y020386D01*
X009286Y020362D01*
X009270Y020362D01*
X009255Y020362D01*
X009231Y020386D01*
X009143Y020422D01*
X008898Y020422D01*
X008895Y020421D01*
X008893Y020422D01*
X008648Y020422D01*
X008582Y020395D01*
X008511Y020395D01*
X008506Y020408D01*
X008439Y020476D01*
X008350Y020512D01*
X007931Y020512D01*
X007918Y020544D01*
X007851Y020612D01*
X007762Y020648D01*
X006257Y020648D01*
X006169Y020612D01*
X006102Y020544D01*
X006065Y020456D01*
X006065Y019770D01*
X006102Y019682D01*
X006169Y019614D01*
X006172Y019613D01*
X006169Y019612D01*
X006102Y019544D01*
X006065Y019456D01*
X006065Y018770D01*
X006102Y018682D01*
X006169Y018614D01*
X006172Y018613D01*
X006169Y018612D01*
X006102Y018544D01*
X006065Y018456D01*
X006065Y017770D01*
X006102Y017682D01*
X006169Y017614D01*
X006257Y017578D01*
X007045Y017578D01*
X007032Y017546D01*
X007032Y017381D01*
X005955Y017381D01*
X005955Y017956D01*
X005918Y018044D01*
X005851Y018112D01*
X005847Y018113D01*
X005851Y018114D01*
X005918Y018182D01*
X005955Y018270D01*
X005955Y018956D01*
X005918Y019044D01*
X005851Y019112D01*
X005847Y019113D01*
X005851Y019114D01*
X005918Y019182D01*
X005955Y019270D01*
X005955Y019956D01*
X005918Y020044D01*
X005851Y020112D01*
X005762Y020148D01*
X004894Y020148D01*
X004798Y020244D01*
X004798Y020341D01*
X004729Y020509D01*
X004600Y020638D01*
X004431Y020708D01*
X004249Y020708D01*
X004081Y020638D01*
X003952Y020509D01*
X003882Y020341D01*
X003882Y020159D01*
X003952Y019990D01*
X004065Y019877D01*
X004065Y019270D01*
X004102Y019182D01*
X004169Y019114D01*
X004172Y019113D01*
X004169Y019112D01*
X004102Y019044D01*
X004065Y018956D01*
X004065Y018459D01*
X003873Y018267D01*
X003777Y018267D01*
X003608Y018197D01*
X003479Y018068D01*
X003410Y017900D01*
X003410Y017718D01*
X003479Y017549D01*
X003608Y017420D01*
X003777Y017351D01*
X003959Y017351D01*
X004065Y017395D01*
X004065Y017270D01*
X004102Y017182D01*
X004169Y017114D01*
X004257Y017078D01*
X005093Y017078D01*
X005341Y016830D01*
X004364Y016830D01*
X004237Y016830D01*
X004119Y016781D01*
X003929Y016590D01*
X003929Y016721D01*
X003892Y016809D01*
X003825Y016876D01*
X003737Y016913D01*
X003248Y016913D01*
X003159Y016876D01*
X003111Y016828D01*
X003089Y016841D01*
X003043Y016853D01*
X002841Y016853D01*
X002841Y016475D01*
X002804Y016475D01*
X002804Y016438D01*
X002446Y016438D01*
X002446Y016216D01*
X002458Y016170D01*
X002482Y016129D01*
X002494Y016118D01*
X002476Y016087D01*
X002464Y016042D01*
X002464Y015713D01*
X002692Y015713D01*
X002692Y015713D01*
X002464Y015713D01*
X002464Y015384D01*
X002476Y015338D01*
X002500Y015297D01*
X002533Y015264D01*
X002541Y015259D01*
X002525Y015231D01*
X002513Y015185D01*
X002513Y014690D01*
X003400Y014690D01*
X003400Y014530D01*
X003560Y014530D01*
X003560Y014052D01*
X003558Y014053D01*
X003548Y014053D01*
X003498Y014074D01*
X003400Y014074D01*
X003400Y014530D01*
X002513Y014530D01*
X002513Y014078D01*
X001714Y014078D01*
X001505Y013991D01*
X001501Y013987D01*
X000838Y013987D01*
X000750Y013951D01*
X000682Y013883D01*
X000646Y013795D01*
X000646Y012519D01*
X000682Y012430D01*
X000750Y012363D01*
X000838Y012326D01*
X000975Y012326D01*
X000975Y012026D01*
X001062Y011817D01*
X001222Y011656D01*
X001431Y011570D01*
X001658Y011570D01*
X001868Y011656D01*
X002028Y011817D01*
X002115Y012026D01*
X002115Y012326D01*
X002203Y012363D01*
X002270Y012430D01*
X002307Y012519D01*
X002307Y012938D01*
X002382Y012938D01*
X002307Y012758D01*
X002307Y012545D01*
X002389Y012347D01*
X002540Y012196D01*
X002737Y012114D01*
X002918Y012114D01*
X002918Y011849D01*
X002918Y011721D01*
X002966Y011604D01*
X004896Y009675D01*
X004986Y009585D01*
X005103Y009536D01*
X005631Y009536D01*
X005631Y009263D01*
X005562Y009263D01*
X005474Y009226D01*
X005407Y009159D01*
X005370Y009071D01*
X005370Y007794D01*
X005407Y007706D01*
X005474Y007638D01*
X005562Y007602D01*
X006106Y007602D01*
X006060Y007556D01*
X006023Y007468D01*
X006023Y006191D01*
X006060Y006103D01*
X006127Y006035D01*
X006215Y005999D01*
X007492Y005999D01*
X007580Y006035D01*
X007648Y006103D01*
X007684Y006191D01*
X007684Y006259D01*
X008085Y006259D01*
X008312Y006259D01*
X009493Y006259D01*
X010609Y005144D01*
X010609Y004296D01*
X010702Y004070D01*
X010875Y003897D01*
X011101Y003803D01*
X011346Y003803D01*
X011572Y003897D01*
X011745Y004070D01*
X011839Y004296D01*
X011839Y004302D01*
X011991Y004365D01*
X012115Y004489D01*
X012272Y004646D01*
X012272Y004604D01*
X012257Y004590D01*
X012221Y004501D01*
X012221Y003815D01*
X012257Y003727D01*
X012325Y003660D01*
X012413Y003623D01*
X013099Y003623D01*
X013187Y003660D01*
X013255Y003727D01*
X013291Y003815D01*
X013291Y004501D01*
X013255Y004590D01*
X013187Y004657D01*
X013185Y004658D01*
X013185Y005038D01*
X013148Y005126D01*
X013146Y005128D01*
X013148Y005130D01*
X013185Y005218D01*
X013185Y005707D01*
X013148Y005796D01*
X013081Y005863D01*
X012993Y005900D01*
X012992Y005900D01*
X013019Y005911D01*
X013087Y005978D01*
X013123Y006067D01*
X013123Y006135D01*
X013597Y006135D01*
X013824Y006135D01*
X014421Y006135D01*
X015311Y005245D01*
X015311Y004308D01*
X015404Y004081D01*
X015577Y003909D01*
X015803Y003815D01*
X016048Y003815D01*
X016274Y003909D01*
X016447Y004081D01*
X016541Y004308D01*
X016541Y004854D01*
X016740Y005054D01*
X016950Y005054D01*
X016940Y005029D01*
X016940Y004562D01*
X016919Y004512D01*
X016919Y003826D01*
X016956Y003738D01*
X017023Y003670D01*
X017111Y003634D01*
X017797Y003634D01*
X017886Y003670D01*
X017953Y003738D01*
X017990Y003826D01*
X017990Y004512D01*
X017953Y004600D01*
X017886Y004668D01*
X017853Y004681D01*
X017853Y005029D01*
X017816Y005117D01*
X017815Y005119D01*
X017816Y005121D01*
X017853Y005209D01*
X017853Y005698D01*
X017816Y005786D01*
X017749Y005854D01*
X017661Y005891D01*
X017132Y005891D01*
X017044Y005854D01*
X017044Y005854D01*
X016654Y005854D01*
X016495Y005854D01*
X016367Y005801D01*
X016238Y005930D01*
X015140Y007028D01*
X014980Y007188D01*
X014770Y007275D01*
X014280Y007275D01*
X014280Y007489D01*
X014193Y007699D01*
X014033Y007859D01*
X013824Y007946D01*
X013597Y007946D01*
X013387Y007859D01*
X013227Y007699D01*
X013140Y007489D01*
X013140Y007275D01*
X013123Y007275D01*
X013123Y007343D01*
X013087Y007431D01*
X013019Y007499D01*
X012931Y007535D01*
X011655Y007535D01*
X011566Y007499D01*
X011499Y007431D01*
X011462Y007343D01*
X011462Y006067D01*
X011499Y005978D01*
X011566Y005911D01*
X011655Y005874D01*
X012311Y005874D01*
X012217Y005836D01*
X011790Y005408D01*
X011761Y005479D01*
X011761Y005481D01*
X011674Y005691D01*
X011513Y005851D01*
X010212Y007152D01*
X010052Y007312D01*
X009843Y007399D01*
X008783Y007399D01*
X008808Y007459D01*
X008808Y007686D01*
X008721Y007895D01*
X008561Y008056D01*
X008351Y008143D01*
X008124Y008143D01*
X007915Y008056D01*
X007876Y008016D01*
X007715Y007856D01*
X007628Y007647D01*
X007628Y007575D01*
X007580Y007623D01*
X007492Y007660D01*
X006949Y007660D01*
X006995Y007706D01*
X007031Y007794D01*
X007031Y009071D01*
X006995Y009159D01*
X006927Y009226D01*
X006839Y009263D01*
X006771Y009263D01*
X006771Y009536D01*
X014798Y009536D01*
X017888Y006446D01*
X017978Y006356D01*
X018621Y005714D01*
X018621Y004660D01*
X018676Y004527D01*
X018676Y004296D01*
X018769Y004070D01*
X018942Y003897D01*
X019168Y003803D01*
X019413Y003803D01*
X019639Y003897D01*
X019812Y004070D01*
X019906Y004296D01*
X019906Y004527D01*
X019961Y004660D01*
X019961Y005858D01*
X019961Y006125D01*
X019859Y006371D01*
X019030Y007199D01*
X019030Y007203D01*
X018981Y007321D01*
X018328Y007975D01*
X018402Y007975D01*
X018491Y008011D01*
X018558Y008079D01*
X018595Y008167D01*
X018595Y008892D01*
X018558Y008981D01*
X018491Y009048D01*
X018402Y009085D01*
X017244Y009085D01*
X017225Y009077D01*
X015605Y010697D01*
X015605Y012370D01*
X015707Y012370D01*
X015715Y012374D01*
X015884Y012374D01*
X015972Y012410D01*
X016007Y012445D01*
X016049Y012434D01*
X016270Y012434D01*
X016270Y012792D01*
X016307Y012792D01*
X016307Y012434D01*
X016529Y012434D01*
X016575Y012446D01*
X016616Y012469D01*
X016650Y012503D01*
X016673Y012544D01*
X016685Y012590D01*
X016685Y012792D01*
X016308Y012792D01*
X016308Y012829D01*
X016685Y012829D01*
X016685Y013031D01*
X016673Y013077D01*
X016657Y013105D01*
X016802Y013105D01*
X016802Y012260D01*
X016379Y012260D01*
X016291Y012223D01*
X016223Y012156D01*
X016187Y012068D01*
X016187Y010791D01*
X016223Y010703D01*
X016291Y010635D01*
X016379Y010599D01*
X017656Y010599D01*
X017744Y010635D01*
X017811Y010703D01*
X017848Y010791D01*
X017848Y011125D01*
X017901Y010996D01*
X017936Y010961D01*
X017936Y010889D01*
X018023Y010679D01*
X018688Y010015D01*
X018638Y009896D01*
X018638Y009754D01*
X018693Y009622D01*
X018732Y009583D01*
X018732Y009567D01*
X018693Y009528D01*
X018638Y009396D01*
X018638Y009254D01*
X018693Y009122D01*
X018740Y009075D01*
X018426Y009075D01*
X018424Y009149D02*
X018378Y009137D01*
X017901Y009137D01*
X017901Y009554D01*
X017746Y009554D01*
X017746Y009137D01*
X017268Y009137D01*
X017222Y009149D01*
X017181Y009173D01*
X017148Y009207D01*
X017124Y009248D01*
X017112Y009293D01*
X017112Y009554D01*
X017745Y009554D01*
X017745Y009710D01*
X017112Y009710D01*
X017112Y009971D01*
X017124Y010016D01*
X017148Y010058D01*
X017181Y010091D01*
X017222Y010115D01*
X017268Y010127D01*
X017746Y010127D01*
X017746Y009710D01*
X017901Y009710D01*
X017901Y010127D01*
X018378Y010127D01*
X018424Y010115D01*
X018465Y010091D01*
X018499Y010058D01*
X018522Y010016D01*
X018535Y009971D01*
X018535Y009710D01*
X017901Y009710D01*
X017901Y009554D01*
X018535Y009554D01*
X018535Y009293D01*
X018522Y009248D01*
X018499Y009207D01*
X018465Y009173D01*
X018424Y009149D01*
X018514Y009234D02*
X018647Y009234D01*
X018638Y009392D02*
X018535Y009392D01*
X018535Y009551D02*
X018716Y009551D01*
X018657Y009709D02*
X017901Y009709D01*
X017745Y009709D02*
X016593Y009709D01*
X016752Y009551D02*
X017112Y009551D01*
X017112Y009392D02*
X016910Y009392D01*
X017069Y009234D02*
X017132Y009234D01*
X016775Y009075D02*
X015712Y009075D01*
X015870Y008916D02*
X016933Y008916D01*
X017092Y008758D02*
X016029Y008758D01*
X016187Y008599D02*
X017250Y008599D01*
X017409Y008441D02*
X016346Y008441D01*
X016504Y008282D02*
X017567Y008282D01*
X017726Y008124D02*
X016663Y008124D01*
X016822Y007965D02*
X017885Y007965D01*
X018043Y007807D02*
X016980Y007807D01*
X017139Y007648D02*
X018202Y007648D01*
X018360Y007490D02*
X017297Y007490D01*
X017456Y007331D02*
X018519Y007331D01*
X018677Y007172D02*
X017614Y007172D01*
X017773Y007014D02*
X018545Y007014D01*
X018671Y007140D02*
X018159Y006628D01*
X014931Y009856D01*
X005167Y009856D01*
X003238Y011785D01*
X003238Y013754D01*
X003435Y013754D01*
X003435Y012494D01*
X005364Y010565D01*
X009104Y010565D01*
X009104Y013793D01*
X009340Y013793D01*
X009340Y010565D01*
X014970Y010565D01*
X014970Y014029D01*
X015285Y014029D01*
X015285Y010565D01*
X018710Y007140D01*
X018671Y007140D01*
X018971Y007331D02*
X019670Y007331D01*
X019648Y007309D02*
X019648Y007079D01*
X020203Y007079D01*
X020203Y007079D01*
X020203Y007634D01*
X019973Y007634D01*
X019648Y007309D01*
X019648Y007172D02*
X019057Y007172D01*
X019216Y007014D02*
X019648Y007014D01*
X019648Y007079D02*
X019648Y006849D01*
X019973Y006524D01*
X020203Y006524D01*
X020203Y007078D01*
X020203Y007078D01*
X020203Y006524D01*
X020433Y006524D01*
X020739Y006830D01*
X020739Y005783D01*
X020668Y005783D01*
X020442Y005689D01*
X020269Y005516D01*
X020176Y005290D01*
X020176Y004296D01*
X020269Y004070D01*
X020442Y003897D01*
X020668Y003803D01*
X020913Y003803D01*
X021139Y003897D01*
X021312Y004070D01*
X021406Y004296D01*
X021406Y004602D01*
X021792Y004988D01*
X021879Y005198D01*
X021879Y005425D01*
X021879Y008710D01*
X021879Y008712D01*
X021879Y008938D01*
X021879Y008940D01*
X021879Y009916D01*
X022179Y009916D01*
X022406Y009916D01*
X022616Y010003D01*
X023643Y011030D01*
X024395Y011030D01*
X024483Y011067D01*
X024551Y011134D01*
X024587Y011222D01*
X024587Y012263D01*
X024551Y012351D01*
X024483Y012419D01*
X024395Y012455D01*
X023671Y012455D01*
X023364Y012763D01*
X023720Y012763D01*
X023829Y012717D01*
X025713Y012717D01*
X026262Y012717D01*
X026262Y011763D01*
X026244Y011719D01*
X026244Y011537D01*
X026314Y011368D01*
X026443Y011239D01*
X026611Y011170D01*
X026793Y011170D01*
X026962Y011239D01*
X027091Y011368D01*
X027160Y011537D01*
X027160Y011719D01*
X027142Y011763D01*
X027142Y012817D01*
X027148Y012819D01*
X028066Y013737D01*
X028255Y013925D01*
X028357Y014172D01*
X028357Y015769D01*
X028357Y016036D01*
X028255Y016282D01*
X028061Y016475D01*
X027941Y016525D01*
X027939Y016527D01*
X027936Y016527D01*
X027815Y016577D01*
X027549Y016577D01*
X027428Y016527D01*
X027425Y016527D01*
X027423Y016525D01*
X027302Y016475D01*
X027114Y016287D01*
X027064Y016166D01*
X027062Y016164D01*
X027062Y016161D01*
X027012Y016041D01*
X027012Y015774D01*
X027017Y015763D01*
X027017Y014582D01*
X026491Y014057D01*
X025713Y014057D01*
X024561Y014057D01*
X024551Y014083D01*
X024483Y014151D01*
X024395Y014187D01*
X023355Y014187D01*
X023278Y014156D01*
X023272Y014171D01*
X023143Y014300D01*
X022975Y014369D01*
X022809Y014369D01*
X023397Y014958D01*
X023407Y014982D01*
X023788Y015363D01*
X023776Y015341D01*
X023764Y015296D01*
X023764Y015001D01*
X024289Y015001D01*
X024289Y014841D01*
X024449Y014841D01*
X024449Y014391D01*
X024818Y014391D01*
X024864Y014403D01*
X024905Y014427D01*
X024938Y014460D01*
X024962Y014502D01*
X024974Y014547D01*
X024974Y014841D01*
X024449Y014841D01*
X024449Y015001D01*
X024974Y015001D01*
X024974Y015296D01*
X024962Y015341D01*
X024938Y015382D01*
X024905Y015416D01*
X024864Y015439D01*
X024818Y015452D01*
X024449Y015452D01*
X024449Y015002D01*
X024289Y015002D01*
X024289Y015452D01*
X023920Y015452D01*
X023874Y015439D01*
X023853Y015427D01*
X024359Y015933D01*
X024842Y015933D01*
X024930Y015970D01*
X024998Y016037D01*
X025034Y016126D01*
X025034Y016922D01*
X024998Y017010D01*
X024930Y017078D01*
X024842Y017114D01*
X024585Y017114D01*
X024558Y017141D01*
X024571Y017146D01*
X024639Y017214D01*
X024675Y017302D01*
X024675Y017393D01*
X026452Y019170D01*
X026640Y019358D01*
X026742Y019605D01*
X026742Y020274D01*
X026742Y020541D01*
X026640Y020787D01*
X026437Y020991D01*
X026371Y021018D01*
X031163Y021018D01*
X031163Y006714D01*
X031126Y006724D01*
X030875Y006724D01*
X030875Y006316D01*
X030740Y006316D01*
X030740Y006181D01*
X030875Y006181D01*
X030875Y005773D01*
X031126Y005773D01*
X031163Y005783D01*
X031163Y002498D01*
X027319Y002498D01*
X027319Y002707D01*
X026912Y002707D01*
X026912Y002843D01*
X027319Y002843D01*
X027319Y003094D01*
X027307Y003140D01*
X027283Y003181D01*
X027249Y003214D01*
X027208Y003238D01*
X027163Y003250D01*
X026911Y003250D01*
X026911Y002843D01*
X026776Y002843D01*
X026776Y003250D01*
X026525Y003250D01*
X026479Y003238D01*
X026438Y003214D01*
X026404Y003181D01*
X026381Y003140D01*
X026368Y003094D01*
X026368Y002843D01*
X026776Y002843D01*
X026776Y002707D01*
X026368Y002707D01*
X026368Y002498D01*
X017930Y002498D01*
X017930Y002723D01*
X017522Y002723D01*
X017522Y002859D01*
X017387Y002859D01*
X017387Y003266D01*
X017135Y003266D01*
X017090Y003254D01*
X017049Y003230D01*
X017015Y003197D01*
X016991Y003156D01*
X016979Y003110D01*
X016979Y002859D01*
X017386Y002859D01*
X017386Y002723D01*
X016979Y002723D01*
X016979Y002498D01*
X013231Y002498D01*
X013231Y002713D01*
X012824Y002713D01*
X012824Y002848D01*
X013231Y002848D01*
X013231Y003099D01*
X013219Y003145D01*
X013195Y003186D01*
X013162Y003220D01*
X013121Y003243D01*
X013075Y003256D01*
X012824Y003256D01*
X012824Y002848D01*
X012688Y002848D01*
X012688Y002713D01*
X012281Y002713D01*
X012281Y002498D01*
X008568Y002498D01*
X008568Y002745D01*
X008160Y002745D01*
X008160Y002880D01*
X008025Y002880D01*
X008025Y003288D01*
X007774Y003288D01*
X007728Y003275D01*
X007687Y003252D01*
X007653Y003218D01*
X007630Y003177D01*
X007617Y003131D01*
X007617Y002880D01*
X008025Y002880D01*
X008025Y002745D01*
X007617Y002745D01*
X007617Y002498D01*
X000643Y002498D01*
X000643Y021018D01*
X023297Y021018D01*
X023262Y020998D01*
X023228Y020964D01*
X023205Y020923D01*
X023192Y020877D01*
X023192Y020432D01*
X023824Y020432D01*
X023824Y020272D01*
X023192Y020272D01*
X023192Y019826D01*
X023205Y019780D01*
X023228Y019739D01*
X023262Y019706D01*
X023303Y019682D01*
X023349Y019670D01*
X023824Y019670D01*
X023824Y020272D01*
X023984Y020272D01*
X023984Y020432D01*
X024615Y020432D01*
X024615Y020877D01*
X024603Y020923D01*
X024579Y020964D01*
X024546Y020998D01*
X024511Y021018D01*
X025743Y021018D01*
X025678Y020991D01*
X025489Y020802D01*
X025439Y020681D01*
X025437Y020679D01*
X025437Y020677D01*
X025387Y020556D01*
X025387Y020289D01*
X025402Y020252D01*
X025402Y020015D01*
X023981Y018594D01*
X023325Y018594D01*
X023236Y018557D01*
X023169Y018490D01*
X023132Y018401D01*
X023132Y017302D01*
X023169Y017214D01*
X023236Y017146D01*
X023325Y017110D01*
X023334Y017110D01*
X023334Y017102D01*
X023334Y016875D01*
X023421Y016666D01*
X023450Y016637D01*
X022431Y015618D01*
X022421Y015593D01*
X021742Y014914D01*
X021107Y014914D01*
X020880Y014914D01*
X020671Y014827D01*
X020205Y014362D01*
X020069Y014362D01*
X019889Y014287D01*
X019752Y014149D01*
X019570Y013968D01*
X019422Y013968D01*
X019374Y013988D01*
X019231Y013988D01*
X019183Y013968D01*
X018922Y013968D01*
X018874Y013988D01*
X018731Y013988D01*
X018683Y013968D01*
X018509Y013968D01*
X018414Y014007D01*
X018219Y014007D01*
X018084Y013951D01*
X018084Y014394D01*
X018048Y014482D01*
X017980Y014549D01*
X017892Y014586D01*
X016851Y014586D01*
X016763Y014549D01*
X016696Y014482D01*
X016668Y014415D01*
X016668Y015715D01*
X016668Y015890D01*
X016601Y016052D01*
X016367Y016286D01*
X016243Y016410D01*
X016081Y016477D01*
X015962Y016477D01*
X015932Y016551D01*
X015864Y016619D01*
X015776Y016655D01*
X015484Y016655D01*
X015396Y016619D01*
X015380Y016603D01*
X015364Y016619D01*
X015276Y016655D01*
X014984Y016655D01*
X014896Y016619D01*
X014880Y016603D01*
X014867Y016616D01*
X014875Y016637D01*
X014875Y016807D01*
X014879Y016814D01*
X014879Y017540D01*
X014875Y017548D01*
X014875Y017717D01*
X014843Y017795D02*
X016680Y017795D01*
X016680Y017812D02*
X016680Y016536D01*
X016717Y016448D01*
X016784Y016380D01*
X016872Y016344D01*
X018385Y016344D01*
X018473Y016380D01*
X018541Y016448D01*
X018577Y016536D01*
X018577Y017251D01*
X019050Y017723D01*
X019515Y017723D01*
X019515Y016536D01*
X019551Y016448D01*
X019619Y016380D01*
X019707Y016344D01*
X021220Y016344D01*
X021294Y016374D01*
X021611Y016058D01*
X021629Y016014D01*
X021758Y015885D01*
X021926Y015815D01*
X022108Y015815D01*
X022277Y015885D01*
X022406Y016014D01*
X022475Y016182D01*
X022475Y016364D01*
X022406Y016533D01*
X022277Y016662D01*
X022233Y016680D01*
X021490Y017423D01*
X021412Y017501D01*
X021412Y017812D01*
X021375Y017901D01*
X021308Y017968D01*
X021276Y017981D01*
X022076Y018780D01*
X022119Y018798D01*
X022248Y018927D01*
X022318Y019096D01*
X022318Y019278D01*
X022248Y019446D01*
X022119Y019575D01*
X021951Y019645D01*
X021769Y019645D01*
X021600Y019575D01*
X021471Y019446D01*
X021453Y019403D01*
X021405Y019355D01*
X021412Y019371D01*
X021412Y020647D01*
X021375Y020735D01*
X021308Y020803D01*
X021220Y020839D01*
X019707Y020839D01*
X019619Y020803D01*
X019551Y020735D01*
X019515Y020647D01*
X019515Y020299D01*
X019474Y020258D01*
X018571Y019354D01*
X018577Y019371D01*
X018577Y020647D01*
X018541Y020735D01*
X018473Y020803D01*
X018385Y020839D01*
X016872Y020839D01*
X016784Y020803D01*
X016717Y020735D01*
X016680Y020647D01*
X016680Y020449D01*
X016494Y020449D01*
X016439Y020472D01*
X016257Y020472D01*
X016089Y020402D01*
X015960Y020273D01*
X015890Y020105D01*
X015890Y019922D01*
X015960Y019754D01*
X016089Y019625D01*
X016257Y019555D01*
X016439Y019555D01*
X016471Y019569D01*
X016680Y019569D01*
X016680Y019371D01*
X016717Y019282D01*
X016784Y019215D01*
X016872Y019178D01*
X018385Y019178D01*
X018401Y019185D01*
X018022Y018806D01*
X017978Y018788D01*
X017849Y018659D01*
X017780Y018490D01*
X017780Y018308D01*
X017849Y018140D01*
X017978Y018011D01*
X017994Y018005D01*
X016872Y018005D01*
X016784Y017968D01*
X016717Y017901D01*
X016680Y017812D01*
X016769Y017953D02*
X013926Y017953D01*
X014015Y018112D02*
X017877Y018112D01*
X017795Y018271D02*
X014032Y018271D01*
X014032Y018429D02*
X017780Y018429D01*
X017820Y018588D02*
X014032Y018588D01*
X014032Y018746D02*
X017937Y018746D01*
X018121Y018905D02*
X014032Y018905D01*
X014032Y019063D02*
X018279Y019063D01*
X018577Y019380D02*
X018597Y019380D01*
X018577Y019539D02*
X018755Y019539D01*
X018914Y019697D02*
X018577Y019697D01*
X018577Y019856D02*
X019072Y019856D01*
X019231Y020014D02*
X018577Y020014D01*
X018577Y020173D02*
X019389Y020173D01*
X019515Y020332D02*
X018577Y020332D01*
X018577Y020490D02*
X019515Y020490D01*
X019515Y020649D02*
X018577Y020649D01*
X018463Y020807D02*
X019629Y020807D01*
X021297Y020807D02*
X023192Y020807D01*
X023192Y020649D02*
X021411Y020649D01*
X021412Y020490D02*
X023192Y020490D01*
X023192Y020173D02*
X021412Y020173D01*
X021412Y020014D02*
X023192Y020014D01*
X023192Y019856D02*
X021412Y019856D01*
X021412Y019697D02*
X023276Y019697D01*
X023824Y019697D02*
X023984Y019697D01*
X023984Y019670D02*
X024459Y019670D01*
X024505Y019682D01*
X024546Y019706D01*
X024579Y019739D01*
X024603Y019780D01*
X024615Y019826D01*
X024615Y020272D01*
X023984Y020272D01*
X023984Y019670D01*
X023984Y019856D02*
X023824Y019856D01*
X023824Y020014D02*
X023984Y020014D01*
X023984Y020173D02*
X023824Y020173D01*
X023824Y020332D02*
X021412Y020332D01*
X021412Y019539D02*
X021564Y019539D01*
X021431Y019380D02*
X021412Y019380D01*
X022156Y019539D02*
X024926Y019539D01*
X025084Y019697D02*
X024531Y019697D01*
X024615Y019856D02*
X025243Y019856D01*
X025402Y020014D02*
X024615Y020014D01*
X024615Y020173D02*
X025402Y020173D01*
X025387Y020332D02*
X023984Y020332D01*
X024615Y020490D02*
X025387Y020490D01*
X025426Y020649D02*
X024615Y020649D01*
X024615Y020807D02*
X025494Y020807D01*
X025653Y020966D02*
X024578Y020966D01*
X023230Y020966D02*
X010143Y020966D01*
X009876Y020966D02*
X000643Y020966D01*
X000643Y020807D02*
X009643Y020807D01*
X009565Y020649D02*
X004574Y020649D01*
X004736Y020490D02*
X006079Y020490D01*
X006065Y020332D02*
X004798Y020332D01*
X004869Y020173D02*
X006065Y020173D01*
X006065Y020014D02*
X005930Y020014D01*
X005955Y019856D02*
X006065Y019856D01*
X006095Y019697D02*
X005955Y019697D01*
X005955Y019539D02*
X006099Y019539D01*
X006065Y019380D02*
X005955Y019380D01*
X005934Y019222D02*
X006065Y019222D01*
X006065Y019063D02*
X005899Y019063D01*
X005955Y018905D02*
X006065Y018905D01*
X006075Y018746D02*
X005955Y018746D01*
X005955Y018588D02*
X006145Y018588D01*
X006065Y018429D02*
X005955Y018429D01*
X005955Y018271D02*
X006065Y018271D01*
X006065Y018112D02*
X005850Y018112D01*
X005955Y017953D02*
X006065Y017953D01*
X006065Y017795D02*
X005955Y017795D01*
X005955Y017636D02*
X006147Y017636D01*
X005955Y017478D02*
X007032Y017478D01*
X007490Y017454D02*
X008460Y017454D01*
X008770Y017764D01*
X009020Y017764D02*
X009025Y017769D01*
X009025Y018596D01*
X008845Y018776D01*
X008204Y018776D01*
X008126Y018855D01*
X008789Y019187D02*
X009020Y019418D01*
X009020Y019882D01*
X008770Y019882D02*
X008577Y020075D01*
X008086Y020075D01*
X008404Y020490D02*
X009551Y020490D01*
X009270Y020398D02*
X009261Y020407D01*
X009270Y020398D02*
X009270Y019882D01*
X009520Y019882D02*
X009520Y019367D01*
X009419Y019266D01*
X009770Y019465D02*
X009891Y019344D01*
X009970Y019344D01*
X009970Y018557D01*
X009813Y018399D01*
X009891Y018399D01*
X010020Y018270D01*
X010020Y017764D01*
X009773Y017761D02*
X009773Y017336D01*
X009891Y017218D01*
X010364Y017218D01*
X010520Y017375D01*
X010520Y017764D01*
X010564Y017721D01*
X011086Y017721D01*
X011357Y017721D01*
X011624Y017454D01*
X012044Y017636D02*
X012364Y017636D01*
X012370Y017724D02*
X012453Y017724D01*
X012274Y017546D01*
X012207Y017385D01*
X012207Y017209D01*
X012207Y014162D01*
X012188Y014209D01*
X012120Y014277D01*
X012032Y014313D01*
X010992Y014313D01*
X010903Y014277D01*
X010836Y014209D01*
X010799Y014121D01*
X010799Y014087D01*
X010796Y014087D01*
X010796Y014236D01*
X010799Y014243D01*
X010799Y015600D01*
X010799Y015775D01*
X010732Y015937D01*
X010501Y016168D01*
X010377Y016292D01*
X010215Y016359D01*
X010060Y016359D01*
X010060Y016363D01*
X010023Y016451D01*
X009956Y016519D01*
X009867Y016555D01*
X009575Y016555D01*
X009487Y016519D01*
X009471Y016503D01*
X009456Y016519D01*
X009367Y016555D01*
X009075Y016555D01*
X008987Y016519D01*
X008971Y016503D01*
X008956Y016519D01*
X008867Y016555D01*
X008575Y016555D01*
X008487Y016519D01*
X008471Y016503D01*
X008456Y016519D01*
X008367Y016555D01*
X008170Y016555D01*
X008158Y016568D01*
X007996Y016635D01*
X007900Y016635D01*
X007856Y016653D01*
X007674Y016653D01*
X007506Y016583D01*
X007377Y016454D01*
X007307Y016286D01*
X007307Y016104D01*
X007377Y015935D01*
X007506Y015806D01*
X007674Y015737D01*
X007744Y015737D01*
X007883Y015598D01*
X007883Y015401D01*
X007888Y015388D01*
X007882Y015384D01*
X007849Y015351D01*
X007825Y015310D01*
X007813Y015264D01*
X007813Y014828D01*
X008897Y014828D01*
X008897Y014668D01*
X009057Y014668D01*
X009057Y014284D01*
X008987Y014255D01*
X008928Y014196D01*
X008897Y014214D01*
X008897Y014668D01*
X007813Y014668D01*
X007813Y014232D01*
X007825Y014187D01*
X007849Y014146D01*
X007882Y014112D01*
X007887Y014109D01*
X007883Y014099D01*
X007883Y013182D01*
X007703Y013182D01*
X007703Y012549D01*
X007548Y012549D01*
X007548Y013182D01*
X007287Y013182D01*
X007242Y013170D01*
X007200Y013147D01*
X007167Y013113D01*
X007143Y013072D01*
X007131Y013026D01*
X007131Y012549D01*
X007548Y012549D01*
X007548Y012393D01*
X007703Y012393D01*
X007703Y011760D01*
X007965Y011760D01*
X008010Y011772D01*
X008051Y011795D01*
X008085Y011829D01*
X008109Y011870D01*
X008121Y011916D01*
X008121Y012393D01*
X007704Y012393D01*
X007704Y012549D01*
X008121Y012549D01*
X008121Y012945D01*
X008173Y012945D01*
X008173Y011892D01*
X008210Y011804D01*
X008277Y011736D01*
X008366Y011700D01*
X008784Y011700D01*
X008784Y010885D01*
X006335Y010885D01*
X006330Y010887D01*
X006064Y010887D01*
X006059Y010885D01*
X005496Y010885D01*
X004089Y012292D01*
X004483Y012292D01*
X004600Y012341D01*
X004690Y012431D01*
X005156Y012897D01*
X005205Y013014D01*
X005205Y013122D01*
X005218Y013127D01*
X005285Y013195D01*
X005322Y013283D01*
X005322Y013812D01*
X005285Y013900D01*
X005251Y013935D01*
X005262Y013976D01*
X005262Y014198D01*
X004904Y014198D01*
X004904Y014235D01*
X005262Y014235D01*
X005262Y014386D01*
X005462Y014386D01*
X005462Y013253D01*
X005424Y013215D01*
X005380Y013197D01*
X005286Y013197D01*
X005380Y013197D02*
X005251Y013068D01*
X005181Y012900D01*
X005181Y012718D01*
X005251Y012549D01*
X005380Y012420D01*
X005548Y012351D01*
X005730Y012351D01*
X005899Y012420D01*
X006028Y012549D01*
X006046Y012593D01*
X006275Y012822D01*
X006342Y012983D01*
X006342Y013159D01*
X006342Y014192D01*
X006815Y014192D01*
X006904Y014229D01*
X006971Y014296D01*
X007008Y014385D01*
X007008Y014852D01*
X007034Y014917D01*
X007034Y015446D01*
X006998Y015534D01*
X006930Y015601D01*
X006842Y015638D01*
X006825Y015638D01*
X006825Y015865D01*
X006777Y015982D01*
X006687Y016072D01*
X006068Y016691D01*
X006018Y016741D01*
X008697Y016741D01*
X008726Y016712D01*
X008895Y016642D01*
X009077Y016642D01*
X009245Y016712D01*
X009374Y016841D01*
X009444Y017009D01*
X009444Y017106D01*
X009447Y017108D01*
X009499Y017161D01*
X009500Y017161D01*
X009499Y017161D02*
X009502Y017155D01*
X009620Y017037D01*
X009710Y016947D01*
X009828Y016898D01*
X010300Y016898D01*
X010427Y016898D01*
X010545Y016947D01*
X010702Y017103D01*
X010792Y017193D01*
X010829Y017284D01*
X011198Y017284D01*
X011235Y017195D01*
X011364Y017066D01*
X011532Y016996D01*
X011715Y016996D01*
X011883Y017066D01*
X012012Y017195D01*
X012082Y017363D01*
X012082Y017546D01*
X012032Y017664D01*
X012165Y017664D01*
X012254Y017701D01*
X012302Y017749D01*
X012324Y017737D01*
X012370Y017724D01*
X012246Y017478D02*
X012082Y017478D01*
X012063Y017319D02*
X012207Y017319D01*
X012207Y017161D02*
X011978Y017161D01*
X012207Y017002D02*
X011729Y017002D01*
X011518Y017002D02*
X010600Y017002D01*
X010759Y017161D02*
X011269Y017161D01*
X012207Y016844D02*
X009375Y016844D01*
X009441Y017002D02*
X009655Y017002D01*
X009265Y017380D02*
X009265Y017759D01*
X009270Y017764D01*
X009517Y017767D02*
X009520Y017764D01*
X009517Y017767D02*
X009517Y018222D01*
X009694Y018399D01*
X009813Y018399D01*
X010270Y018621D02*
X010443Y018793D01*
X010270Y018621D02*
X010270Y017764D01*
X009773Y017761D02*
X009770Y017764D01*
X009265Y017380D02*
X008986Y017100D01*
X008946Y017061D01*
X005562Y017061D01*
X005010Y017613D01*
X005168Y017002D02*
X000643Y017002D01*
X000643Y016844D02*
X002568Y016844D01*
X002556Y016841D02*
X002515Y016817D01*
X002482Y016784D01*
X002458Y016742D01*
X002446Y016697D01*
X002446Y016475D01*
X002804Y016475D01*
X002804Y016853D01*
X002602Y016853D01*
X002556Y016841D01*
X002446Y016685D02*
X000643Y016685D01*
X000643Y016527D02*
X002446Y016527D01*
X002446Y016368D02*
X000643Y016368D01*
X000643Y016209D02*
X002448Y016209D01*
X002466Y016051D02*
X000643Y016051D01*
X000643Y015892D02*
X002464Y015892D01*
X002464Y015734D02*
X000643Y015734D01*
X000643Y015575D02*
X002464Y015575D01*
X002464Y015417D02*
X000643Y015417D01*
X000643Y015258D02*
X002541Y015258D01*
X002513Y015100D02*
X000643Y015100D01*
X000643Y014941D02*
X002513Y014941D01*
X002513Y014783D02*
X000643Y014783D01*
X000643Y014624D02*
X003400Y014624D01*
X003400Y014691D02*
X003400Y015228D01*
X003460Y015228D01*
X003460Y015280D01*
X003461Y015279D01*
X003461Y015228D01*
X003508Y015228D01*
X003531Y015204D01*
X003560Y015192D01*
X003560Y014691D01*
X003400Y014691D01*
X003400Y014783D02*
X003560Y014783D01*
X003560Y014690D02*
X004385Y014690D01*
X004385Y014585D01*
X004408Y014530D01*
X003560Y014530D01*
X003560Y014690D01*
X003560Y014624D02*
X004385Y014624D01*
X004448Y014471D02*
X004489Y014430D01*
X004508Y014422D01*
X004508Y014235D01*
X004866Y014235D01*
X004866Y014198D01*
X004508Y014198D01*
X004508Y013976D01*
X004519Y013935D01*
X004485Y013900D01*
X004458Y013834D01*
X004458Y013837D01*
X004445Y013883D01*
X004422Y013924D01*
X004404Y013941D01*
X004412Y013949D01*
X004435Y013990D01*
X004508Y013990D01*
X004435Y013990D02*
X004448Y014035D01*
X004448Y014471D01*
X004448Y014465D02*
X004454Y014465D01*
X004448Y014307D02*
X004508Y014307D01*
X004508Y014148D02*
X004448Y014148D01*
X003560Y014148D02*
X003400Y014148D01*
X003400Y014307D02*
X003560Y014307D01*
X003560Y014465D02*
X003400Y014465D01*
X003400Y014941D02*
X003560Y014941D01*
X003560Y015100D02*
X003400Y015100D01*
X003460Y015258D02*
X003461Y015258D01*
X003461Y015713D02*
X003205Y015713D01*
X003204Y015713D02*
X003204Y015713D01*
X003178Y015713D01*
X002949Y015713D01*
X002949Y015713D01*
X003178Y015713D01*
X003204Y015713D01*
X002948Y015713D02*
X002922Y015713D01*
X002693Y015713D01*
X002693Y015713D01*
X002922Y015713D01*
X002948Y015713D01*
X002948Y015713D01*
X003717Y015713D02*
X003717Y016232D01*
X003492Y016456D01*
X002841Y016527D02*
X002804Y016527D01*
X002804Y016685D02*
X002841Y016685D01*
X002841Y016844D02*
X002804Y016844D01*
X003078Y016844D02*
X003127Y016844D01*
X003858Y016844D02*
X005327Y016844D01*
X005797Y016510D02*
X004301Y016510D01*
X003972Y016181D01*
X003972Y015713D01*
X004228Y015713D02*
X004442Y015499D01*
X004842Y015499D01*
X004363Y015578D02*
X004228Y015713D01*
X004518Y015911D02*
X004518Y016066D01*
X004481Y016154D01*
X004445Y016190D01*
X005664Y016190D01*
X006186Y015668D01*
X006186Y015568D01*
X006149Y015578D01*
X005947Y015578D01*
X005947Y015200D01*
X005910Y015200D01*
X005910Y015578D01*
X005751Y015578D01*
X005751Y015752D01*
X005739Y015798D01*
X005715Y015839D01*
X005681Y015873D01*
X005640Y015896D01*
X005595Y015908D01*
X005392Y015908D01*
X005392Y015531D01*
X005356Y015531D01*
X005356Y015908D01*
X005173Y015908D01*
X005106Y015936D01*
X004577Y015936D01*
X004518Y015911D01*
X004518Y016051D02*
X005803Y016051D01*
X005647Y015892D02*
X005961Y015892D01*
X006120Y015734D02*
X005751Y015734D01*
X005910Y015575D02*
X005947Y015575D01*
X005947Y015417D02*
X005910Y015417D01*
X005910Y015258D02*
X005947Y015258D01*
X006158Y015575D02*
X006186Y015575D01*
X006506Y015801D02*
X006506Y015273D01*
X006598Y015181D01*
X006598Y014676D01*
X006571Y014649D01*
X006975Y014307D02*
X007813Y014307D01*
X007813Y014465D02*
X007008Y014465D01*
X007008Y014624D02*
X007813Y014624D01*
X007813Y014941D02*
X007034Y014941D01*
X007034Y015100D02*
X007813Y015100D01*
X007813Y015258D02*
X007034Y015258D01*
X007034Y015417D02*
X007883Y015417D01*
X007883Y015575D02*
X006956Y015575D01*
X006825Y015734D02*
X007747Y015734D01*
X007420Y015892D02*
X006814Y015892D01*
X006708Y016051D02*
X007329Y016051D01*
X007307Y016209D02*
X006550Y016209D01*
X006391Y016368D02*
X007341Y016368D01*
X007449Y016527D02*
X006232Y016527D01*
X006074Y016685D02*
X008791Y016685D01*
X008936Y016527D02*
X009006Y016527D01*
X009181Y016685D02*
X012207Y016685D01*
X012207Y016527D02*
X009936Y016527D01*
X010058Y016368D02*
X012207Y016368D01*
X012207Y016209D02*
X010459Y016209D01*
X010618Y016051D02*
X012207Y016051D01*
X012095Y015950D02*
X012054Y015973D01*
X012008Y015986D01*
X011592Y015986D01*
X011592Y015413D01*
X012164Y015413D01*
X012164Y015829D01*
X012152Y015875D01*
X012128Y015916D01*
X012095Y015950D01*
X012142Y015892D02*
X012207Y015892D01*
X012207Y015734D02*
X012164Y015734D01*
X012164Y015575D02*
X012207Y015575D01*
X012207Y015417D02*
X012164Y015417D01*
X012164Y015253D02*
X011592Y015253D01*
X011592Y015413D01*
X011432Y015413D01*
X011432Y015986D01*
X011016Y015986D01*
X010970Y015973D01*
X010929Y015950D01*
X010895Y015916D01*
X010872Y015875D01*
X010859Y015829D01*
X010859Y015413D01*
X011432Y015413D01*
X011432Y015253D01*
X011592Y015253D01*
X011592Y014681D01*
X012008Y014681D01*
X012054Y014693D01*
X012095Y014717D01*
X012128Y014750D01*
X012152Y014791D01*
X012164Y014837D01*
X012164Y015253D01*
X012207Y015258D02*
X011592Y015258D01*
X011592Y015100D02*
X011432Y015100D01*
X011432Y015253D02*
X011432Y014681D01*
X011016Y014681D01*
X010970Y014693D01*
X010929Y014717D01*
X010895Y014750D01*
X010872Y014791D01*
X010859Y014837D01*
X010859Y015253D01*
X011432Y015253D01*
X011432Y015258D02*
X010799Y015258D01*
X010799Y015100D02*
X010859Y015100D01*
X010859Y014941D02*
X010799Y014941D01*
X010799Y014783D02*
X010877Y014783D01*
X010799Y014624D02*
X012207Y014624D01*
X012207Y014465D02*
X010799Y014465D01*
X010799Y014307D02*
X010976Y014307D01*
X010811Y014148D02*
X010796Y014148D01*
X010359Y013662D02*
X010443Y013578D01*
X010443Y013517D01*
X010049Y013517D02*
X009822Y013517D01*
X009721Y013618D01*
X009340Y013673D02*
X009104Y013673D01*
X009104Y013514D02*
X009340Y013514D01*
X009340Y013356D02*
X009104Y013356D01*
X009104Y013197D02*
X009340Y013197D01*
X009340Y013039D02*
X009104Y013039D01*
X009104Y012880D02*
X009340Y012880D01*
X009340Y012721D02*
X009104Y012721D01*
X009104Y012563D02*
X009340Y012563D01*
X009340Y012404D02*
X009104Y012404D01*
X009104Y012246D02*
X009340Y012246D01*
X009340Y012087D02*
X009104Y012087D01*
X009104Y011929D02*
X009340Y011929D01*
X009340Y011770D02*
X009104Y011770D01*
X009104Y011612D02*
X009340Y011612D01*
X009340Y011453D02*
X009104Y011453D01*
X009104Y011295D02*
X009340Y011295D01*
X009340Y011136D02*
X009104Y011136D01*
X009104Y010978D02*
X009340Y010978D01*
X009340Y010819D02*
X009104Y010819D01*
X009104Y010660D02*
X009340Y010660D01*
X009660Y010885D02*
X009660Y012216D01*
X009756Y012216D01*
X009764Y012219D01*
X009933Y012219D01*
X010021Y012256D01*
X010056Y012290D01*
X010098Y012279D01*
X010319Y012279D01*
X010319Y012637D01*
X010356Y012637D01*
X010356Y012279D01*
X010578Y012279D01*
X010624Y012291D01*
X010665Y012315D01*
X010698Y012349D01*
X010722Y012390D01*
X010734Y012435D01*
X010734Y012638D01*
X010356Y012638D01*
X010356Y012674D01*
X010734Y012674D01*
X010734Y012877D01*
X010722Y012922D01*
X010708Y012947D01*
X010881Y012947D01*
X010903Y012925D01*
X010942Y012909D01*
X010942Y012384D01*
X010940Y012384D01*
X010851Y012348D01*
X010784Y012280D01*
X010747Y012192D01*
X010747Y010915D01*
X010760Y010885D01*
X009660Y010885D01*
X009660Y010978D02*
X010747Y010978D01*
X010747Y011136D02*
X009660Y011136D01*
X009660Y011295D02*
X010747Y011295D01*
X010747Y011453D02*
X009660Y011453D01*
X009660Y011612D02*
X010747Y011612D01*
X010747Y011770D02*
X009660Y011770D01*
X009660Y011929D02*
X010747Y011929D01*
X010747Y012087D02*
X009660Y012087D01*
X009997Y012246D02*
X010770Y012246D01*
X010726Y012404D02*
X010942Y012404D01*
X010942Y012563D02*
X010734Y012563D01*
X010734Y012721D02*
X010942Y012721D01*
X010942Y012880D02*
X010733Y012880D01*
X010356Y012563D02*
X010319Y012563D01*
X010319Y012404D02*
X010356Y012404D01*
X008784Y011612D02*
X004769Y011612D01*
X004611Y011770D02*
X007247Y011770D01*
X007242Y011772D02*
X007287Y011760D01*
X007548Y011760D01*
X007548Y012393D01*
X007131Y012393D01*
X007131Y011916D01*
X007143Y011870D01*
X007167Y011829D01*
X007200Y011795D01*
X007242Y011772D01*
X007131Y011929D02*
X004452Y011929D01*
X004294Y012087D02*
X007131Y012087D01*
X007131Y012246D02*
X004135Y012246D01*
X003841Y012087D02*
X003238Y012087D01*
X003238Y011929D02*
X004000Y011929D01*
X004158Y011770D02*
X003253Y011770D01*
X003411Y011612D02*
X004317Y011612D01*
X004475Y011453D02*
X003570Y011453D01*
X003728Y011295D02*
X004634Y011295D01*
X004792Y011136D02*
X003887Y011136D01*
X004045Y010978D02*
X004951Y010978D01*
X005110Y010819D02*
X004204Y010819D01*
X004363Y010660D02*
X005268Y010660D01*
X005404Y010978D02*
X008784Y010978D01*
X008784Y011136D02*
X005245Y011136D01*
X005086Y011295D02*
X008784Y011295D01*
X008784Y011453D02*
X004928Y011453D01*
X004664Y012404D02*
X005419Y012404D01*
X005245Y012563D02*
X004822Y012563D01*
X004981Y012721D02*
X005181Y012721D01*
X005181Y012880D02*
X005140Y012880D01*
X005205Y013039D02*
X005239Y013039D01*
X005322Y013356D02*
X005462Y013356D01*
X005462Y013514D02*
X005322Y013514D01*
X005322Y013673D02*
X005462Y013673D01*
X005462Y013831D02*
X005314Y013831D01*
X005262Y013990D02*
X005462Y013990D01*
X005462Y014148D02*
X005262Y014148D01*
X005262Y014307D02*
X005462Y014307D01*
X006342Y014148D02*
X007847Y014148D01*
X007883Y013990D02*
X006342Y013990D01*
X006342Y013831D02*
X007883Y013831D01*
X007883Y013673D02*
X006342Y013673D01*
X006342Y013514D02*
X007883Y013514D01*
X007883Y013356D02*
X006342Y013356D01*
X006342Y013197D02*
X007883Y013197D01*
X007703Y013039D02*
X007548Y013039D01*
X007548Y012880D02*
X007703Y012880D01*
X007703Y012721D02*
X007548Y012721D01*
X007548Y012563D02*
X007703Y012563D01*
X007704Y012404D02*
X008173Y012404D01*
X008173Y012246D02*
X008121Y012246D01*
X008121Y012087D02*
X008173Y012087D01*
X008173Y011929D02*
X008121Y011929D01*
X008005Y011770D02*
X008243Y011770D01*
X007703Y011770D02*
X007548Y011770D01*
X007548Y011929D02*
X007703Y011929D01*
X007703Y012087D02*
X007548Y012087D01*
X007548Y012246D02*
X007703Y012246D01*
X007548Y012404D02*
X005860Y012404D01*
X006033Y012563D02*
X007131Y012563D01*
X007131Y012721D02*
X006174Y012721D01*
X006299Y012880D02*
X007131Y012880D01*
X007134Y013039D02*
X006342Y013039D01*
X004885Y013078D02*
X004419Y012612D01*
X003986Y012612D01*
X003710Y012888D01*
X003710Y013147D01*
X003717Y013154D01*
X003717Y013508D01*
X003972Y013508D02*
X004228Y013508D01*
X004229Y013508D01*
X004229Y013023D01*
X004301Y013023D01*
X004347Y013035D01*
X004388Y013059D01*
X004422Y013092D01*
X004445Y013133D01*
X004458Y013179D01*
X004458Y013261D01*
X004485Y013195D01*
X004517Y013163D01*
X004286Y012932D01*
X004118Y012932D01*
X004030Y013020D01*
X004030Y013023D01*
X004045Y013023D01*
X004091Y013035D01*
X004100Y013041D01*
X004110Y013035D01*
X004155Y013023D01*
X004228Y013023D01*
X004228Y013508D01*
X004228Y013356D02*
X004229Y013356D01*
X004228Y013197D02*
X004229Y013197D01*
X004228Y013039D02*
X004229Y013039D01*
X004353Y013039D02*
X004393Y013039D01*
X004458Y013197D02*
X004484Y013197D01*
X004104Y013039D02*
X004097Y013039D01*
X003435Y013039D02*
X003238Y013039D01*
X003238Y013197D02*
X003435Y013197D01*
X003435Y013356D02*
X003238Y013356D01*
X003238Y013514D02*
X003435Y013514D01*
X003435Y013673D02*
X003238Y013673D01*
X002949Y013508D02*
X002949Y013268D01*
X002883Y013203D01*
X002883Y013317D01*
X002693Y013508D01*
X002513Y014148D02*
X000643Y014148D01*
X000643Y013990D02*
X001503Y013990D01*
X000661Y013831D02*
X000643Y013831D01*
X000643Y013673D02*
X000646Y013673D01*
X000643Y013514D02*
X000646Y013514D01*
X000643Y013356D02*
X000646Y013356D01*
X000643Y013197D02*
X000646Y013197D01*
X000643Y013039D02*
X000646Y013039D01*
X000643Y012880D02*
X000646Y012880D01*
X000643Y012721D02*
X000646Y012721D01*
X000643Y012563D02*
X000646Y012563D01*
X000643Y012404D02*
X000708Y012404D01*
X000643Y012246D02*
X000975Y012246D01*
X000975Y012087D02*
X000643Y012087D01*
X000643Y011929D02*
X001015Y011929D01*
X001108Y011770D02*
X000643Y011770D01*
X000643Y011612D02*
X001330Y011612D01*
X001760Y011612D02*
X002963Y011612D01*
X002918Y011770D02*
X001982Y011770D01*
X002075Y011929D02*
X002918Y011929D01*
X002918Y012087D02*
X002115Y012087D01*
X002115Y012246D02*
X002490Y012246D01*
X002365Y012404D02*
X002244Y012404D01*
X002307Y012563D02*
X002307Y012563D01*
X002307Y012721D02*
X002307Y012721D01*
X002307Y012880D02*
X002358Y012880D01*
X003238Y012880D02*
X003435Y012880D01*
X003435Y012721D02*
X003238Y012721D01*
X003238Y012563D02*
X003435Y012563D01*
X003524Y012404D02*
X003238Y012404D01*
X003238Y012246D02*
X003683Y012246D01*
X003117Y011453D02*
X000643Y011453D01*
X000643Y011295D02*
X003276Y011295D01*
X003434Y011136D02*
X000643Y011136D01*
X000643Y010978D02*
X003593Y010978D01*
X003751Y010819D02*
X000643Y010819D01*
X000643Y010660D02*
X003910Y010660D01*
X004069Y010502D02*
X000643Y010502D01*
X000643Y010343D02*
X004227Y010343D01*
X004386Y010185D02*
X000643Y010185D01*
X000643Y010026D02*
X004544Y010026D01*
X004703Y009868D02*
X000643Y009868D01*
X000643Y009709D02*
X004861Y009709D01*
X005068Y009551D02*
X000643Y009551D01*
X000643Y009392D02*
X005631Y009392D01*
X005491Y009234D02*
X000643Y009234D01*
X000643Y009075D02*
X005372Y009075D01*
X005370Y008916D02*
X000643Y008916D01*
X000643Y008758D02*
X005370Y008758D01*
X005370Y008599D02*
X000643Y008599D01*
X000643Y008441D02*
X005370Y008441D01*
X005370Y008282D02*
X000643Y008282D01*
X000643Y008124D02*
X005370Y008124D01*
X005370Y007965D02*
X000643Y007965D01*
X000643Y007807D02*
X005370Y007807D01*
X005465Y007648D02*
X000643Y007648D01*
X000643Y007490D02*
X006032Y007490D01*
X006023Y007331D02*
X000643Y007331D01*
X000643Y007172D02*
X006023Y007172D01*
X006023Y007014D02*
X000643Y007014D01*
X000643Y006855D02*
X006023Y006855D01*
X006023Y006697D02*
X000643Y006697D01*
X000643Y006538D02*
X006023Y006538D01*
X006023Y006380D02*
X000643Y006380D01*
X000643Y006221D02*
X006023Y006221D01*
X006100Y006063D02*
X000643Y006063D01*
X000643Y005904D02*
X007119Y005904D01*
X007129Y005908D02*
X006967Y005841D01*
X006849Y005723D01*
X006675Y005795D01*
X006431Y005795D01*
X006205Y005701D01*
X006032Y005528D01*
X005938Y005302D01*
X005938Y004308D01*
X006032Y004081D01*
X006205Y003909D01*
X006431Y003815D01*
X006675Y003815D01*
X006901Y003909D01*
X007074Y004081D01*
X007168Y004308D01*
X007168Y004798D01*
X007399Y005028D01*
X007608Y005028D01*
X007608Y004636D01*
X007168Y004636D01*
X007168Y004794D02*
X007608Y004794D01*
X007608Y004636D02*
X007594Y004622D01*
X007557Y004533D01*
X007557Y003847D01*
X007594Y003759D01*
X007661Y003692D01*
X007749Y003655D01*
X008436Y003655D01*
X008524Y003692D01*
X008591Y003759D01*
X008628Y003847D01*
X008628Y004533D01*
X008591Y004622D01*
X008524Y004689D01*
X008521Y004690D01*
X008521Y005044D01*
X008485Y005132D01*
X008483Y005134D01*
X008485Y005135D01*
X008521Y005224D01*
X008521Y005713D01*
X008485Y005801D01*
X008417Y005869D01*
X008329Y005905D01*
X008160Y005905D01*
X008152Y005908D01*
X007304Y005908D01*
X007129Y005908D01*
X006872Y005746D02*
X006794Y005746D01*
X006312Y005746D02*
X000643Y005746D01*
X000643Y005587D02*
X004675Y005587D01*
X004692Y005603D02*
X004630Y005541D01*
X004578Y005471D01*
X004539Y005393D01*
X004512Y005310D01*
X004498Y005224D01*
X004498Y004850D01*
X005008Y004850D01*
X005008Y005735D01*
X004923Y005721D01*
X004840Y005694D01*
X004762Y005655D01*
X004692Y005603D01*
X004557Y005429D02*
X000643Y005429D01*
X000643Y005270D02*
X001737Y005270D01*
X001703Y005259D02*
X001582Y005209D01*
X001467Y005148D01*
X001358Y005075D01*
X001257Y004992D01*
X001165Y004900D01*
X001082Y004799D01*
X001009Y004690D01*
X000947Y004575D01*
X000897Y004454D01*
X000859Y004329D01*
X000834Y004201D01*
X000823Y004086D01*
X002071Y004086D01*
X002071Y005334D01*
X001956Y005323D01*
X001828Y005297D01*
X001703Y005259D01*
X001412Y005111D02*
X000643Y005111D01*
X000643Y004953D02*
X001218Y004953D01*
X001079Y004794D02*
X000643Y004794D01*
X000643Y004636D02*
X000980Y004636D01*
X000907Y004477D02*
X000643Y004477D01*
X000643Y004319D02*
X000857Y004319D01*
X000830Y004160D02*
X000643Y004160D01*
X000643Y004002D02*
X002071Y004002D01*
X002071Y003926D02*
X000823Y003926D01*
X000834Y003810D01*
X000859Y003682D01*
X000897Y003557D01*
X000947Y003436D01*
X001009Y003321D01*
X001082Y003212D01*
X001165Y003111D01*
X001257Y003019D01*
X001358Y002936D01*
X001467Y002864D01*
X001582Y002802D01*
X001703Y002752D01*
X001828Y002714D01*
X001956Y002688D01*
X002071Y002677D01*
X002071Y003925D01*
X002231Y003925D01*
X002231Y002677D01*
X002347Y002688D01*
X002475Y002714D01*
X002600Y002752D01*
X002721Y002802D01*
X002836Y002864D01*
X002944Y002936D01*
X003045Y003019D01*
X003138Y003111D01*
X003221Y003212D01*
X003293Y003321D01*
X003355Y003436D01*
X003405Y003557D01*
X003443Y003682D01*
X003468Y003810D01*
X003480Y003926D01*
X002231Y003926D01*
X002231Y004086D01*
X002071Y004086D01*
X002071Y003926D01*
X002071Y003843D02*
X002231Y003843D01*
X002231Y003685D02*
X002071Y003685D01*
X002071Y003526D02*
X002231Y003526D01*
X002231Y003367D02*
X002071Y003367D01*
X002071Y003209D02*
X002231Y003209D01*
X002231Y003050D02*
X002071Y003050D01*
X002071Y002892D02*
X002231Y002892D01*
X002231Y002733D02*
X002071Y002733D01*
X001764Y002733D02*
X000643Y002733D01*
X000643Y002575D02*
X007617Y002575D01*
X007617Y002733D02*
X002538Y002733D01*
X002878Y002892D02*
X007617Y002892D01*
X007617Y003050D02*
X003077Y003050D01*
X003218Y003209D02*
X007648Y003209D01*
X008025Y003209D02*
X008160Y003209D01*
X008160Y003288D02*
X008160Y002880D01*
X008568Y002880D01*
X008568Y003131D01*
X008555Y003177D01*
X008532Y003218D01*
X008498Y003252D01*
X008457Y003275D01*
X008411Y003288D01*
X008160Y003288D01*
X008160Y003050D02*
X008025Y003050D01*
X008025Y002892D02*
X008160Y002892D01*
X008568Y002892D02*
X012281Y002892D01*
X012281Y002848D02*
X012688Y002848D01*
X012688Y003256D01*
X012437Y003256D01*
X012391Y003243D01*
X012350Y003220D01*
X012317Y003186D01*
X012293Y003145D01*
X012281Y003099D01*
X012281Y002848D01*
X012281Y003050D02*
X008568Y003050D01*
X008537Y003209D02*
X012339Y003209D01*
X012688Y003209D02*
X012824Y003209D01*
X012824Y003050D02*
X012688Y003050D01*
X012688Y002892D02*
X012824Y002892D01*
X012824Y002733D02*
X017386Y002733D01*
X017522Y002733D02*
X026776Y002733D01*
X026912Y002733D02*
X029216Y002733D01*
X029206Y002736D02*
X029332Y002698D01*
X029460Y002673D01*
X029575Y002661D01*
X029575Y003910D01*
X028327Y003910D01*
X028338Y003794D01*
X028363Y003666D01*
X028401Y003541D01*
X028451Y003421D01*
X028513Y003305D01*
X028586Y003197D01*
X028668Y003096D01*
X028761Y003003D01*
X028862Y002920D01*
X028971Y002848D01*
X029086Y002786D01*
X029206Y002736D01*
X028905Y002892D02*
X027319Y002892D01*
X027319Y003050D02*
X028714Y003050D01*
X028577Y003209D02*
X027255Y003209D01*
X026911Y003209D02*
X026776Y003209D01*
X026776Y003050D02*
X026911Y003050D01*
X026911Y002892D02*
X026776Y002892D01*
X026368Y002892D02*
X017930Y002892D01*
X017930Y002859D02*
X017930Y003110D01*
X017917Y003156D01*
X017894Y003197D01*
X017860Y003230D01*
X017819Y003254D01*
X017773Y003266D01*
X017522Y003266D01*
X017522Y002859D01*
X017930Y002859D01*
X017930Y003050D02*
X026368Y003050D01*
X026433Y003209D02*
X017882Y003209D01*
X017522Y003209D02*
X017387Y003209D01*
X017387Y003050D02*
X017522Y003050D01*
X017522Y002892D02*
X017387Y002892D01*
X016979Y002892D02*
X013231Y002892D01*
X013231Y003050D02*
X016979Y003050D01*
X017027Y003209D02*
X013173Y003209D01*
X013212Y003685D02*
X017009Y003685D01*
X016919Y003843D02*
X016116Y003843D01*
X016367Y004002D02*
X016919Y004002D01*
X016919Y004160D02*
X016479Y004160D01*
X016541Y004319D02*
X016919Y004319D01*
X016919Y004477D02*
X016541Y004477D01*
X016541Y004636D02*
X016940Y004636D01*
X016940Y004794D02*
X016541Y004794D01*
X016639Y004953D02*
X016940Y004953D01*
X017819Y005111D02*
X018621Y005111D01*
X018621Y004953D02*
X017853Y004953D01*
X017853Y004794D02*
X018621Y004794D01*
X018630Y004636D02*
X017918Y004636D01*
X017990Y004477D02*
X018676Y004477D01*
X018676Y004319D02*
X017990Y004319D01*
X017990Y004160D02*
X018732Y004160D01*
X018837Y004002D02*
X017990Y004002D01*
X017990Y003843D02*
X019072Y003843D01*
X019509Y003843D02*
X020572Y003843D01*
X020337Y004002D02*
X019744Y004002D01*
X019849Y004160D02*
X020232Y004160D01*
X020176Y004319D02*
X019906Y004319D01*
X019906Y004477D02*
X020176Y004477D01*
X020176Y004636D02*
X019951Y004636D01*
X019961Y004794D02*
X020176Y004794D01*
X020176Y004953D02*
X019961Y004953D01*
X019961Y005111D02*
X020176Y005111D01*
X020176Y005270D02*
X019961Y005270D01*
X019961Y005429D02*
X020233Y005429D01*
X020340Y005587D02*
X019961Y005587D01*
X019961Y005746D02*
X020578Y005746D01*
X020739Y005904D02*
X019961Y005904D01*
X019961Y006063D02*
X020739Y006063D01*
X020739Y006221D02*
X019921Y006221D01*
X019850Y006380D02*
X020739Y006380D01*
X020739Y006538D02*
X020447Y006538D01*
X020606Y006697D02*
X020739Y006697D01*
X020203Y006697D02*
X020203Y006697D01*
X020203Y006855D02*
X020203Y006855D01*
X020203Y007014D02*
X020203Y007014D01*
X020203Y007079D02*
X019648Y007079D01*
X019648Y006855D02*
X019374Y006855D01*
X019533Y006697D02*
X019800Y006697D01*
X019691Y006538D02*
X019959Y006538D01*
X020203Y006538D02*
X020203Y006538D01*
X020203Y007079D02*
X020203Y007079D01*
X020203Y007634D01*
X020433Y007634D01*
X020739Y007328D01*
X020739Y008712D01*
X020739Y008939D01*
X020739Y010599D01*
X020804Y010756D01*
X020349Y010756D01*
X020291Y010697D01*
X020291Y009036D01*
X020236Y008904D01*
X020135Y008803D01*
X019852Y008520D01*
X019719Y008465D01*
X019576Y008465D01*
X019112Y008465D01*
X019107Y008467D01*
X018925Y008467D01*
X018794Y008521D01*
X018693Y008622D01*
X018638Y008754D01*
X018638Y008896D01*
X018693Y009028D01*
X018740Y009075D01*
X018647Y008916D02*
X018585Y008916D01*
X018595Y008758D02*
X018638Y008758D01*
X018595Y008599D02*
X018716Y008599D01*
X018595Y008441D02*
X020739Y008441D01*
X020739Y008599D02*
X019931Y008599D01*
X020090Y008758D02*
X020739Y008758D01*
X020739Y008916D02*
X020241Y008916D01*
X020291Y009075D02*
X020739Y009075D01*
X020739Y009234D02*
X020291Y009234D01*
X020291Y009392D02*
X020739Y009392D01*
X020739Y009551D02*
X020291Y009551D01*
X020291Y009709D02*
X020739Y009709D01*
X020739Y009868D02*
X020291Y009868D01*
X020291Y010026D02*
X020739Y010026D01*
X020739Y010185D02*
X020291Y010185D01*
X020291Y010343D02*
X020739Y010343D01*
X020739Y010502D02*
X020291Y010502D01*
X020291Y010660D02*
X020764Y010660D01*
X021879Y009868D02*
X024127Y009868D01*
X024127Y010026D02*
X022639Y010026D01*
X022798Y010185D02*
X024222Y010185D01*
X024231Y010194D02*
X024164Y010126D01*
X024127Y010038D01*
X024127Y008998D01*
X024141Y008966D01*
X024070Y008895D01*
X024000Y008727D01*
X024000Y008544D01*
X024070Y008376D01*
X024199Y008247D01*
X024223Y008237D01*
X023576Y008237D01*
X023488Y008201D01*
X023421Y008133D01*
X023384Y008045D01*
X023384Y006769D01*
X023421Y006680D01*
X023488Y006613D01*
X023576Y006576D01*
X024853Y006576D01*
X024941Y006613D01*
X025009Y006680D01*
X025045Y006769D01*
X025045Y007369D01*
X025764Y008087D01*
X025746Y008045D01*
X025746Y006769D01*
X025783Y006680D01*
X025850Y006613D01*
X025938Y006576D01*
X026785Y006576D01*
X027436Y005926D01*
X027597Y005859D01*
X027773Y005859D01*
X027886Y005859D01*
X027925Y005842D01*
X028415Y005842D01*
X028503Y005879D01*
X028505Y005880D01*
X028507Y005879D01*
X028595Y005842D01*
X028921Y005842D01*
X028931Y005817D01*
X028998Y005750D01*
X029086Y005713D01*
X029773Y005713D01*
X029861Y005750D01*
X029928Y005817D01*
X029965Y005906D01*
X029965Y006592D01*
X029928Y006680D01*
X029861Y006747D01*
X029773Y006784D01*
X029086Y006784D01*
X029017Y006755D01*
X028595Y006755D01*
X028507Y006719D01*
X028505Y006717D01*
X028503Y006719D01*
X028415Y006755D01*
X027925Y006755D01*
X027886Y006739D01*
X027867Y006739D01*
X027407Y007199D01*
X027407Y008045D01*
X027371Y008133D01*
X027346Y008158D01*
X027563Y008374D01*
X027660Y008374D01*
X027828Y008444D01*
X027957Y008573D01*
X028027Y008741D01*
X028027Y008924D01*
X027994Y009003D01*
X028075Y009085D01*
X028145Y009253D01*
X028145Y009435D01*
X028101Y009541D01*
X028408Y009233D01*
X028446Y009143D01*
X028619Y008970D01*
X028709Y008933D01*
X028718Y008924D01*
X028964Y008821D01*
X029231Y008821D01*
X029475Y008821D01*
X029608Y008876D01*
X029839Y008876D01*
X030065Y008970D01*
X030238Y009143D01*
X030332Y009369D01*
X030332Y009614D01*
X030238Y009840D01*
X030065Y010013D01*
X029839Y010106D01*
X029608Y010106D01*
X029475Y010161D01*
X029375Y010161D01*
X028061Y011475D01*
X027941Y011525D01*
X027939Y011527D01*
X027936Y011527D01*
X027815Y011577D01*
X027549Y011577D01*
X027428Y011527D01*
X027425Y011527D01*
X027423Y011525D01*
X027302Y011475D01*
X027114Y011287D01*
X027064Y011166D01*
X027062Y011164D01*
X027062Y011161D01*
X027012Y011041D01*
X027012Y010774D01*
X027062Y010653D01*
X027062Y010650D01*
X027064Y010648D01*
X027114Y010528D01*
X027883Y009759D01*
X027778Y009802D01*
X027738Y009802D01*
X027717Y009823D01*
X027585Y009878D01*
X027441Y009878D01*
X027284Y009878D01*
X027284Y010038D01*
X027248Y010126D01*
X027180Y010194D01*
X027092Y010230D01*
X026052Y010230D01*
X025964Y010194D01*
X025896Y010126D01*
X025860Y010038D01*
X025860Y009428D01*
X025552Y009120D01*
X025552Y010038D01*
X025516Y010126D01*
X025448Y010194D01*
X025360Y010230D01*
X024320Y010230D01*
X024231Y010194D01*
X024127Y009709D02*
X021879Y009709D01*
X021879Y009551D02*
X024127Y009551D01*
X024127Y009392D02*
X021879Y009392D01*
X021879Y009234D02*
X024127Y009234D01*
X024127Y009075D02*
X021879Y009075D01*
X021879Y008916D02*
X024091Y008916D01*
X024013Y008758D02*
X021879Y008758D01*
X021879Y008599D02*
X024000Y008599D01*
X024043Y008441D02*
X021879Y008441D01*
X021879Y008282D02*
X024164Y008282D01*
X024458Y008636D02*
X024840Y009017D01*
X024840Y009518D01*
X025552Y009551D02*
X025860Y009551D01*
X025860Y009709D02*
X025552Y009709D01*
X025552Y009868D02*
X025860Y009868D01*
X025860Y010026D02*
X025552Y010026D01*
X025457Y010185D02*
X025955Y010185D01*
X025824Y009392D02*
X025552Y009392D01*
X025552Y009234D02*
X025666Y009234D01*
X027189Y010185D02*
X027457Y010185D01*
X027615Y010026D02*
X027284Y010026D01*
X027609Y009868D02*
X027774Y009868D01*
X028145Y009392D02*
X028250Y009392D01*
X028137Y009234D02*
X028408Y009234D01*
X028514Y009075D02*
X028065Y009075D01*
X028027Y008916D02*
X028735Y008916D01*
X028837Y008533D02*
X028754Y008506D01*
X028676Y008466D01*
X028606Y008415D01*
X028544Y008353D01*
X028492Y008282D01*
X027471Y008282D01*
X027375Y008124D02*
X028427Y008124D01*
X028426Y008121D02*
X028453Y008205D01*
X028492Y008282D01*
X028426Y008121D02*
X028412Y008036D01*
X029297Y008036D01*
X029297Y007946D01*
X029387Y007946D01*
X029387Y007436D01*
X029761Y007436D01*
X029847Y007450D01*
X029930Y007477D01*
X030008Y007517D01*
X030079Y007568D01*
X030140Y007630D01*
X030192Y007701D01*
X030231Y007778D01*
X030258Y007861D01*
X030272Y007946D01*
X029387Y007946D01*
X029387Y008036D01*
X030272Y008036D01*
X030258Y008121D01*
X030231Y008205D01*
X030192Y008282D01*
X031163Y008282D01*
X031163Y008124D02*
X030258Y008124D01*
X030192Y008282D02*
X030140Y008353D01*
X030079Y008415D01*
X030008Y008466D01*
X029930Y008506D01*
X029847Y008533D01*
X029761Y008546D01*
X029387Y008546D01*
X029387Y008037D01*
X029297Y008037D01*
X029297Y008546D01*
X028923Y008546D01*
X028837Y008533D01*
X028641Y008441D02*
X027820Y008441D01*
X027968Y008599D02*
X031163Y008599D01*
X031163Y008441D02*
X030043Y008441D01*
X029387Y008441D02*
X029297Y008441D01*
X029297Y008282D02*
X029387Y008282D01*
X029387Y008124D02*
X029297Y008124D01*
X029297Y007965D02*
X027407Y007965D01*
X027407Y007807D02*
X028444Y007807D01*
X028453Y007778D02*
X028492Y007701D01*
X028544Y007630D01*
X028606Y007568D01*
X028676Y007517D01*
X028754Y007477D01*
X028837Y007450D01*
X028923Y007436D01*
X029297Y007436D01*
X029297Y007946D01*
X028412Y007946D01*
X028426Y007861D01*
X028453Y007778D01*
X028531Y007648D02*
X027407Y007648D01*
X027407Y007490D02*
X028730Y007490D01*
X029297Y007490D02*
X029387Y007490D01*
X029387Y007648D02*
X029297Y007648D01*
X029297Y007807D02*
X029387Y007807D01*
X029387Y007965D02*
X031163Y007965D01*
X031163Y007807D02*
X030241Y007807D01*
X030154Y007648D02*
X031163Y007648D01*
X031163Y007490D02*
X029954Y007490D01*
X029911Y006697D02*
X030417Y006697D01*
X030402Y006688D02*
X030368Y006654D01*
X030344Y006613D01*
X030332Y006568D01*
X030332Y006316D01*
X030740Y006316D01*
X030740Y006724D01*
X030488Y006724D01*
X030443Y006712D01*
X030402Y006688D01*
X030332Y006538D02*
X029965Y006538D01*
X029965Y006380D02*
X030332Y006380D01*
X030332Y006181D02*
X030332Y005930D01*
X030344Y005884D01*
X030368Y005843D01*
X030402Y005809D01*
X030443Y005786D01*
X030488Y005773D01*
X030740Y005773D01*
X030740Y006181D01*
X030332Y006181D01*
X030332Y006063D02*
X029965Y006063D01*
X029965Y006221D02*
X030740Y006221D01*
X030740Y006063D02*
X030875Y006063D01*
X030875Y005904D02*
X030740Y005904D01*
X030339Y005904D02*
X029964Y005904D01*
X029850Y005746D02*
X031163Y005746D01*
X031163Y005587D02*
X027303Y005587D01*
X027303Y005678D02*
X027266Y005766D01*
X027199Y005834D01*
X027111Y005870D01*
X026942Y005870D01*
X026934Y005874D01*
X025872Y005874D01*
X025697Y005874D01*
X025535Y005807D01*
X025436Y005708D01*
X025263Y005780D01*
X025018Y005780D01*
X024792Y005686D01*
X024619Y005513D01*
X024526Y005287D01*
X024526Y004293D01*
X024619Y004067D01*
X024792Y003894D01*
X025018Y003800D01*
X025263Y003800D01*
X025489Y003894D01*
X025662Y004067D01*
X025756Y004293D01*
X025756Y004783D01*
X025966Y004994D01*
X026390Y004994D01*
X026390Y004629D01*
X026345Y004584D01*
X026308Y004496D01*
X026308Y003810D01*
X026345Y003722D01*
X026412Y003654D01*
X026501Y003618D01*
X027187Y003618D01*
X027275Y003654D01*
X027342Y003722D01*
X027379Y003810D01*
X027379Y004496D01*
X027342Y004584D01*
X027303Y004624D01*
X027303Y005009D01*
X027266Y005097D01*
X027265Y005099D01*
X027266Y005101D01*
X027303Y005189D01*
X027303Y005678D01*
X027275Y005746D02*
X029009Y005746D01*
X029206Y005244D02*
X029086Y005194D01*
X028971Y005132D01*
X028862Y005059D01*
X028761Y004977D01*
X028668Y004884D01*
X028586Y004783D01*
X028513Y004674D01*
X028451Y004559D01*
X028401Y004439D01*
X028363Y004313D01*
X028338Y004185D01*
X028327Y004070D01*
X029575Y004070D01*
X029575Y005318D01*
X029460Y005307D01*
X029332Y005282D01*
X029206Y005244D01*
X029293Y005270D02*
X027303Y005270D01*
X027303Y005429D02*
X031163Y005429D01*
X031163Y005270D02*
X030017Y005270D01*
X029979Y005282D02*
X029851Y005307D01*
X029735Y005318D01*
X029735Y004070D01*
X029575Y004070D01*
X029575Y003910D01*
X029735Y003910D01*
X029735Y004070D01*
X030984Y004070D01*
X030972Y004185D01*
X030947Y004313D01*
X030909Y004439D01*
X030859Y004559D01*
X030797Y004674D01*
X030725Y004783D01*
X030642Y004884D01*
X030549Y004977D01*
X030448Y005059D01*
X030340Y005132D01*
X030224Y005194D01*
X030104Y005244D01*
X029979Y005282D01*
X029735Y005270D02*
X029575Y005270D01*
X029575Y005111D02*
X029735Y005111D01*
X029735Y004953D02*
X029575Y004953D01*
X029575Y004794D02*
X029735Y004794D01*
X029735Y004636D02*
X029575Y004636D01*
X029575Y004477D02*
X029735Y004477D01*
X029735Y004319D02*
X029575Y004319D01*
X029575Y004160D02*
X029735Y004160D01*
X029735Y004002D02*
X031163Y004002D01*
X031163Y004160D02*
X030975Y004160D01*
X030945Y004319D02*
X031163Y004319D01*
X031163Y004477D02*
X030893Y004477D01*
X030818Y004636D02*
X031163Y004636D01*
X031163Y004794D02*
X030715Y004794D01*
X030573Y004953D02*
X031163Y004953D01*
X031163Y005111D02*
X030371Y005111D01*
X028940Y005111D02*
X027271Y005111D01*
X027303Y004953D02*
X028737Y004953D01*
X028595Y004794D02*
X027303Y004794D01*
X027303Y004636D02*
X028492Y004636D01*
X028417Y004477D02*
X027379Y004477D01*
X027379Y004319D02*
X028365Y004319D01*
X028335Y004160D02*
X027379Y004160D01*
X027379Y004002D02*
X029575Y004002D01*
X029575Y003843D02*
X029735Y003843D01*
X029735Y003910D02*
X029735Y002661D01*
X029851Y002673D01*
X029979Y002698D01*
X030104Y002736D01*
X030224Y002786D01*
X030340Y002848D01*
X030448Y002920D01*
X030549Y003003D01*
X030642Y003096D01*
X030725Y003197D01*
X030797Y003305D01*
X030859Y003421D01*
X030909Y003541D01*
X030947Y003666D01*
X030972Y003794D01*
X030984Y003910D01*
X029735Y003910D01*
X029735Y003685D02*
X029575Y003685D01*
X029575Y003526D02*
X029735Y003526D01*
X029735Y003367D02*
X029575Y003367D01*
X029575Y003209D02*
X029735Y003209D01*
X029735Y003050D02*
X029575Y003050D01*
X029575Y002892D02*
X029735Y002892D01*
X029735Y002733D02*
X029575Y002733D01*
X030094Y002733D02*
X031163Y002733D01*
X031163Y002575D02*
X027319Y002575D01*
X026368Y002575D02*
X017930Y002575D01*
X016979Y002575D02*
X013231Y002575D01*
X012688Y002733D02*
X008568Y002733D01*
X008568Y002575D02*
X012281Y002575D01*
X012300Y003685D02*
X008507Y003685D01*
X008626Y003843D02*
X011005Y003843D01*
X010770Y004002D02*
X010092Y004002D01*
X010085Y003995D02*
X010147Y004056D01*
X010198Y004127D01*
X010238Y004205D01*
X010265Y004288D01*
X010279Y004374D01*
X010279Y004748D01*
X009769Y004748D01*
X009769Y004838D01*
X010279Y004838D01*
X010279Y005212D01*
X010265Y005298D01*
X010238Y005381D01*
X010198Y005459D01*
X010147Y005530D01*
X010085Y005591D01*
X010014Y005643D01*
X009937Y005682D01*
X009854Y005709D01*
X009769Y005723D01*
X009769Y004838D01*
X009679Y004838D01*
X009679Y005723D01*
X009594Y005709D01*
X009511Y005682D01*
X009433Y005643D01*
X009362Y005591D01*
X009300Y005530D01*
X009249Y005459D01*
X009209Y005381D01*
X009182Y005298D01*
X009169Y005212D01*
X009169Y004838D01*
X009678Y004838D01*
X009678Y004748D01*
X009169Y004748D01*
X009169Y004374D01*
X009182Y004288D01*
X009209Y004205D01*
X009249Y004127D01*
X009300Y004056D01*
X009362Y003995D01*
X009433Y003943D01*
X009511Y003904D01*
X009594Y003877D01*
X009679Y003863D01*
X009679Y004748D01*
X009769Y004748D01*
X009769Y003863D01*
X009854Y003877D01*
X009937Y003904D01*
X010014Y003943D01*
X010085Y003995D01*
X010215Y004160D02*
X010665Y004160D01*
X010609Y004319D02*
X010270Y004319D01*
X010279Y004477D02*
X010609Y004477D01*
X010609Y004636D02*
X010279Y004636D01*
X010609Y004794D02*
X009769Y004794D01*
X009678Y004794D02*
X008521Y004794D01*
X008521Y004953D02*
X009169Y004953D01*
X009169Y005111D02*
X008493Y005111D01*
X008521Y005270D02*
X009178Y005270D01*
X009233Y005429D02*
X008521Y005429D01*
X008521Y005587D02*
X009358Y005587D01*
X009679Y005587D02*
X009769Y005587D01*
X009769Y005429D02*
X009679Y005429D01*
X009679Y005270D02*
X009769Y005270D01*
X009769Y005111D02*
X009679Y005111D01*
X009679Y004953D02*
X009769Y004953D01*
X009769Y004636D02*
X009679Y004636D01*
X009679Y004477D02*
X009769Y004477D01*
X009769Y004319D02*
X009679Y004319D01*
X009679Y004160D02*
X009769Y004160D01*
X009769Y004002D02*
X009679Y004002D01*
X009355Y004002D02*
X008628Y004002D01*
X008628Y004160D02*
X009232Y004160D01*
X009177Y004319D02*
X008628Y004319D01*
X008628Y004477D02*
X009169Y004477D01*
X009169Y004636D02*
X008577Y004636D01*
X007608Y004953D02*
X007323Y004953D01*
X007168Y004477D02*
X007557Y004477D01*
X007557Y004319D02*
X007168Y004319D01*
X007107Y004160D02*
X007557Y004160D01*
X007557Y004002D02*
X006995Y004002D01*
X006744Y003843D02*
X007559Y003843D01*
X007678Y003685D02*
X003443Y003685D01*
X003472Y003843D02*
X006363Y003843D01*
X006112Y004002D02*
X005408Y004002D01*
X005415Y004007D02*
X005476Y004068D01*
X005528Y004139D01*
X005567Y004217D01*
X005594Y004300D01*
X005608Y004386D01*
X005608Y004760D01*
X005098Y004760D01*
X005098Y003875D01*
X005183Y003889D01*
X005266Y003916D01*
X005344Y003955D01*
X005415Y004007D01*
X005539Y004160D02*
X005999Y004160D01*
X005938Y004319D02*
X005597Y004319D01*
X005608Y004477D02*
X005938Y004477D01*
X005938Y004636D02*
X005608Y004636D01*
X005608Y004850D02*
X005608Y005224D01*
X005594Y005310D01*
X005567Y005393D01*
X005528Y005471D01*
X005476Y005541D01*
X005415Y005603D01*
X005344Y005655D01*
X005266Y005694D01*
X005183Y005721D01*
X005098Y005735D01*
X005098Y004850D01*
X005008Y004850D01*
X005008Y004760D01*
X004498Y004760D01*
X004498Y004386D01*
X004512Y004300D01*
X004539Y004217D01*
X004578Y004139D01*
X004630Y004068D01*
X004692Y004007D01*
X004762Y003955D01*
X004840Y003916D01*
X004923Y003889D01*
X005008Y003875D01*
X005008Y004760D01*
X005098Y004760D01*
X005098Y004850D01*
X005608Y004850D01*
X005608Y004953D02*
X005938Y004953D01*
X005938Y005111D02*
X005608Y005111D01*
X005601Y005270D02*
X005938Y005270D01*
X005990Y005429D02*
X005549Y005429D01*
X005431Y005587D02*
X006091Y005587D01*
X005098Y005587D02*
X005008Y005587D01*
X005008Y005429D02*
X005098Y005429D01*
X005098Y005270D02*
X005008Y005270D01*
X005008Y005111D02*
X005098Y005111D01*
X005098Y004953D02*
X005008Y004953D01*
X005008Y004794D02*
X003224Y004794D01*
X003221Y004799D02*
X003138Y004900D01*
X003045Y004992D01*
X002944Y005075D01*
X002836Y005148D01*
X002721Y005209D01*
X002600Y005259D01*
X002475Y005297D01*
X002347Y005323D01*
X002231Y005334D01*
X002231Y004086D01*
X003480Y004086D01*
X003468Y004201D01*
X003443Y004329D01*
X003405Y004454D01*
X003355Y004575D01*
X003293Y004690D01*
X003221Y004799D01*
X003322Y004636D02*
X004498Y004636D01*
X004498Y004477D02*
X003395Y004477D01*
X003445Y004319D02*
X004509Y004319D01*
X004568Y004160D02*
X003472Y004160D01*
X003392Y003526D02*
X028408Y003526D01*
X028360Y003685D02*
X027305Y003685D01*
X027379Y003843D02*
X028333Y003843D01*
X028480Y003367D02*
X003318Y003367D01*
X002231Y004002D02*
X004698Y004002D01*
X005008Y004002D02*
X005098Y004002D01*
X005098Y004160D02*
X005008Y004160D01*
X005008Y004319D02*
X005098Y004319D01*
X005098Y004477D02*
X005008Y004477D01*
X005008Y004636D02*
X005098Y004636D01*
X005098Y004794D02*
X005938Y004794D01*
X004498Y004953D02*
X003085Y004953D01*
X002890Y005111D02*
X004498Y005111D01*
X004506Y005270D02*
X002565Y005270D01*
X002231Y005270D02*
X002071Y005270D01*
X002071Y005111D02*
X002231Y005111D01*
X002231Y004953D02*
X002071Y004953D01*
X002071Y004794D02*
X002231Y004794D01*
X002231Y004636D02*
X002071Y004636D01*
X002071Y004477D02*
X002231Y004477D01*
X002231Y004319D02*
X002071Y004319D01*
X002071Y004160D02*
X002231Y004160D01*
X000831Y003843D02*
X000643Y003843D01*
X000643Y003685D02*
X000859Y003685D01*
X000910Y003526D02*
X000643Y003526D01*
X000643Y003367D02*
X000984Y003367D01*
X001084Y003209D02*
X000643Y003209D01*
X000643Y003050D02*
X001226Y003050D01*
X001424Y002892D02*
X000643Y002892D01*
X007607Y006063D02*
X009690Y006063D01*
X009848Y005904D02*
X008331Y005904D01*
X008508Y005746D02*
X010007Y005746D01*
X010089Y005587D02*
X010165Y005587D01*
X010214Y005429D02*
X010324Y005429D01*
X010269Y005270D02*
X010482Y005270D01*
X010609Y005111D02*
X010279Y005111D01*
X010279Y004953D02*
X010609Y004953D01*
X011781Y005429D02*
X011810Y005429D01*
X011717Y005587D02*
X011969Y005587D01*
X012127Y005746D02*
X011619Y005746D01*
X011583Y005904D02*
X011460Y005904D01*
X011464Y006063D02*
X011302Y006063D01*
X011143Y006221D02*
X011462Y006221D01*
X011462Y006380D02*
X010985Y006380D01*
X010826Y006538D02*
X011462Y006538D01*
X011462Y006697D02*
X010668Y006697D01*
X010509Y006855D02*
X011462Y006855D01*
X011462Y007014D02*
X010351Y007014D01*
X010212Y007152D02*
X010212Y007152D01*
X010192Y007172D02*
X011462Y007172D01*
X011462Y007331D02*
X010007Y007331D01*
X008808Y007490D02*
X011557Y007490D01*
X013029Y007490D02*
X013140Y007490D01*
X013123Y007331D02*
X013140Y007331D01*
X013206Y007648D02*
X008808Y007648D01*
X008758Y007807D02*
X013335Y007807D01*
X014085Y007807D02*
X016528Y007807D01*
X016686Y007648D02*
X014214Y007648D01*
X014280Y007490D02*
X016845Y007490D01*
X017003Y007331D02*
X014280Y007331D01*
X014995Y007172D02*
X017162Y007172D01*
X017320Y007014D02*
X015154Y007014D01*
X015312Y006855D02*
X017479Y006855D01*
X017637Y006697D02*
X015471Y006697D01*
X015629Y006538D02*
X017796Y006538D01*
X017954Y006380D02*
X015788Y006380D01*
X015946Y006221D02*
X018113Y006221D01*
X017978Y006356D02*
X017978Y006356D01*
X018272Y006063D02*
X016105Y006063D01*
X016264Y005904D02*
X018430Y005904D01*
X018589Y005746D02*
X017833Y005746D01*
X017853Y005587D02*
X018621Y005587D01*
X018621Y005429D02*
X017853Y005429D01*
X017853Y005270D02*
X018621Y005270D01*
X018228Y006697D02*
X018090Y006697D01*
X017931Y006855D02*
X018387Y006855D01*
X018813Y007490D02*
X019829Y007490D01*
X020203Y007490D02*
X020203Y007490D01*
X020203Y007331D02*
X020203Y007331D01*
X020203Y007172D02*
X020203Y007172D01*
X020577Y007490D02*
X020739Y007490D01*
X020739Y007648D02*
X018654Y007648D01*
X018496Y007807D02*
X020739Y007807D01*
X020739Y007965D02*
X018337Y007965D01*
X018577Y008124D02*
X020739Y008124D01*
X020739Y008282D02*
X018595Y008282D01*
X017901Y009234D02*
X017746Y009234D01*
X017746Y009392D02*
X017901Y009392D01*
X017901Y009551D02*
X017746Y009551D01*
X017746Y009868D02*
X017901Y009868D01*
X017901Y010026D02*
X017746Y010026D01*
X017130Y010026D02*
X016276Y010026D01*
X016435Y009868D02*
X017112Y009868D01*
X016458Y009392D02*
X015395Y009392D01*
X015553Y009234D02*
X016616Y009234D01*
X016299Y009551D02*
X015236Y009551D01*
X015078Y009709D02*
X016141Y009709D01*
X015982Y009868D02*
X005155Y009868D01*
X004997Y010026D02*
X015824Y010026D01*
X015665Y010185D02*
X004838Y010185D01*
X004680Y010343D02*
X015506Y010343D01*
X015348Y010502D02*
X004521Y010502D01*
X006771Y009392D02*
X014942Y009392D01*
X015101Y009234D02*
X006910Y009234D01*
X007030Y009075D02*
X015259Y009075D01*
X015418Y008916D02*
X007031Y008916D01*
X007031Y008758D02*
X015576Y008758D01*
X015735Y008599D02*
X007031Y008599D01*
X007031Y008441D02*
X015893Y008441D01*
X016052Y008282D02*
X007031Y008282D01*
X007031Y008124D02*
X008079Y008124D01*
X007824Y007965D02*
X007031Y007965D01*
X007031Y007807D02*
X007695Y007807D01*
X007629Y007648D02*
X007520Y007648D01*
X008397Y008124D02*
X016210Y008124D01*
X016369Y007965D02*
X008651Y007965D01*
X009531Y006221D02*
X007684Y006221D01*
X011442Y003843D02*
X012221Y003843D01*
X012221Y004002D02*
X011677Y004002D01*
X011782Y004160D02*
X012221Y004160D01*
X012221Y004319D02*
X011879Y004319D01*
X012103Y004477D02*
X012221Y004477D01*
X012262Y004636D02*
X012272Y004636D01*
X013185Y004794D02*
X014380Y004794D01*
X014380Y004760D02*
X013871Y004760D01*
X013871Y004386D01*
X013884Y004300D01*
X013911Y004217D01*
X013951Y004139D01*
X014002Y004068D01*
X014064Y004007D01*
X014135Y003955D01*
X014213Y003916D01*
X014296Y003889D01*
X014381Y003875D01*
X014381Y004760D01*
X014471Y004760D01*
X014471Y004850D01*
X014981Y004850D01*
X014981Y005224D01*
X014967Y005310D01*
X014940Y005393D01*
X014900Y005471D01*
X014849Y005541D01*
X014787Y005603D01*
X014716Y005655D01*
X014639Y005694D01*
X014556Y005721D01*
X014471Y005735D01*
X014471Y004850D01*
X014381Y004850D01*
X014381Y005735D01*
X014296Y005721D01*
X014213Y005694D01*
X014135Y005655D01*
X014064Y005603D01*
X014002Y005541D01*
X013951Y005471D01*
X013911Y005393D01*
X013884Y005310D01*
X013871Y005224D01*
X013871Y004850D01*
X014380Y004850D01*
X014380Y004760D01*
X014471Y004760D02*
X014471Y003875D01*
X014556Y003889D01*
X014639Y003916D01*
X014716Y003955D01*
X014787Y004007D01*
X014849Y004068D01*
X014900Y004139D01*
X014940Y004217D01*
X014967Y004300D01*
X014981Y004386D01*
X014981Y004760D01*
X014471Y004760D01*
X014471Y004794D02*
X015311Y004794D01*
X015311Y004636D02*
X014981Y004636D01*
X014981Y004477D02*
X015311Y004477D01*
X015311Y004319D02*
X014970Y004319D01*
X014911Y004160D02*
X015372Y004160D01*
X015484Y004002D02*
X014780Y004002D01*
X014471Y004002D02*
X014381Y004002D01*
X014381Y004160D02*
X014471Y004160D01*
X014471Y004319D02*
X014381Y004319D01*
X014381Y004477D02*
X014471Y004477D01*
X014471Y004636D02*
X014381Y004636D01*
X014381Y004953D02*
X014471Y004953D01*
X014471Y005111D02*
X014381Y005111D01*
X014381Y005270D02*
X014471Y005270D01*
X014471Y005429D02*
X014381Y005429D01*
X014381Y005587D02*
X014471Y005587D01*
X014803Y005587D02*
X014968Y005587D01*
X014922Y005429D02*
X015127Y005429D01*
X014973Y005270D02*
X015285Y005270D01*
X015311Y005111D02*
X014981Y005111D01*
X014981Y004953D02*
X015311Y004953D01*
X014810Y005746D02*
X013169Y005746D01*
X013185Y005587D02*
X014048Y005587D01*
X013929Y005429D02*
X013185Y005429D01*
X013185Y005270D02*
X013878Y005270D01*
X013871Y005111D02*
X013154Y005111D01*
X013185Y004953D02*
X013871Y004953D01*
X013871Y004636D02*
X013208Y004636D01*
X013291Y004477D02*
X013871Y004477D01*
X013881Y004319D02*
X013291Y004319D01*
X013291Y004160D02*
X013940Y004160D01*
X014071Y004002D02*
X013291Y004002D01*
X013291Y003843D02*
X015735Y003843D01*
X017900Y003685D02*
X026382Y003685D01*
X026308Y003843D02*
X025367Y003843D01*
X025597Y004002D02*
X026308Y004002D01*
X026308Y004160D02*
X025701Y004160D01*
X025756Y004319D02*
X026308Y004319D01*
X026308Y004477D02*
X025756Y004477D01*
X025756Y004636D02*
X026390Y004636D01*
X026390Y004794D02*
X025767Y004794D01*
X025926Y004953D02*
X026390Y004953D01*
X025474Y005746D02*
X025346Y005746D01*
X024935Y005746D02*
X021879Y005746D01*
X021879Y005904D02*
X027487Y005904D01*
X027299Y006063D02*
X021879Y006063D01*
X021879Y006221D02*
X027140Y006221D01*
X026982Y006380D02*
X021879Y006380D01*
X021879Y006538D02*
X026823Y006538D01*
X027592Y007014D02*
X031163Y007014D01*
X031163Y007172D02*
X027433Y007172D01*
X027407Y007331D02*
X031163Y007331D01*
X031163Y006855D02*
X027750Y006855D01*
X028839Y006299D02*
X029380Y006299D01*
X029430Y006249D01*
X030740Y006380D02*
X030875Y006380D01*
X030875Y006538D02*
X030740Y006538D01*
X030740Y006697D02*
X030875Y006697D01*
X031163Y008758D02*
X028027Y008758D01*
X027569Y008832D02*
X026577Y007841D01*
X026577Y007407D01*
X025746Y007331D02*
X025045Y007331D01*
X025045Y007172D02*
X025746Y007172D01*
X025746Y007014D02*
X025045Y007014D01*
X025045Y006855D02*
X025746Y006855D01*
X025776Y006697D02*
X025015Y006697D01*
X025166Y007490D02*
X025746Y007490D01*
X025746Y007648D02*
X025324Y007648D01*
X025483Y007807D02*
X025746Y007807D01*
X025746Y007965D02*
X025642Y007965D01*
X023417Y008124D02*
X021879Y008124D01*
X021879Y007965D02*
X023384Y007965D01*
X023384Y007807D02*
X021879Y007807D01*
X021879Y007648D02*
X023384Y007648D01*
X023384Y007490D02*
X021879Y007490D01*
X021879Y007331D02*
X023384Y007331D01*
X023384Y007172D02*
X021879Y007172D01*
X021879Y007014D02*
X023384Y007014D01*
X023384Y006855D02*
X021879Y006855D01*
X021879Y006697D02*
X023414Y006697D01*
X023595Y005720D02*
X023511Y005706D01*
X023427Y005679D01*
X023350Y005640D01*
X023279Y005588D01*
X023217Y005526D01*
X023166Y005456D01*
X023126Y005378D01*
X023099Y005295D01*
X023086Y005209D01*
X023086Y004835D01*
X023595Y004835D01*
X023595Y004745D01*
X023086Y004745D01*
X023086Y004371D01*
X023099Y004285D01*
X023126Y004202D01*
X023166Y004124D01*
X023217Y004053D01*
X023279Y003992D01*
X023350Y003940D01*
X023427Y003901D01*
X023511Y003874D01*
X023595Y003860D01*
X023595Y004745D01*
X023686Y004745D01*
X023686Y004835D01*
X024196Y004835D01*
X024196Y005209D01*
X024182Y005295D01*
X024155Y005378D01*
X024115Y005456D01*
X024064Y005526D01*
X024002Y005588D01*
X023931Y005640D01*
X023854Y005679D01*
X023771Y005706D01*
X023686Y005720D01*
X023686Y004835D01*
X023595Y004835D01*
X023595Y005720D01*
X023595Y005587D02*
X023686Y005587D01*
X023686Y005429D02*
X023595Y005429D01*
X023595Y005270D02*
X023686Y005270D01*
X023686Y005111D02*
X023595Y005111D01*
X023595Y004953D02*
X023686Y004953D01*
X023686Y004794D02*
X024526Y004794D01*
X024526Y004636D02*
X024196Y004636D01*
X024196Y004745D02*
X024196Y004371D01*
X024182Y004285D01*
X024155Y004202D01*
X024115Y004124D01*
X024064Y004053D01*
X024002Y003992D01*
X023931Y003940D01*
X023854Y003901D01*
X023771Y003874D01*
X023686Y003860D01*
X023686Y004745D01*
X024196Y004745D01*
X024196Y004953D02*
X024526Y004953D01*
X024526Y005111D02*
X024196Y005111D01*
X024186Y005270D02*
X024526Y005270D01*
X024584Y005429D02*
X024129Y005429D01*
X024003Y005587D02*
X024693Y005587D01*
X023595Y004794D02*
X021598Y004794D01*
X021439Y004636D02*
X023086Y004636D01*
X023086Y004477D02*
X021406Y004477D01*
X021406Y004319D02*
X023094Y004319D01*
X023147Y004160D02*
X021349Y004160D01*
X021244Y004002D02*
X023269Y004002D01*
X023595Y004002D02*
X023686Y004002D01*
X023686Y004160D02*
X023595Y004160D01*
X023595Y004319D02*
X023686Y004319D01*
X023686Y004477D02*
X023595Y004477D01*
X023595Y004636D02*
X023686Y004636D01*
X024196Y004477D02*
X024526Y004477D01*
X024526Y004319D02*
X024187Y004319D01*
X024134Y004160D02*
X024580Y004160D01*
X024684Y004002D02*
X024012Y004002D01*
X024914Y003843D02*
X021009Y003843D01*
X021756Y004953D02*
X023086Y004953D01*
X023086Y005111D02*
X021843Y005111D01*
X021879Y005270D02*
X023095Y005270D01*
X023152Y005429D02*
X021879Y005429D01*
X021879Y005587D02*
X023278Y005587D01*
X020739Y007331D02*
X020736Y007331D01*
X018638Y009868D02*
X018535Y009868D01*
X018517Y010026D02*
X018676Y010026D01*
X018517Y010185D02*
X016117Y010185D01*
X015959Y010343D02*
X018359Y010343D01*
X018200Y010502D02*
X015800Y010502D01*
X015642Y010660D02*
X016266Y010660D01*
X016187Y010819D02*
X015605Y010819D01*
X015605Y010978D02*
X016187Y010978D01*
X016187Y011136D02*
X015605Y011136D01*
X015605Y011295D02*
X016187Y011295D01*
X016187Y011453D02*
X015605Y011453D01*
X015605Y011612D02*
X016187Y011612D01*
X016187Y011770D02*
X015605Y011770D01*
X015605Y011929D02*
X016187Y011929D01*
X016195Y012087D02*
X015605Y012087D01*
X015605Y012246D02*
X016345Y012246D01*
X015958Y012404D02*
X016802Y012404D01*
X016802Y012563D02*
X016678Y012563D01*
X016685Y012721D02*
X016802Y012721D01*
X016802Y012880D02*
X016685Y012880D01*
X016683Y013039D02*
X016802Y013039D01*
X016307Y012721D02*
X016270Y012721D01*
X016270Y012563D02*
X016307Y012563D01*
X015285Y012563D02*
X014970Y012563D01*
X014970Y012721D02*
X015285Y012721D01*
X015285Y012880D02*
X014970Y012880D01*
X014970Y013039D02*
X015285Y013039D01*
X015285Y013197D02*
X014970Y013197D01*
X014970Y013356D02*
X015285Y013356D01*
X015285Y013514D02*
X014970Y013514D01*
X014970Y013673D02*
X015285Y013673D01*
X015285Y013831D02*
X014970Y013831D01*
X014970Y013990D02*
X015285Y013990D01*
X015630Y013718D02*
X015665Y013754D01*
X015744Y013675D01*
X015876Y013675D01*
X016228Y013813D02*
X016309Y013732D01*
X016309Y013675D01*
X016668Y014465D02*
X016689Y014465D01*
X016668Y014624D02*
X020467Y014624D01*
X020309Y014465D02*
X018054Y014465D01*
X018084Y014307D02*
X019937Y014307D01*
X019751Y014148D02*
X018084Y014148D01*
X018084Y013990D02*
X018177Y013990D01*
X018456Y013990D02*
X019592Y013990D01*
X020242Y013277D02*
X019655Y012691D01*
X019731Y012898D02*
X019874Y012898D01*
X020005Y012952D01*
X020106Y013053D01*
X020106Y013054D01*
X020203Y013150D01*
X020172Y013076D01*
X020172Y012755D01*
X020159Y012742D01*
X020122Y012653D01*
X020122Y012164D01*
X020159Y012076D01*
X020207Y012028D01*
X020194Y012006D01*
X020182Y011960D01*
X020182Y011758D01*
X020560Y011758D01*
X020560Y011721D01*
X020182Y011721D01*
X020182Y011519D01*
X020194Y011476D01*
X020160Y011476D01*
X020160Y011575D01*
X020106Y011707D01*
X020005Y011808D01*
X019874Y011862D01*
X019731Y011862D01*
X019599Y011808D01*
X019552Y011760D01*
X019505Y011808D01*
X019374Y011862D01*
X019231Y011862D01*
X019099Y011808D01*
X019055Y011763D01*
X019049Y011763D01*
X019005Y011808D01*
X018874Y011862D01*
X018731Y011862D01*
X018705Y011851D01*
X018620Y011887D01*
X018393Y011887D01*
X018333Y011862D01*
X018231Y011862D01*
X018099Y011808D01*
X017999Y011707D01*
X017998Y011706D01*
X017927Y011634D01*
X017942Y011670D01*
X017942Y013160D01*
X017964Y013138D01*
X017999Y013053D01*
X018099Y012952D01*
X018231Y012898D01*
X018374Y012898D01*
X018505Y012952D01*
X018541Y012988D01*
X018564Y012988D01*
X018599Y012952D01*
X018731Y012898D01*
X018874Y012898D01*
X019005Y012952D01*
X019041Y012988D01*
X019064Y012988D01*
X019099Y012952D01*
X019231Y012898D01*
X019374Y012898D01*
X019505Y012952D01*
X019541Y012988D01*
X019564Y012988D01*
X019599Y012952D01*
X019731Y012898D01*
X020091Y013039D02*
X020172Y013039D01*
X020172Y012880D02*
X017942Y012880D01*
X017942Y012721D02*
X020150Y012721D01*
X020122Y012563D02*
X017942Y012563D01*
X017942Y012404D02*
X020122Y012404D01*
X020122Y012246D02*
X017942Y012246D01*
X017942Y012087D02*
X020154Y012087D01*
X020182Y011929D02*
X017942Y011929D01*
X017942Y011770D02*
X018062Y011770D01*
X017919Y010978D02*
X017848Y010978D01*
X017848Y010819D02*
X017965Y010819D01*
X018042Y010660D02*
X017769Y010660D01*
X019043Y011770D02*
X019062Y011770D01*
X019543Y011770D02*
X019562Y011770D01*
X020043Y011770D02*
X020182Y011770D01*
X020182Y011612D02*
X020145Y011612D01*
X021152Y012839D02*
X021152Y013076D01*
X021115Y013164D01*
X021092Y013188D01*
X021092Y013277D01*
X020662Y013277D01*
X020662Y013277D01*
X020242Y013277D01*
X020662Y013277D02*
X021092Y013277D01*
X021092Y013367D01*
X021115Y013390D01*
X021152Y013479D01*
X021152Y013696D01*
X021203Y013748D01*
X021203Y013479D01*
X021209Y013464D01*
X021203Y013450D01*
X021203Y013105D01*
X021209Y013090D01*
X021203Y013076D01*
X021203Y012839D01*
X021152Y012839D01*
X021152Y012880D02*
X021203Y012880D01*
X021203Y013039D02*
X021152Y013039D01*
X021203Y013197D02*
X021092Y013197D01*
X021092Y013356D02*
X021203Y013356D01*
X021203Y013514D02*
X021152Y013514D01*
X021152Y013673D02*
X021203Y013673D01*
X020626Y014783D02*
X016668Y014783D01*
X016668Y014941D02*
X021769Y014941D01*
X021927Y015100D02*
X018021Y015100D01*
X018024Y015109D02*
X018024Y015526D01*
X017452Y015526D01*
X017452Y015686D01*
X018024Y015686D01*
X018024Y016102D01*
X018012Y016148D01*
X017988Y016189D01*
X017955Y016222D01*
X017914Y016246D01*
X017868Y016258D01*
X017452Y016258D01*
X017452Y015686D01*
X017292Y015686D01*
X017292Y016258D01*
X016875Y016258D01*
X016830Y016246D01*
X016789Y016222D01*
X016755Y016189D01*
X016731Y016148D01*
X016719Y016102D01*
X016719Y015686D01*
X017291Y015686D01*
X017291Y015526D01*
X016719Y015526D01*
X016719Y015109D01*
X016731Y015064D01*
X016755Y015023D01*
X016789Y014989D01*
X016830Y014966D01*
X016875Y014953D01*
X017292Y014953D01*
X017292Y015526D01*
X017452Y015526D01*
X017452Y014953D01*
X017868Y014953D01*
X017914Y014966D01*
X017955Y014989D01*
X017988Y015023D01*
X018012Y015064D01*
X018024Y015109D01*
X018024Y015258D02*
X022086Y015258D01*
X022244Y015417D02*
X018024Y015417D01*
X018024Y015734D02*
X022547Y015734D01*
X022403Y015575D02*
X017452Y015575D01*
X017452Y015417D02*
X017292Y015417D01*
X017291Y015575D02*
X016668Y015575D01*
X016668Y015417D02*
X016719Y015417D01*
X016719Y015258D02*
X016668Y015258D01*
X016668Y015100D02*
X016722Y015100D01*
X017292Y015100D02*
X017452Y015100D01*
X017452Y015258D02*
X017292Y015258D01*
X017292Y015734D02*
X017452Y015734D01*
X017452Y015892D02*
X017292Y015892D01*
X017292Y016051D02*
X017452Y016051D01*
X017452Y016209D02*
X017292Y016209D01*
X016813Y016368D02*
X016285Y016368D01*
X016444Y016209D02*
X016776Y016209D01*
X016719Y016051D02*
X016602Y016051D01*
X016667Y015892D02*
X016719Y015892D01*
X016719Y015734D02*
X016668Y015734D01*
X015836Y016037D02*
X015685Y016037D01*
X015630Y015982D01*
X015942Y016527D02*
X016684Y016527D01*
X016680Y016685D02*
X014875Y016685D01*
X014879Y016844D02*
X016680Y016844D01*
X016680Y017002D02*
X014879Y017002D01*
X014879Y017161D02*
X016680Y017161D01*
X016680Y017319D02*
X014879Y017319D01*
X014439Y016902D02*
X014419Y016882D01*
X014419Y016628D01*
X014130Y016339D01*
X014130Y015982D01*
X013791Y016051D02*
X013720Y016051D01*
X013723Y016058D02*
X013791Y016126D01*
X013791Y015501D01*
X013797Y015488D01*
X013791Y015484D01*
X013758Y015451D01*
X013734Y015410D01*
X013722Y015364D01*
X013722Y014928D01*
X014806Y014928D01*
X014806Y015321D01*
X014864Y015346D01*
X014880Y015361D01*
X014896Y015346D01*
X014966Y015316D01*
X014966Y014928D01*
X015788Y014928D01*
X015788Y014768D01*
X014966Y014768D01*
X014966Y014928D01*
X014806Y014928D01*
X014806Y014768D01*
X014966Y014768D01*
X014966Y014384D01*
X014896Y014355D01*
X014878Y014338D01*
X014813Y014310D01*
X014806Y014314D01*
X014806Y014768D01*
X013722Y014768D01*
X013722Y014332D01*
X013734Y014287D01*
X013758Y014246D01*
X013791Y014212D01*
X013796Y014209D01*
X013791Y014199D01*
X013791Y013237D01*
X013828Y013149D01*
X013896Y013082D01*
X013984Y013045D01*
X014276Y013045D01*
X014364Y013082D01*
X014423Y013140D01*
X014462Y013117D01*
X014508Y013105D01*
X014630Y013105D01*
X014650Y013105D01*
X014650Y012952D01*
X014253Y012952D01*
X014165Y012915D01*
X014097Y012848D01*
X014061Y012760D01*
X014061Y011601D01*
X014097Y011513D01*
X014165Y011446D01*
X014253Y011409D01*
X014650Y011409D01*
X014650Y010885D01*
X013087Y010885D01*
X013087Y011506D01*
X013088Y011505D01*
X013129Y011481D01*
X013175Y011469D01*
X013436Y011469D01*
X013436Y012103D01*
X013591Y012103D01*
X013591Y012258D01*
X014008Y012258D01*
X014008Y012736D01*
X013996Y012781D01*
X013972Y012822D01*
X013939Y012856D01*
X013898Y012880D01*
X013852Y012892D01*
X013591Y012892D01*
X013591Y012258D01*
X013436Y012258D01*
X013436Y012892D01*
X013175Y012892D01*
X013129Y012880D01*
X013088Y012856D01*
X013087Y012855D01*
X013087Y015873D01*
X013225Y015815D01*
X013408Y015815D01*
X013576Y015885D01*
X013705Y016014D01*
X013723Y016058D01*
X013791Y015892D02*
X013583Y015892D01*
X013791Y015734D02*
X013087Y015734D01*
X013087Y015575D02*
X013791Y015575D01*
X013738Y015417D02*
X013087Y015417D01*
X013087Y015258D02*
X013722Y015258D01*
X013722Y015100D02*
X013087Y015100D01*
X013087Y014941D02*
X013722Y014941D01*
X013722Y014624D02*
X013087Y014624D01*
X013087Y014465D02*
X013722Y014465D01*
X013728Y014307D02*
X013087Y014307D01*
X013087Y014148D02*
X013791Y014148D01*
X013791Y013990D02*
X013087Y013990D01*
X013087Y013831D02*
X013791Y013831D01*
X013791Y013673D02*
X013087Y013673D01*
X013087Y013514D02*
X013791Y013514D01*
X013791Y013356D02*
X013087Y013356D01*
X013087Y013197D02*
X013808Y013197D01*
X013896Y012880D02*
X014129Y012880D01*
X014061Y012721D02*
X014008Y012721D01*
X014008Y012563D02*
X014061Y012563D01*
X014061Y012404D02*
X014008Y012404D01*
X014061Y012246D02*
X013591Y012246D01*
X013591Y012103D02*
X014008Y012103D01*
X014008Y011625D01*
X013996Y011579D01*
X013972Y011538D01*
X013939Y011505D01*
X013898Y011481D01*
X013852Y011469D01*
X013591Y011469D01*
X013591Y012103D01*
X013591Y012087D02*
X013436Y012087D01*
X013436Y011929D02*
X013591Y011929D01*
X013591Y011770D02*
X013436Y011770D01*
X013436Y011612D02*
X013591Y011612D01*
X013087Y011453D02*
X014157Y011453D01*
X014061Y011612D02*
X014005Y011612D01*
X014008Y011770D02*
X014061Y011770D01*
X014061Y011929D02*
X014008Y011929D01*
X014008Y012087D02*
X014061Y012087D01*
X013591Y012404D02*
X013436Y012404D01*
X013436Y012563D02*
X013591Y012563D01*
X013591Y012721D02*
X013436Y012721D01*
X013436Y012880D02*
X013591Y012880D01*
X013130Y012880D02*
X013087Y012880D01*
X013087Y013039D02*
X014650Y013039D01*
X014630Y013105D02*
X014630Y013718D01*
X014630Y013718D01*
X014630Y014592D01*
X014886Y014848D01*
X014966Y014783D02*
X015788Y014783D01*
X014966Y014941D02*
X014806Y014941D01*
X014806Y014783D02*
X013087Y014783D01*
X012207Y014783D02*
X012147Y014783D01*
X012164Y014941D02*
X012207Y014941D01*
X012207Y015100D02*
X012164Y015100D01*
X011592Y014941D02*
X011432Y014941D01*
X011432Y014783D02*
X011592Y014783D01*
X012047Y014307D02*
X012207Y014307D01*
X011592Y015417D02*
X011432Y015417D01*
X011432Y015575D02*
X011592Y015575D01*
X011592Y015734D02*
X011432Y015734D01*
X011432Y015892D02*
X011592Y015892D01*
X010882Y015892D02*
X010750Y015892D01*
X010799Y015734D02*
X010859Y015734D01*
X010859Y015575D02*
X010799Y015575D01*
X010799Y015417D02*
X010859Y015417D01*
X009919Y014828D02*
X009919Y014668D01*
X009057Y014668D01*
X009057Y014828D01*
X009919Y014828D01*
X009919Y014783D02*
X009057Y014783D01*
X009057Y014828D02*
X008897Y014828D01*
X008897Y015221D01*
X008956Y015246D01*
X008971Y015261D01*
X008987Y015246D01*
X009057Y015216D01*
X009057Y014828D01*
X009057Y014941D02*
X008897Y014941D01*
X008897Y014783D02*
X007008Y014783D01*
X006506Y015801D02*
X005797Y016510D01*
X005392Y015892D02*
X005356Y015892D01*
X005356Y015734D02*
X005392Y015734D01*
X005392Y015575D02*
X005356Y015575D01*
X004024Y016685D02*
X003929Y016685D01*
X004123Y017161D02*
X000643Y017161D01*
X000643Y017319D02*
X004065Y017319D01*
X003551Y017478D02*
X000643Y017478D01*
X000643Y017636D02*
X003443Y017636D01*
X003410Y017795D02*
X000643Y017795D01*
X000643Y017953D02*
X003432Y017953D01*
X003523Y018112D02*
X002333Y018112D01*
X002390Y018118D02*
X002518Y018143D01*
X002643Y018181D01*
X002764Y018231D01*
X002879Y018293D01*
X002988Y018365D01*
X003089Y018448D01*
X003181Y018541D01*
X003264Y018642D01*
X003337Y018750D01*
X003398Y018865D01*
X003448Y018986D01*
X003486Y019111D01*
X003512Y019239D01*
X003523Y019355D01*
X002275Y019355D01*
X002275Y019515D01*
X003523Y019515D01*
X003512Y019630D01*
X003486Y019758D01*
X003448Y019883D01*
X003398Y020004D01*
X003337Y020119D01*
X003264Y020228D01*
X003181Y020329D01*
X003089Y020421D01*
X002988Y020504D01*
X002879Y020577D01*
X002764Y020639D01*
X002643Y020689D01*
X002518Y020726D01*
X002390Y020752D01*
X002274Y020763D01*
X002274Y019515D01*
X002114Y019515D01*
X002114Y019355D01*
X000866Y019355D01*
X000877Y019239D01*
X000903Y019111D01*
X000941Y018986D01*
X000991Y018865D01*
X001052Y018750D01*
X001125Y018642D01*
X001208Y018541D01*
X001300Y018448D01*
X001401Y018365D01*
X001510Y018293D01*
X001625Y018231D01*
X001746Y018181D01*
X001871Y018143D01*
X001999Y018118D01*
X002114Y018106D01*
X002114Y019355D01*
X002274Y019355D01*
X002274Y018106D01*
X002390Y018118D01*
X002274Y018112D02*
X002114Y018112D01*
X002056Y018112D02*
X000643Y018112D01*
X000643Y018271D02*
X001551Y018271D01*
X001323Y018429D02*
X000643Y018429D01*
X000643Y018588D02*
X001169Y018588D01*
X001055Y018746D02*
X000643Y018746D01*
X000643Y018905D02*
X000974Y018905D01*
X000917Y019063D02*
X000643Y019063D01*
X000643Y019222D02*
X000881Y019222D01*
X000643Y019380D02*
X002114Y019380D01*
X002114Y019515D02*
X000866Y019515D01*
X000877Y019630D01*
X000903Y019758D01*
X000941Y019883D01*
X000991Y020004D01*
X001052Y020119D01*
X001125Y020228D01*
X001208Y020329D01*
X001300Y020421D01*
X001401Y020504D01*
X001510Y020577D01*
X001625Y020639D01*
X001746Y020689D01*
X001871Y020726D01*
X001999Y020752D01*
X002114Y020763D01*
X002114Y019515D01*
X002114Y019539D02*
X002274Y019539D01*
X002274Y019697D02*
X002114Y019697D01*
X002114Y019856D02*
X002274Y019856D01*
X002274Y020014D02*
X002114Y020014D01*
X002114Y020173D02*
X002274Y020173D01*
X002274Y020332D02*
X002114Y020332D01*
X002114Y020490D02*
X002274Y020490D01*
X002274Y020649D02*
X002114Y020649D01*
X002739Y020649D02*
X004106Y020649D01*
X003944Y020490D02*
X003005Y020490D01*
X003179Y020332D02*
X003882Y020332D01*
X003882Y020173D02*
X003301Y020173D01*
X003393Y020014D02*
X003942Y020014D01*
X004065Y019856D02*
X003457Y019856D01*
X003498Y019697D02*
X004065Y019697D01*
X004065Y019539D02*
X003521Y019539D01*
X003508Y019222D02*
X004085Y019222D01*
X004065Y019380D02*
X002275Y019380D01*
X002274Y019222D02*
X002114Y019222D01*
X002114Y019063D02*
X002274Y019063D01*
X002274Y018905D02*
X002114Y018905D01*
X002114Y018746D02*
X002274Y018746D01*
X002274Y018588D02*
X002114Y018588D01*
X002114Y018429D02*
X002274Y018429D01*
X002274Y018271D02*
X002114Y018271D01*
X002838Y018271D02*
X003877Y018271D01*
X004035Y018429D02*
X003065Y018429D01*
X003220Y018588D02*
X004065Y018588D01*
X004065Y018746D02*
X003334Y018746D01*
X003414Y018905D02*
X004065Y018905D01*
X004121Y019063D02*
X003472Y019063D01*
X004672Y018613D02*
X003868Y017809D01*
X004672Y018613D02*
X005010Y018613D01*
X004977Y019613D02*
X005010Y019613D01*
X004977Y019613D02*
X004340Y020250D01*
X001650Y020649D02*
X000643Y020649D01*
X000643Y020490D02*
X001384Y020490D01*
X001210Y020332D02*
X000643Y020332D01*
X000643Y020173D02*
X001088Y020173D01*
X000996Y020014D02*
X000643Y020014D01*
X000643Y019856D02*
X000932Y019856D01*
X000891Y019697D02*
X000643Y019697D01*
X000643Y019539D02*
X000868Y019539D01*
X008436Y016527D02*
X008506Y016527D01*
X009436Y016527D02*
X009506Y016527D01*
X008974Y015258D02*
X008968Y015258D01*
X008897Y015100D02*
X009057Y015100D01*
X009057Y014624D02*
X008897Y014624D01*
X008868Y014502D02*
X008710Y014344D01*
X008710Y013629D01*
X008721Y013618D01*
X008897Y014307D02*
X009057Y014307D01*
X009057Y014465D02*
X008897Y014465D01*
X008907Y014462D02*
X008868Y014502D01*
X008907Y014462D02*
X008986Y014462D01*
X008173Y012880D02*
X008121Y012880D01*
X008121Y012721D02*
X008173Y012721D01*
X008173Y012563D02*
X008121Y012563D01*
X004885Y013078D02*
X004885Y013547D01*
X002513Y014307D02*
X000643Y014307D01*
X000643Y014465D02*
X002513Y014465D01*
X009970Y019344D02*
X010108Y019344D01*
X010265Y019502D01*
X010265Y019878D01*
X010270Y019882D01*
X010270Y020235D01*
X010403Y020368D01*
X011957Y020368D01*
X012295Y020030D01*
X012295Y019918D01*
X012295Y019603D01*
X011889Y019197D01*
X011889Y019191D01*
X011860Y019162D01*
X011893Y019162D01*
X011860Y019162D02*
X011775Y019162D01*
X011775Y018658D01*
X011921Y018134D02*
X012444Y018658D01*
X012881Y018588D02*
X013152Y018588D01*
X013152Y018746D02*
X012881Y018746D01*
X012881Y018854D02*
X012886Y018856D01*
X012919Y018890D01*
X012943Y018931D01*
X012955Y018977D01*
X012955Y019179D01*
X012577Y019179D01*
X012577Y019216D01*
X012955Y019216D01*
X012955Y019418D01*
X012944Y019461D01*
X013089Y019461D01*
X013152Y019398D01*
X013152Y018424D01*
X012967Y018239D01*
X012967Y018361D01*
X012955Y018407D01*
X012931Y018448D01*
X012898Y018482D01*
X012881Y018491D01*
X012881Y018854D01*
X012928Y018905D02*
X013152Y018905D01*
X013152Y019063D02*
X012955Y019063D01*
X012962Y019029D02*
X013080Y019147D01*
X013152Y019222D02*
X012955Y019222D01*
X012955Y019380D02*
X013152Y019380D01*
X012962Y019029D02*
X012962Y018321D01*
X012763Y018121D01*
X012590Y018121D01*
X012609Y018112D02*
X012840Y018112D01*
X012831Y018103D02*
X012609Y018103D01*
X012609Y018139D01*
X012867Y018139D01*
X012831Y018103D01*
X012967Y018271D02*
X012999Y018271D01*
X012942Y018429D02*
X013152Y018429D01*
X013769Y017829D02*
X014498Y018557D01*
X014032Y019222D02*
X016777Y019222D01*
X016680Y019380D02*
X014032Y019380D01*
X014032Y019539D02*
X016680Y019539D01*
X016016Y019697D02*
X014020Y019697D01*
X013939Y019856D02*
X015917Y019856D01*
X015890Y020014D02*
X013780Y020014D01*
X013628Y020167D02*
X013628Y020167D01*
X013622Y020173D02*
X015918Y020173D01*
X016018Y020332D02*
X013406Y020332D01*
X012288Y020490D02*
X016680Y020490D01*
X016681Y020649D02*
X012116Y020649D01*
X011825Y020048D02*
X011472Y020048D01*
X011472Y019920D01*
X011094Y019920D01*
X011094Y019883D01*
X011472Y019883D01*
X011472Y019681D01*
X011459Y019635D01*
X011447Y019613D01*
X011495Y019565D01*
X011498Y019559D01*
X011537Y019598D01*
X011625Y019634D01*
X011866Y019634D01*
X011858Y019654D01*
X011858Y020015D01*
X011825Y020048D01*
X011858Y020014D02*
X011472Y020014D01*
X011472Y019856D02*
X011858Y019856D01*
X011858Y019697D02*
X011472Y019697D01*
X011075Y019232D02*
X010752Y019232D01*
X010521Y019462D01*
X010521Y019881D01*
X010520Y019882D01*
X010020Y019882D02*
X010020Y020515D01*
X010009Y020525D01*
X010375Y020807D02*
X016795Y020807D01*
X021407Y018112D02*
X023132Y018112D01*
X023132Y018271D02*
X021566Y018271D01*
X021724Y018429D02*
X023144Y018429D01*
X023310Y018588D02*
X021883Y018588D01*
X022041Y018746D02*
X024133Y018746D01*
X024292Y018905D02*
X022226Y018905D01*
X022304Y019063D02*
X024450Y019063D01*
X024609Y019222D02*
X022318Y019222D01*
X022276Y019380D02*
X024767Y019380D01*
X025870Y018588D02*
X028617Y018588D01*
X028649Y018548D02*
X028741Y018456D01*
X028842Y018373D01*
X028951Y018301D01*
X029066Y018239D01*
X029187Y018189D01*
X029312Y018151D01*
X029440Y018125D01*
X029555Y018114D01*
X029555Y019362D01*
X029715Y019362D01*
X029715Y018114D01*
X029831Y018125D01*
X029959Y018151D01*
X030084Y018189D01*
X030205Y018239D01*
X030320Y018301D01*
X030429Y018373D01*
X030530Y018456D01*
X030622Y018548D01*
X030705Y018649D01*
X030778Y018758D01*
X030839Y018873D01*
X030889Y018994D01*
X030927Y019119D01*
X030953Y019247D01*
X030964Y019363D01*
X029716Y019363D01*
X029716Y019523D01*
X030964Y019523D01*
X030953Y019638D01*
X030927Y019766D01*
X030889Y019891D01*
X030839Y020012D01*
X030778Y020127D01*
X030705Y020236D01*
X030622Y020337D01*
X030530Y020429D01*
X030429Y020512D01*
X030320Y020585D01*
X030205Y020646D01*
X030084Y020696D01*
X029959Y020734D01*
X029831Y020760D01*
X029715Y020771D01*
X029715Y019523D01*
X029555Y019523D01*
X029555Y019363D01*
X028307Y019363D01*
X028318Y019247D01*
X028344Y019119D01*
X028382Y018994D01*
X028432Y018873D01*
X028493Y018758D01*
X028566Y018649D01*
X028649Y018548D01*
X028774Y018429D02*
X025711Y018429D01*
X025552Y018271D02*
X029007Y018271D01*
X029555Y018271D02*
X029715Y018271D01*
X029715Y018429D02*
X029555Y018429D01*
X029555Y018588D02*
X029715Y018588D01*
X029715Y018746D02*
X029555Y018746D01*
X029555Y018905D02*
X029715Y018905D01*
X029715Y019063D02*
X029555Y019063D01*
X029555Y019222D02*
X029715Y019222D01*
X029716Y019380D02*
X031163Y019380D01*
X031163Y019222D02*
X030948Y019222D01*
X030910Y019063D02*
X031163Y019063D01*
X031163Y018905D02*
X030852Y018905D01*
X030770Y018746D02*
X031163Y018746D01*
X031163Y018588D02*
X030654Y018588D01*
X030497Y018429D02*
X031163Y018429D01*
X031163Y018271D02*
X030264Y018271D01*
X030253Y017486D02*
X030224Y017474D01*
X030195Y017486D01*
X030080Y017486D01*
X029973Y017442D01*
X029917Y017386D01*
X029861Y017442D01*
X029755Y017486D01*
X029639Y017486D01*
X029610Y017474D01*
X029581Y017486D01*
X029466Y017486D01*
X029359Y017442D01*
X029144Y017227D01*
X029100Y017120D01*
X029100Y017005D01*
X029100Y016872D01*
X029144Y016765D01*
X029152Y016758D01*
X029143Y016754D01*
X028990Y016601D01*
X028990Y016601D01*
X028908Y016519D01*
X028864Y016412D01*
X028864Y016297D01*
X028864Y016259D01*
X028864Y016144D01*
X028908Y016037D01*
X028916Y016029D01*
X028875Y016029D01*
X028769Y015985D01*
X028554Y015770D01*
X028510Y015664D01*
X028510Y015548D01*
X028510Y015415D01*
X028554Y015308D01*
X028635Y015227D01*
X028769Y015093D01*
X028875Y015049D01*
X028991Y015049D01*
X029097Y015093D01*
X029179Y015175D01*
X029212Y015254D01*
X029244Y015175D01*
X029326Y015093D01*
X029432Y015049D01*
X029548Y015049D01*
X029654Y015093D01*
X029710Y015149D01*
X029766Y015093D01*
X029873Y015049D01*
X029988Y015049D01*
X030095Y015093D01*
X030176Y015175D01*
X030209Y015254D01*
X030242Y015175D01*
X030323Y015093D01*
X030430Y015049D01*
X030545Y015049D01*
X030652Y015093D01*
X030785Y015227D01*
X030867Y015308D01*
X030911Y015415D01*
X030911Y015548D01*
X030911Y015664D01*
X030867Y015770D01*
X030678Y015959D01*
X030756Y016037D01*
X030800Y016144D01*
X030800Y016297D01*
X030800Y016412D01*
X030800Y016412D01*
X030756Y016519D01*
X030675Y016601D01*
X030675Y016601D01*
X030600Y016675D01*
X030609Y016683D01*
X030690Y016765D01*
X030734Y016872D01*
X030734Y017005D01*
X030734Y017120D01*
X030690Y017227D01*
X030475Y017442D01*
X030369Y017486D01*
X030253Y017486D01*
X030233Y017478D02*
X030215Y017478D01*
X030060Y017478D02*
X029775Y017478D01*
X029619Y017478D02*
X029601Y017478D01*
X029446Y017478D02*
X024760Y017478D01*
X024675Y017319D02*
X029237Y017319D01*
X029117Y017161D02*
X024586Y017161D01*
X025001Y017002D02*
X029100Y017002D01*
X029112Y016844D02*
X025034Y016844D01*
X025034Y016685D02*
X029074Y016685D01*
X028916Y016527D02*
X027939Y016527D01*
X028169Y016368D02*
X028864Y016368D01*
X028864Y016412D02*
X028864Y016412D01*
X028864Y016209D02*
X028285Y016209D01*
X028350Y016051D02*
X028902Y016051D01*
X028676Y015892D02*
X028357Y015892D01*
X028357Y015734D02*
X028539Y015734D01*
X028510Y015575D02*
X028357Y015575D01*
X028357Y015417D02*
X028510Y015417D01*
X028604Y015258D02*
X028357Y015258D01*
X028357Y015100D02*
X028762Y015100D01*
X029104Y015100D02*
X029319Y015100D01*
X029661Y015100D02*
X029760Y015100D01*
X030101Y015100D02*
X030317Y015100D01*
X030658Y015100D02*
X031163Y015100D01*
X031163Y015258D02*
X030817Y015258D01*
X030911Y015417D02*
X031163Y015417D01*
X031163Y015575D02*
X030911Y015575D01*
X030882Y015734D02*
X031163Y015734D01*
X031163Y015892D02*
X030745Y015892D01*
X030762Y016051D02*
X031163Y016051D01*
X031163Y016209D02*
X030800Y016209D01*
X030800Y016368D02*
X031163Y016368D01*
X031163Y016527D02*
X030749Y016527D01*
X030610Y016685D02*
X031163Y016685D01*
X031163Y016844D02*
X030723Y016844D01*
X030734Y017002D02*
X031163Y017002D01*
X031163Y017161D02*
X030718Y017161D01*
X030598Y017319D02*
X031163Y017319D01*
X031163Y017478D02*
X030389Y017478D01*
X031163Y017636D02*
X024918Y017636D01*
X025077Y017795D02*
X031163Y017795D01*
X031163Y017953D02*
X025235Y017953D01*
X025394Y018112D02*
X031163Y018112D01*
X029555Y019380D02*
X026649Y019380D01*
X026715Y019539D02*
X028308Y019539D01*
X028307Y019523D02*
X029555Y019523D01*
X029555Y020771D01*
X029440Y020760D01*
X029312Y020734D01*
X029187Y020696D01*
X029066Y020646D01*
X028951Y020585D01*
X028842Y020512D01*
X028741Y020429D01*
X028649Y020337D01*
X028566Y020236D01*
X028493Y020127D01*
X028432Y020012D01*
X028382Y019891D01*
X028344Y019766D01*
X028318Y019638D01*
X028307Y019523D01*
X028330Y019697D02*
X026742Y019697D01*
X026742Y019856D02*
X028371Y019856D01*
X028433Y020014D02*
X026742Y020014D01*
X026742Y020173D02*
X028524Y020173D01*
X028644Y020332D02*
X026742Y020332D01*
X026742Y020490D02*
X028815Y020490D01*
X029072Y020649D02*
X026698Y020649D01*
X026620Y020807D02*
X031163Y020807D01*
X031163Y020649D02*
X030199Y020649D01*
X030456Y020490D02*
X031163Y020490D01*
X031163Y020332D02*
X030626Y020332D01*
X030747Y020173D02*
X031163Y020173D01*
X031163Y020014D02*
X030838Y020014D01*
X030900Y019856D02*
X031163Y019856D01*
X031163Y019697D02*
X030941Y019697D01*
X030962Y019539D02*
X031163Y019539D01*
X029715Y019539D02*
X029555Y019539D01*
X029555Y019697D02*
X029715Y019697D01*
X029715Y019856D02*
X029555Y019856D01*
X029555Y020014D02*
X029715Y020014D01*
X029715Y020173D02*
X029555Y020173D01*
X029555Y020332D02*
X029715Y020332D01*
X029715Y020490D02*
X029555Y020490D01*
X029555Y020649D02*
X029715Y020649D01*
X031163Y020966D02*
X026461Y020966D01*
X026504Y019222D02*
X028323Y019222D01*
X028361Y019063D02*
X026345Y019063D01*
X026187Y018905D02*
X028419Y018905D01*
X028501Y018746D02*
X026028Y018746D01*
X023132Y017953D02*
X021323Y017953D01*
X021412Y017795D02*
X023132Y017795D01*
X023132Y017636D02*
X021412Y017636D01*
X021435Y017478D02*
X023132Y017478D01*
X023132Y017319D02*
X021594Y017319D01*
X021752Y017161D02*
X023222Y017161D01*
X023334Y017002D02*
X021911Y017002D01*
X022069Y016844D02*
X023347Y016844D01*
X023413Y016685D02*
X022228Y016685D01*
X022408Y016527D02*
X023340Y016527D01*
X023181Y016368D02*
X022474Y016368D01*
X022475Y016209D02*
X023023Y016209D01*
X022864Y016051D02*
X022421Y016051D01*
X022284Y015892D02*
X022706Y015892D01*
X021750Y015892D02*
X018024Y015892D01*
X018024Y016051D02*
X021614Y016051D01*
X021459Y016209D02*
X017967Y016209D01*
X018444Y016368D02*
X019648Y016368D01*
X019519Y016527D02*
X018573Y016527D01*
X018577Y016685D02*
X019515Y016685D01*
X019515Y016844D02*
X018577Y016844D01*
X018577Y017002D02*
X019515Y017002D01*
X019515Y017161D02*
X018577Y017161D01*
X018646Y017319D02*
X019515Y017319D01*
X019515Y017478D02*
X018805Y017478D01*
X018963Y017636D02*
X019515Y017636D01*
X021279Y016368D02*
X021300Y016368D01*
X023222Y014783D02*
X023764Y014783D01*
X023764Y014841D02*
X023764Y014547D01*
X023776Y014502D01*
X023800Y014460D01*
X023833Y014427D01*
X023874Y014403D01*
X023920Y014391D01*
X024289Y014391D01*
X024289Y014841D01*
X023764Y014841D01*
X023764Y014624D02*
X023064Y014624D01*
X022905Y014465D02*
X023797Y014465D01*
X024289Y014465D02*
X024449Y014465D01*
X024449Y014624D02*
X024289Y014624D01*
X024289Y014783D02*
X024449Y014783D01*
X024449Y014941D02*
X025662Y014941D01*
X025800Y014803D02*
X026314Y014803D01*
X026677Y015166D01*
X026677Y015679D01*
X026314Y016043D01*
X025800Y016043D01*
X025437Y015679D01*
X025437Y015166D01*
X025800Y014803D01*
X025503Y015100D02*
X024974Y015100D01*
X024974Y015258D02*
X025437Y015258D01*
X025437Y015417D02*
X024903Y015417D01*
X025437Y015575D02*
X024001Y015575D01*
X024159Y015734D02*
X025492Y015734D01*
X025650Y015892D02*
X024318Y015892D01*
X024289Y015417D02*
X024449Y015417D01*
X024449Y015258D02*
X024289Y015258D01*
X024289Y015100D02*
X024449Y015100D01*
X024289Y014941D02*
X023381Y014941D01*
X023525Y015100D02*
X023764Y015100D01*
X023764Y015258D02*
X023684Y015258D01*
X023125Y014307D02*
X026741Y014307D01*
X026583Y014148D02*
X024486Y014148D01*
X024941Y014465D02*
X026900Y014465D01*
X027017Y014624D02*
X024974Y014624D01*
X024974Y014783D02*
X027017Y014783D01*
X027017Y014941D02*
X026452Y014941D01*
X026611Y015100D02*
X027017Y015100D01*
X027017Y015258D02*
X026677Y015258D01*
X026677Y015417D02*
X027017Y015417D01*
X027017Y015575D02*
X026677Y015575D01*
X026623Y015734D02*
X027017Y015734D01*
X027012Y015892D02*
X026464Y015892D01*
X027016Y016051D02*
X025003Y016051D01*
X025034Y016209D02*
X027082Y016209D01*
X027195Y016368D02*
X025034Y016368D01*
X025034Y016527D02*
X027424Y016527D01*
X028357Y014941D02*
X031163Y014941D01*
X031163Y014783D02*
X028357Y014783D01*
X028357Y014624D02*
X031163Y014624D01*
X031163Y014465D02*
X028357Y014465D01*
X028357Y014307D02*
X031163Y014307D01*
X031163Y014148D02*
X028347Y014148D01*
X028281Y013990D02*
X028704Y013990D01*
X028619Y013955D02*
X028845Y014048D01*
X029839Y014048D01*
X030065Y013955D01*
X030238Y013782D01*
X030332Y013556D01*
X030332Y013311D01*
X030238Y013085D01*
X030065Y012912D01*
X029839Y012818D01*
X028845Y012818D01*
X028619Y012912D01*
X028446Y013085D01*
X028352Y013311D01*
X028352Y013556D01*
X028446Y013782D01*
X028619Y013955D01*
X028495Y013831D02*
X028161Y013831D01*
X028002Y013673D02*
X028401Y013673D01*
X028352Y013514D02*
X027843Y013514D01*
X027685Y013356D02*
X028352Y013356D01*
X028399Y013197D02*
X027526Y013197D01*
X027368Y013039D02*
X028492Y013039D01*
X028696Y012880D02*
X027209Y012880D01*
X027142Y012721D02*
X031163Y012721D01*
X031163Y012563D02*
X027142Y012563D01*
X027142Y012404D02*
X028671Y012404D01*
X028676Y012408D02*
X028606Y012357D01*
X028544Y012295D01*
X028492Y012224D01*
X028453Y012146D01*
X028426Y012063D01*
X028412Y011978D01*
X029297Y011978D01*
X029297Y011888D01*
X029387Y011888D01*
X029387Y011378D01*
X029761Y011378D01*
X029847Y011392D01*
X029930Y011419D01*
X030008Y011459D01*
X030079Y011510D01*
X030140Y011572D01*
X030192Y011642D01*
X030231Y011720D01*
X030258Y011803D01*
X030272Y011888D01*
X029387Y011888D01*
X029387Y011978D01*
X030272Y011978D01*
X030258Y012063D01*
X030231Y012146D01*
X030192Y012224D01*
X030140Y012295D01*
X030079Y012357D01*
X030008Y012408D01*
X029930Y012448D01*
X029847Y012475D01*
X029761Y012488D01*
X029387Y012488D01*
X029387Y011978D01*
X029297Y011978D01*
X029297Y012488D01*
X028923Y012488D01*
X028837Y012475D01*
X028754Y012448D01*
X028676Y012408D01*
X028508Y012246D02*
X027142Y012246D01*
X027142Y012087D02*
X028434Y012087D01*
X028412Y011888D02*
X028426Y011803D01*
X028453Y011720D01*
X028492Y011642D01*
X028544Y011572D01*
X028606Y011510D01*
X028676Y011459D01*
X028754Y011419D01*
X028837Y011392D01*
X028923Y011378D01*
X029297Y011378D01*
X029297Y011888D01*
X028412Y011888D01*
X028436Y011770D02*
X027142Y011770D01*
X027142Y011929D02*
X029297Y011929D01*
X029387Y011929D02*
X031163Y011929D01*
X031163Y012087D02*
X030251Y012087D01*
X030176Y012246D02*
X031163Y012246D01*
X031163Y012404D02*
X030013Y012404D01*
X029387Y012404D02*
X029297Y012404D01*
X029297Y012246D02*
X029387Y012246D01*
X029387Y012087D02*
X029297Y012087D01*
X029297Y011770D02*
X029387Y011770D01*
X029387Y011612D02*
X029297Y011612D01*
X029297Y011453D02*
X029387Y011453D01*
X029997Y011453D02*
X031163Y011453D01*
X031163Y011295D02*
X028242Y011295D01*
X028083Y011453D02*
X028687Y011453D01*
X028515Y011612D02*
X027160Y011612D01*
X027126Y011453D02*
X027280Y011453D01*
X027122Y011295D02*
X027017Y011295D01*
X027051Y011136D02*
X024551Y011136D01*
X024587Y011295D02*
X025040Y011295D01*
X025044Y011290D02*
X025085Y011267D01*
X025131Y011254D01*
X025500Y011254D01*
X025500Y011705D01*
X025659Y011705D01*
X025659Y011254D01*
X026028Y011254D01*
X026074Y011267D01*
X026115Y011290D01*
X026149Y011324D01*
X026172Y011365D01*
X026185Y011411D01*
X026185Y011705D01*
X025660Y011705D01*
X025660Y011865D01*
X026185Y011865D01*
X026185Y012159D01*
X026172Y012205D01*
X026149Y012246D01*
X026115Y012279D01*
X026074Y012303D01*
X026028Y012315D01*
X025659Y012315D01*
X025659Y011865D01*
X025500Y011865D01*
X025500Y012315D01*
X025131Y012315D01*
X025085Y012303D01*
X025044Y012279D01*
X025010Y012246D01*
X024987Y012205D01*
X024974Y012159D01*
X024974Y011865D01*
X025499Y011865D01*
X025499Y011705D01*
X024974Y011705D01*
X024974Y011411D01*
X024987Y011365D01*
X025010Y011324D01*
X025044Y011290D01*
X024974Y011453D02*
X024587Y011453D01*
X024587Y011612D02*
X024974Y011612D01*
X024974Y011929D02*
X024587Y011929D01*
X024587Y012087D02*
X024974Y012087D01*
X025010Y012246D02*
X024587Y012246D01*
X024497Y012404D02*
X026262Y012404D01*
X026262Y012246D02*
X026149Y012246D01*
X026185Y012087D02*
X026262Y012087D01*
X026262Y011929D02*
X026185Y011929D01*
X026262Y011770D02*
X025660Y011770D01*
X025659Y011612D02*
X025500Y011612D01*
X025499Y011770D02*
X024587Y011770D01*
X025500Y011929D02*
X025659Y011929D01*
X025659Y012087D02*
X025500Y012087D01*
X025500Y012246D02*
X025659Y012246D01*
X026262Y012563D02*
X023564Y012563D01*
X023405Y012721D02*
X023819Y012721D01*
X025500Y011453D02*
X025659Y011453D01*
X025659Y011295D02*
X025500Y011295D01*
X026119Y011295D02*
X026388Y011295D01*
X026279Y011453D02*
X026185Y011453D01*
X026185Y011612D02*
X026244Y011612D01*
X027012Y010978D02*
X023591Y010978D01*
X023432Y010819D02*
X027012Y010819D01*
X027059Y010660D02*
X023273Y010660D01*
X023115Y010502D02*
X027140Y010502D01*
X027298Y010343D02*
X022956Y010343D01*
X018013Y013039D02*
X017942Y013039D01*
X015285Y012404D02*
X014970Y012404D01*
X014970Y012246D02*
X015285Y012246D01*
X015285Y012087D02*
X014970Y012087D01*
X014970Y011929D02*
X015285Y011929D01*
X015285Y011770D02*
X014970Y011770D01*
X014970Y011612D02*
X015285Y011612D01*
X015285Y011453D02*
X014970Y011453D01*
X014970Y011295D02*
X015285Y011295D01*
X015285Y011136D02*
X014970Y011136D01*
X014970Y010978D02*
X015285Y010978D01*
X015285Y010819D02*
X014970Y010819D01*
X014970Y010660D02*
X015285Y010660D01*
X014650Y010978D02*
X013087Y010978D01*
X013087Y011136D02*
X014650Y011136D01*
X014650Y011295D02*
X013087Y011295D01*
X014630Y013105D02*
X014630Y013718D01*
X014630Y013673D02*
X014630Y013673D01*
X014630Y013514D02*
X014630Y013514D01*
X014630Y013356D02*
X014630Y013356D01*
X014630Y013197D02*
X014630Y013197D01*
X014806Y014465D02*
X014966Y014465D01*
X014966Y014624D02*
X014806Y014624D01*
X014806Y015100D02*
X014966Y015100D01*
X014966Y015258D02*
X014806Y015258D01*
X013769Y017453D02*
X013769Y017829D01*
X011921Y018121D02*
X011921Y018134D01*
X011086Y018390D02*
X011075Y018401D01*
X011075Y019232D01*
X009770Y019465D02*
X009770Y019882D01*
X009270Y020347D02*
X009270Y020347D01*
X009270Y020362D01*
X009270Y020347D01*
X009270Y020347D01*
X028401Y011136D02*
X031163Y011136D01*
X031163Y010978D02*
X028559Y010978D01*
X028718Y010819D02*
X031163Y010819D01*
X031163Y010660D02*
X028876Y010660D01*
X029035Y010502D02*
X031163Y010502D01*
X031163Y010343D02*
X029193Y010343D01*
X029352Y010185D02*
X031163Y010185D01*
X031163Y010026D02*
X030033Y010026D01*
X030211Y009868D02*
X031163Y009868D01*
X031163Y009709D02*
X030293Y009709D01*
X030332Y009551D02*
X031163Y009551D01*
X031163Y009392D02*
X030332Y009392D01*
X030276Y009234D02*
X031163Y009234D01*
X031163Y009075D02*
X030170Y009075D01*
X029936Y008916D02*
X031163Y008916D01*
X031163Y011612D02*
X030169Y011612D01*
X030248Y011770D02*
X031163Y011770D01*
X031163Y012880D02*
X029989Y012880D01*
X030192Y013039D02*
X031163Y013039D01*
X031163Y013197D02*
X030285Y013197D01*
X030332Y013356D02*
X031163Y013356D01*
X031163Y013514D02*
X030332Y013514D01*
X030284Y013673D02*
X031163Y013673D01*
X031163Y013831D02*
X030189Y013831D01*
X029980Y013990D02*
X031163Y013990D01*
X031163Y003843D02*
X030977Y003843D01*
X030950Y003685D02*
X031163Y003685D01*
X031163Y003526D02*
X030902Y003526D01*
X030830Y003367D02*
X031163Y003367D01*
X031163Y003209D02*
X030733Y003209D01*
X030596Y003050D02*
X031163Y003050D01*
X031163Y002892D02*
X030406Y002892D01*
X014651Y005904D02*
X013003Y005904D01*
X013122Y006063D02*
X014493Y006063D01*
D38*
X013710Y007376D03*
X008238Y007573D03*
X001545Y012140D03*
X002844Y012651D03*
D39*
X002693Y013508D02*
X001828Y013508D01*
X001476Y013157D01*
X001545Y013088D01*
X001545Y012140D01*
X006191Y010210D02*
X006201Y010200D01*
X006201Y008432D01*
X008198Y007533D02*
X008198Y006829D01*
X009729Y006829D01*
X011191Y005368D01*
X011191Y004826D01*
X011224Y004793D01*
X012293Y006705D02*
X013710Y006705D01*
X013710Y007376D01*
X013710Y006705D02*
X014657Y006705D01*
X015915Y005447D01*
X015915Y004816D01*
X015926Y004805D01*
X020791Y004793D02*
X021309Y005311D01*
X021309Y008826D01*
X021309Y008825D01*
X021309Y008826D02*
X021309Y010486D01*
X022293Y010486D01*
X023550Y011743D01*
X023875Y011743D01*
X023963Y013387D02*
X023875Y013475D01*
X022914Y015280D02*
X021978Y014344D01*
X020994Y014344D01*
X020600Y013951D01*
X022914Y015280D02*
X022914Y015295D01*
X024143Y016524D01*
X024030Y016524D01*
X024143Y016524D02*
X024369Y016524D01*
X023904Y016989D01*
X023904Y017852D01*
X017372Y013873D02*
X017173Y013675D01*
X016309Y013675D01*
X015876Y013675D01*
X017372Y013873D02*
X017372Y011784D01*
X017017Y011429D01*
X018506Y011317D02*
X018506Y011002D01*
X019183Y010325D01*
X011578Y011554D02*
X011512Y011620D01*
X011512Y013601D01*
X011428Y013517D01*
X010443Y013517D01*
X010049Y013517D01*
X008238Y007573D02*
X008198Y007533D01*
X008198Y006829D02*
X006854Y006829D01*
D40*
X010836Y008872D03*
X011348Y008872D03*
X010482Y011825D03*
X013435Y013242D03*
X014222Y014580D03*
X014222Y015132D03*
X014891Y015132D03*
X014891Y014580D03*
X015561Y014580D03*
X015561Y015132D03*
X013317Y016273D03*
X011466Y016155D03*
X009655Y015014D03*
X008986Y015014D03*
X008317Y015014D03*
X008317Y014462D03*
X008986Y014462D03*
X009655Y014462D03*
X007765Y016195D03*
X008986Y017100D03*
X007490Y017454D03*
X008789Y019187D03*
X009419Y019266D03*
X010443Y018793D03*
X011702Y019856D03*
X013080Y019147D03*
X014498Y018557D03*
X015009Y018557D03*
X016348Y020014D03*
X018238Y018399D03*
X021860Y019187D03*
X022096Y017336D03*
X022569Y017336D03*
X022017Y016273D03*
X019340Y015919D03*
X019183Y014423D03*
X018671Y014423D03*
X019065Y012691D03*
X019065Y012140D03*
X019655Y012140D03*
X019655Y012691D03*
X021820Y011943D03*
X020561Y010565D03*
X020561Y010053D03*
X020561Y009541D03*
X020561Y009029D03*
X022254Y009462D03*
X024458Y008636D03*
X025285Y006549D03*
X027726Y005289D03*
X027569Y008832D03*
X027687Y009344D03*
X026702Y011628D03*
X025049Y012533D03*
X022883Y013911D03*
X016860Y010250D03*
X006820Y012494D03*
X005639Y012809D03*
X006978Y014029D03*
X003986Y014344D03*
X003474Y014344D03*
X002962Y014344D03*
X002962Y014895D03*
X003474Y014895D03*
X003986Y014895D03*
X005246Y016116D03*
X003868Y017809D03*
X002962Y017297D03*
X004340Y020250D03*
X003553Y020643D03*
X010009Y020525D03*
X011624Y017454D03*
X001506Y009384D03*
X027372Y018163D03*
D41*
X004228Y013508D02*
X004104Y013632D01*
X004104Y013675D01*
D42*
X015926Y004805D02*
X016574Y005454D01*
X017396Y005454D01*
X017396Y004784D02*
X017396Y004227D01*
X017454Y004169D01*
X012756Y004158D02*
X012728Y004186D01*
X012728Y004793D01*
D43*
X019183Y008825D02*
X019648Y008825D01*
X019931Y009108D01*
X019931Y010846D01*
X019802Y010975D01*
X019802Y011317D01*
X020200Y011116D02*
X019931Y010846D01*
X020200Y011116D02*
X021820Y011116D01*
X022411Y011706D01*
X022411Y012966D01*
X022100Y013277D01*
X021693Y013277D01*
X021693Y013651D02*
X022317Y013651D01*
X023002Y012966D01*
X023002Y012616D01*
X023875Y011743D01*
X021820Y011943D02*
X021611Y011733D01*
X021141Y011733D01*
X021141Y012403D02*
X020585Y012403D01*
X020579Y012409D01*
X020662Y012492D01*
X020662Y012903D01*
X020662Y013651D02*
X020600Y013713D01*
X020600Y013872D01*
X020600Y013951D01*
X022883Y013911D02*
X023320Y013475D01*
X023875Y013475D01*
X026572Y009518D02*
X027513Y009518D01*
X027687Y009344D01*
D44*
X020600Y013872D02*
X020167Y013872D01*
X019802Y013507D01*
X019802Y013443D01*
X019813Y013478D02*
X018317Y013478D01*
X018317Y013517D01*
X018302Y011317D02*
X018506Y011317D01*
X018317Y011273D02*
X019222Y011273D01*
X019222Y009423D01*
M02*
