G75*
G70*
%OFA0B0*%
%FSLAX24Y24*%
%IPPOS*%
%LPD*%
%AMOC8*
5,1,8,0,0,1.08239X$1,22.5*
%
%ADD10R,0.0277X0.0946*%
%ADD11R,0.2049X0.1064*%
%ADD12R,0.0710X0.1143*%
%ADD13R,0.0474X0.0513*%
%ADD14R,0.1261X0.1261*%
%ADD15R,0.1025X0.1025*%
%ADD16R,0.0178X0.0690*%
%ADD17R,0.1655X0.1182*%
%ADD18R,0.0513X0.0474*%
%ADD19R,0.1497X0.1261*%
%ADD20R,0.1143X0.1084*%
%ADD21R,0.0580X0.0330*%
%ADD22R,0.1143X0.0710*%
%ADD23C,0.0830*%
%ADD24R,0.0230X0.0680*%
%ADD25R,0.1489X0.0671*%
%ADD26R,0.0930X0.0781*%
%ADD27OC8,0.0840*%
%ADD28R,0.0671X0.0671*%
%ADD29C,0.0316*%
%ADD30C,0.0830*%
%ADD31OC8,0.0830*%
%ADD32C,0.2380*%
%ADD33C,0.0674*%
D10*
X008221Y013618D03*
X008721Y013618D03*
X009221Y013618D03*
X009721Y013618D03*
X009721Y015882D03*
X009221Y015882D03*
X008721Y015882D03*
X008221Y015882D03*
X014130Y015982D03*
X014630Y015982D03*
X015130Y015982D03*
X015630Y015982D03*
X015630Y013718D03*
X015130Y013718D03*
X014630Y013718D03*
X014130Y013718D03*
D11*
X014886Y014848D03*
X008977Y014748D03*
D12*
X008728Y012471D03*
X007626Y012471D03*
X013513Y012180D03*
X014616Y012180D03*
D13*
X016228Y013813D03*
X016228Y014482D03*
X014439Y016902D03*
X013769Y016902D03*
X013769Y017453D03*
X014439Y017453D03*
X012590Y018121D03*
X011921Y018121D03*
X011775Y018658D03*
X012444Y018658D03*
X012295Y019918D03*
X012964Y019918D03*
X006598Y015181D03*
X005928Y015181D03*
X005374Y015512D03*
X005374Y014843D03*
X005902Y014649D03*
X006571Y014649D03*
X004885Y014217D03*
X004885Y013547D03*
X003492Y016456D03*
X002823Y016456D03*
X010359Y014331D03*
X010359Y013662D03*
X028170Y006299D03*
X028839Y006299D03*
D14*
X026577Y007407D03*
X024215Y007407D03*
X017017Y011429D03*
X011578Y011554D03*
X006201Y008432D03*
X006854Y006829D03*
X012293Y006705D03*
X001476Y013157D03*
D15*
X011512Y013601D03*
X011512Y015333D03*
X017372Y015606D03*
X017372Y013873D03*
X023875Y013475D03*
X023875Y011743D03*
X024840Y009518D03*
X026572Y009518D03*
D16*
X004228Y013508D03*
X003972Y013508D03*
X003717Y013508D03*
X003461Y013508D03*
X003205Y013508D03*
X002949Y013508D03*
X002693Y013508D03*
X002693Y015713D03*
X002949Y015713D03*
X003205Y015713D03*
X003461Y015713D03*
X003717Y015713D03*
X003972Y015713D03*
X004228Y015713D03*
D17*
X003480Y014610D03*
D18*
X004842Y014830D03*
X004842Y015499D03*
X008126Y018186D03*
X008126Y018855D03*
X008086Y019406D03*
X008086Y020075D03*
X011075Y019901D03*
X011075Y019232D03*
X011889Y019197D03*
X012559Y019197D03*
X011086Y018390D03*
X011086Y017721D03*
X015620Y012810D03*
X016289Y012810D03*
X020579Y012409D03*
X021141Y012403D03*
X021141Y011733D03*
X020579Y011740D03*
X017396Y005454D03*
X017396Y004784D03*
X012728Y004793D03*
X012728Y005463D03*
X008065Y005468D03*
X008065Y004799D03*
X009669Y012656D03*
X010338Y012656D03*
X026846Y005434D03*
X026846Y004764D03*
D19*
X020463Y017174D03*
X017629Y017174D03*
X017629Y020009D03*
X020463Y020009D03*
D20*
X023904Y020352D03*
X023904Y017852D03*
D21*
X021693Y013651D03*
X021693Y013277D03*
X021693Y012903D03*
X020662Y012903D03*
X020662Y013277D03*
X020662Y013651D03*
D22*
X017823Y009632D03*
X017823Y008530D03*
D23*
X019291Y005168D02*
X019291Y004418D01*
X020791Y004418D02*
X020791Y005168D01*
X023641Y005165D02*
X023641Y004415D01*
X025141Y004415D02*
X025141Y005165D01*
X028967Y007991D02*
X029717Y007991D01*
X029717Y009491D02*
X028967Y009491D01*
X028967Y011933D02*
X029717Y011933D01*
X029717Y013433D02*
X028967Y013433D01*
X015926Y005180D02*
X015926Y004430D01*
X014426Y004430D02*
X014426Y005180D01*
X011224Y005168D02*
X011224Y004418D01*
X009724Y004418D02*
X009724Y005168D01*
X006553Y005180D02*
X006553Y004430D01*
X005053Y004430D02*
X005053Y005180D01*
D24*
X008770Y017764D03*
X009020Y017764D03*
X009270Y017764D03*
X009520Y017764D03*
X009770Y017764D03*
X010020Y017764D03*
X010270Y017764D03*
X010520Y017764D03*
X010520Y019882D03*
X010270Y019882D03*
X010020Y019882D03*
X009770Y019882D03*
X009520Y019882D03*
X009270Y019882D03*
X009020Y019882D03*
X008770Y019882D03*
D25*
X007010Y020113D03*
X007010Y019113D03*
X007010Y018113D03*
X005010Y017613D03*
X005010Y018613D03*
X005010Y019613D03*
D26*
X024369Y016524D03*
X024369Y014921D03*
X025580Y013387D03*
X025580Y011785D03*
D27*
X027682Y010907D03*
X026057Y015423D03*
X027682Y015907D03*
X026057Y020423D03*
D28*
X029430Y006249D03*
X030807Y006249D03*
X026844Y004153D03*
X026844Y002775D03*
X017454Y002791D03*
X017454Y004169D03*
X012756Y004158D03*
X012756Y002780D03*
X008093Y002812D03*
X008093Y004190D03*
D29*
X018996Y008825D02*
X019370Y008825D01*
X019370Y009325D02*
X018996Y009325D01*
X018996Y009825D02*
X019370Y009825D01*
X019370Y010325D02*
X018996Y010325D01*
X018802Y011130D02*
X018802Y011504D01*
X018302Y011504D02*
X018302Y011130D01*
X019302Y011130D02*
X019302Y011504D01*
X019802Y011504D02*
X019802Y011130D01*
X021122Y010325D02*
X021496Y010325D01*
X021496Y009825D02*
X021122Y009825D01*
X021122Y009325D02*
X021496Y009325D01*
X021496Y008825D02*
X021122Y008825D01*
X019802Y013256D02*
X019802Y013630D01*
X019302Y013630D02*
X019302Y013256D01*
X018802Y013256D02*
X018802Y013630D01*
X018302Y013630D02*
X018302Y013256D01*
D30*
X018203Y007079D03*
D31*
X020203Y007079D03*
D32*
X002151Y004006D03*
X002194Y019435D03*
X029635Y019443D03*
X029655Y003990D03*
D33*
X013710Y007376D03*
X008238Y007573D03*
X001545Y012140D03*
X002844Y012651D03*
M02*
