G75*
G70*
%OFA0B0*%
%FSLAX24Y24*%
%IPPOS*%
%LPD*%
%AMOC8*
5,1,8,0,0,1.08239X$1,22.5*
%
%ADD10C,0.0100*%
D10*
X000518Y003874D02*
X000451Y003940D01*
X000451Y004074D01*
X000518Y004140D01*
X000584Y004334D02*
X000584Y004534D01*
X000651Y004601D01*
X000718Y004534D01*
X000718Y004401D01*
X000784Y004334D01*
X000851Y004401D01*
X000851Y004601D01*
X000851Y004794D02*
X000584Y004794D01*
X000584Y005061D02*
X000784Y005061D01*
X000851Y004994D01*
X000851Y004794D01*
X000851Y005255D02*
X000451Y005255D01*
X000584Y005255D02*
X000584Y005455D01*
X000651Y005521D01*
X000784Y005521D01*
X000851Y005455D01*
X000851Y005255D01*
X000851Y005715D02*
X000651Y005715D01*
X000584Y005782D01*
X000584Y005982D01*
X000851Y005982D01*
X000851Y006155D02*
X000851Y006289D01*
X000851Y006222D02*
X000584Y006222D01*
X000584Y006289D01*
X000451Y006222D02*
X000384Y006222D01*
X000651Y006482D02*
X000651Y006749D01*
X000651Y006943D02*
X000584Y007009D01*
X000584Y007143D01*
X000651Y007209D01*
X000784Y007209D01*
X000851Y007143D01*
X000851Y007009D01*
X000718Y006943D02*
X000718Y007209D01*
X000851Y007393D02*
X000718Y007593D01*
X000584Y007393D01*
X000451Y007593D02*
X000851Y007593D01*
X000784Y007786D02*
X000651Y007786D01*
X000584Y007853D01*
X000584Y007987D01*
X000651Y008053D01*
X000784Y008053D01*
X000851Y007987D01*
X000851Y007853D01*
X000784Y007786D01*
X000784Y008247D02*
X000651Y008247D01*
X000584Y008314D01*
X000584Y008514D01*
X000985Y008514D01*
X000851Y008514D02*
X000851Y008314D01*
X000784Y008247D01*
X000784Y008707D02*
X000718Y008774D01*
X000718Y008907D01*
X000651Y008974D01*
X000584Y008907D01*
X000584Y008707D01*
X000784Y008707D02*
X000851Y008774D01*
X000851Y008974D01*
X000718Y006943D02*
X000651Y006943D01*
X003451Y004907D02*
X003451Y004774D01*
X003518Y004707D01*
X003784Y004974D01*
X003851Y004907D01*
X003851Y004774D01*
X003784Y004707D01*
X003518Y004707D01*
X003451Y004907D02*
X003518Y004974D01*
X003784Y004974D01*
X006701Y004841D02*
X007101Y004841D01*
X007101Y004974D02*
X007101Y004707D01*
X006834Y004974D02*
X006701Y004841D01*
X010201Y004774D02*
X010201Y004907D01*
X010268Y004974D01*
X010201Y004774D02*
X010268Y004707D01*
X010334Y004707D01*
X010601Y004974D01*
X010601Y004707D01*
X013701Y004774D02*
X013768Y004707D01*
X013834Y004707D01*
X013901Y004774D01*
X013968Y004707D01*
X014034Y004707D01*
X014101Y004774D01*
X014101Y004907D01*
X014034Y004974D01*
X013901Y004841D02*
X013901Y004774D01*
X013701Y004774D02*
X013701Y004907D01*
X013768Y004974D01*
X014451Y005091D02*
X014451Y005225D01*
X014518Y005291D01*
X014451Y005091D02*
X014518Y005024D01*
X014584Y005024D01*
X014851Y005291D01*
X014851Y005024D01*
X014784Y004831D02*
X014518Y004831D01*
X014451Y004764D01*
X014451Y004631D01*
X014518Y004564D01*
X014784Y004831D01*
X014851Y004764D01*
X014851Y004631D01*
X014784Y004564D01*
X014518Y004564D01*
X014584Y004371D02*
X014451Y004237D01*
X014851Y004237D01*
X014851Y004104D02*
X014851Y004371D01*
X014851Y003910D02*
X014584Y003643D01*
X014518Y003643D01*
X014451Y003710D01*
X014451Y003844D01*
X014518Y003910D01*
X014851Y003910D02*
X014851Y003643D01*
X014851Y005945D02*
X014651Y005945D01*
X014584Y006012D01*
X014651Y006079D01*
X014851Y006079D01*
X014651Y006079D02*
X014584Y006145D01*
X014584Y006212D01*
X014851Y006212D01*
X014851Y006405D02*
X014651Y006405D01*
X014584Y006472D01*
X014584Y006606D01*
X014718Y006606D02*
X014718Y006405D01*
X014851Y006405D02*
X014851Y006606D01*
X014784Y006672D01*
X014718Y006606D01*
X014718Y006866D02*
X014718Y007133D01*
X014784Y007133D02*
X014651Y007133D01*
X014584Y007066D01*
X014584Y006933D01*
X014651Y006866D01*
X014718Y006866D01*
X014851Y006933D02*
X014851Y007066D01*
X014784Y007133D01*
X014851Y007460D02*
X014451Y007460D01*
X014451Y007593D02*
X014451Y007326D01*
X014518Y007786D02*
X014584Y007786D01*
X014651Y007853D01*
X014651Y008053D01*
X014851Y008053D02*
X014451Y008053D01*
X014451Y007853D01*
X014518Y007786D01*
X014651Y007853D02*
X014718Y007786D01*
X014784Y007786D01*
X014851Y007853D01*
X014851Y008053D01*
X014651Y008247D02*
X014518Y008247D01*
X014451Y008314D01*
X014451Y008514D01*
X014851Y008514D01*
X014718Y008514D02*
X014718Y008314D01*
X014651Y008247D01*
X014651Y008707D02*
X014651Y008974D01*
X014584Y008974D02*
X014451Y008841D01*
X014584Y008707D01*
X014851Y008707D01*
X014851Y008974D02*
X014584Y008974D01*
X000851Y004140D02*
X000851Y003874D01*
X000851Y004140D02*
X000584Y003874D01*
X000518Y003874D01*
M02*
