G75*
G70*
%OFA0B0*%
%FSLAX24Y24*%
%IPPOS*%
%LPD*%
%AMOC8*
5,1,8,0,0,1.08239X$1,22.5*
%
%ADD10C,0.0100*%
%ADD11C,0.0110*%
%ADD12C,0.0660*%
%ADD13O,0.0750X0.1500*%
%ADD14R,0.0433X0.0394*%
%ADD15R,0.0850X0.0701*%
%ADD16R,0.0217X0.0472*%
%ADD17R,0.0551X0.0394*%
%ADD18R,0.0394X0.0433*%
%ADD19R,0.1570X0.1570*%
%ADD20R,0.0591X0.0787*%
%ADD21R,0.0460X0.0630*%
%ADD22R,0.0394X0.0551*%
%ADD23O,0.0600X0.1200*%
%ADD24R,0.0512X0.0591*%
%ADD25R,0.0728X0.2165*%
%ADD26OC8,0.1000*%
%ADD27C,0.1000*%
%ADD28C,0.0886*%
%ADD29R,0.0236X0.0866*%
%ADD30R,0.0390X0.0272*%
%ADD31OC8,0.0760*%
%ADD32OC8,0.0400*%
%ADD33OC8,0.0765*%
%ADD34C,0.0160*%
%ADD35C,0.0400*%
%ADD36OC8,0.0768*%
%ADD37C,0.0500*%
%ADD38C,0.0240*%
%ADD39C,0.0320*%
D10*
X004302Y005390D02*
X005724Y005390D01*
X005724Y005480D01*
X005724Y005704D01*
X005724Y005873D01*
X005724Y006070D01*
X005845Y006190D01*
X006014Y006190D01*
X006134Y006070D01*
X006134Y005993D01*
X006310Y005993D01*
X006430Y005873D01*
X006467Y005836D01*
X006467Y005873D01*
X006587Y005993D01*
X006784Y005993D01*
X006954Y005993D01*
X007044Y005904D01*
X007112Y005972D01*
X007232Y006092D01*
X007402Y006092D01*
X007500Y005993D01*
X007620Y005873D01*
X007620Y005704D01*
X007522Y005605D01*
X007522Y005578D01*
X007560Y005540D01*
X007620Y005480D01*
X007620Y005390D01*
X010574Y005390D01*
X010574Y005480D01*
X010574Y005704D01*
X010574Y005873D01*
X010574Y006070D01*
X010695Y006190D01*
X010864Y006190D01*
X010984Y006070D01*
X010984Y005993D01*
X011160Y005993D01*
X011249Y005904D01*
X011339Y005993D01*
X011509Y005993D01*
X011621Y005881D01*
X011733Y005993D01*
X011903Y005993D01*
X011943Y005953D01*
X011962Y005972D01*
X012082Y006092D01*
X012252Y006092D01*
X012350Y005993D01*
X012470Y005873D01*
X012470Y005704D01*
X012372Y005605D01*
X012372Y005578D01*
X012410Y005540D01*
X012470Y005480D01*
X012470Y005390D01*
X016024Y005390D01*
X016024Y005704D01*
X016024Y005873D01*
X016145Y005993D01*
X016440Y005993D01*
X016610Y005993D01*
X016708Y005895D01*
X016749Y005854D01*
X016767Y005873D01*
X016826Y005932D01*
X016827Y005933D01*
X016858Y005964D01*
X016887Y005993D01*
X017084Y005993D01*
X017254Y005993D01*
X017353Y005895D01*
X017393Y005854D01*
X017412Y005873D01*
X017412Y005873D01*
X017470Y005931D01*
X017472Y005933D01*
X017511Y005973D01*
X017532Y005993D01*
X017997Y005993D01*
X018117Y005873D01*
X018117Y005704D01*
X018054Y005641D01*
X018117Y005578D01*
X018117Y005408D01*
X018099Y005390D01*
X020093Y005390D01*
X020074Y005408D01*
X020074Y005578D01*
X020088Y005592D01*
X020074Y005605D01*
X020074Y005775D01*
X020074Y006070D01*
X020195Y006190D01*
X020364Y006190D01*
X020758Y006190D01*
X020878Y006070D01*
X020878Y005993D01*
X021009Y005993D01*
X021092Y005910D01*
X021121Y005853D01*
X021149Y005910D01*
X021233Y005993D01*
X021364Y005993D01*
X021364Y006070D01*
X021484Y006190D01*
X021779Y006190D01*
X021949Y006190D01*
X022026Y006112D01*
X022047Y006092D01*
X022167Y005972D01*
X022167Y005775D01*
X022167Y005605D01*
X022069Y005507D01*
X021952Y005390D01*
X024893Y005390D01*
X024874Y005408D01*
X024874Y005578D01*
X024888Y005592D01*
X024874Y005605D01*
X024874Y005775D01*
X024874Y006070D01*
X024995Y006190D01*
X025164Y006190D01*
X025558Y006190D01*
X025678Y006070D01*
X025678Y005993D01*
X025809Y005993D01*
X025892Y005910D01*
X025921Y005853D01*
X025949Y005910D01*
X026033Y005993D01*
X026164Y005993D01*
X026164Y006070D01*
X026284Y006190D01*
X026749Y006190D01*
X026828Y006111D01*
X026847Y006092D01*
X026904Y006035D01*
X026907Y006032D01*
X026967Y005972D01*
X026967Y005802D01*
X026967Y005408D01*
X026949Y005390D01*
X029847Y005390D01*
X029751Y005457D01*
X029630Y005561D01*
X029519Y005675D01*
X029418Y005798D01*
X029418Y005798D01*
X029329Y005930D01*
X029329Y005931D01*
X029253Y006070D01*
X029253Y006070D01*
X029189Y006216D01*
X029189Y006216D01*
X029139Y006368D01*
X029103Y006523D01*
X029082Y006681D01*
X029074Y006840D01*
X029082Y006999D01*
X029103Y007157D01*
X029139Y007312D01*
X029189Y007463D01*
X029253Y007609D01*
X029329Y007749D01*
X029418Y007881D01*
X029519Y008005D01*
X029630Y008119D01*
X029751Y008222D01*
X029881Y008314D01*
X030019Y008394D01*
X030164Y008460D01*
X030314Y008514D01*
X030468Y008553D01*
X030468Y008553D01*
X030626Y008578D01*
X030785Y008589D01*
X030944Y008586D01*
X031102Y008568D01*
X031258Y008535D01*
X031410Y008489D01*
X031411Y008489D01*
X031558Y008429D01*
X031699Y008355D01*
X031834Y008269D01*
X031959Y008172D01*
X032076Y008063D01*
X032182Y007944D01*
X032274Y007819D01*
X032274Y023790D01*
X001874Y023790D01*
X001874Y023477D01*
X001944Y023546D01*
X002305Y023546D01*
X002374Y023477D01*
X002444Y023546D01*
X002805Y023546D01*
X002874Y023477D01*
X002944Y023546D01*
X003305Y023546D01*
X003374Y023477D01*
X003444Y023546D01*
X003805Y023546D01*
X003893Y023459D01*
X003893Y023134D01*
X003934Y023092D01*
X003934Y023018D01*
X003992Y022861D01*
X004228Y022625D01*
X005565Y022625D01*
X006024Y023085D01*
X006141Y023201D01*
X006189Y023249D01*
X006189Y023596D01*
X006276Y023683D01*
X006991Y023683D01*
X007079Y023596D01*
X007079Y022684D01*
X006991Y022596D01*
X006526Y022596D01*
X005709Y021780D01*
X005709Y020843D01*
X005622Y020755D01*
X004354Y020755D01*
X004374Y020735D01*
X004374Y020445D01*
X004169Y020240D01*
X003880Y020240D01*
X003786Y020333D01*
X003444Y020333D01*
X003374Y020403D01*
X003305Y020333D01*
X002944Y020333D01*
X002874Y020403D01*
X002805Y020333D01*
X002522Y020333D01*
X002537Y020318D01*
X002537Y019761D01*
X002449Y019673D01*
X002346Y019673D01*
X002303Y019630D01*
X001996Y019630D01*
X001953Y019673D01*
X001931Y019673D01*
X001874Y019730D01*
X001874Y010035D01*
X001930Y010090D01*
X002142Y010090D01*
X002178Y010126D01*
X002178Y010584D01*
X002265Y010672D01*
X002783Y010672D01*
X002871Y010584D01*
X002871Y010026D01*
X002783Y009939D01*
X002556Y009939D01*
X002424Y009807D01*
X002424Y009640D01*
X002493Y009640D01*
X002493Y009818D01*
X002581Y009906D01*
X002974Y009906D01*
X002974Y010135D01*
X003098Y010258D01*
X003096Y010258D01*
X003008Y010346D01*
X003008Y010864D01*
X003084Y010940D01*
X003008Y011015D01*
X003008Y011465D01*
X002962Y011511D01*
X002962Y012068D01*
X003050Y012156D01*
X003568Y012156D01*
X003656Y012068D01*
X003656Y011618D01*
X003741Y011533D01*
X003741Y011015D01*
X003665Y010940D01*
X003741Y010864D01*
X003741Y010346D01*
X003653Y010258D01*
X003551Y010258D01*
X003674Y010135D01*
X003674Y009906D01*
X003768Y009906D01*
X003782Y009892D01*
X003843Y009953D01*
X003843Y010418D01*
X003931Y010506D01*
X004449Y010506D01*
X004524Y010431D01*
X004534Y010440D01*
X004493Y010481D01*
X004493Y010999D01*
X004580Y011087D01*
X004895Y011087D01*
X004689Y011293D01*
X004523Y011293D01*
X004319Y011090D01*
X004030Y011090D01*
X003824Y011295D01*
X003824Y011585D01*
X003974Y011735D01*
X003974Y011873D01*
X004409Y012307D01*
X004409Y012773D01*
X004350Y012773D01*
X004274Y012849D01*
X004199Y012773D01*
X003718Y012773D01*
X003668Y012723D01*
X003150Y012723D01*
X003062Y012811D01*
X003062Y013368D01*
X003084Y013390D01*
X003074Y013399D01*
X002999Y013323D01*
X002481Y013323D01*
X002393Y013411D01*
X002393Y013961D01*
X002358Y013996D01*
X002358Y014514D01*
X002434Y014590D01*
X002358Y014665D01*
X002358Y015183D01*
X002446Y015271D01*
X002873Y015271D01*
X003124Y015523D01*
X003242Y015640D01*
X004374Y015640D01*
X004374Y015735D01*
X004580Y015940D01*
X004869Y015940D01*
X005074Y015735D01*
X005074Y015445D01*
X004991Y015362D01*
X005074Y015279D01*
X005074Y014885D01*
X005074Y014715D01*
X004985Y014626D01*
X004998Y014613D01*
X005074Y014536D01*
X005074Y014366D01*
X005074Y014071D01*
X004956Y013952D01*
X004956Y013418D01*
X004956Y012861D01*
X004868Y012773D01*
X004809Y012773D01*
X004809Y012142D01*
X004692Y012024D01*
X004654Y011987D01*
X004739Y011987D01*
X005174Y012423D01*
X005174Y015623D01*
X005292Y015740D01*
X005974Y016423D01*
X005974Y018757D01*
X005974Y018923D01*
X006124Y019073D01*
X006124Y019285D01*
X006330Y019490D01*
X006619Y019490D01*
X006824Y019285D01*
X006824Y018995D01*
X006619Y018790D01*
X006407Y018790D01*
X006374Y018757D01*
X006374Y016257D01*
X006257Y016140D01*
X005574Y015457D01*
X005574Y014307D01*
X005654Y014387D01*
X005974Y014387D01*
X005974Y015023D01*
X005974Y015135D01*
X006180Y015340D01*
X006469Y015340D01*
X006674Y015135D01*
X006674Y014845D01*
X006469Y014640D01*
X006374Y014640D01*
X006374Y014341D01*
X006417Y014299D01*
X006417Y013781D01*
X006329Y013693D01*
X005654Y013693D01*
X005574Y013772D01*
X005574Y012423D01*
X005574Y012257D01*
X005106Y011789D01*
X005106Y011441D01*
X005357Y011190D01*
X005474Y011073D01*
X005474Y010790D01*
X005569Y010790D01*
X005774Y010585D01*
X005774Y010295D01*
X005569Y010090D01*
X005280Y010090D01*
X005206Y010163D01*
X005206Y009861D01*
X005118Y009773D01*
X004974Y009773D01*
X004974Y009185D01*
X005124Y009035D01*
X005124Y008745D01*
X004919Y008540D01*
X004630Y008540D01*
X004424Y008745D01*
X004424Y009035D01*
X004574Y009185D01*
X004574Y009799D01*
X004524Y009849D01*
X004474Y009799D01*
X004474Y009595D01*
X004324Y009445D01*
X004324Y009307D01*
X003856Y008838D01*
X003856Y008711D01*
X003768Y008623D01*
X003250Y008623D01*
X003174Y008699D01*
X003099Y008623D01*
X002581Y008623D01*
X002493Y008711D01*
X002493Y009240D01*
X002374Y009240D01*
X002374Y009095D01*
X002169Y008890D01*
X001880Y008890D01*
X001874Y008895D01*
X001874Y007816D01*
X001918Y007881D01*
X002019Y008005D01*
X002130Y008119D01*
X002251Y008222D01*
X002381Y008314D01*
X002519Y008394D01*
X002664Y008460D01*
X002814Y008514D01*
X002968Y008553D01*
X002968Y008553D01*
X003126Y008578D01*
X003285Y008589D01*
X003444Y008586D01*
X003602Y008568D01*
X003758Y008535D01*
X003910Y008489D01*
X003911Y008489D01*
X004058Y008429D01*
X004199Y008355D01*
X004334Y008269D01*
X004459Y008172D01*
X004576Y008063D01*
X004682Y007944D01*
X004777Y007816D01*
X004860Y007680D01*
X004930Y007537D01*
X004986Y007388D01*
X005029Y007235D01*
X005029Y007235D01*
X005058Y007078D01*
X005073Y006919D01*
X005073Y006760D01*
X005058Y006601D01*
X005029Y006445D01*
X004986Y006291D01*
X004930Y006143D01*
X004860Y005999D01*
X004777Y005863D01*
X004682Y005735D01*
X004576Y005616D01*
X004459Y005508D01*
X004334Y005410D01*
X004302Y005390D01*
X004429Y005484D02*
X005724Y005484D01*
X005724Y005582D02*
X004539Y005582D01*
X004576Y005616D02*
X004576Y005616D01*
X004634Y005681D02*
X005724Y005681D01*
X005724Y005780D02*
X004715Y005780D01*
X004682Y005735D02*
X004682Y005735D01*
X004786Y005878D02*
X005724Y005878D01*
X005724Y005977D02*
X004846Y005977D01*
X004897Y006075D02*
X005730Y006075D01*
X005828Y006174D02*
X004941Y006174D01*
X004979Y006272D02*
X006274Y006272D01*
X006176Y006371D02*
X005009Y006371D01*
X005034Y006469D02*
X006149Y006469D01*
X006149Y006397D02*
X006149Y006885D01*
X006131Y006885D01*
X006131Y006808D01*
X006011Y006688D01*
X005841Y006688D01*
X005721Y006808D01*
X005721Y006885D01*
X005645Y006885D01*
X005524Y007005D01*
X005524Y007175D01*
X005645Y007295D01*
X005721Y007295D01*
X005721Y007372D01*
X005809Y007460D01*
X005405Y007460D01*
X005094Y007770D01*
X005094Y008209D01*
X005405Y008520D01*
X005844Y008520D01*
X006154Y008209D01*
X006154Y007770D01*
X005876Y007492D01*
X006011Y007492D01*
X006131Y007372D01*
X006131Y007295D01*
X006149Y007295D01*
X006149Y007582D01*
X006457Y007890D01*
X006892Y007890D01*
X007199Y007582D01*
X007199Y006397D01*
X006892Y006090D01*
X006457Y006090D01*
X006149Y006397D01*
X006149Y006568D02*
X005052Y006568D01*
X005058Y006601D02*
X005058Y006601D01*
X005064Y006666D02*
X006149Y006666D01*
X006149Y006765D02*
X006088Y006765D01*
X006131Y006864D02*
X006149Y006864D01*
X005765Y006765D02*
X005073Y006765D01*
X005073Y006760D02*
X005073Y006760D01*
X005073Y006864D02*
X005721Y006864D01*
X005567Y006962D02*
X005069Y006962D01*
X005073Y006919D02*
X005073Y006919D01*
X005060Y007061D02*
X005524Y007061D01*
X005524Y007159D02*
X005043Y007159D01*
X005058Y007078D02*
X005058Y007078D01*
X005023Y007258D02*
X005607Y007258D01*
X005721Y007356D02*
X004995Y007356D01*
X004986Y007388D02*
X004986Y007388D01*
X004961Y007455D02*
X005804Y007455D01*
X005938Y007553D02*
X006149Y007553D01*
X006149Y007455D02*
X006048Y007455D01*
X006131Y007356D02*
X006149Y007356D01*
X006219Y007652D02*
X006036Y007652D01*
X006135Y007750D02*
X006318Y007750D01*
X006416Y007849D02*
X006154Y007849D01*
X006154Y007948D02*
X008999Y007948D01*
X008999Y008046D02*
X006154Y008046D01*
X006154Y008145D02*
X008999Y008145D01*
X008999Y008243D02*
X006121Y008243D01*
X006022Y008342D02*
X008999Y008342D01*
X008999Y008440D02*
X005923Y008440D01*
X006015Y008858D02*
X006466Y008858D01*
X006466Y008857D01*
X006554Y008769D01*
X007229Y008769D01*
X007300Y008840D01*
X007543Y008840D01*
X007543Y008661D01*
X007631Y008573D01*
X008149Y008573D01*
X008224Y008649D01*
X008300Y008573D01*
X008818Y008573D01*
X008906Y008661D01*
X008906Y009218D01*
X008902Y009222D01*
X009074Y009395D01*
X009074Y009685D01*
X008907Y009852D01*
X008907Y010240D01*
X009069Y010240D01*
X009274Y010445D01*
X009274Y010735D01*
X009169Y010840D01*
X009274Y010945D01*
X009274Y011235D01*
X009069Y011440D01*
X008867Y011440D01*
X008819Y011488D01*
X008478Y011488D01*
X008390Y011400D01*
X008390Y011188D01*
X008374Y011173D01*
X008374Y010957D01*
X008390Y010941D01*
X008390Y010803D01*
X008404Y010790D01*
X008257Y010790D01*
X008159Y010888D01*
X008159Y011400D01*
X008071Y011488D01*
X007730Y011488D01*
X007674Y011432D01*
X007674Y012457D01*
X007674Y012623D01*
X007674Y012730D01*
X007756Y012811D01*
X007756Y013368D01*
X007668Y013456D01*
X007283Y013456D01*
X007283Y013925D01*
X007195Y014013D01*
X006520Y014013D01*
X006432Y013925D01*
X006432Y013407D01*
X006393Y013368D01*
X006393Y012853D01*
X006224Y012685D01*
X006224Y012395D01*
X006430Y012190D01*
X006493Y012190D01*
X006493Y011681D01*
X006580Y011593D01*
X006691Y011593D01*
X006691Y011266D01*
X006779Y011178D01*
X007230Y011178D01*
X007053Y011002D01*
X006779Y011002D01*
X006774Y010997D01*
X006774Y011023D01*
X006657Y011140D01*
X006507Y011290D01*
X006359Y011290D01*
X006274Y011376D01*
X005760Y011376D01*
X005672Y011288D01*
X005672Y010892D01*
X005760Y010804D01*
X006274Y010804D01*
X006351Y010881D01*
X006374Y010857D01*
X006374Y010223D01*
X006374Y010057D01*
X006466Y009966D01*
X006466Y009605D01*
X006480Y009591D01*
X006015Y009591D01*
X005928Y009503D01*
X005928Y008946D01*
X006015Y008858D01*
X005940Y008933D02*
X005124Y008933D01*
X005124Y009031D02*
X005928Y009031D01*
X005928Y009130D02*
X005029Y009130D01*
X004974Y009229D02*
X005928Y009229D01*
X005928Y009327D02*
X004974Y009327D01*
X004974Y009426D02*
X005928Y009426D01*
X005949Y009524D02*
X004974Y009524D01*
X004974Y009623D02*
X006466Y009623D01*
X006466Y009721D02*
X004974Y009721D01*
X005165Y009820D02*
X006466Y009820D01*
X006466Y009918D02*
X005206Y009918D01*
X005206Y010017D02*
X006414Y010017D01*
X006374Y010115D02*
X005595Y010115D01*
X005694Y010214D02*
X006374Y010214D01*
X006374Y010313D02*
X005774Y010313D01*
X005774Y010411D02*
X006374Y010411D01*
X006374Y010510D02*
X005774Y010510D01*
X005751Y010608D02*
X006374Y010608D01*
X006374Y010707D02*
X005652Y010707D01*
X005758Y010805D02*
X005474Y010805D01*
X005474Y010904D02*
X005672Y010904D01*
X005672Y011002D02*
X005474Y011002D01*
X005446Y011101D02*
X005672Y011101D01*
X005672Y011199D02*
X005348Y011199D01*
X005249Y011298D02*
X005682Y011298D01*
X006017Y011090D02*
X006424Y011090D01*
X006574Y010940D01*
X006574Y010140D01*
X006850Y009864D01*
X006891Y009864D01*
X006950Y009864D01*
X006974Y009840D01*
X007024Y009890D01*
X006891Y009864D02*
X006891Y009123D01*
X006898Y009116D01*
X006891Y009116D01*
X006848Y009116D01*
X006774Y009190D01*
X006424Y009190D01*
X006374Y009240D01*
X006274Y009224D01*
X006488Y008834D02*
X005124Y008834D01*
X005116Y008736D02*
X007543Y008736D01*
X007543Y008834D02*
X007295Y008834D01*
X007567Y008637D02*
X005017Y008637D01*
X004774Y008890D02*
X004774Y009990D01*
X004874Y010090D01*
X004874Y010140D01*
X004859Y010140D01*
X004874Y010140D02*
X004859Y010155D01*
X004859Y010740D01*
X004881Y011101D02*
X004331Y011101D01*
X004429Y011199D02*
X004782Y011199D01*
X004759Y011505D02*
X005274Y010990D01*
X005274Y010690D01*
X005424Y010540D01*
X005424Y010440D01*
X005474Y010490D01*
X005474Y010540D01*
X005254Y010115D02*
X005206Y010115D01*
X004554Y009820D02*
X004495Y009820D01*
X004474Y009721D02*
X004574Y009721D01*
X004574Y009623D02*
X004474Y009623D01*
X004404Y009524D02*
X004574Y009524D01*
X004574Y009426D02*
X004324Y009426D01*
X004324Y009327D02*
X004574Y009327D01*
X004574Y009229D02*
X004246Y009229D01*
X004148Y009130D02*
X004520Y009130D01*
X004424Y009031D02*
X004049Y009031D01*
X003950Y008933D02*
X004424Y008933D01*
X004424Y008834D02*
X003856Y008834D01*
X003856Y008736D02*
X004433Y008736D01*
X004532Y008637D02*
X003782Y008637D01*
X003758Y008535D02*
X003758Y008535D01*
X003741Y008539D02*
X009037Y008539D01*
X008999Y008501D02*
X009087Y008589D01*
X010062Y008589D01*
X010150Y008501D01*
X010150Y008390D01*
X010275Y008390D01*
X010405Y008520D01*
X010413Y008520D01*
X009763Y009170D01*
X009604Y009328D01*
X009604Y012178D01*
X009604Y012670D01*
X009586Y012670D01*
X009516Y012740D01*
X009345Y012740D01*
X009345Y012535D01*
X009257Y012447D01*
X008824Y012447D01*
X008824Y012432D01*
X008883Y012432D01*
X008971Y012344D01*
X008971Y011669D01*
X008883Y011581D01*
X008365Y011581D01*
X008278Y011669D01*
X008278Y012344D01*
X008365Y012432D01*
X008424Y012432D01*
X008424Y012447D01*
X007991Y012447D01*
X007904Y012535D01*
X007904Y013211D01*
X007991Y013298D01*
X008303Y013298D01*
X008303Y013947D01*
X008391Y014035D01*
X008525Y014035D01*
X008530Y014040D01*
X008542Y014040D01*
X008707Y014040D01*
X008819Y014040D01*
X008824Y014035D01*
X009027Y014035D01*
X009115Y013947D01*
X009115Y013298D01*
X009257Y013298D01*
X009345Y013211D01*
X009345Y013140D01*
X009516Y013140D01*
X009586Y013210D01*
X009604Y013210D01*
X009604Y013857D01*
X009352Y013857D01*
X009264Y013945D01*
X009264Y016155D01*
X009127Y016155D01*
X009039Y016243D01*
X009039Y017937D01*
X009127Y018025D01*
X010822Y018025D01*
X010909Y017937D01*
X010909Y016804D01*
X011003Y016897D01*
X011179Y016970D01*
X011370Y016970D01*
X011546Y016897D01*
X011681Y016762D01*
X011754Y016585D01*
X011754Y016394D01*
X011681Y016218D01*
X011546Y016083D01*
X011370Y016010D01*
X011179Y016010D01*
X011003Y016083D01*
X010876Y016209D01*
X010822Y016155D01*
X010293Y016155D01*
X010293Y013945D01*
X010205Y013857D01*
X010144Y013857D01*
X010144Y013056D01*
X010148Y013052D01*
X010148Y012828D01*
X010144Y012824D01*
X010144Y012640D01*
X010169Y012640D01*
X010374Y012435D01*
X010374Y012145D01*
X010169Y011940D01*
X010144Y011940D01*
X010144Y009552D01*
X010736Y008960D01*
X012913Y008960D01*
X013136Y008960D01*
X013276Y008820D01*
X013644Y008820D01*
X013774Y008690D01*
X014409Y008690D01*
X014740Y008690D01*
X014790Y008640D01*
X014840Y008640D01*
X014990Y008489D01*
X015362Y008489D01*
X015373Y008479D01*
X015384Y008490D01*
X015308Y008565D01*
X015308Y009083D01*
X015396Y009171D01*
X015511Y009171D01*
X015530Y009190D01*
X015819Y009190D01*
X015838Y009171D01*
X015953Y009171D01*
X016041Y009083D01*
X016041Y008565D01*
X015965Y008490D01*
X016041Y008414D01*
X016041Y007896D01*
X015953Y007808D01*
X015450Y007808D01*
X015450Y007576D01*
X015362Y007489D01*
X014387Y007489D01*
X014299Y007576D01*
X014299Y007890D01*
X013774Y007890D01*
X013644Y007760D01*
X013372Y007760D01*
X013549Y007582D01*
X013549Y006397D01*
X013242Y006090D01*
X012807Y006090D01*
X012499Y006397D01*
X012499Y007582D01*
X012807Y007890D01*
X013075Y007890D01*
X012894Y008070D01*
X012894Y008420D01*
X010944Y008420D01*
X011154Y008209D01*
X011154Y007770D01*
X010844Y007460D01*
X010405Y007460D01*
X010275Y007590D01*
X010063Y007590D01*
X010062Y007589D01*
X009087Y007589D01*
X008999Y007676D01*
X008999Y008501D01*
X008882Y008637D02*
X010295Y008637D01*
X010394Y008539D02*
X010112Y008539D01*
X010150Y008440D02*
X010325Y008440D01*
X010197Y008736D02*
X008906Y008736D01*
X008906Y008834D02*
X010098Y008834D01*
X009999Y008933D02*
X008906Y008933D01*
X008906Y009031D02*
X009901Y009031D01*
X009802Y009130D02*
X008906Y009130D01*
X008908Y009229D02*
X009704Y009229D01*
X009605Y009327D02*
X009007Y009327D01*
X009074Y009426D02*
X009604Y009426D01*
X009604Y009524D02*
X009074Y009524D01*
X009074Y009623D02*
X009604Y009623D01*
X009604Y009721D02*
X009038Y009721D01*
X008939Y009820D02*
X009604Y009820D01*
X009604Y009918D02*
X008907Y009918D01*
X008907Y010017D02*
X009604Y010017D01*
X009604Y010115D02*
X008907Y010115D01*
X008907Y010214D02*
X009604Y010214D01*
X009604Y010313D02*
X009142Y010313D01*
X009241Y010411D02*
X009604Y010411D01*
X009604Y010510D02*
X009274Y010510D01*
X009274Y010608D02*
X009604Y010608D01*
X009604Y010707D02*
X009274Y010707D01*
X009204Y010805D02*
X009604Y010805D01*
X009604Y010904D02*
X009233Y010904D01*
X009274Y011002D02*
X009604Y011002D01*
X009604Y011101D02*
X009274Y011101D01*
X009274Y011199D02*
X009604Y011199D01*
X009604Y011298D02*
X009211Y011298D01*
X009113Y011397D02*
X009604Y011397D01*
X009604Y011495D02*
X007674Y011495D01*
X007674Y011594D02*
X008353Y011594D01*
X008278Y011692D02*
X007674Y011692D01*
X007674Y011791D02*
X008278Y011791D01*
X008278Y011889D02*
X007674Y011889D01*
X007674Y011988D02*
X008278Y011988D01*
X008278Y012086D02*
X007674Y012086D01*
X007674Y012185D02*
X008278Y012185D01*
X008278Y012283D02*
X007674Y012283D01*
X007674Y012382D02*
X008315Y012382D01*
X007958Y012481D02*
X007674Y012481D01*
X007674Y012579D02*
X007904Y012579D01*
X007904Y012678D02*
X007674Y012678D01*
X007721Y012776D02*
X007904Y012776D01*
X007904Y012875D02*
X007756Y012875D01*
X007756Y012973D02*
X007904Y012973D01*
X007904Y013072D02*
X007756Y013072D01*
X007756Y013170D02*
X007904Y013170D01*
X007962Y013269D02*
X007756Y013269D01*
X007756Y013367D02*
X008303Y013367D01*
X008303Y013466D02*
X007283Y013466D01*
X007283Y013564D02*
X008303Y013564D01*
X008303Y013663D02*
X007283Y013663D01*
X007283Y013762D02*
X008303Y013762D01*
X008303Y013860D02*
X007283Y013860D01*
X007249Y013959D02*
X008315Y013959D01*
X008624Y013840D02*
X008674Y013790D01*
X008674Y013690D01*
X008674Y013540D01*
X008709Y013574D01*
X008709Y013590D01*
X008624Y013640D02*
X008674Y013690D01*
X008624Y013640D02*
X008624Y012007D01*
X008971Y011988D02*
X009604Y011988D01*
X009604Y012086D02*
X008971Y012086D01*
X008971Y012185D02*
X009604Y012185D01*
X009604Y012283D02*
X008971Y012283D01*
X008934Y012382D02*
X009604Y012382D01*
X009604Y012481D02*
X009291Y012481D01*
X009345Y012579D02*
X009604Y012579D01*
X009578Y012678D02*
X009345Y012678D01*
X009074Y012940D02*
X009698Y012940D01*
X009874Y012940D02*
X009924Y012940D01*
X009924Y012890D01*
X010148Y012875D02*
X011746Y012875D01*
X011716Y012905D02*
X011804Y012817D01*
X012479Y012817D01*
X012567Y012905D01*
X012567Y013423D01*
X012479Y013511D01*
X011804Y013511D01*
X011745Y013452D01*
X011599Y013598D01*
X011599Y013779D01*
X011509Y013997D01*
X011342Y014164D01*
X011124Y014254D01*
X010888Y014254D01*
X010670Y014164D01*
X010503Y013997D01*
X010413Y013779D01*
X010413Y013543D01*
X010503Y013326D01*
X010670Y013159D01*
X010888Y013069D01*
X011124Y013069D01*
X011342Y013159D01*
X011407Y013224D01*
X011668Y012964D01*
X011716Y012964D01*
X011716Y012905D01*
X011658Y012973D02*
X010148Y012973D01*
X010144Y013072D02*
X010880Y013072D01*
X010659Y013170D02*
X010144Y013170D01*
X010144Y013269D02*
X010560Y013269D01*
X010486Y013367D02*
X010144Y013367D01*
X010144Y013466D02*
X010445Y013466D01*
X010413Y013564D02*
X010144Y013564D01*
X010144Y013663D02*
X010413Y013663D01*
X010413Y013762D02*
X010144Y013762D01*
X010208Y013860D02*
X010447Y013860D01*
X010487Y013959D02*
X010293Y013959D01*
X010293Y014057D02*
X010563Y014057D01*
X010662Y014156D02*
X010293Y014156D01*
X010293Y014254D02*
X012527Y014254D01*
X012472Y014310D02*
X012416Y014446D01*
X011501Y014446D01*
X011336Y014446D01*
X010942Y014840D01*
X010730Y014840D01*
X010524Y015045D01*
X010524Y015335D01*
X010730Y015540D01*
X011019Y015540D01*
X011224Y015335D01*
X011224Y015123D01*
X011501Y014846D01*
X012416Y014846D01*
X012472Y014981D01*
X012574Y015084D01*
X012574Y015624D01*
X012574Y015955D01*
X017309Y020690D01*
X017640Y020690D01*
X019690Y020690D01*
X019924Y020455D01*
X020507Y019872D01*
X020846Y019872D01*
X020806Y019889D01*
X020623Y020072D01*
X020524Y020310D01*
X020524Y020569D01*
X020623Y020808D01*
X020806Y020991D01*
X021045Y021090D01*
X021304Y021090D01*
X021543Y020991D01*
X021726Y020808D01*
X021824Y020569D01*
X021824Y020310D01*
X021726Y020072D01*
X021543Y019889D01*
X021304Y019790D01*
X021237Y019790D01*
X021243Y019785D01*
X021243Y019740D01*
X021340Y019740D01*
X021435Y019645D01*
X022480Y020690D01*
X022769Y020690D01*
X028019Y020690D01*
X028224Y020485D01*
X028837Y019872D01*
X029355Y019872D01*
X029443Y019785D01*
X029443Y019740D01*
X029640Y019740D01*
X029874Y019505D01*
X029874Y018995D01*
X030008Y018861D01*
X030008Y018419D01*
X029879Y018290D01*
X030008Y018161D01*
X030008Y017719D01*
X029696Y017406D01*
X029253Y017406D01*
X029252Y017407D01*
X028502Y017407D01*
X028414Y017495D01*
X028414Y019305D01*
X027730Y019990D01*
X022769Y019990D01*
X021674Y018895D01*
X021708Y018861D01*
X021708Y018419D01*
X021579Y018290D01*
X021708Y018161D01*
X021708Y017719D01*
X021396Y017406D01*
X020953Y017406D01*
X020952Y017407D01*
X020302Y017407D01*
X020214Y017495D01*
X020214Y019034D01*
X019359Y019890D01*
X017640Y019890D01*
X013374Y015624D01*
X013374Y015084D01*
X013477Y014981D01*
X013567Y014764D01*
X013567Y014528D01*
X013477Y014310D01*
X013310Y014143D01*
X013092Y014053D01*
X012857Y014053D01*
X012639Y014143D01*
X012472Y014310D01*
X012454Y014353D02*
X010293Y014353D01*
X010293Y014451D02*
X011330Y014451D01*
X011231Y014550D02*
X010293Y014550D01*
X010293Y014648D02*
X011133Y014648D01*
X011034Y014747D02*
X010293Y014747D01*
X010293Y014846D02*
X010724Y014846D01*
X010625Y014944D02*
X010293Y014944D01*
X010293Y015043D02*
X010527Y015043D01*
X010524Y015141D02*
X010293Y015141D01*
X010293Y015240D02*
X010524Y015240D01*
X010528Y015338D02*
X010293Y015338D01*
X010293Y015437D02*
X010627Y015437D01*
X010725Y015535D02*
X010293Y015535D01*
X010293Y015634D02*
X012574Y015634D01*
X012574Y015732D02*
X010293Y015732D01*
X010293Y015831D02*
X012574Y015831D01*
X012574Y015930D02*
X010293Y015930D01*
X010293Y016028D02*
X011135Y016028D01*
X010959Y016127D02*
X010293Y016127D01*
X011024Y015535D02*
X012574Y015535D01*
X012574Y015437D02*
X011122Y015437D01*
X011221Y015338D02*
X012574Y015338D01*
X012574Y015240D02*
X011224Y015240D01*
X011224Y015141D02*
X012574Y015141D01*
X012533Y015043D02*
X011304Y015043D01*
X011403Y014944D02*
X012456Y014944D01*
X012974Y014646D02*
X011419Y014646D01*
X010874Y015190D01*
X011414Y016028D02*
X012647Y016028D01*
X012746Y016127D02*
X011590Y016127D01*
X011684Y016225D02*
X012844Y016225D01*
X012943Y016324D02*
X011725Y016324D01*
X011754Y016422D02*
X013041Y016422D01*
X013140Y016521D02*
X011754Y016521D01*
X011740Y016619D02*
X013238Y016619D01*
X013337Y016718D02*
X011699Y016718D01*
X011627Y016816D02*
X013436Y016816D01*
X013534Y016915D02*
X011502Y016915D01*
X011047Y016915D02*
X010909Y016915D01*
X010909Y017014D02*
X013633Y017014D01*
X013731Y017112D02*
X010909Y017112D01*
X010909Y017211D02*
X013830Y017211D01*
X013928Y017309D02*
X010909Y017309D01*
X010909Y017408D02*
X014027Y017408D01*
X014125Y017506D02*
X010909Y017506D01*
X010909Y017605D02*
X014224Y017605D01*
X014322Y017703D02*
X010909Y017703D01*
X010909Y017802D02*
X014421Y017802D01*
X014519Y017900D02*
X010909Y017900D01*
X010847Y017999D02*
X013528Y017999D01*
X013506Y018021D02*
X013594Y017933D01*
X013955Y017933D01*
X014043Y018021D01*
X014043Y018783D01*
X014168Y018908D01*
X014533Y018908D01*
X014621Y018996D01*
X014621Y019526D01*
X014641Y019546D01*
X014641Y020064D01*
X014565Y020140D01*
X014641Y020215D01*
X014641Y020733D01*
X014553Y020821D01*
X014438Y020821D01*
X014419Y020840D01*
X014130Y020840D01*
X014111Y020821D01*
X014044Y020821D01*
X014044Y021115D01*
X014124Y021195D01*
X014124Y021485D01*
X013919Y021690D01*
X013630Y021690D01*
X013424Y021485D01*
X013424Y021195D01*
X013504Y021115D01*
X013504Y021097D01*
X013455Y021146D01*
X013094Y021146D01*
X013024Y021077D01*
X012955Y021146D01*
X012594Y021146D01*
X012524Y021077D01*
X012455Y021146D01*
X012094Y021146D01*
X012006Y021059D01*
X012006Y020068D01*
X012094Y019980D01*
X012455Y019980D01*
X012524Y020050D01*
X012594Y019980D01*
X012955Y019980D01*
X013024Y020050D01*
X013094Y019980D01*
X013455Y019980D01*
X013524Y020050D01*
X013594Y019980D01*
X013908Y019980D01*
X013908Y019546D01*
X013928Y019526D01*
X013928Y019318D01*
X013709Y019099D01*
X013594Y019099D01*
X013506Y019011D01*
X013506Y018021D01*
X013506Y018097D02*
X008462Y018097D01*
X008524Y018035D02*
X008524Y017745D01*
X008319Y017540D01*
X008030Y017540D01*
X007824Y017745D01*
X007824Y018007D01*
X006874Y018957D01*
X006874Y019123D01*
X006874Y019445D01*
X006724Y019595D01*
X006724Y019885D01*
X006930Y020090D01*
X007219Y020090D01*
X007424Y019885D01*
X007424Y019595D01*
X007274Y019445D01*
X007274Y019123D01*
X008157Y018240D01*
X008319Y018240D01*
X008524Y018035D01*
X008524Y017999D02*
X009102Y017999D01*
X009039Y017900D02*
X008524Y017900D01*
X008524Y017802D02*
X009039Y017802D01*
X009039Y017703D02*
X008483Y017703D01*
X008384Y017605D02*
X009039Y017605D01*
X009039Y017506D02*
X006374Y017506D01*
X006374Y017408D02*
X009039Y017408D01*
X009039Y017309D02*
X006374Y017309D01*
X006374Y017211D02*
X009039Y017211D01*
X009039Y017112D02*
X006374Y017112D01*
X006374Y017014D02*
X009039Y017014D01*
X009039Y016915D02*
X006374Y016915D01*
X006374Y016816D02*
X009039Y016816D01*
X009039Y016718D02*
X006374Y016718D01*
X006374Y016619D02*
X009039Y016619D01*
X009039Y016521D02*
X006374Y016521D01*
X006374Y016422D02*
X009039Y016422D01*
X009039Y016324D02*
X006374Y016324D01*
X006343Y016225D02*
X009057Y016225D01*
X009264Y016127D02*
X006244Y016127D01*
X006146Y016028D02*
X009264Y016028D01*
X009264Y015930D02*
X006047Y015930D01*
X005949Y015831D02*
X009264Y015831D01*
X009264Y015732D02*
X005850Y015732D01*
X005751Y015634D02*
X009264Y015634D01*
X009264Y015535D02*
X005653Y015535D01*
X005574Y015437D02*
X009264Y015437D01*
X009264Y015338D02*
X006471Y015338D01*
X006569Y015240D02*
X009264Y015240D01*
X009264Y015141D02*
X006668Y015141D01*
X006674Y015043D02*
X009264Y015043D01*
X009264Y014944D02*
X006674Y014944D01*
X006674Y014846D02*
X009264Y014846D01*
X009264Y014747D02*
X006577Y014747D01*
X006478Y014648D02*
X009264Y014648D01*
X009264Y014550D02*
X006374Y014550D01*
X006374Y014451D02*
X009264Y014451D01*
X009264Y014353D02*
X006374Y014353D01*
X006417Y014254D02*
X009264Y014254D01*
X009264Y014156D02*
X006417Y014156D01*
X006417Y014057D02*
X009264Y014057D01*
X009264Y013959D02*
X009104Y013959D01*
X009115Y013860D02*
X009349Y013860D01*
X009115Y013762D02*
X009604Y013762D01*
X009604Y013663D02*
X009115Y013663D01*
X009115Y013564D02*
X009604Y013564D01*
X009604Y013466D02*
X009115Y013466D01*
X009115Y013367D02*
X009604Y013367D01*
X009604Y013269D02*
X009287Y013269D01*
X009345Y013170D02*
X009547Y013170D01*
X009074Y012940D02*
X009008Y012873D01*
X008998Y012873D01*
X008424Y013090D02*
X008274Y012940D01*
X008274Y012890D01*
X008258Y012873D01*
X008250Y012873D01*
X007974Y013590D02*
X007974Y013690D01*
X007474Y013090D02*
X007398Y013014D01*
X007409Y013090D02*
X007424Y013090D01*
X007474Y013040D01*
X007474Y012540D01*
X006574Y012540D01*
X006316Y012776D02*
X005574Y012776D01*
X005574Y012678D02*
X006224Y012678D01*
X006224Y012579D02*
X005574Y012579D01*
X005574Y012481D02*
X006224Y012481D01*
X006237Y012382D02*
X005574Y012382D01*
X005574Y012283D02*
X006336Y012283D01*
X006493Y012185D02*
X005502Y012185D01*
X005404Y012086D02*
X006493Y012086D01*
X006493Y011988D02*
X005305Y011988D01*
X005207Y011889D02*
X006493Y011889D01*
X006493Y011791D02*
X005108Y011791D01*
X005106Y011692D02*
X006493Y011692D01*
X006580Y011594D02*
X005106Y011594D01*
X005106Y011495D02*
X006691Y011495D01*
X006691Y011397D02*
X005150Y011397D01*
X004759Y011505D02*
X004740Y011640D01*
X004740Y011674D01*
X004724Y011690D01*
X005374Y012340D01*
X005374Y015540D01*
X006174Y016340D01*
X006174Y018840D01*
X006474Y019140D01*
X006218Y019379D02*
X004624Y019379D01*
X004624Y019426D02*
X004624Y018453D01*
X004361Y018190D01*
X003988Y018190D01*
X003724Y018453D01*
X003724Y019426D01*
X003988Y019690D01*
X004361Y019690D01*
X004624Y019426D01*
X004574Y019477D02*
X006317Y019477D01*
X006124Y019280D02*
X004624Y019280D01*
X004624Y019181D02*
X006124Y019181D01*
X006124Y019083D02*
X004624Y019083D01*
X004624Y018984D02*
X006036Y018984D01*
X005974Y018886D02*
X004624Y018886D01*
X004624Y018787D02*
X005974Y018787D01*
X005974Y018689D02*
X004624Y018689D01*
X004624Y018590D02*
X005974Y018590D01*
X005974Y018492D02*
X004624Y018492D01*
X004564Y018393D02*
X005974Y018393D01*
X005974Y018295D02*
X004466Y018295D01*
X004367Y018196D02*
X005974Y018196D01*
X005974Y018097D02*
X001874Y018097D01*
X001874Y017999D02*
X003802Y017999D01*
X003827Y018025D02*
X005522Y018025D01*
X005609Y017937D01*
X005609Y016243D01*
X005522Y016155D01*
X003827Y016155D01*
X003739Y016243D01*
X003739Y016440D01*
X003735Y016440D01*
X003718Y016423D01*
X003200Y016423D01*
X003112Y016511D01*
X003112Y016642D01*
X003109Y016645D01*
X003109Y016935D01*
X003112Y016938D01*
X003112Y017068D01*
X003200Y017156D01*
X003718Y017156D01*
X003735Y017140D01*
X003739Y017140D01*
X003739Y017937D01*
X003827Y018025D01*
X003739Y017900D02*
X001874Y017900D01*
X001874Y017802D02*
X003739Y017802D01*
X003739Y017703D02*
X001874Y017703D01*
X001874Y017605D02*
X003739Y017605D01*
X003739Y017506D02*
X001874Y017506D01*
X001874Y017408D02*
X003739Y017408D01*
X003739Y017309D02*
X001874Y017309D01*
X001874Y017211D02*
X003739Y017211D01*
X003156Y017112D02*
X001874Y017112D01*
X001874Y017014D02*
X003112Y017014D01*
X003109Y016915D02*
X001874Y016915D01*
X001874Y016816D02*
X003109Y016816D01*
X003109Y016718D02*
X001874Y016718D01*
X001874Y016619D02*
X003112Y016619D01*
X003112Y016521D02*
X001874Y016521D01*
X001874Y016422D02*
X003739Y016422D01*
X003739Y016324D02*
X001874Y016324D01*
X001874Y016225D02*
X003757Y016225D01*
X004374Y015732D02*
X001874Y015732D01*
X001874Y015634D02*
X003236Y015634D01*
X003137Y015535D02*
X001874Y015535D01*
X001874Y015437D02*
X003039Y015437D01*
X003124Y015523D02*
X003124Y015523D01*
X003324Y015440D02*
X004574Y015440D01*
X004724Y015590D01*
X004471Y015831D02*
X001874Y015831D01*
X001874Y015930D02*
X004569Y015930D01*
X004880Y015930D02*
X005481Y015930D01*
X005580Y016028D02*
X001874Y016028D01*
X001874Y016127D02*
X005679Y016127D01*
X005592Y016225D02*
X005777Y016225D01*
X005876Y016324D02*
X005609Y016324D01*
X005609Y016422D02*
X005974Y016422D01*
X005974Y016521D02*
X005609Y016521D01*
X005609Y016619D02*
X005974Y016619D01*
X005974Y016718D02*
X005609Y016718D01*
X005609Y016816D02*
X005974Y016816D01*
X005974Y016915D02*
X005609Y016915D01*
X005609Y017014D02*
X005974Y017014D01*
X005974Y017112D02*
X005609Y017112D01*
X005609Y017211D02*
X005974Y017211D01*
X005974Y017309D02*
X005609Y017309D01*
X005609Y017408D02*
X005974Y017408D01*
X005974Y017506D02*
X005609Y017506D01*
X005609Y017605D02*
X005974Y017605D01*
X005974Y017703D02*
X005609Y017703D01*
X005609Y017802D02*
X005974Y017802D01*
X005974Y017900D02*
X005609Y017900D01*
X005547Y017999D02*
X005974Y017999D01*
X006374Y017999D02*
X007824Y017999D01*
X007824Y017900D02*
X006374Y017900D01*
X006374Y017802D02*
X007824Y017802D01*
X007866Y017703D02*
X006374Y017703D01*
X006374Y017605D02*
X007965Y017605D01*
X008174Y017890D02*
X008174Y017940D01*
X007074Y019040D01*
X007074Y019740D01*
X006810Y019970D02*
X002537Y019970D01*
X002537Y020068D02*
X006908Y020068D01*
X006724Y019871D02*
X002537Y019871D01*
X002537Y019773D02*
X006724Y019773D01*
X006724Y019674D02*
X004376Y019674D01*
X004475Y019576D02*
X006744Y019576D01*
X006842Y019477D02*
X006632Y019477D01*
X006731Y019379D02*
X006874Y019379D01*
X006874Y019280D02*
X006824Y019280D01*
X006824Y019181D02*
X006874Y019181D01*
X006874Y019083D02*
X006824Y019083D01*
X006814Y018984D02*
X006874Y018984D01*
X006946Y018886D02*
X006715Y018886D01*
X006405Y018787D02*
X007044Y018787D01*
X007143Y018689D02*
X006374Y018689D01*
X006374Y018590D02*
X007241Y018590D01*
X007340Y018492D02*
X006374Y018492D01*
X006374Y018393D02*
X007438Y018393D01*
X007537Y018295D02*
X006374Y018295D01*
X006374Y018196D02*
X007635Y018196D01*
X007734Y018097D02*
X006374Y018097D01*
X007511Y018886D02*
X013506Y018886D01*
X013506Y018984D02*
X007413Y018984D01*
X007314Y019083D02*
X013578Y019083D01*
X013791Y019181D02*
X007274Y019181D01*
X007274Y019280D02*
X013889Y019280D01*
X013928Y019379D02*
X007274Y019379D01*
X007307Y019477D02*
X013928Y019477D01*
X013908Y019576D02*
X007405Y019576D01*
X007424Y019674D02*
X013908Y019674D01*
X013908Y019773D02*
X007424Y019773D01*
X007424Y019871D02*
X013908Y019871D01*
X013908Y019970D02*
X007339Y019970D01*
X007241Y020068D02*
X011038Y020068D01*
X011003Y020083D02*
X010868Y020218D01*
X010794Y020394D01*
X010794Y020475D01*
X010215Y021055D01*
X009127Y021055D01*
X009039Y021143D01*
X009039Y022330D01*
X008930Y022440D01*
X008419Y022440D01*
X008130Y022440D01*
X007973Y022596D01*
X007458Y022596D01*
X007370Y022684D01*
X007370Y023596D01*
X007458Y023683D01*
X008172Y023683D01*
X008260Y023596D01*
X008260Y023299D01*
X008419Y023140D01*
X009219Y023140D01*
X009424Y022935D01*
X009434Y022925D01*
X010822Y022925D01*
X010909Y022837D01*
X010909Y021350D01*
X011289Y020970D01*
X011370Y020970D01*
X011546Y020897D01*
X011681Y020762D01*
X011754Y020585D01*
X011754Y020394D01*
X011681Y020218D01*
X011546Y020083D01*
X011370Y020010D01*
X011179Y020010D01*
X011003Y020083D01*
X010919Y020167D02*
X002537Y020167D01*
X002537Y020265D02*
X003854Y020265D01*
X004195Y020265D02*
X010848Y020265D01*
X010807Y020364D02*
X004294Y020364D01*
X004374Y020463D02*
X010794Y020463D01*
X010708Y020561D02*
X004374Y020561D01*
X004374Y020660D02*
X010610Y020660D01*
X010511Y020758D02*
X005625Y020758D01*
X005709Y020857D02*
X010413Y020857D01*
X010314Y020955D02*
X005709Y020955D01*
X005709Y021054D02*
X010216Y021054D01*
X010910Y021349D02*
X013424Y021349D01*
X013424Y021251D02*
X011008Y021251D01*
X011107Y021152D02*
X013467Y021152D01*
X013424Y021448D02*
X010909Y021448D01*
X010909Y021546D02*
X013486Y021546D01*
X013585Y021645D02*
X010909Y021645D01*
X010909Y021744D02*
X032274Y021744D01*
X032274Y021842D02*
X031946Y021842D01*
X031894Y021790D02*
X031355Y021790D01*
X030974Y022171D01*
X030974Y022709D01*
X031355Y023090D01*
X031894Y023090D01*
X032274Y022709D01*
X032274Y022171D01*
X031894Y021790D01*
X032045Y021941D02*
X032274Y021941D01*
X032274Y022039D02*
X032143Y022039D01*
X032242Y022138D02*
X032274Y022138D01*
X032274Y022236D02*
X032274Y022236D01*
X032274Y022335D02*
X032274Y022335D01*
X032274Y022433D02*
X032274Y022433D01*
X032274Y022532D02*
X032274Y022532D01*
X032274Y022630D02*
X032274Y022630D01*
X032274Y022729D02*
X032254Y022729D01*
X032274Y022828D02*
X032156Y022828D01*
X032057Y022926D02*
X032274Y022926D01*
X032274Y023025D02*
X031959Y023025D01*
X032274Y023123D02*
X029850Y023123D01*
X029850Y023110D02*
X029733Y022993D01*
X029687Y022947D01*
X029579Y022840D01*
X029414Y022840D01*
X029277Y022976D01*
X029276Y022975D01*
X029269Y022968D01*
X029217Y022916D01*
X029142Y022842D01*
X029141Y022840D01*
X028987Y022840D01*
X028821Y022840D01*
X028745Y022916D01*
X028723Y022938D01*
X028702Y022916D01*
X028702Y022916D01*
X028627Y022842D01*
X028625Y022840D01*
X028471Y022840D01*
X028306Y022840D01*
X028112Y023034D01*
X028112Y023070D01*
X027747Y023070D01*
X027670Y022993D01*
X027517Y022840D01*
X027351Y022840D01*
X027234Y022957D01*
X027215Y022976D01*
X027213Y022975D01*
X027210Y022972D01*
X027155Y022916D01*
X027080Y022842D01*
X027078Y022840D01*
X026925Y022840D01*
X026759Y022840D01*
X026699Y022900D01*
X026639Y022840D01*
X026167Y022840D01*
X026049Y022957D01*
X026049Y023123D01*
X026120Y023193D01*
X026049Y023264D01*
X026049Y023429D01*
X026203Y023583D01*
X026256Y023636D01*
X026261Y023641D01*
X026299Y023679D01*
X026320Y023700D01*
X026486Y023700D01*
X026603Y023583D01*
X026603Y023544D01*
X026642Y023583D01*
X026759Y023700D01*
X026912Y023700D01*
X027078Y023700D01*
X027138Y023640D01*
X027198Y023700D01*
X027364Y023700D01*
X027434Y023629D01*
X027505Y023700D01*
X027670Y023700D01*
X027788Y023583D01*
X027788Y023470D01*
X028112Y023470D01*
X028112Y023506D01*
X028189Y023583D01*
X028247Y023641D01*
X028247Y023641D01*
X028258Y023653D01*
X028306Y023700D01*
X028459Y023700D01*
X028625Y023700D01*
X028702Y023623D01*
X028723Y023602D01*
X028761Y023639D01*
X028763Y023641D01*
X028795Y023674D01*
X028821Y023700D01*
X028975Y023700D01*
X029141Y023700D01*
X029201Y023640D01*
X029260Y023700D01*
X029426Y023700D01*
X029497Y023629D01*
X029567Y023700D01*
X029733Y023700D01*
X029850Y023583D01*
X029850Y023110D01*
X029850Y023222D02*
X032274Y023222D01*
X032274Y023320D02*
X029850Y023320D01*
X029850Y023419D02*
X032274Y023419D01*
X032274Y023517D02*
X029850Y023517D01*
X029817Y023616D02*
X032274Y023616D01*
X032274Y023714D02*
X001874Y023714D01*
X001874Y023616D02*
X006209Y023616D01*
X006189Y023517D02*
X003834Y023517D01*
X003893Y023419D02*
X006189Y023419D01*
X006189Y023320D02*
X003893Y023320D01*
X003893Y023222D02*
X006162Y023222D01*
X006141Y023201D02*
X006141Y023201D01*
X006063Y023123D02*
X003903Y023123D01*
X003934Y023025D02*
X005964Y023025D01*
X006024Y023085D02*
X006024Y023085D01*
X005866Y022926D02*
X003968Y022926D01*
X004025Y022828D02*
X005767Y022828D01*
X005669Y022729D02*
X004124Y022729D01*
X004222Y022630D02*
X005570Y022630D01*
X006067Y022138D02*
X009039Y022138D01*
X009039Y022236D02*
X006166Y022236D01*
X006264Y022335D02*
X009034Y022335D01*
X008936Y022433D02*
X006363Y022433D01*
X006462Y022532D02*
X008037Y022532D01*
X007423Y022630D02*
X007026Y022630D01*
X007079Y022729D02*
X007370Y022729D01*
X007370Y022828D02*
X007079Y022828D01*
X007079Y022926D02*
X007370Y022926D01*
X007370Y023025D02*
X007079Y023025D01*
X007079Y023123D02*
X007370Y023123D01*
X007370Y023222D02*
X007079Y023222D01*
X007079Y023320D02*
X007370Y023320D01*
X007370Y023419D02*
X007079Y023419D01*
X007079Y023517D02*
X007370Y023517D01*
X007390Y023616D02*
X007059Y023616D01*
X008240Y023616D02*
X011657Y023616D01*
X011624Y023583D02*
X011742Y023700D01*
X011972Y023700D01*
X012137Y023700D01*
X012214Y023623D01*
X012312Y023525D01*
X012334Y023547D01*
X012500Y023547D01*
X012653Y023547D01*
X012713Y023487D01*
X012773Y023547D01*
X012939Y023547D01*
X013009Y023476D01*
X013080Y023547D01*
X013245Y023547D01*
X013305Y023487D01*
X013307Y023488D01*
X013334Y023516D01*
X013365Y023547D01*
X013519Y023547D01*
X013684Y023547D01*
X013744Y023487D01*
X013804Y023547D01*
X013958Y023547D01*
X014200Y023547D01*
X014317Y023429D01*
X014317Y023264D01*
X014200Y023147D01*
X014123Y023147D01*
X014087Y023110D01*
X014087Y022957D01*
X013970Y022840D01*
X013804Y022840D01*
X013744Y022900D01*
X013684Y022840D01*
X013531Y022840D01*
X013365Y022840D01*
X013289Y022916D01*
X013267Y022938D01*
X013245Y022916D01*
X013169Y022840D01*
X013003Y022840D01*
X012850Y022840D01*
X012751Y022938D01*
X012730Y022916D01*
X012653Y022840D01*
X012500Y022840D01*
X012334Y022840D01*
X012159Y023015D01*
X012137Y022993D01*
X012024Y022993D01*
X012024Y022957D01*
X011907Y022840D01*
X011742Y022840D01*
X011624Y022957D01*
X011624Y023110D01*
X011624Y023276D01*
X011624Y023417D01*
X011624Y023583D01*
X011624Y023517D02*
X008260Y023517D01*
X008260Y023419D02*
X011624Y023419D01*
X011624Y023320D02*
X008260Y023320D01*
X008337Y023222D02*
X011624Y023222D01*
X011624Y023123D02*
X009236Y023123D01*
X009334Y023025D02*
X011624Y023025D01*
X011655Y022926D02*
X009433Y022926D01*
X009039Y022039D02*
X005969Y022039D01*
X005870Y021941D02*
X009039Y021941D01*
X009039Y021842D02*
X005772Y021842D01*
X005709Y021744D02*
X009039Y021744D01*
X009039Y021645D02*
X005709Y021645D01*
X005709Y021546D02*
X009039Y021546D01*
X009039Y021448D02*
X005709Y021448D01*
X005709Y021349D02*
X009039Y021349D01*
X009039Y021251D02*
X005709Y021251D01*
X005709Y021152D02*
X009039Y021152D01*
X010909Y021842D02*
X012239Y021842D01*
X012242Y021840D02*
X012124Y021957D01*
X012124Y022187D01*
X012124Y022353D01*
X012124Y022429D01*
X012278Y022583D01*
X012332Y022637D01*
X012336Y022641D01*
X012371Y022676D01*
X012395Y022700D01*
X012561Y022700D01*
X012659Y022602D01*
X012757Y022700D01*
X012987Y022700D01*
X013153Y022700D01*
X013213Y022640D01*
X013273Y022700D01*
X013503Y022700D01*
X013669Y022700D01*
X013729Y022640D01*
X013789Y022700D01*
X014261Y022700D01*
X014378Y022583D01*
X014378Y022544D01*
X014381Y022547D01*
X014534Y022547D01*
X014700Y022547D01*
X014777Y022470D01*
X014798Y022448D01*
X014896Y022547D01*
X015050Y022547D01*
X015216Y022547D01*
X015276Y022487D01*
X015335Y022547D01*
X015412Y022547D01*
X015566Y022547D01*
X015731Y022547D01*
X015925Y022353D01*
X015925Y022187D01*
X015925Y021957D01*
X015808Y021840D01*
X015654Y021840D01*
X015489Y021840D01*
X015335Y021840D01*
X015314Y021861D01*
X015292Y021840D01*
X015062Y021840D01*
X014896Y021840D01*
X014820Y021916D01*
X014798Y021938D01*
X014700Y021840D01*
X014546Y021840D01*
X014381Y021840D01*
X014304Y021916D01*
X014225Y021996D01*
X014225Y021957D01*
X014108Y021840D01*
X013942Y021840D01*
X013825Y021957D01*
X013825Y021996D01*
X013804Y021975D01*
X013800Y021971D01*
X013745Y021916D01*
X013671Y021842D01*
X013940Y021842D01*
X013841Y021941D02*
X013770Y021941D01*
X013745Y021916D02*
X013745Y021916D01*
X013671Y021842D02*
X013669Y021840D01*
X013273Y021840D01*
X013156Y021957D01*
X013156Y021996D01*
X013153Y021993D01*
X013040Y021993D01*
X013040Y021957D01*
X012923Y021840D01*
X012757Y021840D01*
X012736Y021861D01*
X012714Y021840D01*
X012549Y021840D01*
X012478Y021910D01*
X012407Y021840D01*
X012242Y021840D01*
X012141Y021941D02*
X010909Y021941D01*
X010909Y022039D02*
X012124Y022039D01*
X012124Y022138D02*
X010909Y022138D01*
X010909Y022236D02*
X012124Y022236D01*
X012124Y022335D02*
X010909Y022335D01*
X010909Y022433D02*
X012128Y022433D01*
X012227Y022532D02*
X010909Y022532D01*
X010909Y022630D02*
X012325Y022630D01*
X012278Y022583D02*
X012278Y022583D01*
X012478Y022500D02*
X012631Y022347D01*
X012631Y022040D01*
X012840Y022040D02*
X012840Y022500D01*
X013070Y022500D01*
X013147Y022423D01*
X013147Y022270D01*
X013070Y022193D01*
X012840Y022193D01*
X012631Y022270D02*
X012324Y022270D01*
X012324Y022347D02*
X012478Y022500D01*
X012630Y022630D02*
X012688Y022630D01*
X012730Y022916D02*
X012730Y022916D01*
X012739Y022926D02*
X012763Y022926D01*
X012932Y023040D02*
X013009Y023116D01*
X013086Y023040D01*
X013163Y023116D01*
X013163Y023347D01*
X013275Y023517D02*
X013336Y023517D01*
X013448Y023347D02*
X013601Y023347D01*
X013678Y023270D01*
X013678Y023193D01*
X013371Y023193D01*
X013371Y023116D02*
X013371Y023270D01*
X013448Y023347D01*
X013371Y023116D02*
X013448Y023040D01*
X013601Y023040D01*
X013887Y023040D02*
X013887Y023347D01*
X014040Y023347D02*
X013887Y023193D01*
X014040Y023347D02*
X014117Y023347D01*
X014275Y023222D02*
X014632Y023222D01*
X014632Y023187D02*
X014632Y023353D01*
X014768Y023488D01*
X014826Y023547D01*
X014992Y023547D01*
X015222Y023547D01*
X015244Y023525D01*
X015265Y023547D01*
X015431Y023547D01*
X015501Y023476D01*
X015572Y023547D01*
X015738Y023547D01*
X015759Y023525D01*
X015781Y023547D01*
X016011Y023547D01*
X016177Y023547D01*
X016236Y023487D01*
X016296Y023547D01*
X016527Y023547D01*
X016692Y023547D01*
X016695Y023544D01*
X016695Y023583D01*
X016812Y023700D01*
X016889Y023700D01*
X017054Y023700D01*
X017171Y023583D01*
X017171Y023547D01*
X017321Y023547D01*
X017392Y023476D01*
X017463Y023547D01*
X017628Y023547D01*
X017745Y023429D01*
X017745Y023046D01*
X017745Y022880D01*
X017669Y022804D01*
X017565Y022700D01*
X017628Y022700D01*
X017794Y022700D01*
X017854Y022640D01*
X017914Y022700D01*
X018144Y022700D01*
X018309Y022700D01*
X018386Y022623D01*
X018503Y022506D01*
X018503Y022353D01*
X018503Y022187D01*
X018427Y022110D01*
X018309Y021993D01*
X018196Y021993D01*
X018196Y021957D01*
X018079Y021840D01*
X017914Y021840D01*
X017796Y021957D01*
X017796Y021996D01*
X017794Y021993D01*
X017681Y021993D01*
X017681Y021957D01*
X017564Y021840D01*
X017398Y021840D01*
X017281Y021957D01*
X017281Y022110D01*
X017281Y022276D01*
X017281Y022417D01*
X017281Y022583D01*
X017384Y022686D01*
X017309Y022686D01*
X017192Y022804D01*
X017192Y022880D01*
X017182Y022890D01*
X017131Y022840D01*
X016812Y022840D01*
X016752Y022900D01*
X016694Y022842D01*
X016692Y022840D01*
X016579Y022840D01*
X016579Y022804D01*
X016462Y022686D01*
X016296Y022686D01*
X016179Y022804D01*
X016179Y022842D01*
X016178Y022842D01*
X016177Y022840D01*
X016064Y022840D01*
X016064Y022804D01*
X015946Y022686D01*
X015781Y022686D01*
X015664Y022804D01*
X015664Y022840D01*
X015572Y022840D01*
X015342Y022840D01*
X015244Y022938D01*
X015222Y022916D01*
X015145Y022840D01*
X014980Y022840D01*
X014749Y022840D01*
X014632Y022957D01*
X014632Y023123D01*
X014665Y023155D01*
X014634Y023185D01*
X014632Y023187D01*
X014633Y023123D02*
X014100Y023123D01*
X014087Y023025D02*
X014632Y023025D01*
X014663Y022926D02*
X014056Y022926D01*
X014331Y022630D02*
X017328Y022630D01*
X017281Y022532D02*
X015746Y022532D01*
X015844Y022433D02*
X016330Y022433D01*
X016367Y022470D02*
X016250Y022353D01*
X016250Y022187D01*
X016367Y022070D01*
X016839Y022070D01*
X016956Y022187D01*
X016956Y022353D01*
X016839Y022470D01*
X016367Y022470D01*
X016250Y022335D02*
X015925Y022335D01*
X015925Y022236D02*
X016250Y022236D01*
X016299Y022138D02*
X015925Y022138D01*
X015925Y022039D02*
X017281Y022039D01*
X017281Y022138D02*
X016907Y022138D01*
X016956Y022236D02*
X017281Y022236D01*
X017281Y022335D02*
X016956Y022335D01*
X016876Y022433D02*
X017281Y022433D01*
X017481Y022500D02*
X017481Y022040D01*
X017481Y022193D02*
X017711Y022193D01*
X017788Y022270D01*
X017788Y022423D01*
X017711Y022500D01*
X017481Y022500D01*
X017594Y022729D02*
X020545Y022729D01*
X020524Y022709D02*
X020905Y023090D01*
X021444Y023090D01*
X021824Y022709D01*
X021824Y022171D01*
X021444Y021790D01*
X020905Y021790D01*
X020524Y022171D01*
X020524Y022709D01*
X020524Y022630D02*
X018379Y022630D01*
X018478Y022532D02*
X020524Y022532D01*
X020524Y022433D02*
X018503Y022433D01*
X018503Y022335D02*
X020524Y022335D01*
X020524Y022236D02*
X018503Y022236D01*
X018454Y022138D02*
X020557Y022138D01*
X020656Y022039D02*
X018355Y022039D01*
X018180Y021941D02*
X020754Y021941D01*
X020853Y021842D02*
X018082Y021842D01*
X017911Y021842D02*
X017566Y021842D01*
X017664Y021941D02*
X017813Y021941D01*
X017996Y022040D02*
X017996Y022500D01*
X018227Y022500D01*
X018303Y022423D01*
X018303Y022270D01*
X018227Y022193D01*
X017996Y022193D01*
X017396Y021842D02*
X015810Y021842D01*
X015909Y021941D02*
X017297Y021941D01*
X016756Y022270D02*
X016449Y022270D01*
X016505Y022729D02*
X017266Y022729D01*
X017192Y022828D02*
X016579Y022828D01*
X016379Y022886D02*
X016379Y023347D01*
X016609Y023347D01*
X016686Y023270D01*
X016686Y023116D01*
X016609Y023040D01*
X016379Y023040D01*
X016170Y023116D02*
X016094Y023040D01*
X015864Y023040D01*
X015864Y022886D02*
X015864Y023347D01*
X016094Y023347D01*
X016170Y023270D01*
X016170Y023116D01*
X016179Y022828D02*
X016064Y022828D01*
X015989Y022729D02*
X016254Y022729D01*
X015738Y022729D02*
X010909Y022729D01*
X010909Y022828D02*
X015664Y022828D01*
X015655Y023040D02*
X015655Y023347D01*
X015543Y023517D02*
X015460Y023517D01*
X015348Y023347D02*
X015348Y023116D01*
X015425Y023040D01*
X015655Y023040D01*
X015256Y022926D02*
X015232Y022926D01*
X015222Y022916D02*
X015222Y022916D01*
X015062Y023040D02*
X015139Y023116D01*
X015062Y023193D01*
X014909Y023193D01*
X014832Y023270D01*
X014909Y023347D01*
X015139Y023347D01*
X015062Y023040D02*
X014832Y023040D01*
X014632Y023320D02*
X014317Y023320D01*
X014317Y023419D02*
X014698Y023419D01*
X014797Y023517D02*
X014229Y023517D01*
X013775Y023517D02*
X013714Y023517D01*
X013051Y023517D02*
X012968Y023517D01*
X012856Y023347D02*
X012856Y023116D01*
X012932Y023040D01*
X012647Y023116D02*
X012647Y023270D01*
X012570Y023347D01*
X012417Y023347D01*
X012340Y023270D01*
X012340Y023116D01*
X012417Y023040D01*
X012570Y023040D01*
X012647Y023116D01*
X013245Y022916D02*
X013245Y022916D01*
X013255Y022926D02*
X013279Y022926D01*
X013356Y022500D02*
X013586Y022500D01*
X013663Y022423D01*
X013663Y022347D01*
X013586Y022270D01*
X013356Y022270D01*
X013586Y022270D02*
X013663Y022193D01*
X013663Y022116D01*
X013586Y022040D01*
X013356Y022040D01*
X013356Y022500D01*
X013871Y022500D02*
X014178Y022500D01*
X014025Y022500D02*
X014025Y022040D01*
X014209Y021941D02*
X014280Y021941D01*
X014379Y021842D02*
X014110Y021842D01*
X013964Y021645D02*
X014613Y021645D01*
X014610Y021641D02*
X014668Y021700D01*
X014834Y021700D01*
X014987Y021700D01*
X015086Y021602D01*
X015124Y021640D01*
X015125Y021641D01*
X015152Y021668D01*
X015184Y021700D01*
X015337Y021700D01*
X015503Y021700D01*
X015580Y021623D01*
X015601Y021602D01*
X015638Y021639D01*
X015641Y021641D01*
X015677Y021677D01*
X015700Y021700D01*
X015853Y021700D01*
X016019Y021700D01*
X016095Y021623D01*
X016117Y021602D01*
X016215Y021700D01*
X016369Y021700D01*
X016534Y021700D01*
X016611Y021623D01*
X016728Y021506D01*
X016728Y021429D01*
X016728Y021276D01*
X016728Y021199D01*
X016728Y021034D01*
X016670Y020975D01*
X016666Y020972D01*
X016611Y020916D01*
X016536Y020842D01*
X016534Y020840D01*
X016381Y020840D01*
X016215Y020840D01*
X016139Y020916D01*
X016117Y020938D01*
X016095Y020916D01*
X016021Y020842D01*
X016019Y020840D01*
X015700Y020840D01*
X015601Y020938D01*
X015580Y020916D01*
X015505Y020842D01*
X015503Y020840D01*
X015350Y020840D01*
X015184Y020840D01*
X015124Y020900D01*
X015064Y020840D01*
X014757Y020840D01*
X014592Y020840D01*
X014474Y020957D01*
X014474Y021123D01*
X014584Y021232D01*
X014474Y021341D01*
X014474Y021506D01*
X014551Y021583D01*
X014605Y021636D01*
X014610Y021641D01*
X014551Y021583D02*
X014551Y021583D01*
X014515Y021546D02*
X014063Y021546D01*
X014124Y021448D02*
X014474Y021448D01*
X014474Y021349D02*
X014124Y021349D01*
X014124Y021251D02*
X014564Y021251D01*
X014504Y021152D02*
X014082Y021152D01*
X014044Y021054D02*
X014474Y021054D01*
X014476Y020955D02*
X014044Y020955D01*
X014044Y020857D02*
X014575Y020857D01*
X014616Y020758D02*
X020603Y020758D01*
X020562Y020660D02*
X019720Y020660D01*
X019819Y020561D02*
X020524Y020561D01*
X020524Y020463D02*
X019917Y020463D01*
X020016Y020364D02*
X020524Y020364D01*
X020543Y020265D02*
X020114Y020265D01*
X020213Y020167D02*
X020584Y020167D01*
X020627Y020068D02*
X020311Y020068D01*
X020410Y019970D02*
X020725Y019970D01*
X021243Y019773D02*
X021563Y019773D01*
X021501Y019871D02*
X021661Y019871D01*
X021624Y019970D02*
X021760Y019970D01*
X021722Y020068D02*
X021858Y020068D01*
X021765Y020167D02*
X021957Y020167D01*
X022055Y020265D02*
X021806Y020265D01*
X021824Y020364D02*
X022154Y020364D01*
X022252Y020463D02*
X021824Y020463D01*
X021824Y020561D02*
X022351Y020561D01*
X022449Y020660D02*
X021787Y020660D01*
X021746Y020758D02*
X031053Y020758D01*
X031073Y020808D02*
X031256Y020991D01*
X031495Y021090D01*
X031754Y021090D01*
X031993Y020991D01*
X032176Y020808D01*
X032274Y020569D01*
X032274Y020310D01*
X032176Y020072D01*
X031993Y019889D01*
X031754Y019790D01*
X031495Y019790D01*
X031256Y019889D01*
X031073Y020072D01*
X030974Y020310D01*
X030974Y020569D01*
X031073Y020808D01*
X031122Y020857D02*
X029320Y020857D01*
X029303Y020840D02*
X029138Y020840D01*
X029067Y020910D01*
X028996Y020840D01*
X028831Y020840D01*
X028771Y020900D01*
X028711Y020840D01*
X028545Y020840D01*
X028428Y020957D01*
X028428Y021070D01*
X028389Y021070D01*
X028389Y021034D01*
X028331Y020975D01*
X028197Y020842D01*
X028195Y020840D01*
X028042Y020840D01*
X027876Y020840D01*
X027799Y020916D01*
X027740Y020976D01*
X027603Y020840D01*
X027437Y020840D01*
X027320Y020957D01*
X027301Y020976D01*
X027241Y020916D01*
X027166Y020842D01*
X027164Y020840D01*
X027011Y020840D01*
X026845Y020840D01*
X026651Y021034D01*
X026651Y021187D01*
X026651Y021353D01*
X026651Y021583D01*
X026768Y021700D01*
X026934Y021700D01*
X027241Y021700D01*
X027262Y021679D01*
X027284Y021700D01*
X027449Y021700D01*
X027520Y021629D01*
X027591Y021700D01*
X027756Y021700D01*
X027816Y021640D01*
X027876Y021700D01*
X028030Y021700D01*
X028195Y021700D01*
X028272Y021623D01*
X028370Y021525D01*
X028428Y021583D01*
X028475Y021630D01*
X028487Y021641D01*
X028545Y021700D01*
X028711Y021700D01*
X028828Y021583D01*
X028828Y021544D01*
X028867Y021583D01*
X028922Y021638D01*
X028926Y021641D01*
X028956Y021672D01*
X028984Y021700D01*
X029150Y021700D01*
X029303Y021547D01*
X029420Y021429D01*
X029420Y021353D01*
X029420Y021187D01*
X029420Y020957D01*
X029303Y020840D01*
X029419Y020955D02*
X031221Y020955D01*
X031408Y021054D02*
X029420Y021054D01*
X029420Y021152D02*
X032274Y021152D01*
X032274Y021054D02*
X031841Y021054D01*
X032028Y020955D02*
X032274Y020955D01*
X032274Y020857D02*
X032127Y020857D01*
X032196Y020758D02*
X032274Y020758D01*
X032274Y020660D02*
X032237Y020660D01*
X032274Y020561D02*
X032274Y020561D01*
X032274Y020463D02*
X032274Y020463D01*
X032274Y020364D02*
X032274Y020364D01*
X032274Y020265D02*
X032256Y020265D01*
X032274Y020167D02*
X032215Y020167D01*
X032172Y020068D02*
X032274Y020068D01*
X032274Y019970D02*
X032074Y019970D01*
X031951Y019871D02*
X032274Y019871D01*
X032274Y019773D02*
X029443Y019773D01*
X029356Y019871D02*
X031298Y019871D01*
X031175Y019970D02*
X028739Y019970D01*
X028641Y020068D02*
X031077Y020068D01*
X031034Y020167D02*
X028542Y020167D01*
X028444Y020265D02*
X030993Y020265D01*
X030974Y020364D02*
X028345Y020364D01*
X028247Y020463D02*
X030974Y020463D01*
X030974Y020561D02*
X028148Y020561D01*
X028050Y020660D02*
X031012Y020660D01*
X032274Y021251D02*
X029420Y021251D01*
X029420Y021349D02*
X032274Y021349D01*
X032274Y021448D02*
X029402Y021448D01*
X029303Y021546D02*
X032274Y021546D01*
X032274Y021645D02*
X029205Y021645D01*
X029067Y021500D02*
X029220Y021347D01*
X029220Y021040D01*
X029121Y020857D02*
X029013Y020857D01*
X028814Y020857D02*
X028728Y020857D01*
X028528Y020857D02*
X028212Y020857D01*
X028311Y020955D02*
X028430Y020955D01*
X028428Y021054D02*
X028389Y021054D01*
X028189Y021116D02*
X028112Y021040D01*
X027959Y021040D01*
X027882Y021116D01*
X027882Y021423D01*
X027959Y021500D01*
X028112Y021500D01*
X028189Y021423D01*
X028189Y021270D01*
X028112Y021193D01*
X028112Y021347D01*
X027959Y021347D01*
X027959Y021193D01*
X028112Y021193D01*
X028398Y021270D02*
X028705Y021270D01*
X028914Y021270D02*
X029220Y021270D01*
X029067Y021500D02*
X028914Y021347D01*
X028914Y021040D01*
X028628Y021040D02*
X028628Y021500D01*
X028398Y021270D01*
X028392Y021546D02*
X028349Y021546D01*
X028428Y021583D02*
X028428Y021583D01*
X028490Y021645D02*
X028250Y021645D01*
X028119Y021840D02*
X027953Y021840D01*
X027836Y021957D01*
X027816Y021976D01*
X027815Y021975D01*
X027809Y021969D01*
X027756Y021916D01*
X027682Y021842D01*
X027951Y021842D01*
X027852Y021941D02*
X027781Y021941D01*
X027756Y021916D02*
X027756Y021916D01*
X027682Y021842D02*
X027680Y021840D01*
X027526Y021840D01*
X027361Y021840D01*
X027284Y021916D01*
X027262Y021938D01*
X027241Y021916D01*
X027166Y021842D01*
X027164Y021840D01*
X027011Y021840D01*
X026845Y021840D01*
X026651Y022034D01*
X026651Y022070D01*
X026286Y022070D01*
X026209Y021993D01*
X026056Y021840D01*
X025890Y021840D01*
X025773Y021957D01*
X025754Y021976D01*
X025752Y021975D01*
X025750Y021973D01*
X025694Y021916D01*
X025694Y021916D01*
X025619Y021842D01*
X025617Y021840D01*
X025464Y021840D01*
X025298Y021840D01*
X025238Y021900D01*
X025178Y021840D01*
X024706Y021840D01*
X024589Y021957D01*
X024589Y022123D01*
X024659Y022193D01*
X024589Y022264D01*
X024589Y022429D01*
X024742Y022583D01*
X024796Y022637D01*
X024801Y022641D01*
X024836Y022677D01*
X024859Y022700D01*
X025025Y022700D01*
X025142Y022583D01*
X025142Y022544D01*
X025181Y022583D01*
X025236Y022638D01*
X025239Y022641D01*
X025278Y022680D01*
X025298Y022700D01*
X025617Y022700D01*
X025677Y022640D01*
X025737Y022700D01*
X025903Y022700D01*
X025973Y022629D01*
X026044Y022700D01*
X026209Y022700D01*
X026327Y022583D01*
X026327Y022470D01*
X026651Y022470D01*
X026651Y022506D01*
X026728Y022583D01*
X026845Y022700D01*
X026998Y022700D01*
X027164Y022700D01*
X027241Y022623D01*
X027262Y022602D01*
X027300Y022640D01*
X027302Y022641D01*
X027331Y022670D01*
X027361Y022700D01*
X027514Y022700D01*
X027680Y022700D01*
X027740Y022640D01*
X027799Y022700D01*
X027965Y022700D01*
X028036Y022629D01*
X028106Y022700D01*
X028272Y022700D01*
X028389Y022583D01*
X028389Y022110D01*
X028368Y022089D01*
X028331Y022052D01*
X028325Y022046D01*
X028272Y021993D01*
X028119Y021840D01*
X028121Y021842D02*
X031303Y021842D01*
X031204Y021941D02*
X028219Y021941D01*
X028272Y021993D02*
X028272Y021993D01*
X028318Y022039D02*
X031106Y022039D01*
X031007Y022138D02*
X028389Y022138D01*
X028389Y022236D02*
X030974Y022236D01*
X030974Y022335D02*
X028389Y022335D01*
X028389Y022433D02*
X030974Y022433D01*
X030974Y022532D02*
X028389Y022532D01*
X028342Y022630D02*
X030974Y022630D01*
X030995Y022729D02*
X021804Y022729D01*
X021824Y022630D02*
X021972Y022630D01*
X021924Y022583D02*
X022042Y022700D01*
X022272Y022700D01*
X022437Y022700D01*
X022514Y022623D01*
X022612Y022525D01*
X022634Y022547D01*
X022787Y022547D01*
X022953Y022547D01*
X023013Y022487D01*
X023032Y022506D01*
X023032Y022506D01*
X023150Y022623D01*
X023315Y022623D01*
X023392Y022547D01*
X023509Y022429D01*
X023509Y022264D01*
X023438Y022193D01*
X023451Y022181D01*
X023509Y022123D01*
X023509Y021957D01*
X023392Y021840D01*
X023226Y021840D01*
X023150Y021916D01*
X023128Y021938D01*
X023030Y021840D01*
X022800Y021840D01*
X022634Y021840D01*
X022557Y021916D01*
X022536Y021938D01*
X022514Y021916D01*
X022439Y021842D01*
X022437Y021840D01*
X022042Y021840D01*
X021924Y021957D01*
X021924Y022123D01*
X021924Y022187D01*
X021924Y022353D01*
X021924Y022417D01*
X021924Y022583D01*
X021924Y022532D02*
X021824Y022532D01*
X021824Y022433D02*
X021924Y022433D01*
X021924Y022335D02*
X021824Y022335D01*
X021824Y022236D02*
X021924Y022236D01*
X021924Y022138D02*
X021792Y022138D01*
X021693Y022039D02*
X021924Y022039D01*
X021941Y021941D02*
X021595Y021941D01*
X021496Y021842D02*
X022039Y021842D01*
X022118Y021700D02*
X022437Y021700D01*
X022555Y021583D01*
X022591Y021547D01*
X022723Y021547D01*
X022794Y021476D01*
X022864Y021547D01*
X023030Y021547D01*
X023051Y021525D01*
X023150Y021623D01*
X023315Y021623D01*
X023392Y021547D01*
X023509Y021429D01*
X023509Y021264D01*
X023438Y021193D01*
X023451Y021181D01*
X023509Y021123D01*
X023509Y020957D01*
X023392Y020840D01*
X023226Y020840D01*
X023150Y020916D01*
X023128Y020938D01*
X023030Y020840D01*
X022864Y020840D01*
X022634Y020840D01*
X022536Y020938D01*
X022514Y020916D01*
X022437Y020840D01*
X022272Y020840D01*
X022118Y020840D01*
X022001Y020957D01*
X021924Y021034D01*
X021924Y021199D01*
X021924Y021506D01*
X021926Y021508D01*
X022001Y021583D01*
X022001Y021583D01*
X022118Y021700D01*
X022063Y021645D02*
X016589Y021645D01*
X016688Y021546D02*
X021965Y021546D01*
X021924Y021448D02*
X016728Y021448D01*
X016728Y021349D02*
X021924Y021349D01*
X021924Y021251D02*
X016728Y021251D01*
X016728Y021152D02*
X021924Y021152D01*
X021924Y021054D02*
X021391Y021054D01*
X021578Y020955D02*
X022003Y020955D01*
X022101Y020857D02*
X021677Y020857D01*
X022124Y021116D02*
X022201Y021040D01*
X022355Y021040D01*
X022431Y021116D01*
X022431Y021423D01*
X022355Y021500D01*
X022201Y021500D01*
X022124Y021423D01*
X022124Y021116D01*
X022454Y020857D02*
X022617Y020857D01*
X022514Y020916D02*
X022514Y020916D01*
X022640Y021116D02*
X022717Y021040D01*
X022947Y021040D01*
X022947Y021347D01*
X023156Y021347D02*
X023309Y021347D01*
X023232Y021423D02*
X023232Y021116D01*
X023309Y021040D01*
X023509Y021054D02*
X023815Y021054D01*
X023815Y020957D02*
X023815Y021199D01*
X023815Y021429D01*
X023932Y021547D01*
X024098Y021547D01*
X024175Y021547D01*
X024175Y021546D02*
X024629Y021546D01*
X024665Y021583D02*
X024718Y021635D01*
X024724Y021641D01*
X024782Y021700D01*
X024948Y021700D01*
X025101Y021700D01*
X025219Y021583D01*
X025295Y021506D01*
X025295Y021341D01*
X025295Y021264D01*
X025225Y021193D01*
X025295Y021123D01*
X025295Y020957D01*
X025178Y020840D01*
X024871Y020840D01*
X024706Y020840D01*
X024589Y020957D01*
X024589Y021123D01*
X024698Y021232D01*
X024589Y021341D01*
X024589Y021506D01*
X024665Y021583D01*
X024665Y021583D01*
X024727Y021645D02*
X022492Y021645D01*
X022555Y021583D02*
X022555Y021583D01*
X022723Y021546D02*
X022864Y021546D01*
X023030Y021546D02*
X023073Y021546D01*
X023032Y021842D02*
X023224Y021842D01*
X023150Y021916D02*
X023150Y021916D01*
X023309Y022040D02*
X023232Y022116D01*
X023232Y022423D01*
X023156Y022347D02*
X023309Y022347D01*
X023509Y022335D02*
X023815Y022335D01*
X023815Y022429D02*
X023932Y022547D01*
X024098Y022547D01*
X024175Y022547D01*
X024292Y022429D01*
X024292Y022353D01*
X024292Y022199D01*
X024292Y022123D01*
X024292Y021957D01*
X024175Y021840D01*
X024098Y021840D01*
X023932Y021840D01*
X023815Y021957D01*
X023815Y022199D01*
X023815Y022429D01*
X023819Y022433D02*
X023505Y022433D01*
X023407Y022532D02*
X023918Y022532D01*
X024015Y022347D02*
X024015Y022270D01*
X024092Y022270D01*
X024092Y022347D01*
X024015Y022347D01*
X023815Y022236D02*
X023482Y022236D01*
X023494Y022138D02*
X023815Y022138D01*
X023815Y022039D02*
X023509Y022039D01*
X023493Y021941D02*
X023831Y021941D01*
X023930Y021842D02*
X023394Y021842D01*
X023392Y021546D02*
X023932Y021546D01*
X023834Y021448D02*
X023491Y021448D01*
X023509Y021349D02*
X023815Y021349D01*
X023815Y021251D02*
X023496Y021251D01*
X023479Y021152D02*
X023815Y021152D01*
X023815Y020957D02*
X023932Y020840D01*
X024098Y020840D01*
X024175Y020840D01*
X024292Y020957D01*
X024292Y021123D01*
X024292Y021199D01*
X024292Y021353D01*
X024292Y021429D01*
X024175Y021547D01*
X024273Y021448D02*
X024589Y021448D01*
X024589Y021349D02*
X024292Y021349D01*
X024292Y021251D02*
X024678Y021251D01*
X024618Y021152D02*
X024292Y021152D01*
X024292Y021054D02*
X024589Y021054D01*
X024590Y020955D02*
X024290Y020955D01*
X024192Y020857D02*
X024689Y020857D01*
X024789Y021040D02*
X025095Y021040D01*
X025295Y021054D02*
X025620Y021054D01*
X025620Y021123D02*
X025690Y021193D01*
X025620Y021264D01*
X025620Y021429D01*
X025737Y021547D01*
X025903Y021547D01*
X025973Y021476D01*
X026044Y021547D01*
X026209Y021547D01*
X026327Y021429D01*
X026327Y021264D01*
X026256Y021193D01*
X026327Y021123D01*
X026327Y020957D01*
X026209Y020840D01*
X026044Y020840D01*
X025973Y020910D01*
X025903Y020840D01*
X025737Y020840D01*
X025620Y020957D01*
X025620Y021123D01*
X025650Y021152D02*
X025266Y021152D01*
X025282Y021251D02*
X025633Y021251D01*
X025620Y021349D02*
X025295Y021349D01*
X025295Y021448D02*
X025638Y021448D01*
X025737Y021546D02*
X025255Y021546D01*
X025157Y021645D02*
X026713Y021645D01*
X026651Y021546D02*
X026210Y021546D01*
X026308Y021448D02*
X026651Y021448D01*
X026651Y021349D02*
X026327Y021349D01*
X026314Y021251D02*
X026651Y021251D01*
X026651Y021152D02*
X026297Y021152D01*
X026327Y021054D02*
X026651Y021054D01*
X026729Y020955D02*
X026325Y020955D01*
X026226Y020857D02*
X026828Y020857D01*
X026928Y021040D02*
X027081Y021040D01*
X027158Y021116D01*
X027158Y021270D01*
X027081Y021347D01*
X027004Y021347D01*
X026851Y021270D01*
X026851Y021500D01*
X027158Y021500D01*
X027367Y021500D02*
X027367Y021193D01*
X027520Y021040D01*
X027674Y021193D01*
X027674Y021500D01*
X027811Y021645D02*
X027821Y021645D01*
X027536Y021645D02*
X027504Y021645D01*
X027358Y021842D02*
X027166Y021842D01*
X027241Y021916D02*
X027241Y021916D01*
X027081Y022040D02*
X026928Y022040D01*
X026851Y022116D01*
X026744Y021941D02*
X026157Y021941D01*
X026209Y021993D02*
X026209Y021993D01*
X026256Y022039D02*
X026651Y022039D01*
X026642Y022270D02*
X026335Y022270D01*
X026127Y022193D02*
X026127Y022500D01*
X026279Y022630D02*
X026775Y022630D01*
X026728Y022583D02*
X026728Y022583D01*
X026677Y022532D02*
X026327Y022532D01*
X025974Y022630D02*
X025972Y022630D01*
X025820Y022500D02*
X025820Y022193D01*
X025973Y022040D01*
X026127Y022193D01*
X026058Y021842D02*
X026843Y021842D01*
X027081Y022040D02*
X027158Y022116D01*
X027158Y022193D01*
X027081Y022270D01*
X027004Y022270D01*
X027081Y022270D02*
X027158Y022347D01*
X027158Y022423D01*
X027081Y022500D01*
X026928Y022500D01*
X026851Y022423D01*
X027234Y022630D02*
X027291Y022630D01*
X027443Y022500D02*
X027367Y022423D01*
X027367Y022116D01*
X027674Y022423D01*
X027674Y022116D01*
X027597Y022040D01*
X027443Y022040D01*
X027367Y022116D01*
X027674Y022423D02*
X027597Y022500D01*
X027443Y022500D01*
X027882Y022500D02*
X027882Y022193D01*
X028036Y022040D01*
X028189Y022193D01*
X028189Y022500D01*
X028037Y022630D02*
X028035Y022630D01*
X028220Y022926D02*
X027603Y022926D01*
X027670Y022993D02*
X027670Y022993D01*
X027702Y023025D02*
X028121Y023025D01*
X028312Y023116D02*
X028389Y023040D01*
X028542Y023040D01*
X028619Y023116D01*
X028619Y023193D01*
X028542Y023270D01*
X028465Y023270D01*
X028542Y023270D02*
X028619Y023347D01*
X028619Y023423D01*
X028542Y023500D01*
X028389Y023500D01*
X028312Y023423D01*
X028189Y023583D02*
X028189Y023583D01*
X028222Y023616D02*
X027755Y023616D01*
X027788Y023517D02*
X028123Y023517D01*
X028103Y023270D02*
X027796Y023270D01*
X027588Y023193D02*
X027588Y023500D01*
X027281Y023500D02*
X027281Y023193D01*
X027434Y023040D01*
X027588Y023193D01*
X027265Y022926D02*
X027164Y022926D01*
X027155Y022916D02*
X027155Y022916D01*
X026995Y023040D02*
X026842Y023040D01*
X026765Y023116D01*
X027072Y023423D01*
X027072Y023116D01*
X026995Y023040D01*
X026765Y023116D02*
X026765Y023423D01*
X026842Y023500D01*
X026995Y023500D01*
X027072Y023423D01*
X026675Y023616D02*
X026570Y023616D01*
X026642Y023583D02*
X026642Y023583D01*
X026403Y023500D02*
X026403Y023040D01*
X026556Y023040D02*
X026249Y023040D01*
X026049Y023025D02*
X025753Y023025D01*
X025753Y022957D02*
X025636Y022840D01*
X025559Y022840D01*
X025393Y022840D01*
X025276Y022957D01*
X025276Y023199D01*
X025276Y023429D01*
X025393Y023547D01*
X025559Y023547D01*
X025636Y023547D01*
X025753Y023429D01*
X025753Y023353D01*
X025753Y023199D01*
X025753Y023123D01*
X026050Y023123D01*
X026092Y023222D02*
X025753Y023222D01*
X025753Y023320D02*
X026049Y023320D01*
X026049Y023419D02*
X025753Y023419D01*
X025665Y023517D02*
X026137Y023517D01*
X026203Y023583D02*
X026203Y023583D01*
X026236Y023616D02*
X023838Y023616D01*
X023831Y023623D02*
X023908Y023547D01*
X023958Y023496D01*
X024009Y023547D01*
X024175Y023547D01*
X024328Y023547D01*
X024388Y023487D01*
X024448Y023547D01*
X024601Y023547D01*
X024844Y023547D01*
X024961Y023429D01*
X024961Y023264D01*
X024844Y023147D01*
X024767Y023147D01*
X024731Y023110D01*
X024731Y022957D01*
X024614Y022840D01*
X024448Y022840D01*
X024388Y022900D01*
X024328Y022840D01*
X024175Y022840D01*
X024009Y022840D01*
X023958Y022890D01*
X023908Y022840D01*
X023742Y022840D01*
X023665Y022916D01*
X023611Y022971D01*
X023607Y022975D01*
X023605Y022976D01*
X023545Y022916D01*
X023469Y022840D01*
X023303Y022840D01*
X023073Y022840D01*
X023013Y022900D01*
X022953Y022840D01*
X022800Y022840D01*
X022634Y022840D01*
X022574Y022900D01*
X022514Y022840D01*
X022349Y022840D01*
X022318Y022870D01*
X022278Y022910D01*
X022207Y022840D01*
X022042Y022840D01*
X021924Y022957D01*
X021924Y023440D01*
X021924Y023583D01*
X022042Y023700D01*
X022207Y023700D01*
X022278Y023629D01*
X022349Y023700D01*
X022514Y023700D01*
X022631Y023583D01*
X022631Y023544D01*
X022634Y023547D01*
X022800Y023547D01*
X022953Y023547D01*
X023030Y023470D01*
X023051Y023448D01*
X023150Y023547D01*
X023545Y023547D01*
X023567Y023525D01*
X023665Y023623D01*
X023831Y023623D01*
X023937Y023517D02*
X023980Y023517D01*
X024092Y023347D02*
X024245Y023347D01*
X024322Y023270D01*
X024322Y023116D01*
X024245Y023040D01*
X024092Y023040D01*
X024015Y023116D01*
X024015Y023270D01*
X024092Y023347D01*
X023825Y023347D02*
X023671Y023347D01*
X023748Y023423D02*
X023748Y023116D01*
X023825Y023040D01*
X023665Y022916D02*
X023665Y022916D01*
X023656Y022926D02*
X023555Y022926D01*
X023545Y022916D02*
X023545Y022916D01*
X023386Y023040D02*
X023463Y023116D01*
X023386Y023193D01*
X023232Y023193D01*
X023156Y023270D01*
X023232Y023347D01*
X023463Y023347D01*
X023386Y023040D02*
X023156Y023040D01*
X022947Y023193D02*
X022640Y023193D01*
X022640Y023116D02*
X022640Y023270D01*
X022717Y023347D01*
X022870Y023347D01*
X022947Y023270D01*
X022947Y023193D01*
X022870Y023040D02*
X022717Y023040D01*
X022640Y023116D01*
X022431Y023040D02*
X022431Y023500D01*
X022598Y023616D02*
X023658Y023616D01*
X023120Y023517D02*
X022982Y023517D01*
X023030Y023470D02*
X023030Y023470D01*
X022431Y023040D02*
X022124Y023500D01*
X022124Y023040D01*
X021924Y023025D02*
X021509Y023025D01*
X021607Y022926D02*
X021955Y022926D01*
X021924Y023123D02*
X018776Y023123D01*
X018777Y023123D02*
X018660Y023240D01*
X018623Y023240D01*
X018623Y023583D01*
X018506Y023700D01*
X018340Y023700D01*
X018314Y023674D01*
X018282Y023641D01*
X018278Y023638D01*
X018223Y023583D01*
X018223Y023583D01*
X018070Y023429D01*
X018070Y023264D01*
X018141Y023193D01*
X018070Y023123D01*
X018070Y022957D01*
X018187Y022840D01*
X018660Y022840D01*
X018777Y022957D01*
X018777Y023123D01*
X018777Y023025D02*
X020840Y023025D01*
X020742Y022926D02*
X018746Y022926D01*
X018577Y023040D02*
X018270Y023040D01*
X018423Y023040D02*
X018423Y023500D01*
X018270Y023347D01*
X018112Y023222D02*
X017745Y023222D01*
X017745Y023320D02*
X018070Y023320D01*
X018070Y023419D02*
X017745Y023419D01*
X017658Y023517D02*
X018158Y023517D01*
X018256Y023616D02*
X017139Y023616D01*
X016971Y023500D02*
X016971Y023040D01*
X016895Y023040D02*
X017048Y023040D01*
X017239Y023116D02*
X017239Y023347D01*
X017351Y023517D02*
X017433Y023517D01*
X017545Y023347D02*
X017545Y022963D01*
X017469Y022886D01*
X017392Y022886D01*
X017315Y023040D02*
X017545Y023040D01*
X017745Y023025D02*
X018070Y023025D01*
X018070Y023123D02*
X017745Y023123D01*
X017745Y022926D02*
X018101Y022926D01*
X017693Y022828D02*
X020643Y022828D01*
X021706Y022828D02*
X031093Y022828D01*
X031192Y022926D02*
X029666Y022926D01*
X029733Y022993D02*
X029733Y022993D01*
X029764Y023025D02*
X031290Y023025D01*
X029650Y023193D02*
X029650Y023500D01*
X029343Y023500D02*
X029343Y023193D01*
X029497Y023040D01*
X029650Y023193D01*
X029328Y022926D02*
X029227Y022926D01*
X029217Y022916D02*
X029217Y022916D01*
X029058Y023040D02*
X028904Y023040D01*
X028828Y023116D01*
X029134Y023423D01*
X029134Y023116D01*
X029058Y023040D01*
X028828Y023116D02*
X028828Y023423D01*
X028904Y023500D01*
X029058Y023500D01*
X029134Y023423D01*
X028737Y023616D02*
X028709Y023616D01*
X028735Y022926D02*
X028711Y022926D01*
X028766Y021645D02*
X028929Y021645D01*
X028867Y021583D02*
X028867Y021583D01*
X028831Y021546D02*
X028828Y021546D01*
X027859Y020857D02*
X027620Y020857D01*
X027718Y020955D02*
X027761Y020955D01*
X027420Y020857D02*
X027181Y020857D01*
X027241Y020916D02*
X027241Y020916D01*
X027280Y020955D02*
X027322Y020955D01*
X026928Y021040D02*
X026851Y021116D01*
X026127Y021040D02*
X025820Y021347D01*
X025903Y021546D02*
X026044Y021546D01*
X026127Y021347D02*
X025820Y021040D01*
X025920Y020857D02*
X026027Y020857D01*
X025720Y020857D02*
X025195Y020857D01*
X025294Y020955D02*
X025621Y020955D01*
X025095Y021347D02*
X025095Y021423D01*
X025019Y021500D01*
X024865Y021500D01*
X024789Y021423D01*
X025095Y021347D02*
X024789Y021040D01*
X024092Y021040D02*
X024015Y021040D01*
X024015Y021116D01*
X024092Y021116D01*
X024092Y021040D01*
X024092Y021270D02*
X024015Y021270D01*
X024015Y021347D01*
X024092Y021347D01*
X024092Y021270D01*
X023817Y020955D02*
X023507Y020955D01*
X023409Y020857D02*
X023915Y020857D01*
X023209Y020857D02*
X023047Y020857D01*
X023150Y020916D02*
X023150Y020916D01*
X022640Y021116D02*
X022640Y021347D01*
X022632Y021842D02*
X022440Y021842D01*
X022514Y021916D02*
X022514Y021916D01*
X022355Y022040D02*
X022124Y022040D01*
X022124Y022500D01*
X022355Y022500D01*
X022431Y022423D01*
X022431Y022347D01*
X022355Y022270D01*
X022124Y022270D01*
X022355Y022270D02*
X022431Y022193D01*
X022431Y022116D01*
X022355Y022040D01*
X022640Y022116D02*
X022717Y022193D01*
X022947Y022193D01*
X022947Y022270D02*
X022947Y022040D01*
X022717Y022040D01*
X022640Y022116D01*
X022717Y022347D02*
X022870Y022347D01*
X022947Y022270D01*
X022968Y022532D02*
X023058Y022532D01*
X022619Y022532D02*
X022606Y022532D01*
X022507Y022630D02*
X024790Y022630D01*
X024742Y022583D02*
X024742Y022583D01*
X024691Y022532D02*
X024189Y022532D01*
X024288Y022433D02*
X024592Y022433D01*
X024589Y022335D02*
X024292Y022335D01*
X024292Y022236D02*
X024616Y022236D01*
X024604Y022138D02*
X024292Y022138D01*
X024292Y022039D02*
X024589Y022039D01*
X024605Y021941D02*
X024276Y021941D01*
X024177Y021842D02*
X024703Y021842D01*
X024789Y022040D02*
X025095Y022040D01*
X024942Y022040D02*
X024942Y022500D01*
X024789Y022347D01*
X025094Y022630D02*
X025228Y022630D01*
X025181Y022583D02*
X025181Y022583D01*
X025304Y022423D02*
X025381Y022500D01*
X025534Y022500D01*
X025611Y022423D01*
X025304Y022116D01*
X025381Y022040D01*
X025534Y022040D01*
X025611Y022116D01*
X025611Y022423D01*
X025304Y022423D02*
X025304Y022116D01*
X025296Y021842D02*
X025181Y021842D01*
X025619Y021842D02*
X025888Y021842D01*
X025789Y021941D02*
X025718Y021941D01*
X025722Y022926D02*
X026080Y022926D01*
X025753Y022957D02*
X025753Y023123D01*
X025553Y023116D02*
X025553Y023040D01*
X025476Y023040D01*
X025476Y023116D01*
X025553Y023116D01*
X025553Y023270D02*
X025476Y023270D01*
X025476Y023347D01*
X025553Y023347D01*
X025553Y023270D01*
X025276Y023222D02*
X024919Y023222D01*
X024961Y023320D02*
X025276Y023320D01*
X025276Y023419D02*
X024961Y023419D01*
X024873Y023517D02*
X025364Y023517D01*
X025276Y023123D02*
X024744Y023123D01*
X024731Y023025D02*
X025276Y023025D01*
X025307Y022926D02*
X024700Y022926D01*
X024531Y023040D02*
X024531Y023347D01*
X024684Y023347D02*
X024531Y023193D01*
X024684Y023347D02*
X024761Y023347D01*
X024419Y023517D02*
X024357Y023517D01*
X026249Y023347D02*
X026403Y023500D01*
X024092Y022116D02*
X024092Y022040D01*
X024015Y022040D01*
X024015Y022116D01*
X024092Y022116D01*
X021924Y023222D02*
X018678Y023222D01*
X018623Y023320D02*
X021924Y023320D01*
X021924Y023419D02*
X018623Y023419D01*
X018623Y023517D02*
X021924Y023517D01*
X021957Y023616D02*
X018590Y023616D01*
X017315Y023040D02*
X017239Y023116D01*
X016971Y023500D02*
X016895Y023500D01*
X016728Y023616D02*
X012222Y023616D01*
X012214Y023623D02*
X012214Y023623D01*
X012055Y023500D02*
X012131Y023423D01*
X012131Y023270D01*
X012055Y023193D01*
X011824Y023193D01*
X011824Y023040D02*
X011824Y023500D01*
X012055Y023500D01*
X012682Y023517D02*
X012744Y023517D01*
X012248Y022926D02*
X011994Y022926D01*
X012324Y022347D02*
X012324Y022040D01*
X012410Y021842D02*
X012546Y021842D01*
X012717Y021842D02*
X012755Y021842D01*
X012925Y021842D02*
X013271Y021842D01*
X013172Y021941D02*
X013024Y021941D01*
X012006Y021054D02*
X011205Y021054D01*
X011405Y020955D02*
X012006Y020955D01*
X012006Y020857D02*
X011586Y020857D01*
X011683Y020758D02*
X012006Y020758D01*
X012006Y020660D02*
X011724Y020660D01*
X011754Y020561D02*
X012006Y020561D01*
X012006Y020463D02*
X011754Y020463D01*
X011742Y020364D02*
X012006Y020364D01*
X012006Y020265D02*
X011701Y020265D01*
X011630Y020167D02*
X012006Y020167D01*
X012006Y020068D02*
X011511Y020068D01*
X013506Y018787D02*
X007610Y018787D01*
X007708Y018689D02*
X013506Y018689D01*
X013506Y018590D02*
X007807Y018590D01*
X007905Y018492D02*
X013506Y018492D01*
X013506Y018393D02*
X008004Y018393D01*
X008102Y018295D02*
X013506Y018295D01*
X013506Y018196D02*
X008363Y018196D01*
X010909Y016816D02*
X010922Y016816D01*
X013384Y015634D02*
X015039Y015634D01*
X015039Y015543D02*
X015039Y017237D01*
X015127Y017325D01*
X016822Y017325D01*
X016909Y017237D01*
X016909Y015543D01*
X016822Y015455D01*
X016674Y015455D01*
X016674Y014255D01*
X018924Y012005D01*
X018924Y011674D01*
X018924Y011495D01*
X019891Y011495D01*
X019891Y011397D02*
X019023Y011397D01*
X019058Y011361D02*
X019058Y010919D01*
X018829Y010690D01*
X018869Y010690D01*
X019074Y010485D01*
X019074Y010195D01*
X018971Y010091D01*
X019133Y010091D01*
X019174Y010050D01*
X019215Y010091D01*
X019733Y010091D01*
X019821Y010003D01*
X019821Y009446D01*
X019733Y009358D01*
X019215Y009358D01*
X019174Y009399D01*
X019133Y009358D01*
X018615Y009358D01*
X018549Y009424D01*
X018483Y009358D01*
X017965Y009358D01*
X017924Y009399D01*
X017883Y009358D01*
X017365Y009358D01*
X017278Y009446D01*
X017278Y010003D01*
X017365Y010091D01*
X017883Y010091D01*
X017924Y010050D01*
X017965Y010091D01*
X018478Y010091D01*
X018374Y010195D01*
X018374Y010485D01*
X018496Y010606D01*
X018303Y010606D01*
X017991Y010919D01*
X017991Y011361D01*
X018124Y011495D01*
X017209Y011495D01*
X017209Y011397D02*
X018026Y011397D01*
X017991Y011298D02*
X017209Y011298D01*
X017209Y011199D02*
X017991Y011199D01*
X017991Y011101D02*
X017209Y011101D01*
X017209Y011060D02*
X017358Y010911D01*
X017358Y010469D01*
X017046Y010156D01*
X016603Y010156D01*
X016504Y010255D01*
X015427Y010255D01*
X015339Y010343D01*
X015339Y012037D01*
X015427Y012125D01*
X017122Y012125D01*
X017209Y012037D01*
X017209Y011060D01*
X017267Y011002D02*
X017991Y011002D01*
X018005Y010904D02*
X017358Y010904D01*
X017358Y010805D02*
X018104Y010805D01*
X018203Y010707D02*
X017358Y010707D01*
X017358Y010608D02*
X018301Y010608D01*
X018399Y010510D02*
X017358Y010510D01*
X017301Y010411D02*
X018374Y010411D01*
X018374Y010313D02*
X017202Y010313D01*
X017104Y010214D02*
X018374Y010214D01*
X018454Y010115D02*
X015312Y010115D01*
X015279Y010148D02*
X015446Y009981D01*
X015536Y009764D01*
X015536Y009528D01*
X015446Y009310D01*
X015279Y009143D01*
X015061Y009053D01*
X014825Y009053D01*
X014607Y009143D01*
X014440Y009310D01*
X014350Y009528D01*
X014350Y009764D01*
X014440Y009981D01*
X014607Y010148D01*
X014825Y010239D01*
X015061Y010239D01*
X015279Y010148D01*
X015120Y010214D02*
X016545Y010214D01*
X017291Y010017D02*
X015410Y010017D01*
X015472Y009918D02*
X017278Y009918D01*
X017278Y009820D02*
X015513Y009820D01*
X015536Y009721D02*
X017278Y009721D01*
X017278Y009623D02*
X015536Y009623D01*
X015534Y009524D02*
X017278Y009524D01*
X017298Y009426D02*
X015494Y009426D01*
X015453Y009327D02*
X024828Y009327D01*
X024828Y009403D02*
X024915Y009491D01*
X025433Y009491D01*
X025474Y009450D01*
X025515Y009491D01*
X025828Y009491D01*
X025724Y009595D01*
X025724Y009885D01*
X025930Y010090D01*
X026219Y010090D01*
X026424Y009885D01*
X026424Y009595D01*
X026321Y009491D01*
X026633Y009491D01*
X026674Y009450D01*
X026715Y009491D01*
X027233Y009491D01*
X027321Y009403D01*
X027321Y008846D01*
X027233Y008758D01*
X026715Y008758D01*
X026674Y008799D01*
X026633Y008758D01*
X026115Y008758D01*
X026074Y008799D01*
X026033Y008758D01*
X025515Y008758D01*
X025474Y008799D01*
X025433Y008758D01*
X024915Y008758D01*
X024828Y008846D01*
X024828Y009403D01*
X024850Y009426D02*
X019801Y009426D01*
X019821Y009524D02*
X025795Y009524D01*
X025724Y009623D02*
X019821Y009623D01*
X019821Y009721D02*
X025724Y009721D01*
X025724Y009820D02*
X019821Y009820D01*
X019821Y009918D02*
X025758Y009918D01*
X025857Y010017D02*
X019807Y010017D01*
X019968Y010214D02*
X019074Y010214D01*
X019074Y010313D02*
X019939Y010313D01*
X019939Y010243D02*
X019939Y011320D01*
X019891Y011369D01*
X019891Y011811D01*
X019939Y011860D01*
X019939Y011937D01*
X020027Y012025D01*
X020104Y012025D01*
X020203Y012124D01*
X020646Y012124D01*
X020744Y012025D01*
X021315Y012025D01*
X021644Y012355D01*
X021644Y012435D01*
X021718Y012612D01*
X021724Y012619D01*
X021724Y012861D01*
X021718Y012868D01*
X021644Y013044D01*
X021644Y013235D01*
X021718Y013412D01*
X021853Y013547D01*
X022029Y013620D01*
X022220Y013620D01*
X022233Y013614D01*
X022719Y014100D01*
X022324Y014495D01*
X021365Y015455D01*
X021024Y015455D01*
X021024Y013095D01*
X021158Y012961D01*
X021158Y012519D01*
X020846Y012206D01*
X020403Y012206D01*
X020091Y012519D01*
X020091Y012961D01*
X020224Y013095D01*
X020224Y015455D01*
X020027Y015455D01*
X019939Y015543D01*
X019939Y017237D01*
X020027Y017325D01*
X021722Y017325D01*
X021809Y017237D01*
X021809Y016000D01*
X022768Y015041D01*
X022818Y015162D01*
X022953Y015297D01*
X023129Y015370D01*
X023320Y015370D01*
X023496Y015297D01*
X023631Y015162D01*
X023704Y014985D01*
X023704Y014794D01*
X023631Y014618D01*
X023503Y014490D01*
X023631Y014362D01*
X023704Y014185D01*
X023704Y013994D01*
X023631Y013818D01*
X023496Y013683D01*
X023389Y013638D01*
X022524Y012774D01*
X022524Y012619D01*
X022531Y012612D01*
X022604Y012435D01*
X022604Y012244D01*
X022531Y012068D01*
X022396Y011933D01*
X022220Y011860D01*
X022139Y011860D01*
X021809Y011530D01*
X021809Y010243D01*
X021722Y010155D01*
X021434Y010155D01*
X021419Y010140D01*
X021130Y010140D01*
X021115Y010155D01*
X020027Y010155D01*
X019939Y010243D01*
X019939Y010411D02*
X019074Y010411D01*
X019049Y010510D02*
X019939Y010510D01*
X019939Y010608D02*
X018951Y010608D01*
X018846Y010707D02*
X019939Y010707D01*
X019939Y010805D02*
X018945Y010805D01*
X019044Y010904D02*
X019939Y010904D01*
X019939Y011002D02*
X019058Y011002D01*
X019058Y011101D02*
X019939Y011101D01*
X019939Y011199D02*
X019058Y011199D01*
X019058Y011298D02*
X019939Y011298D01*
X019891Y011594D02*
X018924Y011594D01*
X018924Y011692D02*
X019891Y011692D01*
X019891Y011791D02*
X018924Y011791D01*
X018924Y011889D02*
X019939Y011889D01*
X019990Y011988D02*
X018924Y011988D01*
X018844Y012086D02*
X020166Y012086D01*
X020326Y012283D02*
X018646Y012283D01*
X018548Y012382D02*
X020227Y012382D01*
X020129Y012481D02*
X018449Y012481D01*
X018351Y012579D02*
X020091Y012579D01*
X020091Y012678D02*
X018252Y012678D01*
X018154Y012776D02*
X020091Y012776D01*
X020091Y012875D02*
X018055Y012875D01*
X017957Y012973D02*
X020103Y012973D01*
X020202Y013072D02*
X017858Y013072D01*
X017760Y013170D02*
X020224Y013170D01*
X020224Y013269D02*
X017661Y013269D01*
X017562Y013367D02*
X020224Y013367D01*
X020224Y013466D02*
X017464Y013466D01*
X017365Y013564D02*
X020224Y013564D01*
X020224Y013663D02*
X017267Y013663D01*
X017168Y013762D02*
X020224Y013762D01*
X020224Y013860D02*
X017070Y013860D01*
X016971Y013959D02*
X020224Y013959D01*
X020224Y014057D02*
X016873Y014057D01*
X016774Y014156D02*
X020224Y014156D01*
X020224Y014254D02*
X016676Y014254D01*
X016674Y014353D02*
X020224Y014353D01*
X020224Y014451D02*
X016674Y014451D01*
X016674Y014550D02*
X020224Y014550D01*
X020224Y014648D02*
X016674Y014648D01*
X016674Y014747D02*
X020224Y014747D01*
X020224Y014846D02*
X016674Y014846D01*
X016674Y014944D02*
X020224Y014944D01*
X020224Y015043D02*
X016674Y015043D01*
X016674Y015141D02*
X020224Y015141D01*
X020224Y015240D02*
X016674Y015240D01*
X016674Y015338D02*
X020224Y015338D01*
X020224Y015437D02*
X016674Y015437D01*
X016902Y015535D02*
X019947Y015535D01*
X019939Y015634D02*
X016909Y015634D01*
X016909Y015732D02*
X019939Y015732D01*
X019939Y015831D02*
X016909Y015831D01*
X016909Y015930D02*
X019939Y015930D01*
X019939Y016028D02*
X016909Y016028D01*
X016909Y016127D02*
X019939Y016127D01*
X019939Y016225D02*
X016909Y016225D01*
X016909Y016324D02*
X019939Y016324D01*
X019939Y016422D02*
X016909Y016422D01*
X016909Y016521D02*
X019939Y016521D01*
X019939Y016619D02*
X016909Y016619D01*
X016909Y016718D02*
X019939Y016718D01*
X019939Y016816D02*
X016909Y016816D01*
X016909Y016915D02*
X019939Y016915D01*
X019939Y017014D02*
X016909Y017014D01*
X016909Y017112D02*
X019939Y017112D01*
X019939Y017211D02*
X016909Y017211D01*
X016837Y017309D02*
X020012Y017309D01*
X020214Y017506D02*
X015257Y017506D01*
X015355Y017605D02*
X020214Y017605D01*
X020214Y017703D02*
X015454Y017703D01*
X015552Y017802D02*
X020214Y017802D01*
X020214Y017900D02*
X015651Y017900D01*
X015749Y017999D02*
X020214Y017999D01*
X020214Y018097D02*
X015848Y018097D01*
X015946Y018196D02*
X020214Y018196D01*
X020214Y018295D02*
X016045Y018295D01*
X016143Y018393D02*
X020214Y018393D01*
X020214Y018492D02*
X016242Y018492D01*
X016341Y018590D02*
X020214Y018590D01*
X020214Y018689D02*
X016439Y018689D01*
X016538Y018787D02*
X020214Y018787D01*
X020214Y018886D02*
X016636Y018886D01*
X016735Y018984D02*
X020214Y018984D01*
X020166Y019083D02*
X016833Y019083D01*
X016932Y019181D02*
X020067Y019181D01*
X019969Y019280D02*
X017030Y019280D01*
X017129Y019379D02*
X019870Y019379D01*
X019771Y019477D02*
X017227Y019477D01*
X017326Y019576D02*
X019673Y019576D01*
X019574Y019674D02*
X017425Y019674D01*
X017523Y019773D02*
X019476Y019773D01*
X019377Y019871D02*
X017622Y019871D01*
X016983Y020364D02*
X014641Y020364D01*
X014641Y020463D02*
X017082Y020463D01*
X017180Y020561D02*
X014641Y020561D01*
X014641Y020660D02*
X017279Y020660D01*
X016885Y020265D02*
X014641Y020265D01*
X014592Y020167D02*
X016786Y020167D01*
X016687Y020068D02*
X014637Y020068D01*
X014641Y019970D02*
X016589Y019970D01*
X016490Y019871D02*
X014641Y019871D01*
X014641Y019773D02*
X016392Y019773D01*
X016293Y019674D02*
X014641Y019674D01*
X014641Y019576D02*
X016195Y019576D01*
X016096Y019477D02*
X014621Y019477D01*
X014621Y019379D02*
X015998Y019379D01*
X015899Y019280D02*
X014621Y019280D01*
X014621Y019181D02*
X015801Y019181D01*
X015702Y019083D02*
X014621Y019083D01*
X014610Y018984D02*
X015603Y018984D01*
X015505Y018886D02*
X014146Y018886D01*
X014047Y018787D02*
X015406Y018787D01*
X015308Y018689D02*
X014043Y018689D01*
X014043Y018590D02*
X015209Y018590D01*
X015111Y018492D02*
X014043Y018492D01*
X014043Y018393D02*
X015012Y018393D01*
X014914Y018295D02*
X014043Y018295D01*
X014043Y018196D02*
X014815Y018196D01*
X014717Y018097D02*
X014043Y018097D01*
X014021Y017999D02*
X014618Y017999D01*
X015158Y017408D02*
X020301Y017408D01*
X021397Y017408D02*
X028501Y017408D01*
X028414Y017506D02*
X021496Y017506D01*
X021594Y017605D02*
X028414Y017605D01*
X028414Y017703D02*
X021693Y017703D01*
X021708Y017802D02*
X028414Y017802D01*
X028414Y017900D02*
X021708Y017900D01*
X021708Y017999D02*
X028414Y017999D01*
X028414Y018097D02*
X021708Y018097D01*
X021673Y018196D02*
X028414Y018196D01*
X028414Y018295D02*
X021584Y018295D01*
X021683Y018393D02*
X028414Y018393D01*
X028414Y018492D02*
X021708Y018492D01*
X021708Y018590D02*
X028414Y018590D01*
X028414Y018689D02*
X021708Y018689D01*
X021708Y018787D02*
X028414Y018787D01*
X028414Y018886D02*
X021683Y018886D01*
X021764Y018984D02*
X028414Y018984D01*
X028414Y019083D02*
X021863Y019083D01*
X021961Y019181D02*
X028414Y019181D01*
X028414Y019280D02*
X022060Y019280D01*
X022158Y019379D02*
X028341Y019379D01*
X028242Y019477D02*
X022257Y019477D01*
X022355Y019576D02*
X028144Y019576D01*
X028045Y019674D02*
X022454Y019674D01*
X022552Y019773D02*
X027947Y019773D01*
X027848Y019871D02*
X022651Y019871D01*
X022749Y019970D02*
X027749Y019970D01*
X029706Y019674D02*
X032274Y019674D01*
X032274Y019576D02*
X029804Y019576D01*
X029874Y019477D02*
X032274Y019477D01*
X032274Y019379D02*
X029874Y019379D01*
X029874Y019280D02*
X032274Y019280D01*
X032274Y019181D02*
X029874Y019181D01*
X029874Y019083D02*
X032274Y019083D01*
X032274Y018984D02*
X029885Y018984D01*
X029983Y018886D02*
X032274Y018886D01*
X032274Y018787D02*
X030008Y018787D01*
X030008Y018689D02*
X032274Y018689D01*
X032274Y018590D02*
X030008Y018590D01*
X030008Y018492D02*
X032274Y018492D01*
X032274Y018393D02*
X029983Y018393D01*
X029884Y018295D02*
X032274Y018295D01*
X032274Y018196D02*
X029973Y018196D01*
X030008Y018097D02*
X032274Y018097D01*
X032274Y017999D02*
X030008Y017999D01*
X030008Y017900D02*
X032274Y017900D01*
X032274Y017802D02*
X030008Y017802D01*
X029993Y017703D02*
X032274Y017703D01*
X032274Y017605D02*
X029894Y017605D01*
X029796Y017506D02*
X032274Y017506D01*
X032274Y017408D02*
X029697Y017408D01*
X029872Y017375D02*
X029959Y017287D01*
X029959Y016790D01*
X030230Y016790D01*
X030519Y016790D01*
X031639Y015670D01*
X031720Y015670D01*
X031896Y015597D01*
X032031Y015462D01*
X032104Y015285D01*
X032104Y015094D01*
X032031Y014918D01*
X031974Y014861D01*
X031974Y014719D01*
X032031Y014662D01*
X032104Y014485D01*
X032104Y014294D01*
X032031Y014118D01*
X031896Y013983D01*
X031720Y013910D01*
X031639Y013910D01*
X030924Y013195D01*
X030924Y013145D01*
X030836Y013057D01*
X030881Y013012D01*
X030954Y012835D01*
X030954Y012644D01*
X030881Y012468D01*
X030824Y012411D01*
X030824Y012395D01*
X030619Y012190D01*
X030569Y012190D01*
X029959Y011580D01*
X029959Y010293D01*
X029872Y010205D01*
X028177Y010205D01*
X028089Y010293D01*
X028089Y011320D01*
X027991Y011419D01*
X027991Y011861D01*
X028089Y011960D01*
X028089Y011987D01*
X028177Y012075D01*
X028204Y012075D01*
X028303Y012174D01*
X028746Y012174D01*
X028844Y012075D01*
X029465Y012075D01*
X030006Y012616D01*
X029994Y012644D01*
X029994Y012835D01*
X030068Y013012D01*
X030121Y013065D01*
X030068Y013118D01*
X029994Y013294D01*
X029994Y013485D01*
X030068Y013662D01*
X030203Y013797D01*
X030379Y013870D01*
X030570Y013870D01*
X030598Y013858D01*
X031144Y014405D01*
X031144Y014485D01*
X031218Y014662D01*
X031274Y014719D01*
X031274Y014861D01*
X031218Y014918D01*
X031144Y015094D01*
X031144Y015175D01*
X030230Y016090D01*
X029959Y016090D01*
X029959Y015593D01*
X029872Y015505D01*
X029274Y015505D01*
X029274Y013295D01*
X029458Y013111D01*
X029458Y012669D01*
X029146Y012356D01*
X028703Y012356D01*
X028391Y012669D01*
X028391Y013111D01*
X028574Y013295D01*
X028574Y015505D01*
X028177Y015505D01*
X028089Y015593D01*
X028089Y017287D01*
X028177Y017375D01*
X029872Y017375D01*
X029937Y017309D02*
X032274Y017309D01*
X032274Y017211D02*
X029959Y017211D01*
X029959Y017112D02*
X032274Y017112D01*
X032274Y017014D02*
X029959Y017014D01*
X029959Y016915D02*
X032274Y016915D01*
X032274Y016816D02*
X029959Y016816D01*
X030591Y016718D02*
X032274Y016718D01*
X032274Y016619D02*
X030690Y016619D01*
X030788Y016521D02*
X032274Y016521D01*
X032274Y016422D02*
X030887Y016422D01*
X030985Y016324D02*
X032274Y016324D01*
X032274Y016225D02*
X031084Y016225D01*
X031182Y016127D02*
X032274Y016127D01*
X032274Y016028D02*
X031281Y016028D01*
X031380Y015930D02*
X032274Y015930D01*
X032274Y015831D02*
X031478Y015831D01*
X031577Y015732D02*
X032274Y015732D01*
X032274Y015634D02*
X031806Y015634D01*
X031958Y015535D02*
X032274Y015535D01*
X032274Y015437D02*
X032042Y015437D01*
X032082Y015338D02*
X032274Y015338D01*
X032274Y015240D02*
X032104Y015240D01*
X032104Y015141D02*
X032274Y015141D01*
X032274Y015043D02*
X032083Y015043D01*
X032042Y014944D02*
X032274Y014944D01*
X032274Y014846D02*
X031974Y014846D01*
X031974Y014747D02*
X032274Y014747D01*
X032274Y014648D02*
X032037Y014648D01*
X032078Y014550D02*
X032274Y014550D01*
X032274Y014451D02*
X032104Y014451D01*
X032104Y014353D02*
X032274Y014353D01*
X032274Y014254D02*
X032088Y014254D01*
X032047Y014156D02*
X032274Y014156D01*
X032274Y014057D02*
X031971Y014057D01*
X031838Y013959D02*
X032274Y013959D01*
X032274Y013860D02*
X031590Y013860D01*
X031491Y013762D02*
X032274Y013762D01*
X032274Y013663D02*
X031393Y013663D01*
X031294Y013564D02*
X032274Y013564D01*
X032274Y013466D02*
X031196Y013466D01*
X031097Y013367D02*
X032274Y013367D01*
X032274Y013269D02*
X030999Y013269D01*
X030924Y013170D02*
X032274Y013170D01*
X032274Y013072D02*
X030851Y013072D01*
X030897Y012973D02*
X032274Y012973D01*
X032274Y012875D02*
X030938Y012875D01*
X030954Y012776D02*
X032274Y012776D01*
X032274Y012678D02*
X030954Y012678D01*
X030927Y012579D02*
X032274Y012579D01*
X032274Y012481D02*
X030887Y012481D01*
X030812Y012382D02*
X032274Y012382D01*
X032274Y012283D02*
X030713Y012283D01*
X030565Y012185D02*
X032274Y012185D01*
X032274Y012086D02*
X030466Y012086D01*
X030367Y011988D02*
X032274Y011988D01*
X032274Y011889D02*
X030269Y011889D01*
X030170Y011791D02*
X032274Y011791D01*
X032274Y011692D02*
X030072Y011692D01*
X029973Y011594D02*
X032274Y011594D01*
X032274Y011495D02*
X029959Y011495D01*
X029959Y011397D02*
X032274Y011397D01*
X032274Y011298D02*
X029959Y011298D01*
X029959Y011199D02*
X032274Y011199D01*
X032274Y011101D02*
X029959Y011101D01*
X029959Y011002D02*
X032274Y011002D01*
X032274Y010904D02*
X029959Y010904D01*
X029959Y010805D02*
X032274Y010805D01*
X032274Y010707D02*
X029959Y010707D01*
X029959Y010608D02*
X032274Y010608D01*
X032274Y010510D02*
X029959Y010510D01*
X029959Y010411D02*
X032274Y010411D01*
X032274Y010313D02*
X029959Y010313D01*
X029881Y010214D02*
X032274Y010214D01*
X032274Y010115D02*
X018995Y010115D01*
X019058Y011361D02*
X018924Y011495D01*
X018745Y012185D02*
X021475Y012185D01*
X021573Y012283D02*
X020923Y012283D01*
X021022Y012382D02*
X021644Y012382D01*
X021663Y012481D02*
X021120Y012481D01*
X021158Y012579D02*
X021704Y012579D01*
X021724Y012678D02*
X021158Y012678D01*
X021158Y012776D02*
X021724Y012776D01*
X021715Y012875D02*
X021158Y012875D01*
X021146Y012973D02*
X021674Y012973D01*
X021644Y013072D02*
X021047Y013072D01*
X021024Y013170D02*
X021644Y013170D01*
X021658Y013269D02*
X021024Y013269D01*
X021024Y013367D02*
X021699Y013367D01*
X021772Y013466D02*
X021024Y013466D01*
X021024Y013564D02*
X021896Y013564D01*
X022282Y013663D02*
X021024Y013663D01*
X021024Y013762D02*
X022381Y013762D01*
X022479Y013860D02*
X021024Y013860D01*
X021024Y013959D02*
X022578Y013959D01*
X022676Y014057D02*
X021024Y014057D01*
X021024Y014156D02*
X022664Y014156D01*
X022565Y014254D02*
X021024Y014254D01*
X021024Y014353D02*
X022466Y014353D01*
X022368Y014451D02*
X021024Y014451D01*
X021024Y014550D02*
X022269Y014550D01*
X022171Y014648D02*
X021024Y014648D01*
X021024Y014747D02*
X022072Y014747D01*
X021974Y014846D02*
X021024Y014846D01*
X021024Y014944D02*
X021875Y014944D01*
X021777Y015043D02*
X021024Y015043D01*
X021024Y015141D02*
X021678Y015141D01*
X021580Y015240D02*
X021024Y015240D01*
X021024Y015338D02*
X021481Y015338D01*
X021382Y015437D02*
X021024Y015437D01*
X021809Y016028D02*
X023189Y016028D01*
X023189Y015930D02*
X021880Y015930D01*
X021978Y015831D02*
X023189Y015831D01*
X023189Y015732D02*
X022077Y015732D01*
X022175Y015634D02*
X023189Y015634D01*
X023189Y015593D02*
X023277Y015505D01*
X024324Y015505D01*
X024324Y013445D01*
X024530Y013240D01*
X024530Y013240D01*
X026024Y011745D01*
X026024Y011145D01*
X025841Y010961D01*
X025841Y010519D01*
X026153Y010206D01*
X026596Y010206D01*
X026908Y010519D01*
X026908Y010961D01*
X026724Y011145D01*
X026724Y012035D01*
X026519Y012240D01*
X026519Y012240D01*
X025024Y013735D01*
X025024Y015558D01*
X025059Y015593D01*
X025059Y017287D01*
X024972Y017375D01*
X023277Y017375D01*
X023189Y017287D01*
X023189Y015593D01*
X023247Y015535D02*
X022274Y015535D01*
X022372Y015437D02*
X024324Y015437D01*
X024324Y015338D02*
X023396Y015338D01*
X023553Y015240D02*
X024324Y015240D01*
X024324Y015141D02*
X023640Y015141D01*
X023681Y015043D02*
X024324Y015043D01*
X024324Y014944D02*
X023704Y014944D01*
X023704Y014846D02*
X024324Y014846D01*
X024324Y014747D02*
X023685Y014747D01*
X023644Y014648D02*
X024324Y014648D01*
X024324Y014550D02*
X023563Y014550D01*
X023542Y014451D02*
X024324Y014451D01*
X024324Y014353D02*
X023635Y014353D01*
X023676Y014254D02*
X024324Y014254D01*
X024324Y014156D02*
X023704Y014156D01*
X023704Y014057D02*
X024324Y014057D01*
X024324Y013959D02*
X023690Y013959D01*
X023649Y013860D02*
X024324Y013860D01*
X024324Y013762D02*
X023575Y013762D01*
X023449Y013663D02*
X024324Y013663D01*
X024324Y013564D02*
X023315Y013564D01*
X023216Y013466D02*
X024324Y013466D01*
X024402Y013367D02*
X023118Y013367D01*
X023019Y013269D02*
X024500Y013269D01*
X024599Y013170D02*
X022921Y013170D01*
X022822Y013072D02*
X024698Y013072D01*
X024796Y012973D02*
X022724Y012973D01*
X022625Y012875D02*
X024895Y012875D01*
X024993Y012776D02*
X022526Y012776D01*
X022524Y012678D02*
X025092Y012678D01*
X025190Y012579D02*
X022545Y012579D01*
X022586Y012481D02*
X025289Y012481D01*
X025387Y012382D02*
X022604Y012382D01*
X022604Y012283D02*
X025486Y012283D01*
X025584Y012185D02*
X022580Y012185D01*
X022539Y012086D02*
X023489Y012086D01*
X023489Y012087D02*
X023577Y012175D01*
X025272Y012175D01*
X025359Y012087D01*
X025359Y011060D01*
X025458Y010961D01*
X025458Y010519D01*
X025359Y010420D01*
X025359Y010393D01*
X025272Y010305D01*
X025244Y010305D01*
X025146Y010206D01*
X024703Y010206D01*
X024604Y010305D01*
X023577Y010305D01*
X023489Y010393D01*
X023489Y012087D01*
X023489Y011988D02*
X022451Y011988D01*
X022291Y011889D02*
X023489Y011889D01*
X023489Y011791D02*
X022070Y011791D01*
X021972Y011692D02*
X023489Y011692D01*
X023489Y011594D02*
X021873Y011594D01*
X021809Y011495D02*
X023489Y011495D01*
X023489Y011397D02*
X021809Y011397D01*
X021809Y011298D02*
X023489Y011298D01*
X023489Y011199D02*
X021809Y011199D01*
X021809Y011101D02*
X023489Y011101D01*
X023489Y011002D02*
X021809Y011002D01*
X021809Y010904D02*
X023489Y010904D01*
X023489Y010805D02*
X021809Y010805D01*
X021809Y010707D02*
X023489Y010707D01*
X023489Y010608D02*
X021809Y010608D01*
X021809Y010510D02*
X023489Y010510D01*
X023489Y010411D02*
X021809Y010411D01*
X021809Y010313D02*
X023570Y010313D01*
X024695Y010214D02*
X021781Y010214D01*
X020874Y011090D02*
X020424Y011590D01*
X020683Y012086D02*
X021376Y012086D01*
X018124Y011674D02*
X016109Y013690D01*
X015874Y013924D01*
X015874Y015455D01*
X015127Y015455D01*
X015039Y015543D01*
X015047Y015535D02*
X013374Y015535D01*
X013374Y015437D02*
X015874Y015437D01*
X015874Y015338D02*
X013374Y015338D01*
X013374Y015240D02*
X015874Y015240D01*
X015874Y015141D02*
X013374Y015141D01*
X013416Y015043D02*
X015874Y015043D01*
X015874Y014944D02*
X013493Y014944D01*
X013533Y014846D02*
X015874Y014846D01*
X015874Y014747D02*
X013567Y014747D01*
X013567Y014648D02*
X015874Y014648D01*
X015874Y014550D02*
X013567Y014550D01*
X013536Y014451D02*
X015874Y014451D01*
X015874Y014353D02*
X013495Y014353D01*
X013422Y014254D02*
X015874Y014254D01*
X015874Y014156D02*
X015287Y014156D01*
X015279Y014164D02*
X015446Y013997D01*
X015536Y013779D01*
X015536Y013543D01*
X015446Y013326D01*
X015324Y013204D01*
X015324Y011223D01*
X015324Y011057D01*
X015007Y010740D01*
X014857Y010740D01*
X013707Y009590D01*
X013576Y009590D01*
X013576Y009531D01*
X013488Y009443D01*
X012930Y009443D01*
X012843Y009531D01*
X012843Y010040D01*
X011450Y010040D01*
X011509Y009981D01*
X011599Y009764D01*
X011599Y009528D01*
X011509Y009310D01*
X011342Y009143D01*
X011124Y009053D01*
X010888Y009053D01*
X010670Y009143D01*
X010503Y009310D01*
X010413Y009528D01*
X010413Y009764D01*
X010503Y009981D01*
X010521Y009999D01*
X010324Y010195D01*
X010324Y010485D01*
X010530Y010690D01*
X010819Y010690D01*
X010893Y010616D01*
X010893Y010968D01*
X010981Y011056D01*
X011258Y011056D01*
X011693Y011491D01*
X011693Y011768D01*
X011781Y011856D01*
X011941Y011856D01*
X011941Y012069D01*
X011804Y012069D01*
X011716Y012157D01*
X011716Y012675D01*
X011804Y012763D01*
X012479Y012763D01*
X012567Y012675D01*
X012567Y012390D01*
X012630Y012390D01*
X012680Y012440D01*
X012969Y012440D01*
X013174Y012235D01*
X013174Y011945D01*
X013112Y011882D01*
X013559Y011882D01*
X013647Y011794D01*
X013647Y011119D01*
X013624Y011096D01*
X013624Y011037D01*
X013688Y011037D01*
X013776Y010949D01*
X013776Y010524D01*
X013849Y010597D01*
X013849Y011031D01*
X013789Y011031D01*
X013702Y011119D01*
X013702Y011794D01*
X013789Y011882D01*
X014307Y011882D01*
X014395Y011794D01*
X014395Y011685D01*
X014428Y011685D01*
X014428Y011734D01*
X014515Y011822D01*
X014924Y011822D01*
X014924Y013069D01*
X014825Y013069D01*
X014727Y013109D01*
X014021Y012404D01*
X014021Y011985D01*
X013933Y011897D01*
X013415Y011897D01*
X013328Y011985D01*
X013328Y012311D01*
X013196Y012443D01*
X012670Y012443D01*
X012582Y012531D01*
X012582Y013049D01*
X012670Y013137D01*
X013345Y013137D01*
X013433Y013049D01*
X013433Y012856D01*
X013454Y012835D01*
X013541Y012748D01*
X013800Y012748D01*
X014422Y013370D01*
X014350Y013543D01*
X014350Y013779D01*
X014440Y013997D01*
X014607Y014164D01*
X014825Y014254D01*
X015061Y014254D01*
X015279Y014164D01*
X015386Y014057D02*
X015874Y014057D01*
X015874Y013959D02*
X015462Y013959D01*
X015502Y013860D02*
X015938Y013860D01*
X016037Y013762D02*
X015536Y013762D01*
X015536Y013663D02*
X016136Y013663D01*
X016234Y013564D02*
X015536Y013564D01*
X015504Y013466D02*
X016333Y013466D01*
X016431Y013367D02*
X015463Y013367D01*
X015389Y013269D02*
X016530Y013269D01*
X016628Y013170D02*
X015324Y013170D01*
X015324Y013072D02*
X016727Y013072D01*
X016825Y012973D02*
X015324Y012973D01*
X015324Y012875D02*
X016924Y012875D01*
X017022Y012776D02*
X015324Y012776D01*
X015324Y012678D02*
X017121Y012678D01*
X017220Y012579D02*
X015324Y012579D01*
X015324Y012481D02*
X017318Y012481D01*
X017417Y012382D02*
X015324Y012382D01*
X015324Y012283D02*
X017515Y012283D01*
X017614Y012185D02*
X015324Y012185D01*
X015324Y012086D02*
X015389Y012086D01*
X015339Y011988D02*
X015324Y011988D01*
X015324Y011889D02*
X015339Y011889D01*
X015339Y011791D02*
X015324Y011791D01*
X015324Y011692D02*
X015339Y011692D01*
X015339Y011594D02*
X015324Y011594D01*
X015324Y011495D02*
X015339Y011495D01*
X015339Y011397D02*
X015324Y011397D01*
X015324Y011298D02*
X015339Y011298D01*
X015339Y011199D02*
X015324Y011199D01*
X015324Y011101D02*
X015339Y011101D01*
X015339Y011002D02*
X015270Y011002D01*
X015339Y010904D02*
X015171Y010904D01*
X015073Y010805D02*
X015339Y010805D01*
X015339Y010707D02*
X014824Y010707D01*
X014726Y010608D02*
X015339Y010608D01*
X015339Y010510D02*
X014627Y010510D01*
X014529Y010411D02*
X015339Y010411D01*
X015370Y010313D02*
X014430Y010313D01*
X014332Y010214D02*
X014766Y010214D01*
X014574Y010115D02*
X014233Y010115D01*
X014134Y010017D02*
X014476Y010017D01*
X014414Y009918D02*
X014036Y009918D01*
X013937Y009820D02*
X014373Y009820D01*
X014350Y009721D02*
X013839Y009721D01*
X013740Y009623D02*
X014350Y009623D01*
X014352Y009524D02*
X013569Y009524D01*
X013624Y009790D02*
X014824Y010990D01*
X014924Y010940D01*
X015124Y011140D01*
X015124Y013340D01*
X014924Y013640D01*
X014943Y013658D01*
X014943Y013661D01*
X014924Y013640D02*
X014924Y013590D01*
X013674Y012340D01*
X013674Y012323D01*
X013328Y012283D02*
X013126Y012283D01*
X013174Y012185D02*
X013328Y012185D01*
X013328Y012086D02*
X013174Y012086D01*
X013174Y011988D02*
X013328Y011988D01*
X013119Y011889D02*
X014924Y011889D01*
X014924Y011988D02*
X014021Y011988D01*
X014021Y012086D02*
X014924Y012086D01*
X014924Y012185D02*
X014021Y012185D01*
X014021Y012283D02*
X014924Y012283D01*
X014924Y012382D02*
X014021Y012382D01*
X014098Y012481D02*
X014924Y012481D01*
X014924Y012579D02*
X014197Y012579D01*
X014295Y012678D02*
X014924Y012678D01*
X014924Y012776D02*
X014394Y012776D01*
X014492Y012875D02*
X014924Y012875D01*
X014924Y012973D02*
X014591Y012973D01*
X014689Y013072D02*
X014817Y013072D01*
X014419Y013367D02*
X012567Y013367D01*
X012567Y013269D02*
X014321Y013269D01*
X014222Y013170D02*
X012567Y013170D01*
X012567Y013072D02*
X012605Y013072D01*
X012582Y012973D02*
X012567Y012973D01*
X012582Y012875D02*
X012537Y012875D01*
X012582Y012776D02*
X010144Y012776D01*
X010144Y012678D02*
X011719Y012678D01*
X011716Y012579D02*
X010230Y012579D01*
X010329Y012481D02*
X011716Y012481D01*
X011716Y012382D02*
X010374Y012382D01*
X010374Y012283D02*
X011716Y012283D01*
X011716Y012185D02*
X010374Y012185D01*
X010316Y012086D02*
X011786Y012086D01*
X011941Y011988D02*
X010217Y011988D01*
X010144Y011889D02*
X011941Y011889D01*
X011715Y011791D02*
X010144Y011791D01*
X010144Y011692D02*
X011693Y011692D01*
X011693Y011594D02*
X010144Y011594D01*
X010144Y011495D02*
X011693Y011495D01*
X011598Y011397D02*
X010144Y011397D01*
X010144Y011298D02*
X011500Y011298D01*
X011401Y011199D02*
X010144Y011199D01*
X010144Y011101D02*
X011303Y011101D01*
X011240Y010755D02*
X011974Y011490D01*
X012040Y011490D01*
X012040Y011505D01*
X012141Y011607D01*
X012141Y012416D01*
X012148Y012416D01*
X012374Y012190D01*
X012824Y012190D01*
X012824Y012090D01*
X013027Y012382D02*
X013257Y012382D01*
X013513Y012776D02*
X013828Y012776D01*
X013927Y012875D02*
X013433Y012875D01*
X013454Y012835D02*
X013454Y012835D01*
X013433Y012973D02*
X014025Y012973D01*
X014124Y013072D02*
X013410Y013072D01*
X012582Y012678D02*
X012564Y012678D01*
X012567Y012579D02*
X012582Y012579D01*
X012567Y012481D02*
X012632Y012481D01*
X012141Y013164D02*
X011750Y013164D01*
X011224Y013690D01*
X011024Y013690D01*
X010996Y013661D01*
X011006Y013661D01*
X010996Y013661D02*
X010974Y013640D01*
X011599Y013663D02*
X014350Y013663D01*
X014350Y013564D02*
X011632Y013564D01*
X011731Y013466D02*
X011759Y013466D01*
X011461Y013170D02*
X011353Y013170D01*
X011560Y013072D02*
X011132Y013072D01*
X011599Y013762D02*
X014350Y013762D01*
X014384Y013860D02*
X011565Y013860D01*
X011525Y013959D02*
X014424Y013959D01*
X014500Y014057D02*
X013103Y014057D01*
X013323Y014156D02*
X014599Y014156D01*
X014382Y013466D02*
X012524Y013466D01*
X012846Y014057D02*
X011449Y014057D01*
X011350Y014156D02*
X012626Y014156D01*
X013483Y015732D02*
X015039Y015732D01*
X015039Y015831D02*
X013581Y015831D01*
X013680Y015930D02*
X015039Y015930D01*
X015039Y016028D02*
X013778Y016028D01*
X013877Y016127D02*
X015039Y016127D01*
X015039Y016225D02*
X013976Y016225D01*
X014074Y016324D02*
X015039Y016324D01*
X015039Y016422D02*
X014173Y016422D01*
X014271Y016521D02*
X015039Y016521D01*
X015039Y016619D02*
X014370Y016619D01*
X014468Y016718D02*
X015039Y016718D01*
X015039Y016816D02*
X014567Y016816D01*
X014665Y016915D02*
X015039Y016915D01*
X015039Y017014D02*
X014764Y017014D01*
X014862Y017112D02*
X015039Y017112D01*
X015039Y017211D02*
X014961Y017211D01*
X015059Y017309D02*
X015112Y017309D01*
X015167Y020857D02*
X015081Y020857D01*
X014981Y021040D02*
X014674Y021040D01*
X014981Y021347D01*
X014981Y021423D01*
X014905Y021500D01*
X014751Y021500D01*
X014674Y021423D01*
X014702Y021842D02*
X014894Y021842D01*
X014979Y022040D02*
X015209Y022040D01*
X015209Y022270D01*
X015133Y022347D01*
X014979Y022347D01*
X014979Y022193D02*
X015209Y022193D01*
X014979Y022193D02*
X014903Y022116D01*
X014979Y022040D01*
X014694Y022193D02*
X014387Y022193D01*
X014387Y022116D02*
X014387Y022270D01*
X014464Y022347D01*
X014617Y022347D01*
X014694Y022270D01*
X014694Y022193D01*
X014617Y022040D02*
X014464Y022040D01*
X014387Y022116D01*
X014715Y022532D02*
X014882Y022532D01*
X015230Y022532D02*
X015321Y022532D01*
X015418Y022347D02*
X015495Y022347D01*
X015572Y022270D01*
X015648Y022347D01*
X015725Y022270D01*
X015725Y022040D01*
X015572Y022040D02*
X015572Y022270D01*
X015418Y022347D02*
X015418Y022040D01*
X015333Y021842D02*
X015295Y021842D01*
X015129Y021645D02*
X015042Y021645D01*
X015190Y021423D02*
X015267Y021500D01*
X015420Y021500D01*
X015497Y021423D01*
X015190Y021116D01*
X015267Y021040D01*
X015420Y021040D01*
X015497Y021116D01*
X015497Y021423D01*
X015706Y021423D02*
X015706Y021116D01*
X016013Y021423D01*
X016013Y021116D01*
X015936Y021040D01*
X015782Y021040D01*
X015706Y021116D01*
X015580Y020916D02*
X015580Y020916D01*
X015520Y020857D02*
X015683Y020857D01*
X016036Y020857D02*
X016198Y020857D01*
X016095Y020916D02*
X016095Y020916D01*
X016221Y021116D02*
X016221Y021193D01*
X016298Y021270D01*
X016451Y021270D01*
X016528Y021193D01*
X016528Y021116D01*
X016451Y021040D01*
X016298Y021040D01*
X016221Y021116D01*
X016298Y021270D02*
X016221Y021347D01*
X016221Y021423D01*
X016298Y021500D01*
X016451Y021500D01*
X016528Y021423D01*
X016528Y021347D01*
X016451Y021270D01*
X016728Y021054D02*
X020958Y021054D01*
X020771Y020955D02*
X016650Y020955D01*
X016611Y020916D02*
X016611Y020916D01*
X016551Y020857D02*
X020672Y020857D01*
X021406Y019674D02*
X021464Y019674D01*
X020778Y018640D02*
X020728Y018640D01*
X020674Y018640D01*
X021737Y017309D02*
X023212Y017309D01*
X023189Y017211D02*
X021809Y017211D01*
X021809Y017112D02*
X023189Y017112D01*
X023189Y017014D02*
X021809Y017014D01*
X021809Y016915D02*
X023189Y016915D01*
X023189Y016816D02*
X021809Y016816D01*
X021809Y016718D02*
X023189Y016718D01*
X023189Y016619D02*
X021809Y016619D01*
X021809Y016521D02*
X023189Y016521D01*
X023189Y016422D02*
X021809Y016422D01*
X021809Y016324D02*
X023189Y016324D01*
X023189Y016225D02*
X021809Y016225D01*
X021809Y016127D02*
X023189Y016127D01*
X023053Y015338D02*
X022471Y015338D01*
X022569Y015240D02*
X022896Y015240D01*
X022809Y015141D02*
X022668Y015141D01*
X022766Y015043D02*
X022768Y015043D01*
X025024Y015043D02*
X028574Y015043D01*
X028574Y015141D02*
X025024Y015141D01*
X025024Y015240D02*
X028574Y015240D01*
X028574Y015338D02*
X025024Y015338D01*
X025024Y015437D02*
X028574Y015437D01*
X028147Y015535D02*
X025024Y015535D01*
X025059Y015634D02*
X028089Y015634D01*
X028089Y015732D02*
X025059Y015732D01*
X025059Y015831D02*
X028089Y015831D01*
X028089Y015930D02*
X025059Y015930D01*
X025059Y016028D02*
X028089Y016028D01*
X028089Y016127D02*
X025059Y016127D01*
X025059Y016225D02*
X028089Y016225D01*
X028089Y016324D02*
X025059Y016324D01*
X025059Y016422D02*
X028089Y016422D01*
X028089Y016521D02*
X025059Y016521D01*
X025059Y016619D02*
X028089Y016619D01*
X028089Y016718D02*
X025059Y016718D01*
X025059Y016816D02*
X028089Y016816D01*
X028089Y016915D02*
X025059Y016915D01*
X025059Y017014D02*
X028089Y017014D01*
X028089Y017112D02*
X025059Y017112D01*
X025059Y017211D02*
X028089Y017211D01*
X028112Y017309D02*
X025037Y017309D01*
X025024Y014944D02*
X028574Y014944D01*
X028574Y014846D02*
X025024Y014846D01*
X025024Y014747D02*
X028574Y014747D01*
X028574Y014648D02*
X025024Y014648D01*
X025024Y014550D02*
X028574Y014550D01*
X028574Y014451D02*
X025024Y014451D01*
X025024Y014353D02*
X028574Y014353D01*
X028574Y014254D02*
X025024Y014254D01*
X025024Y014156D02*
X028574Y014156D01*
X028574Y014057D02*
X025024Y014057D01*
X025024Y013959D02*
X028574Y013959D01*
X028574Y013860D02*
X025024Y013860D01*
X025024Y013762D02*
X028574Y013762D01*
X028574Y013663D02*
X025096Y013663D01*
X025195Y013564D02*
X028574Y013564D01*
X028574Y013466D02*
X025293Y013466D01*
X025392Y013367D02*
X028574Y013367D01*
X028549Y013269D02*
X025490Y013269D01*
X025589Y013170D02*
X028450Y013170D01*
X028391Y013072D02*
X025687Y013072D01*
X025786Y012973D02*
X028391Y012973D01*
X028391Y012875D02*
X025884Y012875D01*
X025983Y012776D02*
X028391Y012776D01*
X028391Y012678D02*
X026081Y012678D01*
X026180Y012579D02*
X028480Y012579D01*
X028579Y012481D02*
X026279Y012481D01*
X026377Y012382D02*
X028677Y012382D01*
X028833Y012086D02*
X029476Y012086D01*
X029575Y012185D02*
X026574Y012185D01*
X026476Y012283D02*
X029673Y012283D01*
X029772Y012382D02*
X029172Y012382D01*
X029270Y012481D02*
X029870Y012481D01*
X029969Y012579D02*
X029369Y012579D01*
X029458Y012678D02*
X029994Y012678D01*
X029994Y012776D02*
X029458Y012776D01*
X029458Y012875D02*
X030011Y012875D01*
X030052Y012973D02*
X029458Y012973D01*
X029458Y013072D02*
X030114Y013072D01*
X030046Y013170D02*
X029399Y013170D01*
X029300Y013269D02*
X030005Y013269D01*
X029994Y013367D02*
X029274Y013367D01*
X029274Y013466D02*
X029994Y013466D01*
X030027Y013564D02*
X029274Y013564D01*
X029274Y013663D02*
X030069Y013663D01*
X030167Y013762D02*
X029274Y013762D01*
X029274Y013860D02*
X030356Y013860D01*
X030593Y013860D02*
X030600Y013860D01*
X030698Y013959D02*
X029274Y013959D01*
X029274Y014057D02*
X030797Y014057D01*
X030896Y014156D02*
X029274Y014156D01*
X029274Y014254D02*
X030994Y014254D01*
X031093Y014353D02*
X029274Y014353D01*
X029274Y014451D02*
X031144Y014451D01*
X031171Y014550D02*
X029274Y014550D01*
X029274Y014648D02*
X031212Y014648D01*
X031274Y014747D02*
X029274Y014747D01*
X029274Y014846D02*
X031274Y014846D01*
X031207Y014944D02*
X029274Y014944D01*
X029274Y015043D02*
X031166Y015043D01*
X031144Y015141D02*
X029274Y015141D01*
X029274Y015240D02*
X031080Y015240D01*
X030981Y015338D02*
X029274Y015338D01*
X029274Y015437D02*
X030883Y015437D01*
X030784Y015535D02*
X029902Y015535D01*
X029959Y015634D02*
X030685Y015634D01*
X030587Y015732D02*
X029959Y015732D01*
X029959Y015831D02*
X030488Y015831D01*
X030390Y015930D02*
X029959Y015930D01*
X029959Y016028D02*
X030291Y016028D01*
X028216Y012086D02*
X026673Y012086D01*
X026724Y011988D02*
X028090Y011988D01*
X028019Y011889D02*
X026724Y011889D01*
X026724Y011791D02*
X027991Y011791D01*
X027991Y011692D02*
X026724Y011692D01*
X026724Y011594D02*
X027991Y011594D01*
X027991Y011495D02*
X026724Y011495D01*
X026724Y011397D02*
X028013Y011397D01*
X028089Y011298D02*
X026724Y011298D01*
X026724Y011199D02*
X028089Y011199D01*
X028089Y011101D02*
X026768Y011101D01*
X026867Y011002D02*
X028089Y011002D01*
X028089Y010904D02*
X026908Y010904D01*
X026908Y010805D02*
X028089Y010805D01*
X028089Y010707D02*
X026908Y010707D01*
X026908Y010608D02*
X028089Y010608D01*
X028089Y010510D02*
X026899Y010510D01*
X026801Y010411D02*
X028089Y010411D01*
X028089Y010313D02*
X026702Y010313D01*
X026604Y010214D02*
X028168Y010214D01*
X027299Y009426D02*
X032274Y009426D01*
X032274Y009524D02*
X026354Y009524D01*
X026424Y009623D02*
X032274Y009623D01*
X032274Y009721D02*
X026424Y009721D01*
X026424Y009820D02*
X032274Y009820D01*
X032274Y009918D02*
X026391Y009918D01*
X026292Y010017D02*
X032274Y010017D01*
X032274Y009327D02*
X027321Y009327D01*
X027321Y009229D02*
X032274Y009229D01*
X032274Y009130D02*
X027321Y009130D01*
X027321Y009031D02*
X032274Y009031D01*
X032274Y008933D02*
X027321Y008933D01*
X027310Y008834D02*
X032274Y008834D01*
X032274Y008736D02*
X018728Y008736D01*
X018644Y008820D02*
X018954Y008509D01*
X018954Y008070D01*
X018644Y007760D01*
X018205Y007760D01*
X017894Y008070D01*
X017894Y008509D01*
X018205Y008820D01*
X018644Y008820D01*
X018826Y008637D02*
X032274Y008637D01*
X032274Y008539D02*
X031241Y008539D01*
X031258Y008535D02*
X031258Y008535D01*
X031102Y008568D02*
X031102Y008568D01*
X030944Y008586D02*
X030944Y008586D01*
X030785Y008589D02*
X030785Y008589D01*
X030626Y008578D02*
X030626Y008578D01*
X030412Y008539D02*
X018925Y008539D01*
X018954Y008440D02*
X030121Y008440D01*
X030314Y008514D02*
X030314Y008514D01*
X029930Y008342D02*
X018954Y008342D01*
X018954Y008243D02*
X029781Y008243D01*
X029660Y008145D02*
X018954Y008145D01*
X018930Y008046D02*
X029559Y008046D01*
X029519Y008005D02*
X029519Y008005D01*
X029472Y007948D02*
X018832Y007948D01*
X018733Y007849D02*
X020866Y007849D01*
X020907Y007890D02*
X021342Y007890D01*
X021649Y007582D01*
X021649Y006397D01*
X021342Y006090D01*
X020907Y006090D01*
X020599Y006397D01*
X020599Y006885D01*
X020581Y006885D01*
X020581Y006808D01*
X020461Y006688D01*
X020291Y006688D01*
X020171Y006808D01*
X020171Y006885D01*
X020095Y006885D01*
X019974Y007005D01*
X019974Y007175D01*
X020095Y007295D01*
X020171Y007295D01*
X020171Y007372D01*
X020291Y007492D01*
X020461Y007492D01*
X020581Y007372D01*
X020581Y007295D01*
X020599Y007295D01*
X020599Y007582D01*
X020907Y007890D01*
X020768Y007750D02*
X016681Y007750D01*
X016780Y007652D02*
X020669Y007652D01*
X020599Y007553D02*
X016849Y007553D01*
X016849Y007582D02*
X016849Y006397D01*
X016542Y006090D01*
X016107Y006090D01*
X015799Y006397D01*
X015799Y006885D01*
X015781Y006885D01*
X015781Y006808D01*
X015661Y006688D01*
X015491Y006688D01*
X015371Y006808D01*
X015371Y006885D01*
X015295Y006885D01*
X015174Y007005D01*
X015174Y007175D01*
X015295Y007295D01*
X015371Y007295D01*
X015371Y007372D01*
X015491Y007492D01*
X015661Y007492D01*
X015781Y007372D01*
X015781Y007295D01*
X015799Y007295D01*
X015799Y007582D01*
X016107Y007890D01*
X016542Y007890D01*
X016849Y007582D01*
X016849Y007455D02*
X020254Y007455D01*
X020171Y007356D02*
X016849Y007356D01*
X016849Y007258D02*
X020057Y007258D01*
X019974Y007159D02*
X016849Y007159D01*
X016849Y007061D02*
X019974Y007061D01*
X020017Y006962D02*
X016849Y006962D01*
X016849Y006864D02*
X020171Y006864D01*
X020215Y006765D02*
X016849Y006765D01*
X016849Y006666D02*
X020599Y006666D01*
X020599Y006568D02*
X016849Y006568D01*
X016849Y006469D02*
X020599Y006469D01*
X020626Y006371D02*
X016823Y006371D01*
X016724Y006272D02*
X020724Y006272D01*
X020774Y006174D02*
X020823Y006174D01*
X020873Y006075D02*
X021369Y006075D01*
X021426Y006174D02*
X021467Y006174D01*
X021524Y006272D02*
X025524Y006272D01*
X025574Y006174D02*
X025623Y006174D01*
X025673Y006075D02*
X026169Y006075D01*
X026142Y006090D02*
X025707Y006090D01*
X025399Y006397D01*
X025399Y006885D01*
X025381Y006885D01*
X025381Y006808D01*
X025261Y006688D01*
X025091Y006688D01*
X024971Y006808D01*
X024971Y006885D01*
X024895Y006885D01*
X024774Y007005D01*
X024774Y007175D01*
X024895Y007295D01*
X024971Y007295D01*
X024971Y007372D01*
X025091Y007492D01*
X025261Y007492D01*
X025381Y007372D01*
X025381Y007295D01*
X025399Y007295D01*
X025399Y007582D01*
X025707Y007890D01*
X026142Y007890D01*
X026449Y007582D01*
X026449Y006397D01*
X026142Y006090D01*
X026226Y006174D02*
X026267Y006174D01*
X026324Y006272D02*
X029171Y006272D01*
X029139Y006368D02*
X029139Y006368D01*
X029139Y006371D02*
X026423Y006371D01*
X026449Y006469D02*
X029116Y006469D01*
X029103Y006523D02*
X029103Y006523D01*
X029097Y006568D02*
X026449Y006568D01*
X026449Y006666D02*
X029084Y006666D01*
X029082Y006681D02*
X029082Y006681D01*
X029078Y006765D02*
X026449Y006765D01*
X026449Y006864D02*
X029076Y006864D01*
X029080Y006962D02*
X026449Y006962D01*
X026449Y007061D02*
X029090Y007061D01*
X029082Y006999D02*
X029082Y006999D01*
X029103Y007157D02*
X029103Y007157D01*
X029104Y007159D02*
X026449Y007159D01*
X026449Y007258D02*
X029127Y007258D01*
X029154Y007356D02*
X026449Y007356D01*
X026449Y007455D02*
X029186Y007455D01*
X029228Y007553D02*
X026449Y007553D01*
X026380Y007652D02*
X029276Y007652D01*
X029330Y007750D02*
X026281Y007750D01*
X026183Y007849D02*
X029396Y007849D01*
X031529Y008440D02*
X032274Y008440D01*
X032274Y008342D02*
X031721Y008342D01*
X031699Y008355D02*
X031699Y008355D01*
X031558Y008429D02*
X031558Y008429D01*
X031834Y008269D02*
X031834Y008269D01*
X031867Y008243D02*
X032274Y008243D01*
X032274Y008145D02*
X031989Y008145D01*
X031959Y008172D02*
X031959Y008172D01*
X032076Y008063D02*
X032076Y008063D01*
X032091Y008046D02*
X032274Y008046D01*
X032274Y007948D02*
X032179Y007948D01*
X032182Y007944D02*
X032182Y007944D01*
X032252Y007849D02*
X032274Y007849D01*
X029364Y005878D02*
X026967Y005878D01*
X026967Y005780D02*
X029433Y005780D01*
X029514Y005681D02*
X026967Y005681D01*
X026967Y005582D02*
X029609Y005582D01*
X029630Y005561D02*
X029630Y005561D01*
X029630Y005561D01*
X029720Y005484D02*
X026967Y005484D01*
X026962Y005977D02*
X029304Y005977D01*
X029251Y006075D02*
X026864Y006075D01*
X026847Y006092D02*
X026847Y006092D01*
X026765Y006174D02*
X029208Y006174D01*
X029519Y005675D02*
X029519Y005675D01*
X029751Y005457D02*
X029751Y005457D01*
X026016Y005977D02*
X025826Y005977D01*
X025908Y005878D02*
X025933Y005878D01*
X025426Y006371D02*
X021623Y006371D01*
X021649Y006469D02*
X025399Y006469D01*
X025399Y006568D02*
X021649Y006568D01*
X021649Y006666D02*
X025399Y006666D01*
X025399Y006765D02*
X025338Y006765D01*
X025381Y006864D02*
X025399Y006864D01*
X025015Y006765D02*
X021649Y006765D01*
X021649Y006864D02*
X024971Y006864D01*
X024817Y006962D02*
X021649Y006962D01*
X021649Y007061D02*
X024774Y007061D01*
X024774Y007159D02*
X021649Y007159D01*
X021649Y007258D02*
X024857Y007258D01*
X024971Y007356D02*
X021649Y007356D01*
X021649Y007455D02*
X025054Y007455D01*
X025298Y007455D02*
X025399Y007455D01*
X025399Y007553D02*
X021649Y007553D01*
X021580Y007652D02*
X025469Y007652D01*
X025568Y007750D02*
X021481Y007750D01*
X021383Y007849D02*
X025666Y007849D01*
X025399Y007356D02*
X025381Y007356D01*
X024978Y006174D02*
X021965Y006174D01*
X021949Y006190D02*
X021949Y006190D01*
X022047Y006092D02*
X022047Y006092D01*
X022064Y006075D02*
X024880Y006075D01*
X024874Y005977D02*
X022162Y005977D01*
X022167Y005878D02*
X024874Y005878D01*
X024874Y005780D02*
X022167Y005780D01*
X022167Y005681D02*
X024874Y005681D01*
X024879Y005582D02*
X022145Y005582D01*
X022046Y005484D02*
X024874Y005484D01*
X021216Y005977D02*
X021026Y005977D01*
X021108Y005878D02*
X021133Y005878D01*
X020178Y006174D02*
X016626Y006174D01*
X016626Y005977D02*
X016871Y005977D01*
X016772Y005878D02*
X016725Y005878D01*
X016767Y005873D02*
X016767Y005873D01*
X017271Y005977D02*
X017515Y005977D01*
X017417Y005878D02*
X017369Y005878D01*
X018014Y005977D02*
X020074Y005977D01*
X020080Y006075D02*
X012268Y006075D01*
X012367Y005977D02*
X016128Y005977D01*
X016029Y005878D02*
X012466Y005878D01*
X012470Y005780D02*
X016024Y005780D01*
X016024Y005681D02*
X012448Y005681D01*
X012372Y005582D02*
X016024Y005582D01*
X016024Y005484D02*
X012466Y005484D01*
X011967Y005977D02*
X011919Y005977D01*
X011962Y005972D02*
X011962Y005972D01*
X012065Y006075D02*
X010979Y006075D01*
X010881Y006174D02*
X011223Y006174D01*
X011307Y006090D02*
X010999Y006397D01*
X010999Y007582D01*
X011307Y007890D01*
X011742Y007890D01*
X012049Y007582D01*
X012049Y006397D01*
X011742Y006090D01*
X011307Y006090D01*
X011322Y005977D02*
X011176Y005977D01*
X011526Y005977D02*
X011716Y005977D01*
X011826Y006174D02*
X012723Y006174D01*
X012624Y006272D02*
X011924Y006272D01*
X012023Y006371D02*
X012526Y006371D01*
X012499Y006469D02*
X012049Y006469D01*
X012049Y006568D02*
X012499Y006568D01*
X012499Y006666D02*
X012049Y006666D01*
X012049Y006765D02*
X012499Y006765D01*
X012499Y006864D02*
X012049Y006864D01*
X012049Y006962D02*
X012499Y006962D01*
X012499Y007061D02*
X012049Y007061D01*
X012049Y007159D02*
X012499Y007159D01*
X012499Y007258D02*
X012049Y007258D01*
X012049Y007356D02*
X012499Y007356D01*
X012499Y007455D02*
X012049Y007455D01*
X012049Y007553D02*
X012499Y007553D01*
X012569Y007652D02*
X011980Y007652D01*
X011881Y007750D02*
X012668Y007750D01*
X012766Y007849D02*
X011783Y007849D01*
X011266Y007849D02*
X011154Y007849D01*
X011154Y007948D02*
X013017Y007948D01*
X012919Y008046D02*
X011154Y008046D01*
X011154Y008145D02*
X012894Y008145D01*
X012894Y008243D02*
X011121Y008243D01*
X011022Y008342D02*
X012894Y008342D01*
X013262Y008834D02*
X015308Y008834D01*
X015308Y008736D02*
X013728Y008736D01*
X013163Y008933D02*
X015308Y008933D01*
X015308Y009031D02*
X010665Y009031D01*
X010701Y009130D02*
X010566Y009130D01*
X010585Y009229D02*
X010467Y009229D01*
X010496Y009327D02*
X010369Y009327D01*
X010455Y009426D02*
X010270Y009426D01*
X010172Y009524D02*
X010415Y009524D01*
X010413Y009623D02*
X010144Y009623D01*
X010144Y009721D02*
X010413Y009721D01*
X010436Y009820D02*
X010144Y009820D01*
X010144Y009918D02*
X010477Y009918D01*
X010502Y010017D02*
X010144Y010017D01*
X010144Y010115D02*
X010404Y010115D01*
X010324Y010214D02*
X010144Y010214D01*
X010144Y010313D02*
X010324Y010313D01*
X010324Y010411D02*
X010144Y010411D01*
X010144Y010510D02*
X010349Y010510D01*
X010448Y010608D02*
X010144Y010608D01*
X010144Y010707D02*
X010893Y010707D01*
X010893Y010805D02*
X010144Y010805D01*
X010144Y010904D02*
X010893Y010904D01*
X010927Y011002D02*
X010144Y011002D01*
X009604Y011594D02*
X008896Y011594D01*
X008971Y011692D02*
X009604Y011692D01*
X009604Y011791D02*
X008971Y011791D01*
X008971Y011889D02*
X009604Y011889D01*
X008924Y011090D02*
X008574Y011090D01*
X008574Y011040D01*
X008598Y011016D01*
X008648Y011102D01*
X008374Y011101D02*
X008159Y011101D01*
X008159Y011199D02*
X008390Y011199D01*
X008390Y011298D02*
X008159Y011298D01*
X008159Y011397D02*
X008390Y011397D01*
X008374Y011002D02*
X008159Y011002D01*
X008159Y010904D02*
X008390Y010904D01*
X008390Y010805D02*
X008242Y010805D01*
X008174Y010590D02*
X007874Y010890D01*
X007874Y011090D01*
X007863Y011152D01*
X007900Y011102D01*
X007642Y011025D02*
X007557Y010940D01*
X007381Y010764D01*
X007381Y010518D01*
X007293Y010430D01*
X006779Y010430D01*
X006774Y010435D01*
X006774Y010223D01*
X006786Y010211D01*
X007229Y010211D01*
X007317Y010123D01*
X007317Y009605D01*
X007229Y009517D01*
X007091Y009517D01*
X007091Y009463D01*
X007229Y009463D01*
X007317Y009375D01*
X007317Y009240D01*
X007332Y009240D01*
X007332Y009749D01*
X007420Y009837D01*
X007642Y009837D01*
X007642Y010376D01*
X007730Y010464D01*
X008017Y010464D01*
X007792Y010690D01*
X007766Y010715D01*
X007730Y010715D01*
X007642Y010803D01*
X007642Y011025D01*
X007642Y011002D02*
X007620Y011002D01*
X007642Y010904D02*
X007521Y010904D01*
X007423Y010805D02*
X007642Y010805D01*
X007775Y010707D02*
X007381Y010707D01*
X007381Y010608D02*
X007873Y010608D01*
X007972Y010510D02*
X007373Y010510D01*
X007677Y010411D02*
X006774Y010411D01*
X006774Y010313D02*
X007642Y010313D01*
X007642Y010214D02*
X006783Y010214D01*
X007317Y010115D02*
X007642Y010115D01*
X007642Y010017D02*
X007317Y010017D01*
X007317Y009918D02*
X007642Y009918D01*
X007403Y009820D02*
X007317Y009820D01*
X007317Y009721D02*
X007332Y009721D01*
X007332Y009623D02*
X007317Y009623D01*
X007332Y009524D02*
X007236Y009524D01*
X007266Y009426D02*
X007332Y009426D01*
X007332Y009327D02*
X007317Y009327D01*
X007024Y009040D02*
X007774Y009040D01*
X007874Y008940D01*
X007890Y008940D01*
X008213Y008637D02*
X008236Y008637D01*
X008559Y008940D02*
X008559Y009324D01*
X008724Y009490D01*
X008724Y009540D01*
X008648Y009666D01*
X008648Y010078D01*
X008924Y010590D02*
X008174Y010590D01*
X007900Y010078D02*
X007900Y009566D01*
X007774Y009490D01*
X007758Y009490D01*
X007024Y009040D02*
X006924Y009140D01*
X006900Y009116D01*
X006891Y009116D01*
X006898Y009116D02*
X006924Y009090D01*
X006933Y007849D02*
X008999Y007849D01*
X008999Y007750D02*
X007031Y007750D01*
X007130Y007652D02*
X009024Y007652D01*
X010311Y007553D02*
X007199Y007553D01*
X007199Y007455D02*
X010999Y007455D01*
X010999Y007553D02*
X010938Y007553D01*
X011036Y007652D02*
X011069Y007652D01*
X011135Y007750D02*
X011168Y007750D01*
X010999Y007356D02*
X007199Y007356D01*
X007199Y007258D02*
X010999Y007258D01*
X010999Y007159D02*
X007199Y007159D01*
X007199Y007061D02*
X010999Y007061D01*
X010999Y006962D02*
X007199Y006962D01*
X007199Y006864D02*
X010999Y006864D01*
X010999Y006765D02*
X007199Y006765D01*
X007199Y006666D02*
X010999Y006666D01*
X010999Y006568D02*
X007199Y006568D01*
X007199Y006469D02*
X010999Y006469D01*
X011026Y006371D02*
X007173Y006371D01*
X007074Y006272D02*
X011124Y006272D01*
X010678Y006174D02*
X006976Y006174D01*
X006971Y005977D02*
X007117Y005977D01*
X007112Y005972D02*
X007112Y005972D01*
X007215Y006075D02*
X006129Y006075D01*
X006031Y006174D02*
X006373Y006174D01*
X006326Y005977D02*
X006571Y005977D01*
X006472Y005878D02*
X006425Y005878D01*
X007418Y006075D02*
X010580Y006075D01*
X010574Y005977D02*
X007517Y005977D01*
X007616Y005878D02*
X010574Y005878D01*
X010574Y005780D02*
X007620Y005780D01*
X007598Y005681D02*
X010574Y005681D01*
X010574Y005582D02*
X007522Y005582D01*
X007616Y005484D02*
X010574Y005484D01*
X013326Y006174D02*
X016023Y006174D01*
X015924Y006272D02*
X013424Y006272D01*
X013523Y006371D02*
X015826Y006371D01*
X015799Y006469D02*
X013549Y006469D01*
X013549Y006568D02*
X015799Y006568D01*
X015799Y006666D02*
X013549Y006666D01*
X013549Y006765D02*
X015415Y006765D01*
X015371Y006864D02*
X013549Y006864D01*
X013549Y006962D02*
X015217Y006962D01*
X015174Y007061D02*
X013549Y007061D01*
X013549Y007159D02*
X015174Y007159D01*
X015257Y007258D02*
X013549Y007258D01*
X013549Y007356D02*
X015371Y007356D01*
X015454Y007455D02*
X013549Y007455D01*
X013549Y007553D02*
X014322Y007553D01*
X014299Y007652D02*
X013480Y007652D01*
X013381Y007750D02*
X014299Y007750D01*
X014299Y007849D02*
X013733Y007849D01*
X014874Y008040D02*
X015040Y008205D01*
X015674Y008155D01*
X016041Y008145D02*
X017894Y008145D01*
X017894Y008243D02*
X016041Y008243D01*
X016041Y008342D02*
X017894Y008342D01*
X017894Y008440D02*
X016015Y008440D01*
X016014Y008539D02*
X017924Y008539D01*
X018023Y008637D02*
X016041Y008637D01*
X016041Y008736D02*
X018121Y008736D01*
X017919Y008046D02*
X016041Y008046D01*
X016041Y007948D02*
X018017Y007948D01*
X018116Y007849D02*
X016583Y007849D01*
X016066Y007849D02*
X015994Y007849D01*
X015968Y007750D02*
X015450Y007750D01*
X015450Y007652D02*
X015869Y007652D01*
X015799Y007553D02*
X015427Y007553D01*
X015698Y007455D02*
X015799Y007455D01*
X015799Y007356D02*
X015781Y007356D01*
X015799Y006864D02*
X015781Y006864D01*
X015799Y006765D02*
X015738Y006765D01*
X015335Y008539D02*
X014941Y008539D01*
X014842Y008637D02*
X015308Y008637D01*
X015674Y008790D02*
X015674Y008824D01*
X015674Y008840D01*
X016041Y008834D02*
X024839Y008834D01*
X024828Y008933D02*
X016041Y008933D01*
X016041Y009031D02*
X024828Y009031D01*
X024828Y009130D02*
X015994Y009130D01*
X015364Y009229D02*
X024828Y009229D01*
X025154Y010214D02*
X026145Y010214D01*
X026047Y010313D02*
X025279Y010313D01*
X025359Y010411D02*
X025948Y010411D01*
X025850Y010510D02*
X025449Y010510D01*
X025458Y010608D02*
X025841Y010608D01*
X025841Y010707D02*
X025458Y010707D01*
X025458Y010805D02*
X025841Y010805D01*
X025841Y010904D02*
X025458Y010904D01*
X025417Y011002D02*
X025882Y011002D01*
X025981Y011101D02*
X025359Y011101D01*
X025359Y011199D02*
X026024Y011199D01*
X026024Y011298D02*
X025359Y011298D01*
X025359Y011397D02*
X026024Y011397D01*
X026024Y011495D02*
X025359Y011495D01*
X025359Y011594D02*
X026024Y011594D01*
X026024Y011692D02*
X025359Y011692D01*
X025359Y011791D02*
X025979Y011791D01*
X025880Y011889D02*
X025359Y011889D01*
X025359Y011988D02*
X025782Y011988D01*
X025683Y012086D02*
X025359Y012086D01*
X020599Y007455D02*
X020498Y007455D01*
X020581Y007356D02*
X020599Y007356D01*
X020599Y006864D02*
X020581Y006864D01*
X020599Y006765D02*
X020538Y006765D01*
X020074Y005878D02*
X018112Y005878D01*
X018117Y005780D02*
X020074Y005780D01*
X020074Y005681D02*
X018095Y005681D01*
X018113Y005582D02*
X020079Y005582D01*
X020074Y005484D02*
X018117Y005484D01*
X015355Y009130D02*
X015247Y009130D01*
X014639Y009130D02*
X011310Y009130D01*
X011427Y009229D02*
X014522Y009229D01*
X014433Y009327D02*
X011516Y009327D01*
X011557Y009426D02*
X014392Y009426D01*
X013624Y009790D02*
X013209Y009790D01*
X012843Y009820D02*
X011576Y009820D01*
X011599Y009721D02*
X012843Y009721D01*
X012843Y009623D02*
X011599Y009623D01*
X011597Y009524D02*
X012849Y009524D01*
X012843Y009918D02*
X011535Y009918D01*
X011473Y010017D02*
X012843Y010017D01*
X013043Y010440D02*
X013043Y010949D01*
X013125Y011031D01*
X013041Y011031D01*
X012954Y011119D01*
X012954Y011123D01*
X012450Y011123D01*
X012374Y011199D01*
X012299Y011123D01*
X011891Y011123D01*
X011587Y010819D01*
X011587Y010440D01*
X013043Y010440D01*
X013043Y010510D02*
X011587Y010510D01*
X011587Y010608D02*
X013043Y010608D01*
X013043Y010707D02*
X011587Y010707D01*
X011587Y010805D02*
X013043Y010805D01*
X013043Y010904D02*
X011671Y010904D01*
X011770Y011002D02*
X013096Y011002D01*
X012972Y011101D02*
X011868Y011101D01*
X011240Y010755D02*
X011240Y010690D01*
X011224Y010290D02*
X011274Y010240D01*
X013774Y010240D01*
X014048Y010514D01*
X014048Y011457D01*
X013702Y011495D02*
X013647Y011495D01*
X013647Y011397D02*
X013702Y011397D01*
X013702Y011298D02*
X013647Y011298D01*
X013647Y011199D02*
X013702Y011199D01*
X013720Y011101D02*
X013629Y011101D01*
X013722Y011002D02*
X013849Y011002D01*
X013849Y010904D02*
X013776Y010904D01*
X013776Y010805D02*
X013849Y010805D01*
X013849Y010707D02*
X013776Y010707D01*
X013776Y010608D02*
X013849Y010608D01*
X013474Y010690D02*
X013424Y010740D01*
X013424Y011190D01*
X013300Y011314D01*
X013300Y011457D01*
X012741Y011457D01*
X012724Y011440D01*
X012709Y011455D01*
X012709Y011490D01*
X013647Y011594D02*
X013702Y011594D01*
X013702Y011692D02*
X013647Y011692D01*
X013647Y011791D02*
X013702Y011791D01*
X014395Y011791D02*
X014485Y011791D01*
X014428Y011692D02*
X014395Y011692D01*
X013474Y010690D02*
X013409Y010690D01*
X011224Y010290D02*
X010674Y010290D01*
X010674Y010340D01*
X007474Y011140D02*
X007474Y012540D01*
X007474Y013090D02*
X007424Y013090D01*
X006808Y013073D02*
X006858Y013666D01*
X006432Y013663D02*
X005574Y013663D01*
X005574Y013564D02*
X006432Y013564D01*
X006432Y013466D02*
X005574Y013466D01*
X005574Y013367D02*
X006393Y013367D01*
X006393Y013269D02*
X005574Y013269D01*
X005574Y013170D02*
X006393Y013170D01*
X006393Y013072D02*
X005574Y013072D01*
X005574Y012973D02*
X006393Y012973D01*
X006393Y012875D02*
X005574Y012875D01*
X005174Y012875D02*
X004956Y012875D01*
X004956Y012973D02*
X005174Y012973D01*
X005174Y013072D02*
X004956Y013072D01*
X004956Y013170D02*
X005174Y013170D01*
X005174Y013269D02*
X004956Y013269D01*
X004956Y013367D02*
X005174Y013367D01*
X005174Y013466D02*
X004956Y013466D01*
X004956Y013564D02*
X005174Y013564D01*
X005174Y013663D02*
X004956Y013663D01*
X004956Y013762D02*
X005174Y013762D01*
X005174Y013860D02*
X004956Y013860D01*
X004962Y013959D02*
X005174Y013959D01*
X005174Y014057D02*
X005061Y014057D01*
X005074Y014156D02*
X005174Y014156D01*
X005174Y014254D02*
X005074Y014254D01*
X005074Y014353D02*
X005174Y014353D01*
X005174Y014451D02*
X005074Y014451D01*
X005074Y014536D02*
X005074Y014536D01*
X005060Y014550D02*
X005174Y014550D01*
X005174Y014648D02*
X005008Y014648D01*
X005074Y014747D02*
X005174Y014747D01*
X005174Y014846D02*
X005074Y014846D01*
X005074Y014944D02*
X005174Y014944D01*
X005174Y015043D02*
X005074Y015043D01*
X005074Y015141D02*
X005174Y015141D01*
X005174Y015240D02*
X005074Y015240D01*
X005015Y015338D02*
X005174Y015338D01*
X005174Y015437D02*
X005066Y015437D01*
X005074Y015535D02*
X005174Y015535D01*
X005186Y015634D02*
X005074Y015634D01*
X005074Y015732D02*
X005284Y015732D01*
X005383Y015831D02*
X004978Y015831D01*
X005574Y015338D02*
X006178Y015338D01*
X006080Y015240D02*
X005574Y015240D01*
X005574Y015141D02*
X005981Y015141D01*
X005974Y015043D02*
X005574Y015043D01*
X005574Y014944D02*
X005974Y014944D01*
X005974Y014846D02*
X005574Y014846D01*
X005574Y014747D02*
X005974Y014747D01*
X005974Y014648D02*
X005574Y014648D01*
X005574Y014550D02*
X005974Y014550D01*
X005974Y014451D02*
X005574Y014451D01*
X005574Y014353D02*
X005620Y014353D01*
X005991Y014040D02*
X006074Y014040D01*
X006174Y014140D01*
X006174Y014940D01*
X006224Y014990D01*
X006324Y014990D01*
X006417Y013959D02*
X006466Y013959D01*
X006432Y013860D02*
X006417Y013860D01*
X006432Y013762D02*
X006398Y013762D01*
X005585Y013762D02*
X005574Y013762D01*
X004674Y013690D02*
X004609Y013624D01*
X004609Y013140D01*
X004609Y012224D01*
X004174Y011790D01*
X004174Y011440D01*
X003932Y011692D02*
X003656Y011692D01*
X003656Y011791D02*
X003974Y011791D01*
X003991Y011889D02*
X003656Y011889D01*
X003656Y011988D02*
X004090Y011988D01*
X004188Y012086D02*
X003638Y012086D01*
X003309Y011790D02*
X003409Y011655D01*
X003390Y011174D01*
X003374Y011274D01*
X003008Y011298D02*
X001874Y011298D01*
X001874Y011397D02*
X003008Y011397D01*
X002978Y011495D02*
X001874Y011495D01*
X001874Y011594D02*
X002962Y011594D01*
X002962Y011692D02*
X001874Y011692D01*
X001874Y011791D02*
X002962Y011791D01*
X002962Y011889D02*
X001874Y011889D01*
X001874Y011988D02*
X002962Y011988D01*
X002980Y012086D02*
X001874Y012086D01*
X001874Y012185D02*
X004287Y012185D01*
X004385Y012283D02*
X001874Y012283D01*
X001874Y012382D02*
X004409Y012382D01*
X004409Y012481D02*
X001874Y012481D01*
X001874Y012579D02*
X004409Y012579D01*
X004409Y012678D02*
X001874Y012678D01*
X001874Y012776D02*
X003097Y012776D01*
X003062Y012875D02*
X001874Y012875D01*
X001874Y012973D02*
X003062Y012973D01*
X003062Y013072D02*
X001874Y013072D01*
X001874Y013170D02*
X003062Y013170D01*
X003062Y013269D02*
X001874Y013269D01*
X001874Y013367D02*
X002437Y013367D01*
X002393Y013466D02*
X001874Y013466D01*
X001874Y013564D02*
X002393Y013564D01*
X002393Y013663D02*
X001874Y013663D01*
X001874Y013762D02*
X002393Y013762D01*
X002393Y013860D02*
X001874Y013860D01*
X001874Y013959D02*
X002393Y013959D01*
X002358Y014057D02*
X001874Y014057D01*
X001874Y014156D02*
X002358Y014156D01*
X002358Y014254D02*
X001874Y014254D01*
X001874Y014353D02*
X002358Y014353D01*
X002358Y014451D02*
X001874Y014451D01*
X001874Y014550D02*
X002394Y014550D01*
X002375Y014648D02*
X001874Y014648D01*
X001874Y014747D02*
X002358Y014747D01*
X002358Y014846D02*
X001874Y014846D01*
X001874Y014944D02*
X002358Y014944D01*
X002358Y015043D02*
X001874Y015043D01*
X001874Y015141D02*
X002358Y015141D01*
X002414Y015240D02*
X001874Y015240D01*
X001874Y015338D02*
X002940Y015338D01*
X003324Y015440D02*
X002824Y014940D01*
X002724Y014255D02*
X002724Y013690D01*
X002740Y013690D01*
X002740Y013755D01*
X003374Y014390D01*
X003974Y014390D02*
X004609Y013755D01*
X004609Y013690D01*
X004674Y013690D01*
X003940Y013690D02*
X003409Y013690D01*
X003062Y013367D02*
X003043Y013367D01*
X003409Y013090D02*
X004074Y013040D01*
X003974Y013140D01*
X003940Y013140D01*
X004202Y012776D02*
X004347Y012776D01*
X004809Y012678D02*
X005174Y012678D01*
X005174Y012776D02*
X004871Y012776D01*
X004809Y012579D02*
X005174Y012579D01*
X005174Y012481D02*
X004809Y012481D01*
X004809Y012382D02*
X005134Y012382D01*
X005035Y012283D02*
X004809Y012283D01*
X004809Y012185D02*
X004937Y012185D01*
X004838Y012086D02*
X004754Y012086D01*
X004692Y012024D02*
X004692Y012024D01*
X004655Y011988D02*
X004740Y011988D01*
X003833Y011594D02*
X003681Y011594D01*
X003741Y011495D02*
X003824Y011495D01*
X003824Y011397D02*
X003741Y011397D01*
X003741Y011298D02*
X003824Y011298D01*
X003741Y011199D02*
X003920Y011199D01*
X004018Y011101D02*
X003741Y011101D01*
X003728Y011002D02*
X004496Y011002D01*
X004493Y010904D02*
X003701Y010904D01*
X003741Y010805D02*
X004493Y010805D01*
X004493Y010707D02*
X003741Y010707D01*
X003741Y010608D02*
X004493Y010608D01*
X004493Y010510D02*
X003741Y010510D01*
X003741Y010411D02*
X003843Y010411D01*
X003843Y010313D02*
X003707Y010313D01*
X003595Y010214D02*
X003843Y010214D01*
X003843Y010115D02*
X003674Y010115D01*
X003674Y010017D02*
X003843Y010017D01*
X003808Y009918D02*
X003674Y009918D01*
X003459Y009905D02*
X003324Y009990D01*
X003324Y010440D01*
X003374Y010605D01*
X003008Y010608D02*
X002847Y010608D01*
X002871Y010510D02*
X003008Y010510D01*
X003008Y010411D02*
X002871Y010411D01*
X002871Y010313D02*
X003041Y010313D01*
X003054Y010214D02*
X002871Y010214D01*
X002871Y010115D02*
X002974Y010115D01*
X002974Y010017D02*
X002862Y010017D01*
X002974Y009918D02*
X002536Y009918D01*
X002494Y009820D02*
X002437Y009820D01*
X002424Y009721D02*
X002493Y009721D01*
X002274Y009440D02*
X002774Y009440D01*
X002840Y009540D01*
X002840Y008924D01*
X002974Y008940D01*
X002940Y008905D01*
X002840Y008990D01*
X002493Y009031D02*
X002311Y009031D01*
X002374Y009130D02*
X002493Y009130D01*
X002493Y009229D02*
X002374Y009229D01*
X002274Y009440D02*
X002024Y009240D01*
X002213Y008933D02*
X002493Y008933D01*
X002493Y008834D02*
X001874Y008834D01*
X001874Y008736D02*
X002493Y008736D01*
X002567Y008637D02*
X001874Y008637D01*
X001874Y008539D02*
X002912Y008539D01*
X002814Y008514D02*
X002814Y008514D01*
X002664Y008460D02*
X002664Y008460D01*
X002620Y008440D02*
X001874Y008440D01*
X001874Y008342D02*
X002430Y008342D01*
X002519Y008394D02*
X002519Y008394D01*
X002281Y008243D02*
X001874Y008243D01*
X001874Y008145D02*
X002160Y008145D01*
X002059Y008046D02*
X001874Y008046D01*
X001874Y007948D02*
X001972Y007948D01*
X002019Y008005D02*
X002019Y008005D01*
X001896Y007849D02*
X001874Y007849D01*
X003126Y008578D02*
X003126Y008578D01*
X003113Y008637D02*
X003236Y008637D01*
X003285Y008589D02*
X003285Y008589D01*
X003444Y008586D02*
X003444Y008586D01*
X003602Y008568D02*
X003602Y008568D01*
X004029Y008440D02*
X005325Y008440D01*
X005227Y008342D02*
X004221Y008342D01*
X004199Y008355D02*
X004199Y008355D01*
X004058Y008429D02*
X004058Y008429D01*
X004334Y008269D02*
X004334Y008269D01*
X004367Y008243D02*
X005128Y008243D01*
X005094Y008145D02*
X004489Y008145D01*
X004459Y008172D02*
X004459Y008172D01*
X004576Y008063D02*
X004576Y008063D01*
X004591Y008046D02*
X005094Y008046D01*
X005094Y007948D02*
X004679Y007948D01*
X004682Y007944D02*
X004682Y007944D01*
X004752Y007849D02*
X005094Y007849D01*
X005114Y007750D02*
X004817Y007750D01*
X004777Y007816D02*
X004777Y007816D01*
X004860Y007680D02*
X004860Y007680D01*
X004873Y007652D02*
X005213Y007652D01*
X005311Y007553D02*
X004922Y007553D01*
X004930Y007537D02*
X004930Y007537D01*
X003724Y008990D02*
X004124Y009390D01*
X004124Y009740D01*
X004124Y009890D01*
X004324Y010090D01*
X004224Y010090D01*
X004174Y010140D01*
X004190Y010140D01*
X003459Y009905D02*
X003459Y009605D01*
X003474Y009590D01*
X003509Y009540D01*
X003509Y008990D02*
X003724Y008990D01*
X002524Y010190D02*
X002074Y009740D01*
X002167Y010115D02*
X001874Y010115D01*
X001874Y010214D02*
X002178Y010214D01*
X002178Y010313D02*
X001874Y010313D01*
X001874Y010411D02*
X002178Y010411D01*
X002090Y010424D02*
X002024Y010440D01*
X001874Y010510D02*
X002178Y010510D01*
X002202Y010608D02*
X001874Y010608D01*
X001874Y010707D02*
X003008Y010707D01*
X003008Y010805D02*
X001874Y010805D01*
X001874Y010904D02*
X003048Y010904D01*
X003021Y011002D02*
X001874Y011002D01*
X001874Y011101D02*
X003008Y011101D01*
X003008Y011199D02*
X001874Y011199D01*
X002524Y010305D02*
X002524Y010190D01*
X006275Y010805D02*
X006374Y010805D01*
X006696Y011101D02*
X007153Y011101D01*
X007054Y011002D02*
X006774Y011002D01*
X006758Y011199D02*
X006598Y011199D01*
X006691Y011298D02*
X006351Y011298D01*
X007036Y011464D02*
X007036Y011778D01*
X006874Y011940D01*
X007124Y011940D01*
X006974Y011940D02*
X006874Y011940D01*
X006859Y011940D01*
X007474Y011140D02*
X007050Y010716D01*
X007036Y010716D01*
X006774Y013040D02*
X006808Y013073D01*
X006774Y013040D02*
X006740Y013074D01*
X006740Y013090D01*
X004874Y016940D02*
X004824Y016940D01*
X004674Y017090D01*
X004724Y017090D01*
X004874Y016940D01*
X003982Y018196D02*
X001874Y018196D01*
X001874Y018295D02*
X003883Y018295D01*
X003785Y018393D02*
X001874Y018393D01*
X001874Y018492D02*
X003724Y018492D01*
X003724Y018590D02*
X001874Y018590D01*
X001874Y018689D02*
X003724Y018689D01*
X003724Y018787D02*
X001874Y018787D01*
X001874Y018886D02*
X003724Y018886D01*
X003724Y018984D02*
X001874Y018984D01*
X001874Y019083D02*
X003724Y019083D01*
X003724Y019181D02*
X001874Y019181D01*
X001874Y019280D02*
X003724Y019280D01*
X003724Y019379D02*
X001874Y019379D01*
X001874Y019477D02*
X003775Y019477D01*
X003874Y019576D02*
X001874Y019576D01*
X001874Y019674D02*
X001930Y019674D01*
X002450Y019674D02*
X003973Y019674D01*
X003413Y020364D02*
X003336Y020364D01*
X003624Y020590D02*
X003624Y020916D01*
X003624Y020940D01*
X003624Y020590D02*
X004024Y020590D01*
X002913Y020364D02*
X002836Y020364D01*
X002624Y020890D02*
X002624Y020916D01*
X002624Y021840D01*
X002415Y023517D02*
X002334Y023517D01*
X001915Y023517D02*
X001874Y023517D01*
X002834Y023517D02*
X002915Y023517D01*
X003334Y023517D02*
X003415Y023517D01*
X015190Y021423D02*
X015190Y021116D01*
X015706Y021423D02*
X015782Y021500D01*
X015936Y021500D01*
X016013Y021423D01*
X016074Y021645D02*
X016160Y021645D01*
X015645Y021645D02*
X015558Y021645D01*
X016206Y023517D02*
X016267Y023517D01*
X017160Y012086D02*
X017712Y012086D01*
X017811Y011988D02*
X017209Y011988D01*
X017209Y011889D02*
X017909Y011889D01*
X018008Y011791D02*
X017209Y011791D01*
X017209Y011692D02*
X018106Y011692D01*
X018124Y011674D02*
X018124Y011495D01*
X018124Y011594D02*
X017209Y011594D01*
D11*
X015576Y007287D02*
X015576Y006893D01*
X015379Y007090D02*
X015773Y007090D01*
X016229Y005788D02*
X016525Y005788D01*
X016623Y005690D01*
X016623Y005395D01*
X016874Y005493D02*
X016874Y005690D01*
X016972Y005788D01*
X017169Y005788D01*
X017268Y005690D01*
X017268Y005592D01*
X016874Y005592D01*
X016874Y005493D02*
X016972Y005395D01*
X017169Y005395D01*
X017519Y005395D02*
X017814Y005395D01*
X017912Y005493D01*
X017814Y005592D01*
X017617Y005592D01*
X017519Y005690D01*
X017617Y005788D01*
X017912Y005788D01*
X016229Y005788D02*
X016229Y005395D01*
X012265Y005395D02*
X012167Y005493D01*
X012167Y005887D01*
X012069Y005788D02*
X012265Y005788D01*
X011818Y005788D02*
X011818Y005395D01*
X011522Y005395D01*
X011424Y005493D01*
X011424Y005788D01*
X011173Y005690D02*
X011075Y005788D01*
X010779Y005788D01*
X010779Y005985D02*
X010779Y005395D01*
X011075Y005395D01*
X011173Y005493D01*
X011173Y005690D01*
X007415Y005788D02*
X007219Y005788D01*
X007317Y005887D02*
X007317Y005493D01*
X007415Y005395D01*
X006968Y005395D02*
X006968Y005690D01*
X006869Y005788D01*
X006672Y005788D01*
X006672Y005592D02*
X006968Y005592D01*
X006968Y005395D02*
X006672Y005395D01*
X006574Y005493D01*
X006672Y005592D01*
X006323Y005690D02*
X006225Y005788D01*
X005929Y005788D01*
X005929Y005985D02*
X005929Y005395D01*
X006225Y005395D01*
X006323Y005493D01*
X006323Y005690D01*
X005926Y006893D02*
X005926Y007287D01*
X005729Y007090D02*
X006123Y007090D01*
X004869Y014156D02*
X004869Y014451D01*
X004771Y014549D01*
X004673Y014451D01*
X004673Y014254D01*
X004574Y014156D01*
X004476Y014254D01*
X004476Y014549D01*
X004377Y014800D02*
X004279Y014899D01*
X004279Y015095D01*
X004377Y015194D01*
X004476Y015194D01*
X004869Y014800D01*
X004869Y015194D01*
X020179Y007090D02*
X020573Y007090D01*
X020376Y007287D02*
X020376Y006893D01*
X020279Y005985D02*
X020673Y005985D01*
X020575Y005788D02*
X020673Y005690D01*
X020673Y005493D01*
X020575Y005395D01*
X020378Y005395D01*
X020279Y005493D01*
X020279Y005690D02*
X020476Y005788D01*
X020575Y005788D01*
X020279Y005690D02*
X020279Y005985D01*
X020924Y005788D02*
X021121Y005395D01*
X021318Y005788D01*
X021569Y005592D02*
X021864Y005592D01*
X021962Y005690D01*
X021962Y005887D01*
X021864Y005985D01*
X021569Y005985D01*
X021569Y005395D01*
X025079Y005493D02*
X025178Y005395D01*
X025375Y005395D01*
X025473Y005493D01*
X025473Y005690D01*
X025375Y005788D01*
X025276Y005788D01*
X025079Y005690D01*
X025079Y005985D01*
X025473Y005985D01*
X025724Y005788D02*
X025921Y005395D01*
X026118Y005788D01*
X026369Y005985D02*
X026664Y005985D01*
X026762Y005887D01*
X026762Y005493D01*
X026664Y005395D01*
X026369Y005395D01*
X026369Y005985D01*
X025176Y006893D02*
X025176Y007287D01*
X024979Y007090D02*
X025373Y007090D01*
D12*
X022124Y008340D03*
X023224Y010090D03*
X022124Y012340D03*
X022124Y013140D03*
X023224Y014090D03*
X023224Y014890D03*
X022124Y017140D03*
X023224Y018890D03*
X030474Y017390D03*
X031624Y019190D03*
X031624Y015190D03*
X031624Y014390D03*
X030474Y013390D03*
X030474Y012740D03*
X031624Y010390D03*
X030474Y008740D03*
X011274Y016490D03*
X011274Y020490D03*
D13*
X011524Y006990D03*
X013024Y006990D03*
X016324Y006990D03*
X017824Y006990D03*
X021124Y006990D03*
X022624Y006990D03*
X025924Y006990D03*
X027424Y006990D03*
X008174Y006990D03*
X006674Y006990D03*
D14*
X003374Y010605D03*
X003374Y011274D03*
X004190Y010740D03*
X004859Y010740D03*
X004740Y011640D03*
X005409Y011640D03*
X006190Y011940D03*
X006859Y011940D03*
X002724Y014255D03*
X002724Y014924D03*
X012540Y009790D03*
X013209Y009790D03*
X013409Y010690D03*
X012740Y010690D03*
X015674Y008824D03*
X015674Y008155D03*
X014274Y019805D03*
X014274Y020474D03*
D15*
X014874Y007989D03*
X014874Y006387D03*
X009574Y006487D03*
X009574Y008089D03*
D16*
X008648Y010078D03*
X008274Y010077D03*
X007900Y010078D03*
X007900Y011102D03*
X008274Y011102D03*
X008648Y011102D03*
D17*
X006891Y009864D03*
X007758Y009490D03*
X006891Y009116D03*
X012141Y012416D03*
X012141Y013164D03*
X013008Y012790D03*
X006858Y013666D03*
X006858Y014414D03*
X005991Y014040D03*
D18*
X006740Y013090D03*
X007409Y013090D03*
X004609Y013140D03*
X004609Y013690D03*
X003940Y013690D03*
X003409Y013690D03*
X002740Y013690D03*
X002740Y013090D03*
X003409Y013090D03*
X003940Y013140D03*
X003309Y011790D03*
X002640Y011790D03*
X002524Y010974D03*
X002524Y010305D03*
X002840Y009540D03*
X002840Y008990D03*
X003509Y008990D03*
X003509Y009540D03*
X004190Y010140D03*
X004859Y010140D03*
X006274Y009224D03*
X006274Y008555D03*
X007890Y008940D03*
X008559Y008940D03*
X011240Y010690D03*
X011909Y010690D03*
X012040Y011490D03*
X012709Y011490D03*
X014774Y011455D03*
X014774Y012124D03*
X017624Y009724D03*
X018224Y009724D03*
X018874Y009724D03*
X019474Y009724D03*
X019474Y009055D03*
X018874Y009055D03*
X018224Y009055D03*
X017624Y009055D03*
X025174Y009124D03*
X025774Y009124D03*
X026374Y009124D03*
X026974Y009124D03*
X026974Y008455D03*
X026374Y008455D03*
X025774Y008455D03*
X025174Y008455D03*
X014274Y018605D03*
X014274Y019274D03*
X003459Y016790D03*
X002790Y016790D03*
X002859Y020040D03*
X002190Y020040D03*
D19*
X004774Y021690D03*
X009974Y021990D03*
X009974Y017090D03*
X004674Y017090D03*
X015974Y016390D03*
X020874Y016390D03*
X024124Y016440D03*
X029024Y016440D03*
X024424Y011240D03*
X020874Y011090D03*
X016274Y011190D03*
X029024Y011140D03*
D20*
X007815Y023140D03*
X006634Y023140D03*
D21*
X003974Y014390D03*
X003374Y014390D03*
D22*
X008250Y012873D03*
X008998Y012873D03*
X008624Y012007D03*
X013300Y011457D03*
X014048Y011457D03*
X013674Y012323D03*
D23*
X004174Y018940D03*
X003174Y018940D03*
D24*
X008040Y013590D03*
X008709Y013590D03*
D25*
X007771Y015090D03*
X009778Y015090D03*
X018721Y018640D03*
X020728Y018640D03*
X026921Y018640D03*
X028928Y018640D03*
D26*
X031624Y022440D03*
X021174Y022440D03*
D27*
X021174Y020440D03*
X031624Y020440D03*
D28*
X014943Y013661D03*
X012974Y014646D03*
X011006Y013661D03*
X011006Y009646D03*
X014943Y009646D03*
D29*
X013774Y018516D03*
X013274Y018516D03*
X012774Y018516D03*
X012274Y018516D03*
X012274Y020563D03*
X012774Y020563D03*
X013274Y020563D03*
X013774Y020563D03*
X003624Y020916D03*
X003124Y020916D03*
X002624Y020916D03*
X002124Y020916D03*
X002124Y022963D03*
X002624Y022963D03*
X003124Y022963D03*
X003624Y022963D03*
D30*
X006017Y011464D03*
X006017Y011090D03*
X006017Y010716D03*
X007036Y010716D03*
X007036Y011464D03*
D31*
X005624Y007990D03*
X010624Y007990D03*
X013424Y008290D03*
X018424Y008290D03*
D32*
X016924Y009890D03*
X015674Y008840D03*
X013424Y009240D03*
X012324Y010690D03*
X010674Y010340D03*
X008924Y010590D03*
X008924Y011090D03*
X007624Y010590D03*
X008724Y009540D03*
X008774Y008390D03*
X005424Y010440D03*
X004124Y009740D03*
X003324Y009990D03*
X002074Y009740D03*
X002024Y009240D03*
X002024Y008240D03*
X002024Y010440D03*
X004174Y011440D03*
X005874Y012840D03*
X006574Y012540D03*
X007124Y011940D03*
X008274Y012940D03*
X008674Y013690D03*
X008924Y014440D03*
X010874Y015190D03*
X010624Y015790D03*
X012124Y015740D03*
X013574Y013390D03*
X014724Y012740D03*
X012824Y012090D03*
X010674Y012440D03*
X010024Y012290D03*
X006324Y014990D03*
X004724Y015590D03*
X004674Y017090D03*
X006474Y019140D03*
X007074Y019740D03*
X008774Y019190D03*
X008174Y017890D03*
X008224Y015890D03*
X012624Y019540D03*
X014274Y020490D03*
X013774Y021340D03*
X015074Y019490D03*
X016374Y017840D03*
X017824Y018840D03*
X019524Y016640D03*
X017674Y015290D03*
X021474Y012740D03*
X019324Y011290D03*
X018724Y010340D03*
X013874Y007040D03*
X004774Y008890D03*
X010074Y020440D03*
X006724Y021890D03*
X004024Y020590D03*
X002624Y021840D03*
X024674Y017940D03*
X025874Y018840D03*
X027724Y016690D03*
X025974Y015240D03*
X029824Y012990D03*
X030774Y014390D03*
X027324Y011190D03*
X026074Y009740D03*
D33*
X002774Y015890D03*
D34*
X002824Y014940D02*
X002724Y014940D01*
X002724Y014924D01*
X006824Y014390D02*
X007974Y014390D01*
X007974Y013790D01*
X008024Y013790D01*
X007974Y013790D02*
X007974Y013690D01*
X008474Y014190D01*
X008040Y013590D02*
X007974Y013590D01*
X007974Y013390D02*
X007824Y013240D01*
X007824Y012540D01*
X009874Y012290D02*
X010024Y012290D01*
X013008Y012757D02*
X013008Y012790D01*
X013008Y012757D02*
X013224Y012740D01*
X013591Y012373D01*
X013674Y012323D01*
X014024Y011540D02*
X014024Y011457D01*
X014024Y011455D01*
X014774Y011455D01*
X014048Y011457D02*
X014024Y011457D01*
X017624Y009740D02*
X017624Y009724D01*
X018224Y009724D01*
X018224Y009740D01*
X018224Y009724D02*
X018424Y009724D01*
X018724Y009724D01*
X018724Y010340D01*
X018874Y009724D02*
X019474Y009724D01*
X018874Y009724D02*
X018424Y009724D01*
X025174Y009140D02*
X025174Y009124D01*
X025774Y009124D01*
X026074Y009124D01*
X026074Y009740D01*
X026074Y009124D02*
X026374Y009124D01*
X025774Y009124D02*
X026974Y009124D01*
X025774Y009124D02*
X025174Y009124D01*
X013774Y018516D02*
X013774Y018840D01*
X014209Y019274D01*
X014274Y019274D01*
X014274Y019805D01*
X014309Y020474D02*
X014274Y020474D01*
X014274Y020490D02*
X014309Y020474D01*
X013774Y020563D02*
X013274Y020563D01*
X012774Y020563D01*
X012351Y020563D01*
X012274Y020640D01*
X012274Y020563D01*
X012724Y020540D02*
X012748Y020563D01*
X012774Y020563D01*
X013224Y020590D02*
X013251Y020563D01*
X013274Y020563D01*
X013774Y021340D02*
X013774Y021440D01*
X013274Y018540D02*
X013251Y018516D01*
X012774Y018516D01*
X012774Y018540D01*
X012751Y018516D01*
X012274Y018516D01*
X013274Y018540D02*
X013274Y018516D01*
X009774Y015190D02*
X009774Y015090D01*
X009778Y015090D01*
X007974Y015090D02*
X007771Y015090D01*
X002190Y020040D02*
X002174Y020040D01*
X002174Y020140D01*
X002624Y022740D02*
X002624Y022963D01*
X002224Y022963D02*
X002224Y022940D01*
X002224Y022963D02*
X002124Y022963D01*
D35*
X004774Y021690D02*
X004774Y021640D01*
X004774Y021690D02*
X005124Y021690D01*
X006374Y022940D01*
X006624Y023140D01*
X006674Y023090D01*
X006634Y023140D01*
X007815Y023140D02*
X007874Y023190D01*
X008274Y022790D01*
X009074Y022790D01*
X009874Y021990D01*
X009974Y021990D01*
X009924Y021940D01*
X010324Y021540D01*
X010324Y021440D01*
X011274Y020490D01*
X004824Y016940D02*
X004774Y016940D01*
X004674Y016840D01*
X004724Y016790D01*
X003459Y016790D01*
X020728Y018536D02*
X020728Y018640D01*
X020728Y018536D02*
X020774Y018490D01*
X020774Y019040D01*
X020774Y018490D02*
X022624Y020340D01*
X027874Y020340D01*
X028874Y019340D01*
X029474Y019340D01*
X029174Y016440D02*
X030374Y016440D01*
X031624Y015190D01*
X031624Y014390D01*
X030574Y013340D01*
X030574Y013290D01*
X030474Y013390D01*
X030624Y013390D01*
X030574Y013290D02*
X030524Y013290D01*
X030474Y013340D01*
X030474Y013390D01*
X030474Y012740D01*
X030474Y012590D01*
X029024Y011140D01*
X028574Y011140D01*
X028524Y011640D01*
X028924Y012890D02*
X028924Y016190D01*
X029174Y016440D01*
X029024Y016440D01*
X024674Y016440D02*
X024674Y013590D01*
X026374Y011890D01*
X026374Y010740D01*
X030474Y012540D02*
X030474Y012740D01*
X024674Y016440D02*
X024124Y016440D01*
X023224Y014890D02*
X022824Y014490D01*
X022674Y014640D01*
X023224Y014090D01*
X023124Y014090D01*
X022674Y014640D02*
X020974Y016340D01*
X022174Y012940D02*
X022124Y012340D01*
X020874Y011090D01*
X021274Y010490D01*
D36*
X020424Y011590D03*
X020624Y012740D03*
X018524Y011140D03*
X016824Y010690D03*
X024924Y010740D03*
X026374Y010740D03*
X028524Y011640D03*
X028924Y012890D03*
X029474Y017940D03*
X029474Y018640D03*
X021174Y018640D03*
X021174Y017940D03*
D37*
X021174Y019340D01*
X020774Y019040D02*
X019524Y020290D01*
X017474Y020290D01*
X012974Y015790D01*
X012974Y014646D01*
X012974Y014640D01*
X015974Y015940D02*
X015974Y016190D01*
X016124Y016190D01*
X016274Y016040D01*
X016274Y014090D01*
X018524Y011840D01*
X018524Y011140D01*
X016824Y010690D02*
X016274Y011190D01*
X014674Y008240D02*
X014874Y008040D01*
X014874Y007990D01*
X014574Y008290D01*
X013424Y008290D01*
X014874Y007990D02*
X014874Y007989D01*
X010624Y007990D02*
X009674Y007990D01*
X009574Y008090D01*
X009574Y008089D01*
X009774Y015040D02*
X009774Y015190D01*
X009774Y016490D01*
X009974Y017090D01*
X009974Y017140D01*
X015974Y016390D02*
X015974Y016190D01*
X015974Y015940D02*
X016024Y015890D01*
X020624Y015890D02*
X020624Y012740D01*
X022124Y012340D02*
X022124Y013140D01*
X022274Y013090D01*
X023224Y014040D01*
X020624Y015890D02*
X020974Y016340D01*
X020874Y016390D01*
X021174Y017940D02*
X021174Y018640D01*
X020778Y018640D01*
X028928Y018640D02*
X029474Y018640D01*
X029474Y017940D01*
X029474Y019340D01*
X024424Y011240D02*
X024924Y010740D01*
D38*
X013424Y008290D02*
X013024Y008690D01*
X010624Y008690D01*
X009874Y009440D01*
X009874Y012290D01*
X009874Y012940D01*
X009878Y012940D01*
X009874Y012940D02*
X009698Y012940D01*
X009874Y012940D02*
X009874Y014940D01*
X009774Y015040D01*
X013774Y020563D02*
X013774Y021340D01*
D39*
X004774Y021690D02*
X004724Y021690D01*
X003724Y022690D01*
X003624Y022963D01*
X003048Y022963D01*
X002624Y022963D01*
X002224Y022963D01*
X002151Y022963D01*
X002624Y022740D02*
X002651Y022713D01*
X003048Y022963D02*
X003124Y022963D01*
X003124Y022990D01*
X003048Y022963D01*
X003124Y020916D02*
X002624Y020916D01*
X002174Y020890D01*
X002174Y020140D01*
X002174Y019940D01*
X002124Y019940D01*
X002124Y020916D02*
X002624Y020916D01*
X003124Y020916D01*
M02*
