G75*
G70*
%OFA0B0*%
%FSLAX24Y24*%
%IPPOS*%
%LPD*%
%AMOC8*
5,1,8,0,0,1.08239X$1,22.5*
%
%ADD10C,0.0100*%
%ADD11R,0.1000X0.0250*%
%ADD12R,0.0128X0.0167*%
%ADD13R,0.0138X0.0138*%
%ADD14C,0.0236*%
%ADD15C,0.0160*%
%ADD16C,0.0110*%
%ADD17C,0.0060*%
%ADD18C,0.0000*%
D10*
X005689Y003859D02*
X009232Y003859D01*
X009232Y007462D01*
X005689Y007462D01*
X005689Y003859D01*
X006380Y005433D02*
X006380Y005834D01*
X006514Y005700D01*
X006647Y005834D01*
X006647Y005433D01*
X006841Y005500D02*
X006907Y005433D01*
X007041Y005433D01*
X007108Y005500D01*
X007301Y005433D02*
X007568Y005700D01*
X007568Y005767D01*
X007501Y005834D01*
X007368Y005834D01*
X007301Y005767D01*
X007108Y005767D02*
X007041Y005834D01*
X006907Y005834D01*
X006841Y005767D01*
X006841Y005500D01*
X007301Y005433D02*
X007568Y005433D01*
X007761Y005634D02*
X008028Y005634D01*
X008222Y005767D02*
X008222Y005500D01*
X008288Y005433D01*
X008422Y005433D01*
X008489Y005500D01*
X008489Y005634D01*
X008355Y005634D01*
X008222Y005767D02*
X008288Y005834D01*
X008422Y005834D01*
X008489Y005767D01*
X009445Y005917D02*
X009512Y005917D01*
X009645Y005917D02*
X009912Y005917D01*
X009912Y005850D02*
X009912Y005984D01*
X009912Y006157D02*
X009645Y006157D01*
X009645Y006290D02*
X009779Y006157D01*
X009645Y006290D02*
X009645Y006357D01*
X009645Y006541D02*
X009645Y006674D01*
X009579Y006607D02*
X009846Y006607D01*
X009912Y006674D01*
X009645Y005917D02*
X009645Y005850D01*
X009579Y005657D02*
X009512Y005590D01*
X009512Y005390D01*
X009912Y005390D01*
X009912Y005590D01*
X009846Y005657D01*
X009579Y005657D01*
X011180Y005834D02*
X011180Y005433D01*
X011447Y005433D02*
X011447Y005834D01*
X011314Y005700D01*
X011180Y005834D01*
X011641Y005767D02*
X011641Y005500D01*
X011707Y005433D01*
X011841Y005433D01*
X011908Y005500D01*
X012101Y005433D02*
X012368Y005700D01*
X012368Y005767D01*
X012301Y005834D01*
X012168Y005834D01*
X012101Y005767D01*
X011908Y005767D02*
X011841Y005834D01*
X011707Y005834D01*
X011641Y005767D01*
X012101Y005433D02*
X012368Y005433D01*
X012561Y005634D02*
X012828Y005634D01*
X013022Y005767D02*
X013022Y005500D01*
X013088Y005433D01*
X013222Y005433D01*
X013289Y005500D01*
X013289Y005634D01*
X013155Y005634D01*
X013022Y005767D02*
X013088Y005834D01*
X013222Y005834D01*
X013289Y005767D01*
X014262Y005590D02*
X014262Y005390D01*
X014662Y005390D01*
X014529Y005390D02*
X014529Y005590D01*
X014462Y005657D01*
X014329Y005657D01*
X014262Y005590D01*
X014395Y005850D02*
X014662Y005850D01*
X014529Y005850D02*
X014395Y005984D01*
X014395Y006050D01*
X014395Y006234D02*
X014395Y006434D01*
X014462Y006501D01*
X014596Y006501D01*
X014662Y006434D01*
X014662Y006234D01*
X014796Y006234D02*
X014395Y006234D01*
X015980Y005834D02*
X015980Y005433D01*
X016247Y005433D02*
X016247Y005834D01*
X016114Y005700D01*
X015980Y005834D01*
X016441Y005767D02*
X016441Y005500D01*
X016507Y005433D01*
X016641Y005433D01*
X016708Y005500D01*
X016901Y005433D02*
X017168Y005700D01*
X017168Y005767D01*
X017101Y005834D01*
X016968Y005834D01*
X016901Y005767D01*
X016708Y005767D02*
X016641Y005834D01*
X016507Y005834D01*
X016441Y005767D01*
X016901Y005433D02*
X017168Y005433D01*
X017361Y005634D02*
X017628Y005634D01*
X017822Y005767D02*
X017822Y005500D01*
X017888Y005433D01*
X018022Y005433D01*
X018089Y005500D01*
X018089Y005634D01*
X017955Y005634D01*
X017822Y005767D02*
X017888Y005834D01*
X018022Y005834D01*
X018089Y005767D01*
X019062Y005657D02*
X019462Y005657D01*
X019062Y005390D01*
X019462Y005390D01*
X019396Y005850D02*
X019262Y005850D01*
X019195Y005917D01*
X019195Y006050D01*
X019262Y006117D01*
X019329Y006117D01*
X019329Y005850D01*
X019396Y005850D02*
X019462Y005917D01*
X019462Y006050D01*
X019462Y006310D02*
X019462Y006511D01*
X019396Y006577D01*
X019329Y006511D01*
X019329Y006377D01*
X019262Y006310D01*
X019195Y006377D01*
X019195Y006577D01*
X018832Y007462D02*
X018832Y003859D01*
X015289Y003859D01*
X015289Y007462D01*
X018832Y007462D01*
X020089Y007462D02*
X020089Y003859D01*
X023632Y003859D01*
X023632Y007462D01*
X020089Y007462D01*
X018879Y008583D02*
X023446Y008583D01*
X023474Y008585D01*
X023502Y008590D01*
X023530Y008598D01*
X023556Y008610D01*
X023580Y008625D01*
X023602Y008642D01*
X023623Y008663D01*
X023640Y008685D01*
X023655Y008709D01*
X023667Y008735D01*
X023675Y008763D01*
X023680Y008791D01*
X023682Y008819D01*
X023682Y014961D01*
X023680Y014989D01*
X023675Y015017D01*
X023667Y015045D01*
X023655Y015071D01*
X023640Y015095D01*
X023623Y015117D01*
X023602Y015138D01*
X023580Y015155D01*
X023556Y015170D01*
X023530Y015182D01*
X023502Y015190D01*
X023474Y015195D01*
X023446Y015197D01*
X018879Y015197D01*
X018851Y015195D01*
X018823Y015190D01*
X018795Y015182D01*
X018769Y015170D01*
X018745Y015155D01*
X018723Y015138D01*
X018702Y015117D01*
X018685Y015095D01*
X018670Y015071D01*
X018658Y015045D01*
X018650Y015017D01*
X018645Y014989D01*
X018643Y014961D01*
X018643Y008819D01*
X018645Y008791D01*
X018650Y008763D01*
X018658Y008735D01*
X018670Y008709D01*
X018685Y008685D01*
X018702Y008663D01*
X018723Y008642D01*
X018745Y008625D01*
X018769Y008610D01*
X018795Y008598D01*
X018823Y008590D01*
X018851Y008585D01*
X018879Y008583D01*
X021212Y009006D02*
X021279Y008940D01*
X021546Y008940D01*
X021612Y009006D01*
X021612Y009140D01*
X021546Y009207D01*
X021546Y009400D02*
X021279Y009400D01*
X021212Y009467D01*
X021212Y009600D01*
X021279Y009667D01*
X021546Y009667D01*
X021612Y009600D01*
X021612Y009467D01*
X021546Y009400D01*
X021479Y009534D02*
X021612Y009667D01*
X021612Y009860D02*
X021612Y010127D01*
X021612Y009994D02*
X021212Y009994D01*
X021345Y009860D01*
X021412Y010321D02*
X021412Y010588D01*
X021345Y010781D02*
X021212Y010915D01*
X021612Y010915D01*
X021612Y011048D02*
X021612Y010781D01*
X021612Y011242D02*
X021345Y011508D01*
X021279Y011508D01*
X021212Y011442D01*
X021212Y011308D01*
X021279Y011242D01*
X021612Y011242D02*
X021612Y011508D01*
X021479Y011702D02*
X021612Y011835D01*
X021479Y011969D01*
X021212Y011969D01*
X021212Y011702D02*
X021479Y011702D01*
X021279Y009207D02*
X021212Y009140D01*
X021212Y009006D01*
X024045Y007585D02*
X024045Y007385D01*
X024312Y007385D01*
X024246Y007191D02*
X024112Y007191D01*
X024045Y007124D01*
X024045Y006991D01*
X024112Y006924D01*
X024246Y006924D01*
X024312Y006991D01*
X024312Y007124D01*
X024246Y007191D01*
X024312Y006751D02*
X024246Y006684D01*
X023979Y006684D01*
X024045Y006617D02*
X024045Y006751D01*
X024045Y006444D02*
X024045Y006310D01*
X023979Y006377D02*
X024246Y006377D01*
X024312Y006444D01*
X024312Y006117D02*
X024045Y006117D01*
X024045Y005850D02*
X024246Y005850D01*
X024312Y005917D01*
X024312Y006117D01*
X024246Y005657D02*
X024179Y005657D01*
X024112Y005590D01*
X024112Y005390D01*
X024112Y005590D02*
X024045Y005657D01*
X023979Y005657D01*
X023912Y005590D01*
X023912Y005390D01*
X024312Y005390D01*
X024312Y005590D01*
X024246Y005657D01*
X022889Y005634D02*
X022755Y005634D01*
X022889Y005634D02*
X022889Y005500D01*
X022822Y005433D01*
X022688Y005433D01*
X022622Y005500D01*
X022622Y005767D01*
X022688Y005834D01*
X022822Y005834D01*
X022889Y005767D01*
X022428Y005634D02*
X022161Y005634D01*
X021968Y005700D02*
X021968Y005767D01*
X021901Y005834D01*
X021768Y005834D01*
X021701Y005767D01*
X021508Y005767D02*
X021441Y005834D01*
X021307Y005834D01*
X021241Y005767D01*
X021241Y005500D01*
X021307Y005433D01*
X021441Y005433D01*
X021508Y005500D01*
X021701Y005433D02*
X021968Y005700D01*
X021968Y005433D02*
X021701Y005433D01*
X021047Y005433D02*
X021047Y005834D01*
X020914Y005700D01*
X020780Y005834D01*
X020780Y005433D01*
X024045Y007585D02*
X024112Y007651D01*
X024312Y007651D01*
X024939Y007462D02*
X024939Y003859D01*
X028482Y003859D01*
X028482Y007462D01*
X024939Y007462D01*
X025630Y005834D02*
X025764Y005700D01*
X025897Y005834D01*
X025897Y005433D01*
X026091Y005500D02*
X026157Y005433D01*
X026291Y005433D01*
X026358Y005500D01*
X026551Y005433D02*
X026818Y005700D01*
X026818Y005767D01*
X026751Y005834D01*
X026618Y005834D01*
X026551Y005767D01*
X026358Y005767D02*
X026291Y005834D01*
X026157Y005834D01*
X026091Y005767D01*
X026091Y005500D01*
X026551Y005433D02*
X026818Y005433D01*
X027011Y005634D02*
X027278Y005634D01*
X027472Y005767D02*
X027472Y005500D01*
X027538Y005433D01*
X027672Y005433D01*
X027739Y005500D01*
X027739Y005634D01*
X027605Y005634D01*
X027472Y005767D02*
X027538Y005834D01*
X027672Y005834D01*
X027739Y005767D01*
X028762Y005590D02*
X028762Y005390D01*
X029162Y005390D01*
X029162Y005590D01*
X029096Y005657D01*
X029029Y005657D01*
X028962Y005590D01*
X028962Y005390D01*
X028962Y005590D02*
X028895Y005657D01*
X028829Y005657D01*
X028762Y005590D01*
X028895Y005917D02*
X028895Y006050D01*
X028962Y006117D01*
X029162Y006117D01*
X029162Y005917D01*
X029096Y005850D01*
X029029Y005917D01*
X029029Y006117D01*
X028895Y006310D02*
X028895Y006444D01*
X028829Y006377D02*
X029096Y006377D01*
X029162Y006444D01*
X025630Y005834D02*
X025630Y005433D01*
X028105Y009140D02*
X028105Y009370D01*
X028182Y009447D01*
X028412Y009447D01*
X028336Y009655D02*
X028182Y009655D01*
X028105Y009732D01*
X028105Y009886D01*
X028182Y009962D01*
X028259Y009962D01*
X028259Y009655D01*
X028336Y009655D02*
X028412Y009732D01*
X028412Y009886D01*
X028412Y010171D02*
X028412Y010401D01*
X028336Y010478D01*
X028259Y010401D01*
X028259Y010248D01*
X028182Y010171D01*
X028105Y010248D01*
X028105Y010478D01*
X028489Y010687D02*
X028489Y010994D01*
X028336Y011202D02*
X028259Y011279D01*
X028259Y011509D01*
X028182Y011509D02*
X028412Y011509D01*
X028412Y011279D01*
X028336Y011202D01*
X028105Y011279D02*
X028105Y011432D01*
X028182Y011509D01*
X028182Y011718D02*
X028336Y011718D01*
X028412Y011795D01*
X028412Y012025D01*
X028336Y012310D02*
X028029Y012310D01*
X028105Y012234D02*
X028105Y012387D01*
X028336Y012310D02*
X028412Y012387D01*
X028105Y012025D02*
X028105Y011795D01*
X028182Y011718D01*
X029345Y011650D02*
X029345Y011249D01*
X029612Y011249D02*
X029612Y011650D01*
X029478Y011516D01*
X029345Y011650D01*
X029805Y011516D02*
X029805Y011249D01*
X029805Y011449D02*
X030072Y011449D01*
X030072Y011516D02*
X030072Y011249D01*
X030266Y011249D02*
X030532Y011650D01*
X030726Y011583D02*
X030726Y011516D01*
X030793Y011449D01*
X030993Y011449D01*
X030993Y011316D02*
X030993Y011583D01*
X030926Y011650D01*
X030793Y011650D01*
X030726Y011583D01*
X030726Y011316D02*
X030793Y011249D01*
X030926Y011249D01*
X030993Y011316D01*
X031186Y011316D02*
X031253Y011249D01*
X031386Y011249D01*
X031453Y011316D01*
X031453Y011383D01*
X031386Y011449D01*
X031186Y011449D01*
X031186Y011316D01*
X031186Y011449D02*
X031320Y011583D01*
X031453Y011650D01*
X031647Y011583D02*
X031647Y011516D01*
X031713Y011449D01*
X031914Y011449D01*
X031914Y011316D02*
X031914Y011583D01*
X031847Y011650D01*
X031713Y011650D01*
X031647Y011583D01*
X031647Y011316D02*
X031713Y011249D01*
X031847Y011249D01*
X031914Y011316D01*
X031141Y011062D02*
X031141Y009117D01*
X029684Y009117D01*
X029684Y011062D01*
X031141Y011062D01*
X030532Y011249D02*
X030266Y011650D01*
X030072Y011516D02*
X029939Y011650D01*
X029805Y011516D01*
X026762Y011440D02*
X026762Y012540D01*
X026760Y012560D01*
X026754Y012578D01*
X026745Y012596D01*
X026733Y012611D01*
X026718Y012623D01*
X026700Y012632D01*
X026682Y012638D01*
X026662Y012640D01*
X026062Y012640D01*
X026042Y012638D01*
X026024Y012632D01*
X026006Y012623D01*
X025991Y012611D01*
X025979Y012596D01*
X025970Y012578D01*
X025964Y012560D01*
X025962Y012540D01*
X025962Y011440D01*
X025964Y011420D01*
X025970Y011402D01*
X025979Y011384D01*
X025991Y011369D01*
X026006Y011357D01*
X026024Y011348D01*
X026042Y011342D01*
X026062Y011340D01*
X026662Y011340D01*
X026682Y011342D01*
X026700Y011348D01*
X026718Y011357D01*
X026733Y011369D01*
X026745Y011384D01*
X026754Y011402D01*
X026760Y011420D01*
X026762Y011440D01*
X026262Y011228D02*
X026262Y010921D01*
X026262Y011074D02*
X025802Y011074D01*
X025955Y010921D01*
X025802Y010712D02*
X025802Y010559D01*
X025802Y010636D02*
X026186Y010636D01*
X026262Y010559D01*
X026262Y010482D01*
X026186Y010405D01*
X026186Y010197D02*
X026262Y010120D01*
X026262Y009966D01*
X026186Y009890D01*
X026032Y009966D02*
X026032Y010120D01*
X026109Y010197D01*
X026186Y010197D01*
X026032Y009966D02*
X025955Y009890D01*
X025879Y009890D01*
X025802Y009966D01*
X025802Y010120D01*
X025879Y010197D01*
X028105Y009140D02*
X028412Y009140D01*
X026012Y012740D02*
X024912Y012740D01*
X024912Y014640D01*
X026012Y014640D01*
X026012Y012740D01*
X025998Y014940D02*
X025931Y015006D01*
X025998Y014940D02*
X026131Y014940D01*
X026198Y015006D01*
X026198Y015073D01*
X026131Y015140D01*
X026064Y015140D01*
X026131Y015140D02*
X026198Y015207D01*
X026198Y015273D01*
X026131Y015340D01*
X025998Y015340D01*
X025931Y015273D01*
X025737Y015273D02*
X025671Y015340D01*
X025537Y015340D01*
X025471Y015273D01*
X025471Y015207D01*
X025537Y015140D01*
X025737Y015140D01*
X025737Y015273D02*
X025737Y015006D01*
X025671Y014940D01*
X025537Y014940D01*
X025471Y015006D01*
X025277Y014940D02*
X025010Y014940D01*
X025277Y015207D01*
X025277Y015273D01*
X025210Y015340D01*
X025077Y015340D01*
X025010Y015273D01*
X024817Y015340D02*
X024683Y015207D01*
X024550Y015340D01*
X024550Y014940D01*
X024356Y014940D02*
X024089Y014940D01*
X024089Y015340D01*
X024817Y015340D02*
X024817Y014940D01*
X026391Y014940D02*
X026658Y014940D01*
X026525Y014940D02*
X026525Y015340D01*
X026391Y015207D01*
X026852Y015340D02*
X026852Y014940D01*
X027052Y014940D01*
X027119Y015006D01*
X027119Y015273D01*
X027052Y015340D01*
X026852Y015340D01*
X028612Y015390D02*
X028812Y015390D01*
X028879Y015456D01*
X028879Y015523D01*
X028812Y015590D01*
X028612Y015590D01*
X028612Y015390D02*
X028612Y015790D01*
X028812Y015790D01*
X028879Y015723D01*
X028879Y015657D01*
X028812Y015590D01*
X029073Y015456D02*
X029139Y015523D01*
X029339Y015523D01*
X029339Y015590D02*
X029339Y015390D01*
X029139Y015390D01*
X029073Y015456D01*
X029139Y015657D02*
X029273Y015657D01*
X029339Y015590D01*
X029533Y015657D02*
X029666Y015657D01*
X029600Y015723D02*
X029600Y015456D01*
X029666Y015390D01*
X029840Y015323D02*
X030107Y015323D01*
X030300Y015390D02*
X030500Y015390D01*
X030567Y015456D01*
X030500Y015523D01*
X030367Y015523D01*
X030300Y015590D01*
X030367Y015657D01*
X030567Y015657D01*
X030761Y015657D02*
X030894Y015657D01*
X030827Y015723D02*
X030827Y015456D01*
X030894Y015390D01*
X031067Y015456D02*
X031134Y015523D01*
X031334Y015523D01*
X031334Y015590D02*
X031334Y015390D01*
X031134Y015390D01*
X031067Y015456D01*
X031134Y015657D02*
X031268Y015657D01*
X031334Y015590D01*
X031528Y015657D02*
X031661Y015657D01*
X031594Y015723D02*
X031594Y015456D01*
X031661Y015390D01*
X031835Y015456D02*
X031835Y015590D01*
X031901Y015657D01*
X032035Y015657D01*
X032102Y015590D01*
X032102Y015523D01*
X031835Y015523D01*
X031835Y015456D02*
X031901Y015390D01*
X032035Y015390D01*
X027881Y018330D02*
X027881Y018367D01*
X027881Y018330D02*
X027243Y018330D01*
X027243Y018367D01*
X027243Y018684D02*
X027243Y018721D01*
X027243Y019058D02*
X027243Y019095D01*
X027243Y019412D02*
X027243Y019450D01*
X027881Y019450D01*
X027881Y019412D01*
X027881Y019095D02*
X027881Y018684D01*
X027878Y020206D02*
X026646Y020206D01*
X026646Y021224D01*
X027878Y021224D01*
X027878Y020206D01*
X026838Y021004D02*
X026840Y021019D01*
X026846Y021033D01*
X026856Y021045D01*
X026868Y021054D01*
X026883Y021059D01*
X026898Y021060D01*
X026913Y021057D01*
X026926Y021050D01*
X026937Y021039D01*
X026945Y021026D01*
X026949Y021012D01*
X026949Y020996D01*
X026945Y020982D01*
X026937Y020969D01*
X026926Y020958D01*
X026913Y020951D01*
X026898Y020948D01*
X026883Y020949D01*
X026868Y020954D01*
X026856Y020963D01*
X026846Y020975D01*
X026840Y020989D01*
X026838Y021004D01*
X026928Y022690D02*
X026928Y023090D01*
X026795Y023090D02*
X027062Y023090D01*
X027255Y022890D02*
X027322Y022957D01*
X027456Y022957D01*
X027522Y022890D01*
X027522Y022823D01*
X027255Y022823D01*
X027255Y022756D02*
X027255Y022890D01*
X027255Y022756D02*
X027322Y022690D01*
X027456Y022690D01*
X027716Y022756D02*
X027782Y022823D01*
X027983Y022823D01*
X027983Y022890D02*
X027983Y022690D01*
X027782Y022690D01*
X027716Y022756D01*
X027782Y022957D02*
X027916Y022957D01*
X027983Y022890D01*
X028176Y022957D02*
X028176Y022690D01*
X028310Y022690D02*
X028310Y022890D01*
X028376Y022957D01*
X028443Y022890D01*
X028443Y022690D01*
X028310Y022890D02*
X028243Y022957D01*
X028176Y022957D01*
X028329Y023256D02*
X028329Y023657D01*
X028529Y023657D01*
X028596Y023590D01*
X028596Y023456D01*
X028529Y023390D01*
X028329Y023390D01*
X028135Y023456D02*
X028068Y023390D01*
X027868Y023390D01*
X027868Y023256D02*
X027868Y023657D01*
X028068Y023657D01*
X028135Y023590D01*
X028135Y023456D01*
X027675Y023390D02*
X027675Y023657D01*
X027408Y023657D02*
X027408Y023456D01*
X027475Y023390D01*
X027675Y023390D01*
X027214Y023456D02*
X027148Y023390D01*
X026948Y023390D01*
X027014Y023523D02*
X026948Y023590D01*
X027014Y023657D01*
X027214Y023657D01*
X027148Y023523D02*
X027014Y023523D01*
X027148Y023523D02*
X027214Y023456D01*
X026602Y023023D02*
X026602Y022957D01*
X026535Y022890D01*
X026335Y022890D01*
X026141Y022890D02*
X026141Y023023D01*
X026074Y023090D01*
X025874Y023090D01*
X025874Y022690D01*
X025874Y022823D02*
X026074Y022823D01*
X026141Y022890D01*
X026335Y022690D02*
X026335Y023090D01*
X026535Y023090D01*
X026602Y023023D01*
X026535Y022890D02*
X026602Y022823D01*
X026602Y022756D01*
X026535Y022690D01*
X026335Y022690D01*
X025681Y022690D02*
X025681Y022957D01*
X025547Y023090D01*
X025414Y022957D01*
X025414Y022690D01*
X025414Y022890D02*
X025681Y022890D01*
X025710Y023390D02*
X025643Y023456D01*
X025643Y023590D01*
X025710Y023657D01*
X025843Y023657D01*
X025910Y023590D01*
X025910Y023523D01*
X025643Y023523D01*
X025710Y023390D02*
X025843Y023390D01*
X026104Y023390D02*
X026104Y023657D01*
X026237Y023657D02*
X026304Y023657D01*
X026237Y023657D02*
X026104Y023523D01*
X025450Y023456D02*
X025383Y023390D01*
X025316Y023456D01*
X025250Y023390D01*
X025183Y023456D01*
X025183Y023657D01*
X024989Y023590D02*
X024923Y023657D01*
X024789Y023657D01*
X024723Y023590D01*
X024723Y023456D01*
X024789Y023390D01*
X024923Y023390D01*
X024989Y023456D01*
X024989Y023590D01*
X025450Y023657D02*
X025450Y023456D01*
X024760Y022890D02*
X024493Y022890D01*
X024262Y023390D02*
X024262Y023790D01*
X024462Y023790D01*
X024529Y023723D01*
X024529Y023590D01*
X024462Y023523D01*
X024262Y023523D01*
X023773Y023090D02*
X023839Y023023D01*
X023839Y022890D01*
X023773Y022823D01*
X023573Y022823D01*
X023573Y022690D02*
X023573Y023090D01*
X023773Y023090D01*
X023379Y023023D02*
X023379Y022890D01*
X023312Y022823D01*
X023112Y022823D01*
X023112Y022690D02*
X023112Y023090D01*
X023312Y023090D01*
X023379Y023023D01*
X022411Y023999D02*
X013750Y023999D01*
X013750Y022424D01*
X012962Y022424D01*
X013750Y022424D02*
X013750Y021046D01*
X013750Y020456D01*
X012962Y020456D01*
X013750Y020456D02*
X013750Y018881D01*
X022411Y018881D01*
X022411Y023999D01*
X023812Y019740D02*
X024412Y019740D01*
X024432Y019738D01*
X024450Y019732D01*
X024468Y019723D01*
X024483Y019711D01*
X024495Y019696D01*
X024504Y019678D01*
X024510Y019660D01*
X024512Y019640D01*
X024512Y018540D01*
X024510Y018520D01*
X024504Y018502D01*
X024495Y018484D01*
X024483Y018469D01*
X024468Y018457D01*
X024450Y018448D01*
X024432Y018442D01*
X024412Y018440D01*
X023812Y018440D01*
X023792Y018442D01*
X023774Y018448D01*
X023756Y018457D01*
X023741Y018469D01*
X023729Y018484D01*
X023720Y018502D01*
X023714Y018520D01*
X023712Y018540D01*
X023712Y019640D01*
X023714Y019660D01*
X023720Y019678D01*
X023729Y019696D01*
X023741Y019711D01*
X023756Y019723D01*
X023774Y019732D01*
X023792Y019738D01*
X023812Y019740D01*
X024379Y018278D02*
X024455Y018278D01*
X024532Y018201D01*
X024609Y018278D01*
X024686Y018278D01*
X024762Y018201D01*
X024762Y018048D01*
X024686Y017971D01*
X024532Y018124D02*
X024532Y018201D01*
X024379Y018278D02*
X024302Y018201D01*
X024302Y018048D01*
X024379Y017971D01*
X024302Y017762D02*
X024302Y017609D01*
X024302Y017686D02*
X024686Y017686D01*
X024762Y017609D01*
X024762Y017532D01*
X024686Y017455D01*
X024686Y017247D02*
X024762Y017170D01*
X024762Y017016D01*
X024686Y016940D01*
X024532Y017016D02*
X024532Y017170D01*
X024609Y017247D01*
X024686Y017247D01*
X024532Y017016D02*
X024455Y016940D01*
X024379Y016940D01*
X024302Y017016D01*
X024302Y017170D01*
X024379Y017247D01*
X025702Y017930D02*
X025922Y017930D01*
X025922Y018250D01*
X021876Y017698D02*
X021876Y017344D01*
X021876Y017698D02*
X020971Y018604D01*
X018648Y018604D01*
X018648Y017344D01*
X018648Y016635D02*
X018648Y015376D01*
X020971Y015376D01*
X021876Y016281D01*
X021876Y016635D01*
X021813Y016464D02*
X021813Y016264D01*
X021913Y016164D01*
X022014Y016264D01*
X022014Y016464D01*
X021645Y016414D02*
X021645Y016214D01*
X021595Y016164D01*
X021495Y016164D01*
X021445Y016214D01*
X021645Y016414D01*
X021595Y016464D01*
X021495Y016464D01*
X021445Y016414D01*
X021445Y016214D01*
X021277Y016214D02*
X021227Y016164D01*
X021127Y016164D01*
X021077Y016214D01*
X021077Y016314D02*
X021177Y016364D01*
X021227Y016364D01*
X021277Y016314D01*
X021277Y016214D01*
X021077Y016314D02*
X021077Y016464D01*
X021277Y016464D01*
X020909Y016464D02*
X020708Y016164D01*
X020540Y016214D02*
X020540Y016314D01*
X020540Y016214D02*
X020490Y016164D01*
X020440Y016164D01*
X020390Y016214D01*
X020390Y016114D01*
X020340Y016064D01*
X020390Y016214D02*
X020390Y016314D01*
X020172Y016364D02*
X020172Y016414D01*
X020122Y016464D01*
X020022Y016464D01*
X019972Y016414D01*
X019804Y016414D02*
X019754Y016464D01*
X019654Y016464D01*
X019604Y016414D01*
X019804Y016414D02*
X019804Y016364D01*
X019604Y016164D01*
X019804Y016164D01*
X019972Y016164D02*
X020172Y016364D01*
X020172Y016164D02*
X019972Y016164D01*
X018746Y016636D02*
X018766Y016559D01*
X018789Y016484D01*
X018817Y016410D01*
X018848Y016338D01*
X018883Y016267D01*
X018921Y016198D01*
X018963Y016132D01*
X019008Y016067D01*
X019056Y016005D01*
X019108Y015945D01*
X019162Y015888D01*
X019219Y015834D01*
X019279Y015782D01*
X019341Y015734D01*
X019406Y015689D01*
X019473Y015648D01*
X019542Y015610D01*
X019613Y015575D01*
X019685Y015544D01*
X019759Y015516D01*
X019834Y015493D01*
X019910Y015473D01*
X019988Y015457D01*
X020066Y015445D01*
X020144Y015437D01*
X020223Y015433D01*
X020301Y015433D01*
X020380Y015437D01*
X020458Y015445D01*
X020536Y015457D01*
X020614Y015473D01*
X020690Y015493D01*
X020765Y015516D01*
X020839Y015544D01*
X020911Y015575D01*
X020982Y015610D01*
X021051Y015648D01*
X021118Y015689D01*
X021183Y015734D01*
X021245Y015782D01*
X021305Y015834D01*
X021362Y015888D01*
X021416Y015945D01*
X021468Y016005D01*
X021516Y016067D01*
X021561Y016132D01*
X021603Y016198D01*
X021641Y016267D01*
X021676Y016338D01*
X021707Y016410D01*
X021735Y016484D01*
X021758Y016559D01*
X021778Y016636D01*
X021778Y017344D02*
X021758Y017421D01*
X021735Y017496D01*
X021707Y017570D01*
X021676Y017642D01*
X021641Y017713D01*
X021603Y017782D01*
X021561Y017848D01*
X021516Y017913D01*
X021468Y017975D01*
X021416Y018035D01*
X021362Y018092D01*
X021305Y018146D01*
X021245Y018198D01*
X021183Y018246D01*
X021118Y018291D01*
X021051Y018332D01*
X020982Y018370D01*
X020911Y018405D01*
X020839Y018436D01*
X020765Y018464D01*
X020690Y018487D01*
X020614Y018507D01*
X020536Y018523D01*
X020458Y018535D01*
X020380Y018543D01*
X020301Y018547D01*
X020223Y018547D01*
X020144Y018543D01*
X020066Y018535D01*
X019988Y018523D01*
X019910Y018507D01*
X019834Y018487D01*
X019759Y018464D01*
X019685Y018436D01*
X019613Y018405D01*
X019542Y018370D01*
X019473Y018332D01*
X019406Y018291D01*
X019341Y018246D01*
X019279Y018198D01*
X019219Y018146D01*
X019162Y018092D01*
X019108Y018035D01*
X019056Y017975D01*
X019008Y017913D01*
X018963Y017848D01*
X018921Y017782D01*
X018883Y017713D01*
X018848Y017642D01*
X018817Y017570D01*
X018789Y017496D01*
X018766Y017421D01*
X018746Y017344D01*
X014737Y019833D02*
X014237Y019833D01*
X014487Y019583D02*
X014487Y020083D01*
X014487Y020990D02*
X014487Y021090D01*
X013987Y021090D01*
X013987Y021340D01*
X014987Y021340D01*
X014987Y021090D01*
X014487Y021090D01*
X014487Y021690D02*
X014487Y021890D01*
X013750Y021440D02*
X013750Y021046D01*
X011961Y018881D02*
X011961Y023999D01*
X003300Y023999D01*
X003300Y022424D01*
X002512Y022424D01*
X003300Y022424D02*
X003300Y021046D01*
X003300Y020456D01*
X002512Y020456D01*
X002887Y019983D02*
X002887Y019483D01*
X003137Y019733D02*
X002637Y019733D01*
X003300Y020456D02*
X003300Y018881D01*
X011961Y018881D01*
X010912Y017490D02*
X010912Y016890D01*
X011162Y016890D01*
X010912Y016890D02*
X010912Y016640D01*
X010912Y016890D02*
X010662Y016890D01*
X010912Y016890D02*
X010662Y017290D01*
X011162Y017290D01*
X010912Y016890D01*
X012012Y015740D02*
X012012Y015140D01*
X012262Y015140D01*
X012012Y015140D02*
X011762Y015140D01*
X012012Y015140D02*
X012012Y014890D01*
X012012Y015140D02*
X011762Y015540D01*
X012262Y015540D01*
X012012Y015140D01*
X014189Y014440D02*
X014189Y014040D01*
X014456Y014040D01*
X014650Y014040D02*
X014650Y014440D01*
X014783Y014307D01*
X014917Y014440D01*
X014917Y014040D01*
X015110Y014040D02*
X015377Y014307D01*
X015377Y014373D01*
X015310Y014440D01*
X015177Y014440D01*
X015110Y014373D01*
X015110Y014040D02*
X015377Y014040D01*
X015571Y014106D02*
X015637Y014040D01*
X015771Y014040D01*
X015837Y014106D01*
X015837Y014173D01*
X015771Y014240D01*
X015571Y014240D01*
X015571Y014106D01*
X015571Y014240D02*
X015704Y014373D01*
X015837Y014440D01*
X016031Y014440D02*
X016298Y014440D01*
X016298Y014373D01*
X016031Y014106D01*
X016031Y014040D01*
X016491Y014106D02*
X016491Y014173D01*
X016558Y014240D01*
X016691Y014240D01*
X016758Y014173D01*
X016758Y014106D01*
X016691Y014040D01*
X016558Y014040D01*
X016491Y014106D01*
X016558Y014240D02*
X016491Y014307D01*
X016491Y014373D01*
X016558Y014440D01*
X016691Y014440D01*
X016758Y014373D01*
X016758Y014307D01*
X016691Y014240D01*
X016952Y014307D02*
X017018Y014240D01*
X017152Y014240D01*
X017219Y014173D01*
X017219Y014106D01*
X017152Y014040D01*
X017018Y014040D01*
X016952Y014106D01*
X016952Y014307D02*
X016952Y014373D01*
X017018Y014440D01*
X017152Y014440D01*
X017219Y014373D01*
X015221Y011954D02*
X016126Y011048D01*
X016126Y010694D01*
X016126Y009985D02*
X016126Y009631D01*
X015221Y008726D01*
X012898Y008726D01*
X012898Y009985D01*
X012262Y009940D02*
X012012Y010340D01*
X011762Y010340D01*
X012012Y010340D02*
X012012Y010590D01*
X012012Y010340D02*
X012262Y010340D01*
X012012Y010340D02*
X012012Y009740D01*
X012262Y009940D02*
X011762Y009940D01*
X012012Y010340D01*
X012898Y010694D02*
X012898Y011954D01*
X015221Y011954D01*
X016028Y009986D02*
X016008Y009909D01*
X015985Y009834D01*
X015957Y009760D01*
X015926Y009688D01*
X015891Y009617D01*
X015853Y009548D01*
X015811Y009482D01*
X015766Y009417D01*
X015718Y009355D01*
X015666Y009295D01*
X015612Y009238D01*
X015555Y009184D01*
X015495Y009132D01*
X015433Y009084D01*
X015368Y009039D01*
X015301Y008998D01*
X015232Y008960D01*
X015161Y008925D01*
X015089Y008894D01*
X015015Y008866D01*
X014940Y008843D01*
X014864Y008823D01*
X014786Y008807D01*
X014708Y008795D01*
X014630Y008787D01*
X014551Y008783D01*
X014473Y008783D01*
X014394Y008787D01*
X014316Y008795D01*
X014238Y008807D01*
X014160Y008823D01*
X014084Y008843D01*
X014009Y008866D01*
X013935Y008894D01*
X013863Y008925D01*
X013792Y008960D01*
X013723Y008998D01*
X013656Y009039D01*
X013591Y009084D01*
X013529Y009132D01*
X013469Y009184D01*
X013412Y009238D01*
X013358Y009295D01*
X013306Y009355D01*
X013258Y009417D01*
X013213Y009482D01*
X013171Y009548D01*
X013133Y009617D01*
X013098Y009688D01*
X013067Y009760D01*
X013039Y009834D01*
X013016Y009909D01*
X012996Y009986D01*
X013854Y009664D02*
X014054Y009664D01*
X014004Y009514D02*
X014004Y009814D01*
X013854Y009664D01*
X014222Y009564D02*
X014222Y009514D01*
X014222Y009564D02*
X014422Y009764D01*
X014422Y009814D01*
X014222Y009814D01*
X014590Y009714D02*
X014590Y009564D01*
X014640Y009514D01*
X014790Y009514D01*
X014790Y009714D01*
X016028Y010694D02*
X016008Y010771D01*
X015985Y010846D01*
X015957Y010920D01*
X015926Y010992D01*
X015891Y011063D01*
X015853Y011132D01*
X015811Y011198D01*
X015766Y011263D01*
X015718Y011325D01*
X015666Y011385D01*
X015612Y011442D01*
X015555Y011496D01*
X015495Y011548D01*
X015433Y011596D01*
X015368Y011641D01*
X015301Y011682D01*
X015232Y011720D01*
X015161Y011755D01*
X015089Y011786D01*
X015015Y011814D01*
X014940Y011837D01*
X014864Y011857D01*
X014786Y011873D01*
X014708Y011885D01*
X014630Y011893D01*
X014551Y011897D01*
X014473Y011897D01*
X014394Y011893D01*
X014316Y011885D01*
X014238Y011873D01*
X014160Y011857D01*
X014084Y011837D01*
X014009Y011814D01*
X013935Y011786D01*
X013863Y011755D01*
X013792Y011720D01*
X013723Y011682D01*
X013656Y011641D01*
X013591Y011596D01*
X013529Y011548D01*
X013469Y011496D01*
X013412Y011442D01*
X013358Y011385D01*
X013306Y011325D01*
X013258Y011263D01*
X013213Y011198D01*
X013171Y011132D01*
X013133Y011063D01*
X013098Y010992D01*
X013067Y010920D01*
X013039Y010846D01*
X013016Y010771D01*
X012996Y010694D01*
X011162Y011690D02*
X010912Y012090D01*
X010662Y012090D01*
X010912Y012090D02*
X011162Y012090D01*
X010912Y012090D02*
X010912Y012340D01*
X010912Y012090D02*
X010912Y011490D01*
X010662Y011690D02*
X010912Y012090D01*
X011162Y011690D02*
X010662Y011690D01*
X008476Y010448D02*
X008476Y010094D01*
X008476Y010448D02*
X007571Y011354D01*
X005248Y011354D01*
X005248Y010094D01*
X005248Y009385D02*
X005248Y008126D01*
X007571Y008126D01*
X008476Y009031D01*
X008476Y009385D01*
X007140Y009114D02*
X007140Y008914D01*
X006990Y008914D01*
X006940Y008964D01*
X006940Y009114D01*
X006772Y009164D02*
X006572Y008964D01*
X006572Y008914D01*
X006354Y008914D02*
X006354Y009214D01*
X006204Y009064D01*
X006404Y009064D01*
X006572Y009214D02*
X006772Y009214D01*
X006772Y009164D01*
X005346Y009386D02*
X005366Y009309D01*
X005389Y009234D01*
X005417Y009160D01*
X005448Y009088D01*
X005483Y009017D01*
X005521Y008948D01*
X005563Y008882D01*
X005608Y008817D01*
X005656Y008755D01*
X005708Y008695D01*
X005762Y008638D01*
X005819Y008584D01*
X005879Y008532D01*
X005941Y008484D01*
X006006Y008439D01*
X006073Y008398D01*
X006142Y008360D01*
X006213Y008325D01*
X006285Y008294D01*
X006359Y008266D01*
X006434Y008243D01*
X006510Y008223D01*
X006588Y008207D01*
X006666Y008195D01*
X006744Y008187D01*
X006823Y008183D01*
X006901Y008183D01*
X006980Y008187D01*
X007058Y008195D01*
X007136Y008207D01*
X007214Y008223D01*
X007290Y008243D01*
X007365Y008266D01*
X007439Y008294D01*
X007511Y008325D01*
X007582Y008360D01*
X007651Y008398D01*
X007718Y008439D01*
X007783Y008484D01*
X007845Y008532D01*
X007905Y008584D01*
X007962Y008638D01*
X008016Y008695D01*
X008068Y008755D01*
X008116Y008817D01*
X008161Y008882D01*
X008203Y008948D01*
X008241Y009017D01*
X008276Y009088D01*
X008307Y009160D01*
X008335Y009234D01*
X008358Y009309D01*
X008378Y009386D01*
X008378Y010094D02*
X008358Y010171D01*
X008335Y010246D01*
X008307Y010320D01*
X008276Y010392D01*
X008241Y010463D01*
X008203Y010532D01*
X008161Y010598D01*
X008116Y010663D01*
X008068Y010725D01*
X008016Y010785D01*
X007962Y010842D01*
X007905Y010896D01*
X007845Y010948D01*
X007783Y010996D01*
X007718Y011041D01*
X007651Y011082D01*
X007582Y011120D01*
X007511Y011155D01*
X007439Y011186D01*
X007365Y011214D01*
X007290Y011237D01*
X007214Y011257D01*
X007136Y011273D01*
X007058Y011285D01*
X006980Y011293D01*
X006901Y011297D01*
X006823Y011297D01*
X006744Y011293D01*
X006666Y011285D01*
X006588Y011273D01*
X006510Y011257D01*
X006434Y011237D01*
X006359Y011214D01*
X006285Y011186D01*
X006213Y011155D01*
X006142Y011120D01*
X006073Y011082D01*
X006006Y011041D01*
X005941Y010996D01*
X005879Y010948D01*
X005819Y010896D01*
X005762Y010842D01*
X005708Y010785D01*
X005656Y010725D01*
X005608Y010663D01*
X005563Y010598D01*
X005521Y010532D01*
X005483Y010463D01*
X005448Y010392D01*
X005417Y010320D01*
X005389Y010246D01*
X005366Y010171D01*
X005346Y010094D01*
X003912Y010340D02*
X003662Y010740D01*
X003412Y010740D01*
X003662Y010740D02*
X003662Y010990D01*
X003662Y010740D02*
X003912Y010740D01*
X003662Y010740D02*
X003662Y010140D01*
X003412Y010340D02*
X003662Y010740D01*
X003912Y010340D02*
X003412Y010340D01*
X002512Y011790D02*
X002512Y012390D01*
X002262Y012390D01*
X002512Y012390D02*
X002262Y011990D01*
X002762Y011990D01*
X002512Y012390D01*
X002762Y012390D01*
X002512Y012390D02*
X002512Y012640D01*
X003662Y015140D02*
X003662Y015390D01*
X003912Y015390D01*
X003662Y015390D02*
X003412Y015390D01*
X003662Y015390D02*
X003412Y015790D01*
X003912Y015790D01*
X003662Y015390D01*
X003662Y015990D01*
X002512Y016940D02*
X002512Y017190D01*
X002762Y017190D01*
X002512Y017190D02*
X002262Y017190D01*
X002512Y017190D02*
X002262Y017590D01*
X002762Y017590D01*
X002512Y017190D01*
X002512Y017790D01*
X003300Y021046D02*
X003300Y021440D01*
X003537Y021340D02*
X003537Y021090D01*
X004037Y021090D01*
X004537Y021090D01*
X004537Y021340D01*
X003537Y021340D01*
X004037Y021090D02*
X004037Y020990D01*
X004037Y021690D02*
X004037Y021890D01*
X001562Y024090D02*
X032562Y024090D01*
X032562Y005090D01*
X001562Y005090D01*
X001562Y024090D01*
X032562Y024090D01*
X032562Y005090D01*
X001562Y005090D01*
X001562Y024090D01*
X005839Y014440D02*
X005839Y014040D01*
X006106Y014040D01*
X006300Y014040D02*
X006300Y014440D01*
X006433Y014307D01*
X006567Y014440D01*
X006567Y014040D01*
X006760Y014040D02*
X007027Y014307D01*
X007027Y014373D01*
X006960Y014440D01*
X006827Y014440D01*
X006760Y014373D01*
X006760Y014040D02*
X007027Y014040D01*
X007221Y014106D02*
X007221Y014240D01*
X007421Y014240D01*
X007487Y014173D01*
X007487Y014106D01*
X007421Y014040D01*
X007287Y014040D01*
X007221Y014106D01*
X007221Y014240D02*
X007354Y014373D01*
X007487Y014440D01*
X007681Y014440D02*
X007948Y014440D01*
X007948Y014373D01*
X007681Y014106D01*
X007681Y014040D01*
X008141Y014106D02*
X008141Y014173D01*
X008208Y014240D01*
X008341Y014240D01*
X008408Y014173D01*
X008408Y014106D01*
X008341Y014040D01*
X008208Y014040D01*
X008141Y014106D01*
X008208Y014240D02*
X008141Y014307D01*
X008141Y014373D01*
X008208Y014440D01*
X008341Y014440D01*
X008408Y014373D01*
X008408Y014307D01*
X008341Y014240D01*
X008602Y014307D02*
X008668Y014240D01*
X008802Y014240D01*
X008869Y014173D01*
X008869Y014106D01*
X008802Y014040D01*
X008668Y014040D01*
X008602Y014106D01*
X008602Y014307D02*
X008602Y014373D01*
X008668Y014440D01*
X008802Y014440D01*
X008869Y014373D01*
X010489Y007462D02*
X010489Y003859D01*
X014032Y003859D01*
X014032Y007462D01*
X010489Y007462D01*
X030018Y022690D02*
X030284Y022957D01*
X030284Y023023D01*
X030218Y023090D01*
X030084Y023090D01*
X030018Y023023D01*
X030017Y023390D02*
X030284Y023390D01*
X030150Y023390D02*
X030150Y023790D01*
X030017Y023657D01*
X029363Y023657D02*
X029363Y023323D01*
X029296Y023256D01*
X029229Y023256D01*
X029163Y023390D02*
X029363Y023390D01*
X029163Y023390D02*
X029096Y023456D01*
X029096Y023657D01*
X028856Y023790D02*
X028856Y023390D01*
X028922Y023390D02*
X028789Y023390D01*
X028789Y023790D02*
X028856Y023790D01*
X029097Y022890D02*
X029364Y022890D01*
X030018Y022690D02*
X030284Y022690D01*
X030478Y022756D02*
X030745Y023023D01*
X030745Y022756D01*
X030678Y022690D01*
X030545Y022690D01*
X030478Y022756D01*
X030478Y023023D01*
X030545Y023090D01*
X030678Y023090D01*
X030745Y023023D01*
X030938Y023023D02*
X031005Y023090D01*
X031138Y023090D01*
X031205Y023023D01*
X030938Y022756D01*
X031005Y022690D01*
X031138Y022690D01*
X031205Y022756D01*
X031205Y023023D01*
X031399Y023023D02*
X031399Y022957D01*
X031465Y022890D01*
X031599Y022890D01*
X031665Y022823D01*
X031665Y022756D01*
X031599Y022690D01*
X031465Y022690D01*
X031399Y022756D01*
X031399Y022823D01*
X031465Y022890D01*
X031599Y022890D02*
X031665Y022957D01*
X031665Y023023D01*
X031599Y023090D01*
X031465Y023090D01*
X031399Y023023D01*
X030938Y023023D02*
X030938Y022756D01*
D11*
X014487Y021665D03*
X004037Y021665D03*
D12*
X009592Y007468D03*
X010133Y007468D03*
X014392Y007468D03*
X014933Y007468D03*
X019192Y007418D03*
X019733Y007418D03*
X027242Y010268D03*
X027783Y010268D03*
X028742Y014311D03*
X029283Y014311D03*
X029642Y014311D03*
X030183Y014311D03*
X030542Y014311D03*
X031083Y014311D03*
X031442Y014311D03*
X031983Y014311D03*
D13*
X031712Y014159D03*
X030812Y014159D03*
X029912Y014159D03*
X029012Y014159D03*
X027512Y010421D03*
X019462Y007571D03*
X014662Y007621D03*
X009862Y007621D03*
D14*
X029999Y010739D03*
D15*
X025700Y013190D02*
X025702Y013211D01*
X025708Y013232D01*
X025718Y013251D01*
X025731Y013267D01*
X025747Y013281D01*
X025765Y013292D01*
X025786Y013299D01*
X025807Y013302D01*
X025828Y013301D01*
X025849Y013296D01*
X025868Y013287D01*
X025885Y013275D01*
X025900Y013259D01*
X025912Y013241D01*
X025919Y013222D01*
X025923Y013201D01*
X025923Y013179D01*
X025919Y013158D01*
X025912Y013139D01*
X025900Y013121D01*
X025885Y013105D01*
X025868Y013093D01*
X025849Y013084D01*
X025828Y013079D01*
X025807Y013078D01*
X025786Y013081D01*
X025765Y013088D01*
X025747Y013099D01*
X025731Y013113D01*
X025718Y013129D01*
X025708Y013148D01*
X025702Y013169D01*
X025700Y013190D01*
D16*
X029567Y019795D02*
X029567Y020385D01*
X029567Y020090D02*
X029961Y020090D01*
X030212Y020090D02*
X030212Y019893D01*
X030310Y019795D01*
X030605Y019795D01*
X030856Y019893D02*
X030856Y020090D01*
X030955Y020188D01*
X031250Y020188D01*
X031250Y019795D02*
X030955Y019795D01*
X030856Y019893D01*
X030605Y020188D02*
X030310Y020188D01*
X030212Y020090D01*
X029961Y020385D02*
X029961Y019795D01*
D17*
X027406Y008489D02*
X027406Y008061D01*
X027619Y008275D02*
X027192Y008275D01*
X018004Y008280D02*
X017577Y008280D01*
X017791Y008494D02*
X017791Y008066D01*
X013104Y008110D02*
X012677Y008110D01*
X012891Y008324D02*
X012891Y007896D01*
X008529Y008165D02*
X008102Y008165D01*
X008316Y008379D02*
X008316Y007951D01*
D18*
X002662Y006840D02*
X002665Y006899D01*
X002673Y006958D01*
X002686Y007015D01*
X002705Y007072D01*
X002728Y007126D01*
X002757Y007178D01*
X002790Y007227D01*
X002827Y007273D01*
X002868Y007315D01*
X002913Y007353D01*
X002962Y007388D01*
X003013Y007417D01*
X003067Y007442D01*
X003122Y007462D01*
X003180Y007476D01*
X003238Y007486D01*
X003297Y007490D01*
X003356Y007488D01*
X003415Y007482D01*
X003473Y007470D01*
X003530Y007452D01*
X003584Y007430D01*
X003637Y007403D01*
X003687Y007371D01*
X003734Y007335D01*
X003777Y007294D01*
X003816Y007250D01*
X003851Y007203D01*
X003882Y007152D01*
X003908Y007099D01*
X003929Y007044D01*
X003945Y006987D01*
X003956Y006929D01*
X003961Y006870D01*
X003961Y006810D01*
X003956Y006751D01*
X003945Y006693D01*
X003929Y006636D01*
X003908Y006581D01*
X003882Y006528D01*
X003851Y006477D01*
X003816Y006430D01*
X003777Y006386D01*
X003734Y006345D01*
X003687Y006309D01*
X003637Y006277D01*
X003584Y006250D01*
X003530Y006228D01*
X003473Y006210D01*
X003415Y006198D01*
X003356Y006192D01*
X003297Y006190D01*
X003238Y006194D01*
X003180Y006204D01*
X003122Y006218D01*
X003067Y006238D01*
X003013Y006263D01*
X002962Y006292D01*
X002913Y006327D01*
X002868Y006365D01*
X002827Y006407D01*
X002790Y006453D01*
X002757Y006502D01*
X002728Y006554D01*
X002705Y006608D01*
X002686Y006665D01*
X002673Y006722D01*
X002665Y006781D01*
X002662Y006840D01*
X030162Y006840D02*
X030165Y006899D01*
X030173Y006958D01*
X030186Y007015D01*
X030205Y007072D01*
X030228Y007126D01*
X030257Y007178D01*
X030290Y007227D01*
X030327Y007273D01*
X030368Y007315D01*
X030413Y007353D01*
X030462Y007388D01*
X030513Y007417D01*
X030567Y007442D01*
X030622Y007462D01*
X030680Y007476D01*
X030738Y007486D01*
X030797Y007490D01*
X030856Y007488D01*
X030915Y007482D01*
X030973Y007470D01*
X031030Y007452D01*
X031084Y007430D01*
X031137Y007403D01*
X031187Y007371D01*
X031234Y007335D01*
X031277Y007294D01*
X031316Y007250D01*
X031351Y007203D01*
X031382Y007152D01*
X031408Y007099D01*
X031429Y007044D01*
X031445Y006987D01*
X031456Y006929D01*
X031461Y006870D01*
X031461Y006810D01*
X031456Y006751D01*
X031445Y006693D01*
X031429Y006636D01*
X031408Y006581D01*
X031382Y006528D01*
X031351Y006477D01*
X031316Y006430D01*
X031277Y006386D01*
X031234Y006345D01*
X031187Y006309D01*
X031137Y006277D01*
X031084Y006250D01*
X031030Y006228D01*
X030973Y006210D01*
X030915Y006198D01*
X030856Y006192D01*
X030797Y006190D01*
X030738Y006194D01*
X030680Y006204D01*
X030622Y006218D01*
X030567Y006238D01*
X030513Y006263D01*
X030462Y006292D01*
X030413Y006327D01*
X030368Y006365D01*
X030327Y006407D01*
X030290Y006453D01*
X030257Y006502D01*
X030228Y006554D01*
X030205Y006608D01*
X030186Y006665D01*
X030173Y006722D01*
X030165Y006781D01*
X030162Y006840D01*
M02*
