G75*
G70*
%OFA0B0*%
%FSLAX24Y24*%
%IPPOS*%
%LPD*%
%AMOC8*
5,1,8,0,0,1.08239X$1,22.5*
%
%ADD10C,0.0000*%
%ADD11C,0.0100*%
D10*
X001673Y001502D02*
X020673Y001502D01*
X020673Y032502D01*
X001673Y032502D01*
X001673Y001502D01*
X002773Y003252D02*
X002776Y003311D01*
X002784Y003370D01*
X002797Y003427D01*
X002816Y003484D01*
X002839Y003538D01*
X002868Y003590D01*
X002901Y003639D01*
X002938Y003685D01*
X002979Y003727D01*
X003024Y003765D01*
X003073Y003800D01*
X003124Y003829D01*
X003178Y003854D01*
X003233Y003874D01*
X003291Y003888D01*
X003349Y003898D01*
X003408Y003902D01*
X003467Y003900D01*
X003526Y003894D01*
X003584Y003882D01*
X003641Y003864D01*
X003695Y003842D01*
X003748Y003815D01*
X003798Y003783D01*
X003845Y003747D01*
X003888Y003706D01*
X003927Y003662D01*
X003962Y003615D01*
X003993Y003564D01*
X004019Y003511D01*
X004040Y003456D01*
X004056Y003399D01*
X004067Y003341D01*
X004072Y003282D01*
X004072Y003222D01*
X004067Y003163D01*
X004056Y003105D01*
X004040Y003048D01*
X004019Y002993D01*
X003993Y002940D01*
X003962Y002889D01*
X003927Y002842D01*
X003888Y002798D01*
X003845Y002757D01*
X003798Y002721D01*
X003748Y002689D01*
X003695Y002662D01*
X003641Y002640D01*
X003584Y002622D01*
X003526Y002610D01*
X003467Y002604D01*
X003408Y002602D01*
X003349Y002606D01*
X003291Y002616D01*
X003233Y002630D01*
X003178Y002650D01*
X003124Y002675D01*
X003073Y002704D01*
X003024Y002739D01*
X002979Y002777D01*
X002938Y002819D01*
X002901Y002865D01*
X002868Y002914D01*
X002839Y002966D01*
X002816Y003020D01*
X002797Y003077D01*
X002784Y003134D01*
X002776Y003193D01*
X002773Y003252D01*
X002773Y030752D02*
X002776Y030811D01*
X002784Y030870D01*
X002797Y030927D01*
X002816Y030984D01*
X002839Y031038D01*
X002868Y031090D01*
X002901Y031139D01*
X002938Y031185D01*
X002979Y031227D01*
X003024Y031265D01*
X003073Y031300D01*
X003124Y031329D01*
X003178Y031354D01*
X003233Y031374D01*
X003291Y031388D01*
X003349Y031398D01*
X003408Y031402D01*
X003467Y031400D01*
X003526Y031394D01*
X003584Y031382D01*
X003641Y031364D01*
X003695Y031342D01*
X003748Y031315D01*
X003798Y031283D01*
X003845Y031247D01*
X003888Y031206D01*
X003927Y031162D01*
X003962Y031115D01*
X003993Y031064D01*
X004019Y031011D01*
X004040Y030956D01*
X004056Y030899D01*
X004067Y030841D01*
X004072Y030782D01*
X004072Y030722D01*
X004067Y030663D01*
X004056Y030605D01*
X004040Y030548D01*
X004019Y030493D01*
X003993Y030440D01*
X003962Y030389D01*
X003927Y030342D01*
X003888Y030298D01*
X003845Y030257D01*
X003798Y030221D01*
X003748Y030189D01*
X003695Y030162D01*
X003641Y030140D01*
X003584Y030122D01*
X003526Y030110D01*
X003467Y030104D01*
X003408Y030102D01*
X003349Y030106D01*
X003291Y030116D01*
X003233Y030130D01*
X003178Y030150D01*
X003124Y030175D01*
X003073Y030204D01*
X003024Y030239D01*
X002979Y030277D01*
X002938Y030319D01*
X002901Y030365D01*
X002868Y030414D01*
X002839Y030466D01*
X002816Y030520D01*
X002797Y030577D01*
X002784Y030634D01*
X002776Y030693D01*
X002773Y030752D01*
D11*
X004223Y027702D02*
X004356Y027702D01*
X004290Y027702D02*
X004290Y027302D01*
X004356Y027302D02*
X004223Y027302D01*
X004530Y027302D02*
X004797Y027569D01*
X004797Y027635D01*
X004730Y027702D01*
X004597Y027702D01*
X004530Y027635D01*
X004530Y027302D02*
X004797Y027302D01*
X004990Y027368D02*
X004990Y027635D01*
X005057Y027702D01*
X005190Y027702D01*
X005257Y027635D01*
X005257Y027368D02*
X005190Y027302D01*
X005057Y027302D01*
X004990Y027368D01*
X005789Y023358D02*
X005723Y023291D01*
X005723Y023158D01*
X005789Y023091D01*
X006056Y023091D01*
X006123Y023158D01*
X006123Y023291D01*
X006056Y023358D01*
X005923Y022898D02*
X005789Y022898D01*
X005723Y022831D01*
X005723Y022631D01*
X006123Y022631D01*
X005990Y022631D02*
X005990Y022831D01*
X005923Y022898D01*
X008723Y026552D02*
X009123Y026552D01*
X009123Y026819D01*
X009123Y027012D02*
X009123Y027279D01*
X009123Y027472D02*
X009123Y027673D01*
X009056Y027739D01*
X008789Y027739D01*
X008723Y027673D01*
X008723Y027472D01*
X009123Y027472D01*
X008923Y027146D02*
X008923Y027012D01*
X008723Y027012D02*
X009123Y027012D01*
X008723Y027012D02*
X008723Y027279D01*
X008856Y027933D02*
X008723Y028066D01*
X009123Y028066D01*
X009123Y027933D02*
X009123Y028200D01*
X009073Y028602D02*
X009273Y028602D01*
X009340Y028668D01*
X009340Y028935D01*
X009273Y029002D01*
X009073Y029002D01*
X009073Y028602D01*
X009533Y028602D02*
X009800Y028602D01*
X009994Y028735D02*
X009994Y029002D01*
X009800Y029002D02*
X009533Y029002D01*
X009533Y028602D01*
X009533Y028802D02*
X009667Y028802D01*
X009994Y028735D02*
X010127Y028602D01*
X010261Y028735D01*
X010261Y029002D01*
X011223Y028133D02*
X011223Y027999D01*
X011289Y027933D01*
X011289Y027739D02*
X011223Y027673D01*
X011223Y027472D01*
X011623Y027472D01*
X011623Y027673D01*
X011556Y027739D01*
X011289Y027739D01*
X011623Y027933D02*
X011356Y028200D01*
X011289Y028200D01*
X011223Y028133D01*
X011623Y028200D02*
X011623Y027933D01*
X011623Y027279D02*
X011623Y027012D01*
X011223Y027012D01*
X011223Y027279D01*
X011423Y027146D02*
X011423Y027012D01*
X011623Y026819D02*
X011623Y026552D01*
X011223Y026552D01*
X012225Y025452D02*
X012092Y025319D01*
X012092Y025052D01*
X012092Y025252D02*
X012359Y025252D01*
X012359Y025319D02*
X012359Y025052D01*
X012552Y025052D02*
X012552Y025452D01*
X012819Y025052D01*
X012819Y025452D01*
X013013Y025319D02*
X013013Y025052D01*
X013013Y025252D02*
X013280Y025252D01*
X013280Y025319D02*
X013280Y025052D01*
X013280Y025319D02*
X013146Y025452D01*
X013013Y025319D01*
X012359Y025319D02*
X012225Y025452D01*
X015723Y031302D02*
X015723Y031702D01*
X015923Y031702D01*
X015990Y031635D01*
X015990Y031502D01*
X015923Y031435D01*
X015723Y031435D01*
X016183Y031302D02*
X016317Y031435D01*
X016450Y031302D01*
X016450Y031702D01*
X016183Y031702D02*
X016183Y031302D01*
X017473Y031383D02*
X017473Y031183D01*
X017873Y031183D01*
X017740Y031183D02*
X017740Y031383D01*
X017673Y031450D01*
X017539Y031450D01*
X017473Y031383D01*
X017473Y031643D02*
X017873Y031643D01*
X017873Y031910D01*
X017873Y032237D02*
X017673Y032237D01*
X017539Y032370D01*
X017473Y032370D01*
X017673Y032237D02*
X017539Y032104D01*
X017473Y032104D01*
X017539Y030989D02*
X017473Y030923D01*
X017473Y030722D01*
X017873Y030722D01*
X017740Y030722D02*
X017740Y030923D01*
X017673Y030989D01*
X017539Y030989D01*
X017473Y030529D02*
X017806Y030529D01*
X017873Y030462D01*
X017873Y030329D01*
X017806Y030262D01*
X017473Y030262D01*
X017539Y030069D02*
X017473Y030002D01*
X017473Y029868D01*
X017539Y029802D01*
X017606Y029802D01*
X017673Y029868D01*
X017673Y030002D01*
X017740Y030069D01*
X017806Y030069D01*
X017873Y030002D01*
X017873Y029868D01*
X017806Y029802D01*
X018040Y023952D02*
X017973Y023885D01*
X017973Y023618D01*
X018040Y023552D01*
X018173Y023552D01*
X018240Y023618D01*
X018433Y023618D02*
X018500Y023552D01*
X018634Y023552D01*
X018700Y023618D01*
X018700Y023885D01*
X018634Y023952D01*
X018500Y023952D01*
X018433Y023885D01*
X018433Y023618D01*
X018240Y023885D02*
X018173Y023952D01*
X018040Y023952D01*
X018894Y023952D02*
X018894Y023552D01*
X019094Y023552D01*
X019161Y023618D01*
X019161Y023885D01*
X019094Y023952D01*
X018894Y023952D01*
X019354Y023752D02*
X019621Y023752D01*
X019554Y023552D02*
X019554Y023952D01*
X019354Y023752D01*
X019421Y018452D02*
X019554Y018452D01*
X019621Y018385D01*
X019621Y018319D01*
X019554Y018252D01*
X019621Y018185D01*
X019621Y018118D01*
X019554Y018052D01*
X019421Y018052D01*
X019354Y018118D01*
X019488Y018252D02*
X019554Y018252D01*
X019354Y018385D02*
X019421Y018452D01*
X019161Y018385D02*
X019161Y018118D01*
X019094Y018052D01*
X018894Y018052D01*
X018894Y018452D01*
X019094Y018452D01*
X019161Y018385D01*
X018700Y018385D02*
X018700Y018118D01*
X018634Y018052D01*
X018500Y018052D01*
X018433Y018118D01*
X018433Y018385D01*
X018500Y018452D01*
X018634Y018452D01*
X018700Y018385D01*
X018240Y018385D02*
X018173Y018452D01*
X018040Y018452D01*
X017973Y018385D01*
X017973Y018118D01*
X018040Y018052D01*
X018173Y018052D01*
X018240Y018118D01*
X015873Y018066D02*
X015873Y017932D01*
X015806Y017866D01*
X015740Y017866D01*
X015673Y017932D01*
X015673Y018066D01*
X015740Y018133D01*
X015806Y018133D01*
X015873Y018066D01*
X015673Y018066D02*
X015606Y018133D01*
X015539Y018133D01*
X015473Y018066D01*
X015473Y017932D01*
X015539Y017866D01*
X015606Y017866D01*
X015673Y017932D01*
X015539Y017672D02*
X015806Y017672D01*
X015873Y017605D01*
X015873Y017472D01*
X015806Y017405D01*
X015539Y017672D01*
X015473Y017605D01*
X015473Y017472D01*
X015539Y017405D01*
X015806Y017405D01*
X015806Y017212D02*
X015873Y017145D01*
X015873Y017012D01*
X015806Y016945D01*
X015539Y017212D01*
X015806Y017212D01*
X015806Y016945D02*
X015539Y016945D01*
X015473Y017012D01*
X015473Y017145D01*
X015539Y017212D01*
X015539Y016751D02*
X015473Y016685D01*
X015473Y016551D01*
X015539Y016485D01*
X015539Y016751D02*
X015606Y016751D01*
X015873Y016485D01*
X015873Y016751D01*
X015873Y015831D02*
X015673Y015831D01*
X015606Y015764D01*
X015673Y015697D01*
X015873Y015697D01*
X015873Y015564D02*
X015606Y015564D01*
X015606Y015631D01*
X015673Y015697D01*
X015673Y015370D02*
X015873Y015370D01*
X015873Y015170D01*
X015806Y015104D01*
X015740Y015170D01*
X015740Y015370D01*
X015673Y015370D02*
X015606Y015304D01*
X015606Y015170D01*
X015673Y014910D02*
X015740Y014910D01*
X015740Y014643D01*
X015806Y014643D02*
X015673Y014643D01*
X015606Y014710D01*
X015606Y014843D01*
X015673Y014910D01*
X015873Y014843D02*
X015873Y014710D01*
X015806Y014643D01*
X015873Y014316D02*
X015473Y014316D01*
X015473Y014183D02*
X015473Y014450D01*
X015123Y014383D02*
X015123Y014249D01*
X015056Y014183D01*
X014923Y014183D01*
X014856Y014249D01*
X014856Y014383D01*
X014923Y014450D01*
X014990Y014450D01*
X014990Y014183D01*
X015056Y013989D02*
X014990Y013923D01*
X014990Y013789D01*
X014923Y013722D01*
X014856Y013789D01*
X014856Y013989D01*
X015056Y013989D02*
X015123Y013923D01*
X015123Y013722D01*
X015056Y013529D02*
X014990Y013462D01*
X014990Y013329D01*
X014923Y013262D01*
X014856Y013329D01*
X014856Y013529D01*
X015056Y013529D02*
X015123Y013462D01*
X015123Y013262D01*
X015123Y013069D02*
X014923Y013069D01*
X014856Y013002D01*
X014856Y012868D01*
X014990Y012868D02*
X014990Y013069D01*
X015123Y013069D02*
X015123Y012868D01*
X015056Y012802D01*
X014990Y012868D01*
X015473Y012935D02*
X015606Y013069D01*
X015873Y013069D01*
X015873Y013262D02*
X015473Y013262D01*
X015473Y013462D01*
X015539Y013529D01*
X015673Y013529D01*
X015740Y013462D01*
X015740Y013262D01*
X015673Y013069D02*
X015673Y012802D01*
X015606Y012802D02*
X015473Y012935D01*
X015606Y012802D02*
X015873Y012802D01*
X015873Y013722D02*
X015473Y013722D01*
X015473Y013923D01*
X015539Y013989D01*
X015606Y013989D01*
X015673Y013923D01*
X015673Y013722D01*
X015873Y013722D02*
X015873Y013923D01*
X015806Y013989D01*
X015740Y013989D01*
X015673Y013923D01*
X015123Y014643D02*
X014856Y014643D01*
X014856Y014777D02*
X014856Y014843D01*
X014856Y014777D02*
X014990Y014643D01*
X014856Y015027D02*
X015123Y015160D01*
X014856Y015294D01*
X014923Y015487D02*
X014923Y015754D01*
X014789Y015947D02*
X014723Y016014D01*
X014723Y016148D01*
X014789Y016214D01*
X014856Y016214D01*
X015123Y015947D01*
X015123Y016214D01*
X018040Y012952D02*
X017973Y012885D01*
X017973Y012618D01*
X018040Y012552D01*
X018173Y012552D01*
X018240Y012618D01*
X018433Y012618D02*
X018500Y012552D01*
X018634Y012552D01*
X018700Y012618D01*
X018700Y012885D01*
X018634Y012952D01*
X018500Y012952D01*
X018433Y012885D01*
X018433Y012618D01*
X018240Y012885D02*
X018173Y012952D01*
X018040Y012952D01*
X018894Y012952D02*
X018894Y012552D01*
X019094Y012552D01*
X019161Y012618D01*
X019161Y012885D01*
X019094Y012952D01*
X018894Y012952D01*
X019354Y012885D02*
X019421Y012952D01*
X019554Y012952D01*
X019621Y012885D01*
X019621Y012819D01*
X019354Y012552D01*
X019621Y012552D01*
X019488Y007452D02*
X019354Y007319D01*
X019488Y007452D02*
X019488Y007052D01*
X019621Y007052D02*
X019354Y007052D01*
X019161Y007118D02*
X019161Y007385D01*
X019094Y007452D01*
X018894Y007452D01*
X018894Y007052D01*
X019094Y007052D01*
X019161Y007118D01*
X018700Y007118D02*
X018700Y007385D01*
X018634Y007452D01*
X018500Y007452D01*
X018433Y007385D01*
X018433Y007118D01*
X018500Y007052D01*
X018634Y007052D01*
X018700Y007118D01*
X018240Y007118D02*
X018173Y007052D01*
X018040Y007052D01*
X017973Y007118D01*
X017973Y007385D01*
X018040Y007452D01*
X018173Y007452D01*
X018240Y007385D01*
X007740Y003635D02*
X007740Y003368D01*
X007673Y003302D01*
X007473Y003302D01*
X007473Y003702D01*
X007673Y003702D01*
X007740Y003635D01*
X006123Y009671D02*
X005723Y009671D01*
X005723Y009871D01*
X005789Y009937D01*
X005923Y009937D01*
X005990Y009871D01*
X005990Y009671D01*
X006123Y010131D02*
X005723Y010131D01*
X005723Y010398D02*
X006123Y010398D01*
X005990Y010264D01*
X006123Y010131D01*
X006123Y010591D02*
X005723Y010591D01*
X005856Y010725D01*
X005723Y010858D01*
X006123Y010858D01*
X006123Y016131D02*
X005723Y016131D01*
X005856Y016264D01*
X005723Y016398D01*
X006123Y016398D01*
X006123Y016591D02*
X005723Y016591D01*
X005723Y016791D01*
X005789Y016858D01*
X005923Y016858D01*
X005990Y016791D01*
X005990Y016591D01*
M02*
