G75*
G70*
%OFA0B0*%
%FSLAX24Y24*%
%IPPOS*%
%LPD*%
%AMOC8*
5,1,8,0,0,1.08239X$1,22.5*
%
%ADD10R,0.0288X0.0918*%
%ADD11OC8,0.0672*%
%ADD12C,0.0672*%
%ADD13C,0.1560*%
%ADD14R,0.0630X0.0236*%
%ADD15R,0.0236X0.0630*%
%ADD16R,0.0472X0.0512*%
%ADD17R,0.0756X0.0836*%
%ADD18R,0.0512X0.0472*%
%ADD19OC8,0.0720*%
%ADD20C,0.0624*%
%ADD21C,0.1559*%
%ADD22R,0.1378X0.1181*%
%ADD23O,0.1320X0.0720*%
%ADD24R,0.0661X0.1291*%
%ADD25R,0.1134X0.0661*%
%ADD26R,0.0836X0.0756*%
%ADD27R,0.1024X0.0945*%
%ADD28R,0.1181X0.1378*%
%ADD29R,0.0852X0.0312*%
%ADD30R,0.0326X0.0444*%
%ADD31O,0.1650X0.0900*%
%ADD32O,0.0672X0.1232*%
%ADD33O,0.1232X0.0672*%
%ADD34O,0.1992X0.1087*%
%ADD35O,0.1087X0.1992*%
%ADD36C,0.0480*%
D10*
X001546Y009459D03*
X002046Y009459D03*
X002546Y009459D03*
X003046Y009459D03*
X003546Y009459D03*
X004046Y009459D03*
X004546Y009459D03*
X005046Y009459D03*
X005546Y009459D03*
X006046Y009459D03*
X006546Y009459D03*
X007046Y009459D03*
X007546Y009459D03*
X008046Y009459D03*
X008046Y013644D03*
X007546Y013644D03*
X007046Y013644D03*
X006546Y013644D03*
X006046Y013644D03*
X005546Y013644D03*
X005046Y013644D03*
X004546Y013644D03*
X004046Y013644D03*
X003546Y013644D03*
X003046Y013644D03*
X002546Y013644D03*
X002046Y013644D03*
X001546Y013644D03*
D11*
X006796Y030802D03*
X006796Y031802D03*
X007796Y031802D03*
X007796Y030802D03*
X008796Y030802D03*
X008796Y031802D03*
X009796Y031802D03*
X009796Y030802D03*
X010796Y030802D03*
X010796Y031802D03*
X013296Y008302D03*
X013296Y007302D03*
X013296Y006302D03*
X014296Y006302D03*
X014296Y007302D03*
X014296Y008302D03*
D12*
X007788Y005832D03*
X007788Y005052D03*
X006804Y005052D03*
X006804Y005832D03*
D13*
X004926Y003982D03*
X009666Y003982D03*
D14*
X009763Y021477D03*
X009763Y021792D03*
X009763Y022107D03*
X009763Y022422D03*
X009763Y022737D03*
X009763Y023052D03*
X009763Y023367D03*
X009763Y023682D03*
X009763Y023997D03*
X009763Y024312D03*
X009763Y024627D03*
X014330Y024627D03*
X014330Y024312D03*
X014330Y023997D03*
X014330Y023682D03*
X014330Y023367D03*
X014330Y023052D03*
X014330Y022737D03*
X014330Y022422D03*
X014330Y022107D03*
X014330Y021792D03*
X014330Y021477D03*
D15*
X013621Y020768D03*
X013306Y020768D03*
X012991Y020768D03*
X012676Y020768D03*
X012361Y020768D03*
X012046Y020768D03*
X011731Y020768D03*
X011416Y020768D03*
X011101Y020768D03*
X010786Y020768D03*
X010471Y020768D03*
X010471Y025335D03*
X010786Y025335D03*
X011101Y025335D03*
X011416Y025335D03*
X011731Y025335D03*
X012046Y025335D03*
X012361Y025335D03*
X012676Y025335D03*
X012991Y025335D03*
X013306Y025335D03*
X013621Y025335D03*
D16*
X013881Y026302D03*
X013212Y026302D03*
X015296Y023137D03*
X015296Y022467D03*
X014881Y020552D03*
X014881Y019552D03*
X014212Y019552D03*
X014212Y020552D03*
X014212Y018552D03*
X014881Y018552D03*
X014881Y017552D03*
X014212Y017552D03*
X012631Y018802D03*
X011962Y018802D03*
X013712Y012052D03*
X014381Y012052D03*
X011631Y007302D03*
X010962Y007302D03*
X010962Y005802D03*
X011631Y005802D03*
X015712Y006802D03*
X016381Y006802D03*
X007131Y014802D03*
X006462Y014802D03*
X003881Y019302D03*
X003212Y019302D03*
X003212Y008302D03*
X003296Y007387D03*
X003296Y006717D03*
X003881Y008302D03*
D17*
X010736Y004802D03*
X011856Y004802D03*
X011736Y027302D03*
X012856Y027302D03*
D18*
X012631Y026302D03*
X011962Y026302D03*
X011962Y019802D03*
X012631Y019802D03*
X015796Y014137D03*
X015796Y013467D03*
X014381Y013052D03*
X013712Y013052D03*
X015712Y007802D03*
X016381Y007802D03*
D19*
X010796Y018802D03*
D20*
X008046Y021602D03*
X008046Y023502D03*
X008246Y007552D03*
X006346Y007552D03*
D21*
X002546Y004552D03*
X002546Y032052D03*
X018046Y004552D03*
D22*
X009296Y010518D03*
X009296Y012585D03*
X015796Y026768D03*
X015796Y028835D03*
D23*
X018296Y021302D03*
X018296Y020302D03*
X018296Y019302D03*
D24*
X018046Y026857D03*
X018046Y028747D03*
D25*
X018603Y009552D03*
X016989Y009552D03*
D26*
X015796Y011492D03*
X015796Y012612D03*
X003546Y017242D03*
X003546Y018362D03*
D27*
X006796Y018642D03*
X006796Y017461D03*
X002046Y008142D03*
X002046Y006961D03*
D28*
X003263Y025302D03*
X005330Y025302D03*
D29*
X005006Y026552D03*
X005006Y027052D03*
X005006Y027552D03*
X005006Y028052D03*
X005006Y028552D03*
X005006Y029052D03*
X005006Y029552D03*
X002586Y029552D03*
X002586Y029052D03*
X002586Y028552D03*
X002586Y028052D03*
X002586Y027552D03*
X002586Y027052D03*
X002586Y026552D03*
X011836Y016802D03*
X011836Y016302D03*
X011836Y015802D03*
X011836Y015302D03*
X011836Y014802D03*
X011836Y014302D03*
X011836Y013802D03*
X014256Y013802D03*
X014256Y014302D03*
X014256Y014802D03*
X014256Y015302D03*
X014256Y015802D03*
X014256Y016302D03*
X014256Y016802D03*
D30*
X013670Y030040D03*
X013670Y031060D03*
X013296Y031060D03*
X012922Y031060D03*
X012922Y030040D03*
D31*
X017296Y013552D03*
X017296Y012052D03*
D32*
X014296Y010302D03*
X013296Y010302D03*
X002796Y022802D03*
X001796Y022802D03*
X004796Y030802D03*
X005796Y030802D03*
D33*
X001796Y025302D03*
X001796Y024302D03*
D34*
X016796Y030331D03*
X016796Y032733D03*
D35*
X014906Y031552D03*
D36*
X013546Y029252D03*
X012546Y028802D03*
X011746Y029452D03*
X012096Y030302D03*
X013796Y027302D03*
X014546Y028602D03*
X016296Y025552D03*
X017296Y023552D03*
X019046Y025552D03*
X016796Y020302D03*
X015696Y017452D03*
X014996Y015502D03*
X015346Y015102D03*
X014796Y012602D03*
X013196Y012252D03*
X012846Y011852D03*
X012146Y013352D03*
X012846Y013752D03*
X013196Y014602D03*
X013396Y015652D03*
X012896Y016952D03*
X012546Y016552D03*
X012996Y018302D03*
X013696Y018702D03*
X013696Y019402D03*
X012996Y019302D03*
X013696Y017402D03*
X012246Y021402D03*
X011796Y022452D03*
X012196Y023052D03*
X011946Y024352D03*
X012446Y024352D03*
X013346Y024352D03*
X014946Y024152D03*
X011546Y024702D03*
X011446Y025952D03*
X011096Y026652D03*
X010846Y025952D03*
X010396Y024052D03*
X010796Y023702D03*
X011046Y021552D03*
X010046Y020652D03*
X009396Y019752D03*
X009546Y018602D03*
X010646Y019652D03*
X010896Y017402D03*
X008896Y015752D03*
X008296Y014752D03*
X007596Y014402D03*
X008396Y013002D03*
X006896Y011152D03*
X006396Y012202D03*
X006196Y012902D03*
X005496Y014752D03*
X006046Y015702D03*
X006446Y015352D03*
X006896Y016202D03*
X007596Y016552D03*
X007696Y017252D03*
X007796Y018402D03*
X006996Y020152D03*
X006296Y021752D03*
X006246Y022802D03*
X006596Y023202D03*
X006596Y024102D03*
X006446Y024802D03*
X005696Y023902D03*
X004796Y022802D03*
X004346Y023202D03*
X003896Y023552D03*
X003046Y023902D03*
X002696Y024402D03*
X001996Y026152D03*
X003296Y028502D03*
X003646Y027302D03*
X004296Y027352D03*
X004296Y028652D03*
X004296Y029452D03*
X003246Y029902D03*
X005296Y032552D03*
X006246Y030102D03*
X006246Y029602D03*
X007146Y028402D03*
X007496Y028002D03*
X008046Y028052D03*
X008846Y027302D03*
X008696Y026302D03*
X008696Y025502D03*
X009396Y025152D03*
X007846Y026302D03*
X006396Y027952D03*
X006046Y027552D03*
X006046Y027052D03*
X004496Y024802D03*
X005146Y022052D03*
X004246Y021802D03*
X003546Y022002D03*
X002396Y019602D03*
X002396Y019102D03*
X002846Y018702D03*
X002446Y017602D03*
X002396Y017102D03*
X002796Y016752D03*
X002396Y016402D03*
X002046Y014802D03*
X002496Y014502D03*
X003096Y014402D03*
X003596Y014402D03*
X004096Y014402D03*
X004346Y014902D03*
X004696Y014402D03*
X005046Y012702D03*
X005046Y010802D03*
X002896Y010202D03*
X001896Y010202D03*
X001696Y011252D03*
X001646Y011952D03*
X002796Y012302D03*
X003396Y016602D03*
X003896Y016602D03*
X004146Y017752D03*
X004996Y016902D03*
X005696Y016502D03*
X005696Y017502D03*
X005696Y018802D03*
X005696Y019302D03*
X004946Y019702D03*
X002246Y020952D03*
X002046Y020052D03*
X008046Y022552D03*
X010796Y014052D03*
X011246Y012252D03*
X011546Y011302D03*
X010796Y009802D03*
X009546Y009702D03*
X008496Y009002D03*
X007296Y008302D03*
X005796Y005402D03*
X004746Y006452D03*
X004896Y006952D03*
X002796Y007202D03*
X001446Y006202D03*
X012146Y009552D03*
X015546Y009552D03*
X018796Y013552D03*
X017296Y017302D03*
X009396Y031352D03*
M02*
