G75*
G70*
%OFA0B0*%
%FSLAX24Y24*%
%IPPOS*%
%LPD*%
%AMOC8*
5,1,8,0,0,1.08239X$1,22.5*
%
%ADD10C,0.0110*%
%ADD11R,0.0591X0.0197*%
%ADD12R,0.0197X0.0591*%
%ADD13OC8,0.0560*%
%ADD14C,0.0560*%
%ADD15C,0.1300*%
%ADD16R,0.0394X0.0433*%
%ADD17R,0.0433X0.0394*%
%ADD18OC8,0.0600*%
%ADD19C,0.0520*%
%ADD20O,0.1200X0.0600*%
%ADD21O,0.1500X0.0750*%
%ADD22O,0.0560X0.1120*%
%ADD23O,0.1120X0.0560*%
%ADD24O,0.1811X0.0906*%
%ADD25O,0.0906X0.1811*%
%ADD26C,0.0160*%
%ADD27C,0.0200*%
%ADD28C,0.0100*%
%ADD29C,0.0400*%
D10*
X001840Y006857D02*
X001840Y007251D01*
X002036Y007447D01*
X002233Y007251D01*
X002233Y006857D01*
X002233Y007152D02*
X001840Y007152D01*
X002484Y007054D02*
X002779Y007054D01*
X002878Y007152D01*
X002878Y007349D01*
X002779Y007447D01*
X002484Y007447D01*
X002484Y006857D01*
X003129Y006857D02*
X003424Y006857D01*
X003522Y006955D01*
X003522Y007054D01*
X003424Y007152D01*
X003129Y007152D01*
X003424Y007152D02*
X003522Y007251D01*
X003522Y007349D01*
X003424Y007447D01*
X003129Y007447D01*
X003129Y006857D01*
X003773Y006955D02*
X004167Y007349D01*
X004167Y006955D01*
X004068Y006857D01*
X003871Y006857D01*
X003773Y006955D01*
X003773Y007349D01*
X003871Y007447D01*
X004068Y007447D01*
X004167Y007349D01*
X004418Y007349D02*
X004516Y007447D01*
X004713Y007447D01*
X004811Y007349D01*
X004811Y007251D01*
X004713Y007152D01*
X004516Y007152D01*
X004418Y007251D01*
X004418Y007349D01*
X004516Y007152D02*
X004418Y007054D01*
X004418Y006955D01*
X004516Y006857D01*
X004713Y006857D01*
X004811Y006955D01*
X004811Y007054D01*
X004713Y007152D01*
D11*
X014251Y016477D03*
X014251Y016792D03*
X014251Y017107D03*
X014251Y017422D03*
X014251Y017737D03*
X014251Y018052D03*
X014251Y018367D03*
X014251Y018682D03*
X014251Y018997D03*
X014251Y019312D03*
X014251Y019627D03*
X018818Y019627D03*
X018818Y019312D03*
X018818Y018997D03*
X018818Y018682D03*
X018818Y018367D03*
X018818Y018052D03*
X018818Y017737D03*
X018818Y017422D03*
X018818Y017107D03*
X018818Y016792D03*
X018818Y016477D03*
D12*
X018109Y015768D03*
X017794Y015768D03*
X017479Y015768D03*
X017164Y015768D03*
X016849Y015768D03*
X016535Y015768D03*
X016220Y015768D03*
X015905Y015768D03*
X015590Y015768D03*
X015275Y015768D03*
X014960Y015768D03*
X014960Y020335D03*
X015275Y020335D03*
X015590Y020335D03*
X015905Y020335D03*
X016220Y020335D03*
X016535Y020335D03*
X016849Y020335D03*
X017164Y020335D03*
X017479Y020335D03*
X017794Y020335D03*
X018109Y020335D03*
D13*
X013785Y030802D03*
X013785Y031802D03*
X012785Y031802D03*
X012785Y030802D03*
X011785Y030802D03*
X011785Y031802D03*
X010785Y031802D03*
X010785Y030802D03*
X009785Y030802D03*
X009785Y031802D03*
X007285Y008302D03*
X007285Y007302D03*
X007285Y006302D03*
X006285Y006302D03*
X006285Y007302D03*
X006285Y008302D03*
D14*
X012792Y005832D03*
X012792Y005052D03*
X013777Y005052D03*
X013777Y005832D03*
D15*
X015655Y003982D03*
X010915Y003982D03*
D16*
X011535Y007217D03*
X011535Y007887D03*
X012950Y007552D03*
X013619Y007552D03*
X015035Y007887D03*
X015035Y007217D03*
X013285Y017717D03*
X013285Y018387D03*
X010785Y022717D03*
X010785Y023387D03*
X007869Y023802D03*
X007869Y022802D03*
X007200Y022802D03*
X007200Y023802D03*
X016785Y028717D03*
X016785Y029387D03*
X017450Y021552D03*
X018119Y021552D03*
D17*
X016869Y021302D03*
X016200Y021302D03*
X013285Y019637D03*
X013285Y018967D03*
X012869Y020802D03*
X012200Y020802D03*
X012200Y024302D03*
X012869Y024302D03*
X012785Y029467D03*
X012785Y030137D03*
X013785Y030137D03*
X013785Y029467D03*
X011785Y029467D03*
X011785Y030137D03*
X010785Y030137D03*
X010785Y029467D03*
X009785Y029467D03*
X009785Y030137D03*
X010785Y032467D03*
X010785Y033137D03*
X011785Y033137D03*
X011785Y032467D03*
X012785Y032467D03*
X012785Y033137D03*
X007869Y021802D03*
X007200Y021802D03*
D18*
X009785Y018802D03*
D19*
X012535Y021602D03*
X012535Y023502D03*
X012335Y007552D03*
X014235Y007552D03*
D20*
X002285Y019302D03*
X002285Y020302D03*
X002285Y021302D03*
D21*
X003285Y013552D03*
X003285Y012052D03*
D22*
X006285Y010302D03*
X007285Y010302D03*
X017785Y022802D03*
X018785Y022802D03*
X015785Y030802D03*
X014785Y030802D03*
D23*
X018785Y025302D03*
X018785Y024302D03*
D24*
X003785Y030331D03*
X003785Y032733D03*
D25*
X005674Y031552D03*
D26*
X001320Y005853D02*
X001265Y005796D01*
X001265Y033322D01*
X003026Y033322D01*
X002699Y032995D01*
X002699Y032781D01*
X003736Y032781D01*
X003736Y032685D01*
X002699Y032685D01*
X002699Y032471D01*
X003070Y032100D01*
X003737Y032100D01*
X003737Y032685D01*
X003833Y032685D01*
X004870Y032685D01*
X004870Y032471D01*
X004499Y032100D01*
X003833Y032100D01*
X003833Y032685D01*
X003833Y032781D01*
X004870Y032781D01*
X004870Y032995D01*
X004543Y033322D01*
X010388Y033322D01*
X010388Y033182D01*
X006480Y033182D01*
X006289Y033182D01*
X006155Y033047D01*
X006155Y032419D01*
X005936Y032637D01*
X005412Y032637D01*
X005042Y032267D01*
X005042Y030837D01*
X005412Y030466D01*
X005936Y030466D01*
X006155Y030685D01*
X006155Y028963D01*
X006110Y028982D01*
X005959Y028982D01*
X005819Y028924D01*
X005712Y028817D01*
X005655Y028677D01*
X005655Y028526D01*
X005655Y025297D01*
X004789Y024432D01*
X004655Y024297D01*
X004655Y017759D01*
X004562Y017667D01*
X004505Y017527D01*
X004505Y017376D01*
X004562Y017237D01*
X004669Y017130D01*
X004809Y017072D01*
X004960Y017072D01*
X005005Y017090D01*
X005005Y015409D01*
X004912Y015317D01*
X004855Y015177D01*
X004855Y015026D01*
X004912Y014887D01*
X005019Y014780D01*
X005155Y014724D01*
X005155Y012907D01*
X005289Y012772D01*
X005405Y012657D01*
X005405Y012526D01*
X005462Y012387D01*
X005569Y012280D01*
X005709Y012222D01*
X005860Y012222D01*
X005955Y012261D01*
X005955Y010947D01*
X005955Y010902D01*
X005825Y010772D01*
X005825Y009831D01*
X006094Y009562D01*
X006475Y009562D01*
X006605Y009691D01*
X006605Y008807D01*
X006739Y008672D01*
X006872Y008540D01*
X006825Y008492D01*
X006825Y008111D01*
X007094Y007842D01*
X007349Y007842D01*
X007289Y007782D01*
X007269Y007762D01*
X007094Y007762D01*
X006825Y007492D01*
X006825Y007111D01*
X006954Y006982D01*
X006789Y006982D01*
X006522Y006715D01*
X006475Y006762D01*
X006094Y006762D01*
X005825Y006492D01*
X005825Y006111D01*
X006094Y005842D01*
X006475Y005842D01*
X006745Y006111D01*
X006745Y006287D01*
X006765Y006307D01*
X006825Y006367D01*
X006825Y006111D01*
X007094Y005842D01*
X007475Y005842D01*
X007745Y006111D01*
X007745Y006172D01*
X010589Y006172D01*
X010780Y006172D01*
X010915Y006307D01*
X010915Y006347D01*
X011205Y006057D01*
X011205Y004760D01*
X011080Y004812D01*
X010749Y004812D01*
X010444Y004686D01*
X010211Y004452D01*
X010085Y004147D01*
X010085Y003817D01*
X010211Y003512D01*
X010441Y003282D01*
X003780Y003282D01*
X003807Y003308D01*
X003807Y003308D01*
X003915Y003429D01*
X004012Y003559D01*
X004012Y003559D01*
X004096Y003697D01*
X004096Y003697D01*
X004167Y003843D01*
X004167Y003843D01*
X004225Y003994D01*
X004225Y003994D01*
X004269Y004150D01*
X004269Y004150D01*
X004298Y004309D01*
X004298Y004310D01*
X004313Y004471D01*
X004313Y004471D01*
X004313Y004633D01*
X004313Y004633D01*
X004298Y004794D01*
X004298Y004794D01*
X004269Y004954D01*
X004269Y004954D01*
X004225Y005110D01*
X004225Y005110D01*
X004167Y005261D01*
X004167Y005261D01*
X004096Y005406D01*
X004096Y005407D01*
X004012Y005545D01*
X004012Y005545D01*
X003915Y005675D01*
X003915Y005675D01*
X003807Y005796D01*
X003807Y005796D01*
X003689Y005907D01*
X003689Y005907D01*
X003561Y006006D01*
X003561Y006006D01*
X003425Y006093D01*
X003425Y006093D01*
X003281Y006168D01*
X003281Y006168D01*
X003131Y006229D01*
X003131Y006229D01*
X002976Y006276D01*
X002976Y006276D01*
X002817Y006309D01*
X002817Y006309D01*
X002656Y006328D01*
X002656Y006328D01*
X002494Y006331D01*
X002494Y006331D01*
X002332Y006320D01*
X002332Y006320D01*
X002172Y006295D01*
X002015Y006254D01*
X001863Y006200D01*
X001716Y006132D01*
X001575Y006051D01*
X001443Y005958D01*
X001320Y005853D01*
X001282Y005814D02*
X001265Y005814D01*
X001265Y005973D02*
X001464Y005973D01*
X001265Y006131D02*
X001714Y006131D01*
X001742Y006622D02*
X001937Y006622D01*
X002036Y006721D01*
X002136Y006622D01*
X002331Y006622D01*
X002359Y006650D01*
X002387Y006622D01*
X002581Y006622D01*
X002719Y006760D01*
X002719Y006819D01*
X002877Y006819D01*
X002894Y006836D01*
X002894Y006760D01*
X003031Y006622D01*
X003521Y006622D01*
X003605Y006706D01*
X003620Y006720D01*
X003620Y006720D01*
X003648Y006748D01*
X003676Y006720D01*
X003774Y006622D01*
X003969Y006622D01*
X004166Y006622D01*
X004249Y006705D01*
X004264Y006720D01*
X004264Y006720D01*
X004292Y006748D01*
X004320Y006720D01*
X004419Y006622D01*
X004613Y006622D01*
X004810Y006622D01*
X004895Y006706D01*
X004909Y006720D01*
X004909Y006720D01*
X004976Y006787D01*
X004977Y006789D01*
X005046Y006858D01*
X005046Y007053D01*
X005046Y007151D01*
X005045Y007152D01*
X005046Y007153D01*
X005046Y007252D01*
X005046Y007446D01*
X004977Y007515D01*
X004932Y007560D01*
X004909Y007584D01*
X004909Y007584D01*
X004891Y007602D01*
X004810Y007682D01*
X004810Y007682D01*
X004616Y007682D01*
X004419Y007682D01*
X004292Y007556D01*
X004264Y007584D01*
X004264Y007584D01*
X004247Y007601D01*
X004166Y007682D01*
X004166Y007682D01*
X003971Y007682D01*
X003774Y007682D01*
X003648Y007556D01*
X003620Y007584D01*
X003620Y007584D01*
X003603Y007601D01*
X003521Y007682D01*
X003521Y007682D01*
X003326Y007682D01*
X003031Y007682D01*
X002954Y007605D01*
X002877Y007682D01*
X002877Y007682D01*
X002682Y007682D01*
X002387Y007682D01*
X002260Y007556D01*
X002134Y007682D01*
X002134Y007682D01*
X001939Y007682D01*
X001801Y007545D01*
X001605Y007348D01*
X001605Y007249D01*
X001605Y007055D01*
X001605Y006760D01*
X001742Y006622D01*
X001605Y006765D02*
X001265Y006765D01*
X001265Y006607D02*
X005939Y006607D01*
X005825Y006448D02*
X001265Y006448D01*
X001265Y006290D02*
X002154Y006290D01*
X002719Y006765D02*
X002894Y006765D01*
X002911Y006290D02*
X005825Y006290D01*
X005825Y006131D02*
X003351Y006131D01*
X003604Y005973D02*
X005963Y005973D01*
X006094Y006842D02*
X005825Y007111D01*
X005825Y007492D01*
X006094Y007762D01*
X006475Y007762D01*
X006745Y007492D01*
X006745Y007111D01*
X006475Y006842D01*
X006094Y006842D01*
X006012Y006924D02*
X005046Y006924D01*
X005046Y007083D02*
X005853Y007083D01*
X005825Y007241D02*
X005046Y007241D01*
X005046Y007400D02*
X005825Y007400D01*
X005890Y007558D02*
X004934Y007558D01*
X004954Y006765D02*
X006573Y006765D01*
X006557Y006924D02*
X006731Y006924D01*
X006716Y007083D02*
X006853Y007083D01*
X006825Y007241D02*
X006745Y007241D01*
X006745Y007400D02*
X006825Y007400D01*
X006890Y007558D02*
X006679Y007558D01*
X006520Y007717D02*
X007049Y007717D01*
X007061Y007875D02*
X006508Y007875D01*
X006475Y007842D02*
X006094Y007842D01*
X005825Y008111D01*
X005825Y008492D01*
X006094Y008762D01*
X006475Y008762D01*
X006745Y008492D01*
X006745Y008111D01*
X006475Y007842D01*
X006667Y008034D02*
X006902Y008034D01*
X006825Y008192D02*
X006745Y008192D01*
X006745Y008351D02*
X006825Y008351D01*
X006842Y008509D02*
X006727Y008509D01*
X006743Y008668D02*
X006569Y008668D01*
X006605Y008827D02*
X001265Y008827D01*
X001265Y008985D02*
X006605Y008985D01*
X006605Y009144D02*
X001265Y009144D01*
X001265Y009302D02*
X006605Y009302D01*
X006605Y009461D02*
X001265Y009461D01*
X001265Y009619D02*
X006037Y009619D01*
X005878Y009778D02*
X001265Y009778D01*
X001265Y009936D02*
X005825Y009936D01*
X005825Y010095D02*
X001265Y010095D01*
X001265Y010253D02*
X005825Y010253D01*
X005825Y010412D02*
X001265Y010412D01*
X001265Y010571D02*
X005825Y010571D01*
X005825Y010729D02*
X001265Y010729D01*
X001265Y010888D02*
X005940Y010888D01*
X005955Y011046D02*
X001265Y011046D01*
X001265Y011205D02*
X005955Y011205D01*
X005955Y011363D02*
X001265Y011363D01*
X001265Y011522D02*
X002655Y011522D01*
X002680Y011497D02*
X002355Y011822D01*
X002355Y012007D01*
X003239Y012007D01*
X003239Y012097D01*
X002355Y012097D01*
X002355Y012282D01*
X002680Y012607D01*
X003240Y012607D01*
X003240Y012097D01*
X003330Y012097D01*
X003330Y012007D01*
X004215Y012007D01*
X004215Y011822D01*
X003889Y011497D01*
X003330Y011497D01*
X003330Y012007D01*
X003240Y012007D01*
X003240Y011497D01*
X002680Y011497D01*
X002496Y011680D02*
X001265Y011680D01*
X001265Y011839D02*
X002355Y011839D01*
X002355Y011997D02*
X001265Y011997D01*
X001265Y012156D02*
X002355Y012156D01*
X002387Y012314D02*
X001265Y012314D01*
X001265Y012473D02*
X002546Y012473D01*
X002680Y012997D02*
X002355Y013322D01*
X002355Y013782D01*
X002680Y014107D01*
X003889Y014107D01*
X004215Y013782D01*
X004215Y013322D01*
X003889Y012997D01*
X002680Y012997D01*
X002569Y013107D02*
X001265Y013107D01*
X001265Y012949D02*
X005155Y012949D01*
X005155Y013107D02*
X004000Y013107D01*
X004158Y013266D02*
X005155Y013266D01*
X005155Y013424D02*
X004215Y013424D01*
X004215Y013583D02*
X005155Y013583D01*
X005155Y013741D02*
X004215Y013741D01*
X004096Y013900D02*
X005155Y013900D01*
X005155Y014058D02*
X003938Y014058D01*
X004861Y015010D02*
X001265Y015010D01*
X001265Y015168D02*
X004855Y015168D01*
X004922Y015327D02*
X001265Y015327D01*
X001265Y015485D02*
X005005Y015485D01*
X005005Y015644D02*
X001265Y015644D01*
X001265Y015802D02*
X005005Y015802D01*
X005005Y015961D02*
X001265Y015961D01*
X001265Y016120D02*
X005005Y016120D01*
X005005Y016278D02*
X001265Y016278D01*
X001265Y016437D02*
X005005Y016437D01*
X005005Y016595D02*
X001265Y016595D01*
X001265Y016754D02*
X005005Y016754D01*
X005005Y016912D02*
X001265Y016912D01*
X001265Y017071D02*
X005005Y017071D01*
X004570Y017229D02*
X001265Y017229D01*
X001265Y017388D02*
X004505Y017388D01*
X004512Y017546D02*
X001265Y017546D01*
X001265Y017705D02*
X004600Y017705D01*
X004655Y017864D02*
X001265Y017864D01*
X001265Y018022D02*
X004655Y018022D01*
X004655Y018181D02*
X001265Y018181D01*
X001265Y018339D02*
X004655Y018339D01*
X004655Y018498D02*
X001265Y018498D01*
X001265Y018656D02*
X004655Y018656D01*
X004655Y018815D02*
X001265Y018815D01*
X001265Y018973D02*
X001634Y018973D01*
X001505Y019103D02*
X001786Y018822D01*
X002783Y018822D01*
X003065Y019103D01*
X003065Y019501D01*
X002783Y019782D01*
X001786Y019782D01*
X001505Y019501D01*
X001505Y019103D01*
X001505Y019132D02*
X001265Y019132D01*
X001265Y019290D02*
X001505Y019290D01*
X001505Y019449D02*
X001265Y019449D01*
X001265Y019607D02*
X001611Y019607D01*
X001770Y019766D02*
X001265Y019766D01*
X001265Y019925D02*
X001683Y019925D01*
X001786Y019822D02*
X001505Y020103D01*
X001505Y020282D01*
X002264Y020282D01*
X002264Y020322D01*
X001505Y020322D01*
X001505Y020501D01*
X001786Y020782D01*
X002265Y020782D01*
X002265Y020322D01*
X002305Y020322D01*
X002305Y020282D01*
X003065Y020282D01*
X003065Y020103D01*
X002783Y019822D01*
X002305Y019822D01*
X002305Y020282D01*
X002265Y020282D01*
X002265Y019822D01*
X001786Y019822D01*
X001525Y020083D02*
X001265Y020083D01*
X001265Y020242D02*
X001505Y020242D01*
X001505Y020400D02*
X001265Y020400D01*
X001265Y020559D02*
X001563Y020559D01*
X001721Y020717D02*
X001265Y020717D01*
X001265Y020876D02*
X001732Y020876D01*
X001786Y020822D02*
X001505Y021103D01*
X001505Y021501D01*
X001786Y021782D01*
X002783Y021782D01*
X003065Y021501D01*
X003065Y021103D01*
X002783Y020822D01*
X001786Y020822D01*
X001573Y021034D02*
X001265Y021034D01*
X001265Y021193D02*
X001505Y021193D01*
X001505Y021351D02*
X001265Y021351D01*
X001265Y021510D02*
X001514Y021510D01*
X001672Y021669D02*
X001265Y021669D01*
X001265Y021827D02*
X004655Y021827D01*
X004655Y021669D02*
X002897Y021669D01*
X003055Y021510D02*
X004655Y021510D01*
X004655Y021351D02*
X003065Y021351D01*
X003065Y021193D02*
X004655Y021193D01*
X004655Y021034D02*
X002996Y021034D01*
X002837Y020876D02*
X004655Y020876D01*
X004655Y020717D02*
X002848Y020717D01*
X002783Y020782D02*
X003065Y020501D01*
X003065Y020322D01*
X002305Y020322D01*
X002305Y020782D01*
X002783Y020782D01*
X003006Y020559D02*
X004655Y020559D01*
X004655Y020400D02*
X003065Y020400D01*
X003065Y020242D02*
X004655Y020242D01*
X004655Y020083D02*
X003045Y020083D01*
X002886Y019925D02*
X004655Y019925D01*
X004655Y019766D02*
X002799Y019766D01*
X002958Y019607D02*
X004655Y019607D01*
X004655Y019449D02*
X003065Y019449D01*
X003065Y019290D02*
X004655Y019290D01*
X004655Y019132D02*
X003065Y019132D01*
X002935Y018973D02*
X004655Y018973D01*
X004655Y021986D02*
X001265Y021986D01*
X001265Y022144D02*
X004655Y022144D01*
X004655Y022303D02*
X001265Y022303D01*
X001265Y022461D02*
X004655Y022461D01*
X004655Y022620D02*
X001265Y022620D01*
X001265Y022778D02*
X004655Y022778D01*
X004655Y022937D02*
X001265Y022937D01*
X001265Y023095D02*
X004655Y023095D01*
X004655Y023254D02*
X001265Y023254D01*
X001265Y023413D02*
X004655Y023413D01*
X004655Y023571D02*
X001265Y023571D01*
X001265Y023730D02*
X004655Y023730D01*
X004655Y023888D02*
X001265Y023888D01*
X001265Y024047D02*
X004655Y024047D01*
X004655Y024205D02*
X001265Y024205D01*
X001265Y024364D02*
X004721Y024364D01*
X004880Y024522D02*
X001265Y024522D01*
X001265Y024681D02*
X005038Y024681D01*
X005197Y024839D02*
X001265Y024839D01*
X001265Y024998D02*
X005355Y024998D01*
X005514Y025156D02*
X001265Y025156D01*
X001265Y025315D02*
X005655Y025315D01*
X005655Y025474D02*
X001265Y025474D01*
X001265Y025632D02*
X005655Y025632D01*
X005655Y025791D02*
X001265Y025791D01*
X001265Y025949D02*
X005655Y025949D01*
X005655Y026108D02*
X001265Y026108D01*
X001265Y026266D02*
X005655Y026266D01*
X005655Y026425D02*
X001265Y026425D01*
X001265Y026583D02*
X005655Y026583D01*
X005655Y026742D02*
X001265Y026742D01*
X001265Y026900D02*
X005655Y026900D01*
X005655Y027059D02*
X001265Y027059D01*
X001265Y027218D02*
X005655Y027218D01*
X005655Y027376D02*
X001265Y027376D01*
X001265Y027535D02*
X005655Y027535D01*
X005655Y027693D02*
X001265Y027693D01*
X001265Y027852D02*
X005655Y027852D01*
X005655Y028010D02*
X001265Y028010D01*
X001265Y028169D02*
X005655Y028169D01*
X005655Y028327D02*
X001265Y028327D01*
X001265Y028486D02*
X005655Y028486D01*
X005655Y028644D02*
X001265Y028644D01*
X001265Y028803D02*
X005707Y028803D01*
X005910Y028962D02*
X001265Y028962D01*
X001265Y029120D02*
X006155Y029120D01*
X006155Y029279D02*
X001265Y029279D01*
X001265Y029437D02*
X006155Y029437D01*
X006155Y029596D02*
X001265Y029596D01*
X001265Y029754D02*
X003014Y029754D01*
X003070Y029699D02*
X002699Y030069D01*
X002699Y030593D01*
X003070Y030964D01*
X004499Y030964D01*
X004870Y030593D01*
X004870Y030069D01*
X004499Y029699D01*
X003070Y029699D01*
X002856Y029913D02*
X001265Y029913D01*
X001265Y030071D02*
X002699Y030071D01*
X002699Y030230D02*
X001265Y030230D01*
X001265Y030388D02*
X002699Y030388D01*
X002699Y030547D02*
X001265Y030547D01*
X001265Y030706D02*
X002811Y030706D01*
X002970Y030864D02*
X001265Y030864D01*
X001265Y031023D02*
X005042Y031023D01*
X005042Y031181D02*
X001265Y031181D01*
X001265Y031340D02*
X005042Y031340D01*
X005042Y031498D02*
X001265Y031498D01*
X001265Y031657D02*
X005042Y031657D01*
X005042Y031815D02*
X001265Y031815D01*
X001265Y031974D02*
X005042Y031974D01*
X005042Y032132D02*
X004532Y032132D01*
X004690Y032291D02*
X005066Y032291D01*
X005224Y032449D02*
X004849Y032449D01*
X004870Y032608D02*
X005383Y032608D01*
X005966Y032608D02*
X006155Y032608D01*
X006155Y032449D02*
X006124Y032449D01*
X006155Y032767D02*
X003833Y032767D01*
X003736Y032767D02*
X001265Y032767D01*
X001265Y032925D02*
X002699Y032925D01*
X002788Y033084D02*
X001265Y033084D01*
X001265Y033242D02*
X002946Y033242D01*
X002699Y032608D02*
X001265Y032608D01*
X001265Y032449D02*
X002720Y032449D01*
X002879Y032291D02*
X001265Y032291D01*
X001265Y032132D02*
X003038Y032132D01*
X003737Y032132D02*
X003833Y032132D01*
X003833Y032291D02*
X003737Y032291D01*
X003737Y032449D02*
X003833Y032449D01*
X003833Y032608D02*
X003737Y032608D01*
X004623Y033242D02*
X010388Y033242D01*
X010388Y032722D02*
X006615Y032722D01*
X006615Y027643D01*
X006709Y027682D01*
X006860Y027682D01*
X007000Y027624D01*
X007107Y027517D01*
X007165Y027377D01*
X007165Y027226D01*
X007107Y027087D01*
X007015Y026994D01*
X007015Y024669D01*
X007019Y024674D01*
X007159Y024732D01*
X007310Y024732D01*
X007450Y024674D01*
X007455Y024669D01*
X007455Y028507D01*
X007089Y028872D01*
X006959Y028872D01*
X006819Y028930D01*
X006712Y029037D01*
X006655Y029176D01*
X006655Y029327D01*
X006712Y029467D01*
X006819Y029574D01*
X006959Y029632D01*
X007110Y029632D01*
X007250Y029574D01*
X007357Y029467D01*
X007415Y029327D01*
X007415Y029197D01*
X007780Y028832D01*
X007915Y028697D01*
X007915Y024669D01*
X007919Y024674D01*
X008059Y024732D01*
X008210Y024732D01*
X008255Y024713D01*
X008255Y029994D01*
X008162Y030087D01*
X008105Y030226D01*
X008105Y030377D01*
X008162Y030517D01*
X008269Y030624D01*
X008409Y030682D01*
X008560Y030682D01*
X008700Y030624D01*
X008807Y030517D01*
X008865Y030377D01*
X008865Y030226D01*
X008807Y030087D01*
X008715Y029994D01*
X008715Y029813D01*
X008759Y029832D01*
X008910Y029832D01*
X009050Y029774D01*
X009157Y029667D01*
X009215Y029527D01*
X009215Y029397D01*
X009230Y029382D01*
X009365Y029247D01*
X009365Y027013D01*
X009409Y027032D01*
X009560Y027032D01*
X009700Y026974D01*
X009807Y026867D01*
X009865Y026727D01*
X009865Y026576D01*
X009807Y026437D01*
X009715Y026344D01*
X009715Y026332D01*
X009810Y026332D01*
X009950Y026274D01*
X010057Y026167D01*
X010115Y026027D01*
X010115Y025876D01*
X010057Y025737D01*
X009950Y025630D01*
X009810Y025572D01*
X009659Y025572D01*
X009519Y025630D01*
X009435Y025714D01*
X009350Y025630D01*
X009210Y025572D01*
X009059Y025572D01*
X008919Y025630D01*
X008812Y025737D01*
X008755Y025876D01*
X008755Y026027D01*
X008812Y026167D01*
X008905Y026259D01*
X008905Y029057D01*
X008889Y029072D01*
X008759Y029072D01*
X008715Y029090D01*
X008715Y024730D01*
X008850Y024674D01*
X008957Y024567D01*
X009015Y024427D01*
X009015Y024276D01*
X008957Y024137D01*
X008850Y024030D01*
X008710Y023972D01*
X008559Y023972D01*
X008419Y024030D01*
X008385Y024064D01*
X008365Y024044D01*
X008365Y024007D01*
X008246Y023888D01*
X009450Y023888D01*
X009462Y023917D02*
X009569Y024024D01*
X009709Y024082D01*
X009805Y024082D01*
X009805Y024127D01*
X009862Y024267D01*
X009969Y024374D01*
X010109Y024432D01*
X010260Y024432D01*
X010400Y024374D01*
X010507Y024267D01*
X010565Y024127D01*
X010565Y023997D01*
X010730Y023832D01*
X010779Y023783D01*
X011056Y023783D01*
X011105Y023734D01*
X011105Y024774D01*
X010969Y024830D01*
X010862Y024937D01*
X010805Y025076D01*
X010805Y025227D01*
X010862Y025367D01*
X010969Y025474D01*
X011105Y025530D01*
X011105Y027857D01*
X009871Y029090D01*
X009493Y029090D01*
X009388Y029196D01*
X009388Y029739D01*
X009451Y029802D01*
X009388Y029865D01*
X009388Y030408D01*
X009458Y030478D01*
X009325Y030611D01*
X009325Y030992D01*
X009594Y031262D01*
X009975Y031262D01*
X010245Y030992D01*
X010245Y030611D01*
X010111Y030478D01*
X010181Y030408D01*
X010181Y029865D01*
X010118Y029802D01*
X010181Y029739D01*
X010181Y029431D01*
X010215Y029397D01*
X010388Y029224D01*
X010388Y029739D01*
X010451Y029802D01*
X010388Y029865D01*
X010388Y030408D01*
X010458Y030478D01*
X010325Y030611D01*
X010325Y030992D01*
X010594Y031262D01*
X010811Y031262D01*
X010805Y031276D01*
X010805Y031342D01*
X010594Y031342D01*
X010325Y031611D01*
X010325Y031992D01*
X010458Y032126D01*
X010388Y032196D01*
X010388Y032722D01*
X010388Y032608D02*
X006615Y032608D01*
X006615Y032449D02*
X010388Y032449D01*
X010388Y032291D02*
X006615Y032291D01*
X006615Y032132D02*
X009465Y032132D01*
X009594Y032262D02*
X009325Y031992D01*
X009325Y031812D01*
X009774Y031812D01*
X009774Y031792D01*
X009325Y031792D01*
X009325Y031611D01*
X009594Y031342D01*
X009775Y031342D01*
X009775Y031792D01*
X009795Y031792D01*
X010245Y031792D01*
X010245Y031611D01*
X009975Y031342D01*
X009795Y031342D01*
X009795Y031792D01*
X009795Y031812D01*
X010245Y031812D01*
X010245Y031992D01*
X009975Y032262D01*
X009795Y032262D01*
X009795Y031812D01*
X009775Y031812D01*
X009775Y032262D01*
X009594Y032262D01*
X009775Y032132D02*
X009795Y032132D01*
X009795Y031974D02*
X009775Y031974D01*
X009775Y031815D02*
X009795Y031815D01*
X009795Y031657D02*
X009775Y031657D01*
X009775Y031498D02*
X009795Y031498D01*
X010056Y031181D02*
X010513Y031181D01*
X010355Y031023D02*
X010214Y031023D01*
X010245Y030864D02*
X010325Y030864D01*
X010325Y030706D02*
X010245Y030706D01*
X010180Y030547D02*
X010389Y030547D01*
X010388Y030388D02*
X010181Y030388D01*
X010181Y030230D02*
X010388Y030230D01*
X010388Y030071D02*
X010181Y030071D01*
X010181Y029913D02*
X010388Y029913D01*
X010404Y029754D02*
X010165Y029754D01*
X010181Y029596D02*
X010388Y029596D01*
X010388Y029437D02*
X010181Y029437D01*
X010215Y029397D02*
X010215Y029397D01*
X010333Y029279D02*
X010388Y029279D01*
X010158Y028803D02*
X009365Y028803D01*
X009365Y028962D02*
X010000Y028962D01*
X010317Y028644D02*
X009365Y028644D01*
X009365Y028486D02*
X010475Y028486D01*
X010634Y028327D02*
X009365Y028327D01*
X009365Y028169D02*
X010792Y028169D01*
X010951Y028010D02*
X009365Y028010D01*
X009365Y027852D02*
X011105Y027852D01*
X011105Y027693D02*
X009365Y027693D01*
X009365Y027535D02*
X011105Y027535D01*
X011105Y027376D02*
X009365Y027376D01*
X009365Y027218D02*
X011105Y027218D01*
X011105Y027059D02*
X009365Y027059D01*
X009773Y026900D02*
X011105Y026900D01*
X011105Y026742D02*
X009859Y026742D01*
X009865Y026583D02*
X011105Y026583D01*
X011105Y026425D02*
X009795Y026425D01*
X009958Y026266D02*
X011105Y026266D01*
X011105Y026108D02*
X010081Y026108D01*
X010115Y025949D02*
X011105Y025949D01*
X011105Y025791D02*
X010079Y025791D01*
X009952Y025632D02*
X011105Y025632D01*
X010969Y025474D02*
X008715Y025474D01*
X008715Y025632D02*
X008917Y025632D01*
X008790Y025791D02*
X008715Y025791D01*
X008715Y025949D02*
X008755Y025949D01*
X008788Y026108D02*
X008715Y026108D01*
X008715Y026266D02*
X008905Y026266D01*
X008905Y026425D02*
X008715Y026425D01*
X008715Y026583D02*
X008905Y026583D01*
X008905Y026742D02*
X008715Y026742D01*
X008715Y026900D02*
X008905Y026900D01*
X008905Y027059D02*
X008715Y027059D01*
X008715Y027218D02*
X008905Y027218D01*
X008905Y027376D02*
X008715Y027376D01*
X008715Y027535D02*
X008905Y027535D01*
X008905Y027693D02*
X008715Y027693D01*
X008715Y027852D02*
X008905Y027852D01*
X008905Y028010D02*
X008715Y028010D01*
X008715Y028169D02*
X008905Y028169D01*
X008905Y028327D02*
X008715Y028327D01*
X008715Y028486D02*
X008905Y028486D01*
X008905Y028644D02*
X008715Y028644D01*
X008715Y028803D02*
X008905Y028803D01*
X008905Y028962D02*
X008715Y028962D01*
X008255Y028962D02*
X007650Y028962D01*
X007492Y029120D02*
X008255Y029120D01*
X008255Y029279D02*
X007415Y029279D01*
X007369Y029437D02*
X008255Y029437D01*
X008255Y029596D02*
X007197Y029596D01*
X006872Y029596D02*
X006615Y029596D01*
X006615Y029754D02*
X008255Y029754D01*
X008255Y029913D02*
X006615Y029913D01*
X006615Y030071D02*
X008178Y030071D01*
X008105Y030230D02*
X006615Y030230D01*
X006615Y030388D02*
X008109Y030388D01*
X008192Y030547D02*
X006615Y030547D01*
X006615Y030706D02*
X009325Y030706D01*
X009325Y030864D02*
X006615Y030864D01*
X006615Y031023D02*
X009355Y031023D01*
X009513Y031181D02*
X006615Y031181D01*
X006615Y031340D02*
X010805Y031340D01*
X010438Y031498D02*
X010131Y031498D01*
X010245Y031657D02*
X010325Y031657D01*
X010325Y031815D02*
X010245Y031815D01*
X010245Y031974D02*
X010325Y031974D01*
X010451Y032132D02*
X010105Y032132D01*
X009325Y031974D02*
X006615Y031974D01*
X006615Y031815D02*
X009325Y031815D01*
X009325Y031657D02*
X006615Y031657D01*
X006615Y031498D02*
X009438Y031498D01*
X009389Y030547D02*
X008777Y030547D01*
X008860Y030388D02*
X009388Y030388D01*
X009388Y030230D02*
X008865Y030230D01*
X008791Y030071D02*
X009388Y030071D01*
X009388Y029913D02*
X008715Y029913D01*
X009070Y029754D02*
X009404Y029754D01*
X009388Y029596D02*
X009186Y029596D01*
X009215Y029437D02*
X009388Y029437D01*
X009388Y029279D02*
X009333Y029279D01*
X009365Y029120D02*
X009464Y029120D01*
X008255Y028803D02*
X007809Y028803D01*
X007915Y028644D02*
X008255Y028644D01*
X008255Y028486D02*
X007915Y028486D01*
X007915Y028327D02*
X008255Y028327D01*
X008255Y028169D02*
X007915Y028169D01*
X007915Y028010D02*
X008255Y028010D01*
X008255Y027852D02*
X007915Y027852D01*
X007915Y027693D02*
X008255Y027693D01*
X008255Y027535D02*
X007915Y027535D01*
X007915Y027376D02*
X008255Y027376D01*
X008255Y027218D02*
X007915Y027218D01*
X007915Y027059D02*
X008255Y027059D01*
X008255Y026900D02*
X007915Y026900D01*
X007915Y026742D02*
X008255Y026742D01*
X008255Y026583D02*
X007915Y026583D01*
X007915Y026425D02*
X008255Y026425D01*
X008255Y026266D02*
X007915Y026266D01*
X007915Y026108D02*
X008255Y026108D01*
X008255Y025949D02*
X007915Y025949D01*
X007915Y025791D02*
X008255Y025791D01*
X008255Y025632D02*
X007915Y025632D01*
X007915Y025474D02*
X008255Y025474D01*
X008255Y025315D02*
X007915Y025315D01*
X007915Y025156D02*
X008255Y025156D01*
X008255Y024998D02*
X007915Y024998D01*
X007915Y024839D02*
X008255Y024839D01*
X007936Y024681D02*
X007915Y024681D01*
X007455Y024681D02*
X007433Y024681D01*
X007455Y024839D02*
X007015Y024839D01*
X007015Y024681D02*
X007036Y024681D01*
X007015Y024998D02*
X007455Y024998D01*
X007455Y025156D02*
X007015Y025156D01*
X007015Y025315D02*
X007455Y025315D01*
X007455Y025474D02*
X007015Y025474D01*
X007015Y025632D02*
X007455Y025632D01*
X007455Y025791D02*
X007015Y025791D01*
X007015Y025949D02*
X007455Y025949D01*
X007455Y026108D02*
X007015Y026108D01*
X007015Y026266D02*
X007455Y026266D01*
X007455Y026425D02*
X007015Y026425D01*
X007015Y026583D02*
X007455Y026583D01*
X007455Y026742D02*
X007015Y026742D01*
X007015Y026900D02*
X007455Y026900D01*
X007455Y027059D02*
X007079Y027059D01*
X007161Y027218D02*
X007455Y027218D01*
X007455Y027376D02*
X007165Y027376D01*
X007089Y027535D02*
X007455Y027535D01*
X007455Y027693D02*
X006615Y027693D01*
X006615Y027852D02*
X007455Y027852D01*
X007455Y028010D02*
X006615Y028010D01*
X006615Y028169D02*
X007455Y028169D01*
X007455Y028327D02*
X006615Y028327D01*
X006615Y028486D02*
X007455Y028486D01*
X007317Y028644D02*
X006615Y028644D01*
X006615Y028803D02*
X007158Y028803D01*
X006787Y028962D02*
X006615Y028962D01*
X006615Y029120D02*
X006678Y029120D01*
X006655Y029279D02*
X006615Y029279D01*
X006615Y029437D02*
X006700Y029437D01*
X006155Y029754D02*
X004555Y029754D01*
X004714Y029913D02*
X006155Y029913D01*
X006155Y030071D02*
X004870Y030071D01*
X004870Y030230D02*
X006155Y030230D01*
X006155Y030388D02*
X004870Y030388D01*
X004870Y030547D02*
X005332Y030547D01*
X005173Y030706D02*
X004758Y030706D01*
X004599Y030864D02*
X005042Y030864D01*
X006017Y030547D02*
X006155Y030547D01*
X006155Y032925D02*
X004870Y032925D01*
X004781Y033084D02*
X006191Y033084D01*
X009352Y025632D02*
X009517Y025632D01*
X008975Y024522D02*
X011105Y024522D01*
X011105Y024364D02*
X010410Y024364D01*
X010532Y024205D02*
X011105Y024205D01*
X011105Y024047D02*
X010565Y024047D01*
X010673Y023888D02*
X011105Y023888D01*
X010730Y023832D02*
X010730Y023832D01*
X010408Y023504D02*
X010408Y023095D01*
X009503Y023095D01*
X009365Y022957D02*
X009730Y023322D01*
X009860Y023322D01*
X010000Y023380D01*
X010107Y023487D01*
X010165Y023626D01*
X010165Y023672D01*
X010239Y023672D01*
X010408Y023504D01*
X010408Y023413D02*
X010033Y023413D01*
X010142Y023571D02*
X010340Y023571D01*
X010408Y023254D02*
X009662Y023254D01*
X009365Y022957D02*
X009365Y019407D01*
X009555Y019597D01*
X009555Y019727D01*
X009612Y019867D01*
X009719Y019974D01*
X009859Y020032D01*
X010010Y020032D01*
X010150Y019974D01*
X010155Y019969D01*
X010155Y020407D01*
X010155Y020597D01*
X010155Y020727D01*
X010212Y020867D01*
X010319Y020974D01*
X010459Y021032D01*
X010610Y021032D01*
X010750Y020974D01*
X010857Y020867D01*
X010915Y020727D01*
X010915Y020576D01*
X010857Y020437D01*
X010750Y020330D01*
X010615Y020274D01*
X010615Y019007D01*
X011017Y019410D01*
X010969Y019430D01*
X010862Y019537D01*
X010805Y019676D01*
X010805Y019827D01*
X010862Y019967D01*
X010969Y020074D01*
X011105Y020130D01*
X011105Y022369D01*
X011056Y022321D01*
X010803Y022321D01*
X010803Y022699D01*
X010766Y022699D01*
X010766Y022736D01*
X010408Y022736D01*
X010408Y023008D01*
X010451Y023052D01*
X010408Y023095D01*
X010408Y022937D02*
X009365Y022937D01*
X009365Y022778D02*
X010408Y022778D01*
X010408Y022699D02*
X010766Y022699D01*
X010766Y022321D01*
X010513Y022321D01*
X010408Y022426D01*
X010408Y022699D01*
X010408Y022620D02*
X009365Y022620D01*
X009365Y022461D02*
X010408Y022461D01*
X010766Y022461D02*
X010803Y022461D01*
X010803Y022620D02*
X010766Y022620D01*
X011105Y022303D02*
X009365Y022303D01*
X009365Y022144D02*
X011105Y022144D01*
X011105Y021986D02*
X009365Y021986D01*
X009365Y021827D02*
X011105Y021827D01*
X011105Y021669D02*
X009365Y021669D01*
X009365Y021510D02*
X011105Y021510D01*
X011105Y021351D02*
X009365Y021351D01*
X009365Y021193D02*
X011105Y021193D01*
X011105Y021034D02*
X009365Y021034D01*
X009365Y020876D02*
X010221Y020876D01*
X010155Y020717D02*
X009365Y020717D01*
X009365Y020559D02*
X010155Y020559D01*
X010155Y020400D02*
X009365Y020400D01*
X009365Y020242D02*
X010155Y020242D01*
X010155Y020083D02*
X009365Y020083D01*
X009365Y019925D02*
X009670Y019925D01*
X009571Y019766D02*
X009365Y019766D01*
X009365Y019607D02*
X009555Y019607D01*
X009406Y019449D02*
X009365Y019449D01*
X010355Y017747D02*
X010065Y017457D01*
X010065Y017326D01*
X010007Y017187D01*
X009900Y017080D01*
X009760Y017022D01*
X009609Y017022D01*
X009565Y017040D01*
X009565Y012559D01*
X009657Y012467D01*
X009715Y012327D01*
X009715Y012176D01*
X009657Y012037D01*
X009550Y011930D01*
X009410Y011872D01*
X009259Y011872D01*
X009119Y011930D01*
X009012Y012037D01*
X008993Y012085D01*
X008665Y011757D01*
X008665Y010257D01*
X008689Y010282D01*
X010355Y011947D01*
X010355Y017747D01*
X010355Y017705D02*
X010313Y017705D01*
X010355Y017546D02*
X010154Y017546D01*
X010065Y017388D02*
X010355Y017388D01*
X010355Y017229D02*
X010024Y017229D01*
X009878Y017071D02*
X010355Y017071D01*
X010355Y016912D02*
X009565Y016912D01*
X009565Y016754D02*
X010355Y016754D01*
X010355Y016595D02*
X009565Y016595D01*
X009565Y016437D02*
X010355Y016437D01*
X010355Y016278D02*
X009565Y016278D01*
X009565Y016120D02*
X010355Y016120D01*
X010355Y015961D02*
X009565Y015961D01*
X009565Y015802D02*
X010355Y015802D01*
X010355Y015644D02*
X009565Y015644D01*
X009565Y015485D02*
X010355Y015485D01*
X010355Y015327D02*
X009565Y015327D01*
X009565Y015168D02*
X010355Y015168D01*
X010355Y015010D02*
X009565Y015010D01*
X009565Y014851D02*
X010355Y014851D01*
X010355Y014693D02*
X009565Y014693D01*
X009565Y014534D02*
X010355Y014534D01*
X010355Y014376D02*
X009565Y014376D01*
X009565Y014217D02*
X010355Y014217D01*
X010355Y014058D02*
X009565Y014058D01*
X009565Y013900D02*
X010355Y013900D01*
X010355Y013741D02*
X009565Y013741D01*
X009565Y013583D02*
X010355Y013583D01*
X010355Y013424D02*
X009565Y013424D01*
X009565Y013266D02*
X010355Y013266D01*
X010355Y013107D02*
X009565Y013107D01*
X009565Y012949D02*
X010355Y012949D01*
X010355Y012790D02*
X009565Y012790D01*
X009565Y012632D02*
X010355Y012632D01*
X010355Y012473D02*
X009651Y012473D01*
X009715Y012314D02*
X010355Y012314D01*
X010355Y012156D02*
X009706Y012156D01*
X009617Y011997D02*
X010355Y011997D01*
X010246Y011839D02*
X008747Y011839D01*
X008665Y011680D02*
X010088Y011680D01*
X009929Y011522D02*
X008665Y011522D01*
X008665Y011363D02*
X009771Y011363D01*
X009612Y011205D02*
X008665Y011205D01*
X008665Y011046D02*
X009454Y011046D01*
X009295Y010888D02*
X008665Y010888D01*
X008665Y010729D02*
X009136Y010729D01*
X008978Y010571D02*
X008665Y010571D01*
X008665Y010412D02*
X008819Y010412D01*
X009015Y009957D02*
X009015Y007447D01*
X009015Y007257D01*
X008415Y006657D01*
X008390Y006632D01*
X010455Y006632D01*
X010455Y011397D01*
X009015Y009957D01*
X009015Y009936D02*
X010455Y009936D01*
X010455Y009778D02*
X009015Y009778D01*
X009015Y009619D02*
X010455Y009619D01*
X010455Y009461D02*
X009015Y009461D01*
X009015Y009302D02*
X010455Y009302D01*
X010455Y009144D02*
X009015Y009144D01*
X009015Y008985D02*
X010455Y008985D01*
X010455Y008827D02*
X009015Y008827D01*
X009015Y008668D02*
X010455Y008668D01*
X010455Y008509D02*
X009015Y008509D01*
X009015Y008351D02*
X010455Y008351D01*
X010455Y008192D02*
X009015Y008192D01*
X009015Y008034D02*
X010455Y008034D01*
X010455Y007875D02*
X009015Y007875D01*
X009015Y007717D02*
X010455Y007717D01*
X010455Y007558D02*
X009015Y007558D01*
X009015Y007400D02*
X010455Y007400D01*
X010455Y007241D02*
X008999Y007241D01*
X008840Y007083D02*
X010455Y007083D01*
X010455Y006924D02*
X008682Y006924D01*
X008523Y006765D02*
X010455Y006765D01*
X010898Y006290D02*
X010971Y006290D01*
X011130Y006131D02*
X007745Y006131D01*
X007606Y005973D02*
X011205Y005973D01*
X011205Y005814D02*
X003788Y005814D01*
X003930Y005656D02*
X011205Y005656D01*
X011205Y005497D02*
X004041Y005497D01*
X004129Y005339D02*
X011205Y005339D01*
X011205Y005180D02*
X004198Y005180D01*
X004250Y005021D02*
X011205Y005021D01*
X011205Y004863D02*
X004285Y004863D01*
X004306Y004704D02*
X010490Y004704D01*
X010305Y004546D02*
X004313Y004546D01*
X004305Y004387D02*
X010184Y004387D01*
X010118Y004229D02*
X004283Y004229D01*
X004246Y004070D02*
X010085Y004070D01*
X010085Y003912D02*
X004193Y003912D01*
X004123Y003753D02*
X010111Y003753D01*
X010177Y003595D02*
X004034Y003595D01*
X003921Y003436D02*
X010287Y003436D01*
X011388Y003282D02*
X015181Y003282D01*
X014951Y003512D01*
X014825Y003817D01*
X014825Y004147D01*
X014951Y004452D01*
X015184Y004686D01*
X015489Y004812D01*
X015820Y004812D01*
X016125Y004686D01*
X016255Y004555D01*
X016262Y004714D01*
X016284Y004874D01*
X016284Y004874D01*
X016321Y005032D01*
X016371Y005186D01*
X016436Y005335D01*
X016514Y005477D01*
X016604Y005611D01*
X016604Y005611D01*
X016706Y005737D01*
X016706Y005737D01*
X016706Y005737D01*
X016820Y005853D01*
X016943Y005958D01*
X017075Y006051D01*
X017216Y006132D01*
X017363Y006200D01*
X017424Y006222D01*
X016142Y006222D01*
X016050Y006130D01*
X015910Y006072D01*
X015759Y006072D01*
X015619Y006130D01*
X015512Y006237D01*
X015455Y006376D01*
X015455Y006527D01*
X015493Y006620D01*
X015469Y006630D01*
X015362Y006737D01*
X015321Y006836D01*
X015306Y006821D01*
X014763Y006821D01*
X014658Y006926D01*
X014658Y007222D01*
X014580Y007222D01*
X014527Y007222D01*
X014484Y007179D01*
X014322Y007112D01*
X014147Y007112D01*
X013985Y007179D01*
X013950Y007214D01*
X013891Y007155D01*
X013348Y007155D01*
X013285Y007219D01*
X013221Y007155D01*
X012679Y007155D01*
X012619Y007214D01*
X012584Y007179D01*
X012422Y007112D01*
X012247Y007112D01*
X012085Y007179D01*
X012042Y007222D01*
X011989Y007222D01*
X011911Y007222D01*
X011911Y006926D01*
X011806Y006821D01*
X011263Y006821D01*
X011215Y006869D01*
X011215Y006697D01*
X011665Y006247D01*
X011665Y006057D01*
X011665Y004832D01*
X012386Y004832D01*
X012332Y004960D01*
X012332Y005042D01*
X012782Y005042D01*
X012782Y005062D01*
X012332Y005062D01*
X012332Y005143D01*
X012402Y005312D01*
X012532Y005442D01*
X012532Y005442D01*
X012532Y005442D01*
X012402Y005571D01*
X012332Y005740D01*
X012332Y005923D01*
X012402Y006092D01*
X012532Y006222D01*
X012701Y006292D01*
X012884Y006292D01*
X013053Y006222D01*
X013182Y006092D01*
X013252Y005923D01*
X013252Y005740D01*
X013214Y005648D01*
X013330Y005532D01*
X013465Y005397D01*
X013465Y005390D01*
X013516Y005442D01*
X013387Y005571D01*
X013317Y005740D01*
X013317Y005923D01*
X013387Y006092D01*
X013516Y006222D01*
X013685Y006292D01*
X013868Y006292D01*
X014037Y006222D01*
X014167Y006092D01*
X014237Y005923D01*
X014237Y005740D01*
X014167Y005571D01*
X014037Y005442D01*
X014037Y005442D01*
X014037Y005442D01*
X014167Y005312D01*
X014237Y005143D01*
X014237Y004960D01*
X014167Y004791D01*
X014037Y004662D01*
X013868Y004592D01*
X013685Y004592D01*
X013516Y004662D01*
X013443Y004735D01*
X013215Y004507D01*
X013080Y004372D01*
X011651Y004372D01*
X011745Y004147D01*
X011745Y003817D01*
X011618Y003512D01*
X011388Y003282D01*
X011543Y003436D02*
X015027Y003436D01*
X014917Y003595D02*
X011653Y003595D01*
X011718Y003753D02*
X014851Y003753D01*
X014825Y003912D02*
X011745Y003912D01*
X011745Y004070D02*
X014825Y004070D01*
X014858Y004229D02*
X011711Y004229D01*
X011665Y004863D02*
X012373Y004863D01*
X012332Y005021D02*
X011665Y005021D01*
X011665Y005180D02*
X012348Y005180D01*
X012429Y005339D02*
X011665Y005339D01*
X011665Y005497D02*
X012477Y005497D01*
X012368Y005656D02*
X011665Y005656D01*
X011665Y005814D02*
X012332Y005814D01*
X012353Y005973D02*
X011665Y005973D01*
X011665Y006131D02*
X012441Y006131D01*
X012696Y006290D02*
X011622Y006290D01*
X011463Y006448D02*
X015455Y006448D01*
X015490Y006290D02*
X013873Y006290D01*
X013680Y006290D02*
X012889Y006290D01*
X013144Y006131D02*
X013426Y006131D01*
X013337Y005973D02*
X013232Y005973D01*
X013252Y005814D02*
X013317Y005814D01*
X013352Y005656D02*
X013217Y005656D01*
X013365Y005497D02*
X013461Y005497D01*
X013516Y005442D02*
X013516Y005442D01*
X013516Y005442D01*
X013474Y004704D02*
X013412Y004704D01*
X013254Y004546D02*
X015045Y004546D01*
X014924Y004387D02*
X013095Y004387D01*
X014080Y004704D02*
X015230Y004704D01*
X014237Y005021D02*
X016318Y005021D01*
X016321Y005032D02*
X016321Y005032D01*
X016369Y005180D02*
X014221Y005180D01*
X014140Y005339D02*
X016438Y005339D01*
X016436Y005335D02*
X016436Y005335D01*
X016514Y005477D02*
X016514Y005477D01*
X016527Y005497D02*
X014092Y005497D01*
X014202Y005656D02*
X016640Y005656D01*
X016782Y005814D02*
X014237Y005814D01*
X014216Y005973D02*
X016964Y005973D01*
X017214Y006131D02*
X016051Y006131D01*
X015618Y006131D02*
X014128Y006131D01*
X014660Y006924D02*
X011909Y006924D01*
X011911Y007083D02*
X014658Y007083D01*
X014658Y007682D02*
X014658Y007868D01*
X015016Y007868D01*
X015016Y007905D01*
X014658Y007905D01*
X014658Y008178D01*
X014763Y008283D01*
X015016Y008283D01*
X015016Y007905D01*
X015053Y007905D01*
X015053Y008283D01*
X015306Y008283D01*
X015411Y008178D01*
X015411Y007905D01*
X015053Y007905D01*
X015053Y007868D01*
X015411Y007868D01*
X015411Y007595D01*
X015368Y007552D01*
X015411Y007508D01*
X015411Y007216D01*
X015455Y007259D01*
X015455Y008797D01*
X015589Y008932D01*
X018555Y011897D01*
X018555Y012027D01*
X018612Y012167D01*
X018719Y012274D01*
X018859Y012332D01*
X019010Y012332D01*
X019055Y012313D01*
X019055Y016199D01*
X018765Y016199D01*
X018765Y015109D01*
X018857Y015017D01*
X018915Y014877D01*
X018915Y014726D01*
X018857Y014587D01*
X018750Y014480D01*
X018610Y014422D01*
X018463Y014422D01*
X018407Y014287D01*
X018300Y014180D01*
X018160Y014122D01*
X018009Y014122D01*
X017869Y014180D01*
X017823Y014226D01*
X017807Y014187D01*
X017700Y014080D01*
X017560Y014022D01*
X017409Y014022D01*
X017269Y014080D01*
X017235Y014114D01*
X017200Y014080D01*
X017060Y014022D01*
X016909Y014022D01*
X016769Y014080D01*
X016735Y014114D01*
X016700Y014080D01*
X016560Y014022D01*
X016409Y014022D01*
X016269Y014080D01*
X016185Y014164D01*
X016100Y014080D01*
X015960Y014022D01*
X015809Y014022D01*
X015765Y014040D01*
X015765Y013009D01*
X015857Y012917D01*
X015915Y012777D01*
X015915Y012626D01*
X015857Y012487D01*
X015750Y012380D01*
X015610Y012322D01*
X015459Y012322D01*
X015319Y012380D01*
X015212Y012487D01*
X015165Y012602D01*
X015165Y012497D01*
X015165Y012307D01*
X014065Y011207D01*
X014065Y011076D01*
X014007Y010937D01*
X013900Y010830D01*
X013760Y010772D01*
X013609Y010772D01*
X013565Y010790D01*
X013565Y010347D01*
X013565Y010157D01*
X012465Y009057D01*
X012465Y008926D01*
X012407Y008787D01*
X012300Y008680D01*
X012160Y008622D01*
X012009Y008622D01*
X011869Y008680D01*
X011762Y008787D01*
X011705Y008926D01*
X011705Y009077D01*
X011762Y009217D01*
X011869Y009324D01*
X012009Y009382D01*
X012139Y009382D01*
X013105Y010347D01*
X013105Y014040D01*
X013060Y014022D01*
X012909Y014022D01*
X012769Y014080D01*
X012662Y014187D01*
X012605Y014326D01*
X012605Y014477D01*
X012662Y014617D01*
X012755Y014709D01*
X012755Y016244D01*
X012665Y016335D01*
X012665Y014827D01*
X012665Y014676D01*
X012607Y014537D01*
X012500Y014430D01*
X012360Y014372D01*
X012209Y014372D01*
X012069Y014430D01*
X011965Y014535D01*
X011965Y013547D01*
X012130Y013382D01*
X012260Y013382D01*
X012400Y013324D01*
X012507Y013217D01*
X012565Y013077D01*
X012565Y012926D01*
X012507Y012787D01*
X012400Y012680D01*
X012260Y012622D01*
X012109Y012622D01*
X011969Y012680D01*
X011862Y012787D01*
X011805Y012926D01*
X011805Y013057D01*
X011505Y013357D01*
X011505Y013547D01*
X011505Y015415D01*
X011469Y015430D01*
X011465Y015435D01*
X011465Y010047D01*
X011465Y009857D01*
X011406Y009798D01*
X011415Y009777D01*
X011415Y009626D01*
X011357Y009487D01*
X011250Y009380D01*
X011215Y009365D01*
X011215Y008234D01*
X011263Y008283D01*
X011516Y008283D01*
X011516Y007905D01*
X011553Y007905D01*
X011553Y008283D01*
X011806Y008283D01*
X011911Y008178D01*
X011911Y007905D01*
X011553Y007905D01*
X011553Y007868D01*
X011911Y007868D01*
X011911Y007682D01*
X011912Y007682D01*
X011962Y007801D01*
X012085Y007925D01*
X012247Y007992D01*
X012422Y007992D01*
X012584Y007925D01*
X012619Y007889D01*
X012679Y007948D01*
X013221Y007948D01*
X013285Y007885D01*
X013348Y007948D01*
X013891Y007948D01*
X013950Y007889D01*
X013985Y007925D01*
X014147Y007992D01*
X014322Y007992D01*
X014484Y007925D01*
X014608Y007801D01*
X014657Y007682D01*
X014658Y007682D01*
X014658Y007717D02*
X014642Y007717D01*
X014533Y007875D02*
X015016Y007875D01*
X015053Y007875D02*
X015455Y007875D01*
X015455Y007717D02*
X015411Y007717D01*
X015374Y007558D02*
X015455Y007558D01*
X015455Y007400D02*
X015411Y007400D01*
X015411Y007241D02*
X015436Y007241D01*
X015350Y006765D02*
X011215Y006765D01*
X011305Y006607D02*
X015487Y006607D01*
X016026Y006784D02*
X016050Y006774D01*
X016142Y006682D01*
X018355Y006682D01*
X018355Y009957D01*
X018355Y010006D01*
X018305Y010126D01*
X018305Y010277D01*
X018362Y010417D01*
X018469Y010524D01*
X018609Y010582D01*
X018739Y010582D01*
X019055Y010897D01*
X019055Y011590D01*
X019010Y011572D01*
X018880Y011572D01*
X017852Y010544D01*
X017900Y010524D01*
X018007Y010417D01*
X018065Y010277D01*
X018065Y010126D01*
X018007Y009987D01*
X017915Y009894D01*
X017915Y007559D01*
X018000Y007524D01*
X018107Y007417D01*
X018165Y007277D01*
X018165Y007126D01*
X018107Y006987D01*
X018000Y006880D01*
X017860Y006822D01*
X017709Y006822D01*
X017569Y006880D01*
X017462Y006987D01*
X017405Y007126D01*
X017405Y007277D01*
X017455Y007398D01*
X017455Y009894D01*
X017362Y009987D01*
X017343Y010035D01*
X015915Y008607D01*
X015915Y007259D01*
X016007Y007167D01*
X016065Y007027D01*
X016065Y006876D01*
X016026Y006784D01*
X016058Y006765D02*
X018355Y006765D01*
X018355Y006924D02*
X018044Y006924D01*
X018146Y007083D02*
X018355Y007083D01*
X018355Y007241D02*
X018165Y007241D01*
X018114Y007400D02*
X018355Y007400D01*
X018355Y007558D02*
X017917Y007558D01*
X017915Y007717D02*
X018355Y007717D01*
X018355Y007875D02*
X017915Y007875D01*
X017915Y008034D02*
X018355Y008034D01*
X018355Y008192D02*
X017915Y008192D01*
X017915Y008351D02*
X018355Y008351D01*
X018355Y008509D02*
X017915Y008509D01*
X017915Y008668D02*
X018355Y008668D01*
X018355Y008827D02*
X017915Y008827D01*
X017915Y008985D02*
X018355Y008985D01*
X018355Y009144D02*
X017915Y009144D01*
X017915Y009302D02*
X018355Y009302D01*
X018355Y009461D02*
X017915Y009461D01*
X017915Y009619D02*
X018355Y009619D01*
X018355Y009778D02*
X017915Y009778D01*
X017956Y009936D02*
X018355Y009936D01*
X018318Y010095D02*
X018052Y010095D01*
X018065Y010253D02*
X018305Y010253D01*
X018360Y010412D02*
X018009Y010412D01*
X017878Y010571D02*
X018582Y010571D01*
X018886Y010729D02*
X018037Y010729D01*
X018195Y010888D02*
X019045Y010888D01*
X019055Y011046D02*
X018354Y011046D01*
X018513Y011205D02*
X019055Y011205D01*
X019055Y011363D02*
X018671Y011363D01*
X018830Y011522D02*
X019055Y011522D01*
X018555Y011997D02*
X014855Y011997D01*
X014697Y011839D02*
X018496Y011839D01*
X018338Y011680D02*
X014538Y011680D01*
X014380Y011522D02*
X018179Y011522D01*
X018021Y011363D02*
X014221Y011363D01*
X014065Y011205D02*
X017862Y011205D01*
X017704Y011046D02*
X014052Y011046D01*
X013958Y010888D02*
X017545Y010888D01*
X017386Y010729D02*
X013565Y010729D01*
X013565Y010571D02*
X017228Y010571D01*
X017069Y010412D02*
X013565Y010412D01*
X013565Y010253D02*
X016911Y010253D01*
X016752Y010095D02*
X013503Y010095D01*
X013344Y009936D02*
X016594Y009936D01*
X016435Y009778D02*
X013186Y009778D01*
X013027Y009619D02*
X016277Y009619D01*
X016118Y009461D02*
X012869Y009461D01*
X012710Y009302D02*
X015960Y009302D01*
X015801Y009144D02*
X012552Y009144D01*
X012465Y008985D02*
X015643Y008985D01*
X015484Y008827D02*
X012423Y008827D01*
X012271Y008668D02*
X015455Y008668D01*
X015455Y008509D02*
X011215Y008509D01*
X011215Y008351D02*
X015455Y008351D01*
X015455Y008192D02*
X015397Y008192D01*
X015411Y008034D02*
X015455Y008034D01*
X015053Y008034D02*
X015016Y008034D01*
X015016Y008192D02*
X015053Y008192D01*
X014672Y008192D02*
X011897Y008192D01*
X011911Y008034D02*
X014658Y008034D01*
X015915Y008034D02*
X017455Y008034D01*
X017455Y008192D02*
X015915Y008192D01*
X015915Y008351D02*
X017455Y008351D01*
X017455Y008509D02*
X015915Y008509D01*
X015976Y008668D02*
X017455Y008668D01*
X017455Y008827D02*
X016134Y008827D01*
X016293Y008985D02*
X017455Y008985D01*
X017455Y009144D02*
X016452Y009144D01*
X016610Y009302D02*
X017455Y009302D01*
X017455Y009461D02*
X016769Y009461D01*
X016927Y009619D02*
X017455Y009619D01*
X017455Y009778D02*
X017086Y009778D01*
X017244Y009936D02*
X017413Y009936D01*
X017455Y007875D02*
X015915Y007875D01*
X015915Y007717D02*
X017455Y007717D01*
X017455Y007558D02*
X015915Y007558D01*
X015915Y007400D02*
X017455Y007400D01*
X017405Y007241D02*
X015933Y007241D01*
X016042Y007083D02*
X017423Y007083D01*
X017525Y006924D02*
X016065Y006924D01*
X016371Y005186D02*
X016371Y005186D01*
X016282Y004863D02*
X014196Y004863D01*
X016079Y004704D02*
X016261Y004704D01*
X016262Y004714D02*
X016262Y004714D01*
X018648Y006222D02*
X018781Y006168D01*
X018925Y006093D01*
X019061Y006006D01*
X019189Y005907D01*
X019305Y005799D01*
X019305Y010497D01*
X019065Y010257D01*
X019065Y010126D01*
X019007Y009987D01*
X018900Y009880D01*
X018815Y009844D01*
X018815Y006357D01*
X018680Y006222D01*
X018648Y006222D01*
X018748Y006290D02*
X019305Y006290D01*
X019305Y006448D02*
X018815Y006448D01*
X018815Y006607D02*
X019305Y006607D01*
X019305Y006765D02*
X018815Y006765D01*
X018815Y006924D02*
X019305Y006924D01*
X019305Y007083D02*
X018815Y007083D01*
X018815Y007241D02*
X019305Y007241D01*
X019305Y007400D02*
X018815Y007400D01*
X018815Y007558D02*
X019305Y007558D01*
X019305Y007717D02*
X018815Y007717D01*
X018815Y007875D02*
X019305Y007875D01*
X019305Y008034D02*
X018815Y008034D01*
X018815Y008192D02*
X019305Y008192D01*
X019305Y008351D02*
X018815Y008351D01*
X018815Y008509D02*
X019305Y008509D01*
X019305Y008668D02*
X018815Y008668D01*
X018815Y008827D02*
X019305Y008827D01*
X019305Y008985D02*
X018815Y008985D01*
X018815Y009144D02*
X019305Y009144D01*
X019305Y009302D02*
X018815Y009302D01*
X018815Y009461D02*
X019305Y009461D01*
X019305Y009619D02*
X018815Y009619D01*
X018815Y009778D02*
X019305Y009778D01*
X019305Y009936D02*
X018956Y009936D01*
X019052Y010095D02*
X019305Y010095D01*
X019305Y010253D02*
X019065Y010253D01*
X019220Y010412D02*
X019305Y010412D01*
X018608Y012156D02*
X015014Y012156D01*
X015165Y012314D02*
X018817Y012314D01*
X019052Y012314D02*
X019055Y012314D01*
X019055Y012473D02*
X015843Y012473D01*
X015915Y012632D02*
X019055Y012632D01*
X019055Y012790D02*
X015909Y012790D01*
X015825Y012949D02*
X019055Y012949D01*
X019055Y013107D02*
X015765Y013107D01*
X015765Y013266D02*
X019055Y013266D01*
X019055Y013424D02*
X015765Y013424D01*
X015765Y013583D02*
X019055Y013583D01*
X019055Y013741D02*
X015765Y013741D01*
X015765Y013900D02*
X019055Y013900D01*
X019055Y014058D02*
X017649Y014058D01*
X017819Y014217D02*
X017832Y014217D01*
X017321Y014058D02*
X017149Y014058D01*
X016821Y014058D02*
X016649Y014058D01*
X016321Y014058D02*
X016049Y014058D01*
X016615Y014857D02*
X016905Y015147D01*
X016905Y015293D01*
X016850Y015293D01*
X016850Y015768D01*
X016849Y015768D01*
X016849Y015293D01*
X016715Y015293D01*
X016715Y015057D01*
X016615Y014957D01*
X016615Y014857D01*
X016668Y015010D02*
X016767Y015010D01*
X016715Y015168D02*
X016905Y015168D01*
X016850Y015327D02*
X016849Y015327D01*
X016850Y015485D02*
X016849Y015485D01*
X016850Y015644D02*
X016849Y015644D01*
X016850Y015769D02*
X016850Y016244D01*
X017022Y016244D01*
X017056Y016244D01*
X016969Y016280D01*
X016862Y016387D01*
X016805Y016526D01*
X016805Y016677D01*
X016862Y016817D01*
X016955Y016909D01*
X016955Y019860D01*
X016708Y019860D01*
X016680Y019860D01*
X016677Y019860D01*
X016535Y019860D01*
X016535Y020335D01*
X016534Y020335D01*
X016534Y019860D01*
X016415Y019860D01*
X016415Y019847D01*
X016415Y019657D01*
X016015Y019257D01*
X015880Y019122D01*
X015330Y019122D01*
X015221Y019122D01*
X015207Y019087D01*
X015172Y019052D01*
X015207Y019017D01*
X015265Y018877D01*
X015265Y018726D01*
X015207Y018587D01*
X015100Y018480D01*
X014960Y018422D01*
X014890Y018422D01*
X014915Y018397D01*
X015465Y017847D01*
X015465Y017657D01*
X015465Y017263D01*
X015509Y017282D01*
X015639Y017282D01*
X016055Y017697D01*
X016055Y017827D01*
X016112Y017967D01*
X016219Y018074D01*
X016359Y018132D01*
X016510Y018132D01*
X016650Y018074D01*
X016757Y017967D01*
X016815Y017827D01*
X016815Y017676D01*
X016757Y017537D01*
X016650Y017430D01*
X016510Y017372D01*
X016380Y017372D01*
X015965Y016957D01*
X015965Y016826D01*
X015946Y016782D01*
X016180Y016782D01*
X016315Y016647D01*
X016715Y016247D01*
X016715Y016244D01*
X016849Y016244D01*
X016849Y015769D01*
X016850Y015769D01*
X016850Y015802D02*
X016849Y015802D01*
X016850Y015961D02*
X016849Y015961D01*
X016850Y016120D02*
X016849Y016120D01*
X016973Y016278D02*
X016684Y016278D01*
X016842Y016437D02*
X016525Y016437D01*
X016366Y016595D02*
X016805Y016595D01*
X016836Y016754D02*
X016208Y016754D01*
X015965Y016912D02*
X016955Y016912D01*
X016955Y017071D02*
X016079Y017071D01*
X016237Y017229D02*
X016955Y017229D01*
X016955Y017388D02*
X016549Y017388D01*
X016761Y017546D02*
X016955Y017546D01*
X016955Y017705D02*
X016815Y017705D01*
X016800Y017864D02*
X016955Y017864D01*
X016955Y018022D02*
X016702Y018022D01*
X016955Y018181D02*
X015131Y018181D01*
X014973Y018339D02*
X016955Y018339D01*
X016955Y018498D02*
X015118Y018498D01*
X015236Y018656D02*
X016955Y018656D01*
X016955Y018815D02*
X015265Y018815D01*
X015225Y018973D02*
X016955Y018973D01*
X016955Y019132D02*
X015890Y019132D01*
X016048Y019290D02*
X016955Y019290D01*
X016955Y019449D02*
X016207Y019449D01*
X016365Y019607D02*
X016955Y019607D01*
X016955Y019766D02*
X016415Y019766D01*
X016534Y019925D02*
X016535Y019925D01*
X016535Y020083D02*
X016534Y020083D01*
X016535Y020242D02*
X016534Y020242D01*
X016535Y020336D02*
X016535Y020811D01*
X016605Y020811D01*
X016605Y020925D01*
X016578Y020925D01*
X016535Y020969D01*
X016491Y020925D01*
X016218Y020925D01*
X016218Y021283D01*
X016181Y021283D01*
X016181Y020925D01*
X016037Y020925D01*
X016115Y020847D01*
X016115Y020811D01*
X016393Y020811D01*
X016534Y020811D01*
X016534Y020336D01*
X016535Y020336D01*
X016535Y020400D02*
X016534Y020400D01*
X016535Y020559D02*
X016534Y020559D01*
X016535Y020717D02*
X016534Y020717D01*
X016605Y020876D02*
X016086Y020876D01*
X016181Y021034D02*
X016218Y021034D01*
X016218Y021193D02*
X016181Y021193D01*
X016219Y021283D02*
X016473Y021283D01*
X016473Y021320D01*
X016219Y021320D01*
X016219Y021283D01*
X016218Y021321D02*
X016218Y021679D01*
X016455Y021679D01*
X016455Y022885D01*
X016450Y022880D01*
X016310Y022822D01*
X016165Y022822D01*
X016165Y022726D01*
X016107Y022587D01*
X016015Y022494D01*
X016015Y021679D01*
X016181Y021679D01*
X016181Y021321D01*
X016218Y021321D01*
X016218Y021351D02*
X016181Y021351D01*
X016181Y021510D02*
X016218Y021510D01*
X016218Y021669D02*
X016181Y021669D01*
X016015Y021827D02*
X016455Y021827D01*
X016455Y021986D02*
X016015Y021986D01*
X016015Y022144D02*
X016455Y022144D01*
X016455Y022303D02*
X016015Y022303D01*
X016015Y022461D02*
X016455Y022461D01*
X016455Y022620D02*
X016120Y022620D01*
X016165Y022778D02*
X016455Y022778D01*
X015965Y023469D02*
X016019Y023524D01*
X016159Y023582D01*
X016305Y023582D01*
X016305Y023627D01*
X016362Y023767D01*
X016469Y023874D01*
X016609Y023932D01*
X016760Y023932D01*
X016900Y023874D01*
X017007Y023767D01*
X017065Y023627D01*
X017065Y023476D01*
X017007Y023337D01*
X016915Y023244D01*
X016915Y021679D01*
X016986Y021679D01*
X016989Y021682D01*
X017012Y021682D01*
X017073Y021682D01*
X017073Y021843D01*
X017179Y021948D01*
X017655Y021948D01*
X017655Y022062D01*
X017594Y022062D01*
X017325Y022331D01*
X017325Y023272D01*
X017574Y023522D01*
X017459Y023522D01*
X017319Y023580D01*
X017212Y023687D01*
X017155Y023826D01*
X017155Y023977D01*
X017212Y024117D01*
X017305Y024209D01*
X017305Y028122D01*
X017209Y028122D01*
X017069Y028180D01*
X016962Y028287D01*
X016948Y028321D01*
X016803Y028321D01*
X016803Y028699D01*
X016766Y028699D01*
X016766Y028321D01*
X016513Y028321D01*
X016502Y028332D01*
X016500Y028330D01*
X016360Y028272D01*
X016230Y028272D01*
X015965Y028007D01*
X015965Y027569D01*
X016069Y027674D01*
X016209Y027732D01*
X016360Y027732D01*
X016500Y027674D01*
X016607Y027567D01*
X016665Y027427D01*
X016665Y027276D01*
X016607Y027137D01*
X016500Y027030D01*
X016360Y026972D01*
X016315Y026972D01*
X016315Y025109D01*
X016407Y025017D01*
X016465Y024877D01*
X016465Y024726D01*
X016407Y024587D01*
X016300Y024480D01*
X016160Y024422D01*
X016009Y024422D01*
X015965Y024440D01*
X015965Y023469D01*
X015965Y023571D02*
X016133Y023571D01*
X015965Y023730D02*
X016347Y023730D01*
X016503Y023888D02*
X015965Y023888D01*
X015965Y024047D02*
X017183Y024047D01*
X017155Y023888D02*
X016866Y023888D01*
X017022Y023730D02*
X017195Y023730D01*
X017065Y023571D02*
X017340Y023571D01*
X017465Y023413D02*
X017038Y023413D01*
X016924Y023254D02*
X017325Y023254D01*
X017325Y023095D02*
X016915Y023095D01*
X016915Y022937D02*
X017325Y022937D01*
X017325Y022778D02*
X016915Y022778D01*
X016915Y022620D02*
X017325Y022620D01*
X017325Y022461D02*
X016915Y022461D01*
X016915Y022303D02*
X017353Y022303D01*
X017512Y022144D02*
X016915Y022144D01*
X016915Y021986D02*
X017655Y021986D01*
X018115Y021986D02*
X019055Y021986D01*
X018975Y022062D02*
X018795Y022062D01*
X018795Y022792D01*
X018775Y022792D01*
X018775Y022062D01*
X018594Y022062D01*
X018325Y022331D01*
X018325Y022792D01*
X018774Y022792D01*
X018774Y022812D01*
X018325Y022812D01*
X018325Y023272D01*
X018374Y023322D01*
X018195Y023322D01*
X018245Y023272D01*
X018245Y022331D01*
X018115Y022201D01*
X018115Y021948D01*
X018391Y021948D01*
X018496Y021843D01*
X018496Y021296D01*
X018550Y021274D01*
X018657Y021167D01*
X018715Y021027D01*
X018715Y020876D01*
X018657Y020737D01*
X018550Y020630D01*
X018410Y020572D01*
X018388Y020572D01*
X018388Y019966D01*
X018362Y019940D01*
X018400Y019924D01*
X018433Y019890D01*
X018448Y019905D01*
X019055Y019905D01*
X019055Y022141D01*
X018975Y022062D01*
X018795Y022144D02*
X018775Y022144D01*
X018775Y022303D02*
X018795Y022303D01*
X018795Y022461D02*
X018775Y022461D01*
X018775Y022620D02*
X018795Y022620D01*
X018795Y022778D02*
X018775Y022778D01*
X018325Y022778D02*
X018245Y022778D01*
X018245Y022620D02*
X018325Y022620D01*
X018325Y022461D02*
X018245Y022461D01*
X018216Y022303D02*
X018353Y022303D01*
X018512Y022144D02*
X018115Y022144D01*
X018496Y021827D02*
X019055Y021827D01*
X019055Y021669D02*
X018496Y021669D01*
X018496Y021510D02*
X019055Y021510D01*
X019055Y021351D02*
X018496Y021351D01*
X018631Y021193D02*
X019055Y021193D01*
X019055Y021034D02*
X018712Y021034D01*
X018714Y020876D02*
X019055Y020876D01*
X019055Y020717D02*
X018637Y020717D01*
X018388Y020559D02*
X019055Y020559D01*
X019055Y020400D02*
X018388Y020400D01*
X018388Y020242D02*
X019055Y020242D01*
X019055Y020083D02*
X018388Y020083D01*
X018398Y019925D02*
X019055Y019925D01*
X018343Y019256D02*
X018343Y019139D01*
X018343Y018824D01*
X018343Y018509D01*
X018343Y018194D01*
X018343Y018052D01*
X018818Y018052D01*
X018818Y018052D01*
X018818Y018052D01*
X019293Y018052D01*
X019293Y018194D01*
X019293Y018472D01*
X019305Y018472D01*
X019305Y017932D01*
X019293Y017932D01*
X019293Y018052D01*
X018818Y018052D01*
X018343Y018052D01*
X018343Y017927D01*
X018210Y017982D01*
X018059Y017982D01*
X018015Y017963D01*
X018015Y018444D01*
X018057Y018487D01*
X018115Y018626D01*
X018115Y018777D01*
X018057Y018917D01*
X017950Y019024D01*
X017810Y019082D01*
X017659Y019082D01*
X017519Y019024D01*
X017415Y018919D01*
X017415Y019860D01*
X017652Y019860D01*
X017905Y019860D01*
X017862Y019817D01*
X017805Y019677D01*
X017805Y019526D01*
X017862Y019387D01*
X017969Y019280D01*
X018109Y019222D01*
X018260Y019222D01*
X018343Y019256D01*
X018343Y019132D02*
X017415Y019132D01*
X017415Y019290D02*
X017959Y019290D01*
X017837Y019449D02*
X017415Y019449D01*
X017415Y019607D02*
X017805Y019607D01*
X017841Y019766D02*
X017415Y019766D01*
X017415Y018973D02*
X017469Y018973D01*
X018001Y018973D02*
X018343Y018973D01*
X018343Y018815D02*
X018099Y018815D01*
X018115Y018656D02*
X018343Y018656D01*
X018343Y018498D02*
X018061Y018498D01*
X018015Y018339D02*
X018343Y018339D01*
X018343Y018181D02*
X018015Y018181D01*
X018015Y018022D02*
X018343Y018022D01*
X019293Y018022D02*
X019305Y018022D01*
X019305Y018181D02*
X019293Y018181D01*
X019305Y018339D02*
X019293Y018339D01*
X019055Y016120D02*
X018765Y016120D01*
X018765Y015961D02*
X019055Y015961D01*
X019055Y015802D02*
X018765Y015802D01*
X018765Y015644D02*
X019055Y015644D01*
X019055Y015485D02*
X018765Y015485D01*
X018765Y015327D02*
X019055Y015327D01*
X019055Y015168D02*
X018765Y015168D01*
X018860Y015010D02*
X019055Y015010D01*
X019055Y014851D02*
X018915Y014851D01*
X018901Y014693D02*
X019055Y014693D01*
X019055Y014534D02*
X018804Y014534D01*
X019055Y014376D02*
X018444Y014376D01*
X018337Y014217D02*
X019055Y014217D01*
X016055Y017705D02*
X015465Y017705D01*
X015465Y017546D02*
X015904Y017546D01*
X015745Y017388D02*
X015465Y017388D01*
X015448Y017864D02*
X016069Y017864D01*
X016167Y018022D02*
X015290Y018022D01*
X014251Y018052D02*
X014251Y018052D01*
X013776Y018052D01*
X013776Y018172D01*
X013661Y018172D01*
X013661Y018095D01*
X013618Y018052D01*
X013661Y018008D01*
X013661Y017736D01*
X013303Y017736D01*
X013303Y017699D01*
X013661Y017699D01*
X013661Y017632D01*
X013730Y017632D01*
X013776Y017632D01*
X013776Y017910D01*
X013776Y018052D01*
X014251Y018052D01*
X013776Y018022D02*
X013648Y018022D01*
X013661Y017864D02*
X013776Y017864D01*
X013776Y017705D02*
X013303Y017705D01*
X013303Y017699D02*
X013266Y017699D01*
X013266Y017736D01*
X012908Y017736D01*
X012908Y018008D01*
X012951Y018052D01*
X012946Y018057D01*
X012860Y018022D01*
X012780Y018022D01*
X012665Y017907D01*
X012665Y016769D01*
X012769Y016874D01*
X012909Y016932D01*
X013060Y016932D01*
X013187Y016879D01*
X013239Y016932D01*
X013405Y017097D01*
X013405Y017321D01*
X013303Y017321D01*
X013303Y017699D01*
X013266Y017699D02*
X013266Y017321D01*
X013013Y017321D01*
X012908Y017426D01*
X012908Y017699D01*
X013266Y017699D01*
X013266Y017705D02*
X012665Y017705D01*
X012665Y017864D02*
X012908Y017864D01*
X012921Y018022D02*
X012861Y018022D01*
X012908Y017546D02*
X012665Y017546D01*
X012665Y017388D02*
X012946Y017388D01*
X012665Y017229D02*
X013405Y017229D01*
X013378Y017071D02*
X012665Y017071D01*
X012665Y016912D02*
X012862Y016912D01*
X013107Y016912D02*
X013220Y016912D01*
X013266Y017388D02*
X013303Y017388D01*
X013303Y017546D02*
X013266Y017546D01*
X012462Y018617D02*
X012569Y018724D01*
X012655Y018759D01*
X012655Y018797D01*
X012655Y019347D01*
X012789Y019482D01*
X012855Y019547D01*
X012888Y019581D01*
X012888Y019908D01*
X012993Y020013D01*
X013231Y020013D01*
X013205Y020076D01*
X013205Y020207D01*
X013189Y020222D01*
X013055Y020357D01*
X013055Y020425D01*
X012578Y020425D01*
X012535Y020469D01*
X012491Y020425D01*
X012218Y020425D01*
X012218Y020783D01*
X012181Y020783D01*
X012181Y020425D01*
X011965Y020425D01*
X011965Y016397D01*
X011965Y016207D01*
X011852Y016094D01*
X011900Y016074D01*
X012007Y015967D01*
X012065Y015827D01*
X012065Y015676D01*
X012007Y015537D01*
X011965Y015494D01*
X011965Y014969D01*
X012069Y015074D01*
X012205Y015130D01*
X012205Y017907D01*
X012205Y018097D01*
X012413Y018306D01*
X012405Y018326D01*
X012405Y018477D01*
X012462Y018617D01*
X012501Y018656D02*
X011965Y018656D01*
X011965Y018498D02*
X012413Y018498D01*
X012405Y018339D02*
X011965Y018339D01*
X011965Y018181D02*
X012288Y018181D01*
X012205Y018022D02*
X011965Y018022D01*
X011965Y017864D02*
X012205Y017864D01*
X012205Y017705D02*
X011965Y017705D01*
X011965Y017546D02*
X012205Y017546D01*
X012205Y017388D02*
X011965Y017388D01*
X011965Y017229D02*
X012205Y017229D01*
X012205Y017071D02*
X011965Y017071D01*
X011965Y016912D02*
X012205Y016912D01*
X012205Y016754D02*
X011965Y016754D01*
X011965Y016595D02*
X012205Y016595D01*
X012205Y016437D02*
X011965Y016437D01*
X011965Y016278D02*
X012205Y016278D01*
X012205Y016120D02*
X011877Y016120D01*
X012009Y015961D02*
X012205Y015961D01*
X012205Y015802D02*
X012065Y015802D01*
X012051Y015644D02*
X012205Y015644D01*
X012205Y015485D02*
X011965Y015485D01*
X011965Y015327D02*
X012205Y015327D01*
X012205Y015168D02*
X011965Y015168D01*
X011965Y015010D02*
X012005Y015010D01*
X011965Y014534D02*
X011965Y014534D01*
X011965Y014376D02*
X012200Y014376D01*
X012369Y014376D02*
X012605Y014376D01*
X012604Y014534D02*
X012628Y014534D01*
X012665Y014693D02*
X012738Y014693D01*
X012755Y014851D02*
X012665Y014851D01*
X012665Y015010D02*
X012755Y015010D01*
X012755Y015168D02*
X012665Y015168D01*
X012665Y015327D02*
X012755Y015327D01*
X012755Y015485D02*
X012665Y015485D01*
X012665Y015644D02*
X012755Y015644D01*
X012755Y015802D02*
X012665Y015802D01*
X012665Y015961D02*
X012755Y015961D01*
X012755Y016120D02*
X012665Y016120D01*
X012665Y016278D02*
X012721Y016278D01*
X011505Y015327D02*
X011465Y015327D01*
X011465Y015168D02*
X011505Y015168D01*
X011505Y015010D02*
X011465Y015010D01*
X011465Y014851D02*
X011505Y014851D01*
X011505Y014693D02*
X011465Y014693D01*
X011465Y014534D02*
X011505Y014534D01*
X011505Y014376D02*
X011465Y014376D01*
X011465Y014217D02*
X011505Y014217D01*
X011505Y014058D02*
X011465Y014058D01*
X011465Y013900D02*
X011505Y013900D01*
X011505Y013741D02*
X011465Y013741D01*
X011465Y013583D02*
X011505Y013583D01*
X011505Y013424D02*
X011465Y013424D01*
X011465Y013266D02*
X011595Y013266D01*
X011465Y013107D02*
X011754Y013107D01*
X011805Y012949D02*
X011465Y012949D01*
X011465Y012790D02*
X011861Y012790D01*
X012086Y012632D02*
X011465Y012632D01*
X011465Y012473D02*
X013105Y012473D01*
X013105Y012314D02*
X011465Y012314D01*
X011465Y012156D02*
X013105Y012156D01*
X013105Y011997D02*
X011465Y011997D01*
X011465Y011839D02*
X013105Y011839D01*
X013105Y011680D02*
X011465Y011680D01*
X011465Y011522D02*
X013105Y011522D01*
X013105Y011363D02*
X011465Y011363D01*
X011465Y011205D02*
X013105Y011205D01*
X013105Y011046D02*
X011465Y011046D01*
X011465Y010888D02*
X013105Y010888D01*
X013105Y010729D02*
X011465Y010729D01*
X011465Y010571D02*
X013105Y010571D01*
X013105Y010412D02*
X011465Y010412D01*
X011465Y010253D02*
X013011Y010253D01*
X012852Y010095D02*
X011465Y010095D01*
X011465Y009936D02*
X012694Y009936D01*
X012535Y009778D02*
X011414Y009778D01*
X011412Y009619D02*
X012377Y009619D01*
X012218Y009461D02*
X011331Y009461D01*
X011215Y009302D02*
X011847Y009302D01*
X011732Y009144D02*
X011215Y009144D01*
X011215Y008985D02*
X011705Y008985D01*
X011746Y008827D02*
X011215Y008827D01*
X011215Y008668D02*
X011898Y008668D01*
X011553Y008192D02*
X011516Y008192D01*
X011516Y008034D02*
X011553Y008034D01*
X011553Y007875D02*
X012036Y007875D01*
X011927Y007717D02*
X011911Y007717D01*
X010455Y010095D02*
X009153Y010095D01*
X009311Y010253D02*
X010455Y010253D01*
X010455Y010412D02*
X009470Y010412D01*
X009628Y010571D02*
X010455Y010571D01*
X010455Y010729D02*
X009787Y010729D01*
X009946Y010888D02*
X010455Y010888D01*
X010455Y011046D02*
X010104Y011046D01*
X010263Y011205D02*
X010455Y011205D01*
X010455Y011363D02*
X010421Y011363D01*
X009052Y011997D02*
X008905Y011997D01*
X007505Y009591D02*
X007475Y009562D01*
X007295Y009562D01*
X007295Y010292D01*
X007275Y010292D01*
X007275Y009562D01*
X007094Y009562D01*
X007065Y009591D01*
X007065Y008997D01*
X007280Y008782D01*
X007300Y008762D01*
X007475Y008762D01*
X007505Y008732D01*
X007505Y009591D01*
X007505Y009461D02*
X007065Y009461D01*
X007065Y009302D02*
X007505Y009302D01*
X007505Y009144D02*
X007065Y009144D01*
X007077Y008985D02*
X007505Y008985D01*
X007505Y008827D02*
X007235Y008827D01*
X007280Y008782D02*
X007280Y008782D01*
X007295Y009619D02*
X007275Y009619D01*
X007275Y009778D02*
X007295Y009778D01*
X007295Y009936D02*
X007275Y009936D01*
X007275Y010095D02*
X007295Y010095D01*
X007295Y010253D02*
X007275Y010253D01*
X006605Y009619D02*
X006532Y009619D01*
X006000Y008668D02*
X001265Y008668D01*
X001265Y008509D02*
X005842Y008509D01*
X005825Y008351D02*
X001265Y008351D01*
X001265Y008192D02*
X005825Y008192D01*
X005902Y008034D02*
X001265Y008034D01*
X001265Y007875D02*
X006061Y007875D01*
X006049Y007717D02*
X001265Y007717D01*
X001265Y007558D02*
X001815Y007558D01*
X001656Y007400D02*
X001265Y007400D01*
X001265Y007241D02*
X001605Y007241D01*
X001605Y007083D02*
X001265Y007083D01*
X001265Y006924D02*
X001605Y006924D01*
X002258Y007558D02*
X002263Y007558D01*
X003645Y007558D02*
X003650Y007558D01*
X004290Y007558D02*
X004295Y007558D01*
X003914Y011522D02*
X005955Y011522D01*
X005955Y011680D02*
X004073Y011680D01*
X004215Y011839D02*
X005955Y011839D01*
X005955Y011997D02*
X004215Y011997D01*
X004215Y012097D02*
X003330Y012097D01*
X003330Y012607D01*
X003889Y012607D01*
X004215Y012282D01*
X004215Y012097D01*
X004215Y012156D02*
X005955Y012156D01*
X005535Y012314D02*
X004182Y012314D01*
X004023Y012473D02*
X005427Y012473D01*
X005405Y012632D02*
X001265Y012632D01*
X001265Y012790D02*
X005271Y012790D01*
X005155Y014217D02*
X001265Y014217D01*
X001265Y014058D02*
X002631Y014058D01*
X002473Y013900D02*
X001265Y013900D01*
X001265Y013741D02*
X002355Y013741D01*
X002355Y013583D02*
X001265Y013583D01*
X001265Y013424D02*
X002355Y013424D01*
X002411Y013266D02*
X001265Y013266D01*
X001265Y014376D02*
X005155Y014376D01*
X005155Y014534D02*
X001265Y014534D01*
X001265Y014693D02*
X005155Y014693D01*
X004948Y014851D02*
X001265Y014851D01*
X003240Y012473D02*
X003330Y012473D01*
X003330Y012314D02*
X003240Y012314D01*
X003240Y012156D02*
X003330Y012156D01*
X003330Y011997D02*
X003240Y011997D01*
X003240Y011839D02*
X003330Y011839D01*
X003330Y011680D02*
X003240Y011680D01*
X003240Y011522D02*
X003330Y011522D01*
X006748Y006290D02*
X006825Y006290D01*
X006825Y006131D02*
X006745Y006131D01*
X006606Y005973D02*
X006963Y005973D01*
X012087Y013424D02*
X013105Y013424D01*
X013105Y013266D02*
X012458Y013266D01*
X012552Y013107D02*
X013105Y013107D01*
X013105Y012949D02*
X012565Y012949D01*
X012508Y012790D02*
X013105Y012790D01*
X013105Y012632D02*
X012284Y012632D01*
X011965Y013583D02*
X013105Y013583D01*
X013105Y013741D02*
X011965Y013741D01*
X011965Y013900D02*
X013105Y013900D01*
X012821Y014058D02*
X011965Y014058D01*
X011965Y014217D02*
X012650Y014217D01*
X015165Y012473D02*
X015226Y012473D01*
X012655Y018815D02*
X011965Y018815D01*
X011965Y018973D02*
X012655Y018973D01*
X012655Y019132D02*
X011965Y019132D01*
X011965Y019290D02*
X012655Y019290D01*
X012756Y019449D02*
X011965Y019449D01*
X011965Y019607D02*
X012888Y019607D01*
X012888Y019766D02*
X011965Y019766D01*
X011965Y019925D02*
X012905Y019925D01*
X013170Y020242D02*
X011965Y020242D01*
X011965Y020400D02*
X013055Y020400D01*
X013205Y020083D02*
X011965Y020083D01*
X012181Y020559D02*
X012218Y020559D01*
X012218Y020717D02*
X012181Y020717D01*
X012181Y020821D02*
X012218Y020821D01*
X012218Y021179D01*
X012405Y021179D01*
X012405Y021179D01*
X012285Y021229D01*
X012162Y021353D01*
X012095Y021514D01*
X012095Y021689D01*
X012162Y021851D01*
X012285Y021975D01*
X012447Y022042D01*
X012622Y022042D01*
X012784Y021975D01*
X012908Y021851D01*
X012975Y021689D01*
X012975Y021514D01*
X012908Y021353D01*
X012865Y021310D01*
X012865Y021257D01*
X012865Y021179D01*
X013055Y021179D01*
X013055Y023925D01*
X012865Y023925D01*
X012865Y023847D01*
X012865Y023794D01*
X012908Y023751D01*
X012975Y023589D01*
X012975Y023414D01*
X012908Y023253D01*
X012784Y023129D01*
X012622Y023062D01*
X012447Y023062D01*
X012285Y023129D01*
X012162Y023253D01*
X012095Y023414D01*
X012095Y023589D01*
X012162Y023751D01*
X012285Y023875D01*
X012405Y023924D01*
X012405Y023925D01*
X012218Y023925D01*
X012218Y024283D01*
X012181Y024283D01*
X012181Y023925D01*
X011965Y023925D01*
X011965Y021179D01*
X012181Y021179D01*
X012181Y020821D01*
X012181Y020876D02*
X012218Y020876D01*
X012218Y021034D02*
X012181Y021034D01*
X012372Y021193D02*
X011965Y021193D01*
X011965Y021351D02*
X012163Y021351D01*
X012096Y021510D02*
X011965Y021510D01*
X011965Y021669D02*
X012095Y021669D01*
X012152Y021827D02*
X011965Y021827D01*
X011965Y021986D02*
X012311Y021986D01*
X011965Y022144D02*
X013055Y022144D01*
X013055Y021986D02*
X012758Y021986D01*
X012917Y021827D02*
X013055Y021827D01*
X013055Y021669D02*
X012975Y021669D01*
X012973Y021510D02*
X013055Y021510D01*
X013055Y021351D02*
X012906Y021351D01*
X012865Y021193D02*
X013055Y021193D01*
X013055Y022303D02*
X011965Y022303D01*
X011965Y022461D02*
X013055Y022461D01*
X013055Y022620D02*
X011965Y022620D01*
X011965Y022778D02*
X013055Y022778D01*
X013055Y022937D02*
X011965Y022937D01*
X011965Y023095D02*
X012366Y023095D01*
X012161Y023254D02*
X011965Y023254D01*
X011965Y023413D02*
X012095Y023413D01*
X012095Y023571D02*
X011965Y023571D01*
X011965Y023730D02*
X012153Y023730D01*
X012317Y023888D02*
X011965Y023888D01*
X012181Y024047D02*
X012218Y024047D01*
X012218Y024205D02*
X012181Y024205D01*
X012181Y024321D02*
X012218Y024321D01*
X012218Y024679D01*
X012491Y024679D01*
X012535Y024635D01*
X012578Y024679D01*
X013055Y024679D01*
X013055Y025657D01*
X012789Y025922D01*
X012659Y025922D01*
X012519Y025980D01*
X012412Y026087D01*
X012355Y026226D01*
X012355Y026377D01*
X012373Y026422D01*
X011765Y026422D01*
X011765Y025863D01*
X011809Y025882D01*
X011960Y025882D01*
X012100Y025824D01*
X012207Y025717D01*
X012265Y025577D01*
X012265Y025426D01*
X012207Y025287D01*
X012100Y025180D01*
X011965Y025124D01*
X011965Y024679D01*
X012181Y024679D01*
X012181Y024321D01*
X012181Y024364D02*
X012218Y024364D01*
X012218Y024522D02*
X012181Y024522D01*
X011965Y024681D02*
X013055Y024681D01*
X013055Y024839D02*
X011965Y024839D01*
X011965Y024998D02*
X013055Y024998D01*
X013055Y025156D02*
X012044Y025156D01*
X012219Y025315D02*
X013055Y025315D01*
X013055Y025474D02*
X012265Y025474D01*
X012242Y025632D02*
X013055Y025632D01*
X012921Y025791D02*
X012133Y025791D01*
X011765Y025949D02*
X012593Y025949D01*
X012404Y026108D02*
X011765Y026108D01*
X011765Y026266D02*
X012355Y026266D01*
X010960Y024839D02*
X008715Y024839D01*
X008715Y024998D02*
X010837Y024998D01*
X010805Y025156D02*
X008715Y025156D01*
X008715Y025315D02*
X010841Y025315D01*
X011105Y024681D02*
X008833Y024681D01*
X009015Y024364D02*
X009959Y024364D01*
X009837Y024205D02*
X008985Y024205D01*
X008867Y024047D02*
X009624Y024047D01*
X009462Y023917D02*
X009405Y023777D01*
X009405Y023647D01*
X009039Y023282D01*
X008905Y023147D01*
X008905Y022813D01*
X008860Y022832D01*
X008709Y022832D01*
X008569Y022774D01*
X008462Y022667D01*
X008405Y022527D01*
X008405Y022376D01*
X008455Y022256D01*
X008455Y021763D01*
X008410Y021782D01*
X008266Y021782D01*
X008266Y021783D01*
X007888Y021783D01*
X007851Y021783D01*
X007851Y021425D01*
X007578Y021425D01*
X007535Y021469D01*
X007491Y021425D01*
X007237Y021425D01*
X007465Y021197D01*
X007465Y021007D01*
X007465Y018663D01*
X007509Y018682D01*
X007639Y018682D01*
X008105Y019147D01*
X008105Y021094D01*
X008012Y021187D01*
X007955Y021326D01*
X007955Y021425D01*
X007888Y021425D01*
X007888Y021783D01*
X007888Y021820D01*
X008266Y021820D01*
X008266Y022073D01*
X008160Y022179D01*
X007888Y022179D01*
X007888Y021821D01*
X007851Y021821D01*
X007851Y022179D01*
X007578Y022179D01*
X007535Y022135D01*
X007491Y022179D01*
X007415Y022179D01*
X007415Y022405D01*
X007471Y022405D01*
X007535Y022469D01*
X007598Y022405D01*
X007851Y022405D01*
X007851Y022783D01*
X007888Y022783D01*
X007888Y022405D01*
X008141Y022405D01*
X008246Y022511D01*
X008246Y022783D01*
X007888Y022783D01*
X007888Y022820D01*
X008246Y022820D01*
X008246Y023093D01*
X008141Y023198D01*
X007888Y023198D01*
X007888Y022821D01*
X007851Y022821D01*
X007851Y023198D01*
X007598Y023198D01*
X007535Y023135D01*
X007471Y023198D01*
X007415Y023198D01*
X007415Y023405D01*
X007471Y023405D01*
X007535Y023469D01*
X007598Y023405D01*
X008141Y023405D01*
X008246Y023511D01*
X008246Y023888D01*
X008246Y023730D02*
X009405Y023730D01*
X009329Y023571D02*
X008246Y023571D01*
X008148Y023413D02*
X009170Y023413D01*
X009011Y023254D02*
X007415Y023254D01*
X007478Y023413D02*
X007591Y023413D01*
X007851Y023095D02*
X007888Y023095D01*
X007888Y022937D02*
X007851Y022937D01*
X007851Y022778D02*
X007888Y022778D01*
X007888Y022620D02*
X007851Y022620D01*
X007851Y022461D02*
X007888Y022461D01*
X008196Y022461D02*
X008405Y022461D01*
X008435Y022303D02*
X007415Y022303D01*
X007525Y022144D02*
X007544Y022144D01*
X007542Y022461D02*
X007527Y022461D01*
X007851Y022144D02*
X007888Y022144D01*
X007888Y021986D02*
X007851Y021986D01*
X007851Y021827D02*
X007888Y021827D01*
X007888Y021669D02*
X007851Y021669D01*
X007851Y021510D02*
X007888Y021510D01*
X007955Y021351D02*
X007310Y021351D01*
X007465Y021193D02*
X008010Y021193D01*
X008105Y021034D02*
X007465Y021034D01*
X007465Y020876D02*
X008105Y020876D01*
X008105Y020717D02*
X007465Y020717D01*
X007465Y020559D02*
X008105Y020559D01*
X008105Y020400D02*
X007465Y020400D01*
X007465Y020242D02*
X008105Y020242D01*
X008105Y020083D02*
X007465Y020083D01*
X007465Y019925D02*
X008105Y019925D01*
X008105Y019766D02*
X007465Y019766D01*
X007465Y019607D02*
X008105Y019607D01*
X008105Y019449D02*
X007465Y019449D01*
X007465Y019290D02*
X008105Y019290D01*
X008089Y019132D02*
X007465Y019132D01*
X007465Y018973D02*
X007931Y018973D01*
X007772Y018815D02*
X007465Y018815D01*
X008266Y021827D02*
X008455Y021827D01*
X008455Y021986D02*
X008266Y021986D01*
X008195Y022144D02*
X008455Y022144D01*
X008443Y022620D02*
X008246Y022620D01*
X008246Y022778D02*
X008580Y022778D01*
X008905Y022937D02*
X008246Y022937D01*
X008244Y023095D02*
X008905Y023095D01*
X008402Y024047D02*
X008367Y024047D01*
X010615Y020242D02*
X011105Y020242D01*
X011105Y020400D02*
X010820Y020400D01*
X010907Y020559D02*
X011105Y020559D01*
X011105Y020717D02*
X010915Y020717D01*
X010848Y020876D02*
X011105Y020876D01*
X010991Y020083D02*
X010615Y020083D01*
X010615Y019925D02*
X010845Y019925D01*
X010805Y019766D02*
X010615Y019766D01*
X010615Y019607D02*
X010833Y019607D01*
X010950Y019449D02*
X010615Y019449D01*
X010615Y019290D02*
X010898Y019290D01*
X010739Y019132D02*
X010615Y019132D01*
X012703Y023095D02*
X013055Y023095D01*
X013055Y023254D02*
X012908Y023254D01*
X012974Y023413D02*
X013055Y023413D01*
X013055Y023571D02*
X012975Y023571D01*
X012916Y023730D02*
X013055Y023730D01*
X013055Y023888D02*
X012865Y023888D01*
X015965Y024205D02*
X017301Y024205D01*
X017305Y024364D02*
X015965Y024364D01*
X016342Y024522D02*
X017305Y024522D01*
X017305Y024681D02*
X016446Y024681D01*
X016465Y024839D02*
X017305Y024839D01*
X017305Y024998D02*
X016415Y024998D01*
X016315Y025156D02*
X017305Y025156D01*
X017305Y025315D02*
X016315Y025315D01*
X016315Y025474D02*
X017305Y025474D01*
X017305Y025632D02*
X016315Y025632D01*
X016315Y025791D02*
X017305Y025791D01*
X017305Y025949D02*
X016315Y025949D01*
X016315Y026108D02*
X017305Y026108D01*
X017305Y026266D02*
X016315Y026266D01*
X016315Y026425D02*
X017305Y026425D01*
X017305Y026583D02*
X016315Y026583D01*
X016315Y026742D02*
X017305Y026742D01*
X017305Y026900D02*
X016315Y026900D01*
X016529Y027059D02*
X017305Y027059D01*
X017305Y027218D02*
X016640Y027218D01*
X016665Y027376D02*
X017305Y027376D01*
X017305Y027535D02*
X016620Y027535D01*
X016454Y027693D02*
X017305Y027693D01*
X017305Y027852D02*
X015965Y027852D01*
X015968Y028010D02*
X017305Y028010D01*
X017096Y028169D02*
X016127Y028169D01*
X016116Y027693D02*
X015965Y027693D01*
X016494Y028327D02*
X016507Y028327D01*
X016766Y028327D02*
X016803Y028327D01*
X016803Y028486D02*
X016766Y028486D01*
X016766Y028644D02*
X016803Y028644D01*
X017161Y029432D02*
X017789Y029432D01*
X017980Y029432D01*
X018115Y029297D01*
X018115Y025562D01*
X018314Y025762D01*
X018355Y025762D01*
X018355Y025844D01*
X018262Y025937D01*
X018205Y026076D01*
X018205Y026227D01*
X018262Y026367D01*
X018369Y026474D01*
X018509Y026532D01*
X018660Y026532D01*
X018800Y026474D01*
X018907Y026367D01*
X018965Y026227D01*
X018965Y026076D01*
X018907Y025937D01*
X018815Y025844D01*
X018815Y025762D01*
X019255Y025762D01*
X019305Y025712D01*
X019305Y030805D01*
X019189Y030697D01*
X019061Y030598D01*
X018925Y030510D01*
X018924Y030510D02*
X018781Y030436D01*
X018631Y030375D01*
X018476Y030327D01*
X018317Y030294D01*
X018156Y030276D01*
X017994Y030272D01*
X017832Y030283D01*
X017672Y030309D01*
X017515Y030349D01*
X017363Y030404D01*
X017216Y030471D01*
X017075Y030552D01*
X016943Y030646D01*
X016820Y030751D01*
X016820Y030751D01*
X016706Y030867D01*
X016604Y030993D01*
X016514Y031127D01*
X016436Y031269D01*
X016436Y031269D01*
X016371Y031418D01*
X016321Y031572D01*
X016284Y031729D01*
X016284Y031730D01*
X016262Y031890D01*
X016255Y032052D01*
X016262Y032214D01*
X016284Y032374D01*
X016284Y032374D01*
X016321Y032532D01*
X016371Y032686D01*
X016436Y032835D01*
X016514Y032977D01*
X016604Y033111D01*
X016604Y033111D01*
X016706Y033237D01*
X016706Y033237D01*
X016706Y033237D01*
X016789Y033322D01*
X013181Y033322D01*
X013181Y033081D01*
X013215Y033047D01*
X013430Y032832D01*
X013565Y032697D01*
X013565Y032232D01*
X013594Y032262D01*
X013975Y032262D01*
X014245Y031992D01*
X014245Y031611D01*
X013975Y031342D01*
X013594Y031342D01*
X013565Y031371D01*
X013565Y031232D01*
X013594Y031262D01*
X013975Y031262D01*
X014245Y030992D01*
X014245Y030611D01*
X014111Y030478D01*
X014152Y030437D01*
X014259Y030482D01*
X014325Y030482D01*
X014325Y031272D01*
X014594Y031542D01*
X014975Y031542D01*
X015245Y031272D01*
X015245Y030331D01*
X014995Y030082D01*
X015574Y030082D01*
X015325Y030331D01*
X015325Y031272D01*
X015594Y031542D01*
X015975Y031542D01*
X016245Y031272D01*
X016245Y030331D01*
X015995Y030082D01*
X016998Y030082D01*
X017012Y030117D01*
X017119Y030224D01*
X017259Y030282D01*
X017410Y030282D01*
X017550Y030224D01*
X017657Y030117D01*
X017715Y029977D01*
X017715Y029826D01*
X017657Y029687D01*
X017550Y029580D01*
X017410Y029522D01*
X017259Y029522D01*
X017161Y029562D01*
X017161Y029432D01*
X017161Y029437D02*
X019305Y029437D01*
X019305Y029279D02*
X018115Y029279D01*
X018115Y029120D02*
X019305Y029120D01*
X019305Y028962D02*
X018115Y028962D01*
X018115Y028803D02*
X019305Y028803D01*
X019305Y028644D02*
X018115Y028644D01*
X018115Y028486D02*
X019305Y028486D01*
X019305Y028327D02*
X018115Y028327D01*
X018115Y028169D02*
X019305Y028169D01*
X019305Y028010D02*
X018115Y028010D01*
X018115Y027852D02*
X019305Y027852D01*
X019305Y027693D02*
X018115Y027693D01*
X018115Y027535D02*
X019305Y027535D01*
X019305Y027376D02*
X018115Y027376D01*
X018115Y027218D02*
X019305Y027218D01*
X019305Y027059D02*
X018115Y027059D01*
X018115Y026900D02*
X019305Y026900D01*
X019305Y026742D02*
X018115Y026742D01*
X018115Y026583D02*
X019305Y026583D01*
X019305Y026425D02*
X018849Y026425D01*
X018948Y026266D02*
X019305Y026266D01*
X019305Y026108D02*
X018965Y026108D01*
X018912Y025949D02*
X019305Y025949D01*
X019305Y025791D02*
X018815Y025791D01*
X018355Y025791D02*
X018115Y025791D01*
X018115Y025949D02*
X018257Y025949D01*
X018205Y026108D02*
X018115Y026108D01*
X018115Y026266D02*
X018221Y026266D01*
X018320Y026425D02*
X018115Y026425D01*
X018115Y025632D02*
X018184Y025632D01*
X018245Y023254D02*
X018325Y023254D01*
X018325Y023095D02*
X018245Y023095D01*
X018245Y022937D02*
X018325Y022937D01*
X017073Y021827D02*
X016915Y021827D01*
X017566Y029596D02*
X019305Y029596D01*
X019305Y029754D02*
X017685Y029754D01*
X017715Y029913D02*
X019305Y029913D01*
X019305Y030071D02*
X017676Y030071D01*
X017536Y030230D02*
X019305Y030230D01*
X019305Y030388D02*
X018664Y030388D01*
X018924Y030510D02*
X018925Y030510D01*
X018982Y030547D02*
X019305Y030547D01*
X019305Y030706D02*
X019198Y030706D01*
X019189Y030697D02*
X019189Y030697D01*
X019061Y030598D02*
X019061Y030598D01*
X017405Y030388D02*
X016245Y030388D01*
X016245Y030547D02*
X017085Y030547D01*
X017075Y030552D02*
X017075Y030552D01*
X016943Y030646D02*
X016943Y030646D01*
X016873Y030706D02*
X016245Y030706D01*
X016245Y030864D02*
X016709Y030864D01*
X016706Y030867D02*
X016706Y030867D01*
X016604Y030993D02*
X016604Y030993D01*
X016584Y031023D02*
X016245Y031023D01*
X016245Y031181D02*
X016484Y031181D01*
X016514Y031127D02*
X016514Y031127D01*
X016405Y031340D02*
X016177Y031340D01*
X016371Y031418D02*
X016371Y031418D01*
X016345Y031498D02*
X016019Y031498D01*
X016258Y031974D02*
X014245Y031974D01*
X014245Y031815D02*
X016272Y031815D01*
X016262Y031890D02*
X016262Y031890D01*
X016301Y031657D02*
X014245Y031657D01*
X014131Y031498D02*
X014550Y031498D01*
X014392Y031340D02*
X013565Y031340D01*
X013565Y032291D02*
X016273Y032291D01*
X016262Y032214D02*
X016262Y032214D01*
X016258Y032132D02*
X014105Y032132D01*
X013565Y032449D02*
X016301Y032449D01*
X016321Y032532D02*
X016321Y032532D01*
X016346Y032608D02*
X013565Y032608D01*
X013495Y032767D02*
X016406Y032767D01*
X016436Y032835D02*
X016436Y032835D01*
X016485Y032925D02*
X013336Y032925D01*
X013215Y033047D02*
X013215Y033047D01*
X013181Y033084D02*
X016586Y033084D01*
X016514Y032977D02*
X016514Y032977D01*
X016371Y032686D02*
X016371Y032686D01*
X016712Y033242D02*
X013181Y033242D01*
X014056Y031181D02*
X014325Y031181D01*
X014325Y031023D02*
X014214Y031023D01*
X014245Y030864D02*
X014325Y030864D01*
X014325Y030706D02*
X014245Y030706D01*
X014180Y030547D02*
X014325Y030547D01*
X015019Y031498D02*
X015550Y031498D01*
X015392Y031340D02*
X015177Y031340D01*
X015245Y031181D02*
X015325Y031181D01*
X015325Y031023D02*
X015245Y031023D01*
X015245Y030864D02*
X015325Y030864D01*
X015325Y030706D02*
X015245Y030706D01*
X015245Y030547D02*
X015325Y030547D01*
X015325Y030388D02*
X015245Y030388D01*
X015143Y030230D02*
X015426Y030230D01*
X016143Y030230D02*
X017133Y030230D01*
X016820Y030751D02*
X016820Y030751D01*
X016321Y031572D02*
X016321Y031572D01*
X002305Y020717D02*
X002265Y020717D01*
X002265Y020559D02*
X002305Y020559D01*
X002305Y020400D02*
X002265Y020400D01*
X002265Y020242D02*
X002305Y020242D01*
X002305Y020083D02*
X002265Y020083D01*
X002265Y019925D02*
X002305Y019925D01*
X018781Y006168D02*
X018781Y006168D01*
X018851Y006131D02*
X019305Y006131D01*
X019305Y005973D02*
X019104Y005973D01*
X019061Y006006D02*
X019061Y006006D01*
X019189Y005907D02*
X019189Y005907D01*
X019288Y005814D02*
X019305Y005814D01*
X018925Y006093D02*
X018925Y006093D01*
D27*
X003285Y012002D02*
X001885Y013402D01*
X001885Y018302D01*
X001285Y018902D01*
X001285Y019702D01*
X001885Y020302D01*
X002285Y020302D01*
X003285Y012052D02*
X003285Y012002D01*
D28*
X005385Y015002D02*
X005235Y015102D01*
X005235Y024252D01*
X006385Y025402D01*
X006385Y032952D01*
X010585Y032952D01*
X010785Y033137D01*
X010785Y032467D02*
X010785Y031802D01*
X011185Y031352D02*
X011285Y031352D01*
X011285Y028602D01*
X013735Y026152D01*
X013735Y024702D01*
X013985Y024452D01*
X014185Y024452D01*
X014335Y024302D01*
X014335Y022802D01*
X013985Y023202D02*
X013985Y024102D01*
X013535Y024552D01*
X013535Y026002D01*
X012885Y026652D01*
X011535Y026652D01*
X011535Y019602D01*
X010585Y018652D01*
X010585Y011852D01*
X008785Y010052D01*
X008785Y007352D01*
X008185Y006752D01*
X006885Y006752D01*
X006535Y006402D01*
X006285Y006302D01*
X007285Y006302D02*
X007535Y006402D01*
X010685Y006402D01*
X010685Y011652D01*
X011035Y012002D01*
X011035Y018602D01*
X010385Y018102D02*
X010385Y020502D01*
X010535Y020652D01*
X011335Y019902D02*
X011185Y019752D01*
X011335Y019902D02*
X011335Y025152D01*
X011185Y025152D01*
X011335Y025152D02*
X011335Y027952D01*
X009985Y029302D01*
X009785Y029467D01*
X009785Y030137D02*
X009785Y030802D01*
X009335Y031202D02*
X009685Y031552D01*
X009785Y031802D01*
X009335Y031202D02*
X009335Y027302D01*
X010085Y026552D01*
X010085Y024402D01*
X010435Y024402D01*
X011135Y023702D01*
X011135Y022902D01*
X010935Y022902D01*
X010785Y022717D01*
X010785Y023387D02*
X010635Y023602D01*
X010185Y024052D01*
X010085Y024402D02*
X009035Y024402D01*
X009035Y024702D01*
X009035Y024402D02*
X008985Y024402D01*
X008985Y023952D01*
X008260Y023227D01*
X008285Y023202D01*
X008285Y023152D01*
X008385Y023052D01*
X008260Y023227D02*
X008035Y023002D01*
X007869Y022802D01*
X007885Y022602D01*
X007885Y021952D01*
X007869Y021802D01*
X007685Y021652D01*
X007685Y019402D01*
X007585Y019302D01*
X006885Y019402D02*
X006885Y018702D01*
X007585Y018302D02*
X008335Y019052D01*
X008335Y021402D01*
X008685Y022352D02*
X008685Y018152D01*
X008035Y017502D01*
X008035Y016552D01*
X007685Y016402D02*
X008285Y015802D01*
X008285Y013502D01*
X008435Y013352D01*
X007735Y013752D02*
X007735Y011852D01*
X007385Y012252D02*
X007385Y014602D01*
X007035Y015502D02*
X007035Y011502D01*
X007735Y010802D01*
X007735Y007902D01*
X007385Y007552D01*
X007285Y007302D01*
X007285Y008302D02*
X007185Y008552D01*
X006835Y008902D01*
X006835Y016852D01*
X007235Y017252D01*
X007235Y021102D01*
X006785Y021552D01*
X006785Y027302D01*
X005885Y028452D02*
X006035Y028602D01*
X005885Y028452D02*
X005885Y025202D01*
X004885Y024202D01*
X004885Y017452D01*
X005635Y018652D02*
X005635Y024152D01*
X007200Y023802D02*
X007235Y024002D01*
X007235Y024352D01*
X007200Y023802D02*
X007185Y023602D01*
X007185Y023002D01*
X007200Y022802D01*
X007185Y022602D01*
X007185Y021952D01*
X007200Y021802D01*
X007869Y023802D02*
X008035Y024002D01*
X008135Y024102D01*
X008135Y024352D01*
X008485Y024502D02*
X008485Y030302D01*
X008835Y029452D02*
X009135Y029152D01*
X009135Y025952D01*
X009485Y026202D02*
X009485Y026652D01*
X009485Y026202D02*
X009735Y025952D01*
X008485Y024502D02*
X008635Y024352D01*
X007869Y023802D02*
X007685Y024002D01*
X007685Y028602D01*
X007035Y029252D01*
X009785Y023702D02*
X009135Y023052D01*
X009135Y012552D01*
X008435Y011852D01*
X008435Y009552D01*
X009335Y012252D02*
X009335Y019052D01*
X009935Y019652D01*
X010385Y018102D02*
X009685Y017402D01*
X011235Y015802D02*
X011235Y009952D01*
X011135Y009852D01*
X011035Y009702D01*
X010985Y009652D01*
X010985Y006602D01*
X011435Y006152D01*
X011435Y004602D01*
X012985Y004602D01*
X013235Y004852D01*
X013235Y005302D01*
X012935Y005602D01*
X012792Y005832D01*
X012635Y005252D02*
X012792Y005052D01*
X012635Y005252D02*
X011185Y006702D01*
X011185Y007702D01*
X011385Y007702D01*
X011535Y007887D01*
X011685Y008102D01*
X011685Y009102D01*
X012535Y009952D01*
X012535Y014402D01*
X012135Y014402D01*
X011935Y014602D01*
X011935Y014902D01*
X012035Y015002D01*
X012035Y020652D01*
X012200Y020802D01*
X012085Y020952D01*
X012085Y024152D01*
X012200Y024302D01*
X012235Y024452D01*
X012235Y025952D01*
X011885Y026302D01*
X011885Y025502D02*
X011735Y025352D01*
X011735Y016302D01*
X011235Y015802D01*
X011685Y015752D02*
X011735Y015702D01*
X011735Y013452D01*
X012185Y013002D01*
X012535Y014402D02*
X012635Y014402D01*
X012635Y016952D01*
X012785Y017102D01*
X012885Y017252D01*
X013135Y017502D01*
X013285Y017717D01*
X013435Y017902D01*
X013785Y017902D01*
X013785Y017952D01*
X013835Y018002D01*
X013985Y018002D01*
X014251Y018052D01*
X014251Y018367D02*
X014535Y018302D01*
X014685Y018302D01*
X015235Y017752D01*
X015235Y016552D01*
X016085Y016552D01*
X016485Y016152D01*
X016485Y016052D01*
X016535Y015768D01*
X016485Y015502D01*
X016485Y015152D01*
X016235Y014902D01*
X015885Y014402D02*
X015885Y015502D01*
X015905Y015768D01*
X015590Y015768D02*
X015535Y015502D01*
X015535Y012702D01*
X014935Y012402D02*
X013685Y011152D01*
X013335Y010252D02*
X012085Y009002D01*
X011685Y008002D02*
X011535Y007887D01*
X011685Y008002D02*
X014885Y008002D01*
X015035Y007887D01*
X014835Y007452D02*
X014485Y007452D01*
X014235Y007552D01*
X013619Y007552D01*
X012950Y007552D02*
X012335Y007552D01*
X012085Y007452D01*
X011735Y007452D01*
X011685Y007402D01*
X011535Y007217D01*
X013335Y010252D02*
X013335Y016702D01*
X013635Y017002D01*
X013635Y017402D01*
X013985Y017402D01*
X014251Y017422D01*
X014251Y017107D02*
X014535Y017152D01*
X014885Y017152D01*
X014885Y017502D01*
X015585Y016902D02*
X016435Y017752D01*
X016685Y016602D02*
X016785Y016602D01*
X016785Y016052D01*
X016849Y015768D01*
X017164Y015768D02*
X017135Y015502D01*
X017135Y015052D01*
X016485Y014402D01*
X016985Y014402D02*
X017435Y014852D01*
X017435Y015502D01*
X017479Y015768D01*
X017794Y015768D02*
X017735Y015502D01*
X017735Y014652D01*
X017485Y014402D01*
X018085Y014502D02*
X018085Y015502D01*
X018109Y015768D01*
X018185Y016402D02*
X018185Y016752D01*
X018535Y016752D01*
X018818Y016792D01*
X018818Y016477D02*
X018535Y016402D01*
X018535Y014802D01*
X017785Y016752D02*
X017785Y018652D01*
X017735Y018702D01*
X018185Y019102D02*
X018185Y018102D01*
X018535Y018102D01*
X018818Y018052D01*
X018818Y017737D02*
X019085Y017702D01*
X019285Y017702D01*
X019285Y010802D01*
X018685Y010202D01*
X018585Y010052D01*
X018585Y006452D01*
X015835Y006452D01*
X015685Y006952D02*
X015685Y008702D01*
X018935Y011952D01*
X017685Y010202D02*
X017685Y007302D01*
X017785Y007202D01*
X015035Y007217D02*
X014885Y007402D01*
X014835Y007452D01*
X014185Y012202D02*
X014735Y012752D01*
X014735Y015352D01*
X014885Y015502D01*
X014960Y015768D01*
X015275Y015768D02*
X015235Y016052D01*
X015235Y016152D01*
X014885Y016502D01*
X014535Y015702D02*
X014485Y015652D01*
X014485Y013002D01*
X014385Y012902D01*
X014935Y012402D02*
X014935Y014602D01*
X015085Y014752D01*
X014135Y016402D02*
X014251Y016477D01*
X014135Y016402D02*
X014135Y015352D01*
X013685Y016202D02*
X013685Y016752D01*
X013985Y016752D01*
X014251Y016792D01*
X014251Y018367D02*
X013985Y018402D01*
X013435Y018402D01*
X013285Y018387D01*
X013135Y018452D01*
X012960Y018627D01*
X012785Y018452D01*
X012785Y018402D01*
X012685Y018252D01*
X012435Y018002D01*
X012435Y014902D01*
X012285Y014752D01*
X012985Y014402D02*
X012985Y016552D01*
X012960Y018627D02*
X012885Y018702D01*
X012885Y019252D01*
X013085Y019452D01*
X013285Y019637D01*
X013585Y020002D02*
X013785Y019802D01*
X013785Y019102D01*
X013835Y019052D01*
X013985Y019052D01*
X014251Y018997D01*
X014251Y019312D02*
X014535Y019302D01*
X014885Y019302D01*
X015235Y019452D02*
X014835Y019852D01*
X014685Y019852D01*
X014685Y023602D01*
X014535Y023752D01*
X014535Y027052D01*
X014885Y027202D02*
X014535Y027552D01*
X014885Y027202D02*
X014885Y023902D01*
X014885Y020602D01*
X014960Y020335D01*
X015235Y020752D02*
X015085Y020902D01*
X015085Y023052D01*
X015235Y023202D01*
X015235Y028302D01*
X014285Y028302D01*
X013810Y028777D01*
X013435Y028402D01*
X013810Y028777D02*
X013335Y029252D01*
X013335Y032602D01*
X012985Y032952D01*
X012785Y033137D01*
X012785Y032467D02*
X012785Y031802D01*
X012785Y030802D02*
X012785Y030137D01*
X012785Y029467D02*
X012985Y029302D01*
X013085Y029202D01*
X013085Y028002D01*
X012535Y028052D02*
X012535Y028752D01*
X011985Y029302D01*
X011785Y029467D01*
X011785Y030137D02*
X011785Y030802D01*
X011185Y031352D02*
X011335Y031502D01*
X011335Y032702D01*
X011585Y032952D01*
X011785Y033137D01*
X011785Y032467D02*
X011785Y031802D01*
X010785Y030802D02*
X010785Y030137D01*
X010785Y029467D02*
X010785Y028802D01*
X011735Y027852D01*
X011735Y027302D01*
X012735Y026302D02*
X013285Y025752D01*
X013285Y020452D01*
X013585Y020152D01*
X013585Y020002D01*
X014285Y019702D02*
X014251Y019627D01*
X014285Y019702D02*
X014285Y021752D01*
X015285Y022202D02*
X015435Y022052D01*
X015285Y022202D02*
X015285Y022952D01*
X015435Y023102D01*
X015435Y028452D01*
X014435Y029452D01*
X014335Y029602D01*
X013985Y029602D01*
X013785Y029467D01*
X013785Y030137D02*
X013785Y030802D01*
X014335Y030102D02*
X014585Y029852D01*
X017335Y029852D01*
X017335Y029902D01*
X016785Y029387D02*
X016935Y029202D01*
X017885Y029202D01*
X017885Y024402D01*
X017535Y023902D02*
X017535Y028252D01*
X017285Y028502D01*
X016935Y028502D02*
X016785Y028717D01*
X016935Y028502D02*
X016935Y027302D01*
X017035Y027152D01*
X017185Y027002D01*
X017185Y022152D01*
X017035Y022002D01*
X017085Y021452D02*
X016869Y021302D01*
X016685Y021452D01*
X016685Y023552D01*
X016235Y023202D02*
X015885Y023202D01*
X015735Y023352D01*
X015735Y028102D01*
X016285Y028652D01*
X016285Y029452D02*
X016635Y029452D01*
X016785Y029387D01*
X016285Y027352D02*
X016085Y027152D01*
X016085Y024802D01*
X015785Y022802D02*
X015785Y020852D01*
X015885Y020752D01*
X015885Y020355D01*
X015905Y020335D01*
X016220Y020335D02*
X016185Y020052D01*
X016185Y019752D01*
X015785Y019352D01*
X015235Y019352D01*
X015235Y019452D01*
X015635Y019702D02*
X015635Y020052D01*
X015590Y020335D01*
X015275Y020335D02*
X015235Y020602D01*
X015235Y020752D01*
X016200Y021302D02*
X016585Y020917D01*
X016585Y020602D01*
X016535Y020335D01*
X016585Y020052D01*
X016585Y019952D01*
X016785Y019752D01*
X016785Y016602D01*
X017185Y016602D02*
X017185Y020052D01*
X017164Y020335D01*
X017479Y020335D02*
X017535Y020602D01*
X017535Y020752D01*
X017685Y020902D01*
X018335Y020902D01*
X018335Y020952D01*
X018119Y021552D02*
X017935Y021752D01*
X017885Y021802D01*
X017885Y022252D01*
X017785Y022802D01*
X017885Y023352D01*
X017885Y023552D01*
X018985Y023552D01*
X019285Y023252D01*
X019285Y018702D01*
X019085Y018702D01*
X018818Y018682D01*
X018818Y019627D02*
X018535Y019602D01*
X018185Y019602D01*
X018535Y020052D02*
X018685Y020202D01*
X018685Y022252D01*
X018785Y022802D01*
X017450Y021552D02*
X017285Y021452D01*
X017085Y021452D01*
X016869Y021302D02*
X016835Y021152D01*
X016835Y020602D01*
X016849Y020335D01*
X016235Y021302D02*
X016235Y021702D01*
X016335Y021802D01*
X016235Y021302D02*
X016200Y021302D01*
X014885Y018802D02*
X014885Y018702D01*
X014535Y018702D01*
X014251Y018682D01*
X013985Y018702D01*
X013885Y018702D01*
X013835Y018752D01*
X013835Y018802D01*
X013485Y018802D01*
X013285Y018967D01*
X012869Y020802D02*
X012685Y020952D01*
X012635Y021002D01*
X012635Y021352D01*
X012535Y021602D01*
X012535Y023502D02*
X012635Y023752D01*
X012635Y024102D01*
X012685Y024152D01*
X012869Y024302D01*
X014135Y024802D02*
X014185Y024852D01*
X014185Y027952D01*
X018585Y026152D02*
X018585Y025552D01*
X018785Y025302D01*
X018135Y017602D02*
X018135Y017452D01*
X018535Y017452D01*
X018818Y017422D01*
X018818Y017107D02*
X018535Y017102D01*
X018185Y017102D01*
X008785Y022452D02*
X008685Y022352D01*
X005635Y018652D02*
X006885Y017402D01*
X007685Y016952D02*
X007685Y016402D01*
X007185Y015652D02*
X007035Y015502D01*
X006185Y014902D02*
X006185Y010852D01*
X006285Y010302D01*
X005785Y012602D02*
X005385Y013002D01*
X005385Y015002D01*
X005585Y015502D02*
X006185Y014902D01*
D29*
X005585Y015502D03*
X005235Y015102D03*
X005785Y012602D03*
X007385Y012252D03*
X007735Y011852D03*
X008435Y013352D03*
X007735Y013752D03*
X007385Y014602D03*
X007185Y015652D03*
X007685Y016952D03*
X008035Y016552D03*
X007585Y018302D03*
X006885Y018702D03*
X006885Y019402D03*
X007585Y019302D03*
X006885Y017402D03*
X004885Y017452D03*
X003285Y017302D03*
X003785Y020302D03*
X003285Y023552D03*
X004285Y025552D03*
X005635Y024152D03*
X007235Y024352D03*
X008135Y024352D03*
X008635Y024352D03*
X009035Y024702D03*
X009135Y025952D03*
X009485Y026652D03*
X009735Y025952D03*
X010185Y024052D03*
X009785Y023702D03*
X008785Y022452D03*
X008385Y023052D03*
X008335Y021402D03*
X009535Y021552D03*
X010535Y020652D03*
X011185Y019752D03*
X011035Y018602D03*
X009935Y019652D03*
X009685Y017402D03*
X011685Y015752D03*
X012285Y014752D03*
X012985Y014402D03*
X012185Y013002D03*
X013685Y011152D03*
X014185Y012202D03*
X014385Y012902D03*
X015085Y014752D03*
X014535Y015702D03*
X014135Y015352D03*
X013685Y016202D03*
X012985Y016552D03*
X012885Y017252D03*
X012785Y018402D03*
X013585Y020152D03*
X014285Y021752D03*
X014335Y022802D03*
X013985Y023202D03*
X013985Y024102D03*
X014135Y024802D03*
X014885Y023902D03*
X015785Y022802D03*
X016235Y023202D03*
X016685Y023552D03*
X017535Y023902D03*
X017885Y024402D03*
X018585Y026152D03*
X017285Y028502D03*
X016935Y027302D03*
X016285Y027352D03*
X016285Y028652D03*
X016285Y029452D03*
X017335Y029902D03*
X015285Y032552D03*
X014335Y030102D03*
X014335Y029602D03*
X013435Y028402D03*
X013085Y028002D03*
X012535Y028052D03*
X011735Y027302D03*
X011885Y026302D03*
X011885Y025502D03*
X011185Y025152D03*
X012735Y026302D03*
X014185Y027952D03*
X014535Y027552D03*
X014535Y027052D03*
X016085Y024802D03*
X015435Y022052D03*
X016335Y021802D03*
X017035Y022002D03*
X018185Y019602D03*
X018185Y019102D03*
X017735Y018702D03*
X018135Y017602D03*
X018185Y017102D03*
X017785Y016752D03*
X018185Y016402D03*
X018535Y014802D03*
X018085Y014502D03*
X017485Y014402D03*
X016985Y014402D03*
X016485Y014402D03*
X016235Y014902D03*
X015885Y014402D03*
X015535Y012702D03*
X015535Y010802D03*
X017685Y010202D03*
X018685Y010202D03*
X018885Y011252D03*
X018935Y011952D03*
X017785Y012302D03*
X017185Y016602D03*
X016685Y016602D03*
X016435Y017752D03*
X015585Y016902D03*
X014885Y016502D03*
X014885Y017502D03*
X014885Y018802D03*
X014885Y019302D03*
X015635Y019702D03*
X018335Y020952D03*
X018535Y020052D03*
X012535Y022552D03*
X008835Y029452D03*
X008485Y030302D03*
X008035Y028802D03*
X007035Y029252D03*
X006035Y028602D03*
X006785Y027302D03*
X011185Y031352D03*
X001535Y025552D03*
X001785Y013552D03*
X005035Y009552D03*
X008435Y009552D03*
X009035Y011302D03*
X009335Y012252D03*
X009785Y014052D03*
X009785Y009802D03*
X011035Y009702D03*
X012085Y009002D03*
X013285Y008302D03*
X014785Y005402D03*
X015835Y006452D03*
X015685Y006952D03*
X017785Y007202D03*
X019135Y006202D03*
M02*
