G75*
G70*
%OFA0B0*%
%FSLAX24Y24*%
%IPPOS*%
%LPD*%
%AMOC8*
5,1,8,0,0,1.08239X$1,22.5*
%
%ADD10R,0.0630X0.0236*%
%ADD11R,0.0236X0.0630*%
%ADD12OC8,0.0672*%
%ADD13C,0.0672*%
%ADD14C,0.1560*%
%ADD15R,0.0472X0.0512*%
%ADD16R,0.0512X0.0472*%
%ADD17OC8,0.0720*%
%ADD18C,0.0624*%
%ADD19C,0.1559*%
%ADD20O,0.1320X0.0720*%
%ADD21O,0.1650X0.0900*%
%ADD22O,0.0672X0.1232*%
%ADD23O,0.1232X0.0672*%
%ADD24O,0.1992X0.1087*%
%ADD25O,0.1087X0.1992*%
%ADD26C,0.0480*%
D10*
X014251Y016477D03*
X014251Y016792D03*
X014251Y017107D03*
X014251Y017422D03*
X014251Y017737D03*
X014251Y018052D03*
X014251Y018367D03*
X014251Y018682D03*
X014251Y018997D03*
X014251Y019312D03*
X014251Y019627D03*
X018818Y019627D03*
X018818Y019312D03*
X018818Y018997D03*
X018818Y018682D03*
X018818Y018367D03*
X018818Y018052D03*
X018818Y017737D03*
X018818Y017422D03*
X018818Y017107D03*
X018818Y016792D03*
X018818Y016477D03*
D11*
X018109Y015768D03*
X017794Y015768D03*
X017479Y015768D03*
X017164Y015768D03*
X016849Y015768D03*
X016535Y015768D03*
X016220Y015768D03*
X015905Y015768D03*
X015590Y015768D03*
X015275Y015768D03*
X014960Y015768D03*
X014960Y020335D03*
X015275Y020335D03*
X015590Y020335D03*
X015905Y020335D03*
X016220Y020335D03*
X016535Y020335D03*
X016849Y020335D03*
X017164Y020335D03*
X017479Y020335D03*
X017794Y020335D03*
X018109Y020335D03*
D12*
X013785Y030802D03*
X013785Y031802D03*
X012785Y031802D03*
X012785Y030802D03*
X011785Y030802D03*
X011785Y031802D03*
X010785Y031802D03*
X010785Y030802D03*
X009785Y030802D03*
X009785Y031802D03*
X007285Y008302D03*
X007285Y007302D03*
X007285Y006302D03*
X006285Y006302D03*
X006285Y007302D03*
X006285Y008302D03*
D13*
X012792Y005832D03*
X012792Y005052D03*
X013777Y005052D03*
X013777Y005832D03*
D14*
X015655Y003982D03*
X010915Y003982D03*
D15*
X011535Y007217D03*
X011535Y007887D03*
X012950Y007552D03*
X013619Y007552D03*
X015035Y007887D03*
X015035Y007217D03*
X013285Y017717D03*
X013285Y018387D03*
X010785Y022717D03*
X010785Y023387D03*
X007869Y023802D03*
X007869Y022802D03*
X007200Y022802D03*
X007200Y023802D03*
X016785Y028717D03*
X016785Y029387D03*
X017450Y021552D03*
X018119Y021552D03*
D16*
X016869Y021302D03*
X016200Y021302D03*
X013285Y019637D03*
X013285Y018967D03*
X012869Y020802D03*
X012200Y020802D03*
X012200Y024302D03*
X012869Y024302D03*
X012785Y029467D03*
X012785Y030137D03*
X013785Y030137D03*
X013785Y029467D03*
X011785Y029467D03*
X011785Y030137D03*
X010785Y030137D03*
X010785Y029467D03*
X009785Y029467D03*
X009785Y030137D03*
X010785Y032467D03*
X010785Y033137D03*
X011785Y033137D03*
X011785Y032467D03*
X012785Y032467D03*
X012785Y033137D03*
X007869Y021802D03*
X007200Y021802D03*
D17*
X009785Y018802D03*
D18*
X012535Y021602D03*
X012535Y023502D03*
X012335Y007552D03*
X014235Y007552D03*
D19*
X002535Y004552D03*
X018035Y004552D03*
X018035Y032052D03*
D20*
X002285Y021302D03*
X002285Y020302D03*
X002285Y019302D03*
D21*
X003285Y013552D03*
X003285Y012052D03*
D22*
X006285Y010302D03*
X007285Y010302D03*
X017785Y022802D03*
X018785Y022802D03*
X015785Y030802D03*
X014785Y030802D03*
D23*
X018785Y025302D03*
X018785Y024302D03*
D24*
X003785Y030331D03*
X003785Y032733D03*
D25*
X005674Y031552D03*
D26*
X007035Y029252D03*
X008035Y028802D03*
X008835Y029452D03*
X008485Y030302D03*
X006785Y027302D03*
X006035Y028602D03*
X004285Y025552D03*
X003285Y023552D03*
X001535Y025552D03*
X003785Y020302D03*
X004885Y017452D03*
X005585Y015502D03*
X005235Y015102D03*
X005785Y012602D03*
X007385Y012252D03*
X007735Y011852D03*
X008435Y013352D03*
X007735Y013752D03*
X007385Y014602D03*
X007185Y015652D03*
X007685Y016952D03*
X008035Y016552D03*
X007585Y018302D03*
X006885Y018702D03*
X006885Y019402D03*
X007585Y019302D03*
X006885Y017402D03*
X008335Y021402D03*
X008785Y022452D03*
X008385Y023052D03*
X008635Y024352D03*
X008135Y024352D03*
X007235Y024352D03*
X005635Y024152D03*
X009035Y024702D03*
X009135Y025952D03*
X009485Y026652D03*
X009735Y025952D03*
X010185Y024052D03*
X009785Y023702D03*
X009535Y021552D03*
X010535Y020652D03*
X011185Y019752D03*
X011035Y018602D03*
X009935Y019652D03*
X009685Y017402D03*
X011685Y015752D03*
X012285Y014752D03*
X012985Y014402D03*
X012185Y013002D03*
X013685Y011152D03*
X014185Y012202D03*
X014385Y012902D03*
X015085Y014752D03*
X014535Y015702D03*
X014135Y015352D03*
X013685Y016202D03*
X012985Y016552D03*
X012885Y017252D03*
X012785Y018402D03*
X013585Y020152D03*
X014285Y021752D03*
X014335Y022802D03*
X013985Y023202D03*
X013985Y024102D03*
X014135Y024802D03*
X014885Y023902D03*
X015785Y022802D03*
X016235Y023202D03*
X016685Y023552D03*
X017535Y023902D03*
X017885Y024402D03*
X018585Y026152D03*
X017285Y028502D03*
X016935Y027302D03*
X016285Y027352D03*
X016285Y028652D03*
X016285Y029452D03*
X017335Y029902D03*
X015285Y032552D03*
X014335Y030102D03*
X014335Y029602D03*
X013435Y028402D03*
X013085Y028002D03*
X012535Y028052D03*
X011735Y027302D03*
X011885Y026302D03*
X011885Y025502D03*
X011185Y025152D03*
X012735Y026302D03*
X014185Y027952D03*
X014535Y027552D03*
X014535Y027052D03*
X016085Y024802D03*
X015435Y022052D03*
X016335Y021802D03*
X017035Y022002D03*
X018185Y019602D03*
X018185Y019102D03*
X017735Y018702D03*
X018135Y017602D03*
X018185Y017102D03*
X017785Y016752D03*
X018185Y016402D03*
X018535Y014802D03*
X018085Y014502D03*
X017485Y014402D03*
X016985Y014402D03*
X016485Y014402D03*
X016235Y014902D03*
X015885Y014402D03*
X015535Y012702D03*
X015535Y010802D03*
X017685Y010202D03*
X018685Y010202D03*
X018885Y011252D03*
X018935Y011952D03*
X017785Y012302D03*
X017185Y016602D03*
X016685Y016602D03*
X016435Y017752D03*
X015585Y016902D03*
X014885Y016502D03*
X014885Y017502D03*
X014885Y018802D03*
X014885Y019302D03*
X015635Y019702D03*
X018335Y020952D03*
X018535Y020052D03*
X012535Y022552D03*
X009785Y014052D03*
X009335Y012252D03*
X009035Y011302D03*
X009785Y009802D03*
X011035Y009702D03*
X012085Y009002D03*
X013285Y008302D03*
X014785Y005402D03*
X015835Y006452D03*
X015685Y006952D03*
X017785Y007202D03*
X019135Y006202D03*
X008435Y009552D03*
X005035Y009552D03*
X001785Y013552D03*
X003285Y017302D03*
X011185Y031352D03*
M02*
