G75*
G70*
%OFA0B0*%
%FSLAX24Y24*%
%IPPOS*%
%LPD*%
%AMOC8*
5,1,8,0,0,1.08239X$1,22.5*
%
%ADD10C,0.0700*%
%ADD11C,0.0400*%
%ADD12R,0.0408X0.0468*%
%ADD13R,0.0614X0.0693*%
%ADD14R,0.0516X0.0260*%
%ADD15R,0.0468X0.0408*%
%ADD16R,0.0630X0.0472*%
%ADD17R,0.0693X0.0614*%
%ADD18R,0.0843X0.0803*%
%ADD19R,0.0472X0.0512*%
%ADD20R,0.0841X0.0991*%
%ADD21R,0.0512X0.0472*%
%ADD22R,0.0472X0.0630*%
%ADD23R,0.0260X0.0516*%
%ADD24C,0.0624*%
%ADD25O,0.0624X0.1144*%
%ADD26R,0.0414X0.0144*%
%ADD27R,0.0236X0.0630*%
%ADD28R,0.0630X0.0236*%
%ADD29OC8,0.0672*%
%ADD30C,0.2700*%
%ADD31O,0.0990X0.1815*%
%ADD32OC8,0.0720*%
%ADD33R,0.0283X0.0913*%
%ADD34OC8,0.0912*%
%ADD35OC8,0.0480*%
%ADD36OC8,0.0600*%
D10*
X016686Y003942D02*
X016686Y007042D01*
X016586Y007142D01*
X016586Y007242D02*
X017336Y006492D01*
X017336Y003892D01*
X017186Y003742D01*
X016886Y003742D01*
X016686Y003942D01*
X016736Y004542D02*
X016736Y004692D01*
X017736Y005692D01*
X017736Y006842D01*
X018086Y007192D01*
X016586Y007242D02*
X016586Y007392D01*
X023986Y004642D02*
X024036Y004642D01*
X024886Y005492D01*
D11*
X026386Y004392D02*
X026586Y004192D01*
X026586Y004042D01*
X026486Y003942D01*
X026286Y003942D01*
X026386Y004242D02*
X026886Y003742D01*
X026886Y003692D01*
X026386Y004242D02*
X026386Y004392D01*
X012386Y003492D02*
X011936Y003942D01*
X011936Y003442D01*
X012036Y003342D01*
X012186Y003342D01*
X012386Y003342D02*
X012386Y003492D01*
D12*
X014161Y003892D03*
X014810Y003892D03*
X015061Y002742D03*
X015061Y002192D03*
X015710Y002192D03*
X015710Y002742D03*
X021411Y003642D03*
X022060Y003642D03*
X028261Y005792D03*
X028910Y005792D03*
X028611Y005242D03*
X029260Y005242D03*
X031411Y014142D03*
X032060Y014142D03*
X032060Y014892D03*
X031411Y014892D03*
X025710Y017092D03*
X025061Y017092D03*
X023210Y018142D03*
X022561Y018142D03*
X021160Y016492D03*
X020511Y016492D03*
X020511Y015942D03*
X021160Y015942D03*
X021461Y015142D03*
X021461Y014642D03*
X021461Y014142D03*
X022110Y014142D03*
X022110Y014642D03*
X022110Y015142D03*
X022611Y015142D03*
X023260Y015142D03*
X017960Y018642D03*
X017311Y018642D03*
X016810Y018642D03*
X016161Y018642D03*
X007610Y013392D03*
X006961Y013392D03*
X006760Y004492D03*
X006111Y004492D03*
X007611Y002942D03*
X008260Y002942D03*
D13*
X010301Y004292D03*
X010970Y004292D03*
X024551Y004392D03*
X025220Y004392D03*
D14*
X021848Y002966D03*
X021849Y002592D03*
X021848Y002218D03*
X020824Y002218D03*
X020824Y002592D03*
X020824Y002966D03*
X029424Y005818D03*
X029424Y006192D03*
X029424Y006566D03*
X030448Y006566D03*
X030449Y006192D03*
X030448Y005818D03*
X006848Y003816D03*
X006848Y003442D03*
X006848Y003068D03*
X005824Y003068D03*
X005823Y003442D03*
X005824Y003816D03*
D15*
X007586Y003567D03*
X007586Y004216D03*
X010266Y008256D03*
X010266Y008905D03*
X013636Y004366D03*
X013636Y003717D03*
X019786Y003966D03*
X019786Y003317D03*
X019736Y002766D03*
X019736Y002117D03*
X020386Y003567D03*
X020386Y004216D03*
X029786Y007117D03*
X030336Y007117D03*
X030336Y007766D03*
X029786Y007766D03*
X019686Y012667D03*
X019686Y013316D03*
X021136Y017617D03*
X021136Y018266D03*
X027036Y017916D03*
X027036Y017267D03*
X029586Y019317D03*
X029586Y019966D03*
X030586Y019966D03*
X030586Y019317D03*
X014586Y018866D03*
X014586Y018217D03*
X011586Y018066D03*
X011586Y017417D03*
X011586Y016966D03*
X011586Y016317D03*
X009086Y017017D03*
X009086Y017666D03*
X009136Y018717D03*
X009136Y019366D03*
X004936Y018966D03*
X004936Y018317D03*
D16*
X008253Y014416D03*
X008253Y013668D03*
X009119Y014042D03*
X019653Y017892D03*
X020519Y018266D03*
X020519Y017518D03*
X031203Y005916D03*
X031203Y005168D03*
X032069Y005542D03*
D17*
X009386Y015657D03*
X009386Y016326D03*
X005586Y016276D03*
X005586Y015607D03*
D18*
X009829Y003342D03*
X011443Y003342D03*
X024079Y003592D03*
X025693Y003592D03*
D19*
X013570Y016842D03*
X012901Y016842D03*
X012901Y017642D03*
X013570Y017642D03*
X008170Y018442D03*
X007501Y018442D03*
X006970Y018442D03*
X006301Y018442D03*
X004370Y018192D03*
X003701Y018192D03*
X006901Y014592D03*
X007570Y014592D03*
D20*
X018086Y006492D03*
X019689Y006492D03*
D21*
X020336Y012657D03*
X020336Y013326D03*
X027151Y014142D03*
X027820Y014142D03*
X012236Y016207D03*
X012236Y016876D03*
X012236Y017407D03*
X012236Y018076D03*
X002886Y017876D03*
X002886Y017207D03*
X002886Y015926D03*
X002886Y015257D03*
D22*
X003036Y006675D03*
X003410Y005809D03*
X002662Y005809D03*
D23*
X013762Y003154D03*
X014136Y003154D03*
X014510Y003154D03*
X014510Y002130D03*
X014136Y002129D03*
X013762Y002130D03*
D24*
X011786Y019092D03*
X010786Y019092D03*
X011286Y020092D03*
X010286Y020092D03*
X015986Y019492D03*
X017886Y019492D03*
D25*
X009786Y014642D03*
X009786Y011642D03*
D26*
X028537Y013490D03*
X028537Y013746D03*
X028537Y014002D03*
X028537Y014258D03*
X028537Y014514D03*
X028537Y014770D03*
X028537Y015026D03*
X028537Y015281D03*
X028537Y015537D03*
X028537Y015793D03*
X030834Y015793D03*
X030834Y015537D03*
X030834Y015281D03*
X030834Y015026D03*
X030834Y014770D03*
X030834Y014514D03*
X030834Y014258D03*
X030834Y014002D03*
X030834Y013746D03*
X030834Y013490D03*
D27*
X019111Y013308D03*
X018796Y013308D03*
X018481Y013308D03*
X018166Y013308D03*
X017851Y013308D03*
X017536Y013308D03*
X017221Y013308D03*
X016906Y013308D03*
X016591Y013308D03*
X016276Y013308D03*
X015961Y013308D03*
X015961Y017875D03*
X016276Y017875D03*
X016591Y017875D03*
X016906Y017875D03*
X017221Y017875D03*
X017536Y017875D03*
X017851Y017875D03*
X018166Y017875D03*
X018481Y017875D03*
X018796Y017875D03*
X019111Y017875D03*
D28*
X019819Y017166D03*
X019819Y016851D03*
X019819Y016537D03*
X019819Y016222D03*
X019819Y015907D03*
X019819Y015592D03*
X019819Y015277D03*
X019819Y014962D03*
X019819Y014647D03*
X019819Y014332D03*
X019819Y014017D03*
X015252Y014017D03*
X015252Y014332D03*
X015252Y014647D03*
X015252Y014962D03*
X015252Y015277D03*
X015252Y015592D03*
X015252Y015907D03*
X015252Y016222D03*
X015252Y016537D03*
X015252Y016851D03*
X015252Y017166D03*
D29*
X020886Y019092D03*
X021886Y019092D03*
X022886Y019092D03*
X023886Y019092D03*
X024886Y019092D03*
X024886Y020092D03*
X023886Y020092D03*
X022886Y020092D03*
X021886Y020092D03*
X020886Y020092D03*
D30*
X003486Y003242D03*
X030986Y003242D03*
D31*
X025886Y004092D03*
X023886Y004092D03*
X018836Y004142D03*
X016836Y004142D03*
X011636Y004142D03*
X009636Y004142D03*
D32*
X017936Y011092D03*
X018936Y011092D03*
X018936Y012092D03*
X017936Y012092D03*
D33*
X008336Y015568D03*
X007836Y015568D03*
X007336Y015568D03*
X006836Y015568D03*
X004936Y015368D03*
X004436Y015368D03*
X003936Y015368D03*
X003436Y015368D03*
X003436Y017415D03*
X003936Y017415D03*
X004436Y017415D03*
X004936Y017415D03*
X006836Y017615D03*
X007336Y017615D03*
X007836Y017615D03*
X008336Y017615D03*
D34*
X012536Y007342D03*
X012536Y003342D03*
X026936Y003642D03*
X026936Y007642D03*
D35*
X026786Y008542D03*
X028136Y008092D03*
X026236Y009942D03*
X024836Y011692D03*
X025486Y012092D03*
X025286Y012892D03*
X026086Y012892D03*
X026736Y012942D03*
X027336Y012842D03*
X027886Y012792D03*
X029586Y012942D03*
X030286Y013592D03*
X030286Y014142D03*
X030036Y014642D03*
X030236Y015142D03*
X029636Y015642D03*
X028736Y016542D03*
X027986Y015692D03*
X027486Y015742D03*
X028036Y014642D03*
X026636Y014092D03*
X025836Y015242D03*
X025686Y016442D03*
X026186Y016442D03*
X026486Y017242D03*
X025986Y017642D03*
X026486Y017892D03*
X026886Y018892D03*
X025686Y019092D03*
X024436Y018692D03*
X023386Y018692D03*
X024436Y017642D03*
X024236Y017092D03*
X025186Y017642D03*
X024836Y016442D03*
X024236Y016392D03*
X023886Y015992D03*
X023086Y015642D03*
X022086Y017092D03*
X021636Y017642D03*
X020036Y019742D03*
X019286Y020142D03*
X018786Y019692D03*
X015536Y017892D03*
X016336Y017242D03*
X016886Y017242D03*
X017836Y017242D03*
X019036Y016142D03*
X019136Y015642D03*
X019136Y015092D03*
X018336Y015942D03*
X017586Y014942D03*
X017386Y014142D03*
X016886Y013942D03*
X016336Y013942D03*
X017886Y014142D03*
X017086Y015692D03*
X016186Y015592D03*
X015886Y016642D03*
X014386Y015242D03*
X014386Y014692D03*
X013686Y014942D03*
X013336Y014542D03*
X012986Y014992D03*
X011836Y014942D03*
X011736Y013942D03*
X012436Y013592D03*
X011036Y013442D03*
X009936Y013392D03*
X009036Y014692D03*
X008486Y014892D03*
X006436Y013942D03*
X006336Y014642D03*
X006086Y015692D03*
X005386Y017642D03*
X005536Y018292D03*
X008186Y019242D03*
X009736Y017992D03*
X009786Y016692D03*
X011086Y016592D03*
X012836Y018942D03*
X012536Y019692D03*
X013436Y020242D03*
X015136Y019792D03*
X015236Y018892D03*
X020436Y014392D03*
X020886Y014092D03*
X020436Y013642D03*
X022136Y012842D03*
X023086Y013792D03*
X019586Y012192D03*
X017336Y010092D03*
X018436Y008992D03*
X018286Y007442D03*
X017186Y006342D03*
X016736Y005592D03*
X017886Y005592D03*
X019486Y005442D03*
X021336Y004492D03*
X021586Y005692D03*
X022886Y003842D03*
X024636Y002842D03*
X024836Y005442D03*
X026786Y006142D03*
X023886Y008142D03*
X023336Y010092D03*
X029836Y010842D03*
X030936Y011642D03*
X031836Y011692D03*
X032186Y013192D03*
X031436Y016192D03*
X028286Y018542D03*
X029086Y018642D03*
X029586Y018642D03*
X030086Y018642D03*
X030586Y018642D03*
X031086Y018642D03*
X031586Y020092D03*
X026236Y020342D03*
X016636Y012242D03*
X014236Y012042D03*
X013536Y012542D03*
X012986Y012392D03*
X009136Y011642D03*
X007136Y010792D03*
X005386Y010392D03*
X006736Y008342D03*
X008136Y006992D03*
X009236Y005042D03*
X008086Y003692D03*
X008636Y003192D03*
X008586Y002592D03*
X010186Y002592D03*
X012986Y004442D03*
X015136Y003442D03*
X016336Y002342D03*
X016986Y002792D03*
X018486Y002092D03*
X015436Y006142D03*
X016586Y007442D03*
X015136Y009242D03*
X010786Y007292D03*
X010186Y009492D03*
X004836Y007392D03*
X005136Y005342D03*
X005636Y005242D03*
X006136Y005242D03*
X006086Y002592D03*
X005036Y002142D03*
X002286Y004442D03*
X004436Y012692D03*
X005236Y013742D03*
X002536Y013242D03*
X028086Y003242D03*
X028436Y003742D03*
X029286Y002042D03*
X032136Y004892D03*
X031486Y007692D03*
D36*
X022536Y006692D03*
X021886Y006442D03*
X016036Y012592D03*
X015386Y012592D03*
X014586Y013842D03*
X014036Y014192D03*
X011786Y005692D03*
X011186Y005692D03*
M02*
