G75*
G70*
%OFA0B0*%
%FSLAX24Y24*%
%IPPOS*%
%LPD*%
%AMOC8*
5,1,8,0,0,1.08239X$1,22.5*
%
%ADD10C,0.0100*%
%ADD11C,0.0160*%
%ADD12C,0.0110*%
D10*
X000887Y001492D02*
X000887Y020842D01*
X031887Y020842D01*
X000887Y020842D01*
X000887Y001492D01*
X031887Y001492D01*
X031887Y020842D01*
X031887Y001492D01*
X000887Y001492D01*
X006337Y001442D02*
X006337Y000242D01*
X007387Y000242D01*
X008087Y000242D01*
X009387Y000242D01*
X010087Y000242D01*
X011137Y000242D01*
X011137Y001442D01*
X011137Y004992D01*
X009987Y004992D01*
X009820Y005258D02*
X009820Y005525D01*
X009687Y005392D02*
X009954Y005392D01*
X009487Y004992D02*
X007987Y004992D01*
X007487Y004992D02*
X006337Y004992D01*
X006337Y001442D01*
X011137Y001442D01*
X009937Y000742D02*
X009537Y000742D01*
X009387Y000242D01*
X010087Y000242D02*
X009937Y000742D01*
X008087Y000242D02*
X007937Y000742D01*
X007537Y000742D01*
X007387Y000242D01*
X013387Y000242D02*
X013387Y001442D01*
X018187Y001442D01*
X018187Y000242D01*
X017137Y000242D01*
X016437Y000242D01*
X016587Y000742D01*
X016987Y000742D01*
X017137Y000242D01*
X016437Y000242D02*
X015137Y000242D01*
X014437Y000242D01*
X014587Y000742D01*
X014987Y000742D01*
X015137Y000242D01*
X014437Y000242D02*
X013387Y000242D01*
X013387Y001442D02*
X013387Y004992D01*
X014537Y004992D01*
X015037Y004992D02*
X016537Y004992D01*
X017037Y004992D02*
X018187Y004992D01*
X018187Y001442D01*
X020587Y001392D02*
X020587Y000192D01*
X021637Y000192D01*
X022337Y000192D01*
X023637Y000192D01*
X024337Y000192D01*
X025387Y000192D01*
X025387Y001392D01*
X025387Y004942D01*
X024237Y004942D01*
X023737Y004942D02*
X022237Y004942D01*
X022004Y005192D02*
X021737Y005192D01*
X021737Y004942D02*
X020587Y004942D01*
X020587Y001392D01*
X025387Y001392D01*
X024187Y000692D02*
X023787Y000692D01*
X023637Y000192D01*
X024337Y000192D02*
X024187Y000692D01*
X022337Y000192D02*
X022187Y000692D01*
X021787Y000692D01*
X021637Y000192D01*
X023520Y005158D02*
X023520Y005425D01*
X023387Y005292D02*
X023654Y005292D01*
X017704Y005442D02*
X017437Y005442D01*
X017570Y005575D02*
X017570Y005308D01*
X014704Y006042D02*
X014437Y006042D01*
X014537Y010042D02*
X014537Y010309D01*
X014670Y010442D01*
X014804Y010309D01*
X014804Y010042D01*
X014804Y010242D02*
X014537Y010242D01*
X014437Y010592D02*
X014937Y010592D01*
X015187Y010842D01*
X015187Y012342D01*
X015437Y012592D01*
X015937Y012592D01*
X016187Y012342D01*
X016187Y010842D01*
X015937Y010592D01*
X015437Y010592D01*
X015187Y010842D01*
X015587Y010442D02*
X015787Y010442D01*
X015854Y010375D01*
X015854Y010309D01*
X015787Y010242D01*
X015587Y010242D01*
X015587Y010042D02*
X015587Y010442D01*
X015787Y010242D02*
X015854Y010175D01*
X015854Y010108D01*
X015787Y010042D01*
X015587Y010042D01*
X014437Y010592D02*
X014187Y010842D01*
X014187Y012342D01*
X014437Y012592D01*
X014937Y012592D01*
X015187Y012342D01*
X019787Y014892D02*
X020187Y014892D01*
X020187Y015159D01*
X020187Y015352D02*
X020187Y015619D01*
X020187Y015812D02*
X020187Y016013D01*
X020120Y016079D01*
X019853Y016079D01*
X019787Y016013D01*
X019787Y015812D01*
X020187Y015812D01*
X019987Y015485D02*
X019987Y015352D01*
X019787Y015352D02*
X020187Y015352D01*
X020587Y015402D02*
X020587Y015669D01*
X020587Y015862D02*
X020587Y016063D01*
X020653Y016129D01*
X020920Y016129D01*
X020987Y016063D01*
X020987Y015862D01*
X020587Y015862D01*
X020987Y015669D02*
X020987Y015402D01*
X020587Y015402D01*
X020787Y015402D02*
X020787Y015535D01*
X020987Y015209D02*
X020987Y014942D01*
X020587Y014942D01*
X019787Y015352D02*
X019787Y015619D01*
X019853Y016273D02*
X019787Y016339D01*
X019787Y016473D01*
X019853Y016540D01*
X019920Y016540D01*
X019987Y016473D01*
X020054Y016540D01*
X020120Y016540D01*
X020187Y016473D01*
X020187Y016339D01*
X020120Y016273D01*
X019987Y016406D02*
X019987Y016473D01*
X020587Y016523D02*
X020787Y016323D01*
X020787Y016590D01*
X020987Y016523D02*
X020587Y016523D01*
X017787Y018692D02*
X015387Y018692D01*
X015331Y018694D01*
X015276Y018700D01*
X015221Y018709D01*
X015166Y018723D01*
X015113Y018740D01*
X015062Y018761D01*
X015011Y018786D01*
X014963Y018814D01*
X014917Y018845D01*
X014873Y018879D01*
X014831Y018917D01*
X014792Y018957D01*
X014757Y018999D01*
X014724Y019045D01*
X014694Y019092D01*
X014668Y019141D01*
X014645Y019192D01*
X014626Y019245D01*
X014611Y019298D01*
X014599Y019353D01*
X014591Y019408D01*
X014587Y019464D01*
X014587Y019520D01*
X014591Y019576D01*
X014599Y019631D01*
X014611Y019686D01*
X014626Y019739D01*
X014645Y019792D01*
X014668Y019843D01*
X014694Y019892D01*
X014724Y019939D01*
X014757Y019985D01*
X014792Y020027D01*
X014831Y020067D01*
X014873Y020105D01*
X014917Y020139D01*
X014963Y020170D01*
X015011Y020198D01*
X015062Y020223D01*
X015113Y020244D01*
X015166Y020261D01*
X015221Y020275D01*
X015276Y020284D01*
X015331Y020290D01*
X015387Y020292D01*
X017787Y020292D01*
X016857Y019892D02*
X016857Y019492D01*
X017137Y019492D01*
X016857Y019492D02*
X016857Y019092D01*
X016717Y019092D02*
X016467Y019092D01*
X016467Y019892D01*
X016717Y019892D01*
X016717Y019092D01*
X016317Y019092D02*
X016317Y019492D01*
X016317Y019892D01*
X016317Y019492D02*
X016037Y019492D01*
X017787Y018692D02*
X017843Y018694D01*
X017898Y018700D01*
X017953Y018709D01*
X018008Y018723D01*
X018061Y018740D01*
X018112Y018761D01*
X018163Y018786D01*
X018211Y018814D01*
X018257Y018845D01*
X018301Y018879D01*
X018343Y018917D01*
X018382Y018957D01*
X018417Y018999D01*
X018450Y019045D01*
X018480Y019092D01*
X018506Y019141D01*
X018529Y019192D01*
X018548Y019245D01*
X018563Y019298D01*
X018575Y019353D01*
X018583Y019408D01*
X018587Y019464D01*
X018587Y019520D01*
X018583Y019576D01*
X018575Y019631D01*
X018563Y019686D01*
X018548Y019739D01*
X018529Y019792D01*
X018506Y019843D01*
X018480Y019892D01*
X018450Y019939D01*
X018417Y019985D01*
X018382Y020027D01*
X018343Y020067D01*
X018301Y020105D01*
X018257Y020139D01*
X018211Y020170D01*
X018163Y020198D01*
X018112Y020223D01*
X018061Y020244D01*
X018008Y020261D01*
X017953Y020275D01*
X017898Y020284D01*
X017843Y020290D01*
X017787Y020292D01*
X012235Y016725D02*
X012168Y016792D01*
X012035Y016792D01*
X011968Y016725D01*
X011775Y016725D02*
X011708Y016792D01*
X011508Y016792D01*
X011508Y016392D01*
X011708Y016392D01*
X011775Y016458D01*
X011775Y016725D01*
X011968Y016392D02*
X012235Y016659D01*
X012235Y016725D01*
X012235Y016392D02*
X011968Y016392D01*
X011314Y016392D02*
X011047Y016392D01*
X011047Y016792D01*
X011314Y016792D01*
X011181Y016592D02*
X011047Y016592D01*
X010854Y016392D02*
X010587Y016392D01*
X010587Y016792D01*
X010185Y016342D02*
X009918Y016342D01*
X010051Y016342D02*
X010051Y016742D01*
X009918Y016609D01*
X009725Y016675D02*
X009725Y016408D01*
X009658Y016342D01*
X009458Y016342D01*
X009458Y016742D01*
X009658Y016742D01*
X009725Y016675D01*
X009264Y016742D02*
X008997Y016742D01*
X008997Y016342D01*
X009264Y016342D01*
X009131Y016542D02*
X008997Y016542D01*
X008804Y016342D02*
X008537Y016342D01*
X008537Y016742D01*
X008437Y017092D02*
X008037Y017092D01*
X005987Y016042D02*
X005587Y016042D01*
X007537Y005342D02*
X007804Y005342D01*
X025587Y011142D02*
X025587Y011542D01*
X025787Y011542D01*
X025854Y011475D01*
X025854Y011342D01*
X025787Y011275D01*
X025587Y011275D01*
X026047Y011142D02*
X026047Y011542D01*
X026314Y011542D02*
X026314Y011142D01*
X026181Y011275D01*
X026047Y011142D01*
X026508Y011142D02*
X026508Y011542D01*
X026708Y011542D01*
X026775Y011475D01*
X026775Y011342D01*
X026708Y011275D01*
X026508Y011275D01*
X026641Y011275D02*
X026775Y011142D01*
X026968Y011075D02*
X027235Y011075D01*
X027428Y011142D02*
X027695Y011142D01*
X027889Y011208D02*
X027889Y011342D01*
X027955Y011409D01*
X028089Y011409D01*
X028156Y011342D01*
X028156Y011275D01*
X027889Y011275D01*
X027889Y011208D02*
X027955Y011142D01*
X028089Y011142D01*
X028349Y011208D02*
X028349Y011342D01*
X028416Y011409D01*
X028616Y011409D01*
X028616Y011542D02*
X028616Y011142D01*
X028416Y011142D01*
X028349Y011208D01*
X027428Y011142D02*
X027428Y011542D01*
D11*
X017787Y018492D02*
X015387Y018492D01*
X015324Y018494D01*
X015262Y018500D01*
X015200Y018510D01*
X015138Y018523D01*
X015078Y018541D01*
X015019Y018562D01*
X014961Y018587D01*
X014905Y018616D01*
X014851Y018648D01*
X014799Y018683D01*
X014750Y018721D01*
X014702Y018763D01*
X014658Y018807D01*
X014616Y018855D01*
X014578Y018904D01*
X014543Y018956D01*
X014511Y019010D01*
X014482Y019066D01*
X014457Y019124D01*
X014436Y019183D01*
X014418Y019243D01*
X014405Y019305D01*
X014395Y019367D01*
X014389Y019429D01*
X014387Y019492D01*
X014389Y019555D01*
X014395Y019617D01*
X014405Y019679D01*
X014418Y019741D01*
X014436Y019801D01*
X014457Y019860D01*
X014482Y019918D01*
X014511Y019974D01*
X014543Y020028D01*
X014578Y020080D01*
X014616Y020129D01*
X014658Y020177D01*
X014702Y020221D01*
X014750Y020263D01*
X014799Y020301D01*
X014851Y020336D01*
X014905Y020368D01*
X014961Y020397D01*
X015019Y020422D01*
X015078Y020443D01*
X015138Y020461D01*
X015200Y020474D01*
X015262Y020484D01*
X015324Y020490D01*
X015387Y020492D01*
X017787Y020492D01*
X017850Y020490D01*
X017912Y020484D01*
X017974Y020474D01*
X018036Y020461D01*
X018096Y020443D01*
X018155Y020422D01*
X018213Y020397D01*
X018269Y020368D01*
X018323Y020336D01*
X018375Y020301D01*
X018424Y020263D01*
X018472Y020221D01*
X018516Y020177D01*
X018558Y020129D01*
X018596Y020080D01*
X018631Y020028D01*
X018663Y019974D01*
X018692Y019918D01*
X018717Y019860D01*
X018738Y019801D01*
X018756Y019741D01*
X018769Y019679D01*
X018779Y019617D01*
X018785Y019555D01*
X018787Y019492D01*
X018785Y019429D01*
X018779Y019367D01*
X018769Y019305D01*
X018756Y019243D01*
X018738Y019183D01*
X018717Y019124D01*
X018692Y019066D01*
X018663Y019010D01*
X018631Y018956D01*
X018596Y018904D01*
X018558Y018855D01*
X018516Y018807D01*
X018472Y018763D01*
X018424Y018721D01*
X018375Y018683D01*
X018323Y018648D01*
X018269Y018616D01*
X018213Y018587D01*
X018155Y018562D01*
X018096Y018541D01*
X018036Y018523D01*
X017974Y018510D01*
X017912Y018500D01*
X017850Y018494D01*
X017787Y018492D01*
D12*
X019392Y019447D02*
X019589Y019447D01*
X019490Y019447D02*
X019490Y020037D01*
X019392Y020037D02*
X019589Y020037D01*
X019822Y019939D02*
X019920Y020037D01*
X020117Y020037D01*
X020215Y019939D01*
X020215Y019840D01*
X019822Y019447D01*
X020215Y019447D01*
X020466Y019545D02*
X020565Y019447D01*
X020761Y019447D01*
X020860Y019545D01*
X020860Y019939D02*
X020761Y020037D01*
X020565Y020037D01*
X020466Y019939D01*
X020466Y019545D01*
X014325Y018990D02*
X014128Y018597D01*
X013931Y018990D01*
X013680Y018892D02*
X013680Y018793D01*
X013286Y018793D01*
X013286Y018695D02*
X013286Y018892D01*
X013385Y018990D01*
X013582Y018990D01*
X013680Y018892D01*
X013385Y018597D02*
X013286Y018695D01*
X013385Y018597D02*
X013582Y018597D01*
X013036Y018695D02*
X013036Y019089D01*
X012937Y019187D01*
X012642Y019187D01*
X012642Y018597D01*
X012937Y018597D01*
X013036Y018695D01*
X004275Y016637D02*
X004275Y016047D01*
X003979Y016047D01*
X003881Y016145D01*
X003881Y016342D01*
X003979Y016440D01*
X004275Y016440D01*
X003630Y016342D02*
X003630Y016047D01*
X003433Y016047D02*
X003433Y016342D01*
X003532Y016440D01*
X003630Y016342D01*
X003433Y016342D02*
X003335Y016440D01*
X003236Y016440D01*
X003236Y016047D01*
X002986Y016145D02*
X002887Y016047D01*
X002690Y016047D01*
X002592Y016145D01*
X002592Y016539D01*
X002690Y016637D01*
X002887Y016637D01*
X002986Y016539D01*
X013792Y007037D02*
X014087Y007037D01*
X014186Y006939D01*
X014186Y006840D01*
X014087Y006742D01*
X013792Y006742D01*
X013792Y006447D02*
X013792Y007037D01*
X014087Y006742D02*
X014186Y006643D01*
X014186Y006545D01*
X014087Y006447D01*
X013792Y006447D01*
X014436Y006545D02*
X014535Y006643D01*
X014830Y006643D01*
X014830Y006742D02*
X014830Y006447D01*
X014535Y006447D01*
X014436Y006545D01*
X014535Y006840D02*
X014732Y006840D01*
X014830Y006742D01*
X015081Y006840D02*
X015278Y006840D01*
X015179Y006939D02*
X015179Y006545D01*
X015278Y006447D01*
X004007Y005640D02*
X003811Y005640D01*
X003909Y005739D02*
X003909Y005345D01*
X004007Y005247D01*
X003479Y005247D02*
X003479Y005739D01*
X003578Y005837D01*
X003578Y005542D02*
X003381Y005542D01*
X003130Y005542D02*
X003130Y005443D01*
X002736Y005443D01*
X002736Y005345D02*
X002736Y005542D01*
X002835Y005640D01*
X003032Y005640D01*
X003130Y005542D01*
X002835Y005247D02*
X002736Y005345D01*
X002835Y005247D02*
X003032Y005247D01*
X002486Y005247D02*
X002092Y005247D01*
X002092Y005837D01*
X027042Y004887D02*
X027042Y004297D01*
X027042Y004493D02*
X027337Y004493D01*
X027436Y004592D01*
X027436Y004789D01*
X027337Y004887D01*
X027042Y004887D01*
X027239Y004493D02*
X027436Y004297D01*
X027686Y004297D02*
X027883Y004297D01*
X027785Y004297D02*
X027785Y004690D01*
X027686Y004690D01*
X027785Y004887D02*
X027785Y004986D01*
X028116Y004592D02*
X028116Y004395D01*
X028215Y004297D01*
X028510Y004297D01*
X028510Y004198D02*
X028510Y004690D01*
X028215Y004690D01*
X028116Y004592D01*
X028313Y004100D02*
X028411Y004100D01*
X028510Y004198D01*
X028761Y004297D02*
X028761Y004887D01*
X028859Y004690D02*
X029056Y004690D01*
X029154Y004592D01*
X029154Y004297D01*
X029504Y004395D02*
X029602Y004297D01*
X029504Y004395D02*
X029504Y004789D01*
X029602Y004690D02*
X029405Y004690D01*
X028859Y004690D02*
X028761Y004592D01*
X029891Y005093D02*
X030482Y005093D01*
X030482Y004897D02*
X030482Y005290D01*
X030482Y005541D02*
X030088Y005935D01*
X029990Y005935D01*
X029891Y005836D01*
X029891Y005640D01*
X029990Y005541D01*
X030482Y005541D02*
X030482Y005935D01*
X030482Y006186D02*
X029891Y006579D01*
X029990Y006830D02*
X029891Y006929D01*
X029891Y007125D01*
X029990Y007224D01*
X030088Y007224D01*
X030482Y006830D01*
X030482Y007224D01*
X030384Y007475D02*
X030285Y007475D01*
X030187Y007573D01*
X030187Y007770D01*
X030285Y007868D01*
X030384Y007868D01*
X030482Y007770D01*
X030482Y007573D01*
X030384Y007475D01*
X030187Y007573D02*
X030088Y007475D01*
X029990Y007475D01*
X029891Y007573D01*
X029891Y007770D01*
X029990Y007868D01*
X030088Y007868D01*
X030187Y007770D01*
X030285Y008119D02*
X029891Y008119D01*
X029891Y008513D02*
X030285Y008513D01*
X030482Y008316D01*
X030285Y008119D01*
X030187Y008764D02*
X030187Y009157D01*
X029990Y009408D02*
X029891Y009507D01*
X029891Y009704D01*
X029990Y009802D01*
X030088Y009802D01*
X030482Y009408D01*
X030482Y009802D01*
X030482Y010053D02*
X030088Y010447D01*
X030088Y010697D02*
X029891Y010894D01*
X030482Y010894D01*
X030482Y010697D02*
X030482Y011091D01*
X030384Y011342D02*
X030482Y011440D01*
X030482Y011637D01*
X030384Y011736D01*
X030187Y011736D01*
X030088Y011637D01*
X030088Y011539D01*
X030187Y011342D01*
X029891Y011342D01*
X029891Y011736D01*
X030088Y011986D02*
X029891Y012183D01*
X030088Y012380D01*
X030482Y012380D01*
X030187Y012380D02*
X030187Y011986D01*
X030088Y011986D02*
X030482Y011986D01*
X030482Y010447D02*
X030088Y010053D01*
X029891Y005093D02*
X030088Y004897D01*
M02*
