G75*
G70*
%OFA0B0*%
%FSLAX24Y24*%
%IPPOS*%
%LPD*%
%AMOC8*
5,1,8,0,0,1.08239X$1,22.5*
%
%ADD10C,0.0110*%
%ADD11R,0.0340X0.0400*%
%ADD12R,0.0512X0.0591*%
%ADD13R,0.0472X0.0217*%
%ADD14R,0.0400X0.0340*%
%ADD15R,0.0551X0.0394*%
%ADD16R,0.0591X0.0512*%
%ADD17R,0.0709X0.0669*%
%ADD18R,0.0394X0.0433*%
%ADD19R,0.0701X0.0850*%
%ADD20R,0.0433X0.0394*%
%ADD21R,0.0394X0.0551*%
%ADD22R,0.0217X0.0472*%
%ADD23C,0.0520*%
%ADD24O,0.0520X0.1040*%
%ADD25R,0.0390X0.0120*%
%ADD26R,0.0197X0.0591*%
%ADD27R,0.0591X0.0197*%
%ADD28OC8,0.0560*%
%ADD29C,0.2300*%
%ADD30O,0.0825X0.1650*%
%ADD31OC8,0.0600*%
%ADD32R,0.0236X0.0866*%
%ADD33OC8,0.0760*%
%ADD34C,0.0240*%
%ADD35OC8,0.0400*%
%ADD36C,0.0160*%
%ADD37C,0.0100*%
%ADD38C,0.1000*%
%ADD39C,0.0400*%
%ADD40C,0.0120*%
%ADD41C,0.0700*%
%ADD42C,0.0860*%
%ADD43OC8,0.0500*%
D10*
X002041Y018947D02*
X002434Y018947D01*
X002685Y019045D02*
X003079Y019439D01*
X003079Y019045D01*
X002980Y018947D01*
X002784Y018947D01*
X002685Y019045D01*
X002685Y019439D01*
X002784Y019537D01*
X002980Y019537D01*
X003079Y019439D01*
X003330Y019439D02*
X003428Y019537D01*
X003625Y019537D01*
X003723Y019439D01*
X003330Y019045D01*
X003428Y018947D01*
X003625Y018947D01*
X003723Y019045D01*
X003723Y019439D01*
X003974Y019537D02*
X004368Y019537D01*
X004368Y019439D01*
X003974Y019045D01*
X003974Y018947D01*
X003330Y019045D02*
X003330Y019439D01*
X002685Y019947D02*
X002685Y020537D01*
X002980Y020537D01*
X003079Y020439D01*
X003079Y020242D01*
X002980Y020143D01*
X002685Y020143D01*
X002434Y020242D02*
X002336Y020143D01*
X002041Y020143D01*
X002041Y019947D02*
X002041Y020537D01*
X002336Y020537D01*
X002434Y020439D01*
X002434Y020242D01*
X002336Y019537D02*
X002434Y019439D01*
X002434Y019340D01*
X002041Y018947D01*
X002041Y019439D02*
X002139Y019537D01*
X002336Y019537D01*
X003974Y020242D02*
X004368Y020242D01*
X005263Y020242D02*
X005657Y020242D01*
X005657Y020340D02*
X005657Y019947D01*
X005908Y019947D02*
X005908Y020537D01*
X006203Y020537D01*
X006302Y020439D01*
X006302Y020242D01*
X006203Y020143D01*
X005908Y020143D01*
X005657Y020340D02*
X005460Y020537D01*
X005263Y020340D01*
X005263Y019947D01*
X006552Y019947D02*
X006848Y019947D01*
X006946Y020045D01*
X006946Y020143D01*
X006848Y020242D01*
X006552Y020242D01*
X006552Y020537D02*
X006848Y020537D01*
X006946Y020439D01*
X006946Y020340D01*
X006848Y020242D01*
X006552Y019947D02*
X006552Y020537D01*
X007197Y020537D02*
X007591Y020537D01*
X007394Y020537D02*
X007394Y019947D01*
X007841Y020045D02*
X007841Y020242D01*
X007940Y020340D01*
X008137Y020340D01*
X008235Y020242D01*
X008235Y020143D01*
X007841Y020143D01*
X007841Y020045D02*
X007940Y019947D01*
X008137Y019947D01*
X008486Y020045D02*
X008584Y020143D01*
X008880Y020143D01*
X008880Y020242D02*
X008880Y019947D01*
X008584Y019947D01*
X008486Y020045D01*
X008584Y020340D02*
X008781Y020340D01*
X008880Y020242D01*
X009131Y020340D02*
X009131Y019947D01*
X009327Y019947D02*
X009327Y020242D01*
X009426Y020340D01*
X009524Y020242D01*
X009524Y019947D01*
X009327Y020242D02*
X009229Y020340D01*
X009131Y020340D01*
D11*
X016161Y018642D03*
X016810Y018642D03*
X017311Y018642D03*
X017960Y018642D03*
X020511Y016492D03*
X021160Y016492D03*
X021160Y015942D03*
X020511Y015942D03*
X021461Y015142D03*
X021461Y014642D03*
X021461Y014142D03*
X022110Y014142D03*
X022110Y014642D03*
X022110Y015142D03*
X022611Y015142D03*
X023260Y015142D03*
X025061Y017092D03*
X025710Y017092D03*
X023210Y018142D03*
X022561Y018142D03*
X031411Y014892D03*
X032060Y014892D03*
X032060Y014142D03*
X031411Y014142D03*
X028910Y005792D03*
X028261Y005792D03*
X028611Y005242D03*
X029260Y005242D03*
X022060Y003642D03*
X021411Y003642D03*
X015710Y002742D03*
X015710Y002192D03*
X015061Y002192D03*
X015061Y002742D03*
X014810Y003892D03*
X014161Y003892D03*
X008260Y002942D03*
X007611Y002942D03*
X006760Y004492D03*
X006111Y004492D03*
X006961Y013392D03*
X007610Y013392D03*
D12*
X010301Y004292D03*
X010970Y004292D03*
X024551Y004392D03*
X025220Y004392D03*
D13*
X021848Y002966D03*
X021849Y002592D03*
X021848Y002218D03*
X020824Y002218D03*
X020824Y002592D03*
X020824Y002966D03*
X029424Y005818D03*
X029424Y006192D03*
X029424Y006566D03*
X030448Y006566D03*
X030449Y006192D03*
X030448Y005818D03*
X006848Y003816D03*
X006848Y003442D03*
X006848Y003068D03*
X005824Y003068D03*
X005823Y003442D03*
X005824Y003816D03*
D14*
X007586Y003567D03*
X007586Y004216D03*
X010266Y008256D03*
X010266Y008905D03*
X013636Y004366D03*
X013636Y003717D03*
X019786Y003966D03*
X019786Y003317D03*
X019736Y002766D03*
X019736Y002117D03*
X020386Y003567D03*
X020386Y004216D03*
X029786Y007117D03*
X030336Y007117D03*
X030336Y007766D03*
X029786Y007766D03*
X019686Y012667D03*
X019686Y013316D03*
X021136Y017617D03*
X021136Y018266D03*
X027036Y017916D03*
X027036Y017267D03*
X029586Y019317D03*
X029586Y019966D03*
X030586Y019966D03*
X030586Y019317D03*
X014586Y018866D03*
X014586Y018217D03*
X011586Y018066D03*
X011586Y017417D03*
X011586Y016966D03*
X011586Y016317D03*
X009086Y017017D03*
X009086Y017666D03*
X009136Y018717D03*
X009136Y019366D03*
X004936Y018966D03*
X004936Y018317D03*
D15*
X008253Y014416D03*
X008253Y013668D03*
X009119Y014042D03*
X019653Y017892D03*
X020519Y018266D03*
X020519Y017518D03*
X031203Y005916D03*
X031203Y005168D03*
X032069Y005542D03*
D16*
X009386Y015657D03*
X009386Y016326D03*
X005586Y016276D03*
X005586Y015607D03*
D17*
X009829Y003342D03*
X011443Y003342D03*
X024079Y003592D03*
X025693Y003592D03*
D18*
X013570Y016842D03*
X012901Y016842D03*
X012901Y017642D03*
X013570Y017642D03*
X008170Y018442D03*
X007501Y018442D03*
X006970Y018442D03*
X006301Y018442D03*
X004370Y018192D03*
X003701Y018192D03*
X006901Y014592D03*
X007570Y014592D03*
D19*
X018086Y006492D03*
X019689Y006492D03*
D20*
X020336Y012657D03*
X020336Y013326D03*
X027151Y014142D03*
X027820Y014142D03*
X012236Y016207D03*
X012236Y016876D03*
X012236Y017407D03*
X012236Y018076D03*
X002886Y017876D03*
X002886Y017207D03*
X002886Y015926D03*
X002886Y015257D03*
D21*
X003036Y006675D03*
X003410Y005809D03*
X002662Y005809D03*
D22*
X013762Y003154D03*
X014136Y003154D03*
X014510Y003154D03*
X014510Y002130D03*
X014136Y002129D03*
X013762Y002130D03*
D23*
X011786Y019092D03*
X010786Y019092D03*
X011286Y020092D03*
X010286Y020092D03*
X015986Y019492D03*
X017886Y019492D03*
D24*
X009786Y014642D03*
X009786Y011642D03*
D25*
X028537Y013490D03*
X028537Y013746D03*
X028537Y014002D03*
X028537Y014258D03*
X028537Y014514D03*
X028537Y014770D03*
X028537Y015026D03*
X028537Y015281D03*
X028537Y015537D03*
X028537Y015793D03*
X030834Y015793D03*
X030834Y015537D03*
X030834Y015281D03*
X030834Y015026D03*
X030834Y014770D03*
X030834Y014514D03*
X030834Y014258D03*
X030834Y014002D03*
X030834Y013746D03*
X030834Y013490D03*
D26*
X019111Y013308D03*
X018796Y013308D03*
X018481Y013308D03*
X018166Y013308D03*
X017851Y013308D03*
X017536Y013308D03*
X017221Y013308D03*
X016906Y013308D03*
X016591Y013308D03*
X016276Y013308D03*
X015961Y013308D03*
X015961Y017875D03*
X016276Y017875D03*
X016591Y017875D03*
X016906Y017875D03*
X017221Y017875D03*
X017536Y017875D03*
X017851Y017875D03*
X018166Y017875D03*
X018481Y017875D03*
X018796Y017875D03*
X019111Y017875D03*
D27*
X019819Y017166D03*
X019819Y016851D03*
X019819Y016537D03*
X019819Y016222D03*
X019819Y015907D03*
X019819Y015592D03*
X019819Y015277D03*
X019819Y014962D03*
X019819Y014647D03*
X019819Y014332D03*
X019819Y014017D03*
X015252Y014017D03*
X015252Y014332D03*
X015252Y014647D03*
X015252Y014962D03*
X015252Y015277D03*
X015252Y015592D03*
X015252Y015907D03*
X015252Y016222D03*
X015252Y016537D03*
X015252Y016851D03*
X015252Y017166D03*
D28*
X020886Y019092D03*
X021886Y019092D03*
X022886Y019092D03*
X023886Y019092D03*
X024886Y019092D03*
X024886Y020092D03*
X023886Y020092D03*
X022886Y020092D03*
X021886Y020092D03*
X020886Y020092D03*
D29*
X030986Y003242D03*
X003486Y003242D03*
D30*
X009636Y004142D03*
X011636Y004142D03*
X016836Y004142D03*
X018836Y004142D03*
X023886Y004092D03*
X025886Y004092D03*
D31*
X018936Y011092D03*
X017936Y011092D03*
X017936Y012092D03*
X018936Y012092D03*
D32*
X008336Y015568D03*
X007836Y015568D03*
X007336Y015568D03*
X006836Y015568D03*
X004936Y015368D03*
X004436Y015368D03*
X003936Y015368D03*
X003436Y015368D03*
X003436Y017415D03*
X003936Y017415D03*
X004436Y017415D03*
X004936Y017415D03*
X006836Y017615D03*
X007336Y017615D03*
X007836Y017615D03*
X008336Y017615D03*
D33*
X012536Y007342D03*
X012536Y003342D03*
X026936Y003642D03*
X026936Y007642D03*
D34*
X010986Y007292D02*
X010986Y007242D01*
X010986Y007292D02*
X010786Y007292D01*
X010266Y008905D02*
X010266Y009412D01*
X010186Y009492D01*
X005186Y005342D02*
X005136Y005342D01*
X009736Y014642D02*
X009786Y014642D01*
X009736Y014642D02*
X009386Y014992D01*
X009386Y015657D01*
X008486Y015242D02*
X008386Y015342D01*
X008386Y015492D01*
X008336Y015542D01*
X008336Y015568D01*
X008486Y015242D02*
X008486Y014892D01*
X008336Y017615D02*
X008336Y017692D01*
X008561Y017917D01*
X008686Y018042D01*
X009186Y018592D01*
X009186Y018792D01*
D35*
X009736Y017992D03*
X009786Y016692D03*
X011086Y016592D03*
X011836Y014942D03*
X012986Y014992D03*
X013336Y014542D03*
X013686Y014942D03*
X014386Y014692D03*
X014386Y015242D03*
X016186Y015592D03*
X017086Y015692D03*
X017586Y014942D03*
X017386Y014142D03*
X016886Y013942D03*
X016336Y013942D03*
X017886Y014142D03*
X019136Y015092D03*
X019136Y015642D03*
X019036Y016142D03*
X018336Y015942D03*
X017836Y017242D03*
X016886Y017242D03*
X016336Y017242D03*
X015886Y016642D03*
X015536Y017892D03*
X015236Y018892D03*
X015136Y019792D03*
X013436Y020242D03*
X012536Y019692D03*
X012836Y018942D03*
X008186Y019242D03*
X005536Y018292D03*
X005386Y017642D03*
X006086Y015692D03*
X006336Y014642D03*
X006436Y013942D03*
X005236Y013742D03*
X004436Y012692D03*
X002536Y013242D03*
X005386Y010392D03*
X007136Y010792D03*
X009136Y011642D03*
X009936Y013392D03*
X011036Y013442D03*
X011736Y013942D03*
X012436Y013592D03*
X012986Y012392D03*
X013536Y012542D03*
X014236Y012042D03*
X016636Y012242D03*
X017336Y010092D03*
X018436Y008992D03*
X018286Y007442D03*
X017186Y006342D03*
X016736Y005592D03*
X017886Y005592D03*
X019486Y005442D03*
X021336Y004492D03*
X021586Y005692D03*
X022886Y003842D03*
X024636Y002842D03*
X024836Y005442D03*
X026786Y006142D03*
X028136Y008092D03*
X026786Y008542D03*
X026236Y009942D03*
X024836Y011692D03*
X025486Y012092D03*
X025286Y012892D03*
X026086Y012892D03*
X026736Y012942D03*
X027336Y012842D03*
X027886Y012792D03*
X029586Y012942D03*
X030286Y013592D03*
X030286Y014142D03*
X030036Y014642D03*
X030236Y015142D03*
X029636Y015642D03*
X028736Y016542D03*
X027986Y015692D03*
X027486Y015742D03*
X028036Y014642D03*
X026636Y014092D03*
X025836Y015242D03*
X025686Y016442D03*
X026186Y016442D03*
X026486Y017242D03*
X025986Y017642D03*
X026486Y017892D03*
X026886Y018892D03*
X025686Y019092D03*
X024436Y018692D03*
X023386Y018692D03*
X024436Y017642D03*
X024236Y017092D03*
X025186Y017642D03*
X024836Y016442D03*
X024236Y016392D03*
X023886Y015992D03*
X023086Y015642D03*
X022086Y017092D03*
X021636Y017642D03*
X020036Y019742D03*
X019286Y020142D03*
X018786Y019692D03*
X020436Y014392D03*
X020886Y014092D03*
X020436Y013642D03*
X022136Y012842D03*
X023086Y013792D03*
X019586Y012192D03*
X023336Y010092D03*
X023886Y008142D03*
X029836Y010842D03*
X030936Y011642D03*
X031836Y011692D03*
X032186Y013192D03*
X031436Y016192D03*
X028286Y018542D03*
X029086Y018642D03*
X029586Y018642D03*
X030086Y018642D03*
X030586Y018642D03*
X031086Y018642D03*
X031586Y020092D03*
X026236Y020342D03*
X015136Y009242D03*
X016586Y007442D03*
X015436Y006142D03*
X012986Y004442D03*
X015136Y003442D03*
X016336Y002342D03*
X016986Y002792D03*
X018486Y002092D03*
X010786Y007292D03*
X010186Y009492D03*
X008136Y006992D03*
X006736Y008342D03*
X004836Y007392D03*
X005136Y005342D03*
X005636Y005242D03*
X006136Y005242D03*
X008086Y003692D03*
X008636Y003192D03*
X008586Y002592D03*
X010186Y002592D03*
X009236Y005042D03*
X006086Y002592D03*
X005036Y002142D03*
X002286Y004442D03*
X009036Y014692D03*
X008486Y014892D03*
X028086Y003242D03*
X028436Y003742D03*
X029286Y002042D03*
X032136Y004892D03*
X031486Y007692D03*
D36*
X020336Y013326D02*
X019636Y013326D01*
X019636Y013316D01*
X019686Y013316D01*
X019686Y013442D01*
X019636Y013316D02*
X019636Y013292D01*
X019819Y015592D02*
X019186Y015592D01*
X019136Y015642D01*
X014586Y018842D02*
X014586Y018866D01*
X014586Y018892D01*
X014636Y018942D01*
X014486Y019092D01*
X014486Y020292D01*
X014636Y020442D01*
X019386Y020442D01*
X019286Y020142D01*
X014586Y018842D02*
X014536Y018792D01*
X012986Y018792D01*
X012836Y018942D01*
X010511Y018717D02*
X009136Y018717D01*
X009136Y018692D01*
X009186Y018792D01*
X005462Y017565D02*
X005386Y017642D01*
X005386Y017415D01*
X004936Y017415D01*
X004936Y017592D01*
X004910Y017617D01*
X004936Y018317D01*
X004936Y018142D01*
X004886Y018192D01*
X004370Y018192D01*
X003701Y018192D02*
X003686Y018192D01*
X003436Y017942D01*
X003436Y017892D01*
X003420Y017876D01*
X002886Y017876D01*
X003436Y017892D02*
X003436Y017415D01*
X005262Y015368D02*
X005536Y015642D01*
X005570Y015607D01*
X005586Y015607D01*
X006001Y015607D01*
X006086Y015692D01*
X005262Y015368D02*
X004936Y015368D01*
X003486Y015242D02*
X003470Y015257D01*
X002886Y015257D01*
X003436Y015292D02*
X003436Y015368D01*
X003436Y015292D02*
X003470Y015257D01*
X016636Y005592D02*
X016636Y005442D01*
X016686Y005442D01*
X016636Y005592D02*
X016736Y005592D01*
X017136Y005892D02*
X017236Y005892D01*
X017236Y006342D01*
X017186Y006342D01*
X018186Y007242D02*
X018186Y007442D01*
X018286Y007442D01*
D37*
X006053Y001792D02*
X002036Y001792D01*
X002036Y018742D01*
X002126Y018742D01*
X002519Y018742D01*
X002609Y018831D01*
X002699Y018742D01*
X002869Y018742D01*
X003065Y018742D01*
X003145Y018821D01*
X003164Y018840D01*
X003164Y018840D01*
X003204Y018881D01*
X003245Y018840D01*
X003343Y018742D01*
X003513Y018742D01*
X003710Y018742D01*
X003789Y018821D01*
X003800Y018831D01*
X003889Y018742D01*
X004059Y018742D01*
X004179Y018862D01*
X004179Y018960D01*
X004573Y019354D01*
X004573Y019524D01*
X004573Y019622D01*
X004453Y019742D01*
X004283Y019742D01*
X003889Y019742D01*
X003800Y019652D01*
X003787Y019665D01*
X003710Y019742D01*
X003710Y019742D01*
X003540Y019742D01*
X003343Y019742D01*
X003223Y019622D01*
X003204Y019603D01*
X003164Y019644D01*
X003164Y019644D01*
X003143Y019665D01*
X003065Y019742D01*
X003065Y019742D01*
X002896Y019742D01*
X002771Y019742D01*
X002890Y019862D01*
X002890Y019938D01*
X003065Y019938D01*
X003185Y020059D01*
X003284Y020157D01*
X003284Y020327D01*
X003284Y020524D01*
X003266Y020542D01*
X005175Y020542D01*
X005058Y020425D01*
X005058Y020327D01*
X005058Y020157D01*
X005058Y019862D01*
X005178Y019742D01*
X005348Y019742D01*
X005460Y019854D01*
X005572Y019742D01*
X005742Y019742D01*
X005782Y019782D01*
X005823Y019742D01*
X005993Y019742D01*
X006113Y019862D01*
X006113Y019938D01*
X006288Y019938D01*
X006347Y019998D01*
X006347Y019862D01*
X006468Y019742D01*
X006933Y019742D01*
X007012Y019821D01*
X007031Y019840D01*
X007031Y019840D01*
X007087Y019897D01*
X007091Y019900D01*
X007151Y019960D01*
X007151Y020130D01*
X007151Y020228D01*
X007138Y020242D01*
X007151Y020255D01*
X007151Y020332D01*
X007189Y020332D01*
X007189Y019862D01*
X007309Y019742D01*
X007479Y019742D01*
X007599Y019862D01*
X007599Y020332D01*
X007642Y020332D01*
X007636Y020327D01*
X007636Y020327D01*
X007636Y020157D01*
X007636Y019960D01*
X007757Y019840D01*
X007855Y019742D01*
X008025Y019742D01*
X008222Y019742D01*
X008342Y019862D01*
X008342Y019899D01*
X008401Y019840D01*
X008499Y019742D01*
X008669Y019742D01*
X008965Y019742D01*
X009005Y019782D01*
X009046Y019742D01*
X009215Y019742D01*
X009229Y019755D01*
X009242Y019742D01*
X009412Y019742D01*
X009426Y019755D01*
X009439Y019742D01*
X009609Y019742D01*
X009729Y019862D01*
X009729Y020327D01*
X009609Y020447D01*
X009514Y020542D01*
X014411Y020542D01*
X014390Y020522D01*
X014256Y020387D01*
X014256Y019187D01*
X014256Y019118D01*
X014236Y019098D01*
X014236Y019022D01*
X013186Y019022D01*
X013186Y019087D01*
X012981Y019292D01*
X012691Y019292D01*
X012486Y019087D01*
X012486Y018924D01*
X012403Y018842D01*
X012115Y018842D01*
X012133Y018859D01*
X012196Y019010D01*
X012196Y019173D01*
X012133Y019324D01*
X012018Y019439D01*
X011867Y019502D01*
X011704Y019502D01*
X011554Y019439D01*
X011438Y019324D01*
X011376Y019173D01*
X011376Y019010D01*
X011438Y018859D01*
X011456Y018842D01*
X010712Y018842D01*
X010606Y018947D01*
X009486Y018947D01*
X009486Y018949D01*
X009398Y019037D01*
X009322Y019037D01*
X009298Y019062D01*
X009074Y019062D01*
X009049Y019037D01*
X008874Y019037D01*
X008786Y018949D01*
X008786Y018553D01*
X008517Y018258D01*
X008517Y018720D01*
X008429Y018808D01*
X007911Y018808D01*
X007836Y018732D01*
X007760Y018808D01*
X007242Y018808D01*
X007236Y018802D01*
X007229Y018808D01*
X006711Y018808D01*
X006624Y018720D01*
X006624Y018166D01*
X006568Y018110D01*
X006568Y017120D01*
X006655Y017032D01*
X007016Y017032D01*
X007104Y017120D01*
X007104Y018075D01*
X007229Y018075D01*
X007236Y018081D01*
X007242Y018075D01*
X007760Y018075D01*
X007836Y018151D01*
X007911Y018075D01*
X008068Y018075D01*
X008068Y017805D01*
X008066Y017803D01*
X008066Y017503D01*
X008068Y017502D01*
X008068Y017120D01*
X008155Y017032D01*
X008516Y017032D01*
X008604Y017120D01*
X008604Y017502D01*
X008606Y017503D01*
X008606Y017580D01*
X008735Y017709D01*
X008736Y017709D01*
X008736Y017434D01*
X008824Y017346D01*
X009348Y017346D01*
X009436Y017434D01*
X009436Y017898D01*
X009348Y017986D01*
X009024Y017986D01*
X009011Y017999D01*
X009374Y018397D01*
X009398Y018397D01*
X009486Y018485D01*
X009486Y018487D01*
X010148Y018487D01*
X010036Y018374D01*
X010036Y018209D01*
X010036Y015231D01*
X009956Y015312D01*
X009804Y015312D01*
X009831Y015339D01*
X009831Y015975D01*
X009743Y016063D01*
X009028Y016063D01*
X008940Y015975D01*
X008940Y015339D01*
X009028Y015251D01*
X009116Y015251D01*
X009116Y015103D01*
X009116Y014880D01*
X009376Y014620D01*
X009376Y014388D01*
X008781Y014388D01*
X008693Y014301D01*
X008693Y013783D01*
X008781Y013695D01*
X008906Y013695D01*
X008703Y013492D01*
X008678Y013492D01*
X008678Y013927D01*
X008604Y014001D01*
X008623Y014046D01*
X008660Y014083D01*
X008686Y014109D01*
X008686Y014274D01*
X008678Y014282D01*
X008678Y014589D01*
X008836Y014747D01*
X008836Y015037D01*
X008756Y015117D01*
X008756Y015130D01*
X008756Y015353D01*
X008656Y015453D01*
X008656Y015603D01*
X008606Y015653D01*
X008606Y015680D01*
X008604Y015682D01*
X008940Y015682D01*
X008940Y015780D02*
X008604Y015780D01*
X008604Y015682D02*
X008604Y016063D01*
X008516Y016151D01*
X008155Y016151D01*
X008068Y016063D01*
X008068Y015682D01*
X007104Y015682D01*
X007104Y015780D02*
X008068Y015780D01*
X008068Y015682D02*
X008066Y015680D01*
X008066Y015653D01*
X008066Y015430D01*
X008068Y015428D01*
X008068Y015073D01*
X008136Y015005D01*
X008136Y014762D01*
X007915Y014762D01*
X007827Y014675D01*
X007827Y014157D01*
X007915Y014069D01*
X008200Y014069D01*
X008178Y014014D01*
X007915Y014014D01*
X007827Y013927D01*
X007827Y013742D01*
X007378Y013742D01*
X007290Y013654D01*
X007290Y013379D01*
X007286Y013374D01*
X007286Y013209D01*
X007290Y013204D01*
X007290Y013192D01*
X007281Y013192D01*
X007281Y013654D01*
X007193Y013742D01*
X006729Y013742D01*
X006641Y013654D01*
X006641Y013392D01*
X005319Y013392D01*
X005153Y013392D01*
X004692Y012930D01*
X004581Y013042D01*
X004291Y013042D01*
X004086Y012837D01*
X004086Y012547D01*
X004291Y012342D01*
X004403Y012342D01*
X002936Y010874D01*
X002836Y010774D01*
X002836Y010609D01*
X002836Y007100D01*
X002777Y007100D01*
X002689Y007012D01*
X002689Y006337D01*
X002777Y006249D01*
X003295Y006249D01*
X003383Y006337D01*
X003383Y007012D01*
X003295Y007100D01*
X003236Y007100D01*
X003236Y010609D01*
X005419Y012792D01*
X005503Y012792D01*
X003486Y010774D01*
X003486Y010609D01*
X003486Y008689D01*
X003476Y008679D01*
X003476Y006234D01*
X003151Y006234D01*
X003063Y006146D01*
X003063Y005525D01*
X003009Y005584D01*
X003009Y006146D01*
X002921Y006234D01*
X002403Y006234D01*
X002315Y006146D01*
X002315Y005471D01*
X002403Y005383D01*
X002650Y005383D01*
X003036Y004964D01*
X003036Y004959D01*
X003091Y004903D01*
X003091Y004903D01*
X003153Y004842D01*
X003319Y004842D01*
X004203Y004842D01*
X005236Y003809D01*
X005236Y002609D01*
X005353Y002492D01*
X006053Y001792D01*
X005959Y001886D02*
X002036Y001886D01*
X002036Y001984D02*
X005860Y001984D01*
X005762Y002083D02*
X002036Y002083D01*
X002036Y002181D02*
X005663Y002181D01*
X005565Y002280D02*
X002036Y002280D01*
X002036Y002379D02*
X005466Y002379D01*
X005368Y002477D02*
X002036Y002477D01*
X002036Y002576D02*
X005269Y002576D01*
X005236Y002674D02*
X002036Y002674D01*
X002036Y002773D02*
X005236Y002773D01*
X005236Y002871D02*
X002036Y002871D01*
X002036Y002970D02*
X005236Y002970D01*
X005236Y003068D02*
X002036Y003068D01*
X002036Y003167D02*
X005236Y003167D01*
X005236Y003265D02*
X002036Y003265D01*
X002036Y003364D02*
X005236Y003364D01*
X005236Y003463D02*
X002036Y003463D01*
X002036Y003561D02*
X005236Y003561D01*
X005236Y003660D02*
X002036Y003660D01*
X002036Y003758D02*
X005236Y003758D01*
X005188Y003857D02*
X002036Y003857D01*
X002036Y003955D02*
X005089Y003955D01*
X004991Y004054D02*
X002036Y004054D01*
X002036Y004152D02*
X004892Y004152D01*
X004794Y004251D02*
X002036Y004251D01*
X002036Y004349D02*
X004695Y004349D01*
X004597Y004448D02*
X002036Y004448D01*
X002036Y004546D02*
X004498Y004546D01*
X004400Y004645D02*
X002036Y004645D01*
X002036Y004744D02*
X004301Y004744D01*
X004286Y005042D02*
X003236Y005042D01*
X002709Y005615D01*
X002711Y005617D01*
X002662Y005809D01*
X002686Y005642D02*
X002709Y005615D01*
X002695Y005335D02*
X002036Y005335D01*
X002036Y005433D02*
X002352Y005433D01*
X002315Y005532D02*
X002036Y005532D01*
X002036Y005630D02*
X002315Y005630D01*
X002315Y005729D02*
X002036Y005729D01*
X002036Y005828D02*
X002315Y005828D01*
X002315Y005926D02*
X002036Y005926D01*
X002036Y006025D02*
X002315Y006025D01*
X002315Y006123D02*
X002036Y006123D01*
X002036Y006222D02*
X002390Y006222D01*
X002706Y006320D02*
X002036Y006320D01*
X002036Y006419D02*
X002689Y006419D01*
X002689Y006517D02*
X002036Y006517D01*
X002036Y006616D02*
X002689Y006616D01*
X002689Y006714D02*
X002036Y006714D01*
X002036Y006813D02*
X002689Y006813D01*
X002689Y006912D02*
X002036Y006912D01*
X002036Y007010D02*
X002689Y007010D01*
X002836Y007109D02*
X002036Y007109D01*
X002036Y007207D02*
X002836Y007207D01*
X002836Y007306D02*
X002036Y007306D01*
X002036Y007404D02*
X002836Y007404D01*
X002836Y007503D02*
X002036Y007503D01*
X002036Y007601D02*
X002836Y007601D01*
X002836Y007700D02*
X002036Y007700D01*
X002036Y007798D02*
X002836Y007798D01*
X002836Y007897D02*
X002036Y007897D01*
X002036Y007996D02*
X002836Y007996D01*
X002836Y008094D02*
X002036Y008094D01*
X002036Y008193D02*
X002836Y008193D01*
X002836Y008291D02*
X002036Y008291D01*
X002036Y008390D02*
X002836Y008390D01*
X002836Y008488D02*
X002036Y008488D01*
X002036Y008587D02*
X002836Y008587D01*
X002836Y008685D02*
X002036Y008685D01*
X002036Y008784D02*
X002836Y008784D01*
X002836Y008882D02*
X002036Y008882D01*
X002036Y008981D02*
X002836Y008981D01*
X002836Y009079D02*
X002036Y009079D01*
X002036Y009178D02*
X002836Y009178D01*
X002836Y009277D02*
X002036Y009277D01*
X002036Y009375D02*
X002836Y009375D01*
X002836Y009474D02*
X002036Y009474D01*
X002036Y009572D02*
X002836Y009572D01*
X002836Y009671D02*
X002036Y009671D01*
X002036Y009769D02*
X002836Y009769D01*
X002836Y009868D02*
X002036Y009868D01*
X002036Y009966D02*
X002836Y009966D01*
X002836Y010065D02*
X002036Y010065D01*
X002036Y010163D02*
X002836Y010163D01*
X002836Y010262D02*
X002036Y010262D01*
X002036Y010361D02*
X002836Y010361D01*
X002836Y010459D02*
X002036Y010459D01*
X002036Y010558D02*
X002836Y010558D01*
X002836Y010656D02*
X002036Y010656D01*
X002036Y010755D02*
X002836Y010755D01*
X002915Y010853D02*
X002036Y010853D01*
X002036Y010952D02*
X003013Y010952D01*
X003112Y011050D02*
X002036Y011050D01*
X002036Y011149D02*
X003210Y011149D01*
X003309Y011247D02*
X002036Y011247D01*
X002036Y011346D02*
X003407Y011346D01*
X003506Y011445D02*
X002036Y011445D01*
X002036Y011543D02*
X003604Y011543D01*
X003703Y011642D02*
X002036Y011642D01*
X002036Y011740D02*
X003801Y011740D01*
X003900Y011839D02*
X002036Y011839D01*
X002036Y011937D02*
X003999Y011937D01*
X004097Y012036D02*
X002036Y012036D01*
X002036Y012134D02*
X004196Y012134D01*
X004294Y012233D02*
X002036Y012233D01*
X002036Y012331D02*
X004393Y012331D01*
X004202Y012430D02*
X002036Y012430D01*
X002036Y012529D02*
X004104Y012529D01*
X004086Y012627D02*
X002036Y012627D01*
X002036Y012726D02*
X004086Y012726D01*
X004086Y012824D02*
X002036Y012824D01*
X002036Y012923D02*
X004172Y012923D01*
X004270Y013021D02*
X002036Y013021D01*
X002036Y013120D02*
X004881Y013120D01*
X004980Y013218D02*
X002036Y013218D01*
X002036Y013317D02*
X005078Y013317D01*
X005236Y013192D02*
X004736Y012692D01*
X004436Y012692D01*
X004601Y013021D02*
X004783Y013021D01*
X005236Y013192D02*
X006736Y013192D01*
X006936Y013392D01*
X006961Y013392D01*
X006641Y013415D02*
X002036Y013415D01*
X002036Y013514D02*
X006641Y013514D01*
X006641Y013612D02*
X002036Y013612D01*
X002036Y013711D02*
X006698Y013711D01*
X006642Y014225D02*
X007160Y014225D01*
X007248Y014313D01*
X007248Y014870D01*
X007160Y014958D01*
X007036Y014958D01*
X007036Y015005D01*
X007104Y015073D01*
X007104Y016063D01*
X007016Y016151D01*
X006655Y016151D01*
X006568Y016063D01*
X006568Y015073D01*
X006636Y015005D01*
X006636Y014952D01*
X006578Y014894D01*
X006481Y014992D01*
X006191Y014992D01*
X005986Y014787D01*
X005986Y014497D01*
X006191Y014292D01*
X006481Y014292D01*
X006554Y014365D01*
X006554Y014313D01*
X006642Y014225D01*
X006565Y014302D02*
X006491Y014302D01*
X006180Y014302D02*
X002036Y014302D01*
X002036Y014204D02*
X007827Y014204D01*
X007827Y014302D02*
X007237Y014302D01*
X007248Y014401D02*
X007827Y014401D01*
X007827Y014499D02*
X007248Y014499D01*
X007248Y014598D02*
X007827Y014598D01*
X007849Y014696D02*
X007248Y014696D01*
X007248Y014795D02*
X008136Y014795D01*
X008136Y014894D02*
X007225Y014894D01*
X007036Y014992D02*
X008136Y014992D01*
X008068Y015091D02*
X007104Y015091D01*
X007104Y015189D02*
X008068Y015189D01*
X008068Y015288D02*
X007104Y015288D01*
X007104Y015386D02*
X008068Y015386D01*
X008066Y015485D02*
X007104Y015485D01*
X007104Y015583D02*
X008066Y015583D01*
X008068Y015879D02*
X007104Y015879D01*
X007104Y015978D02*
X008068Y015978D01*
X008080Y016076D02*
X007091Y016076D01*
X006580Y016076D02*
X002036Y016076D01*
X002036Y015978D02*
X005193Y015978D01*
X005228Y016013D02*
X005141Y015926D01*
X005116Y015951D01*
X004755Y015951D01*
X004668Y015863D01*
X004668Y014873D01*
X004755Y014785D01*
X005116Y014785D01*
X005204Y014873D01*
X005204Y015138D01*
X005357Y015138D01*
X005420Y015201D01*
X005943Y015201D01*
X006031Y015289D01*
X006031Y015342D01*
X006231Y015342D01*
X006436Y015547D01*
X006436Y015837D01*
X006231Y016042D01*
X005941Y016042D01*
X005912Y016013D01*
X005228Y016013D01*
X004683Y015879D02*
X003688Y015879D01*
X003704Y015863D02*
X003616Y015951D01*
X003255Y015951D01*
X003168Y015863D01*
X003168Y015601D01*
X003164Y015604D01*
X002607Y015604D01*
X002519Y015516D01*
X002519Y014998D01*
X002607Y014910D01*
X003164Y014910D01*
X003168Y014913D01*
X003168Y014873D01*
X003255Y014785D01*
X003616Y014785D01*
X003704Y014873D01*
X003704Y015135D01*
X003716Y015146D01*
X003716Y015337D01*
X003704Y015349D01*
X003704Y015863D01*
X003704Y015780D02*
X004668Y015780D01*
X004668Y015682D02*
X003704Y015682D01*
X003704Y015583D02*
X004668Y015583D01*
X004668Y015485D02*
X003704Y015485D01*
X003704Y015386D02*
X004668Y015386D01*
X004668Y015288D02*
X003716Y015288D01*
X003716Y015189D02*
X004668Y015189D01*
X004668Y015091D02*
X003704Y015091D01*
X003704Y014992D02*
X004668Y014992D01*
X004668Y014894D02*
X003704Y014894D01*
X003626Y014795D02*
X004745Y014795D01*
X005126Y014795D02*
X005994Y014795D01*
X005986Y014696D02*
X002036Y014696D01*
X002036Y014598D02*
X005986Y014598D01*
X005986Y014499D02*
X002036Y014499D01*
X002036Y014401D02*
X006082Y014401D01*
X006093Y014894D02*
X005204Y014894D01*
X005204Y014992D02*
X006636Y014992D01*
X006568Y015091D02*
X005204Y015091D01*
X005409Y015189D02*
X006568Y015189D01*
X006568Y015288D02*
X006030Y015288D01*
X006275Y015386D02*
X006568Y015386D01*
X006568Y015485D02*
X006374Y015485D01*
X006436Y015583D02*
X006568Y015583D01*
X006568Y015682D02*
X006436Y015682D01*
X006436Y015780D02*
X006568Y015780D01*
X006568Y015879D02*
X006393Y015879D01*
X006295Y015978D02*
X006568Y015978D01*
X006836Y015568D02*
X006836Y014792D01*
X006936Y014692D01*
X006901Y014657D01*
X006901Y014592D01*
X007879Y014105D02*
X002036Y014105D01*
X002036Y014007D02*
X007907Y014007D01*
X007827Y013908D02*
X002036Y013908D01*
X002036Y013810D02*
X007827Y013810D01*
X008253Y013668D02*
X008453Y014159D01*
X008460Y014166D01*
X008253Y014416D01*
X008453Y014809D01*
X008536Y014892D01*
X008486Y014892D01*
X008836Y014894D02*
X009116Y014894D01*
X009116Y014992D02*
X008836Y014992D01*
X008782Y015091D02*
X009116Y015091D01*
X009116Y015189D02*
X008756Y015189D01*
X008756Y015288D02*
X008992Y015288D01*
X008940Y015386D02*
X008723Y015386D01*
X008656Y015485D02*
X008940Y015485D01*
X008940Y015583D02*
X008656Y015583D01*
X008604Y015879D02*
X008940Y015879D01*
X008943Y015978D02*
X008604Y015978D01*
X008591Y016076D02*
X010036Y016076D01*
X010036Y015978D02*
X009829Y015978D01*
X009831Y015879D02*
X010036Y015879D01*
X010036Y015780D02*
X009831Y015780D01*
X009831Y015682D02*
X010036Y015682D01*
X010036Y015583D02*
X009831Y015583D01*
X009831Y015485D02*
X010036Y015485D01*
X010036Y015386D02*
X009831Y015386D01*
X009979Y015288D02*
X010036Y015288D01*
X009299Y014696D02*
X008785Y014696D01*
X008836Y014795D02*
X009201Y014795D01*
X009376Y014598D02*
X008687Y014598D01*
X008678Y014499D02*
X009376Y014499D01*
X009376Y014401D02*
X008678Y014401D01*
X008678Y014302D02*
X008695Y014302D01*
X008693Y014204D02*
X008686Y014204D01*
X008693Y014105D02*
X008682Y014105D01*
X008693Y014007D02*
X008607Y014007D01*
X008678Y013908D02*
X008693Y013908D01*
X008693Y013810D02*
X008678Y013810D01*
X008678Y013711D02*
X008765Y013711D01*
X008824Y013612D02*
X008678Y013612D01*
X008678Y013514D02*
X008725Y013514D01*
X008786Y013292D02*
X007486Y013292D01*
X007610Y013392D01*
X007290Y013415D02*
X007281Y013415D01*
X007286Y013317D02*
X007281Y013317D01*
X007286Y013218D02*
X007281Y013218D01*
X007290Y013514D02*
X007281Y013514D01*
X007290Y013612D02*
X007281Y013612D01*
X007224Y013711D02*
X007348Y013711D01*
X008460Y014166D02*
X008486Y014192D01*
X009119Y014042D02*
X009119Y013625D01*
X008786Y013292D01*
X009436Y013792D02*
X009686Y013542D01*
X009936Y013542D01*
X010236Y013842D01*
X010236Y018292D01*
X010586Y018642D01*
X012486Y018642D01*
X012786Y018942D01*
X012836Y018942D01*
X012486Y018934D02*
X012164Y018934D01*
X012196Y019032D02*
X012486Y019032D01*
X012530Y019131D02*
X012196Y019131D01*
X012172Y019229D02*
X012629Y019229D01*
X012681Y019342D02*
X012391Y019342D01*
X012186Y019547D01*
X012186Y019592D01*
X011669Y019592D01*
X011569Y019492D01*
X011519Y019492D01*
X011469Y019442D01*
X011119Y019442D01*
X010953Y019442D01*
X010584Y019810D01*
X010518Y019744D01*
X010367Y019682D01*
X010204Y019682D01*
X010054Y019744D01*
X009938Y019859D01*
X009876Y020010D01*
X009876Y020173D01*
X009938Y020324D01*
X010054Y020439D01*
X010204Y020502D01*
X010367Y020502D01*
X010518Y020439D01*
X010633Y020324D01*
X010647Y020292D01*
X010669Y020292D01*
X010876Y020084D01*
X010876Y020173D01*
X010938Y020324D01*
X011054Y020439D01*
X011204Y020502D01*
X011367Y020502D01*
X011518Y020439D01*
X011633Y020324D01*
X011696Y020173D01*
X011696Y020010D01*
X011688Y019992D01*
X012341Y019992D01*
X012391Y020042D01*
X012681Y020042D01*
X012886Y019837D01*
X012886Y019547D01*
X012681Y019342D01*
X012766Y019427D02*
X014256Y019427D01*
X014256Y019525D02*
X012864Y019525D01*
X012886Y019624D02*
X014256Y019624D01*
X014256Y019722D02*
X012886Y019722D01*
X012886Y019821D02*
X014256Y019821D01*
X014256Y019919D02*
X012803Y019919D01*
X012704Y020018D02*
X014256Y020018D01*
X014256Y020116D02*
X011696Y020116D01*
X011696Y020018D02*
X012367Y020018D01*
X012436Y019792D02*
X012536Y019692D01*
X012436Y019792D02*
X011586Y019792D01*
X011486Y019692D01*
X011436Y019692D01*
X011386Y019642D01*
X011036Y019642D01*
X010586Y020092D01*
X010286Y020092D01*
X009913Y019919D02*
X009729Y019919D01*
X009729Y020018D02*
X009876Y020018D01*
X009876Y020116D02*
X009729Y020116D01*
X009729Y020215D02*
X009893Y020215D01*
X009934Y020313D02*
X009729Y020313D01*
X009644Y020412D02*
X010026Y020412D01*
X009545Y020511D02*
X014379Y020511D01*
X014281Y020412D02*
X011545Y020412D01*
X011638Y020313D02*
X014256Y020313D01*
X014256Y020215D02*
X011678Y020215D01*
X011026Y020412D02*
X010545Y020412D01*
X010638Y020313D02*
X010934Y020313D01*
X010893Y020215D02*
X010745Y020215D01*
X010844Y020116D02*
X010876Y020116D01*
X010672Y019722D02*
X010465Y019722D01*
X010771Y019624D02*
X004571Y019624D01*
X004573Y019525D02*
X010870Y019525D01*
X011399Y019229D02*
X004449Y019229D01*
X004350Y019131D02*
X011376Y019131D01*
X011376Y019032D02*
X009402Y019032D01*
X008869Y019032D02*
X004252Y019032D01*
X004179Y018934D02*
X008786Y018934D01*
X008786Y018835D02*
X004153Y018835D01*
X004111Y018558D02*
X004595Y018558D01*
X004674Y018637D01*
X005198Y018637D01*
X005286Y018549D01*
X005286Y018085D01*
X005198Y017997D01*
X005154Y017997D01*
X005153Y017961D01*
X005182Y017933D01*
X005241Y017992D01*
X005531Y017992D01*
X005736Y017787D01*
X005736Y017497D01*
X005616Y017377D01*
X005616Y017320D01*
X005481Y017185D01*
X005290Y017185D01*
X005204Y017185D01*
X005204Y016920D01*
X005116Y016832D01*
X004755Y016832D01*
X004668Y016920D01*
X004668Y017863D01*
X004629Y017825D01*
X004111Y017825D01*
X004036Y017901D01*
X003960Y017825D01*
X003704Y017825D01*
X003704Y016920D01*
X003616Y016832D01*
X003255Y016832D01*
X003168Y016920D01*
X003168Y017533D01*
X003164Y017529D01*
X002607Y017529D01*
X002519Y017617D01*
X002519Y018135D01*
X002607Y018223D01*
X003164Y018223D01*
X003252Y018135D01*
X003252Y018106D01*
X003275Y018106D01*
X003354Y018185D01*
X003354Y018470D01*
X003442Y018558D01*
X003960Y018558D01*
X004036Y018482D01*
X004111Y018558D01*
X004093Y018540D02*
X003979Y018540D01*
X003424Y018540D02*
X002036Y018540D01*
X002036Y018638D02*
X006624Y018638D01*
X006624Y018540D02*
X005286Y018540D01*
X005286Y018441D02*
X006624Y018441D01*
X006624Y018343D02*
X005286Y018343D01*
X005286Y018244D02*
X006624Y018244D01*
X006603Y018145D02*
X005286Y018145D01*
X005248Y018047D02*
X006568Y018047D01*
X006568Y017948D02*
X005574Y017948D01*
X005672Y017850D02*
X006568Y017850D01*
X006568Y017751D02*
X005736Y017751D01*
X005736Y017653D02*
X006568Y017653D01*
X006568Y017554D02*
X005736Y017554D01*
X005695Y017456D02*
X006568Y017456D01*
X006568Y017357D02*
X005616Y017357D01*
X005554Y017259D02*
X006568Y017259D01*
X006568Y017160D02*
X005204Y017160D01*
X005204Y017061D02*
X006626Y017061D01*
X007045Y017061D02*
X008126Y017061D01*
X008068Y017160D02*
X007104Y017160D01*
X007104Y017259D02*
X008068Y017259D01*
X008068Y017357D02*
X007104Y017357D01*
X007104Y017456D02*
X008068Y017456D01*
X008066Y017554D02*
X007104Y017554D01*
X007104Y017653D02*
X008066Y017653D01*
X008066Y017751D02*
X007104Y017751D01*
X007104Y017850D02*
X008068Y017850D01*
X008068Y017948D02*
X007104Y017948D01*
X007104Y018047D02*
X008068Y018047D01*
X007841Y018145D02*
X007830Y018145D01*
X008170Y018357D02*
X008286Y018242D01*
X008286Y018192D01*
X008561Y017917D01*
X008686Y018042D02*
X009061Y017666D01*
X009086Y017666D01*
X009436Y017653D02*
X010036Y017653D01*
X010036Y017751D02*
X009436Y017751D01*
X009436Y017850D02*
X010036Y017850D01*
X010036Y017948D02*
X009386Y017948D01*
X009145Y018145D02*
X010036Y018145D01*
X010036Y018047D02*
X009055Y018047D01*
X009235Y018244D02*
X010036Y018244D01*
X010036Y018343D02*
X009324Y018343D01*
X009442Y018441D02*
X010102Y018441D01*
X010511Y018717D02*
X010586Y018642D01*
X010619Y018934D02*
X011407Y018934D01*
X011442Y019328D02*
X004547Y019328D01*
X004573Y019427D02*
X011541Y019427D01*
X011602Y019525D02*
X012207Y019525D01*
X012306Y019427D02*
X012031Y019427D01*
X012129Y019328D02*
X014256Y019328D01*
X014256Y019229D02*
X013043Y019229D01*
X013141Y019131D02*
X014256Y019131D01*
X014236Y019032D02*
X013186Y019032D01*
X013636Y018442D02*
X014686Y017392D01*
X014586Y017492D01*
X014586Y018217D01*
X014936Y018244D02*
X015724Y018244D01*
X015713Y018233D02*
X015800Y018320D01*
X016121Y018320D01*
X016436Y018320D01*
X016550Y018320D01*
X016490Y018379D01*
X016490Y018769D01*
X016113Y019101D01*
X016067Y019082D01*
X015904Y019082D01*
X015754Y019144D01*
X015638Y019259D01*
X015576Y019410D01*
X015576Y019573D01*
X015638Y019724D01*
X015754Y019839D01*
X015904Y019902D01*
X016067Y019902D01*
X016218Y019839D01*
X016333Y019724D01*
X016396Y019573D01*
X016396Y019411D01*
X016873Y018992D01*
X017043Y018992D01*
X017061Y018973D01*
X017079Y018992D01*
X017184Y018992D01*
X017497Y019359D01*
X017476Y019410D01*
X017476Y019573D01*
X017538Y019724D01*
X017654Y019839D01*
X017804Y019902D01*
X017967Y019902D01*
X018118Y019839D01*
X018233Y019724D01*
X018296Y019573D01*
X018296Y019410D01*
X018233Y019259D01*
X018118Y019144D01*
X017967Y019082D01*
X017812Y019082D01*
X017631Y018869D01*
X017631Y018379D01*
X017543Y018292D01*
X017431Y018292D01*
X017431Y018271D01*
X017469Y018233D01*
X017469Y017518D01*
X017381Y017430D01*
X017192Y017430D01*
X017236Y017387D01*
X017236Y017097D01*
X017031Y016892D01*
X016741Y016892D01*
X016611Y017022D01*
X016481Y016892D01*
X016191Y016892D01*
X015986Y017097D01*
X015986Y017387D01*
X016029Y017430D01*
X015800Y017430D01*
X015713Y017518D01*
X015713Y017574D01*
X015681Y017542D01*
X015391Y017542D01*
X015186Y017747D01*
X015186Y018037D01*
X015391Y018242D01*
X015681Y018242D01*
X015713Y018210D01*
X015713Y018233D01*
X015652Y017875D02*
X015919Y017875D01*
X015936Y017892D01*
X015961Y017875D01*
X015652Y017875D02*
X015536Y017892D01*
X015295Y018145D02*
X014936Y018145D01*
X014936Y018047D02*
X015196Y018047D01*
X015186Y017948D02*
X014899Y017948D01*
X014936Y017985D02*
X014848Y017897D01*
X014786Y017897D01*
X014786Y017574D01*
X014945Y017415D01*
X015610Y017415D01*
X015698Y017327D01*
X015698Y017012D01*
X015698Y016697D01*
X015698Y016382D01*
X015698Y016067D01*
X015698Y015792D01*
X015891Y015792D01*
X016041Y015942D01*
X016331Y015942D01*
X016481Y015792D01*
X016569Y015792D01*
X016919Y015442D01*
X017253Y015442D01*
X017536Y015724D01*
X017651Y015839D01*
X017651Y016932D01*
X017486Y017097D01*
X017486Y017387D01*
X017610Y017510D01*
X017602Y017518D01*
X017602Y018233D01*
X017690Y018320D01*
X018011Y018320D01*
X018281Y018320D01*
X018281Y018419D01*
X019436Y019574D01*
X019436Y019797D01*
X019431Y019792D01*
X019141Y019792D01*
X018936Y019997D01*
X018936Y020212D01*
X014731Y020212D01*
X014716Y020196D01*
X014716Y019187D01*
X014716Y019186D01*
X014848Y019186D01*
X014936Y019098D01*
X014936Y019086D01*
X015091Y019242D01*
X015381Y019242D01*
X015586Y019037D01*
X015586Y018747D01*
X015381Y018542D01*
X015091Y018542D01*
X014966Y018666D01*
X014936Y018666D01*
X014936Y018634D01*
X014848Y018546D01*
X014324Y018546D01*
X014308Y018562D01*
X013798Y018562D01*
X014236Y018124D01*
X014236Y018449D01*
X014324Y018537D01*
X014848Y018537D01*
X014936Y018449D01*
X014936Y017985D01*
X014786Y017850D02*
X015186Y017850D01*
X015186Y017751D02*
X014786Y017751D01*
X014786Y017653D02*
X015280Y017653D01*
X015378Y017554D02*
X014806Y017554D01*
X014904Y017456D02*
X015775Y017456D01*
X015713Y017554D02*
X015693Y017554D01*
X015667Y017357D02*
X015986Y017357D01*
X015986Y017259D02*
X015698Y017259D01*
X015698Y017160D02*
X015986Y017160D01*
X016021Y017061D02*
X015698Y017061D01*
X015698Y016963D02*
X016119Y016963D01*
X016276Y017151D02*
X016336Y017242D01*
X016276Y017151D02*
X016276Y017875D01*
X016591Y017875D02*
X016591Y017537D01*
X016886Y017242D01*
X017236Y017259D02*
X017486Y017259D01*
X017486Y017357D02*
X017236Y017357D01*
X017236Y017160D02*
X017486Y017160D01*
X017521Y017061D02*
X017201Y017061D01*
X017102Y016963D02*
X017619Y016963D01*
X017651Y016864D02*
X015698Y016864D01*
X015698Y016766D02*
X017651Y016766D01*
X017651Y016667D02*
X015698Y016667D01*
X015698Y016569D02*
X017651Y016569D01*
X017651Y016470D02*
X015698Y016470D01*
X015698Y016372D02*
X017651Y016372D01*
X017651Y016273D02*
X015698Y016273D01*
X015698Y016175D02*
X017651Y016175D01*
X017651Y016076D02*
X015698Y016076D01*
X015698Y015978D02*
X017651Y015978D01*
X017651Y015879D02*
X016393Y015879D01*
X016580Y015780D02*
X017592Y015780D01*
X017493Y015682D02*
X016678Y015682D01*
X016777Y015583D02*
X017395Y015583D01*
X017296Y015485D02*
X016875Y015485D01*
X016836Y015242D02*
X017336Y015242D01*
X017736Y015642D01*
X017736Y015592D01*
X018051Y015277D01*
X019236Y015277D01*
X019236Y015192D01*
X019136Y015092D01*
X019236Y015277D02*
X019819Y015277D01*
X020086Y015242D01*
X020536Y015242D01*
X020686Y015392D01*
X020986Y015392D01*
X021136Y015542D01*
X021486Y015542D01*
X021936Y015992D01*
X023386Y015992D01*
X023736Y015642D01*
X026886Y015642D01*
X027686Y014842D01*
X027870Y015026D01*
X028537Y015026D01*
X028537Y015281D02*
X027546Y015281D01*
X027286Y015542D01*
X027336Y015542D01*
X027336Y015592D01*
X027486Y015742D01*
X027286Y015542D02*
X026936Y015892D01*
X024736Y015892D01*
X024236Y016392D01*
X023886Y016372D02*
X023199Y016372D01*
X023297Y016470D02*
X023886Y016470D01*
X023886Y016537D02*
X024091Y016742D01*
X023941Y016892D01*
X023719Y016892D01*
X023018Y016192D01*
X023469Y016192D01*
X023586Y016074D01*
X023819Y015842D01*
X024503Y015842D01*
X024303Y016042D01*
X024091Y016042D01*
X023886Y016247D01*
X023886Y016537D01*
X023918Y016569D02*
X023396Y016569D01*
X023494Y016667D02*
X024016Y016667D01*
X024091Y016742D02*
X024381Y016742D01*
X024091Y016742D01*
X024067Y016766D02*
X023593Y016766D01*
X023691Y016864D02*
X023968Y016864D01*
X024236Y017092D02*
X023636Y017092D01*
X022786Y016242D01*
X021836Y016242D01*
X021536Y015942D01*
X021160Y015942D01*
X020840Y015978D02*
X020831Y015978D01*
X020840Y016076D02*
X020831Y016076D01*
X020840Y016175D02*
X020831Y016175D01*
X020831Y016204D02*
X020831Y015679D01*
X020743Y015592D01*
X020279Y015592D01*
X020195Y015676D01*
X020177Y015658D01*
X019462Y015658D01*
X019374Y015746D01*
X019374Y015985D01*
X019181Y015792D01*
X018891Y015792D01*
X018686Y015997D01*
X018686Y016109D01*
X018675Y016098D01*
X018686Y016087D01*
X018686Y015797D01*
X018481Y015592D01*
X018191Y015592D01*
X018051Y015732D01*
X018051Y015674D01*
X017994Y015617D01*
X018134Y015477D01*
X019319Y015477D01*
X019413Y015477D01*
X019462Y015525D01*
X020177Y015525D01*
X020260Y015442D01*
X020453Y015442D01*
X020486Y015474D01*
X020603Y015592D01*
X020903Y015592D01*
X020916Y015604D01*
X020840Y015679D01*
X020840Y016204D01*
X020853Y016217D01*
X020840Y016229D01*
X020840Y016754D01*
X020928Y016842D01*
X021393Y016842D01*
X021480Y016754D01*
X021480Y016719D01*
X021728Y016966D01*
X021578Y016966D01*
X020264Y016966D01*
X020264Y016827D01*
X020279Y016842D01*
X020743Y016842D01*
X020831Y016754D01*
X020831Y016229D01*
X020818Y016217D01*
X020831Y016204D01*
X020840Y016273D02*
X020831Y016273D01*
X020840Y016372D02*
X020831Y016372D01*
X020840Y016470D02*
X020831Y016470D01*
X020840Y016569D02*
X020831Y016569D01*
X020840Y016667D02*
X020831Y016667D01*
X020819Y016766D02*
X020852Y016766D01*
X021160Y016492D02*
X021536Y016492D01*
X022086Y017042D01*
X022086Y017092D01*
X021724Y016963D02*
X020264Y016963D01*
X020264Y016864D02*
X021626Y016864D01*
X021527Y016766D02*
X021468Y016766D01*
X021661Y017166D02*
X022236Y017742D01*
X024336Y017742D01*
X024436Y017642D01*
X024786Y017653D02*
X025386Y017653D01*
X025386Y017751D02*
X024786Y017751D01*
X024786Y017787D02*
X024786Y017497D01*
X024581Y017292D01*
X024531Y017292D01*
X024586Y017237D01*
X024586Y016947D01*
X024381Y016742D01*
X024511Y016612D01*
X024686Y016787D01*
X024686Y016924D01*
X024741Y016980D01*
X024741Y017354D01*
X024829Y017442D01*
X025293Y017442D01*
X025381Y017354D01*
X025381Y016829D01*
X025293Y016742D01*
X025086Y016742D01*
X025086Y016687D01*
X025186Y016587D01*
X025186Y016374D01*
X025269Y016292D01*
X025341Y016292D01*
X025336Y016297D01*
X025336Y016587D01*
X025491Y016742D01*
X025478Y016742D01*
X025390Y016829D01*
X025390Y017354D01*
X025416Y017379D01*
X025386Y017409D01*
X025386Y017924D01*
X025486Y018024D01*
X025486Y018759D01*
X025286Y018559D01*
X025169Y018442D01*
X024681Y018442D01*
X024581Y018342D01*
X024291Y018342D01*
X024086Y018547D01*
X024086Y018684D01*
X024064Y018662D01*
X023708Y018662D01*
X023456Y018914D01*
X023456Y019270D01*
X023528Y019342D01*
X023244Y019342D01*
X023316Y019270D01*
X023316Y018914D01*
X023064Y018662D01*
X022989Y018662D01*
X022969Y018642D01*
X022806Y018479D01*
X022881Y018404D01*
X022881Y017942D01*
X024241Y017942D01*
X024291Y017992D01*
X024581Y017992D01*
X024786Y017787D01*
X024722Y017850D02*
X025386Y017850D01*
X025410Y017948D02*
X024624Y017948D01*
X024248Y017948D02*
X022881Y017948D01*
X022881Y018047D02*
X025486Y018047D01*
X025486Y018145D02*
X022881Y018145D01*
X022881Y018244D02*
X025486Y018244D01*
X025486Y018343D02*
X024582Y018343D01*
X024680Y018441D02*
X025486Y018441D01*
X025486Y018540D02*
X025267Y018540D01*
X025365Y018638D02*
X025486Y018638D01*
X025486Y018737D02*
X025464Y018737D01*
X025336Y018892D02*
X025086Y018642D01*
X024486Y018642D01*
X024436Y018692D01*
X024191Y018441D02*
X022844Y018441D01*
X022867Y018540D02*
X024093Y018540D01*
X024086Y018638D02*
X022965Y018638D01*
X023139Y018737D02*
X023633Y018737D01*
X023534Y018835D02*
X023237Y018835D01*
X023316Y018934D02*
X023456Y018934D01*
X023456Y019032D02*
X023316Y019032D01*
X023316Y019131D02*
X023456Y019131D01*
X023456Y019229D02*
X023316Y019229D01*
X023257Y019328D02*
X023514Y019328D01*
X022886Y019092D02*
X022886Y018842D01*
X022386Y018342D01*
X022561Y018142D01*
X022386Y018342D02*
X021186Y018342D01*
X021136Y018292D01*
X021136Y018266D01*
X021136Y018292D02*
X021136Y018442D01*
X020936Y018642D01*
X019886Y018642D01*
X019653Y018409D01*
X019653Y017892D01*
X019636Y017692D01*
X019236Y017292D01*
X018336Y017292D01*
X018166Y017462D01*
X018166Y017875D01*
X017886Y017792D02*
X017836Y017742D01*
X017836Y017242D01*
X017555Y017456D02*
X017407Y017456D01*
X017469Y017554D02*
X017602Y017554D01*
X017602Y017653D02*
X017469Y017653D01*
X017469Y017751D02*
X017602Y017751D01*
X017602Y017850D02*
X017469Y017850D01*
X017536Y017875D02*
X017536Y018242D01*
X017614Y018244D02*
X017458Y018244D01*
X017469Y018145D02*
X017602Y018145D01*
X017602Y018047D02*
X017469Y018047D01*
X017469Y017948D02*
X017602Y017948D01*
X017851Y017875D02*
X017851Y017827D01*
X017886Y017792D01*
X017851Y017875D02*
X017851Y015757D01*
X017736Y015642D01*
X018027Y015583D02*
X020595Y015583D01*
X020496Y015485D02*
X020217Y015485D01*
X020831Y015682D02*
X020840Y015682D01*
X020840Y015780D02*
X020831Y015780D01*
X020840Y015879D02*
X020831Y015879D01*
X020511Y015942D02*
X019886Y015942D01*
X019851Y015907D01*
X019819Y015907D01*
X019819Y016222D02*
X020166Y016222D01*
X020336Y016392D01*
X020386Y016392D01*
X020461Y016467D01*
X020511Y016492D01*
X019819Y016537D02*
X019381Y016537D01*
X019036Y016192D01*
X019036Y016142D01*
X019268Y015879D02*
X019374Y015879D01*
X019374Y015978D02*
X019367Y015978D01*
X019374Y015780D02*
X018669Y015780D01*
X018686Y015879D02*
X018803Y015879D01*
X018705Y015978D02*
X018686Y015978D01*
X018686Y016076D02*
X018686Y016076D01*
X018336Y016042D02*
X019136Y016842D01*
X019136Y016851D01*
X019819Y016851D01*
X019819Y017166D02*
X021661Y017166D01*
X021611Y017617D02*
X021636Y017642D01*
X021611Y017617D02*
X021136Y017617D01*
X021136Y017592D01*
X021110Y017618D01*
X021110Y017616D01*
X021036Y017542D01*
X020686Y017542D01*
X020662Y017518D01*
X020519Y017518D01*
X020519Y017675D01*
X020536Y017692D01*
X020519Y017709D01*
X020519Y018266D01*
X021136Y017692D02*
X021136Y017617D01*
X021636Y018642D02*
X022136Y018642D01*
X022386Y018892D01*
X022386Y019342D01*
X022586Y019542D01*
X024386Y019542D01*
X024836Y019092D01*
X024886Y019092D01*
X024886Y019342D01*
X025186Y019642D01*
X030136Y019642D01*
X030460Y019966D01*
X030586Y019966D01*
X030236Y020024D02*
X030053Y019842D01*
X029936Y019842D01*
X029936Y020198D01*
X029848Y020286D01*
X029324Y020286D01*
X029236Y020198D01*
X029236Y020124D01*
X029153Y020042D01*
X026069Y020042D01*
X025568Y020542D01*
X032436Y020542D01*
X032436Y005859D01*
X032407Y005888D01*
X032315Y005888D01*
X032319Y005892D01*
X032436Y006009D01*
X032436Y012059D01*
X032436Y012224D01*
X032136Y012524D01*
X032019Y012642D01*
X030153Y012642D01*
X028503Y012642D01*
X028386Y012524D01*
X028353Y012492D01*
X027119Y012492D01*
X026853Y012492D01*
X026269Y012492D01*
X026218Y012542D01*
X026231Y012542D01*
X026436Y012747D01*
X026436Y013037D01*
X026231Y013242D01*
X026019Y013242D01*
X023919Y015342D01*
X023753Y015342D01*
X023580Y015342D01*
X023580Y015404D01*
X023493Y015492D01*
X023431Y015492D01*
X023436Y015497D01*
X023436Y015659D01*
X023653Y015442D01*
X023819Y015442D01*
X026803Y015442D01*
X027436Y014809D01*
X027436Y014474D01*
X027436Y014309D01*
X027454Y014291D01*
X027454Y013883D01*
X027542Y013795D01*
X027836Y013795D01*
X027836Y013659D01*
X027836Y013624D01*
X027786Y013574D01*
X027403Y013192D01*
X027191Y013192D01*
X026986Y012987D01*
X026986Y012697D01*
X027191Y012492D01*
X027481Y012492D01*
X027686Y012697D01*
X027686Y012909D01*
X028069Y013292D01*
X028119Y013292D01*
X028268Y013292D01*
X028280Y013280D01*
X028794Y013280D01*
X028882Y013368D01*
X028882Y013546D01*
X029936Y013546D01*
X029936Y013447D01*
X030141Y013242D01*
X030431Y013242D01*
X030636Y013447D01*
X030636Y013536D01*
X031092Y013536D01*
X031102Y013546D01*
X031773Y013546D01*
X031890Y013663D01*
X031890Y013663D01*
X032019Y013792D01*
X032293Y013792D01*
X032380Y013879D01*
X032380Y014404D01*
X032293Y014492D01*
X031968Y014492D01*
X032019Y014542D01*
X032293Y014542D01*
X032380Y014629D01*
X032380Y015154D01*
X032293Y015242D01*
X031828Y015242D01*
X031740Y015154D01*
X031740Y014829D01*
X031731Y014820D01*
X031731Y015154D01*
X031643Y015242D01*
X031179Y015242D01*
X031179Y015404D01*
X031174Y015409D01*
X031179Y015415D01*
X031179Y015659D01*
X031174Y015665D01*
X031179Y015671D01*
X031179Y015915D01*
X031092Y016003D01*
X030577Y016003D01*
X030489Y015915D01*
X030489Y015671D01*
X030495Y015665D01*
X030489Y015659D01*
X030489Y015415D01*
X030495Y015409D01*
X030489Y015404D01*
X030489Y015383D01*
X030381Y015492D01*
X030091Y015492D01*
X029886Y015287D01*
X029886Y014997D01*
X030091Y014792D01*
X030381Y014792D01*
X030415Y014826D01*
X030489Y014826D01*
X030489Y014647D01*
X030495Y014642D01*
X030489Y014636D01*
X030489Y014433D01*
X030431Y014492D01*
X030141Y014492D01*
X029936Y014287D01*
X029936Y013997D01*
X029987Y013946D01*
X028804Y013946D01*
X028794Y013956D01*
X028280Y013956D01*
X028266Y013942D01*
X028236Y013942D01*
X028236Y013959D01*
X028236Y014092D01*
X028280Y014048D01*
X028794Y014048D01*
X028804Y014058D01*
X028835Y014058D01*
X029169Y014392D01*
X029286Y014509D01*
X029286Y016109D01*
X029286Y016274D01*
X029086Y016474D01*
X029086Y016687D01*
X028881Y016892D01*
X028591Y016892D01*
X028386Y016687D01*
X028386Y016397D01*
X028491Y016292D01*
X027668Y016292D01*
X028419Y017042D01*
X030053Y017042D01*
X030219Y017042D01*
X031169Y017992D01*
X031286Y018109D01*
X031286Y018347D01*
X031436Y018497D01*
X031436Y018787D01*
X031231Y018992D01*
X030941Y018992D01*
X030836Y018887D01*
X030786Y018937D01*
X030786Y018997D01*
X030848Y018997D01*
X030936Y019085D01*
X030936Y019549D01*
X030848Y019637D01*
X030414Y019637D01*
X030423Y019646D01*
X030848Y019646D01*
X030936Y019734D01*
X030936Y020198D01*
X030848Y020286D01*
X030324Y020286D01*
X030236Y020198D01*
X030236Y020024D01*
X030229Y020018D02*
X029936Y020018D01*
X029936Y020116D02*
X030236Y020116D01*
X030252Y020215D02*
X029919Y020215D01*
X029936Y019919D02*
X030131Y019919D01*
X029586Y019966D02*
X029360Y019966D01*
X029236Y019842D01*
X025986Y019842D01*
X025286Y020542D01*
X021336Y020542D01*
X021336Y019592D01*
X021836Y019092D01*
X021886Y019092D01*
X021636Y018642D02*
X021386Y018892D01*
X021386Y019242D01*
X021036Y019592D01*
X020436Y019592D01*
X019111Y018266D01*
X019111Y017875D01*
X018796Y017875D02*
X018796Y018301D01*
X020036Y019542D01*
X020036Y019742D01*
X020254Y020018D02*
X021136Y020018D01*
X021136Y020116D02*
X020143Y020116D01*
X020118Y020092D02*
X020181Y020092D01*
X020386Y019887D01*
X020386Y019792D01*
X020519Y019792D01*
X021119Y019792D01*
X021136Y019774D01*
X021136Y020342D01*
X020369Y020342D01*
X020118Y020092D01*
X020242Y020215D02*
X021136Y020215D01*
X021136Y020313D02*
X020340Y020313D01*
X020286Y020542D02*
X021336Y020542D01*
X021136Y019919D02*
X020353Y019919D01*
X020386Y019821D02*
X021136Y019821D01*
X020286Y020542D02*
X019636Y019892D01*
X019636Y019492D01*
X018481Y018337D01*
X018481Y017875D01*
X018281Y018343D02*
X017594Y018343D01*
X017631Y018441D02*
X018302Y018441D01*
X018401Y018540D02*
X017631Y018540D01*
X017631Y018638D02*
X018499Y018638D01*
X018598Y018737D02*
X017631Y018737D01*
X017631Y018835D02*
X018697Y018835D01*
X018795Y018934D02*
X017686Y018934D01*
X017770Y019032D02*
X018894Y019032D01*
X018992Y019131D02*
X018086Y019131D01*
X018203Y019229D02*
X019091Y019229D01*
X019189Y019328D02*
X018262Y019328D01*
X018296Y019427D02*
X019288Y019427D01*
X019386Y019525D02*
X018296Y019525D01*
X018275Y019624D02*
X019436Y019624D01*
X019436Y019722D02*
X018234Y019722D01*
X018136Y019821D02*
X019112Y019821D01*
X019013Y019919D02*
X014716Y019919D01*
X014716Y019821D02*
X015735Y019821D01*
X015637Y019722D02*
X014716Y019722D01*
X014716Y019624D02*
X015597Y019624D01*
X015576Y019525D02*
X014716Y019525D01*
X014716Y019427D02*
X015576Y019427D01*
X015610Y019328D02*
X014716Y019328D01*
X014716Y019229D02*
X015079Y019229D01*
X014980Y019131D02*
X014903Y019131D01*
X015211Y018866D02*
X015236Y018892D01*
X015211Y018866D02*
X014586Y018866D01*
X014936Y018638D02*
X014994Y018638D01*
X014936Y018441D02*
X016490Y018441D01*
X016490Y018540D02*
X013820Y018540D01*
X013919Y018441D02*
X014236Y018441D01*
X014236Y018343D02*
X014018Y018343D01*
X014116Y018244D02*
X014236Y018244D01*
X014236Y018145D02*
X014215Y018145D01*
X013861Y017617D02*
X014461Y016992D01*
X014586Y016867D01*
X014961Y016867D01*
X015252Y016851D01*
X015252Y017166D02*
X014911Y017166D01*
X014686Y017392D01*
X014232Y016942D02*
X013871Y017317D01*
X013829Y017275D01*
X013311Y017275D01*
X013236Y017351D01*
X013160Y017275D01*
X012642Y017275D01*
X012554Y017363D01*
X012554Y017740D01*
X012540Y017755D01*
X012514Y017729D01*
X011957Y017729D01*
X011894Y017792D01*
X011848Y017746D01*
X011324Y017746D01*
X011323Y017747D01*
X010886Y017309D01*
X010886Y012874D01*
X010886Y012742D01*
X012503Y012742D01*
X011819Y012742D01*
X011653Y012742D01*
X011186Y013209D01*
X011186Y013374D01*
X011186Y013559D01*
X011136Y013609D01*
X011136Y013774D01*
X011136Y016174D01*
X011236Y016274D01*
X011236Y016549D01*
X011324Y016637D01*
X011848Y016637D01*
X011936Y016549D01*
X011936Y016532D01*
X011957Y016554D01*
X012465Y016554D01*
X012554Y016643D01*
X012554Y017120D01*
X012642Y017208D01*
X013160Y017208D01*
X013236Y017132D01*
X013311Y017208D01*
X013829Y017208D01*
X013917Y017120D01*
X013917Y016942D01*
X014232Y016942D01*
X014211Y016963D02*
X013917Y016963D01*
X013917Y017061D02*
X014116Y017061D01*
X014022Y017160D02*
X013877Y017160D01*
X013927Y017259D02*
X010886Y017259D01*
X010886Y017160D02*
X012594Y017160D01*
X012554Y017061D02*
X010886Y017061D01*
X010886Y016963D02*
X012554Y016963D01*
X012554Y016864D02*
X010886Y016864D01*
X010886Y016766D02*
X012554Y016766D01*
X012554Y016667D02*
X010886Y016667D01*
X010886Y016569D02*
X011255Y016569D01*
X011236Y016470D02*
X010886Y016470D01*
X010886Y016372D02*
X011236Y016372D01*
X011234Y016273D02*
X010886Y016273D01*
X010886Y016175D02*
X011136Y016175D01*
X011136Y016076D02*
X010886Y016076D01*
X010886Y015978D02*
X011136Y015978D01*
X011136Y015879D02*
X010886Y015879D01*
X010886Y015780D02*
X011136Y015780D01*
X011136Y015682D02*
X010886Y015682D01*
X010886Y015583D02*
X011136Y015583D01*
X011136Y015485D02*
X010886Y015485D01*
X010886Y015386D02*
X011136Y015386D01*
X011136Y015288D02*
X010886Y015288D01*
X010886Y015189D02*
X011136Y015189D01*
X011136Y015091D02*
X010886Y015091D01*
X010886Y014992D02*
X011136Y014992D01*
X011136Y014894D02*
X010886Y014894D01*
X010886Y014795D02*
X011136Y014795D01*
X011136Y014696D02*
X010886Y014696D01*
X010886Y014598D02*
X011136Y014598D01*
X011136Y014499D02*
X010886Y014499D01*
X010886Y014401D02*
X011136Y014401D01*
X011136Y014302D02*
X010886Y014302D01*
X010886Y014204D02*
X011136Y014204D01*
X011136Y014105D02*
X010886Y014105D01*
X010886Y014007D02*
X011136Y014007D01*
X011136Y013908D02*
X010886Y013908D01*
X010886Y013810D02*
X011136Y013810D01*
X011136Y013711D02*
X010886Y013711D01*
X010886Y013612D02*
X011136Y013612D01*
X011186Y013514D02*
X010886Y013514D01*
X010886Y013415D02*
X011186Y013415D01*
X011186Y013317D02*
X010886Y013317D01*
X010886Y013218D02*
X011186Y013218D01*
X011275Y013120D02*
X010886Y013120D01*
X010886Y013021D02*
X011373Y013021D01*
X011472Y012923D02*
X010886Y012923D01*
X010886Y012824D02*
X011570Y012824D01*
X011736Y012942D02*
X011386Y013292D01*
X011386Y013642D01*
X011336Y013692D01*
X011336Y016092D01*
X011586Y016342D01*
X011586Y016317D01*
X012210Y016317D01*
X012236Y016292D01*
X012236Y016207D01*
X012401Y016207D01*
X012936Y016742D01*
X012901Y016776D01*
X012901Y016842D01*
X013208Y017160D02*
X013263Y017160D01*
X013570Y016842D02*
X013711Y016742D01*
X014336Y016742D01*
X014586Y016492D01*
X014961Y016492D01*
X015252Y016537D01*
X015252Y016222D02*
X013566Y016222D01*
X012986Y015642D01*
X012986Y014992D01*
X012636Y014992D02*
X011536Y014992D01*
X011536Y014894D02*
X012636Y014894D01*
X012636Y014847D02*
X012841Y014642D01*
X012986Y014642D01*
X012986Y014397D01*
X013191Y014192D01*
X013481Y014192D01*
X013636Y014347D01*
X013636Y014026D01*
X013870Y013792D01*
X014186Y013792D01*
X014186Y013676D01*
X014420Y013442D01*
X014751Y013442D01*
X014986Y013676D01*
X014986Y013768D01*
X015430Y013768D01*
X015003Y013342D01*
X014469Y013342D01*
X014336Y013474D01*
X014336Y013474D01*
X014219Y013592D01*
X013769Y013592D01*
X013219Y014142D01*
X013053Y014142D01*
X012031Y014142D01*
X011881Y014292D01*
X011591Y014292D01*
X011536Y014236D01*
X011536Y015997D01*
X011848Y015997D01*
X011869Y016018D01*
X011869Y015948D01*
X011957Y015860D01*
X012514Y015860D01*
X012602Y015948D01*
X012602Y016125D01*
X012952Y016475D01*
X013160Y016475D01*
X013236Y016551D01*
X013311Y016475D01*
X013829Y016475D01*
X013896Y016542D01*
X014253Y016542D01*
X014373Y016422D01*
X013648Y016422D01*
X013483Y016422D01*
X012903Y015842D01*
X012786Y015724D01*
X012786Y015287D01*
X012636Y015137D01*
X012636Y014847D01*
X012687Y014795D02*
X011536Y014795D01*
X011536Y014696D02*
X012786Y014696D01*
X012986Y014598D02*
X011536Y014598D01*
X011536Y014499D02*
X012986Y014499D01*
X012986Y014401D02*
X011536Y014401D01*
X011536Y014302D02*
X013080Y014302D01*
X013179Y014204D02*
X011969Y014204D01*
X011736Y013942D02*
X013136Y013942D01*
X013686Y013392D01*
X014136Y013392D01*
X014386Y013142D01*
X015086Y013142D01*
X015886Y013942D01*
X015886Y014042D01*
X016336Y014492D01*
X018236Y014492D01*
X019086Y013642D01*
X019086Y013342D01*
X019111Y013317D01*
X019211Y013216D01*
X019211Y013066D01*
X019610Y012667D01*
X019686Y012667D01*
X019686Y012692D01*
X019586Y012592D01*
X019586Y012192D01*
X019686Y012642D02*
X019701Y012657D01*
X020336Y012657D01*
X020702Y012627D02*
X020838Y012627D01*
X020903Y012692D02*
X020702Y012491D01*
X020702Y012916D01*
X020614Y013004D01*
X020057Y013004D01*
X019994Y012941D01*
X019948Y012987D01*
X019573Y012987D01*
X019411Y013149D01*
X019411Y013299D01*
X019359Y013351D01*
X019359Y013666D01*
X019271Y013753D01*
X019257Y013753D01*
X018436Y014574D01*
X018319Y014692D01*
X016419Y014692D01*
X016253Y014692D01*
X015803Y014242D01*
X015698Y014136D01*
X015698Y014177D01*
X015698Y014492D01*
X015698Y014807D01*
X015698Y015122D01*
X015610Y015210D01*
X014895Y015210D01*
X014846Y015162D01*
X014798Y015162D01*
X014736Y015224D01*
X014736Y015387D01*
X014531Y015592D01*
X014241Y015592D01*
X014036Y015387D01*
X014036Y015097D01*
X014166Y014967D01*
X014036Y014837D01*
X014036Y014592D01*
X013870Y014592D01*
X013686Y014407D01*
X013686Y014687D01*
X013536Y014837D01*
X013536Y015359D01*
X013884Y015707D01*
X014807Y015707D01*
X014807Y015431D01*
X014895Y015343D01*
X015610Y015343D01*
X015658Y015392D01*
X015891Y015392D01*
X016041Y015242D01*
X016331Y015242D01*
X016442Y015353D01*
X016636Y015159D01*
X016753Y015042D01*
X017253Y015042D01*
X017419Y015042D01*
X017711Y015334D01*
X017968Y015077D01*
X018134Y015077D01*
X018786Y015077D01*
X018786Y014947D01*
X018991Y014742D01*
X019281Y014742D01*
X019374Y014835D01*
X019374Y014801D01*
X019374Y014486D01*
X019374Y014171D01*
X019374Y013856D01*
X019462Y013768D01*
X020177Y013768D01*
X020225Y013817D01*
X020666Y013817D01*
X020741Y013742D01*
X021031Y013742D01*
X021155Y013866D01*
X021229Y013792D01*
X021693Y013792D01*
X021781Y013879D01*
X021781Y014379D01*
X021781Y014879D01*
X021781Y015154D01*
X021969Y015342D01*
X022291Y015342D01*
X022291Y014879D01*
X022379Y014792D01*
X022736Y014792D01*
X022736Y014759D01*
X022853Y014642D01*
X022853Y014642D01*
X023803Y013692D01*
X023969Y013692D01*
X024703Y013692D01*
X025436Y012959D01*
X025436Y012924D01*
X025436Y012759D01*
X025503Y012692D01*
X022481Y012692D01*
X022486Y012697D01*
X022486Y012987D01*
X022336Y013137D01*
X022336Y013792D01*
X022343Y013792D01*
X022430Y013879D01*
X022430Y014404D01*
X022343Y014492D01*
X021878Y014492D01*
X021790Y014404D01*
X021790Y013879D01*
X021878Y013792D01*
X021936Y013792D01*
X021936Y013137D01*
X021786Y012987D01*
X021786Y012697D01*
X021791Y012692D01*
X021069Y012692D01*
X020903Y012692D01*
X020702Y012726D02*
X021786Y012726D01*
X021786Y012824D02*
X020702Y012824D01*
X020696Y012923D02*
X021786Y012923D01*
X021820Y013021D02*
X019539Y013021D01*
X019440Y013120D02*
X021919Y013120D01*
X021936Y013218D02*
X019411Y013218D01*
X019393Y013317D02*
X021936Y013317D01*
X021936Y013415D02*
X019359Y013415D01*
X019359Y013514D02*
X021936Y013514D01*
X021936Y013612D02*
X019359Y013612D01*
X019314Y013711D02*
X021936Y013711D01*
X021860Y013810D02*
X021711Y013810D01*
X021781Y013908D02*
X021790Y013908D01*
X021790Y014007D02*
X021781Y014007D01*
X021790Y014105D02*
X021781Y014105D01*
X021790Y014204D02*
X021781Y014204D01*
X021790Y014302D02*
X021781Y014302D01*
X021790Y014401D02*
X021781Y014401D01*
X021781Y014499D02*
X022995Y014499D01*
X023094Y014401D02*
X022430Y014401D01*
X022430Y014302D02*
X023192Y014302D01*
X023291Y014204D02*
X022430Y014204D01*
X022430Y014105D02*
X023389Y014105D01*
X023488Y014007D02*
X022430Y014007D01*
X022430Y013908D02*
X023586Y013908D01*
X023685Y013810D02*
X022360Y013810D01*
X022336Y013711D02*
X023784Y013711D01*
X023886Y013892D02*
X022936Y014842D01*
X022936Y015492D01*
X023086Y015642D01*
X023436Y015583D02*
X023511Y015583D01*
X023499Y015485D02*
X023610Y015485D01*
X023580Y015386D02*
X026858Y015386D01*
X026957Y015288D02*
X023972Y015288D01*
X024071Y015189D02*
X027055Y015189D01*
X027154Y015091D02*
X024170Y015091D01*
X024268Y014992D02*
X027252Y014992D01*
X027351Y014894D02*
X024367Y014894D01*
X024465Y014795D02*
X027436Y014795D01*
X027436Y014696D02*
X024564Y014696D01*
X024662Y014598D02*
X027436Y014598D01*
X027436Y014499D02*
X024761Y014499D01*
X024859Y014401D02*
X027436Y014401D01*
X027442Y014302D02*
X024958Y014302D01*
X025056Y014204D02*
X027454Y014204D01*
X027454Y014105D02*
X025155Y014105D01*
X025254Y014007D02*
X027454Y014007D01*
X027454Y013908D02*
X025352Y013908D01*
X025451Y013810D02*
X027527Y013810D01*
X027836Y013711D02*
X025549Y013711D01*
X025648Y013612D02*
X027824Y013612D01*
X027725Y013514D02*
X025746Y013514D01*
X025845Y013415D02*
X027627Y013415D01*
X027528Y013317D02*
X025943Y013317D01*
X026254Y013218D02*
X027430Y013218D01*
X027119Y013120D02*
X026353Y013120D01*
X026436Y013021D02*
X027020Y013021D01*
X026986Y012923D02*
X026436Y012923D01*
X026436Y012824D02*
X026986Y012824D01*
X026986Y012726D02*
X026415Y012726D01*
X026316Y012627D02*
X027055Y012627D01*
X027154Y012529D02*
X026232Y012529D01*
X026186Y012292D02*
X027036Y012292D01*
X026936Y012292D01*
X027036Y012292D02*
X028436Y012292D01*
X028586Y012442D01*
X030236Y012442D01*
X031936Y012442D01*
X032236Y012142D01*
X032236Y006092D01*
X032069Y005925D01*
X032069Y005542D01*
X031869Y005888D02*
X031869Y006008D01*
X032036Y006174D01*
X032036Y007359D01*
X031186Y006509D01*
X031069Y006392D01*
X030830Y006392D01*
X030818Y006379D01*
X030835Y006362D01*
X030835Y006233D01*
X030865Y006262D01*
X031540Y006262D01*
X031628Y006175D01*
X031628Y005657D01*
X031540Y005569D01*
X030865Y005569D01*
X030810Y005624D01*
X030746Y005559D01*
X030236Y005559D01*
X030236Y005124D01*
X030479Y005368D01*
X030645Y005368D01*
X030777Y005368D01*
X030777Y005427D01*
X030865Y005514D01*
X031540Y005514D01*
X031628Y005427D01*
X031628Y004909D01*
X031540Y004821D01*
X030865Y004821D01*
X030777Y004909D01*
X030777Y004968D01*
X030645Y004968D01*
X030169Y004492D01*
X029486Y003809D01*
X029486Y002609D01*
X029369Y002492D01*
X028668Y001792D01*
X032436Y001792D01*
X032436Y005224D01*
X032407Y005195D01*
X031731Y005195D01*
X031643Y005283D01*
X031643Y005801D01*
X031731Y005888D01*
X031869Y005888D01*
X031869Y005926D02*
X031628Y005926D01*
X031628Y005828D02*
X031670Y005828D01*
X031643Y005729D02*
X031628Y005729D01*
X031643Y005630D02*
X031602Y005630D01*
X031643Y005532D02*
X030236Y005532D01*
X030236Y005433D02*
X030784Y005433D01*
X030562Y005168D02*
X031203Y005168D01*
X030777Y004941D02*
X030618Y004941D01*
X030519Y004842D02*
X030844Y004842D01*
X030562Y005168D02*
X030086Y004692D01*
X030186Y004792D01*
X030086Y004692D02*
X029286Y003892D01*
X029286Y002692D01*
X028536Y001942D01*
X022236Y001942D01*
X021998Y002204D01*
X021848Y002218D01*
X021386Y001942D02*
X020536Y001942D01*
X019436Y001942D01*
X019886Y002092D01*
X019736Y002142D01*
X019736Y002117D01*
X019436Y001942D02*
X018936Y002442D01*
X018036Y002442D01*
X017436Y001842D01*
X015336Y001842D01*
X015086Y002092D01*
X015061Y002192D01*
X014536Y002192D01*
X014536Y002342D01*
X014336Y002542D01*
X013536Y002542D01*
X013186Y002042D01*
X006736Y002042D01*
X006486Y002292D01*
X006486Y002792D01*
X006186Y003092D01*
X005886Y003092D01*
X005862Y003068D01*
X005862Y002816D01*
X006086Y002592D01*
X005862Y003068D02*
X005824Y003068D01*
X005724Y003080D01*
X005736Y003092D01*
X006236Y003442D02*
X006236Y004092D01*
X006136Y004192D01*
X005986Y004192D01*
X006111Y004317D01*
X006111Y004492D01*
X005791Y004448D02*
X005762Y004448D01*
X005791Y004419D02*
X005791Y004754D01*
X005879Y004842D01*
X006343Y004842D01*
X006431Y004754D01*
X006431Y004229D01*
X006406Y004204D01*
X006436Y004174D01*
X006436Y004009D01*
X006436Y003524D01*
X006634Y003326D01*
X007146Y003326D01*
X007234Y003238D01*
X007234Y002897D01*
X007146Y002809D01*
X007048Y002809D01*
X007048Y002513D01*
X007119Y002442D01*
X012932Y002442D01*
X013186Y002805D01*
X013186Y002824D01*
X013232Y002871D01*
X013303Y002942D01*
X013469Y002942D01*
X013503Y002942D01*
X013503Y003397D01*
X013374Y003397D01*
X013286Y003485D01*
X013286Y003949D01*
X013374Y004037D01*
X013841Y004037D01*
X013841Y004154D01*
X013929Y004242D01*
X014393Y004242D01*
X014481Y004154D01*
X014481Y003629D01*
X014393Y003542D01*
X013986Y003542D01*
X013986Y003486D01*
X014020Y003452D01*
X014020Y002942D01*
X014251Y002942D01*
X014251Y003452D01*
X014339Y003540D01*
X014680Y003540D01*
X014768Y003452D01*
X014768Y003192D01*
X014869Y003092D01*
X015293Y003092D01*
X015381Y003004D01*
X015381Y002479D01*
X015368Y002467D01*
X015381Y002454D01*
X015381Y002079D01*
X015419Y002042D01*
X017353Y002042D01*
X017953Y002642D01*
X018119Y002642D01*
X019019Y002642D01*
X019136Y002524D01*
X019386Y002274D01*
X019386Y002349D01*
X019474Y002437D01*
X019986Y002437D01*
X019986Y002959D01*
X019948Y002997D01*
X019524Y002997D01*
X019436Y003085D01*
X019436Y003549D01*
X019524Y003637D01*
X020036Y003637D01*
X020036Y003799D01*
X020124Y003887D01*
X020648Y003887D01*
X020736Y003799D01*
X020736Y003335D01*
X020648Y003247D01*
X020386Y003247D01*
X020386Y002959D01*
X020386Y002524D01*
X020480Y002430D01*
X020526Y002476D01*
X021122Y002476D01*
X021186Y002412D01*
X021186Y002771D01*
X021122Y002707D01*
X020526Y002707D01*
X020438Y002795D01*
X020438Y003136D01*
X020526Y003224D01*
X020921Y003224D01*
X020926Y003229D01*
X021091Y003394D01*
X021091Y003904D01*
X021179Y003992D01*
X021643Y003992D01*
X021731Y003904D01*
X021731Y003694D01*
X021735Y003690D01*
X021771Y003654D01*
X021771Y003480D01*
X021743Y003452D01*
X022223Y003452D01*
X022346Y003329D01*
X022346Y003314D01*
X022519Y003142D01*
X022619Y003142D01*
X022736Y003024D01*
X023219Y002542D01*
X028253Y002542D01*
X028386Y002674D01*
X028386Y002674D01*
X023086Y002674D01*
X023185Y002576D02*
X028287Y002576D01*
X028386Y002674D02*
X028686Y002974D01*
X028686Y003497D01*
X028581Y003392D01*
X028291Y003392D01*
X028086Y003597D01*
X028086Y003887D01*
X028291Y004092D01*
X028411Y004092D01*
X028411Y004892D01*
X028379Y004892D01*
X028291Y004979D01*
X028291Y005504D01*
X028379Y005592D01*
X028590Y005592D01*
X028590Y006054D01*
X028678Y006142D01*
X029143Y006142D01*
X029208Y006076D01*
X029636Y006076D01*
X029636Y006307D01*
X029126Y006307D01*
X029038Y006395D01*
X029038Y006736D01*
X029126Y006824D01*
X029224Y006824D01*
X029224Y007107D01*
X029126Y007205D01*
X029126Y011729D01*
X029136Y011739D01*
X029136Y011759D01*
X029003Y011892D01*
X026169Y011892D01*
X026003Y011892D01*
X025603Y012292D01*
X021069Y012292D01*
X020119Y011342D01*
X019953Y011342D01*
X016169Y011342D01*
X016003Y011342D01*
X015603Y011742D01*
X014903Y011742D01*
X014786Y011859D01*
X013903Y012742D01*
X013831Y012742D01*
X013886Y012687D01*
X013886Y012397D01*
X013681Y012192D01*
X013391Y012192D01*
X013336Y012247D01*
X013336Y012247D01*
X013131Y012042D01*
X012841Y012042D01*
X012791Y012092D01*
X011969Y012092D01*
X011803Y012092D01*
X011753Y012142D01*
X010125Y012142D01*
X010196Y012071D01*
X010196Y011212D01*
X009956Y010972D01*
X009616Y010972D01*
X009376Y011212D01*
X009376Y012071D01*
X009446Y012142D01*
X009319Y012142D01*
X009286Y012109D01*
X009169Y011992D01*
X006269Y011992D01*
X004586Y010309D01*
X004586Y007174D01*
X006169Y005592D01*
X006281Y005592D01*
X006486Y005387D01*
X006486Y005097D01*
X006281Y004892D01*
X005991Y004892D01*
X005886Y004997D01*
X005781Y004892D01*
X005491Y004892D01*
X005286Y005097D01*
X005286Y005387D01*
X005347Y005448D01*
X003896Y006899D01*
X003896Y006314D01*
X005791Y004419D01*
X005791Y004546D02*
X005664Y004546D01*
X005565Y004645D02*
X005791Y004645D01*
X005791Y004744D02*
X005467Y004744D01*
X005368Y004842D02*
X008736Y004842D01*
X008736Y004835D02*
X008736Y005249D01*
X009029Y005542D01*
X009443Y005542D01*
X009868Y005117D01*
X009869Y005117D01*
X010198Y004787D01*
X010198Y004737D01*
X010619Y004737D01*
X010636Y004720D01*
X010652Y004737D01*
X011073Y004737D01*
X011073Y004787D01*
X011403Y005117D01*
X011869Y005117D01*
X012198Y004787D01*
X012198Y004399D01*
X012716Y003882D01*
X012716Y003872D01*
X012755Y003872D01*
X013066Y003561D01*
X013286Y003561D01*
X013286Y003660D02*
X012967Y003660D01*
X012869Y003758D02*
X013286Y003758D01*
X013286Y003857D02*
X012770Y003857D01*
X012642Y003955D02*
X013292Y003955D01*
X013636Y003717D02*
X013661Y003717D01*
X013686Y003742D01*
X013762Y003666D01*
X013762Y003154D01*
X014020Y003167D02*
X014251Y003167D01*
X014251Y003265D02*
X014020Y003265D01*
X014020Y003364D02*
X014251Y003364D01*
X014262Y003463D02*
X014009Y003463D01*
X014020Y003068D02*
X014251Y003068D01*
X014251Y002970D02*
X014020Y002970D01*
X014386Y002742D02*
X013386Y002742D01*
X013036Y002242D01*
X007036Y002242D01*
X006848Y002430D01*
X006848Y003068D01*
X006610Y003068D01*
X006236Y003442D01*
X006436Y003561D02*
X006546Y003561D01*
X006549Y003557D02*
X006461Y003645D01*
X006461Y003986D01*
X006549Y004074D01*
X007146Y004074D01*
X007204Y004016D01*
X007229Y004016D01*
X007236Y004016D01*
X007236Y004448D01*
X006431Y004448D01*
X006431Y004546D02*
X009024Y004546D01*
X009073Y004497D02*
X008736Y004835D01*
X008736Y004941D02*
X006330Y004941D01*
X006428Y005039D02*
X008736Y005039D01*
X008736Y005138D02*
X006486Y005138D01*
X006486Y005236D02*
X008736Y005236D01*
X008822Y005335D02*
X006486Y005335D01*
X006439Y005433D02*
X008920Y005433D01*
X009019Y005532D02*
X006340Y005532D01*
X006130Y005630D02*
X010786Y005630D01*
X010786Y005532D02*
X009453Y005532D01*
X009551Y005433D02*
X010878Y005433D01*
X010786Y005526D02*
X011020Y005292D01*
X011351Y005292D01*
X011486Y005426D01*
X011620Y005292D01*
X011951Y005292D01*
X012186Y005526D01*
X012186Y005857D01*
X011951Y006092D01*
X011620Y006092D01*
X011486Y005957D01*
X011351Y006092D01*
X011020Y006092D01*
X010786Y005857D01*
X010786Y005526D01*
X010786Y005729D02*
X006031Y005729D01*
X005933Y005828D02*
X010786Y005828D01*
X010855Y005926D02*
X005834Y005926D01*
X005736Y006025D02*
X010953Y006025D01*
X011236Y005892D02*
X011186Y005692D01*
X011418Y006025D02*
X011553Y006025D01*
X011786Y005892D02*
X011786Y005692D01*
X012186Y005729D02*
X016036Y005729D01*
X016036Y005630D02*
X012186Y005630D01*
X012186Y005532D02*
X016036Y005532D01*
X016036Y005433D02*
X012093Y005433D01*
X011995Y005335D02*
X016036Y005335D01*
X016036Y005236D02*
X009748Y005236D01*
X009847Y005138D02*
X016036Y005138D01*
X016036Y005172D02*
X016036Y006772D01*
X015936Y006872D01*
X015936Y007172D01*
X015936Y007711D01*
X016316Y008092D01*
X016855Y008092D01*
X016955Y007992D01*
X017336Y007611D01*
X017336Y007361D01*
X017386Y007311D01*
X017536Y007461D01*
X017536Y007561D01*
X017916Y007942D01*
X018455Y007942D01*
X018836Y007561D01*
X018836Y007461D01*
X018836Y006922D01*
X018587Y006674D01*
X018587Y006004D01*
X018536Y005953D01*
X018536Y005861D01*
X018536Y005711D01*
X018536Y005172D01*
X018155Y004792D01*
X018086Y004792D01*
X018086Y004311D01*
X018086Y003772D01*
X017505Y003192D01*
X017405Y003192D01*
X017094Y003192D01*
X017069Y003167D01*
X019436Y003167D01*
X019436Y003265D02*
X017579Y003265D01*
X017677Y003364D02*
X019436Y003364D01*
X019436Y003463D02*
X017776Y003463D01*
X017874Y003561D02*
X019448Y003561D01*
X019786Y003317D02*
X019861Y003317D01*
X019886Y003342D01*
X020186Y003042D01*
X020186Y003392D01*
X020361Y003567D01*
X020386Y003567D01*
X020736Y003561D02*
X021091Y003561D01*
X021091Y003463D02*
X020736Y003463D01*
X020736Y003364D02*
X021061Y003364D01*
X020986Y003442D02*
X020786Y003242D01*
X020436Y003242D01*
X020386Y003092D01*
X020386Y002742D01*
X020436Y002592D01*
X020824Y002592D01*
X020836Y002942D02*
X020824Y002954D01*
X020824Y002966D01*
X020963Y003265D02*
X020666Y003265D01*
X020469Y003167D02*
X020386Y003167D01*
X020386Y003068D02*
X020438Y003068D01*
X020438Y002970D02*
X020386Y002970D01*
X020386Y002871D02*
X020438Y002871D01*
X020460Y002773D02*
X020386Y002773D01*
X020386Y002674D02*
X021186Y002674D01*
X021186Y002576D02*
X020386Y002576D01*
X020433Y002477D02*
X021186Y002477D01*
X020824Y002218D02*
X020410Y002218D01*
X020186Y002442D01*
X020186Y003042D01*
X019975Y002970D02*
X015381Y002970D01*
X015381Y002871D02*
X019986Y002871D01*
X019986Y002773D02*
X015381Y002773D01*
X015381Y002674D02*
X019986Y002674D01*
X019986Y002576D02*
X019085Y002576D01*
X019183Y002477D02*
X019986Y002477D01*
X019415Y002379D02*
X019282Y002379D01*
X019380Y002280D02*
X019386Y002280D01*
X019012Y002083D02*
X017960Y002083D01*
X018058Y002181D02*
X018913Y002181D01*
X018853Y002242D02*
X019236Y001859D01*
X019236Y001859D01*
X019303Y001792D01*
X017668Y001792D01*
X018119Y002242D01*
X018853Y002242D01*
X019110Y001984D02*
X017861Y001984D01*
X017763Y001886D02*
X019209Y001886D01*
X020486Y001942D02*
X020536Y001942D01*
X021386Y001942D02*
X021386Y002942D01*
X021786Y002942D01*
X022136Y002942D01*
X022286Y002792D01*
X022286Y002392D01*
X022536Y002142D01*
X028436Y002142D01*
X029086Y002792D01*
X029086Y003992D01*
X030036Y004942D01*
X030036Y006442D01*
X030136Y006542D01*
X030386Y006542D01*
X030410Y006566D01*
X030448Y006566D01*
X030362Y006566D01*
X030336Y006592D01*
X030986Y006592D01*
X031986Y007592D01*
X031986Y011542D01*
X031836Y011692D01*
X031586Y011937D02*
X029523Y011937D01*
X029536Y011924D02*
X029536Y011759D01*
X029536Y011739D01*
X029546Y011729D01*
X029546Y007437D01*
X030048Y007437D01*
X030061Y007424D01*
X030074Y007437D01*
X030448Y007437D01*
X030653Y007642D01*
X030819Y007642D01*
X030936Y007524D01*
X030936Y007359D01*
X030686Y007109D01*
X030686Y006885D01*
X030625Y006824D01*
X030746Y006824D01*
X030778Y006792D01*
X030903Y006792D01*
X031786Y007674D01*
X031786Y011342D01*
X031691Y011342D01*
X031486Y011547D01*
X031486Y011837D01*
X031691Y012042D01*
X031981Y012042D01*
X032036Y011986D01*
X032036Y012059D01*
X031853Y012242D01*
X030153Y012242D01*
X029218Y012242D01*
X029286Y012174D01*
X029536Y011924D01*
X029536Y011839D02*
X031488Y011839D01*
X031486Y011740D02*
X029536Y011740D01*
X029546Y011642D02*
X031486Y011642D01*
X031489Y011543D02*
X029546Y011543D01*
X029546Y011445D02*
X031588Y011445D01*
X031686Y011346D02*
X029546Y011346D01*
X029546Y011247D02*
X031786Y011247D01*
X031786Y011149D02*
X029546Y011149D01*
X029546Y011050D02*
X031786Y011050D01*
X031786Y010952D02*
X029546Y010952D01*
X029546Y010853D02*
X031786Y010853D01*
X031786Y010755D02*
X029546Y010755D01*
X029546Y010656D02*
X031786Y010656D01*
X031786Y010558D02*
X029546Y010558D01*
X029546Y010459D02*
X031786Y010459D01*
X031786Y010361D02*
X029546Y010361D01*
X029546Y010262D02*
X031786Y010262D01*
X031786Y010163D02*
X029546Y010163D01*
X029546Y010065D02*
X031786Y010065D01*
X031786Y009966D02*
X029546Y009966D01*
X029546Y009868D02*
X031786Y009868D01*
X031786Y009769D02*
X029546Y009769D01*
X029546Y009671D02*
X031786Y009671D01*
X031786Y009572D02*
X029546Y009572D01*
X029546Y009474D02*
X031786Y009474D01*
X031786Y009375D02*
X029546Y009375D01*
X029546Y009277D02*
X031786Y009277D01*
X031786Y009178D02*
X029546Y009178D01*
X029546Y009079D02*
X031786Y009079D01*
X031786Y008981D02*
X029546Y008981D01*
X029546Y008882D02*
X031786Y008882D01*
X031786Y008784D02*
X029546Y008784D01*
X029546Y008685D02*
X031786Y008685D01*
X031786Y008587D02*
X029546Y008587D01*
X029546Y008488D02*
X031786Y008488D01*
X031786Y008390D02*
X029546Y008390D01*
X029546Y008291D02*
X031786Y008291D01*
X031786Y008193D02*
X029546Y008193D01*
X029546Y008094D02*
X031786Y008094D01*
X031786Y007996D02*
X029546Y007996D01*
X029546Y007897D02*
X031786Y007897D01*
X031786Y007798D02*
X029546Y007798D01*
X029546Y007700D02*
X031786Y007700D01*
X031713Y007601D02*
X030859Y007601D01*
X030936Y007503D02*
X031614Y007503D01*
X031516Y007404D02*
X030936Y007404D01*
X030883Y007306D02*
X031417Y007306D01*
X031318Y007207D02*
X030784Y007207D01*
X030686Y007109D02*
X031220Y007109D01*
X031121Y007010D02*
X030686Y007010D01*
X030686Y006912D02*
X031023Y006912D01*
X030924Y006813D02*
X030757Y006813D01*
X030448Y006580D02*
X030336Y006692D01*
X030336Y007117D01*
X030411Y007117D01*
X030736Y007442D01*
X030613Y007601D02*
X029546Y007601D01*
X029546Y007503D02*
X030514Y007503D01*
X030336Y007766D02*
X030311Y007766D01*
X030286Y007792D01*
X029786Y007117D02*
X029410Y006717D01*
X029436Y006592D01*
X029424Y006580D01*
X029424Y006566D01*
X029662Y006566D01*
X029836Y006392D01*
X029836Y005092D01*
X028886Y004142D01*
X028886Y002892D01*
X028586Y002592D01*
X028786Y002792D01*
X028681Y002970D02*
X022790Y002970D01*
X022692Y003068D02*
X028686Y003068D01*
X028686Y003167D02*
X027210Y003167D01*
X027155Y003112D02*
X026716Y003112D01*
X026430Y003398D01*
X026402Y003400D01*
X026197Y003195D01*
X026197Y003195D01*
X026109Y003107D01*
X025276Y003107D01*
X025189Y003195D01*
X025189Y003946D01*
X024902Y003946D01*
X024886Y003963D01*
X024869Y003946D01*
X024583Y003946D01*
X024583Y003195D01*
X024495Y003107D01*
X023662Y003107D01*
X023574Y003195D01*
X023323Y003446D01*
X023323Y003735D01*
X023236Y003822D01*
X023236Y004022D01*
X023236Y004072D01*
X023236Y004422D01*
X023236Y004611D01*
X023286Y004661D01*
X023286Y004811D01*
X024566Y006092D01*
X025105Y006092D01*
X025486Y005711D01*
X025486Y005172D01*
X025150Y004837D01*
X025423Y004837D01*
X025653Y005067D01*
X026119Y005067D01*
X026448Y004737D01*
X026448Y004700D01*
X026825Y004671D01*
X027186Y004311D01*
X027186Y004141D01*
X027466Y003861D01*
X027466Y003422D01*
X027155Y003112D01*
X027309Y003265D02*
X028686Y003265D01*
X028686Y003364D02*
X027408Y003364D01*
X027466Y003463D02*
X028220Y003463D01*
X028121Y003561D02*
X027466Y003561D01*
X027466Y003660D02*
X028086Y003660D01*
X028086Y003758D02*
X027466Y003758D01*
X027466Y003857D02*
X028086Y003857D01*
X028154Y003955D02*
X027372Y003955D01*
X027273Y004054D02*
X028253Y004054D01*
X028411Y004152D02*
X027186Y004152D01*
X027186Y004251D02*
X028411Y004251D01*
X028411Y004349D02*
X027147Y004349D01*
X027049Y004448D02*
X028411Y004448D01*
X028411Y004546D02*
X026950Y004546D01*
X026852Y004645D02*
X028411Y004645D01*
X028411Y004744D02*
X026442Y004744D01*
X026343Y004842D02*
X028411Y004842D01*
X028330Y004941D02*
X026245Y004941D01*
X026146Y005039D02*
X028291Y005039D01*
X028291Y005138D02*
X025451Y005138D01*
X025486Y005236D02*
X028291Y005236D01*
X028291Y005335D02*
X025486Y005335D01*
X025486Y005433D02*
X028291Y005433D01*
X028319Y005532D02*
X025486Y005532D01*
X025486Y005630D02*
X028590Y005630D01*
X028590Y005729D02*
X025468Y005729D01*
X025369Y005828D02*
X028590Y005828D01*
X028590Y005926D02*
X025270Y005926D01*
X025172Y006025D02*
X028590Y006025D01*
X028660Y006123D02*
X022133Y006123D01*
X022051Y006042D02*
X021720Y006042D01*
X021486Y006276D01*
X021486Y006607D01*
X021720Y006842D01*
X022051Y006842D01*
X022136Y006757D01*
X022136Y006857D01*
X022370Y007092D01*
X022701Y007092D01*
X022936Y006857D01*
X022936Y006526D01*
X022701Y006292D01*
X022370Y006292D01*
X022286Y006376D01*
X022286Y006276D01*
X022051Y006042D01*
X022231Y006222D02*
X029636Y006222D01*
X029636Y006123D02*
X029161Y006123D01*
X029113Y006320D02*
X022730Y006320D01*
X022829Y006419D02*
X029038Y006419D01*
X029038Y006517D02*
X022927Y006517D01*
X022936Y006616D02*
X029038Y006616D01*
X029038Y006714D02*
X022936Y006714D01*
X022936Y006813D02*
X029115Y006813D01*
X029224Y006912D02*
X022881Y006912D01*
X022783Y007010D02*
X029224Y007010D01*
X029222Y007109D02*
X018836Y007109D01*
X018836Y007207D02*
X026621Y007207D01*
X026716Y007112D02*
X026406Y007422D01*
X026406Y007861D01*
X026716Y008172D01*
X027155Y008172D01*
X027332Y007995D01*
X027929Y008592D01*
X028343Y008592D01*
X028636Y008299D01*
X028636Y007885D01*
X027893Y007142D01*
X027479Y007142D01*
X027332Y007288D01*
X027155Y007112D01*
X026716Y007112D01*
X026522Y007306D02*
X018836Y007306D01*
X018836Y007404D02*
X026424Y007404D01*
X026406Y007503D02*
X018836Y007503D01*
X018795Y007601D02*
X026406Y007601D01*
X026406Y007700D02*
X018697Y007700D01*
X018598Y007798D02*
X026406Y007798D01*
X026442Y007897D02*
X018500Y007897D01*
X017872Y007897D02*
X017050Y007897D01*
X017148Y007798D02*
X017773Y007798D01*
X017675Y007700D02*
X017247Y007700D01*
X017336Y007601D02*
X017576Y007601D01*
X017536Y007503D02*
X017336Y007503D01*
X017336Y007404D02*
X017479Y007404D01*
X016951Y007996D02*
X026540Y007996D01*
X026639Y008094D02*
X004586Y008094D01*
X004586Y007996D02*
X016220Y007996D01*
X016122Y007897D02*
X004586Y007897D01*
X004586Y007798D02*
X012243Y007798D01*
X012316Y007872D02*
X012755Y007872D01*
X013066Y007561D01*
X013066Y007122D01*
X012755Y006812D01*
X012316Y006812D01*
X012006Y007122D01*
X012006Y007561D01*
X012316Y007872D01*
X012144Y007700D02*
X004586Y007700D01*
X004586Y007601D02*
X012046Y007601D01*
X012006Y007503D02*
X004586Y007503D01*
X004586Y007404D02*
X012006Y007404D01*
X012006Y007306D02*
X004586Y007306D01*
X004586Y007207D02*
X012006Y007207D01*
X012019Y007109D02*
X004652Y007109D01*
X004750Y007010D02*
X012118Y007010D01*
X012216Y006912D02*
X004849Y006912D01*
X004947Y006813D02*
X012315Y006813D01*
X012757Y006813D02*
X015995Y006813D01*
X016036Y006714D02*
X005046Y006714D01*
X005144Y006616D02*
X016036Y006616D01*
X016036Y006517D02*
X005243Y006517D01*
X005341Y006419D02*
X016036Y006419D01*
X016036Y006320D02*
X005440Y006320D01*
X005538Y006222D02*
X016036Y006222D01*
X016036Y006123D02*
X005637Y006123D01*
X005164Y005630D02*
X004580Y005630D01*
X004678Y005532D02*
X005263Y005532D01*
X005333Y005433D02*
X004777Y005433D01*
X004875Y005335D02*
X005286Y005335D01*
X005286Y005236D02*
X004974Y005236D01*
X005072Y005138D02*
X005286Y005138D01*
X005343Y005039D02*
X005171Y005039D01*
X005269Y004941D02*
X005442Y004941D01*
X005636Y005242D02*
X005636Y005442D01*
X004036Y007042D01*
X004036Y010442D01*
X006011Y012417D01*
X006036Y012392D01*
X006186Y012542D01*
X012586Y012542D01*
X012786Y012742D01*
X013186Y012742D01*
X013386Y012542D01*
X013536Y012542D01*
X013886Y012529D02*
X014116Y012529D01*
X014018Y012627D02*
X013886Y012627D01*
X013919Y012726D02*
X013847Y012726D01*
X013986Y012942D02*
X014986Y011942D01*
X015686Y011942D01*
X016086Y011542D01*
X020036Y011542D01*
X020986Y012492D01*
X025686Y012492D01*
X026086Y012092D01*
X029086Y012092D01*
X029336Y011842D01*
X029336Y011642D01*
X029126Y011642D02*
X020419Y011642D01*
X020517Y011740D02*
X029136Y011740D01*
X029056Y011839D02*
X020616Y011839D01*
X020714Y011937D02*
X025957Y011937D01*
X025859Y012036D02*
X020813Y012036D01*
X020911Y012134D02*
X025760Y012134D01*
X025662Y012233D02*
X021010Y012233D01*
X020740Y012529D02*
X020702Y012529D01*
X019686Y012642D02*
X019686Y012667D01*
X019111Y013308D02*
X019111Y013317D01*
X018796Y013308D02*
X018796Y012532D01*
X018936Y012092D01*
X018481Y012637D02*
X017936Y012092D01*
X018086Y012642D02*
X018166Y012722D01*
X018166Y013308D01*
X017886Y013292D02*
X017869Y013308D01*
X017851Y013308D01*
X017886Y013292D02*
X017886Y014142D01*
X017636Y013897D02*
X017586Y013847D01*
X017586Y013709D01*
X017469Y013592D01*
X017469Y012951D01*
X017381Y012863D01*
X017060Y012863D01*
X016745Y012863D01*
X016476Y012863D01*
X016476Y012749D01*
X016436Y012709D01*
X016436Y012426D01*
X016201Y012192D01*
X016018Y012192D01*
X016269Y011942D01*
X016803Y011942D01*
X017086Y012224D01*
X017086Y012474D01*
X017203Y012592D01*
X017453Y012842D01*
X017619Y012842D01*
X017966Y012842D01*
X017966Y012863D01*
X017690Y012863D01*
X017602Y012951D01*
X017602Y013666D01*
X017686Y013749D01*
X017686Y013847D01*
X017636Y013897D01*
X017686Y013810D02*
X017586Y013810D01*
X017586Y013711D02*
X017648Y013711D01*
X017602Y013612D02*
X017489Y013612D01*
X017469Y013514D02*
X017602Y013514D01*
X017602Y013415D02*
X017469Y013415D01*
X017469Y013317D02*
X017602Y013317D01*
X017536Y013308D02*
X017536Y012892D01*
X017486Y012842D01*
X016936Y012842D01*
X016536Y012442D01*
X016536Y012392D01*
X016436Y012292D01*
X016436Y012242D01*
X016236Y012042D01*
X016174Y012036D02*
X016897Y012036D01*
X016996Y012134D02*
X016076Y012134D01*
X016243Y012233D02*
X017086Y012233D01*
X017086Y012331D02*
X016341Y012331D01*
X016436Y012430D02*
X017086Y012430D01*
X017140Y012529D02*
X016436Y012529D01*
X016436Y012627D02*
X017238Y012627D01*
X017337Y012726D02*
X016452Y012726D01*
X016476Y012824D02*
X017435Y012824D01*
X017441Y012923D02*
X017630Y012923D01*
X017602Y013021D02*
X017469Y013021D01*
X017469Y013120D02*
X017602Y013120D01*
X017602Y013218D02*
X017469Y013218D01*
X017221Y013308D02*
X017221Y013627D01*
X017386Y013792D01*
X017386Y014142D01*
X016886Y013942D02*
X016906Y013822D01*
X016906Y013308D01*
X016591Y013308D02*
X016591Y013637D01*
X016336Y013942D01*
X015864Y014302D02*
X015698Y014302D01*
X015698Y014204D02*
X015765Y014204D01*
X015698Y014401D02*
X015962Y014401D01*
X016061Y014499D02*
X015698Y014499D01*
X015698Y014598D02*
X016159Y014598D01*
X015698Y014696D02*
X019374Y014696D01*
X019374Y014598D02*
X018412Y014598D01*
X018511Y014499D02*
X019374Y014499D01*
X019374Y014401D02*
X018609Y014401D01*
X018708Y014302D02*
X019374Y014302D01*
X019374Y014204D02*
X018806Y014204D01*
X018905Y014105D02*
X019374Y014105D01*
X019374Y014007D02*
X019004Y014007D01*
X019102Y013908D02*
X019374Y013908D01*
X019421Y013810D02*
X019201Y013810D01*
X019819Y014017D02*
X020811Y014017D01*
X020886Y014092D01*
X021461Y014142D02*
X021461Y014616D01*
X021436Y014642D01*
X021461Y014642D01*
X021486Y014642D01*
X021336Y014792D01*
X020286Y014792D01*
X020141Y014647D01*
X019819Y014647D01*
X019819Y014962D02*
X020106Y014962D01*
X020136Y014992D01*
X020636Y014992D01*
X020786Y015142D01*
X021461Y015142D01*
X021486Y015142D01*
X021886Y015542D01*
X022486Y015542D01*
X022611Y015416D01*
X022611Y015142D01*
X022291Y015189D02*
X021816Y015189D01*
X021781Y015091D02*
X022291Y015091D01*
X022291Y014992D02*
X021781Y014992D01*
X021781Y014894D02*
X022291Y014894D01*
X022376Y014795D02*
X021781Y014795D01*
X021781Y014696D02*
X022798Y014696D01*
X022897Y014598D02*
X021781Y014598D01*
X022110Y014142D02*
X022186Y014142D01*
X022136Y014092D01*
X022136Y012842D01*
X022486Y012824D02*
X025436Y012824D01*
X025436Y012923D02*
X022486Y012923D01*
X022451Y013021D02*
X025373Y013021D01*
X025275Y013120D02*
X022352Y013120D01*
X022336Y013218D02*
X025176Y013218D01*
X025078Y013317D02*
X022336Y013317D01*
X022336Y013415D02*
X024979Y013415D01*
X024881Y013514D02*
X022336Y013514D01*
X022336Y013612D02*
X024782Y013612D01*
X024786Y013892D02*
X023886Y013892D01*
X024786Y013892D02*
X025636Y013042D01*
X025636Y012842D01*
X026186Y012292D01*
X025469Y012726D02*
X022486Y012726D01*
X021211Y013810D02*
X021099Y013810D01*
X020673Y013810D02*
X020218Y013810D01*
X020376Y014332D02*
X020436Y014392D01*
X020376Y014332D02*
X019819Y014332D01*
X019374Y014795D02*
X019334Y014795D01*
X018937Y014795D02*
X015698Y014795D01*
X015698Y014894D02*
X018839Y014894D01*
X018786Y014992D02*
X015698Y014992D01*
X015698Y015091D02*
X016704Y015091D01*
X016605Y015189D02*
X015631Y015189D01*
X015653Y015386D02*
X015896Y015386D01*
X015995Y015288D02*
X014736Y015288D01*
X014736Y015386D02*
X014852Y015386D01*
X014807Y015485D02*
X014637Y015485D01*
X014539Y015583D02*
X014807Y015583D01*
X014807Y015682D02*
X013859Y015682D01*
X013760Y015583D02*
X014233Y015583D01*
X014134Y015485D02*
X013662Y015485D01*
X013563Y015386D02*
X014036Y015386D01*
X014036Y015288D02*
X013536Y015288D01*
X013536Y015189D02*
X014036Y015189D01*
X014042Y015091D02*
X013536Y015091D01*
X013536Y014992D02*
X014140Y014992D01*
X014093Y014894D02*
X013536Y014894D01*
X013577Y014795D02*
X014036Y014795D01*
X014036Y014696D02*
X013676Y014696D01*
X013686Y014598D02*
X014036Y014598D01*
X013778Y014499D02*
X013686Y014499D01*
X013636Y014302D02*
X013591Y014302D01*
X013636Y014204D02*
X013493Y014204D01*
X013636Y014105D02*
X013255Y014105D01*
X013354Y014007D02*
X013655Y014007D01*
X013754Y013908D02*
X013452Y013908D01*
X013551Y013810D02*
X013852Y013810D01*
X013748Y013612D02*
X014249Y013612D01*
X014296Y013514D02*
X014348Y013514D01*
X014395Y013415D02*
X015077Y013415D01*
X015175Y013514D02*
X014824Y013514D01*
X014922Y013612D02*
X015274Y013612D01*
X015372Y013711D02*
X014986Y013711D01*
X014811Y014017D02*
X015252Y014017D01*
X014811Y014017D02*
X014586Y013842D01*
X014636Y014242D02*
X014186Y014242D01*
X014036Y014192D01*
X014186Y013711D02*
X013649Y013711D01*
X013136Y013592D02*
X012436Y013592D01*
X013136Y013592D02*
X013536Y013192D01*
X014036Y013192D01*
X015086Y012142D01*
X015786Y012142D01*
X016186Y011742D01*
X016886Y011742D01*
X017286Y012142D01*
X017286Y012392D01*
X017536Y012642D01*
X018086Y012642D01*
X018481Y012637D02*
X018481Y013308D01*
X016276Y013308D02*
X016276Y012832D01*
X016036Y012592D01*
X015961Y013217D02*
X015811Y013217D01*
X015386Y012792D01*
X015386Y012592D01*
X015961Y013217D02*
X015961Y013308D01*
X014726Y014332D02*
X014636Y014242D01*
X014726Y014332D02*
X015252Y014332D01*
X015252Y014647D02*
X014431Y014647D01*
X014386Y014692D01*
X014716Y014962D02*
X014486Y015192D01*
X014436Y015192D01*
X014386Y015242D01*
X014771Y015189D02*
X014874Y015189D01*
X014716Y014962D02*
X015252Y014962D01*
X015252Y015592D02*
X016186Y015592D01*
X016486Y015592D01*
X016836Y015242D01*
X016507Y015288D02*
X016377Y015288D01*
X016186Y015592D02*
X015252Y015592D01*
X015236Y015592D01*
X015252Y015907D02*
X013801Y015907D01*
X013336Y015442D01*
X013336Y014542D01*
X012636Y015091D02*
X011536Y015091D01*
X011536Y015189D02*
X012688Y015189D01*
X012786Y015288D02*
X011536Y015288D01*
X011536Y015386D02*
X012786Y015386D01*
X012786Y015485D02*
X011536Y015485D01*
X011536Y015583D02*
X012786Y015583D01*
X012786Y015682D02*
X011536Y015682D01*
X011536Y015780D02*
X012842Y015780D01*
X012940Y015879D02*
X012533Y015879D01*
X012602Y015978D02*
X013039Y015978D01*
X013137Y016076D02*
X012602Y016076D01*
X012651Y016175D02*
X013236Y016175D01*
X013334Y016273D02*
X012750Y016273D01*
X012849Y016372D02*
X013433Y016372D01*
X012947Y016470D02*
X014324Y016470D01*
X015698Y015879D02*
X015978Y015879D01*
X016552Y016963D02*
X016670Y016963D01*
X016527Y018343D02*
X014936Y018343D01*
X015477Y018638D02*
X016490Y018638D01*
X016490Y018737D02*
X015576Y018737D01*
X015586Y018835D02*
X016415Y018835D01*
X016302Y018934D02*
X015586Y018934D01*
X015586Y019032D02*
X016190Y019032D01*
X016490Y019328D02*
X017471Y019328D01*
X017476Y019427D02*
X016396Y019427D01*
X016396Y019525D02*
X017476Y019525D01*
X017497Y019624D02*
X016375Y019624D01*
X016334Y019722D02*
X017537Y019722D01*
X017635Y019821D02*
X016236Y019821D01*
X016602Y019229D02*
X017387Y019229D01*
X017303Y019131D02*
X016714Y019131D01*
X016826Y019032D02*
X017219Y019032D01*
X015785Y019131D02*
X015491Y019131D01*
X015393Y019229D02*
X015668Y019229D01*
X014716Y020018D02*
X018936Y020018D01*
X018936Y020116D02*
X014716Y020116D01*
X013636Y018442D02*
X011236Y018442D01*
X010436Y017642D01*
X010436Y014542D01*
X010436Y013242D01*
X010186Y012992D01*
X005336Y012992D01*
X003136Y010792D01*
X003336Y010992D01*
X003480Y010853D02*
X003565Y010853D01*
X003579Y010952D02*
X003663Y010952D01*
X003677Y011050D02*
X003762Y011050D01*
X003776Y011149D02*
X003860Y011149D01*
X003874Y011247D02*
X003959Y011247D01*
X003973Y011346D02*
X004057Y011346D01*
X004071Y011445D02*
X004156Y011445D01*
X004170Y011543D02*
X004254Y011543D01*
X004269Y011642D02*
X004353Y011642D01*
X004367Y011740D02*
X004451Y011740D01*
X004466Y011839D02*
X004550Y011839D01*
X004564Y011937D02*
X004649Y011937D01*
X004663Y012036D02*
X004747Y012036D01*
X004761Y012134D02*
X004846Y012134D01*
X004860Y012233D02*
X004944Y012233D01*
X004958Y012331D02*
X005043Y012331D01*
X005057Y012430D02*
X005141Y012430D01*
X005155Y012529D02*
X005240Y012529D01*
X005254Y012627D02*
X005338Y012627D01*
X005352Y012726D02*
X005437Y012726D01*
X005786Y012792D02*
X010686Y012792D01*
X010686Y017392D01*
X011460Y018166D01*
X011586Y018066D01*
X012161Y018066D01*
X012186Y018142D01*
X012220Y018176D01*
X012236Y018076D01*
X012501Y018076D01*
X012901Y017676D01*
X012901Y017642D01*
X012554Y017653D02*
X011230Y017653D01*
X011131Y017554D02*
X012554Y017554D01*
X012554Y017456D02*
X011033Y017456D01*
X010934Y017357D02*
X012560Y017357D01*
X012543Y017751D02*
X012536Y017751D01*
X011935Y017751D02*
X011853Y017751D01*
X011586Y016966D02*
X011410Y016966D01*
X011086Y016592D01*
X011536Y015978D02*
X011869Y015978D01*
X011938Y015879D02*
X011536Y015879D01*
X011916Y016569D02*
X012480Y016569D01*
X013570Y017642D02*
X013711Y017617D01*
X013861Y017617D01*
X017468Y015091D02*
X017954Y015091D01*
X017855Y015189D02*
X017566Y015189D01*
X017665Y015288D02*
X017757Y015288D01*
X018125Y015485D02*
X019421Y015485D01*
X019438Y015682D02*
X018571Y015682D01*
X018336Y015942D02*
X018336Y016042D01*
X018101Y015682D02*
X018051Y015682D01*
X021915Y015288D02*
X022291Y015288D01*
X023260Y015142D02*
X023836Y015142D01*
X026086Y012892D01*
X027336Y012842D02*
X027986Y013492D01*
X028036Y013492D01*
X028536Y013492D01*
X028537Y013490D01*
X028537Y013490D01*
X028536Y013492D02*
X028586Y013492D01*
X028584Y013490D01*
X028536Y013742D02*
X028036Y013742D01*
X028036Y014042D01*
X027836Y014242D01*
X027820Y014142D01*
X027820Y014176D01*
X027836Y014192D01*
X027636Y014392D01*
X027636Y014792D01*
X027686Y014842D01*
X028036Y014642D02*
X028264Y014514D01*
X028537Y014514D01*
X028537Y014770D02*
X028814Y014770D01*
X028886Y014842D01*
X028886Y015942D01*
X028736Y016092D01*
X025186Y016092D01*
X024836Y016442D01*
X024836Y016592D01*
X024886Y016642D01*
X024886Y016842D01*
X025061Y017017D01*
X025061Y017092D01*
X024741Y017061D02*
X024586Y017061D01*
X024586Y016963D02*
X024724Y016963D01*
X024686Y016864D02*
X024503Y016864D01*
X024405Y016766D02*
X024665Y016766D01*
X024567Y016667D02*
X024455Y016667D01*
X024586Y017160D02*
X024741Y017160D01*
X024741Y017259D02*
X024564Y017259D01*
X024646Y017357D02*
X024744Y017357D01*
X024745Y017456D02*
X025386Y017456D01*
X025386Y017554D02*
X024786Y017554D01*
X025378Y017357D02*
X025394Y017357D01*
X025390Y017259D02*
X025381Y017259D01*
X025390Y017160D02*
X025381Y017160D01*
X025390Y017061D02*
X025381Y017061D01*
X025390Y016963D02*
X025381Y016963D01*
X025390Y016864D02*
X025381Y016864D01*
X025317Y016766D02*
X025454Y016766D01*
X025416Y016667D02*
X025105Y016667D01*
X025186Y016569D02*
X025336Y016569D01*
X025336Y016470D02*
X025186Y016470D01*
X025188Y016372D02*
X025336Y016372D01*
X025686Y016442D02*
X026086Y016842D01*
X027636Y016842D01*
X028286Y017492D01*
X029436Y017492D01*
X030086Y018142D01*
X030086Y018642D01*
X029836Y018397D02*
X029731Y018292D01*
X029441Y018292D01*
X029236Y018497D01*
X029236Y018787D01*
X029386Y018937D01*
X029386Y018997D01*
X029324Y018997D01*
X029236Y019085D01*
X029236Y019442D01*
X027168Y019442D01*
X027869Y018742D01*
X027991Y018742D01*
X028141Y018892D01*
X028431Y018892D01*
X028636Y018687D01*
X028636Y018397D01*
X028431Y018192D01*
X028141Y018192D01*
X027991Y018342D01*
X027869Y018342D01*
X027703Y018342D01*
X026803Y019242D01*
X026031Y019242D01*
X026036Y019237D01*
X026036Y018947D01*
X025886Y018797D01*
X025886Y018024D01*
X025886Y017859D01*
X025786Y017759D01*
X025786Y017574D01*
X025893Y017467D01*
X025943Y017467D01*
X026216Y017467D01*
X026316Y017567D01*
X026136Y017747D01*
X026136Y018037D01*
X026341Y018242D01*
X026631Y018242D01*
X026705Y018167D01*
X026774Y018236D01*
X027298Y018236D01*
X027386Y018148D01*
X027386Y017684D01*
X027298Y017596D01*
X026774Y017596D01*
X026729Y017640D01*
X026656Y017567D01*
X026704Y017518D01*
X026774Y017587D01*
X027298Y017587D01*
X027386Y017499D01*
X027386Y017042D01*
X027553Y017042D01*
X028086Y017574D01*
X028203Y017692D01*
X029353Y017692D01*
X029886Y018224D01*
X029886Y018347D01*
X029836Y018397D01*
X029886Y018343D02*
X029782Y018343D01*
X029886Y018244D02*
X028483Y018244D01*
X028582Y018343D02*
X029390Y018343D01*
X029291Y018441D02*
X028636Y018441D01*
X028636Y018540D02*
X029236Y018540D01*
X029236Y018638D02*
X028636Y018638D01*
X028586Y018737D02*
X029236Y018737D01*
X029284Y018835D02*
X028487Y018835D01*
X028286Y018542D02*
X027786Y018542D01*
X026886Y019442D01*
X025486Y019442D01*
X025336Y019292D01*
X025336Y018892D01*
X025686Y019092D02*
X025686Y017942D01*
X025586Y017842D01*
X025586Y017492D01*
X025811Y017267D01*
X025736Y017167D01*
X025736Y017092D01*
X025710Y017092D01*
X025811Y017267D02*
X025860Y017267D01*
X027036Y017267D01*
X026511Y017267D01*
X026486Y017242D01*
X026668Y017554D02*
X026741Y017554D01*
X026303Y017554D02*
X025806Y017554D01*
X025786Y017653D02*
X026230Y017653D01*
X026136Y017751D02*
X025786Y017751D01*
X025877Y017850D02*
X026136Y017850D01*
X026136Y017948D02*
X025886Y017948D01*
X025886Y018047D02*
X026146Y018047D01*
X026245Y018145D02*
X025886Y018145D01*
X025886Y018244D02*
X028088Y018244D01*
X027702Y018343D02*
X025886Y018343D01*
X025886Y018441D02*
X027603Y018441D01*
X027505Y018540D02*
X025886Y018540D01*
X025886Y018638D02*
X027406Y018638D01*
X027308Y018737D02*
X025886Y018737D01*
X025924Y018835D02*
X027209Y018835D01*
X027111Y018934D02*
X026023Y018934D01*
X026036Y019032D02*
X027012Y019032D01*
X026914Y019131D02*
X026036Y019131D01*
X026036Y019229D02*
X026815Y019229D01*
X027184Y019427D02*
X029236Y019427D01*
X029236Y019328D02*
X027282Y019328D01*
X027381Y019229D02*
X029236Y019229D01*
X029236Y019131D02*
X027479Y019131D01*
X027578Y019032D02*
X029288Y019032D01*
X029383Y018934D02*
X027676Y018934D01*
X027775Y018835D02*
X028084Y018835D01*
X027386Y018145D02*
X029807Y018145D01*
X029708Y018047D02*
X027386Y018047D01*
X027386Y017948D02*
X029610Y017948D01*
X029511Y017850D02*
X027386Y017850D01*
X027386Y017751D02*
X029413Y017751D01*
X030136Y017242D02*
X031086Y018192D01*
X031086Y018642D01*
X031436Y018638D02*
X032436Y018638D01*
X032436Y018540D02*
X031436Y018540D01*
X031380Y018441D02*
X032436Y018441D01*
X032436Y018343D02*
X031286Y018343D01*
X031286Y018244D02*
X032436Y018244D01*
X032436Y018145D02*
X031286Y018145D01*
X031224Y018047D02*
X032436Y018047D01*
X032436Y017948D02*
X031125Y017948D01*
X031027Y017850D02*
X032436Y017850D01*
X032436Y017751D02*
X030928Y017751D01*
X030830Y017653D02*
X032436Y017653D01*
X032436Y017554D02*
X030731Y017554D01*
X030633Y017456D02*
X032436Y017456D01*
X032436Y017357D02*
X030534Y017357D01*
X030435Y017259D02*
X032436Y017259D01*
X032436Y017160D02*
X030337Y017160D01*
X030238Y017061D02*
X032436Y017061D01*
X032436Y016963D02*
X028340Y016963D01*
X028241Y016864D02*
X028564Y016864D01*
X028465Y016766D02*
X028143Y016766D01*
X028044Y016667D02*
X028386Y016667D01*
X028386Y016569D02*
X027946Y016569D01*
X027847Y016470D02*
X028386Y016470D01*
X028411Y016372D02*
X027749Y016372D01*
X027536Y016442D02*
X028336Y017242D01*
X030136Y017242D01*
X029086Y016667D02*
X032436Y016667D01*
X032436Y016569D02*
X029086Y016569D01*
X029090Y016470D02*
X032436Y016470D01*
X032436Y016372D02*
X029188Y016372D01*
X029286Y016273D02*
X032436Y016273D01*
X032436Y016175D02*
X029286Y016175D01*
X029286Y016076D02*
X032436Y016076D01*
X032436Y015978D02*
X031117Y015978D01*
X031179Y015879D02*
X032436Y015879D01*
X032436Y015780D02*
X031179Y015780D01*
X031179Y015682D02*
X032436Y015682D01*
X032436Y015583D02*
X031179Y015583D01*
X031179Y015485D02*
X032436Y015485D01*
X032436Y015386D02*
X031179Y015386D01*
X031179Y015288D02*
X032436Y015288D01*
X032436Y015189D02*
X032345Y015189D01*
X032380Y015091D02*
X032436Y015091D01*
X032436Y014992D02*
X032380Y014992D01*
X032380Y014894D02*
X032436Y014894D01*
X032436Y014795D02*
X032380Y014795D01*
X032380Y014696D02*
X032436Y014696D01*
X032436Y014598D02*
X032349Y014598D01*
X032436Y014499D02*
X031976Y014499D01*
X031708Y014514D02*
X032060Y014866D01*
X032060Y014892D01*
X031740Y014894D02*
X031731Y014894D01*
X031740Y014992D02*
X031731Y014992D01*
X031740Y015091D02*
X031731Y015091D01*
X031696Y015189D02*
X031776Y015189D01*
X031436Y014892D02*
X031314Y014770D01*
X030834Y014770D01*
X030834Y015026D02*
X030320Y015026D01*
X030236Y015142D01*
X030486Y015386D02*
X030489Y015386D01*
X030489Y015485D02*
X030387Y015485D01*
X030489Y015583D02*
X029286Y015583D01*
X029286Y015485D02*
X030084Y015485D01*
X029985Y015386D02*
X029286Y015386D01*
X029286Y015288D02*
X029887Y015288D01*
X029886Y015189D02*
X029286Y015189D01*
X029286Y015091D02*
X029886Y015091D01*
X029890Y014992D02*
X029286Y014992D01*
X029286Y014894D02*
X029989Y014894D01*
X030087Y014795D02*
X029286Y014795D01*
X029286Y014696D02*
X030489Y014696D01*
X030489Y014598D02*
X029286Y014598D01*
X029276Y014499D02*
X030489Y014499D01*
X030489Y014795D02*
X030384Y014795D01*
X030036Y014642D02*
X029396Y014002D01*
X028537Y014002D01*
X028537Y014258D02*
X028752Y014258D01*
X029086Y014592D01*
X029086Y016192D01*
X028736Y016542D01*
X029006Y016766D02*
X032436Y016766D01*
X032436Y016864D02*
X028908Y016864D01*
X028066Y017554D02*
X027331Y017554D01*
X027354Y017653D02*
X028164Y017653D01*
X027967Y017456D02*
X027386Y017456D01*
X027386Y017357D02*
X027868Y017357D01*
X027770Y017259D02*
X027386Y017259D01*
X027386Y017160D02*
X027671Y017160D01*
X027573Y017061D02*
X027386Y017061D01*
X027536Y016442D02*
X026186Y016442D01*
X027831Y015892D02*
X027836Y015887D01*
X027836Y015597D01*
X027720Y015481D01*
X028270Y015481D01*
X028280Y015491D01*
X028686Y015491D01*
X028686Y015583D01*
X028280Y015583D01*
X028192Y015671D01*
X028192Y015892D01*
X027831Y015892D01*
X027836Y015879D02*
X028192Y015879D01*
X028192Y015780D02*
X027836Y015780D01*
X027836Y015682D02*
X028192Y015682D01*
X028280Y015583D02*
X027822Y015583D01*
X027724Y015485D02*
X028273Y015485D01*
X029286Y015682D02*
X030489Y015682D01*
X030489Y015780D02*
X029286Y015780D01*
X029286Y015879D02*
X030489Y015879D01*
X030552Y015978D02*
X029286Y015978D01*
X029178Y014401D02*
X030050Y014401D01*
X029951Y014302D02*
X029079Y014302D01*
X028981Y014204D02*
X029936Y014204D01*
X029936Y014105D02*
X028882Y014105D01*
X028537Y013746D02*
X028537Y013743D01*
X028536Y013742D01*
X028537Y013746D02*
X030131Y013746D01*
X030286Y013592D01*
X030387Y013490D01*
X030506Y013317D02*
X032436Y013317D01*
X032436Y013415D02*
X030604Y013415D01*
X030636Y013514D02*
X032436Y013514D01*
X032436Y013612D02*
X031839Y013612D01*
X031938Y013711D02*
X032436Y013711D01*
X032436Y013810D02*
X032310Y013810D01*
X032380Y013908D02*
X032436Y013908D01*
X032436Y014007D02*
X032380Y014007D01*
X032380Y014105D02*
X032436Y014105D01*
X032436Y014204D02*
X032380Y014204D01*
X032380Y014302D02*
X032436Y014302D01*
X032436Y014401D02*
X032380Y014401D01*
X032136Y014192D02*
X032086Y014142D01*
X031690Y013746D01*
X030834Y013746D01*
X030834Y013490D02*
X030687Y013490D01*
X030736Y013442D01*
X030687Y013490D02*
X030686Y013492D01*
X030834Y014002D02*
X030425Y014002D01*
X030286Y014142D01*
X029936Y014007D02*
X028236Y014007D01*
X028036Y013742D02*
X028036Y013492D01*
X027995Y013218D02*
X032436Y013218D01*
X032436Y013120D02*
X027897Y013120D01*
X027798Y013021D02*
X032436Y013021D01*
X032436Y012923D02*
X027700Y012923D01*
X027686Y012824D02*
X032436Y012824D01*
X032436Y012726D02*
X027686Y012726D01*
X027616Y012627D02*
X028488Y012627D01*
X028390Y012529D02*
X027518Y012529D01*
X028831Y013317D02*
X030066Y013317D01*
X029967Y013415D02*
X028882Y013415D01*
X028882Y013514D02*
X029936Y013514D01*
X030834Y014258D02*
X031320Y014258D01*
X031436Y014142D01*
X031411Y014142D01*
X031708Y014514D02*
X030834Y014514D01*
X031411Y014892D02*
X031436Y014892D01*
X032060Y014142D02*
X032086Y014142D01*
X032033Y012627D02*
X032436Y012627D01*
X032436Y012529D02*
X032132Y012529D01*
X032230Y012430D02*
X032436Y012430D01*
X032436Y012331D02*
X032329Y012331D01*
X032427Y012233D02*
X032436Y012233D01*
X032436Y012134D02*
X032436Y012134D01*
X032436Y012036D02*
X032436Y012036D01*
X032436Y011937D02*
X032436Y011937D01*
X032436Y011839D02*
X032436Y011839D01*
X032436Y011740D02*
X032436Y011740D01*
X032436Y011642D02*
X032436Y011642D01*
X032436Y011543D02*
X032436Y011543D01*
X032436Y011445D02*
X032436Y011445D01*
X032436Y011346D02*
X032436Y011346D01*
X032436Y011247D02*
X032436Y011247D01*
X032436Y011149D02*
X032436Y011149D01*
X032436Y011050D02*
X032436Y011050D01*
X032436Y010952D02*
X032436Y010952D01*
X032436Y010853D02*
X032436Y010853D01*
X032436Y010755D02*
X032436Y010755D01*
X032436Y010656D02*
X032436Y010656D01*
X032436Y010558D02*
X032436Y010558D01*
X032436Y010459D02*
X032436Y010459D01*
X032436Y010361D02*
X032436Y010361D01*
X032436Y010262D02*
X032436Y010262D01*
X032436Y010163D02*
X032436Y010163D01*
X032436Y010065D02*
X032436Y010065D01*
X032436Y009966D02*
X032436Y009966D01*
X032436Y009868D02*
X032436Y009868D01*
X032436Y009769D02*
X032436Y009769D01*
X032436Y009671D02*
X032436Y009671D01*
X032436Y009572D02*
X032436Y009572D01*
X032436Y009474D02*
X032436Y009474D01*
X032436Y009375D02*
X032436Y009375D01*
X032436Y009277D02*
X032436Y009277D01*
X032436Y009178D02*
X032436Y009178D01*
X032436Y009079D02*
X032436Y009079D01*
X032436Y008981D02*
X032436Y008981D01*
X032436Y008882D02*
X032436Y008882D01*
X032436Y008784D02*
X032436Y008784D01*
X032436Y008685D02*
X032436Y008685D01*
X032436Y008587D02*
X032436Y008587D01*
X032436Y008488D02*
X032436Y008488D01*
X032436Y008390D02*
X032436Y008390D01*
X032436Y008291D02*
X032436Y008291D01*
X032436Y008193D02*
X032436Y008193D01*
X032436Y008094D02*
X032436Y008094D01*
X032436Y007996D02*
X032436Y007996D01*
X032436Y007897D02*
X032436Y007897D01*
X032436Y007798D02*
X032436Y007798D01*
X032436Y007700D02*
X032436Y007700D01*
X032436Y007601D02*
X032436Y007601D01*
X032436Y007503D02*
X032436Y007503D01*
X032436Y007404D02*
X032436Y007404D01*
X032436Y007306D02*
X032436Y007306D01*
X032436Y007207D02*
X032436Y007207D01*
X032436Y007109D02*
X032436Y007109D01*
X032436Y007010D02*
X032436Y007010D01*
X032436Y006912D02*
X032436Y006912D01*
X032436Y006813D02*
X032436Y006813D01*
X032436Y006714D02*
X032436Y006714D01*
X032436Y006616D02*
X032436Y006616D01*
X032436Y006517D02*
X032436Y006517D01*
X032436Y006419D02*
X032436Y006419D01*
X032436Y006320D02*
X032436Y006320D01*
X032436Y006222D02*
X032436Y006222D01*
X032436Y006123D02*
X032436Y006123D01*
X032436Y006025D02*
X032436Y006025D01*
X032436Y005926D02*
X032353Y005926D01*
X031984Y006123D02*
X031628Y006123D01*
X031628Y006025D02*
X031886Y006025D01*
X032036Y006222D02*
X031581Y006222D01*
X031194Y006517D02*
X032036Y006517D01*
X032036Y006419D02*
X031096Y006419D01*
X031293Y006616D02*
X032036Y006616D01*
X032036Y006714D02*
X031391Y006714D01*
X031490Y006813D02*
X032036Y006813D01*
X032036Y006912D02*
X031588Y006912D01*
X031687Y007010D02*
X032036Y007010D01*
X032036Y007109D02*
X031786Y007109D01*
X031884Y007207D02*
X032036Y007207D01*
X032036Y007306D02*
X031983Y007306D01*
X032036Y006320D02*
X030835Y006320D01*
X030448Y006566D02*
X030448Y006580D01*
X030810Y005916D02*
X031203Y005916D01*
X030810Y005916D02*
X030686Y005792D01*
X030486Y005792D01*
X030460Y005818D01*
X030448Y005818D01*
X030446Y005335D02*
X030236Y005335D01*
X030236Y005236D02*
X030348Y005236D01*
X030249Y005138D02*
X030236Y005138D01*
X030420Y004744D02*
X032436Y004744D01*
X032436Y004842D02*
X031562Y004842D01*
X031628Y004941D02*
X032436Y004941D01*
X032436Y005039D02*
X031628Y005039D01*
X031628Y005138D02*
X032436Y005138D01*
X032436Y004645D02*
X030322Y004645D01*
X030223Y004546D02*
X032436Y004546D01*
X032436Y004448D02*
X030125Y004448D01*
X030026Y004349D02*
X032436Y004349D01*
X032436Y004251D02*
X029928Y004251D01*
X029829Y004152D02*
X032436Y004152D01*
X032436Y004054D02*
X029731Y004054D01*
X029632Y003955D02*
X032436Y003955D01*
X032436Y003857D02*
X029534Y003857D01*
X029486Y003758D02*
X032436Y003758D01*
X032436Y003660D02*
X029486Y003660D01*
X029486Y003561D02*
X032436Y003561D01*
X032436Y003463D02*
X029486Y003463D01*
X029486Y003364D02*
X032436Y003364D01*
X032436Y003265D02*
X029486Y003265D01*
X029486Y003167D02*
X032436Y003167D01*
X032436Y003068D02*
X029486Y003068D01*
X029486Y002970D02*
X032436Y002970D01*
X032436Y002871D02*
X029486Y002871D01*
X029486Y002773D02*
X032436Y002773D01*
X032436Y002674D02*
X029486Y002674D01*
X029453Y002576D02*
X032436Y002576D01*
X032436Y002477D02*
X029354Y002477D01*
X029255Y002379D02*
X032436Y002379D01*
X032436Y002280D02*
X029157Y002280D01*
X029058Y002181D02*
X032436Y002181D01*
X032436Y002083D02*
X028960Y002083D01*
X028861Y001984D02*
X032436Y001984D01*
X032436Y001886D02*
X028763Y001886D01*
X028336Y002342D02*
X028586Y002592D01*
X028484Y002773D02*
X022987Y002773D01*
X022889Y002871D02*
X028583Y002871D01*
X028336Y002342D02*
X023136Y002342D01*
X022536Y002942D01*
X022436Y002942D01*
X022136Y003242D01*
X022310Y003364D02*
X023405Y003364D01*
X023323Y003463D02*
X021754Y003463D01*
X021771Y003561D02*
X023323Y003561D01*
X023323Y003660D02*
X021765Y003660D01*
X021731Y003758D02*
X023300Y003758D01*
X023236Y003857D02*
X021731Y003857D01*
X021680Y003955D02*
X023236Y003955D01*
X023236Y004054D02*
X020931Y004054D01*
X020986Y004109D02*
X020869Y003992D01*
X020736Y003992D01*
X020736Y003984D01*
X020648Y003896D01*
X020124Y003896D01*
X020036Y003984D01*
X020036Y004448D01*
X018086Y004448D01*
X018086Y004546D02*
X020858Y004546D01*
X020759Y004448D02*
X020736Y004448D01*
X020736Y004424D01*
X021003Y004692D01*
X021039Y004692D01*
X021049Y004702D01*
X021051Y004702D01*
X021191Y004842D01*
X021481Y004842D01*
X021686Y004637D01*
X021686Y004347D01*
X021481Y004142D01*
X021191Y004142D01*
X021105Y004228D01*
X020986Y004109D01*
X021029Y004152D02*
X021180Y004152D01*
X021143Y003955D02*
X020707Y003955D01*
X020678Y003857D02*
X021091Y003857D01*
X021091Y003758D02*
X020736Y003758D01*
X020736Y003660D02*
X021091Y003660D01*
X020786Y004192D02*
X020436Y004192D01*
X020386Y004242D01*
X020386Y004216D01*
X020036Y004251D02*
X018086Y004251D01*
X018086Y004349D02*
X020036Y004349D01*
X020036Y004448D02*
X020124Y004536D01*
X020648Y004536D01*
X020736Y004448D01*
X020786Y004192D02*
X021086Y004492D01*
X021136Y004492D01*
X020956Y004645D02*
X018086Y004645D01*
X018086Y004744D02*
X021093Y004744D01*
X021579Y004744D02*
X023286Y004744D01*
X023270Y004645D02*
X021677Y004645D01*
X021686Y004546D02*
X023236Y004546D01*
X023236Y004448D02*
X021686Y004448D01*
X021686Y004349D02*
X023236Y004349D01*
X023236Y004251D02*
X021590Y004251D01*
X021491Y004152D02*
X023236Y004152D01*
X023317Y004842D02*
X018205Y004842D01*
X018304Y004941D02*
X023416Y004941D01*
X023514Y005039D02*
X018403Y005039D01*
X018501Y005138D02*
X023613Y005138D01*
X023711Y005236D02*
X018536Y005236D01*
X018536Y005335D02*
X023810Y005335D01*
X023908Y005433D02*
X018536Y005433D01*
X018536Y005532D02*
X024007Y005532D01*
X024105Y005630D02*
X018536Y005630D01*
X018536Y005729D02*
X024204Y005729D01*
X024302Y005828D02*
X018536Y005828D01*
X018536Y005926D02*
X024401Y005926D01*
X024500Y006025D02*
X018587Y006025D01*
X018587Y006123D02*
X021639Y006123D01*
X021540Y006222D02*
X018587Y006222D01*
X018587Y006320D02*
X021486Y006320D01*
X021486Y006419D02*
X018587Y006419D01*
X018587Y006517D02*
X021486Y006517D01*
X021494Y006616D02*
X018587Y006616D01*
X018628Y006714D02*
X021593Y006714D01*
X021691Y006813D02*
X018726Y006813D01*
X018825Y006912D02*
X022190Y006912D01*
X022136Y006813D02*
X022080Y006813D01*
X022289Y007010D02*
X018836Y007010D01*
X018086Y006492D02*
X018086Y006492D01*
X017886Y006492D01*
X017786Y006492D01*
X016586Y007442D02*
X016211Y007617D01*
X016023Y007798D02*
X012828Y007798D01*
X012927Y007700D02*
X015936Y007700D01*
X015936Y007601D02*
X013026Y007601D01*
X013066Y007503D02*
X015936Y007503D01*
X015936Y007404D02*
X013066Y007404D01*
X013066Y007306D02*
X015936Y007306D01*
X015936Y007207D02*
X013066Y007207D01*
X013052Y007109D02*
X015936Y007109D01*
X015936Y007010D02*
X012954Y007010D01*
X012855Y006912D02*
X015936Y006912D01*
X016036Y006025D02*
X012018Y006025D01*
X012117Y005926D02*
X016036Y005926D01*
X016036Y005828D02*
X012186Y005828D01*
X011577Y005335D02*
X011395Y005335D01*
X011325Y005039D02*
X009946Y005039D01*
X010045Y004941D02*
X011227Y004941D01*
X011128Y004842D02*
X010143Y004842D01*
X010198Y004744D02*
X011073Y004744D01*
X010977Y005335D02*
X009650Y005335D01*
X008925Y004645D02*
X006431Y004645D01*
X006431Y004744D02*
X008827Y004744D01*
X009073Y004497D02*
X009073Y003496D01*
X009324Y003245D01*
X009324Y002945D01*
X009412Y002857D01*
X010245Y002857D01*
X010333Y002945D01*
X010333Y003738D01*
X010245Y003826D01*
X010198Y003826D01*
X010198Y003846D01*
X010619Y003846D01*
X010636Y003863D01*
X010652Y003846D01*
X011073Y003846D01*
X011073Y003826D01*
X011026Y003826D01*
X010939Y003738D01*
X010939Y002945D01*
X011026Y002857D01*
X011859Y002857D01*
X011947Y002945D01*
X011947Y002962D01*
X012009Y002962D01*
X012179Y002792D01*
X012593Y002792D01*
X012613Y002812D01*
X012755Y002812D01*
X013066Y003122D01*
X013066Y003561D01*
X013066Y003463D02*
X013308Y003463D01*
X013503Y003364D02*
X013066Y003364D01*
X013066Y003265D02*
X013503Y003265D01*
X013503Y003167D02*
X013066Y003167D01*
X013012Y003068D02*
X013503Y003068D01*
X013503Y002970D02*
X012913Y002970D01*
X012815Y002871D02*
X013233Y002871D01*
X013232Y002871D02*
X013232Y002871D01*
X013163Y002773D02*
X007931Y002773D01*
X007931Y002679D02*
X007843Y002592D01*
X007379Y002592D01*
X007291Y002679D01*
X007291Y002889D01*
X007276Y002905D01*
X007276Y003079D01*
X007291Y003094D01*
X007291Y003204D01*
X007334Y003247D01*
X007324Y003247D01*
X007236Y003335D01*
X007236Y003609D01*
X007229Y003616D01*
X007204Y003616D01*
X007146Y003557D01*
X006549Y003557D01*
X006498Y003463D02*
X007236Y003463D01*
X007236Y003561D02*
X007150Y003561D01*
X007086Y003442D02*
X007236Y003292D01*
X007236Y002592D01*
X007296Y002674D02*
X007048Y002674D01*
X007048Y002576D02*
X013025Y002576D01*
X013094Y002674D02*
X007926Y002674D01*
X007931Y002679D02*
X007931Y003204D01*
X007868Y003267D01*
X007936Y003335D01*
X007936Y003347D01*
X007941Y003342D01*
X008231Y003342D01*
X008436Y003547D01*
X008436Y003837D01*
X008231Y004042D01*
X008069Y004042D01*
X007936Y004174D01*
X007936Y004448D01*
X009073Y004448D01*
X009073Y004349D02*
X007936Y004349D01*
X007936Y004251D02*
X009073Y004251D01*
X009073Y004152D02*
X007958Y004152D01*
X008056Y004054D02*
X009073Y004054D01*
X009073Y003955D02*
X008317Y003955D01*
X008416Y003857D02*
X009073Y003857D01*
X009073Y003758D02*
X008436Y003758D01*
X008436Y003660D02*
X009073Y003660D01*
X009073Y003561D02*
X008436Y003561D01*
X008352Y003463D02*
X009107Y003463D01*
X009205Y003364D02*
X008253Y003364D01*
X008036Y003642D02*
X008086Y003692D01*
X008086Y003742D01*
X007611Y004216D01*
X007586Y004216D01*
X007236Y004251D02*
X006431Y004251D01*
X006431Y004349D02*
X007236Y004349D01*
X007236Y004448D02*
X007324Y004536D01*
X007848Y004536D01*
X007936Y004448D01*
X007236Y004152D02*
X006436Y004152D01*
X006436Y004054D02*
X006529Y004054D01*
X006461Y003955D02*
X006436Y003955D01*
X006436Y003857D02*
X006461Y003857D01*
X006461Y003758D02*
X006436Y003758D01*
X006436Y003660D02*
X006461Y003660D01*
X006596Y003364D02*
X007236Y003364D01*
X007206Y003265D02*
X007305Y003265D01*
X007291Y003167D02*
X007234Y003167D01*
X007234Y003068D02*
X007276Y003068D01*
X007276Y002970D02*
X007234Y002970D01*
X007208Y002871D02*
X007291Y002871D01*
X007291Y002773D02*
X007048Y002773D01*
X007083Y002477D02*
X012956Y002477D01*
X013336Y001842D02*
X006286Y001842D01*
X005436Y002692D01*
X005436Y003892D01*
X004286Y005042D01*
X004386Y005242D02*
X003586Y005242D01*
X003386Y005442D01*
X003386Y005742D01*
X003336Y005742D01*
X003410Y005809D01*
X003063Y005828D02*
X003009Y005828D01*
X003009Y005926D02*
X003063Y005926D01*
X003063Y006025D02*
X003009Y006025D01*
X003009Y006123D02*
X003063Y006123D01*
X003138Y006222D02*
X002933Y006222D01*
X003366Y006320D02*
X003476Y006320D01*
X003476Y006419D02*
X003383Y006419D01*
X003383Y006517D02*
X003476Y006517D01*
X003476Y006616D02*
X003383Y006616D01*
X003383Y006714D02*
X003476Y006714D01*
X003476Y006813D02*
X003383Y006813D01*
X003383Y006912D02*
X003476Y006912D01*
X003476Y007010D02*
X003383Y007010D01*
X003476Y007109D02*
X003236Y007109D01*
X003236Y007207D02*
X003476Y007207D01*
X003476Y007306D02*
X003236Y007306D01*
X003236Y007404D02*
X003476Y007404D01*
X003476Y007503D02*
X003236Y007503D01*
X003236Y007601D02*
X003476Y007601D01*
X003476Y007700D02*
X003236Y007700D01*
X003236Y007798D02*
X003476Y007798D01*
X003476Y007897D02*
X003236Y007897D01*
X003236Y007996D02*
X003476Y007996D01*
X003476Y008094D02*
X003236Y008094D01*
X003236Y008193D02*
X003476Y008193D01*
X003476Y008291D02*
X003236Y008291D01*
X003236Y008390D02*
X003476Y008390D01*
X003476Y008488D02*
X003236Y008488D01*
X003236Y008587D02*
X003476Y008587D01*
X003482Y008685D02*
X003236Y008685D01*
X003236Y008784D02*
X003486Y008784D01*
X003486Y008882D02*
X003236Y008882D01*
X003236Y008981D02*
X003486Y008981D01*
X003486Y009079D02*
X003236Y009079D01*
X003236Y009178D02*
X003486Y009178D01*
X003486Y009277D02*
X003236Y009277D01*
X003236Y009375D02*
X003486Y009375D01*
X003486Y009474D02*
X003236Y009474D01*
X003236Y009572D02*
X003486Y009572D01*
X003486Y009671D02*
X003236Y009671D01*
X003236Y009769D02*
X003486Y009769D01*
X003486Y009868D02*
X003236Y009868D01*
X003236Y009966D02*
X003486Y009966D01*
X003486Y010065D02*
X003236Y010065D01*
X003236Y010163D02*
X003486Y010163D01*
X003486Y010262D02*
X003236Y010262D01*
X003236Y010361D02*
X003486Y010361D01*
X003486Y010459D02*
X003236Y010459D01*
X003236Y010558D02*
X003486Y010558D01*
X003486Y010656D02*
X003283Y010656D01*
X003382Y010755D02*
X003486Y010755D01*
X003686Y010692D02*
X005786Y012792D01*
X006136Y012542D02*
X006011Y012417D01*
X006186Y012192D02*
X004386Y010392D01*
X004386Y007092D01*
X006136Y005342D01*
X006136Y005242D01*
X005942Y004941D02*
X005830Y004941D01*
X005636Y005242D02*
X005636Y005292D01*
X005066Y005729D02*
X004481Y005729D01*
X004383Y005828D02*
X004967Y005828D01*
X004869Y005926D02*
X004284Y005926D01*
X004185Y006025D02*
X004770Y006025D01*
X004671Y006123D02*
X004087Y006123D01*
X003988Y006222D02*
X004573Y006222D01*
X004474Y006320D02*
X003896Y006320D01*
X003896Y006419D02*
X004376Y006419D01*
X004277Y006517D02*
X003896Y006517D01*
X003896Y006616D02*
X004179Y006616D01*
X004080Y006714D02*
X003896Y006714D01*
X003896Y006813D02*
X003982Y006813D01*
X003036Y006675D02*
X003036Y010692D01*
X003136Y010792D01*
X003686Y010692D02*
X003686Y008592D01*
X004586Y008587D02*
X010002Y008587D01*
X010004Y008585D02*
X009916Y008673D01*
X009916Y009137D01*
X009981Y009202D01*
X009836Y009347D01*
X009836Y009637D01*
X010041Y009842D01*
X010331Y009842D01*
X010536Y009637D01*
X010536Y009347D01*
X010536Y009347D01*
X010536Y009300D01*
X010536Y009217D01*
X010616Y009137D01*
X010616Y008673D01*
X010528Y008585D01*
X010004Y008585D01*
X009916Y008685D02*
X004586Y008685D01*
X004586Y008784D02*
X009916Y008784D01*
X009916Y008882D02*
X004586Y008882D01*
X004586Y008981D02*
X009916Y008981D01*
X009916Y009079D02*
X004586Y009079D01*
X004586Y009178D02*
X009957Y009178D01*
X009906Y009277D02*
X004586Y009277D01*
X004586Y009375D02*
X009836Y009375D01*
X009836Y009474D02*
X004586Y009474D01*
X004586Y009572D02*
X009836Y009572D01*
X009870Y009671D02*
X004586Y009671D01*
X004586Y009769D02*
X009968Y009769D01*
X010403Y009769D02*
X029126Y009769D01*
X029126Y009671D02*
X010502Y009671D01*
X010536Y009572D02*
X029126Y009572D01*
X029126Y009474D02*
X010536Y009474D01*
X010536Y009375D02*
X029126Y009375D01*
X029126Y009277D02*
X010536Y009277D01*
X010575Y009178D02*
X029126Y009178D01*
X029126Y009079D02*
X010616Y009079D01*
X010616Y008981D02*
X029126Y008981D01*
X029126Y008882D02*
X010616Y008882D01*
X010616Y008784D02*
X029126Y008784D01*
X029126Y008685D02*
X010616Y008685D01*
X010530Y008587D02*
X027924Y008587D01*
X027825Y008488D02*
X004586Y008488D01*
X004586Y008390D02*
X027727Y008390D01*
X027628Y008291D02*
X004586Y008291D01*
X004586Y008193D02*
X027530Y008193D01*
X027431Y008094D02*
X027233Y008094D01*
X027331Y007996D02*
X027333Y007996D01*
X028057Y007306D02*
X029126Y007306D01*
X029126Y007404D02*
X028155Y007404D01*
X028254Y007503D02*
X029126Y007503D01*
X029126Y007601D02*
X028353Y007601D01*
X028451Y007700D02*
X029126Y007700D01*
X029126Y007798D02*
X028550Y007798D01*
X028636Y007897D02*
X029126Y007897D01*
X029126Y007996D02*
X028636Y007996D01*
X028636Y008094D02*
X029126Y008094D01*
X029126Y008193D02*
X028636Y008193D01*
X028636Y008291D02*
X029126Y008291D01*
X029126Y008390D02*
X028545Y008390D01*
X028446Y008488D02*
X029126Y008488D01*
X029126Y008587D02*
X028348Y008587D01*
X029126Y009868D02*
X004586Y009868D01*
X004586Y009966D02*
X029126Y009966D01*
X029126Y010065D02*
X004586Y010065D01*
X004586Y010163D02*
X029126Y010163D01*
X029126Y010262D02*
X004586Y010262D01*
X004637Y010361D02*
X029126Y010361D01*
X029126Y010459D02*
X004736Y010459D01*
X004835Y010558D02*
X029126Y010558D01*
X029126Y010656D02*
X004933Y010656D01*
X005032Y010755D02*
X029126Y010755D01*
X029126Y010853D02*
X005130Y010853D01*
X005229Y010952D02*
X029126Y010952D01*
X029126Y011050D02*
X010034Y011050D01*
X010133Y011149D02*
X029126Y011149D01*
X029126Y011247D02*
X010196Y011247D01*
X010196Y011346D02*
X015999Y011346D01*
X015900Y011445D02*
X010196Y011445D01*
X010196Y011543D02*
X015802Y011543D01*
X015703Y011642D02*
X010196Y011642D01*
X010196Y011740D02*
X015604Y011740D01*
X014806Y011839D02*
X010196Y011839D01*
X010196Y011937D02*
X014707Y011937D01*
X014786Y011859D02*
X014786Y011859D01*
X014609Y012036D02*
X010196Y012036D01*
X010133Y012134D02*
X011760Y012134D01*
X011886Y012292D02*
X011836Y012342D01*
X009236Y012342D01*
X009086Y012192D01*
X006186Y012192D01*
X006214Y011937D02*
X009376Y011937D01*
X009376Y011839D02*
X006116Y011839D01*
X006017Y011740D02*
X009376Y011740D01*
X009376Y011642D02*
X005919Y011642D01*
X005820Y011543D02*
X009376Y011543D01*
X009376Y011445D02*
X005721Y011445D01*
X005623Y011346D02*
X009376Y011346D01*
X009376Y011247D02*
X005524Y011247D01*
X005426Y011149D02*
X009439Y011149D01*
X009537Y011050D02*
X005327Y011050D01*
X009213Y012036D02*
X009376Y012036D01*
X009439Y012134D02*
X009311Y012134D01*
X009936Y013392D02*
X009936Y013542D01*
X009436Y013792D02*
X009119Y014042D01*
X010436Y014142D02*
X010436Y014542D01*
X011036Y013542D02*
X011036Y013442D01*
X011736Y012942D02*
X013986Y012942D01*
X013886Y012430D02*
X014215Y012430D01*
X014313Y012331D02*
X013820Y012331D01*
X013722Y012233D02*
X014412Y012233D01*
X014510Y012134D02*
X013223Y012134D01*
X013322Y012233D02*
X013350Y012233D01*
X012986Y012392D02*
X012886Y012292D01*
X011886Y012292D01*
X012503Y012742D02*
X012503Y012742D01*
X010036Y016175D02*
X002036Y016175D01*
X002036Y016273D02*
X010036Y016273D01*
X010036Y016372D02*
X002036Y016372D01*
X002036Y016470D02*
X010036Y016470D01*
X010036Y016569D02*
X002036Y016569D01*
X002036Y016667D02*
X010036Y016667D01*
X010036Y016766D02*
X002036Y016766D01*
X002036Y016864D02*
X003223Y016864D01*
X003168Y016963D02*
X002036Y016963D01*
X002036Y017061D02*
X003168Y017061D01*
X003168Y017160D02*
X002036Y017160D01*
X002036Y017259D02*
X003168Y017259D01*
X003168Y017357D02*
X002036Y017357D01*
X002036Y017456D02*
X003168Y017456D01*
X003704Y017456D02*
X004668Y017456D01*
X004668Y017554D02*
X003704Y017554D01*
X003704Y017653D02*
X004668Y017653D01*
X004668Y017751D02*
X003704Y017751D01*
X003985Y017850D02*
X004087Y017850D01*
X004654Y017850D02*
X004668Y017850D01*
X004668Y017357D02*
X003704Y017357D01*
X003704Y017259D02*
X004668Y017259D01*
X004668Y017160D02*
X003704Y017160D01*
X003704Y017061D02*
X004668Y017061D01*
X004668Y016963D02*
X003704Y016963D01*
X003648Y016864D02*
X004723Y016864D01*
X005148Y016864D02*
X010036Y016864D01*
X010036Y016963D02*
X005204Y016963D01*
X005198Y017948D02*
X005166Y017948D01*
X006640Y018737D02*
X002036Y018737D01*
X002036Y018441D02*
X003354Y018441D01*
X003354Y018343D02*
X002036Y018343D01*
X002036Y018244D02*
X003354Y018244D01*
X003314Y018145D02*
X003242Y018145D01*
X003250Y018835D02*
X003159Y018835D01*
X002529Y018145D02*
X002036Y018145D01*
X002036Y018047D02*
X002519Y018047D01*
X002519Y017948D02*
X002036Y017948D01*
X002036Y017850D02*
X002519Y017850D01*
X002519Y017751D02*
X002036Y017751D01*
X002036Y017653D02*
X002519Y017653D01*
X002582Y017554D02*
X002036Y017554D01*
X002036Y015879D02*
X003183Y015879D01*
X003168Y015780D02*
X002036Y015780D01*
X002036Y015682D02*
X003168Y015682D01*
X002587Y015583D02*
X002036Y015583D01*
X002036Y015485D02*
X002519Y015485D01*
X002519Y015386D02*
X002036Y015386D01*
X002036Y015288D02*
X002519Y015288D01*
X002519Y015189D02*
X002036Y015189D01*
X002036Y015091D02*
X002519Y015091D01*
X002525Y014992D02*
X002036Y014992D01*
X002036Y014894D02*
X003168Y014894D01*
X003245Y014795D02*
X002036Y014795D01*
X006836Y017615D02*
X006836Y018342D01*
X006936Y018442D01*
X006970Y018442D01*
X007501Y018442D01*
X007831Y018737D02*
X007840Y018737D01*
X008170Y018442D02*
X008170Y018357D01*
X008517Y018343D02*
X008594Y018343D01*
X008517Y018441D02*
X008684Y018441D01*
X008774Y018540D02*
X008517Y018540D01*
X008517Y018638D02*
X008786Y018638D01*
X008786Y018737D02*
X008501Y018737D01*
X008420Y019821D02*
X008301Y019821D01*
X007776Y019821D02*
X007558Y019821D01*
X007599Y019919D02*
X007677Y019919D01*
X007636Y020018D02*
X007599Y020018D01*
X007599Y020116D02*
X007636Y020116D01*
X007636Y020215D02*
X007599Y020215D01*
X007599Y020313D02*
X007636Y020313D01*
X007189Y020313D02*
X007151Y020313D01*
X007151Y020215D02*
X007189Y020215D01*
X007189Y020116D02*
X007151Y020116D01*
X007151Y020018D02*
X007189Y020018D01*
X007189Y019919D02*
X007110Y019919D01*
X007012Y019821D02*
X007230Y019821D01*
X006388Y019821D02*
X006072Y019821D01*
X006113Y019919D02*
X006347Y019919D01*
X005493Y019821D02*
X005427Y019821D01*
X005099Y019821D02*
X002849Y019821D01*
X002890Y019919D02*
X005058Y019919D01*
X005058Y020018D02*
X003145Y020018D01*
X003243Y020116D02*
X003810Y020116D01*
X003769Y020157D02*
X003889Y020037D01*
X004453Y020037D01*
X004573Y020157D01*
X004573Y020327D01*
X004453Y020447D01*
X003889Y020447D01*
X003769Y020327D01*
X003769Y020157D01*
X003769Y020215D02*
X003284Y020215D01*
X003284Y020313D02*
X003769Y020313D01*
X003855Y020412D02*
X003284Y020412D01*
X003284Y020511D02*
X005144Y020511D01*
X005058Y020412D02*
X004488Y020412D01*
X004573Y020313D02*
X005058Y020313D01*
X005058Y020215D02*
X004573Y020215D01*
X004532Y020116D02*
X005058Y020116D01*
X004473Y019722D02*
X010106Y019722D01*
X009977Y019821D02*
X009688Y019821D01*
X008736Y017653D02*
X008679Y017653D01*
X008736Y017554D02*
X008606Y017554D01*
X008604Y017456D02*
X008736Y017456D01*
X008813Y017357D02*
X008604Y017357D01*
X008604Y017259D02*
X010036Y017259D01*
X010036Y017357D02*
X009359Y017357D01*
X009436Y017456D02*
X010036Y017456D01*
X010036Y017554D02*
X009436Y017554D01*
X010036Y017160D02*
X008604Y017160D01*
X008545Y017061D02*
X010036Y017061D01*
X003869Y019722D02*
X003730Y019722D01*
X003323Y019722D02*
X003085Y019722D01*
X003184Y019624D02*
X003225Y019624D01*
X020123Y011346D02*
X029126Y011346D01*
X029126Y011445D02*
X020221Y011445D01*
X020320Y011543D02*
X029126Y011543D01*
X029424Y012036D02*
X031685Y012036D01*
X031862Y012233D02*
X029227Y012233D01*
X029326Y012134D02*
X031960Y012134D01*
X031986Y012036D02*
X032036Y012036D01*
X030786Y012442D02*
X030236Y012442D01*
X024466Y015879D02*
X023781Y015879D01*
X023683Y015978D02*
X024367Y015978D01*
X024056Y016076D02*
X023584Y016076D01*
X023486Y016175D02*
X023958Y016175D01*
X023886Y016273D02*
X023100Y016273D01*
X022881Y018343D02*
X024290Y018343D01*
X026486Y017892D02*
X026510Y017916D01*
X027036Y017916D01*
X025986Y019842D02*
X029286Y019842D01*
X029228Y020116D02*
X025994Y020116D01*
X025895Y020215D02*
X029252Y020215D01*
X030586Y019392D02*
X030586Y019317D01*
X030586Y018642D01*
X030788Y018934D02*
X030883Y018934D01*
X030883Y019032D02*
X032436Y019032D01*
X032436Y018934D02*
X031288Y018934D01*
X031387Y018835D02*
X032436Y018835D01*
X032436Y018737D02*
X031436Y018737D01*
X030936Y019131D02*
X032436Y019131D01*
X032436Y019229D02*
X030936Y019229D01*
X030936Y019328D02*
X032436Y019328D01*
X032436Y019427D02*
X030936Y019427D01*
X030936Y019525D02*
X032436Y019525D01*
X032436Y019624D02*
X030861Y019624D01*
X030924Y019722D02*
X032436Y019722D01*
X032436Y019821D02*
X030936Y019821D01*
X030936Y019919D02*
X032436Y019919D01*
X032436Y020018D02*
X030936Y020018D01*
X030936Y020116D02*
X032436Y020116D01*
X032436Y020215D02*
X030919Y020215D01*
X029586Y019317D02*
X029586Y018642D01*
X032436Y020313D02*
X025797Y020313D01*
X025698Y020412D02*
X032436Y020412D01*
X032436Y020511D02*
X025600Y020511D01*
X029336Y007292D02*
X029386Y007292D01*
X029424Y007254D01*
X029424Y006580D01*
X029386Y006592D01*
X029126Y007207D02*
X027958Y007207D01*
X027413Y007207D02*
X027251Y007207D01*
X028910Y005792D02*
X029386Y005792D01*
X029412Y005818D01*
X029424Y005818D01*
X029386Y005792D02*
X029260Y005666D01*
X029260Y005242D01*
X028611Y005242D02*
X028611Y003917D01*
X028436Y003742D01*
X028652Y003463D02*
X028686Y003463D01*
X026661Y003167D02*
X026169Y003167D01*
X026268Y003265D02*
X026562Y003265D01*
X026464Y003364D02*
X026366Y003364D01*
X025216Y003167D02*
X024555Y003167D01*
X024583Y003265D02*
X025189Y003265D01*
X025189Y003364D02*
X024583Y003364D01*
X024583Y003463D02*
X025189Y003463D01*
X025189Y003561D02*
X024583Y003561D01*
X024583Y003660D02*
X025189Y003660D01*
X025189Y003758D02*
X024583Y003758D01*
X024583Y003857D02*
X025189Y003857D01*
X024893Y003955D02*
X024878Y003955D01*
X023602Y003167D02*
X022493Y003167D01*
X022395Y003265D02*
X023504Y003265D01*
X023574Y003195D02*
X023574Y003195D01*
X021848Y002966D02*
X021810Y002966D01*
X021786Y002942D01*
X020036Y003660D02*
X017973Y003660D01*
X018071Y003758D02*
X020036Y003758D01*
X020093Y003857D02*
X018086Y003857D01*
X018086Y003955D02*
X020065Y003955D01*
X020036Y004054D02*
X018086Y004054D01*
X018086Y004152D02*
X020036Y004152D01*
X019452Y003068D02*
X015316Y003068D01*
X015281Y003092D02*
X014991Y003092D01*
X014786Y003297D01*
X014786Y003542D01*
X014578Y003542D01*
X014490Y003629D01*
X014490Y004154D01*
X014578Y004242D01*
X015043Y004242D01*
X015130Y004154D01*
X015130Y003841D01*
X015176Y003792D01*
X015281Y003792D01*
X015486Y003587D01*
X015486Y003297D01*
X015281Y003092D01*
X015356Y003167D02*
X016603Y003167D01*
X016578Y003192D01*
X016416Y003192D01*
X016036Y003572D01*
X016036Y004461D01*
X016036Y004661D01*
X016036Y005172D01*
X016036Y005039D02*
X011946Y005039D01*
X012045Y004941D02*
X016036Y004941D01*
X016036Y004842D02*
X012143Y004842D01*
X012198Y004744D02*
X016036Y004744D01*
X016036Y004645D02*
X012198Y004645D01*
X012198Y004546D02*
X016036Y004546D01*
X016036Y004448D02*
X012198Y004448D01*
X012248Y004349D02*
X016036Y004349D01*
X016036Y004251D02*
X012347Y004251D01*
X012445Y004152D02*
X013841Y004152D01*
X013841Y004054D02*
X012544Y004054D01*
X013636Y003717D02*
X013636Y003692D01*
X013686Y003742D01*
X013736Y003792D01*
X014036Y003792D01*
X014136Y003892D01*
X014161Y003892D01*
X014481Y003857D02*
X014490Y003857D01*
X014490Y003955D02*
X014481Y003955D01*
X014490Y004054D02*
X014481Y004054D01*
X014490Y004152D02*
X014481Y004152D01*
X014810Y003892D02*
X015136Y003542D01*
X015136Y003442D01*
X015486Y003463D02*
X016146Y003463D01*
X016047Y003561D02*
X015486Y003561D01*
X015413Y003660D02*
X016036Y003660D01*
X016036Y003758D02*
X015314Y003758D01*
X015130Y003857D02*
X016036Y003857D01*
X016036Y003955D02*
X015130Y003955D01*
X015130Y004054D02*
X016036Y004054D01*
X016036Y004152D02*
X015130Y004152D01*
X014490Y003758D02*
X014481Y003758D01*
X014490Y003660D02*
X014481Y003660D01*
X014413Y003561D02*
X014559Y003561D01*
X014757Y003463D02*
X014786Y003463D01*
X014786Y003364D02*
X014768Y003364D01*
X014768Y003265D02*
X014817Y003265D01*
X014793Y003167D02*
X014916Y003167D01*
X014510Y003168D02*
X014936Y002742D01*
X015061Y002742D01*
X015381Y002576D02*
X017887Y002576D01*
X017788Y002477D02*
X015379Y002477D01*
X015381Y002379D02*
X017690Y002379D01*
X017591Y002280D02*
X015381Y002280D01*
X015381Y002181D02*
X017493Y002181D01*
X017394Y002083D02*
X015381Y002083D01*
X014536Y002130D02*
X014510Y002130D01*
X014524Y002130D01*
X014536Y002142D01*
X014536Y002130D02*
X014536Y002192D01*
X014386Y002742D02*
X014510Y002866D01*
X014510Y003154D01*
X014510Y003168D01*
X014486Y003192D01*
X015454Y003265D02*
X016343Y003265D01*
X016244Y003364D02*
X015486Y003364D01*
X016603Y003167D02*
X017069Y003167D01*
X013762Y002130D02*
X013624Y002130D01*
X013336Y001842D01*
X012099Y002871D02*
X011874Y002871D01*
X011012Y002871D02*
X010259Y002871D01*
X010333Y002970D02*
X010939Y002970D01*
X010939Y003068D02*
X010333Y003068D01*
X010333Y003167D02*
X010939Y003167D01*
X010939Y003265D02*
X010333Y003265D01*
X010333Y003364D02*
X010939Y003364D01*
X010939Y003463D02*
X010333Y003463D01*
X010333Y003561D02*
X010939Y003561D01*
X010939Y003660D02*
X010333Y003660D01*
X010313Y003758D02*
X010958Y003758D01*
X010642Y003857D02*
X010629Y003857D01*
X009304Y003265D02*
X007869Y003265D01*
X007931Y003167D02*
X009324Y003167D01*
X009324Y003068D02*
X007931Y003068D01*
X007931Y002970D02*
X009324Y002970D01*
X009398Y002871D02*
X007931Y002871D01*
X007636Y002942D02*
X007586Y002992D01*
X007586Y003567D01*
X007586Y003542D01*
X007312Y003816D01*
X006848Y003816D01*
X007166Y004054D02*
X007236Y004054D01*
X007086Y003442D02*
X006848Y003442D01*
X007611Y002942D02*
X007636Y002942D01*
X005824Y003816D02*
X005812Y003816D01*
X004386Y005242D01*
X003686Y006242D02*
X005736Y004192D01*
X005986Y004192D01*
X003152Y004842D02*
X002036Y004842D01*
X002036Y004941D02*
X003054Y004941D01*
X002966Y005039D02*
X002036Y005039D01*
X002036Y005138D02*
X002876Y005138D01*
X002785Y005236D02*
X002036Y005236D01*
X003009Y005630D02*
X003063Y005630D01*
X003063Y005532D02*
X003057Y005532D01*
X003063Y005729D02*
X003009Y005729D01*
X022286Y006320D02*
X022341Y006320D01*
X022486Y006692D02*
X022536Y006692D01*
X025155Y004842D02*
X025428Y004842D01*
X025527Y004941D02*
X025254Y004941D01*
X025353Y005039D02*
X025625Y005039D01*
X031628Y005236D02*
X031690Y005236D01*
X031643Y005335D02*
X031628Y005335D01*
X031621Y005433D02*
X031643Y005433D01*
D38*
X026536Y004042D02*
X025886Y004092D01*
X024836Y005442D02*
X023936Y004542D01*
X023886Y004342D01*
X023886Y004292D01*
X023886Y004092D01*
X018186Y007192D02*
X017886Y006892D01*
X017886Y006492D01*
X017886Y005592D01*
X017886Y005442D01*
X017786Y005442D01*
X017336Y004992D01*
X017386Y004992D01*
X017436Y004942D01*
X017436Y004042D01*
X017236Y003842D01*
X017136Y003842D02*
X016686Y003842D01*
X016686Y004192D01*
X016836Y004142D01*
X016686Y004392D02*
X017136Y004392D01*
X017136Y003842D01*
X016686Y004392D02*
X016686Y005442D01*
X016686Y007042D01*
X016586Y007142D01*
X016586Y007292D01*
X016686Y007342D02*
X016686Y007092D01*
X017036Y006742D01*
X017036Y005992D01*
X017136Y005892D01*
X018186Y007192D02*
X018186Y007242D01*
X018186Y007292D01*
X016686Y007342D02*
X016586Y007442D01*
D39*
X011636Y004142D02*
X011636Y004042D01*
X011586Y003992D01*
X011586Y003642D01*
X011443Y003499D01*
X011443Y003342D01*
X011636Y004142D02*
X011336Y004442D01*
X010970Y004292D01*
X010301Y004292D02*
X009886Y004442D01*
X009636Y004192D01*
X009636Y004142D01*
X009829Y003949D01*
X009829Y003342D01*
X009586Y004092D02*
X009636Y004142D01*
X023886Y004292D02*
X023979Y004199D01*
X024079Y003592D01*
X023886Y004342D02*
X024086Y004442D01*
X024551Y004392D01*
X025220Y004392D02*
X025886Y004392D01*
X025886Y004092D01*
X025886Y003892D01*
X025593Y003599D01*
X025693Y003592D01*
D40*
X022136Y003242D02*
X021236Y003242D01*
X021136Y003142D01*
X021561Y003567D01*
X021411Y003642D01*
X021136Y003142D02*
X020936Y002942D01*
X020912Y002966D01*
X020824Y002966D01*
X021136Y004492D02*
X021336Y004492D01*
X029336Y007292D02*
X029336Y011642D01*
X032060Y014067D02*
X032060Y014142D01*
X032060Y014067D02*
X032086Y014042D01*
X017836Y018542D02*
X017536Y018242D01*
X017221Y018527D02*
X017221Y017875D01*
X016906Y017875D02*
X016906Y018522D01*
X016836Y018592D01*
X016810Y018642D01*
X016810Y018767D01*
X015986Y019492D01*
X017311Y018817D02*
X017886Y019492D01*
X017311Y018817D02*
X017311Y018642D01*
X017286Y018592D01*
X017221Y018527D01*
X003686Y008592D02*
X003686Y006242D01*
X007486Y002992D02*
X007611Y003017D01*
X007611Y002942D02*
X007486Y002992D01*
D41*
X009586Y004092D02*
X009586Y004692D01*
X009236Y005042D01*
X012136Y003542D02*
X012386Y003292D01*
X027686Y007642D02*
X028136Y008092D01*
D42*
X012136Y003642D02*
X011636Y004142D01*
X012136Y003642D02*
X012136Y003542D01*
D43*
X011786Y005692D03*
X011186Y005692D03*
X015386Y012592D03*
X016036Y012592D03*
X014586Y013842D03*
X014036Y014192D03*
X022536Y006692D03*
X021886Y006442D03*
M02*
