%
M48
M72
T01C0.0200
T02C0.0360
T03C0.0400
%
T01
X2550Y1753
X4750Y1753
X4750Y2503
X4750Y3253
X4750Y4003
X4750Y4703
X4150Y5853
X7700Y3553
X8000Y3953
X9550Y5053
X9250Y6603
X10700Y6603
X12300Y5653
X9450Y7703
X12150Y2803
X9000Y1853
X9000Y1003
X6450Y1353
X6450Y2153
X6800Y2653
T02
X3550Y2353
X2550Y2353
X2550Y3353
X3550Y3353
X3550Y4353
X2550Y4353
X2550Y5353
X3550Y5353
X3550Y6353
X2550Y6353
T03
X11300Y1853
X12300Y1853
X12300Y853
X11300Y853
M30
