G75*
G70*
%OFA0B0*%
%FSLAX24Y24*%
%IPPOS*%
%LPD*%
%AMOC8*
5,1,8,0,0,1.08239X$1,22.5*
%
%ADD10R,0.0790X0.0710*%
%ADD11R,0.0290X0.0580*%
%ADD12R,0.0580X0.0290*%
%ADD13R,0.0474X0.0513*%
%ADD14R,0.0513X0.0474*%
%ADD15OC8,0.0680*%
%ADD16R,0.0710X0.0790*%
%ADD17R,0.0780X0.1080*%
%ADD18R,0.0631X0.0218*%
%ADD19R,0.0828X0.0789*%
%ADD20R,0.0710X0.0907*%
%ADD21OC8,0.0720*%
D10*
X013300Y006543D03*
X013300Y007663D03*
D11*
X009903Y006043D03*
X009588Y006043D03*
X009273Y006043D03*
X008958Y006043D03*
X008643Y006043D03*
X008328Y006043D03*
X008013Y006043D03*
X007698Y006043D03*
X007698Y002663D03*
X008013Y002663D03*
X008328Y002663D03*
X008643Y002663D03*
X008958Y002663D03*
X009273Y002663D03*
X009588Y002663D03*
X009903Y002663D03*
D12*
X010490Y003250D03*
X010490Y003565D03*
X010490Y003880D03*
X010490Y004195D03*
X010490Y004510D03*
X010490Y004825D03*
X010490Y005140D03*
X010490Y005455D03*
X007110Y005455D03*
X007110Y005140D03*
X007110Y004825D03*
X007110Y004510D03*
X007110Y004195D03*
X007110Y003880D03*
X007110Y003565D03*
X007110Y003250D03*
D13*
X005885Y003603D03*
X005216Y003603D03*
X005216Y002853D03*
X005885Y002853D03*
X005885Y002103D03*
X005216Y002103D03*
X005216Y001353D03*
X005885Y001353D03*
X005885Y004353D03*
X005216Y004353D03*
X005216Y005103D03*
X005885Y005103D03*
X005885Y005853D03*
X005216Y005853D03*
X005216Y006603D03*
X005885Y006603D03*
X005885Y007353D03*
X005216Y007353D03*
X007800Y007268D03*
X007800Y007937D03*
X011050Y007937D03*
X011050Y007268D03*
X012300Y006937D03*
X012300Y006268D03*
D14*
X011385Y006103D03*
X010716Y006103D03*
X011550Y004937D03*
X012300Y004937D03*
X012300Y004268D03*
X011550Y004268D03*
X011466Y003353D03*
X012135Y003353D03*
X009800Y001687D03*
X009800Y001018D03*
X014300Y006768D03*
X014300Y007437D03*
D15*
X002550Y002353D03*
X003550Y002353D03*
X003550Y003353D03*
X002550Y003353D03*
X002550Y004353D03*
X003550Y004353D03*
X003550Y005353D03*
X002550Y005353D03*
X002550Y006353D03*
X003550Y006353D03*
D16*
X007240Y001853D03*
X008360Y001853D03*
X008360Y000853D03*
X007240Y000853D03*
D17*
X008650Y007403D03*
X010250Y007403D03*
D18*
X013257Y004865D03*
X013257Y004609D03*
X013257Y004353D03*
X013257Y004097D03*
X013257Y003841D03*
D19*
X014300Y002778D03*
X014300Y005928D03*
D20*
X013296Y005573D03*
X013296Y003132D03*
D21*
X012300Y001853D03*
X011300Y001853D03*
X011300Y000853D03*
X012300Y000853D03*
M02*
