G75*
G70*
%OFA0B0*%
%FSLAX24Y24*%
%IPPOS*%
%LPD*%
%AMOC8*
5,1,8,0,0,1.08239X$1,22.5*
%
%ADD10C,0.0000*%
%ADD11C,0.0110*%
%ADD12R,0.0710X0.0630*%
%ADD13R,0.0210X0.0500*%
%ADD14R,0.0500X0.0210*%
%ADD15R,0.0394X0.0433*%
%ADD16R,0.0433X0.0394*%
%ADD17OC8,0.0600*%
%ADD18R,0.0630X0.0710*%
%ADD19R,0.0700X0.1000*%
%ADD20R,0.0551X0.0138*%
%ADD21R,0.0748X0.0709*%
%ADD22R,0.0630X0.0827*%
%ADD23OC8,0.0640*%
%ADD24C,0.0080*%
%ADD25C,0.0160*%
%ADD26C,0.0400*%
D10*
X001300Y000353D02*
X014800Y000353D01*
X014800Y008353D01*
X001300Y008353D01*
X001300Y000353D01*
D11*
X013105Y000855D02*
X013301Y001051D01*
X013695Y001051D01*
X013695Y001302D02*
X013105Y001302D01*
X013105Y001598D01*
X013203Y001696D01*
X013400Y001696D01*
X013498Y001598D01*
X013498Y001302D01*
X013400Y001051D02*
X013400Y000658D01*
X013301Y000658D02*
X013105Y000855D01*
X013301Y000658D02*
X013695Y000658D01*
X013955Y000805D02*
X014545Y000805D01*
X014545Y001001D02*
X014545Y000608D01*
X014151Y000608D02*
X013955Y000805D01*
X014151Y001252D02*
X013955Y001449D01*
X014545Y001449D01*
X014545Y001252D02*
X014545Y001646D01*
X013695Y001947D02*
X013695Y002242D01*
X013597Y002340D01*
X013498Y002340D01*
X013400Y002242D01*
X013400Y001947D01*
X013695Y001947D02*
X013105Y001947D01*
X013105Y002242D01*
X013203Y002340D01*
X013301Y002340D01*
X013400Y002242D01*
D12*
X013300Y006543D03*
X013300Y007663D03*
D13*
X009903Y006043D03*
X009588Y006043D03*
X009273Y006043D03*
X008958Y006043D03*
X008643Y006043D03*
X008328Y006043D03*
X008013Y006043D03*
X007698Y006043D03*
X007698Y002663D03*
X008013Y002663D03*
X008328Y002663D03*
X008643Y002663D03*
X008958Y002663D03*
X009273Y002663D03*
X009588Y002663D03*
X009903Y002663D03*
D14*
X010490Y003250D03*
X010490Y003565D03*
X010490Y003880D03*
X010490Y004195D03*
X010490Y004510D03*
X010490Y004825D03*
X010490Y005140D03*
X010490Y005455D03*
X007110Y005455D03*
X007110Y005140D03*
X007110Y004825D03*
X007110Y004510D03*
X007110Y004195D03*
X007110Y003880D03*
X007110Y003565D03*
X007110Y003250D03*
D15*
X005885Y003603D03*
X005216Y003603D03*
X005216Y002853D03*
X005885Y002853D03*
X005885Y002103D03*
X005216Y002103D03*
X005216Y001353D03*
X005885Y001353D03*
X005885Y004353D03*
X005216Y004353D03*
X005216Y005103D03*
X005885Y005103D03*
X005885Y005853D03*
X005216Y005853D03*
X005216Y006603D03*
X005885Y006603D03*
X005885Y007353D03*
X005216Y007353D03*
X007800Y007268D03*
X007800Y007937D03*
X011050Y007937D03*
X011050Y007268D03*
X012300Y006937D03*
X012300Y006268D03*
D16*
X011385Y006103D03*
X010716Y006103D03*
X011550Y004937D03*
X012300Y004937D03*
X012300Y004268D03*
X011550Y004268D03*
X011466Y003353D03*
X012135Y003353D03*
X009800Y001687D03*
X009800Y001018D03*
X014300Y006768D03*
X014300Y007437D03*
D17*
X003550Y006353D03*
X002550Y006353D03*
X002550Y005353D03*
X003550Y005353D03*
X003550Y004353D03*
X002550Y004353D03*
X002550Y003353D03*
X003550Y003353D03*
X003550Y002353D03*
X002550Y002353D03*
D18*
X007240Y001853D03*
X008360Y001853D03*
X008360Y000853D03*
X007240Y000853D03*
D19*
X008650Y007403D03*
X010250Y007403D03*
D20*
X013257Y004865D03*
X013257Y004609D03*
X013257Y004353D03*
X013257Y004097D03*
X013257Y003841D03*
D21*
X014300Y002778D03*
X014300Y005928D03*
D22*
X013296Y005573D03*
X013296Y003132D03*
D23*
X012300Y001853D03*
X011300Y001853D03*
X011300Y000853D03*
X012300Y000853D03*
D24*
X011935Y001138D02*
X011665Y001138D01*
X011731Y001073D02*
X011491Y001313D01*
X011110Y001313D01*
X010840Y001043D01*
X010840Y000662D01*
X011010Y000493D01*
X008815Y000493D01*
X008815Y000813D01*
X008400Y000813D01*
X008400Y000893D01*
X008815Y000893D01*
X008815Y001173D01*
X009376Y001173D01*
X009444Y001105D01*
X009444Y000763D01*
X009526Y000681D01*
X010075Y000681D01*
X010157Y000763D01*
X010157Y001273D01*
X010077Y001353D01*
X010157Y001433D01*
X010157Y001942D01*
X010075Y002024D01*
X009980Y002024D01*
X009980Y002077D01*
X009785Y002273D01*
X010066Y002273D01*
X010147Y002355D01*
X010147Y002694D01*
X010309Y002533D01*
X010491Y002533D01*
X011309Y002533D01*
X011840Y002002D01*
X011760Y002002D01*
X011760Y002043D02*
X011491Y002313D01*
X011110Y002313D01*
X010840Y002043D01*
X010840Y001662D01*
X011110Y001393D01*
X011491Y001393D01*
X011760Y001662D01*
X011760Y002043D01*
X011761Y002081D02*
X011723Y002081D01*
X011683Y002159D02*
X011644Y002159D01*
X011604Y002238D02*
X011566Y002238D01*
X011525Y002316D02*
X010109Y002316D01*
X010147Y002395D02*
X011447Y002395D01*
X011368Y002473D02*
X010147Y002473D01*
X010147Y002552D02*
X010290Y002552D01*
X010211Y002631D02*
X010147Y002631D01*
X009903Y002663D02*
X009903Y002850D01*
X009850Y002903D01*
X009850Y003003D01*
X009750Y003103D01*
X008700Y003103D01*
X008000Y003803D01*
X008000Y003953D01*
X007660Y003966D02*
X007500Y003966D01*
X007500Y004043D02*
X007500Y003833D01*
X007508Y003841D01*
X007632Y003893D01*
X007660Y003893D01*
X007660Y004020D01*
X007712Y004145D01*
X007808Y004241D01*
X007932Y004293D01*
X008068Y004293D01*
X008193Y004241D01*
X008288Y004145D01*
X008340Y004020D01*
X008340Y003885D01*
X008291Y003766D01*
X008775Y003283D01*
X009730Y003283D01*
X009730Y005235D01*
X009289Y005235D01*
X009107Y005235D01*
X008859Y005483D01*
X008730Y005612D01*
X008730Y005653D01*
X008491Y005653D01*
X008176Y005653D01*
X007861Y005653D01*
X007535Y005653D01*
X007453Y005735D01*
X007453Y005873D01*
X006222Y005873D01*
X006222Y005633D01*
X006735Y005633D01*
X006802Y005700D01*
X007418Y005700D01*
X007500Y005618D01*
X007500Y005303D01*
X007500Y004988D01*
X007500Y004673D01*
X007500Y004358D01*
X007500Y004043D01*
X007500Y004044D02*
X007670Y004044D01*
X007703Y004123D02*
X007500Y004123D01*
X007500Y004201D02*
X007768Y004201D01*
X007902Y004280D02*
X007500Y004280D01*
X007500Y004358D02*
X009730Y004358D01*
X009730Y004280D02*
X008099Y004280D01*
X008232Y004201D02*
X009730Y004201D01*
X009730Y004123D02*
X008298Y004123D01*
X008330Y004044D02*
X009730Y004044D01*
X009730Y003966D02*
X008340Y003966D01*
X008340Y003887D02*
X009730Y003887D01*
X009730Y003809D02*
X008308Y003809D01*
X008327Y003730D02*
X009730Y003730D01*
X009730Y003652D02*
X008406Y003652D01*
X008484Y003573D02*
X009730Y003573D01*
X009730Y003494D02*
X008563Y003494D01*
X008641Y003416D02*
X009730Y003416D01*
X009730Y003337D02*
X008720Y003337D01*
X007700Y003553D02*
X007688Y003565D01*
X007110Y003565D01*
X007110Y003250D02*
X006898Y003250D01*
X006450Y002803D01*
X006450Y002153D01*
X006702Y001924D02*
X006785Y001924D01*
X006738Y001960D02*
X006785Y002074D01*
X006785Y001440D01*
X006867Y001358D01*
X007481Y001358D01*
X007491Y001348D01*
X006867Y001348D01*
X006785Y001266D01*
X006785Y001033D01*
X006475Y001033D01*
X006222Y001286D01*
X006222Y001627D01*
X006140Y001709D01*
X005811Y001709D01*
X005848Y001746D01*
X006140Y001746D01*
X006222Y001828D01*
X006222Y001901D01*
X006258Y001865D01*
X006382Y001813D01*
X006518Y001813D01*
X006643Y001865D01*
X006738Y001960D01*
X006756Y002002D02*
X006785Y002002D01*
X006785Y001845D02*
X006596Y001845D01*
X006785Y001767D02*
X006160Y001767D01*
X006161Y001688D02*
X006785Y001688D01*
X006785Y001609D02*
X006222Y001609D01*
X006222Y001531D02*
X006785Y001531D01*
X006785Y001452D02*
X006222Y001452D01*
X006222Y001374D02*
X006851Y001374D01*
X006815Y001295D02*
X006222Y001295D01*
X006291Y001217D02*
X006785Y001217D01*
X006785Y001138D02*
X006369Y001138D01*
X006448Y001060D02*
X006785Y001060D01*
X006400Y000853D02*
X007240Y000853D01*
X007695Y000824D02*
X008320Y000824D01*
X008320Y000813D02*
X007905Y000813D01*
X007905Y000493D01*
X007695Y000493D01*
X007695Y001173D01*
X007815Y001173D01*
X007905Y001173D01*
X007905Y000893D01*
X008320Y000893D01*
X008320Y000813D01*
X008360Y000853D02*
X008850Y000853D01*
X009000Y001003D01*
X008815Y000981D02*
X009444Y000981D01*
X009444Y000903D02*
X008815Y000903D01*
X008815Y001060D02*
X009444Y001060D01*
X009410Y001138D02*
X008815Y001138D01*
X008400Y000824D02*
X009444Y000824D01*
X009461Y000745D02*
X008815Y000745D01*
X008815Y000667D02*
X010840Y000667D01*
X010840Y000745D02*
X010139Y000745D01*
X010157Y000824D02*
X010840Y000824D01*
X010840Y000903D02*
X010157Y000903D01*
X010157Y000981D02*
X010840Y000981D01*
X010857Y001060D02*
X010157Y001060D01*
X010157Y001138D02*
X010935Y001138D01*
X011014Y001217D02*
X010157Y001217D01*
X010134Y001295D02*
X011092Y001295D01*
X011050Y001452D02*
X010157Y001452D01*
X010157Y001531D02*
X010971Y001531D01*
X010893Y001609D02*
X010157Y001609D01*
X010157Y001688D02*
X010840Y001688D01*
X010840Y001767D02*
X010157Y001767D01*
X010157Y001845D02*
X010840Y001845D01*
X010840Y001924D02*
X010157Y001924D01*
X010097Y002002D02*
X010840Y002002D01*
X010878Y002081D02*
X009977Y002081D01*
X009898Y002159D02*
X010956Y002159D01*
X011035Y002238D02*
X009820Y002238D01*
X009600Y002203D02*
X009600Y002650D01*
X009588Y002663D01*
X009420Y002273D02*
X009110Y002273D01*
X008799Y002273D01*
X008805Y002262D01*
X008815Y002226D01*
X008815Y001893D01*
X008400Y001893D01*
X008400Y001813D01*
X008815Y001813D01*
X008815Y001533D01*
X009444Y001533D01*
X009444Y001942D01*
X009525Y002024D01*
X009420Y002128D01*
X009420Y002273D01*
X009420Y002238D02*
X008812Y002238D01*
X008815Y002159D02*
X009420Y002159D01*
X009468Y002081D02*
X008815Y002081D01*
X008815Y002002D02*
X009504Y002002D01*
X009444Y001924D02*
X008815Y001924D01*
X009000Y001853D02*
X008360Y001853D01*
X008400Y001845D02*
X009444Y001845D01*
X009444Y001767D02*
X008815Y001767D01*
X008815Y001688D02*
X009444Y001688D01*
X009444Y001609D02*
X008815Y001609D01*
X008320Y001813D02*
X007905Y001813D01*
X007905Y001533D01*
X007815Y001533D01*
X007695Y001652D01*
X007695Y002266D01*
X007688Y002273D01*
X007850Y002273D01*
X007921Y002273D01*
X007915Y002262D01*
X007905Y002226D01*
X007905Y001893D01*
X008320Y001893D01*
X008320Y001813D01*
X008320Y001845D02*
X007695Y001845D01*
X007695Y001767D02*
X007905Y001767D01*
X007905Y001688D02*
X007695Y001688D01*
X007738Y001609D02*
X007905Y001609D01*
X007740Y001353D02*
X007240Y001853D01*
X007695Y001924D02*
X007905Y001924D01*
X007905Y002002D02*
X007695Y002002D01*
X007695Y002081D02*
X007905Y002081D01*
X007905Y002159D02*
X007695Y002159D01*
X007695Y002238D02*
X007908Y002238D01*
X007688Y002653D02*
X007698Y002663D01*
X007688Y002653D02*
X006800Y002653D01*
X006250Y002453D02*
X006250Y002953D01*
X006450Y003153D01*
X006450Y003653D01*
X006650Y003853D01*
X006650Y004103D01*
X006750Y004203D01*
X007103Y004203D01*
X007110Y004195D01*
X007103Y004503D02*
X006600Y004503D01*
X006450Y004353D01*
X006450Y003903D01*
X006250Y003703D01*
X006250Y003203D01*
X005900Y002853D01*
X005885Y002853D01*
X005885Y002787D01*
X005600Y002503D01*
X004750Y002503D01*
X004435Y002631D02*
X003895Y002631D01*
X003816Y002709D02*
X004089Y002709D01*
X004126Y002673D02*
X004275Y002673D01*
X004453Y002673D01*
X004410Y002570D01*
X004410Y002435D01*
X004462Y002310D01*
X004489Y002283D01*
X003990Y002283D01*
X003990Y002535D01*
X003732Y002793D01*
X003368Y002793D01*
X003110Y002535D01*
X003110Y002171D01*
X003368Y001913D01*
X003732Y001913D01*
X003742Y001923D01*
X003875Y001923D01*
X004453Y001923D01*
X004410Y001820D01*
X004410Y001685D01*
X004462Y001560D01*
X004489Y001533D01*
X003625Y001533D01*
X002988Y002169D01*
X002990Y002171D01*
X002990Y002535D01*
X002732Y002793D01*
X002368Y002793D01*
X002110Y002535D01*
X002110Y002171D01*
X002368Y001913D01*
X002732Y001913D01*
X002734Y001914D01*
X003476Y001173D01*
X003625Y001173D01*
X004879Y001173D01*
X004879Y001078D01*
X004961Y000996D01*
X005470Y000996D01*
X005550Y001076D01*
X005630Y000996D01*
X006002Y000996D01*
X006220Y000778D01*
X006326Y000673D01*
X006785Y000673D01*
X006785Y000493D01*
X001440Y000493D01*
X001440Y008213D01*
X007476Y008213D01*
X007473Y008208D01*
X007463Y008172D01*
X007463Y007977D01*
X007760Y007977D01*
X007760Y007897D01*
X007463Y007897D01*
X007463Y007702D01*
X007473Y007667D01*
X007491Y007635D01*
X007517Y007609D01*
X007525Y007604D01*
X007463Y007543D01*
X007463Y006994D01*
X007474Y006983D01*
X006475Y006983D01*
X006222Y007236D01*
X006222Y007627D01*
X006140Y007709D01*
X005730Y007709D01*
X005730Y007727D01*
X005630Y007827D01*
X005525Y007933D01*
X002125Y007933D01*
X001976Y007933D01*
X001626Y007583D01*
X001520Y007477D01*
X001520Y004277D01*
X001520Y004128D01*
X002112Y003537D01*
X002110Y003535D01*
X002110Y003171D01*
X002368Y002913D01*
X002732Y002913D01*
X002990Y003171D01*
X002990Y003535D01*
X002732Y003793D01*
X002368Y003793D01*
X002366Y003791D01*
X001880Y004277D01*
X001880Y004768D01*
X002112Y004537D01*
X002110Y004535D01*
X002110Y004171D01*
X002368Y003913D01*
X002732Y003913D01*
X002870Y004051D01*
X002870Y003927D01*
X002870Y003778D01*
X003112Y003537D01*
X003110Y003535D01*
X003110Y003171D01*
X003368Y002913D01*
X003732Y002913D01*
X003820Y003001D01*
X003820Y002978D01*
X003926Y002873D01*
X004126Y002673D01*
X004011Y002788D02*
X003737Y002788D01*
X003764Y002945D02*
X003854Y002945D01*
X003932Y002866D02*
X001440Y002866D01*
X001440Y002788D02*
X002363Y002788D01*
X002284Y002709D02*
X001440Y002709D01*
X001440Y002631D02*
X002206Y002631D01*
X002127Y002552D02*
X001440Y002552D01*
X001440Y002473D02*
X002110Y002473D01*
X002110Y002395D02*
X001440Y002395D01*
X001440Y002316D02*
X002110Y002316D01*
X002110Y002238D02*
X001440Y002238D01*
X001440Y002159D02*
X002121Y002159D01*
X002200Y002081D02*
X001440Y002081D01*
X001440Y002002D02*
X002279Y002002D01*
X002357Y001924D02*
X001440Y001924D01*
X001440Y001845D02*
X002803Y001845D01*
X002882Y001767D02*
X001440Y001767D01*
X001440Y001688D02*
X002960Y001688D01*
X003039Y001609D02*
X001440Y001609D01*
X001440Y001531D02*
X003117Y001531D01*
X003196Y001452D02*
X001440Y001452D01*
X001440Y001374D02*
X003275Y001374D01*
X003353Y001295D02*
X001440Y001295D01*
X001440Y001217D02*
X003432Y001217D01*
X003550Y001353D02*
X002550Y002353D01*
X002990Y002316D02*
X003110Y002316D01*
X003110Y002238D02*
X002990Y002238D01*
X002998Y002159D02*
X003121Y002159D01*
X003077Y002081D02*
X003200Y002081D01*
X003155Y002002D02*
X003279Y002002D01*
X003234Y001924D02*
X003357Y001924D01*
X003312Y001845D02*
X004420Y001845D01*
X004410Y001767D02*
X003391Y001767D01*
X003469Y001688D02*
X004410Y001688D01*
X004441Y001609D02*
X003548Y001609D01*
X003550Y001353D02*
X005216Y001353D01*
X004879Y001138D02*
X001440Y001138D01*
X001440Y001060D02*
X004897Y001060D01*
X005534Y001060D02*
X005566Y001060D01*
X006017Y000981D02*
X001440Y000981D01*
X001440Y000903D02*
X006096Y000903D01*
X006174Y000824D02*
X001440Y000824D01*
X001440Y000745D02*
X006253Y000745D01*
X006400Y000853D02*
X005900Y001353D01*
X005885Y001353D01*
X005600Y001753D02*
X004750Y001753D01*
X005216Y002103D02*
X003800Y002103D01*
X003550Y002353D01*
X003990Y002316D02*
X004459Y002316D01*
X004427Y002395D02*
X003990Y002395D01*
X003990Y002473D02*
X004410Y002473D01*
X004410Y002552D02*
X003973Y002552D01*
X004200Y002853D02*
X004000Y003053D01*
X004000Y004603D01*
X003750Y004853D01*
X003350Y004853D01*
X003050Y005153D01*
X003050Y005853D01*
X003550Y006353D01*
X003906Y006086D02*
X004312Y006086D01*
X004390Y006008D02*
X003827Y006008D01*
X003749Y005929D02*
X004469Y005929D01*
X004548Y005851D02*
X003303Y005851D01*
X003368Y005793D02*
X003230Y005655D01*
X003230Y005778D01*
X003366Y005914D01*
X003368Y005913D01*
X003732Y005913D01*
X003990Y006171D01*
X003990Y006408D01*
X004726Y005673D01*
X004875Y005673D01*
X004879Y005673D01*
X004879Y005578D01*
X004961Y005496D01*
X005339Y005496D01*
X005302Y005459D01*
X004961Y005459D01*
X004879Y005377D01*
X004879Y005017D01*
X004818Y005043D01*
X004682Y005043D01*
X004558Y004991D01*
X004462Y004895D01*
X004410Y004770D01*
X004410Y004635D01*
X004462Y004510D01*
X004558Y004415D01*
X004682Y004363D01*
X004818Y004363D01*
X004879Y004388D01*
X004879Y004317D01*
X004818Y004343D01*
X004682Y004343D01*
X004558Y004291D01*
X004462Y004195D01*
X004410Y004070D01*
X004410Y003935D01*
X004462Y003810D01*
X004489Y003783D01*
X004475Y003783D01*
X004380Y003877D01*
X004380Y004628D01*
X004380Y004777D01*
X003988Y005169D01*
X003990Y005171D01*
X003990Y005535D01*
X003732Y005793D01*
X003368Y005793D01*
X003347Y005772D02*
X003230Y005772D01*
X003230Y005694D02*
X003269Y005694D01*
X002850Y005653D02*
X002850Y005953D01*
X003050Y006153D01*
X003050Y006553D01*
X003300Y006803D01*
X003850Y006803D01*
X004800Y005853D01*
X005216Y005853D01*
X004879Y005615D02*
X003910Y005615D01*
X003988Y005537D02*
X004920Y005537D01*
X004959Y005458D02*
X003990Y005458D01*
X003990Y005380D02*
X004881Y005380D01*
X004879Y005301D02*
X003990Y005301D01*
X003990Y005222D02*
X004879Y005222D01*
X004879Y005144D02*
X004014Y005144D01*
X004092Y005065D02*
X004879Y005065D01*
X004553Y004987D02*
X004171Y004987D01*
X004249Y004908D02*
X004475Y004908D01*
X004435Y004830D02*
X004328Y004830D01*
X004380Y004751D02*
X004410Y004751D01*
X004410Y004673D02*
X004380Y004673D01*
X004380Y004594D02*
X004427Y004594D01*
X004460Y004516D02*
X004380Y004516D01*
X004380Y004437D02*
X004535Y004437D01*
X004547Y004280D02*
X004380Y004280D01*
X004380Y004358D02*
X004879Y004358D01*
X005216Y004353D02*
X004866Y004703D01*
X004750Y004703D01*
X004200Y004703D02*
X003550Y005353D01*
X003831Y005694D02*
X004705Y005694D01*
X004626Y005772D02*
X003753Y005772D01*
X003985Y006165D02*
X004233Y006165D01*
X004155Y006244D02*
X003990Y006244D01*
X003990Y006322D02*
X004076Y006322D01*
X003998Y006401D02*
X003990Y006401D01*
X004400Y006603D02*
X004000Y007003D01*
X002500Y007003D01*
X002100Y006603D01*
X002100Y005103D01*
X002300Y004903D01*
X002750Y004903D01*
X003050Y004603D01*
X003050Y003853D01*
X003550Y003353D01*
X003110Y003337D02*
X002990Y003337D01*
X002990Y003259D02*
X003110Y003259D01*
X003110Y003180D02*
X002990Y003180D01*
X002921Y003102D02*
X003179Y003102D01*
X003257Y003023D02*
X002843Y003023D01*
X002764Y002945D02*
X003336Y002945D01*
X003363Y002788D02*
X002737Y002788D01*
X002816Y002709D02*
X003284Y002709D01*
X003206Y002631D02*
X002895Y002631D01*
X002973Y002552D02*
X003127Y002552D01*
X003110Y002473D02*
X002990Y002473D01*
X002990Y002395D02*
X003110Y002395D01*
X002336Y002945D02*
X001440Y002945D01*
X001440Y003023D02*
X002257Y003023D01*
X002179Y003102D02*
X001440Y003102D01*
X001440Y003180D02*
X002110Y003180D01*
X002110Y003259D02*
X001440Y003259D01*
X001440Y003337D02*
X002110Y003337D01*
X002110Y003416D02*
X001440Y003416D01*
X001440Y003494D02*
X002110Y003494D01*
X002075Y003573D02*
X001440Y003573D01*
X001440Y003652D02*
X001997Y003652D01*
X001918Y003730D02*
X001440Y003730D01*
X001440Y003809D02*
X001840Y003809D01*
X001761Y003887D02*
X001440Y003887D01*
X001440Y003966D02*
X001683Y003966D01*
X001604Y004044D02*
X001440Y004044D01*
X001440Y004123D02*
X001526Y004123D01*
X001520Y004201D02*
X001440Y004201D01*
X001440Y004280D02*
X001520Y004280D01*
X001520Y004358D02*
X001440Y004358D01*
X001440Y004437D02*
X001520Y004437D01*
X001520Y004516D02*
X001440Y004516D01*
X001440Y004594D02*
X001520Y004594D01*
X001520Y004673D02*
X001440Y004673D01*
X001440Y004751D02*
X001520Y004751D01*
X001520Y004830D02*
X001440Y004830D01*
X001440Y004908D02*
X001520Y004908D01*
X001520Y004987D02*
X001440Y004987D01*
X001440Y005065D02*
X001520Y005065D01*
X001520Y005144D02*
X001440Y005144D01*
X001440Y005222D02*
X001520Y005222D01*
X001520Y005301D02*
X001440Y005301D01*
X001440Y005380D02*
X001520Y005380D01*
X001520Y005458D02*
X001440Y005458D01*
X001440Y005537D02*
X001520Y005537D01*
X001520Y005615D02*
X001440Y005615D01*
X001440Y005694D02*
X001520Y005694D01*
X001520Y005772D02*
X001440Y005772D01*
X001440Y005851D02*
X001520Y005851D01*
X001520Y005929D02*
X001440Y005929D01*
X001440Y006008D02*
X001520Y006008D01*
X001520Y006086D02*
X001440Y006086D01*
X001440Y006165D02*
X001520Y006165D01*
X001520Y006244D02*
X001440Y006244D01*
X001440Y006322D02*
X001520Y006322D01*
X001520Y006401D02*
X001440Y006401D01*
X001440Y006479D02*
X001520Y006479D01*
X001520Y006558D02*
X001440Y006558D01*
X001440Y006636D02*
X001520Y006636D01*
X001520Y006715D02*
X001440Y006715D01*
X001440Y006793D02*
X001520Y006793D01*
X001520Y006872D02*
X001440Y006872D01*
X001440Y006950D02*
X001520Y006950D01*
X001520Y007029D02*
X001440Y007029D01*
X001440Y007107D02*
X001520Y007107D01*
X001520Y007186D02*
X001440Y007186D01*
X001440Y007265D02*
X001520Y007265D01*
X001520Y007343D02*
X001440Y007343D01*
X001440Y007422D02*
X001520Y007422D01*
X001543Y007500D02*
X001440Y007500D01*
X001440Y007579D02*
X001622Y007579D01*
X001700Y007657D02*
X001440Y007657D01*
X001440Y007736D02*
X001779Y007736D01*
X001857Y007814D02*
X001440Y007814D01*
X001440Y007893D02*
X001936Y007893D01*
X002050Y007753D02*
X001700Y007403D01*
X001700Y004203D01*
X002550Y003353D01*
X002990Y003416D02*
X003110Y003416D01*
X003110Y003494D02*
X002990Y003494D01*
X002952Y003573D02*
X003075Y003573D01*
X002997Y003652D02*
X002874Y003652D01*
X002918Y003730D02*
X002795Y003730D01*
X002870Y003809D02*
X002349Y003809D01*
X002270Y003887D02*
X002870Y003887D01*
X002870Y003966D02*
X002785Y003966D01*
X002864Y004044D02*
X002870Y004044D01*
X002550Y004353D02*
X001900Y005003D01*
X001900Y007103D01*
X002150Y007353D01*
X005216Y007353D01*
X005550Y007653D02*
X005450Y007753D01*
X002050Y007753D01*
X001440Y007971D02*
X007760Y007971D01*
X007800Y007937D02*
X007835Y007937D01*
X008000Y008103D01*
X009450Y008103D01*
X009450Y007703D01*
X009140Y007736D02*
X009760Y007736D01*
X009760Y007814D02*
X009140Y007814D01*
X009140Y007893D02*
X009760Y007893D01*
X009760Y007961D02*
X009760Y007017D01*
X009720Y006977D01*
X009720Y006937D01*
X009675Y006983D01*
X009525Y007133D01*
X009376Y007133D01*
X009140Y007133D01*
X009140Y007961D01*
X009058Y008043D01*
X008242Y008043D01*
X008160Y007961D01*
X008160Y007583D01*
X008097Y007583D01*
X008075Y007604D01*
X008083Y007609D01*
X008109Y007635D01*
X008127Y007667D01*
X008137Y007702D01*
X008137Y007897D01*
X007840Y007897D01*
X007840Y007977D01*
X008137Y007977D01*
X008137Y008172D01*
X008127Y008208D01*
X008125Y008213D01*
X010726Y008213D01*
X010723Y008208D01*
X010713Y008172D01*
X010713Y007988D01*
X010658Y008043D01*
X009842Y008043D01*
X009760Y007961D01*
X009771Y007971D02*
X009129Y007971D01*
X009450Y008103D02*
X010885Y008103D01*
X011050Y007937D01*
X011090Y007971D02*
X012805Y007971D01*
X012805Y007996D02*
X012805Y007702D01*
X013260Y007702D01*
X013260Y007623D01*
X012805Y007623D01*
X012805Y007329D01*
X012815Y007294D01*
X012821Y007283D01*
X012566Y007283D01*
X012555Y007294D01*
X012045Y007294D01*
X011963Y007212D01*
X011963Y006912D01*
X011491Y006440D01*
X011110Y006440D01*
X011049Y006378D01*
X011044Y006386D01*
X011018Y006412D01*
X010986Y006430D01*
X010950Y006440D01*
X010755Y006440D01*
X010755Y006143D01*
X010676Y006143D01*
X010676Y006440D01*
X010481Y006440D01*
X010445Y006430D01*
X010413Y006412D01*
X010387Y006386D01*
X010369Y006354D01*
X010359Y006318D01*
X010359Y006143D01*
X010675Y006143D01*
X010675Y006063D01*
X010359Y006063D01*
X010359Y005887D01*
X010369Y005852D01*
X010387Y005820D01*
X010413Y005794D01*
X010445Y005775D01*
X010481Y005766D01*
X010676Y005766D01*
X010676Y006063D01*
X010755Y006063D01*
X010755Y005784D01*
X010671Y005700D01*
X010182Y005700D01*
X010157Y005675D01*
X010088Y005675D01*
X010147Y005735D01*
X010147Y006351D01*
X010082Y006416D01*
X010082Y006763D01*
X010658Y006763D01*
X010740Y006845D01*
X010740Y006967D01*
X010795Y006912D01*
X011305Y006912D01*
X011387Y006994D01*
X011387Y007543D01*
X011325Y007604D01*
X011333Y007609D01*
X011359Y007635D01*
X011377Y007667D01*
X011387Y007702D01*
X011387Y007897D01*
X011090Y007897D01*
X011090Y007977D01*
X011387Y007977D01*
X011387Y008172D01*
X011377Y008208D01*
X011375Y008213D01*
X014660Y008213D01*
X014660Y006422D01*
X013868Y006422D01*
X013795Y006349D01*
X013795Y006588D01*
X013944Y006588D01*
X013944Y006513D01*
X014026Y006431D01*
X014575Y006431D01*
X014657Y006513D01*
X014657Y007023D01*
X014577Y007103D01*
X014657Y007183D01*
X014657Y007692D01*
X014575Y007774D01*
X014026Y007774D01*
X013944Y007692D01*
X013944Y007401D01*
X013826Y007283D01*
X013779Y007283D01*
X013786Y007294D01*
X013795Y007329D01*
X013795Y007623D01*
X013340Y007623D01*
X013340Y007702D01*
X013795Y007702D01*
X013795Y007996D01*
X013786Y008032D01*
X013767Y008064D01*
X013741Y008090D01*
X013709Y008108D01*
X013674Y008118D01*
X013340Y008118D01*
X013340Y007703D01*
X013260Y007703D01*
X013260Y008118D01*
X012927Y008118D01*
X012891Y008108D01*
X012859Y008090D01*
X012833Y008064D01*
X012815Y008032D01*
X012805Y007996D01*
X012825Y008050D02*
X011387Y008050D01*
X011387Y008129D02*
X014660Y008129D01*
X014660Y008207D02*
X011378Y008207D01*
X011387Y007893D02*
X012805Y007893D01*
X012805Y007814D02*
X011387Y007814D01*
X011387Y007736D02*
X012805Y007736D01*
X012805Y007579D02*
X011351Y007579D01*
X011372Y007657D02*
X013260Y007657D01*
X013260Y007736D02*
X013340Y007736D01*
X013340Y007814D02*
X013260Y007814D01*
X013260Y007893D02*
X013340Y007893D01*
X013340Y007971D02*
X013260Y007971D01*
X013260Y008050D02*
X013340Y008050D01*
X013775Y008050D02*
X014660Y008050D01*
X014660Y007971D02*
X013795Y007971D01*
X013795Y007893D02*
X014660Y007893D01*
X014660Y007814D02*
X013795Y007814D01*
X013795Y007736D02*
X013987Y007736D01*
X013944Y007657D02*
X013340Y007657D01*
X013795Y007579D02*
X013944Y007579D01*
X013944Y007500D02*
X013795Y007500D01*
X013795Y007422D02*
X013944Y007422D01*
X013886Y007343D02*
X013795Y007343D01*
X013900Y007103D02*
X014235Y007437D01*
X014300Y007437D01*
X014657Y007422D02*
X014660Y007422D01*
X014657Y007500D02*
X014660Y007500D01*
X014657Y007579D02*
X014660Y007579D01*
X014657Y007657D02*
X014660Y007657D01*
X014660Y007736D02*
X014613Y007736D01*
X014657Y007343D02*
X014660Y007343D01*
X014657Y007265D02*
X014660Y007265D01*
X014657Y007186D02*
X014660Y007186D01*
X014660Y007107D02*
X014582Y007107D01*
X014651Y007029D02*
X014660Y007029D01*
X014657Y006950D02*
X014660Y006950D01*
X014657Y006872D02*
X014660Y006872D01*
X014657Y006793D02*
X014660Y006793D01*
X014657Y006715D02*
X014660Y006715D01*
X014657Y006636D02*
X014660Y006636D01*
X014657Y006558D02*
X014660Y006558D01*
X014660Y006479D02*
X014623Y006479D01*
X014300Y006768D02*
X013525Y006768D01*
X013300Y006543D01*
X012805Y006558D02*
X012616Y006558D01*
X012609Y006571D02*
X012583Y006597D01*
X012575Y006601D01*
X012637Y006663D01*
X012637Y006923D01*
X012812Y006923D01*
X012805Y006916D01*
X012805Y006170D01*
X012886Y006089D01*
X012841Y006045D01*
X012841Y005102D01*
X012897Y005046D01*
X012895Y005045D01*
X012869Y005019D01*
X012851Y004987D01*
X012657Y004987D01*
X012657Y005065D02*
X012878Y005065D01*
X012851Y004987D02*
X012841Y004952D01*
X012841Y004865D01*
X013256Y004865D01*
X013256Y004864D01*
X012841Y004864D01*
X012841Y004777D01*
X012850Y004744D01*
X012841Y004736D01*
X012841Y004666D01*
X012830Y004677D01*
X012725Y004783D01*
X012657Y004783D01*
X012657Y005192D01*
X012575Y005274D01*
X012183Y005274D01*
X012080Y005377D01*
X011975Y005483D01*
X011375Y005483D01*
X011226Y005483D01*
X010880Y005137D01*
X010880Y005287D01*
X010955Y005362D01*
X011359Y005766D01*
X011659Y005766D01*
X011741Y005848D01*
X011741Y006067D01*
X011982Y006308D01*
X012260Y006308D01*
X012260Y006228D01*
X011963Y006228D01*
X011963Y006033D01*
X011973Y005998D01*
X011991Y005966D01*
X012017Y005940D01*
X012049Y005921D01*
X012085Y005912D01*
X012260Y005912D01*
X012260Y006228D01*
X012340Y006228D01*
X012340Y005912D01*
X012515Y005912D01*
X012551Y005921D01*
X012583Y005940D01*
X012609Y005966D01*
X012627Y005998D01*
X012637Y006033D01*
X012637Y006228D01*
X012340Y006228D01*
X012340Y006308D01*
X012637Y006308D01*
X012637Y006503D01*
X012627Y006539D01*
X012609Y006571D01*
X012610Y006636D02*
X012805Y006636D01*
X012805Y006715D02*
X012637Y006715D01*
X012637Y006793D02*
X012805Y006793D01*
X012805Y006872D02*
X012637Y006872D01*
X012385Y007103D02*
X012300Y007018D01*
X012300Y006937D01*
X012385Y007103D02*
X013900Y007103D01*
X013944Y006558D02*
X013795Y006558D01*
X013795Y006479D02*
X013978Y006479D01*
X013847Y006401D02*
X013795Y006401D01*
X012883Y006086D02*
X012637Y006086D01*
X012630Y006008D02*
X012841Y006008D01*
X012841Y005929D02*
X012565Y005929D01*
X012340Y005929D02*
X012260Y005929D01*
X012260Y006008D02*
X012340Y006008D01*
X012340Y006086D02*
X012260Y006086D01*
X012260Y006165D02*
X012340Y006165D01*
X012340Y006244D02*
X012805Y006244D01*
X012805Y006322D02*
X012637Y006322D01*
X012637Y006401D02*
X012805Y006401D01*
X012805Y006479D02*
X012637Y006479D01*
X012260Y006244D02*
X011917Y006244D01*
X011963Y006165D02*
X011839Y006165D01*
X011760Y006086D02*
X011963Y006086D01*
X011970Y006008D02*
X011741Y006008D01*
X011741Y005929D02*
X012035Y005929D01*
X011741Y005851D02*
X012841Y005851D01*
X012841Y005772D02*
X011666Y005772D01*
X011287Y005694D02*
X012841Y005694D01*
X012841Y005615D02*
X011208Y005615D01*
X011130Y005537D02*
X012841Y005537D01*
X012841Y005458D02*
X011999Y005458D01*
X012078Y005380D02*
X012841Y005380D01*
X012841Y005301D02*
X012156Y005301D01*
X011900Y005303D02*
X011300Y005303D01*
X010823Y004825D01*
X010490Y004825D01*
X010490Y004510D02*
X010498Y004503D01*
X010800Y004503D01*
X011235Y004937D01*
X011550Y004937D01*
X011273Y004603D02*
X011214Y004662D01*
X010980Y004428D01*
X010878Y004326D01*
X010880Y004319D01*
X010880Y004208D01*
X010503Y004208D01*
X010503Y004183D01*
X010880Y004183D01*
X010880Y004100D01*
X010964Y004100D01*
X011374Y003690D01*
X011740Y003690D01*
X011802Y003628D01*
X011806Y003636D01*
X011832Y003662D01*
X011864Y003680D01*
X011900Y003690D01*
X012095Y003690D01*
X012095Y003393D01*
X012175Y003393D01*
X012175Y003690D01*
X012370Y003690D01*
X012405Y003680D01*
X012437Y003662D01*
X012463Y003636D01*
X012482Y003604D01*
X012491Y003568D01*
X012491Y003393D01*
X012175Y003393D01*
X012175Y003313D01*
X012491Y003313D01*
X012491Y003137D01*
X012482Y003102D01*
X012463Y003070D01*
X012437Y003044D01*
X012405Y003025D01*
X012370Y003016D01*
X012175Y003016D01*
X012175Y003313D01*
X012095Y003313D01*
X012095Y003016D01*
X011900Y003016D01*
X011864Y003025D01*
X011832Y003044D01*
X011806Y003070D01*
X011802Y003078D01*
X011740Y003016D01*
X011191Y003016D01*
X011109Y003098D01*
X011109Y003333D01*
X011080Y003362D01*
X010880Y003562D01*
X010880Y003402D01*
X010880Y003087D01*
X010798Y003005D01*
X010459Y003005D01*
X010491Y002973D01*
X011491Y002973D01*
X011620Y002844D01*
X012151Y002313D01*
X012491Y002313D01*
X012580Y002223D01*
X012580Y003562D01*
X012580Y003744D01*
X012792Y003956D01*
X012657Y004092D01*
X012657Y004013D01*
X012575Y003931D01*
X012026Y003931D01*
X011944Y004013D01*
X011944Y004407D01*
X011907Y004370D01*
X011907Y004013D01*
X011825Y003931D01*
X011276Y003931D01*
X011194Y004013D01*
X011194Y004523D01*
X011273Y004603D01*
X011265Y004594D02*
X011146Y004594D01*
X011194Y004516D02*
X011067Y004516D01*
X010989Y004437D02*
X011194Y004437D01*
X011194Y004358D02*
X010910Y004358D01*
X010880Y004280D02*
X011194Y004280D01*
X011194Y004201D02*
X010503Y004201D01*
X010880Y004123D02*
X011194Y004123D01*
X011194Y004044D02*
X011020Y004044D01*
X011098Y003966D02*
X011241Y003966D01*
X011177Y003887D02*
X012724Y003887D01*
X012783Y003966D02*
X012609Y003966D01*
X012657Y004044D02*
X012704Y004044D01*
X012906Y004097D02*
X012650Y004353D01*
X012385Y004353D01*
X012300Y004268D01*
X011944Y004280D02*
X011907Y004280D01*
X011907Y004358D02*
X011944Y004358D01*
X011944Y004201D02*
X011907Y004201D01*
X011907Y004123D02*
X011944Y004123D01*
X011944Y004044D02*
X011907Y004044D01*
X011859Y003966D02*
X011991Y003966D01*
X012095Y003652D02*
X012175Y003652D01*
X012175Y003573D02*
X012095Y003573D01*
X012095Y003494D02*
X012175Y003494D01*
X012175Y003416D02*
X012095Y003416D01*
X012175Y003337D02*
X012580Y003337D01*
X012580Y003259D02*
X012491Y003259D01*
X012491Y003180D02*
X012580Y003180D01*
X012580Y003102D02*
X012482Y003102D01*
X012397Y003023D02*
X012580Y003023D01*
X012580Y002945D02*
X011519Y002945D01*
X011598Y002866D02*
X012580Y002866D01*
X012580Y002788D02*
X011676Y002788D01*
X011755Y002709D02*
X012580Y002709D01*
X012580Y002631D02*
X011833Y002631D01*
X011912Y002552D02*
X012580Y002552D01*
X012580Y002473D02*
X011991Y002473D01*
X012069Y002395D02*
X012580Y002395D01*
X012580Y002316D02*
X012148Y002316D01*
X012566Y002238D02*
X012580Y002238D01*
X011840Y002002D02*
X011840Y001662D01*
X012110Y001393D01*
X012491Y001393D01*
X012580Y001482D01*
X012580Y001294D01*
X012545Y001259D01*
X012491Y001313D01*
X012110Y001313D01*
X011870Y001073D01*
X011731Y001073D01*
X011587Y001217D02*
X012014Y001217D01*
X012092Y001295D02*
X011508Y001295D01*
X011550Y001452D02*
X012050Y001452D01*
X011971Y001531D02*
X011629Y001531D01*
X011707Y001609D02*
X011893Y001609D01*
X011840Y001688D02*
X011760Y001688D01*
X011760Y001767D02*
X011840Y001767D01*
X011840Y001845D02*
X011760Y001845D01*
X011760Y001924D02*
X011840Y001924D01*
X012550Y001452D02*
X012580Y001452D01*
X012580Y001374D02*
X010098Y001374D01*
X009800Y001687D02*
X009800Y002003D01*
X009600Y002203D01*
X010816Y003023D02*
X011184Y003023D01*
X011109Y003102D02*
X010880Y003102D01*
X010880Y003180D02*
X011109Y003180D01*
X011109Y003259D02*
X010880Y003259D01*
X010880Y003337D02*
X011104Y003337D01*
X011026Y003416D02*
X010880Y003416D01*
X010880Y003494D02*
X010947Y003494D01*
X011334Y003730D02*
X012580Y003730D01*
X012580Y003652D02*
X012447Y003652D01*
X012490Y003573D02*
X012580Y003573D01*
X012580Y003494D02*
X012491Y003494D01*
X012491Y003416D02*
X012580Y003416D01*
X012175Y003259D02*
X012095Y003259D01*
X012095Y003180D02*
X012175Y003180D01*
X012175Y003102D02*
X012095Y003102D01*
X012095Y003023D02*
X012175Y003023D01*
X011872Y003023D02*
X011747Y003023D01*
X011778Y003652D02*
X011822Y003652D01*
X011255Y003809D02*
X012645Y003809D01*
X012906Y004097D02*
X013257Y004097D01*
X013257Y004353D02*
X012900Y004353D01*
X012650Y004603D01*
X011885Y004603D01*
X011550Y004268D01*
X012266Y004937D02*
X011900Y005303D01*
X012266Y004937D02*
X012300Y004937D01*
X012657Y004908D02*
X012841Y004908D01*
X012841Y004830D02*
X012657Y004830D01*
X012756Y004751D02*
X012848Y004751D01*
X012841Y004673D02*
X012835Y004673D01*
X012841Y005144D02*
X012657Y005144D01*
X012626Y005222D02*
X012841Y005222D01*
X012810Y006165D02*
X012637Y006165D01*
X011766Y006715D02*
X010082Y006715D01*
X010082Y006636D02*
X011688Y006636D01*
X011609Y006558D02*
X010082Y006558D01*
X010082Y006479D02*
X011531Y006479D01*
X011845Y006793D02*
X010689Y006793D01*
X010740Y006872D02*
X011924Y006872D01*
X011963Y006950D02*
X011344Y006950D01*
X011387Y007029D02*
X011963Y007029D01*
X011963Y007107D02*
X011387Y007107D01*
X011387Y007186D02*
X011963Y007186D01*
X012016Y007265D02*
X011387Y007265D01*
X011387Y007343D02*
X012805Y007343D01*
X012805Y007422D02*
X011387Y007422D01*
X011387Y007500D02*
X012805Y007500D01*
X011050Y007268D02*
X010916Y007403D01*
X010250Y007403D01*
X010150Y007303D01*
X010150Y007153D01*
X009900Y006903D01*
X009903Y006900D01*
X009903Y006043D01*
X010147Y006008D02*
X010359Y006008D01*
X010359Y005929D02*
X010147Y005929D01*
X010147Y005851D02*
X010369Y005851D01*
X010457Y005772D02*
X010147Y005772D01*
X010176Y005694D02*
X010106Y005694D01*
X010490Y005455D02*
X010493Y005453D01*
X010894Y005301D02*
X011044Y005301D01*
X010973Y005380D02*
X011122Y005380D01*
X011051Y005458D02*
X011201Y005458D01*
X010955Y005362D02*
X010955Y005362D01*
X010965Y005222D02*
X010880Y005222D01*
X010880Y005144D02*
X010887Y005144D01*
X010743Y005772D02*
X010676Y005772D01*
X010676Y005851D02*
X010755Y005851D01*
X010755Y005929D02*
X010676Y005929D01*
X010676Y006008D02*
X010755Y006008D01*
X010675Y006086D02*
X010147Y006086D01*
X010147Y006165D02*
X010359Y006165D01*
X010359Y006244D02*
X010147Y006244D01*
X010147Y006322D02*
X010360Y006322D01*
X010402Y006401D02*
X010098Y006401D01*
X010676Y006401D02*
X010755Y006401D01*
X010755Y006322D02*
X010676Y006322D01*
X010676Y006244D02*
X010755Y006244D01*
X010755Y006165D02*
X010676Y006165D01*
X011029Y006401D02*
X011071Y006401D01*
X010756Y006950D02*
X010740Y006950D01*
X009760Y007029D02*
X009628Y007029D01*
X009550Y007107D02*
X009760Y007107D01*
X009760Y007186D02*
X009140Y007186D01*
X009140Y007265D02*
X009760Y007265D01*
X009760Y007343D02*
X009140Y007343D01*
X009140Y007422D02*
X009760Y007422D01*
X009760Y007500D02*
X009140Y007500D01*
X009140Y007579D02*
X009760Y007579D01*
X009760Y007657D02*
X009140Y007657D01*
X008650Y007403D02*
X007950Y007403D01*
X007816Y007268D01*
X007800Y007268D01*
X007463Y007265D02*
X006222Y007265D01*
X006222Y007343D02*
X007463Y007343D01*
X007463Y007422D02*
X006222Y007422D01*
X006222Y007500D02*
X007463Y007500D01*
X007499Y007579D02*
X006222Y007579D01*
X006192Y007657D02*
X007478Y007657D01*
X007463Y007736D02*
X005722Y007736D01*
X005643Y007814D02*
X007463Y007814D01*
X007463Y007893D02*
X005564Y007893D01*
X005550Y007653D02*
X005550Y005453D01*
X005216Y005118D01*
X005216Y005103D01*
X005885Y005103D02*
X005885Y005137D01*
X006200Y005453D01*
X007108Y005453D01*
X007110Y005455D01*
X006796Y005694D02*
X006222Y005694D01*
X006222Y005772D02*
X007453Y005772D01*
X007453Y005851D02*
X006222Y005851D01*
X006100Y006053D02*
X007688Y006053D01*
X007698Y006043D01*
X008000Y006055D02*
X008013Y006043D01*
X008000Y006055D02*
X008000Y006353D01*
X007750Y006603D01*
X005885Y006603D01*
X006400Y006803D02*
X007800Y006803D01*
X008250Y006353D01*
X008250Y006120D01*
X008328Y006043D01*
X008425Y006433D02*
X008325Y006533D01*
X007946Y006912D01*
X008055Y006912D01*
X008137Y006994D01*
X008137Y007223D01*
X008160Y007223D01*
X008160Y006845D01*
X008242Y006763D01*
X009058Y006763D01*
X009068Y006773D01*
X009376Y006773D01*
X009420Y006728D01*
X009420Y006428D01*
X009419Y006427D01*
X009396Y006433D01*
X009285Y006433D01*
X009285Y006055D01*
X009260Y006055D01*
X009260Y006433D01*
X009149Y006433D01*
X009127Y006427D01*
X009121Y006433D01*
X008806Y006433D01*
X008491Y006433D01*
X008425Y006433D01*
X008378Y006479D02*
X009420Y006479D01*
X009420Y006558D02*
X008300Y006558D01*
X008221Y006636D02*
X009420Y006636D01*
X009420Y006715D02*
X008143Y006715D01*
X008212Y006793D02*
X008064Y006793D01*
X007986Y006872D02*
X008160Y006872D01*
X008160Y006950D02*
X008094Y006950D01*
X008137Y007029D02*
X008160Y007029D01*
X008160Y007107D02*
X008137Y007107D01*
X008137Y007186D02*
X008160Y007186D01*
X008650Y007253D02*
X008950Y006953D01*
X009450Y006953D01*
X009600Y006803D01*
X009600Y006055D01*
X009588Y006043D01*
X009285Y006086D02*
X009260Y006086D01*
X009260Y006165D02*
X009285Y006165D01*
X009285Y006244D02*
X009260Y006244D01*
X009260Y006322D02*
X009285Y006322D01*
X009285Y006401D02*
X009260Y006401D01*
X008958Y006043D02*
X008950Y006035D01*
X008730Y005615D02*
X007500Y005615D01*
X007500Y005537D02*
X008805Y005537D01*
X008884Y005458D02*
X007500Y005458D01*
X007500Y005380D02*
X008962Y005380D01*
X009041Y005301D02*
X007500Y005301D01*
X007500Y005222D02*
X009730Y005222D01*
X009730Y005144D02*
X007500Y005144D01*
X007500Y005065D02*
X009730Y005065D01*
X009730Y004987D02*
X007500Y004987D01*
X007500Y004908D02*
X009730Y004908D01*
X009730Y004830D02*
X007500Y004830D01*
X007500Y004751D02*
X009730Y004751D01*
X009730Y004673D02*
X007500Y004673D01*
X007500Y004594D02*
X009730Y004594D01*
X009730Y004516D02*
X007500Y004516D01*
X007500Y004437D02*
X009730Y004437D01*
X007619Y003887D02*
X007500Y003887D01*
X007103Y004503D02*
X007110Y004510D01*
X007088Y004803D02*
X006550Y004803D01*
X006250Y004503D01*
X006250Y003953D01*
X005900Y003603D01*
X005885Y003603D01*
X005885Y003537D01*
X005600Y003253D01*
X004750Y003253D01*
X004400Y003603D02*
X004200Y003803D01*
X004200Y004703D01*
X004380Y004201D02*
X004468Y004201D01*
X004432Y004123D02*
X004380Y004123D01*
X004380Y004044D02*
X004410Y004044D01*
X004410Y003966D02*
X004380Y003966D01*
X004380Y003887D02*
X004430Y003887D01*
X004449Y003809D02*
X004463Y003809D01*
X004750Y004003D02*
X005600Y004003D01*
X005885Y004287D01*
X005885Y004353D01*
X005885Y004387D01*
X006250Y004753D01*
X006250Y005003D01*
X006350Y005103D01*
X007073Y005103D01*
X007110Y005140D01*
X007110Y004825D02*
X007088Y004803D01*
X007425Y005694D02*
X007494Y005694D01*
X006100Y006053D02*
X005900Y005853D01*
X005885Y005853D01*
X005216Y006603D02*
X004400Y006603D01*
X003066Y006823D02*
X002575Y006823D01*
X002510Y006758D01*
X002510Y006393D01*
X002590Y006393D01*
X002590Y006793D01*
X002732Y006793D01*
X002884Y006641D01*
X002976Y006733D01*
X003066Y006823D01*
X003036Y006793D02*
X002545Y006793D01*
X002510Y006715D02*
X002590Y006715D01*
X002590Y006636D02*
X002510Y006636D01*
X002510Y006558D02*
X002590Y006558D01*
X002590Y006479D02*
X002510Y006479D01*
X002510Y006401D02*
X002590Y006401D01*
X002590Y006313D02*
X002510Y006313D01*
X002510Y005913D01*
X002368Y005913D01*
X002280Y006001D01*
X002280Y005705D01*
X002368Y005793D01*
X002670Y005793D01*
X002670Y005913D01*
X002590Y005913D01*
X002590Y006313D01*
X002590Y006244D02*
X002510Y006244D01*
X002510Y006165D02*
X002590Y006165D01*
X002590Y006086D02*
X002510Y006086D01*
X002510Y006008D02*
X002590Y006008D01*
X002590Y005929D02*
X002510Y005929D01*
X002351Y005929D02*
X002280Y005929D01*
X002280Y005851D02*
X002670Y005851D01*
X002850Y005653D02*
X002550Y005353D01*
X002347Y005772D02*
X002280Y005772D01*
X002810Y006715D02*
X002958Y006715D01*
X001440Y008050D02*
X007463Y008050D01*
X007463Y008129D02*
X001440Y008129D01*
X001440Y008207D02*
X007473Y008207D01*
X007840Y007971D02*
X008171Y007971D01*
X008160Y007893D02*
X008137Y007893D01*
X008137Y007814D02*
X008160Y007814D01*
X008160Y007736D02*
X008137Y007736D01*
X008122Y007657D02*
X008160Y007657D01*
X008650Y007403D02*
X008650Y007253D01*
X009707Y006950D02*
X009720Y006950D01*
X010713Y008050D02*
X008137Y008050D01*
X008137Y008129D02*
X010713Y008129D01*
X010723Y008207D02*
X008128Y008207D01*
X007463Y007186D02*
X006271Y007186D01*
X006350Y007107D02*
X007463Y007107D01*
X007463Y007029D02*
X006428Y007029D01*
X006400Y006803D02*
X005885Y007318D01*
X005885Y007353D01*
X001976Y004673D02*
X001880Y004673D01*
X001880Y004751D02*
X001897Y004751D01*
X001880Y004594D02*
X002054Y004594D01*
X002110Y004516D02*
X001880Y004516D01*
X001880Y004437D02*
X002110Y004437D01*
X002110Y004358D02*
X001880Y004358D01*
X001880Y004280D02*
X002110Y004280D01*
X002110Y004201D02*
X001956Y004201D01*
X002035Y004123D02*
X002158Y004123D01*
X002113Y004044D02*
X002236Y004044D01*
X002192Y003966D02*
X002315Y003966D01*
X004200Y002853D02*
X005216Y002853D01*
X005216Y003603D02*
X004400Y003603D01*
X005900Y002103D02*
X006250Y002453D01*
X005900Y002103D02*
X005885Y002103D01*
X005885Y002037D01*
X005600Y001753D01*
X006222Y001845D02*
X006304Y001845D01*
X007740Y001353D02*
X009450Y001353D01*
X009785Y001018D01*
X009800Y001018D01*
X008815Y000588D02*
X010914Y000588D01*
X010993Y000510D02*
X008815Y000510D01*
X007905Y000510D02*
X007695Y000510D01*
X007695Y000588D02*
X007905Y000588D01*
X007905Y000667D02*
X007695Y000667D01*
X007695Y000745D02*
X007905Y000745D01*
X007905Y000903D02*
X007695Y000903D01*
X007695Y000981D02*
X007905Y000981D01*
X007905Y001060D02*
X007695Y001060D01*
X007695Y001138D02*
X007905Y001138D01*
X006785Y000667D02*
X001440Y000667D01*
X001440Y000588D02*
X006785Y000588D01*
X006785Y000510D02*
X001440Y000510D01*
X012508Y001295D02*
X012580Y001295D01*
D25*
X012800Y001203D02*
X012800Y003653D01*
X012988Y003841D01*
X013257Y003841D01*
X012135Y003668D02*
X012135Y003353D01*
X012150Y003353D01*
X012150Y002803D01*
X011400Y002753D02*
X010400Y002753D01*
X009950Y003203D01*
X009950Y005455D01*
X010490Y005455D01*
X010490Y005140D01*
X010493Y005453D02*
X010735Y005453D01*
X011385Y006103D01*
X011466Y006103D01*
X012300Y006937D01*
X012300Y006268D02*
X012300Y005653D01*
X012750Y005203D01*
X012750Y005003D01*
X012888Y004865D01*
X013257Y004865D01*
X012135Y003668D02*
X012000Y003803D01*
X011350Y003803D01*
X010958Y004195D01*
X010490Y004195D01*
X010490Y003880D02*
X010873Y003880D01*
X011300Y003453D01*
X011366Y003453D01*
X011466Y003353D01*
X011400Y002753D02*
X012300Y001853D01*
X012800Y001203D02*
X012450Y000853D01*
X012300Y000853D01*
X011300Y000853D01*
X009950Y005455D02*
X009198Y005455D01*
X008950Y005703D01*
X008950Y006035D01*
X009273Y006043D02*
X009273Y006530D01*
X009250Y006603D01*
X010700Y006603D02*
X010700Y006153D01*
X010716Y006137D01*
X010716Y006103D01*
D26*
X010700Y006603D03*
X009250Y006603D03*
X009450Y007703D03*
X012300Y005653D03*
X009550Y005053D03*
X008000Y003953D03*
X007700Y003553D03*
X006800Y002653D03*
X006450Y002153D03*
X006450Y001353D03*
X004750Y001753D03*
X004750Y002503D03*
X004750Y003253D03*
X004750Y004003D03*
X004750Y004703D03*
X004150Y005853D03*
X009000Y001853D03*
X009000Y001003D03*
X012150Y002803D03*
X002550Y001753D03*
M02*
