G75*
G70*
%OFA0B0*%
%FSLAX24Y24*%
%IPPOS*%
%LPD*%
%AMOC8*
5,1,8,0,0,1.08239X$1,22.5*
%
%ADD10C,0.0080*%
D10*
X008916Y006643D02*
X009196Y006643D01*
X009056Y006643D02*
X009056Y007063D01*
X009196Y006923D01*
X009516Y007063D02*
X009516Y006643D01*
X009376Y006643D02*
X009657Y006643D01*
X009837Y006713D02*
X009907Y006643D01*
X010047Y006643D01*
X010117Y006713D01*
X009837Y006993D01*
X009837Y006713D01*
X010117Y006713D02*
X010117Y006993D01*
X010047Y007063D01*
X009907Y007063D01*
X009837Y006993D01*
X009657Y006923D02*
X009516Y007063D01*
X010297Y006993D02*
X010297Y006923D01*
X010577Y006643D01*
X010297Y006643D01*
X010297Y006993D02*
X010367Y007063D01*
X010507Y007063D01*
X010577Y006993D01*
X010604Y007393D02*
X010604Y007603D01*
X010674Y007673D01*
X010814Y007673D01*
X010884Y007603D01*
X011064Y007673D02*
X011275Y007673D01*
X011345Y007603D01*
X011345Y007463D01*
X011275Y007393D01*
X011064Y007393D01*
X011064Y007323D02*
X011064Y007673D01*
X010884Y007813D02*
X010884Y007393D01*
X011064Y007323D02*
X011134Y007253D01*
X011204Y007253D01*
X011511Y007393D02*
X011651Y007393D01*
X011581Y007393D02*
X011581Y007673D01*
X011651Y007673D01*
X011581Y007813D02*
X011581Y007883D01*
X011888Y007813D02*
X011888Y007393D01*
X011958Y007393D02*
X011818Y007393D01*
X012139Y007603D02*
X012419Y007603D01*
X012599Y007673D02*
X012599Y007743D01*
X012669Y007813D01*
X012809Y007813D01*
X012879Y007743D01*
X013059Y007673D02*
X013199Y007393D01*
X013339Y007673D01*
X013520Y007603D02*
X013520Y007533D01*
X013800Y007533D01*
X013800Y007603D02*
X013730Y007673D01*
X013590Y007673D01*
X013520Y007603D01*
X013590Y007393D02*
X013730Y007393D01*
X013800Y007463D01*
X013800Y007603D01*
X013980Y007673D02*
X014190Y007673D01*
X014260Y007603D01*
X014260Y007463D01*
X014190Y007393D01*
X013980Y007393D01*
X013980Y007813D01*
X012879Y007393D02*
X012599Y007673D01*
X012599Y007393D02*
X012879Y007393D01*
X012879Y007063D02*
X012599Y007063D01*
X012739Y007063D02*
X012739Y006643D01*
X013059Y006713D02*
X013059Y006783D01*
X013129Y006853D01*
X013339Y006853D01*
X013520Y006853D02*
X013590Y006783D01*
X013800Y006783D01*
X013980Y006853D02*
X014260Y006853D01*
X014260Y006923D02*
X014120Y007063D01*
X013980Y006923D01*
X013980Y006643D01*
X013800Y006643D02*
X013800Y007063D01*
X013590Y007063D01*
X013520Y006993D01*
X013520Y006853D01*
X013339Y007063D02*
X013129Y007063D01*
X013059Y006993D01*
X013059Y006923D01*
X013129Y006853D01*
X013059Y006713D02*
X013129Y006643D01*
X013339Y006643D01*
X013339Y007063D01*
X014260Y006923D02*
X014260Y006643D01*
X014260Y006313D02*
X013980Y005893D01*
X013980Y006313D01*
X014260Y006313D02*
X014260Y005893D01*
X013800Y005893D02*
X013660Y005893D01*
X013730Y005893D02*
X013730Y006173D01*
X013800Y006173D01*
X013730Y006313D02*
X013730Y006383D01*
X013493Y006383D02*
X013493Y006103D01*
X013493Y005963D02*
X013493Y005893D01*
X012419Y006713D02*
X012419Y006853D01*
X012349Y006923D01*
X012209Y006923D01*
X012139Y006853D01*
X012139Y006783D01*
X012419Y006783D01*
X012419Y006713D02*
X012349Y006643D01*
X012209Y006643D01*
X011958Y006713D02*
X011888Y006783D01*
X011678Y006783D01*
X011678Y006853D02*
X011678Y006643D01*
X011888Y006643D01*
X011958Y006713D01*
X011888Y006923D02*
X011748Y006923D01*
X011678Y006853D01*
X011498Y006923D02*
X011428Y006923D01*
X011358Y006853D01*
X011288Y006923D01*
X011218Y006853D01*
X011218Y006643D01*
X011358Y006643D02*
X011358Y006853D01*
X011498Y006923D02*
X011498Y006643D01*
X010354Y007463D02*
X010284Y007393D01*
X010354Y007463D02*
X010354Y007743D01*
X010424Y007673D02*
X010284Y007673D01*
X011888Y007813D02*
X011958Y007813D01*
M02*
