G75*
G70*
%OFA0B0*%
%FSLAX24Y24*%
%IPPOS*%
%LPD*%
%AMOC8*
5,1,8,0,0,1.08239X$1,22.5*
%
%ADD10C,0.0110*%
%ADD11R,0.0433X0.0394*%
%ADD12R,0.0394X0.0433*%
%ADD13C,0.0520*%
%ADD14R,0.1024X0.0551*%
%ADD15R,0.0630X0.0710*%
%ADD16R,0.0710X0.0630*%
%ADD17R,0.0200X0.0470*%
%ADD18R,0.0470X0.0200*%
%ADD19R,0.0236X0.0866*%
%ADD20R,0.0866X0.0236*%
%ADD21O,0.1187X0.0594*%
%ADD22OC8,0.0560*%
%ADD23R,0.1409X0.0591*%
%ADD24O,0.0594X0.1187*%
%ADD25R,0.0120X0.0390*%
%ADD26O,0.1200X0.0600*%
%ADD27O,0.0600X0.1200*%
%ADD28C,0.0160*%
%ADD29C,0.0200*%
%ADD30C,0.0100*%
%ADD31C,0.0400*%
D10*
X002228Y005057D02*
X002622Y005450D01*
X002622Y005549D01*
X002523Y005647D01*
X002326Y005647D01*
X002228Y005549D01*
X002228Y005057D02*
X002622Y005057D01*
X002873Y005155D02*
X002873Y005549D01*
X002971Y005647D01*
X003168Y005647D01*
X003266Y005549D01*
X002873Y005155D01*
X002971Y005057D01*
X003168Y005057D01*
X003266Y005155D01*
X003266Y005549D01*
X003517Y005549D02*
X003517Y005155D01*
X003911Y005549D01*
X003911Y005155D01*
X003812Y005057D01*
X003616Y005057D01*
X003517Y005155D01*
X003517Y005549D02*
X003616Y005647D01*
X003812Y005647D01*
X003911Y005549D01*
X004162Y005549D02*
X004162Y005450D01*
X004260Y005352D01*
X004457Y005352D01*
X004555Y005254D01*
X004555Y005155D01*
X004457Y005057D01*
X004260Y005057D01*
X004162Y005155D01*
X004162Y005254D01*
X004260Y005352D01*
X004457Y005352D02*
X004555Y005450D01*
X004555Y005549D01*
X004457Y005647D01*
X004260Y005647D01*
X004162Y005549D01*
X004260Y006057D02*
X004162Y006155D01*
X004162Y006352D01*
X004260Y006450D01*
X004457Y006450D01*
X004555Y006352D01*
X004555Y006254D01*
X004162Y006254D01*
X004260Y006057D02*
X004457Y006057D01*
X004806Y006057D02*
X004806Y006450D01*
X004806Y006254D02*
X005003Y006450D01*
X005101Y006450D01*
X005343Y006450D02*
X005540Y006057D01*
X005737Y006450D01*
X003911Y006450D02*
X003616Y006450D01*
X003517Y006352D01*
X003616Y006254D01*
X003812Y006254D01*
X003911Y006155D01*
X003812Y006057D01*
X003517Y006057D01*
X003266Y006155D02*
X003168Y006254D01*
X002971Y006254D01*
X002873Y006352D01*
X002971Y006450D01*
X003266Y006450D01*
X003266Y006155D02*
X003168Y006057D01*
X002873Y006057D01*
X002622Y006057D02*
X002622Y006352D01*
X002523Y006450D01*
X002326Y006450D01*
X002326Y006254D02*
X002622Y006254D01*
X002622Y006057D02*
X002326Y006057D01*
X002228Y006155D01*
X002326Y006254D01*
D11*
X010838Y002602D03*
X011508Y002602D03*
X009008Y022002D03*
X008338Y022002D03*
X009673Y025417D03*
X009673Y026086D03*
X010673Y026086D03*
X010673Y025417D03*
X012088Y022252D03*
X012758Y022252D03*
X014423Y026917D03*
X014423Y027586D03*
X015423Y027586D03*
X015423Y026917D03*
X015258Y029552D03*
X014588Y029552D03*
X015838Y029552D03*
X016508Y029552D03*
X019088Y026752D03*
X019758Y026752D03*
D12*
X017173Y026667D03*
X017173Y027336D03*
X015008Y030502D03*
X014338Y030502D03*
X017588Y022002D03*
X018258Y022002D03*
X018258Y021002D03*
X017588Y021002D03*
X016673Y021336D03*
X016673Y020667D03*
X017588Y019002D03*
X018258Y019002D03*
X018258Y016502D03*
X017588Y016502D03*
X017588Y015502D03*
X018258Y015502D03*
X018258Y013502D03*
X017588Y013502D03*
X017588Y011002D03*
X017588Y010002D03*
X018258Y010002D03*
X018258Y011002D03*
X018258Y008002D03*
X017588Y008002D03*
X017588Y005502D03*
X018258Y005502D03*
X018258Y004502D03*
X017588Y004502D03*
X017588Y002502D03*
X018258Y002502D03*
X016173Y002836D03*
X016173Y002167D03*
X015773Y005267D03*
X015773Y005936D03*
X005008Y026752D03*
X004338Y026752D03*
X004338Y028252D03*
X005008Y028252D03*
D13*
X003423Y027752D03*
X003423Y026752D03*
X002423Y027252D03*
X002423Y028252D03*
X009973Y013502D03*
X011873Y013502D03*
D14*
X018116Y028502D03*
X019730Y028502D03*
D15*
X015233Y031502D03*
X014113Y031502D03*
D16*
X010673Y028062D03*
X010673Y026942D03*
X009673Y026942D03*
X009673Y028062D03*
D17*
X009778Y021307D03*
X010088Y021307D03*
X010398Y021307D03*
X010708Y021307D03*
X011018Y021307D03*
X011328Y021307D03*
X011638Y021307D03*
X011948Y021307D03*
X012258Y021307D03*
X012568Y021307D03*
X012878Y021307D03*
X013188Y021307D03*
X013498Y021307D03*
X009468Y021307D03*
X009158Y021307D03*
X008848Y021307D03*
X008848Y015197D03*
X009158Y015197D03*
X009468Y015197D03*
X009778Y015197D03*
X010088Y015197D03*
X010398Y015197D03*
X010708Y015197D03*
X011018Y015197D03*
X011328Y015197D03*
X011638Y015197D03*
X011948Y015197D03*
X012258Y015197D03*
X012568Y015197D03*
X012878Y015197D03*
X013188Y015197D03*
X013498Y015197D03*
D18*
X014228Y015927D03*
X014228Y016237D03*
X014228Y016547D03*
X014228Y016857D03*
X014228Y017167D03*
X014228Y017477D03*
X014228Y017787D03*
X014228Y018097D03*
X014228Y018407D03*
X014228Y018717D03*
X014228Y019027D03*
X014228Y019337D03*
X014228Y019647D03*
X014228Y019957D03*
X014228Y020267D03*
X014228Y020577D03*
X008118Y020577D03*
X008118Y020267D03*
X008118Y019957D03*
X008118Y019647D03*
X008118Y019337D03*
X008118Y019027D03*
X008118Y018717D03*
X008118Y018407D03*
X008118Y018097D03*
X008118Y017787D03*
X008118Y017477D03*
X008118Y017167D03*
X008118Y016857D03*
X008118Y016547D03*
X008118Y016237D03*
X008118Y015927D03*
D19*
X009173Y010041D03*
X009673Y010041D03*
X010173Y010041D03*
X010673Y010041D03*
X011173Y010041D03*
X011673Y010041D03*
X012173Y010041D03*
X012673Y010041D03*
X013173Y010041D03*
X013673Y010041D03*
X014173Y010041D03*
X014173Y003663D03*
X013673Y003663D03*
X013173Y003663D03*
X012673Y003663D03*
X012173Y003663D03*
X011673Y003663D03*
X011173Y003663D03*
X010673Y003663D03*
X010173Y003663D03*
X009673Y003663D03*
X009173Y003663D03*
D20*
X008484Y004352D03*
X008484Y004852D03*
X008484Y005352D03*
X008484Y005852D03*
X008484Y006352D03*
X008484Y006852D03*
X008484Y007352D03*
X008484Y007852D03*
X008484Y008352D03*
X008484Y008852D03*
X008484Y009352D03*
X014862Y009352D03*
X014862Y008852D03*
X014862Y008352D03*
X014862Y007852D03*
X014862Y007352D03*
X014862Y006852D03*
X014862Y006352D03*
X014862Y005852D03*
X014862Y005352D03*
X014862Y004852D03*
X014862Y004352D03*
D21*
X019173Y004502D03*
X019173Y005502D03*
X019173Y006502D03*
X019173Y008002D03*
X019173Y009002D03*
X019173Y010002D03*
X019173Y011002D03*
X019173Y012002D03*
X019173Y013502D03*
X019173Y014502D03*
X019173Y015502D03*
X019173Y016502D03*
X019173Y017502D03*
X019173Y019002D03*
X019173Y020002D03*
X019173Y021002D03*
X019173Y022002D03*
X019173Y023002D03*
X019173Y003502D03*
X019173Y002502D03*
D22*
X011673Y029502D03*
X011673Y030502D03*
X010673Y030502D03*
X010673Y029502D03*
X009673Y029502D03*
X009673Y030502D03*
X008673Y030502D03*
X008673Y029502D03*
X007673Y029502D03*
X007673Y030502D03*
D23*
X004923Y025002D03*
X004923Y024002D03*
X004923Y023002D03*
X004923Y022002D03*
X004923Y021002D03*
X004923Y018502D03*
X004923Y017502D03*
X004923Y016502D03*
X004923Y015502D03*
X004923Y014502D03*
X004923Y012002D03*
X004923Y011002D03*
X004923Y010002D03*
X004923Y009002D03*
X004923Y008002D03*
X002923Y008502D03*
X002923Y007502D03*
X002923Y009502D03*
X002923Y010502D03*
X002923Y011502D03*
X002923Y014002D03*
X002923Y015002D03*
X002923Y016002D03*
X002923Y017002D03*
X002923Y018002D03*
X002923Y020502D03*
X002923Y021502D03*
X002923Y022502D03*
X002923Y023502D03*
X002923Y024502D03*
D24*
X018673Y030502D03*
X019673Y030502D03*
D25*
X016575Y028400D03*
X016319Y028400D03*
X016063Y028400D03*
X015807Y028400D03*
X015551Y028400D03*
X015295Y028400D03*
X015039Y028400D03*
X014783Y028400D03*
X014527Y028400D03*
X014271Y028400D03*
X014271Y026103D03*
X014527Y026103D03*
X014783Y026103D03*
X015039Y026103D03*
X015295Y026103D03*
X015551Y026103D03*
X015807Y026103D03*
X016063Y026103D03*
X016319Y026103D03*
X016575Y026103D03*
D26*
X012673Y026002D03*
X012673Y027002D03*
X012673Y028002D03*
D27*
X009673Y002502D03*
X008673Y002502D03*
X007673Y002502D03*
X006673Y002502D03*
X005673Y002502D03*
D28*
X005193Y002453D02*
X005013Y002453D01*
X005022Y002469D02*
X005022Y002469D01*
X005086Y002618D01*
X005137Y002771D01*
X005137Y002771D01*
X005174Y002929D01*
X005196Y003090D01*
X005203Y003252D01*
X005196Y003414D01*
X005174Y003574D01*
X005137Y003732D01*
X005086Y003886D01*
X005022Y004034D01*
X005022Y004034D01*
X004944Y004177D01*
X004854Y004311D01*
X004751Y004437D01*
X004638Y004553D01*
X004515Y004658D01*
X004382Y004751D01*
X004260Y004822D01*
X004357Y004822D01*
X004554Y004822D01*
X004637Y004905D01*
X004653Y004920D01*
X004717Y004985D01*
X004721Y004989D01*
X004790Y005058D01*
X004790Y005252D01*
X004790Y005351D01*
X004789Y005352D01*
X004790Y005353D01*
X004790Y005548D01*
X004790Y005646D01*
X004760Y005676D01*
X004721Y005715D01*
X004720Y005716D01*
X004653Y005784D01*
X004653Y005784D01*
X004635Y005801D01*
X004584Y005852D01*
X004631Y005899D01*
X004709Y005822D01*
X004904Y005822D01*
X005041Y005959D01*
X005041Y006156D01*
X005100Y006215D01*
X005198Y006215D01*
X005305Y006001D01*
X005305Y005959D01*
X005347Y005918D01*
X005347Y005917D01*
X005443Y005822D01*
X005637Y005822D01*
X005775Y005959D01*
X005775Y006001D01*
X005972Y006395D01*
X005972Y006548D01*
X005834Y006685D01*
X005640Y006685D01*
X005544Y006590D01*
X005540Y006582D01*
X005536Y006590D01*
X005441Y006685D01*
X005246Y006685D01*
X005222Y006662D01*
X005199Y006685D01*
X004906Y006685D01*
X004905Y006684D01*
X004904Y006685D01*
X004709Y006685D01*
X004631Y006608D01*
X004554Y006685D01*
X004360Y006685D01*
X004163Y006685D01*
X004133Y006656D01*
X004094Y006617D01*
X004092Y006615D01*
X004085Y006608D01*
X004008Y006685D01*
X003518Y006685D01*
X003482Y006649D01*
X003449Y006617D01*
X003448Y006615D01*
X003441Y006608D01*
X003364Y006685D01*
X002874Y006685D01*
X002821Y006633D01*
X002805Y006617D01*
X002804Y006616D01*
X002747Y006559D01*
X002719Y006587D01*
X002621Y006685D01*
X002426Y006685D01*
X002229Y006685D01*
X002153Y006609D01*
X002153Y007026D01*
X003702Y007026D01*
X003808Y007132D01*
X003808Y007159D01*
X003897Y007122D01*
X004049Y007122D01*
X004188Y007180D01*
X004295Y007286D01*
X004353Y007426D01*
X004353Y007526D01*
X007871Y007526D01*
X007871Y007544D02*
X007871Y007482D01*
X007328Y007482D01*
X007193Y007347D01*
X007128Y007282D01*
X006993Y007147D01*
X006993Y003747D01*
X006828Y003582D01*
X005728Y003582D01*
X005593Y003447D01*
X005578Y003432D01*
X005443Y003297D01*
X005443Y003251D01*
X005193Y003001D01*
X005193Y002003D01*
X005214Y001982D01*
X004668Y001982D01*
X004751Y002067D01*
X004854Y002192D01*
X004854Y002192D01*
X004944Y002327D01*
X005022Y002469D01*
X005084Y002612D02*
X005193Y002612D01*
X005086Y002618D02*
X005086Y002618D01*
X005137Y002770D02*
X005193Y002770D01*
X005193Y002929D02*
X005173Y002929D01*
X005195Y003087D02*
X005280Y003087D01*
X005203Y003246D02*
X005438Y003246D01*
X005550Y003404D02*
X005196Y003404D01*
X005175Y003563D02*
X005709Y003563D01*
X005139Y003721D02*
X006967Y003721D01*
X006993Y003880D02*
X005088Y003880D01*
X005019Y004038D02*
X006993Y004038D01*
X006993Y004197D02*
X004930Y004197D01*
X004854Y004311D02*
X004854Y004311D01*
X004817Y004356D02*
X006993Y004356D01*
X006993Y004514D02*
X004676Y004514D01*
X004638Y004553D02*
X004638Y004553D01*
X004515Y004658D02*
X004515Y004658D01*
X004494Y004673D02*
X006993Y004673D01*
X006993Y004831D02*
X004564Y004831D01*
X004653Y004920D02*
X004653Y004920D01*
X004722Y004990D02*
X006993Y004990D01*
X006993Y005148D02*
X004790Y005148D01*
X004790Y005307D02*
X006993Y005307D01*
X006993Y005465D02*
X004790Y005465D01*
X004790Y005624D02*
X006993Y005624D01*
X006993Y005782D02*
X004654Y005782D01*
X005023Y005941D02*
X005324Y005941D01*
X005256Y006099D02*
X005041Y006099D01*
X005757Y005941D02*
X006993Y005941D01*
X006993Y006099D02*
X005824Y006099D01*
X005903Y006258D02*
X006993Y006258D01*
X006993Y006417D02*
X005972Y006417D01*
X005944Y006575D02*
X006993Y006575D01*
X006993Y006734D02*
X002153Y006734D01*
X002153Y006892D02*
X006993Y006892D01*
X006993Y007051D02*
X003727Y007051D01*
X004218Y007209D02*
X007055Y007209D01*
X007214Y007368D02*
X004329Y007368D01*
X004353Y007526D02*
X005702Y007526D01*
X005808Y007632D01*
X005808Y008022D01*
X006428Y008022D01*
X006618Y008022D01*
X006753Y008156D01*
X006753Y009602D01*
X006801Y009486D01*
X006908Y009380D01*
X007047Y009322D01*
X007199Y009322D01*
X007338Y009380D01*
X007445Y009486D01*
X007503Y009626D01*
X007503Y009756D01*
X008453Y010706D01*
X008453Y010897D01*
X008453Y012234D01*
X008508Y012180D01*
X008647Y012122D01*
X008799Y012122D01*
X008938Y012180D01*
X009045Y012286D01*
X009103Y012426D01*
X009103Y012577D01*
X009045Y012717D01*
X008953Y012809D01*
X008953Y014782D01*
X008984Y014782D01*
X009294Y014782D01*
X009604Y014782D01*
X009843Y014782D01*
X009843Y014297D01*
X009328Y013782D01*
X009193Y013647D01*
X009193Y011109D01*
X009101Y011017D01*
X009043Y010877D01*
X009043Y010726D01*
X009073Y010654D01*
X008980Y010654D01*
X008875Y010548D01*
X008875Y009650D01*
X007976Y009650D01*
X007871Y009544D01*
X007871Y009159D01*
X007928Y009102D01*
X007871Y009044D01*
X007871Y008659D01*
X007928Y008602D01*
X007871Y008544D01*
X007871Y008159D01*
X007928Y008102D01*
X007871Y008044D01*
X007871Y007852D01*
X008484Y007852D01*
X008484Y007851D01*
X007871Y007851D01*
X007871Y007659D01*
X007928Y007602D01*
X007871Y007544D01*
X007871Y007685D02*
X005808Y007685D01*
X005808Y007843D02*
X007871Y007843D01*
X007871Y008002D02*
X005808Y008002D01*
X005808Y009232D02*
X005808Y009372D01*
X005702Y009477D01*
X004144Y009477D01*
X004038Y009372D01*
X004038Y008882D01*
X003897Y008882D01*
X003808Y008845D01*
X003808Y008872D01*
X003702Y008977D01*
X002153Y008977D01*
X002153Y009026D01*
X002855Y009026D01*
X002855Y009434D01*
X002991Y009434D01*
X002991Y009569D01*
X003808Y009569D01*
X003808Y009872D01*
X003702Y009977D01*
X002991Y009977D01*
X002991Y009570D01*
X002855Y009570D01*
X002855Y009977D01*
X002153Y009977D01*
X002153Y010026D01*
X003702Y010026D01*
X003808Y010132D01*
X003808Y010159D01*
X003897Y010122D01*
X004038Y010122D01*
X004038Y010069D01*
X004855Y010069D01*
X004855Y009934D01*
X004038Y009934D01*
X004038Y009632D01*
X004144Y009526D01*
X004855Y009526D01*
X004855Y009934D01*
X004991Y009934D01*
X004991Y010069D01*
X005808Y010069D01*
X005808Y010372D01*
X005702Y010477D01*
X004991Y010477D01*
X004991Y010070D01*
X004855Y010070D01*
X004855Y010477D01*
X004353Y010477D01*
X004353Y010526D01*
X005702Y010526D01*
X005808Y010632D01*
X005808Y011111D01*
X005818Y011122D01*
X005949Y011122D01*
X006088Y011180D01*
X006093Y011184D01*
X006093Y009232D01*
X005808Y009232D01*
X005808Y009270D02*
X006093Y009270D01*
X006093Y009429D02*
X005750Y009429D01*
X005702Y009526D02*
X005808Y009632D01*
X005808Y009934D01*
X004991Y009934D01*
X004991Y009526D01*
X005702Y009526D01*
X005763Y009587D02*
X006093Y009587D01*
X006093Y009746D02*
X005808Y009746D01*
X005808Y009905D02*
X006093Y009905D01*
X006093Y010063D02*
X004991Y010063D01*
X004855Y010063D02*
X003739Y010063D01*
X003775Y009905D02*
X004038Y009905D01*
X004038Y009746D02*
X003808Y009746D01*
X003808Y009587D02*
X004083Y009587D01*
X004096Y009429D02*
X003808Y009429D01*
X003808Y009434D02*
X002991Y009434D01*
X002991Y009026D01*
X003702Y009026D01*
X003808Y009132D01*
X003808Y009434D01*
X003808Y009270D02*
X004038Y009270D01*
X004038Y009112D02*
X003788Y009112D01*
X003726Y008953D02*
X004038Y008953D01*
X004855Y009587D02*
X004991Y009587D01*
X004991Y009746D02*
X004855Y009746D01*
X004855Y009905D02*
X004991Y009905D01*
X004991Y010222D02*
X004855Y010222D01*
X004855Y010380D02*
X004991Y010380D01*
X005715Y010539D02*
X006093Y010539D01*
X006093Y010697D02*
X005808Y010697D01*
X005808Y010856D02*
X006093Y010856D01*
X006093Y011014D02*
X005808Y011014D01*
X006072Y011173D02*
X006093Y011173D01*
X006753Y011173D02*
X007993Y011173D01*
X007993Y011331D02*
X006753Y011331D01*
X006753Y011490D02*
X007993Y011490D01*
X007993Y011649D02*
X006753Y011649D01*
X006753Y011690D02*
X006753Y009801D01*
X006801Y009917D01*
X006908Y010024D01*
X007047Y010082D01*
X007178Y010082D01*
X007993Y010897D01*
X007993Y012847D01*
X007253Y012106D01*
X007253Y011976D01*
X007195Y011836D01*
X007088Y011730D01*
X006949Y011672D01*
X006797Y011672D01*
X006753Y011690D01*
X007166Y011807D02*
X007993Y011807D01*
X007993Y011966D02*
X007249Y011966D01*
X007271Y012124D02*
X007993Y012124D01*
X007993Y012283D02*
X007429Y012283D01*
X007588Y012441D02*
X007993Y012441D01*
X007993Y012600D02*
X007746Y012600D01*
X007905Y012758D02*
X007993Y012758D01*
X008453Y012124D02*
X008642Y012124D01*
X008804Y012124D02*
X009193Y012124D01*
X009193Y011966D02*
X008453Y011966D01*
X008453Y011807D02*
X009193Y011807D01*
X009193Y011649D02*
X008453Y011649D01*
X008453Y011490D02*
X009193Y011490D01*
X009193Y011331D02*
X008453Y011331D01*
X008453Y011173D02*
X009193Y011173D01*
X009100Y011014D02*
X008453Y011014D01*
X008453Y010856D02*
X009043Y010856D01*
X009055Y010697D02*
X008444Y010697D01*
X008285Y010539D02*
X008875Y010539D01*
X008875Y010380D02*
X008127Y010380D01*
X007968Y010222D02*
X008875Y010222D01*
X008875Y010063D02*
X007810Y010063D01*
X007651Y009905D02*
X008875Y009905D01*
X008875Y009746D02*
X007503Y009746D01*
X007487Y009587D02*
X007914Y009587D01*
X007871Y009429D02*
X007388Y009429D01*
X007871Y009270D02*
X006753Y009270D01*
X006753Y009112D02*
X007918Y009112D01*
X007871Y008953D02*
X006753Y008953D01*
X006753Y008795D02*
X007871Y008795D01*
X007894Y008636D02*
X006753Y008636D01*
X006753Y008478D02*
X007871Y008478D01*
X007871Y008319D02*
X006753Y008319D01*
X006753Y008161D02*
X007871Y008161D01*
X008484Y007852D02*
X009097Y007852D01*
X009097Y008044D01*
X009040Y008102D01*
X009097Y008159D01*
X009097Y008544D01*
X009040Y008602D01*
X009097Y008659D01*
X009097Y009044D01*
X009040Y009102D01*
X009060Y009122D01*
X009078Y009122D01*
X009528Y008672D01*
X009616Y008672D01*
X009708Y008580D01*
X009847Y008522D01*
X009999Y008522D01*
X010138Y008580D01*
X010245Y008686D01*
X010303Y008826D01*
X010303Y008890D01*
X010347Y008872D01*
X010499Y008872D01*
X010638Y008930D01*
X010745Y009036D01*
X010803Y009176D01*
X010803Y009327D01*
X010761Y009428D01*
X010866Y009428D01*
X010923Y009485D01*
X010980Y009428D01*
X011366Y009428D01*
X011398Y009460D01*
X011343Y009327D01*
X011343Y009197D01*
X010293Y008147D01*
X010293Y007956D01*
X010293Y005319D01*
X010288Y005324D01*
X010149Y005382D01*
X010090Y005382D01*
X010195Y005486D01*
X010253Y005626D01*
X010253Y005777D01*
X010195Y005917D01*
X010088Y006024D01*
X009949Y006082D01*
X009797Y006082D01*
X009658Y006024D01*
X009623Y005989D01*
X009588Y006024D01*
X009449Y006082D01*
X009297Y006082D01*
X009158Y006024D01*
X009097Y005963D01*
X009097Y006044D01*
X009040Y006102D01*
X009097Y006159D01*
X009097Y006544D01*
X009040Y006602D01*
X009097Y006659D01*
X009097Y007044D01*
X009040Y007102D01*
X009097Y007159D01*
X009097Y007544D01*
X009040Y007602D01*
X009097Y007659D01*
X009097Y007851D01*
X008484Y007851D01*
X008484Y007852D01*
X009097Y007843D02*
X010293Y007843D01*
X010293Y007685D02*
X009097Y007685D01*
X009097Y007526D02*
X010293Y007526D01*
X010293Y007368D02*
X009097Y007368D01*
X009097Y007209D02*
X010293Y007209D01*
X010293Y007051D02*
X009091Y007051D01*
X009097Y006892D02*
X010293Y006892D01*
X010293Y006734D02*
X009097Y006734D01*
X009066Y006575D02*
X010293Y006575D01*
X010293Y006417D02*
X009097Y006417D01*
X009097Y006258D02*
X010293Y006258D01*
X010293Y006099D02*
X009042Y006099D01*
X010171Y005941D02*
X010293Y005941D01*
X010293Y005782D02*
X010251Y005782D01*
X010252Y005624D02*
X010293Y005624D01*
X010293Y005465D02*
X010174Y005465D01*
X011653Y005465D02*
X012293Y005465D01*
X012293Y005307D02*
X011653Y005307D01*
X011653Y005148D02*
X012293Y005148D01*
X012293Y005006D02*
X012293Y005790D01*
X012249Y005772D01*
X012097Y005772D01*
X011958Y005830D01*
X011866Y005922D01*
X011718Y005922D01*
X011653Y005856D01*
X011653Y004276D01*
X011673Y004276D01*
X011673Y003663D01*
X011673Y003663D01*
X011673Y004276D01*
X011866Y004276D01*
X011923Y004218D01*
X011980Y004276D01*
X012122Y004276D01*
X012178Y004332D01*
X012243Y004397D01*
X012243Y004527D01*
X012301Y004667D01*
X012408Y004774D01*
X012491Y004808D01*
X012428Y004872D01*
X012293Y005006D01*
X012310Y004990D02*
X011653Y004990D01*
X011653Y004831D02*
X012468Y004831D01*
X012307Y004673D02*
X011653Y004673D01*
X011653Y004514D02*
X012243Y004514D01*
X012202Y004356D02*
X011653Y004356D01*
X011673Y004197D02*
X011673Y004197D01*
X011673Y004038D02*
X011673Y004038D01*
X011673Y003880D02*
X011673Y003880D01*
X011673Y003721D02*
X011673Y003721D01*
X011673Y003662D02*
X011673Y003050D01*
X011673Y003662D01*
X011673Y003662D01*
X011673Y003563D02*
X011673Y003563D01*
X011673Y003404D02*
X011673Y003404D01*
X011673Y003246D02*
X011673Y003246D01*
X011673Y003087D02*
X011673Y003087D01*
X011673Y003050D02*
X011866Y003050D01*
X011923Y003107D01*
X011980Y003050D01*
X012344Y003050D01*
X012293Y002927D01*
X012293Y002776D01*
X012351Y002636D01*
X012458Y002530D01*
X012597Y002472D01*
X012749Y002472D01*
X012888Y002530D01*
X012943Y002584D01*
X012943Y002506D01*
X012993Y002456D01*
X012993Y002326D01*
X013051Y002186D01*
X013158Y002080D01*
X013297Y002022D01*
X013449Y002022D01*
X013588Y002080D01*
X013695Y002186D01*
X013753Y002326D01*
X013753Y002477D01*
X013695Y002617D01*
X013588Y002724D01*
X013449Y002782D01*
X013403Y002782D01*
X013403Y003087D01*
X013423Y003107D01*
X013480Y003050D01*
X013866Y003050D01*
X013923Y003107D01*
X013980Y003050D01*
X014338Y003050D01*
X014408Y002980D01*
X014547Y002922D01*
X014699Y002922D01*
X014838Y002980D01*
X014945Y003086D01*
X014981Y003172D01*
X015841Y003172D01*
X015796Y003127D01*
X015796Y002855D01*
X016154Y002855D01*
X016154Y002818D01*
X015796Y002818D01*
X015796Y002545D01*
X015840Y002502D01*
X015796Y002458D01*
X015796Y001982D01*
X010132Y001982D01*
X010153Y002003D01*
X010153Y002482D01*
X009693Y002482D01*
X009693Y002522D01*
X010153Y002522D01*
X010153Y003001D01*
X010104Y003050D01*
X010366Y003050D01*
X010423Y003107D01*
X010480Y003050D01*
X010543Y003050D01*
X010543Y002974D01*
X010442Y002873D01*
X010442Y002330D01*
X010547Y002225D01*
X011129Y002225D01*
X011173Y002268D01*
X011217Y002225D01*
X011489Y002225D01*
X011489Y002583D01*
X011526Y002583D01*
X011526Y002225D01*
X011799Y002225D01*
X011904Y002330D01*
X011904Y002583D01*
X011526Y002583D01*
X011526Y002620D01*
X011489Y002620D01*
X011489Y002979D01*
X011217Y002979D01*
X011173Y002935D01*
X011129Y002979D01*
X011003Y002979D01*
X011003Y003050D01*
X011366Y003050D01*
X011423Y003107D01*
X011480Y003050D01*
X011673Y003050D01*
X011799Y002979D02*
X011526Y002979D01*
X011526Y002620D01*
X011904Y002620D01*
X011904Y002873D01*
X011799Y002979D01*
X011849Y002929D02*
X012294Y002929D01*
X012296Y002770D02*
X011904Y002770D01*
X011904Y002453D02*
X012993Y002453D01*
X013006Y002294D02*
X011868Y002294D01*
X011526Y002294D02*
X011489Y002294D01*
X011489Y002453D02*
X011526Y002453D01*
X011526Y002612D02*
X012376Y002612D01*
X011943Y003087D02*
X011903Y003087D01*
X011526Y002929D02*
X011489Y002929D01*
X011489Y002770D02*
X011526Y002770D01*
X011443Y003087D02*
X011403Y003087D01*
X010497Y002929D02*
X010153Y002929D01*
X010153Y002770D02*
X010442Y002770D01*
X010442Y002612D02*
X010153Y002612D01*
X010153Y002453D02*
X010442Y002453D01*
X010478Y002294D02*
X010153Y002294D01*
X010153Y002136D02*
X013101Y002136D01*
X013477Y002770D02*
X015796Y002770D01*
X015796Y002612D02*
X013697Y002612D01*
X013753Y002453D02*
X015796Y002453D01*
X015796Y002294D02*
X013740Y002294D01*
X013645Y002136D02*
X015796Y002136D01*
X016192Y002818D02*
X016192Y002855D01*
X016550Y002855D01*
X016550Y003127D01*
X016444Y003233D01*
X016329Y003233D01*
X016403Y003306D01*
X016603Y003506D01*
X016603Y003697D01*
X016603Y004684D01*
X016658Y004630D01*
X016797Y004572D01*
X016949Y004572D01*
X016993Y004590D01*
X016993Y003988D01*
X016958Y003974D01*
X016851Y003867D01*
X016793Y003727D01*
X016793Y003576D01*
X016851Y003436D01*
X016958Y003330D01*
X017097Y003272D01*
X017249Y003272D01*
X017388Y003330D01*
X017495Y003436D01*
X017553Y003576D01*
X017553Y003727D01*
X017495Y003867D01*
X017453Y003909D01*
X017453Y004105D01*
X017644Y004105D01*
X017678Y004072D01*
X018248Y003502D01*
X017678Y002932D01*
X017644Y002898D01*
X017317Y002898D01*
X017212Y002793D01*
X017212Y002532D01*
X016536Y002532D01*
X016550Y002545D01*
X016550Y002818D01*
X016192Y002818D01*
X016550Y002770D02*
X017212Y002770D01*
X017212Y002612D02*
X016550Y002612D01*
X016550Y002929D02*
X017675Y002929D01*
X017833Y003087D02*
X016550Y003087D01*
X016342Y003246D02*
X017992Y003246D01*
X018150Y003404D02*
X017463Y003404D01*
X017548Y003563D02*
X018187Y003563D01*
X018028Y003721D02*
X017553Y003721D01*
X017482Y003880D02*
X017870Y003880D01*
X017711Y004038D02*
X017453Y004038D01*
X016993Y004038D02*
X016603Y004038D01*
X016603Y003880D02*
X016864Y003880D01*
X016793Y003721D02*
X016603Y003721D01*
X016603Y003563D02*
X016799Y003563D01*
X016883Y003404D02*
X016501Y003404D01*
X016603Y004197D02*
X016993Y004197D01*
X016993Y004356D02*
X016603Y004356D01*
X016603Y004514D02*
X016993Y004514D01*
X016615Y004673D02*
X016603Y004673D01*
X015943Y004797D02*
X015728Y004582D01*
X015438Y004582D01*
X015418Y004602D01*
X015475Y004659D01*
X015475Y004897D01*
X015502Y004871D01*
X015755Y004871D01*
X015755Y005248D01*
X015791Y005248D01*
X015791Y004871D01*
X015943Y004871D01*
X015943Y004797D01*
X015943Y004831D02*
X015475Y004831D01*
X015475Y004673D02*
X015819Y004673D01*
X015791Y004990D02*
X015755Y004990D01*
X015755Y005148D02*
X015791Y005148D01*
X015754Y005249D02*
X015475Y005249D01*
X015475Y005286D01*
X015754Y005286D01*
X015754Y005249D01*
X014862Y005351D02*
X014249Y005351D01*
X014249Y005190D01*
X014149Y005232D01*
X013997Y005232D01*
X013953Y005213D01*
X013953Y006097D01*
X014193Y005856D01*
X014249Y005801D01*
X014249Y005659D01*
X014306Y005602D01*
X014249Y005544D01*
X014249Y005352D01*
X014862Y005352D01*
X014862Y005351D01*
X014249Y005307D02*
X013953Y005307D01*
X013953Y005465D02*
X014249Y005465D01*
X014284Y005624D02*
X013953Y005624D01*
X013953Y005782D02*
X014249Y005782D01*
X014109Y005941D02*
X013953Y005941D01*
X012293Y005782D02*
X012274Y005782D01*
X012293Y005624D02*
X011653Y005624D01*
X011653Y005782D02*
X012072Y005782D01*
X010293Y008002D02*
X009097Y008002D01*
X009097Y008161D02*
X010307Y008161D01*
X010465Y008319D02*
X009097Y008319D01*
X009097Y008478D02*
X010624Y008478D01*
X010782Y008636D02*
X010195Y008636D01*
X010290Y008795D02*
X010941Y008795D01*
X011099Y008953D02*
X010662Y008953D01*
X010776Y009112D02*
X011258Y009112D01*
X011343Y009270D02*
X010803Y009270D01*
X010867Y009429D02*
X010979Y009429D01*
X011367Y009429D02*
X011385Y009429D01*
X010260Y011014D02*
X010003Y011014D01*
X010003Y010856D02*
X010102Y010856D01*
X010078Y010832D02*
X010078Y010832D01*
X010393Y011147D01*
X010393Y011147D01*
X010528Y011282D01*
X011128Y011282D01*
X011606Y011760D01*
X011558Y011780D01*
X011451Y011886D01*
X011393Y012026D01*
X011393Y012177D01*
X011451Y012317D01*
X011558Y012424D01*
X011697Y012482D01*
X011828Y012482D01*
X012093Y012747D01*
X012093Y013117D01*
X011961Y013062D01*
X011786Y013062D01*
X011624Y013129D01*
X011500Y013252D01*
X011433Y013414D01*
X011433Y013589D01*
X011485Y013715D01*
X010903Y014297D01*
X010903Y014256D01*
X010361Y013715D01*
X010413Y013589D01*
X010413Y013414D01*
X010346Y013252D01*
X010222Y013129D01*
X010061Y013062D01*
X010003Y013062D01*
X010003Y010757D01*
X010078Y010832D01*
X010003Y011173D02*
X010419Y011173D01*
X010003Y011331D02*
X011178Y011331D01*
X011336Y011490D02*
X010003Y011490D01*
X010003Y011649D02*
X011495Y011649D01*
X011530Y011807D02*
X010003Y011807D01*
X010003Y011966D02*
X011418Y011966D01*
X011393Y012124D02*
X010003Y012124D01*
X010003Y012283D02*
X011437Y012283D01*
X011600Y012441D02*
X010003Y012441D01*
X010003Y012600D02*
X011946Y012600D01*
X012093Y012758D02*
X010003Y012758D01*
X010003Y012917D02*
X012093Y012917D01*
X012093Y013075D02*
X011994Y013075D01*
X011753Y013075D02*
X010094Y013075D01*
X010328Y013234D02*
X011519Y013234D01*
X011442Y013392D02*
X010404Y013392D01*
X010413Y013551D02*
X011433Y013551D01*
X011483Y013710D02*
X010363Y013710D01*
X010515Y013868D02*
X011331Y013868D01*
X011173Y014027D02*
X010673Y014027D01*
X010832Y014185D02*
X011014Y014185D01*
X010443Y014447D02*
X010303Y014307D01*
X010303Y014782D01*
X010398Y014782D01*
X010398Y015196D01*
X010398Y015196D01*
X010398Y014782D01*
X010443Y014782D01*
X010443Y014447D01*
X010443Y014502D02*
X010303Y014502D01*
X010303Y014344D02*
X010340Y014344D01*
X010303Y014661D02*
X010443Y014661D01*
X010398Y014819D02*
X010398Y014819D01*
X010398Y014978D02*
X010398Y014978D01*
X010398Y015136D02*
X010398Y015136D01*
X010426Y015612D02*
X010453Y015676D01*
X010453Y015827D01*
X010395Y015967D01*
X010288Y016074D01*
X010149Y016132D01*
X009997Y016132D01*
X009953Y016113D01*
X009953Y016547D01*
X010888Y015612D01*
X010844Y015612D01*
X010534Y015612D01*
X010426Y015612D01*
X010887Y015612D01*
X010729Y015771D02*
X010453Y015771D01*
X010411Y015929D02*
X010570Y015929D01*
X010412Y016088D02*
X010255Y016088D01*
X010253Y016246D02*
X009953Y016246D01*
X009953Y016405D02*
X010095Y016405D01*
X010428Y016722D02*
X011718Y016722D01*
X011718Y016880D02*
X010484Y016880D01*
X010503Y016926D02*
X010503Y017077D01*
X010445Y017217D01*
X010338Y017324D01*
X010199Y017382D01*
X010153Y017382D01*
X010153Y017397D01*
X010153Y018694D01*
X010245Y018786D01*
X010303Y018926D01*
X010303Y019077D01*
X010245Y019217D01*
X010138Y019324D01*
X009999Y019382D01*
X009847Y019382D01*
X009803Y019363D01*
X009803Y019544D01*
X009895Y019636D01*
X009953Y019776D01*
X009953Y019927D01*
X009895Y020067D01*
X009788Y020174D01*
X009649Y020232D01*
X009497Y020232D01*
X009453Y020213D01*
X009453Y020672D01*
X009468Y020672D01*
X009603Y020806D01*
X009653Y020856D01*
X009653Y020892D01*
X009914Y020892D01*
X010224Y020892D01*
X010534Y020892D01*
X010844Y020892D01*
X011154Y020892D01*
X011464Y020892D01*
X011743Y020892D01*
X011743Y020856D01*
X011793Y020806D01*
X011793Y020676D01*
X011851Y020536D01*
X011958Y020430D01*
X012097Y020372D01*
X012249Y020372D01*
X012388Y020430D01*
X012495Y020536D01*
X012553Y020676D01*
X012553Y020827D01*
X012526Y020892D01*
X012704Y020892D01*
X013014Y020892D01*
X013324Y020892D01*
X013673Y020892D01*
X013778Y020997D01*
X013778Y021072D01*
X013978Y021072D01*
X014193Y020857D01*
X013919Y020857D01*
X013813Y020751D01*
X013813Y020402D01*
X013813Y020092D01*
X013813Y019782D01*
X013813Y019472D01*
X013813Y019162D01*
X013813Y019134D01*
X013699Y019182D01*
X013547Y019182D01*
X013408Y019124D01*
X013301Y019017D01*
X013243Y018877D01*
X013243Y018832D01*
X013097Y018832D01*
X012958Y018774D01*
X012851Y018667D01*
X012793Y018527D01*
X012793Y018376D01*
X012851Y018236D01*
X012958Y018130D01*
X013074Y018082D01*
X012980Y018082D01*
X012888Y018174D01*
X012749Y018232D01*
X012597Y018232D01*
X012488Y018186D01*
X012488Y018691D01*
X013168Y019372D01*
X013299Y019372D01*
X013438Y019430D01*
X013545Y019536D01*
X013603Y019676D01*
X013603Y019827D01*
X013545Y019967D01*
X013510Y020002D01*
X013595Y020086D01*
X013653Y020226D01*
X013653Y020377D01*
X013595Y020517D01*
X013488Y020624D01*
X013349Y020682D01*
X013197Y020682D01*
X013058Y020624D01*
X012951Y020517D01*
X012893Y020377D01*
X012893Y020247D01*
X011718Y019072D01*
X011718Y018881D01*
X011718Y015612D01*
X011503Y015612D01*
X011503Y015647D01*
X010404Y016746D01*
X010445Y016786D01*
X010503Y016926D01*
X010503Y017039D02*
X011718Y017039D01*
X011718Y017198D02*
X010453Y017198D01*
X010261Y017356D02*
X011718Y017356D01*
X011718Y017515D02*
X010153Y017515D01*
X010153Y017673D02*
X011718Y017673D01*
X011718Y017832D02*
X010153Y017832D01*
X010153Y017990D02*
X011718Y017990D01*
X011718Y018149D02*
X010153Y018149D01*
X010153Y018307D02*
X011718Y018307D01*
X011718Y018466D02*
X010153Y018466D01*
X010153Y018624D02*
X011718Y018624D01*
X011718Y018783D02*
X010242Y018783D01*
X010303Y018941D02*
X011718Y018941D01*
X011746Y019100D02*
X010294Y019100D01*
X010204Y019259D02*
X011905Y019259D01*
X012063Y019417D02*
X009803Y019417D01*
X009834Y019576D02*
X012222Y019576D01*
X012380Y019734D02*
X009936Y019734D01*
X009953Y019893D02*
X012539Y019893D01*
X012697Y020051D02*
X009902Y020051D01*
X009701Y020210D02*
X012856Y020210D01*
X012893Y020368D02*
X009453Y020368D01*
X009453Y020527D02*
X011860Y020527D01*
X011793Y020685D02*
X009482Y020685D01*
X009641Y020844D02*
X011756Y020844D01*
X012258Y021307D02*
X012258Y021722D01*
X012084Y021722D01*
X011903Y021722D01*
X011903Y021875D01*
X012070Y021875D01*
X012070Y022233D01*
X012107Y022233D01*
X012107Y021875D01*
X012379Y021875D01*
X012393Y021889D01*
X012393Y021722D01*
X012258Y021722D01*
X012258Y021307D01*
X012258Y021307D01*
X012258Y021320D02*
X012258Y021320D01*
X012258Y021478D02*
X012258Y021478D01*
X012258Y021637D02*
X012258Y021637D01*
X012393Y021795D02*
X011903Y021795D01*
X012070Y021954D02*
X012107Y021954D01*
X012107Y022112D02*
X012070Y022112D01*
X012070Y022270D02*
X012070Y022629D01*
X011903Y022629D01*
X011903Y024256D01*
X012018Y024372D01*
X012153Y024506D01*
X012153Y025543D01*
X012174Y025522D01*
X013172Y025522D01*
X013393Y025743D01*
X013393Y023147D01*
X012939Y022693D01*
X012953Y022726D01*
X012953Y022877D01*
X012895Y023017D01*
X012803Y023109D01*
X012803Y023194D01*
X012895Y023286D01*
X012953Y023426D01*
X012953Y023577D01*
X012895Y023717D01*
X012788Y023824D01*
X012649Y023882D01*
X012497Y023882D01*
X012358Y023824D01*
X012251Y023717D01*
X012193Y023577D01*
X012193Y023426D01*
X012251Y023286D01*
X012343Y023194D01*
X012343Y023109D01*
X012251Y023017D01*
X012193Y022877D01*
X012193Y022726D01*
X012234Y022629D01*
X012107Y022629D01*
X012107Y022270D01*
X012070Y022270D01*
X012070Y022271D02*
X012107Y022271D01*
X012107Y022429D02*
X012070Y022429D01*
X012070Y022588D02*
X012107Y022588D01*
X012193Y022747D02*
X011903Y022747D01*
X011903Y022905D02*
X012205Y022905D01*
X012298Y023064D02*
X011903Y023064D01*
X011903Y023222D02*
X012315Y023222D01*
X012212Y023381D02*
X011903Y023381D01*
X011903Y023539D02*
X012193Y023539D01*
X012243Y023698D02*
X011903Y023698D01*
X011903Y023856D02*
X012436Y023856D01*
X012710Y023856D02*
X013393Y023856D01*
X013393Y023698D02*
X012903Y023698D01*
X012953Y023539D02*
X013393Y023539D01*
X013393Y023381D02*
X012934Y023381D01*
X012831Y023222D02*
X013393Y023222D01*
X013310Y023064D02*
X012849Y023064D01*
X012942Y022905D02*
X013151Y022905D01*
X012993Y022747D02*
X012953Y022747D01*
X013393Y024015D02*
X011903Y024015D01*
X011903Y024173D02*
X013393Y024173D01*
X013393Y024332D02*
X011979Y024332D01*
X012137Y024491D02*
X013393Y024491D01*
X013393Y024649D02*
X012153Y024649D01*
X012153Y024808D02*
X013393Y024808D01*
X013393Y024966D02*
X012153Y024966D01*
X012153Y025125D02*
X013393Y025125D01*
X013393Y025283D02*
X012153Y025283D01*
X012153Y025442D02*
X013393Y025442D01*
X013393Y025600D02*
X013250Y025600D01*
X013393Y027260D02*
X013172Y027482D01*
X012174Y027482D01*
X011893Y027201D01*
X011893Y026803D01*
X011914Y026782D01*
X011847Y026782D01*
X011803Y026763D01*
X011803Y027394D01*
X011895Y027486D01*
X011953Y027626D01*
X011953Y027743D01*
X012174Y027522D01*
X012653Y027522D01*
X012653Y027981D01*
X012693Y027981D01*
X012693Y027522D01*
X013172Y027522D01*
X013393Y027743D01*
X013393Y027260D01*
X013393Y027344D02*
X013309Y027344D01*
X013393Y027503D02*
X011902Y027503D01*
X011953Y027661D02*
X012035Y027661D01*
X011893Y027919D02*
X011788Y028024D01*
X011649Y028082D01*
X011497Y028082D01*
X011358Y028024D01*
X011251Y027917D01*
X011208Y027813D01*
X011208Y027984D01*
X010751Y027984D01*
X010751Y028139D01*
X011208Y028139D01*
X011208Y028451D01*
X011103Y028556D01*
X010751Y028556D01*
X010751Y028139D01*
X010596Y028139D01*
X010596Y028556D01*
X010244Y028556D01*
X010173Y028486D01*
X010103Y028556D01*
X009751Y028556D01*
X009751Y028139D01*
X010208Y028139D01*
X010595Y028139D01*
X010595Y027984D01*
X010208Y027984D01*
X009751Y027984D01*
X009751Y028139D01*
X009596Y028139D01*
X009596Y028556D01*
X009244Y028556D01*
X009153Y028466D01*
X009153Y029006D01*
X009318Y029172D01*
X009335Y029189D01*
X009483Y029042D01*
X009864Y029042D01*
X010133Y029311D01*
X010133Y029692D01*
X009864Y029962D01*
X009608Y029962D01*
X009668Y030022D01*
X009688Y030042D01*
X009864Y030042D01*
X009911Y030089D01*
X010028Y029972D01*
X010260Y029739D01*
X010213Y029692D01*
X010213Y029311D01*
X010483Y029042D01*
X010864Y029042D01*
X011133Y029311D01*
X011133Y029692D01*
X010864Y029962D01*
X010688Y029962D01*
X010668Y029982D01*
X010608Y030042D01*
X010864Y030042D01*
X011133Y030311D01*
X011133Y030692D01*
X010864Y030962D01*
X010483Y030962D01*
X010335Y030815D01*
X010103Y031047D01*
X009968Y031182D01*
X008378Y031182D01*
X009018Y031822D01*
X013618Y031822D01*
X013618Y031072D01*
X013724Y030967D01*
X014143Y030967D01*
X014143Y030898D01*
X014067Y030898D01*
X013962Y030793D01*
X013962Y030211D01*
X014067Y030105D01*
X014151Y030105D01*
X013293Y029247D01*
X013293Y029056D01*
X013293Y028360D01*
X013172Y028482D01*
X012693Y028482D01*
X012693Y028022D01*
X012653Y028022D01*
X012653Y028482D01*
X012174Y028482D01*
X011893Y028201D01*
X011893Y028022D01*
X012653Y028022D01*
X012653Y027982D01*
X011893Y027982D01*
X011893Y027919D01*
X011893Y027978D02*
X011834Y027978D01*
X011893Y028137D02*
X010751Y028137D01*
X010751Y027984D02*
X010751Y027567D01*
X011103Y027567D01*
X011193Y027657D01*
X011193Y027626D01*
X011251Y027486D01*
X011343Y027394D01*
X011343Y026613D01*
X011299Y026632D01*
X011208Y026632D01*
X011208Y027331D01*
X011103Y027437D01*
X010244Y027437D01*
X010173Y027366D01*
X010103Y027437D01*
X009244Y027437D01*
X009153Y027346D01*
X009153Y027657D01*
X009244Y027567D01*
X009596Y027567D01*
X009596Y027984D01*
X009751Y027984D01*
X009751Y027567D01*
X010103Y027567D01*
X010173Y027637D01*
X010244Y027567D01*
X010596Y027567D01*
X010596Y027984D01*
X010751Y027984D01*
X010751Y027978D02*
X010596Y027978D01*
X010596Y027820D02*
X010751Y027820D01*
X010751Y027661D02*
X010596Y027661D01*
X010595Y028137D02*
X009751Y028137D01*
X009751Y027978D02*
X009596Y027978D01*
X009596Y027820D02*
X009751Y027820D01*
X009751Y027661D02*
X009596Y027661D01*
X009153Y027503D02*
X011244Y027503D01*
X011195Y027344D02*
X011343Y027344D01*
X011343Y027186D02*
X011208Y027186D01*
X011208Y027027D02*
X011343Y027027D01*
X011343Y026869D02*
X011208Y026869D01*
X011208Y026710D02*
X011343Y026710D01*
X011803Y026869D02*
X011893Y026869D01*
X011893Y027027D02*
X011803Y027027D01*
X011803Y027186D02*
X011893Y027186D01*
X011803Y027344D02*
X012037Y027344D01*
X012653Y027661D02*
X012693Y027661D01*
X012693Y027820D02*
X012653Y027820D01*
X012653Y027978D02*
X012693Y027978D01*
X012693Y028137D02*
X012653Y028137D01*
X012653Y028296D02*
X012693Y028296D01*
X012693Y028454D02*
X012653Y028454D01*
X013199Y028454D02*
X013293Y028454D01*
X013293Y028613D02*
X009153Y028613D01*
X009153Y028771D02*
X013293Y028771D01*
X013293Y028930D02*
X009153Y028930D01*
X009235Y029088D02*
X009436Y029088D01*
X009910Y029088D02*
X010436Y029088D01*
X010277Y029247D02*
X010069Y029247D01*
X010133Y029405D02*
X010213Y029405D01*
X010213Y029564D02*
X010133Y029564D01*
X010103Y029722D02*
X010243Y029722D01*
X010119Y029881D02*
X009944Y029881D01*
X009960Y030040D02*
X009686Y030040D01*
X010159Y030991D02*
X013700Y030991D01*
X013618Y031149D02*
X010001Y031149D01*
X010318Y030832D02*
X010353Y030832D01*
X010610Y030040D02*
X014086Y030040D01*
X013974Y030198D02*
X012020Y030198D01*
X012133Y030311D02*
X012133Y030492D01*
X011683Y030492D01*
X011683Y030512D01*
X011663Y030512D01*
X011663Y030962D01*
X011483Y030962D01*
X011213Y030692D01*
X011213Y030512D01*
X011663Y030512D01*
X011663Y030492D01*
X011213Y030492D01*
X011213Y030311D01*
X011483Y030042D01*
X011663Y030042D01*
X011663Y030491D01*
X011683Y030491D01*
X011683Y030042D01*
X011864Y030042D01*
X012133Y030311D01*
X012133Y030357D02*
X013962Y030357D01*
X013962Y030515D02*
X012133Y030515D01*
X012133Y030512D02*
X012133Y030692D01*
X011864Y030962D01*
X011683Y030962D01*
X011683Y030512D01*
X012133Y030512D01*
X012133Y030674D02*
X013962Y030674D01*
X014001Y030832D02*
X011993Y030832D01*
X011683Y030832D02*
X011663Y030832D01*
X011663Y030674D02*
X011683Y030674D01*
X011683Y030515D02*
X011663Y030515D01*
X011663Y030357D02*
X011683Y030357D01*
X011683Y030198D02*
X011663Y030198D01*
X011483Y029962D02*
X011213Y029692D01*
X011213Y029311D01*
X011483Y029042D01*
X011864Y029042D01*
X012133Y029311D01*
X012133Y029692D01*
X011864Y029962D01*
X011483Y029962D01*
X011402Y029881D02*
X010944Y029881D01*
X011103Y029722D02*
X011243Y029722D01*
X011213Y029564D02*
X011133Y029564D01*
X011133Y029405D02*
X011213Y029405D01*
X011277Y029247D02*
X011069Y029247D01*
X010910Y029088D02*
X011436Y029088D01*
X011910Y029088D02*
X013293Y029088D01*
X013293Y029247D02*
X012069Y029247D01*
X012133Y029405D02*
X013451Y029405D01*
X013610Y029564D02*
X012133Y029564D01*
X012103Y029722D02*
X013769Y029722D01*
X013927Y029881D02*
X011944Y029881D01*
X011326Y030198D02*
X011020Y030198D01*
X011133Y030357D02*
X011213Y030357D01*
X011213Y030515D02*
X011133Y030515D01*
X011133Y030674D02*
X011213Y030674D01*
X011353Y030832D02*
X010993Y030832D01*
X010668Y029982D02*
X010668Y029982D01*
X010596Y028454D02*
X010751Y028454D01*
X010751Y028296D02*
X010596Y028296D01*
X011208Y028296D02*
X011988Y028296D01*
X012147Y028454D02*
X011205Y028454D01*
X011208Y027978D02*
X011312Y027978D01*
X011211Y027820D02*
X011208Y027820D01*
X009751Y028296D02*
X009596Y028296D01*
X009596Y028454D02*
X009751Y028454D01*
X009153Y026538D02*
X009244Y026447D01*
X009366Y026447D01*
X009277Y026358D01*
X009277Y025815D01*
X009340Y025752D01*
X009277Y025688D01*
X009277Y025146D01*
X009382Y025040D01*
X009493Y025040D01*
X009493Y021722D01*
X009396Y021722D01*
X009404Y021730D01*
X009404Y021983D01*
X009026Y021983D01*
X009026Y022020D01*
X008989Y022020D01*
X008989Y022379D01*
X008717Y022379D01*
X008673Y022335D01*
X008629Y022379D01*
X008153Y022379D01*
X008153Y025634D01*
X008208Y025580D01*
X008347Y025522D01*
X008499Y025522D01*
X008638Y025580D01*
X008693Y025634D01*
X008693Y025580D01*
X008558Y025524D01*
X008451Y025417D01*
X008393Y025277D01*
X008393Y025126D01*
X008451Y024986D01*
X008558Y024880D01*
X008697Y024822D01*
X008849Y024822D01*
X008988Y024880D01*
X009095Y024986D01*
X009153Y025126D01*
X009153Y025277D01*
X009153Y026538D01*
X009153Y026393D02*
X009312Y026393D01*
X009277Y026234D02*
X009153Y026234D01*
X009153Y026076D02*
X009277Y026076D01*
X009277Y025917D02*
X009153Y025917D01*
X009153Y025759D02*
X009333Y025759D01*
X009277Y025600D02*
X009153Y025600D01*
X009153Y025442D02*
X009277Y025442D01*
X009277Y025283D02*
X009153Y025283D01*
X009152Y025125D02*
X009298Y025125D01*
X009493Y024966D02*
X009075Y024966D01*
X009493Y024808D02*
X008153Y024808D01*
X008153Y024966D02*
X008471Y024966D01*
X008394Y025125D02*
X008153Y025125D01*
X008153Y025283D02*
X008396Y025283D01*
X008476Y025442D02*
X008153Y025442D01*
X008153Y025600D02*
X008187Y025600D01*
X008659Y025600D02*
X008693Y025600D01*
X008153Y024649D02*
X009493Y024649D01*
X009493Y024491D02*
X008153Y024491D01*
X008153Y024332D02*
X009493Y024332D01*
X009493Y024173D02*
X008153Y024173D01*
X008153Y024015D02*
X009493Y024015D01*
X009493Y023856D02*
X008153Y023856D01*
X008153Y023698D02*
X009493Y023698D01*
X009493Y023539D02*
X008153Y023539D01*
X008153Y023381D02*
X009493Y023381D01*
X009493Y023222D02*
X008153Y023222D01*
X008153Y023064D02*
X009493Y023064D01*
X009493Y022905D02*
X008153Y022905D01*
X008153Y022747D02*
X009493Y022747D01*
X009493Y022588D02*
X008153Y022588D01*
X008153Y022429D02*
X009493Y022429D01*
X009493Y022271D02*
X009404Y022271D01*
X009404Y022273D02*
X009299Y022379D01*
X009026Y022379D01*
X009026Y022020D01*
X009404Y022020D01*
X009404Y022273D01*
X009404Y022112D02*
X009493Y022112D01*
X009493Y021954D02*
X009404Y021954D01*
X009404Y021795D02*
X009493Y021795D01*
X009026Y022112D02*
X008989Y022112D01*
X008989Y022271D02*
X009026Y022271D01*
X012546Y020844D02*
X013906Y020844D01*
X013813Y020685D02*
X012553Y020685D01*
X012486Y020527D02*
X012961Y020527D01*
X013585Y020527D02*
X013813Y020527D01*
X013813Y020368D02*
X013653Y020368D01*
X013646Y020210D02*
X013813Y020210D01*
X013813Y020051D02*
X013560Y020051D01*
X013576Y019893D02*
X013813Y019893D01*
X013813Y019734D02*
X013603Y019734D01*
X013561Y019576D02*
X013813Y019576D01*
X013813Y019417D02*
X013408Y019417D01*
X013384Y019100D02*
X012897Y019100D01*
X013055Y019259D02*
X013813Y019259D01*
X013270Y018941D02*
X012738Y018941D01*
X012580Y018783D02*
X012980Y018783D01*
X012833Y018624D02*
X012488Y018624D01*
X012488Y018466D02*
X012793Y018466D01*
X012822Y018307D02*
X012488Y018307D01*
X012913Y018149D02*
X012939Y018149D01*
X012743Y017472D02*
X012743Y017426D01*
X012801Y017286D01*
X012908Y017180D01*
X012975Y017152D01*
X012908Y017124D01*
X012801Y017017D01*
X012743Y016877D01*
X012743Y016726D01*
X012801Y016586D01*
X012908Y016480D01*
X013047Y016422D01*
X013193Y016422D01*
X013193Y016376D01*
X013251Y016236D01*
X013358Y016130D01*
X013497Y016072D01*
X013543Y016072D01*
X013543Y015897D01*
X013543Y015706D01*
X013638Y015612D01*
X013324Y015612D01*
X013014Y015612D01*
X012704Y015612D01*
X012488Y015612D01*
X013637Y015612D01*
X013543Y015771D02*
X012488Y015771D01*
X012488Y015929D02*
X013543Y015929D01*
X013459Y016088D02*
X012488Y016088D01*
X012488Y016246D02*
X013247Y016246D01*
X013193Y016405D02*
X012488Y016405D01*
X012488Y016563D02*
X012824Y016563D01*
X012745Y016722D02*
X012488Y016722D01*
X012488Y016880D02*
X012744Y016880D01*
X012823Y017039D02*
X012488Y017039D01*
X012488Y017198D02*
X012890Y017198D01*
X012772Y017356D02*
X012488Y017356D01*
X012488Y017515D02*
X012494Y017515D01*
X012488Y017517D02*
X012597Y017472D01*
X012743Y017472D01*
X012488Y017517D02*
X012488Y015612D01*
X011718Y015612D02*
X011503Y015612D01*
X011379Y015771D02*
X011718Y015771D01*
X011718Y015929D02*
X011221Y015929D01*
X011062Y016088D02*
X011718Y016088D01*
X011718Y016246D02*
X010904Y016246D01*
X010745Y016405D02*
X011718Y016405D01*
X011718Y016563D02*
X010587Y016563D01*
X009843Y014661D02*
X008953Y014661D01*
X008953Y014502D02*
X009843Y014502D01*
X009843Y014344D02*
X008953Y014344D01*
X008953Y014185D02*
X009731Y014185D01*
X009573Y014027D02*
X008953Y014027D01*
X008953Y013868D02*
X009414Y013868D01*
X009256Y013710D02*
X008953Y013710D01*
X008953Y013551D02*
X009193Y013551D01*
X009193Y013392D02*
X008953Y013392D01*
X008953Y013234D02*
X009193Y013234D01*
X009193Y013075D02*
X008953Y013075D01*
X008953Y012917D02*
X009193Y012917D01*
X009193Y012758D02*
X009004Y012758D01*
X009094Y012600D02*
X009193Y012600D01*
X009193Y012441D02*
X009103Y012441D01*
X009041Y012283D02*
X009193Y012283D01*
X007993Y011014D02*
X006753Y011014D01*
X006753Y010856D02*
X007952Y010856D01*
X007793Y010697D02*
X006753Y010697D01*
X006753Y010539D02*
X007635Y010539D01*
X007476Y010380D02*
X006753Y010380D01*
X006753Y010222D02*
X007318Y010222D01*
X007002Y010063D02*
X006753Y010063D01*
X006753Y009905D02*
X006796Y009905D01*
X006753Y009587D02*
X006759Y009587D01*
X006753Y009429D02*
X006858Y009429D01*
X006093Y010222D02*
X005808Y010222D01*
X005799Y010380D02*
X006093Y010380D01*
X005493Y012477D02*
X004144Y012477D01*
X004038Y012372D01*
X004038Y011882D01*
X003897Y011882D01*
X003808Y011845D01*
X003808Y011872D01*
X003702Y011977D01*
X002153Y011977D01*
X002153Y013526D01*
X002855Y013526D01*
X002855Y013934D01*
X002991Y013934D01*
X002991Y014069D01*
X003808Y014069D01*
X003808Y014122D01*
X003949Y014122D01*
X004038Y014159D01*
X004038Y014132D01*
X004144Y014026D01*
X005523Y014026D01*
X006093Y013456D01*
X006093Y012819D01*
X006088Y012824D01*
X005949Y012882D01*
X005797Y012882D01*
X005658Y012824D01*
X005551Y012717D01*
X005493Y012577D01*
X005493Y012477D01*
X005502Y012600D02*
X002153Y012600D01*
X002153Y012758D02*
X005592Y012758D01*
X006093Y012917D02*
X002153Y012917D01*
X002153Y013075D02*
X006093Y013075D01*
X006093Y013234D02*
X002153Y013234D01*
X002153Y013392D02*
X006093Y013392D01*
X005999Y013551D02*
X003727Y013551D01*
X003702Y013526D02*
X003808Y013632D01*
X003808Y013934D01*
X002991Y013934D01*
X002991Y013526D01*
X003702Y013526D01*
X003808Y013710D02*
X005840Y013710D01*
X005681Y013868D02*
X003808Y013868D01*
X004144Y014027D02*
X002991Y014027D01*
X002991Y014070D02*
X002855Y014070D01*
X002855Y014477D01*
X002153Y014477D01*
X002153Y014526D01*
X003493Y014526D01*
X003493Y014477D01*
X002991Y014477D01*
X002991Y014070D01*
X002991Y014185D02*
X002855Y014185D01*
X002855Y014344D02*
X002991Y014344D01*
X002991Y013868D02*
X002855Y013868D01*
X002855Y013710D02*
X002991Y013710D01*
X002991Y013551D02*
X002855Y013551D01*
X003493Y014502D02*
X002153Y014502D01*
X002153Y015477D02*
X002153Y015526D01*
X003702Y015526D01*
X003808Y015632D01*
X003808Y016111D01*
X003818Y016122D01*
X003949Y016122D01*
X004038Y016159D01*
X004038Y016132D01*
X004144Y016026D01*
X004855Y016026D01*
X004855Y016434D01*
X004991Y016434D01*
X004991Y016569D01*
X005808Y016569D01*
X005808Y016872D01*
X005702Y016977D01*
X004991Y016977D01*
X004991Y016570D01*
X004855Y016570D01*
X004855Y016977D01*
X004353Y016977D01*
X004353Y017026D01*
X005702Y017026D01*
X005807Y017131D01*
X005808Y017130D01*
X005947Y017072D01*
X006099Y017072D01*
X006143Y017090D01*
X006143Y015647D01*
X006053Y015557D01*
X006053Y015557D01*
X006028Y015532D01*
X005808Y015532D01*
X005808Y015872D01*
X005702Y015977D01*
X004144Y015977D01*
X004038Y015872D01*
X004038Y015382D01*
X003897Y015382D01*
X003808Y015345D01*
X003808Y015372D01*
X003702Y015477D01*
X002153Y015477D01*
X003726Y015454D02*
X004038Y015454D01*
X004038Y015612D02*
X003788Y015612D01*
X003808Y015771D02*
X004038Y015771D01*
X004096Y015929D02*
X003808Y015929D01*
X003808Y016088D02*
X004083Y016088D01*
X004855Y016088D02*
X004991Y016088D01*
X004991Y016026D02*
X005702Y016026D01*
X005808Y016132D01*
X005808Y016434D01*
X004991Y016434D01*
X004991Y016026D01*
X004991Y016246D02*
X004855Y016246D01*
X004855Y016405D02*
X004991Y016405D01*
X004991Y016563D02*
X006143Y016563D01*
X006143Y016405D02*
X005808Y016405D01*
X005808Y016246D02*
X006143Y016246D01*
X006143Y016088D02*
X005764Y016088D01*
X005750Y015929D02*
X006143Y015929D01*
X006143Y015771D02*
X005808Y015771D01*
X005808Y015612D02*
X006108Y015612D01*
X006143Y016722D02*
X005808Y016722D01*
X005799Y016880D02*
X006143Y016880D01*
X006143Y017039D02*
X005715Y017039D01*
X004991Y016880D02*
X004855Y016880D01*
X004855Y016722D02*
X004991Y016722D01*
X003423Y018477D02*
X003493Y018547D01*
X003493Y018677D01*
X003551Y018817D01*
X003658Y018924D01*
X003797Y018982D01*
X003949Y018982D01*
X004088Y018924D01*
X004089Y018923D01*
X004144Y018977D01*
X005313Y018977D01*
X005293Y019026D01*
X005293Y019177D01*
X005351Y019317D01*
X005458Y019424D01*
X005597Y019482D01*
X005749Y019482D01*
X005793Y019463D01*
X005793Y020040D01*
X005749Y020022D01*
X005597Y020022D01*
X005458Y020080D01*
X005351Y020186D01*
X005293Y020326D01*
X005293Y020477D01*
X005313Y020526D01*
X004144Y020526D01*
X004038Y020632D01*
X004038Y021122D01*
X003897Y021122D01*
X003808Y021159D01*
X003808Y021132D01*
X003702Y021026D01*
X002153Y021026D01*
X002153Y020977D01*
X002855Y020977D01*
X002855Y020570D01*
X002991Y020570D01*
X002991Y020977D01*
X003702Y020977D01*
X003808Y020872D01*
X003808Y020569D01*
X002991Y020569D01*
X002991Y020434D01*
X003808Y020434D01*
X003808Y020132D01*
X003702Y020026D01*
X002991Y020026D01*
X002991Y020434D01*
X002855Y020434D01*
X002855Y020026D01*
X002153Y020026D01*
X002153Y018477D01*
X003423Y018477D01*
X003493Y018624D02*
X002153Y018624D01*
X002153Y018783D02*
X003537Y018783D01*
X003700Y018941D02*
X002153Y018941D01*
X002153Y019100D02*
X005293Y019100D01*
X005327Y019259D02*
X002153Y019259D01*
X002153Y019417D02*
X005451Y019417D01*
X005793Y019576D02*
X002153Y019576D01*
X002153Y019734D02*
X005793Y019734D01*
X005793Y019893D02*
X002153Y019893D01*
X002855Y020051D02*
X002991Y020051D01*
X002991Y020210D02*
X002855Y020210D01*
X002855Y020368D02*
X002991Y020368D01*
X002991Y020527D02*
X004143Y020527D01*
X004038Y020685D02*
X003808Y020685D01*
X003808Y020844D02*
X004038Y020844D01*
X004038Y021003D02*
X002153Y021003D01*
X002855Y020844D02*
X002991Y020844D01*
X002991Y020685D02*
X002855Y020685D01*
X003808Y020368D02*
X005293Y020368D01*
X005341Y020210D02*
X003808Y020210D01*
X003727Y020051D02*
X005526Y020051D01*
X004108Y018941D02*
X004046Y018941D01*
X004108Y012441D02*
X002153Y012441D01*
X002153Y012283D02*
X004038Y012283D01*
X004038Y012124D02*
X002153Y012124D01*
X003714Y011966D02*
X004038Y011966D01*
X002991Y009905D02*
X002855Y009905D01*
X002855Y009746D02*
X002991Y009746D01*
X002991Y009587D02*
X002855Y009587D01*
X002855Y009429D02*
X002991Y009429D01*
X002991Y009270D02*
X002855Y009270D01*
X002855Y009112D02*
X002991Y009112D01*
X002763Y006575D02*
X002731Y006575D01*
X004382Y004751D02*
X004382Y004751D01*
X004751Y004437D02*
X004751Y004437D01*
X004944Y002327D02*
X004944Y002327D01*
X004922Y002294D02*
X005193Y002294D01*
X005193Y002136D02*
X004808Y002136D01*
X004751Y002067D02*
X004751Y002067D01*
X009132Y001982D02*
X009153Y002003D01*
X009153Y003001D01*
X009104Y003050D01*
X009242Y003050D01*
X009193Y003001D01*
X009193Y002522D01*
X009653Y002522D01*
X009653Y002482D01*
X009193Y002482D01*
X009193Y002003D01*
X009214Y001982D01*
X009132Y001982D01*
X009153Y002136D02*
X009193Y002136D01*
X009193Y002294D02*
X009153Y002294D01*
X009153Y002453D02*
X009193Y002453D01*
X009193Y002612D02*
X009153Y002612D01*
X009153Y002770D02*
X009193Y002770D01*
X009193Y002929D02*
X009153Y002929D01*
X010403Y003087D02*
X010443Y003087D01*
X013403Y003087D02*
X013443Y003087D01*
X013403Y002929D02*
X014531Y002929D01*
X014715Y002929D02*
X015796Y002929D01*
X015796Y003087D02*
X014945Y003087D01*
X013943Y003087D02*
X013903Y003087D01*
X017453Y005898D02*
X017453Y006206D01*
X018168Y006922D01*
X018303Y007056D01*
X018303Y007605D01*
X018529Y007605D01*
X018564Y007640D01*
X018679Y007525D01*
X019667Y007525D01*
X019893Y007751D01*
X019893Y006753D01*
X019667Y006979D01*
X019191Y006979D01*
X019191Y006520D01*
X019155Y006520D01*
X019155Y006979D01*
X018679Y006979D01*
X018399Y006699D01*
X018399Y006520D01*
X019154Y006520D01*
X019154Y006483D01*
X018399Y006483D01*
X018399Y006304D01*
X018679Y006025D01*
X019155Y006025D01*
X019155Y006483D01*
X019191Y006483D01*
X019191Y006025D01*
X019667Y006025D01*
X019893Y006251D01*
X019893Y005753D01*
X019667Y005979D01*
X018679Y005979D01*
X018564Y005864D01*
X018529Y005898D01*
X017986Y005898D01*
X017923Y005835D01*
X017860Y005898D01*
X017453Y005898D01*
X017453Y005941D02*
X018641Y005941D01*
X018604Y006099D02*
X017453Y006099D01*
X017505Y006258D02*
X018446Y006258D01*
X018399Y006417D02*
X017663Y006417D01*
X017822Y006575D02*
X018399Y006575D01*
X018434Y006734D02*
X017980Y006734D01*
X018139Y006892D02*
X018592Y006892D01*
X018297Y007051D02*
X019893Y007051D01*
X019893Y007209D02*
X018303Y007209D01*
X018303Y007368D02*
X019893Y007368D01*
X019893Y007526D02*
X019669Y007526D01*
X019827Y007685D02*
X019893Y007685D01*
X019893Y006892D02*
X019754Y006892D01*
X019742Y006099D02*
X019893Y006099D01*
X019893Y005941D02*
X019705Y005941D01*
X019864Y005782D02*
X019893Y005782D01*
X019191Y006099D02*
X019155Y006099D01*
X019155Y006258D02*
X019191Y006258D01*
X019191Y006417D02*
X019155Y006417D01*
X019155Y006575D02*
X019191Y006575D01*
X019191Y006734D02*
X019155Y006734D01*
X019155Y006892D02*
X019191Y006892D01*
X018677Y007526D02*
X018303Y007526D01*
X017212Y011088D02*
X016853Y011447D01*
X016853Y015540D01*
X016897Y015522D01*
X017049Y015522D01*
X017188Y015580D01*
X017212Y015603D01*
X017212Y015211D01*
X017317Y015105D01*
X017644Y015105D01*
X017678Y015072D01*
X018248Y014502D01*
X017678Y013932D01*
X017644Y013898D01*
X017317Y013898D01*
X017212Y013793D01*
X017212Y013211D01*
X017317Y013105D01*
X017860Y013105D01*
X017923Y013168D01*
X017986Y013105D01*
X018529Y013105D01*
X018564Y013140D01*
X018679Y013025D01*
X019667Y013025D01*
X019893Y013251D01*
X019893Y012253D01*
X019667Y012479D01*
X019191Y012479D01*
X019191Y012020D01*
X019155Y012020D01*
X019155Y012479D01*
X018679Y012479D01*
X018399Y012199D01*
X018399Y012020D01*
X019154Y012020D01*
X019154Y011983D01*
X018399Y011983D01*
X018399Y011804D01*
X018679Y011525D01*
X019155Y011525D01*
X019155Y011983D01*
X019191Y011983D01*
X019191Y011525D01*
X019667Y011525D01*
X019893Y011751D01*
X019893Y011253D01*
X019667Y011479D01*
X018679Y011479D01*
X018564Y011364D01*
X018529Y011398D01*
X017986Y011398D01*
X017923Y011335D01*
X017860Y011398D01*
X017317Y011398D01*
X017212Y011293D01*
X017212Y011088D01*
X017212Y011173D02*
X017127Y011173D01*
X017250Y011331D02*
X016969Y011331D01*
X016853Y011490D02*
X019893Y011490D01*
X019893Y011649D02*
X019791Y011649D01*
X019815Y011331D02*
X019893Y011331D01*
X019191Y011649D02*
X019155Y011649D01*
X019155Y011807D02*
X019191Y011807D01*
X019191Y011966D02*
X019155Y011966D01*
X019155Y012124D02*
X019191Y012124D01*
X019191Y012283D02*
X019155Y012283D01*
X019155Y012441D02*
X019191Y012441D01*
X018641Y012441D02*
X016853Y012441D01*
X016853Y012283D02*
X018483Y012283D01*
X018399Y012124D02*
X016853Y012124D01*
X016853Y011966D02*
X018399Y011966D01*
X018399Y011807D02*
X016853Y011807D01*
X016853Y011649D02*
X018555Y011649D01*
X018628Y013075D02*
X016853Y013075D01*
X016853Y012917D02*
X019893Y012917D01*
X019893Y013075D02*
X019718Y013075D01*
X019876Y013234D02*
X019893Y013234D01*
X019893Y012758D02*
X016853Y012758D01*
X016853Y012600D02*
X019893Y012600D01*
X019893Y012441D02*
X019705Y012441D01*
X019863Y012283D02*
X019893Y012283D01*
X018247Y014502D02*
X016853Y014502D01*
X016853Y014344D02*
X018090Y014344D01*
X017931Y014185D02*
X016853Y014185D01*
X016853Y014027D02*
X017773Y014027D01*
X017287Y013868D02*
X016853Y013868D01*
X016853Y013710D02*
X017212Y013710D01*
X017212Y013551D02*
X016853Y013551D01*
X016853Y013392D02*
X017212Y013392D01*
X017212Y013234D02*
X016853Y013234D01*
X016853Y014661D02*
X018089Y014661D01*
X017930Y014819D02*
X016853Y014819D01*
X016853Y014978D02*
X017772Y014978D01*
X017286Y015136D02*
X016853Y015136D01*
X016853Y015295D02*
X017212Y015295D01*
X017212Y015454D02*
X016853Y015454D01*
X017353Y016898D02*
X017353Y018605D01*
X017543Y018605D01*
X017543Y018109D01*
X017451Y018017D01*
X017393Y017877D01*
X017393Y017726D01*
X017451Y017586D01*
X017558Y017480D01*
X017697Y017422D01*
X017849Y017422D01*
X017988Y017480D01*
X018095Y017586D01*
X018153Y017726D01*
X018153Y017877D01*
X018095Y018017D01*
X018003Y018109D01*
X018003Y018605D01*
X018529Y018605D01*
X018564Y018640D01*
X018679Y018525D01*
X019667Y018525D01*
X019893Y018751D01*
X019893Y018201D01*
X019845Y018317D01*
X019738Y018424D01*
X019599Y018482D01*
X019447Y018482D01*
X019308Y018424D01*
X019201Y018317D01*
X019143Y018177D01*
X019143Y018026D01*
X019191Y017909D01*
X019191Y017520D01*
X019155Y017520D01*
X019155Y017979D01*
X018679Y017979D01*
X018399Y017699D01*
X018399Y017520D01*
X019154Y017520D01*
X019154Y017483D01*
X018399Y017483D01*
X018399Y017304D01*
X018679Y017025D01*
X019155Y017025D01*
X019155Y017483D01*
X019191Y017483D01*
X019191Y017025D01*
X019667Y017025D01*
X019693Y017051D01*
X019693Y016953D01*
X019667Y016979D01*
X018679Y016979D01*
X018564Y016864D01*
X018529Y016898D01*
X017986Y016898D01*
X017923Y016835D01*
X017860Y016898D01*
X017353Y016898D01*
X017353Y017039D02*
X018665Y017039D01*
X018581Y016880D02*
X018547Y016880D01*
X018506Y017198D02*
X017353Y017198D01*
X017353Y017356D02*
X018399Y017356D01*
X018399Y017673D02*
X018131Y017673D01*
X018153Y017832D02*
X018532Y017832D01*
X018106Y017990D02*
X019158Y017990D01*
X019155Y017832D02*
X019191Y017832D01*
X019191Y017673D02*
X019155Y017673D01*
X019154Y017515D02*
X018023Y017515D01*
X018003Y018149D02*
X019143Y018149D01*
X019197Y018307D02*
X018003Y018307D01*
X018003Y018466D02*
X019409Y018466D01*
X019637Y018466D02*
X019893Y018466D01*
X019893Y018624D02*
X019767Y018624D01*
X019849Y018307D02*
X019893Y018307D01*
X019191Y017356D02*
X019155Y017356D01*
X019155Y017198D02*
X019191Y017198D01*
X019191Y017039D02*
X019155Y017039D01*
X019681Y017039D02*
X019693Y017039D01*
X018579Y018624D02*
X018548Y018624D01*
X017543Y018466D02*
X017353Y018466D01*
X017353Y018307D02*
X017543Y018307D01*
X017543Y018149D02*
X017353Y018149D01*
X017353Y017990D02*
X017440Y017990D01*
X017393Y017832D02*
X017353Y017832D01*
X017353Y017673D02*
X017415Y017673D01*
X017353Y017515D02*
X017523Y017515D01*
X017878Y016880D02*
X017969Y016880D01*
X016893Y019813D02*
X016849Y019832D01*
X016697Y019832D01*
X016558Y019774D01*
X016453Y019669D01*
X016453Y019847D01*
X014690Y021610D01*
X014738Y021630D01*
X014845Y021736D01*
X014903Y021876D01*
X014903Y022027D01*
X014845Y022167D01*
X014753Y022259D01*
X014753Y025728D01*
X014783Y025728D01*
X014783Y026103D01*
X014783Y026103D01*
X014783Y025728D01*
X014905Y025728D01*
X015161Y025728D01*
X015416Y025728D01*
X015551Y025728D01*
X015672Y025728D01*
X015928Y025728D01*
X016063Y025728D01*
X016143Y025728D01*
X016143Y025547D01*
X016093Y025497D01*
X016093Y025306D01*
X016093Y020756D01*
X016228Y020622D01*
X016296Y020622D01*
X016296Y020376D01*
X016402Y020271D01*
X016893Y020271D01*
X016893Y019813D01*
X016893Y019893D02*
X016407Y019893D01*
X016453Y019734D02*
X016518Y019734D01*
X016249Y020051D02*
X016893Y020051D01*
X016893Y020210D02*
X016090Y020210D01*
X015932Y020368D02*
X016304Y020368D01*
X016296Y020527D02*
X015773Y020527D01*
X015615Y020685D02*
X016164Y020685D01*
X016093Y020844D02*
X015456Y020844D01*
X015297Y021003D02*
X016093Y021003D01*
X016093Y021161D02*
X015139Y021161D01*
X014980Y021320D02*
X016093Y021320D01*
X016093Y021478D02*
X014822Y021478D01*
X014745Y021637D02*
X016093Y021637D01*
X016093Y021795D02*
X014870Y021795D01*
X014903Y021954D02*
X016093Y021954D01*
X016093Y022112D02*
X014868Y022112D01*
X014753Y022271D02*
X016093Y022271D01*
X016093Y022429D02*
X014753Y022429D01*
X014753Y022588D02*
X016093Y022588D01*
X016093Y022747D02*
X014753Y022747D01*
X014753Y022905D02*
X016093Y022905D01*
X016093Y023064D02*
X014753Y023064D01*
X014753Y023222D02*
X016093Y023222D01*
X016093Y023381D02*
X014753Y023381D01*
X014753Y023539D02*
X016093Y023539D01*
X016093Y023698D02*
X014753Y023698D01*
X014753Y023856D02*
X016093Y023856D01*
X016093Y024015D02*
X014753Y024015D01*
X014753Y024173D02*
X016093Y024173D01*
X016093Y024332D02*
X014753Y024332D01*
X014753Y024491D02*
X016093Y024491D01*
X016093Y024649D02*
X014753Y024649D01*
X014753Y024808D02*
X016093Y024808D01*
X016093Y024966D02*
X014753Y024966D01*
X014753Y025125D02*
X016093Y025125D01*
X016093Y025283D02*
X014753Y025283D01*
X014753Y025442D02*
X016093Y025442D01*
X016143Y025600D02*
X014753Y025600D01*
X014783Y025759D02*
X014783Y025759D01*
X014783Y025917D02*
X014783Y025917D01*
X014783Y026076D02*
X014783Y026076D01*
X015551Y026076D02*
X015551Y026076D01*
X015551Y026103D02*
X015551Y025728D01*
X015551Y026103D01*
X015551Y026103D01*
X015551Y025917D02*
X015551Y025917D01*
X015551Y025759D02*
X015551Y025759D01*
X015820Y026682D02*
X015820Y027054D01*
X015897Y027022D01*
X016049Y027022D01*
X016188Y027080D01*
X016295Y027186D01*
X016353Y027326D01*
X016353Y027477D01*
X016295Y027617D01*
X016260Y027652D01*
X016295Y027686D01*
X016353Y027826D01*
X016353Y027977D01*
X016333Y028025D01*
X016453Y028025D01*
X016574Y028025D01*
X016574Y028400D01*
X016575Y028400D01*
X016575Y028025D01*
X016709Y028025D01*
X016815Y028131D01*
X016815Y028400D01*
X016575Y028400D01*
X016575Y028401D01*
X016815Y028401D01*
X016815Y028670D01*
X016794Y028691D01*
X016888Y028730D01*
X016995Y028836D01*
X017053Y028976D01*
X017053Y029106D01*
X017153Y029206D01*
X017153Y029994D01*
X017245Y030086D01*
X017303Y030226D01*
X017303Y030377D01*
X017245Y030517D01*
X017138Y030624D01*
X016999Y030682D01*
X016847Y030682D01*
X016708Y030624D01*
X016601Y030517D01*
X016543Y030377D01*
X016543Y030226D01*
X016601Y030086D01*
X016693Y029994D01*
X016693Y029929D01*
X016217Y029929D01*
X016173Y029885D01*
X016129Y029929D01*
X015549Y029929D01*
X014975Y029929D01*
X015053Y030006D01*
X015053Y030105D01*
X015279Y030105D01*
X015385Y030211D01*
X015385Y030793D01*
X015279Y030898D01*
X014953Y030898D01*
X014953Y030967D01*
X015155Y030967D01*
X015155Y031424D01*
X015310Y031424D01*
X015310Y030967D01*
X015622Y030967D01*
X015728Y031072D01*
X015728Y031424D01*
X015311Y031424D01*
X015311Y031579D01*
X015728Y031579D01*
X015728Y031822D01*
X019293Y031822D01*
X019293Y031147D01*
X019293Y031093D01*
X019196Y030996D01*
X019196Y030007D01*
X019443Y029761D01*
X019443Y028957D01*
X019144Y028957D01*
X019038Y028852D01*
X019038Y028152D01*
X019144Y028046D01*
X019493Y028046D01*
X019493Y027129D01*
X019467Y027129D01*
X019423Y027085D01*
X019379Y027129D01*
X019107Y027129D01*
X019107Y026770D01*
X019070Y026770D01*
X019070Y026733D01*
X019107Y026733D01*
X019107Y026375D01*
X019379Y026375D01*
X019423Y026418D01*
X019467Y026375D01*
X019739Y026375D01*
X019893Y026220D01*
X019893Y023253D01*
X019667Y023479D01*
X019191Y023479D01*
X019191Y023020D01*
X019155Y023020D01*
X019155Y023479D01*
X018679Y023479D01*
X018399Y023199D01*
X018399Y023020D01*
X019154Y023020D01*
X019154Y022983D01*
X018399Y022983D01*
X018399Y022804D01*
X018679Y022525D01*
X019155Y022525D01*
X019155Y022983D01*
X019191Y022983D01*
X019191Y022525D01*
X019667Y022525D01*
X019893Y022751D01*
X019893Y022253D01*
X019667Y022479D01*
X018679Y022479D01*
X018564Y022364D01*
X018529Y022398D01*
X017986Y022398D01*
X017923Y022335D01*
X017860Y022398D01*
X017703Y022398D01*
X017703Y026397D01*
X017568Y026532D01*
X017550Y026550D01*
X017550Y026958D01*
X017506Y027002D01*
X017550Y027045D01*
X017550Y027318D01*
X017192Y027318D01*
X017192Y027355D01*
X017550Y027355D01*
X017550Y027627D01*
X017444Y027733D01*
X017191Y027733D01*
X017191Y027355D01*
X017155Y027355D01*
X017155Y027733D01*
X016902Y027733D01*
X016796Y027627D01*
X016796Y027355D01*
X017154Y027355D01*
X017154Y027318D01*
X016796Y027318D01*
X016796Y027045D01*
X016840Y027002D01*
X016796Y026958D01*
X016796Y026682D01*
X016718Y026682D01*
X016528Y026682D01*
X016448Y026602D01*
X016368Y026682D01*
X016178Y026682D01*
X015820Y026682D01*
X015820Y026710D02*
X016796Y026710D01*
X016796Y026869D02*
X015820Y026869D01*
X015820Y027027D02*
X015884Y027027D01*
X016062Y027027D02*
X016814Y027027D01*
X016796Y027186D02*
X016294Y027186D01*
X016353Y027344D02*
X017154Y027344D01*
X017192Y027344D02*
X019493Y027344D01*
X019493Y027186D02*
X017550Y027186D01*
X017532Y027027D02*
X018696Y027027D01*
X018692Y027023D02*
X018692Y026770D01*
X019070Y026770D01*
X019070Y027129D01*
X018797Y027129D01*
X018692Y027023D01*
X018692Y026869D02*
X017550Y026869D01*
X017550Y026710D02*
X018692Y026710D01*
X018692Y026733D02*
X018692Y026480D01*
X018797Y026375D01*
X019070Y026375D01*
X019070Y026733D01*
X018692Y026733D01*
X018692Y026552D02*
X017550Y026552D01*
X017703Y026393D02*
X018779Y026393D01*
X019070Y026393D02*
X019107Y026393D01*
X019107Y026552D02*
X019070Y026552D01*
X019070Y026710D02*
X019107Y026710D01*
X019107Y026869D02*
X019070Y026869D01*
X019070Y027027D02*
X019107Y027027D01*
X019398Y026393D02*
X019448Y026393D01*
X019879Y026234D02*
X017703Y026234D01*
X017703Y026076D02*
X019893Y026076D01*
X019893Y025917D02*
X017703Y025917D01*
X017703Y025759D02*
X019893Y025759D01*
X019893Y025600D02*
X017703Y025600D01*
X017703Y025442D02*
X019893Y025442D01*
X019893Y025283D02*
X017703Y025283D01*
X017703Y025125D02*
X019893Y025125D01*
X019893Y024966D02*
X017703Y024966D01*
X017703Y024808D02*
X019893Y024808D01*
X019893Y024649D02*
X017703Y024649D01*
X017703Y024491D02*
X019893Y024491D01*
X019893Y024332D02*
X017703Y024332D01*
X017703Y024173D02*
X019893Y024173D01*
X019893Y024015D02*
X017703Y024015D01*
X017703Y023856D02*
X019893Y023856D01*
X019893Y023698D02*
X017703Y023698D01*
X017703Y023539D02*
X019893Y023539D01*
X019893Y023381D02*
X019765Y023381D01*
X019889Y022747D02*
X019893Y022747D01*
X019893Y022588D02*
X019730Y022588D01*
X019716Y022429D02*
X019893Y022429D01*
X019893Y022271D02*
X019875Y022271D01*
X019191Y022588D02*
X019155Y022588D01*
X019155Y022747D02*
X019191Y022747D01*
X019191Y022905D02*
X019155Y022905D01*
X019155Y023064D02*
X019191Y023064D01*
X019191Y023222D02*
X019155Y023222D01*
X019155Y023381D02*
X019191Y023381D01*
X018581Y023381D02*
X017703Y023381D01*
X017703Y023222D02*
X018422Y023222D01*
X018399Y023064D02*
X017703Y023064D01*
X017703Y022905D02*
X018399Y022905D01*
X018457Y022747D02*
X017703Y022747D01*
X017703Y022588D02*
X018616Y022588D01*
X018630Y022429D02*
X017703Y022429D01*
X016893Y022429D02*
X016553Y022429D01*
X016553Y022271D02*
X016893Y022271D01*
X016893Y022112D02*
X016553Y022112D01*
X016553Y021954D02*
X016893Y021954D01*
X016893Y021795D02*
X016553Y021795D01*
X016553Y021733D02*
X016553Y025306D01*
X016603Y025356D01*
X016603Y025728D01*
X016709Y025728D01*
X016815Y025833D01*
X016815Y025873D01*
X016893Y025794D01*
X016893Y021733D01*
X016691Y021733D01*
X016691Y021355D01*
X016655Y021355D01*
X016655Y021733D01*
X016553Y021733D01*
X016655Y021637D02*
X016691Y021637D01*
X016691Y021478D02*
X016655Y021478D01*
X016553Y022588D02*
X016893Y022588D01*
X016893Y022747D02*
X016553Y022747D01*
X016553Y022905D02*
X016893Y022905D01*
X016893Y023064D02*
X016553Y023064D01*
X016553Y023222D02*
X016893Y023222D01*
X016893Y023381D02*
X016553Y023381D01*
X016553Y023539D02*
X016893Y023539D01*
X016893Y023698D02*
X016553Y023698D01*
X016553Y023856D02*
X016893Y023856D01*
X016893Y024015D02*
X016553Y024015D01*
X016553Y024173D02*
X016893Y024173D01*
X016893Y024332D02*
X016553Y024332D01*
X016553Y024491D02*
X016893Y024491D01*
X016893Y024649D02*
X016553Y024649D01*
X016553Y024808D02*
X016893Y024808D01*
X016893Y024966D02*
X016553Y024966D01*
X016553Y025125D02*
X016893Y025125D01*
X016893Y025283D02*
X016553Y025283D01*
X016603Y025442D02*
X016893Y025442D01*
X016893Y025600D02*
X016603Y025600D01*
X016740Y025759D02*
X016893Y025759D01*
X016063Y025759D02*
X016063Y025759D01*
X016063Y025728D02*
X016063Y026103D01*
X016063Y026103D01*
X016063Y025728D01*
X016063Y025917D02*
X016063Y025917D01*
X016063Y026076D02*
X016063Y026076D01*
X016342Y027503D02*
X016796Y027503D01*
X016830Y027661D02*
X016270Y027661D01*
X016350Y027820D02*
X019493Y027820D01*
X019493Y027978D02*
X016353Y027978D01*
X016574Y028137D02*
X016575Y028137D01*
X016574Y028296D02*
X016575Y028296D01*
X016815Y028296D02*
X017424Y028296D01*
X017424Y028152D02*
X017424Y028444D01*
X018058Y028444D01*
X018058Y028560D01*
X018058Y028957D01*
X017530Y028957D01*
X017424Y028852D01*
X017424Y028560D01*
X018058Y028560D01*
X018174Y028560D01*
X018174Y028957D01*
X018702Y028957D01*
X018808Y028852D01*
X018808Y028560D01*
X018174Y028560D01*
X018174Y028444D01*
X018808Y028444D01*
X018808Y028152D01*
X018702Y028046D01*
X018174Y028046D01*
X018174Y028444D01*
X018058Y028444D01*
X018058Y028046D01*
X017530Y028046D01*
X017424Y028152D01*
X017439Y028137D02*
X016815Y028137D01*
X016815Y028454D02*
X018058Y028454D01*
X018174Y028454D02*
X019038Y028454D01*
X019038Y028296D02*
X018808Y028296D01*
X018793Y028137D02*
X019053Y028137D01*
X019038Y028613D02*
X018808Y028613D01*
X018808Y028771D02*
X019038Y028771D01*
X019116Y028930D02*
X018730Y028930D01*
X019443Y029088D02*
X017053Y029088D01*
X017034Y028930D02*
X017502Y028930D01*
X017424Y028771D02*
X016930Y028771D01*
X016815Y028613D02*
X017424Y028613D01*
X017153Y029247D02*
X019443Y029247D01*
X019443Y029405D02*
X017153Y029405D01*
X017153Y029564D02*
X019443Y029564D01*
X019443Y029722D02*
X017153Y029722D01*
X017153Y029881D02*
X018323Y029881D01*
X018196Y030007D02*
X018476Y029728D01*
X018655Y029728D01*
X018655Y030483D01*
X018691Y030483D01*
X018691Y029728D01*
X018871Y029728D01*
X019150Y030007D01*
X019150Y030483D01*
X018692Y030483D01*
X018692Y030520D01*
X019150Y030520D01*
X019150Y030996D01*
X018871Y031275D01*
X018691Y031275D01*
X018691Y030520D01*
X018655Y030520D01*
X018655Y031275D01*
X018476Y031275D01*
X018196Y030996D01*
X018196Y030520D01*
X018654Y030520D01*
X018654Y030483D01*
X018196Y030483D01*
X018196Y030007D01*
X018196Y030040D02*
X017198Y030040D01*
X017291Y030198D02*
X018196Y030198D01*
X018196Y030357D02*
X017303Y030357D01*
X017246Y030515D02*
X018654Y030515D01*
X018692Y030515D02*
X019196Y030515D01*
X019196Y030357D02*
X019150Y030357D01*
X019150Y030198D02*
X019196Y030198D01*
X019196Y030040D02*
X019150Y030040D01*
X019024Y029881D02*
X019323Y029881D01*
X018691Y029881D02*
X018655Y029881D01*
X018655Y030040D02*
X018691Y030040D01*
X018691Y030198D02*
X018655Y030198D01*
X018655Y030357D02*
X018691Y030357D01*
X018691Y030674D02*
X018655Y030674D01*
X018655Y030832D02*
X018691Y030832D01*
X018691Y030991D02*
X018655Y030991D01*
X018655Y031149D02*
X018691Y031149D01*
X018349Y031149D02*
X015728Y031149D01*
X015728Y031308D02*
X019293Y031308D01*
X019293Y031466D02*
X015311Y031466D01*
X015310Y031308D02*
X015155Y031308D01*
X015155Y031149D02*
X015310Y031149D01*
X015310Y030991D02*
X015155Y030991D01*
X015345Y030832D02*
X018196Y030832D01*
X018196Y030674D02*
X017018Y030674D01*
X016828Y030674D02*
X015385Y030674D01*
X015385Y030515D02*
X016600Y030515D01*
X016543Y030357D02*
X015385Y030357D01*
X015372Y030198D02*
X016555Y030198D01*
X016648Y030040D02*
X015053Y030040D01*
X015646Y030991D02*
X018196Y030991D01*
X018997Y031149D02*
X019293Y031149D01*
X019196Y030991D02*
X019150Y030991D01*
X019150Y030832D02*
X019196Y030832D01*
X019196Y030674D02*
X019150Y030674D01*
X019293Y031625D02*
X015728Y031625D01*
X015728Y031784D02*
X019293Y031784D01*
X018174Y028930D02*
X018058Y028930D01*
X018058Y028771D02*
X018174Y028771D01*
X018174Y028613D02*
X018058Y028613D01*
X018058Y028296D02*
X018174Y028296D01*
X018174Y028137D02*
X018058Y028137D01*
X017516Y027661D02*
X019493Y027661D01*
X019493Y027503D02*
X017550Y027503D01*
X017191Y027503D02*
X017155Y027503D01*
X017155Y027661D02*
X017191Y027661D01*
X013618Y031308D02*
X008504Y031308D01*
X008663Y031466D02*
X013618Y031466D01*
X013618Y031625D02*
X008821Y031625D01*
X008980Y031784D02*
X013618Y031784D01*
X013393Y027661D02*
X013311Y027661D01*
X008568Y032022D02*
X007723Y031177D01*
X007668Y031232D01*
X007478Y031232D01*
X005928Y031232D01*
X005793Y031097D01*
X005181Y030485D01*
X005196Y030590D01*
X005203Y030752D01*
X005196Y030914D01*
X005174Y031074D01*
X005137Y031232D01*
X005086Y031386D01*
X005022Y031534D01*
X004944Y031677D01*
X004854Y031811D01*
X004853Y031811D01*
X004751Y031937D01*
X004668Y032022D01*
X008568Y032022D01*
X008488Y031942D02*
X004746Y031942D01*
X004872Y031784D02*
X008330Y031784D01*
X008171Y031625D02*
X004972Y031625D01*
X005051Y031466D02*
X008013Y031466D01*
X007854Y031308D02*
X005112Y031308D01*
X005156Y031149D02*
X005845Y031149D01*
X005687Y030991D02*
X005185Y030991D01*
X005199Y030832D02*
X005528Y030832D01*
X005370Y030674D02*
X005199Y030674D01*
X005196Y030590D02*
X005196Y030590D01*
X005185Y030515D02*
X005211Y030515D01*
X004673Y027918D02*
X004610Y027855D01*
X004067Y027855D01*
X003962Y027961D01*
X003962Y028022D01*
X003775Y028022D01*
X003796Y028001D01*
X003863Y027839D01*
X003863Y027752D01*
X003423Y027752D01*
X003423Y027751D01*
X003423Y027751D01*
X003423Y027312D01*
X003336Y027312D01*
X003203Y027367D01*
X003203Y027137D01*
X003336Y027192D01*
X003511Y027192D01*
X003672Y027125D01*
X003796Y027001D01*
X003804Y026982D01*
X003962Y026982D01*
X003962Y027043D01*
X004067Y027148D01*
X004610Y027148D01*
X004673Y027085D01*
X004736Y027148D01*
X004793Y027148D01*
X004793Y027855D01*
X004736Y027855D01*
X004673Y027918D01*
X004793Y027820D02*
X003863Y027820D01*
X003863Y027751D02*
X003423Y027751D01*
X003423Y027312D01*
X003511Y027312D01*
X003672Y027379D01*
X003796Y027502D01*
X003863Y027664D01*
X003863Y027751D01*
X003862Y027661D02*
X004793Y027661D01*
X004793Y027503D02*
X003796Y027503D01*
X003589Y027344D02*
X004793Y027344D01*
X004793Y027186D02*
X003525Y027186D01*
X003423Y027344D02*
X003423Y027344D01*
X003423Y027503D02*
X003423Y027503D01*
X003423Y027661D02*
X003423Y027661D01*
X003257Y027344D02*
X003203Y027344D01*
X003203Y027186D02*
X003321Y027186D01*
X003770Y027027D02*
X003962Y027027D01*
X003962Y027978D02*
X003805Y027978D01*
X013778Y021003D02*
X014047Y021003D01*
X009088Y009112D02*
X009050Y009112D01*
X009097Y008953D02*
X009246Y008953D01*
X009097Y008795D02*
X009405Y008795D01*
X009651Y008636D02*
X009074Y008636D01*
D29*
X019173Y009002D02*
X020173Y009002D01*
X020173Y004002D01*
X019673Y003502D01*
X019173Y003502D01*
X020173Y009002D02*
X020173Y014502D01*
X019173Y014502D01*
X020173Y014502D02*
X020173Y020002D01*
X020173Y026336D01*
X019758Y026752D01*
X019773Y026752D01*
X019773Y028459D01*
X019730Y028502D01*
X019723Y028502D01*
X019723Y030502D01*
X019673Y030502D01*
X018673Y030502D02*
X018673Y029052D01*
X018123Y028502D01*
X018116Y028502D01*
X019073Y027545D01*
X019073Y026752D01*
X019073Y026502D01*
X019773Y025802D01*
X019773Y023552D01*
X019173Y022952D01*
X019173Y023002D01*
X019173Y020002D02*
X020173Y020002D01*
X019088Y026752D02*
X019073Y026752D01*
D30*
X018116Y028502D02*
X017623Y028252D01*
X017623Y027852D01*
X017323Y027552D01*
X017173Y027336D01*
X017173Y026667D02*
X017323Y026452D01*
X017473Y026302D01*
X017473Y022202D01*
X017588Y022002D01*
X017623Y021802D01*
X017623Y021202D01*
X017588Y021002D01*
X017773Y020802D01*
X018523Y020052D01*
X018523Y020002D01*
X018548Y019977D01*
X017773Y019202D01*
X017588Y019002D01*
X017773Y018802D01*
X017773Y017802D01*
X017588Y016502D02*
X017623Y016302D01*
X017623Y015702D01*
X017588Y015502D01*
X017773Y015302D01*
X018523Y014552D01*
X018523Y014502D01*
X018548Y014477D01*
X017773Y013702D01*
X017588Y013502D01*
X018258Y013502D02*
X019173Y013502D01*
X019173Y014502D02*
X018623Y014552D01*
X018548Y014477D01*
X018258Y015502D02*
X019173Y015502D01*
X019623Y015752D01*
X019923Y016052D01*
X019923Y017702D01*
X019523Y018102D01*
X019173Y019002D02*
X018258Y019002D01*
X018548Y019977D02*
X018623Y020052D01*
X019173Y020002D01*
X019173Y021002D02*
X018258Y021002D01*
X018258Y022002D02*
X019173Y022002D01*
X016773Y019452D02*
X016423Y019102D01*
X016423Y010452D01*
X016723Y010152D01*
X016723Y007552D01*
X016373Y007202D01*
X016023Y007352D02*
X016523Y007852D01*
X016523Y010052D01*
X016223Y010352D01*
X016223Y019752D01*
X014023Y021952D01*
X013223Y021952D01*
X012873Y021602D01*
X012873Y021302D01*
X012878Y021307D01*
X012568Y021307D02*
X012623Y021502D01*
X012623Y022102D01*
X012758Y022252D01*
X012973Y022402D01*
X013623Y023052D01*
X013623Y028152D01*
X013523Y028252D01*
X013523Y029152D01*
X014473Y030102D01*
X014823Y030102D01*
X014823Y030302D01*
X015008Y030502D01*
X014823Y030702D01*
X014723Y030802D01*
X014723Y031952D01*
X014798Y032027D01*
X014773Y032052D01*
X008923Y032052D01*
X007923Y031052D01*
X007923Y030902D01*
X007773Y030752D01*
X007673Y030502D01*
X007573Y030752D01*
X007573Y031002D01*
X006023Y031002D01*
X005373Y030352D01*
X005373Y028652D01*
X005173Y028452D01*
X005008Y028252D01*
X005023Y028052D01*
X005023Y026952D01*
X005008Y026752D01*
X004873Y026302D02*
X002973Y026302D01*
X002973Y028252D01*
X002423Y028252D01*
X002973Y028252D02*
X004338Y028252D01*
X004338Y026752D02*
X003423Y026752D01*
X002373Y026502D02*
X003173Y025702D01*
X003173Y025202D01*
X003873Y025002D02*
X004923Y025002D01*
X004923Y024002D02*
X003873Y024002D01*
X003973Y024502D02*
X002923Y024502D01*
X002923Y023502D02*
X003973Y023502D01*
X003873Y023002D02*
X004923Y023002D01*
X004923Y022002D02*
X003873Y022002D01*
X003973Y021502D02*
X002923Y021502D01*
X002923Y022502D02*
X003973Y022502D01*
X004923Y021002D02*
X005623Y020752D01*
X005673Y020702D01*
X005673Y020402D01*
X006323Y019952D02*
X006323Y027302D01*
X006573Y027552D01*
X006573Y029652D01*
X006773Y029352D02*
X007073Y029652D01*
X007223Y030102D02*
X007573Y029752D01*
X007673Y029502D01*
X007623Y029252D01*
X007623Y022002D01*
X007523Y021852D01*
X007223Y021552D01*
X007223Y020452D01*
X007423Y020252D01*
X007923Y020252D01*
X008118Y020267D01*
X008118Y020577D02*
X007923Y020602D01*
X007573Y020602D01*
X008118Y020577D02*
X008323Y020652D01*
X008773Y021102D01*
X008848Y021307D01*
X008873Y021102D01*
X008873Y020902D01*
X009223Y020902D01*
X009223Y016802D01*
X009273Y016752D01*
X009023Y017102D02*
X008823Y016902D01*
X008823Y015752D01*
X008223Y015152D01*
X008223Y010802D01*
X007123Y009702D01*
X006323Y009002D02*
X004923Y009002D01*
X004923Y010002D02*
X005623Y009752D01*
X005973Y009402D01*
X005973Y009352D01*
X006323Y009002D02*
X006323Y013552D01*
X005623Y014252D01*
X004923Y014502D01*
X003873Y014502D01*
X003973Y015002D02*
X002923Y015002D01*
X002923Y016002D02*
X003623Y016252D01*
X003873Y016502D01*
X003973Y017002D02*
X002923Y017002D01*
X002923Y018002D02*
X003623Y018252D01*
X003623Y018352D01*
X003873Y018602D01*
X003973Y018002D02*
X004223Y017752D01*
X004923Y017502D01*
X004923Y018502D02*
X005623Y018752D01*
X005623Y019052D01*
X005673Y019102D01*
X006323Y019952D02*
X007073Y019202D01*
X007073Y018102D01*
X007923Y018102D01*
X008118Y018097D01*
X008118Y017787D02*
X008323Y017802D01*
X008673Y017802D01*
X008673Y018152D01*
X008673Y018702D02*
X008323Y018702D01*
X008118Y018717D01*
X008118Y019027D02*
X007923Y019002D01*
X007423Y019002D01*
X007423Y018452D01*
X006723Y018352D02*
X006373Y018002D01*
X006373Y015552D01*
X006148Y015327D01*
X006523Y014952D01*
X006523Y008252D01*
X005623Y008252D01*
X004923Y008002D01*
X003973Y008502D02*
X002923Y008502D01*
X002923Y007502D02*
X003973Y007502D01*
X002923Y009502D02*
X003623Y009752D01*
X004223Y009752D01*
X004923Y010002D01*
X004923Y011002D02*
X005623Y011252D01*
X005873Y011502D01*
X005623Y012252D02*
X004923Y012002D01*
X005623Y012252D02*
X005873Y012502D01*
X005623Y013752D02*
X003623Y013752D01*
X002923Y014002D01*
X002923Y011502D02*
X003973Y011502D01*
X003973Y010502D02*
X002923Y010502D01*
X004923Y015502D02*
X005623Y015302D01*
X006123Y015302D01*
X006148Y015327D01*
X006023Y015852D02*
X005623Y016252D01*
X004923Y016502D01*
X006023Y017452D02*
X006023Y025152D01*
X004873Y026302D01*
X005973Y027252D02*
X006223Y027502D01*
X006223Y029752D01*
X006073Y029902D01*
X006073Y030252D01*
X006623Y030802D01*
X007223Y030802D01*
X007223Y030102D01*
X006773Y029352D02*
X006773Y027302D01*
X006673Y027202D01*
X006673Y020252D01*
X007023Y020002D02*
X007023Y024302D01*
X006873Y024452D01*
X006873Y025402D01*
X007023Y025552D01*
X007373Y025752D02*
X007123Y026002D01*
X007123Y029152D01*
X005873Y029002D02*
X005873Y028152D01*
X005723Y029502D02*
X005723Y030202D01*
X008123Y030952D02*
X008123Y026102D01*
X007923Y025902D01*
X007923Y021502D01*
X008338Y022002D02*
X008523Y021852D01*
X008623Y021752D01*
X008623Y021652D01*
X008773Y021502D01*
X008848Y021307D01*
X009158Y021307D02*
X009123Y021502D01*
X009123Y021852D01*
X009008Y022002D01*
X009123Y022152D01*
X009123Y027552D01*
X009323Y027752D01*
X009673Y028062D01*
X010023Y028052D01*
X010323Y028052D01*
X010673Y028062D01*
X011023Y028052D01*
X012123Y028052D01*
X012673Y028002D01*
X012223Y028252D01*
X012223Y029802D01*
X011773Y030252D01*
X011673Y030502D01*
X011423Y030602D01*
X010423Y031602D01*
X009873Y030952D02*
X008123Y030952D01*
X009223Y029902D02*
X009223Y029402D01*
X008923Y029102D01*
X008923Y025352D01*
X008773Y025202D01*
X008423Y025902D02*
X008573Y026052D01*
X008573Y029252D01*
X008673Y029502D01*
X009223Y029902D02*
X009573Y030252D01*
X009673Y030502D01*
X009873Y030952D02*
X010123Y030702D01*
X010123Y030202D01*
X010573Y029752D01*
X010673Y029502D01*
X011573Y027702D02*
X011573Y025902D01*
X011423Y025752D01*
X011073Y026102D02*
X011223Y026252D01*
X011073Y026102D02*
X011073Y021502D01*
X011018Y021307D01*
X010708Y021307D02*
X010723Y021502D01*
X010723Y022302D01*
X010773Y022352D01*
X010773Y024852D01*
X010723Y024902D01*
X010473Y025252D02*
X010673Y025417D01*
X010473Y025252D02*
X010073Y024852D01*
X010073Y021502D01*
X010088Y021307D01*
X009778Y021307D02*
X009723Y021502D01*
X009723Y025252D01*
X009673Y025417D01*
X009673Y026086D02*
X009673Y026942D01*
X010673Y026942D02*
X010673Y026086D01*
X011423Y024602D02*
X011373Y024552D01*
X011373Y021502D01*
X011328Y021307D01*
X011638Y021307D02*
X011673Y021502D01*
X011673Y024352D01*
X011923Y024602D01*
X011923Y026402D01*
X012673Y028002D02*
X013123Y027752D01*
X013423Y027452D01*
X013423Y025802D01*
X012223Y024602D01*
X012223Y022402D01*
X012088Y022252D01*
X012223Y022102D01*
X012223Y021502D01*
X012258Y021307D01*
X011948Y021307D02*
X011973Y021102D01*
X011973Y020952D01*
X012173Y020752D01*
X013173Y021302D02*
X013173Y021602D01*
X013323Y021752D01*
X013923Y021752D01*
X016023Y019652D01*
X016023Y010252D01*
X016323Y009952D01*
X016323Y007952D01*
X015823Y007452D01*
X015823Y007052D01*
X015623Y006852D01*
X014862Y006852D01*
X014862Y007352D02*
X015223Y007352D01*
X016123Y008252D01*
X016123Y009852D01*
X015823Y010152D01*
X015823Y019552D01*
X014073Y021302D01*
X013523Y021302D01*
X013518Y021307D01*
X013498Y021307D01*
X013188Y021307D02*
X013178Y021307D01*
X013173Y021302D01*
X013273Y020302D02*
X011948Y018977D01*
X011948Y015197D01*
X011638Y015197D02*
X011673Y015002D01*
X011673Y014302D01*
X012323Y013652D01*
X012323Y012652D01*
X011773Y012102D01*
X011223Y011052D02*
X010623Y011052D01*
X010173Y010602D01*
X010173Y010041D01*
X010173Y009852D01*
X009673Y010041D02*
X009773Y010252D01*
X009773Y013352D01*
X009973Y013502D01*
X010073Y013752D01*
X010673Y014352D01*
X010673Y015002D01*
X010708Y015197D01*
X011018Y015197D02*
X011073Y015002D01*
X011073Y014452D01*
X011773Y013752D01*
X011873Y013502D01*
X012568Y014907D02*
X013423Y014052D01*
X013423Y013252D01*
X011223Y011052D01*
X011323Y010852D02*
X010823Y010852D01*
X010673Y010702D01*
X010673Y010041D01*
X010673Y009902D01*
X011173Y010041D02*
X011173Y010652D01*
X011423Y010652D01*
X013823Y013052D01*
X013823Y014252D01*
X013188Y014887D01*
X013188Y015197D01*
X013498Y015197D02*
X013498Y014877D01*
X014023Y014352D01*
X014023Y012952D01*
X011673Y010602D01*
X011673Y010041D01*
X012173Y010041D02*
X012173Y010702D01*
X012823Y011352D01*
X014623Y011352D01*
X014823Y011552D01*
X014823Y019002D01*
X014523Y019302D01*
X014263Y019302D01*
X014228Y019337D01*
X014223Y019602D02*
X014523Y019602D01*
X015023Y019102D01*
X015023Y011452D01*
X014723Y011152D01*
X012923Y011152D01*
X012673Y010902D01*
X012673Y010041D01*
X013173Y010041D02*
X013173Y010802D01*
X013673Y010041D02*
X013673Y008752D01*
X014023Y008752D01*
X013673Y008752D02*
X013673Y006702D01*
X014423Y005952D01*
X014862Y005852D01*
X015073Y005952D01*
X015523Y005952D01*
X015773Y005936D01*
X015423Y006352D02*
X016023Y006952D01*
X016023Y007352D01*
X015223Y007852D02*
X015923Y008552D01*
X015923Y009752D01*
X015623Y010052D01*
X015623Y019452D01*
X014523Y020552D01*
X014223Y020552D01*
X014228Y020557D01*
X014228Y020577D01*
X014228Y020267D02*
X014228Y020257D01*
X014223Y020252D01*
X014523Y020252D01*
X015423Y019352D01*
X015423Y009952D01*
X015723Y009652D01*
X015723Y008852D01*
X015223Y008352D01*
X014862Y008352D01*
X014862Y008852D02*
X015323Y008852D01*
X015523Y009052D01*
X015523Y009552D01*
X015223Y009852D01*
X015223Y019202D01*
X014473Y019952D01*
X014223Y019952D01*
X014228Y019957D01*
X014228Y019647D02*
X014228Y019607D01*
X014223Y019602D01*
X014228Y019027D02*
X014498Y019027D01*
X014623Y018902D01*
X014623Y011902D01*
X014423Y011702D01*
X014223Y012252D02*
X014423Y012452D01*
X014423Y015852D01*
X014348Y015927D01*
X014228Y015927D01*
X014123Y015652D02*
X013923Y015652D01*
X013773Y015802D01*
X013773Y016102D01*
X013908Y016237D01*
X014228Y016237D01*
X014228Y016547D02*
X013928Y016547D01*
X013923Y016552D01*
X013673Y016552D01*
X013573Y016452D01*
X013123Y016802D02*
X014283Y016802D01*
X014228Y016857D01*
X014228Y017167D02*
X014023Y017152D01*
X013573Y017152D01*
X013423Y017702D02*
X013273Y017852D01*
X012673Y017852D01*
X013123Y017502D02*
X014023Y017502D01*
X014228Y017477D01*
X014193Y017752D02*
X013823Y017752D01*
X013773Y017702D01*
X013423Y017702D01*
X013573Y018052D02*
X014023Y018052D01*
X014228Y018097D01*
X014228Y018407D02*
X014183Y018452D01*
X013173Y018452D01*
X013623Y018802D02*
X013673Y018752D01*
X014193Y018752D01*
X014228Y018717D01*
X014228Y017787D02*
X014193Y017752D01*
X014123Y015652D02*
X014223Y015552D01*
X014223Y012852D01*
X013523Y012152D01*
X013523Y011702D01*
X013623Y013152D02*
X011323Y010852D01*
X011723Y009252D02*
X010523Y008052D01*
X010523Y004352D01*
X010273Y004102D01*
X010173Y003663D01*
X009673Y003663D02*
X009673Y004052D01*
X010073Y004452D01*
X009723Y004952D02*
X009123Y004352D01*
X008484Y004352D01*
X008573Y004352D01*
X008484Y004852D02*
X009123Y004852D01*
X009273Y005002D01*
X009023Y005352D02*
X008484Y005352D01*
X008273Y005752D02*
X008023Y005752D01*
X007823Y005552D01*
X007823Y003502D01*
X008673Y002652D01*
X008673Y002502D01*
X009173Y003663D02*
X009173Y004102D01*
X010073Y005002D01*
X009723Y004952D02*
X009723Y005552D01*
X009873Y005702D01*
X009373Y005702D02*
X009023Y005352D01*
X008484Y005852D02*
X008273Y005752D01*
X008273Y006252D02*
X008484Y006352D01*
X008273Y006252D02*
X007823Y006252D01*
X007623Y006052D01*
X007623Y003052D01*
X007673Y002502D01*
X006673Y002752D02*
X007423Y003502D01*
X007423Y006552D01*
X007623Y006752D01*
X008273Y006752D01*
X008484Y006852D01*
X008273Y007252D02*
X008484Y007352D01*
X008273Y007252D02*
X007423Y007252D01*
X007223Y007052D01*
X007223Y003652D01*
X006923Y003352D01*
X005823Y003352D01*
X005673Y003202D01*
X005673Y002502D01*
X006673Y002502D02*
X006673Y002752D01*
X009173Y003663D02*
X009173Y003752D01*
X009673Y002502D02*
X010073Y002052D01*
X011523Y002052D01*
X011523Y002602D01*
X011508Y002602D01*
X011673Y002802D01*
X011673Y003663D01*
X011773Y004102D01*
X011773Y005702D01*
X011423Y005952D02*
X011623Y006152D01*
X012173Y006152D01*
X012523Y005102D02*
X012523Y009052D01*
X012323Y009252D01*
X011723Y008752D02*
X010723Y007752D01*
X010723Y004102D01*
X010673Y003663D01*
X010773Y003452D01*
X010773Y002802D01*
X010838Y002602D01*
X011523Y002052D02*
X013623Y002052D01*
X014223Y002652D01*
X016023Y002652D01*
X016173Y002836D01*
X016323Y002302D02*
X016173Y002167D01*
X016323Y002302D02*
X017423Y002302D01*
X017588Y002502D01*
X017773Y002702D01*
X018523Y003452D01*
X018523Y003502D01*
X018548Y003527D01*
X017773Y004302D01*
X017588Y004502D01*
X017623Y004702D01*
X017623Y005302D01*
X017588Y005502D01*
X017223Y006302D02*
X018073Y007152D01*
X018073Y007802D01*
X018258Y008002D01*
X019173Y008002D01*
X019173Y009002D02*
X018623Y009052D01*
X018548Y008977D01*
X018523Y009002D01*
X018523Y009052D01*
X017773Y009802D01*
X017588Y010002D01*
X017623Y010202D01*
X017623Y010802D01*
X017588Y011002D01*
X017123Y010852D02*
X017123Y006952D01*
X016373Y006202D01*
X016373Y003602D01*
X016173Y003402D01*
X014723Y003402D01*
X014623Y003302D01*
X014173Y003663D02*
X014073Y004102D01*
X013723Y004452D01*
X013723Y006352D01*
X013323Y006752D01*
X013323Y006852D01*
X013373Y006102D02*
X013523Y005952D01*
X013523Y004152D01*
X013573Y004102D01*
X013673Y003663D01*
X013173Y003663D02*
X013173Y002602D01*
X013373Y002402D01*
X012673Y002852D02*
X012673Y003663D01*
X012173Y003663D02*
X012273Y004102D01*
X012623Y004452D01*
X013173Y004452D02*
X012523Y005102D01*
X011423Y004252D02*
X011423Y005952D01*
X011073Y006852D02*
X011073Y004452D01*
X011273Y004102D02*
X011423Y004252D01*
X011273Y004102D02*
X011173Y003663D01*
X014073Y004852D02*
X014862Y004852D01*
X015073Y005252D02*
X014862Y005352D01*
X014423Y005402D01*
X014073Y005402D01*
X014862Y006352D02*
X015423Y006352D01*
X016173Y006302D02*
X016923Y007052D01*
X016923Y010502D01*
X016773Y010652D01*
X017123Y010852D02*
X016623Y011352D01*
X016623Y018752D01*
X016773Y018902D01*
X016673Y020667D02*
X016523Y020852D01*
X016323Y020852D01*
X016323Y025402D01*
X016373Y025452D01*
X016373Y025952D01*
X016319Y026103D01*
X016373Y026102D01*
X016523Y026102D01*
X016575Y026103D01*
X016623Y026252D01*
X016623Y026452D01*
X017023Y026452D01*
X017173Y026667D01*
X017123Y026102D02*
X017123Y016052D01*
X016973Y015902D01*
X018258Y016502D02*
X019173Y016502D01*
X016673Y021336D02*
X016673Y021902D01*
X014523Y021952D02*
X014523Y025952D01*
X014527Y026103D01*
X014573Y026252D01*
X014573Y026402D01*
X015223Y027052D01*
X015423Y026917D01*
X015623Y027402D02*
X015423Y027586D01*
X015223Y027702D01*
X014823Y028102D01*
X014823Y028252D01*
X014783Y028400D01*
X014527Y028400D02*
X014573Y028552D01*
X014573Y028902D01*
X014373Y029402D02*
X014588Y029552D01*
X014373Y029402D02*
X013723Y028752D01*
X013723Y028552D01*
X013873Y028402D01*
X014023Y028052D02*
X014223Y028252D01*
X014271Y028400D01*
X014527Y028400D02*
X014523Y028252D01*
X014523Y027752D01*
X014423Y027586D01*
X014023Y027302D02*
X014223Y027102D01*
X014423Y026917D01*
X014223Y026752D01*
X014023Y026552D01*
X014023Y022302D01*
X012573Y022802D02*
X012573Y023502D01*
X010423Y022502D02*
X010423Y021502D01*
X010398Y021307D01*
X009468Y021307D02*
X009423Y021102D01*
X009423Y020952D01*
X009373Y020902D01*
X009223Y020902D01*
X008673Y020252D02*
X008673Y019552D01*
X008473Y019352D01*
X008323Y019352D01*
X008118Y019337D01*
X008118Y019647D02*
X007923Y019602D01*
X007573Y019602D01*
X007923Y019952D02*
X008118Y019957D01*
X007923Y019952D02*
X007073Y019952D01*
X007023Y020002D01*
X007073Y019952D02*
X007073Y019702D01*
X007923Y017452D02*
X008118Y017477D01*
X008323Y017452D01*
X008673Y017452D01*
X009023Y017102D02*
X009023Y019052D01*
X008873Y019202D01*
X009573Y019852D02*
X009573Y017452D01*
X009723Y017102D02*
X009923Y017302D01*
X009923Y019002D01*
X009723Y017102D02*
X009723Y015402D01*
X009778Y015197D01*
X010088Y015197D02*
X010073Y015402D01*
X010073Y015752D01*
X010423Y015602D02*
X010573Y015752D01*
X010423Y015602D02*
X010423Y015402D01*
X010398Y015197D01*
X010088Y015197D02*
X010073Y015002D01*
X010073Y014202D01*
X009423Y013552D01*
X009423Y010802D01*
X009173Y010041D02*
X009173Y009652D01*
X009573Y009252D01*
X010423Y009252D01*
X009923Y008902D02*
X009623Y008902D01*
X009173Y009352D01*
X008484Y009352D01*
X008573Y009352D01*
X009129Y009946D02*
X009173Y010041D01*
X009123Y009952D02*
X009129Y009946D01*
X008923Y007952D02*
X008484Y007852D01*
X008923Y007952D02*
X010123Y007952D01*
X008723Y012502D02*
X008723Y014952D01*
X008773Y015002D01*
X008848Y015197D01*
X008523Y015752D02*
X008523Y016202D01*
X008323Y016202D01*
X008118Y016237D01*
X008118Y016547D02*
X007923Y016502D01*
X007423Y016502D01*
X007423Y013852D01*
X006873Y013302D01*
X007623Y013302D02*
X007623Y015552D01*
X007923Y015852D01*
X008118Y015927D01*
X008523Y015752D02*
X008023Y015252D01*
X008023Y013202D01*
X006873Y012052D01*
X007073Y015002D02*
X007073Y017202D01*
X007923Y017202D01*
X008118Y017167D01*
X008118Y016857D02*
X007923Y016852D01*
X007423Y016852D01*
X007923Y017452D02*
X006723Y017452D01*
X006723Y016652D01*
X010123Y016702D02*
X010123Y017002D01*
X010123Y016702D02*
X011273Y015552D01*
X011273Y015402D01*
X011328Y015197D01*
X012258Y015197D02*
X012258Y018787D01*
X013223Y019752D01*
X012878Y015197D02*
X012878Y014897D01*
X013623Y014152D01*
X013623Y013152D01*
X012568Y014907D02*
X012568Y015197D01*
X014423Y009252D02*
X014862Y009352D01*
X014423Y009252D02*
X014023Y009252D01*
X014862Y007852D02*
X015223Y007852D01*
X016173Y006302D02*
X016173Y004702D01*
X015823Y004352D01*
X014862Y004352D01*
X015073Y005252D02*
X015523Y005252D01*
X015773Y005267D01*
X016873Y004952D02*
X016873Y006102D01*
X017223Y006302D02*
X017223Y003702D01*
X017173Y003652D01*
X018258Y004502D02*
X019173Y004502D01*
X019173Y005502D02*
X018258Y005502D01*
X018548Y003527D02*
X018623Y003452D01*
X019173Y003502D01*
X019173Y002502D02*
X018258Y002502D01*
X017588Y008002D02*
X017773Y008202D01*
X018548Y008977D01*
X018258Y010002D02*
X019173Y010002D01*
X019173Y011002D02*
X018258Y011002D01*
X016023Y025602D02*
X016023Y025752D01*
X015998Y025777D01*
X016023Y025802D01*
X016023Y025952D01*
X016063Y026103D01*
X016073Y025952D01*
X015998Y025777D02*
X015973Y025752D01*
X015523Y025752D01*
X015523Y025952D01*
X015551Y026103D01*
X015523Y025752D02*
X014873Y025752D01*
X014823Y025802D01*
X014823Y025952D01*
X014783Y026103D01*
X015039Y026103D02*
X015073Y026252D01*
X015073Y026402D01*
X015123Y026452D01*
X016273Y026452D01*
X016273Y026252D01*
X016319Y026103D01*
X015973Y027402D02*
X015623Y027402D01*
X015473Y027952D02*
X015973Y027952D01*
X015973Y027902D01*
X016063Y028400D02*
X016023Y028552D01*
X016023Y029002D01*
X015973Y029052D01*
X015773Y028752D02*
X015623Y028902D01*
X015623Y029252D01*
X015673Y029302D01*
X015673Y029402D01*
X015838Y029552D01*
X015423Y029402D02*
X015423Y028802D01*
X015523Y028702D01*
X015523Y028552D01*
X015551Y028400D01*
X015295Y028400D02*
X015323Y028252D01*
X015323Y028102D01*
X015473Y027952D01*
X015807Y028400D02*
X015773Y028552D01*
X015773Y028752D01*
X015073Y028552D02*
X015039Y028400D01*
X015073Y028552D02*
X015073Y029052D01*
X015423Y029402D02*
X015258Y029552D01*
X014338Y030502D02*
X014373Y030702D01*
X014373Y031152D01*
X014113Y031502D01*
X014798Y032027D02*
X014823Y032052D01*
X019523Y032052D01*
X019523Y031052D01*
X019673Y030502D01*
X018673Y030502D02*
X018523Y031052D01*
X018523Y031152D01*
X015523Y031152D01*
X015233Y031502D01*
X016508Y029552D02*
X016323Y029402D01*
X016323Y028552D01*
X016319Y028400D01*
X016575Y028400D02*
X016623Y028402D01*
X017623Y028402D01*
X018116Y028502D01*
X016923Y029302D02*
X016923Y030302D01*
X016923Y029302D02*
X016673Y029052D01*
X014023Y028052D02*
X014023Y027302D01*
X007373Y025752D02*
X007373Y024702D01*
X007273Y024602D01*
X003323Y020252D02*
X003323Y019052D01*
X003323Y020252D02*
X002923Y020502D01*
D31*
X003973Y021502D03*
X003873Y022002D03*
X003973Y022502D03*
X003873Y023002D03*
X003973Y023502D03*
X003873Y024002D03*
X003973Y024502D03*
X003873Y025002D03*
X003173Y025202D03*
X002373Y026502D03*
X005723Y029502D03*
X005873Y029002D03*
X005873Y028152D03*
X005973Y027252D03*
X007023Y025552D03*
X007273Y024602D03*
X008423Y025902D03*
X008773Y025202D03*
X009223Y023852D03*
X010423Y022502D03*
X011423Y024602D03*
X010723Y024902D03*
X011423Y025752D03*
X011223Y026252D03*
X011923Y026402D03*
X011573Y027702D03*
X012723Y024752D03*
X012573Y023502D03*
X012573Y022802D03*
X012173Y020752D03*
X013273Y020302D03*
X013223Y019752D03*
X013623Y018802D03*
X013173Y018452D03*
X013573Y018052D03*
X013123Y017502D03*
X012673Y017852D03*
X013573Y017152D03*
X013123Y016802D03*
X013573Y016452D03*
X012873Y015902D03*
X011323Y016702D03*
X010573Y015752D03*
X010073Y015752D03*
X010123Y017002D03*
X009573Y017452D03*
X009273Y016752D03*
X008673Y017452D03*
X008673Y018152D03*
X008673Y018702D03*
X008873Y019202D03*
X009573Y019852D03*
X009923Y019002D03*
X008673Y020252D03*
X007573Y020602D03*
X007573Y019602D03*
X007073Y019702D03*
X006673Y020252D03*
X005673Y020402D03*
X005673Y019102D03*
X006723Y018352D03*
X007423Y018452D03*
X007423Y016852D03*
X006723Y016652D03*
X006023Y017452D03*
X006023Y015852D03*
X007073Y015002D03*
X006873Y013302D03*
X007623Y013302D03*
X007673Y012202D03*
X006873Y012052D03*
X005873Y012502D03*
X005873Y011502D03*
X007123Y010452D03*
X007123Y009702D03*
X005973Y009352D03*
X003973Y008502D03*
X003973Y007502D03*
X003973Y010502D03*
X003973Y011502D03*
X005623Y013752D03*
X003973Y015002D03*
X003873Y014502D03*
X003873Y016502D03*
X003973Y017002D03*
X003973Y018002D03*
X003873Y018602D03*
X003323Y019052D03*
X007523Y021852D03*
X007923Y021502D03*
X007123Y029152D03*
X007073Y029652D03*
X006573Y029652D03*
X005723Y030202D03*
X005573Y031652D03*
X010423Y031602D03*
X013873Y028402D03*
X014573Y028902D03*
X015073Y029052D03*
X015973Y029052D03*
X016673Y029052D03*
X015973Y027902D03*
X015973Y027402D03*
X017123Y026102D03*
X016023Y025602D03*
X015423Y023652D03*
X014523Y021952D03*
X014023Y022302D03*
X016673Y021902D03*
X016773Y019452D03*
X016773Y018902D03*
X017773Y017802D03*
X016973Y015902D03*
X017273Y014702D03*
X017573Y012352D03*
X016773Y010652D03*
X016373Y007202D03*
X016873Y006102D03*
X016873Y004952D03*
X017173Y003652D03*
X014623Y003302D03*
X014073Y004852D03*
X014073Y005402D03*
X013373Y006102D03*
X013323Y006852D03*
X012173Y006152D03*
X011773Y005702D03*
X011073Y004452D03*
X010073Y004452D03*
X010073Y005002D03*
X009873Y005702D03*
X009373Y005702D03*
X009273Y005002D03*
X011073Y006852D03*
X010123Y007952D03*
X009923Y008902D03*
X010423Y009252D03*
X009423Y010802D03*
X008773Y011452D03*
X008723Y012502D03*
X010923Y011752D03*
X011773Y012102D03*
X013173Y010802D03*
X013523Y011702D03*
X014223Y012252D03*
X014423Y011702D03*
X014023Y009252D03*
X014023Y008752D03*
X012323Y009252D03*
X011723Y009252D03*
X011723Y008752D03*
X012623Y004452D03*
X013173Y004452D03*
X012673Y002852D03*
X013373Y002402D03*
X019523Y018102D03*
X016923Y030302D03*
M02*
