G75*
G70*
%OFA0B0*%
%FSLAX24Y24*%
%IPPOS*%
%LPD*%
%AMOC8*
5,1,8,0,0,1.08239X$1,22.5*
%
%ADD10C,0.0110*%
%ADD11R,0.0800X0.0260*%
%ADD12R,0.0433X0.0394*%
%ADD13R,0.0394X0.0433*%
%ADD14C,0.0520*%
%ADD15O,0.1187X0.0594*%
%ADD16OC8,0.0560*%
%ADD17R,0.0460X0.0630*%
%ADD18O,0.0594X0.1187*%
%ADD19O,0.1200X0.0600*%
%ADD20O,0.0600X0.1200*%
%ADD21C,0.0160*%
%ADD22C,0.0200*%
%ADD23C,0.0100*%
%ADD24C,0.0400*%
D10*
X005040Y024307D02*
X005237Y024307D01*
X005335Y024405D01*
X005335Y024799D01*
X004942Y024405D01*
X005040Y024307D01*
X004942Y024405D02*
X004942Y024799D01*
X005040Y024897D01*
X005237Y024897D01*
X005335Y024799D01*
X005586Y024799D02*
X005586Y024700D01*
X005685Y024602D01*
X005882Y024602D01*
X005980Y024504D01*
X005980Y024405D01*
X005882Y024307D01*
X005685Y024307D01*
X005586Y024405D01*
X005586Y024504D01*
X005685Y024602D01*
X005882Y024602D02*
X005980Y024700D01*
X005980Y024799D01*
X005882Y024897D01*
X005685Y024897D01*
X005586Y024799D01*
X005336Y025307D02*
X005336Y025897D01*
X005632Y025897D01*
X005730Y025799D01*
X005730Y025602D01*
X005632Y025504D01*
X005336Y025504D01*
X005085Y025602D02*
X004692Y025602D01*
X004692Y025700D02*
X004692Y025307D01*
X004692Y025700D02*
X004889Y025897D01*
X005085Y025700D01*
X005085Y025307D01*
X005981Y025307D02*
X006276Y025307D01*
X006375Y025405D01*
X006375Y025504D01*
X006276Y025602D01*
X005981Y025602D01*
X006276Y025602D02*
X006375Y025700D01*
X006375Y025799D01*
X006276Y025897D01*
X005981Y025897D01*
X005981Y025307D01*
D11*
X006427Y021252D03*
X006427Y020752D03*
X006427Y020252D03*
X006427Y019752D03*
X006427Y019252D03*
X006427Y018752D03*
X006427Y018252D03*
X008847Y018252D03*
X008847Y018752D03*
X008847Y019252D03*
X008847Y019752D03*
X008847Y020252D03*
X008847Y020752D03*
X008847Y021252D03*
X008847Y005252D03*
X008847Y004752D03*
X008847Y004252D03*
X008847Y003752D03*
X008847Y003252D03*
X008847Y002752D03*
X008847Y002252D03*
X006427Y002252D03*
X006427Y002752D03*
X006427Y003252D03*
X006427Y003752D03*
X006427Y004252D03*
X006427Y004752D03*
X006427Y005252D03*
D12*
X010802Y008102D03*
X011471Y008102D03*
X013052Y008352D03*
X013721Y008352D03*
X013802Y016502D03*
X014471Y016502D03*
X009721Y029552D03*
X009052Y029552D03*
X008471Y029552D03*
X007802Y029552D03*
D13*
X011637Y013836D03*
X011637Y013167D03*
X011471Y009102D03*
X010802Y009102D03*
X015137Y013167D03*
X015137Y013836D03*
X019052Y017502D03*
X019721Y017502D03*
D14*
X014337Y013502D03*
X012437Y013502D03*
X020887Y026752D03*
X020887Y027752D03*
X021887Y028252D03*
X021887Y027252D03*
D15*
X005137Y023002D03*
X005137Y022002D03*
X005137Y021002D03*
X005137Y020002D03*
X005137Y019002D03*
X005137Y017502D03*
X005137Y016502D03*
X005137Y015502D03*
X005137Y014502D03*
X005137Y013502D03*
X005137Y012002D03*
X005137Y011002D03*
X005137Y010002D03*
X005137Y009002D03*
X005137Y008002D03*
X005137Y006502D03*
X005137Y005502D03*
X005137Y004502D03*
X005137Y003502D03*
X005137Y002502D03*
D16*
X012637Y029502D03*
X012637Y030502D03*
X013637Y030502D03*
X013637Y029502D03*
X014637Y029502D03*
X014637Y030502D03*
X015637Y030502D03*
X015637Y029502D03*
X016637Y029502D03*
X016637Y030502D03*
D17*
X016887Y028502D03*
X017487Y028502D03*
X017487Y027752D03*
X016887Y027752D03*
X016287Y027752D03*
X016287Y028502D03*
X016287Y026502D03*
X016887Y026502D03*
X017487Y026502D03*
D18*
X005637Y030502D03*
X004637Y030502D03*
D19*
X011637Y028002D03*
X011637Y027002D03*
X011637Y026002D03*
D20*
X014637Y002502D03*
X015637Y002502D03*
X016637Y002502D03*
X017637Y002502D03*
X018637Y002502D03*
D21*
X004382Y001982D02*
X004117Y001982D01*
X004117Y028847D01*
X006807Y026156D01*
X006807Y026026D01*
X006865Y025886D01*
X006972Y025780D01*
X007111Y025722D01*
X007262Y025722D01*
X007402Y025780D01*
X007509Y025886D01*
X007567Y026026D01*
X007567Y026177D01*
X007509Y026317D01*
X007402Y026424D01*
X007262Y026482D01*
X007132Y026482D01*
X004417Y029197D01*
X004417Y029751D01*
X004439Y029728D01*
X004834Y029728D01*
X004860Y029754D01*
X005092Y029522D01*
X005282Y029522D01*
X007382Y029522D01*
X007357Y029497D01*
X007357Y029309D01*
X007315Y029267D01*
X007257Y029127D01*
X007257Y028976D01*
X007315Y028836D01*
X007422Y028730D01*
X007561Y028672D01*
X007692Y028672D01*
X007892Y028472D01*
X008082Y028472D01*
X008582Y028472D01*
X008392Y028282D01*
X008261Y028282D01*
X008122Y028224D01*
X008015Y028117D01*
X007957Y027977D01*
X007957Y027826D01*
X008015Y027686D01*
X008049Y027652D01*
X008015Y027617D01*
X007957Y027477D01*
X007957Y027326D01*
X008015Y027186D01*
X006428Y027186D01*
X006269Y027344D02*
X007957Y027344D01*
X007967Y027503D02*
X006111Y027503D01*
X005952Y027661D02*
X008040Y027661D01*
X007959Y027820D02*
X005794Y027820D01*
X005635Y027978D02*
X007957Y027978D01*
X008035Y028137D02*
X005477Y028137D01*
X005318Y028296D02*
X008405Y028296D01*
X008564Y028454D02*
X005160Y028454D01*
X005001Y028613D02*
X007751Y028613D01*
X007380Y028771D02*
X004843Y028771D01*
X004684Y028930D02*
X007276Y028930D01*
X007257Y029088D02*
X004526Y029088D01*
X004417Y029247D02*
X007306Y029247D01*
X007357Y029405D02*
X004417Y029405D01*
X004417Y029564D02*
X005049Y029564D01*
X004891Y029722D02*
X004417Y029722D01*
X005114Y030150D02*
X005114Y030996D01*
X005088Y031022D01*
X005186Y031022D01*
X005160Y030996D01*
X005160Y030520D01*
X005618Y030520D01*
X005618Y030483D01*
X005160Y030483D01*
X005160Y030104D01*
X005114Y030150D01*
X005114Y030198D02*
X005160Y030198D01*
X005160Y030357D02*
X005114Y030357D01*
X005114Y030515D02*
X005618Y030515D01*
X005656Y030515D02*
X007064Y030515D01*
X007065Y030517D02*
X007172Y030624D01*
X007311Y030682D01*
X007442Y030682D01*
X007782Y031022D01*
X006088Y031022D01*
X006114Y030996D01*
X006114Y030520D01*
X005656Y030520D01*
X005656Y030483D01*
X006114Y030483D01*
X006114Y030007D01*
X006088Y029982D01*
X007169Y029982D01*
X007065Y030086D01*
X007007Y030226D01*
X007007Y030377D01*
X007065Y030517D01*
X007007Y030357D02*
X006114Y030357D01*
X006114Y030198D02*
X007018Y030198D01*
X007112Y030040D02*
X006114Y030040D01*
X006114Y030674D02*
X007292Y030674D01*
X007592Y030832D02*
X006114Y030832D01*
X006114Y030991D02*
X007751Y030991D01*
X008132Y030722D02*
X007767Y030356D01*
X007767Y030226D01*
X007709Y030086D01*
X007604Y029982D01*
X007632Y029982D01*
X007685Y029929D01*
X008093Y029929D01*
X008137Y029885D01*
X008180Y029929D01*
X008761Y029929D01*
X009343Y029929D01*
X009387Y029885D01*
X009430Y029929D01*
X009703Y029929D01*
X009703Y029570D01*
X009740Y029570D01*
X009740Y029533D01*
X010118Y029533D01*
X010118Y029280D01*
X010013Y029175D01*
X010001Y029175D01*
X010059Y029117D01*
X010117Y028977D01*
X010117Y028826D01*
X010059Y028686D01*
X010004Y028632D01*
X010129Y028632D01*
X010222Y028724D01*
X010361Y028782D01*
X010512Y028782D01*
X010652Y028724D01*
X010759Y028617D01*
X010817Y028477D01*
X010817Y028326D01*
X010759Y028186D01*
X010652Y028080D01*
X010512Y028022D01*
X010361Y028022D01*
X010222Y028080D01*
X010129Y028172D01*
X008932Y028172D01*
X008717Y027956D01*
X008717Y027826D01*
X008698Y027782D01*
X010878Y027782D01*
X010857Y027803D01*
X010857Y027982D01*
X011617Y027982D01*
X011617Y028022D01*
X011657Y028022D01*
X011657Y028482D01*
X012136Y028482D01*
X012157Y028460D01*
X012157Y029006D01*
X012092Y029072D01*
X011957Y029206D01*
X011957Y029956D01*
X011957Y030147D01*
X012092Y030282D01*
X012206Y030282D01*
X012177Y030311D01*
X012177Y030492D01*
X012627Y030492D01*
X012627Y030512D01*
X012177Y030512D01*
X012177Y030692D01*
X012206Y030722D01*
X008132Y030722D01*
X008084Y030674D02*
X012177Y030674D01*
X012177Y030515D02*
X007926Y030515D01*
X007767Y030357D02*
X012177Y030357D01*
X012008Y030198D02*
X007755Y030198D01*
X007662Y030040D02*
X011957Y030040D01*
X011957Y029881D02*
X010060Y029881D01*
X010013Y029929D02*
X010118Y029823D01*
X010118Y029570D01*
X009740Y029570D01*
X009740Y029929D01*
X010013Y029929D01*
X010118Y029722D02*
X011957Y029722D01*
X011957Y029564D02*
X009740Y029564D01*
X009740Y029722D02*
X009703Y029722D01*
X009703Y029881D02*
X009740Y029881D01*
X010118Y029405D02*
X011957Y029405D01*
X011957Y029247D02*
X010084Y029247D01*
X010071Y029088D02*
X012075Y029088D01*
X012157Y028930D02*
X010117Y028930D01*
X010094Y028771D02*
X010336Y028771D01*
X010538Y028771D02*
X012157Y028771D01*
X012157Y028613D02*
X010761Y028613D01*
X010817Y028454D02*
X011110Y028454D01*
X011138Y028482D02*
X011617Y028482D01*
X011617Y028022D01*
X010857Y028022D01*
X010857Y028201D01*
X011138Y028482D01*
X010952Y028296D02*
X010804Y028296D01*
X010857Y028137D02*
X010710Y028137D01*
X010857Y027978D02*
X008739Y027978D01*
X008714Y027820D02*
X010857Y027820D01*
X010978Y027322D02*
X008715Y027322D01*
X008659Y027186D01*
X008552Y027080D01*
X008412Y027022D01*
X008261Y027022D01*
X008122Y027080D01*
X008015Y027186D01*
X008248Y027027D02*
X006587Y027027D01*
X006745Y026869D02*
X010429Y026869D01*
X010407Y026847D02*
X010542Y026982D01*
X010857Y026982D01*
X010857Y027201D01*
X010978Y027322D01*
X010857Y027186D02*
X008658Y027186D01*
X008426Y027027D02*
X010857Y027027D01*
X010407Y026847D02*
X010407Y026656D01*
X010407Y023256D01*
X010542Y023122D01*
X010742Y022922D01*
X010932Y022922D01*
X011375Y022922D01*
X011357Y022877D01*
X011357Y022726D01*
X011415Y022586D01*
X011522Y022480D01*
X011661Y022422D01*
X011812Y022422D01*
X011907Y022461D01*
X011907Y021059D01*
X011815Y020967D01*
X011757Y020827D01*
X011757Y020676D01*
X011815Y020536D01*
X011922Y020430D01*
X011970Y020410D01*
X011444Y019884D01*
X011409Y019967D01*
X011324Y020052D01*
X011359Y020086D01*
X011417Y020226D01*
X011417Y020377D01*
X011359Y020517D01*
X011252Y020624D01*
X011112Y020682D01*
X011067Y020682D01*
X011067Y021297D01*
X010932Y021432D01*
X010517Y021847D01*
X010517Y021994D01*
X010609Y022086D01*
X010667Y022226D01*
X010667Y022377D01*
X010609Y022517D01*
X010502Y022624D01*
X010362Y022682D01*
X010211Y022682D01*
X010072Y022624D01*
X009965Y022517D01*
X009907Y022377D01*
X009907Y022313D01*
X009862Y022332D01*
X009711Y022332D01*
X009572Y022274D01*
X009465Y022167D01*
X009407Y022027D01*
X009407Y021876D01*
X009465Y021736D01*
X009557Y021644D01*
X009557Y020047D01*
X009557Y019856D01*
X009692Y019722D01*
X010707Y019722D01*
X010707Y019676D01*
X010765Y019536D01*
X010872Y019430D01*
X010955Y019395D01*
X010742Y019182D01*
X010611Y019182D01*
X010472Y019124D01*
X010365Y019017D01*
X010307Y018877D01*
X010307Y018726D01*
X010365Y018586D01*
X010472Y018480D01*
X010611Y018422D01*
X010637Y018422D01*
X010522Y018374D01*
X010415Y018267D01*
X010357Y018127D01*
X010357Y017976D01*
X010415Y017836D01*
X010522Y017730D01*
X010661Y017672D01*
X010812Y017672D01*
X010853Y017689D01*
X010807Y017577D01*
X010807Y017532D01*
X010661Y017532D01*
X010522Y017474D01*
X010415Y017367D01*
X010357Y017227D01*
X010357Y017076D01*
X010415Y016936D01*
X010522Y016830D01*
X010589Y016802D01*
X010522Y016774D01*
X010415Y016667D01*
X010357Y016527D01*
X010357Y016376D01*
X010415Y016236D01*
X010522Y016130D01*
X010661Y016072D01*
X010812Y016072D01*
X010952Y016130D01*
X011044Y016222D01*
X011542Y016222D01*
X011732Y016222D01*
X012682Y017172D01*
X012817Y017306D01*
X012817Y018506D01*
X013457Y019147D01*
X013457Y017906D01*
X013592Y017772D01*
X013792Y017572D01*
X013982Y017572D01*
X014375Y017572D01*
X014357Y017527D01*
X014357Y017376D01*
X014374Y017336D01*
X014262Y017382D01*
X014111Y017382D01*
X013972Y017324D01*
X013865Y017217D01*
X013807Y017077D01*
X013807Y016926D01*
X013827Y016879D01*
X013821Y016879D01*
X013821Y016520D01*
X013784Y016520D01*
X013784Y016879D01*
X013511Y016879D01*
X013406Y016773D01*
X013406Y016520D01*
X013784Y016520D01*
X013784Y016483D01*
X013784Y016125D01*
X013511Y016125D01*
X013406Y016230D01*
X013406Y016483D01*
X013784Y016483D01*
X013821Y016483D01*
X013821Y016125D01*
X014057Y016125D01*
X014057Y016088D01*
X014022Y016074D01*
X013915Y015967D01*
X013857Y015827D01*
X013857Y015676D01*
X013915Y015536D01*
X014022Y015430D01*
X014161Y015372D01*
X014312Y015372D01*
X014452Y015430D01*
X014559Y015536D01*
X014617Y015676D01*
X014617Y015827D01*
X014559Y015967D01*
X014517Y016009D01*
X014517Y016125D01*
X014763Y016125D01*
X014868Y016230D01*
X014868Y016410D01*
X014961Y016372D01*
X015112Y016372D01*
X015252Y016430D01*
X015359Y016536D01*
X015417Y016676D01*
X015417Y016827D01*
X015398Y016872D01*
X016507Y016872D01*
X016507Y016776D01*
X016565Y016636D01*
X016672Y016530D01*
X016811Y016472D01*
X016962Y016472D01*
X017102Y016530D01*
X017207Y016634D01*
X017207Y016576D01*
X017265Y016436D01*
X017372Y016330D01*
X017511Y016272D01*
X017662Y016272D01*
X020129Y016272D01*
X020222Y016180D01*
X020361Y016122D01*
X020512Y016122D01*
X020557Y016140D01*
X020557Y015319D01*
X020552Y015324D01*
X020412Y015382D01*
X020261Y015382D01*
X020122Y015324D01*
X020029Y015232D01*
X017544Y015232D01*
X017452Y015324D01*
X017312Y015382D01*
X017161Y015382D01*
X017022Y015324D01*
X016915Y015217D01*
X016857Y015077D01*
X016857Y014926D01*
X016915Y014786D01*
X017022Y014680D01*
X017161Y014622D01*
X017312Y014622D01*
X017452Y014680D01*
X017544Y014772D01*
X020029Y014772D01*
X020106Y014695D01*
X020057Y014577D01*
X020057Y014426D01*
X020115Y014286D01*
X020222Y014180D01*
X020361Y014122D01*
X020512Y014122D01*
X020652Y014180D01*
X020744Y014272D01*
X020882Y014272D01*
X021017Y014406D01*
X021017Y014597D01*
X021017Y018847D01*
X020882Y018982D01*
X020682Y019182D01*
X020492Y019182D01*
X020192Y019182D01*
X020057Y019047D01*
X019992Y018982D01*
X018998Y018982D01*
X019017Y019026D01*
X019017Y019177D01*
X018959Y019317D01*
X018852Y019424D01*
X018712Y019482D01*
X018561Y019482D01*
X018422Y019424D01*
X018329Y019332D01*
X017932Y019332D01*
X017617Y019647D01*
X017617Y019777D01*
X017578Y019872D01*
X017712Y019872D01*
X017852Y019930D01*
X017959Y020036D01*
X018017Y020176D01*
X018017Y020327D01*
X017998Y020372D01*
X018257Y020372D01*
X018257Y020326D01*
X018315Y020186D01*
X018422Y020080D01*
X018561Y020022D01*
X018712Y020022D01*
X018852Y020080D01*
X018959Y020186D01*
X019017Y020326D01*
X019017Y020477D01*
X018959Y020617D01*
X018854Y020722D01*
X019692Y020722D01*
X021107Y019306D01*
X021107Y008732D01*
X020644Y008732D01*
X020552Y008824D01*
X020412Y008882D01*
X020261Y008882D01*
X020122Y008824D01*
X020015Y008717D01*
X019986Y008649D01*
X018697Y009867D01*
X018632Y009932D01*
X017494Y009932D01*
X017402Y010024D01*
X017262Y010082D01*
X017111Y010082D01*
X016972Y010024D01*
X016865Y009917D01*
X016807Y009777D01*
X016807Y009626D01*
X016865Y009486D01*
X016972Y009380D01*
X017111Y009322D01*
X017262Y009322D01*
X017402Y009380D01*
X017494Y009472D01*
X018445Y009472D01*
X020107Y007903D01*
X020107Y007809D01*
X020015Y007717D01*
X019957Y007577D01*
X019957Y007426D01*
X020015Y007286D01*
X020122Y007180D01*
X020261Y007122D01*
X020412Y007122D01*
X020552Y007180D01*
X020659Y007286D01*
X020717Y007426D01*
X020717Y007577D01*
X020659Y007717D01*
X020567Y007809D01*
X020567Y007906D01*
X020567Y008097D01*
X020504Y008160D01*
X020552Y008180D01*
X020644Y008272D01*
X021357Y008272D01*
X021357Y006047D01*
X021292Y005982D01*
X015482Y005982D01*
X015317Y006147D01*
X015182Y006282D01*
X014882Y006282D01*
X014692Y006282D01*
X014492Y006082D01*
X014361Y006082D01*
X014222Y006024D01*
X014115Y005917D01*
X014057Y005777D01*
X014057Y005626D01*
X014075Y005582D01*
X011892Y005582D01*
X011967Y005656D01*
X012082Y005772D01*
X012212Y005772D01*
X012352Y005830D01*
X012459Y005936D01*
X012517Y006076D01*
X012517Y006227D01*
X012459Y006367D01*
X012352Y006474D01*
X012212Y006532D01*
X012061Y006532D01*
X011922Y006474D01*
X011815Y006367D01*
X011757Y006227D01*
X011757Y006097D01*
X011642Y005982D01*
X011298Y005982D01*
X011317Y006026D01*
X011317Y006177D01*
X011259Y006317D01*
X011152Y006424D01*
X011036Y006472D01*
X011062Y006472D01*
X011202Y006530D01*
X011309Y006636D01*
X011367Y006776D01*
X011367Y006927D01*
X011309Y007067D01*
X011202Y007174D01*
X011062Y007232D01*
X010932Y007232D01*
X010867Y007297D01*
X010842Y007322D01*
X012442Y007322D01*
X012857Y006906D01*
X012857Y006776D01*
X012915Y006636D01*
X013022Y006530D01*
X013161Y006472D01*
X013312Y006472D01*
X013452Y006530D01*
X013559Y006636D01*
X013617Y006776D01*
X013617Y006927D01*
X013559Y007067D01*
X013452Y007174D01*
X013312Y007232D01*
X013182Y007232D01*
X012767Y007647D01*
X012632Y007782D01*
X011819Y007782D01*
X011868Y007830D01*
X011868Y008083D01*
X011490Y008083D01*
X011490Y008120D01*
X011868Y008120D01*
X011868Y008373D01*
X011763Y008479D01*
X011490Y008479D01*
X011490Y008120D01*
X011453Y008120D01*
X011453Y008479D01*
X011180Y008479D01*
X011137Y008435D01*
X011093Y008479D01*
X011017Y008479D01*
X011017Y008705D01*
X011074Y008705D01*
X011137Y008768D01*
X011200Y008705D01*
X011508Y008705D01*
X011542Y008672D01*
X011732Y008672D01*
X012209Y008672D01*
X012265Y008536D01*
X012372Y008430D01*
X012511Y008372D01*
X012642Y008372D01*
X012656Y008358D01*
X012656Y008080D01*
X012761Y007975D01*
X013343Y007975D01*
X013387Y008018D01*
X013430Y007975D01*
X013703Y007975D01*
X013703Y008333D01*
X013740Y008333D01*
X013740Y007975D01*
X014013Y007975D01*
X014118Y008080D01*
X014118Y008322D01*
X014282Y008322D01*
X014982Y008322D01*
X015117Y008456D01*
X015117Y008647D01*
X015117Y010494D01*
X015209Y010586D01*
X015267Y010726D01*
X015267Y010877D01*
X015209Y011017D01*
X015102Y011124D01*
X014962Y011182D01*
X014811Y011182D01*
X014672Y011124D01*
X014565Y011017D01*
X014507Y010877D01*
X014507Y010726D01*
X014565Y010586D01*
X014657Y010494D01*
X014657Y009169D01*
X014602Y009224D01*
X014467Y009280D01*
X014467Y009497D01*
X014332Y009632D01*
X014332Y009632D01*
X014132Y009832D01*
X013980Y009832D01*
X011396Y012322D01*
X011992Y012322D01*
X012157Y012156D01*
X012157Y012026D01*
X012215Y011886D01*
X012322Y011780D01*
X012461Y011722D01*
X012612Y011722D01*
X012752Y011780D01*
X012859Y011886D01*
X012917Y012026D01*
X012917Y012177D01*
X012859Y012317D01*
X012752Y012424D01*
X012612Y012482D01*
X012482Y012482D01*
X012317Y012647D01*
X012182Y012782D01*
X011919Y012782D01*
X012014Y012876D01*
X012014Y013122D01*
X012142Y013122D01*
X012204Y013122D01*
X012349Y013062D01*
X012524Y013062D01*
X012686Y013129D01*
X012810Y013252D01*
X012877Y013414D01*
X012877Y013589D01*
X012810Y013751D01*
X012686Y013875D01*
X012524Y013942D01*
X012349Y013942D01*
X012188Y013875D01*
X012064Y013751D01*
X012014Y013630D01*
X012014Y013818D01*
X011656Y013818D01*
X011656Y013855D01*
X012014Y013855D01*
X012014Y014127D01*
X011908Y014233D01*
X011655Y014233D01*
X011655Y013855D01*
X011618Y013855D01*
X011260Y013855D01*
X011260Y014127D01*
X011365Y014233D01*
X011618Y014233D01*
X011618Y013855D01*
X011618Y013818D01*
X011260Y013818D01*
X011260Y013545D01*
X011304Y013502D01*
X011260Y013458D01*
X011260Y012876D01*
X011354Y012782D01*
X010782Y012782D01*
X007717Y015847D01*
X007717Y015977D01*
X007659Y016117D01*
X007554Y016222D01*
X007742Y016222D01*
X007932Y016222D01*
X009532Y017822D01*
X009667Y017956D01*
X009667Y018556D01*
X009667Y018747D01*
X009532Y018882D01*
X009427Y018882D01*
X009427Y018956D01*
X009381Y019002D01*
X009427Y019047D01*
X009427Y019251D01*
X008847Y019251D01*
X008847Y019252D01*
X009427Y019252D01*
X009427Y019456D01*
X009381Y019502D01*
X009427Y019547D01*
X009427Y019956D01*
X009381Y020002D01*
X009427Y020047D01*
X009427Y020251D01*
X008847Y020251D01*
X008847Y020252D01*
X009427Y020252D01*
X009427Y020456D01*
X009381Y020502D01*
X009427Y020547D01*
X009427Y020956D01*
X009381Y021002D01*
X009427Y021047D01*
X009427Y021251D01*
X008847Y021251D01*
X008847Y021252D01*
X008847Y021562D01*
X009321Y021562D01*
X009427Y021456D01*
X009427Y021252D01*
X008847Y021252D01*
X008847Y021252D01*
X008847Y021562D01*
X008372Y021562D01*
X008267Y021456D01*
X008267Y021252D01*
X008846Y021252D01*
X008846Y021251D01*
X008267Y021251D01*
X008267Y021047D01*
X008312Y021002D01*
X008267Y020956D01*
X008267Y020547D01*
X008312Y020502D01*
X008267Y020456D01*
X008267Y020252D01*
X008846Y020252D01*
X008846Y020251D01*
X008267Y020251D01*
X008267Y020047D01*
X008312Y020002D01*
X008267Y019956D01*
X008267Y019547D01*
X008312Y019502D01*
X008267Y019456D01*
X008267Y019252D01*
X008846Y019252D01*
X008846Y019251D01*
X008267Y019251D01*
X008267Y019047D01*
X008312Y019002D01*
X008267Y018956D01*
X008267Y018547D01*
X008312Y018502D01*
X008267Y018456D01*
X008267Y018257D01*
X005810Y015800D01*
X005631Y015979D01*
X004642Y015979D01*
X004617Y015953D01*
X004617Y016051D01*
X004642Y016025D01*
X005631Y016025D01*
X005911Y016304D01*
X005911Y016699D01*
X005788Y016822D01*
X006192Y016822D01*
X006382Y016822D01*
X007982Y018422D01*
X008117Y018556D01*
X008117Y021056D01*
X008117Y021247D01*
X007982Y021382D01*
X007007Y021382D01*
X007007Y021456D01*
X006901Y021562D01*
X005952Y021562D01*
X005847Y021456D01*
X005847Y021263D01*
X005631Y021479D01*
X004642Y021479D01*
X004363Y021199D01*
X004363Y020804D01*
X004642Y020525D01*
X005631Y020525D01*
X005728Y020622D01*
X005782Y020622D01*
X005847Y020622D01*
X005847Y020547D01*
X005892Y020502D01*
X005847Y020456D01*
X005847Y020263D01*
X005631Y020479D01*
X004642Y020479D01*
X004363Y020199D01*
X004363Y019804D01*
X004642Y019525D01*
X005585Y019525D01*
X005542Y019482D01*
X005527Y019482D01*
X005492Y019482D01*
X005488Y019479D01*
X004642Y019479D01*
X004363Y019199D01*
X004363Y018804D01*
X004642Y018525D01*
X005585Y018525D01*
X005392Y018332D01*
X005094Y018332D01*
X005002Y018424D01*
X004862Y018482D01*
X004711Y018482D01*
X004572Y018424D01*
X004465Y018317D01*
X004407Y018177D01*
X004407Y018026D01*
X004465Y017886D01*
X004508Y017844D01*
X004363Y017699D01*
X004363Y017520D01*
X005118Y017520D01*
X005118Y017483D01*
X004363Y017483D01*
X004363Y017304D01*
X004386Y017282D01*
X004292Y017282D01*
X004157Y017147D01*
X004157Y016956D01*
X004157Y013206D01*
X004292Y013072D01*
X004542Y012822D01*
X004732Y012822D01*
X005042Y012822D01*
X005385Y012479D01*
X005155Y012479D01*
X005155Y012020D01*
X005118Y012020D01*
X004363Y012020D01*
X004363Y012199D01*
X004642Y012479D01*
X005118Y012479D01*
X005118Y012020D01*
X005118Y011983D01*
X004363Y011983D01*
X004363Y011804D01*
X004642Y011525D01*
X005118Y011525D01*
X005118Y011983D01*
X005155Y011983D01*
X005155Y011525D01*
X005631Y011525D01*
X005911Y011804D01*
X005911Y011953D01*
X007157Y010706D01*
X007157Y010576D01*
X007215Y010436D01*
X007322Y010330D01*
X007461Y010272D01*
X007612Y010272D01*
X007752Y010330D01*
X007859Y010436D01*
X007917Y010576D01*
X007917Y010727D01*
X007859Y010867D01*
X007752Y010974D01*
X007612Y011032D01*
X007482Y011032D01*
X005489Y013025D01*
X005631Y013025D01*
X005911Y013304D01*
X005911Y013522D01*
X005982Y013522D01*
X006117Y013656D01*
X006117Y015456D01*
X006207Y015547D01*
X006207Y014256D01*
X006342Y014122D01*
X006343Y014122D01*
X010379Y010182D01*
X006682Y010182D01*
X005911Y010953D01*
X005911Y011199D01*
X005631Y011479D01*
X004642Y011479D01*
X004363Y011199D01*
X004363Y010804D01*
X004642Y010525D01*
X005631Y010525D01*
X005660Y010554D01*
X006492Y009722D01*
X006682Y009722D01*
X009732Y009722D01*
X009707Y009697D01*
X009707Y009506D01*
X009707Y009232D01*
X005878Y009232D01*
X005631Y009479D01*
X004642Y009479D01*
X004617Y009453D01*
X004617Y009522D01*
X004746Y009522D01*
X004782Y009522D01*
X004785Y009525D01*
X005631Y009525D01*
X005911Y009804D01*
X005911Y010199D01*
X005631Y010479D01*
X004642Y010479D01*
X004363Y010199D01*
X004363Y009982D01*
X004292Y009982D01*
X004157Y009847D01*
X004157Y009656D01*
X004157Y008706D01*
X004292Y008572D01*
X004514Y008350D01*
X004363Y008199D01*
X004363Y007804D01*
X004642Y007525D01*
X005631Y007525D01*
X005911Y007804D01*
X005911Y007853D01*
X006442Y007322D01*
X006632Y007322D01*
X007575Y007322D01*
X007557Y007277D01*
X007557Y007126D01*
X007615Y006986D01*
X007722Y006880D01*
X007861Y006822D01*
X008012Y006822D01*
X008152Y006880D01*
X008244Y006972D01*
X010542Y006972D01*
X010607Y006906D01*
X010607Y006776D01*
X010665Y006636D01*
X010772Y006530D01*
X010887Y006482D01*
X010861Y006482D01*
X010722Y006424D01*
X010629Y006332D01*
X007744Y006332D01*
X007652Y006424D01*
X007512Y006482D01*
X007361Y006482D01*
X007222Y006424D01*
X007115Y006317D01*
X007057Y006177D01*
X007057Y006026D01*
X007080Y005970D01*
X006672Y005562D01*
X005952Y005562D01*
X005911Y005520D01*
X005911Y005699D01*
X005631Y005979D01*
X004642Y005979D01*
X004363Y005699D01*
X004363Y005304D01*
X004642Y005025D01*
X005488Y005025D01*
X005492Y005022D01*
X005527Y005022D01*
X005542Y005022D01*
X005585Y004979D01*
X004642Y004979D01*
X004363Y004699D01*
X004363Y004304D01*
X004642Y004025D01*
X005488Y004025D01*
X005492Y004022D01*
X005527Y004022D01*
X005542Y004022D01*
X005585Y003979D01*
X004642Y003979D01*
X004363Y003699D01*
X004363Y003482D01*
X004292Y003482D01*
X004157Y003347D01*
X004157Y003156D01*
X004157Y002206D01*
X004292Y002072D01*
X004382Y001982D01*
X004227Y002136D02*
X004117Y002136D01*
X004117Y002294D02*
X004157Y002294D01*
X004157Y002453D02*
X004117Y002453D01*
X004117Y002612D02*
X004157Y002612D01*
X004157Y002770D02*
X004117Y002770D01*
X004117Y002929D02*
X004157Y002929D01*
X004157Y003087D02*
X004117Y003087D01*
X004117Y003246D02*
X004157Y003246D01*
X004117Y003404D02*
X004214Y003404D01*
X004117Y003563D02*
X004363Y003563D01*
X004385Y003721D02*
X004117Y003721D01*
X004117Y003880D02*
X004544Y003880D01*
X004629Y004038D02*
X004117Y004038D01*
X004117Y004197D02*
X004470Y004197D01*
X004363Y004356D02*
X004117Y004356D01*
X004117Y004514D02*
X004363Y004514D01*
X004363Y004673D02*
X004117Y004673D01*
X004117Y004831D02*
X004495Y004831D01*
X004519Y005148D02*
X004117Y005148D01*
X004117Y004990D02*
X005574Y004990D01*
X005911Y005624D02*
X006734Y005624D01*
X006892Y005782D02*
X005827Y005782D01*
X005669Y005941D02*
X007051Y005941D01*
X007057Y006099D02*
X005706Y006099D01*
X005631Y006025D02*
X005155Y006025D01*
X005155Y006483D01*
X005118Y006483D01*
X005118Y006520D01*
X004363Y006520D01*
X004363Y006699D01*
X004642Y006979D01*
X005118Y006979D01*
X005118Y006520D01*
X005155Y006520D01*
X005155Y006979D01*
X005631Y006979D01*
X005911Y006699D01*
X005911Y006520D01*
X005156Y006520D01*
X005156Y006483D01*
X005911Y006483D01*
X005911Y006304D01*
X005631Y006025D01*
X005864Y006258D02*
X007090Y006258D01*
X007214Y006417D02*
X005911Y006417D01*
X005911Y006575D02*
X010726Y006575D01*
X010714Y006417D02*
X007659Y006417D01*
X007709Y006892D02*
X005718Y006892D01*
X005876Y006734D02*
X010624Y006734D01*
X010607Y006892D02*
X008165Y006892D01*
X007588Y007051D02*
X004117Y007051D01*
X004117Y007209D02*
X007557Y007209D01*
X006396Y007368D02*
X004117Y007368D01*
X004117Y007526D02*
X004641Y007526D01*
X004482Y007685D02*
X004117Y007685D01*
X004117Y007843D02*
X004363Y007843D01*
X004363Y008002D02*
X004117Y008002D01*
X004117Y008161D02*
X004363Y008161D01*
X004483Y008319D02*
X004117Y008319D01*
X004117Y008478D02*
X004386Y008478D01*
X004227Y008636D02*
X004117Y008636D01*
X004117Y008795D02*
X004157Y008795D01*
X004157Y008953D02*
X004117Y008953D01*
X004117Y009112D02*
X004157Y009112D01*
X004157Y009270D02*
X004117Y009270D01*
X004117Y009429D02*
X004157Y009429D01*
X004157Y009587D02*
X004117Y009587D01*
X004117Y009746D02*
X004157Y009746D01*
X004117Y009905D02*
X004214Y009905D01*
X004117Y010063D02*
X004363Y010063D01*
X004386Y010222D02*
X004117Y010222D01*
X004117Y010380D02*
X004544Y010380D01*
X004629Y010539D02*
X004117Y010539D01*
X004117Y010697D02*
X004470Y010697D01*
X004363Y010856D02*
X004117Y010856D01*
X004117Y011014D02*
X004363Y011014D01*
X004363Y011173D02*
X004117Y011173D01*
X004117Y011331D02*
X004495Y011331D01*
X004519Y011649D02*
X004117Y011649D01*
X004117Y011807D02*
X004363Y011807D01*
X004363Y011966D02*
X004117Y011966D01*
X004117Y012124D02*
X004363Y012124D01*
X004447Y012283D02*
X004117Y012283D01*
X004117Y012441D02*
X004605Y012441D01*
X004446Y012917D02*
X004117Y012917D01*
X004117Y013075D02*
X004288Y013075D01*
X004157Y013234D02*
X004117Y013234D01*
X004117Y013392D02*
X004157Y013392D01*
X004157Y013551D02*
X004117Y013551D01*
X004117Y013710D02*
X004157Y013710D01*
X004157Y013868D02*
X004117Y013868D01*
X004117Y014027D02*
X004157Y014027D01*
X004157Y014185D02*
X004117Y014185D01*
X004117Y014344D02*
X004157Y014344D01*
X004157Y014502D02*
X004117Y014502D01*
X004117Y014661D02*
X004157Y014661D01*
X004157Y014819D02*
X004117Y014819D01*
X004117Y014978D02*
X004157Y014978D01*
X004157Y015136D02*
X004117Y015136D01*
X004117Y015295D02*
X004157Y015295D01*
X004157Y015454D02*
X004117Y015454D01*
X004117Y015612D02*
X004157Y015612D01*
X004157Y015771D02*
X004117Y015771D01*
X004117Y015929D02*
X004157Y015929D01*
X004157Y016088D02*
X004117Y016088D01*
X004117Y016246D02*
X004157Y016246D01*
X004157Y016405D02*
X004117Y016405D01*
X004117Y016563D02*
X004157Y016563D01*
X004157Y016722D02*
X004117Y016722D01*
X004117Y016880D02*
X004157Y016880D01*
X004157Y017039D02*
X004117Y017039D01*
X004117Y017198D02*
X004207Y017198D01*
X004117Y017356D02*
X004363Y017356D01*
X004117Y017515D02*
X005118Y017515D01*
X005156Y017515D02*
X006287Y017515D01*
X006322Y017480D02*
X006370Y017460D01*
X006192Y017282D01*
X005888Y017282D01*
X005911Y017304D01*
X005911Y017483D01*
X005156Y017483D01*
X005156Y017520D01*
X005911Y017520D01*
X005911Y017699D01*
X005660Y017950D01*
X005717Y018006D01*
X005847Y018137D01*
X005847Y018047D01*
X005952Y017942D01*
X006184Y017942D01*
X006157Y017877D01*
X006157Y017726D01*
X006215Y017586D01*
X006322Y017480D01*
X006266Y017356D02*
X005911Y017356D01*
X005911Y017673D02*
X006179Y017673D01*
X006157Y017832D02*
X005778Y017832D01*
X005701Y017990D02*
X005904Y017990D01*
X005526Y018466D02*
X004901Y018466D01*
X004673Y018466D02*
X004117Y018466D01*
X004117Y018624D02*
X004543Y018624D01*
X004384Y018783D02*
X004117Y018783D01*
X004117Y018941D02*
X004363Y018941D01*
X004363Y019100D02*
X004117Y019100D01*
X004117Y019259D02*
X004423Y019259D01*
X004581Y019417D02*
X004117Y019417D01*
X004117Y019576D02*
X004592Y019576D01*
X004433Y019734D02*
X004117Y019734D01*
X004117Y019893D02*
X004363Y019893D01*
X004363Y020051D02*
X004117Y020051D01*
X004117Y020210D02*
X004374Y020210D01*
X004532Y020368D02*
X004117Y020368D01*
X004117Y020527D02*
X004640Y020527D01*
X004482Y020685D02*
X004117Y020685D01*
X004117Y020844D02*
X004363Y020844D01*
X004363Y021003D02*
X004117Y021003D01*
X004117Y021161D02*
X004363Y021161D01*
X004484Y021320D02*
X004117Y021320D01*
X004117Y021478D02*
X004642Y021478D01*
X004642Y021525D02*
X004363Y021804D01*
X004363Y022199D01*
X004642Y022479D01*
X005631Y022479D01*
X005911Y022199D01*
X005911Y021804D01*
X005631Y021525D01*
X004642Y021525D01*
X004531Y021637D02*
X004117Y021637D01*
X004117Y021795D02*
X004372Y021795D01*
X004363Y021954D02*
X004117Y021954D01*
X004117Y022112D02*
X004363Y022112D01*
X004435Y022271D02*
X004117Y022271D01*
X004117Y022429D02*
X004593Y022429D01*
X004642Y022525D02*
X004363Y022804D01*
X004363Y022983D01*
X005118Y022983D01*
X005118Y023020D01*
X004363Y023020D01*
X004363Y023199D01*
X004642Y023479D01*
X005118Y023479D01*
X005118Y023020D01*
X005155Y023020D01*
X005155Y023479D01*
X005631Y023479D01*
X005911Y023199D01*
X005911Y023020D01*
X005156Y023020D01*
X005156Y022983D01*
X005911Y022983D01*
X005911Y022804D01*
X005631Y022525D01*
X005155Y022525D01*
X005155Y022983D01*
X005118Y022983D01*
X005118Y022525D01*
X004642Y022525D01*
X004579Y022588D02*
X004117Y022588D01*
X004117Y022747D02*
X004421Y022747D01*
X004363Y022905D02*
X004117Y022905D01*
X004117Y023064D02*
X004363Y023064D01*
X004386Y023222D02*
X004117Y023222D01*
X004117Y023381D02*
X004545Y023381D01*
X004117Y023539D02*
X010407Y023539D01*
X010407Y023381D02*
X005729Y023381D01*
X005888Y023222D02*
X010441Y023222D01*
X010600Y023064D02*
X005911Y023064D01*
X005911Y022905D02*
X011368Y022905D01*
X011357Y022747D02*
X005853Y022747D01*
X005694Y022588D02*
X010036Y022588D01*
X009928Y022429D02*
X005680Y022429D01*
X005839Y022271D02*
X009569Y022271D01*
X009442Y022112D02*
X005911Y022112D01*
X005911Y021954D02*
X009407Y021954D01*
X009440Y021795D02*
X005902Y021795D01*
X005743Y021637D02*
X009557Y021637D01*
X009557Y021478D02*
X009405Y021478D01*
X009427Y021320D02*
X009557Y021320D01*
X009557Y021161D02*
X009427Y021161D01*
X009382Y021003D02*
X009557Y021003D01*
X009557Y020844D02*
X009427Y020844D01*
X009427Y020685D02*
X009557Y020685D01*
X009557Y020527D02*
X009407Y020527D01*
X009427Y020368D02*
X009557Y020368D01*
X009557Y020210D02*
X009427Y020210D01*
X009427Y020051D02*
X009557Y020051D01*
X009557Y019893D02*
X009427Y019893D01*
X009427Y019734D02*
X009679Y019734D01*
X009427Y019576D02*
X010748Y019576D01*
X010902Y019417D02*
X009427Y019417D01*
X009427Y019259D02*
X010818Y019259D01*
X010448Y019100D02*
X009427Y019100D01*
X009427Y018941D02*
X010333Y018941D01*
X010307Y018783D02*
X009631Y018783D01*
X009667Y018624D02*
X010349Y018624D01*
X010505Y018466D02*
X009667Y018466D01*
X009667Y018307D02*
X010455Y018307D01*
X010366Y018149D02*
X009667Y018149D01*
X009667Y017990D02*
X010357Y017990D01*
X010419Y017832D02*
X009542Y017832D01*
X009384Y017673D02*
X010658Y017673D01*
X010816Y017673D02*
X010847Y017673D01*
X010620Y017515D02*
X009225Y017515D01*
X009066Y017356D02*
X010410Y017356D01*
X010357Y017198D02*
X008908Y017198D01*
X008749Y017039D02*
X010372Y017039D01*
X010471Y016880D02*
X008591Y016880D01*
X008432Y016722D02*
X010470Y016722D01*
X010372Y016563D02*
X008274Y016563D01*
X008115Y016405D02*
X010357Y016405D01*
X010411Y016246D02*
X007957Y016246D01*
X007671Y016088D02*
X010623Y016088D01*
X010851Y016088D02*
X014055Y016088D01*
X013899Y015929D02*
X007717Y015929D01*
X007793Y015771D02*
X013857Y015771D01*
X013883Y015612D02*
X007952Y015612D01*
X008110Y015454D02*
X013998Y015454D01*
X014476Y015454D02*
X020557Y015454D01*
X020557Y015612D02*
X014590Y015612D01*
X014617Y015771D02*
X020557Y015771D01*
X020557Y015929D02*
X014575Y015929D01*
X014517Y016088D02*
X020557Y016088D01*
X020155Y016246D02*
X014868Y016246D01*
X014881Y016405D02*
X014868Y016405D01*
X015192Y016405D02*
X017296Y016405D01*
X017212Y016563D02*
X017136Y016563D01*
X016638Y016563D02*
X015370Y016563D01*
X015417Y016722D02*
X016529Y016722D01*
X016993Y015295D02*
X008269Y015295D01*
X008427Y015136D02*
X016881Y015136D01*
X016857Y014978D02*
X008586Y014978D01*
X008744Y014819D02*
X016901Y014819D01*
X017067Y014661D02*
X008903Y014661D01*
X009061Y014502D02*
X020057Y014502D01*
X020091Y014344D02*
X009220Y014344D01*
X009379Y014185D02*
X011318Y014185D01*
X011260Y014027D02*
X009537Y014027D01*
X009696Y013868D02*
X011260Y013868D01*
X011260Y013710D02*
X009854Y013710D01*
X010013Y013551D02*
X011260Y013551D01*
X011260Y013392D02*
X010171Y013392D01*
X010330Y013234D02*
X011260Y013234D01*
X011260Y013075D02*
X010488Y013075D01*
X010647Y012917D02*
X011260Y012917D01*
X011436Y012283D02*
X012031Y012283D01*
X012157Y012124D02*
X011601Y012124D01*
X011765Y011966D02*
X012182Y011966D01*
X012294Y011807D02*
X011930Y011807D01*
X012094Y011649D02*
X016115Y011649D01*
X015956Y011807D02*
X012780Y011807D01*
X012892Y011966D02*
X015798Y011966D01*
X015642Y012122D02*
X015511Y012122D01*
X015372Y012180D01*
X015265Y012286D01*
X015207Y012426D01*
X015207Y012577D01*
X015265Y012717D01*
X015318Y012771D01*
X014865Y012771D01*
X014760Y012876D01*
X014760Y013122D01*
X014632Y013122D01*
X014569Y013122D01*
X014424Y013062D01*
X014249Y013062D01*
X014088Y013129D01*
X013964Y013252D01*
X013897Y013414D01*
X013897Y013589D01*
X013964Y013751D01*
X014088Y013875D01*
X014249Y013942D01*
X014424Y013942D01*
X014586Y013875D01*
X014710Y013751D01*
X014760Y013630D01*
X014760Y013818D01*
X015118Y013818D01*
X015118Y013855D01*
X014760Y013855D01*
X014760Y014127D01*
X014865Y014233D01*
X015118Y014233D01*
X015118Y013855D01*
X015155Y013855D01*
X015155Y014233D01*
X015408Y014233D01*
X015514Y014127D01*
X015514Y013855D01*
X015156Y013855D01*
X015156Y013818D01*
X015514Y013818D01*
X015514Y013545D01*
X015470Y013502D01*
X015514Y013458D01*
X015514Y012882D01*
X015662Y012882D01*
X015802Y012824D01*
X015909Y012717D01*
X015967Y012577D01*
X015967Y012447D01*
X017182Y011232D01*
X018169Y011232D01*
X018129Y011272D01*
X017892Y011272D01*
X017757Y011406D01*
X017757Y011406D01*
X017492Y011672D01*
X017361Y011672D01*
X017222Y011730D01*
X017115Y011836D01*
X017057Y011976D01*
X017057Y012127D01*
X017115Y012267D01*
X017222Y012374D01*
X017270Y012394D01*
X016742Y012922D01*
X016611Y012922D01*
X016472Y012980D01*
X016365Y013086D01*
X016307Y013226D01*
X016307Y013377D01*
X016365Y013517D01*
X016472Y013624D01*
X016611Y013682D01*
X016762Y013682D01*
X016902Y013624D01*
X017009Y013517D01*
X017062Y013389D01*
X017115Y013517D01*
X017222Y013624D01*
X017361Y013682D01*
X017512Y013682D01*
X017652Y013624D01*
X017759Y013517D01*
X017817Y013377D01*
X017817Y013247D01*
X018235Y012829D01*
X018361Y012882D01*
X018512Y012882D01*
X018652Y012824D01*
X018759Y012717D01*
X018817Y012577D01*
X018817Y012426D01*
X018759Y012286D01*
X018704Y012232D01*
X019932Y012232D01*
X020067Y012097D01*
X020282Y011882D01*
X020412Y011882D01*
X020552Y011824D01*
X020659Y011717D01*
X020717Y011577D01*
X020717Y011426D01*
X020659Y011286D01*
X020552Y011180D01*
X020412Y011122D01*
X020261Y011122D01*
X020122Y011180D01*
X020015Y011286D01*
X019957Y011426D01*
X019957Y011556D01*
X019742Y011772D01*
X018704Y011772D01*
X018759Y011717D01*
X018817Y011577D01*
X018817Y011426D01*
X018759Y011286D01*
X018704Y011232D01*
X019932Y011232D01*
X020067Y011097D01*
X020282Y010882D01*
X020412Y010882D01*
X020552Y010824D01*
X020659Y010717D01*
X020717Y010577D01*
X020717Y010426D01*
X020659Y010286D01*
X020552Y010180D01*
X020412Y010122D01*
X020261Y010122D01*
X020122Y010180D01*
X020015Y010286D01*
X019957Y010426D01*
X019957Y010556D01*
X019742Y010772D01*
X016992Y010772D01*
X016857Y010906D01*
X015642Y012122D01*
X015505Y012124D02*
X012917Y012124D01*
X012873Y012283D02*
X015268Y012283D01*
X015207Y012441D02*
X012710Y012441D01*
X012364Y012600D02*
X015216Y012600D01*
X015306Y012758D02*
X012205Y012758D01*
X012014Y012917D02*
X014760Y012917D01*
X014760Y013075D02*
X014457Y013075D01*
X014216Y013075D02*
X012557Y013075D01*
X012316Y013075D02*
X012014Y013075D01*
X012047Y013710D02*
X012014Y013710D01*
X012014Y013868D02*
X012181Y013868D01*
X012014Y014027D02*
X014760Y014027D01*
X014760Y013868D02*
X014593Y013868D01*
X014727Y013710D02*
X014760Y013710D01*
X014818Y014185D02*
X011956Y014185D01*
X011655Y014185D02*
X011618Y014185D01*
X011618Y014027D02*
X011655Y014027D01*
X011655Y013868D02*
X011618Y013868D01*
X012693Y013868D02*
X014081Y013868D01*
X013947Y013710D02*
X012827Y013710D01*
X012877Y013551D02*
X013897Y013551D01*
X013906Y013392D02*
X012868Y013392D01*
X012791Y013234D02*
X013982Y013234D01*
X015118Y013868D02*
X015155Y013868D01*
X015155Y014027D02*
X015118Y014027D01*
X015118Y014185D02*
X015155Y014185D01*
X015456Y014185D02*
X020216Y014185D01*
X020658Y014185D02*
X021107Y014185D01*
X021107Y014027D02*
X015514Y014027D01*
X015514Y013868D02*
X021107Y013868D01*
X021107Y013710D02*
X015514Y013710D01*
X015514Y013551D02*
X016399Y013551D01*
X016313Y013392D02*
X015514Y013392D01*
X015514Y013234D02*
X016307Y013234D01*
X016376Y013075D02*
X015514Y013075D01*
X015514Y012917D02*
X016746Y012917D01*
X016905Y012758D02*
X015868Y012758D01*
X015957Y012600D02*
X017064Y012600D01*
X017222Y012441D02*
X015973Y012441D01*
X016131Y012283D02*
X017130Y012283D01*
X017057Y012124D02*
X016290Y012124D01*
X016448Y011966D02*
X017061Y011966D01*
X017144Y011807D02*
X016607Y011807D01*
X016765Y011649D02*
X017515Y011649D01*
X017673Y011490D02*
X016924Y011490D01*
X017082Y011331D02*
X017832Y011331D01*
X017307Y010063D02*
X021107Y010063D01*
X021107Y009905D02*
X018659Y009905D01*
X018825Y009746D02*
X021107Y009746D01*
X021107Y009587D02*
X018993Y009587D01*
X019161Y009429D02*
X021107Y009429D01*
X021107Y009270D02*
X019328Y009270D01*
X019496Y009112D02*
X021107Y009112D01*
X021107Y008953D02*
X019664Y008953D01*
X019832Y008795D02*
X020092Y008795D01*
X020581Y008795D02*
X021107Y008795D01*
X021357Y008161D02*
X020506Y008161D01*
X020567Y008002D02*
X021357Y008002D01*
X021357Y007843D02*
X020567Y007843D01*
X020672Y007685D02*
X021357Y007685D01*
X021357Y007526D02*
X020717Y007526D01*
X020693Y007368D02*
X021357Y007368D01*
X021357Y007209D02*
X020582Y007209D01*
X020092Y007209D02*
X013366Y007209D01*
X013566Y007051D02*
X021357Y007051D01*
X021357Y006892D02*
X013617Y006892D01*
X013599Y006734D02*
X021357Y006734D01*
X021357Y006575D02*
X013498Y006575D01*
X012976Y006575D02*
X011248Y006575D01*
X011159Y006417D02*
X011864Y006417D01*
X011770Y006258D02*
X011283Y006258D01*
X011317Y006099D02*
X011757Y006099D01*
X011934Y005624D02*
X014058Y005624D01*
X014059Y005782D02*
X012238Y005782D01*
X012461Y005941D02*
X014139Y005941D01*
X014509Y006099D02*
X012517Y006099D01*
X012504Y006258D02*
X014668Y006258D01*
X015206Y006258D02*
X021357Y006258D01*
X021357Y006099D02*
X015364Y006099D01*
X014675Y005122D02*
X014598Y005122D01*
X014617Y005077D01*
X014617Y004926D01*
X014559Y004786D01*
X014499Y004727D01*
X014559Y004667D01*
X014617Y004527D01*
X014617Y004376D01*
X014559Y004236D01*
X014452Y004130D01*
X014312Y004072D01*
X014182Y004072D01*
X013182Y003072D01*
X012992Y003072D01*
X011954Y003072D01*
X011959Y003067D01*
X012017Y002927D01*
X012017Y002776D01*
X011959Y002636D01*
X011852Y002530D01*
X011712Y002472D01*
X011561Y002472D01*
X011422Y002530D01*
X011329Y002622D01*
X011254Y002622D01*
X011259Y002617D01*
X011317Y002477D01*
X011317Y002326D01*
X011259Y002186D01*
X011152Y002080D01*
X011012Y002022D01*
X010861Y002022D01*
X010844Y002029D01*
X010787Y001982D01*
X014178Y001982D01*
X014157Y002003D01*
X014157Y002482D01*
X014617Y002482D01*
X014617Y002522D01*
X014657Y002522D01*
X014657Y003282D01*
X014836Y003282D01*
X015117Y003001D01*
X015117Y002522D01*
X014657Y002522D01*
X014657Y002482D01*
X015117Y002482D01*
X015117Y002003D01*
X015096Y001982D01*
X015178Y001982D01*
X015157Y002003D01*
X015157Y003001D01*
X015438Y003282D01*
X015836Y003282D01*
X016117Y003001D01*
X016117Y002003D01*
X016096Y001982D01*
X016178Y001982D01*
X016157Y002003D01*
X016157Y003001D01*
X016438Y003282D01*
X016836Y003282D01*
X017117Y003001D01*
X017117Y002003D01*
X017096Y001982D01*
X017178Y001982D01*
X017157Y002003D01*
X017157Y003001D01*
X017438Y003282D01*
X017836Y003282D01*
X018117Y003001D01*
X018117Y002003D01*
X018096Y001982D01*
X018178Y001982D01*
X018157Y002003D01*
X018157Y003001D01*
X018438Y003282D01*
X018836Y003282D01*
X019117Y003001D01*
X019117Y002003D01*
X019096Y001982D01*
X019642Y001982D01*
X019559Y002067D01*
X019456Y002192D01*
X019366Y002327D01*
X019288Y002469D01*
X019224Y002618D01*
X019173Y002771D01*
X019173Y002771D01*
X019136Y002929D01*
X019136Y002929D01*
X019114Y003090D01*
X019107Y003252D01*
X019114Y003414D01*
X019136Y003574D01*
X019173Y003732D01*
X019224Y003886D01*
X019288Y004034D01*
X019288Y004034D01*
X019366Y004177D01*
X019456Y004311D01*
X019559Y004437D01*
X019672Y004553D01*
X019795Y004658D01*
X019928Y004751D01*
X020068Y004832D01*
X020215Y004900D01*
X020276Y004922D01*
X015415Y004922D01*
X015359Y004786D01*
X015252Y004680D01*
X015112Y004622D01*
X014961Y004622D01*
X014822Y004680D01*
X014715Y004786D01*
X014657Y004926D01*
X014657Y005077D01*
X014675Y005122D01*
X014657Y004990D02*
X014617Y004990D01*
X014578Y004831D02*
X014696Y004831D01*
X014838Y004673D02*
X014553Y004673D01*
X014617Y004514D02*
X019634Y004514D01*
X019559Y004437D02*
X019559Y004437D01*
X019493Y004356D02*
X014608Y004356D01*
X014519Y004197D02*
X019380Y004197D01*
X019366Y004177D02*
X019366Y004177D01*
X019290Y004038D02*
X014149Y004038D01*
X013990Y003880D02*
X019222Y003880D01*
X019224Y003886D02*
X019224Y003886D01*
X019173Y003732D02*
X019173Y003732D01*
X019170Y003721D02*
X013832Y003721D01*
X013673Y003563D02*
X019135Y003563D01*
X019136Y003574D02*
X019136Y003574D01*
X019114Y003414D02*
X019114Y003414D01*
X019114Y003404D02*
X013515Y003404D01*
X013356Y003246D02*
X014402Y003246D01*
X014438Y003282D02*
X014617Y003282D01*
X014617Y002522D01*
X014157Y002522D01*
X014157Y003001D01*
X014438Y003282D01*
X014617Y003246D02*
X014657Y003246D01*
X014657Y003087D02*
X014617Y003087D01*
X014617Y002929D02*
X014657Y002929D01*
X014657Y002770D02*
X014617Y002770D01*
X014617Y002612D02*
X014657Y002612D01*
X015030Y003087D02*
X015244Y003087D01*
X015157Y002929D02*
X015117Y002929D01*
X015117Y002770D02*
X015157Y002770D01*
X015157Y002612D02*
X015117Y002612D01*
X015117Y002453D02*
X015157Y002453D01*
X015157Y002294D02*
X015117Y002294D01*
X015117Y002136D02*
X015157Y002136D01*
X016030Y003087D02*
X016244Y003087D01*
X016157Y002929D02*
X016117Y002929D01*
X016117Y002770D02*
X016157Y002770D01*
X016157Y002612D02*
X016117Y002612D01*
X016117Y002453D02*
X016157Y002453D01*
X016157Y002294D02*
X016117Y002294D01*
X016117Y002136D02*
X016157Y002136D01*
X017117Y002136D02*
X017157Y002136D01*
X017157Y002294D02*
X017117Y002294D01*
X017117Y002453D02*
X017157Y002453D01*
X017157Y002612D02*
X017117Y002612D01*
X017117Y002770D02*
X017157Y002770D01*
X017157Y002929D02*
X017117Y002929D01*
X017030Y003087D02*
X017244Y003087D01*
X017402Y003246D02*
X016872Y003246D01*
X016402Y003246D02*
X015872Y003246D01*
X015402Y003246D02*
X014872Y003246D01*
X014244Y003087D02*
X013198Y003087D01*
X014157Y002929D02*
X012016Y002929D01*
X012014Y002770D02*
X014157Y002770D01*
X014157Y002612D02*
X011934Y002612D01*
X011340Y002612D02*
X011261Y002612D01*
X011317Y002453D02*
X014157Y002453D01*
X014157Y002294D02*
X011304Y002294D01*
X011208Y002136D02*
X014157Y002136D01*
X015235Y004673D02*
X019816Y004673D01*
X020066Y004831D02*
X015378Y004831D01*
X014040Y008002D02*
X020002Y008002D01*
X020107Y007843D02*
X011868Y007843D01*
X011868Y008002D02*
X012734Y008002D01*
X012656Y008161D02*
X011868Y008161D01*
X011868Y008319D02*
X012656Y008319D01*
X012324Y008478D02*
X011763Y008478D01*
X011490Y008478D02*
X011453Y008478D01*
X011453Y008319D02*
X011490Y008319D01*
X011490Y008161D02*
X011453Y008161D01*
X011179Y008478D02*
X011094Y008478D01*
X011017Y008636D02*
X012223Y008636D01*
X012729Y007685D02*
X020001Y007685D01*
X019957Y007526D02*
X012887Y007526D01*
X013046Y007368D02*
X019981Y007368D01*
X019834Y008161D02*
X014118Y008161D01*
X014118Y008319D02*
X019666Y008319D01*
X019498Y008478D02*
X015117Y008478D01*
X015117Y008636D02*
X019330Y008636D01*
X019162Y008795D02*
X015117Y008795D01*
X015117Y008953D02*
X018994Y008953D01*
X018827Y009112D02*
X015117Y009112D01*
X015117Y009270D02*
X018659Y009270D01*
X018491Y009429D02*
X017451Y009429D01*
X016922Y009429D02*
X015117Y009429D01*
X015117Y009587D02*
X016823Y009587D01*
X016807Y009746D02*
X015117Y009746D01*
X015117Y009905D02*
X016860Y009905D01*
X017066Y010063D02*
X015117Y010063D01*
X015117Y010222D02*
X020080Y010222D01*
X019976Y010380D02*
X015117Y010380D01*
X015161Y010539D02*
X019957Y010539D01*
X019816Y010697D02*
X015255Y010697D01*
X015267Y010856D02*
X016908Y010856D01*
X016749Y011014D02*
X015210Y011014D01*
X014984Y011173D02*
X016590Y011173D01*
X016432Y011331D02*
X012423Y011331D01*
X012588Y011173D02*
X014790Y011173D01*
X014564Y011014D02*
X012752Y011014D01*
X012917Y010856D02*
X014507Y010856D01*
X014519Y010697D02*
X013081Y010697D01*
X013246Y010539D02*
X014612Y010539D01*
X014657Y010380D02*
X013410Y010380D01*
X013575Y010222D02*
X014657Y010222D01*
X014657Y010063D02*
X013739Y010063D01*
X013904Y009905D02*
X014657Y009905D01*
X014657Y009746D02*
X014218Y009746D01*
X014376Y009587D02*
X014657Y009587D01*
X014657Y009429D02*
X014467Y009429D01*
X014490Y009270D02*
X014657Y009270D01*
X013740Y008319D02*
X013703Y008319D01*
X013703Y008161D02*
X013740Y008161D01*
X013740Y008002D02*
X013703Y008002D01*
X013403Y008002D02*
X013370Y008002D01*
X012554Y007209D02*
X011116Y007209D01*
X011316Y007051D02*
X012713Y007051D01*
X012857Y006892D02*
X011367Y006892D01*
X011349Y006734D02*
X012874Y006734D01*
X012409Y006417D02*
X021357Y006417D01*
X019107Y003246D02*
X018872Y003246D01*
X019030Y003087D02*
X019115Y003087D01*
X019114Y003090D02*
X019114Y003090D01*
X019117Y002929D02*
X019136Y002929D01*
X019117Y002770D02*
X019173Y002770D01*
X019224Y002618D02*
X019224Y002618D01*
X019226Y002612D02*
X019117Y002612D01*
X019117Y002453D02*
X019297Y002453D01*
X019288Y002469D02*
X019288Y002469D01*
X019366Y002327D02*
X019366Y002327D01*
X019388Y002294D02*
X019117Y002294D01*
X019117Y002136D02*
X019502Y002136D01*
X019456Y002192D02*
X019456Y002192D01*
X019559Y002067D02*
X019559Y002067D01*
X018402Y003246D02*
X017872Y003246D01*
X018030Y003087D02*
X018244Y003087D01*
X018157Y002929D02*
X018117Y002929D01*
X018117Y002770D02*
X018157Y002770D01*
X018157Y002612D02*
X018117Y002612D01*
X018117Y002453D02*
X018157Y002453D01*
X018157Y002294D02*
X018117Y002294D01*
X018117Y002136D02*
X018157Y002136D01*
X020594Y010222D02*
X021107Y010222D01*
X021107Y010380D02*
X020698Y010380D01*
X020717Y010539D02*
X021107Y010539D01*
X021107Y010697D02*
X020667Y010697D01*
X020475Y010856D02*
X021107Y010856D01*
X021107Y011014D02*
X020149Y011014D01*
X020138Y011173D02*
X019991Y011173D01*
X019996Y011331D02*
X018778Y011331D01*
X018817Y011490D02*
X019957Y011490D01*
X019865Y011649D02*
X018787Y011649D01*
X018755Y012283D02*
X021107Y012283D01*
X021107Y012441D02*
X018817Y012441D01*
X018807Y012600D02*
X021107Y012600D01*
X021107Y012758D02*
X018718Y012758D01*
X018147Y012917D02*
X021107Y012917D01*
X021107Y013075D02*
X017988Y013075D01*
X017830Y013234D02*
X021107Y013234D01*
X021107Y013392D02*
X017811Y013392D01*
X017725Y013551D02*
X021107Y013551D01*
X021107Y014344D02*
X020954Y014344D01*
X021017Y014502D02*
X021107Y014502D01*
X021107Y014661D02*
X021017Y014661D01*
X021017Y014819D02*
X021107Y014819D01*
X021107Y014978D02*
X021017Y014978D01*
X021017Y015136D02*
X021107Y015136D01*
X021107Y015295D02*
X021017Y015295D01*
X021017Y015454D02*
X021107Y015454D01*
X021107Y015612D02*
X021017Y015612D01*
X021017Y015771D02*
X021107Y015771D01*
X021107Y015929D02*
X021017Y015929D01*
X021017Y016088D02*
X021107Y016088D01*
X021107Y016246D02*
X021017Y016246D01*
X021017Y016405D02*
X021107Y016405D01*
X021107Y016563D02*
X021017Y016563D01*
X021017Y016722D02*
X021107Y016722D01*
X021107Y016880D02*
X021017Y016880D01*
X021017Y017039D02*
X021107Y017039D01*
X021107Y017198D02*
X021017Y017198D01*
X021017Y017356D02*
X021107Y017356D01*
X021107Y017515D02*
X021017Y017515D01*
X021017Y017673D02*
X021107Y017673D01*
X021107Y017832D02*
X021017Y017832D01*
X021017Y017990D02*
X021107Y017990D01*
X021107Y018149D02*
X021017Y018149D01*
X021017Y018307D02*
X021107Y018307D01*
X021107Y018466D02*
X021017Y018466D01*
X021017Y018624D02*
X021107Y018624D01*
X021107Y018783D02*
X021017Y018783D01*
X021107Y018941D02*
X020922Y018941D01*
X020764Y019100D02*
X021107Y019100D01*
X021107Y019259D02*
X018983Y019259D01*
X019017Y019100D02*
X020110Y019100D01*
X020521Y019893D02*
X017763Y019893D01*
X017617Y019734D02*
X020679Y019734D01*
X020838Y019576D02*
X017688Y019576D01*
X017847Y019417D02*
X018415Y019417D01*
X018859Y019417D02*
X020996Y019417D01*
X020362Y020051D02*
X018784Y020051D01*
X018969Y020210D02*
X020203Y020210D01*
X020045Y020368D02*
X019017Y020368D01*
X018996Y020527D02*
X019886Y020527D01*
X019728Y020685D02*
X018890Y020685D01*
X018257Y020368D02*
X018000Y020368D01*
X018017Y020210D02*
X018305Y020210D01*
X018490Y020051D02*
X017965Y020051D01*
X015416Y023856D02*
X012417Y023856D01*
X012258Y023698D02*
X015258Y023698D01*
X015099Y023539D02*
X012117Y023539D01*
X012117Y023556D02*
X012117Y023426D01*
X012098Y023382D01*
X013332Y023382D01*
X013467Y023247D01*
X013832Y022882D01*
X013962Y022882D01*
X014102Y022824D01*
X014209Y022717D01*
X014229Y022669D01*
X015582Y024022D01*
X012582Y024022D01*
X012117Y023556D01*
X011792Y023882D02*
X012257Y024347D01*
X012392Y024482D01*
X012525Y024482D01*
X012507Y024526D01*
X012507Y024677D01*
X012565Y024817D01*
X012672Y024924D01*
X012811Y024982D01*
X012962Y024982D01*
X013102Y024924D01*
X013209Y024817D01*
X013224Y024782D01*
X013225Y024782D01*
X013207Y024826D01*
X013207Y024956D01*
X013042Y025122D01*
X012782Y025122D01*
X012592Y025122D01*
X012164Y025550D01*
X012136Y025522D01*
X011138Y025522D01*
X010867Y025793D01*
X010867Y023447D01*
X010932Y023382D01*
X011375Y023382D01*
X011357Y023426D01*
X011357Y023577D01*
X011415Y023717D01*
X011522Y023824D01*
X011661Y023882D01*
X011792Y023882D01*
X011925Y024015D02*
X010867Y024015D01*
X010867Y024173D02*
X012083Y024173D01*
X012242Y024332D02*
X010867Y024332D01*
X010867Y024491D02*
X012522Y024491D01*
X012507Y024649D02*
X010867Y024649D01*
X010867Y024808D02*
X012561Y024808D01*
X012774Y024966D02*
X010867Y024966D01*
X010867Y025125D02*
X012589Y025125D01*
X012430Y025283D02*
X010867Y025283D01*
X010867Y025442D02*
X012272Y025442D01*
X013000Y024966D02*
X013197Y024966D01*
X013213Y024808D02*
X013215Y024808D01*
X012575Y024015D02*
X015575Y024015D01*
X014941Y023381D02*
X013333Y023381D01*
X013492Y023222D02*
X014782Y023222D01*
X014624Y023064D02*
X013650Y023064D01*
X013809Y022905D02*
X014465Y022905D01*
X014306Y022747D02*
X014179Y022747D01*
X011928Y020368D02*
X011417Y020368D01*
X011410Y020210D02*
X011770Y020210D01*
X011611Y020051D02*
X011325Y020051D01*
X011440Y019893D02*
X011453Y019893D01*
X011349Y020527D02*
X011824Y020527D01*
X011757Y020685D02*
X011067Y020685D01*
X011067Y020844D02*
X011764Y020844D01*
X011850Y021003D02*
X011067Y021003D01*
X011067Y021161D02*
X011907Y021161D01*
X011907Y021320D02*
X011044Y021320D01*
X010886Y021478D02*
X011907Y021478D01*
X011907Y021637D02*
X010727Y021637D01*
X010569Y021795D02*
X011907Y021795D01*
X011907Y021954D02*
X010517Y021954D01*
X010620Y022112D02*
X011907Y022112D01*
X011907Y022271D02*
X010667Y022271D01*
X010645Y022429D02*
X011643Y022429D01*
X011831Y022429D02*
X011907Y022429D01*
X011414Y022588D02*
X010538Y022588D01*
X010867Y023539D02*
X011357Y023539D01*
X011407Y023698D02*
X010867Y023698D01*
X010867Y023856D02*
X011600Y023856D01*
X010407Y023856D02*
X004117Y023856D01*
X004117Y023698D02*
X010407Y023698D01*
X010407Y024015D02*
X004117Y024015D01*
X004117Y024173D02*
X004841Y024173D01*
X004844Y024170D02*
X004707Y024308D01*
X004707Y024502D01*
X004707Y024502D01*
X004707Y024701D01*
X004707Y024896D01*
X004805Y024995D01*
X004935Y025125D01*
X004842Y025125D01*
X004889Y025171D02*
X004789Y025072D01*
X004594Y025072D01*
X004457Y025209D01*
X004457Y025505D01*
X004457Y025699D01*
X004457Y025798D01*
X004654Y025995D01*
X004791Y026132D01*
X004986Y026132D01*
X005112Y026006D01*
X005239Y026132D01*
X005534Y026132D01*
X005729Y026132D01*
X005806Y026055D01*
X005884Y026132D01*
X006179Y026132D01*
X006373Y026132D01*
X006373Y026132D01*
X006455Y026051D01*
X006472Y026034D01*
X006540Y025965D01*
X006541Y025965D01*
X006560Y025945D01*
X006610Y025896D01*
X006610Y025798D01*
X006610Y025603D01*
X006608Y025602D01*
X006610Y025601D01*
X006610Y025502D01*
X006610Y025308D01*
X006541Y025239D01*
X006537Y025236D01*
X006472Y025170D01*
X006472Y025170D01*
X006457Y025155D01*
X006373Y025072D01*
X006039Y025072D01*
X006060Y025051D01*
X006077Y025034D01*
X006101Y025010D01*
X006146Y024965D01*
X006215Y024896D01*
X006215Y024701D01*
X006215Y024603D01*
X006214Y024602D01*
X006215Y024601D01*
X006215Y024502D01*
X006215Y024308D01*
X006146Y024239D01*
X006144Y024237D01*
X006077Y024170D01*
X006063Y024156D01*
X005979Y024072D01*
X005782Y024072D01*
X005587Y024072D01*
X005489Y024170D01*
X005461Y024198D01*
X005433Y024170D01*
X005418Y024155D01*
X005334Y024072D01*
X005138Y024072D01*
X004943Y024072D01*
X004844Y024170D01*
X004707Y024332D02*
X004117Y024332D01*
X004117Y024491D02*
X004707Y024491D01*
X004707Y024649D02*
X004117Y024649D01*
X004117Y024808D02*
X004707Y024808D01*
X004777Y024966D02*
X004117Y024966D01*
X004117Y025125D02*
X004542Y025125D01*
X004457Y025283D02*
X004117Y025283D01*
X004117Y025442D02*
X004457Y025442D01*
X004457Y025600D02*
X004117Y025600D01*
X004117Y025759D02*
X004457Y025759D01*
X004577Y025917D02*
X004117Y025917D01*
X004117Y026076D02*
X004735Y026076D01*
X004986Y026132D02*
X004986Y026132D01*
X005042Y026076D02*
X005183Y026076D01*
X005729Y026132D02*
X005729Y026132D01*
X005785Y026076D02*
X005827Y026076D01*
X006253Y026710D02*
X004117Y026710D01*
X004117Y026552D02*
X006412Y026552D01*
X006570Y026393D02*
X004117Y026393D01*
X004117Y026234D02*
X006729Y026234D01*
X006807Y026076D02*
X006430Y026076D01*
X006472Y026034D02*
X006472Y026034D01*
X006588Y025917D02*
X006852Y025917D01*
X007022Y025759D02*
X006610Y025759D01*
X006610Y025600D02*
X010407Y025600D01*
X010407Y025442D02*
X006610Y025442D01*
X006585Y025283D02*
X010407Y025283D01*
X010407Y025125D02*
X006426Y025125D01*
X006145Y024966D02*
X010407Y024966D01*
X010407Y024808D02*
X006215Y024808D01*
X006215Y024649D02*
X010407Y024649D01*
X010407Y024491D02*
X006215Y024491D01*
X006215Y024332D02*
X010407Y024332D01*
X010407Y024173D02*
X006081Y024173D01*
X006077Y024170D02*
X006077Y024170D01*
X005486Y024173D02*
X005436Y024173D01*
X005433Y024170D02*
X005433Y024170D01*
X005155Y023381D02*
X005118Y023381D01*
X005118Y023222D02*
X005155Y023222D01*
X005155Y023064D02*
X005118Y023064D01*
X005118Y022905D02*
X005155Y022905D01*
X005155Y022747D02*
X005118Y022747D01*
X005118Y022588D02*
X005155Y022588D01*
X005631Y021478D02*
X005869Y021478D01*
X005847Y021320D02*
X005790Y021320D01*
X005867Y020527D02*
X005633Y020527D01*
X005741Y020368D02*
X005847Y020368D01*
X006985Y021478D02*
X008289Y021478D01*
X008267Y021320D02*
X008044Y021320D01*
X008117Y021161D02*
X008267Y021161D01*
X008311Y021003D02*
X008117Y021003D01*
X008117Y020844D02*
X008267Y020844D01*
X008267Y020685D02*
X008117Y020685D01*
X008117Y020527D02*
X008287Y020527D01*
X008267Y020368D02*
X008117Y020368D01*
X008117Y020210D02*
X008267Y020210D01*
X008267Y020051D02*
X008117Y020051D01*
X008117Y019893D02*
X008267Y019893D01*
X008267Y019734D02*
X008117Y019734D01*
X008117Y019576D02*
X008267Y019576D01*
X008267Y019417D02*
X008117Y019417D01*
X008117Y019259D02*
X008267Y019259D01*
X008267Y019100D02*
X008117Y019100D01*
X008117Y018941D02*
X008267Y018941D01*
X008267Y018783D02*
X008117Y018783D01*
X008117Y018624D02*
X008267Y018624D01*
X008276Y018466D02*
X008026Y018466D01*
X007868Y018307D02*
X008267Y018307D01*
X008159Y018149D02*
X007709Y018149D01*
X007551Y017990D02*
X008000Y017990D01*
X007842Y017832D02*
X007392Y017832D01*
X007234Y017673D02*
X007683Y017673D01*
X007524Y017515D02*
X007075Y017515D01*
X006916Y017356D02*
X007366Y017356D01*
X007207Y017198D02*
X006758Y017198D01*
X006599Y017039D02*
X007049Y017039D01*
X006890Y016880D02*
X006441Y016880D01*
X006732Y016722D02*
X005888Y016722D01*
X005911Y016563D02*
X006573Y016563D01*
X006415Y016405D02*
X005911Y016405D01*
X005853Y016246D02*
X006256Y016246D01*
X006098Y016088D02*
X005694Y016088D01*
X005681Y015929D02*
X005939Y015929D01*
X006117Y015454D02*
X006207Y015454D01*
X006207Y015295D02*
X006117Y015295D01*
X006117Y015136D02*
X006207Y015136D01*
X006207Y014978D02*
X006117Y014978D01*
X006117Y014819D02*
X006207Y014819D01*
X006207Y014661D02*
X006117Y014661D01*
X006117Y014502D02*
X006207Y014502D01*
X006207Y014344D02*
X006117Y014344D01*
X006117Y014185D02*
X006278Y014185D01*
X006117Y014027D02*
X006441Y014027D01*
X006603Y013868D02*
X006117Y013868D01*
X006117Y013710D02*
X006765Y013710D01*
X006928Y013551D02*
X006011Y013551D01*
X005911Y013392D02*
X007090Y013392D01*
X007253Y013234D02*
X005840Y013234D01*
X005682Y013075D02*
X007415Y013075D01*
X007578Y012917D02*
X005597Y012917D01*
X005755Y012758D02*
X007740Y012758D01*
X007902Y012600D02*
X005914Y012600D01*
X006073Y012441D02*
X008065Y012441D01*
X008227Y012283D02*
X006231Y012283D01*
X006390Y012124D02*
X008390Y012124D01*
X008552Y011966D02*
X006548Y011966D01*
X006707Y011807D02*
X008714Y011807D01*
X008877Y011649D02*
X006865Y011649D01*
X007024Y011490D02*
X009039Y011490D01*
X009202Y011331D02*
X007182Y011331D01*
X007341Y011173D02*
X009364Y011173D01*
X009526Y011014D02*
X007654Y011014D01*
X007864Y010856D02*
X009689Y010856D01*
X009851Y010697D02*
X007917Y010697D01*
X007901Y010539D02*
X010014Y010539D01*
X010176Y010380D02*
X007803Y010380D01*
X007271Y010380D02*
X006484Y010380D01*
X006642Y010222D02*
X010339Y010222D01*
X009707Y009587D02*
X005694Y009587D01*
X005681Y009429D02*
X009707Y009429D01*
X009707Y009270D02*
X005839Y009270D01*
X005852Y009746D02*
X006467Y009746D01*
X006309Y009905D02*
X005911Y009905D01*
X005911Y010063D02*
X006150Y010063D01*
X005992Y010222D02*
X005888Y010222D01*
X005833Y010380D02*
X005730Y010380D01*
X005675Y010539D02*
X005645Y010539D01*
X006008Y010856D02*
X007008Y010856D01*
X007157Y010697D02*
X006167Y010697D01*
X006325Y010539D02*
X007172Y010539D01*
X006849Y011014D02*
X005911Y011014D01*
X005911Y011173D02*
X006690Y011173D01*
X006532Y011331D02*
X005778Y011331D01*
X005755Y011649D02*
X006215Y011649D01*
X006056Y011807D02*
X005911Y011807D01*
X006373Y011490D02*
X004117Y011490D01*
X004117Y012600D02*
X005264Y012600D01*
X005155Y012441D02*
X005118Y012441D01*
X005118Y012283D02*
X005155Y012283D01*
X005155Y012124D02*
X005118Y012124D01*
X005118Y011966D02*
X005155Y011966D01*
X005155Y011807D02*
X005118Y011807D01*
X005118Y011649D02*
X005155Y011649D01*
X005105Y012758D02*
X004117Y012758D01*
X006667Y014449D02*
X009507Y011676D01*
X009507Y011777D01*
X009565Y011917D01*
X009672Y012024D01*
X009756Y012059D01*
X009707Y012176D01*
X009707Y012327D01*
X009765Y012467D01*
X009872Y012574D01*
X010011Y012632D01*
X010162Y012632D01*
X010302Y012574D01*
X010394Y012482D01*
X010432Y012482D01*
X007392Y015522D01*
X007261Y015522D01*
X007122Y015580D01*
X007015Y015686D01*
X006957Y015826D01*
X006957Y015977D01*
X006970Y016010D01*
X006667Y015706D01*
X006667Y014449D01*
X006667Y014502D02*
X008411Y014502D01*
X008570Y014344D02*
X006774Y014344D01*
X006937Y014185D02*
X008728Y014185D01*
X008887Y014027D02*
X007099Y014027D01*
X007261Y013868D02*
X009045Y013868D01*
X009204Y013710D02*
X007424Y013710D01*
X007586Y013551D02*
X009362Y013551D01*
X009521Y013392D02*
X007749Y013392D01*
X007911Y013234D02*
X009679Y013234D01*
X009838Y013075D02*
X008073Y013075D01*
X008236Y012917D02*
X009996Y012917D01*
X010155Y012758D02*
X008398Y012758D01*
X008561Y012600D02*
X009934Y012600D01*
X009754Y012441D02*
X008723Y012441D01*
X008886Y012283D02*
X009707Y012283D01*
X009728Y012124D02*
X009048Y012124D01*
X009210Y011966D02*
X009613Y011966D01*
X009519Y011807D02*
X009373Y011807D01*
X010240Y012600D02*
X010314Y012600D01*
X012259Y011490D02*
X016273Y011490D01*
X017060Y013392D02*
X017063Y013392D01*
X017149Y013551D02*
X016975Y013551D01*
X017407Y014661D02*
X020091Y014661D01*
X020093Y015295D02*
X017481Y015295D01*
X020040Y012124D02*
X021107Y012124D01*
X021107Y011966D02*
X020198Y011966D01*
X020569Y011807D02*
X021107Y011807D01*
X021107Y011649D02*
X020687Y011649D01*
X020717Y011490D02*
X021107Y011490D01*
X021107Y011331D02*
X020678Y011331D01*
X020536Y011173D02*
X021107Y011173D01*
X014365Y017356D02*
X014324Y017356D01*
X014357Y017515D02*
X012817Y017515D01*
X012817Y017673D02*
X013690Y017673D01*
X013532Y017832D02*
X012817Y017832D01*
X012817Y017990D02*
X013457Y017990D01*
X013457Y018149D02*
X012817Y018149D01*
X012817Y018307D02*
X013457Y018307D01*
X013457Y018466D02*
X012817Y018466D01*
X012935Y018624D02*
X013457Y018624D01*
X013457Y018783D02*
X013093Y018783D01*
X013252Y018941D02*
X013457Y018941D01*
X013457Y019100D02*
X013410Y019100D01*
X012817Y017356D02*
X014049Y017356D01*
X013857Y017198D02*
X012708Y017198D01*
X012549Y017039D02*
X013807Y017039D01*
X013826Y016880D02*
X012391Y016880D01*
X012232Y016722D02*
X013406Y016722D01*
X013406Y016563D02*
X012074Y016563D01*
X011915Y016405D02*
X013406Y016405D01*
X013406Y016246D02*
X011757Y016246D01*
X013784Y016246D02*
X013821Y016246D01*
X013821Y016405D02*
X013784Y016405D01*
X013784Y016563D02*
X013821Y016563D01*
X013821Y016722D02*
X013784Y016722D01*
X008847Y021320D02*
X008847Y021320D01*
X008847Y021478D02*
X008847Y021478D01*
X010867Y025600D02*
X011059Y025600D01*
X010901Y025759D02*
X010867Y025759D01*
X010407Y025759D02*
X007352Y025759D01*
X007522Y025917D02*
X010407Y025917D01*
X010407Y026076D02*
X007567Y026076D01*
X007543Y026234D02*
X010407Y026234D01*
X010407Y026393D02*
X007433Y026393D01*
X007062Y026552D02*
X010407Y026552D01*
X010407Y026710D02*
X006904Y026710D01*
X006095Y026869D02*
X004117Y026869D01*
X004117Y027027D02*
X005936Y027027D01*
X005778Y027186D02*
X004117Y027186D01*
X004117Y027344D02*
X005619Y027344D01*
X005461Y027503D02*
X004117Y027503D01*
X004117Y027661D02*
X005302Y027661D01*
X005143Y027820D02*
X004117Y027820D01*
X004117Y027978D02*
X004985Y027978D01*
X004826Y028137D02*
X004117Y028137D01*
X004117Y028296D02*
X004668Y028296D01*
X004509Y028454D02*
X004117Y028454D01*
X004117Y028613D02*
X004351Y028613D01*
X004192Y028771D02*
X004117Y028771D01*
X005114Y030674D02*
X005160Y030674D01*
X005160Y030832D02*
X005114Y030832D01*
X005114Y030991D02*
X005160Y030991D01*
X004117Y031482D02*
X017442Y031482D01*
X017632Y031482D01*
X018532Y030582D01*
X018662Y030582D01*
X018802Y030524D01*
X018909Y030417D01*
X018967Y030277D01*
X018967Y030126D01*
X018914Y029999D01*
X020232Y028682D01*
X020367Y028547D01*
X020367Y027532D01*
X020502Y027532D01*
X020447Y027664D01*
X020447Y027751D01*
X020886Y027751D01*
X020886Y027752D01*
X020447Y027752D01*
X020447Y027839D01*
X020514Y028001D01*
X020638Y028125D01*
X020799Y028192D01*
X020887Y028192D01*
X020974Y028192D01*
X021136Y028125D01*
X021260Y028001D01*
X021327Y027839D01*
X021327Y027752D01*
X020887Y027752D01*
X020887Y028192D01*
X020887Y027752D01*
X020887Y027752D01*
X020887Y027751D01*
X021327Y027751D01*
X021327Y027664D01*
X021272Y027532D01*
X021542Y027532D01*
X021545Y027532D01*
X021638Y027625D01*
X021799Y027692D01*
X021974Y027692D01*
X022136Y027625D01*
X022157Y027604D01*
X022157Y027900D01*
X022136Y027879D01*
X021974Y027812D01*
X021799Y027812D01*
X021638Y027879D01*
X021514Y028002D01*
X021447Y028164D01*
X021447Y028339D01*
X021514Y028501D01*
X021638Y028625D01*
X021799Y028692D01*
X021974Y028692D01*
X022136Y028625D01*
X022157Y028604D01*
X022157Y029505D01*
X022041Y029397D01*
X021913Y029298D01*
X021777Y029210D01*
X021633Y029136D01*
X021483Y029074D01*
X021328Y029027D01*
X021169Y028994D01*
X021008Y028976D01*
X020846Y028972D01*
X020685Y028983D01*
X020525Y029009D01*
X020368Y029049D01*
X020215Y029103D01*
X020068Y029171D01*
X019928Y029252D01*
X019795Y029346D01*
X019672Y029451D01*
X019559Y029567D01*
X019456Y029692D01*
X019366Y029827D01*
X019288Y029969D01*
X019224Y030118D01*
X019173Y030271D01*
X019173Y030271D01*
X019136Y030429D01*
X019136Y030429D01*
X019114Y030590D01*
X019107Y030752D01*
X019114Y030914D01*
X019136Y031074D01*
X019173Y031232D01*
X019224Y031386D01*
X019288Y031534D01*
X019288Y031534D01*
X019366Y031677D01*
X019456Y031811D01*
X019559Y031937D01*
X019642Y032022D01*
X004117Y032022D01*
X004117Y031482D01*
X004117Y031625D02*
X019338Y031625D01*
X019366Y031677D02*
X019366Y031677D01*
X019438Y031784D02*
X004117Y031784D01*
X004117Y031942D02*
X019564Y031942D01*
X019559Y031937D02*
X019559Y031937D01*
X019559Y031937D01*
X019456Y031811D02*
X019456Y031811D01*
X019259Y031466D02*
X017647Y031466D01*
X017806Y031308D02*
X019198Y031308D01*
X019173Y031232D02*
X019173Y031232D01*
X019154Y031149D02*
X017964Y031149D01*
X018123Y030991D02*
X019125Y030991D01*
X019114Y030914D02*
X019114Y030914D01*
X019111Y030832D02*
X018282Y030832D01*
X018440Y030674D02*
X019110Y030674D01*
X019114Y030590D02*
X019114Y030590D01*
X019125Y030515D02*
X018811Y030515D01*
X018934Y030357D02*
X019153Y030357D01*
X019197Y030198D02*
X018967Y030198D01*
X018931Y030040D02*
X019258Y030040D01*
X019288Y029969D02*
X019288Y029969D01*
X019336Y029881D02*
X019033Y029881D01*
X019191Y029722D02*
X019436Y029722D01*
X019456Y029692D02*
X019456Y029692D01*
X019559Y029567D02*
X019559Y029567D01*
X019561Y029564D02*
X019350Y029564D01*
X019508Y029405D02*
X019725Y029405D01*
X019672Y029451D02*
X019672Y029451D01*
X019672Y029451D01*
X019795Y029346D02*
X019795Y029346D01*
X019667Y029247D02*
X019937Y029247D01*
X019928Y029252D02*
X019928Y029252D01*
X020068Y029171D02*
X020068Y029171D01*
X020258Y029088D02*
X019825Y029088D01*
X019984Y028930D02*
X022157Y028930D01*
X022157Y029088D02*
X021517Y029088D01*
X021834Y029247D02*
X022157Y029247D01*
X022157Y029405D02*
X022050Y029405D01*
X022041Y029397D02*
X022041Y029397D01*
X021913Y029298D02*
X021913Y029298D01*
X022157Y028771D02*
X020143Y028771D01*
X020301Y028613D02*
X021626Y028613D01*
X021494Y028454D02*
X020367Y028454D01*
X020367Y028296D02*
X021447Y028296D01*
X021458Y028137D02*
X021106Y028137D01*
X020887Y028137D02*
X020887Y028137D01*
X020887Y027978D02*
X020887Y027978D01*
X020887Y027820D02*
X020887Y027820D01*
X020667Y028137D02*
X020367Y028137D01*
X020367Y027978D02*
X020504Y027978D01*
X020447Y027820D02*
X020367Y027820D01*
X020367Y027661D02*
X020448Y027661D01*
X021326Y027661D02*
X021726Y027661D01*
X021780Y027820D02*
X021327Y027820D01*
X021269Y027978D02*
X021538Y027978D01*
X021994Y027820D02*
X022157Y027820D01*
X022157Y027661D02*
X022048Y027661D01*
X022148Y028613D02*
X022157Y028613D01*
X019366Y029827D02*
X019366Y029827D01*
X019224Y030118D02*
X019224Y030118D01*
X019136Y031074D02*
X019136Y031074D01*
X019224Y031386D02*
X019224Y031386D01*
X013206Y030722D02*
X013067Y030722D01*
X013097Y030692D01*
X013097Y030512D01*
X012647Y030512D01*
X012647Y030492D01*
X013097Y030492D01*
X013097Y030437D01*
X013157Y030497D01*
X013177Y030517D01*
X013177Y030692D01*
X013206Y030722D01*
X013177Y030674D02*
X013097Y030674D01*
X013097Y030515D02*
X013175Y030515D01*
X011657Y028454D02*
X011617Y028454D01*
X011617Y028296D02*
X011657Y028296D01*
X011657Y028137D02*
X011617Y028137D01*
X010164Y028137D02*
X008897Y028137D01*
X006077Y025034D02*
X006077Y025034D01*
X004935Y025125D02*
X004889Y025171D01*
X004461Y018307D02*
X004117Y018307D01*
X004117Y018149D02*
X004407Y018149D01*
X004422Y017990D02*
X004117Y017990D01*
X004117Y017832D02*
X004496Y017832D01*
X004363Y017673D02*
X004117Y017673D01*
X006731Y015771D02*
X006980Y015771D01*
X006957Y015929D02*
X006890Y015929D01*
X007089Y015612D02*
X006667Y015612D01*
X006667Y015454D02*
X007460Y015454D01*
X007618Y015295D02*
X006667Y015295D01*
X006667Y015136D02*
X007777Y015136D01*
X007935Y014978D02*
X006667Y014978D01*
X006667Y014819D02*
X008094Y014819D01*
X008253Y014661D02*
X006667Y014661D01*
X005920Y007843D02*
X005911Y007843D01*
X005791Y007685D02*
X006078Y007685D01*
X006237Y007526D02*
X005633Y007526D01*
X005155Y006892D02*
X005118Y006892D01*
X005118Y006734D02*
X005155Y006734D01*
X005155Y006575D02*
X005118Y006575D01*
X005118Y006483D02*
X004363Y006483D01*
X004363Y006304D01*
X004642Y006025D01*
X005118Y006025D01*
X005118Y006483D01*
X005118Y006417D02*
X005155Y006417D01*
X005155Y006258D02*
X005118Y006258D01*
X005118Y006099D02*
X005155Y006099D01*
X004605Y005941D02*
X004117Y005941D01*
X004117Y006099D02*
X004568Y006099D01*
X004409Y006258D02*
X004117Y006258D01*
X004117Y006417D02*
X004363Y006417D01*
X004363Y006575D02*
X004117Y006575D01*
X004117Y006734D02*
X004398Y006734D01*
X004556Y006892D02*
X004117Y006892D01*
X004117Y005782D02*
X004446Y005782D01*
X004363Y005624D02*
X004117Y005624D01*
X004117Y005465D02*
X004363Y005465D01*
X004363Y005307D02*
X004117Y005307D01*
X006961Y005002D02*
X007007Y004956D01*
X007007Y004847D01*
X007057Y004897D01*
X007057Y005027D01*
X007115Y005167D01*
X007222Y005274D01*
X007361Y005332D01*
X007512Y005332D01*
X007652Y005274D01*
X007759Y005167D01*
X007817Y005027D01*
X007817Y004876D01*
X007759Y004736D01*
X007652Y004630D01*
X007512Y004572D01*
X007382Y004572D01*
X007067Y004256D01*
X007007Y004196D01*
X007007Y004047D01*
X006961Y004002D01*
X006969Y003994D01*
X007061Y004032D01*
X007212Y004032D01*
X007352Y003974D01*
X007459Y003867D01*
X007517Y003727D01*
X007517Y003597D01*
X008267Y002847D01*
X008267Y002956D01*
X008312Y003002D01*
X008267Y003047D01*
X008267Y003456D01*
X008312Y003502D01*
X008267Y003547D01*
X008267Y003956D01*
X008312Y004002D01*
X008267Y004047D01*
X008267Y004456D01*
X008312Y004502D01*
X008267Y004547D01*
X008267Y004956D01*
X008312Y005002D01*
X008267Y005047D01*
X008267Y005251D01*
X008846Y005251D01*
X008846Y005252D01*
X008267Y005252D01*
X008267Y005456D01*
X008332Y005522D01*
X007282Y005522D01*
X007007Y005246D01*
X007007Y005047D01*
X006961Y005002D01*
X006973Y004990D02*
X007057Y004990D01*
X007107Y005148D02*
X007007Y005148D01*
X007067Y005307D02*
X007301Y005307D01*
X007226Y005465D02*
X008276Y005465D01*
X008267Y005307D02*
X007573Y005307D01*
X007767Y005148D02*
X008267Y005148D01*
X008300Y004990D02*
X007817Y004990D01*
X007798Y004831D02*
X008267Y004831D01*
X008267Y004673D02*
X007695Y004673D01*
X007324Y004514D02*
X008300Y004514D01*
X008267Y004356D02*
X007166Y004356D01*
X007007Y004197D02*
X008267Y004197D01*
X008276Y004038D02*
X006998Y004038D01*
X007446Y003880D02*
X008267Y003880D01*
X008267Y003721D02*
X007517Y003721D01*
X007551Y003563D02*
X008267Y003563D01*
X008267Y003404D02*
X007709Y003404D01*
X007868Y003246D02*
X008267Y003246D01*
X008267Y003087D02*
X008027Y003087D01*
X008185Y002929D02*
X008267Y002929D01*
X009582Y004732D02*
X009467Y004847D01*
X009467Y004847D01*
X009427Y004887D01*
X009427Y004956D01*
X009381Y005002D01*
X009427Y005047D01*
X009427Y005251D01*
X008847Y005251D01*
X008847Y005252D01*
X009427Y005252D01*
X009427Y005456D01*
X009361Y005522D01*
X010582Y005522D01*
X010292Y005232D01*
X010161Y005232D01*
X010022Y005174D01*
X009915Y005067D01*
X009857Y004927D01*
X009857Y004776D01*
X009875Y004732D01*
X009582Y004732D01*
X009483Y004831D02*
X009857Y004831D01*
X009883Y004990D02*
X009393Y004990D01*
X009427Y005148D02*
X009996Y005148D01*
X010367Y005307D02*
X009427Y005307D01*
X009418Y005465D02*
X010525Y005465D01*
D22*
X005137Y006502D02*
X004637Y006502D01*
X004137Y007002D01*
X004137Y012002D01*
X004137Y017502D01*
X004137Y023002D01*
X005137Y023002D01*
X005137Y017502D02*
X004137Y017502D01*
X004137Y012002D02*
X005137Y012002D01*
D23*
X005137Y011002D02*
X005537Y011002D01*
X006587Y009952D01*
X011287Y009952D01*
X011987Y009252D01*
X011637Y008902D02*
X012437Y008902D01*
X012587Y008752D01*
X012737Y008702D01*
X014037Y008702D01*
X014187Y008552D01*
X014887Y008552D01*
X014887Y010802D01*
X014037Y009602D02*
X014237Y009402D01*
X014237Y009052D01*
X014387Y008902D01*
X013887Y009252D02*
X010987Y012052D01*
X010437Y012052D01*
X010087Y011702D01*
X009887Y011702D01*
X010087Y012252D02*
X011137Y012252D01*
X013887Y009602D01*
X014037Y009602D01*
X013737Y008352D02*
X013721Y008352D01*
X013937Y008202D01*
X014187Y007952D01*
X014337Y008052D01*
X016937Y008052D01*
X018337Y009352D01*
X018537Y009702D02*
X017187Y009702D01*
X017087Y011002D02*
X019837Y011002D01*
X020337Y010502D01*
X020337Y011502D02*
X019837Y012002D01*
X017987Y012002D01*
X016687Y013302D01*
X016887Y013752D02*
X016887Y015152D01*
X017087Y015352D01*
X017787Y015352D01*
X018287Y015852D01*
X017737Y016502D02*
X020437Y016502D01*
X020337Y017002D02*
X017037Y017002D01*
X016887Y016852D01*
X016637Y017102D02*
X016987Y017452D01*
X018287Y017452D01*
X018787Y017802D02*
X013887Y017802D01*
X013687Y018002D01*
X013687Y019402D01*
X013787Y019402D01*
X016237Y021852D01*
X016787Y021852D01*
X016387Y021502D02*
X014737Y019852D01*
X015287Y019902D02*
X014387Y019002D01*
X015287Y019902D02*
X016537Y019902D01*
X016887Y020252D01*
X017637Y020252D01*
X017237Y019702D02*
X017837Y019102D01*
X018637Y019102D01*
X018437Y018802D02*
X018487Y018752D01*
X020087Y018752D01*
X020287Y018952D01*
X020587Y018952D01*
X020787Y018752D01*
X020787Y014502D01*
X020437Y014502D01*
X020337Y015002D02*
X017237Y015002D01*
X016887Y013752D02*
X018687Y013752D01*
X018787Y013902D01*
X020987Y013902D01*
X020987Y019052D01*
X021337Y019402D02*
X021337Y008502D01*
X020337Y008502D01*
X020337Y008002D02*
X018537Y009702D01*
X018437Y011502D02*
X017987Y011502D01*
X017437Y012052D01*
X017087Y011002D02*
X015587Y012502D01*
X015137Y013167D02*
X014987Y013352D01*
X014537Y013352D01*
X014337Y013502D01*
X013787Y013952D02*
X013787Y015752D01*
X013737Y015752D01*
X013787Y015752D02*
X013787Y016352D01*
X013802Y016502D01*
X011987Y016502D01*
X011587Y016102D01*
X010587Y016102D01*
X009637Y017052D01*
X009637Y019152D01*
X009237Y019152D01*
X008847Y019252D01*
X009237Y019352D01*
X009437Y019552D01*
X009437Y020152D01*
X009237Y020152D01*
X008847Y020252D01*
X009237Y020352D01*
X009437Y020552D01*
X009437Y021152D01*
X009237Y021152D01*
X008847Y021252D01*
X008487Y021352D01*
X008187Y021352D01*
X007637Y021902D01*
X007487Y022002D01*
X006137Y023352D01*
X006087Y023352D01*
X006062Y023377D01*
X008287Y025602D01*
X007187Y026102D02*
X004187Y029102D01*
X004187Y031252D01*
X017537Y031252D01*
X018587Y030202D01*
X018937Y030302D02*
X018937Y031602D01*
X013887Y031602D01*
X013637Y030502D02*
X013387Y030402D01*
X013037Y030052D01*
X012187Y030052D01*
X012187Y029302D01*
X012387Y029102D01*
X012387Y027802D01*
X012137Y027552D01*
X008487Y027552D01*
X008337Y027402D01*
X008337Y027902D02*
X008837Y028402D01*
X010437Y028402D01*
X009737Y028902D02*
X009537Y028702D01*
X007987Y028702D01*
X007637Y029052D01*
X007587Y029402D02*
X007802Y029552D01*
X007587Y029702D01*
X007537Y029752D01*
X005187Y029752D01*
X004887Y030052D01*
X004637Y030502D01*
X005637Y030502D02*
X005887Y030052D01*
X005987Y029952D01*
X009537Y029952D01*
X009537Y029702D01*
X009721Y029552D01*
X009937Y029402D01*
X010087Y029252D01*
X010387Y029252D01*
X011637Y028002D01*
X011637Y027002D02*
X011187Y026752D01*
X010637Y026752D01*
X010637Y023352D01*
X010837Y023152D01*
X013237Y023152D01*
X013887Y022502D01*
X012937Y024552D02*
X014887Y024552D01*
X015537Y025202D01*
X018737Y025202D01*
X018887Y025352D01*
X020987Y025352D01*
X021137Y025202D01*
X021487Y025552D02*
X018437Y025552D01*
X017487Y026502D01*
X016887Y026502D02*
X016687Y026202D01*
X016687Y025902D01*
X015887Y025902D01*
X016087Y026252D02*
X016287Y026502D01*
X016087Y026252D02*
X013087Y026252D01*
X012887Y025752D02*
X013087Y025552D01*
X017287Y025552D01*
X017037Y024602D02*
X016787Y024352D01*
X015937Y024352D01*
X015837Y024252D01*
X012487Y024252D01*
X011737Y023502D01*
X011737Y022802D02*
X012137Y022802D01*
X012137Y020752D01*
X011037Y020302D02*
X010837Y020502D01*
X010837Y021202D01*
X010287Y021752D01*
X010287Y022302D01*
X009787Y021952D02*
X009787Y019952D01*
X010887Y019952D01*
X011087Y019752D01*
X011137Y018952D02*
X016087Y023902D01*
X019737Y023902D01*
X020337Y024502D01*
X020437Y024002D02*
X020187Y024002D01*
X019887Y023702D01*
X016187Y023702D01*
X011487Y019002D01*
X011487Y018252D01*
X011287Y018052D01*
X010737Y018052D01*
X011137Y018452D02*
X011137Y018952D01*
X010687Y018802D02*
X015987Y024102D01*
X019337Y024102D01*
X020237Y025002D01*
X020437Y025002D01*
X021487Y025552D02*
X021587Y025452D01*
X021587Y005952D01*
X021387Y005752D01*
X015387Y005752D01*
X015087Y006052D01*
X014787Y006052D01*
X014437Y005702D01*
X014237Y005002D02*
X014037Y004802D01*
X010687Y004802D01*
X010387Y004502D01*
X009487Y004502D01*
X009237Y004752D01*
X008847Y004752D01*
X008847Y005252D02*
X009237Y005452D01*
X009337Y005552D01*
X010237Y005552D01*
X010237Y005402D01*
X010237Y005552D02*
X012437Y005552D01*
X012562Y005677D01*
X012537Y005702D01*
X012562Y005677D02*
X012912Y006027D01*
X012437Y006502D01*
X005137Y006502D01*
X005137Y005502D02*
X005587Y005252D01*
X005637Y005252D01*
X006037Y004852D01*
X006427Y004752D01*
X006427Y005252D02*
X006687Y005252D01*
X007187Y005752D01*
X011737Y005752D01*
X012137Y006152D01*
X012912Y006027D02*
X014087Y007202D01*
X014087Y007802D01*
X014187Y007952D01*
X013787Y008202D02*
X013721Y008352D01*
X013737Y008352D02*
X013387Y008002D01*
X011587Y008002D01*
X011487Y008102D01*
X011471Y008102D01*
X011637Y008902D02*
X011471Y009102D01*
X011287Y009302D01*
X010987Y009602D01*
X009937Y009602D01*
X009937Y009002D01*
X010187Y008752D01*
X010287Y008752D01*
X010287Y009252D02*
X010637Y009252D01*
X010802Y009102D01*
X010787Y008902D01*
X010787Y008252D01*
X010802Y008102D01*
X010637Y007202D02*
X007937Y007202D01*
X007437Y006102D02*
X010937Y006102D01*
X010987Y006852D02*
X010637Y007202D01*
X010737Y005352D02*
X010237Y004852D01*
X010737Y005352D02*
X021587Y005352D01*
X021987Y005752D01*
X021987Y025652D01*
X021687Y025952D01*
X019387Y025952D01*
X019387Y028252D01*
X019137Y028502D01*
X017487Y028502D01*
X017687Y028002D02*
X017487Y027752D01*
X017687Y028002D02*
X018287Y028002D01*
X018437Y028152D01*
X018337Y027252D02*
X017087Y027252D01*
X017087Y027452D01*
X016887Y027752D01*
X016887Y028502D02*
X016687Y028802D01*
X016687Y029052D01*
X013237Y029052D01*
X012887Y029402D01*
X012637Y029502D01*
X012737Y029252D01*
X012737Y027702D01*
X012387Y026402D02*
X014237Y028252D01*
X016087Y028252D01*
X016287Y028502D01*
X016287Y027752D02*
X016287Y027252D01*
X016537Y027002D01*
X017837Y027002D01*
X019137Y025752D01*
X021587Y025752D01*
X021787Y025552D01*
X021787Y005852D01*
X021487Y005552D01*
X015087Y005552D01*
X014937Y005702D01*
X015187Y005152D02*
X015037Y005002D01*
X015187Y005152D02*
X021687Y005152D01*
X022187Y005652D01*
X022187Y026252D01*
X021937Y026502D01*
X021887Y027252D02*
X021637Y027302D01*
X020137Y027302D01*
X020137Y028452D01*
X018737Y029852D01*
X017937Y029852D01*
X017737Y029652D01*
X017237Y029652D02*
X016937Y029952D01*
X015237Y029952D01*
X014887Y029602D01*
X014637Y029502D01*
X015387Y030602D02*
X015637Y030502D01*
X015387Y030602D02*
X015037Y030952D01*
X008037Y030952D01*
X007387Y030302D01*
X008337Y029402D02*
X008337Y029052D01*
X008337Y029402D02*
X008471Y029552D01*
X009052Y029552D02*
X009237Y029402D01*
X009237Y029052D01*
X009587Y029402D02*
X009721Y029552D01*
X011637Y026002D02*
X012187Y025852D01*
X012687Y025352D01*
X013137Y025352D01*
X013587Y024902D01*
X012937Y024552D02*
X012887Y024602D01*
X016287Y023502D02*
X020337Y023502D01*
X019887Y023302D02*
X020187Y023002D01*
X020437Y023002D01*
X020337Y022502D02*
X019737Y023102D01*
X016487Y023102D01*
X012187Y018802D01*
X012187Y017602D01*
X011737Y017152D01*
X010737Y017152D01*
X011187Y017502D02*
X011787Y017502D01*
X011987Y017702D01*
X011987Y018902D01*
X016387Y023302D01*
X019887Y023302D01*
X019387Y022902D02*
X020287Y022002D01*
X020437Y022002D01*
X020337Y021502D02*
X019137Y022702D01*
X016687Y022702D01*
X012587Y018602D01*
X012587Y017402D01*
X011637Y016452D01*
X010737Y016452D01*
X011187Y016802D02*
X011687Y016802D01*
X012387Y017502D01*
X012387Y018702D01*
X016587Y022902D01*
X019387Y022902D01*
X019787Y020952D02*
X021337Y019402D01*
X020437Y018602D02*
X019837Y018002D01*
X015787Y018002D01*
X015637Y018152D01*
X015637Y018702D02*
X015737Y018802D01*
X018437Y018802D01*
X017587Y018352D02*
X016987Y018352D01*
X016887Y018452D01*
X016187Y019052D02*
X015587Y019052D01*
X015437Y019202D01*
X016187Y019052D02*
X016737Y019602D01*
X016737Y020602D02*
X018437Y020602D01*
X018637Y020402D01*
X019787Y020952D02*
X016337Y020952D01*
X015637Y020252D01*
X015637Y017452D02*
X014737Y017452D01*
X014787Y016752D02*
X015037Y016752D01*
X014787Y016752D02*
X014687Y016652D01*
X014471Y016502D01*
X014287Y016352D01*
X014287Y015752D01*
X014237Y015752D01*
X014187Y017002D02*
X014287Y017102D01*
X016637Y017102D01*
X017587Y016652D02*
X017737Y016502D01*
X019052Y017502D02*
X018887Y017702D01*
X018787Y017802D01*
X019721Y017502D02*
X019887Y017702D01*
X020187Y018002D01*
X020337Y018002D01*
X017437Y013302D02*
X018237Y012502D01*
X018437Y012502D01*
X016887Y013752D02*
X015287Y013752D01*
X015137Y013836D01*
X014987Y013952D01*
X013787Y013952D01*
X011787Y013952D01*
X011637Y013836D01*
X011787Y013352D02*
X011637Y013167D01*
X011787Y013352D02*
X012237Y013352D01*
X012437Y013502D01*
X012087Y012552D02*
X010687Y012552D01*
X007337Y015902D01*
X007087Y016452D02*
X007837Y016452D01*
X009437Y018052D01*
X009437Y018652D01*
X009237Y018652D01*
X008847Y018752D01*
X008847Y018252D02*
X008487Y018152D01*
X005887Y015552D01*
X005887Y013752D01*
X005587Y013752D01*
X005137Y013502D01*
X005137Y013052D02*
X004637Y013052D01*
X004387Y013302D01*
X004387Y017052D01*
X006287Y017052D01*
X007887Y018652D01*
X007887Y021152D01*
X006787Y021152D01*
X006427Y021252D01*
X006427Y020752D02*
X006037Y020852D01*
X005687Y020852D01*
X005137Y021002D01*
X006037Y019652D02*
X006427Y019752D01*
X006427Y020252D02*
X006787Y020152D01*
X006837Y020152D01*
X007537Y019452D01*
X007187Y019252D02*
X007537Y018902D01*
X007187Y019252D02*
X006427Y019252D01*
X006427Y018752D02*
X006037Y018652D01*
X005487Y018102D01*
X004787Y018102D01*
X005137Y019002D02*
X005587Y019252D01*
X005637Y019252D01*
X006037Y019652D01*
X006427Y018252D02*
X006537Y018152D01*
X006537Y017802D01*
X007087Y016452D02*
X006437Y015802D01*
X006437Y014352D01*
X010637Y010252D01*
X011587Y010252D01*
X012587Y009252D01*
X012587Y008752D02*
X012837Y008502D01*
X013052Y008352D01*
X012537Y007552D02*
X006537Y007552D01*
X005537Y008552D01*
X004637Y008552D01*
X004387Y008802D01*
X004387Y009752D01*
X004687Y009752D01*
X005137Y010002D01*
X005137Y009002D02*
X009937Y009002D01*
X011137Y010802D02*
X011137Y011352D01*
X010787Y011702D01*
X012087Y012552D02*
X012537Y012102D01*
X012537Y007552D02*
X013237Y006852D01*
X013237Y004452D02*
X012437Y003652D01*
X009537Y003652D01*
X009237Y003352D01*
X008847Y003252D01*
X008847Y003752D02*
X009237Y003902D01*
X011087Y003902D01*
X011687Y004452D01*
X011137Y004452D02*
X010987Y004302D01*
X009237Y004302D01*
X008847Y004252D01*
X009687Y003302D02*
X013087Y003302D01*
X014237Y004452D01*
X011637Y002852D02*
X009237Y002852D01*
X008847Y002752D01*
X008847Y002252D02*
X008487Y002352D01*
X008387Y002452D01*
X008337Y002452D01*
X007137Y003652D01*
X006837Y003152D02*
X006787Y003152D01*
X006427Y003252D01*
X006427Y003752D02*
X006037Y003852D01*
X005637Y004252D01*
X005587Y004252D01*
X005137Y004502D01*
X005137Y003502D02*
X004687Y003252D01*
X004387Y003252D01*
X004387Y002302D01*
X004637Y002052D01*
X005937Y002052D01*
X006037Y002152D01*
X006427Y002252D01*
X006427Y002752D02*
X006037Y002652D01*
X005687Y002652D01*
X005137Y002502D01*
X006427Y004252D02*
X006787Y004352D01*
X006837Y004352D01*
X007437Y004952D01*
X006837Y003152D02*
X008037Y001952D01*
X010387Y001952D01*
X010937Y002402D01*
X007537Y010652D02*
X005137Y013052D01*
X011637Y017852D02*
X011687Y017902D01*
X011687Y018902D01*
X016287Y023502D01*
X019937Y027002D02*
X020787Y027002D01*
X020887Y026752D01*
X020887Y027752D02*
X020787Y028002D01*
X020787Y029052D01*
X020187Y029052D01*
X018937Y030302D01*
X018587Y029502D02*
X018587Y029352D01*
X019937Y028002D01*
X019937Y027002D01*
X018437Y029002D02*
X017337Y029002D01*
X017187Y029152D01*
X006062Y023377D02*
X005837Y023152D01*
X005687Y023152D01*
X005137Y023002D01*
X020337Y008002D02*
X020337Y007502D01*
D24*
X020337Y007502D03*
X020337Y008502D03*
X020337Y010502D03*
X020337Y011502D03*
X018687Y013752D03*
X018437Y012502D03*
X018437Y011502D03*
X017437Y012052D03*
X016637Y012202D03*
X016687Y013302D03*
X017437Y013302D03*
X017237Y015002D03*
X017587Y016652D03*
X016887Y016852D03*
X016887Y018452D03*
X017587Y018352D03*
X018287Y017452D03*
X018287Y015852D03*
X020337Y015002D03*
X020437Y014502D03*
X020437Y016502D03*
X020337Y017002D03*
X020337Y018002D03*
X020437Y018602D03*
X020987Y019052D03*
X020337Y021502D03*
X020437Y022002D03*
X020337Y022502D03*
X020437Y023002D03*
X020337Y023502D03*
X020437Y024002D03*
X020337Y024502D03*
X020437Y025002D03*
X021137Y025202D03*
X021937Y026502D03*
X018587Y029502D03*
X018437Y029002D03*
X018437Y028152D03*
X018337Y027252D03*
X017287Y025552D03*
X017037Y024602D03*
X015887Y025902D03*
X015537Y025202D03*
X015087Y023852D03*
X013887Y022502D03*
X012887Y024602D03*
X013587Y024902D03*
X012887Y025752D03*
X013087Y026252D03*
X012387Y026402D03*
X012737Y027702D03*
X011587Y024752D03*
X011737Y023502D03*
X011737Y022802D03*
X012137Y020752D03*
X011037Y020302D03*
X011087Y019752D03*
X010687Y018802D03*
X011137Y018452D03*
X010737Y018052D03*
X011187Y017502D03*
X011637Y017852D03*
X010737Y017152D03*
X011187Y016802D03*
X010737Y016452D03*
X011437Y015902D03*
X012987Y016702D03*
X013737Y015752D03*
X014237Y015752D03*
X014187Y017002D03*
X014737Y017452D03*
X015037Y016752D03*
X015637Y017452D03*
X015637Y018152D03*
X015637Y018702D03*
X015437Y019202D03*
X014737Y019852D03*
X014387Y019002D03*
X015637Y020252D03*
X016737Y020602D03*
X016737Y019602D03*
X017237Y019702D03*
X017637Y020252D03*
X018637Y020402D03*
X018637Y019102D03*
X016787Y021852D03*
X016387Y021502D03*
X017187Y029152D03*
X017237Y029652D03*
X017737Y029652D03*
X018587Y030202D03*
X018737Y031652D03*
X013887Y031602D03*
X010437Y028402D03*
X009737Y028902D03*
X009237Y029052D03*
X008337Y029052D03*
X007637Y029052D03*
X008337Y027902D03*
X008337Y027402D03*
X007187Y026102D03*
X008287Y025602D03*
X008887Y023652D03*
X009787Y021952D03*
X010287Y022302D03*
X007637Y021902D03*
X007537Y019452D03*
X007537Y018902D03*
X006537Y017802D03*
X007337Y015902D03*
X007037Y014702D03*
X006737Y012352D03*
X007537Y010652D03*
X007937Y007202D03*
X007437Y006102D03*
X007437Y004952D03*
X007137Y003652D03*
X009687Y003302D03*
X010237Y004852D03*
X010237Y005402D03*
X010937Y006102D03*
X010987Y006852D03*
X012137Y006152D03*
X012537Y005702D03*
X013237Y004452D03*
X014237Y004452D03*
X014237Y005002D03*
X014437Y005702D03*
X014937Y005702D03*
X015037Y005002D03*
X013237Y006852D03*
X014187Y007952D03*
X014387Y008902D03*
X013887Y009252D03*
X014887Y010802D03*
X015537Y011452D03*
X015587Y012502D03*
X017187Y010452D03*
X017187Y009702D03*
X018337Y009352D03*
X013387Y011752D03*
X012537Y012102D03*
X011137Y010802D03*
X010787Y011702D03*
X010087Y012252D03*
X009887Y011702D03*
X010287Y009252D03*
X010287Y008752D03*
X011987Y009252D03*
X012587Y009252D03*
X012587Y008752D03*
X011687Y004452D03*
X011137Y004452D03*
X011637Y002852D03*
X010937Y002402D03*
X004787Y018102D03*
X007387Y030302D03*
M02*
