G75*
G70*
%OFA0B0*%
%FSLAX24Y24*%
%IPPOS*%
%LPD*%
%AMOC8*
5,1,8,0,0,1.08239X$1,22.5*
%
%ADD10C,0.0110*%
%ADD11R,0.0433X0.0394*%
%ADD12R,0.0394X0.0433*%
%ADD13C,0.0520*%
%ADD14OC8,0.0560*%
%ADD15O,0.0594X0.1187*%
%ADD16OC8,0.0600*%
%ADD17O,0.1200X0.0600*%
%ADD18O,0.1187X0.0594*%
%ADD19R,0.0272X0.0390*%
%ADD20C,0.0160*%
%ADD21C,0.0200*%
%ADD22C,0.0400*%
%ADD23C,0.0100*%
D10*
X007712Y009890D02*
X007515Y010087D01*
X007712Y010284D01*
X008105Y010284D01*
X008105Y010535D02*
X007515Y010535D01*
X007515Y010830D01*
X007613Y010928D01*
X007810Y010928D01*
X007908Y010830D01*
X007908Y010535D01*
X007810Y010284D02*
X007810Y009890D01*
X007712Y009890D02*
X008105Y009890D01*
X008105Y011179D02*
X008105Y011474D01*
X008007Y011573D01*
X007908Y011573D01*
X007810Y011474D01*
X007810Y011179D01*
X008105Y011179D02*
X007515Y011179D01*
X007515Y011474D01*
X007613Y011573D01*
X007712Y011573D01*
X007810Y011474D01*
X008007Y011824D02*
X007613Y012217D01*
X008007Y012217D01*
X008105Y012119D01*
X008105Y011922D01*
X008007Y011824D01*
X007613Y011824D01*
X007515Y011922D01*
X007515Y012119D01*
X007613Y012217D01*
X007613Y012468D02*
X007712Y012468D01*
X007810Y012567D01*
X007810Y012764D01*
X007908Y012862D01*
X008007Y012862D01*
X008105Y012764D01*
X008105Y012567D01*
X008007Y012468D01*
X007908Y012468D01*
X007810Y012567D01*
X007810Y012764D02*
X007712Y012862D01*
X007613Y012862D01*
X007515Y012764D01*
X007515Y012567D01*
X007613Y012468D01*
D11*
X012426Y013058D03*
X013095Y013058D03*
X009845Y029558D03*
X009176Y029558D03*
X008595Y029558D03*
X007926Y029558D03*
D12*
X012176Y031008D03*
X012845Y031008D03*
X016676Y023008D03*
X017345Y023008D03*
X014010Y010593D03*
X014010Y009923D03*
X010510Y009923D03*
X010510Y010593D03*
D13*
X011310Y010258D03*
X013210Y010258D03*
X018760Y026258D03*
X018760Y027258D03*
X019760Y027758D03*
X019760Y026758D03*
D14*
X014510Y029008D03*
X014510Y030008D03*
X013510Y030008D03*
X013510Y029008D03*
X012510Y029008D03*
X012510Y030008D03*
X011510Y030008D03*
X011510Y029008D03*
X010510Y029008D03*
X010510Y030008D03*
D15*
X008510Y024508D03*
X007510Y024508D03*
X006510Y024508D03*
X005010Y024508D03*
X004010Y024508D03*
X003010Y024508D03*
X003010Y022008D03*
X004010Y022008D03*
X005010Y022008D03*
X006510Y022008D03*
X007510Y022008D03*
X008510Y022008D03*
X008510Y019508D03*
X007510Y019508D03*
X006510Y019508D03*
X005010Y019508D03*
X004010Y019508D03*
X003010Y019508D03*
X002510Y030008D03*
X003510Y030008D03*
X005010Y030008D03*
X006010Y030008D03*
X006010Y007508D03*
X007010Y007508D03*
X008010Y007508D03*
X009510Y007508D03*
X010510Y007508D03*
X011510Y007508D03*
X011510Y005008D03*
X010510Y005008D03*
X009510Y005008D03*
X008010Y005008D03*
X007010Y005008D03*
X006010Y005008D03*
X004510Y005008D03*
X003510Y005008D03*
X002510Y005008D03*
X002510Y007508D03*
X003510Y007508D03*
X004510Y007508D03*
X004510Y002508D03*
X003510Y002508D03*
X002510Y002508D03*
X006010Y002508D03*
X007010Y002508D03*
X008010Y002508D03*
X009510Y002508D03*
X010510Y002508D03*
X011510Y002508D03*
D16*
X003510Y010008D03*
X003510Y011008D03*
X003510Y012008D03*
X003510Y013008D03*
X003510Y014008D03*
X003510Y015008D03*
X003510Y016008D03*
X003510Y017008D03*
X002510Y017008D03*
X002510Y016008D03*
X002510Y015008D03*
X002510Y014008D03*
X002510Y013008D03*
X002510Y012008D03*
X002510Y011008D03*
X002510Y010008D03*
D17*
X004510Y010008D03*
X004510Y011008D03*
X004510Y012008D03*
X004510Y013008D03*
X004510Y014008D03*
X004510Y015008D03*
X004510Y016008D03*
X004510Y017008D03*
D18*
X019010Y011008D03*
X019010Y010008D03*
X019010Y009008D03*
X019010Y008008D03*
X019010Y007008D03*
D19*
X013384Y005520D03*
X013384Y004500D03*
X013010Y004500D03*
X012636Y004500D03*
X012636Y005520D03*
D20*
X003684Y001488D02*
X001990Y001488D01*
X001990Y031528D01*
X006655Y031528D01*
X006630Y031503D01*
X006630Y031313D01*
X006630Y028663D01*
X006765Y028528D01*
X007165Y028128D01*
X007355Y028128D01*
X007530Y028128D01*
X007530Y025282D01*
X007313Y025282D01*
X007033Y025002D01*
X007033Y024014D01*
X007230Y023817D01*
X007230Y022699D01*
X007033Y022502D01*
X007033Y021514D01*
X007230Y021317D01*
X007230Y020199D01*
X007033Y020002D01*
X007033Y019156D01*
X006987Y019110D01*
X006987Y019489D01*
X006529Y019489D01*
X006529Y019526D01*
X006987Y019526D01*
X006987Y020002D01*
X006708Y020282D01*
X006529Y020282D01*
X006529Y019527D01*
X006492Y019527D01*
X006492Y020282D01*
X006313Y020282D01*
X006033Y020002D01*
X006033Y019526D01*
X006492Y019526D01*
X006492Y019489D01*
X006033Y019489D01*
X006033Y019014D01*
X006059Y018988D01*
X005461Y018988D01*
X005487Y019014D01*
X005487Y020002D01*
X005208Y020282D01*
X004813Y020282D01*
X004533Y020002D01*
X004533Y019110D01*
X004487Y019156D01*
X004487Y020002D01*
X004208Y020282D01*
X003813Y020282D01*
X003533Y020002D01*
X003533Y019014D01*
X003813Y018734D01*
X004208Y018734D01*
X004233Y018760D01*
X004405Y018588D01*
X003305Y018588D01*
X003159Y018734D01*
X003208Y018734D01*
X003487Y019014D01*
X003487Y019489D01*
X003029Y019489D01*
X003029Y019526D01*
X003487Y019526D01*
X003487Y020002D01*
X003208Y020282D01*
X003029Y020282D01*
X003029Y019527D01*
X002992Y019527D01*
X002992Y020282D01*
X002813Y020282D01*
X002790Y020259D01*
X002790Y021028D01*
X003165Y021028D01*
X003355Y021028D01*
X003655Y021328D01*
X003665Y021328D01*
X003719Y021328D01*
X003813Y021234D01*
X004208Y021234D01*
X004487Y021514D01*
X004487Y022502D01*
X004208Y022782D01*
X003813Y022782D01*
X003533Y022502D01*
X003533Y021788D01*
X003487Y021788D01*
X003487Y021989D01*
X003029Y021989D01*
X003029Y022026D01*
X003487Y022026D01*
X003487Y022502D01*
X003208Y022782D01*
X003029Y022782D01*
X003029Y022027D01*
X002992Y022027D01*
X002992Y022782D01*
X002813Y022782D01*
X002590Y022559D01*
X002590Y023957D01*
X002813Y023734D01*
X002992Y023734D01*
X002992Y024489D01*
X003029Y024489D01*
X003029Y023734D01*
X003208Y023734D01*
X003487Y024014D01*
X003487Y024489D01*
X003029Y024489D01*
X003029Y024526D01*
X003487Y024526D01*
X003487Y025002D01*
X003208Y025282D01*
X003029Y025282D01*
X003029Y024527D01*
X002992Y024527D01*
X002992Y025282D01*
X002813Y025282D01*
X002590Y025059D01*
X002590Y029234D01*
X002708Y029234D01*
X002987Y029514D01*
X002987Y030502D01*
X002708Y030782D01*
X002313Y030782D01*
X002033Y030502D01*
X002033Y029514D01*
X002162Y029385D01*
X002130Y029353D01*
X002130Y018313D01*
X002265Y018178D01*
X002455Y018178D01*
X002590Y018313D01*
X002590Y018653D01*
X003115Y018128D01*
X003305Y018128D01*
X005215Y018128D01*
X009415Y013928D01*
X009605Y013928D01*
X012680Y013928D01*
X012680Y013435D01*
X012444Y013435D01*
X012444Y013077D01*
X012407Y013077D01*
X012407Y013435D01*
X012134Y013435D01*
X012029Y013329D01*
X012029Y013076D01*
X012407Y013076D01*
X012407Y013039D01*
X012407Y012681D01*
X012134Y012681D01*
X012029Y012786D01*
X012029Y013039D01*
X012407Y013039D01*
X012444Y013039D01*
X012444Y012681D01*
X012700Y012681D01*
X012680Y012633D01*
X012680Y012482D01*
X012738Y012343D01*
X012845Y012236D01*
X012985Y012178D01*
X013136Y012178D01*
X013156Y012186D01*
X013465Y011878D01*
X013655Y011878D01*
X014130Y011878D01*
X014130Y011503D01*
X014130Y011313D01*
X009290Y011313D01*
X009290Y011463D02*
X009290Y008259D01*
X009313Y008282D01*
X009492Y008282D01*
X009492Y007527D01*
X009529Y007527D01*
X009529Y008282D01*
X009708Y008282D01*
X009987Y008002D01*
X009987Y007526D01*
X009529Y007526D01*
X009529Y007489D01*
X009492Y007489D01*
X009492Y006734D01*
X009313Y006734D01*
X009290Y006757D01*
X009290Y005759D01*
X009313Y005782D01*
X009492Y005782D01*
X009492Y005027D01*
X009529Y005027D01*
X009529Y005782D01*
X009708Y005782D01*
X009987Y005502D01*
X009987Y005026D01*
X009529Y005026D01*
X009529Y004989D01*
X009492Y004989D01*
X009492Y004234D01*
X009313Y004234D01*
X009290Y004257D01*
X009290Y003488D01*
X010615Y003488D01*
X010805Y003488D01*
X011155Y003138D01*
X011162Y003131D01*
X011313Y003282D01*
X011708Y003282D01*
X011917Y003072D01*
X011938Y003123D01*
X012030Y003215D01*
X012030Y004103D01*
X012130Y004203D01*
X012265Y004338D01*
X012320Y004338D01*
X012320Y004760D01*
X012288Y004793D01*
X012230Y004932D01*
X012230Y005083D01*
X012288Y005223D01*
X012320Y005255D01*
X012320Y005528D01*
X011961Y005528D01*
X011987Y005502D01*
X011987Y004514D01*
X011708Y004234D01*
X011313Y004234D01*
X011033Y004514D01*
X011033Y005406D01*
X010987Y005359D01*
X010987Y004514D01*
X010708Y004234D01*
X010313Y004234D01*
X010033Y004514D01*
X010033Y005502D01*
X010313Y005782D01*
X010708Y005782D01*
X010733Y005756D01*
X010965Y005988D01*
X011155Y005988D01*
X012555Y005988D01*
X012605Y005938D01*
X012649Y005895D01*
X012847Y005895D01*
X012952Y005789D01*
X012952Y005250D01*
X012929Y005227D01*
X012932Y005223D01*
X012990Y005083D01*
X012990Y004932D01*
X012966Y004875D01*
X013174Y004875D01*
X013384Y004875D01*
X013384Y004500D01*
X013384Y004500D01*
X013384Y004125D01*
X013174Y004125D01*
X013153Y004125D01*
X012905Y003878D01*
X012715Y003878D01*
X012490Y003878D01*
X012490Y003215D01*
X012582Y003123D01*
X012640Y002983D01*
X012640Y002832D01*
X012582Y002693D01*
X012475Y002586D01*
X012336Y002528D01*
X012185Y002528D01*
X012045Y002586D01*
X011987Y002644D01*
X011987Y002014D01*
X011961Y001988D01*
X014915Y001988D01*
X018405Y005478D01*
X013700Y005478D01*
X013700Y005250D01*
X013595Y005145D01*
X013174Y005145D01*
X013068Y005250D01*
X013068Y005789D01*
X013174Y005895D01*
X013372Y005895D01*
X013415Y005938D01*
X018565Y005938D01*
X019158Y006531D01*
X019029Y006531D01*
X019029Y006989D01*
X018992Y006989D01*
X018992Y006531D01*
X018516Y006531D01*
X018237Y006810D01*
X018237Y006989D01*
X018992Y006989D01*
X018992Y007026D01*
X018237Y007026D01*
X018237Y007205D01*
X018516Y007485D01*
X018992Y007485D01*
X018992Y007027D01*
X019029Y007027D01*
X019029Y007485D01*
X019505Y007485D01*
X019530Y007459D01*
X019530Y007557D01*
X019505Y007531D01*
X018516Y007531D01*
X018269Y007778D01*
X014568Y007778D01*
X014525Y007736D01*
X014386Y007678D01*
X014235Y007678D01*
X014095Y007736D01*
X013988Y007843D01*
X013930Y007982D01*
X013930Y008133D01*
X013949Y008178D01*
X012305Y008178D01*
X011987Y007859D01*
X011987Y007014D01*
X011708Y006734D01*
X011313Y006734D01*
X011033Y007014D01*
X011033Y007906D01*
X010987Y007859D01*
X010987Y007014D01*
X010708Y006734D01*
X010313Y006734D01*
X010033Y007014D01*
X010033Y008002D01*
X010313Y008282D01*
X010708Y008282D01*
X010733Y008256D01*
X012080Y009603D01*
X012215Y009738D01*
X013633Y009738D01*
X013633Y009928D01*
X013555Y009928D01*
X013502Y009928D01*
X013459Y009885D01*
X013298Y009818D01*
X013123Y009818D01*
X012961Y009885D01*
X012837Y010009D01*
X012770Y010170D01*
X012770Y010345D01*
X012837Y010507D01*
X012961Y010631D01*
X013123Y010698D01*
X013298Y010698D01*
X013459Y010631D01*
X013583Y010507D01*
X013633Y010388D01*
X013633Y010574D01*
X013992Y010574D01*
X013992Y010611D01*
X014029Y010611D01*
X014029Y010989D01*
X014130Y010989D01*
X014130Y011313D01*
X014130Y011155D02*
X009290Y011155D01*
X009290Y010996D02*
X014130Y010996D01*
X013992Y010989D02*
X013992Y010611D01*
X013633Y010611D01*
X013633Y010884D01*
X013739Y010989D01*
X013992Y010989D01*
X013992Y010838D02*
X014029Y010838D01*
X014029Y010679D02*
X013992Y010679D01*
X013633Y010679D02*
X013343Y010679D01*
X013570Y010520D02*
X013633Y010520D01*
X013633Y010388D02*
X013633Y010388D01*
X013633Y010838D02*
X010887Y010838D01*
X010887Y010884D02*
X010887Y010611D01*
X010529Y010611D01*
X010529Y010574D01*
X010887Y010574D01*
X010887Y010388D01*
X010888Y010388D01*
X010937Y010507D01*
X011061Y010631D01*
X011223Y010698D01*
X011398Y010698D01*
X011559Y010631D01*
X011683Y010507D01*
X011750Y010345D01*
X011750Y010170D01*
X011683Y010009D01*
X011559Y009885D01*
X011398Y009818D01*
X011223Y009818D01*
X011061Y009885D01*
X011018Y009928D01*
X010965Y009928D01*
X010887Y009928D01*
X010887Y009632D01*
X010782Y009527D01*
X010239Y009527D01*
X010133Y009632D01*
X010133Y010214D01*
X010177Y010258D01*
X010133Y010301D01*
X010133Y010574D01*
X010492Y010574D01*
X010492Y010611D01*
X010529Y010611D01*
X010529Y010989D01*
X010782Y010989D01*
X010887Y010884D01*
X010887Y010679D02*
X011177Y010679D01*
X011443Y010679D02*
X013077Y010679D01*
X012851Y010520D02*
X011670Y010520D01*
X011743Y010362D02*
X012777Y010362D01*
X012770Y010203D02*
X011750Y010203D01*
X011698Y010045D02*
X012822Y010045D01*
X012960Y009886D02*
X011561Y009886D01*
X011888Y009411D02*
X009290Y009411D01*
X009290Y009569D02*
X010196Y009569D01*
X010133Y009728D02*
X009290Y009728D01*
X009290Y009886D02*
X010133Y009886D01*
X010133Y010045D02*
X009290Y010045D01*
X009290Y010203D02*
X010133Y010203D01*
X010133Y010362D02*
X009290Y010362D01*
X009290Y010520D02*
X010133Y010520D01*
X010133Y010611D02*
X010133Y010884D01*
X010239Y010989D01*
X010492Y010989D01*
X010492Y010611D01*
X010133Y010611D01*
X010133Y010679D02*
X009290Y010679D01*
X009290Y010838D02*
X010133Y010838D01*
X010492Y010838D02*
X010529Y010838D01*
X010529Y010679D02*
X010492Y010679D01*
X010887Y010520D02*
X010951Y010520D01*
X010887Y009886D02*
X011060Y009886D01*
X010887Y009728D02*
X012205Y009728D01*
X012046Y009569D02*
X010824Y009569D01*
X011412Y008935D02*
X009290Y008935D01*
X009290Y008776D02*
X011254Y008776D01*
X011095Y008618D02*
X009290Y008618D01*
X009290Y008459D02*
X010937Y008459D01*
X010778Y008301D02*
X009290Y008301D01*
X009492Y008142D02*
X009529Y008142D01*
X009529Y007984D02*
X009492Y007984D01*
X009492Y007825D02*
X009529Y007825D01*
X009529Y007667D02*
X009492Y007667D01*
X009529Y007508D02*
X010033Y007508D01*
X009987Y007489D02*
X009987Y007014D01*
X009708Y006734D01*
X009529Y006734D01*
X009529Y007489D01*
X009987Y007489D01*
X009987Y007350D02*
X010033Y007350D01*
X010033Y007191D02*
X009987Y007191D01*
X009987Y007033D02*
X010033Y007033D01*
X010173Y006874D02*
X009848Y006874D01*
X009529Y006874D02*
X009492Y006874D01*
X009492Y007033D02*
X009529Y007033D01*
X009529Y007191D02*
X009492Y007191D01*
X009492Y007350D02*
X009529Y007350D01*
X009290Y006715D02*
X018331Y006715D01*
X018237Y006874D02*
X011848Y006874D01*
X011987Y007033D02*
X018237Y007033D01*
X018237Y007191D02*
X011987Y007191D01*
X011987Y007350D02*
X018381Y007350D01*
X018380Y007667D02*
X011987Y007667D01*
X011987Y007825D02*
X014005Y007825D01*
X013930Y007984D02*
X012111Y007984D01*
X012270Y008142D02*
X013934Y008142D01*
X014555Y008638D02*
X012305Y008638D01*
X012115Y008638D01*
X011733Y008256D01*
X011708Y008282D01*
X011409Y008282D01*
X012405Y009278D01*
X014355Y009278D01*
X014490Y009413D01*
X014490Y009413D01*
X014590Y009513D01*
X014590Y011178D01*
X017453Y011178D01*
X017545Y011086D01*
X017680Y011030D01*
X017680Y008865D01*
X017588Y008773D01*
X017530Y008633D01*
X017530Y008482D01*
X017549Y008438D01*
X014755Y008438D01*
X014690Y008503D01*
X014555Y008638D01*
X014575Y008618D02*
X017530Y008618D01*
X017540Y008459D02*
X014734Y008459D01*
X014488Y009411D02*
X017680Y009411D01*
X017680Y009569D02*
X014590Y009569D01*
X014590Y009728D02*
X017680Y009728D01*
X017680Y009886D02*
X014590Y009886D01*
X014590Y010045D02*
X017680Y010045D01*
X017680Y010203D02*
X014590Y010203D01*
X014590Y010362D02*
X017680Y010362D01*
X017680Y010520D02*
X014590Y010520D01*
X014590Y010679D02*
X017680Y010679D01*
X017680Y010838D02*
X014590Y010838D01*
X014590Y010996D02*
X017680Y010996D01*
X017476Y011155D02*
X014590Y011155D01*
X014130Y011472D02*
X009299Y011472D01*
X009290Y011463D02*
X009955Y012128D01*
X011505Y012128D01*
X011636Y012128D01*
X011775Y012186D01*
X011882Y012293D01*
X011940Y012432D01*
X011940Y012583D01*
X011882Y012723D01*
X011775Y012830D01*
X011636Y012888D01*
X011485Y012888D01*
X011345Y012830D01*
X011238Y012723D01*
X011182Y012588D01*
X009765Y012588D01*
X009630Y012453D01*
X009630Y012453D01*
X008965Y011788D01*
X008965Y011788D01*
X008830Y011653D01*
X008830Y003353D01*
X008830Y003163D01*
X008965Y003028D01*
X009059Y003028D01*
X009033Y003002D01*
X009033Y002526D01*
X009492Y002526D01*
X009492Y002489D01*
X009033Y002489D01*
X009033Y002014D01*
X009259Y001788D01*
X008261Y001788D01*
X008487Y002014D01*
X008487Y003002D01*
X008208Y003282D01*
X007813Y003282D01*
X007533Y003002D01*
X007533Y002014D01*
X007759Y001788D01*
X007290Y001788D01*
X007290Y001817D01*
X007487Y002014D01*
X007487Y003002D01*
X007208Y003282D01*
X006813Y003282D01*
X006533Y003002D01*
X006533Y002014D01*
X006730Y001817D01*
X006730Y001788D01*
X006261Y001788D01*
X006487Y002014D01*
X006487Y002489D01*
X006029Y002489D01*
X006029Y002526D01*
X006487Y002526D01*
X006487Y003002D01*
X006208Y003282D01*
X006029Y003282D01*
X006029Y002527D01*
X005992Y002527D01*
X005992Y003282D01*
X005813Y003282D01*
X005533Y003002D01*
X005533Y002526D01*
X005992Y002526D01*
X005992Y002489D01*
X005533Y002489D01*
X005533Y002014D01*
X005759Y001788D01*
X004761Y001788D01*
X004987Y002014D01*
X004987Y003002D01*
X004708Y003282D01*
X004313Y003282D01*
X004033Y003002D01*
X004033Y002014D01*
X004259Y001788D01*
X004176Y001788D01*
X003969Y001995D01*
X003987Y002014D01*
X003987Y003002D01*
X003708Y003282D01*
X003313Y003282D01*
X003033Y003002D01*
X003033Y002014D01*
X003313Y001734D01*
X003438Y001734D01*
X003684Y001488D01*
X003530Y001642D02*
X001990Y001642D01*
X001990Y001801D02*
X002246Y001801D01*
X002313Y001734D02*
X002492Y001734D01*
X002492Y002489D01*
X002529Y002489D01*
X002529Y001734D01*
X002708Y001734D01*
X002987Y002014D01*
X002987Y002489D01*
X002529Y002489D01*
X002529Y002526D01*
X002987Y002526D01*
X002987Y003002D01*
X002708Y003282D01*
X002529Y003282D01*
X002529Y002527D01*
X002492Y002527D01*
X002492Y003282D01*
X002313Y003282D01*
X002033Y003002D01*
X002033Y002526D01*
X002492Y002526D01*
X002492Y002489D01*
X002033Y002489D01*
X002033Y002014D01*
X002313Y001734D01*
X002492Y001801D02*
X002529Y001801D01*
X002529Y001959D02*
X002492Y001959D01*
X002492Y002118D02*
X002529Y002118D01*
X002529Y002276D02*
X002492Y002276D01*
X002492Y002435D02*
X002529Y002435D01*
X002529Y002593D02*
X002492Y002593D01*
X002492Y002752D02*
X002529Y002752D01*
X002529Y002910D02*
X002492Y002910D01*
X002492Y003069D02*
X002529Y003069D01*
X002529Y003227D02*
X002492Y003227D01*
X002259Y003227D02*
X001990Y003227D01*
X001990Y003069D02*
X002100Y003069D01*
X002033Y002910D02*
X001990Y002910D01*
X001990Y002752D02*
X002033Y002752D01*
X002033Y002593D02*
X001990Y002593D01*
X001990Y002435D02*
X002033Y002435D01*
X002033Y002276D02*
X001990Y002276D01*
X001990Y002118D02*
X002033Y002118D01*
X001990Y001959D02*
X002088Y001959D01*
X002774Y001801D02*
X003246Y001801D01*
X003088Y001959D02*
X002933Y001959D01*
X002987Y002118D02*
X003033Y002118D01*
X003033Y002276D02*
X002987Y002276D01*
X002987Y002435D02*
X003033Y002435D01*
X003033Y002593D02*
X002987Y002593D01*
X002987Y002752D02*
X003033Y002752D01*
X003033Y002910D02*
X002987Y002910D01*
X002920Y003069D02*
X003100Y003069D01*
X003259Y003227D02*
X002762Y003227D01*
X002708Y004234D02*
X002987Y004514D01*
X002987Y004989D01*
X002529Y004989D01*
X002492Y004989D01*
X002492Y004234D01*
X002313Y004234D01*
X002033Y004514D01*
X002033Y004989D01*
X002492Y004989D01*
X002492Y005026D01*
X002033Y005026D01*
X002033Y005502D01*
X002313Y005782D01*
X002492Y005782D01*
X002492Y005027D01*
X002529Y005027D01*
X002529Y005782D01*
X002708Y005782D01*
X002987Y005502D01*
X002987Y005026D01*
X002529Y005026D01*
X002529Y004989D01*
X002529Y004234D01*
X002708Y004234D01*
X002811Y004337D02*
X003210Y004337D01*
X003313Y004234D02*
X003033Y004514D01*
X003033Y005502D01*
X003313Y005782D01*
X003708Y005782D01*
X003987Y005502D01*
X003987Y004514D01*
X003708Y004234D01*
X003313Y004234D01*
X003051Y004496D02*
X002969Y004496D01*
X002987Y004654D02*
X003033Y004654D01*
X003033Y004813D02*
X002987Y004813D01*
X002987Y004971D02*
X003033Y004971D01*
X003033Y005130D02*
X002987Y005130D01*
X002987Y005289D02*
X003033Y005289D01*
X003033Y005447D02*
X002987Y005447D01*
X002884Y005606D02*
X003137Y005606D01*
X003295Y005764D02*
X002725Y005764D01*
X002529Y005764D02*
X002492Y005764D01*
X002492Y005606D02*
X002529Y005606D01*
X002529Y005447D02*
X002492Y005447D01*
X002492Y005289D02*
X002529Y005289D01*
X002529Y005130D02*
X002492Y005130D01*
X002492Y004971D02*
X002529Y004971D01*
X002529Y004813D02*
X002492Y004813D01*
X002492Y004654D02*
X002529Y004654D01*
X002529Y004496D02*
X002492Y004496D01*
X002492Y004337D02*
X002529Y004337D01*
X002210Y004337D02*
X001990Y004337D01*
X001990Y004179D02*
X008830Y004179D01*
X008830Y004337D02*
X008311Y004337D01*
X008208Y004234D02*
X008487Y004514D01*
X008487Y005502D01*
X008208Y005782D01*
X007813Y005782D01*
X007533Y005502D01*
X007533Y004514D01*
X007813Y004234D01*
X008208Y004234D01*
X008469Y004496D02*
X008830Y004496D01*
X008830Y004654D02*
X008487Y004654D01*
X008487Y004813D02*
X008830Y004813D01*
X008830Y004971D02*
X008487Y004971D01*
X008487Y005130D02*
X008830Y005130D01*
X008830Y005289D02*
X008487Y005289D01*
X008487Y005447D02*
X008830Y005447D01*
X008830Y005606D02*
X008384Y005606D01*
X008225Y005764D02*
X008830Y005764D01*
X008830Y005923D02*
X001990Y005923D01*
X001990Y006081D02*
X008830Y006081D01*
X008830Y006240D02*
X001990Y006240D01*
X001990Y006398D02*
X008830Y006398D01*
X008830Y006557D02*
X001990Y006557D01*
X001990Y006715D02*
X008830Y006715D01*
X008830Y006874D02*
X008348Y006874D01*
X008487Y007014D02*
X008208Y006734D01*
X007813Y006734D01*
X007533Y007014D01*
X007533Y008002D01*
X007813Y008282D01*
X008208Y008282D01*
X008487Y008002D01*
X008487Y007014D01*
X008487Y007033D02*
X008830Y007033D01*
X008830Y007191D02*
X008487Y007191D01*
X008487Y007350D02*
X008830Y007350D01*
X008830Y007508D02*
X008487Y007508D01*
X008487Y007667D02*
X008830Y007667D01*
X008830Y007825D02*
X008487Y007825D01*
X008487Y007984D02*
X008830Y007984D01*
X008830Y008142D02*
X008347Y008142D01*
X008830Y008301D02*
X001990Y008301D01*
X001990Y008459D02*
X008830Y008459D01*
X008830Y008618D02*
X001990Y008618D01*
X001990Y008776D02*
X008830Y008776D01*
X008830Y008935D02*
X001990Y008935D01*
X001990Y009094D02*
X008830Y009094D01*
X008830Y009252D02*
X001990Y009252D01*
X001990Y009411D02*
X008830Y009411D01*
X008830Y009569D02*
X005050Y009569D01*
X005009Y009528D02*
X004011Y009528D01*
X003860Y009679D01*
X003709Y009528D01*
X003311Y009528D01*
X003030Y009809D01*
X003030Y010207D01*
X003311Y010488D01*
X003709Y010488D01*
X003860Y010337D01*
X004011Y010488D01*
X005009Y010488D01*
X005290Y010207D01*
X005290Y009809D01*
X005009Y009528D01*
X005209Y009728D02*
X007542Y009728D01*
X007614Y009655D02*
X007417Y009852D01*
X007280Y009990D01*
X007280Y010184D01*
X007280Y010184D01*
X007406Y010311D01*
X007280Y010437D01*
X007280Y010733D01*
X007280Y010927D01*
X007280Y010927D01*
X007357Y011005D01*
X007280Y011082D01*
X007280Y011377D01*
X007280Y011572D01*
X007361Y011653D01*
X007378Y011670D01*
X007378Y011670D01*
X007406Y011698D01*
X007280Y011825D01*
X007280Y012022D01*
X007280Y012216D01*
X007280Y012216D01*
X007361Y012297D01*
X007378Y012315D01*
X007406Y012343D01*
X007280Y012469D01*
X007280Y012666D01*
X007280Y012861D01*
X007360Y012941D01*
X007378Y012959D01*
X007378Y012959D01*
X007402Y012983D01*
X007447Y013028D01*
X007516Y013097D01*
X007710Y013097D01*
X007809Y013097D01*
X007810Y013096D01*
X007811Y013097D01*
X007909Y013097D01*
X008104Y013097D01*
X008173Y013028D01*
X008175Y013026D01*
X008242Y012959D01*
X008256Y012945D01*
X008340Y012861D01*
X008340Y012664D01*
X008340Y012469D01*
X008242Y012371D01*
X008214Y012343D01*
X008242Y012315D01*
X008242Y012315D01*
X008257Y012300D01*
X008340Y012216D01*
X008340Y012019D01*
X008340Y011825D01*
X008242Y011726D01*
X008214Y011698D01*
X008242Y011670D01*
X008256Y011655D01*
X008340Y011572D01*
X008340Y011082D01*
X008203Y010944D01*
X008126Y010944D01*
X008143Y010927D01*
X008143Y010770D01*
X008203Y010770D01*
X008340Y010632D01*
X008340Y010437D01*
X008312Y010409D01*
X008340Y010381D01*
X008340Y010186D01*
X008241Y010087D01*
X008340Y009987D01*
X008340Y009793D01*
X008203Y009655D01*
X007907Y009655D01*
X007713Y009655D01*
X007614Y009655D01*
X007383Y009886D02*
X005290Y009886D01*
X005290Y010045D02*
X007280Y010045D01*
X007299Y010203D02*
X005290Y010203D01*
X005135Y010362D02*
X007355Y010362D01*
X007280Y010520D02*
X001990Y010520D01*
X001990Y010362D02*
X002186Y010362D01*
X002311Y010488D02*
X002030Y010207D01*
X002030Y010028D01*
X002490Y010028D01*
X002490Y009988D01*
X002030Y009988D01*
X002030Y009809D01*
X002311Y009528D01*
X002490Y009528D01*
X002490Y009988D01*
X002530Y009988D01*
X002530Y009528D01*
X002709Y009528D01*
X002990Y009809D01*
X002990Y009988D01*
X002530Y009988D01*
X002530Y010028D01*
X002530Y010488D01*
X002709Y010488D01*
X002990Y010207D01*
X002990Y010028D01*
X002530Y010028D01*
X002490Y010028D01*
X002490Y010488D01*
X002311Y010488D01*
X002311Y010528D02*
X002030Y010809D01*
X002030Y010988D01*
X002490Y010988D01*
X002490Y011028D01*
X002030Y011028D01*
X002030Y011207D01*
X002311Y011488D01*
X002490Y011488D01*
X002490Y011028D01*
X002530Y011028D01*
X002530Y011488D01*
X002709Y011488D01*
X002990Y011207D01*
X002990Y011028D01*
X002530Y011028D01*
X002530Y010988D01*
X002490Y010988D01*
X002490Y010528D01*
X002311Y010528D01*
X002160Y010679D02*
X001990Y010679D01*
X001990Y010838D02*
X002030Y010838D01*
X001990Y010996D02*
X002490Y010996D01*
X002530Y010996D02*
X003030Y010996D01*
X002990Y010988D02*
X002990Y010809D01*
X002709Y010528D01*
X002530Y010528D01*
X002530Y010988D01*
X002990Y010988D01*
X002990Y010838D02*
X003030Y010838D01*
X003030Y010809D02*
X003311Y010528D01*
X003709Y010528D01*
X003860Y010679D01*
X003860Y010679D01*
X004011Y010528D01*
X005009Y010528D01*
X005290Y010809D01*
X005290Y011207D01*
X005009Y011488D01*
X004011Y011488D01*
X003860Y011337D01*
X003709Y011488D01*
X003311Y011488D01*
X003030Y011207D01*
X003030Y010809D01*
X003160Y010679D02*
X002860Y010679D01*
X002835Y010362D02*
X003186Y010362D01*
X003030Y010203D02*
X002990Y010203D01*
X002990Y010045D02*
X003030Y010045D01*
X003030Y009886D02*
X002990Y009886D01*
X002909Y009728D02*
X003112Y009728D01*
X003270Y009569D02*
X002750Y009569D01*
X002530Y009569D02*
X002490Y009569D01*
X002490Y009728D02*
X002530Y009728D01*
X002530Y009886D02*
X002490Y009886D01*
X002490Y010045D02*
X002530Y010045D01*
X002530Y010203D02*
X002490Y010203D01*
X002490Y010362D02*
X002530Y010362D01*
X002530Y010679D02*
X002490Y010679D01*
X002490Y010838D02*
X002530Y010838D01*
X002530Y011155D02*
X002490Y011155D01*
X002490Y011313D02*
X002530Y011313D01*
X002530Y011472D02*
X002490Y011472D01*
X002490Y011528D02*
X002311Y011528D01*
X002030Y011809D01*
X002030Y011988D01*
X002490Y011988D01*
X002490Y012028D01*
X002030Y012028D01*
X002030Y012207D01*
X002311Y012488D01*
X002490Y012488D01*
X002490Y012028D01*
X002530Y012028D01*
X002530Y012488D01*
X002709Y012488D01*
X002990Y012207D01*
X002990Y012028D01*
X002530Y012028D01*
X002530Y011988D01*
X002490Y011988D01*
X002490Y011528D01*
X002530Y011528D02*
X002530Y011988D01*
X002990Y011988D01*
X002990Y011809D01*
X002709Y011528D01*
X002530Y011528D01*
X002530Y011630D02*
X002490Y011630D01*
X002490Y011789D02*
X002530Y011789D01*
X002530Y011947D02*
X002490Y011947D01*
X002490Y012106D02*
X002530Y012106D01*
X002530Y012264D02*
X002490Y012264D01*
X002490Y012423D02*
X002530Y012423D01*
X002530Y012528D02*
X002530Y012988D01*
X002490Y012988D01*
X002490Y013028D01*
X002030Y013028D01*
X002030Y013207D01*
X002311Y013488D01*
X002490Y013488D01*
X002490Y013028D01*
X002530Y013028D01*
X002530Y013488D01*
X002709Y013488D01*
X002990Y013207D01*
X002990Y013028D01*
X002530Y013028D01*
X002530Y012988D01*
X002990Y012988D01*
X002990Y012809D01*
X002709Y012528D01*
X002530Y012528D01*
X002490Y012528D02*
X002311Y012528D01*
X002030Y012809D01*
X002030Y012988D01*
X002490Y012988D01*
X002490Y012528D01*
X002490Y012582D02*
X002530Y012582D01*
X002530Y012740D02*
X002490Y012740D01*
X002490Y012899D02*
X002530Y012899D01*
X002530Y013057D02*
X002490Y013057D01*
X002490Y013216D02*
X002530Y013216D01*
X002530Y013374D02*
X002490Y013374D01*
X002490Y013528D02*
X002311Y013528D01*
X002030Y013809D01*
X002030Y013988D01*
X002490Y013988D01*
X002490Y014028D01*
X002030Y014028D01*
X002030Y014207D01*
X002311Y014488D01*
X002490Y014488D01*
X002490Y014028D01*
X002530Y014028D01*
X002530Y014488D01*
X002709Y014488D01*
X002990Y014207D01*
X002990Y014028D01*
X002530Y014028D01*
X002530Y013988D01*
X002490Y013988D01*
X002490Y013528D01*
X002490Y013533D02*
X002530Y013533D01*
X002530Y013528D02*
X002530Y013988D01*
X002990Y013988D01*
X002990Y013809D01*
X002709Y013528D01*
X002530Y013528D01*
X002530Y013691D02*
X002490Y013691D01*
X002490Y013850D02*
X002530Y013850D01*
X002530Y014008D02*
X003030Y014008D01*
X003030Y013850D02*
X002990Y013850D01*
X003030Y013809D02*
X003311Y013528D01*
X003709Y013528D01*
X003860Y013679D01*
X004011Y013528D01*
X005009Y013528D01*
X005290Y013809D01*
X005290Y014207D01*
X005009Y014488D01*
X004011Y014488D01*
X003860Y014337D01*
X003709Y014488D01*
X003311Y014488D01*
X003030Y014207D01*
X003030Y013809D01*
X003148Y013691D02*
X002872Y013691D01*
X002714Y013533D02*
X003306Y013533D01*
X003311Y013488D02*
X003709Y013488D01*
X003860Y013337D01*
X004011Y013488D01*
X005009Y013488D01*
X005290Y013207D01*
X005290Y012809D01*
X005009Y012528D01*
X004011Y012528D01*
X003860Y012679D01*
X003709Y012528D01*
X003311Y012528D01*
X003030Y012809D01*
X003030Y013207D01*
X003311Y013488D01*
X003198Y013374D02*
X002823Y013374D01*
X002981Y013216D02*
X003039Y013216D01*
X003030Y013057D02*
X002990Y013057D01*
X002990Y012899D02*
X003030Y012899D01*
X003099Y012740D02*
X002921Y012740D01*
X002763Y012582D02*
X003258Y012582D01*
X003311Y012488D02*
X003709Y012488D01*
X003860Y012337D01*
X004011Y012488D01*
X005009Y012488D01*
X005290Y012207D01*
X005290Y011809D01*
X005009Y011528D01*
X004011Y011528D01*
X003860Y011679D01*
X003709Y011528D01*
X003311Y011528D01*
X003030Y011809D01*
X003030Y012207D01*
X003311Y012488D01*
X003247Y012423D02*
X002774Y012423D01*
X002932Y012264D02*
X003088Y012264D01*
X003030Y012106D02*
X002990Y012106D01*
X002990Y011947D02*
X003030Y011947D01*
X003050Y011789D02*
X002970Y011789D01*
X002811Y011630D02*
X003209Y011630D01*
X003295Y011472D02*
X002725Y011472D01*
X002884Y011313D02*
X003137Y011313D01*
X003030Y011155D02*
X002990Y011155D01*
X002295Y011472D02*
X001990Y011472D01*
X001990Y011630D02*
X002209Y011630D01*
X002050Y011789D02*
X001990Y011789D01*
X001990Y011947D02*
X002030Y011947D01*
X002030Y012106D02*
X001990Y012106D01*
X001990Y012264D02*
X002088Y012264D01*
X001990Y012423D02*
X002247Y012423D01*
X002258Y012582D02*
X001990Y012582D01*
X001990Y012740D02*
X002099Y012740D01*
X002030Y012899D02*
X001990Y012899D01*
X001990Y013057D02*
X002030Y013057D01*
X002039Y013216D02*
X001990Y013216D01*
X001990Y013374D02*
X002198Y013374D01*
X002306Y013533D02*
X001990Y013533D01*
X001990Y013691D02*
X002148Y013691D01*
X002030Y013850D02*
X001990Y013850D01*
X001990Y014008D02*
X002490Y014008D01*
X002490Y014167D02*
X002530Y014167D01*
X002530Y014326D02*
X002490Y014326D01*
X002490Y014484D02*
X002530Y014484D01*
X002530Y014528D02*
X002530Y014988D01*
X002490Y014988D01*
X002490Y015028D01*
X002030Y015028D01*
X002030Y015207D01*
X002311Y015488D01*
X002490Y015488D01*
X002490Y015028D01*
X002530Y015028D01*
X002530Y015488D01*
X002709Y015488D01*
X002990Y015207D01*
X002990Y015028D01*
X002530Y015028D01*
X002530Y014988D01*
X002990Y014988D01*
X002990Y014809D01*
X002709Y014528D01*
X002530Y014528D01*
X002490Y014528D02*
X002311Y014528D01*
X002030Y014809D01*
X002030Y014988D01*
X002490Y014988D01*
X002490Y014528D01*
X002490Y014643D02*
X002530Y014643D01*
X002530Y014801D02*
X002490Y014801D01*
X002490Y014960D02*
X002530Y014960D01*
X002530Y015118D02*
X002490Y015118D01*
X002490Y015277D02*
X002530Y015277D01*
X002530Y015435D02*
X002490Y015435D01*
X002490Y015528D02*
X002311Y015528D01*
X002030Y015809D01*
X002030Y015988D01*
X002490Y015988D01*
X002490Y016028D01*
X002030Y016028D01*
X002030Y016207D01*
X002311Y016488D01*
X002490Y016488D01*
X002490Y016028D01*
X002530Y016028D01*
X002530Y016488D01*
X002709Y016488D01*
X002990Y016207D01*
X002990Y016028D01*
X002530Y016028D01*
X002530Y015988D01*
X002490Y015988D01*
X002490Y015528D01*
X002530Y015528D02*
X002530Y015988D01*
X002990Y015988D01*
X002990Y015809D01*
X002709Y015528D01*
X002530Y015528D01*
X002530Y015594D02*
X002490Y015594D01*
X002490Y015752D02*
X002530Y015752D01*
X002530Y015911D02*
X002490Y015911D01*
X002490Y016069D02*
X002530Y016069D01*
X002530Y016228D02*
X002490Y016228D01*
X002490Y016387D02*
X002530Y016387D01*
X002530Y016528D02*
X002709Y016528D01*
X002990Y016809D01*
X002990Y016988D01*
X002530Y016988D01*
X002490Y016988D01*
X002490Y017028D01*
X002030Y017028D01*
X002030Y017207D01*
X002311Y017488D01*
X002490Y017488D01*
X002490Y017028D01*
X002530Y017028D01*
X002530Y017488D01*
X002709Y017488D01*
X002990Y017207D01*
X002990Y017028D01*
X002530Y017028D01*
X002530Y016988D01*
X002530Y016528D01*
X002530Y016545D02*
X002490Y016545D01*
X002490Y016528D02*
X002311Y016528D01*
X002030Y016809D01*
X002030Y016988D01*
X002490Y016988D01*
X002490Y016528D01*
X002490Y016704D02*
X002530Y016704D01*
X002530Y016862D02*
X002490Y016862D01*
X002490Y017021D02*
X001990Y017021D01*
X001990Y017179D02*
X002030Y017179D01*
X001990Y017338D02*
X002161Y017338D01*
X001990Y017496D02*
X005846Y017496D01*
X005688Y017655D02*
X001990Y017655D01*
X001990Y017813D02*
X005529Y017813D01*
X005371Y017972D02*
X001990Y017972D01*
X001990Y018131D02*
X003112Y018131D01*
X002954Y018289D02*
X002567Y018289D01*
X002590Y018448D02*
X002795Y018448D01*
X002637Y018606D02*
X002590Y018606D01*
X002130Y018606D02*
X001990Y018606D01*
X001990Y018448D02*
X002130Y018448D01*
X002154Y018289D02*
X001990Y018289D01*
X001990Y018765D02*
X002130Y018765D01*
X002130Y018923D02*
X001990Y018923D01*
X001990Y019082D02*
X002130Y019082D01*
X002130Y019240D02*
X001990Y019240D01*
X001990Y019399D02*
X002130Y019399D01*
X002130Y019557D02*
X001990Y019557D01*
X001990Y019716D02*
X002130Y019716D01*
X002130Y019875D02*
X001990Y019875D01*
X001990Y020033D02*
X002130Y020033D01*
X002130Y020192D02*
X001990Y020192D01*
X001990Y020350D02*
X002130Y020350D01*
X002130Y020509D02*
X001990Y020509D01*
X001990Y020667D02*
X002130Y020667D01*
X002130Y020826D02*
X001990Y020826D01*
X001990Y020984D02*
X002130Y020984D01*
X002130Y021143D02*
X001990Y021143D01*
X001990Y021301D02*
X002130Y021301D01*
X002130Y021460D02*
X001990Y021460D01*
X001990Y021619D02*
X002130Y021619D01*
X002130Y021777D02*
X001990Y021777D01*
X001990Y021936D02*
X002130Y021936D01*
X002130Y022094D02*
X001990Y022094D01*
X001990Y022253D02*
X002130Y022253D01*
X002130Y022411D02*
X001990Y022411D01*
X001990Y022570D02*
X002130Y022570D01*
X002130Y022728D02*
X001990Y022728D01*
X001990Y022887D02*
X002130Y022887D01*
X002130Y023045D02*
X001990Y023045D01*
X001990Y023204D02*
X002130Y023204D01*
X002130Y023362D02*
X001990Y023362D01*
X001990Y023521D02*
X002130Y023521D01*
X002130Y023680D02*
X001990Y023680D01*
X001990Y023838D02*
X002130Y023838D01*
X002130Y023997D02*
X001990Y023997D01*
X001990Y024155D02*
X002130Y024155D01*
X002130Y024314D02*
X001990Y024314D01*
X001990Y024472D02*
X002130Y024472D01*
X002130Y024631D02*
X001990Y024631D01*
X001990Y024789D02*
X002130Y024789D01*
X002130Y024948D02*
X001990Y024948D01*
X001990Y025106D02*
X002130Y025106D01*
X002130Y025265D02*
X001990Y025265D01*
X001990Y025424D02*
X002130Y025424D01*
X002130Y025582D02*
X001990Y025582D01*
X001990Y025741D02*
X002130Y025741D01*
X002130Y025899D02*
X001990Y025899D01*
X001990Y026058D02*
X002130Y026058D01*
X002130Y026216D02*
X001990Y026216D01*
X001990Y026375D02*
X002130Y026375D01*
X002130Y026533D02*
X001990Y026533D01*
X001990Y026692D02*
X002130Y026692D01*
X002130Y026850D02*
X001990Y026850D01*
X001990Y027009D02*
X002130Y027009D01*
X002130Y027168D02*
X001990Y027168D01*
X001990Y027326D02*
X002130Y027326D01*
X002130Y027485D02*
X001990Y027485D01*
X001990Y027643D02*
X002130Y027643D01*
X002130Y027802D02*
X001990Y027802D01*
X001990Y027960D02*
X002130Y027960D01*
X002130Y028119D02*
X001990Y028119D01*
X001990Y028277D02*
X002130Y028277D01*
X002130Y028436D02*
X001990Y028436D01*
X001990Y028594D02*
X002130Y028594D01*
X002130Y028753D02*
X001990Y028753D01*
X001990Y028911D02*
X002130Y028911D01*
X002130Y029070D02*
X001990Y029070D01*
X001990Y029229D02*
X002130Y029229D01*
X002160Y029387D02*
X001990Y029387D01*
X001990Y029546D02*
X002033Y029546D01*
X002033Y029704D02*
X001990Y029704D01*
X001990Y029863D02*
X002033Y029863D01*
X002033Y030021D02*
X001990Y030021D01*
X001990Y030180D02*
X002033Y030180D01*
X002033Y030338D02*
X001990Y030338D01*
X001990Y030497D02*
X002033Y030497D01*
X001990Y030655D02*
X002187Y030655D01*
X001990Y030814D02*
X006630Y030814D01*
X006630Y030655D02*
X006334Y030655D01*
X006208Y030782D02*
X006487Y030502D01*
X006487Y030026D01*
X006029Y030026D01*
X006029Y029989D01*
X005992Y029989D01*
X005992Y029234D01*
X005813Y029234D01*
X005533Y029514D01*
X005533Y029989D01*
X005992Y029989D01*
X005992Y030026D01*
X005533Y030026D01*
X005533Y030502D01*
X005813Y030782D01*
X005992Y030782D01*
X005992Y030027D01*
X006029Y030027D01*
X006029Y030782D01*
X006208Y030782D01*
X006029Y030655D02*
X005992Y030655D01*
X005992Y030497D02*
X006029Y030497D01*
X006029Y030338D02*
X005992Y030338D01*
X005992Y030180D02*
X006029Y030180D01*
X006029Y030021D02*
X006630Y030021D01*
X006487Y029989D02*
X006487Y029514D01*
X006208Y029234D01*
X006029Y029234D01*
X006029Y029989D01*
X006487Y029989D01*
X006487Y029863D02*
X006630Y029863D01*
X006630Y029704D02*
X006487Y029704D01*
X006487Y029546D02*
X006630Y029546D01*
X006630Y029387D02*
X006361Y029387D01*
X006630Y029229D02*
X002590Y029229D01*
X002590Y029070D02*
X006630Y029070D01*
X006630Y028911D02*
X002590Y028911D01*
X002590Y028753D02*
X006630Y028753D01*
X006698Y028594D02*
X002590Y028594D01*
X002590Y028436D02*
X006857Y028436D01*
X007016Y028277D02*
X002590Y028277D01*
X002590Y028119D02*
X007530Y028119D01*
X007530Y027960D02*
X002590Y027960D01*
X002590Y027802D02*
X007530Y027802D01*
X007530Y027643D02*
X002590Y027643D01*
X002590Y027485D02*
X007530Y027485D01*
X007530Y027326D02*
X002590Y027326D01*
X002590Y027168D02*
X007530Y027168D01*
X007530Y027009D02*
X002590Y027009D01*
X002590Y026850D02*
X007530Y026850D01*
X007530Y026692D02*
X002590Y026692D01*
X002590Y026533D02*
X007530Y026533D01*
X007530Y026375D02*
X002590Y026375D01*
X002590Y026216D02*
X007530Y026216D01*
X007530Y026058D02*
X002590Y026058D01*
X002590Y025899D02*
X007530Y025899D01*
X007530Y025741D02*
X002590Y025741D01*
X002590Y025582D02*
X007530Y025582D01*
X007530Y025424D02*
X002590Y025424D01*
X002590Y025265D02*
X002796Y025265D01*
X002992Y025265D02*
X003029Y025265D01*
X003029Y025106D02*
X002992Y025106D01*
X002992Y024948D02*
X003029Y024948D01*
X003029Y024789D02*
X002992Y024789D01*
X002992Y024631D02*
X003029Y024631D01*
X003029Y024472D02*
X002992Y024472D01*
X002992Y024314D02*
X003029Y024314D01*
X003029Y024155D02*
X002992Y024155D01*
X002992Y023997D02*
X003029Y023997D01*
X003029Y023838D02*
X002992Y023838D01*
X002709Y023838D02*
X002590Y023838D01*
X002590Y023680D02*
X007230Y023680D01*
X007230Y023521D02*
X002590Y023521D01*
X002590Y023362D02*
X007230Y023362D01*
X007230Y023204D02*
X002590Y023204D01*
X002590Y023045D02*
X007230Y023045D01*
X007230Y022887D02*
X002590Y022887D01*
X002590Y022728D02*
X002759Y022728D01*
X002601Y022570D02*
X002590Y022570D01*
X002992Y022570D02*
X003029Y022570D01*
X003029Y022728D02*
X002992Y022728D01*
X003261Y022728D02*
X003759Y022728D01*
X003601Y022570D02*
X003419Y022570D01*
X003487Y022411D02*
X003533Y022411D01*
X003533Y022253D02*
X003487Y022253D01*
X003487Y022094D02*
X003533Y022094D01*
X003533Y021936D02*
X003487Y021936D01*
X003029Y022094D02*
X002992Y022094D01*
X002992Y022253D02*
X003029Y022253D01*
X003029Y022411D02*
X002992Y022411D01*
X003629Y021301D02*
X003745Y021301D01*
X003470Y021143D02*
X007230Y021143D01*
X007230Y021301D02*
X006775Y021301D01*
X006708Y021234D02*
X006529Y021234D01*
X006529Y021989D01*
X006492Y021989D01*
X006492Y021234D01*
X006313Y021234D01*
X006033Y021514D01*
X006033Y021989D01*
X006492Y021989D01*
X006492Y022026D01*
X006033Y022026D01*
X006033Y022502D01*
X006313Y022782D01*
X006492Y022782D01*
X006492Y022027D01*
X006529Y022027D01*
X006529Y022782D01*
X006708Y022782D01*
X006987Y022502D01*
X006987Y022026D01*
X006529Y022026D01*
X006529Y021989D01*
X006987Y021989D01*
X006987Y021514D01*
X006708Y021234D01*
X006529Y021301D02*
X006492Y021301D01*
X006492Y021460D02*
X006529Y021460D01*
X006529Y021619D02*
X006492Y021619D01*
X006492Y021777D02*
X006529Y021777D01*
X006529Y021936D02*
X006492Y021936D01*
X006492Y022094D02*
X006529Y022094D01*
X006529Y022253D02*
X006492Y022253D01*
X006492Y022411D02*
X006529Y022411D01*
X006529Y022570D02*
X006492Y022570D01*
X006492Y022728D02*
X006529Y022728D01*
X006761Y022728D02*
X007230Y022728D01*
X007101Y022570D02*
X006919Y022570D01*
X006987Y022411D02*
X007033Y022411D01*
X007033Y022253D02*
X006987Y022253D01*
X006987Y022094D02*
X007033Y022094D01*
X007033Y021936D02*
X006987Y021936D01*
X006987Y021777D02*
X007033Y021777D01*
X007033Y021619D02*
X006987Y021619D01*
X006934Y021460D02*
X007087Y021460D01*
X007230Y020984D02*
X002790Y020984D01*
X002790Y020826D02*
X007230Y020826D01*
X007230Y020667D02*
X002790Y020667D01*
X002790Y020509D02*
X007230Y020509D01*
X007230Y020350D02*
X002790Y020350D01*
X002992Y020192D02*
X003029Y020192D01*
X003029Y020033D02*
X002992Y020033D01*
X002992Y019875D02*
X003029Y019875D01*
X003029Y019716D02*
X002992Y019716D01*
X002992Y019557D02*
X003029Y019557D01*
X003487Y019557D02*
X003533Y019557D01*
X003533Y019399D02*
X003487Y019399D01*
X003487Y019240D02*
X003533Y019240D01*
X003533Y019082D02*
X003487Y019082D01*
X003397Y018923D02*
X003624Y018923D01*
X003782Y018765D02*
X003238Y018765D01*
X003287Y018606D02*
X004387Y018606D01*
X004487Y019240D02*
X004533Y019240D01*
X004533Y019399D02*
X004487Y019399D01*
X004487Y019557D02*
X004533Y019557D01*
X004533Y019716D02*
X004487Y019716D01*
X004487Y019875D02*
X004533Y019875D01*
X004564Y020033D02*
X004456Y020033D01*
X004298Y020192D02*
X004723Y020192D01*
X005298Y020192D02*
X006223Y020192D01*
X006064Y020033D02*
X005456Y020033D01*
X005487Y019875D02*
X006033Y019875D01*
X006033Y019716D02*
X005487Y019716D01*
X005487Y019557D02*
X006033Y019557D01*
X006033Y019399D02*
X005487Y019399D01*
X005487Y019240D02*
X006033Y019240D01*
X006033Y019082D02*
X005487Y019082D01*
X005465Y018528D02*
X005540Y018453D01*
X009605Y014388D01*
X010293Y014388D01*
X010188Y014493D01*
X010130Y014632D01*
X010130Y014783D01*
X010169Y014878D01*
X009868Y014878D01*
X009825Y014836D01*
X009686Y014778D01*
X009535Y014778D01*
X009395Y014836D01*
X009288Y014943D01*
X009230Y015082D01*
X009230Y015233D01*
X009288Y015373D01*
X009323Y015408D01*
X009288Y015443D01*
X009230Y015582D01*
X009230Y015733D01*
X009288Y015873D01*
X009323Y015908D01*
X009288Y015943D01*
X009230Y016082D01*
X009230Y016233D01*
X009288Y016373D01*
X009395Y016480D01*
X009535Y016538D01*
X009665Y016538D01*
X009730Y016603D01*
X009865Y016738D01*
X009911Y016738D01*
X009795Y016786D01*
X009688Y016893D01*
X009661Y016959D01*
X009586Y016928D01*
X009435Y016928D01*
X009295Y016986D01*
X009188Y017093D01*
X009130Y017232D01*
X009130Y017363D01*
X008881Y017611D01*
X008832Y017493D01*
X008725Y017386D01*
X008586Y017328D01*
X008435Y017328D01*
X008295Y017386D01*
X008188Y017493D01*
X008130Y017632D01*
X008130Y017783D01*
X008188Y017923D01*
X008280Y018015D01*
X008280Y018767D01*
X008033Y019014D01*
X008033Y019759D01*
X007987Y019806D01*
X007987Y019014D01*
X007708Y018734D01*
X007313Y018734D01*
X007287Y018760D01*
X007190Y018663D01*
X007055Y018528D01*
X005465Y018528D01*
X005546Y018448D02*
X008280Y018448D01*
X008280Y018606D02*
X007134Y018606D01*
X007738Y018765D02*
X008280Y018765D01*
X008124Y018923D02*
X007897Y018923D01*
X007987Y019082D02*
X008033Y019082D01*
X008033Y019240D02*
X007987Y019240D01*
X007987Y019399D02*
X008033Y019399D01*
X008033Y019557D02*
X007987Y019557D01*
X007987Y019716D02*
X008033Y019716D01*
X007223Y020192D02*
X006798Y020192D01*
X006956Y020033D02*
X007064Y020033D01*
X007033Y019875D02*
X006987Y019875D01*
X006987Y019716D02*
X007033Y019716D01*
X007033Y019557D02*
X006987Y019557D01*
X006987Y019399D02*
X007033Y019399D01*
X007033Y019240D02*
X006987Y019240D01*
X006529Y019557D02*
X006492Y019557D01*
X006492Y019716D02*
X006529Y019716D01*
X006529Y019875D02*
X006492Y019875D01*
X006492Y020033D02*
X006529Y020033D01*
X006529Y020192D02*
X006492Y020192D01*
X006245Y021301D02*
X005275Y021301D01*
X005208Y021234D02*
X005487Y021514D01*
X005487Y022502D01*
X005208Y022782D01*
X004813Y022782D01*
X004533Y022502D01*
X004533Y021514D01*
X004813Y021234D01*
X005208Y021234D01*
X005434Y021460D02*
X006087Y021460D01*
X006033Y021619D02*
X005487Y021619D01*
X005487Y021777D02*
X006033Y021777D01*
X006033Y021936D02*
X005487Y021936D01*
X005487Y022094D02*
X006033Y022094D01*
X006033Y022253D02*
X005487Y022253D01*
X005487Y022411D02*
X006033Y022411D01*
X006101Y022570D02*
X005419Y022570D01*
X005261Y022728D02*
X006259Y022728D01*
X006313Y023734D02*
X006492Y023734D01*
X006492Y024489D01*
X006529Y024489D01*
X006529Y023734D01*
X006708Y023734D01*
X006987Y024014D01*
X006987Y024489D01*
X006529Y024489D01*
X006529Y024526D01*
X006987Y024526D01*
X006987Y025002D01*
X006708Y025282D01*
X006529Y025282D01*
X006529Y024527D01*
X006492Y024527D01*
X006492Y025282D01*
X006313Y025282D01*
X006033Y025002D01*
X006033Y024526D01*
X006492Y024526D01*
X006492Y024489D01*
X006033Y024489D01*
X006033Y024014D01*
X006313Y023734D01*
X006209Y023838D02*
X005312Y023838D01*
X005208Y023734D02*
X005487Y024014D01*
X005487Y025002D01*
X005208Y025282D01*
X004813Y025282D01*
X004533Y025002D01*
X004533Y024014D01*
X004813Y023734D01*
X005208Y023734D01*
X005470Y023997D02*
X006050Y023997D01*
X006033Y024155D02*
X005487Y024155D01*
X005487Y024314D02*
X006033Y024314D01*
X006033Y024472D02*
X005487Y024472D01*
X005487Y024631D02*
X006033Y024631D01*
X006033Y024789D02*
X005487Y024789D01*
X005487Y024948D02*
X006033Y024948D01*
X006138Y025106D02*
X005383Y025106D01*
X005224Y025265D02*
X006296Y025265D01*
X006492Y025265D02*
X006529Y025265D01*
X006529Y025106D02*
X006492Y025106D01*
X006492Y024948D02*
X006529Y024948D01*
X006529Y024789D02*
X006492Y024789D01*
X006492Y024631D02*
X006529Y024631D01*
X006529Y024472D02*
X006492Y024472D01*
X006492Y024314D02*
X006529Y024314D01*
X006529Y024155D02*
X006492Y024155D01*
X006492Y023997D02*
X006529Y023997D01*
X006529Y023838D02*
X006492Y023838D01*
X006812Y023838D02*
X007209Y023838D01*
X007050Y023997D02*
X006970Y023997D01*
X006987Y024155D02*
X007033Y024155D01*
X007033Y024314D02*
X006987Y024314D01*
X006987Y024472D02*
X007033Y024472D01*
X007033Y024631D02*
X006987Y024631D01*
X006987Y024789D02*
X007033Y024789D01*
X007033Y024948D02*
X006987Y024948D01*
X006883Y025106D02*
X007138Y025106D01*
X007296Y025265D02*
X006724Y025265D01*
X007990Y025265D02*
X007992Y025265D01*
X007990Y025263D02*
X008280Y025553D01*
X008415Y025688D01*
X009465Y025688D01*
X009680Y025903D01*
X009680Y027413D01*
X009680Y027603D01*
X009980Y027903D01*
X010115Y028038D01*
X011249Y028038D01*
X011230Y028082D01*
X011230Y028233D01*
X011288Y028373D01*
X011380Y028465D01*
X011380Y028548D01*
X011320Y028548D01*
X011050Y028817D01*
X011050Y029198D01*
X011320Y029468D01*
X011701Y029468D01*
X011780Y029388D01*
X011780Y029627D01*
X011701Y029548D01*
X011320Y029548D01*
X011273Y029595D01*
X011155Y029478D01*
X010923Y029245D01*
X010970Y029198D01*
X010970Y028817D01*
X010701Y028548D01*
X010320Y028548D01*
X010104Y028764D01*
X010075Y028736D01*
X009936Y028678D01*
X009785Y028678D01*
X009645Y028736D01*
X009538Y028843D01*
X009529Y028863D01*
X009430Y028963D01*
X009212Y029181D01*
X008886Y029181D01*
X008709Y029181D01*
X008590Y029063D01*
X008590Y028932D01*
X008532Y028793D01*
X008425Y028686D01*
X008286Y028628D01*
X008135Y028628D01*
X007995Y028686D01*
X007990Y028691D01*
X007990Y028453D01*
X007990Y028263D01*
X007990Y025263D01*
X007990Y025424D02*
X008151Y025424D01*
X008309Y025582D02*
X007990Y025582D01*
X007990Y025741D02*
X009518Y025741D01*
X009676Y025899D02*
X007990Y025899D01*
X007990Y026058D02*
X009680Y026058D01*
X009680Y026216D02*
X007990Y026216D01*
X007990Y026375D02*
X009680Y026375D01*
X009680Y026533D02*
X007990Y026533D01*
X007990Y026692D02*
X009680Y026692D01*
X009680Y026850D02*
X007990Y026850D01*
X007990Y027009D02*
X009680Y027009D01*
X009680Y027168D02*
X007990Y027168D01*
X007990Y027326D02*
X009680Y027326D01*
X009680Y027485D02*
X007990Y027485D01*
X007990Y027643D02*
X009720Y027643D01*
X009879Y027802D02*
X007990Y027802D01*
X007990Y027960D02*
X010037Y027960D01*
X010273Y028594D02*
X007990Y028594D01*
X007990Y028436D02*
X011351Y028436D01*
X011273Y028594D02*
X010747Y028594D01*
X010906Y028753D02*
X011115Y028753D01*
X011050Y028911D02*
X010970Y028911D01*
X010970Y029070D02*
X011050Y029070D01*
X011080Y029229D02*
X010940Y029229D01*
X011065Y029387D02*
X011239Y029387D01*
X011223Y029546D02*
X011780Y029546D01*
X012240Y029546D02*
X015097Y029546D01*
X014965Y029678D02*
X014855Y029678D01*
X014831Y029678D01*
X014701Y029548D01*
X014320Y029548D01*
X014050Y029817D01*
X014050Y030193D01*
X013222Y031021D01*
X013222Y030717D01*
X013116Y030611D01*
X013075Y030611D01*
X013075Y030438D01*
X013075Y030247D01*
X012970Y030143D01*
X012970Y029817D01*
X012701Y029548D01*
X012320Y029548D01*
X012240Y029627D01*
X012240Y029388D01*
X012320Y029468D01*
X012701Y029468D01*
X012970Y029198D01*
X012970Y028817D01*
X012740Y028587D01*
X012740Y027838D01*
X012865Y027838D01*
X013575Y028548D01*
X013320Y028548D01*
X013050Y028817D01*
X013050Y029198D01*
X013320Y029468D01*
X013701Y029468D01*
X013970Y029198D01*
X013970Y028943D01*
X014030Y029003D01*
X014050Y029023D01*
X014050Y029198D01*
X014320Y029468D01*
X014701Y029468D01*
X014970Y029198D01*
X014970Y028817D01*
X014701Y028548D01*
X014320Y028548D01*
X014273Y028595D01*
X013055Y027378D01*
X012865Y027378D01*
X012790Y027378D01*
X012790Y026769D01*
X012835Y026788D01*
X012986Y026788D01*
X013125Y026730D01*
X013218Y026638D01*
X018215Y026638D01*
X018380Y026803D01*
X018486Y026909D01*
X018387Y027009D01*
X012790Y027009D01*
X012790Y027168D02*
X018321Y027168D01*
X018320Y027170D02*
X018320Y027258D01*
X018320Y027345D01*
X018387Y027507D01*
X018511Y027631D01*
X018673Y027698D01*
X018760Y027698D01*
X018760Y027258D01*
X018320Y027258D01*
X018760Y027258D01*
X018760Y027258D01*
X018760Y027258D01*
X018760Y027698D01*
X018848Y027698D01*
X019009Y027631D01*
X019133Y027507D01*
X019200Y027345D01*
X019200Y027258D01*
X018761Y027258D01*
X018761Y027258D01*
X019200Y027258D01*
X019200Y027170D01*
X019133Y027009D01*
X019389Y027009D01*
X019387Y027007D02*
X019511Y027131D01*
X019673Y027198D01*
X019848Y027198D01*
X020009Y027131D01*
X020030Y027110D01*
X020030Y027406D01*
X020009Y027385D01*
X019848Y027318D01*
X019673Y027318D01*
X019511Y027385D01*
X019387Y027509D01*
X019320Y027670D01*
X019320Y027845D01*
X019387Y028007D01*
X019511Y028131D01*
X019673Y028198D01*
X019848Y028198D01*
X020009Y028131D01*
X020030Y028110D01*
X020030Y029011D01*
X019915Y028903D01*
X019915Y028903D01*
X019787Y028804D01*
X019650Y028716D01*
X019506Y028642D01*
X019356Y028581D01*
X019201Y028533D01*
X019043Y028500D01*
X019043Y028500D01*
X018882Y028482D01*
X018882Y028482D01*
X018720Y028478D01*
X018720Y028478D01*
X018558Y028489D01*
X018398Y028515D01*
X018241Y028555D01*
X018088Y028610D01*
X017941Y028677D01*
X017801Y028758D01*
X017669Y028852D01*
X017669Y028852D01*
X017545Y028957D01*
X017432Y029073D01*
X017330Y029199D01*
X017239Y029333D01*
X017162Y029475D01*
X017097Y029624D01*
X017046Y029778D01*
X017010Y029936D01*
X016988Y030096D01*
X016980Y030258D01*
X016988Y030420D01*
X017010Y030580D01*
X017046Y030738D01*
X017097Y030892D01*
X017162Y031041D01*
X017239Y031183D01*
X017330Y031317D01*
X017330Y031317D01*
X017432Y031443D01*
X017515Y031528D01*
X013365Y031528D01*
X014425Y030468D01*
X014701Y030468D01*
X014970Y030198D01*
X014970Y030138D01*
X015155Y030138D01*
X015290Y030003D01*
X016055Y029238D01*
X016186Y029238D01*
X016325Y029180D01*
X016432Y029073D01*
X016490Y028933D01*
X016490Y028782D01*
X016432Y028643D01*
X016325Y028536D01*
X016186Y028478D01*
X016035Y028478D01*
X015895Y028536D01*
X015788Y028643D01*
X015730Y028782D01*
X015730Y028913D01*
X014965Y029678D01*
X014781Y029387D02*
X015256Y029387D01*
X015414Y029229D02*
X014940Y029229D01*
X014970Y029070D02*
X015573Y029070D01*
X015730Y028911D02*
X014970Y028911D01*
X014906Y028753D02*
X015742Y028753D01*
X015836Y028594D02*
X014747Y028594D01*
X014273Y028594D02*
X014272Y028594D01*
X014113Y028436D02*
X020030Y028436D01*
X020030Y028594D02*
X019390Y028594D01*
X019356Y028581D02*
X019356Y028581D01*
X019201Y028533D02*
X019201Y028533D01*
X019506Y028642D02*
X019506Y028642D01*
X019650Y028716D02*
X019650Y028716D01*
X019707Y028753D02*
X020030Y028753D01*
X020030Y028911D02*
X019924Y028911D01*
X019787Y028804D02*
X019787Y028804D01*
X020030Y028277D02*
X013955Y028277D01*
X013796Y028119D02*
X019499Y028119D01*
X019368Y027960D02*
X013638Y027960D01*
X013479Y027802D02*
X019320Y027802D01*
X019331Y027643D02*
X018980Y027643D01*
X018760Y027643D02*
X018760Y027643D01*
X018760Y027485D02*
X018760Y027485D01*
X018760Y027326D02*
X018760Y027326D01*
X018541Y027643D02*
X013321Y027643D01*
X013162Y027485D02*
X018378Y027485D01*
X018320Y027326D02*
X012790Y027326D01*
X012790Y026850D02*
X018428Y026850D01*
X018387Y027009D02*
X018320Y027170D01*
X018269Y026692D02*
X013164Y026692D01*
X012855Y025828D02*
X012665Y025828D01*
X012465Y026028D01*
X012330Y026163D01*
X012330Y027378D01*
X012165Y027378D01*
X010405Y027378D01*
X010340Y027313D01*
X010340Y024913D01*
X010205Y024778D01*
X009790Y024363D01*
X009790Y020753D01*
X009990Y020553D01*
X009990Y020363D01*
X009990Y018603D01*
X011155Y017438D01*
X011205Y017438D01*
X010615Y018028D01*
X010480Y018163D01*
X010480Y023803D01*
X010615Y023938D01*
X011380Y024703D01*
X011515Y024838D01*
X017253Y024838D01*
X017345Y024930D01*
X017485Y024988D01*
X017636Y024988D01*
X017680Y024969D01*
X017680Y025828D01*
X012855Y025828D01*
X012594Y025899D02*
X010340Y025899D01*
X010340Y025741D02*
X017680Y025741D01*
X017680Y025582D02*
X010340Y025582D01*
X010340Y025424D02*
X017680Y025424D01*
X017680Y025265D02*
X010340Y025265D01*
X010340Y025106D02*
X017680Y025106D01*
X017388Y024948D02*
X010340Y024948D01*
X010217Y024789D02*
X011466Y024789D01*
X011308Y024631D02*
X010058Y024631D01*
X009900Y024472D02*
X011149Y024472D01*
X010991Y024314D02*
X009790Y024314D01*
X009790Y024155D02*
X010832Y024155D01*
X010674Y023997D02*
X009790Y023997D01*
X009790Y023838D02*
X010515Y023838D01*
X010480Y023680D02*
X009790Y023680D01*
X009790Y023521D02*
X010480Y023521D01*
X010480Y023362D02*
X009790Y023362D01*
X009790Y023204D02*
X010480Y023204D01*
X010480Y023045D02*
X009790Y023045D01*
X009790Y022887D02*
X010480Y022887D01*
X010480Y022728D02*
X009790Y022728D01*
X009790Y022570D02*
X010480Y022570D01*
X010480Y022411D02*
X009790Y022411D01*
X009790Y022253D02*
X010480Y022253D01*
X010480Y022094D02*
X009790Y022094D01*
X009790Y021936D02*
X010480Y021936D01*
X010480Y021777D02*
X009790Y021777D01*
X009790Y021619D02*
X010480Y021619D01*
X010480Y021460D02*
X009790Y021460D01*
X009790Y021301D02*
X010480Y021301D01*
X010480Y021143D02*
X009790Y021143D01*
X009790Y020984D02*
X010480Y020984D01*
X010480Y020826D02*
X009790Y020826D01*
X009876Y020667D02*
X010480Y020667D01*
X010480Y020509D02*
X009990Y020509D01*
X009990Y020350D02*
X010480Y020350D01*
X010480Y020192D02*
X009990Y020192D01*
X009990Y020033D02*
X010480Y020033D01*
X010480Y019875D02*
X009990Y019875D01*
X009990Y019716D02*
X010480Y019716D01*
X010480Y019557D02*
X009990Y019557D01*
X009990Y019399D02*
X010480Y019399D01*
X010480Y019240D02*
X009990Y019240D01*
X009990Y019082D02*
X010480Y019082D01*
X010480Y018923D02*
X009990Y018923D01*
X009990Y018765D02*
X010480Y018765D01*
X010480Y018606D02*
X009990Y018606D01*
X010146Y018448D02*
X010480Y018448D01*
X010480Y018289D02*
X010304Y018289D01*
X010463Y018131D02*
X010512Y018131D01*
X010621Y017972D02*
X010671Y017972D01*
X010780Y017813D02*
X010829Y017813D01*
X010938Y017655D02*
X010988Y017655D01*
X011097Y017496D02*
X011146Y017496D01*
X012184Y018967D02*
X012235Y018988D01*
X012386Y018988D01*
X012525Y018930D01*
X012618Y018838D01*
X013055Y018838D01*
X012980Y018913D01*
X012980Y019103D01*
X012980Y020700D01*
X012888Y020793D01*
X012830Y020932D01*
X012830Y021083D01*
X012888Y021223D01*
X012995Y021330D01*
X013135Y021388D01*
X013286Y021388D01*
X013404Y021339D01*
X013330Y021413D01*
X011915Y022828D01*
X011785Y022828D01*
X011665Y022828D01*
X011340Y022828D01*
X011340Y022369D01*
X011385Y022388D01*
X011536Y022388D01*
X011675Y022330D01*
X011782Y022223D01*
X011840Y022083D01*
X011840Y021932D01*
X011782Y021793D01*
X011690Y021700D01*
X011690Y019419D01*
X011735Y019438D01*
X011886Y019438D01*
X012025Y019380D01*
X012132Y019273D01*
X012190Y019133D01*
X012190Y018982D01*
X012184Y018967D01*
X012190Y019082D02*
X012980Y019082D01*
X012980Y019240D02*
X012146Y019240D01*
X011980Y019399D02*
X012980Y019399D01*
X012980Y019557D02*
X011690Y019557D01*
X011690Y019716D02*
X012980Y019716D01*
X012980Y019875D02*
X011690Y019875D01*
X011690Y020033D02*
X012980Y020033D01*
X012980Y020192D02*
X011690Y020192D01*
X011690Y020350D02*
X012980Y020350D01*
X012980Y020509D02*
X011690Y020509D01*
X011690Y020667D02*
X012980Y020667D01*
X012874Y020826D02*
X011690Y020826D01*
X011690Y020984D02*
X012830Y020984D01*
X012855Y021143D02*
X011690Y021143D01*
X011690Y021301D02*
X012966Y021301D01*
X013283Y021460D02*
X011690Y021460D01*
X011690Y021619D02*
X013124Y021619D01*
X012966Y021777D02*
X011767Y021777D01*
X011840Y021936D02*
X012807Y021936D01*
X012649Y022094D02*
X011836Y022094D01*
X011753Y022253D02*
X012490Y022253D01*
X012332Y022411D02*
X011340Y022411D01*
X011340Y022570D02*
X012173Y022570D01*
X012015Y022728D02*
X011340Y022728D01*
X012240Y023153D02*
X013655Y021738D01*
X017903Y021738D01*
X017979Y021814D01*
X017930Y021932D01*
X017930Y022083D01*
X017988Y022223D01*
X018095Y022330D01*
X018235Y022388D01*
X018386Y022388D01*
X018525Y022330D01*
X018632Y022223D01*
X018690Y022083D01*
X018690Y021953D01*
X019505Y021138D01*
X019640Y021003D01*
X019640Y012388D01*
X019665Y012388D01*
X019730Y012388D01*
X019730Y025928D01*
X019105Y025928D01*
X019052Y025928D01*
X019009Y025885D01*
X018848Y025818D01*
X018673Y025818D01*
X018511Y025885D01*
X018387Y026009D01*
X018320Y026170D01*
X018320Y026178D01*
X018215Y026178D01*
X018115Y026178D01*
X018140Y026153D01*
X018140Y025963D01*
X018140Y024163D01*
X018005Y024028D01*
X017382Y023404D01*
X017616Y023404D01*
X017722Y023299D01*
X017722Y023238D01*
X018003Y023238D01*
X018095Y023330D01*
X018235Y023388D01*
X018386Y023388D01*
X018525Y023330D01*
X018632Y023223D01*
X018690Y023083D01*
X018690Y022932D01*
X018632Y022793D01*
X018525Y022686D01*
X018386Y022628D01*
X018235Y022628D01*
X018095Y022686D01*
X018003Y022778D01*
X017722Y022778D01*
X017722Y022717D01*
X017616Y022611D01*
X017073Y022611D01*
X017010Y022675D01*
X016947Y022611D01*
X016640Y022611D01*
X016640Y022482D01*
X016582Y022343D01*
X016475Y022236D01*
X016336Y022178D01*
X016185Y022178D01*
X016045Y022236D01*
X015938Y022343D01*
X015880Y022482D01*
X015880Y022633D01*
X015938Y022773D01*
X016045Y022880D01*
X016185Y022938D01*
X016299Y022938D01*
X016299Y023178D01*
X016185Y023178D01*
X016045Y023236D01*
X015953Y023328D01*
X012222Y023328D01*
X012240Y023283D01*
X012240Y023153D01*
X012240Y023204D02*
X016122Y023204D01*
X016299Y023045D02*
X012348Y023045D01*
X012506Y022887D02*
X016061Y022887D01*
X015919Y022728D02*
X012665Y022728D01*
X012824Y022570D02*
X015880Y022570D01*
X015910Y022411D02*
X012982Y022411D01*
X013141Y022253D02*
X016028Y022253D01*
X016492Y022253D02*
X018018Y022253D01*
X017935Y022094D02*
X013299Y022094D01*
X013458Y021936D02*
X017930Y021936D01*
X017942Y021777D02*
X013616Y021777D01*
X013478Y021278D02*
X013899Y021278D01*
X013880Y021233D01*
X013880Y021082D01*
X013938Y020943D01*
X014045Y020836D01*
X014185Y020778D01*
X014315Y020778D01*
X014630Y020463D01*
X014765Y020328D01*
X016665Y020328D01*
X017580Y019413D01*
X017580Y019038D01*
X016668Y019038D01*
X016575Y019130D01*
X016436Y019188D01*
X016285Y019188D01*
X016145Y019130D01*
X016038Y019023D01*
X015980Y018883D01*
X015980Y018732D01*
X016038Y018593D01*
X016143Y018488D01*
X015872Y018488D01*
X015890Y018532D01*
X015890Y018683D01*
X015832Y018823D01*
X015725Y018930D01*
X015586Y018988D01*
X015540Y018988D01*
X015540Y019083D01*
X015482Y019223D01*
X015375Y019330D01*
X015236Y019388D01*
X015085Y019388D01*
X014945Y019330D01*
X014853Y019238D01*
X013440Y019238D01*
X013440Y020700D01*
X013532Y020793D01*
X013590Y020932D01*
X013590Y021083D01*
X013532Y021223D01*
X013478Y021278D01*
X013566Y021143D02*
X013880Y021143D01*
X013921Y020984D02*
X013590Y020984D01*
X013546Y020826D02*
X014069Y020826D01*
X014426Y020667D02*
X013440Y020667D01*
X013440Y020509D02*
X014584Y020509D01*
X014743Y020350D02*
X013440Y020350D01*
X013440Y020192D02*
X016801Y020192D01*
X016960Y020033D02*
X013440Y020033D01*
X013440Y019875D02*
X017118Y019875D01*
X017277Y019716D02*
X013440Y019716D01*
X013440Y019557D02*
X017435Y019557D01*
X017580Y019399D02*
X013440Y019399D01*
X013440Y019240D02*
X014855Y019240D01*
X015465Y019240D02*
X017580Y019240D01*
X017580Y019082D02*
X016624Y019082D01*
X016097Y019082D02*
X015540Y019082D01*
X015732Y018923D02*
X015997Y018923D01*
X015980Y018765D02*
X015857Y018765D01*
X015890Y018606D02*
X016032Y018606D01*
X017293Y020350D02*
X017730Y020350D01*
X017730Y020413D02*
X017730Y019913D01*
X016855Y020788D01*
X016665Y020788D01*
X014955Y020788D01*
X014640Y021103D01*
X014640Y021233D01*
X014622Y021278D01*
X017903Y021278D01*
X017995Y021186D01*
X018135Y021128D01*
X018286Y021128D01*
X018425Y021186D01*
X018532Y021293D01*
X018582Y021411D01*
X019180Y020813D01*
X019180Y018113D01*
X019105Y018188D01*
X018915Y018188D01*
X018540Y018188D01*
X018540Y019700D01*
X018632Y019793D01*
X018690Y019932D01*
X018690Y020083D01*
X018632Y020223D01*
X018541Y020314D01*
X018590Y020432D01*
X018590Y020583D01*
X018532Y020723D01*
X018425Y020830D01*
X018286Y020888D01*
X018135Y020888D01*
X017995Y020830D01*
X017903Y020738D01*
X017865Y020738D01*
X017730Y020603D01*
X017730Y020413D01*
X017730Y020509D02*
X017135Y020509D01*
X016976Y020667D02*
X017794Y020667D01*
X017991Y020826D02*
X014918Y020826D01*
X014759Y020984D02*
X019009Y020984D01*
X019167Y020826D02*
X018430Y020826D01*
X018555Y020667D02*
X019180Y020667D01*
X019180Y020509D02*
X018590Y020509D01*
X018556Y020350D02*
X019180Y020350D01*
X019180Y020192D02*
X018645Y020192D01*
X018690Y020033D02*
X019180Y020033D01*
X019180Y019875D02*
X018666Y019875D01*
X018556Y019716D02*
X019180Y019716D01*
X019180Y019557D02*
X018540Y019557D01*
X018540Y019399D02*
X019180Y019399D01*
X019180Y019240D02*
X018540Y019240D01*
X018540Y019082D02*
X019180Y019082D01*
X019180Y018923D02*
X018540Y018923D01*
X018540Y018765D02*
X019180Y018765D01*
X019180Y018606D02*
X018540Y018606D01*
X018540Y018448D02*
X019180Y018448D01*
X019180Y018289D02*
X018540Y018289D01*
X019163Y018131D02*
X019180Y018131D01*
X019640Y018131D02*
X019730Y018131D01*
X019730Y018289D02*
X019640Y018289D01*
X019640Y018448D02*
X019730Y018448D01*
X019730Y018606D02*
X019640Y018606D01*
X019640Y018765D02*
X019730Y018765D01*
X019730Y018923D02*
X019640Y018923D01*
X019640Y019082D02*
X019730Y019082D01*
X019730Y019240D02*
X019640Y019240D01*
X019640Y019399D02*
X019730Y019399D01*
X019730Y019557D02*
X019640Y019557D01*
X019640Y019716D02*
X019730Y019716D01*
X019730Y019875D02*
X019640Y019875D01*
X019640Y020033D02*
X019730Y020033D01*
X019730Y020192D02*
X019640Y020192D01*
X019640Y020350D02*
X019730Y020350D01*
X019730Y020509D02*
X019640Y020509D01*
X019640Y020667D02*
X019730Y020667D01*
X019730Y020826D02*
X019640Y020826D01*
X019640Y020984D02*
X019730Y020984D01*
X019730Y021143D02*
X019500Y021143D01*
X019342Y021301D02*
X019730Y021301D01*
X019730Y021460D02*
X019183Y021460D01*
X019025Y021619D02*
X019730Y021619D01*
X019730Y021777D02*
X018866Y021777D01*
X018708Y021936D02*
X019730Y021936D01*
X019730Y022094D02*
X018686Y022094D01*
X018603Y022253D02*
X019730Y022253D01*
X019730Y022411D02*
X016611Y022411D01*
X016640Y022570D02*
X019730Y022570D01*
X019730Y022728D02*
X018568Y022728D01*
X018671Y022887D02*
X019730Y022887D01*
X019730Y023045D02*
X018690Y023045D01*
X018640Y023204D02*
X019730Y023204D01*
X019730Y023362D02*
X018447Y023362D01*
X018173Y023362D02*
X017658Y023362D01*
X017499Y023521D02*
X019730Y023521D01*
X019730Y023680D02*
X017657Y023680D01*
X017816Y023838D02*
X019730Y023838D01*
X019730Y023997D02*
X017974Y023997D01*
X018133Y024155D02*
X019730Y024155D01*
X019730Y024314D02*
X018140Y024314D01*
X018140Y024472D02*
X019730Y024472D01*
X019730Y024631D02*
X018140Y024631D01*
X018140Y024789D02*
X019730Y024789D01*
X019730Y024948D02*
X018140Y024948D01*
X018140Y025106D02*
X019730Y025106D01*
X019730Y025265D02*
X018140Y025265D01*
X018140Y025424D02*
X019730Y025424D01*
X019730Y025582D02*
X018140Y025582D01*
X018140Y025741D02*
X019730Y025741D01*
X019730Y025899D02*
X019024Y025899D01*
X018497Y025899D02*
X018140Y025899D01*
X018140Y026058D02*
X018367Y026058D01*
X019062Y026938D02*
X019359Y026938D01*
X019387Y027007D01*
X019199Y027168D02*
X019599Y027168D01*
X019653Y027326D02*
X019200Y027326D01*
X019143Y027485D02*
X019411Y027485D01*
X019868Y027326D02*
X020030Y027326D01*
X020030Y027168D02*
X019921Y027168D01*
X019133Y027009D02*
X019062Y026938D01*
X020021Y028119D02*
X020030Y028119D01*
X018558Y028489D02*
X018558Y028489D01*
X018398Y028515D02*
X018398Y028515D01*
X018241Y028555D02*
X018241Y028555D01*
X018131Y028594D02*
X016384Y028594D01*
X016478Y028753D02*
X017811Y028753D01*
X017801Y028758D02*
X017801Y028758D01*
X017941Y028677D02*
X017941Y028677D01*
X018088Y028610D02*
X018088Y028610D01*
X017599Y028911D02*
X016490Y028911D01*
X016434Y029070D02*
X017435Y029070D01*
X017432Y029073D02*
X017432Y029073D01*
X017330Y029199D02*
X017330Y029199D01*
X017310Y029229D02*
X016208Y029229D01*
X015906Y029387D02*
X017210Y029387D01*
X017239Y029333D02*
X017239Y029333D01*
X017131Y029546D02*
X015748Y029546D01*
X015589Y029704D02*
X017071Y029704D01*
X017027Y029863D02*
X015431Y029863D01*
X015272Y030021D02*
X016998Y030021D01*
X016984Y030180D02*
X014970Y030180D01*
X014830Y030338D02*
X016984Y030338D01*
X016998Y030497D02*
X014396Y030497D01*
X014238Y030655D02*
X017027Y030655D01*
X017071Y030814D02*
X014079Y030814D01*
X013921Y030973D02*
X017132Y030973D01*
X017162Y031041D02*
X017162Y031041D01*
X017211Y031131D02*
X013762Y031131D01*
X013604Y031290D02*
X017311Y031290D01*
X017239Y031183D02*
X017239Y031183D01*
X017432Y031443D02*
X017432Y031443D01*
X017437Y031448D02*
X013445Y031448D01*
X013270Y030973D02*
X013222Y030973D01*
X013222Y030814D02*
X013429Y030814D01*
X013587Y030655D02*
X013160Y030655D01*
X013075Y030497D02*
X013746Y030497D01*
X013701Y030468D02*
X013970Y030198D01*
X013970Y029817D01*
X013701Y029548D01*
X013320Y029548D01*
X013050Y029817D01*
X013050Y030198D01*
X013320Y030468D01*
X013701Y030468D01*
X013830Y030338D02*
X013904Y030338D01*
X013970Y030180D02*
X014050Y030180D01*
X014050Y030021D02*
X013970Y030021D01*
X013970Y029863D02*
X014050Y029863D01*
X014163Y029704D02*
X013857Y029704D01*
X013781Y029387D02*
X014239Y029387D01*
X014080Y029229D02*
X013940Y029229D01*
X013970Y029070D02*
X014050Y029070D01*
X013463Y028436D02*
X012740Y028436D01*
X012747Y028594D02*
X013273Y028594D01*
X013115Y028753D02*
X012906Y028753D01*
X012970Y028911D02*
X013050Y028911D01*
X013050Y029070D02*
X012970Y029070D01*
X012940Y029229D02*
X013080Y029229D01*
X013239Y029387D02*
X012781Y029387D01*
X012857Y029704D02*
X013163Y029704D01*
X013050Y029863D02*
X012970Y029863D01*
X012970Y030021D02*
X013050Y030021D01*
X013050Y030180D02*
X013007Y030180D01*
X013075Y030338D02*
X013190Y030338D01*
X011799Y030972D02*
X011799Y031178D01*
X007090Y031178D01*
X007090Y029425D01*
X007195Y029530D01*
X007335Y029588D01*
X007486Y029588D01*
X007529Y029570D01*
X007529Y029829D01*
X007634Y029935D01*
X008217Y029935D01*
X008260Y029891D01*
X008304Y029935D01*
X008886Y029935D01*
X009467Y029935D01*
X009510Y029891D01*
X009554Y029935D01*
X009826Y029935D01*
X009826Y029577D01*
X009863Y029577D01*
X009863Y029935D01*
X010050Y029935D01*
X010050Y029998D01*
X010500Y029998D01*
X010500Y030018D01*
X010050Y030018D01*
X010050Y030198D01*
X010320Y030468D01*
X010500Y030468D01*
X010500Y030018D01*
X010520Y030018D01*
X010520Y030468D01*
X010701Y030468D01*
X010830Y030338D01*
X010830Y030338D01*
X010830Y030513D01*
X010830Y030703D01*
X010965Y030838D01*
X011353Y030838D01*
X011445Y030930D01*
X011585Y030988D01*
X011736Y030988D01*
X011792Y030965D01*
X011799Y030972D01*
X011799Y030973D02*
X011773Y030973D01*
X011799Y031131D02*
X007090Y031131D01*
X007090Y030973D02*
X011548Y030973D01*
X010941Y030814D02*
X007090Y030814D01*
X007090Y030655D02*
X010830Y030655D01*
X010830Y030497D02*
X007090Y030497D01*
X007090Y030338D02*
X010190Y030338D01*
X010050Y030180D02*
X007090Y030180D01*
X007090Y030021D02*
X010050Y030021D01*
X009863Y029863D02*
X009826Y029863D01*
X009826Y029704D02*
X009863Y029704D01*
X009864Y029576D02*
X009864Y029539D01*
X010241Y029539D01*
X010241Y029389D01*
X010320Y029468D01*
X010495Y029468D01*
X010515Y029488D01*
X010575Y029548D01*
X010520Y029548D01*
X010520Y029998D01*
X010500Y029998D01*
X010500Y029548D01*
X010320Y029548D01*
X010241Y029626D01*
X010241Y029576D01*
X009864Y029576D01*
X009864Y029546D02*
X010573Y029546D01*
X010520Y029704D02*
X010500Y029704D01*
X010500Y029863D02*
X010520Y029863D01*
X010520Y030021D02*
X010500Y030021D01*
X010500Y030180D02*
X010520Y030180D01*
X010520Y030338D02*
X010500Y030338D01*
X010115Y028753D02*
X010093Y028753D01*
X009628Y028753D02*
X008493Y028753D01*
X008582Y028911D02*
X009481Y028911D01*
X009323Y029070D02*
X008598Y029070D01*
X007990Y028277D02*
X011248Y028277D01*
X011230Y028119D02*
X007990Y028119D01*
X007530Y028588D02*
X007530Y028846D01*
X007486Y028828D01*
X007335Y028828D01*
X007195Y028886D01*
X007090Y028991D01*
X007090Y028853D01*
X007355Y028588D01*
X007530Y028588D01*
X007530Y028594D02*
X007349Y028594D01*
X007190Y028753D02*
X007530Y028753D01*
X007169Y028911D02*
X007090Y028911D01*
X007090Y029546D02*
X007233Y029546D01*
X007090Y029704D02*
X007529Y029704D01*
X007563Y029863D02*
X007090Y029863D01*
X006630Y030180D02*
X006487Y030180D01*
X006487Y030338D02*
X006630Y030338D01*
X006630Y030497D02*
X006487Y030497D01*
X006630Y030973D02*
X001990Y030973D01*
X001990Y031131D02*
X006630Y031131D01*
X006630Y031290D02*
X001990Y031290D01*
X001990Y031448D02*
X006630Y031448D01*
X005687Y030655D02*
X005334Y030655D01*
X005208Y030782D02*
X005487Y030502D01*
X005487Y029514D01*
X005208Y029234D01*
X004813Y029234D01*
X004533Y029514D01*
X004533Y030502D01*
X004813Y030782D01*
X005208Y030782D01*
X005487Y030497D02*
X005533Y030497D01*
X005533Y030338D02*
X005487Y030338D01*
X005487Y030180D02*
X005533Y030180D01*
X005487Y030021D02*
X005992Y030021D01*
X005992Y029863D02*
X006029Y029863D01*
X006029Y029704D02*
X005992Y029704D01*
X005992Y029546D02*
X006029Y029546D01*
X006029Y029387D02*
X005992Y029387D01*
X005660Y029387D02*
X005361Y029387D01*
X005487Y029546D02*
X005533Y029546D01*
X005533Y029704D02*
X005487Y029704D01*
X005487Y029863D02*
X005533Y029863D01*
X004687Y030655D02*
X003834Y030655D01*
X003708Y030782D02*
X003987Y030502D01*
X003987Y030026D01*
X003529Y030026D01*
X003529Y029989D01*
X003492Y029989D01*
X003492Y029234D01*
X003313Y029234D01*
X003033Y029514D01*
X003033Y029989D01*
X003492Y029989D01*
X003492Y030026D01*
X003033Y030026D01*
X003033Y030502D01*
X003313Y030782D01*
X003492Y030782D01*
X003492Y030027D01*
X003529Y030027D01*
X003529Y030782D01*
X003708Y030782D01*
X003529Y030655D02*
X003492Y030655D01*
X003492Y030497D02*
X003529Y030497D01*
X003529Y030338D02*
X003492Y030338D01*
X003492Y030180D02*
X003529Y030180D01*
X003529Y030021D02*
X004533Y030021D01*
X004533Y029863D02*
X003987Y029863D01*
X003987Y029989D02*
X003987Y029514D01*
X003708Y029234D01*
X003529Y029234D01*
X003529Y029989D01*
X003987Y029989D01*
X003987Y030180D02*
X004533Y030180D01*
X004533Y030338D02*
X003987Y030338D01*
X003987Y030497D02*
X004533Y030497D01*
X004533Y029704D02*
X003987Y029704D01*
X003987Y029546D02*
X004533Y029546D01*
X004660Y029387D02*
X003861Y029387D01*
X003529Y029387D02*
X003492Y029387D01*
X003492Y029546D02*
X003529Y029546D01*
X003529Y029704D02*
X003492Y029704D01*
X003492Y029863D02*
X003529Y029863D01*
X003492Y030021D02*
X002987Y030021D01*
X002987Y029863D02*
X003033Y029863D01*
X003033Y029704D02*
X002987Y029704D01*
X002987Y029546D02*
X003033Y029546D01*
X003160Y029387D02*
X002861Y029387D01*
X002987Y030180D02*
X003033Y030180D01*
X003033Y030338D02*
X002987Y030338D01*
X002987Y030497D02*
X003033Y030497D01*
X003187Y030655D02*
X002834Y030655D01*
X003224Y025265D02*
X003796Y025265D01*
X003813Y025282D02*
X004208Y025282D01*
X004487Y025002D01*
X004487Y024014D01*
X004208Y023734D01*
X003813Y023734D01*
X003533Y024014D01*
X003533Y025002D01*
X003813Y025282D01*
X003638Y025106D02*
X003383Y025106D01*
X003487Y024948D02*
X003533Y024948D01*
X003533Y024789D02*
X003487Y024789D01*
X003487Y024631D02*
X003533Y024631D01*
X003533Y024472D02*
X003487Y024472D01*
X003487Y024314D02*
X003533Y024314D01*
X003533Y024155D02*
X003487Y024155D01*
X003470Y023997D02*
X003550Y023997D01*
X003709Y023838D02*
X003312Y023838D01*
X002638Y025106D02*
X002590Y025106D01*
X004224Y025265D02*
X004796Y025265D01*
X004638Y025106D02*
X004383Y025106D01*
X004487Y024948D02*
X004533Y024948D01*
X004533Y024789D02*
X004487Y024789D01*
X004487Y024631D02*
X004533Y024631D01*
X004533Y024472D02*
X004487Y024472D01*
X004487Y024314D02*
X004533Y024314D01*
X004533Y024155D02*
X004487Y024155D01*
X004470Y023997D02*
X004550Y023997D01*
X004709Y023838D02*
X004312Y023838D01*
X004261Y022728D02*
X004759Y022728D01*
X004601Y022570D02*
X004419Y022570D01*
X004487Y022411D02*
X004533Y022411D01*
X004533Y022253D02*
X004487Y022253D01*
X004487Y022094D02*
X004533Y022094D01*
X004533Y021936D02*
X004487Y021936D01*
X004487Y021777D02*
X004533Y021777D01*
X004533Y021619D02*
X004487Y021619D01*
X004434Y021460D02*
X004587Y021460D01*
X004745Y021301D02*
X004275Y021301D01*
X003723Y020192D02*
X003298Y020192D01*
X003456Y020033D02*
X003564Y020033D01*
X003533Y019875D02*
X003487Y019875D01*
X003487Y019716D02*
X003533Y019716D01*
X003709Y017488D02*
X003860Y017337D01*
X004011Y017488D01*
X005009Y017488D01*
X005290Y017207D01*
X005290Y016809D01*
X005009Y016528D01*
X004011Y016528D01*
X003860Y016679D01*
X003709Y016528D01*
X003311Y016528D01*
X003030Y016809D01*
X003030Y017207D01*
X003311Y017488D01*
X003709Y017488D01*
X003859Y017338D02*
X003861Y017338D01*
X003994Y016545D02*
X003726Y016545D01*
X003709Y016488D02*
X003860Y016337D01*
X004011Y016488D01*
X005009Y016488D01*
X005290Y016207D01*
X005290Y015809D01*
X005009Y015528D01*
X004011Y015528D01*
X003860Y015679D01*
X003709Y015528D01*
X003311Y015528D01*
X003030Y015809D01*
X003030Y016207D01*
X003311Y016488D01*
X003709Y016488D01*
X003810Y016387D02*
X003910Y016387D01*
X003945Y015594D02*
X003775Y015594D01*
X003709Y015488D02*
X003860Y015337D01*
X004011Y015488D01*
X005009Y015488D01*
X005290Y015207D01*
X005290Y014809D01*
X005009Y014528D01*
X004011Y014528D01*
X003860Y014679D01*
X003709Y014528D01*
X003311Y014528D01*
X003030Y014809D01*
X003030Y015207D01*
X003311Y015488D01*
X003709Y015488D01*
X003762Y015435D02*
X003959Y015435D01*
X003897Y014643D02*
X003824Y014643D01*
X003713Y014484D02*
X004008Y014484D01*
X004007Y013533D02*
X003714Y013533D01*
X003823Y013374D02*
X003898Y013374D01*
X003958Y012582D02*
X003763Y012582D01*
X003774Y012423D02*
X003947Y012423D01*
X003909Y011630D02*
X003811Y011630D01*
X003725Y011472D02*
X003995Y011472D01*
X003886Y010362D02*
X003835Y010362D01*
X003750Y009569D02*
X003970Y009569D01*
X003708Y008282D02*
X003987Y008002D01*
X003987Y007014D01*
X003708Y006734D01*
X003313Y006734D01*
X003033Y007014D01*
X003033Y008002D01*
X003313Y008282D01*
X003708Y008282D01*
X003847Y008142D02*
X004174Y008142D01*
X004313Y008282D02*
X004033Y008002D01*
X004033Y007014D01*
X004313Y006734D01*
X004708Y006734D01*
X004987Y007014D01*
X004987Y008002D01*
X004708Y008282D01*
X004313Y008282D01*
X004033Y007984D02*
X003987Y007984D01*
X003987Y007825D02*
X004033Y007825D01*
X004033Y007667D02*
X003987Y007667D01*
X003987Y007508D02*
X004033Y007508D01*
X004033Y007350D02*
X003987Y007350D01*
X003987Y007191D02*
X004033Y007191D01*
X004033Y007033D02*
X003987Y007033D01*
X003848Y006874D02*
X004173Y006874D01*
X004848Y006874D02*
X005673Y006874D01*
X005813Y006734D02*
X005533Y007014D01*
X005533Y007489D01*
X005992Y007489D01*
X005992Y006734D01*
X005813Y006734D01*
X006029Y006734D02*
X006029Y007489D01*
X005992Y007489D01*
X005992Y007526D01*
X005533Y007526D01*
X005533Y008002D01*
X005813Y008282D01*
X005992Y008282D01*
X005992Y007527D01*
X006029Y007527D01*
X006029Y008282D01*
X006208Y008282D01*
X006487Y008002D01*
X006487Y007526D01*
X006029Y007526D01*
X006029Y007489D01*
X006487Y007489D01*
X006487Y007014D01*
X006208Y006734D01*
X006029Y006734D01*
X006029Y006874D02*
X005992Y006874D01*
X005992Y007033D02*
X006029Y007033D01*
X006029Y007191D02*
X005992Y007191D01*
X005992Y007350D02*
X006029Y007350D01*
X006029Y007508D02*
X006533Y007508D01*
X006533Y007350D02*
X006487Y007350D01*
X006487Y007191D02*
X006533Y007191D01*
X006533Y007033D02*
X006487Y007033D01*
X006533Y007014D02*
X006813Y006734D01*
X007208Y006734D01*
X007487Y007014D01*
X007487Y008002D01*
X007208Y008282D01*
X006813Y008282D01*
X006533Y008002D01*
X006533Y007014D01*
X006673Y006874D02*
X006348Y006874D01*
X005992Y007508D02*
X004987Y007508D01*
X004987Y007350D02*
X005533Y007350D01*
X005533Y007191D02*
X004987Y007191D01*
X004987Y007033D02*
X005533Y007033D01*
X005533Y007667D02*
X004987Y007667D01*
X004987Y007825D02*
X005533Y007825D01*
X005533Y007984D02*
X004987Y007984D01*
X004847Y008142D02*
X005674Y008142D01*
X005992Y008142D02*
X006029Y008142D01*
X006029Y007984D02*
X005992Y007984D01*
X005992Y007825D02*
X006029Y007825D01*
X006029Y007667D02*
X005992Y007667D01*
X006487Y007667D02*
X006533Y007667D01*
X006533Y007825D02*
X006487Y007825D01*
X006487Y007984D02*
X006533Y007984D01*
X006674Y008142D02*
X006347Y008142D01*
X007347Y008142D02*
X007674Y008142D01*
X007533Y007984D02*
X007487Y007984D01*
X007487Y007825D02*
X007533Y007825D01*
X007533Y007667D02*
X007487Y007667D01*
X007487Y007508D02*
X007533Y007508D01*
X007533Y007350D02*
X007487Y007350D01*
X007487Y007191D02*
X007533Y007191D01*
X007533Y007033D02*
X007487Y007033D01*
X007348Y006874D02*
X007673Y006874D01*
X007795Y005764D02*
X007225Y005764D01*
X007208Y005782D02*
X007487Y005502D01*
X007487Y004514D01*
X007208Y004234D01*
X006813Y004234D01*
X006533Y004514D01*
X006533Y005502D01*
X006813Y005782D01*
X007208Y005782D01*
X007384Y005606D02*
X007637Y005606D01*
X007533Y005447D02*
X007487Y005447D01*
X007487Y005289D02*
X007533Y005289D01*
X007533Y005130D02*
X007487Y005130D01*
X007487Y004971D02*
X007533Y004971D01*
X007533Y004813D02*
X007487Y004813D01*
X007487Y004654D02*
X007533Y004654D01*
X007551Y004496D02*
X007469Y004496D01*
X007311Y004337D02*
X007710Y004337D01*
X007759Y003227D02*
X007262Y003227D01*
X007420Y003069D02*
X007600Y003069D01*
X007533Y002910D02*
X007487Y002910D01*
X007487Y002752D02*
X007533Y002752D01*
X007533Y002593D02*
X007487Y002593D01*
X007487Y002435D02*
X007533Y002435D01*
X007533Y002276D02*
X007487Y002276D01*
X007487Y002118D02*
X007533Y002118D01*
X007588Y001959D02*
X007433Y001959D01*
X007290Y001801D02*
X007746Y001801D01*
X008274Y001801D02*
X009246Y001801D01*
X009088Y001959D02*
X008433Y001959D01*
X008487Y002118D02*
X009033Y002118D01*
X009033Y002276D02*
X008487Y002276D01*
X008487Y002435D02*
X009033Y002435D01*
X009033Y002593D02*
X008487Y002593D01*
X008487Y002752D02*
X009033Y002752D01*
X009033Y002910D02*
X008487Y002910D01*
X008420Y003069D02*
X008924Y003069D01*
X008830Y003227D02*
X008262Y003227D01*
X008830Y003386D02*
X001990Y003386D01*
X001990Y003545D02*
X008830Y003545D01*
X008830Y003703D02*
X001990Y003703D01*
X001990Y003862D02*
X008830Y003862D01*
X008830Y004020D02*
X001990Y004020D01*
X001990Y004496D02*
X002051Y004496D01*
X002033Y004654D02*
X001990Y004654D01*
X001990Y004813D02*
X002033Y004813D01*
X002033Y004971D02*
X001990Y004971D01*
X001990Y005130D02*
X002033Y005130D01*
X002033Y005289D02*
X001990Y005289D01*
X001990Y005447D02*
X002033Y005447D01*
X001990Y005606D02*
X002137Y005606D01*
X001990Y005764D02*
X002295Y005764D01*
X002313Y006734D02*
X002492Y006734D01*
X002492Y007489D01*
X002529Y007489D01*
X002529Y006734D01*
X002708Y006734D01*
X002987Y007014D01*
X002987Y007489D01*
X002529Y007489D01*
X002529Y007526D01*
X002987Y007526D01*
X002987Y008002D01*
X002708Y008282D01*
X002529Y008282D01*
X002529Y007527D01*
X002492Y007527D01*
X002492Y008282D01*
X002313Y008282D01*
X002033Y008002D01*
X002033Y007526D01*
X002492Y007526D01*
X002492Y007489D01*
X002033Y007489D01*
X002033Y007014D01*
X002313Y006734D01*
X002173Y006874D02*
X001990Y006874D01*
X001990Y007033D02*
X002033Y007033D01*
X002033Y007191D02*
X001990Y007191D01*
X001990Y007350D02*
X002033Y007350D01*
X001990Y007508D02*
X002492Y007508D01*
X002529Y007508D02*
X003033Y007508D01*
X003033Y007350D02*
X002987Y007350D01*
X002987Y007191D02*
X003033Y007191D01*
X003033Y007033D02*
X002987Y007033D01*
X002848Y006874D02*
X003173Y006874D01*
X003033Y007667D02*
X002987Y007667D01*
X002987Y007825D02*
X003033Y007825D01*
X003033Y007984D02*
X002987Y007984D01*
X002847Y008142D02*
X003174Y008142D01*
X002529Y008142D02*
X002492Y008142D01*
X002492Y007984D02*
X002529Y007984D01*
X002529Y007825D02*
X002492Y007825D01*
X002492Y007667D02*
X002529Y007667D01*
X002529Y007350D02*
X002492Y007350D01*
X002492Y007191D02*
X002529Y007191D01*
X002529Y007033D02*
X002492Y007033D01*
X002492Y006874D02*
X002529Y006874D01*
X002033Y007667D02*
X001990Y007667D01*
X001990Y007825D02*
X002033Y007825D01*
X002033Y007984D02*
X001990Y007984D01*
X001990Y008142D02*
X002174Y008142D01*
X002270Y009569D02*
X001990Y009569D01*
X001990Y009728D02*
X002112Y009728D01*
X002030Y009886D02*
X001990Y009886D01*
X001990Y010045D02*
X002030Y010045D01*
X002030Y010203D02*
X001990Y010203D01*
X002030Y011155D02*
X001990Y011155D01*
X001990Y011313D02*
X002137Y011313D01*
X002030Y014167D02*
X001990Y014167D01*
X001990Y014326D02*
X002149Y014326D01*
X002308Y014484D02*
X001990Y014484D01*
X001990Y014643D02*
X002197Y014643D01*
X002038Y014801D02*
X001990Y014801D01*
X001990Y014960D02*
X002030Y014960D01*
X002030Y015118D02*
X001990Y015118D01*
X001990Y015277D02*
X002100Y015277D01*
X001990Y015435D02*
X002259Y015435D01*
X002245Y015594D02*
X001990Y015594D01*
X001990Y015752D02*
X002087Y015752D01*
X002030Y015911D02*
X001990Y015911D01*
X001990Y016069D02*
X002030Y016069D01*
X002052Y016228D02*
X001990Y016228D01*
X001990Y016387D02*
X002210Y016387D01*
X002294Y016545D02*
X001990Y016545D01*
X001990Y016704D02*
X002136Y016704D01*
X002030Y016862D02*
X001990Y016862D01*
X002530Y017021D02*
X003030Y017021D01*
X003030Y017179D02*
X002990Y017179D01*
X002859Y017338D02*
X003161Y017338D01*
X003030Y016862D02*
X002990Y016862D01*
X002885Y016704D02*
X003136Y016704D01*
X003294Y016545D02*
X002726Y016545D01*
X002810Y016387D02*
X003210Y016387D01*
X003052Y016228D02*
X002969Y016228D01*
X002990Y016069D02*
X003030Y016069D01*
X003030Y015911D02*
X002990Y015911D01*
X002934Y015752D02*
X003087Y015752D01*
X003245Y015594D02*
X002775Y015594D01*
X002762Y015435D02*
X003259Y015435D01*
X003100Y015277D02*
X002920Y015277D01*
X002990Y015118D02*
X003030Y015118D01*
X003030Y014960D02*
X002990Y014960D01*
X002982Y014801D02*
X003038Y014801D01*
X003197Y014643D02*
X002824Y014643D01*
X002713Y014484D02*
X003308Y014484D01*
X003149Y014326D02*
X002871Y014326D01*
X002990Y014167D02*
X003030Y014167D01*
X002530Y017179D02*
X002490Y017179D01*
X002490Y017338D02*
X002530Y017338D01*
X005026Y016545D02*
X006798Y016545D01*
X006956Y016387D02*
X005110Y016387D01*
X005269Y016228D02*
X007115Y016228D01*
X007273Y016069D02*
X005290Y016069D01*
X005290Y015911D02*
X007432Y015911D01*
X007590Y015752D02*
X005234Y015752D01*
X005075Y015594D02*
X007749Y015594D01*
X007908Y015435D02*
X005062Y015435D01*
X005220Y015277D02*
X008066Y015277D01*
X008225Y015118D02*
X005290Y015118D01*
X005290Y014960D02*
X008383Y014960D01*
X008542Y014801D02*
X005282Y014801D01*
X005124Y014643D02*
X008700Y014643D01*
X008859Y014484D02*
X005013Y014484D01*
X005171Y014326D02*
X009017Y014326D01*
X009176Y014167D02*
X005290Y014167D01*
X005290Y014008D02*
X009334Y014008D01*
X009509Y014484D02*
X010197Y014484D01*
X010130Y014643D02*
X009351Y014643D01*
X009478Y014801D02*
X009192Y014801D01*
X009281Y014960D02*
X009034Y014960D01*
X008875Y015118D02*
X009230Y015118D01*
X009248Y015277D02*
X008717Y015277D01*
X008558Y015435D02*
X009295Y015435D01*
X009230Y015594D02*
X008399Y015594D01*
X008241Y015752D02*
X009238Y015752D01*
X009320Y015911D02*
X008082Y015911D01*
X007924Y016069D02*
X009236Y016069D01*
X009230Y016228D02*
X007765Y016228D01*
X007607Y016387D02*
X009302Y016387D01*
X009672Y016545D02*
X007448Y016545D01*
X007290Y016704D02*
X009831Y016704D01*
X009718Y016862D02*
X007131Y016862D01*
X006973Y017021D02*
X009260Y017021D01*
X009152Y017179D02*
X006814Y017179D01*
X006655Y017338D02*
X008411Y017338D01*
X008610Y017338D02*
X009130Y017338D01*
X008996Y017496D02*
X008834Y017496D01*
X008237Y017972D02*
X006021Y017972D01*
X005863Y018131D02*
X008280Y018131D01*
X008280Y018289D02*
X005704Y018289D01*
X006180Y017813D02*
X008143Y017813D01*
X008130Y017655D02*
X006338Y017655D01*
X006497Y017496D02*
X008187Y017496D01*
X006639Y016704D02*
X005185Y016704D01*
X005290Y016862D02*
X006481Y016862D01*
X006322Y017021D02*
X005290Y017021D01*
X005290Y017179D02*
X006164Y017179D01*
X006005Y017338D02*
X005159Y017338D01*
X005290Y013850D02*
X012680Y013850D01*
X012680Y013691D02*
X005172Y013691D01*
X005014Y013533D02*
X012680Y013533D01*
X012444Y013374D02*
X012407Y013374D01*
X012407Y013216D02*
X012444Y013216D01*
X012407Y013057D02*
X008144Y013057D01*
X008242Y012959D02*
X008242Y012959D01*
X008302Y012899D02*
X012029Y012899D01*
X012075Y012740D02*
X011865Y012740D01*
X011940Y012582D02*
X012680Y012582D01*
X012705Y012423D02*
X011936Y012423D01*
X011854Y012264D02*
X012816Y012264D01*
X013237Y012106D02*
X009933Y012106D01*
X009775Y011947D02*
X013396Y011947D01*
X014130Y011789D02*
X009616Y011789D01*
X009458Y011630D02*
X014130Y011630D01*
X013633Y009886D02*
X013461Y009886D01*
X012380Y009252D02*
X017680Y009252D01*
X017680Y009094D02*
X012221Y009094D01*
X012063Y008935D02*
X017680Y008935D01*
X017591Y008776D02*
X011904Y008776D01*
X011746Y008618D02*
X012095Y008618D01*
X011937Y008459D02*
X011587Y008459D01*
X011428Y008301D02*
X011778Y008301D01*
X011571Y009094D02*
X009290Y009094D01*
X009290Y009252D02*
X011729Y009252D01*
X011033Y007825D02*
X010987Y007825D01*
X010987Y007667D02*
X011033Y007667D01*
X011033Y007508D02*
X010987Y007508D01*
X010987Y007350D02*
X011033Y007350D01*
X011033Y007191D02*
X010987Y007191D01*
X010987Y007033D02*
X011033Y007033D01*
X011173Y006874D02*
X010848Y006874D01*
X010900Y005923D02*
X009290Y005923D01*
X009290Y006081D02*
X018708Y006081D01*
X018867Y006240D02*
X009290Y006240D01*
X009290Y006398D02*
X019025Y006398D01*
X019029Y006557D02*
X018992Y006557D01*
X018992Y006715D02*
X019029Y006715D01*
X019029Y006874D02*
X018992Y006874D01*
X018992Y007033D02*
X019029Y007033D01*
X019029Y007191D02*
X018992Y007191D01*
X018992Y007350D02*
X019029Y007350D01*
X018490Y006557D02*
X009290Y006557D01*
X009295Y005764D02*
X009290Y005764D01*
X009492Y005764D02*
X009529Y005764D01*
X009529Y005606D02*
X009492Y005606D01*
X009492Y005447D02*
X009529Y005447D01*
X009529Y005289D02*
X009492Y005289D01*
X009492Y005130D02*
X009529Y005130D01*
X009529Y004989D02*
X009987Y004989D01*
X009987Y004514D01*
X009708Y004234D01*
X009529Y004234D01*
X009529Y004989D01*
X009529Y004971D02*
X009492Y004971D01*
X009492Y004813D02*
X009529Y004813D01*
X009529Y004654D02*
X009492Y004654D01*
X009492Y004496D02*
X009529Y004496D01*
X009529Y004337D02*
X009492Y004337D01*
X009290Y004179D02*
X012106Y004179D01*
X012030Y004020D02*
X009290Y004020D01*
X009290Y003862D02*
X012030Y003862D01*
X012030Y003703D02*
X009290Y003703D01*
X009290Y003545D02*
X012030Y003545D01*
X012030Y003386D02*
X010907Y003386D01*
X011066Y003227D02*
X011259Y003227D01*
X011762Y003227D02*
X012030Y003227D01*
X012490Y003227D02*
X016155Y003227D01*
X015996Y003069D02*
X012605Y003069D01*
X012640Y002910D02*
X015838Y002910D01*
X015679Y002752D02*
X012607Y002752D01*
X012483Y002593D02*
X015520Y002593D01*
X015362Y002435D02*
X011987Y002435D01*
X011987Y002593D02*
X012037Y002593D01*
X011987Y002276D02*
X015203Y002276D01*
X015045Y002118D02*
X011987Y002118D01*
X012490Y003386D02*
X016313Y003386D01*
X016472Y003545D02*
X012490Y003545D01*
X012490Y003703D02*
X016630Y003703D01*
X016789Y003862D02*
X012490Y003862D01*
X012264Y004337D02*
X011811Y004337D01*
X011969Y004496D02*
X012320Y004496D01*
X012320Y004654D02*
X011987Y004654D01*
X011987Y004813D02*
X012280Y004813D01*
X012230Y004971D02*
X011987Y004971D01*
X011987Y005130D02*
X012249Y005130D01*
X012320Y005289D02*
X011987Y005289D01*
X011987Y005447D02*
X012320Y005447D01*
X012621Y005923D02*
X013400Y005923D01*
X013700Y005447D02*
X018374Y005447D01*
X018216Y005289D02*
X013700Y005289D01*
X013595Y004875D02*
X013700Y004769D01*
X013700Y004500D01*
X013385Y004500D01*
X013385Y004500D01*
X013700Y004500D01*
X013700Y004231D01*
X013595Y004125D01*
X013384Y004125D01*
X013384Y004500D01*
X013384Y004500D01*
X013384Y004875D01*
X013595Y004875D01*
X013657Y004813D02*
X017740Y004813D01*
X017899Y004971D02*
X012990Y004971D01*
X012971Y005130D02*
X018057Y005130D01*
X018390Y004813D02*
X020030Y004813D01*
X020030Y004971D02*
X018549Y004971D01*
X018708Y005130D02*
X020030Y005130D01*
X020030Y005289D02*
X018866Y005289D01*
X019025Y005447D02*
X020030Y005447D01*
X020030Y005606D02*
X019183Y005606D01*
X019342Y005764D02*
X020030Y005764D01*
X020030Y005923D02*
X019500Y005923D01*
X019659Y006081D02*
X020030Y006081D01*
X020030Y006240D02*
X019817Y006240D01*
X019976Y006398D02*
X020030Y006398D01*
X020030Y006453D02*
X017881Y004303D01*
X017941Y004338D01*
X017941Y004338D01*
X018088Y004406D01*
X018088Y004406D01*
X018241Y004460D01*
X018398Y004501D01*
X018558Y004526D01*
X018720Y004537D01*
X018882Y004534D01*
X019043Y004515D01*
X019201Y004482D01*
X019201Y004482D01*
X019356Y004435D01*
X019356Y004435D01*
X019506Y004374D01*
X019506Y004374D01*
X019650Y004299D01*
X019787Y004212D01*
X019915Y004113D01*
X020030Y004005D01*
X020030Y006453D01*
X019530Y007508D02*
X011987Y007508D01*
X012952Y005764D02*
X013068Y005764D01*
X013068Y005606D02*
X012952Y005606D01*
X012952Y005447D02*
X013068Y005447D01*
X013068Y005289D02*
X012952Y005289D01*
X013384Y004813D02*
X013384Y004813D01*
X013384Y004654D02*
X013384Y004654D01*
X013384Y004496D02*
X013384Y004496D01*
X013384Y004337D02*
X013384Y004337D01*
X013384Y004179D02*
X013384Y004179D01*
X013648Y004179D02*
X017106Y004179D01*
X017264Y004337D02*
X013700Y004337D01*
X013700Y004496D02*
X017423Y004496D01*
X017581Y004654D02*
X013700Y004654D01*
X013048Y004020D02*
X016947Y004020D01*
X017915Y004337D02*
X017940Y004337D01*
X018073Y004496D02*
X018379Y004496D01*
X018398Y004501D02*
X018398Y004501D01*
X018241Y004460D02*
X018241Y004460D01*
X018232Y004654D02*
X020030Y004654D01*
X020030Y004496D02*
X019136Y004496D01*
X019043Y004515D02*
X019043Y004515D01*
X018882Y004534D02*
X018882Y004534D01*
X018720Y004537D02*
X018720Y004537D01*
X018558Y004526D02*
X018558Y004526D01*
X019577Y004337D02*
X020030Y004337D01*
X020030Y004179D02*
X019830Y004179D01*
X019787Y004212D02*
X019787Y004212D01*
X019915Y004113D02*
X019915Y004113D01*
X020014Y004020D02*
X020030Y004020D01*
X019650Y004299D02*
X019650Y004299D01*
X019730Y012423D02*
X019640Y012423D01*
X019640Y012582D02*
X019730Y012582D01*
X019730Y012740D02*
X019640Y012740D01*
X019640Y012899D02*
X019730Y012899D01*
X019730Y013057D02*
X019640Y013057D01*
X019640Y013216D02*
X019730Y013216D01*
X019730Y013374D02*
X019640Y013374D01*
X019640Y013533D02*
X019730Y013533D01*
X019730Y013691D02*
X019640Y013691D01*
X019640Y013850D02*
X019730Y013850D01*
X019730Y014008D02*
X019640Y014008D01*
X019640Y014167D02*
X019730Y014167D01*
X019730Y014326D02*
X019640Y014326D01*
X019640Y014484D02*
X019730Y014484D01*
X019730Y014643D02*
X019640Y014643D01*
X019640Y014801D02*
X019730Y014801D01*
X019730Y014960D02*
X019640Y014960D01*
X019640Y015118D02*
X019730Y015118D01*
X019730Y015277D02*
X019640Y015277D01*
X019640Y015435D02*
X019730Y015435D01*
X019730Y015594D02*
X019640Y015594D01*
X019640Y015752D02*
X019730Y015752D01*
X019730Y015911D02*
X019640Y015911D01*
X019640Y016069D02*
X019730Y016069D01*
X019730Y016228D02*
X019640Y016228D01*
X019640Y016387D02*
X019730Y016387D01*
X019730Y016545D02*
X019640Y016545D01*
X019640Y016704D02*
X019730Y016704D01*
X019730Y016862D02*
X019640Y016862D01*
X019640Y017021D02*
X019730Y017021D01*
X019730Y017179D02*
X019640Y017179D01*
X019640Y017338D02*
X019730Y017338D01*
X019730Y017496D02*
X019640Y017496D01*
X019640Y017655D02*
X019730Y017655D01*
X019730Y017813D02*
X019640Y017813D01*
X019640Y017972D02*
X019730Y017972D01*
X017730Y020033D02*
X017610Y020033D01*
X017730Y020192D02*
X017452Y020192D01*
X018098Y021143D02*
X014640Y021143D01*
X012980Y018923D02*
X012532Y018923D01*
X010138Y014801D02*
X009742Y014801D01*
X008340Y012740D02*
X011255Y012740D01*
X012029Y013216D02*
X005281Y013216D01*
X005290Y013057D02*
X007476Y013057D01*
X007318Y012899D02*
X005290Y012899D01*
X005221Y012740D02*
X007280Y012740D01*
X007280Y012861D02*
X007280Y012861D01*
X007280Y012582D02*
X005063Y012582D01*
X005074Y012423D02*
X007326Y012423D01*
X007378Y012315D02*
X007378Y012315D01*
X007328Y012264D02*
X005232Y012264D01*
X005290Y012106D02*
X007280Y012106D01*
X007280Y011947D02*
X005290Y011947D01*
X005270Y011789D02*
X007316Y011789D01*
X007338Y011630D02*
X005111Y011630D01*
X005025Y011472D02*
X007280Y011472D01*
X007280Y011572D02*
X007280Y011572D01*
X007280Y011313D02*
X005184Y011313D01*
X005290Y011155D02*
X007280Y011155D01*
X007349Y010996D02*
X005290Y010996D01*
X005290Y010838D02*
X007280Y010838D01*
X007280Y010679D02*
X005160Y010679D01*
X005123Y013374D02*
X012074Y013374D01*
X012407Y012899D02*
X012444Y012899D01*
X012444Y012740D02*
X012407Y012740D01*
X009759Y012582D02*
X008340Y012582D01*
X008294Y012423D02*
X009600Y012423D01*
X009442Y012264D02*
X008292Y012264D01*
X008340Y012106D02*
X009283Y012106D01*
X009125Y011947D02*
X008340Y011947D01*
X008304Y011789D02*
X008966Y011789D01*
X008830Y011630D02*
X008282Y011630D01*
X008242Y011670D02*
X008242Y011670D01*
X008340Y011472D02*
X008830Y011472D01*
X008830Y011313D02*
X008340Y011313D01*
X008340Y011155D02*
X008830Y011155D01*
X008830Y010996D02*
X008254Y010996D01*
X008143Y010838D02*
X008830Y010838D01*
X008830Y010679D02*
X008293Y010679D01*
X008340Y010520D02*
X008830Y010520D01*
X008830Y010362D02*
X008340Y010362D01*
X008340Y010203D02*
X008830Y010203D01*
X008830Y010045D02*
X008283Y010045D01*
X008340Y009886D02*
X008830Y009886D01*
X008830Y009728D02*
X008275Y009728D01*
X009847Y008142D02*
X010174Y008142D01*
X010033Y007984D02*
X009987Y007984D01*
X009987Y007825D02*
X010033Y007825D01*
X010033Y007667D02*
X009987Y007667D01*
X009725Y005764D02*
X010295Y005764D01*
X010137Y005606D02*
X009884Y005606D01*
X009987Y005447D02*
X010033Y005447D01*
X010033Y005289D02*
X009987Y005289D01*
X009987Y005130D02*
X010033Y005130D01*
X010033Y004971D02*
X009987Y004971D01*
X009987Y004813D02*
X010033Y004813D01*
X010033Y004654D02*
X009987Y004654D01*
X009969Y004496D02*
X010051Y004496D01*
X010210Y004337D02*
X009811Y004337D01*
X010811Y004337D02*
X011210Y004337D01*
X011051Y004496D02*
X010969Y004496D01*
X010987Y004654D02*
X011033Y004654D01*
X011033Y004813D02*
X010987Y004813D01*
X010987Y004971D02*
X011033Y004971D01*
X011033Y005130D02*
X010987Y005130D01*
X010987Y005289D02*
X011033Y005289D01*
X010741Y005764D02*
X010725Y005764D01*
X010059Y003028D02*
X009961Y003028D01*
X009987Y003002D01*
X009987Y002526D01*
X009529Y002526D01*
X009529Y002489D01*
X009987Y002489D01*
X009987Y002014D01*
X009761Y001788D01*
X009894Y001788D01*
X010077Y001970D01*
X010033Y002014D01*
X010033Y003002D01*
X010059Y003028D01*
X010033Y002910D02*
X009987Y002910D01*
X009987Y002752D02*
X010033Y002752D01*
X010033Y002593D02*
X009987Y002593D01*
X009987Y002435D02*
X010033Y002435D01*
X010033Y002276D02*
X009987Y002276D01*
X009987Y002118D02*
X010033Y002118D01*
X010066Y001959D02*
X009933Y001959D01*
X009907Y001801D02*
X009774Y001801D01*
X006730Y001801D02*
X006274Y001801D01*
X006433Y001959D02*
X006588Y001959D01*
X006533Y002118D02*
X006487Y002118D01*
X006487Y002276D02*
X006533Y002276D01*
X006533Y002435D02*
X006487Y002435D01*
X006487Y002593D02*
X006533Y002593D01*
X006533Y002752D02*
X006487Y002752D01*
X006487Y002910D02*
X006533Y002910D01*
X006600Y003069D02*
X006420Y003069D01*
X006262Y003227D02*
X006759Y003227D01*
X006029Y003227D02*
X005992Y003227D01*
X005992Y003069D02*
X006029Y003069D01*
X006029Y002910D02*
X005992Y002910D01*
X005992Y002752D02*
X006029Y002752D01*
X006029Y002593D02*
X005992Y002593D01*
X005600Y003069D02*
X004920Y003069D01*
X004987Y002910D02*
X005533Y002910D01*
X005533Y002752D02*
X004987Y002752D01*
X004987Y002593D02*
X005533Y002593D01*
X005533Y002435D02*
X004987Y002435D01*
X004987Y002276D02*
X005533Y002276D01*
X005533Y002118D02*
X004987Y002118D01*
X004933Y001959D02*
X005588Y001959D01*
X005746Y001801D02*
X004774Y001801D01*
X004246Y001801D02*
X004163Y001801D01*
X004088Y001959D02*
X004005Y001959D01*
X003987Y002118D02*
X004033Y002118D01*
X004033Y002276D02*
X003987Y002276D01*
X003987Y002435D02*
X004033Y002435D01*
X004033Y002593D02*
X003987Y002593D01*
X003987Y002752D02*
X004033Y002752D01*
X004033Y002910D02*
X003987Y002910D01*
X003920Y003069D02*
X004100Y003069D01*
X004259Y003227D02*
X003762Y003227D01*
X003811Y004337D02*
X004210Y004337D01*
X004313Y004234D02*
X004033Y004514D01*
X004033Y005502D01*
X004313Y005782D01*
X004708Y005782D01*
X004987Y005502D01*
X004987Y004514D01*
X004708Y004234D01*
X004313Y004234D01*
X004051Y004496D02*
X003969Y004496D01*
X003987Y004654D02*
X004033Y004654D01*
X004033Y004813D02*
X003987Y004813D01*
X003987Y004971D02*
X004033Y004971D01*
X004033Y005130D02*
X003987Y005130D01*
X003987Y005289D02*
X004033Y005289D01*
X004033Y005447D02*
X003987Y005447D01*
X003884Y005606D02*
X004137Y005606D01*
X004295Y005764D02*
X003725Y005764D01*
X004725Y005764D02*
X005795Y005764D01*
X005813Y005782D02*
X005992Y005782D01*
X005992Y005027D01*
X006029Y005027D01*
X006029Y005782D01*
X006208Y005782D01*
X006487Y005502D01*
X006487Y005026D01*
X006029Y005026D01*
X006029Y004989D01*
X005992Y004989D01*
X005992Y004234D01*
X005813Y004234D01*
X005533Y004514D01*
X005533Y004989D01*
X005992Y004989D01*
X005992Y005026D01*
X005533Y005026D01*
X005533Y005502D01*
X005813Y005782D01*
X005992Y005764D02*
X006029Y005764D01*
X006029Y005606D02*
X005992Y005606D01*
X005992Y005447D02*
X006029Y005447D01*
X006029Y005289D02*
X005992Y005289D01*
X005992Y005130D02*
X006029Y005130D01*
X006029Y004989D02*
X006487Y004989D01*
X006487Y004514D01*
X006208Y004234D01*
X006029Y004234D01*
X006029Y004989D01*
X006029Y004971D02*
X005992Y004971D01*
X005992Y004813D02*
X006029Y004813D01*
X006029Y004654D02*
X005992Y004654D01*
X005992Y004496D02*
X006029Y004496D01*
X006029Y004337D02*
X005992Y004337D01*
X006311Y004337D02*
X006710Y004337D01*
X006551Y004496D02*
X006469Y004496D01*
X006487Y004654D02*
X006533Y004654D01*
X006533Y004813D02*
X006487Y004813D01*
X006487Y004971D02*
X006533Y004971D01*
X006533Y005130D02*
X006487Y005130D01*
X006487Y005289D02*
X006533Y005289D01*
X006533Y005447D02*
X006487Y005447D01*
X006384Y005606D02*
X006637Y005606D01*
X006795Y005764D02*
X006225Y005764D01*
X005637Y005606D02*
X004884Y005606D01*
X004987Y005447D02*
X005533Y005447D01*
X005533Y005289D02*
X004987Y005289D01*
X004987Y005130D02*
X005533Y005130D01*
X005533Y004971D02*
X004987Y004971D01*
X004987Y004813D02*
X005533Y004813D01*
X005533Y004654D02*
X004987Y004654D01*
X004969Y004496D02*
X005551Y004496D01*
X005710Y004337D02*
X004811Y004337D01*
X004762Y003227D02*
X005759Y003227D01*
X017722Y022728D02*
X018052Y022728D01*
X018536Y021301D02*
X018691Y021301D01*
X018850Y021143D02*
X018322Y021143D01*
X017545Y028957D02*
X017545Y028957D01*
X017545Y028957D01*
X017097Y030892D02*
X017097Y030892D01*
X013304Y028277D02*
X012740Y028277D01*
X012740Y028119D02*
X013146Y028119D01*
X012987Y027960D02*
X012740Y027960D01*
X012330Y027326D02*
X010354Y027326D01*
X010340Y027168D02*
X012330Y027168D01*
X012330Y027009D02*
X010340Y027009D01*
X010340Y026850D02*
X012330Y026850D01*
X012330Y026692D02*
X010340Y026692D01*
X010340Y026533D02*
X012330Y026533D01*
X012330Y026375D02*
X010340Y026375D01*
X010340Y026216D02*
X012330Y026216D01*
X012435Y026058D02*
X010340Y026058D01*
D21*
X007510Y024508D02*
X007510Y022008D01*
X007510Y019508D01*
X006510Y019508D02*
X006510Y022008D01*
X006510Y024508D01*
X003010Y024508D02*
X003010Y022008D01*
X002060Y017508D02*
X002510Y017058D01*
X002510Y017008D01*
X002060Y017508D02*
X002010Y017508D01*
X002010Y031008D01*
X002510Y031508D01*
X005510Y031508D01*
X006010Y031008D01*
X006010Y030008D01*
X007010Y002508D02*
X007010Y001508D01*
X010010Y001508D01*
X010510Y002008D01*
X010510Y002508D01*
X007010Y001508D02*
X004060Y001508D01*
X003510Y002058D01*
X003510Y002508D01*
D22*
X007560Y013258D03*
X009610Y015158D03*
X009610Y015658D03*
X009610Y016158D03*
X010160Y016158D03*
X010310Y015658D03*
X010510Y014708D03*
X010060Y013658D03*
X011560Y012508D03*
X012510Y012558D03*
X013060Y012558D03*
X012060Y013708D03*
X011810Y016258D03*
X011660Y016858D03*
X010960Y016858D03*
X010460Y016858D03*
X010010Y017108D03*
X009510Y017308D03*
X008510Y017708D03*
X006960Y018258D03*
X006110Y017058D03*
X010360Y021508D03*
X011460Y022008D03*
X012260Y021308D03*
X013210Y021008D03*
X014260Y021158D03*
X014210Y019508D03*
X015160Y019008D03*
X015510Y018608D03*
X015860Y017858D03*
X016560Y018258D03*
X016360Y018808D03*
X016310Y019508D03*
X017060Y019408D03*
X018310Y020008D03*
X018210Y020508D03*
X018210Y021508D03*
X018310Y022008D03*
X018310Y023008D03*
X017560Y024608D03*
X018510Y025408D03*
X016560Y025308D03*
X016260Y023558D03*
X016260Y022558D03*
X014610Y026758D03*
X012910Y026408D03*
X011610Y028158D03*
X011260Y026208D03*
X009710Y025108D03*
X009160Y025108D03*
X008110Y027058D03*
X007410Y028708D03*
X007410Y029208D03*
X008210Y029008D03*
X009860Y029058D03*
X011660Y030608D03*
X016110Y028858D03*
X011860Y023208D03*
X011810Y019058D03*
X012310Y018608D03*
X012360Y016958D03*
X012610Y016358D03*
X012960Y016958D03*
X013510Y017458D03*
X014160Y016908D03*
X014510Y016508D03*
X013810Y016258D03*
X015010Y017758D03*
X015610Y013858D03*
X014310Y013158D03*
X014310Y012658D03*
X015410Y011758D03*
X016610Y009658D03*
X017910Y008558D03*
X017760Y011408D03*
X017410Y011808D03*
X017010Y012158D03*
X018210Y014008D03*
X018310Y014508D03*
X018210Y015008D03*
X018310Y015508D03*
X018210Y016008D03*
X018310Y016508D03*
X018210Y017008D03*
X018860Y017608D03*
X018760Y018558D03*
X012210Y010258D03*
X014310Y008058D03*
X013410Y006058D03*
X012660Y006058D03*
X012610Y005008D03*
X013310Y003958D03*
X012260Y002908D03*
X016360Y003758D03*
X019760Y004608D03*
X005810Y027008D03*
X006310Y028208D03*
X004560Y026358D03*
D23*
X006860Y028758D02*
X006860Y031408D01*
X013160Y031408D01*
X014360Y030208D01*
X014510Y030008D01*
X014760Y029908D01*
X015060Y029908D01*
X016110Y028858D01*
X014510Y029008D02*
X014260Y028908D01*
X012960Y027608D01*
X012560Y027608D01*
X012560Y026258D01*
X012760Y026058D01*
X017910Y026058D01*
X017910Y024258D01*
X016860Y023208D01*
X016676Y023008D01*
X016510Y022808D01*
X016260Y022558D01*
X016260Y023558D02*
X011060Y023558D01*
X010910Y023408D01*
X010910Y018408D01*
X012010Y017258D01*
X012010Y016658D01*
X012310Y016358D01*
X012610Y016358D01*
X012360Y016958D02*
X012360Y017208D01*
X011110Y018508D01*
X011110Y023058D01*
X011760Y023058D01*
X011860Y023208D01*
X013560Y021508D01*
X018210Y021508D01*
X018310Y022008D02*
X019410Y020908D01*
X019410Y012158D01*
X019760Y012158D01*
X019760Y006808D01*
X018660Y005708D01*
X013510Y005708D01*
X013384Y005520D01*
X013310Y005158D02*
X013160Y005158D01*
X012960Y005358D01*
X012960Y005958D01*
X013310Y005958D01*
X013410Y006058D01*
X013560Y006158D01*
X014260Y006858D01*
X018460Y006858D01*
X019010Y007008D01*
X019010Y008008D02*
X014360Y008008D01*
X014310Y008058D01*
X014460Y008408D02*
X012210Y008408D01*
X011760Y007958D01*
X011510Y007508D01*
X010760Y007958D02*
X010510Y007508D01*
X010760Y007958D02*
X012310Y009508D01*
X014260Y009508D01*
X014360Y009608D01*
X014360Y011408D01*
X017760Y011408D01*
X017910Y011308D01*
X017910Y008558D01*
X018260Y008208D02*
X014660Y008208D01*
X014460Y008408D01*
X014010Y009923D02*
X013860Y010108D01*
X013810Y010158D01*
X013460Y010158D01*
X013210Y010258D01*
X013860Y010808D02*
X013485Y011183D01*
X010560Y008258D01*
X010060Y008258D01*
X009760Y007958D01*
X009510Y007508D01*
X010260Y005958D02*
X009760Y005458D01*
X009510Y005008D01*
X010260Y005958D02*
X012660Y005958D01*
X012660Y006058D01*
X012660Y005958D02*
X012960Y005958D01*
X012510Y005708D02*
X012636Y005520D01*
X012510Y005708D02*
X012460Y005758D01*
X011060Y005758D01*
X010760Y005458D01*
X010510Y005008D01*
X010710Y003258D02*
X011060Y002908D01*
X011060Y001758D01*
X015010Y001758D01*
X019960Y006708D01*
X019960Y026158D01*
X019010Y026158D01*
X018760Y026258D01*
X018310Y026408D02*
X018610Y026708D01*
X019510Y026708D01*
X019760Y026758D01*
X018760Y027258D02*
X018510Y027158D01*
X018110Y026758D01*
X014610Y026758D01*
X012910Y026408D02*
X018310Y026408D01*
X017560Y024608D02*
X011610Y024608D01*
X010710Y023708D01*
X010710Y018258D01*
X011660Y017308D01*
X011660Y016858D01*
X011310Y016508D02*
X011560Y016258D01*
X011810Y016258D01*
X011310Y016508D02*
X011310Y017058D01*
X011160Y017208D01*
X011060Y017208D01*
X009760Y018508D01*
X009760Y020458D01*
X009560Y020658D01*
X009560Y024458D01*
X010110Y025008D01*
X010110Y027408D01*
X010310Y027608D01*
X012260Y027608D01*
X012510Y027858D01*
X012510Y029008D01*
X012510Y030008D02*
X012845Y030343D01*
X012845Y031008D01*
X012176Y031008D02*
X012160Y031008D01*
X012010Y030858D01*
X012010Y028008D01*
X011810Y027808D01*
X010210Y027808D01*
X009910Y027508D01*
X009910Y025808D01*
X009560Y025458D01*
X008510Y025458D01*
X008010Y024958D01*
X008010Y020108D01*
X008510Y019608D01*
X008510Y019508D01*
X008510Y017708D01*
X008960Y017858D02*
X009510Y017308D01*
X010010Y017308D02*
X009160Y018158D01*
X009160Y020108D01*
X008960Y020308D01*
X008960Y022508D01*
X008510Y022958D01*
X008510Y024508D01*
X009160Y025108D02*
X009160Y020458D01*
X009360Y020258D01*
X009360Y018308D01*
X010460Y017158D01*
X010460Y016858D01*
X010310Y016508D02*
X010910Y015908D01*
X017610Y015908D01*
X018210Y016508D01*
X018310Y016508D01*
X018210Y016008D02*
X017910Y015708D01*
X010810Y015708D01*
X010360Y016158D01*
X010160Y016158D01*
X010310Y016508D02*
X009960Y016508D01*
X009610Y016158D01*
X009610Y015658D02*
X009960Y015308D01*
X017910Y015308D01*
X018210Y015008D01*
X018210Y014508D02*
X017610Y015108D01*
X009660Y015108D01*
X009610Y015158D01*
X010310Y015658D02*
X010460Y015508D01*
X018310Y015508D01*
X018310Y014508D02*
X018210Y014508D01*
X018210Y014008D02*
X017310Y014908D01*
X010710Y014908D01*
X010510Y014708D01*
X011460Y013958D02*
X009210Y013958D01*
X006110Y017058D01*
X005310Y018358D02*
X003210Y018358D01*
X002560Y019008D01*
X002560Y021258D01*
X003260Y021258D01*
X003560Y021558D01*
X003760Y021558D01*
X004010Y022008D01*
X004010Y019508D02*
X004260Y019058D01*
X004560Y018758D01*
X006960Y018758D01*
X007260Y019058D01*
X007510Y019508D01*
X008510Y020458D02*
X008960Y020008D01*
X008960Y017858D01*
X009560Y018408D02*
X009560Y020358D01*
X009360Y020558D01*
X009360Y024758D01*
X009710Y025108D01*
X007760Y025058D02*
X007760Y028358D01*
X007260Y028358D01*
X006860Y028758D01*
X007060Y028858D02*
X007260Y028858D01*
X007410Y028708D01*
X007760Y028358D02*
X007760Y029208D01*
X007410Y029208D01*
X007760Y029208D02*
X007760Y029408D01*
X007926Y029558D01*
X007610Y029908D02*
X007060Y029358D01*
X007060Y028858D01*
X007610Y029908D02*
X009660Y029908D01*
X009660Y029708D01*
X009845Y029558D01*
X010060Y029708D01*
X010260Y029908D01*
X010510Y030008D01*
X011060Y029708D02*
X011060Y030608D01*
X011660Y030608D01*
X011060Y029708D02*
X010610Y029258D01*
X010510Y029008D01*
X009860Y029058D02*
X009660Y029058D01*
X009176Y029543D01*
X009176Y029558D01*
X008595Y029558D02*
X008595Y029393D01*
X008210Y029008D01*
X007760Y025058D02*
X007660Y025058D01*
X007510Y024508D01*
X008510Y022008D02*
X008510Y020458D01*
X009560Y018408D02*
X010960Y017008D01*
X010960Y016858D01*
X010010Y017108D02*
X010010Y017308D01*
X011460Y018458D02*
X011460Y022008D01*
X013210Y021008D02*
X013210Y019008D01*
X015160Y019008D01*
X015510Y018608D02*
X012310Y018608D01*
X011810Y019058D02*
X011660Y018908D01*
X011660Y018558D01*
X012860Y017358D01*
X013060Y017358D01*
X013610Y016808D01*
X013760Y016808D01*
X014010Y016558D01*
X014460Y016558D01*
X014510Y016508D01*
X015860Y017858D01*
X016560Y018258D02*
X014310Y018258D01*
X013510Y017458D01*
X012960Y016958D02*
X011460Y018458D01*
X013810Y016258D02*
X013910Y016158D01*
X015460Y016158D01*
X018010Y018708D01*
X018010Y019808D01*
X017960Y019858D01*
X017960Y020508D01*
X018210Y020508D01*
X018310Y020008D02*
X018310Y017958D01*
X019010Y017958D01*
X019210Y017758D01*
X019210Y012508D01*
X016210Y012508D01*
X015560Y011858D01*
X015410Y011758D01*
X014860Y012308D01*
X014160Y012308D01*
X013960Y012508D01*
X013960Y013858D01*
X015610Y013858D01*
X014960Y013308D02*
X018310Y013308D01*
X018860Y013858D01*
X018860Y017608D01*
X018660Y017008D02*
X018210Y017008D01*
X018660Y017008D02*
X018660Y013958D01*
X018210Y013508D01*
X014660Y013508D01*
X014310Y013158D01*
X014310Y012658D02*
X014960Y013308D01*
X014360Y012108D02*
X013560Y012108D01*
X013210Y012458D01*
X013060Y012558D01*
X013060Y012973D01*
X013095Y013058D01*
X012910Y013208D01*
X012910Y014158D01*
X009510Y014158D01*
X005310Y018358D01*
X009860Y012358D02*
X009060Y011558D01*
X009060Y003258D01*
X010710Y003258D01*
X012260Y002908D02*
X012260Y004008D01*
X012360Y004108D01*
X012810Y004108D01*
X013010Y004308D01*
X013010Y004500D01*
X013310Y004658D02*
X013384Y004500D01*
X013310Y004308D01*
X013310Y003958D01*
X016160Y003958D01*
X016360Y003758D01*
X018260Y008208D02*
X018260Y011408D01*
X017910Y011758D01*
X017460Y011758D01*
X017410Y011808D01*
X017010Y012158D02*
X019410Y012158D01*
X017810Y018808D02*
X016360Y018808D01*
X016310Y019508D02*
X016960Y019508D01*
X017060Y019408D01*
X016310Y019508D02*
X014210Y019508D01*
X014860Y020558D02*
X016760Y020558D01*
X017810Y019508D01*
X017810Y018808D01*
X017345Y023008D02*
X018310Y023008D01*
X015010Y017758D02*
X014160Y016908D01*
X014860Y020558D02*
X014260Y021158D01*
X011610Y028158D02*
X011610Y028758D01*
X011510Y029008D01*
X011460Y013958D02*
X012210Y013208D01*
X012426Y013058D01*
X012410Y013058D01*
X012410Y012658D01*
X012510Y012558D01*
X012360Y012458D01*
X012310Y012458D01*
X010660Y010808D01*
X010510Y010593D01*
X010710Y010158D02*
X011060Y010158D01*
X011310Y010258D01*
X010710Y010158D02*
X010660Y010108D01*
X010510Y009923D01*
X009860Y012358D02*
X011410Y012358D01*
X011560Y012508D01*
X012510Y012558D02*
X012610Y012408D01*
X012610Y012058D01*
X013485Y011183D01*
X013860Y010808D02*
X014010Y010593D01*
X014360Y011408D02*
X014360Y012108D01*
X013310Y005158D02*
X013310Y004658D01*
X012636Y004500D02*
X012610Y004658D01*
X012610Y005008D01*
M02*
