G75*
G70*
%OFA0B0*%
%FSLAX24Y24*%
%IPPOS*%
%LPD*%
%AMOC8*
5,1,8,0,0,1.08239X$1,22.5*
%
%ADD10R,0.0512X0.0472*%
%ADD11R,0.0472X0.0512*%
%ADD12C,0.0624*%
%ADD13C,0.1559*%
%ADD14OC8,0.0672*%
%ADD15O,0.0712X0.1306*%
%ADD16OC8,0.0720*%
%ADD17O,0.1320X0.0720*%
%ADD18O,0.1306X0.0712*%
%ADD19R,0.0326X0.0444*%
%ADD20C,0.0480*%
D10*
X012426Y013058D03*
X013095Y013058D03*
X009845Y029558D03*
X009176Y029558D03*
X008595Y029558D03*
X007926Y029558D03*
D11*
X012176Y031008D03*
X012845Y031008D03*
X016676Y023008D03*
X017345Y023008D03*
X014010Y010593D03*
X014010Y009923D03*
X010510Y009923D03*
X010510Y010593D03*
D12*
X011310Y010258D03*
X013210Y010258D03*
X018760Y026258D03*
X018760Y027258D03*
X019760Y027758D03*
X019760Y026758D03*
D13*
X018760Y030258D03*
X018760Y002758D03*
D14*
X014510Y029008D03*
X014510Y030008D03*
X013510Y030008D03*
X013510Y029008D03*
X012510Y029008D03*
X012510Y030008D03*
X011510Y030008D03*
X011510Y029008D03*
X010510Y029008D03*
X010510Y030008D03*
D15*
X002510Y002508D03*
X003510Y002508D03*
X004510Y002508D03*
X006010Y002508D03*
X007010Y002508D03*
X008010Y002508D03*
X009510Y002508D03*
X010510Y002508D03*
X011510Y002508D03*
X011510Y005008D03*
X010510Y005008D03*
X009510Y005008D03*
X008010Y005008D03*
X007010Y005008D03*
X006010Y005008D03*
X004510Y005008D03*
X003510Y005008D03*
X002510Y005008D03*
X002510Y007508D03*
X003510Y007508D03*
X004510Y007508D03*
X006010Y007508D03*
X007010Y007508D03*
X008010Y007508D03*
X009510Y007508D03*
X010510Y007508D03*
X011510Y007508D03*
X008510Y019508D03*
X007510Y019508D03*
X006510Y019508D03*
X005010Y019508D03*
X004010Y019508D03*
X003010Y019508D03*
X003010Y022008D03*
X004010Y022008D03*
X005010Y022008D03*
X006510Y022008D03*
X007510Y022008D03*
X008510Y022008D03*
X008510Y024508D03*
X007510Y024508D03*
X006510Y024508D03*
X005010Y024508D03*
X004010Y024508D03*
X003010Y024508D03*
X002510Y030008D03*
X003510Y030008D03*
X005010Y030008D03*
X006010Y030008D03*
D16*
X003510Y017008D03*
X003510Y016008D03*
X003510Y015008D03*
X003510Y014008D03*
X003510Y013008D03*
X003510Y012008D03*
X003510Y011008D03*
X003510Y010008D03*
X002510Y010008D03*
X002510Y011008D03*
X002510Y012008D03*
X002510Y013008D03*
X002510Y014008D03*
X002510Y015008D03*
X002510Y016008D03*
X002510Y017008D03*
D17*
X004510Y017008D03*
X004510Y016008D03*
X004510Y015008D03*
X004510Y014008D03*
X004510Y013008D03*
X004510Y012008D03*
X004510Y011008D03*
X004510Y010008D03*
D18*
X019010Y010008D03*
X019010Y011008D03*
X019010Y009008D03*
X019010Y008008D03*
X019010Y007008D03*
D19*
X013384Y005520D03*
X013384Y004500D03*
X013010Y004500D03*
X012636Y004500D03*
X012636Y005520D03*
D20*
X012610Y005008D03*
X012660Y006058D03*
X013410Y006058D03*
X014310Y008058D03*
X012210Y010258D03*
X012510Y012558D03*
X013060Y012558D03*
X012060Y013708D03*
X011560Y012508D03*
X010510Y014708D03*
X010310Y015658D03*
X010160Y016158D03*
X009610Y016158D03*
X009610Y015658D03*
X009610Y015158D03*
X010460Y016858D03*
X010960Y016858D03*
X011660Y016858D03*
X011810Y016258D03*
X012360Y016958D03*
X012610Y016358D03*
X012960Y016958D03*
X013510Y017458D03*
X014160Y016908D03*
X014510Y016508D03*
X013810Y016258D03*
X015010Y017758D03*
X015510Y018608D03*
X015160Y019008D03*
X014210Y019508D03*
X014260Y021158D03*
X013210Y021008D03*
X012260Y021308D03*
X011460Y022008D03*
X011860Y023208D03*
X010360Y021508D03*
X011810Y019058D03*
X012310Y018608D03*
X010010Y017108D03*
X009510Y017308D03*
X008510Y017708D03*
X006960Y018258D03*
X006110Y017058D03*
X007560Y013258D03*
X010060Y013658D03*
X014310Y013158D03*
X014310Y012658D03*
X015410Y011758D03*
X015610Y013858D03*
X017010Y012158D03*
X017410Y011808D03*
X017760Y011408D03*
X016610Y009658D03*
X017910Y008558D03*
X019760Y004608D03*
X016360Y003758D03*
X013310Y003958D03*
X012260Y002908D03*
X018210Y014008D03*
X018310Y014508D03*
X018210Y015008D03*
X018310Y015508D03*
X018210Y016008D03*
X018310Y016508D03*
X018210Y017008D03*
X018860Y017608D03*
X018760Y018558D03*
X018310Y020008D03*
X018210Y020508D03*
X018210Y021508D03*
X018310Y022008D03*
X018310Y023008D03*
X017560Y024608D03*
X018510Y025408D03*
X016560Y025308D03*
X016260Y023558D03*
X016260Y022558D03*
X016310Y019508D03*
X016360Y018808D03*
X016560Y018258D03*
X015860Y017858D03*
X017060Y019408D03*
X012910Y026408D03*
X011610Y028158D03*
X011260Y026208D03*
X009710Y025108D03*
X009160Y025108D03*
X008110Y027058D03*
X007410Y028708D03*
X007410Y029208D03*
X008210Y029008D03*
X009860Y029058D03*
X011660Y030608D03*
X014610Y026758D03*
X016110Y028858D03*
X006310Y028208D03*
X005810Y027008D03*
X004560Y026358D03*
M02*
