G75*
G70*
%OFA0B0*%
%FSLAX24Y24*%
%IPPOS*%
%LPD*%
%AMOC8*
5,1,8,0,0,1.08239X$1,22.5*
%
%ADD10C,0.0110*%
%ADD11C,0.2300*%
%ADD12R,0.0433X0.0394*%
%ADD13O,0.0594X0.1187*%
%ADD14O,0.1187X0.0594*%
%ADD15OC8,0.0560*%
%ADD16C,0.0520*%
%ADD17O,0.0750X0.1500*%
%ADD18R,0.0394X0.0433*%
%ADD19R,0.1063X0.0630*%
%ADD20C,0.0400*%
%ADD21C,0.0900*%
%ADD22C,0.0400*%
%ADD23C,0.0100*%
%ADD24C,0.0200*%
%ADD25C,0.1900*%
D10*
X003995Y014378D02*
X004290Y014378D01*
X004290Y014969D01*
X003995Y014969D01*
X003897Y014870D01*
X003897Y014772D01*
X003995Y014673D01*
X004290Y014673D01*
X004541Y014673D02*
X004640Y014575D01*
X004935Y014575D01*
X004935Y014378D02*
X004935Y014969D01*
X004640Y014969D01*
X004541Y014870D01*
X004541Y014673D01*
X005186Y014673D02*
X005579Y014673D01*
X005579Y014772D02*
X005383Y014969D01*
X005186Y014772D01*
X005186Y014378D01*
X005579Y014378D02*
X005579Y014772D01*
X003995Y014673D02*
X003897Y014575D01*
X003897Y014476D01*
X003995Y014378D01*
D11*
X004884Y003423D03*
X032384Y003423D03*
X032384Y018923D03*
D12*
X028969Y017923D03*
X028300Y017923D03*
X027469Y017923D03*
X026800Y017923D03*
X025969Y017923D03*
X025300Y017923D03*
X023469Y017923D03*
X022800Y017923D03*
X021969Y017923D03*
X021300Y017923D03*
X020469Y017923D03*
X019800Y017923D03*
X011219Y016673D03*
X010550Y016673D03*
X011050Y009173D03*
X011719Y009173D03*
X011719Y004673D03*
X011050Y004673D03*
X009719Y002673D03*
X009050Y002673D03*
D13*
X019384Y019173D03*
X020384Y019173D03*
X021384Y019173D03*
X022384Y019173D03*
X023384Y019173D03*
X024884Y019173D03*
X025884Y019173D03*
X026884Y019173D03*
X027884Y019173D03*
X028884Y019173D03*
D14*
X005134Y018673D03*
X005134Y019673D03*
D15*
X005134Y011673D03*
X006134Y011673D03*
X006134Y010673D03*
X005134Y010673D03*
X005134Y009673D03*
X006134Y009673D03*
X006134Y008673D03*
X005134Y008673D03*
X005134Y007673D03*
X006134Y007673D03*
D16*
X007884Y003423D03*
X008884Y003423D03*
X008384Y002423D03*
X007384Y002423D03*
X013134Y002423D03*
X014134Y002423D03*
X015134Y002423D03*
X016134Y002423D03*
X017134Y002423D03*
X016634Y003423D03*
X015634Y003423D03*
X014634Y003423D03*
X013634Y003423D03*
X017634Y003423D03*
D17*
X019884Y003673D03*
X021384Y003673D03*
X023884Y003673D03*
X025384Y003673D03*
X027884Y003673D03*
X029384Y003673D03*
D18*
X033134Y005838D03*
X033134Y006508D03*
X013384Y006338D03*
X013384Y007008D03*
X008884Y007258D03*
X008884Y006588D03*
X007134Y003758D03*
X007134Y003088D03*
X008884Y013588D03*
X008884Y014258D03*
X011884Y015838D03*
X011884Y016508D03*
X012384Y014508D03*
X012384Y013838D03*
D19*
X017634Y011724D03*
X017634Y010622D03*
X020634Y010622D03*
X020634Y011724D03*
X027634Y011724D03*
X027634Y010622D03*
X030634Y010622D03*
X030634Y011724D03*
D20*
X030384Y012673D03*
X029884Y012673D03*
X029384Y012673D03*
X028884Y012673D03*
X028384Y012673D03*
X027884Y012673D03*
X027884Y013173D03*
X028384Y013173D03*
X028884Y013173D03*
X029384Y013173D03*
X029884Y013173D03*
X030384Y013173D03*
X030384Y013673D03*
X032384Y012723D03*
X032384Y011673D03*
X032884Y011673D03*
X031134Y009673D03*
X031134Y009173D03*
X030384Y009173D03*
X030384Y009673D03*
X029884Y009423D03*
X029384Y009423D03*
X028884Y009423D03*
X028384Y009423D03*
X027884Y009173D03*
X027884Y009673D03*
X028384Y009923D03*
X028884Y009923D03*
X029384Y009923D03*
X029884Y009923D03*
X029634Y010423D03*
X029134Y010423D03*
X028634Y010423D03*
X028634Y010923D03*
X029134Y010923D03*
X029634Y010923D03*
X027134Y009673D03*
X027134Y009173D03*
X025884Y011673D03*
X025884Y012173D03*
X024384Y012173D03*
X023884Y012173D03*
X023884Y011673D03*
X024384Y011673D03*
X022384Y011673D03*
X022384Y012723D03*
X023884Y013773D03*
X024384Y013773D03*
X024384Y015173D03*
X023884Y015173D03*
X022984Y015373D03*
X022584Y015673D03*
X022484Y015173D03*
X023384Y016273D03*
X023884Y016473D03*
X024384Y016673D03*
X024884Y016873D03*
X025384Y016073D03*
X025784Y016473D03*
X027884Y016873D03*
X026484Y014123D03*
X027884Y013673D03*
X032334Y015523D03*
X033034Y015523D03*
X033134Y007373D03*
X029384Y004923D03*
X027884Y004923D03*
X025384Y004923D03*
X023384Y004923D03*
X021384Y004923D03*
X019884Y004923D03*
X015384Y007223D03*
X014184Y007823D03*
X012684Y007023D03*
X012684Y006523D03*
X011984Y006523D03*
X011984Y007023D03*
X010434Y006823D03*
X010384Y007323D03*
X009484Y007323D03*
X009484Y006823D03*
X009484Y008123D03*
X008934Y008923D03*
X007484Y008173D03*
X006484Y007073D03*
X005034Y007073D03*
X004034Y005773D03*
X004234Y005273D03*
X009484Y005273D03*
X011034Y005273D03*
X011534Y005273D03*
X010484Y002823D03*
X010434Y002273D03*
X011134Y008573D03*
X011634Y008573D03*
X011684Y011273D03*
X011234Y011523D03*
X011384Y012773D03*
X011784Y013973D03*
X011234Y014173D03*
X011784Y014573D03*
X011634Y015323D03*
X011084Y016073D03*
X010584Y016073D03*
X008884Y014823D03*
X009484Y014273D03*
X009484Y013523D03*
X007234Y013473D03*
X007084Y010973D03*
X013384Y011423D03*
X015384Y011673D03*
X015884Y011673D03*
X015884Y012173D03*
X015384Y012173D03*
X014984Y012673D03*
X014984Y013273D03*
X014984Y013773D03*
X015884Y013673D03*
X017884Y013673D03*
X017884Y013173D03*
X018384Y013173D03*
X018384Y012673D03*
X017884Y012673D03*
X018884Y012673D03*
X019384Y012673D03*
X019384Y013173D03*
X018884Y013173D03*
X019884Y013173D03*
X020384Y013173D03*
X020384Y012673D03*
X019884Y012673D03*
X020384Y013673D03*
X019634Y010923D03*
X019134Y010923D03*
X018634Y010923D03*
X018634Y010423D03*
X019134Y010423D03*
X019634Y010423D03*
X019384Y009923D03*
X018884Y009923D03*
X018384Y009923D03*
X017884Y009673D03*
X018384Y009423D03*
X017884Y009173D03*
X017134Y009173D03*
X017134Y009673D03*
X018884Y009423D03*
X019384Y009423D03*
X019884Y009423D03*
X020384Y009173D03*
X020384Y009673D03*
X019884Y009923D03*
X021134Y009673D03*
X021134Y009173D03*
X013884Y013273D03*
X013884Y013773D03*
X016134Y017473D03*
X015234Y017973D03*
X013334Y018173D03*
X012884Y018423D03*
X009634Y019673D03*
D21*
X015634Y011923D02*
X017634Y011923D01*
X020634Y011923D01*
X022384Y011923D01*
X024134Y011923D01*
X025884Y011923D01*
X027634Y011923D01*
X030634Y011923D01*
X032634Y011923D01*
X029384Y004923D02*
X029384Y003673D01*
X027884Y003673D02*
X027884Y004923D01*
X025384Y004923D02*
X025384Y003673D01*
X023884Y004923D02*
X023384Y004923D01*
X021384Y004923D02*
X021384Y003673D01*
X019884Y003673D02*
X019884Y004923D01*
D22*
X019884Y009423D02*
X019884Y009923D01*
X020384Y009673D02*
X020634Y009923D01*
X020634Y010622D01*
X020634Y011724D02*
X020634Y011923D01*
X020384Y012673D02*
X022334Y012673D01*
X022384Y012723D01*
X022384Y011923D02*
X022384Y011673D01*
X023884Y011673D02*
X024134Y011923D01*
X024384Y012173D01*
X024134Y011923D02*
X023884Y012173D01*
X024134Y011923D02*
X024384Y011673D01*
X025884Y011673D02*
X025884Y011923D01*
X025884Y012173D01*
X027634Y011923D02*
X027634Y011724D01*
X027634Y010622D02*
X027634Y009923D01*
X027884Y009673D01*
X027134Y009673D01*
X030384Y009673D02*
X030634Y009923D01*
X030634Y010622D01*
X030634Y010673D01*
X030634Y011724D02*
X030634Y011923D01*
X030384Y012673D02*
X032334Y012673D01*
X032384Y012723D01*
X032634Y011923D02*
X032384Y011673D01*
X032884Y011673D01*
X030384Y013673D02*
X030384Y016923D01*
X032384Y018923D01*
X027784Y013773D02*
X027884Y013673D01*
X027784Y013773D02*
X024384Y013773D01*
X024384Y015173D01*
X023884Y015173D01*
X023884Y013773D01*
X024384Y013773D01*
X023884Y013773D02*
X020484Y013773D01*
X020384Y013673D01*
X017634Y011923D02*
X017634Y011724D01*
X017634Y010673D02*
X017634Y010622D01*
X017634Y009923D01*
X017884Y009673D01*
X015884Y011673D02*
X015634Y011923D01*
X015884Y012173D01*
X015634Y011923D02*
X015384Y011673D01*
X015634Y011923D02*
X015384Y012173D01*
X030384Y009173D02*
X030384Y005423D01*
X032384Y003423D01*
X031134Y009173D02*
X030384Y009173D01*
D23*
X003584Y002123D02*
X003584Y020223D01*
X033684Y020223D01*
X033684Y011806D01*
X033617Y011873D01*
X033452Y011873D01*
X033234Y011873D01*
X033234Y012172D01*
X032883Y012523D01*
X030386Y012523D01*
X027386Y012523D01*
X025636Y012523D01*
X023886Y012523D01*
X022136Y012523D01*
X020386Y012523D01*
X017386Y012523D01*
X015386Y012523D01*
X015315Y012523D01*
X015240Y012523D01*
X015186Y012470D01*
X015088Y012371D01*
X015034Y012318D01*
X015034Y012243D01*
X015034Y012172D01*
X015034Y011675D01*
X015034Y011528D01*
X015088Y011475D01*
X015088Y011475D01*
X015186Y011376D01*
X015186Y011376D01*
X015240Y011323D01*
X015386Y011323D01*
X016977Y011323D01*
X017041Y011259D01*
X018228Y011259D01*
X018292Y011323D01*
X019977Y011323D01*
X020041Y011259D01*
X021228Y011259D01*
X021292Y011323D01*
X022136Y011323D01*
X022240Y011323D01*
X022315Y011323D01*
X022454Y011323D01*
X022529Y011323D01*
X023886Y011323D01*
X025636Y011323D01*
X026977Y011323D01*
X027041Y011259D01*
X028228Y011259D01*
X028292Y011323D01*
X029977Y011323D01*
X030041Y011259D01*
X031228Y011259D01*
X031292Y011323D01*
X032240Y011323D01*
X032529Y011323D01*
X032883Y011323D01*
X032954Y011323D01*
X033029Y011323D01*
X033083Y011376D01*
X033179Y011473D01*
X033452Y011473D01*
X033484Y011440D01*
X033484Y006456D01*
X033481Y006453D01*
X033481Y006786D01*
X033393Y006874D01*
X033334Y006874D01*
X033334Y007078D01*
X033431Y007175D01*
X033484Y007303D01*
X033484Y007443D01*
X033431Y007571D01*
X033333Y007670D01*
X033204Y007723D01*
X033065Y007723D01*
X032936Y007670D01*
X032838Y007571D01*
X032784Y007443D01*
X032784Y007303D01*
X032838Y007175D01*
X032934Y007078D01*
X032934Y006874D01*
X032875Y006874D01*
X032788Y006786D01*
X032788Y006229D01*
X032844Y006173D01*
X032788Y006117D01*
X032788Y005560D01*
X032875Y005472D01*
X033393Y005472D01*
X033481Y005560D01*
X033481Y005887D01*
X033684Y006090D01*
X033684Y002123D01*
X017414Y002123D01*
X017482Y002191D01*
X017544Y002341D01*
X017544Y002505D01*
X017482Y002655D01*
X017367Y002771D01*
X017216Y002833D01*
X017053Y002833D01*
X017021Y002820D01*
X016795Y003046D01*
X016867Y003075D01*
X016982Y003191D01*
X017044Y003341D01*
X017044Y003505D01*
X016982Y003655D01*
X016867Y003771D01*
X016716Y003833D01*
X016553Y003833D01*
X016402Y003771D01*
X016287Y003655D01*
X016224Y003505D01*
X016224Y003341D01*
X016287Y003191D01*
X016355Y003123D01*
X015914Y003123D01*
X015982Y003191D01*
X016044Y003341D01*
X016044Y003505D01*
X015982Y003655D01*
X015867Y003771D01*
X015716Y003833D01*
X015553Y003833D01*
X015402Y003771D01*
X015287Y003655D01*
X015224Y003505D01*
X015224Y003341D01*
X015287Y003191D01*
X015355Y003123D01*
X014914Y003123D01*
X014982Y003191D01*
X015044Y003341D01*
X015044Y003505D01*
X014982Y003655D01*
X014867Y003771D01*
X014716Y003833D01*
X014553Y003833D01*
X014402Y003771D01*
X014287Y003655D01*
X014224Y003505D01*
X014224Y003341D01*
X014287Y003191D01*
X014355Y003123D01*
X013914Y003123D01*
X013982Y003191D01*
X014044Y003341D01*
X014044Y003505D01*
X013982Y003655D01*
X013867Y003771D01*
X013716Y003833D01*
X013553Y003833D01*
X013402Y003771D01*
X013287Y003655D01*
X013224Y003505D01*
X013224Y003341D01*
X013287Y003191D01*
X013355Y003123D01*
X013267Y003123D01*
X013067Y003323D01*
X012902Y003323D01*
X011250Y003323D01*
X011250Y003471D01*
X011250Y004326D01*
X011329Y004326D01*
X011384Y004382D01*
X011440Y004326D01*
X011671Y004326D01*
X011671Y004624D01*
X011768Y004624D01*
X011768Y004625D02*
X011768Y004721D01*
X012086Y004721D01*
X012086Y004932D01*
X011998Y005020D01*
X011768Y005020D01*
X011768Y004722D01*
X011671Y004722D01*
X011671Y005020D01*
X011440Y005020D01*
X011384Y004964D01*
X011329Y005020D01*
X011276Y005020D01*
X011331Y005075D01*
X011384Y005203D01*
X011384Y005343D01*
X011331Y005471D01*
X011233Y005570D01*
X011104Y005623D01*
X010965Y005623D01*
X010836Y005570D01*
X010738Y005471D01*
X010684Y005343D01*
X010684Y005203D01*
X010738Y005075D01*
X010793Y005020D01*
X010771Y005020D01*
X010683Y004932D01*
X010683Y004414D01*
X010771Y004326D01*
X010850Y004326D01*
X010850Y003471D01*
X010702Y003323D01*
X010552Y003173D01*
X010415Y003173D01*
X010286Y003120D01*
X010188Y003021D01*
X010134Y002893D01*
X010134Y002856D01*
X010117Y002873D01*
X010086Y002873D01*
X010086Y002932D01*
X009998Y003020D01*
X009720Y003020D01*
X009294Y003446D01*
X009294Y003505D01*
X009232Y003655D01*
X009117Y003771D01*
X008966Y003833D01*
X008803Y003833D01*
X008652Y003771D01*
X008537Y003655D01*
X008474Y003505D01*
X008474Y003341D01*
X008537Y003191D01*
X008652Y003075D01*
X008787Y003020D01*
X008771Y003020D01*
X008683Y002932D01*
X008683Y002721D01*
X009001Y002721D01*
X009001Y002625D01*
X008745Y002625D01*
X008732Y002655D01*
X008617Y002771D01*
X008466Y002833D01*
X008303Y002833D01*
X008152Y002771D01*
X008037Y002655D01*
X007974Y002505D01*
X007974Y002341D01*
X008037Y002191D01*
X008105Y002123D01*
X007664Y002123D01*
X007732Y002191D01*
X007794Y002341D01*
X007794Y002505D01*
X007732Y002655D01*
X007617Y002771D01*
X007481Y002827D01*
X007481Y003325D01*
X007537Y003191D01*
X007652Y003075D01*
X007803Y003013D01*
X007854Y003013D01*
X007854Y003393D01*
X007474Y003393D01*
X007474Y003374D01*
X007425Y003423D01*
X007474Y003472D01*
X007474Y003453D01*
X007854Y003453D01*
X007854Y003393D01*
X007914Y003393D01*
X007914Y003013D01*
X007966Y003013D01*
X008117Y003075D01*
X008232Y003191D01*
X008294Y003341D01*
X008294Y003393D01*
X007915Y003393D01*
X007915Y003453D01*
X008294Y003453D01*
X008294Y003505D01*
X008232Y003655D01*
X008117Y003771D01*
X007966Y003833D01*
X007914Y003833D01*
X007914Y003453D01*
X007854Y003453D01*
X007854Y003833D01*
X007803Y003833D01*
X007652Y003771D01*
X007537Y003655D01*
X007481Y003521D01*
X007481Y003709D01*
X007183Y003709D01*
X007183Y003806D01*
X007481Y003806D01*
X007481Y004036D01*
X007393Y004124D01*
X007183Y004124D01*
X007183Y003806D01*
X007086Y003806D01*
X007086Y003709D01*
X006788Y003709D01*
X006788Y003479D01*
X006844Y003423D01*
X006788Y003367D01*
X006788Y002810D01*
X006875Y002722D01*
X006934Y002722D01*
X006934Y002590D01*
X006988Y002537D01*
X006974Y002505D01*
X006974Y002341D01*
X007037Y002191D01*
X007105Y002123D01*
X003584Y002123D01*
X003584Y002166D02*
X004523Y002166D01*
X004626Y002123D02*
X004148Y002321D01*
X003782Y002687D01*
X003584Y003164D01*
X003584Y003373D01*
X004834Y003373D01*
X004834Y003473D01*
X003584Y003473D01*
X003584Y003682D01*
X003782Y004159D01*
X004148Y004525D01*
X004626Y004723D01*
X004834Y004723D01*
X004834Y003473D01*
X004934Y003473D01*
X004934Y004723D01*
X005143Y004723D01*
X005621Y004525D01*
X005987Y004159D01*
X006184Y003682D01*
X006184Y003473D01*
X004935Y003473D01*
X004935Y003373D01*
X006184Y003373D01*
X006184Y003164D01*
X005987Y002687D01*
X005621Y002321D01*
X005143Y002123D01*
X004934Y002123D01*
X004934Y003373D01*
X004834Y003373D01*
X004834Y002123D01*
X004626Y002123D01*
X004834Y002166D02*
X004934Y002166D01*
X004934Y002264D02*
X004834Y002264D01*
X004834Y002363D02*
X004934Y002363D01*
X004934Y002461D02*
X004834Y002461D01*
X004834Y002560D02*
X004934Y002560D01*
X004934Y002659D02*
X004834Y002659D01*
X004834Y002757D02*
X004934Y002757D01*
X004934Y002856D02*
X004834Y002856D01*
X004834Y002954D02*
X004934Y002954D01*
X004934Y003053D02*
X004834Y003053D01*
X004834Y003151D02*
X004934Y003151D01*
X004934Y003250D02*
X004834Y003250D01*
X004834Y003348D02*
X004934Y003348D01*
X004935Y003447D02*
X006820Y003447D01*
X006788Y003545D02*
X006184Y003545D01*
X006184Y003644D02*
X006788Y003644D01*
X006788Y003806D02*
X007086Y003806D01*
X007086Y004124D01*
X006875Y004124D01*
X006788Y004036D01*
X006788Y003806D01*
X006788Y003841D02*
X006118Y003841D01*
X006078Y003940D02*
X006788Y003940D01*
X006789Y004038D02*
X006037Y004038D01*
X005996Y004137D02*
X010850Y004137D01*
X010850Y004235D02*
X005911Y004235D01*
X005812Y004334D02*
X010764Y004334D01*
X010683Y004432D02*
X005714Y004432D01*
X005607Y004531D02*
X010683Y004531D01*
X010683Y004629D02*
X005369Y004629D01*
X004934Y004629D02*
X004834Y004629D01*
X004834Y004531D02*
X004934Y004531D01*
X004934Y004432D02*
X004834Y004432D01*
X004834Y004334D02*
X004934Y004334D01*
X004934Y004235D02*
X004834Y004235D01*
X004834Y004137D02*
X004934Y004137D01*
X004934Y004038D02*
X004834Y004038D01*
X004834Y003940D02*
X004934Y003940D01*
X004934Y003841D02*
X004834Y003841D01*
X004834Y003742D02*
X004934Y003742D01*
X004934Y003644D02*
X004834Y003644D01*
X004834Y003545D02*
X004934Y003545D01*
X004834Y003447D02*
X003584Y003447D01*
X003584Y003545D02*
X003584Y003545D01*
X003584Y003644D02*
X003584Y003644D01*
X003584Y003742D02*
X003610Y003742D01*
X003584Y003841D02*
X003651Y003841D01*
X003691Y003940D02*
X003584Y003940D01*
X003584Y004038D02*
X003732Y004038D01*
X003773Y004137D02*
X003584Y004137D01*
X003584Y004235D02*
X003858Y004235D01*
X003957Y004334D02*
X003584Y004334D01*
X003584Y004432D02*
X004055Y004432D01*
X004162Y004531D02*
X003584Y004531D01*
X003584Y004629D02*
X004400Y004629D01*
X004304Y004923D02*
X004165Y004923D01*
X004036Y004976D01*
X003938Y005075D01*
X003884Y005203D01*
X003884Y005343D01*
X003938Y005471D01*
X004036Y005570D01*
X004165Y005623D01*
X004231Y005623D01*
X005134Y006527D01*
X005134Y006527D01*
X005184Y006577D01*
X005184Y006756D01*
X005104Y006723D01*
X004965Y006723D01*
X004836Y006776D01*
X004738Y006875D01*
X004684Y007003D01*
X004684Y007140D01*
X004602Y007223D01*
X004484Y007340D01*
X004484Y009090D01*
X004402Y009173D01*
X004284Y009290D01*
X004284Y009890D01*
X004284Y010056D01*
X004714Y010485D01*
X004704Y010495D01*
X004704Y010851D01*
X004956Y011103D01*
X005313Y011103D01*
X005434Y010981D01*
X005434Y011056D01*
X005552Y011173D01*
X005752Y011373D01*
X005826Y011373D01*
X005704Y011495D01*
X005704Y011851D01*
X005956Y012103D01*
X006313Y012103D01*
X006543Y011873D01*
X006552Y011873D01*
X008052Y013373D01*
X008217Y013373D01*
X008538Y013373D01*
X008538Y013540D01*
X008836Y013540D01*
X008836Y013637D01*
X008538Y013637D01*
X008538Y013867D01*
X008594Y013923D01*
X008538Y013979D01*
X008538Y014536D01*
X008607Y014606D01*
X008588Y014625D01*
X008534Y014753D01*
X008534Y014893D01*
X008588Y015021D01*
X008686Y015120D01*
X008815Y015173D01*
X008954Y015173D01*
X009083Y015120D01*
X009181Y015021D01*
X009234Y014893D01*
X009234Y014753D01*
X009181Y014625D01*
X009162Y014606D01*
X009231Y014536D01*
X009231Y013979D01*
X009175Y013923D01*
X009231Y013867D01*
X009231Y013637D01*
X008933Y013637D01*
X008933Y013540D01*
X009231Y013540D01*
X009231Y013373D01*
X010902Y013373D01*
X011034Y013506D01*
X011034Y013878D01*
X010938Y013975D01*
X010884Y014103D01*
X010884Y014243D01*
X010938Y014371D01*
X011036Y014470D01*
X011165Y014523D01*
X011304Y014523D01*
X011433Y014470D01*
X011531Y014371D01*
X011577Y014261D01*
X011586Y014270D01*
X011715Y014323D01*
X011854Y014323D01*
X011983Y014270D01*
X012079Y014173D01*
X012094Y014173D01*
X012094Y014173D01*
X012038Y014229D01*
X012038Y014459D01*
X012336Y014459D01*
X012336Y014556D01*
X012038Y014556D01*
X012038Y014786D01*
X012125Y014874D01*
X012336Y014874D01*
X012336Y014556D01*
X012433Y014556D01*
X012731Y014556D01*
X012731Y014786D01*
X012643Y014874D01*
X012433Y014874D01*
X012433Y014556D01*
X012433Y014459D01*
X012731Y014459D01*
X012731Y014229D01*
X012675Y014173D01*
X012731Y014117D01*
X012731Y013560D01*
X012643Y013472D01*
X012125Y013472D01*
X012038Y013560D01*
X012038Y013731D01*
X011983Y013676D01*
X011854Y013623D01*
X011715Y013623D01*
X011586Y013676D01*
X011488Y013775D01*
X011442Y013886D01*
X011434Y013878D01*
X011434Y013340D01*
X011417Y013323D01*
X011667Y013323D01*
X011784Y013206D01*
X011934Y013056D01*
X011934Y012890D01*
X011934Y012540D01*
X011884Y012490D01*
X011884Y011568D01*
X011981Y011471D01*
X012034Y011343D01*
X012034Y011203D01*
X011981Y011075D01*
X011883Y010976D01*
X011754Y010923D01*
X011615Y010923D01*
X011486Y010976D01*
X011388Y011075D01*
X011341Y011188D01*
X011304Y011173D01*
X011165Y011173D01*
X011036Y011226D01*
X010938Y011325D01*
X010884Y011453D01*
X010884Y011590D01*
X010884Y012373D01*
X008517Y012373D01*
X007348Y011204D01*
X007381Y011171D01*
X007434Y011043D01*
X007434Y010903D01*
X007381Y010775D01*
X007283Y010676D01*
X007154Y010623D01*
X007015Y010623D01*
X006886Y010676D01*
X006788Y010775D01*
X006784Y010783D01*
X006784Y010506D01*
X006784Y010340D01*
X006534Y010090D01*
X006430Y009986D01*
X006564Y009851D01*
X006564Y009495D01*
X006313Y009243D01*
X005956Y009243D01*
X005704Y009495D01*
X005704Y009851D01*
X005826Y009973D01*
X005717Y009973D01*
X005564Y009820D01*
X005564Y009495D01*
X005442Y009373D01*
X005552Y009373D01*
X005717Y009373D01*
X005987Y009103D01*
X006313Y009103D01*
X006564Y008851D01*
X006564Y008495D01*
X006313Y008243D01*
X005956Y008243D01*
X005704Y008495D01*
X005704Y008820D01*
X005552Y008973D01*
X005442Y008973D01*
X005564Y008851D01*
X005564Y008495D01*
X005313Y008243D01*
X004956Y008243D01*
X004884Y008315D01*
X004884Y008031D01*
X004956Y008103D01*
X005313Y008103D01*
X005564Y007851D01*
X005564Y007597D01*
X005684Y007477D01*
X005684Y007270D01*
X005684Y006477D01*
X006638Y005523D01*
X009239Y005523D01*
X009286Y005570D01*
X009415Y005623D01*
X009554Y005623D01*
X009683Y005570D01*
X009781Y005471D01*
X009834Y005343D01*
X009834Y005203D01*
X009781Y005075D01*
X009683Y004976D01*
X009554Y004923D01*
X009415Y004923D01*
X009286Y004976D01*
X009239Y005023D01*
X006431Y005023D01*
X006284Y005170D01*
X005384Y006070D01*
X004584Y005270D01*
X004584Y005203D01*
X004531Y005075D01*
X004433Y004976D01*
X004304Y004923D01*
X004309Y004925D02*
X009410Y004925D01*
X009559Y004925D02*
X010683Y004925D01*
X010683Y004826D02*
X003584Y004826D01*
X003584Y004728D02*
X010683Y004728D01*
X010789Y005024D02*
X009730Y005024D01*
X009801Y005122D02*
X010718Y005122D01*
X010684Y005221D02*
X009834Y005221D01*
X009834Y005319D02*
X010684Y005319D01*
X010716Y005418D02*
X009803Y005418D01*
X009736Y005516D02*
X010783Y005516D01*
X010945Y005615D02*
X009574Y005615D01*
X009395Y005615D02*
X006546Y005615D01*
X006448Y005713D02*
X032788Y005713D01*
X032788Y005615D02*
X011124Y005615D01*
X011286Y005516D02*
X019629Y005516D01*
X019636Y005523D02*
X019284Y005172D01*
X019284Y003425D01*
X019359Y003350D01*
X019359Y003081D01*
X019667Y002773D01*
X020102Y002773D01*
X020409Y003081D01*
X020409Y003350D01*
X020484Y003425D01*
X020484Y005172D01*
X020133Y005523D01*
X019636Y005523D01*
X019531Y005418D02*
X011353Y005418D01*
X011384Y005319D02*
X019432Y005319D01*
X019334Y005221D02*
X011384Y005221D01*
X011351Y005122D02*
X019284Y005122D01*
X019284Y005024D02*
X011280Y005024D01*
X011034Y005273D02*
X011034Y004723D01*
X011050Y004708D01*
X011050Y004673D01*
X011050Y003388D01*
X010784Y003123D01*
X012984Y003123D01*
X013184Y002923D01*
X016634Y002923D01*
X017134Y002423D01*
X017512Y002264D02*
X031785Y002264D01*
X031648Y002321D02*
X032126Y002123D01*
X032334Y002123D01*
X032334Y003373D01*
X031084Y003373D01*
X031084Y003164D01*
X031282Y002687D01*
X031648Y002321D01*
X031606Y002363D02*
X017544Y002363D01*
X017544Y002461D02*
X031508Y002461D01*
X031409Y002560D02*
X017522Y002560D01*
X017479Y002659D02*
X031311Y002659D01*
X031253Y002757D02*
X017380Y002757D01*
X017457Y003053D02*
X016812Y003053D01*
X016886Y002954D02*
X019486Y002954D01*
X019584Y002856D02*
X016985Y002856D01*
X016942Y003151D02*
X017326Y003151D01*
X017287Y003191D02*
X017402Y003075D01*
X017553Y003013D01*
X017604Y003013D01*
X017604Y003393D01*
X017224Y003393D01*
X017224Y003341D01*
X017287Y003191D01*
X017262Y003250D02*
X017006Y003250D01*
X017044Y003348D02*
X017224Y003348D01*
X017224Y003453D02*
X017604Y003453D01*
X017604Y003393D01*
X017664Y003393D01*
X017664Y003013D01*
X017716Y003013D01*
X017867Y003075D01*
X017982Y003191D01*
X018044Y003341D01*
X018044Y003393D01*
X017665Y003393D01*
X017665Y003453D01*
X018044Y003453D01*
X018044Y003505D01*
X017982Y003655D01*
X017867Y003771D01*
X017716Y003833D01*
X017664Y003833D01*
X017664Y003453D01*
X017604Y003453D01*
X017604Y003833D01*
X017553Y003833D01*
X017402Y003771D01*
X017287Y003655D01*
X017224Y003505D01*
X017224Y003453D01*
X017241Y003545D02*
X017028Y003545D01*
X017044Y003447D02*
X017604Y003447D01*
X017665Y003447D02*
X019284Y003447D01*
X019284Y003545D02*
X018028Y003545D01*
X017987Y003644D02*
X019284Y003644D01*
X019284Y003742D02*
X017895Y003742D01*
X017664Y003742D02*
X017604Y003742D01*
X017604Y003644D02*
X017664Y003644D01*
X017664Y003545D02*
X017604Y003545D01*
X017604Y003348D02*
X017664Y003348D01*
X017664Y003250D02*
X017604Y003250D01*
X017604Y003151D02*
X017664Y003151D01*
X017664Y003053D02*
X017604Y003053D01*
X017812Y003053D02*
X019387Y003053D01*
X019359Y003151D02*
X017942Y003151D01*
X018006Y003250D02*
X019359Y003250D01*
X019359Y003348D02*
X018044Y003348D01*
X017374Y003742D02*
X016895Y003742D01*
X016987Y003644D02*
X017282Y003644D01*
X016374Y003742D02*
X015895Y003742D01*
X015987Y003644D02*
X016282Y003644D01*
X016241Y003545D02*
X016028Y003545D01*
X016044Y003447D02*
X016224Y003447D01*
X016224Y003348D02*
X016044Y003348D01*
X016006Y003250D02*
X016262Y003250D01*
X016326Y003151D02*
X015942Y003151D01*
X015326Y003151D02*
X014942Y003151D01*
X015006Y003250D02*
X015262Y003250D01*
X015224Y003348D02*
X015044Y003348D01*
X015044Y003447D02*
X015224Y003447D01*
X015241Y003545D02*
X015028Y003545D01*
X014987Y003644D02*
X015282Y003644D01*
X015374Y003742D02*
X014895Y003742D01*
X014374Y003742D02*
X013895Y003742D01*
X013987Y003644D02*
X014282Y003644D01*
X014241Y003545D02*
X014028Y003545D01*
X014044Y003447D02*
X014224Y003447D01*
X014224Y003348D02*
X014044Y003348D01*
X014006Y003250D02*
X014262Y003250D01*
X014326Y003151D02*
X013942Y003151D01*
X013326Y003151D02*
X013239Y003151D01*
X013262Y003250D02*
X013141Y003250D01*
X013224Y003348D02*
X011250Y003348D01*
X011250Y003447D02*
X013224Y003447D01*
X013241Y003545D02*
X011250Y003545D01*
X011250Y003644D02*
X013282Y003644D01*
X013374Y003742D02*
X011250Y003742D01*
X011250Y003841D02*
X019284Y003841D01*
X019284Y003940D02*
X011250Y003940D01*
X011250Y004038D02*
X019284Y004038D01*
X019284Y004137D02*
X011250Y004137D01*
X011250Y004235D02*
X019284Y004235D01*
X019284Y004334D02*
X012005Y004334D01*
X011998Y004326D02*
X012086Y004414D01*
X012086Y004625D01*
X011768Y004625D01*
X011768Y004624D02*
X011768Y004326D01*
X011998Y004326D01*
X012086Y004432D02*
X019284Y004432D01*
X019284Y004531D02*
X012086Y004531D01*
X012086Y004728D02*
X019284Y004728D01*
X019284Y004826D02*
X012086Y004826D01*
X012086Y004925D02*
X019284Y004925D01*
X019284Y004629D02*
X011768Y004629D01*
X011734Y004673D02*
X011734Y005073D01*
X011534Y005273D01*
X011671Y004925D02*
X011768Y004925D01*
X011768Y004826D02*
X011671Y004826D01*
X011671Y004728D02*
X011768Y004728D01*
X011734Y004673D02*
X011719Y004673D01*
X011671Y004531D02*
X011768Y004531D01*
X011768Y004432D02*
X011671Y004432D01*
X011671Y004334D02*
X011768Y004334D01*
X011433Y004334D02*
X011336Y004334D01*
X010850Y004038D02*
X007480Y004038D01*
X007481Y003940D02*
X010850Y003940D01*
X010850Y003841D02*
X007481Y003841D01*
X007584Y003723D02*
X007134Y003723D01*
X007134Y003758D01*
X007086Y003742D02*
X006159Y003742D01*
X006184Y003348D02*
X006788Y003348D01*
X006788Y003250D02*
X006184Y003250D01*
X006179Y003151D02*
X006788Y003151D01*
X006788Y003053D02*
X006138Y003053D01*
X006097Y002954D02*
X006788Y002954D01*
X006788Y002856D02*
X006056Y002856D01*
X006016Y002757D02*
X006840Y002757D01*
X006934Y002659D02*
X005958Y002659D01*
X005860Y002560D02*
X006965Y002560D01*
X006974Y002461D02*
X005761Y002461D01*
X005663Y002363D02*
X006974Y002363D01*
X007006Y002264D02*
X005484Y002264D01*
X005246Y002166D02*
X007062Y002166D01*
X007384Y002423D02*
X007134Y002673D01*
X007134Y003088D01*
X007481Y003053D02*
X007707Y003053D01*
X007854Y003053D02*
X007914Y003053D01*
X007914Y003151D02*
X007854Y003151D01*
X007854Y003250D02*
X007914Y003250D01*
X007914Y003348D02*
X007854Y003348D01*
X007884Y003423D02*
X008334Y002973D01*
X008684Y002973D01*
X008984Y002673D01*
X009050Y002673D01*
X009001Y002659D02*
X008729Y002659D01*
X008683Y002757D02*
X008630Y002757D01*
X008683Y002856D02*
X007481Y002856D01*
X007481Y002954D02*
X008705Y002954D01*
X008707Y003053D02*
X008062Y003053D01*
X008192Y003151D02*
X008576Y003151D01*
X008512Y003250D02*
X008256Y003250D01*
X008294Y003348D02*
X008474Y003348D01*
X008474Y003447D02*
X007915Y003447D01*
X007884Y003423D02*
X007584Y003723D01*
X007624Y003742D02*
X007183Y003742D01*
X007183Y003841D02*
X007086Y003841D01*
X007086Y003940D02*
X007183Y003940D01*
X007183Y004038D02*
X007086Y004038D01*
X007481Y003644D02*
X007532Y003644D01*
X007491Y003545D02*
X007481Y003545D01*
X007449Y003447D02*
X007854Y003447D01*
X007854Y003545D02*
X007914Y003545D01*
X007914Y003644D02*
X007854Y003644D01*
X007854Y003742D02*
X007914Y003742D01*
X008145Y003742D02*
X008624Y003742D01*
X008532Y003644D02*
X008237Y003644D01*
X008278Y003545D02*
X008491Y003545D01*
X008884Y003423D02*
X009034Y003423D01*
X009719Y002738D01*
X009719Y002673D01*
X010034Y002673D01*
X010434Y002273D01*
X010084Y002264D02*
X008762Y002264D01*
X008788Y002326D02*
X009001Y002326D01*
X009001Y002624D01*
X009098Y002624D01*
X009098Y002326D01*
X009329Y002326D01*
X009384Y002382D01*
X009440Y002326D01*
X009998Y002326D01*
X010048Y002377D01*
X010084Y002340D01*
X010084Y002203D01*
X010118Y002123D01*
X008664Y002123D01*
X008732Y002191D01*
X008788Y002326D01*
X008707Y002166D02*
X010100Y002166D01*
X010062Y002363D02*
X010034Y002363D01*
X009404Y002363D02*
X009365Y002363D01*
X009098Y002363D02*
X009001Y002363D01*
X009001Y002461D02*
X009098Y002461D01*
X009098Y002560D02*
X009001Y002560D01*
X009001Y002722D02*
X009001Y003020D01*
X008982Y003020D01*
X009104Y003070D01*
X009155Y003020D01*
X009098Y003020D01*
X009098Y002722D01*
X009001Y002722D01*
X009001Y002757D02*
X009098Y002757D01*
X009098Y002856D02*
X009001Y002856D01*
X009001Y002954D02*
X009098Y002954D01*
X009122Y003053D02*
X009062Y003053D01*
X009392Y003348D02*
X010727Y003348D01*
X010628Y003250D02*
X009491Y003250D01*
X009589Y003151D02*
X010362Y003151D01*
X010219Y003053D02*
X009688Y003053D01*
X010064Y002954D02*
X010160Y002954D01*
X010484Y002823D02*
X010784Y003123D01*
X010825Y003447D02*
X009294Y003447D01*
X009278Y003545D02*
X010850Y003545D01*
X010850Y003644D02*
X009237Y003644D01*
X009145Y003742D02*
X010850Y003742D01*
X008139Y002757D02*
X007630Y002757D01*
X007729Y002659D02*
X008040Y002659D01*
X007997Y002560D02*
X007772Y002560D01*
X007794Y002461D02*
X007974Y002461D01*
X007974Y002363D02*
X007794Y002363D01*
X007762Y002264D02*
X008006Y002264D01*
X008062Y002166D02*
X007707Y002166D01*
X007576Y003151D02*
X007481Y003151D01*
X007481Y003250D02*
X007512Y003250D01*
X006430Y005024D02*
X004480Y005024D01*
X004551Y005122D02*
X006332Y005122D01*
X006233Y005221D02*
X004584Y005221D01*
X004634Y005319D02*
X006135Y005319D01*
X006036Y005418D02*
X004733Y005418D01*
X004831Y005516D02*
X005938Y005516D01*
X005839Y005615D02*
X004930Y005615D01*
X005028Y005713D02*
X005741Y005713D01*
X005642Y005812D02*
X005127Y005812D01*
X005225Y005910D02*
X005544Y005910D01*
X005445Y006009D02*
X005324Y006009D01*
X004913Y006305D02*
X003584Y006305D01*
X003584Y006403D02*
X005011Y006403D01*
X005110Y006502D02*
X003584Y006502D01*
X003584Y006600D02*
X005184Y006600D01*
X005184Y006699D02*
X003584Y006699D01*
X003584Y006797D02*
X004815Y006797D01*
X004729Y006896D02*
X003584Y006896D01*
X003584Y006994D02*
X004688Y006994D01*
X004684Y007093D02*
X003584Y007093D01*
X003584Y007191D02*
X004633Y007191D01*
X004535Y007290D02*
X003584Y007290D01*
X003584Y007389D02*
X004484Y007389D01*
X004484Y007487D02*
X003584Y007487D01*
X003584Y007586D02*
X004484Y007586D01*
X004484Y007684D02*
X003584Y007684D01*
X003584Y007783D02*
X004484Y007783D01*
X004484Y007881D02*
X003584Y007881D01*
X003584Y007980D02*
X004484Y007980D01*
X004484Y008078D02*
X003584Y008078D01*
X003584Y008177D02*
X004484Y008177D01*
X004484Y008275D02*
X003584Y008275D01*
X003584Y008374D02*
X004484Y008374D01*
X004484Y008473D02*
X003584Y008473D01*
X003584Y008571D02*
X004484Y008571D01*
X004484Y008670D02*
X003584Y008670D01*
X003584Y008768D02*
X004484Y008768D01*
X004484Y008867D02*
X003584Y008867D01*
X003584Y008965D02*
X004484Y008965D01*
X004484Y009064D02*
X003584Y009064D01*
X003584Y009162D02*
X004412Y009162D01*
X004314Y009261D02*
X003584Y009261D01*
X003584Y009359D02*
X004284Y009359D01*
X004284Y009458D02*
X003584Y009458D01*
X003584Y009557D02*
X004284Y009557D01*
X004284Y009655D02*
X003584Y009655D01*
X003584Y009754D02*
X004284Y009754D01*
X004284Y009852D02*
X003584Y009852D01*
X003584Y009951D02*
X004284Y009951D01*
X004284Y010049D02*
X003584Y010049D01*
X003584Y010148D02*
X004376Y010148D01*
X004475Y010246D02*
X003584Y010246D01*
X003584Y010345D02*
X004574Y010345D01*
X004672Y010443D02*
X003584Y010443D01*
X003584Y010542D02*
X004704Y010542D01*
X004704Y010641D02*
X003584Y010641D01*
X003584Y010739D02*
X004704Y010739D01*
X004704Y010838D02*
X003584Y010838D01*
X003584Y010936D02*
X004789Y010936D01*
X004888Y011035D02*
X003584Y011035D01*
X003584Y011133D02*
X005512Y011133D01*
X005434Y011035D02*
X005381Y011035D01*
X005313Y011243D02*
X005174Y011243D01*
X005174Y011633D01*
X005094Y011633D01*
X004704Y011633D01*
X004704Y011495D01*
X004956Y011243D01*
X005094Y011243D01*
X005094Y011633D01*
X005094Y011713D01*
X004704Y011713D01*
X004704Y011851D01*
X004956Y012103D01*
X005094Y012103D01*
X005094Y011713D01*
X005174Y011713D01*
X005174Y012103D01*
X005313Y012103D01*
X005564Y011851D01*
X005564Y011713D01*
X005175Y011713D01*
X005175Y011633D01*
X005564Y011633D01*
X005564Y011495D01*
X005313Y011243D01*
X005400Y011330D02*
X005709Y011330D01*
X005771Y011429D02*
X005498Y011429D01*
X005564Y011527D02*
X005704Y011527D01*
X005704Y011626D02*
X005564Y011626D01*
X005564Y011724D02*
X005704Y011724D01*
X005704Y011823D02*
X005564Y011823D01*
X005494Y011922D02*
X005775Y011922D01*
X005873Y012020D02*
X005395Y012020D01*
X005174Y012020D02*
X005094Y012020D01*
X005094Y011922D02*
X005174Y011922D01*
X005174Y011823D02*
X005094Y011823D01*
X005094Y011724D02*
X005174Y011724D01*
X005174Y011626D02*
X005094Y011626D01*
X005094Y011527D02*
X005174Y011527D01*
X005174Y011429D02*
X005094Y011429D01*
X005094Y011330D02*
X005174Y011330D01*
X004869Y011330D02*
X003584Y011330D01*
X003584Y011232D02*
X005610Y011232D01*
X005834Y011173D02*
X005634Y010973D01*
X005634Y010473D01*
X005284Y010123D01*
X004934Y010123D01*
X004684Y009873D01*
X004684Y009473D01*
X004984Y009173D01*
X005634Y009173D01*
X006134Y008673D01*
X005704Y008670D02*
X005564Y008670D01*
X005564Y008768D02*
X005704Y008768D01*
X005658Y008867D02*
X005549Y008867D01*
X005559Y008965D02*
X005450Y008965D01*
X005564Y008571D02*
X005704Y008571D01*
X005727Y008473D02*
X005542Y008473D01*
X005444Y008374D02*
X005825Y008374D01*
X005924Y008275D02*
X005345Y008275D01*
X005337Y008078D02*
X005932Y008078D01*
X005956Y008103D02*
X005704Y007851D01*
X005704Y007495D01*
X005956Y007243D01*
X006313Y007243D01*
X006564Y007495D01*
X006564Y007851D01*
X006313Y008103D01*
X005956Y008103D01*
X005833Y007980D02*
X005436Y007980D01*
X005534Y007881D02*
X005735Y007881D01*
X005704Y007783D02*
X005564Y007783D01*
X005564Y007684D02*
X005704Y007684D01*
X005704Y007586D02*
X005575Y007586D01*
X005674Y007487D02*
X005712Y007487D01*
X005684Y007389D02*
X005811Y007389D01*
X005909Y007290D02*
X005684Y007290D01*
X005684Y007191D02*
X008538Y007191D01*
X008538Y007093D02*
X005684Y007093D01*
X005684Y006994D02*
X008538Y006994D01*
X008538Y006979D02*
X008594Y006923D01*
X008538Y006867D01*
X008538Y006637D01*
X008836Y006637D01*
X008836Y006540D01*
X008538Y006540D01*
X008538Y006310D01*
X008625Y006222D01*
X008836Y006222D01*
X008836Y006540D01*
X008933Y006540D01*
X008933Y006637D01*
X009231Y006637D01*
X009231Y006867D01*
X009175Y006923D01*
X009231Y006979D01*
X009231Y007023D01*
X009294Y007023D01*
X009415Y006973D01*
X009554Y006973D01*
X009683Y007026D01*
X009729Y007073D01*
X010139Y007073D01*
X010186Y007026D01*
X010315Y006973D01*
X010454Y006973D01*
X010583Y007026D01*
X010681Y007125D01*
X010734Y007253D01*
X010734Y007393D01*
X010681Y007521D01*
X010583Y007620D01*
X010454Y007673D01*
X010315Y007673D01*
X010186Y007620D01*
X010139Y007573D01*
X009729Y007573D01*
X009683Y007620D01*
X009554Y007673D01*
X009415Y007673D01*
X009286Y007620D01*
X009217Y007551D01*
X009143Y007624D01*
X008625Y007624D01*
X008538Y007536D01*
X008538Y006979D01*
X008566Y006896D02*
X005684Y006896D01*
X005684Y006797D02*
X008538Y006797D01*
X008538Y006699D02*
X005684Y006699D01*
X005684Y006600D02*
X008836Y006600D01*
X008884Y006588D02*
X008884Y006573D01*
X007984Y006573D01*
X007484Y007073D01*
X007484Y008173D01*
X006542Y008473D02*
X011297Y008473D01*
X011284Y008503D02*
X011338Y008375D01*
X011436Y008276D01*
X011565Y008223D01*
X011704Y008223D01*
X011833Y008276D01*
X011931Y008375D01*
X011984Y008503D01*
X011984Y008643D01*
X011931Y008771D01*
X011876Y008826D01*
X011998Y008826D01*
X012086Y008914D01*
X012086Y009432D01*
X011998Y009520D01*
X011440Y009520D01*
X011384Y009464D01*
X011329Y009520D01*
X011098Y009520D01*
X011098Y009222D01*
X011001Y009222D01*
X011001Y009520D01*
X010771Y009520D01*
X010683Y009432D01*
X010683Y009221D01*
X011001Y009221D01*
X011001Y009125D01*
X010683Y009125D01*
X010683Y008914D01*
X010771Y008826D01*
X011001Y008826D01*
X011001Y009124D01*
X011098Y009124D01*
X011098Y008826D01*
X011329Y008826D01*
X011384Y008882D01*
X011417Y008850D01*
X011338Y008771D01*
X011284Y008643D01*
X011284Y008503D01*
X011284Y008571D02*
X006564Y008571D01*
X006564Y008670D02*
X011296Y008670D01*
X011336Y008768D02*
X006564Y008768D01*
X006549Y008867D02*
X010731Y008867D01*
X010683Y008965D02*
X006450Y008965D01*
X006352Y009064D02*
X010683Y009064D01*
X010683Y009261D02*
X006330Y009261D01*
X006429Y009359D02*
X010683Y009359D01*
X010709Y009458D02*
X006527Y009458D01*
X006564Y009557D02*
X033484Y009557D01*
X033484Y009655D02*
X006564Y009655D01*
X006564Y009754D02*
X033484Y009754D01*
X033484Y009852D02*
X006563Y009852D01*
X006465Y009951D02*
X033484Y009951D01*
X033484Y010049D02*
X006493Y010049D01*
X006592Y010148D02*
X033484Y010148D01*
X033484Y010246D02*
X031316Y010246D01*
X031316Y010245D02*
X031316Y010572D01*
X030685Y010572D01*
X030685Y010672D01*
X031316Y010672D01*
X031316Y010999D01*
X031228Y011087D01*
X030684Y011087D01*
X030684Y010672D01*
X030585Y010672D01*
X030585Y011087D01*
X030041Y011087D01*
X029953Y010999D01*
X029953Y010672D01*
X030584Y010672D01*
X030584Y010572D01*
X029953Y010572D01*
X029953Y010245D01*
X030041Y010157D01*
X030585Y010157D01*
X030585Y010572D01*
X030684Y010572D01*
X030684Y010157D01*
X031228Y010157D01*
X031316Y010245D01*
X031316Y010345D02*
X033484Y010345D01*
X033484Y010443D02*
X031316Y010443D01*
X031316Y010542D02*
X033484Y010542D01*
X033484Y010641D02*
X030685Y010641D01*
X030684Y010739D02*
X030585Y010739D01*
X030584Y010641D02*
X027685Y010641D01*
X027685Y010672D02*
X028316Y010672D01*
X028316Y010999D01*
X028228Y011087D01*
X027684Y011087D01*
X027684Y010672D01*
X027585Y010672D01*
X027585Y011087D01*
X027041Y011087D01*
X026953Y010999D01*
X026953Y010672D01*
X027584Y010672D01*
X027584Y010572D01*
X026953Y010572D01*
X026953Y010245D01*
X027041Y010157D01*
X027585Y010157D01*
X027585Y010572D01*
X027684Y010572D01*
X027684Y010157D01*
X028228Y010157D01*
X028316Y010245D01*
X028316Y010572D01*
X027685Y010572D01*
X027685Y010672D01*
X027684Y010739D02*
X027585Y010739D01*
X027584Y010641D02*
X020685Y010641D01*
X020685Y010672D02*
X021316Y010672D01*
X021316Y010999D01*
X021228Y011087D01*
X020684Y011087D01*
X020684Y010672D01*
X020585Y010672D01*
X020585Y011087D01*
X020041Y011087D01*
X019953Y010999D01*
X019953Y010672D01*
X020584Y010672D01*
X020584Y010572D01*
X019953Y010572D01*
X019953Y010245D01*
X020041Y010157D01*
X020585Y010157D01*
X020585Y010572D01*
X020684Y010572D01*
X020684Y010157D01*
X021228Y010157D01*
X021316Y010245D01*
X021316Y010572D01*
X020685Y010572D01*
X020685Y010672D01*
X020684Y010739D02*
X020585Y010739D01*
X020584Y010641D02*
X017685Y010641D01*
X017685Y010672D02*
X018316Y010672D01*
X018316Y010999D01*
X018228Y011087D01*
X017684Y011087D01*
X017684Y010672D01*
X017585Y010672D01*
X017585Y011087D01*
X017041Y011087D01*
X016953Y010999D01*
X016953Y010672D01*
X017584Y010672D01*
X017584Y010572D01*
X016953Y010572D01*
X016953Y010245D01*
X017041Y010157D01*
X017585Y010157D01*
X017585Y010572D01*
X017684Y010572D01*
X017684Y010157D01*
X018228Y010157D01*
X018316Y010245D01*
X018316Y010572D01*
X017685Y010572D01*
X017685Y010672D01*
X017684Y010739D02*
X017585Y010739D01*
X017584Y010641D02*
X007196Y010641D01*
X007345Y010739D02*
X016953Y010739D01*
X016953Y010838D02*
X007407Y010838D01*
X007434Y010936D02*
X011583Y010936D01*
X011428Y011035D02*
X007434Y011035D01*
X007397Y011133D02*
X011364Y011133D01*
X011031Y011232D02*
X007376Y011232D01*
X007475Y011330D02*
X010935Y011330D01*
X010895Y011429D02*
X007573Y011429D01*
X007672Y011527D02*
X010884Y011527D01*
X010884Y011626D02*
X007770Y011626D01*
X007869Y011724D02*
X010884Y011724D01*
X010884Y011823D02*
X007967Y011823D01*
X008066Y011922D02*
X010884Y011922D01*
X010884Y012020D02*
X008164Y012020D01*
X008263Y012119D02*
X010884Y012119D01*
X010884Y012217D02*
X008361Y012217D01*
X008460Y012316D02*
X010884Y012316D01*
X011084Y012523D02*
X011034Y012573D01*
X008434Y012573D01*
X007084Y011223D01*
X007084Y010973D01*
X006824Y010739D02*
X006784Y010739D01*
X006784Y010641D02*
X006973Y010641D01*
X006784Y010542D02*
X016953Y010542D01*
X016953Y010443D02*
X006784Y010443D01*
X006784Y010345D02*
X016953Y010345D01*
X016953Y010246D02*
X006691Y010246D01*
X006584Y010423D02*
X006334Y010173D01*
X005634Y010173D01*
X005134Y009673D01*
X005564Y009655D02*
X005704Y009655D01*
X005704Y009557D02*
X005564Y009557D01*
X005527Y009458D02*
X005741Y009458D01*
X005731Y009359D02*
X005840Y009359D01*
X005829Y009261D02*
X005939Y009261D01*
X005928Y009162D02*
X011001Y009162D01*
X011034Y009173D02*
X011134Y009073D01*
X011134Y008573D01*
X011339Y008374D02*
X006444Y008374D01*
X006345Y008275D02*
X011438Y008275D01*
X011634Y008573D02*
X011634Y009073D01*
X011734Y009173D01*
X011719Y009173D01*
X012086Y009162D02*
X033484Y009162D01*
X033484Y009064D02*
X012086Y009064D01*
X012086Y008965D02*
X033484Y008965D01*
X033484Y008867D02*
X012038Y008867D01*
X011932Y008768D02*
X033484Y008768D01*
X033484Y008670D02*
X011973Y008670D01*
X011984Y008571D02*
X033484Y008571D01*
X033484Y008473D02*
X011972Y008473D01*
X011930Y008374D02*
X033484Y008374D01*
X033484Y008275D02*
X011831Y008275D01*
X011400Y008867D02*
X011369Y008867D01*
X011098Y008867D02*
X011001Y008867D01*
X011001Y008965D02*
X011098Y008965D01*
X011098Y009064D02*
X011001Y009064D01*
X011034Y009173D02*
X011050Y009173D01*
X011001Y009261D02*
X011098Y009261D01*
X011098Y009359D02*
X011001Y009359D01*
X011001Y009458D02*
X011098Y009458D01*
X012060Y009458D02*
X033484Y009458D01*
X033484Y009359D02*
X012086Y009359D01*
X012086Y009261D02*
X033484Y009261D01*
X033484Y008177D02*
X004884Y008177D01*
X004884Y008275D02*
X004924Y008275D01*
X004932Y008078D02*
X004884Y008078D01*
X004684Y007423D02*
X004684Y009173D01*
X004484Y009373D01*
X004484Y009973D01*
X005134Y010623D01*
X005134Y010673D01*
X005834Y011173D02*
X006434Y011173D01*
X008234Y012973D01*
X011084Y012973D01*
X011234Y013123D01*
X011584Y013123D01*
X011734Y012973D01*
X011734Y012623D01*
X011684Y012573D01*
X011684Y011273D01*
X012005Y011133D02*
X033484Y011133D01*
X033484Y011035D02*
X031280Y011035D01*
X031316Y010936D02*
X033484Y010936D01*
X033484Y010838D02*
X031316Y010838D01*
X031316Y010739D02*
X033484Y010739D01*
X033484Y011232D02*
X012034Y011232D01*
X012034Y011330D02*
X015232Y011330D01*
X015134Y011429D02*
X011999Y011429D01*
X011925Y011527D02*
X015035Y011527D01*
X015034Y011626D02*
X011884Y011626D01*
X011884Y011724D02*
X015034Y011724D01*
X015034Y011823D02*
X011884Y011823D01*
X011884Y011922D02*
X015034Y011922D01*
X015034Y012020D02*
X011884Y012020D01*
X011884Y012119D02*
X015034Y012119D01*
X015034Y012217D02*
X011884Y012217D01*
X011884Y012316D02*
X015034Y012316D01*
X015088Y012371D02*
X015088Y012371D01*
X015131Y012414D02*
X011884Y012414D01*
X011907Y012513D02*
X015229Y012513D01*
X015186Y012470D02*
X015186Y012470D01*
X014984Y012673D02*
X013734Y011423D01*
X013384Y011423D01*
X011941Y011035D02*
X016989Y011035D01*
X016953Y010936D02*
X011786Y010936D01*
X011234Y011523D02*
X011084Y011673D01*
X011084Y012523D01*
X011384Y012773D02*
X008334Y012773D01*
X006584Y011023D01*
X006584Y010423D01*
X005804Y009951D02*
X005695Y009951D01*
X005706Y009852D02*
X005596Y009852D01*
X005564Y009754D02*
X005704Y009754D01*
X006337Y008078D02*
X033484Y008078D01*
X033484Y007980D02*
X006436Y007980D01*
X006534Y007881D02*
X033484Y007881D01*
X033484Y007783D02*
X006564Y007783D01*
X006564Y007684D02*
X032971Y007684D01*
X032852Y007586D02*
X010617Y007586D01*
X010695Y007487D02*
X032803Y007487D01*
X032784Y007389D02*
X010734Y007389D01*
X010734Y007290D02*
X013041Y007290D01*
X013038Y007286D02*
X013038Y007056D01*
X013336Y007056D01*
X013336Y006959D01*
X013038Y006959D01*
X013038Y006729D01*
X013094Y006673D01*
X013044Y006623D01*
X013022Y006623D01*
X012981Y006721D01*
X012883Y006820D01*
X012754Y006873D01*
X012615Y006873D01*
X012486Y006820D01*
X012439Y006773D01*
X012229Y006773D01*
X012183Y006820D01*
X012054Y006873D01*
X011915Y006873D01*
X011786Y006820D01*
X011688Y006721D01*
X011634Y006593D01*
X011634Y006453D01*
X011688Y006325D01*
X011786Y006226D01*
X011915Y006173D01*
X012054Y006173D01*
X012183Y006226D01*
X012229Y006273D01*
X012439Y006273D01*
X012486Y006226D01*
X012615Y006173D01*
X012681Y006173D01*
X012731Y006123D01*
X013038Y006123D01*
X013038Y006060D01*
X013125Y005972D01*
X013643Y005972D01*
X013731Y006060D01*
X013731Y006617D01*
X013675Y006673D01*
X013731Y006729D01*
X013731Y006959D01*
X013433Y006959D01*
X013433Y007056D01*
X013731Y007056D01*
X013731Y007286D01*
X013643Y007374D01*
X013433Y007374D01*
X013433Y007056D01*
X013336Y007056D01*
X013336Y007374D01*
X013125Y007374D01*
X013038Y007286D01*
X013038Y007191D02*
X010709Y007191D01*
X010649Y007093D02*
X013038Y007093D01*
X013038Y006896D02*
X009203Y006896D01*
X009134Y006823D02*
X008900Y006588D01*
X008884Y006588D01*
X008933Y006600D02*
X011638Y006600D01*
X011634Y006502D02*
X009231Y006502D01*
X009231Y006540D02*
X008933Y006540D01*
X008933Y006222D01*
X009143Y006222D01*
X009231Y006310D01*
X009231Y006540D01*
X009231Y006403D02*
X011655Y006403D01*
X011708Y006305D02*
X009226Y006305D01*
X008933Y006305D02*
X008836Y006305D01*
X008836Y006403D02*
X008933Y006403D01*
X008933Y006502D02*
X008836Y006502D01*
X008538Y006502D02*
X005684Y006502D01*
X005758Y006403D02*
X008538Y006403D01*
X008543Y006305D02*
X005856Y006305D01*
X005955Y006206D02*
X011835Y006206D01*
X012134Y006206D02*
X012535Y006206D01*
X013038Y006108D02*
X006054Y006108D01*
X006152Y006009D02*
X013088Y006009D01*
X013681Y006009D02*
X032788Y006009D01*
X032788Y006108D02*
X013731Y006108D01*
X013731Y006206D02*
X032811Y006206D01*
X032788Y006305D02*
X013731Y006305D01*
X013731Y006403D02*
X032788Y006403D01*
X032788Y006502D02*
X013731Y006502D01*
X013731Y006600D02*
X032788Y006600D01*
X032788Y006699D02*
X013701Y006699D01*
X013731Y006797D02*
X032799Y006797D01*
X032934Y006896D02*
X013731Y006896D01*
X013731Y007093D02*
X032920Y007093D01*
X032934Y006994D02*
X013433Y006994D01*
X013336Y006994D02*
X010506Y006994D01*
X010263Y006994D02*
X009606Y006994D01*
X009484Y006823D02*
X009134Y006823D01*
X009231Y006797D02*
X011764Y006797D01*
X011678Y006699D02*
X009231Y006699D01*
X009231Y006994D02*
X009363Y006994D01*
X009384Y007223D02*
X008934Y007223D01*
X008884Y007258D01*
X008538Y007290D02*
X006360Y007290D01*
X006458Y007389D02*
X008538Y007389D01*
X008538Y007487D02*
X006557Y007487D01*
X006564Y007586D02*
X008587Y007586D01*
X009182Y007586D02*
X009252Y007586D01*
X009484Y007323D02*
X009384Y007223D01*
X009717Y007586D02*
X010152Y007586D01*
X009484Y008123D02*
X009684Y008323D01*
X009684Y008423D01*
X009184Y008923D01*
X008934Y008923D01*
X007484Y007073D02*
X006484Y007073D01*
X005034Y007073D02*
X004684Y007423D01*
X004814Y006206D02*
X003584Y006206D01*
X003584Y006108D02*
X004715Y006108D01*
X004617Y006009D02*
X003584Y006009D01*
X003584Y005910D02*
X004518Y005910D01*
X004420Y005812D02*
X003584Y005812D01*
X003584Y005713D02*
X004321Y005713D01*
X004145Y005615D02*
X003584Y005615D01*
X003584Y005516D02*
X003983Y005516D01*
X003916Y005418D02*
X003584Y005418D01*
X003584Y005319D02*
X003884Y005319D01*
X003884Y005221D02*
X003584Y005221D01*
X003584Y005122D02*
X003918Y005122D01*
X003989Y005024D02*
X003584Y005024D01*
X003584Y004925D02*
X004160Y004925D01*
X006251Y005910D02*
X032788Y005910D01*
X032788Y005812D02*
X006349Y005812D01*
X003584Y003348D02*
X003584Y003348D01*
X003584Y003250D02*
X003584Y003250D01*
X003584Y003151D02*
X003590Y003151D01*
X003584Y003053D02*
X003631Y003053D01*
X003672Y002954D02*
X003584Y002954D01*
X003584Y002856D02*
X003712Y002856D01*
X003753Y002757D02*
X003584Y002757D01*
X003584Y002659D02*
X003811Y002659D01*
X003909Y002560D02*
X003584Y002560D01*
X003584Y002461D02*
X004008Y002461D01*
X004106Y002363D02*
X003584Y002363D01*
X003584Y002264D02*
X004285Y002264D01*
X012205Y006797D02*
X012464Y006797D01*
X012684Y007023D02*
X012684Y007473D01*
X012934Y007723D01*
X014084Y007723D01*
X014184Y007823D01*
X014784Y007823D01*
X015384Y007223D01*
X013731Y007191D02*
X032831Y007191D01*
X032790Y007290D02*
X013728Y007290D01*
X013433Y007290D02*
X013336Y007290D01*
X013336Y007191D02*
X013433Y007191D01*
X013433Y007093D02*
X013336Y007093D01*
X013038Y006797D02*
X012905Y006797D01*
X012991Y006699D02*
X013068Y006699D01*
X017585Y010246D02*
X017684Y010246D01*
X017684Y010345D02*
X017585Y010345D01*
X017585Y010443D02*
X017684Y010443D01*
X017684Y010542D02*
X017585Y010542D01*
X017585Y010838D02*
X017684Y010838D01*
X017684Y010936D02*
X017585Y010936D01*
X017585Y011035D02*
X017684Y011035D01*
X018280Y011035D02*
X019989Y011035D01*
X019953Y010936D02*
X018316Y010936D01*
X018316Y010838D02*
X019953Y010838D01*
X019953Y010739D02*
X018316Y010739D01*
X018316Y010542D02*
X019953Y010542D01*
X019953Y010443D02*
X018316Y010443D01*
X018316Y010345D02*
X019953Y010345D01*
X019953Y010246D02*
X018316Y010246D01*
X020585Y010246D02*
X020684Y010246D01*
X020684Y010345D02*
X020585Y010345D01*
X020585Y010443D02*
X020684Y010443D01*
X020684Y010542D02*
X020585Y010542D01*
X020585Y010838D02*
X020684Y010838D01*
X020684Y010936D02*
X020585Y010936D01*
X020585Y011035D02*
X020684Y011035D01*
X021280Y011035D02*
X026989Y011035D01*
X026953Y010936D02*
X021316Y010936D01*
X021316Y010838D02*
X026953Y010838D01*
X026953Y010739D02*
X021316Y010739D01*
X021316Y010542D02*
X026953Y010542D01*
X026953Y010443D02*
X021316Y010443D01*
X021316Y010345D02*
X026953Y010345D01*
X026953Y010246D02*
X021316Y010246D01*
X015884Y013573D02*
X014984Y012673D01*
X014915Y012923D02*
X015054Y012923D01*
X015183Y012976D01*
X015281Y013075D01*
X015334Y013203D01*
X033684Y013203D01*
X033684Y013301D02*
X015334Y013301D01*
X015334Y013343D02*
X015281Y013471D01*
X015229Y013523D01*
X015281Y013575D01*
X015334Y013703D01*
X015334Y013843D01*
X015281Y013971D01*
X015183Y014070D01*
X015054Y014123D01*
X014915Y014123D01*
X014786Y014070D01*
X014689Y013973D01*
X014179Y013973D01*
X014083Y014070D01*
X013954Y014123D01*
X013815Y014123D01*
X013686Y014070D01*
X013588Y013971D01*
X013534Y013843D01*
X013534Y013703D01*
X013588Y013575D01*
X013640Y013523D01*
X013588Y013471D01*
X013534Y013343D01*
X013534Y013203D01*
X013588Y013075D01*
X013686Y012976D01*
X013815Y012923D01*
X013954Y012923D01*
X014083Y012976D01*
X014179Y013073D01*
X014689Y013073D01*
X014786Y012976D01*
X014915Y012923D01*
X014757Y013006D02*
X014112Y013006D01*
X013884Y013273D02*
X014984Y013273D01*
X015311Y013400D02*
X033684Y013400D01*
X033684Y013498D02*
X015254Y013498D01*
X015290Y013597D02*
X033684Y013597D01*
X033684Y013695D02*
X015331Y013695D01*
X015334Y013794D02*
X033684Y013794D01*
X033684Y013892D02*
X015314Y013892D01*
X015261Y013991D02*
X033684Y013991D01*
X033684Y014090D02*
X015135Y014090D01*
X014834Y014090D02*
X014035Y014090D01*
X014161Y013991D02*
X014707Y013991D01*
X014984Y013773D02*
X013884Y013773D01*
X013555Y013892D02*
X012731Y013892D01*
X012731Y013794D02*
X013534Y013794D01*
X013538Y013695D02*
X012731Y013695D01*
X012731Y013597D02*
X013579Y013597D01*
X013615Y013498D02*
X012670Y013498D01*
X012384Y013838D02*
X012384Y013973D01*
X011784Y013973D01*
X011627Y014287D02*
X011566Y014287D01*
X011517Y014385D02*
X012038Y014385D01*
X012038Y014287D02*
X011942Y014287D01*
X012064Y014188D02*
X012079Y014188D01*
X012336Y014484D02*
X011399Y014484D01*
X011070Y014484D02*
X009231Y014484D01*
X009231Y014385D02*
X010952Y014385D01*
X010903Y014287D02*
X009231Y014287D01*
X009231Y014188D02*
X010884Y014188D01*
X010890Y014090D02*
X009231Y014090D01*
X009231Y013991D02*
X010931Y013991D01*
X011020Y013892D02*
X009206Y013892D01*
X009231Y013794D02*
X011034Y013794D01*
X011034Y013695D02*
X009231Y013695D01*
X009231Y013498D02*
X011027Y013498D01*
X011034Y013597D02*
X008933Y013597D01*
X008884Y013588D02*
X009419Y013588D01*
X009484Y013523D01*
X009231Y013400D02*
X010928Y013400D01*
X010984Y013173D02*
X008134Y013173D01*
X006634Y011673D01*
X006134Y011673D01*
X006395Y012020D02*
X006699Y012020D01*
X006797Y012119D02*
X003584Y012119D01*
X003584Y012217D02*
X006896Y012217D01*
X006994Y012316D02*
X003584Y012316D01*
X003584Y012414D02*
X007093Y012414D01*
X007191Y012513D02*
X003584Y012513D01*
X003584Y012611D02*
X007290Y012611D01*
X007389Y012710D02*
X003584Y012710D01*
X003584Y012808D02*
X007487Y012808D01*
X007586Y012907D02*
X003584Y012907D01*
X003584Y013006D02*
X007684Y013006D01*
X007783Y013104D02*
X003584Y013104D01*
X003584Y013203D02*
X007881Y013203D01*
X007980Y013301D02*
X003584Y013301D01*
X003584Y013400D02*
X008538Y013400D01*
X008538Y013498D02*
X003584Y013498D01*
X003584Y013597D02*
X008836Y013597D01*
X008538Y013695D02*
X003584Y013695D01*
X003584Y013794D02*
X008538Y013794D01*
X008563Y013892D02*
X003584Y013892D01*
X003584Y013991D02*
X008538Y013991D01*
X008538Y014090D02*
X003584Y014090D01*
X003584Y014188D02*
X003895Y014188D01*
X003910Y014173D02*
X004375Y014173D01*
X004495Y014293D01*
X004495Y014429D01*
X004555Y014370D01*
X004730Y014370D01*
X004730Y014293D01*
X004850Y014173D01*
X005020Y014173D01*
X005060Y014214D01*
X005101Y014173D01*
X005271Y014173D01*
X005383Y014285D01*
X005495Y014173D01*
X005664Y014173D01*
X005784Y014293D01*
X005784Y014588D01*
X005784Y014758D01*
X005784Y014857D01*
X005588Y015053D01*
X005468Y015174D01*
X005298Y015174D01*
X005140Y015016D01*
X005140Y015053D01*
X005020Y015174D01*
X004725Y015174D01*
X004555Y015174D01*
X004477Y015096D01*
X004465Y015084D01*
X004375Y015174D01*
X004080Y015174D01*
X003910Y015174D01*
X003833Y015096D01*
X003812Y015075D01*
X003812Y015075D01*
X003752Y015016D01*
X003752Y015015D01*
X003735Y014998D01*
X003692Y014955D01*
X003692Y014857D01*
X003692Y014687D01*
X003705Y014673D01*
X003692Y014660D01*
X003692Y014561D01*
X003692Y014392D01*
X003752Y014331D01*
X003755Y014328D01*
X003812Y014271D01*
X003831Y014252D01*
X003910Y014173D01*
X003812Y014271D02*
X003812Y014271D01*
X003797Y014287D02*
X003584Y014287D01*
X003584Y014385D02*
X003698Y014385D01*
X003692Y014484D02*
X003584Y014484D01*
X003584Y014582D02*
X003692Y014582D01*
X003698Y014681D02*
X003584Y014681D01*
X003584Y014779D02*
X003692Y014779D01*
X003692Y014878D02*
X003584Y014878D01*
X003584Y014976D02*
X003713Y014976D01*
X003812Y015075D02*
X003584Y015075D01*
X003584Y015174D02*
X011318Y015174D01*
X011338Y015125D02*
X011436Y015026D01*
X011565Y014973D01*
X011704Y014973D01*
X011833Y015026D01*
X011931Y015125D01*
X011984Y015253D01*
X011984Y015390D01*
X012066Y015472D01*
X012143Y015472D01*
X012231Y015560D01*
X012231Y016117D01*
X012175Y016173D01*
X012231Y016229D01*
X012231Y016786D01*
X012195Y016823D01*
X012502Y016823D01*
X012852Y016473D01*
X013017Y016473D01*
X015302Y016473D01*
X015467Y016473D01*
X015967Y016473D01*
X016084Y016590D01*
X016334Y016840D01*
X016334Y017006D01*
X016334Y017178D01*
X016431Y017275D01*
X016484Y017403D01*
X016484Y017543D01*
X016431Y017671D01*
X016333Y017770D01*
X016204Y017823D01*
X016065Y017823D01*
X015936Y017770D01*
X015838Y017671D01*
X015784Y017543D01*
X015784Y017403D01*
X015838Y017275D01*
X015934Y017178D01*
X015934Y017006D01*
X015802Y016873D01*
X015584Y016873D01*
X015584Y017190D01*
X015584Y017356D01*
X014684Y018256D01*
X014567Y018373D01*
X013629Y018373D01*
X013533Y018470D01*
X013404Y018523D01*
X013265Y018523D01*
X013136Y018470D01*
X013038Y018371D01*
X012984Y018243D01*
X012984Y018103D01*
X013038Y017975D01*
X013136Y017876D01*
X013265Y017823D01*
X013404Y017823D01*
X013533Y017876D01*
X013629Y017973D01*
X014402Y017973D01*
X015184Y017190D01*
X015184Y016873D01*
X013017Y016873D01*
X012784Y017106D01*
X012667Y017223D01*
X011967Y017223D01*
X011802Y017223D01*
X010967Y017223D01*
X010802Y017223D01*
X010599Y017020D01*
X010271Y017020D01*
X010183Y016932D01*
X010183Y016414D01*
X010271Y016326D01*
X010343Y016326D01*
X010288Y016271D01*
X010234Y016143D01*
X010234Y016003D01*
X010288Y015875D01*
X010386Y015776D01*
X010515Y015723D01*
X010654Y015723D01*
X010783Y015776D01*
X010881Y015875D01*
X010934Y016003D01*
X010934Y016143D01*
X010881Y016271D01*
X010826Y016326D01*
X010829Y016326D01*
X010884Y016382D01*
X010940Y016326D01*
X011171Y016326D01*
X011171Y016624D01*
X011268Y016624D01*
X011268Y016326D01*
X011498Y016326D01*
X011538Y016366D01*
X011538Y016229D01*
X011594Y016173D01*
X011538Y016117D01*
X011538Y015662D01*
X011436Y015620D01*
X011338Y015521D01*
X011284Y015393D01*
X011284Y015253D01*
X011338Y015125D01*
X011388Y015075D02*
X009128Y015075D01*
X009200Y014976D02*
X011557Y014976D01*
X011712Y014976D02*
X022187Y014976D01*
X022188Y014975D02*
X022286Y014876D01*
X022415Y014823D01*
X022554Y014823D01*
X022683Y014876D01*
X022781Y014975D01*
X022818Y015063D01*
X022915Y015023D01*
X023054Y015023D01*
X023183Y015076D01*
X023281Y015175D01*
X023334Y015303D01*
X023334Y015440D01*
X024062Y016168D01*
X024083Y016176D01*
X024181Y016275D01*
X024218Y016363D01*
X024315Y016323D01*
X024452Y016323D01*
X024784Y015990D01*
X024902Y015873D01*
X025089Y015873D01*
X025186Y015776D01*
X025315Y015723D01*
X025454Y015723D01*
X025583Y015776D01*
X025681Y015875D01*
X025734Y016003D01*
X025734Y016123D01*
X025854Y016123D01*
X025983Y016176D01*
X026081Y016275D01*
X026134Y016403D01*
X026134Y016543D01*
X026081Y016671D01*
X025983Y016770D01*
X025854Y016823D01*
X025715Y016823D01*
X025586Y016770D01*
X025489Y016673D01*
X025367Y016673D01*
X025234Y016806D01*
X025234Y016943D01*
X025181Y017071D01*
X025083Y017170D01*
X024954Y017223D01*
X024815Y017223D01*
X024686Y017170D01*
X024588Y017071D01*
X024551Y016983D01*
X024454Y017023D01*
X024315Y017023D01*
X024186Y016970D01*
X024088Y016871D01*
X024051Y016783D01*
X023954Y016823D01*
X023815Y016823D01*
X023686Y016770D01*
X023588Y016671D01*
X023551Y016583D01*
X023454Y016623D01*
X023315Y016623D01*
X023186Y016570D01*
X023088Y016471D01*
X023034Y016343D01*
X023034Y016306D01*
X022723Y015994D01*
X022654Y016023D01*
X022515Y016023D01*
X022386Y015970D01*
X022288Y015871D01*
X022234Y015743D01*
X022234Y015706D01*
X022234Y017256D01*
X022117Y017373D01*
X021917Y017573D01*
X021920Y017576D01*
X022248Y017576D01*
X022336Y017664D01*
X022336Y017723D01*
X022433Y017723D01*
X022433Y017664D01*
X022521Y017576D01*
X023079Y017576D01*
X023134Y017632D01*
X023190Y017576D01*
X023748Y017576D01*
X023836Y017664D01*
X023836Y018182D01*
X023748Y018270D01*
X023669Y018270D01*
X023669Y018529D01*
X023831Y018691D01*
X023831Y019655D01*
X023570Y019917D01*
X023199Y019917D01*
X022938Y019655D01*
X022938Y018691D01*
X023199Y018429D01*
X023269Y018429D01*
X023269Y018270D01*
X023190Y018270D01*
X023134Y018214D01*
X023079Y018270D01*
X022584Y018270D01*
X022584Y018444D01*
X022831Y018691D01*
X022831Y019655D01*
X022570Y019917D01*
X022199Y019917D01*
X021938Y019655D01*
X021938Y018691D01*
X022184Y018444D01*
X022184Y018270D01*
X021690Y018270D01*
X021634Y018214D01*
X021579Y018270D01*
X021500Y018270D01*
X021500Y018429D01*
X021570Y018429D01*
X021831Y018691D01*
X021831Y019655D01*
X021570Y019917D01*
X021199Y019917D01*
X020938Y019655D01*
X020938Y018691D01*
X021100Y018529D01*
X021100Y018270D01*
X021021Y018270D01*
X020933Y018182D01*
X020933Y017773D01*
X020867Y017773D01*
X020836Y017805D01*
X020836Y018182D01*
X020748Y018270D01*
X020190Y018270D01*
X020134Y018214D01*
X020121Y018227D01*
X020324Y018429D01*
X020570Y018429D01*
X020831Y018691D01*
X020831Y019655D01*
X020570Y019917D01*
X020199Y019917D01*
X019938Y019655D01*
X019938Y018691D01*
X019979Y018650D01*
X019600Y018271D01*
X019600Y018270D01*
X019521Y018270D01*
X019433Y018182D01*
X019433Y017664D01*
X019521Y017576D01*
X020079Y017576D01*
X020134Y017632D01*
X020190Y017576D01*
X020499Y017576D01*
X020702Y017373D01*
X020867Y017373D01*
X021552Y017373D01*
X021834Y017090D01*
X021834Y015540D01*
X021952Y015423D01*
X022134Y015240D01*
X022134Y015103D01*
X022188Y014975D01*
X022146Y015075D02*
X011881Y015075D01*
X011951Y015174D02*
X022134Y015174D01*
X022103Y015272D02*
X011984Y015272D01*
X011984Y015371D02*
X022004Y015371D01*
X021952Y015423D02*
X021952Y015423D01*
X021906Y015469D02*
X012063Y015469D01*
X012231Y015568D02*
X021834Y015568D01*
X021834Y015666D02*
X012231Y015666D01*
X012231Y015765D02*
X021834Y015765D01*
X021834Y015863D02*
X012231Y015863D01*
X012231Y015962D02*
X021834Y015962D01*
X021834Y016060D02*
X012231Y016060D01*
X012189Y016159D02*
X021834Y016159D01*
X021834Y016257D02*
X012231Y016257D01*
X012231Y016356D02*
X021834Y016356D01*
X021834Y016455D02*
X012231Y016455D01*
X012231Y016553D02*
X012772Y016553D01*
X012673Y016652D02*
X012231Y016652D01*
X012231Y016750D02*
X012575Y016750D01*
X012584Y017023D02*
X012934Y016673D01*
X015384Y016673D01*
X015384Y017273D01*
X014484Y018173D01*
X013334Y018173D01*
X013014Y018031D02*
X003584Y018031D01*
X003584Y017933D02*
X013080Y017933D01*
X013238Y017834D02*
X003584Y017834D01*
X003584Y017736D02*
X014639Y017736D01*
X014541Y017834D02*
X013431Y017834D01*
X013589Y017933D02*
X014442Y017933D01*
X014712Y018228D02*
X019480Y018228D01*
X019433Y018130D02*
X014811Y018130D01*
X014909Y018031D02*
X019433Y018031D01*
X019433Y017933D02*
X015008Y017933D01*
X015106Y017834D02*
X019433Y017834D01*
X019433Y017736D02*
X016367Y017736D01*
X016445Y017637D02*
X019460Y017637D01*
X019800Y017923D02*
X019800Y018188D01*
X020384Y018773D01*
X020384Y019173D01*
X019938Y019214D02*
X019433Y019214D01*
X019433Y019221D02*
X019831Y019221D01*
X019831Y019655D01*
X019570Y019917D01*
X019433Y019917D01*
X019433Y019222D01*
X019336Y019222D01*
X019336Y019917D01*
X019199Y019917D01*
X018938Y019655D01*
X018938Y019221D01*
X019336Y019221D01*
X019336Y019125D01*
X018938Y019125D01*
X018938Y018691D01*
X019199Y018429D01*
X019336Y018429D01*
X019336Y019124D01*
X019433Y019124D01*
X019433Y018429D01*
X019570Y018429D01*
X019831Y018691D01*
X019831Y019125D01*
X019433Y019125D01*
X019433Y019221D01*
X019433Y019312D02*
X019336Y019312D01*
X019336Y019214D02*
X003584Y019214D01*
X003584Y019312D02*
X004566Y019312D01*
X004653Y019226D02*
X005616Y019226D01*
X005878Y019488D01*
X005878Y019858D01*
X005616Y020120D01*
X004653Y020120D01*
X004391Y019858D01*
X004391Y019488D01*
X004653Y019226D01*
X004653Y019120D02*
X004391Y018858D01*
X004391Y018721D01*
X005086Y018721D01*
X003584Y018721D01*
X003584Y018623D02*
X004391Y018623D01*
X004391Y018625D02*
X004391Y018488D01*
X004653Y018226D01*
X005086Y018226D01*
X005086Y018624D01*
X005183Y018624D01*
X005183Y018226D01*
X005616Y018226D01*
X005878Y018488D01*
X005878Y018625D01*
X005183Y018625D01*
X005183Y018721D01*
X018938Y018721D01*
X018938Y018820D02*
X005878Y018820D01*
X005878Y018858D02*
X005616Y019120D01*
X005183Y019120D01*
X005183Y018722D01*
X005086Y018722D01*
X005086Y019120D01*
X004653Y019120D01*
X004648Y019115D02*
X003584Y019115D01*
X003584Y019017D02*
X004549Y019017D01*
X004451Y018918D02*
X003584Y018918D01*
X003584Y018820D02*
X004391Y018820D01*
X004391Y018625D02*
X005086Y018625D01*
X005086Y018721D01*
X005183Y018721D02*
X005878Y018721D01*
X005878Y018858D01*
X005818Y018918D02*
X018938Y018918D01*
X018938Y019017D02*
X005720Y019017D01*
X005621Y019115D02*
X018938Y019115D01*
X018938Y019312D02*
X005702Y019312D01*
X005801Y019411D02*
X018938Y019411D01*
X018938Y019509D02*
X005878Y019509D01*
X005878Y019608D02*
X018938Y019608D01*
X018989Y019706D02*
X005878Y019706D01*
X005878Y019805D02*
X019088Y019805D01*
X019186Y019904D02*
X005833Y019904D01*
X005734Y020002D02*
X031625Y020002D01*
X031648Y020025D02*
X031282Y019659D01*
X031084Y019182D01*
X031084Y018973D01*
X032334Y018973D01*
X032334Y018873D01*
X031084Y018873D01*
X031084Y018664D01*
X031282Y018187D01*
X031648Y017821D01*
X032126Y017623D01*
X032334Y017623D01*
X032334Y018873D01*
X032434Y018873D01*
X032434Y017623D01*
X032643Y017623D01*
X033121Y017821D01*
X033487Y018187D01*
X033684Y018664D01*
X033684Y018873D01*
X032435Y018873D01*
X032435Y018973D01*
X033684Y018973D01*
X033684Y019182D01*
X033487Y019659D01*
X033121Y020025D01*
X032643Y020223D01*
X032434Y020223D01*
X032434Y018973D01*
X032334Y018973D01*
X032334Y020223D01*
X032126Y020223D01*
X031648Y020025D01*
X031527Y019904D02*
X029083Y019904D01*
X029070Y019917D02*
X028699Y019917D01*
X028438Y019655D01*
X028438Y018691D01*
X028699Y018429D01*
X028769Y018429D01*
X028769Y018270D01*
X028690Y018270D01*
X028634Y018214D01*
X028579Y018270D01*
X028084Y018270D01*
X028084Y018444D01*
X028331Y018691D01*
X028331Y019655D01*
X028070Y019917D01*
X027699Y019917D01*
X027438Y019655D01*
X027438Y018691D01*
X027684Y018444D01*
X027684Y018270D01*
X027190Y018270D01*
X027134Y018214D01*
X027079Y018270D01*
X027000Y018270D01*
X027000Y018429D01*
X027070Y018429D01*
X027331Y018691D01*
X027331Y019655D01*
X027070Y019917D01*
X026699Y019917D01*
X026438Y019655D01*
X026438Y018691D01*
X026600Y018529D01*
X026600Y018270D01*
X026521Y018270D01*
X026433Y018182D01*
X026433Y017773D01*
X026367Y017773D01*
X026336Y017805D01*
X026336Y018182D01*
X026248Y018270D01*
X025690Y018270D01*
X025634Y018214D01*
X025621Y018227D01*
X025824Y018429D01*
X026070Y018429D01*
X026331Y018691D01*
X026331Y019655D01*
X026070Y019917D01*
X025699Y019917D01*
X025438Y019655D01*
X025438Y018691D01*
X025479Y018650D01*
X025100Y018271D01*
X025100Y018270D01*
X025021Y018270D01*
X024933Y018182D01*
X024933Y017664D01*
X025021Y017576D01*
X025579Y017576D01*
X025634Y017632D01*
X025690Y017576D01*
X025999Y017576D01*
X026202Y017373D01*
X026367Y017373D01*
X027217Y017373D01*
X027334Y017490D01*
X027420Y017576D01*
X027684Y017576D01*
X027684Y017168D01*
X027588Y017071D01*
X027534Y016943D01*
X027534Y016803D01*
X027588Y016675D01*
X027686Y016576D01*
X027815Y016523D01*
X027954Y016523D01*
X028083Y016576D01*
X028181Y016675D01*
X028234Y016803D01*
X028234Y016943D01*
X028181Y017071D01*
X028084Y017168D01*
X028084Y017576D01*
X028579Y017576D01*
X028634Y017632D01*
X028690Y017576D01*
X029248Y017576D01*
X029336Y017664D01*
X029336Y018182D01*
X029248Y018270D01*
X029169Y018270D01*
X029169Y018529D01*
X029331Y018691D01*
X029331Y019655D01*
X029070Y019917D01*
X029181Y019805D02*
X031428Y019805D01*
X031329Y019706D02*
X029280Y019706D01*
X029331Y019608D02*
X031261Y019608D01*
X031220Y019509D02*
X029331Y019509D01*
X029331Y019411D02*
X031179Y019411D01*
X031139Y019312D02*
X029331Y019312D01*
X029331Y019214D02*
X031098Y019214D01*
X031084Y019115D02*
X029331Y019115D01*
X029331Y019017D02*
X031084Y019017D01*
X031084Y018820D02*
X029331Y018820D01*
X029331Y018918D02*
X032334Y018918D01*
X032334Y018820D02*
X032434Y018820D01*
X032435Y018918D02*
X033684Y018918D01*
X033684Y018820D02*
X033684Y018820D01*
X033684Y018721D02*
X033684Y018721D01*
X033684Y018623D02*
X033667Y018623D01*
X033684Y018524D02*
X033626Y018524D01*
X033585Y018425D02*
X033684Y018425D01*
X033684Y018327D02*
X033545Y018327D01*
X033504Y018228D02*
X033684Y018228D01*
X033684Y018130D02*
X033430Y018130D01*
X033331Y018031D02*
X033684Y018031D01*
X033684Y017933D02*
X033233Y017933D01*
X033134Y017834D02*
X033684Y017834D01*
X033684Y017736D02*
X032915Y017736D01*
X032677Y017637D02*
X033684Y017637D01*
X033684Y017539D02*
X028084Y017539D01*
X028084Y017440D02*
X033684Y017440D01*
X033684Y017341D02*
X028084Y017341D01*
X028084Y017243D02*
X033684Y017243D01*
X033684Y017144D02*
X028108Y017144D01*
X028192Y017046D02*
X033684Y017046D01*
X033684Y016947D02*
X028233Y016947D01*
X028234Y016849D02*
X033684Y016849D01*
X033684Y016750D02*
X028212Y016750D01*
X028158Y016652D02*
X033684Y016652D01*
X033684Y016553D02*
X028027Y016553D01*
X027742Y016553D02*
X026130Y016553D01*
X026134Y016455D02*
X033684Y016455D01*
X033684Y016356D02*
X026115Y016356D01*
X026064Y016257D02*
X033684Y016257D01*
X033684Y016159D02*
X025941Y016159D01*
X025734Y016060D02*
X033684Y016060D01*
X033684Y015962D02*
X025717Y015962D01*
X025670Y015863D02*
X032241Y015863D01*
X032265Y015873D02*
X032136Y015820D01*
X032038Y015721D01*
X031984Y015593D01*
X031984Y015453D01*
X032038Y015325D01*
X032136Y015226D01*
X032265Y015173D01*
X032404Y015173D01*
X032533Y015226D01*
X032629Y015323D01*
X032739Y015323D01*
X032836Y015226D01*
X032965Y015173D01*
X033104Y015173D01*
X033233Y015226D01*
X033331Y015325D01*
X033384Y015453D01*
X033384Y015593D01*
X033331Y015721D01*
X033233Y015820D01*
X033104Y015873D01*
X032965Y015873D01*
X032836Y015820D01*
X032739Y015723D01*
X032629Y015723D01*
X032533Y015820D01*
X032404Y015873D01*
X032265Y015873D01*
X032428Y015863D02*
X032941Y015863D01*
X033128Y015863D02*
X033684Y015863D01*
X033684Y015765D02*
X033288Y015765D01*
X033354Y015666D02*
X033684Y015666D01*
X033684Y015568D02*
X033384Y015568D01*
X033384Y015469D02*
X033684Y015469D01*
X033684Y015371D02*
X033350Y015371D01*
X033278Y015272D02*
X033684Y015272D01*
X033684Y015174D02*
X033105Y015174D01*
X032964Y015174D02*
X032405Y015174D01*
X032264Y015174D02*
X023280Y015174D01*
X023321Y015272D02*
X032091Y015272D01*
X032019Y015371D02*
X023334Y015371D01*
X023363Y015469D02*
X031984Y015469D01*
X031984Y015568D02*
X023462Y015568D01*
X023560Y015666D02*
X032015Y015666D01*
X032081Y015765D02*
X025555Y015765D01*
X025214Y015765D02*
X023659Y015765D01*
X023757Y015863D02*
X025099Y015863D01*
X024984Y016073D02*
X025384Y016073D01*
X024984Y016073D02*
X024384Y016673D01*
X024235Y016356D02*
X024215Y016356D01*
X024164Y016257D02*
X024517Y016257D01*
X024616Y016159D02*
X024053Y016159D01*
X023955Y016060D02*
X024714Y016060D01*
X024813Y015962D02*
X023856Y015962D01*
X023884Y016273D02*
X022984Y015373D01*
X023179Y015075D02*
X033684Y015075D01*
X033684Y014976D02*
X022782Y014976D01*
X022684Y014878D02*
X033684Y014878D01*
X033684Y014779D02*
X012731Y014779D01*
X012731Y014681D02*
X033684Y014681D01*
X033684Y014582D02*
X012731Y014582D01*
X012731Y014385D02*
X033684Y014385D01*
X033684Y014287D02*
X012731Y014287D01*
X012690Y014188D02*
X033684Y014188D01*
X033684Y014484D02*
X012433Y014484D01*
X012384Y014508D02*
X012384Y014573D01*
X014984Y014573D01*
X015884Y013673D01*
X015884Y013573D01*
X015334Y013343D02*
X015334Y013203D01*
X015293Y013104D02*
X033684Y013104D01*
X033684Y013006D02*
X015212Y013006D01*
X013657Y013006D02*
X011934Y013006D01*
X011934Y012907D02*
X033684Y012907D01*
X033684Y012808D02*
X011934Y012808D01*
X011934Y012710D02*
X033684Y012710D01*
X033684Y012611D02*
X011934Y012611D01*
X011886Y013104D02*
X013576Y013104D01*
X013535Y013203D02*
X011788Y013203D01*
X011689Y013301D02*
X013534Y013301D01*
X013558Y013400D02*
X011434Y013400D01*
X011434Y013498D02*
X012099Y013498D01*
X012038Y013597D02*
X011434Y013597D01*
X011434Y013695D02*
X011567Y013695D01*
X011480Y013794D02*
X011434Y013794D01*
X011234Y013423D02*
X011234Y014173D01*
X011784Y014573D02*
X012384Y014573D01*
X012336Y014582D02*
X012433Y014582D01*
X012433Y014681D02*
X012336Y014681D01*
X012336Y014779D02*
X012433Y014779D01*
X012038Y014779D02*
X009234Y014779D01*
X009234Y014878D02*
X022285Y014878D01*
X022484Y015173D02*
X022034Y015623D01*
X022034Y017173D01*
X021634Y017573D01*
X020784Y017573D01*
X020469Y017888D01*
X020469Y017923D01*
X020836Y017933D02*
X020933Y017933D01*
X020933Y018031D02*
X020836Y018031D01*
X020836Y018130D02*
X020933Y018130D01*
X020980Y018228D02*
X020789Y018228D01*
X021100Y018327D02*
X020221Y018327D01*
X020149Y018228D02*
X020123Y018228D01*
X020320Y018425D02*
X021100Y018425D01*
X021100Y018524D02*
X020664Y018524D01*
X020763Y018623D02*
X021006Y018623D01*
X020938Y018721D02*
X020831Y018721D01*
X020831Y018820D02*
X020938Y018820D01*
X020938Y018918D02*
X020831Y018918D01*
X020831Y019017D02*
X020938Y019017D01*
X020938Y019115D02*
X020831Y019115D01*
X020831Y019214D02*
X020938Y019214D01*
X020938Y019312D02*
X020831Y019312D01*
X020831Y019411D02*
X020938Y019411D01*
X020938Y019509D02*
X020831Y019509D01*
X020831Y019608D02*
X020938Y019608D01*
X020989Y019706D02*
X020780Y019706D01*
X020681Y019805D02*
X021088Y019805D01*
X021186Y019904D02*
X020583Y019904D01*
X020186Y019904D02*
X019583Y019904D01*
X019681Y019805D02*
X020088Y019805D01*
X019989Y019706D02*
X019780Y019706D01*
X019831Y019608D02*
X019938Y019608D01*
X019938Y019509D02*
X019831Y019509D01*
X019831Y019411D02*
X019938Y019411D01*
X019938Y019312D02*
X019831Y019312D01*
X019831Y019115D02*
X019938Y019115D01*
X019938Y019017D02*
X019831Y019017D01*
X019831Y018918D02*
X019938Y018918D01*
X019938Y018820D02*
X019831Y018820D01*
X019831Y018721D02*
X019938Y018721D01*
X019951Y018623D02*
X019763Y018623D01*
X019853Y018524D02*
X019664Y018524D01*
X019754Y018425D02*
X013577Y018425D01*
X013584Y018523D02*
X013734Y018373D01*
X014834Y018373D01*
X015234Y017973D01*
X015205Y017736D02*
X015902Y017736D01*
X015824Y017637D02*
X015303Y017637D01*
X015402Y017539D02*
X015784Y017539D01*
X015784Y017440D02*
X015500Y017440D01*
X015584Y017341D02*
X015810Y017341D01*
X015870Y017243D02*
X015584Y017243D01*
X015584Y017144D02*
X015934Y017144D01*
X015934Y017046D02*
X015584Y017046D01*
X015584Y016947D02*
X015876Y016947D01*
X016134Y016923D02*
X015884Y016673D01*
X015384Y016673D01*
X015184Y016947D02*
X012943Y016947D01*
X012844Y017046D02*
X015184Y017046D01*
X015184Y017144D02*
X012746Y017144D01*
X012584Y017023D02*
X011884Y017023D01*
X011884Y016508D01*
X011538Y016356D02*
X011528Y016356D01*
X011538Y016257D02*
X010887Y016257D01*
X010911Y016356D02*
X010858Y016356D01*
X010928Y016159D02*
X011579Y016159D01*
X011538Y016060D02*
X010934Y016060D01*
X010917Y015962D02*
X011538Y015962D01*
X011538Y015863D02*
X010870Y015863D01*
X010755Y015765D02*
X011538Y015765D01*
X011538Y015666D02*
X003584Y015666D01*
X003584Y015568D02*
X011384Y015568D01*
X011316Y015469D02*
X003584Y015469D01*
X003584Y015371D02*
X011284Y015371D01*
X011284Y015272D02*
X003584Y015272D01*
X003910Y015174D02*
X003910Y015174D01*
X004555Y015174D02*
X004555Y015174D01*
X005118Y015075D02*
X005199Y015075D01*
X005566Y015075D02*
X008641Y015075D01*
X008569Y014976D02*
X005665Y014976D01*
X005763Y014878D02*
X008534Y014878D01*
X008534Y014779D02*
X005784Y014779D01*
X005784Y014681D02*
X008565Y014681D01*
X008584Y014582D02*
X005784Y014582D01*
X005784Y014484D02*
X008538Y014484D01*
X008538Y014385D02*
X005784Y014385D01*
X005778Y014287D02*
X008538Y014287D01*
X008538Y014188D02*
X005679Y014188D01*
X005480Y014188D02*
X005286Y014188D01*
X005086Y014188D02*
X005035Y014188D01*
X004835Y014188D02*
X004390Y014188D01*
X004489Y014287D02*
X004736Y014287D01*
X004540Y014385D02*
X004495Y014385D01*
X003584Y015765D02*
X010414Y015765D01*
X010299Y015863D02*
X003584Y015863D01*
X003584Y015962D02*
X010252Y015962D01*
X010234Y016060D02*
X003584Y016060D01*
X003584Y016159D02*
X010241Y016159D01*
X010282Y016257D02*
X003584Y016257D01*
X003584Y016356D02*
X010241Y016356D01*
X010183Y016455D02*
X003584Y016455D01*
X003584Y016553D02*
X010183Y016553D01*
X010183Y016652D02*
X003584Y016652D01*
X003584Y016750D02*
X010183Y016750D01*
X010183Y016849D02*
X003584Y016849D01*
X003584Y016947D02*
X010199Y016947D01*
X010550Y016688D02*
X010884Y017023D01*
X011884Y017023D01*
X011219Y016673D02*
X011219Y016638D01*
X011234Y016623D01*
X011234Y016223D01*
X011084Y016073D01*
X011171Y016356D02*
X011268Y016356D01*
X011268Y016455D02*
X011171Y016455D01*
X011171Y016553D02*
X011268Y016553D01*
X010584Y016573D02*
X010584Y016073D01*
X010584Y016573D02*
X010534Y016623D01*
X010550Y016638D01*
X010550Y016673D01*
X010550Y016688D01*
X010624Y017046D02*
X003584Y017046D01*
X003584Y017144D02*
X010723Y017144D01*
X011884Y015838D02*
X011884Y015573D01*
X011634Y015323D01*
X012038Y014681D02*
X009204Y014681D01*
X009185Y014582D02*
X012038Y014582D01*
X012731Y014090D02*
X013734Y014090D01*
X013607Y013991D02*
X012731Y013991D01*
X012038Y013695D02*
X012002Y013695D01*
X011234Y013423D02*
X010984Y013173D01*
X008884Y014258D02*
X008884Y014823D01*
X006600Y011922D02*
X006494Y011922D01*
X004873Y012020D02*
X003584Y012020D01*
X003584Y011922D02*
X004775Y011922D01*
X004704Y011823D02*
X003584Y011823D01*
X003584Y011724D02*
X004704Y011724D01*
X004704Y011626D02*
X003584Y011626D01*
X003584Y011527D02*
X004704Y011527D01*
X004771Y011429D02*
X003584Y011429D01*
X003584Y017243D02*
X015132Y017243D01*
X015033Y017341D02*
X003584Y017341D01*
X003584Y017440D02*
X014935Y017440D01*
X014836Y017539D02*
X003584Y017539D01*
X003584Y017637D02*
X014738Y017637D01*
X014613Y018327D02*
X019656Y018327D01*
X019433Y018524D02*
X019336Y018524D01*
X019336Y018623D02*
X019433Y018623D01*
X019433Y018721D02*
X019336Y018721D01*
X019336Y018820D02*
X019433Y018820D01*
X019433Y018918D02*
X019336Y018918D01*
X019336Y019017D02*
X019433Y019017D01*
X019433Y019115D02*
X019336Y019115D01*
X019336Y019411D02*
X019433Y019411D01*
X019433Y019509D02*
X019336Y019509D01*
X019336Y019608D02*
X019433Y019608D01*
X019433Y019706D02*
X019336Y019706D01*
X019336Y019805D02*
X019433Y019805D01*
X019433Y019904D02*
X019336Y019904D01*
X019006Y018623D02*
X005878Y018623D01*
X005878Y018524D02*
X019105Y018524D01*
X020536Y017539D02*
X016484Y017539D01*
X016484Y017440D02*
X020635Y017440D01*
X020836Y017834D02*
X020933Y017834D01*
X021300Y017923D02*
X021300Y019088D01*
X021384Y019173D01*
X021831Y019214D02*
X021938Y019214D01*
X021938Y019312D02*
X021831Y019312D01*
X021831Y019411D02*
X021938Y019411D01*
X021938Y019509D02*
X021831Y019509D01*
X021831Y019608D02*
X021938Y019608D01*
X021989Y019706D02*
X021780Y019706D01*
X021681Y019805D02*
X022088Y019805D01*
X022186Y019904D02*
X021583Y019904D01*
X022583Y019904D02*
X023186Y019904D01*
X023088Y019805D02*
X022681Y019805D01*
X022780Y019706D02*
X022989Y019706D01*
X022938Y019608D02*
X022831Y019608D01*
X022831Y019509D02*
X022938Y019509D01*
X022938Y019411D02*
X022831Y019411D01*
X022831Y019312D02*
X022938Y019312D01*
X022938Y019214D02*
X022831Y019214D01*
X022831Y019115D02*
X022938Y019115D01*
X022938Y019017D02*
X022831Y019017D01*
X022831Y018918D02*
X022938Y018918D01*
X022938Y018820D02*
X022831Y018820D01*
X022831Y018721D02*
X022938Y018721D01*
X023006Y018623D02*
X022763Y018623D01*
X022664Y018524D02*
X023105Y018524D01*
X023269Y018425D02*
X022584Y018425D01*
X022584Y018327D02*
X023269Y018327D01*
X023149Y018228D02*
X023120Y018228D01*
X022800Y017923D02*
X022384Y017923D01*
X022384Y019173D01*
X021938Y019115D02*
X021831Y019115D01*
X021831Y019017D02*
X021938Y019017D01*
X021938Y018918D02*
X021831Y018918D01*
X021831Y018820D02*
X021938Y018820D01*
X021938Y018721D02*
X021831Y018721D01*
X021763Y018623D02*
X022006Y018623D01*
X022105Y018524D02*
X021664Y018524D01*
X021500Y018425D02*
X022184Y018425D01*
X022184Y018327D02*
X021500Y018327D01*
X021620Y018228D02*
X021649Y018228D01*
X021969Y017923D02*
X021969Y017908D01*
X021634Y017573D01*
X021583Y017341D02*
X016459Y017341D01*
X016399Y017243D02*
X021682Y017243D01*
X021780Y017144D02*
X016334Y017144D01*
X016334Y017046D02*
X021834Y017046D01*
X021834Y016947D02*
X016334Y016947D01*
X016334Y016849D02*
X021834Y016849D01*
X021834Y016750D02*
X016244Y016750D01*
X016146Y016652D02*
X021834Y016652D01*
X021834Y016553D02*
X016047Y016553D01*
X016134Y016923D02*
X016134Y017473D01*
X013584Y018523D02*
X012984Y018523D01*
X012884Y018423D01*
X012884Y020173D01*
X013092Y018425D02*
X005816Y018425D01*
X005717Y018327D02*
X013019Y018327D01*
X012984Y018228D02*
X005619Y018228D01*
X005183Y018228D02*
X005086Y018228D01*
X005086Y018327D02*
X005183Y018327D01*
X005183Y018425D02*
X005086Y018425D01*
X005086Y018524D02*
X005183Y018524D01*
X005183Y018623D02*
X005086Y018623D01*
X005086Y018820D02*
X005183Y018820D01*
X005183Y018918D02*
X005086Y018918D01*
X005086Y019017D02*
X005183Y019017D01*
X005183Y019115D02*
X005086Y019115D01*
X004468Y019411D02*
X003584Y019411D01*
X003584Y019509D02*
X004391Y019509D01*
X004391Y019608D02*
X003584Y019608D01*
X003584Y019706D02*
X004391Y019706D01*
X004391Y019805D02*
X003584Y019805D01*
X003584Y019904D02*
X004436Y019904D01*
X004535Y020002D02*
X003584Y020002D01*
X003584Y020101D02*
X004633Y020101D01*
X005636Y020101D02*
X031830Y020101D01*
X032068Y020199D02*
X003584Y020199D01*
X003584Y018524D02*
X004391Y018524D01*
X004453Y018425D02*
X003584Y018425D01*
X003584Y018327D02*
X004552Y018327D01*
X004650Y018228D02*
X003584Y018228D01*
X003584Y018130D02*
X012984Y018130D01*
X021952Y017539D02*
X026036Y017539D01*
X026135Y017440D02*
X022050Y017440D01*
X022117Y017373D02*
X022117Y017373D01*
X022149Y017341D02*
X027684Y017341D01*
X027684Y017243D02*
X022234Y017243D01*
X022234Y017144D02*
X024661Y017144D01*
X024577Y017046D02*
X022234Y017046D01*
X022234Y016947D02*
X024164Y016947D01*
X024078Y016849D02*
X022234Y016849D01*
X022234Y016750D02*
X023667Y016750D01*
X023580Y016652D02*
X022234Y016652D01*
X022234Y016553D02*
X023170Y016553D01*
X023081Y016455D02*
X022234Y016455D01*
X022234Y016356D02*
X023040Y016356D01*
X022986Y016257D02*
X022234Y016257D01*
X022234Y016159D02*
X022888Y016159D01*
X022789Y016060D02*
X022234Y016060D01*
X022234Y015962D02*
X022378Y015962D01*
X022284Y015863D02*
X022234Y015863D01*
X022234Y015765D02*
X022244Y015765D01*
X022234Y015706D02*
X022234Y015706D01*
X022584Y015673D02*
X022684Y015673D01*
X023284Y016273D01*
X023384Y016273D01*
X023884Y016273D02*
X023884Y016473D01*
X024884Y016873D02*
X025284Y016473D01*
X025784Y016473D01*
X025567Y016750D02*
X025290Y016750D01*
X025234Y016849D02*
X027534Y016849D01*
X027536Y016947D02*
X025233Y016947D01*
X025192Y017046D02*
X027577Y017046D01*
X027661Y017144D02*
X025108Y017144D01*
X024960Y017637D02*
X023809Y017637D01*
X023836Y017736D02*
X024933Y017736D01*
X024933Y017834D02*
X023836Y017834D01*
X023836Y017933D02*
X024933Y017933D01*
X024933Y018031D02*
X023836Y018031D01*
X023836Y018130D02*
X024933Y018130D01*
X024980Y018228D02*
X023789Y018228D01*
X023669Y018327D02*
X025156Y018327D01*
X025070Y018429D02*
X025331Y018691D01*
X025331Y019125D01*
X024933Y019125D01*
X024933Y019221D01*
X025331Y019221D01*
X025331Y019655D01*
X025070Y019917D01*
X024933Y019917D01*
X024933Y019222D01*
X024836Y019222D01*
X024836Y019917D01*
X024699Y019917D01*
X024438Y019655D01*
X024438Y019221D01*
X024836Y019221D01*
X024836Y019125D01*
X024438Y019125D01*
X024438Y018691D01*
X024699Y018429D01*
X024836Y018429D01*
X024836Y019124D01*
X024933Y019124D01*
X024933Y018429D01*
X025070Y018429D01*
X025164Y018524D02*
X025353Y018524D01*
X025263Y018623D02*
X025451Y018623D01*
X025438Y018721D02*
X025331Y018721D01*
X025331Y018820D02*
X025438Y018820D01*
X025438Y018918D02*
X025331Y018918D01*
X025331Y019017D02*
X025438Y019017D01*
X025438Y019115D02*
X025331Y019115D01*
X025438Y019214D02*
X024933Y019214D01*
X024836Y019214D02*
X023831Y019214D01*
X023831Y019312D02*
X024438Y019312D01*
X024438Y019411D02*
X023831Y019411D01*
X023831Y019509D02*
X024438Y019509D01*
X024438Y019608D02*
X023831Y019608D01*
X023780Y019706D02*
X024489Y019706D01*
X024588Y019805D02*
X023681Y019805D01*
X023583Y019904D02*
X024686Y019904D01*
X024836Y019904D02*
X024933Y019904D01*
X024933Y019805D02*
X024836Y019805D01*
X024836Y019706D02*
X024933Y019706D01*
X024933Y019608D02*
X024836Y019608D01*
X024836Y019509D02*
X024933Y019509D01*
X024933Y019411D02*
X024836Y019411D01*
X024836Y019312D02*
X024933Y019312D01*
X024933Y019115D02*
X024836Y019115D01*
X024836Y019017D02*
X024933Y019017D01*
X024933Y018918D02*
X024836Y018918D01*
X024836Y018820D02*
X024933Y018820D01*
X024933Y018721D02*
X024836Y018721D01*
X024836Y018623D02*
X024933Y018623D01*
X024933Y018524D02*
X024836Y018524D01*
X024605Y018524D02*
X023669Y018524D01*
X023669Y018425D02*
X025254Y018425D01*
X025300Y018188D02*
X025884Y018773D01*
X025884Y019173D01*
X026331Y019214D02*
X026438Y019214D01*
X026438Y019312D02*
X026331Y019312D01*
X026331Y019411D02*
X026438Y019411D01*
X026438Y019509D02*
X026331Y019509D01*
X026331Y019608D02*
X026438Y019608D01*
X026489Y019706D02*
X026280Y019706D01*
X026181Y019805D02*
X026588Y019805D01*
X026686Y019904D02*
X026083Y019904D01*
X025686Y019904D02*
X025083Y019904D01*
X025181Y019805D02*
X025588Y019805D01*
X025489Y019706D02*
X025280Y019706D01*
X025331Y019608D02*
X025438Y019608D01*
X025438Y019509D02*
X025331Y019509D01*
X025331Y019411D02*
X025438Y019411D01*
X025438Y019312D02*
X025331Y019312D01*
X024438Y019115D02*
X023831Y019115D01*
X023831Y019017D02*
X024438Y019017D01*
X024438Y018918D02*
X023831Y018918D01*
X023831Y018820D02*
X024438Y018820D01*
X024438Y018721D02*
X023831Y018721D01*
X023763Y018623D02*
X024506Y018623D01*
X025300Y018188D02*
X025300Y017923D01*
X025623Y018228D02*
X025649Y018228D01*
X025721Y018327D02*
X026600Y018327D01*
X026600Y018425D02*
X025820Y018425D01*
X026164Y018524D02*
X026600Y018524D01*
X026506Y018623D02*
X026263Y018623D01*
X026331Y018721D02*
X026438Y018721D01*
X026438Y018820D02*
X026331Y018820D01*
X026331Y018918D02*
X026438Y018918D01*
X026438Y019017D02*
X026331Y019017D01*
X026331Y019115D02*
X026438Y019115D01*
X026800Y019088D02*
X026884Y019173D01*
X026800Y019088D02*
X026800Y017923D01*
X027120Y018228D02*
X027149Y018228D01*
X027000Y018327D02*
X027684Y018327D01*
X027684Y018425D02*
X027000Y018425D01*
X027164Y018524D02*
X027605Y018524D01*
X027506Y018623D02*
X027263Y018623D01*
X027331Y018721D02*
X027438Y018721D01*
X027438Y018820D02*
X027331Y018820D01*
X027331Y018918D02*
X027438Y018918D01*
X027438Y019017D02*
X027331Y019017D01*
X027331Y019115D02*
X027438Y019115D01*
X027438Y019214D02*
X027331Y019214D01*
X027331Y019312D02*
X027438Y019312D01*
X027438Y019411D02*
X027331Y019411D01*
X027331Y019509D02*
X027438Y019509D01*
X027438Y019608D02*
X027331Y019608D01*
X027280Y019706D02*
X027489Y019706D01*
X027588Y019805D02*
X027181Y019805D01*
X027083Y019904D02*
X027686Y019904D01*
X028083Y019904D02*
X028686Y019904D01*
X028588Y019805D02*
X028181Y019805D01*
X028280Y019706D02*
X028489Y019706D01*
X028438Y019608D02*
X028331Y019608D01*
X028331Y019509D02*
X028438Y019509D01*
X028438Y019411D02*
X028331Y019411D01*
X028331Y019312D02*
X028438Y019312D01*
X028438Y019214D02*
X028331Y019214D01*
X028331Y019115D02*
X028438Y019115D01*
X028438Y019017D02*
X028331Y019017D01*
X028331Y018918D02*
X028438Y018918D01*
X028438Y018820D02*
X028331Y018820D01*
X028331Y018721D02*
X028438Y018721D01*
X028506Y018623D02*
X028263Y018623D01*
X028164Y018524D02*
X028605Y018524D01*
X028769Y018425D02*
X028084Y018425D01*
X028084Y018327D02*
X028769Y018327D01*
X028649Y018228D02*
X028620Y018228D01*
X028300Y017923D02*
X027884Y017923D01*
X027884Y016873D01*
X027556Y016750D02*
X026002Y016750D01*
X026089Y016652D02*
X027611Y016652D01*
X027684Y017440D02*
X027284Y017440D01*
X027383Y017539D02*
X027684Y017539D01*
X027469Y017908D02*
X027134Y017573D01*
X026284Y017573D01*
X025969Y017888D01*
X025969Y017923D01*
X026336Y017933D02*
X026433Y017933D01*
X026433Y018031D02*
X026336Y018031D01*
X026336Y018130D02*
X026433Y018130D01*
X026480Y018228D02*
X026289Y018228D01*
X026336Y017834D02*
X026433Y017834D01*
X027469Y017908D02*
X027469Y017923D01*
X027884Y017923D01*
X027884Y019173D01*
X028884Y019173D02*
X028969Y019088D01*
X028969Y017923D01*
X029336Y017933D02*
X031536Y017933D01*
X031438Y018031D02*
X029336Y018031D01*
X029336Y018130D02*
X031339Y018130D01*
X031265Y018228D02*
X029289Y018228D01*
X029169Y018327D02*
X031224Y018327D01*
X031183Y018425D02*
X029169Y018425D01*
X029169Y018524D02*
X031143Y018524D01*
X031102Y018623D02*
X029263Y018623D01*
X029331Y018721D02*
X031084Y018721D01*
X032334Y018721D02*
X032434Y018721D01*
X032434Y018623D02*
X032334Y018623D01*
X032334Y018524D02*
X032434Y018524D01*
X032434Y018425D02*
X032334Y018425D01*
X032334Y018327D02*
X032434Y018327D01*
X032434Y018228D02*
X032334Y018228D01*
X032334Y018130D02*
X032434Y018130D01*
X032434Y018031D02*
X032334Y018031D01*
X032334Y017933D02*
X032434Y017933D01*
X032434Y017834D02*
X032334Y017834D01*
X032334Y017736D02*
X032434Y017736D01*
X032434Y017637D02*
X032334Y017637D01*
X032092Y017637D02*
X029309Y017637D01*
X029336Y017736D02*
X031854Y017736D01*
X031635Y017834D02*
X029336Y017834D01*
X032334Y019017D02*
X032434Y019017D01*
X032434Y019115D02*
X032334Y019115D01*
X032334Y019214D02*
X032434Y019214D01*
X032434Y019312D02*
X032334Y019312D01*
X032334Y019411D02*
X032434Y019411D01*
X032434Y019509D02*
X032334Y019509D01*
X032334Y019608D02*
X032434Y019608D01*
X032434Y019706D02*
X032334Y019706D01*
X032334Y019805D02*
X032434Y019805D01*
X032434Y019904D02*
X032334Y019904D01*
X032334Y020002D02*
X032434Y020002D01*
X032434Y020101D02*
X032334Y020101D01*
X032334Y020199D02*
X032434Y020199D01*
X032701Y020199D02*
X033684Y020199D01*
X033684Y020101D02*
X032939Y020101D01*
X033144Y020002D02*
X033684Y020002D01*
X033684Y019904D02*
X033242Y019904D01*
X033341Y019805D02*
X033684Y019805D01*
X033684Y019706D02*
X033439Y019706D01*
X033508Y019608D02*
X033684Y019608D01*
X033684Y019509D02*
X033549Y019509D01*
X033590Y019411D02*
X033684Y019411D01*
X033684Y019312D02*
X033630Y019312D01*
X033671Y019214D02*
X033684Y019214D01*
X033684Y019115D02*
X033684Y019115D01*
X033684Y019017D02*
X033684Y019017D01*
X032781Y015765D02*
X032588Y015765D01*
X032334Y015523D02*
X033034Y015523D01*
X032791Y015272D02*
X032578Y015272D01*
X032893Y012513D02*
X033684Y012513D01*
X033684Y012414D02*
X032992Y012414D01*
X033090Y012316D02*
X033684Y012316D01*
X033684Y012217D02*
X033189Y012217D01*
X033234Y012119D02*
X033684Y012119D01*
X033684Y012020D02*
X033234Y012020D01*
X033234Y011922D02*
X033684Y011922D01*
X033684Y011823D02*
X033667Y011823D01*
X033534Y011673D02*
X033684Y011523D01*
X033684Y006373D01*
X033134Y005823D01*
X033134Y005838D01*
X033481Y005812D02*
X033684Y005812D01*
X033684Y005910D02*
X033505Y005910D01*
X033603Y006009D02*
X033684Y006009D01*
X033684Y005713D02*
X033481Y005713D01*
X033481Y005615D02*
X033684Y005615D01*
X033684Y005516D02*
X033438Y005516D01*
X033684Y005418D02*
X029738Y005418D01*
X029640Y005516D02*
X032831Y005516D01*
X033684Y005319D02*
X029837Y005319D01*
X029935Y005221D02*
X033684Y005221D01*
X033684Y005122D02*
X029984Y005122D01*
X029984Y005172D02*
X029633Y005523D01*
X029136Y005523D01*
X028784Y005172D01*
X028784Y003425D01*
X028859Y003350D01*
X028859Y003081D01*
X029167Y002773D01*
X029602Y002773D01*
X029909Y003081D01*
X029909Y003350D01*
X029984Y003425D01*
X029984Y005172D01*
X029984Y005024D02*
X033684Y005024D01*
X033684Y004925D02*
X029984Y004925D01*
X029984Y004826D02*
X033684Y004826D01*
X033684Y004728D02*
X029984Y004728D01*
X029984Y004629D02*
X031900Y004629D01*
X032126Y004723D02*
X031648Y004525D01*
X031282Y004159D01*
X031084Y003682D01*
X031084Y003473D01*
X032334Y003473D01*
X032334Y003373D01*
X032434Y003373D01*
X032434Y002123D01*
X032643Y002123D01*
X033121Y002321D01*
X033487Y002687D01*
X033684Y003164D01*
X033684Y003373D01*
X032435Y003373D01*
X032435Y003473D01*
X033684Y003473D01*
X033684Y003682D01*
X033487Y004159D01*
X033121Y004525D01*
X032643Y004723D01*
X032434Y004723D01*
X032434Y003473D01*
X032334Y003473D01*
X032334Y004723D01*
X032126Y004723D01*
X032334Y004629D02*
X032434Y004629D01*
X032434Y004531D02*
X032334Y004531D01*
X032334Y004432D02*
X032434Y004432D01*
X032434Y004334D02*
X032334Y004334D01*
X032334Y004235D02*
X032434Y004235D01*
X032434Y004137D02*
X032334Y004137D01*
X032334Y004038D02*
X032434Y004038D01*
X032434Y003940D02*
X032334Y003940D01*
X032334Y003841D02*
X032434Y003841D01*
X032434Y003742D02*
X032334Y003742D01*
X032334Y003644D02*
X032434Y003644D01*
X032434Y003545D02*
X032334Y003545D01*
X032334Y003447D02*
X029984Y003447D01*
X029984Y003545D02*
X031084Y003545D01*
X031084Y003644D02*
X029984Y003644D01*
X029984Y003742D02*
X031110Y003742D01*
X031151Y003841D02*
X029984Y003841D01*
X029984Y003940D02*
X031191Y003940D01*
X031232Y004038D02*
X029984Y004038D01*
X029984Y004137D02*
X031273Y004137D01*
X031358Y004235D02*
X029984Y004235D01*
X029984Y004334D02*
X031457Y004334D01*
X031555Y004432D02*
X029984Y004432D01*
X029984Y004531D02*
X031662Y004531D01*
X032869Y004629D02*
X033684Y004629D01*
X033684Y004531D02*
X033107Y004531D01*
X033214Y004432D02*
X033684Y004432D01*
X033684Y004334D02*
X033312Y004334D01*
X033411Y004235D02*
X033684Y004235D01*
X033684Y004137D02*
X033496Y004137D01*
X033537Y004038D02*
X033684Y004038D01*
X033684Y003940D02*
X033578Y003940D01*
X033618Y003841D02*
X033684Y003841D01*
X033684Y003742D02*
X033659Y003742D01*
X033684Y003644D02*
X033684Y003644D01*
X033684Y003545D02*
X033684Y003545D01*
X033684Y003447D02*
X032435Y003447D01*
X032434Y003348D02*
X032334Y003348D01*
X032334Y003250D02*
X032434Y003250D01*
X032434Y003151D02*
X032334Y003151D01*
X032334Y003053D02*
X032434Y003053D01*
X032434Y002954D02*
X032334Y002954D01*
X032334Y002856D02*
X032434Y002856D01*
X032434Y002757D02*
X032334Y002757D01*
X032334Y002659D02*
X032434Y002659D01*
X032434Y002560D02*
X032334Y002560D01*
X032334Y002461D02*
X032434Y002461D01*
X032434Y002363D02*
X032334Y002363D01*
X032334Y002264D02*
X032434Y002264D01*
X032434Y002166D02*
X032334Y002166D01*
X032023Y002166D02*
X017457Y002166D01*
X020184Y002856D02*
X021084Y002856D01*
X021167Y002773D02*
X021602Y002773D01*
X021909Y003081D01*
X021909Y003350D01*
X021984Y003425D01*
X021984Y005172D01*
X021633Y005523D01*
X021136Y005523D01*
X020784Y005172D01*
X020784Y003425D01*
X020859Y003350D01*
X020859Y003081D01*
X021167Y002773D01*
X020986Y002954D02*
X020283Y002954D01*
X020382Y003053D02*
X020887Y003053D01*
X020859Y003151D02*
X020409Y003151D01*
X020409Y003250D02*
X020859Y003250D01*
X020859Y003348D02*
X020409Y003348D01*
X020484Y003447D02*
X020784Y003447D01*
X020784Y003545D02*
X020484Y003545D01*
X020484Y003644D02*
X020784Y003644D01*
X020784Y003742D02*
X020484Y003742D01*
X020484Y003841D02*
X020784Y003841D01*
X020784Y003940D02*
X020484Y003940D01*
X020484Y004038D02*
X020784Y004038D01*
X020784Y004137D02*
X020484Y004137D01*
X020484Y004235D02*
X020784Y004235D01*
X020784Y004334D02*
X020484Y004334D01*
X020484Y004432D02*
X020784Y004432D01*
X020784Y004531D02*
X020484Y004531D01*
X020484Y004629D02*
X020784Y004629D01*
X020784Y004728D02*
X020484Y004728D01*
X020484Y004826D02*
X020784Y004826D01*
X020784Y004925D02*
X020484Y004925D01*
X020484Y005024D02*
X020784Y005024D01*
X020784Y005122D02*
X020484Y005122D01*
X020435Y005221D02*
X020834Y005221D01*
X020932Y005319D02*
X020337Y005319D01*
X020238Y005418D02*
X021031Y005418D01*
X021129Y005516D02*
X020140Y005516D01*
X021640Y005516D02*
X025129Y005516D01*
X025136Y005523D02*
X024784Y005172D01*
X024784Y003425D01*
X024859Y003350D01*
X024859Y003081D01*
X025167Y002773D01*
X025602Y002773D01*
X025909Y003081D01*
X025909Y003350D01*
X025984Y003425D01*
X025984Y005172D01*
X025633Y005523D01*
X025136Y005523D01*
X025031Y005418D02*
X021738Y005418D01*
X021837Y005319D02*
X024932Y005319D01*
X024834Y005221D02*
X021935Y005221D01*
X021984Y005122D02*
X024784Y005122D01*
X024784Y005024D02*
X021984Y005024D01*
X021984Y004925D02*
X024784Y004925D01*
X024784Y004826D02*
X021984Y004826D01*
X021984Y004728D02*
X024784Y004728D01*
X024784Y004629D02*
X021984Y004629D01*
X021984Y004531D02*
X023625Y004531D01*
X023667Y004573D02*
X023359Y004266D01*
X023359Y003723D01*
X023834Y003723D01*
X023834Y003623D01*
X023359Y003623D01*
X023359Y003081D01*
X023667Y002773D01*
X023834Y002773D01*
X023834Y003623D01*
X023934Y003623D01*
X023934Y002773D01*
X024102Y002773D01*
X024409Y003081D01*
X024409Y003623D01*
X023935Y003623D01*
X023935Y003723D01*
X024409Y003723D01*
X024409Y004266D01*
X024102Y004573D01*
X023934Y004573D01*
X023934Y003723D01*
X023834Y003723D01*
X023834Y004573D01*
X023667Y004573D01*
X023834Y004531D02*
X023934Y004531D01*
X023934Y004432D02*
X023834Y004432D01*
X023834Y004334D02*
X023934Y004334D01*
X023934Y004235D02*
X023834Y004235D01*
X023834Y004137D02*
X023934Y004137D01*
X023934Y004038D02*
X023834Y004038D01*
X023834Y003940D02*
X023934Y003940D01*
X023934Y003841D02*
X023834Y003841D01*
X023834Y003742D02*
X023934Y003742D01*
X023935Y003644D02*
X024784Y003644D01*
X024784Y003742D02*
X024409Y003742D01*
X024409Y003841D02*
X024784Y003841D01*
X024784Y003940D02*
X024409Y003940D01*
X024409Y004038D02*
X024784Y004038D01*
X024784Y004137D02*
X024409Y004137D01*
X024409Y004235D02*
X024784Y004235D01*
X024784Y004334D02*
X024341Y004334D01*
X024243Y004432D02*
X024784Y004432D01*
X024784Y004531D02*
X024144Y004531D01*
X023526Y004432D02*
X021984Y004432D01*
X021984Y004334D02*
X023428Y004334D01*
X023359Y004235D02*
X021984Y004235D01*
X021984Y004137D02*
X023359Y004137D01*
X023359Y004038D02*
X021984Y004038D01*
X021984Y003940D02*
X023359Y003940D01*
X023359Y003841D02*
X021984Y003841D01*
X021984Y003742D02*
X023359Y003742D01*
X023359Y003545D02*
X021984Y003545D01*
X021984Y003447D02*
X023359Y003447D01*
X023359Y003348D02*
X021909Y003348D01*
X021909Y003250D02*
X023359Y003250D01*
X023359Y003151D02*
X021909Y003151D01*
X021882Y003053D02*
X023387Y003053D01*
X023486Y002954D02*
X021783Y002954D01*
X021684Y002856D02*
X023584Y002856D01*
X023834Y002856D02*
X023934Y002856D01*
X023934Y002954D02*
X023834Y002954D01*
X023834Y003053D02*
X023934Y003053D01*
X023934Y003151D02*
X023834Y003151D01*
X023834Y003250D02*
X023934Y003250D01*
X023934Y003348D02*
X023834Y003348D01*
X023834Y003447D02*
X023934Y003447D01*
X023934Y003545D02*
X023834Y003545D01*
X023834Y003644D02*
X021984Y003644D01*
X024184Y002856D02*
X025084Y002856D01*
X024986Y002954D02*
X024283Y002954D01*
X024382Y003053D02*
X024887Y003053D01*
X024859Y003151D02*
X024409Y003151D01*
X024409Y003250D02*
X024859Y003250D01*
X024859Y003348D02*
X024409Y003348D01*
X024409Y003447D02*
X024784Y003447D01*
X024784Y003545D02*
X024409Y003545D01*
X025684Y002856D02*
X027584Y002856D01*
X027667Y002773D02*
X028102Y002773D01*
X028409Y003081D01*
X028409Y003350D01*
X028484Y003425D01*
X028484Y005172D01*
X028133Y005523D01*
X027636Y005523D01*
X027284Y005172D01*
X027284Y003425D01*
X027359Y003350D01*
X027359Y003081D01*
X027667Y002773D01*
X027486Y002954D02*
X025783Y002954D01*
X025882Y003053D02*
X027387Y003053D01*
X027359Y003151D02*
X025909Y003151D01*
X025909Y003250D02*
X027359Y003250D01*
X027359Y003348D02*
X025909Y003348D01*
X025984Y003447D02*
X027284Y003447D01*
X027284Y003545D02*
X025984Y003545D01*
X025984Y003644D02*
X027284Y003644D01*
X027284Y003742D02*
X025984Y003742D01*
X025984Y003841D02*
X027284Y003841D01*
X027284Y003940D02*
X025984Y003940D01*
X025984Y004038D02*
X027284Y004038D01*
X027284Y004137D02*
X025984Y004137D01*
X025984Y004235D02*
X027284Y004235D01*
X027284Y004334D02*
X025984Y004334D01*
X025984Y004432D02*
X027284Y004432D01*
X027284Y004531D02*
X025984Y004531D01*
X025984Y004629D02*
X027284Y004629D01*
X027284Y004728D02*
X025984Y004728D01*
X025984Y004826D02*
X027284Y004826D01*
X027284Y004925D02*
X025984Y004925D01*
X025984Y005024D02*
X027284Y005024D01*
X027284Y005122D02*
X025984Y005122D01*
X025935Y005221D02*
X027334Y005221D01*
X027432Y005319D02*
X025837Y005319D01*
X025738Y005418D02*
X027531Y005418D01*
X027629Y005516D02*
X025640Y005516D01*
X028140Y005516D02*
X029129Y005516D01*
X029031Y005418D02*
X028238Y005418D01*
X028337Y005319D02*
X028932Y005319D01*
X028834Y005221D02*
X028435Y005221D01*
X028484Y005122D02*
X028784Y005122D01*
X028784Y005024D02*
X028484Y005024D01*
X028484Y004925D02*
X028784Y004925D01*
X028784Y004826D02*
X028484Y004826D01*
X028484Y004728D02*
X028784Y004728D01*
X028784Y004629D02*
X028484Y004629D01*
X028484Y004531D02*
X028784Y004531D01*
X028784Y004432D02*
X028484Y004432D01*
X028484Y004334D02*
X028784Y004334D01*
X028784Y004235D02*
X028484Y004235D01*
X028484Y004137D02*
X028784Y004137D01*
X028784Y004038D02*
X028484Y004038D01*
X028484Y003940D02*
X028784Y003940D01*
X028784Y003841D02*
X028484Y003841D01*
X028484Y003742D02*
X028784Y003742D01*
X028784Y003644D02*
X028484Y003644D01*
X028484Y003545D02*
X028784Y003545D01*
X028784Y003447D02*
X028484Y003447D01*
X028409Y003348D02*
X028859Y003348D01*
X028859Y003250D02*
X028409Y003250D01*
X028409Y003151D02*
X028859Y003151D01*
X028887Y003053D02*
X028382Y003053D01*
X028283Y002954D02*
X028986Y002954D01*
X029084Y002856D02*
X028184Y002856D01*
X029684Y002856D02*
X031212Y002856D01*
X031172Y002954D02*
X029783Y002954D01*
X029882Y003053D02*
X031131Y003053D01*
X031090Y003151D02*
X029909Y003151D01*
X029909Y003250D02*
X031084Y003250D01*
X031084Y003348D02*
X029909Y003348D01*
X032746Y002166D02*
X033684Y002166D01*
X033684Y002264D02*
X032984Y002264D01*
X033163Y002363D02*
X033684Y002363D01*
X033684Y002461D02*
X033261Y002461D01*
X033360Y002560D02*
X033684Y002560D01*
X033684Y002659D02*
X033458Y002659D01*
X033516Y002757D02*
X033684Y002757D01*
X033684Y002856D02*
X033556Y002856D01*
X033597Y002954D02*
X033684Y002954D01*
X033684Y003053D02*
X033638Y003053D01*
X033679Y003151D02*
X033684Y003151D01*
X033684Y003250D02*
X033684Y003250D01*
X033684Y003348D02*
X033684Y003348D01*
X033481Y006502D02*
X033484Y006502D01*
X033481Y006600D02*
X033484Y006600D01*
X033481Y006699D02*
X033484Y006699D01*
X033470Y006797D02*
X033484Y006797D01*
X033484Y006896D02*
X033334Y006896D01*
X033334Y006994D02*
X033484Y006994D01*
X033484Y007093D02*
X033349Y007093D01*
X033438Y007191D02*
X033484Y007191D01*
X033479Y007290D02*
X033484Y007290D01*
X033484Y007389D02*
X033484Y007389D01*
X033484Y007487D02*
X033466Y007487D01*
X033484Y007586D02*
X033417Y007586D01*
X033484Y007684D02*
X033298Y007684D01*
X033134Y007373D02*
X033134Y006508D01*
X033134Y006473D01*
X030684Y010246D02*
X030585Y010246D01*
X030585Y010345D02*
X030684Y010345D01*
X030684Y010443D02*
X030585Y010443D01*
X030585Y010542D02*
X030684Y010542D01*
X030684Y010838D02*
X030585Y010838D01*
X030585Y010936D02*
X030684Y010936D01*
X030684Y011035D02*
X030585Y011035D01*
X029989Y011035D02*
X028280Y011035D01*
X028316Y010936D02*
X029953Y010936D01*
X029953Y010838D02*
X028316Y010838D01*
X028316Y010739D02*
X029953Y010739D01*
X029953Y010542D02*
X028316Y010542D01*
X028316Y010443D02*
X029953Y010443D01*
X029953Y010345D02*
X028316Y010345D01*
X028316Y010246D02*
X029953Y010246D01*
X027684Y010246D02*
X027585Y010246D01*
X027585Y010345D02*
X027684Y010345D01*
X027684Y010443D02*
X027585Y010443D01*
X027585Y010542D02*
X027684Y010542D01*
X027684Y010838D02*
X027585Y010838D01*
X027585Y010936D02*
X027684Y010936D01*
X027684Y011035D02*
X027585Y011035D01*
X032884Y011673D02*
X033534Y011673D01*
X033484Y011429D02*
X033135Y011429D01*
X033083Y011376D02*
X033083Y011376D01*
X033037Y011330D02*
X033484Y011330D01*
X023469Y017923D02*
X023469Y019088D01*
X023384Y019173D01*
X022384Y017923D02*
X021969Y017923D01*
X022309Y017637D02*
X022460Y017637D01*
D24*
X024884Y019173D02*
X024884Y019673D01*
X024384Y020173D01*
X019884Y020173D01*
X019384Y019673D01*
X018884Y020173D01*
X012884Y020173D01*
X010134Y020173D01*
X009634Y019673D01*
X005134Y018673D02*
X004084Y018673D01*
X003634Y018223D01*
X003634Y015273D01*
X005684Y015273D01*
X006084Y015673D01*
X009484Y015673D01*
X009484Y014573D01*
X011784Y014573D01*
X010834Y015673D02*
X011084Y015923D01*
X011084Y016073D01*
X010834Y015673D02*
X009484Y015673D01*
X009484Y014573D02*
X009484Y014273D01*
X009484Y013523D01*
X005134Y011673D02*
X003634Y011673D01*
X003634Y006173D01*
X004034Y005773D01*
X003634Y005373D01*
X003634Y005073D01*
X003834Y004873D01*
X004884Y004873D01*
X004884Y003423D01*
X004884Y004873D02*
X009984Y004873D01*
X010784Y005673D01*
X011034Y005673D01*
X011234Y005673D01*
X011534Y005373D01*
X011534Y005273D01*
X011034Y005673D02*
X011034Y006823D01*
X011034Y006923D01*
X011984Y006923D01*
X011984Y007023D01*
X011984Y006923D02*
X012584Y006923D01*
X012684Y007023D01*
X013384Y007023D01*
X013384Y007008D01*
X013384Y006373D02*
X012834Y006373D01*
X012684Y006523D01*
X011984Y006523D01*
X011034Y006823D02*
X010434Y006823D01*
X009484Y006823D01*
X009484Y007323D02*
X010384Y007323D01*
X011034Y006923D02*
X011034Y008473D01*
X011134Y008573D01*
X013384Y006373D02*
X013384Y006338D01*
X009484Y005273D02*
X006534Y005273D01*
X005384Y006423D01*
X005434Y006473D01*
X005434Y007373D01*
X005134Y007673D01*
X005384Y006423D02*
X004234Y005273D01*
X003634Y011673D02*
X003634Y015273D01*
X019384Y019173D02*
X019384Y019673D01*
D25*
X019884Y009423D02*
X017634Y009423D01*
X019884Y009423D02*
X024134Y009423D01*
X028884Y009423D01*
X030634Y009423D01*
X024134Y009423D02*
X024134Y006423D01*
X023884Y006173D01*
X023884Y004923D01*
X023884Y003673D01*
M02*
