G75*
G70*
%OFA0B0*%
%FSLAX24Y24*%
%IPPOS*%
%LPD*%
%AMOC8*
5,1,8,0,0,1.08239X$1,22.5*
%
%ADD10C,0.0200*%
%ADD11C,0.0700*%
%ADD12C,0.1200*%
%ADD13C,0.0900*%
%ADD14C,0.1700*%
%ADD15R,0.0606X0.0331*%
%ADD16R,0.1272X0.1016*%
%ADD17C,0.2700*%
%ADD18R,0.0312X0.0852*%
%ADD19O,0.0712X0.1306*%
%ADD20R,0.0661X0.1134*%
%ADD21R,0.0472X0.0512*%
%ADD22R,0.0756X0.0836*%
%ADD23R,0.0512X0.0472*%
%ADD24O,0.1306X0.0712*%
%ADD25OC8,0.0672*%
%ADD26R,0.0236X0.0630*%
%ADD27R,0.0630X0.0236*%
%ADD28C,0.0624*%
%ADD29C,0.0094*%
%ADD30R,0.1140X0.0840*%
%ADD31O,0.0900X0.1650*%
%ADD32R,0.0991X0.0841*%
%ADD33R,0.1390X0.0898*%
%ADD34R,0.0836X0.0756*%
D10*
X017634Y008923D02*
X018134Y008923D01*
X018134Y009173D01*
X018634Y009173D01*
X018634Y010173D01*
X018384Y010173D01*
X018134Y010173D01*
X018134Y009923D01*
X018134Y009673D01*
X020134Y009673D01*
X020134Y009923D01*
X020134Y010173D01*
X019884Y010173D01*
X019634Y010173D01*
X019634Y009173D01*
X020134Y009173D01*
X020134Y009673D01*
X020134Y009923D02*
X020634Y009923D01*
X020634Y012423D01*
X017634Y012423D01*
X017634Y009923D01*
X018134Y009923D01*
X018134Y010012D02*
X017634Y010012D01*
X017634Y010210D02*
X018384Y010210D01*
X018384Y010173D02*
X018384Y011173D01*
X019884Y011173D01*
X019884Y010173D01*
X019884Y010210D02*
X020634Y010210D01*
X020634Y010012D02*
X020134Y010012D01*
X019884Y010409D02*
X020634Y010409D01*
X020634Y010608D02*
X019884Y010608D01*
X019884Y010673D02*
X018384Y010673D01*
X018384Y010608D02*
X017634Y010608D01*
X017634Y010806D02*
X018384Y010806D01*
X018384Y011005D02*
X017634Y011005D01*
X017634Y011203D02*
X020634Y011203D01*
X020634Y011005D02*
X019884Y011005D01*
X019884Y010806D02*
X020634Y010806D01*
X020634Y011402D02*
X017634Y011402D01*
X017634Y011600D02*
X020634Y011600D01*
X020634Y011799D02*
X017634Y011799D01*
X017634Y011997D02*
X020634Y011997D01*
X020634Y012196D02*
X017634Y012196D01*
X017634Y012394D02*
X020634Y012394D01*
X020134Y012423D02*
X020134Y013423D01*
X020634Y013423D01*
X020634Y012923D01*
X017634Y012923D01*
X017634Y009423D01*
X018134Y009423D01*
X018134Y009173D01*
X018134Y008923D02*
X020134Y008923D01*
X020134Y009173D01*
X020134Y008923D02*
X020634Y008923D01*
X020634Y012923D01*
X020634Y013423D02*
X020634Y013923D01*
X017634Y013923D01*
X017634Y013423D01*
X018134Y013423D01*
X018134Y012423D01*
X018634Y012423D02*
X018634Y013423D01*
X018134Y013423D02*
X020134Y013423D01*
X020134Y013923D01*
X018134Y013923D01*
X018134Y013423D01*
X018134Y013586D02*
X020134Y013586D01*
X020134Y013784D02*
X018134Y013784D01*
X017634Y013423D02*
X017634Y012923D01*
X019134Y012423D02*
X019134Y013423D01*
X019634Y013423D02*
X019634Y012423D01*
X019384Y011173D02*
X019384Y010173D01*
X019634Y010173D01*
X019384Y010173D02*
X019134Y010173D01*
X019134Y009173D01*
X019634Y009173D01*
X019134Y009173D02*
X018634Y009173D01*
X018134Y009423D02*
X018134Y009673D01*
X017634Y009423D02*
X017634Y008923D01*
X018634Y010173D02*
X018884Y010173D01*
X019134Y010173D01*
X018884Y010173D02*
X018884Y011173D01*
X018384Y010409D02*
X017634Y010409D01*
X021884Y011673D02*
X024134Y011673D01*
X027634Y011600D02*
X030634Y011600D01*
X030634Y011402D02*
X027634Y011402D01*
X027634Y011203D02*
X030634Y011203D01*
X030634Y011005D02*
X029884Y011005D01*
X029884Y011173D02*
X029884Y010173D01*
X029384Y010173D01*
X029384Y011173D01*
X028884Y011173D02*
X028884Y010173D01*
X028384Y010173D01*
X028384Y011173D01*
X029884Y011173D01*
X029884Y010806D02*
X030634Y010806D01*
X030634Y010608D02*
X029884Y010608D01*
X029884Y010673D02*
X028384Y010673D01*
X028384Y010608D02*
X027634Y010608D01*
X027634Y010806D02*
X028384Y010806D01*
X028384Y011005D02*
X027634Y011005D01*
X027634Y010409D02*
X028384Y010409D01*
X028384Y010210D02*
X027634Y010210D01*
X027634Y010012D02*
X028134Y010012D01*
X028134Y009923D02*
X028134Y010173D01*
X028384Y010173D01*
X028634Y010173D02*
X028634Y008923D01*
X029134Y008923D01*
X029134Y010173D01*
X029384Y010173D02*
X028884Y010173D01*
X029634Y010173D02*
X029634Y008923D01*
X030134Y008923D01*
X030134Y009173D01*
X028134Y009173D01*
X028134Y008923D01*
X028634Y008923D01*
X029134Y008923D02*
X029634Y008923D01*
X030134Y008923D02*
X030634Y008923D01*
X030634Y009423D01*
X030134Y009423D01*
X030134Y009173D01*
X030134Y009423D02*
X030134Y009673D01*
X028134Y009673D01*
X028134Y009423D01*
X028134Y009173D01*
X028134Y008923D02*
X027634Y008923D01*
X027634Y009423D01*
X028134Y009423D01*
X028134Y009673D02*
X028134Y009923D01*
X027634Y009923D01*
X027634Y012423D01*
X030634Y012423D01*
X030634Y009923D01*
X030134Y009923D01*
X030134Y009673D01*
X030134Y009923D02*
X030134Y010173D01*
X029884Y010173D01*
X029884Y010210D02*
X030634Y010210D01*
X030634Y010012D02*
X030134Y010012D01*
X029884Y010409D02*
X030634Y010409D01*
X030634Y009423D02*
X030634Y012923D01*
X027634Y012923D01*
X027634Y009423D01*
X027634Y011799D02*
X030634Y011799D01*
X030634Y011997D02*
X027634Y011997D01*
X027634Y012196D02*
X030634Y012196D01*
X030634Y012394D02*
X027634Y012394D01*
X028134Y012423D02*
X028134Y013423D01*
X027634Y013423D01*
X027634Y012923D01*
X027634Y013423D02*
X027634Y013923D01*
X030634Y013923D01*
X030634Y013423D01*
X030134Y013423D01*
X030134Y012423D01*
X029634Y012423D02*
X029634Y013423D01*
X030134Y013423D02*
X030134Y013923D01*
X028134Y013923D01*
X028134Y013423D01*
X030134Y013423D01*
X030134Y013586D02*
X028134Y013586D01*
X028134Y013784D02*
X030134Y013784D01*
X030634Y013423D02*
X030634Y012923D01*
X029134Y012423D02*
X029134Y013423D01*
X028634Y013423D02*
X028634Y012423D01*
X031884Y011673D02*
X032884Y011673D01*
D11*
X032634Y010923D02*
X031884Y010923D01*
X032634Y010923D02*
X032634Y008173D01*
X031634Y007173D01*
X031634Y005173D01*
X029634Y005173D01*
X027884Y005173D02*
X026884Y005173D01*
X026884Y005923D01*
X025634Y007173D01*
X025634Y010923D01*
X026384Y010923D01*
X026384Y011923D02*
X024134Y011923D01*
X022634Y010923D02*
X022634Y007173D01*
X021634Y006173D01*
X021634Y005173D01*
X019634Y005173D02*
X016634Y005173D01*
X016634Y007173D01*
X015634Y008173D01*
X015634Y010923D01*
X016384Y010923D01*
X016384Y011923D02*
X015634Y011923D01*
X021884Y010923D02*
X022634Y010923D01*
D12*
X021384Y004923D02*
X021384Y003673D01*
X019884Y003673D02*
X019884Y004923D01*
X027884Y004923D02*
X027884Y003673D01*
X029384Y003673D02*
X029384Y004923D01*
D13*
X029634Y007673D02*
X028634Y007673D01*
X019634Y007673D02*
X018634Y007673D01*
X018634Y015173D02*
X019634Y015173D01*
X028634Y015173D02*
X029634Y015173D01*
D14*
X024134Y011423D02*
X024134Y008923D01*
X024134Y006673D02*
X024134Y006423D01*
X025384Y005173D01*
X025384Y003673D01*
D15*
X026484Y009173D03*
X026484Y009673D03*
X026484Y010173D03*
X026484Y010673D03*
X026484Y011173D03*
X026484Y011673D03*
X026484Y012173D03*
X026484Y012673D03*
X026484Y013173D03*
X026484Y013673D03*
X021784Y013673D03*
X021784Y013173D03*
X021784Y012673D03*
X021784Y012173D03*
X021784Y011673D03*
X021784Y011173D03*
X021784Y010673D03*
X021784Y010173D03*
X021784Y009673D03*
X021784Y009173D03*
X016484Y009173D03*
X016484Y009673D03*
X016484Y010173D03*
X016484Y010673D03*
X016484Y011173D03*
X016484Y011673D03*
X016484Y012173D03*
X016484Y012673D03*
X016484Y013173D03*
X016484Y013673D03*
X031784Y013673D03*
X031784Y013173D03*
X031784Y012673D03*
X031784Y012173D03*
X031784Y011673D03*
X031784Y011173D03*
X031784Y010673D03*
X031784Y010173D03*
X031784Y009673D03*
X031784Y009173D03*
D16*
X029134Y008573D03*
X029134Y014273D03*
X019134Y014273D03*
X019134Y008573D03*
D17*
X004884Y003423D03*
X032384Y003423D03*
X032384Y018923D03*
D18*
X016134Y019133D03*
X015634Y019133D03*
X015134Y019133D03*
X014634Y019133D03*
X014134Y019133D03*
X013634Y019133D03*
X013134Y019133D03*
X013134Y016713D03*
X013634Y016713D03*
X014134Y016713D03*
X014634Y016713D03*
X015134Y016713D03*
X015634Y016713D03*
X016134Y016713D03*
D19*
X019384Y019173D03*
X020384Y019173D03*
X021384Y019173D03*
X022384Y019173D03*
X023384Y019173D03*
X024884Y019173D03*
X025884Y019173D03*
X026884Y019173D03*
X027884Y019173D03*
X028884Y019173D03*
D20*
X006884Y019480D03*
X006884Y017866D03*
D21*
X008634Y018838D03*
X008634Y019508D03*
X010884Y019508D03*
X010884Y018838D03*
X012384Y019008D03*
X012384Y018338D03*
X013384Y014258D03*
X013384Y013588D03*
X013384Y013008D03*
X013384Y012338D03*
X012884Y011758D03*
X013884Y011758D03*
X013884Y011088D03*
X012884Y011088D03*
X014384Y007008D03*
X014384Y006338D03*
X009884Y003008D03*
X009884Y002338D03*
X022884Y012338D03*
X022884Y013008D03*
X022884Y013588D03*
X022884Y014258D03*
X021884Y014338D03*
X021884Y015008D03*
X025384Y013508D03*
X025384Y012838D03*
X032884Y013008D03*
X032884Y013588D03*
X032884Y014258D03*
X032884Y016088D03*
X032884Y016758D03*
X032884Y012338D03*
D22*
X007694Y016673D03*
X006575Y016673D03*
X005694Y016673D03*
X004575Y016673D03*
D23*
X004550Y015673D03*
X005219Y015673D03*
X005219Y017673D03*
X004550Y017673D03*
X008300Y017923D03*
X008969Y017923D03*
X007469Y008673D03*
X006800Y008673D03*
X011050Y003673D03*
X011719Y003673D03*
X011719Y002673D03*
X011050Y002673D03*
X015050Y005673D03*
X015719Y005673D03*
X015719Y006673D03*
X015050Y006673D03*
D24*
X005134Y018673D03*
X005134Y019673D03*
D25*
X005134Y011673D03*
X006134Y011673D03*
X006134Y010673D03*
X005134Y010673D03*
X005134Y009673D03*
X006134Y009673D03*
X006134Y008673D03*
X005134Y008673D03*
X005134Y007673D03*
X006134Y007673D03*
D26*
X009560Y009207D03*
X009875Y009207D03*
X010190Y009207D03*
X010505Y009207D03*
X010820Y009207D03*
X011134Y009207D03*
X011449Y009207D03*
X011764Y009207D03*
X012079Y009207D03*
X012394Y009207D03*
X012709Y009207D03*
X011709Y012140D03*
X011394Y012140D03*
X011079Y012140D03*
X010764Y012140D03*
X010449Y012140D03*
X010134Y012140D03*
X009820Y012140D03*
X009505Y012140D03*
X009190Y012140D03*
X008875Y012140D03*
X008560Y012140D03*
X008560Y016707D03*
X008875Y016707D03*
X009190Y016707D03*
X009505Y016707D03*
X009820Y016707D03*
X010134Y016707D03*
X010449Y016707D03*
X010764Y016707D03*
X011079Y016707D03*
X011394Y016707D03*
X011709Y016707D03*
X011764Y004640D03*
X011449Y004640D03*
X011134Y004640D03*
X010820Y004640D03*
X010505Y004640D03*
X010190Y004640D03*
X009875Y004640D03*
X009560Y004640D03*
X012079Y004640D03*
X012394Y004640D03*
X012709Y004640D03*
D27*
X013418Y005348D03*
X013418Y005663D03*
X013418Y005978D03*
X013418Y006293D03*
X013418Y006608D03*
X013418Y006923D03*
X013418Y007238D03*
X013418Y007553D03*
X013418Y007868D03*
X013418Y008183D03*
X013418Y008498D03*
X008851Y008498D03*
X008851Y008183D03*
X008851Y007868D03*
X008851Y007553D03*
X008851Y007238D03*
X008851Y006923D03*
X008851Y006608D03*
X008851Y006293D03*
X008851Y005978D03*
X008851Y005663D03*
X008851Y005348D03*
X007851Y012848D03*
X007851Y013163D03*
X007851Y013478D03*
X007851Y013793D03*
X007851Y014108D03*
X007851Y014423D03*
X007851Y014738D03*
X007851Y015053D03*
X007851Y015368D03*
X007851Y015683D03*
X007851Y015998D03*
X012418Y015998D03*
X012418Y015683D03*
X012418Y015368D03*
X012418Y015053D03*
X012418Y014738D03*
X012418Y014423D03*
X012418Y014108D03*
X012418Y013793D03*
X012418Y013478D03*
X012418Y013163D03*
X012418Y012848D03*
D28*
X013634Y003423D03*
X014634Y003423D03*
X015634Y003423D03*
X016634Y003423D03*
X017634Y003423D03*
X017134Y002423D03*
X016134Y002423D03*
X015134Y002423D03*
X014134Y002423D03*
X013134Y002423D03*
X008884Y003423D03*
X007884Y003423D03*
X007384Y002423D03*
X008384Y002423D03*
D29*
X006335Y006155D02*
X006040Y006450D01*
X006307Y006717D01*
X006602Y006422D01*
X006335Y006155D01*
X006428Y006248D02*
X006242Y006248D01*
X006149Y006341D02*
X006521Y006341D01*
X006590Y006434D02*
X006056Y006434D01*
X006117Y006527D02*
X006497Y006527D01*
X006404Y006620D02*
X006210Y006620D01*
X006303Y006713D02*
X006311Y006713D01*
X005862Y006629D02*
X005567Y006924D01*
X005834Y007191D01*
X006129Y006896D01*
X005862Y006629D01*
X005955Y006722D02*
X005769Y006722D01*
X005676Y006815D02*
X006048Y006815D01*
X006117Y006908D02*
X005583Y006908D01*
X005644Y007001D02*
X006024Y007001D01*
X005931Y007094D02*
X005737Y007094D01*
X005830Y007187D02*
X005838Y007187D01*
D30*
X007384Y007473D03*
X007384Y005873D03*
D31*
X019884Y003673D03*
X021384Y003673D03*
X023884Y003673D03*
X025384Y003673D03*
X027884Y003673D03*
X029384Y003673D03*
D32*
X024134Y012874D03*
X024134Y014476D03*
D33*
X024134Y008638D03*
X024134Y006709D03*
D34*
X033134Y006733D03*
X033134Y005613D03*
M02*
