%
M48
M72
T01C0.0240
T02C0.0320
T03C0.0360
T04C0.0394
T05C0.0500
T06C0.1299
%
T01
X4234Y5273
X4034Y5773
X5034Y7073
X6484Y7073
X7484Y8173
X8934Y8923
X9484Y8123
X9484Y7323
X9484Y6823
X10434Y6823
X10384Y7323
X11134Y8573
X11634Y8573
X11984Y7023
X11984Y6523
X12684Y6523
X12684Y7023
X14184Y7823
X15384Y7223
X17134Y9173
X17134Y9673
X17884Y9673
X18384Y9423
X17884Y9173
X18384Y9923
X18884Y9923
X19384Y9923
X19384Y9423
X18884Y9423
X19884Y9423
X20384Y9173
X20384Y9673
X19884Y9923
X19634Y10423
X19134Y10423
X18634Y10423
X18634Y10923
X19134Y10923
X19634Y10923
X21134Y9673
X21134Y9173
X22384Y11673
X22384Y12723
X23884Y12173
X23884Y11673
X24384Y11673
X24384Y12173
X25884Y12173
X25884Y11673
X27884Y12673
X28384Y12673
X28384Y13173
X27884Y13173
X27884Y13673
X28884Y13173
X29384Y13173
X29884Y13173
X29884Y12673
X29384Y12673
X28884Y12673
X30384Y12673
X30384Y13173
X30384Y13673
X32384Y12723
X32384Y11673
X32884Y11673
X31134Y9673
X31134Y9173
X30384Y9173
X30384Y9673
X29884Y9423
X29384Y9423
X28884Y9423
X28384Y9423
X27884Y9173
X27884Y9673
X28384Y9923
X28884Y9923
X29384Y9923
X29884Y9923
X29634Y10423
X29134Y10423
X28634Y10423
X28634Y10923
X29134Y10923
X29634Y10923
X27134Y9673
X27134Y9173
X27884Y4923
X29384Y4923
X33134Y7373
X25384Y4923
X23384Y4923
X21384Y4923
X19884Y4923
X11534Y5273
X11034Y5273
X9484Y5273
X10484Y2823
X10434Y2273
X7084Y10973
X7234Y13473
X8884Y14823
X9484Y14273
X9484Y13523
X11234Y14173
X11784Y13973
X11784Y14573
X11634Y15323
X11084Y16073
X10584Y16073
X13334Y18173
X12884Y18423
X15234Y17973
X16134Y17473
X15884Y13673
X14984Y13773
X14984Y13273
X14984Y12673
X15384Y12173
X15884Y12173
X15884Y11673
X15384Y11673
X13384Y11423
X11684Y11273
X11234Y11523
X11384Y12773
X13884Y13273
X13884Y13773
X17884Y13673
X17884Y13173
X18384Y13173
X18384Y12673
X17884Y12673
X18884Y12673
X19384Y12673
X19384Y13173
X18884Y13173
X19884Y13173
X20384Y13173
X20384Y12673
X19884Y12673
X20384Y13673
X22484Y15173
X22584Y15673
X22984Y15373
X23884Y15173
X24384Y15173
X25384Y16073
X25784Y16473
X24884Y16873
X24384Y16673
X23884Y16473
X23384Y16273
X26484Y14123
X24384Y13773
X23884Y13773
X27884Y16873
X32334Y15523
X33034Y15523
X9634Y19673
T02
X8884Y3423
X7884Y3423
X7384Y2423
X8384Y2423
X13134Y2423
X14134Y2423
X15134Y2423
X16134Y2423
X17134Y2423
X16634Y3423
X15634Y3423
X14634Y3423
X13634Y3423
X17634Y3423
T03
X6134Y7673
X5134Y7673
X5134Y8673
X6134Y8673
X6134Y9673
X5134Y9673
X5134Y10673
X6134Y10673
X6134Y11673
X5134Y11673
T04
X5134Y18673
X5134Y19673
X19384Y19173
X20384Y19173
X21384Y19173
X22384Y19173
X23384Y19173
X24884Y19173
X25884Y19173
X26884Y19173
X27884Y19173
X28884Y19173
T05
X29384Y3673
X27884Y3673
X25384Y3673
X23884Y3673
X21384Y3673
X19884Y3673
T06
X4884Y3423
X32384Y3423
X32384Y18923
M30
