G75*
G70*
%OFA0B0*%
%FSLAX24Y24*%
%IPPOS*%
%LPD*%
%AMOC8*
5,1,8,0,0,1.08239X$1,22.5*
%
%ADD10R,0.0250X0.0500*%
%ADD11R,0.0500X0.0250*%
%ADD12R,0.0591X0.0512*%
%ADD13R,0.0512X0.0591*%
%ADD14R,0.0433X0.0394*%
%ADD15R,0.0394X0.0433*%
%ADD16R,0.0945X0.0945*%
%ADD17R,0.0512X0.0630*%
%ADD18R,0.0390X0.0120*%
%ADD19R,0.1063X0.0630*%
%ADD20R,0.1024X0.0551*%
%ADD21R,0.0630X0.0710*%
%ADD22R,0.0710X0.0630*%
%ADD23R,0.0701X0.0850*%
%ADD24R,0.0748X0.1240*%
%ADD25R,0.1004X0.1063*%
%ADD26R,0.0551X0.0394*%
%ADD27R,0.0272X0.0390*%
%ADD28R,0.0866X0.1417*%
%ADD29R,0.0630X0.1063*%
%ADD30R,0.0394X0.0157*%
%ADD31R,0.1181X0.1181*%
%ADD32R,0.0709X0.0630*%
%ADD33R,0.1417X0.1181*%
%ADD34R,0.0300X0.0450*%
%ADD35R,0.0197X0.0866*%
D10*
X022884Y007513D03*
X023278Y007513D03*
X023672Y007513D03*
X024065Y007513D03*
X024459Y007513D03*
X024853Y007513D03*
X025247Y007513D03*
X025640Y007513D03*
X026034Y007513D03*
X026428Y007513D03*
X026821Y007513D03*
X027215Y007513D03*
X027609Y007513D03*
X028002Y007513D03*
X028396Y007513D03*
X028790Y007513D03*
X029184Y007513D03*
X029577Y007513D03*
X029577Y012749D03*
X029184Y012749D03*
X028790Y012749D03*
X028396Y012749D03*
X028002Y012749D03*
X027609Y012749D03*
X027215Y012749D03*
X026821Y012749D03*
X026428Y012749D03*
X026034Y012749D03*
X025640Y012749D03*
X025247Y012749D03*
X024853Y012749D03*
X024459Y012749D03*
X024065Y012749D03*
X023672Y012749D03*
X023278Y012749D03*
X022884Y012749D03*
D11*
X022569Y011312D03*
X022569Y010918D03*
X022569Y010525D03*
X022569Y010131D03*
X022569Y009737D03*
X022569Y009344D03*
X022569Y008950D03*
X020443Y008939D03*
X020443Y008439D03*
X020443Y007939D03*
X020443Y007439D03*
X020443Y006939D03*
D12*
X021130Y009214D03*
X021930Y009214D03*
X021930Y009963D03*
X021130Y009963D03*
X005580Y014264D03*
X005580Y015013D03*
D13*
X003604Y013739D03*
X002856Y013739D03*
X008456Y010989D03*
X009204Y010989D03*
X019556Y006239D03*
X020304Y006239D03*
X025556Y006489D03*
X026304Y006489D03*
X025954Y014689D03*
X025206Y014689D03*
D14*
X024130Y014554D03*
X023480Y014554D03*
X022830Y014554D03*
X022830Y015223D03*
X023480Y015223D03*
X024130Y015223D03*
X027580Y016754D03*
X027580Y017423D03*
X028480Y016173D03*
X028480Y015504D03*
X029030Y015523D03*
X029030Y014854D03*
X019765Y009589D03*
X019095Y009589D03*
X015980Y009304D03*
X015980Y009973D03*
X012715Y009189D03*
X012045Y009189D03*
X009730Y009554D03*
X009730Y010223D03*
X005380Y010254D03*
X005380Y010923D03*
X008295Y005289D03*
X008965Y005289D03*
X008965Y004239D03*
X008295Y004239D03*
X013830Y002823D03*
X013830Y002154D03*
X016945Y012189D03*
X017615Y012189D03*
D15*
X019830Y011954D03*
X019830Y012623D03*
X020495Y015039D03*
X021165Y015039D03*
X025095Y015439D03*
X025765Y015439D03*
X017465Y009289D03*
X016795Y009289D03*
X021595Y006489D03*
X022265Y006489D03*
X018565Y004289D03*
X017895Y004289D03*
X009780Y004754D03*
X009780Y005423D03*
X008815Y008889D03*
X008145Y008889D03*
X008480Y009554D03*
X008480Y010223D03*
X010295Y010589D03*
X010965Y010589D03*
X005380Y009573D03*
X005380Y008904D03*
X004615Y010239D03*
X003945Y010239D03*
X003945Y010889D03*
X003315Y010889D03*
X002645Y010889D03*
X004615Y010889D03*
X008295Y019139D03*
X008965Y019139D03*
D16*
X004880Y003872D03*
X004880Y005605D03*
X011264Y011539D03*
X012996Y011539D03*
X004646Y015039D03*
X002914Y015039D03*
D17*
X019406Y004289D03*
X020154Y004289D03*
X023056Y006489D03*
X023804Y006489D03*
D18*
X019329Y012587D03*
X019329Y012843D03*
X019329Y013099D03*
X019329Y013355D03*
X019329Y013611D03*
X019329Y013866D03*
X019329Y014122D03*
X019329Y014378D03*
X019329Y014634D03*
X019329Y014890D03*
X017031Y014890D03*
X017031Y014634D03*
X017031Y014378D03*
X017031Y014122D03*
X017031Y013866D03*
X017031Y013611D03*
X017031Y013355D03*
X017031Y013099D03*
X017031Y012843D03*
X017031Y012587D03*
D19*
X021680Y008390D03*
X021680Y007287D03*
D20*
X018237Y010839D03*
X016623Y010839D03*
D21*
X007390Y019139D03*
X006270Y019139D03*
X014520Y002189D03*
X015640Y002189D03*
D22*
X022830Y015929D03*
X023630Y015929D03*
X024430Y015929D03*
X024430Y017048D03*
X023630Y017048D03*
X022830Y017048D03*
X028630Y016829D03*
X028630Y017948D03*
D23*
X015783Y014939D03*
X014181Y014939D03*
D24*
X008745Y017889D03*
X006815Y017889D03*
D25*
X006480Y012189D03*
X005280Y012189D03*
X002780Y012189D03*
X008980Y012189D03*
D26*
X006713Y006463D03*
X005847Y006089D03*
X006713Y005714D03*
D27*
X008356Y006281D03*
X008730Y006281D03*
X009104Y006281D03*
X009104Y007300D03*
X008356Y007300D03*
D28*
X018199Y007939D03*
D29*
X015281Y012939D03*
X014179Y012939D03*
D30*
X026521Y014655D03*
X026521Y014911D03*
X026521Y015166D03*
X026521Y015422D03*
X027939Y015422D03*
X027939Y015166D03*
X027939Y014911D03*
X027939Y014655D03*
D31*
X015142Y003526D03*
X010418Y008251D03*
D32*
X006480Y004940D03*
X006480Y003837D03*
D33*
X006863Y013671D03*
X009697Y013671D03*
X009697Y016506D03*
X006863Y016506D03*
D34*
X007080Y011039D03*
X006580Y011039D03*
X006080Y011039D03*
X007580Y011039D03*
X007580Y008939D03*
X007080Y008939D03*
X006580Y008939D03*
X006080Y008939D03*
D35*
X013802Y009292D03*
X014302Y009292D03*
X014802Y009292D03*
X015302Y009292D03*
X015302Y011556D03*
X014802Y011556D03*
X014302Y011556D03*
X013802Y011556D03*
M02*
