%
M48
M72
T01C0.0200
T02C0.0276
T03C0.0315
T04C0.0320
T05C0.0360
T06C0.0394
T07C0.0400
T08C0.0500
T09C0.1299
%
T01
X1580Y1439
X1580Y1889
X1580Y2339
X1580Y2789
X1580Y3289
X1580Y3789
X1580Y4289
X1580Y4789
X1580Y5289
X1580Y5789
X1580Y6289
X1580Y6789
X1580Y7289
X1580Y7789
X1580Y8289
X1580Y8789
X1580Y9289
X1580Y9789
X1580Y10289
X1580Y10789
X1580Y11289
X1580Y11789
X1580Y12289
X1580Y12789
X1580Y13289
X1580Y13789
X1580Y14289
X1580Y14789
X1580Y15289
X1580Y15789
X1580Y16289
X1580Y16789
X1580Y17289
X1580Y17789
X1580Y18289
X1580Y18789
X1580Y19289
X1580Y19789
X2030Y19789
X2480Y19789
X2930Y19789
X3380Y19789
X3830Y19789
X4280Y19789
X4730Y19789
X5180Y19789
X5630Y19789
X6080Y19789
X6530Y19789
X6980Y19789
X7430Y19789
X7880Y19789
X8330Y19789
X8780Y19789
X9230Y19789
X9680Y19789
X10130Y19789
X10580Y19789
X11030Y19789
X11480Y19789
X11930Y19789
X12380Y19789
X12830Y19789
X13280Y19789
X13730Y19789
X14180Y19789
X14630Y19789
X15080Y19789
X15530Y19789
X15980Y19789
X16430Y19789
X16880Y19789
X17330Y19789
X17780Y19789
X18230Y19789
X18680Y19789
X19130Y19789
X19580Y19789
X20030Y19789
X20480Y19789
X20930Y19789
X21380Y19789
X21830Y19789
X22280Y19789
X22730Y19789
X23180Y19789
X23630Y19789
X24080Y19789
X24530Y19789
X24980Y19789
X25430Y19789
X25880Y19789
X26780Y19789
X27680Y19789
X28130Y19789
X28580Y19789
X29030Y19789
X29480Y19789
X29930Y19789
X26830Y17589
X26280Y17589
X25780Y17589
X25130Y16739
X24630Y15039
X22480Y13889
X22330Y13389
X21180Y12239
X20480Y12639
X21930Y11739
X21130Y10889
X19580Y10889
X19330Y11389
X18580Y12239
X18380Y12939
X16530Y13139
X15930Y12389
X15830Y10839
X15280Y10739
X14780Y10739
X14280Y10739
X13780Y10739
X13780Y10139
X14280Y10139
X14780Y10139
X15280Y10139
X18230Y9039
X18530Y9589
X19030Y8939
X19080Y8439
X19080Y7939
X19680Y7939
X19680Y8439
X19680Y8939
X20980Y7839
X19680Y7439
X19680Y6939
X19080Y6939
X19080Y7439
X18230Y6839
X15980Y7739
X13380Y7739
X10580Y9789
X9130Y10289
X7580Y10489
X7080Y10489
X6580Y10489
X6080Y10489
X6080Y9989
X6580Y9989
X7080Y9989
X6580Y9489
X6080Y9489
X7330Y7739
X5830Y7339
X7330Y6489
X9330Y5789
X9530Y6789
X10880Y4889
X13380Y4889
X16030Y4889
X17930Y2489
X17780Y1439
X17330Y1439
X16880Y1439
X16430Y1439
X15980Y1439
X15530Y1439
X15080Y1439
X14630Y1439
X14180Y1439
X13730Y1439
X13280Y1439
X12830Y1439
X12380Y1439
X11930Y1439
X11480Y1439
X11030Y1439
X10580Y1439
X10130Y1439
X9680Y1439
X9230Y1439
X8780Y1439
X10630Y2439
X12680Y2439
X8280Y4739
X7930Y2689
X5180Y1439
X4730Y1439
X4280Y1439
X3830Y1439
X3380Y1439
X2930Y1439
X2480Y1439
X2030Y1439
X3330Y8939
X3330Y10239
X7680Y12189
X5680Y13189
X4480Y13739
X7580Y15439
X10830Y15139
X11380Y16089
X12330Y16139
X11380Y16889
X14480Y17489
X14480Y16139
X16380Y15889
X16880Y16139
X17030Y15289
X17630Y14989
X18380Y15189
X18880Y15639
X20380Y16189
X21080Y15739
X22230Y14939
X21630Y17539
X21630Y18889
X27580Y16189
X27980Y15789
X29930Y15939
X29930Y16389
X29930Y16839
X29930Y15489
X29930Y15039
X29930Y14589
X29930Y14139
X29930Y13689
X29186Y13845
X28580Y14039
X27980Y13889
X27580Y13389
X28680Y13389
X29930Y13239
X29930Y7039
X29930Y6589
X29930Y6139
X29930Y5689
X29930Y5239
X29930Y4789
X29930Y4339
X28980Y5189
X26880Y6489
X24680Y6489
X22880Y5339
X22330Y5689
X21080Y6489
X20730Y4289
X21980Y4389
X21680Y2489
X21830Y1439
X21380Y1439
X20930Y1439
X20480Y1439
X20030Y1439
X19580Y1439
X19130Y1439
X18680Y1439
X18230Y1439
X22280Y1439
X22730Y1439
X23180Y1439
X23630Y1439
X24080Y1439
X24530Y1439
X24980Y1439
X25430Y1439
X25880Y1439
X26330Y1439
X26780Y1439
X27230Y1439
X27680Y1439
X28130Y1439
X28580Y1439
X29030Y1439
X29480Y1439
X29930Y1389
X15230Y13839
X17630Y14389
X14480Y18889
X7730Y17889
X5180Y19139
X10880Y12339
T02
X14180Y13939
X9880Y17739
X9880Y18439
X9880Y19139
X24060Y17989
X17480Y6889
X17480Y6239
X17480Y4839
T03
X7430Y4539
X7430Y3839
T04
X25780Y18389
X26780Y18389
X26280Y19389
X27280Y19389
T05
X20380Y18689
X19380Y18689
X18380Y18689
X17380Y18689
X16380Y18689
X16380Y17689
X17380Y17689
X18380Y17689
X19380Y17689
X20380Y17689
T06
X28130Y4139
X28130Y3139
X28130Y2139
X20730Y2489
X19730Y2489
X18730Y2489
X6130Y2639
X6130Y1639
T07
X22880Y2139
X22880Y3139
X22880Y4139
X24580Y4139
X24580Y3139
X24580Y2139
X26280Y2139
X26280Y3139
X26280Y4139
T08
X12880Y18089
X11380Y18089
X3280Y18739
X3280Y17239
X3280Y7339
X3280Y5839
T09
X3030Y2839
X30530Y2839
X30530Y18339
M30
