G75*
G70*
%OFA0B0*%
%FSLAX24Y24*%
%IPPOS*%
%LPD*%
%AMOC8*
5,1,8,0,0,1.08239X$1,22.5*
%
%ADD10C,0.0830*%
%ADD11C,0.0720*%
%ADD12C,0.0714*%
%ADD13C,0.0640*%
%ADD14C,0.2380*%
%ADD15OC8,0.0680*%
%ADD16C,0.0556*%
%ADD17C,0.0580*%
D10*
X002905Y005839D02*
X003655Y005839D01*
X003655Y007339D02*
X002905Y007339D01*
X002905Y017239D02*
X003655Y017239D01*
X003655Y018739D02*
X002905Y018739D01*
X011380Y018464D02*
X011380Y017714D01*
X012880Y017714D02*
X012880Y018464D01*
D11*
X022560Y004139D02*
X023200Y004139D01*
X024260Y004139D02*
X024900Y004139D01*
X025960Y004139D02*
X026600Y004139D01*
X026600Y003139D02*
X025960Y003139D01*
X025960Y002139D02*
X026600Y002139D01*
X024900Y002139D02*
X024260Y002139D01*
X023200Y002139D02*
X022560Y002139D01*
X022560Y003139D02*
X023200Y003139D01*
X024260Y003139D02*
X024900Y003139D01*
D12*
X027813Y003139D02*
X028447Y003139D01*
X028447Y002139D02*
X027813Y002139D01*
X027813Y004139D02*
X028447Y004139D01*
X020730Y002805D02*
X020730Y002172D01*
X019730Y002172D02*
X019730Y002805D01*
X018730Y002805D02*
X018730Y002172D01*
X006447Y002639D02*
X005813Y002639D01*
X005813Y001639D02*
X006447Y001639D01*
D13*
X007430Y003839D03*
X007430Y004539D03*
X014180Y013939D03*
X009880Y017739D03*
X009880Y018439D03*
X009880Y019139D03*
X025780Y018389D03*
X026780Y018389D03*
X026280Y019389D03*
X027280Y019389D03*
D14*
X003030Y002839D03*
X030530Y002839D03*
X030530Y018339D03*
D15*
X020380Y018689D03*
X019380Y018689D03*
X018380Y018689D03*
X017380Y018689D03*
X016380Y018689D03*
X016380Y017689D03*
X017380Y017689D03*
X018380Y017689D03*
X019380Y017689D03*
X020380Y017689D03*
D16*
X017480Y006889D03*
X017480Y006239D03*
X017480Y004839D03*
D17*
X024060Y017989D03*
M02*
