G75*
G70*
%OFA0B0*%
%FSLAX24Y24*%
%IPPOS*%
%LPD*%
%AMOC8*
5,1,8,0,0,1.08239X$1,22.5*
%
%ADD10C,0.0050*%
%ADD11C,0.0020*%
%ADD12C,0.0040*%
%ADD13C,0.0080*%
%ADD14C,0.0060*%
%ADD15C,0.0160*%
%ADD16R,0.0079X0.0079*%
%ADD17C,0.0001*%
%ADD18R,0.0059X0.0098*%
%ADD19R,0.0098X0.0059*%
%ADD20C,0.0004*%
%ADD21C,0.0030*%
%ADD22C,0.0025*%
D10*
X006155Y002978D02*
X006605Y002978D01*
X006605Y002828D02*
X006605Y003128D01*
X006880Y003139D02*
X006880Y002939D01*
X007680Y002939D01*
X007680Y003139D01*
X006880Y003139D01*
X006880Y002939D02*
X006880Y002639D01*
X007680Y002639D01*
X007680Y002739D01*
X010130Y002739D01*
X010380Y002639D01*
X010130Y002639D01*
X010130Y002739D01*
X010130Y002639D02*
X007680Y002639D01*
X007680Y002739D02*
X007680Y002939D01*
X010580Y002939D01*
X010580Y002639D01*
X010380Y002639D01*
X010580Y002639D02*
X011130Y002639D01*
X011130Y001639D01*
X010580Y001639D01*
X010580Y001339D01*
X010580Y001639D02*
X010380Y001639D01*
X010130Y001539D01*
X010130Y001639D01*
X007680Y001639D01*
X006880Y001639D01*
X006880Y001339D01*
X007680Y001339D01*
X007680Y001539D01*
X010130Y001539D01*
X010130Y001639D02*
X010380Y001639D01*
X011130Y001639D02*
X011130Y001339D01*
X007680Y001339D01*
X007680Y001139D01*
X006880Y001139D01*
X006880Y001339D01*
X006880Y001639D02*
X006880Y001939D01*
X006680Y002039D01*
X006680Y002239D01*
X006880Y002339D01*
X006880Y002639D01*
X006305Y002828D02*
X006155Y002978D01*
X007680Y001639D02*
X007680Y001539D01*
X010280Y003389D02*
X014780Y003389D01*
X015280Y003889D01*
X015280Y008389D01*
X010780Y008389D01*
X010280Y007889D01*
X010280Y003389D01*
X010580Y002939D02*
X011130Y002939D01*
X011130Y002639D01*
X009289Y006474D02*
X009289Y007103D01*
X008171Y007103D02*
X008171Y006474D01*
X010654Y007857D02*
X010656Y007882D01*
X010662Y007906D01*
X010671Y007928D01*
X010684Y007949D01*
X010700Y007968D01*
X010719Y007984D01*
X010740Y007997D01*
X010762Y008006D01*
X010786Y008012D01*
X010811Y008014D01*
X010836Y008012D01*
X010860Y008006D01*
X010882Y007997D01*
X010903Y007984D01*
X010922Y007968D01*
X010938Y007949D01*
X010951Y007928D01*
X010960Y007906D01*
X010966Y007882D01*
X010968Y007857D01*
X010966Y007832D01*
X010960Y007808D01*
X010951Y007786D01*
X010938Y007765D01*
X010922Y007746D01*
X010903Y007730D01*
X010882Y007717D01*
X010860Y007708D01*
X010836Y007702D01*
X010811Y007700D01*
X010786Y007702D01*
X010762Y007708D01*
X010740Y007717D01*
X010719Y007730D01*
X010700Y007746D01*
X010684Y007765D01*
X010671Y007786D01*
X010662Y007808D01*
X010656Y007832D01*
X010654Y007857D01*
X007830Y009239D02*
X005830Y009239D01*
X005830Y010739D01*
X007830Y010739D01*
X007830Y009239D01*
X005939Y009489D02*
X005941Y009512D01*
X005947Y009535D01*
X005956Y009556D01*
X005969Y009576D01*
X005985Y009593D01*
X006003Y009607D01*
X006023Y009618D01*
X006045Y009626D01*
X006068Y009630D01*
X006092Y009630D01*
X006115Y009626D01*
X006137Y009618D01*
X006157Y009607D01*
X006175Y009593D01*
X006191Y009576D01*
X006204Y009556D01*
X006213Y009535D01*
X006219Y009512D01*
X006221Y009489D01*
X006219Y009466D01*
X006213Y009443D01*
X006204Y009422D01*
X006191Y009402D01*
X006175Y009385D01*
X006157Y009371D01*
X006137Y009360D01*
X006115Y009352D01*
X006092Y009348D01*
X006068Y009348D01*
X006045Y009352D01*
X006023Y009360D01*
X006003Y009371D01*
X005985Y009385D01*
X005969Y009402D01*
X005956Y009422D01*
X005947Y009443D01*
X005941Y009466D01*
X005939Y009489D01*
X003752Y008362D02*
X000130Y008362D01*
X000130Y004819D01*
X003752Y004819D01*
X003752Y008362D01*
X001280Y008339D02*
X001280Y004839D01*
X013561Y009639D02*
X013561Y009835D01*
X013561Y011213D01*
X015530Y011213D01*
X015530Y009835D01*
X015530Y009639D01*
X013561Y009639D01*
X018691Y009218D02*
X018691Y006659D01*
X020069Y006659D01*
X020069Y009218D01*
X018691Y009218D01*
X022530Y007474D02*
X031979Y007474D01*
X031979Y012789D01*
X022530Y012789D01*
X022530Y007474D01*
X027155Y004478D02*
X027605Y004478D01*
X027605Y004328D02*
X027605Y004628D01*
X027780Y004639D02*
X027780Y004439D01*
X027480Y004139D01*
X027430Y004139D01*
X027130Y004139D01*
X027130Y002139D01*
X027430Y002139D01*
X027430Y001839D01*
X027780Y001839D01*
X027780Y001639D01*
X028730Y001639D01*
X028730Y001739D01*
X028732Y001756D01*
X028736Y001773D01*
X028743Y001789D01*
X028753Y001803D01*
X028766Y001816D01*
X028780Y001826D01*
X028796Y001833D01*
X028813Y001837D01*
X028830Y001839D01*
X029130Y001839D01*
X029130Y004439D01*
X028830Y004439D01*
X028830Y001839D01*
X029005Y001839D02*
X029005Y004439D01*
X028830Y004439D02*
X028813Y004441D01*
X028796Y004445D01*
X028780Y004452D01*
X028766Y004462D01*
X028753Y004475D01*
X028743Y004489D01*
X028736Y004505D01*
X028732Y004522D01*
X028730Y004539D01*
X028730Y004639D01*
X027780Y004639D01*
X027305Y004328D02*
X027155Y004478D01*
X027255Y004139D02*
X027255Y002139D01*
X027430Y002139D02*
X027430Y002264D01*
X027630Y002264D01*
X027630Y004014D01*
X027430Y004014D01*
X027430Y002264D01*
X026505Y001464D02*
X026505Y001164D01*
X026505Y001314D02*
X026055Y001314D01*
X026205Y001164D01*
X024805Y001164D02*
X024805Y001464D01*
X024805Y001314D02*
X024355Y001314D01*
X024505Y001164D01*
X023105Y001164D02*
X023105Y001464D01*
X023105Y001314D02*
X022655Y001314D01*
X022805Y001164D01*
X021230Y001889D02*
X021130Y001889D01*
X021230Y001889D02*
X021230Y002839D01*
X021030Y002839D01*
X020730Y003139D01*
X020730Y003189D01*
X020730Y003489D01*
X018730Y003489D01*
X018730Y003189D01*
X018430Y003189D01*
X018430Y002839D01*
X018230Y002839D01*
X018230Y001889D01*
X018330Y001889D01*
X018347Y001887D01*
X018364Y001883D01*
X018380Y001876D01*
X018394Y001866D01*
X018407Y001853D01*
X018417Y001839D01*
X018424Y001823D01*
X018428Y001806D01*
X018430Y001789D01*
X018430Y001489D01*
X021030Y001489D01*
X021030Y001789D01*
X018430Y001789D01*
X018430Y001614D02*
X021030Y001614D01*
X021030Y001789D02*
X021032Y001806D01*
X021036Y001823D01*
X021043Y001839D01*
X021053Y001853D01*
X021066Y001866D01*
X021080Y001876D01*
X021096Y001883D01*
X021113Y001887D01*
X021130Y001889D01*
X020605Y002989D02*
X018855Y002989D01*
X018855Y003189D01*
X018730Y003189D01*
X018855Y003189D02*
X020605Y003189D01*
X020605Y002989D01*
X020605Y003189D02*
X020730Y003189D01*
X020730Y003364D02*
X018730Y003364D01*
X020920Y003314D02*
X021070Y003464D01*
X021070Y003014D01*
X020920Y003014D02*
X021220Y003014D01*
X027430Y004014D02*
X027430Y004139D01*
X027781Y014448D02*
X026679Y014448D01*
X027533Y014625D02*
X027535Y014641D01*
X027541Y014657D01*
X027550Y014671D01*
X027562Y014682D01*
X027576Y014690D01*
X027592Y014695D01*
X027608Y014696D01*
X027624Y014693D01*
X027639Y014686D01*
X027653Y014677D01*
X027663Y014664D01*
X027671Y014649D01*
X027675Y014633D01*
X027675Y014617D01*
X027671Y014601D01*
X027663Y014586D01*
X027653Y014573D01*
X027640Y014564D01*
X027624Y014557D01*
X027608Y014554D01*
X027592Y014555D01*
X027576Y014560D01*
X027562Y014568D01*
X027550Y014579D01*
X027541Y014593D01*
X027535Y014609D01*
X027533Y014625D01*
X027781Y015629D02*
X026679Y015629D01*
X025430Y018489D02*
X025430Y018589D01*
X025430Y018689D02*
X025430Y018789D01*
X025430Y018889D02*
X025430Y018989D01*
X025430Y019089D02*
X025430Y019189D01*
X018766Y016989D02*
X018465Y016689D01*
X018540Y016614D01*
X018691Y016614D01*
X018766Y016689D01*
X018766Y016989D01*
X018691Y017064D01*
X018540Y017064D01*
X018465Y016989D01*
X018465Y016689D01*
X018305Y016614D02*
X018005Y016614D01*
X018155Y016614D02*
X018155Y017064D01*
X018005Y016914D01*
X015705Y017464D02*
X015405Y017464D01*
X015555Y017464D02*
X015555Y017914D01*
X015405Y017764D01*
X015405Y018464D02*
X015705Y018764D01*
X015705Y018839D01*
X015630Y018914D01*
X015480Y018914D01*
X015405Y018839D01*
X015405Y018464D02*
X015705Y018464D01*
X013904Y017616D02*
X013904Y021238D01*
X010360Y021238D01*
X010360Y017616D01*
X013904Y017616D01*
X013880Y020089D02*
X010380Y020089D01*
X008272Y018361D02*
X007288Y018361D01*
X007426Y017889D02*
X007428Y017914D01*
X007433Y017939D01*
X007442Y017963D01*
X007454Y017985D01*
X007469Y018005D01*
X007487Y018023D01*
X007507Y018038D01*
X007529Y018050D01*
X007553Y018059D01*
X007578Y018064D01*
X007603Y018066D01*
X007628Y018064D01*
X007653Y018059D01*
X007677Y018050D01*
X007699Y018038D01*
X007719Y018023D01*
X007737Y018005D01*
X007752Y017985D01*
X007764Y017963D01*
X007773Y017939D01*
X007778Y017914D01*
X007780Y017889D01*
X007782Y017864D01*
X007787Y017839D01*
X007796Y017815D01*
X007808Y017793D01*
X007823Y017773D01*
X007841Y017755D01*
X007861Y017740D01*
X007883Y017728D01*
X007907Y017719D01*
X007932Y017714D01*
X007957Y017712D01*
X007982Y017714D01*
X008007Y017719D01*
X008031Y017728D01*
X008053Y017740D01*
X008073Y017755D01*
X008091Y017773D01*
X008106Y017793D01*
X008118Y017815D01*
X008127Y017839D01*
X008132Y017864D01*
X008134Y017889D01*
X008272Y017416D02*
X007288Y017416D01*
X006784Y016427D02*
X009737Y016427D01*
X009737Y013789D01*
X006784Y013789D01*
X006784Y016427D01*
X009389Y016191D02*
X009391Y016211D01*
X009396Y016231D01*
X009406Y016249D01*
X009418Y016266D01*
X009433Y016280D01*
X009451Y016290D01*
X009470Y016298D01*
X009490Y016302D01*
X009510Y016302D01*
X009530Y016298D01*
X009549Y016290D01*
X009567Y016280D01*
X009582Y016266D01*
X009594Y016249D01*
X009604Y016231D01*
X009609Y016211D01*
X009611Y016191D01*
X009609Y016171D01*
X009604Y016151D01*
X009594Y016133D01*
X009582Y016116D01*
X009567Y016102D01*
X009549Y016092D01*
X009530Y016084D01*
X009510Y016080D01*
X009490Y016080D01*
X009470Y016084D01*
X009451Y016092D01*
X009433Y016102D01*
X009418Y016116D01*
X009406Y016133D01*
X009396Y016151D01*
X009391Y016171D01*
X009389Y016191D01*
X003752Y016219D02*
X003752Y019762D01*
X000130Y019762D01*
X000130Y016219D01*
X003752Y016219D01*
X001280Y016239D02*
X001280Y019739D01*
D11*
X014780Y019539D02*
X014780Y016839D01*
X017580Y016839D01*
X019180Y016839D02*
X019580Y016839D01*
X020180Y016839D02*
X021980Y016839D01*
X021980Y019539D01*
X014780Y019539D01*
X017371Y014894D02*
X017371Y012583D01*
X018989Y012583D01*
X018989Y014894D01*
X017371Y014894D01*
X029800Y012372D02*
X030020Y012372D01*
X030020Y012299D02*
X030020Y012445D01*
X029873Y012299D02*
X029800Y012372D01*
D12*
X028622Y011192D02*
X028622Y010885D01*
X028698Y010809D01*
X028391Y010809D02*
X028238Y010809D01*
X028315Y010809D02*
X028315Y011115D01*
X028238Y011115D01*
X028084Y011115D02*
X028008Y011039D01*
X027778Y011039D01*
X027624Y011115D02*
X027394Y011115D01*
X027317Y011039D01*
X027317Y010885D01*
X027394Y010809D01*
X027624Y010809D01*
X027624Y010732D02*
X027624Y011115D01*
X027778Y011269D02*
X028008Y011269D01*
X028084Y011192D01*
X028084Y011115D01*
X028008Y011039D02*
X028084Y010962D01*
X028084Y010885D01*
X028008Y010809D01*
X027778Y010809D01*
X027778Y011269D01*
X028315Y011269D02*
X028315Y011346D01*
X028545Y011115D02*
X028698Y011115D01*
X027624Y010732D02*
X027547Y010655D01*
X027471Y010655D01*
X027164Y010809D02*
X027010Y010809D01*
X027087Y010809D02*
X027087Y011115D01*
X027010Y011115D01*
X026857Y011192D02*
X026550Y010885D01*
X026550Y010809D01*
X026857Y010809D01*
X026857Y011192D02*
X026857Y011269D01*
X026550Y011269D01*
X027087Y011269D02*
X027087Y011346D01*
X027161Y009769D02*
X027238Y009692D01*
X027238Y009615D01*
X027161Y009539D01*
X026931Y009539D01*
X026778Y009692D02*
X026471Y009385D01*
X026471Y009309D01*
X026778Y009309D01*
X026931Y009309D02*
X027161Y009309D01*
X027238Y009385D01*
X027238Y009462D01*
X027161Y009539D01*
X027161Y009769D02*
X026931Y009769D01*
X026931Y009309D01*
X027391Y009539D02*
X027698Y009539D01*
X027852Y009692D02*
X027928Y009769D01*
X028082Y009769D01*
X028159Y009692D01*
X028159Y009615D01*
X027852Y009309D01*
X028159Y009309D01*
X028312Y009539D02*
X028619Y009539D01*
X028772Y009539D02*
X029079Y009539D01*
X029233Y009539D02*
X029540Y009539D01*
X029540Y009615D02*
X029386Y009769D01*
X029233Y009615D01*
X029233Y009309D01*
X029540Y009309D02*
X029540Y009615D01*
X029693Y009692D02*
X029770Y009769D01*
X029923Y009769D01*
X030000Y009692D01*
X030000Y009615D01*
X029693Y009309D01*
X030000Y009309D01*
X028542Y009309D02*
X028542Y009769D01*
X028312Y009539D01*
X026778Y009692D02*
X026778Y009769D01*
X026471Y009769D01*
X026317Y009769D02*
X026010Y009769D01*
X026164Y009769D02*
X026164Y009309D01*
X025857Y009309D02*
X025857Y009615D01*
X025703Y009769D01*
X025550Y009615D01*
X025550Y009309D01*
X025550Y009539D02*
X025857Y009539D01*
X018454Y010346D02*
X017922Y009815D01*
X016406Y009815D01*
X016406Y010464D01*
X016525Y010504D02*
X016548Y010447D01*
X016575Y010392D01*
X016605Y010338D01*
X016639Y010286D01*
X016676Y010237D01*
X016716Y010190D01*
X016759Y010145D01*
X016805Y010104D01*
X016853Y010065D01*
X016904Y010030D01*
X016957Y009998D01*
X017012Y009969D01*
X017068Y009944D01*
X017126Y009923D01*
X017185Y009905D01*
X017246Y009892D01*
X017307Y009882D01*
X017368Y009876D01*
X017430Y009874D01*
X017492Y009876D01*
X017553Y009882D01*
X017614Y009892D01*
X017675Y009905D01*
X017734Y009923D01*
X017792Y009944D01*
X017848Y009969D01*
X017903Y009998D01*
X017956Y010030D01*
X018007Y010065D01*
X018055Y010104D01*
X018101Y010145D01*
X018144Y010190D01*
X018184Y010237D01*
X018221Y010286D01*
X018255Y010338D01*
X018285Y010392D01*
X018312Y010447D01*
X018335Y010504D01*
X018454Y010464D02*
X018454Y010346D01*
X018335Y011174D02*
X018312Y011231D01*
X018285Y011286D01*
X018255Y011340D01*
X018221Y011392D01*
X018184Y011441D01*
X018144Y011488D01*
X018101Y011533D01*
X018055Y011574D01*
X018007Y011613D01*
X017956Y011648D01*
X017903Y011680D01*
X017848Y011709D01*
X017792Y011734D01*
X017734Y011755D01*
X017675Y011773D01*
X017614Y011786D01*
X017553Y011796D01*
X017492Y011802D01*
X017430Y011804D01*
X017368Y011802D01*
X017307Y011796D01*
X017246Y011786D01*
X017185Y011773D01*
X017126Y011755D01*
X017068Y011734D01*
X017012Y011709D01*
X016957Y011680D01*
X016904Y011648D01*
X016853Y011613D01*
X016805Y011574D01*
X016759Y011533D01*
X016716Y011488D01*
X016676Y011441D01*
X016639Y011392D01*
X016605Y011340D01*
X016575Y011286D01*
X016548Y011231D01*
X016525Y011174D01*
X016406Y011213D02*
X016406Y011862D01*
X017922Y011862D01*
X018454Y011331D01*
X018454Y011213D01*
X015862Y014183D02*
X014098Y014183D01*
X014098Y015694D02*
X015862Y015694D01*
X013020Y012289D02*
X011240Y012289D01*
X011240Y010789D02*
X013020Y010789D01*
X005630Y005629D02*
X005630Y003849D01*
X004130Y003849D02*
X004130Y005629D01*
X002010Y006477D02*
X001550Y006477D01*
X001703Y006631D01*
X001550Y006784D01*
X002010Y006784D01*
X001933Y006938D02*
X002010Y007014D01*
X002010Y007168D01*
X001933Y007245D01*
X002010Y007398D02*
X001703Y007705D01*
X001626Y007705D01*
X001550Y007628D01*
X001550Y007475D01*
X001626Y007398D01*
X001626Y007245D02*
X001550Y007168D01*
X001550Y007014D01*
X001626Y006938D01*
X001933Y006938D01*
X002010Y007398D02*
X002010Y007705D01*
X002890Y014289D02*
X004670Y014289D01*
X004670Y015789D02*
X002890Y015789D01*
X002010Y017877D02*
X001550Y017877D01*
X001703Y018031D01*
X001550Y018184D01*
X002010Y018184D01*
X001933Y018338D02*
X002010Y018414D01*
X002010Y018568D01*
X001933Y018645D01*
X002010Y018798D02*
X001703Y019105D01*
X001626Y019105D01*
X001550Y019028D01*
X001550Y018875D01*
X001626Y018798D01*
X001626Y018645D02*
X001550Y018568D01*
X001550Y018414D01*
X001626Y018338D01*
X001933Y018338D01*
X002010Y018798D02*
X002010Y019105D01*
X012019Y019359D02*
X012019Y019819D01*
X012172Y019665D01*
X012326Y019819D01*
X012326Y019359D01*
X012479Y019435D02*
X012556Y019359D01*
X012709Y019359D01*
X012786Y019435D01*
X012940Y019359D02*
X013246Y019665D01*
X013246Y019742D01*
X013170Y019819D01*
X013016Y019819D01*
X012940Y019742D01*
X012786Y019742D02*
X012709Y019819D01*
X012556Y019819D01*
X012479Y019742D01*
X012479Y019435D01*
X012940Y019359D02*
X013246Y019359D01*
D13*
X002361Y002839D02*
X002363Y002890D01*
X002369Y002941D01*
X002379Y002991D01*
X002392Y003041D01*
X002410Y003089D01*
X002430Y003136D01*
X002455Y003181D01*
X002483Y003224D01*
X002514Y003265D01*
X002548Y003303D01*
X002585Y003338D01*
X002624Y003371D01*
X002666Y003401D01*
X002710Y003427D01*
X002756Y003449D01*
X002804Y003469D01*
X002853Y003484D01*
X002903Y003496D01*
X002953Y003504D01*
X003004Y003508D01*
X003056Y003508D01*
X003107Y003504D01*
X003157Y003496D01*
X003207Y003484D01*
X003256Y003469D01*
X003304Y003449D01*
X003350Y003427D01*
X003394Y003401D01*
X003436Y003371D01*
X003475Y003338D01*
X003512Y003303D01*
X003546Y003265D01*
X003577Y003224D01*
X003605Y003181D01*
X003630Y003136D01*
X003650Y003089D01*
X003668Y003041D01*
X003681Y002991D01*
X003691Y002941D01*
X003697Y002890D01*
X003699Y002839D01*
X003697Y002788D01*
X003691Y002737D01*
X003681Y002687D01*
X003668Y002637D01*
X003650Y002589D01*
X003630Y002542D01*
X003605Y002497D01*
X003577Y002454D01*
X003546Y002413D01*
X003512Y002375D01*
X003475Y002340D01*
X003436Y002307D01*
X003394Y002277D01*
X003350Y002251D01*
X003304Y002229D01*
X003256Y002209D01*
X003207Y002194D01*
X003157Y002182D01*
X003107Y002174D01*
X003056Y002170D01*
X003004Y002170D01*
X002953Y002174D01*
X002903Y002182D01*
X002853Y002194D01*
X002804Y002209D01*
X002756Y002229D01*
X002710Y002251D01*
X002666Y002277D01*
X002624Y002307D01*
X002585Y002340D01*
X002548Y002375D01*
X002514Y002413D01*
X002483Y002454D01*
X002455Y002497D01*
X002430Y002542D01*
X002410Y002589D01*
X002392Y002637D01*
X002379Y002687D01*
X002369Y002737D01*
X002363Y002788D01*
X002361Y002839D01*
X004486Y004814D02*
X004880Y004412D01*
X005274Y004814D01*
X004486Y004814D01*
X012054Y011145D02*
X012054Y011932D01*
X012457Y011539D01*
X012054Y011145D01*
X003856Y014645D02*
X003856Y015432D01*
X003453Y015039D01*
X003856Y014645D01*
X025130Y018489D02*
X025130Y019189D01*
X025430Y019189D01*
X025430Y019889D01*
X027630Y019889D01*
X027630Y019189D01*
X025430Y019189D01*
X025430Y018489D02*
X025130Y018489D01*
X025430Y018489D02*
X025430Y017889D01*
X025580Y017889D01*
X025780Y018089D01*
X025980Y017889D01*
X026080Y017889D01*
X026280Y018089D01*
X026480Y017889D01*
X026580Y017889D01*
X026780Y018089D01*
X026980Y017889D01*
X027080Y017889D01*
X027280Y018089D01*
X027480Y017889D01*
X027630Y017889D01*
X027630Y018489D01*
X025430Y018489D01*
X027630Y018489D02*
X027930Y018489D01*
X027930Y019189D01*
X027630Y019189D01*
X029861Y018339D02*
X029863Y018390D01*
X029869Y018441D01*
X029879Y018491D01*
X029892Y018541D01*
X029910Y018589D01*
X029930Y018636D01*
X029955Y018681D01*
X029983Y018724D01*
X030014Y018765D01*
X030048Y018803D01*
X030085Y018838D01*
X030124Y018871D01*
X030166Y018901D01*
X030210Y018927D01*
X030256Y018949D01*
X030304Y018969D01*
X030353Y018984D01*
X030403Y018996D01*
X030453Y019004D01*
X030504Y019008D01*
X030556Y019008D01*
X030607Y019004D01*
X030657Y018996D01*
X030707Y018984D01*
X030756Y018969D01*
X030804Y018949D01*
X030850Y018927D01*
X030894Y018901D01*
X030936Y018871D01*
X030975Y018838D01*
X031012Y018803D01*
X031046Y018765D01*
X031077Y018724D01*
X031105Y018681D01*
X031130Y018636D01*
X031150Y018589D01*
X031168Y018541D01*
X031181Y018491D01*
X031191Y018441D01*
X031197Y018390D01*
X031199Y018339D01*
X031197Y018288D01*
X031191Y018237D01*
X031181Y018187D01*
X031168Y018137D01*
X031150Y018089D01*
X031130Y018042D01*
X031105Y017997D01*
X031077Y017954D01*
X031046Y017913D01*
X031012Y017875D01*
X030975Y017840D01*
X030936Y017807D01*
X030894Y017777D01*
X030850Y017751D01*
X030804Y017729D01*
X030756Y017709D01*
X030707Y017694D01*
X030657Y017682D01*
X030607Y017674D01*
X030556Y017670D01*
X030504Y017670D01*
X030453Y017674D01*
X030403Y017682D01*
X030353Y017694D01*
X030304Y017709D01*
X030256Y017729D01*
X030210Y017751D01*
X030166Y017777D01*
X030124Y017807D01*
X030085Y017840D01*
X030048Y017875D01*
X030014Y017913D01*
X029983Y017954D01*
X029955Y017997D01*
X029930Y018042D01*
X029910Y018089D01*
X029892Y018137D01*
X029879Y018187D01*
X029869Y018237D01*
X029863Y018288D01*
X029861Y018339D01*
X029861Y002839D02*
X029863Y002890D01*
X029869Y002941D01*
X029879Y002991D01*
X029892Y003041D01*
X029910Y003089D01*
X029930Y003136D01*
X029955Y003181D01*
X029983Y003224D01*
X030014Y003265D01*
X030048Y003303D01*
X030085Y003338D01*
X030124Y003371D01*
X030166Y003401D01*
X030210Y003427D01*
X030256Y003449D01*
X030304Y003469D01*
X030353Y003484D01*
X030403Y003496D01*
X030453Y003504D01*
X030504Y003508D01*
X030556Y003508D01*
X030607Y003504D01*
X030657Y003496D01*
X030707Y003484D01*
X030756Y003469D01*
X030804Y003449D01*
X030850Y003427D01*
X030894Y003401D01*
X030936Y003371D01*
X030975Y003338D01*
X031012Y003303D01*
X031046Y003265D01*
X031077Y003224D01*
X031105Y003181D01*
X031130Y003136D01*
X031150Y003089D01*
X031168Y003041D01*
X031181Y002991D01*
X031191Y002941D01*
X031197Y002890D01*
X031199Y002839D01*
X031197Y002788D01*
X031191Y002737D01*
X031181Y002687D01*
X031168Y002637D01*
X031150Y002589D01*
X031130Y002542D01*
X031105Y002497D01*
X031077Y002454D01*
X031046Y002413D01*
X031012Y002375D01*
X030975Y002340D01*
X030936Y002307D01*
X030894Y002277D01*
X030850Y002251D01*
X030804Y002229D01*
X030756Y002209D01*
X030707Y002194D01*
X030657Y002182D01*
X030607Y002174D01*
X030556Y002170D01*
X030504Y002170D01*
X030453Y002174D01*
X030403Y002182D01*
X030353Y002194D01*
X030304Y002209D01*
X030256Y002229D01*
X030210Y002251D01*
X030166Y002277D01*
X030124Y002307D01*
X030085Y002340D01*
X030048Y002375D01*
X030014Y002413D01*
X029983Y002454D01*
X029955Y002497D01*
X029930Y002542D01*
X029910Y002589D01*
X029892Y002637D01*
X029879Y002687D01*
X029869Y002737D01*
X029863Y002788D01*
X029861Y002839D01*
D14*
X029180Y002839D02*
X029182Y002912D01*
X029188Y002985D01*
X029198Y003057D01*
X029212Y003129D01*
X029229Y003200D01*
X029251Y003270D01*
X029276Y003339D01*
X029305Y003406D01*
X029337Y003471D01*
X029373Y003535D01*
X029413Y003597D01*
X029455Y003656D01*
X029501Y003713D01*
X029550Y003767D01*
X029602Y003819D01*
X029656Y003868D01*
X029713Y003914D01*
X029772Y003956D01*
X029834Y003996D01*
X029898Y004032D01*
X029963Y004064D01*
X030030Y004093D01*
X030099Y004118D01*
X030169Y004140D01*
X030240Y004157D01*
X030312Y004171D01*
X030384Y004181D01*
X030457Y004187D01*
X030530Y004189D01*
X030603Y004187D01*
X030676Y004181D01*
X030748Y004171D01*
X030820Y004157D01*
X030891Y004140D01*
X030961Y004118D01*
X031030Y004093D01*
X031097Y004064D01*
X031162Y004032D01*
X031226Y003996D01*
X031288Y003956D01*
X031347Y003914D01*
X031404Y003868D01*
X031458Y003819D01*
X031510Y003767D01*
X031559Y003713D01*
X031605Y003656D01*
X031647Y003597D01*
X031687Y003535D01*
X031723Y003471D01*
X031755Y003406D01*
X031784Y003339D01*
X031809Y003270D01*
X031831Y003200D01*
X031848Y003129D01*
X031862Y003057D01*
X031872Y002985D01*
X031878Y002912D01*
X031880Y002839D01*
X031878Y002766D01*
X031872Y002693D01*
X031862Y002621D01*
X031848Y002549D01*
X031831Y002478D01*
X031809Y002408D01*
X031784Y002339D01*
X031755Y002272D01*
X031723Y002207D01*
X031687Y002143D01*
X031647Y002081D01*
X031605Y002022D01*
X031559Y001965D01*
X031510Y001911D01*
X031458Y001859D01*
X031404Y001810D01*
X031347Y001764D01*
X031288Y001722D01*
X031226Y001682D01*
X031162Y001646D01*
X031097Y001614D01*
X031030Y001585D01*
X030961Y001560D01*
X030891Y001538D01*
X030820Y001521D01*
X030748Y001507D01*
X030676Y001497D01*
X030603Y001491D01*
X030530Y001489D01*
X030457Y001491D01*
X030384Y001497D01*
X030312Y001507D01*
X030240Y001521D01*
X030169Y001538D01*
X030099Y001560D01*
X030030Y001585D01*
X029963Y001614D01*
X029898Y001646D01*
X029834Y001682D01*
X029772Y001722D01*
X029713Y001764D01*
X029656Y001810D01*
X029602Y001859D01*
X029550Y001911D01*
X029501Y001965D01*
X029455Y002022D01*
X029413Y002081D01*
X029373Y002143D01*
X029337Y002207D01*
X029305Y002272D01*
X029276Y002339D01*
X029251Y002408D01*
X029229Y002478D01*
X029212Y002549D01*
X029198Y002621D01*
X029188Y002693D01*
X029182Y002766D01*
X029180Y002839D01*
X026780Y002889D02*
X026530Y002639D01*
X026780Y002389D01*
X026780Y001889D01*
X026530Y001639D01*
X026030Y001639D01*
X025780Y001889D01*
X025780Y002389D01*
X026030Y002639D01*
X025780Y002889D01*
X025780Y003389D01*
X026030Y003639D01*
X025780Y003889D01*
X025780Y004389D01*
X026030Y004639D01*
X026530Y004639D01*
X026780Y004389D01*
X026780Y003889D01*
X026530Y003639D01*
X026780Y003389D01*
X026780Y002889D01*
X025080Y002889D02*
X024830Y002639D01*
X025080Y002389D01*
X025080Y001889D01*
X024830Y001639D01*
X024330Y001639D01*
X024080Y001889D01*
X024080Y002389D01*
X024330Y002639D01*
X024080Y002889D01*
X024080Y003389D01*
X024330Y003639D01*
X024080Y003889D01*
X024080Y004389D01*
X024330Y004639D01*
X024830Y004639D01*
X025080Y004389D01*
X025080Y003889D01*
X024830Y003639D01*
X025080Y003389D01*
X025080Y002889D01*
X023380Y002889D02*
X023130Y002639D01*
X023380Y002389D01*
X023380Y001889D01*
X023130Y001639D01*
X022630Y001639D01*
X022380Y001889D01*
X022380Y002389D01*
X022630Y002639D01*
X022380Y002889D01*
X022380Y003389D01*
X022630Y003639D01*
X022380Y003889D01*
X022380Y004389D01*
X022630Y004639D01*
X023130Y004639D01*
X023380Y004389D01*
X023380Y003889D01*
X023130Y003639D01*
X023380Y003389D01*
X023380Y002889D01*
X019079Y012493D02*
X017281Y012493D01*
X017281Y014984D01*
X019079Y014984D01*
X019079Y012493D01*
X018480Y012843D02*
X018482Y012869D01*
X018488Y012895D01*
X018497Y012919D01*
X018510Y012942D01*
X018526Y012963D01*
X018545Y012981D01*
X018566Y012997D01*
X018590Y013009D01*
X018614Y013017D01*
X018640Y013022D01*
X018667Y013023D01*
X018693Y013020D01*
X018718Y013013D01*
X018742Y013003D01*
X018765Y012989D01*
X018785Y012973D01*
X018802Y012953D01*
X018817Y012931D01*
X018828Y012907D01*
X018836Y012882D01*
X018840Y012856D01*
X018840Y012830D01*
X018836Y012804D01*
X018828Y012779D01*
X018817Y012755D01*
X018802Y012733D01*
X018785Y012713D01*
X018765Y012697D01*
X018742Y012683D01*
X018718Y012673D01*
X018693Y012666D01*
X018667Y012663D01*
X018640Y012664D01*
X018614Y012669D01*
X018590Y012677D01*
X018566Y012689D01*
X018545Y012705D01*
X018526Y012723D01*
X018510Y012744D01*
X018497Y012767D01*
X018488Y012791D01*
X018482Y012817D01*
X018480Y012843D01*
X019180Y016439D02*
X017580Y016439D01*
X016630Y016439D01*
X016630Y016489D01*
X016130Y016489D01*
X016130Y016439D01*
X014380Y016439D01*
X014380Y019939D01*
X014880Y019939D01*
X014880Y020039D01*
X015380Y020039D01*
X015380Y019939D01*
X018130Y019939D01*
X018130Y020039D01*
X018630Y020039D01*
X018630Y019939D01*
X021380Y019939D01*
X021380Y020039D01*
X021880Y020039D01*
X021880Y019939D01*
X022380Y019939D01*
X022380Y016439D01*
X020530Y016439D01*
X020380Y016639D01*
X020180Y016639D01*
X019580Y016639D01*
X019380Y016639D01*
X019230Y016439D01*
X019180Y016439D01*
X019180Y016839D01*
X019180Y016939D01*
X019580Y016939D01*
X020180Y016939D01*
X020180Y016839D01*
X020180Y016639D01*
X020180Y016939D02*
X021880Y016939D01*
X021880Y019439D01*
X014880Y019439D01*
X014880Y016939D01*
X017580Y016939D01*
X017580Y016839D01*
X017580Y016439D01*
X017580Y016939D02*
X017580Y017239D01*
X019180Y017239D01*
X019180Y016939D01*
X019580Y016939D02*
X019580Y016839D01*
X019580Y016639D01*
X029180Y018339D02*
X029182Y018412D01*
X029188Y018485D01*
X029198Y018557D01*
X029212Y018629D01*
X029229Y018700D01*
X029251Y018770D01*
X029276Y018839D01*
X029305Y018906D01*
X029337Y018971D01*
X029373Y019035D01*
X029413Y019097D01*
X029455Y019156D01*
X029501Y019213D01*
X029550Y019267D01*
X029602Y019319D01*
X029656Y019368D01*
X029713Y019414D01*
X029772Y019456D01*
X029834Y019496D01*
X029898Y019532D01*
X029963Y019564D01*
X030030Y019593D01*
X030099Y019618D01*
X030169Y019640D01*
X030240Y019657D01*
X030312Y019671D01*
X030384Y019681D01*
X030457Y019687D01*
X030530Y019689D01*
X030603Y019687D01*
X030676Y019681D01*
X030748Y019671D01*
X030820Y019657D01*
X030891Y019640D01*
X030961Y019618D01*
X031030Y019593D01*
X031097Y019564D01*
X031162Y019532D01*
X031226Y019496D01*
X031288Y019456D01*
X031347Y019414D01*
X031404Y019368D01*
X031458Y019319D01*
X031510Y019267D01*
X031559Y019213D01*
X031605Y019156D01*
X031647Y019097D01*
X031687Y019035D01*
X031723Y018971D01*
X031755Y018906D01*
X031784Y018839D01*
X031809Y018770D01*
X031831Y018700D01*
X031848Y018629D01*
X031862Y018557D01*
X031872Y018485D01*
X031878Y018412D01*
X031880Y018339D01*
X031878Y018266D01*
X031872Y018193D01*
X031862Y018121D01*
X031848Y018049D01*
X031831Y017978D01*
X031809Y017908D01*
X031784Y017839D01*
X031755Y017772D01*
X031723Y017707D01*
X031687Y017643D01*
X031647Y017581D01*
X031605Y017522D01*
X031559Y017465D01*
X031510Y017411D01*
X031458Y017359D01*
X031404Y017310D01*
X031347Y017264D01*
X031288Y017222D01*
X031226Y017182D01*
X031162Y017146D01*
X031097Y017114D01*
X031030Y017085D01*
X030961Y017060D01*
X030891Y017038D01*
X030820Y017021D01*
X030748Y017007D01*
X030676Y016997D01*
X030603Y016991D01*
X030530Y016989D01*
X030457Y016991D01*
X030384Y016997D01*
X030312Y017007D01*
X030240Y017021D01*
X030169Y017038D01*
X030099Y017060D01*
X030030Y017085D01*
X029963Y017114D01*
X029898Y017146D01*
X029834Y017182D01*
X029772Y017222D01*
X029713Y017264D01*
X029656Y017310D01*
X029602Y017359D01*
X029550Y017411D01*
X029501Y017465D01*
X029455Y017522D01*
X029413Y017581D01*
X029373Y017643D01*
X029337Y017707D01*
X029305Y017772D01*
X029276Y017839D01*
X029251Y017908D01*
X029229Y017978D01*
X029212Y018049D01*
X029198Y018121D01*
X029188Y018193D01*
X029182Y018266D01*
X029180Y018339D01*
X001680Y002839D02*
X001682Y002912D01*
X001688Y002985D01*
X001698Y003057D01*
X001712Y003129D01*
X001729Y003200D01*
X001751Y003270D01*
X001776Y003339D01*
X001805Y003406D01*
X001837Y003471D01*
X001873Y003535D01*
X001913Y003597D01*
X001955Y003656D01*
X002001Y003713D01*
X002050Y003767D01*
X002102Y003819D01*
X002156Y003868D01*
X002213Y003914D01*
X002272Y003956D01*
X002334Y003996D01*
X002398Y004032D01*
X002463Y004064D01*
X002530Y004093D01*
X002599Y004118D01*
X002669Y004140D01*
X002740Y004157D01*
X002812Y004171D01*
X002884Y004181D01*
X002957Y004187D01*
X003030Y004189D01*
X003103Y004187D01*
X003176Y004181D01*
X003248Y004171D01*
X003320Y004157D01*
X003391Y004140D01*
X003461Y004118D01*
X003530Y004093D01*
X003597Y004064D01*
X003662Y004032D01*
X003726Y003996D01*
X003788Y003956D01*
X003847Y003914D01*
X003904Y003868D01*
X003958Y003819D01*
X004010Y003767D01*
X004059Y003713D01*
X004105Y003656D01*
X004147Y003597D01*
X004187Y003535D01*
X004223Y003471D01*
X004255Y003406D01*
X004284Y003339D01*
X004309Y003270D01*
X004331Y003200D01*
X004348Y003129D01*
X004362Y003057D01*
X004372Y002985D01*
X004378Y002912D01*
X004380Y002839D01*
X004378Y002766D01*
X004372Y002693D01*
X004362Y002621D01*
X004348Y002549D01*
X004331Y002478D01*
X004309Y002408D01*
X004284Y002339D01*
X004255Y002272D01*
X004223Y002207D01*
X004187Y002143D01*
X004147Y002081D01*
X004105Y002022D01*
X004059Y001965D01*
X004010Y001911D01*
X003958Y001859D01*
X003904Y001810D01*
X003847Y001764D01*
X003788Y001722D01*
X003726Y001682D01*
X003662Y001646D01*
X003597Y001614D01*
X003530Y001585D01*
X003461Y001560D01*
X003391Y001538D01*
X003320Y001521D01*
X003248Y001507D01*
X003176Y001497D01*
X003103Y001491D01*
X003030Y001489D01*
X002957Y001491D01*
X002884Y001497D01*
X002812Y001507D01*
X002740Y001521D01*
X002669Y001538D01*
X002599Y001560D01*
X002530Y001585D01*
X002463Y001614D01*
X002398Y001646D01*
X002334Y001682D01*
X002272Y001722D01*
X002213Y001764D01*
X002156Y001810D01*
X002102Y001859D01*
X002050Y001911D01*
X002001Y001965D01*
X001955Y002022D01*
X001913Y002081D01*
X001873Y002143D01*
X001837Y002207D01*
X001805Y002272D01*
X001776Y002339D01*
X001751Y002408D01*
X001729Y002478D01*
X001712Y002549D01*
X001698Y002621D01*
X001688Y002693D01*
X001682Y002766D01*
X001680Y002839D01*
D15*
X020089Y006939D02*
X020364Y006939D01*
X020364Y007439D02*
X020089Y007439D01*
X020089Y007939D02*
X020364Y007939D01*
X020364Y008439D02*
X020089Y008439D01*
X020089Y008939D02*
X020364Y008939D01*
X025780Y017939D02*
X025780Y018089D01*
X025780Y018439D01*
X026280Y018439D02*
X026280Y018089D01*
X026280Y017939D01*
X026780Y017939D02*
X026780Y018439D01*
X027280Y018439D02*
X027280Y017939D01*
D16*
X028630Y017389D03*
X024430Y016489D03*
X023630Y016489D03*
X022830Y016489D03*
X006830Y019139D03*
X015080Y002189D03*
D17*
X015311Y002399D02*
X015282Y002373D01*
X015282Y002374D02*
X015261Y002395D01*
X015237Y002414D01*
X015211Y002430D01*
X015184Y002443D01*
X015155Y002453D01*
X015125Y002459D01*
X015095Y002463D01*
X015065Y002463D01*
X015035Y002459D01*
X015005Y002453D01*
X014976Y002443D01*
X014949Y002430D01*
X014923Y002414D01*
X014899Y002395D01*
X014878Y002374D01*
X014849Y002399D01*
X014849Y002400D01*
X014873Y002424D01*
X014901Y002446D01*
X014930Y002464D01*
X014962Y002479D01*
X014994Y002490D01*
X015028Y002498D01*
X015063Y002502D01*
X015097Y002502D01*
X015132Y002498D01*
X015166Y002490D01*
X015198Y002479D01*
X015230Y002464D01*
X015259Y002446D01*
X015287Y002424D01*
X015311Y002400D01*
X015311Y002399D01*
X015286Y002423D01*
X015259Y002445D01*
X015229Y002463D01*
X015198Y002478D01*
X015165Y002489D01*
X015132Y002497D01*
X015097Y002501D01*
X015063Y002501D01*
X015028Y002497D01*
X014995Y002489D01*
X014962Y002478D01*
X014931Y002463D01*
X014901Y002445D01*
X014874Y002423D01*
X014849Y002399D01*
X014850Y002399D01*
X014875Y002423D01*
X014902Y002444D01*
X014931Y002462D01*
X014962Y002477D01*
X014995Y002488D01*
X015029Y002496D01*
X015063Y002500D01*
X015097Y002500D01*
X015131Y002496D01*
X015165Y002488D01*
X015198Y002477D01*
X015229Y002462D01*
X015258Y002444D01*
X015285Y002423D01*
X015310Y002399D01*
X015309Y002398D01*
X015285Y002422D01*
X015258Y002443D01*
X015228Y002461D01*
X015197Y002476D01*
X015165Y002487D01*
X015131Y002495D01*
X015097Y002499D01*
X015063Y002499D01*
X015029Y002495D01*
X014995Y002487D01*
X014963Y002476D01*
X014932Y002461D01*
X014902Y002443D01*
X014875Y002422D01*
X014851Y002398D01*
X014852Y002397D01*
X014876Y002421D01*
X014903Y002442D01*
X014932Y002460D01*
X014963Y002475D01*
X014995Y002486D01*
X015029Y002494D01*
X015063Y002498D01*
X015097Y002498D01*
X015131Y002494D01*
X015165Y002486D01*
X015197Y002475D01*
X015228Y002460D01*
X015257Y002442D01*
X015284Y002421D01*
X015308Y002397D01*
X015283Y002420D01*
X015256Y002442D01*
X015227Y002459D01*
X015197Y002474D01*
X015164Y002485D01*
X015131Y002493D01*
X015097Y002497D01*
X015063Y002497D01*
X015029Y002493D01*
X014996Y002485D01*
X014963Y002474D01*
X014933Y002459D01*
X014904Y002442D01*
X014877Y002420D01*
X014852Y002397D01*
X014853Y002396D01*
X014877Y002420D01*
X014904Y002441D01*
X014933Y002459D01*
X014964Y002473D01*
X014996Y002484D01*
X015029Y002492D01*
X015063Y002496D01*
X015097Y002496D01*
X015131Y002492D01*
X015164Y002484D01*
X015196Y002473D01*
X015227Y002459D01*
X015256Y002441D01*
X015283Y002420D01*
X015307Y002396D01*
X015306Y002395D01*
X015282Y002419D01*
X015255Y002440D01*
X015226Y002458D01*
X015196Y002472D01*
X015164Y002483D01*
X015131Y002491D01*
X015097Y002495D01*
X015063Y002495D01*
X015029Y002491D01*
X014996Y002483D01*
X014964Y002472D01*
X014934Y002458D01*
X014905Y002440D01*
X014878Y002419D01*
X014854Y002395D01*
X014855Y002395D01*
X014879Y002418D01*
X014905Y002439D01*
X014934Y002457D01*
X014965Y002471D01*
X014997Y002482D01*
X015030Y002490D01*
X015063Y002494D01*
X015097Y002494D01*
X015130Y002490D01*
X015163Y002482D01*
X015195Y002471D01*
X015226Y002457D01*
X015255Y002439D01*
X015281Y002418D01*
X015305Y002395D01*
X015305Y002394D01*
X015281Y002417D01*
X015254Y002438D01*
X015225Y002456D01*
X015195Y002470D01*
X015163Y002481D01*
X015130Y002489D01*
X015097Y002493D01*
X015063Y002493D01*
X015030Y002489D01*
X014997Y002481D01*
X014965Y002470D01*
X014935Y002456D01*
X014906Y002438D01*
X014879Y002417D01*
X014855Y002394D01*
X014856Y002393D01*
X014880Y002417D01*
X014907Y002437D01*
X014935Y002455D01*
X014965Y002469D01*
X014997Y002480D01*
X015030Y002488D01*
X015063Y002492D01*
X015097Y002492D01*
X015130Y002488D01*
X015163Y002480D01*
X015195Y002469D01*
X015225Y002455D01*
X015253Y002437D01*
X015280Y002417D01*
X015304Y002393D01*
X015303Y002393D01*
X015279Y002416D01*
X015253Y002437D01*
X015224Y002454D01*
X015194Y002469D01*
X015163Y002479D01*
X015130Y002487D01*
X015097Y002491D01*
X015063Y002491D01*
X015030Y002487D01*
X014997Y002479D01*
X014966Y002469D01*
X014936Y002454D01*
X014907Y002437D01*
X014881Y002416D01*
X014857Y002393D01*
X014858Y002392D01*
X014881Y002415D01*
X014908Y002436D01*
X014936Y002453D01*
X014966Y002468D01*
X014998Y002479D01*
X015030Y002486D01*
X015063Y002490D01*
X015097Y002490D01*
X015130Y002486D01*
X015162Y002479D01*
X015194Y002468D01*
X015224Y002453D01*
X015252Y002436D01*
X015279Y002415D01*
X015302Y002392D01*
X015302Y002391D01*
X015278Y002414D01*
X015252Y002435D01*
X015224Y002452D01*
X015193Y002467D01*
X015162Y002478D01*
X015130Y002485D01*
X015097Y002489D01*
X015063Y002489D01*
X015030Y002485D01*
X014998Y002478D01*
X014967Y002467D01*
X014936Y002452D01*
X014908Y002435D01*
X014882Y002414D01*
X014858Y002391D01*
X014859Y002390D01*
X014883Y002414D01*
X014909Y002434D01*
X014937Y002452D01*
X014967Y002466D01*
X014998Y002477D01*
X015031Y002484D01*
X015063Y002488D01*
X015097Y002488D01*
X015129Y002484D01*
X015162Y002477D01*
X015193Y002466D01*
X015223Y002452D01*
X015251Y002434D01*
X015277Y002414D01*
X015301Y002390D01*
X015300Y002390D01*
X015277Y002413D01*
X015251Y002433D01*
X015223Y002451D01*
X015193Y002465D01*
X015162Y002476D01*
X015129Y002483D01*
X015097Y002487D01*
X015063Y002487D01*
X015031Y002483D01*
X014998Y002476D01*
X014967Y002465D01*
X014937Y002451D01*
X014909Y002433D01*
X014883Y002413D01*
X014860Y002390D01*
X014861Y002389D01*
X014884Y002412D01*
X014910Y002433D01*
X014938Y002450D01*
X014968Y002464D01*
X014999Y002475D01*
X015031Y002482D01*
X015064Y002486D01*
X015096Y002486D01*
X015129Y002482D01*
X015161Y002475D01*
X015192Y002464D01*
X015222Y002450D01*
X015250Y002433D01*
X015276Y002412D01*
X015299Y002389D01*
X015299Y002388D01*
X015275Y002411D01*
X015249Y002432D01*
X015222Y002449D01*
X015192Y002463D01*
X015161Y002474D01*
X015129Y002481D01*
X015096Y002485D01*
X015064Y002485D01*
X015031Y002481D01*
X014999Y002474D01*
X014968Y002463D01*
X014938Y002449D01*
X014911Y002432D01*
X014885Y002411D01*
X014861Y002388D01*
X014862Y002388D01*
X014885Y002411D01*
X014911Y002431D01*
X014939Y002448D01*
X014968Y002462D01*
X014999Y002473D01*
X015031Y002480D01*
X015064Y002484D01*
X015096Y002484D01*
X015129Y002480D01*
X015161Y002473D01*
X015192Y002462D01*
X015221Y002448D01*
X015249Y002431D01*
X015275Y002411D01*
X015298Y002388D01*
X015297Y002387D01*
X015274Y002410D01*
X015248Y002430D01*
X015221Y002447D01*
X015191Y002461D01*
X015160Y002472D01*
X015129Y002479D01*
X015096Y002483D01*
X015064Y002483D01*
X015031Y002479D01*
X015000Y002472D01*
X014969Y002461D01*
X014939Y002447D01*
X014912Y002430D01*
X014886Y002410D01*
X014863Y002387D01*
X014864Y002386D01*
X014887Y002409D01*
X014912Y002429D01*
X014940Y002446D01*
X014969Y002460D01*
X015000Y002471D01*
X015032Y002478D01*
X015064Y002482D01*
X015096Y002482D01*
X015128Y002478D01*
X015160Y002471D01*
X015191Y002460D01*
X015220Y002446D01*
X015248Y002429D01*
X015273Y002409D01*
X015296Y002386D01*
X015273Y002408D01*
X015247Y002428D01*
X015220Y002445D01*
X015190Y002459D01*
X015160Y002470D01*
X015128Y002477D01*
X015096Y002481D01*
X015064Y002481D01*
X015032Y002477D01*
X015000Y002470D01*
X014970Y002459D01*
X014940Y002445D01*
X014913Y002428D01*
X014887Y002408D01*
X014864Y002386D01*
X014865Y002385D01*
X014888Y002408D01*
X014913Y002428D01*
X014941Y002445D01*
X014970Y002458D01*
X015000Y002469D01*
X015032Y002476D01*
X015064Y002480D01*
X015096Y002480D01*
X015128Y002476D01*
X015160Y002469D01*
X015190Y002458D01*
X015219Y002445D01*
X015247Y002428D01*
X015272Y002408D01*
X015295Y002385D01*
X015294Y002384D01*
X015271Y002407D01*
X015246Y002427D01*
X015219Y002444D01*
X015190Y002457D01*
X015159Y002468D01*
X015128Y002475D01*
X015096Y002479D01*
X015064Y002479D01*
X015032Y002475D01*
X015001Y002468D01*
X014970Y002457D01*
X014941Y002444D01*
X014914Y002427D01*
X014889Y002407D01*
X014866Y002384D01*
X014889Y002406D01*
X014915Y002426D01*
X014942Y002443D01*
X014971Y002457D01*
X015001Y002467D01*
X015032Y002474D01*
X015064Y002478D01*
X015096Y002478D01*
X015128Y002474D01*
X015159Y002467D01*
X015189Y002457D01*
X015218Y002443D01*
X015245Y002426D01*
X015271Y002406D01*
X015294Y002384D01*
X015293Y002383D01*
X015270Y002405D01*
X015245Y002425D01*
X015218Y002442D01*
X015189Y002456D01*
X015159Y002466D01*
X015128Y002473D01*
X015096Y002477D01*
X015064Y002477D01*
X015032Y002473D01*
X015001Y002466D01*
X014971Y002456D01*
X014942Y002442D01*
X014915Y002425D01*
X014890Y002405D01*
X014867Y002383D01*
X014868Y002382D01*
X014891Y002405D01*
X014916Y002424D01*
X014943Y002441D01*
X014971Y002455D01*
X015001Y002465D01*
X015033Y002472D01*
X015064Y002476D01*
X015096Y002476D01*
X015127Y002472D01*
X015159Y002465D01*
X015189Y002455D01*
X015217Y002441D01*
X015244Y002424D01*
X015269Y002405D01*
X015292Y002382D01*
X015291Y002382D01*
X015269Y002404D01*
X015244Y002423D01*
X015217Y002440D01*
X015188Y002454D01*
X015158Y002464D01*
X015127Y002471D01*
X015096Y002475D01*
X015064Y002475D01*
X015033Y002471D01*
X015002Y002464D01*
X014972Y002454D01*
X014943Y002440D01*
X014916Y002423D01*
X014891Y002404D01*
X014869Y002382D01*
X014869Y002381D01*
X014892Y002403D01*
X014917Y002423D01*
X014944Y002439D01*
X014972Y002453D01*
X015002Y002463D01*
X015033Y002470D01*
X015064Y002474D01*
X015096Y002474D01*
X015127Y002470D01*
X015158Y002463D01*
X015188Y002453D01*
X015216Y002439D01*
X015243Y002423D01*
X015268Y002403D01*
X015291Y002381D01*
X015290Y002380D01*
X015267Y002402D01*
X015243Y002422D01*
X015216Y002438D01*
X015187Y002452D01*
X015158Y002462D01*
X015127Y002469D01*
X015096Y002473D01*
X015064Y002473D01*
X015033Y002469D01*
X015002Y002462D01*
X014973Y002452D01*
X014944Y002438D01*
X014917Y002422D01*
X014893Y002402D01*
X014870Y002380D01*
X014871Y002380D01*
X014893Y002402D01*
X014918Y002421D01*
X014945Y002438D01*
X014973Y002451D01*
X015003Y002461D01*
X015033Y002468D01*
X015064Y002472D01*
X015096Y002472D01*
X015127Y002468D01*
X015157Y002461D01*
X015187Y002451D01*
X015215Y002438D01*
X015242Y002421D01*
X015267Y002402D01*
X015289Y002380D01*
X015288Y002379D01*
X015266Y002401D01*
X015241Y002420D01*
X015215Y002437D01*
X015187Y002450D01*
X015157Y002460D01*
X015127Y002467D01*
X015096Y002471D01*
X015064Y002471D01*
X015033Y002467D01*
X015003Y002460D01*
X014973Y002450D01*
X014945Y002437D01*
X014919Y002420D01*
X014894Y002401D01*
X014872Y002379D01*
X014872Y002378D01*
X014895Y002400D01*
X014919Y002419D01*
X014946Y002436D01*
X014974Y002449D01*
X015003Y002459D01*
X015034Y002466D01*
X015064Y002470D01*
X015096Y002470D01*
X015126Y002466D01*
X015157Y002459D01*
X015186Y002449D01*
X015214Y002436D01*
X015241Y002419D01*
X015265Y002400D01*
X015288Y002378D01*
X015287Y002378D01*
X015265Y002399D01*
X015240Y002419D01*
X015214Y002435D01*
X015186Y002448D01*
X015157Y002458D01*
X015126Y002465D01*
X015096Y002469D01*
X015064Y002469D01*
X015034Y002465D01*
X015003Y002458D01*
X014974Y002448D01*
X014946Y002435D01*
X014920Y002419D01*
X014895Y002399D01*
X014873Y002378D01*
X014874Y002377D01*
X014896Y002399D01*
X014920Y002418D01*
X014947Y002434D01*
X014974Y002447D01*
X015004Y002457D01*
X015034Y002464D01*
X015065Y002468D01*
X015095Y002468D01*
X015126Y002464D01*
X015156Y002457D01*
X015186Y002447D01*
X015213Y002434D01*
X015240Y002418D01*
X015264Y002399D01*
X015286Y002377D01*
X015285Y002376D01*
X015263Y002398D01*
X015239Y002417D01*
X015213Y002433D01*
X015185Y002446D01*
X015156Y002456D01*
X015126Y002463D01*
X015095Y002467D01*
X015065Y002467D01*
X015034Y002463D01*
X015004Y002456D01*
X014975Y002446D01*
X014947Y002433D01*
X014921Y002417D01*
X014897Y002398D01*
X014875Y002376D01*
X014897Y002397D01*
X014921Y002416D01*
X014948Y002432D01*
X014975Y002445D01*
X015004Y002455D01*
X015034Y002462D01*
X015065Y002466D01*
X015095Y002466D01*
X015126Y002462D01*
X015156Y002455D01*
X015185Y002445D01*
X015212Y002432D01*
X015239Y002416D01*
X015263Y002397D01*
X015285Y002376D01*
X015284Y002375D01*
X015262Y002396D01*
X015238Y002415D01*
X015212Y002431D01*
X015184Y002444D01*
X015155Y002454D01*
X015126Y002461D01*
X015095Y002465D01*
X015065Y002465D01*
X015034Y002461D01*
X015005Y002454D01*
X014976Y002444D01*
X014948Y002431D01*
X014922Y002415D01*
X014898Y002396D01*
X014876Y002375D01*
X014877Y002374D01*
X014899Y002396D01*
X014923Y002414D01*
X014948Y002431D01*
X014976Y002444D01*
X015005Y002454D01*
X015034Y002460D01*
X015065Y002464D01*
X015095Y002464D01*
X015126Y002460D01*
X015155Y002454D01*
X015184Y002444D01*
X015212Y002431D01*
X015237Y002414D01*
X015261Y002396D01*
X015283Y002374D01*
X014849Y001979D02*
X014878Y002005D01*
X014878Y002004D02*
X014899Y001983D01*
X014923Y001964D01*
X014949Y001948D01*
X014976Y001935D01*
X015005Y001925D01*
X015035Y001919D01*
X015065Y001915D01*
X015095Y001915D01*
X015125Y001919D01*
X015155Y001925D01*
X015184Y001935D01*
X015211Y001948D01*
X015237Y001964D01*
X015261Y001983D01*
X015282Y002004D01*
X015311Y001979D01*
X015311Y001978D01*
X015287Y001954D01*
X015259Y001932D01*
X015230Y001914D01*
X015198Y001899D01*
X015166Y001888D01*
X015132Y001880D01*
X015097Y001876D01*
X015063Y001876D01*
X015028Y001880D01*
X014994Y001888D01*
X014962Y001899D01*
X014930Y001914D01*
X014901Y001932D01*
X014873Y001954D01*
X014849Y001978D01*
X014849Y001979D01*
X014874Y001955D01*
X014901Y001933D01*
X014931Y001915D01*
X014962Y001900D01*
X014995Y001889D01*
X015028Y001881D01*
X015063Y001877D01*
X015097Y001877D01*
X015132Y001881D01*
X015165Y001889D01*
X015198Y001900D01*
X015229Y001915D01*
X015259Y001933D01*
X015286Y001955D01*
X015311Y001979D01*
X015310Y001979D01*
X015285Y001955D01*
X015258Y001934D01*
X015229Y001916D01*
X015198Y001901D01*
X015165Y001890D01*
X015131Y001882D01*
X015097Y001878D01*
X015063Y001878D01*
X015029Y001882D01*
X014995Y001890D01*
X014962Y001901D01*
X014931Y001916D01*
X014902Y001934D01*
X014875Y001955D01*
X014850Y001979D01*
X014851Y001980D01*
X014875Y001956D01*
X014902Y001935D01*
X014932Y001917D01*
X014963Y001902D01*
X014995Y001891D01*
X015029Y001883D01*
X015063Y001879D01*
X015097Y001879D01*
X015131Y001883D01*
X015165Y001891D01*
X015197Y001902D01*
X015228Y001917D01*
X015258Y001935D01*
X015285Y001956D01*
X015309Y001980D01*
X015308Y001981D01*
X015284Y001957D01*
X015257Y001936D01*
X015228Y001918D01*
X015197Y001903D01*
X015165Y001892D01*
X015131Y001884D01*
X015097Y001880D01*
X015063Y001880D01*
X015029Y001884D01*
X014995Y001892D01*
X014963Y001903D01*
X014932Y001918D01*
X014903Y001936D01*
X014876Y001957D01*
X014852Y001981D01*
X014877Y001958D01*
X014904Y001936D01*
X014933Y001919D01*
X014963Y001904D01*
X014996Y001893D01*
X015029Y001885D01*
X015063Y001881D01*
X015097Y001881D01*
X015131Y001885D01*
X015164Y001893D01*
X015197Y001904D01*
X015227Y001919D01*
X015256Y001936D01*
X015283Y001958D01*
X015308Y001981D01*
X015307Y001982D01*
X015283Y001958D01*
X015256Y001937D01*
X015227Y001919D01*
X015196Y001905D01*
X015164Y001894D01*
X015131Y001886D01*
X015097Y001882D01*
X015063Y001882D01*
X015029Y001886D01*
X014996Y001894D01*
X014964Y001905D01*
X014933Y001919D01*
X014904Y001937D01*
X014877Y001958D01*
X014853Y001982D01*
X014854Y001983D01*
X014878Y001959D01*
X014905Y001938D01*
X014934Y001920D01*
X014964Y001906D01*
X014996Y001895D01*
X015029Y001887D01*
X015063Y001883D01*
X015097Y001883D01*
X015131Y001887D01*
X015164Y001895D01*
X015196Y001906D01*
X015226Y001920D01*
X015255Y001938D01*
X015282Y001959D01*
X015306Y001983D01*
X015305Y001983D01*
X015281Y001960D01*
X015255Y001939D01*
X015226Y001921D01*
X015195Y001907D01*
X015163Y001896D01*
X015130Y001888D01*
X015097Y001884D01*
X015063Y001884D01*
X015030Y001888D01*
X014997Y001896D01*
X014965Y001907D01*
X014934Y001921D01*
X014905Y001939D01*
X014879Y001960D01*
X014855Y001983D01*
X014855Y001984D01*
X014879Y001961D01*
X014906Y001940D01*
X014935Y001922D01*
X014965Y001908D01*
X014997Y001897D01*
X015030Y001889D01*
X015063Y001885D01*
X015097Y001885D01*
X015130Y001889D01*
X015163Y001897D01*
X015195Y001908D01*
X015225Y001922D01*
X015254Y001940D01*
X015281Y001961D01*
X015305Y001984D01*
X015304Y001985D01*
X015280Y001961D01*
X015253Y001941D01*
X015225Y001923D01*
X015195Y001909D01*
X015163Y001898D01*
X015130Y001890D01*
X015097Y001886D01*
X015063Y001886D01*
X015030Y001890D01*
X014997Y001898D01*
X014965Y001909D01*
X014935Y001923D01*
X014907Y001941D01*
X014880Y001961D01*
X014856Y001985D01*
X014857Y001985D01*
X014881Y001962D01*
X014907Y001941D01*
X014936Y001924D01*
X014966Y001909D01*
X014997Y001899D01*
X015030Y001891D01*
X015063Y001887D01*
X015097Y001887D01*
X015130Y001891D01*
X015163Y001899D01*
X015194Y001909D01*
X015224Y001924D01*
X015253Y001941D01*
X015279Y001962D01*
X015303Y001985D01*
X015302Y001986D01*
X015279Y001963D01*
X015252Y001942D01*
X015224Y001925D01*
X015194Y001910D01*
X015162Y001899D01*
X015130Y001892D01*
X015097Y001888D01*
X015063Y001888D01*
X015030Y001892D01*
X014998Y001899D01*
X014966Y001910D01*
X014936Y001925D01*
X014908Y001942D01*
X014881Y001963D01*
X014858Y001986D01*
X014858Y001987D01*
X014882Y001964D01*
X014908Y001943D01*
X014936Y001926D01*
X014967Y001911D01*
X014998Y001900D01*
X015030Y001893D01*
X015063Y001889D01*
X015097Y001889D01*
X015130Y001893D01*
X015162Y001900D01*
X015193Y001911D01*
X015224Y001926D01*
X015252Y001943D01*
X015278Y001964D01*
X015302Y001987D01*
X015301Y001988D01*
X015277Y001964D01*
X015251Y001944D01*
X015223Y001926D01*
X015193Y001912D01*
X015162Y001901D01*
X015129Y001894D01*
X015097Y001890D01*
X015063Y001890D01*
X015031Y001894D01*
X014998Y001901D01*
X014967Y001912D01*
X014937Y001926D01*
X014909Y001944D01*
X014883Y001964D01*
X014859Y001988D01*
X014860Y001988D01*
X014883Y001965D01*
X014909Y001945D01*
X014937Y001927D01*
X014967Y001913D01*
X014998Y001902D01*
X015031Y001895D01*
X015063Y001891D01*
X015097Y001891D01*
X015129Y001895D01*
X015162Y001902D01*
X015193Y001913D01*
X015223Y001927D01*
X015251Y001945D01*
X015277Y001965D01*
X015300Y001988D01*
X015299Y001989D01*
X015276Y001966D01*
X015250Y001945D01*
X015222Y001928D01*
X015192Y001914D01*
X015161Y001903D01*
X015129Y001896D01*
X015096Y001892D01*
X015064Y001892D01*
X015031Y001896D01*
X014999Y001903D01*
X014968Y001914D01*
X014938Y001928D01*
X014910Y001945D01*
X014884Y001966D01*
X014861Y001989D01*
X014861Y001990D01*
X014885Y001967D01*
X014911Y001946D01*
X014938Y001929D01*
X014968Y001915D01*
X014999Y001904D01*
X015031Y001897D01*
X015064Y001893D01*
X015096Y001893D01*
X015129Y001897D01*
X015161Y001904D01*
X015192Y001915D01*
X015222Y001929D01*
X015249Y001946D01*
X015275Y001967D01*
X015299Y001990D01*
X015298Y001990D01*
X015275Y001967D01*
X015249Y001947D01*
X015221Y001930D01*
X015192Y001916D01*
X015161Y001905D01*
X015129Y001898D01*
X015096Y001894D01*
X015064Y001894D01*
X015031Y001898D01*
X014999Y001905D01*
X014968Y001916D01*
X014939Y001930D01*
X014911Y001947D01*
X014885Y001967D01*
X014862Y001990D01*
X014863Y001991D01*
X014886Y001968D01*
X014912Y001948D01*
X014939Y001931D01*
X014969Y001917D01*
X015000Y001906D01*
X015031Y001899D01*
X015064Y001895D01*
X015096Y001895D01*
X015129Y001899D01*
X015160Y001906D01*
X015191Y001917D01*
X015221Y001931D01*
X015248Y001948D01*
X015274Y001968D01*
X015297Y001991D01*
X015296Y001992D01*
X015273Y001969D01*
X015248Y001949D01*
X015220Y001932D01*
X015191Y001918D01*
X015160Y001907D01*
X015128Y001900D01*
X015096Y001896D01*
X015064Y001896D01*
X015032Y001900D01*
X015000Y001907D01*
X014969Y001918D01*
X014940Y001932D01*
X014912Y001949D01*
X014887Y001969D01*
X014864Y001992D01*
X014887Y001970D01*
X014913Y001950D01*
X014940Y001933D01*
X014970Y001919D01*
X015000Y001908D01*
X015032Y001901D01*
X015064Y001897D01*
X015096Y001897D01*
X015128Y001901D01*
X015160Y001908D01*
X015190Y001919D01*
X015220Y001933D01*
X015247Y001950D01*
X015273Y001970D01*
X015296Y001992D01*
X015295Y001993D01*
X015272Y001970D01*
X015247Y001950D01*
X015219Y001933D01*
X015190Y001920D01*
X015160Y001909D01*
X015128Y001902D01*
X015096Y001898D01*
X015064Y001898D01*
X015032Y001902D01*
X015000Y001909D01*
X014970Y001920D01*
X014941Y001933D01*
X014913Y001950D01*
X014888Y001970D01*
X014865Y001993D01*
X014866Y001994D01*
X014889Y001971D01*
X014914Y001951D01*
X014941Y001934D01*
X014970Y001921D01*
X015001Y001910D01*
X015032Y001903D01*
X015064Y001899D01*
X015096Y001899D01*
X015128Y001903D01*
X015159Y001910D01*
X015190Y001921D01*
X015219Y001934D01*
X015246Y001951D01*
X015271Y001971D01*
X015294Y001994D01*
X015271Y001972D01*
X015245Y001952D01*
X015218Y001935D01*
X015189Y001921D01*
X015159Y001911D01*
X015128Y001904D01*
X015096Y001900D01*
X015064Y001900D01*
X015032Y001904D01*
X015001Y001911D01*
X014971Y001921D01*
X014942Y001935D01*
X014915Y001952D01*
X014889Y001972D01*
X014866Y001994D01*
X014867Y001995D01*
X014890Y001973D01*
X014915Y001953D01*
X014942Y001936D01*
X014971Y001922D01*
X015001Y001912D01*
X015032Y001905D01*
X015064Y001901D01*
X015096Y001901D01*
X015128Y001905D01*
X015159Y001912D01*
X015189Y001922D01*
X015218Y001936D01*
X015245Y001953D01*
X015270Y001973D01*
X015293Y001995D01*
X015292Y001996D01*
X015269Y001973D01*
X015244Y001954D01*
X015217Y001937D01*
X015189Y001923D01*
X015159Y001913D01*
X015127Y001906D01*
X015096Y001902D01*
X015064Y001902D01*
X015033Y001906D01*
X015001Y001913D01*
X014971Y001923D01*
X014943Y001937D01*
X014916Y001954D01*
X014891Y001973D01*
X014868Y001996D01*
X014869Y001996D01*
X014891Y001974D01*
X014916Y001955D01*
X014943Y001938D01*
X014972Y001924D01*
X015002Y001914D01*
X015033Y001907D01*
X015064Y001903D01*
X015096Y001903D01*
X015127Y001907D01*
X015158Y001914D01*
X015188Y001924D01*
X015217Y001938D01*
X015244Y001955D01*
X015269Y001974D01*
X015291Y001996D01*
X015291Y001997D01*
X015268Y001975D01*
X015243Y001955D01*
X015216Y001939D01*
X015188Y001925D01*
X015158Y001915D01*
X015127Y001908D01*
X015096Y001904D01*
X015064Y001904D01*
X015033Y001908D01*
X015002Y001915D01*
X014972Y001925D01*
X014944Y001939D01*
X014917Y001955D01*
X014892Y001975D01*
X014869Y001997D01*
X014870Y001998D01*
X014893Y001976D01*
X014917Y001956D01*
X014944Y001940D01*
X014973Y001926D01*
X015002Y001916D01*
X015033Y001909D01*
X015064Y001905D01*
X015096Y001905D01*
X015127Y001909D01*
X015158Y001916D01*
X015187Y001926D01*
X015216Y001940D01*
X015243Y001956D01*
X015267Y001976D01*
X015290Y001998D01*
X015289Y001998D01*
X015267Y001976D01*
X015242Y001957D01*
X015215Y001940D01*
X015187Y001927D01*
X015157Y001917D01*
X015127Y001910D01*
X015096Y001906D01*
X015064Y001906D01*
X015033Y001910D01*
X015003Y001917D01*
X014973Y001927D01*
X014945Y001940D01*
X014918Y001957D01*
X014893Y001976D01*
X014871Y001998D01*
X014872Y001999D01*
X014894Y001977D01*
X014919Y001958D01*
X014945Y001941D01*
X014973Y001928D01*
X015003Y001918D01*
X015033Y001911D01*
X015064Y001907D01*
X015096Y001907D01*
X015127Y001911D01*
X015157Y001918D01*
X015187Y001928D01*
X015215Y001941D01*
X015241Y001958D01*
X015266Y001977D01*
X015288Y001999D01*
X015288Y002000D01*
X015265Y001978D01*
X015241Y001959D01*
X015214Y001942D01*
X015186Y001929D01*
X015157Y001919D01*
X015126Y001912D01*
X015096Y001908D01*
X015064Y001908D01*
X015034Y001912D01*
X015003Y001919D01*
X014974Y001929D01*
X014946Y001942D01*
X014919Y001959D01*
X014895Y001978D01*
X014872Y002000D01*
X014873Y002000D01*
X014895Y001979D01*
X014920Y001959D01*
X014946Y001943D01*
X014974Y001930D01*
X015003Y001920D01*
X015034Y001913D01*
X015064Y001909D01*
X015096Y001909D01*
X015126Y001913D01*
X015157Y001920D01*
X015186Y001930D01*
X015214Y001943D01*
X015240Y001959D01*
X015265Y001979D01*
X015287Y002000D01*
X015286Y002001D01*
X015264Y001979D01*
X015240Y001960D01*
X015213Y001944D01*
X015186Y001931D01*
X015156Y001921D01*
X015126Y001914D01*
X015095Y001910D01*
X015065Y001910D01*
X015034Y001914D01*
X015004Y001921D01*
X014974Y001931D01*
X014947Y001944D01*
X014920Y001960D01*
X014896Y001979D01*
X014874Y002001D01*
X014875Y002002D01*
X014897Y001980D01*
X014921Y001961D01*
X014947Y001945D01*
X014975Y001932D01*
X015004Y001922D01*
X015034Y001915D01*
X015065Y001911D01*
X015095Y001911D01*
X015126Y001915D01*
X015156Y001922D01*
X015185Y001932D01*
X015213Y001945D01*
X015239Y001961D01*
X015263Y001980D01*
X015285Y002002D01*
X015263Y001981D01*
X015239Y001962D01*
X015212Y001946D01*
X015185Y001933D01*
X015156Y001923D01*
X015126Y001916D01*
X015095Y001912D01*
X015065Y001912D01*
X015034Y001916D01*
X015004Y001923D01*
X014975Y001933D01*
X014948Y001946D01*
X014921Y001962D01*
X014897Y001981D01*
X014875Y002002D01*
X014876Y002003D01*
X014898Y001982D01*
X014922Y001963D01*
X014948Y001947D01*
X014976Y001934D01*
X015005Y001924D01*
X015034Y001917D01*
X015065Y001913D01*
X015095Y001913D01*
X015126Y001917D01*
X015155Y001924D01*
X015184Y001934D01*
X015212Y001947D01*
X015238Y001963D01*
X015262Y001982D01*
X015284Y002003D01*
X015283Y002004D01*
X015261Y001982D01*
X015237Y001964D01*
X015212Y001947D01*
X015184Y001934D01*
X015155Y001924D01*
X015126Y001918D01*
X015095Y001914D01*
X015065Y001914D01*
X015034Y001918D01*
X015005Y001924D01*
X014976Y001934D01*
X014948Y001947D01*
X014923Y001964D01*
X014899Y001982D01*
X014877Y002004D01*
X022620Y016720D02*
X022646Y016691D01*
X022645Y016691D02*
X022624Y016670D01*
X022605Y016646D01*
X022589Y016620D01*
X022576Y016593D01*
X022566Y016564D01*
X022560Y016534D01*
X022556Y016504D01*
X022556Y016474D01*
X022560Y016444D01*
X022566Y016414D01*
X022576Y016385D01*
X022589Y016358D01*
X022605Y016332D01*
X022624Y016308D01*
X022645Y016287D01*
X022620Y016258D01*
X022619Y016258D01*
X022595Y016282D01*
X022573Y016310D01*
X022555Y016339D01*
X022540Y016371D01*
X022529Y016403D01*
X022521Y016437D01*
X022517Y016472D01*
X022517Y016506D01*
X022521Y016541D01*
X022529Y016575D01*
X022540Y016607D01*
X022555Y016639D01*
X022573Y016668D01*
X022595Y016696D01*
X022619Y016720D01*
X022620Y016720D01*
X022596Y016695D01*
X022574Y016668D01*
X022556Y016638D01*
X022541Y016607D01*
X022530Y016574D01*
X022522Y016541D01*
X022518Y016506D01*
X022518Y016472D01*
X022522Y016437D01*
X022530Y016404D01*
X022541Y016371D01*
X022556Y016340D01*
X022574Y016310D01*
X022596Y016283D01*
X022620Y016258D01*
X022620Y016259D01*
X022596Y016284D01*
X022575Y016311D01*
X022557Y016340D01*
X022542Y016371D01*
X022531Y016404D01*
X022523Y016438D01*
X022519Y016472D01*
X022519Y016506D01*
X022523Y016540D01*
X022531Y016574D01*
X022542Y016607D01*
X022557Y016638D01*
X022575Y016667D01*
X022596Y016694D01*
X022620Y016719D01*
X022621Y016718D01*
X022597Y016694D01*
X022576Y016667D01*
X022558Y016637D01*
X022543Y016606D01*
X022532Y016574D01*
X022524Y016540D01*
X022520Y016506D01*
X022520Y016472D01*
X022524Y016438D01*
X022532Y016404D01*
X022543Y016372D01*
X022558Y016341D01*
X022576Y016311D01*
X022597Y016284D01*
X022621Y016260D01*
X022622Y016261D01*
X022598Y016285D01*
X022577Y016312D01*
X022559Y016341D01*
X022544Y016372D01*
X022533Y016404D01*
X022525Y016438D01*
X022521Y016472D01*
X022521Y016506D01*
X022525Y016540D01*
X022533Y016574D01*
X022544Y016606D01*
X022559Y016637D01*
X022577Y016666D01*
X022598Y016693D01*
X022622Y016717D01*
X022599Y016692D01*
X022577Y016665D01*
X022560Y016636D01*
X022545Y016606D01*
X022534Y016573D01*
X022526Y016540D01*
X022522Y016506D01*
X022522Y016472D01*
X022526Y016438D01*
X022534Y016405D01*
X022545Y016372D01*
X022560Y016342D01*
X022577Y016313D01*
X022599Y016286D01*
X022622Y016261D01*
X022623Y016262D01*
X022599Y016286D01*
X022578Y016313D01*
X022560Y016342D01*
X022546Y016373D01*
X022535Y016405D01*
X022527Y016438D01*
X022523Y016472D01*
X022523Y016506D01*
X022527Y016540D01*
X022535Y016573D01*
X022546Y016605D01*
X022560Y016636D01*
X022578Y016665D01*
X022599Y016692D01*
X022623Y016716D01*
X022624Y016715D01*
X022600Y016691D01*
X022579Y016664D01*
X022561Y016635D01*
X022547Y016605D01*
X022536Y016573D01*
X022528Y016540D01*
X022524Y016506D01*
X022524Y016472D01*
X022528Y016438D01*
X022536Y016405D01*
X022547Y016373D01*
X022561Y016343D01*
X022579Y016314D01*
X022600Y016287D01*
X022624Y016263D01*
X022624Y016264D01*
X022601Y016288D01*
X022580Y016314D01*
X022562Y016343D01*
X022548Y016374D01*
X022537Y016406D01*
X022529Y016439D01*
X022525Y016472D01*
X022525Y016506D01*
X022529Y016539D01*
X022537Y016572D01*
X022548Y016604D01*
X022562Y016635D01*
X022580Y016664D01*
X022601Y016690D01*
X022624Y016714D01*
X022625Y016714D01*
X022602Y016690D01*
X022581Y016663D01*
X022563Y016634D01*
X022549Y016604D01*
X022538Y016572D01*
X022530Y016539D01*
X022526Y016506D01*
X022526Y016472D01*
X022530Y016439D01*
X022538Y016406D01*
X022549Y016374D01*
X022563Y016344D01*
X022581Y016315D01*
X022602Y016288D01*
X022625Y016264D01*
X022626Y016265D01*
X022602Y016289D01*
X022582Y016316D01*
X022564Y016344D01*
X022550Y016374D01*
X022539Y016406D01*
X022531Y016439D01*
X022527Y016472D01*
X022527Y016506D01*
X022531Y016539D01*
X022539Y016572D01*
X022550Y016604D01*
X022564Y016634D01*
X022582Y016662D01*
X022602Y016689D01*
X022626Y016713D01*
X022626Y016712D01*
X022603Y016688D01*
X022582Y016662D01*
X022565Y016633D01*
X022550Y016603D01*
X022540Y016572D01*
X022532Y016539D01*
X022528Y016506D01*
X022528Y016472D01*
X022532Y016439D01*
X022540Y016406D01*
X022550Y016375D01*
X022565Y016345D01*
X022582Y016316D01*
X022603Y016290D01*
X022626Y016266D01*
X022627Y016267D01*
X022604Y016290D01*
X022583Y016317D01*
X022566Y016345D01*
X022551Y016375D01*
X022540Y016407D01*
X022533Y016439D01*
X022529Y016472D01*
X022529Y016506D01*
X022533Y016539D01*
X022540Y016571D01*
X022551Y016603D01*
X022566Y016633D01*
X022583Y016661D01*
X022604Y016688D01*
X022627Y016711D01*
X022628Y016711D01*
X022605Y016687D01*
X022584Y016661D01*
X022567Y016633D01*
X022552Y016602D01*
X022541Y016571D01*
X022534Y016539D01*
X022530Y016506D01*
X022530Y016472D01*
X022534Y016439D01*
X022541Y016407D01*
X022552Y016376D01*
X022567Y016345D01*
X022584Y016317D01*
X022605Y016291D01*
X022628Y016267D01*
X022629Y016268D01*
X022605Y016292D01*
X022585Y016318D01*
X022567Y016346D01*
X022553Y016376D01*
X022542Y016407D01*
X022535Y016440D01*
X022531Y016472D01*
X022531Y016506D01*
X022535Y016538D01*
X022542Y016571D01*
X022553Y016602D01*
X022567Y016632D01*
X022585Y016660D01*
X022605Y016686D01*
X022629Y016710D01*
X022629Y016709D01*
X022606Y016686D01*
X022586Y016660D01*
X022568Y016632D01*
X022554Y016602D01*
X022543Y016571D01*
X022536Y016538D01*
X022532Y016506D01*
X022532Y016472D01*
X022536Y016440D01*
X022543Y016407D01*
X022554Y016376D01*
X022568Y016346D01*
X022586Y016318D01*
X022606Y016292D01*
X022629Y016269D01*
X022630Y016270D01*
X022607Y016293D01*
X022586Y016319D01*
X022569Y016347D01*
X022555Y016377D01*
X022544Y016408D01*
X022537Y016440D01*
X022533Y016473D01*
X022533Y016505D01*
X022537Y016538D01*
X022544Y016570D01*
X022555Y016601D01*
X022569Y016631D01*
X022586Y016659D01*
X022607Y016685D01*
X022630Y016708D01*
X022631Y016708D01*
X022608Y016684D01*
X022587Y016658D01*
X022570Y016631D01*
X022556Y016601D01*
X022545Y016570D01*
X022538Y016538D01*
X022534Y016505D01*
X022534Y016473D01*
X022538Y016440D01*
X022545Y016408D01*
X022556Y016377D01*
X022570Y016347D01*
X022587Y016320D01*
X022608Y016294D01*
X022631Y016270D01*
X022631Y016271D01*
X022608Y016294D01*
X022588Y016320D01*
X022571Y016348D01*
X022557Y016377D01*
X022546Y016408D01*
X022539Y016440D01*
X022535Y016473D01*
X022535Y016505D01*
X022539Y016538D01*
X022546Y016570D01*
X022557Y016601D01*
X022571Y016630D01*
X022588Y016658D01*
X022608Y016684D01*
X022631Y016707D01*
X022632Y016706D01*
X022609Y016683D01*
X022589Y016657D01*
X022572Y016630D01*
X022558Y016600D01*
X022547Y016569D01*
X022540Y016538D01*
X022536Y016505D01*
X022536Y016473D01*
X022540Y016440D01*
X022547Y016409D01*
X022558Y016378D01*
X022572Y016348D01*
X022589Y016321D01*
X022609Y016295D01*
X022632Y016272D01*
X022633Y016273D01*
X022610Y016296D01*
X022590Y016321D01*
X022573Y016349D01*
X022559Y016378D01*
X022548Y016409D01*
X022541Y016441D01*
X022537Y016473D01*
X022537Y016505D01*
X022541Y016537D01*
X022548Y016569D01*
X022559Y016600D01*
X022573Y016629D01*
X022590Y016657D01*
X022610Y016682D01*
X022633Y016705D01*
X022611Y016682D01*
X022591Y016656D01*
X022574Y016629D01*
X022560Y016599D01*
X022549Y016569D01*
X022542Y016537D01*
X022538Y016505D01*
X022538Y016473D01*
X022542Y016441D01*
X022549Y016409D01*
X022560Y016379D01*
X022574Y016349D01*
X022591Y016322D01*
X022611Y016296D01*
X022633Y016273D01*
X022634Y016274D01*
X022611Y016297D01*
X022591Y016322D01*
X022574Y016350D01*
X022561Y016379D01*
X022550Y016409D01*
X022543Y016441D01*
X022539Y016473D01*
X022539Y016505D01*
X022543Y016537D01*
X022550Y016569D01*
X022561Y016599D01*
X022574Y016628D01*
X022591Y016656D01*
X022611Y016681D01*
X022634Y016704D01*
X022635Y016703D01*
X022612Y016680D01*
X022592Y016655D01*
X022575Y016628D01*
X022562Y016599D01*
X022551Y016568D01*
X022544Y016537D01*
X022540Y016505D01*
X022540Y016473D01*
X022544Y016441D01*
X022551Y016410D01*
X022562Y016379D01*
X022575Y016350D01*
X022592Y016323D01*
X022612Y016298D01*
X022635Y016275D01*
X022613Y016298D01*
X022593Y016324D01*
X022576Y016351D01*
X022562Y016380D01*
X022552Y016410D01*
X022545Y016441D01*
X022541Y016473D01*
X022541Y016505D01*
X022545Y016537D01*
X022552Y016568D01*
X022562Y016598D01*
X022576Y016627D01*
X022593Y016654D01*
X022613Y016680D01*
X022635Y016703D01*
X022636Y016702D01*
X022614Y016679D01*
X022594Y016654D01*
X022577Y016627D01*
X022563Y016598D01*
X022553Y016568D01*
X022546Y016537D01*
X022542Y016505D01*
X022542Y016473D01*
X022546Y016441D01*
X022553Y016410D01*
X022563Y016380D01*
X022577Y016351D01*
X022594Y016324D01*
X022614Y016299D01*
X022636Y016276D01*
X022637Y016277D01*
X022614Y016300D01*
X022595Y016325D01*
X022578Y016352D01*
X022564Y016380D01*
X022554Y016410D01*
X022547Y016442D01*
X022543Y016473D01*
X022543Y016505D01*
X022547Y016536D01*
X022554Y016568D01*
X022564Y016598D01*
X022578Y016626D01*
X022595Y016653D01*
X022614Y016678D01*
X022637Y016701D01*
X022637Y016700D01*
X022615Y016678D01*
X022596Y016653D01*
X022579Y016626D01*
X022565Y016597D01*
X022555Y016567D01*
X022548Y016536D01*
X022544Y016505D01*
X022544Y016473D01*
X022548Y016442D01*
X022555Y016411D01*
X022565Y016381D01*
X022579Y016352D01*
X022596Y016325D01*
X022615Y016300D01*
X022637Y016278D01*
X022638Y016278D01*
X022616Y016301D01*
X022596Y016326D01*
X022580Y016353D01*
X022566Y016381D01*
X022556Y016411D01*
X022549Y016442D01*
X022545Y016473D01*
X022545Y016505D01*
X022549Y016536D01*
X022556Y016567D01*
X022566Y016597D01*
X022580Y016625D01*
X022596Y016652D01*
X022616Y016677D01*
X022638Y016700D01*
X022639Y016699D01*
X022617Y016676D01*
X022597Y016652D01*
X022581Y016625D01*
X022567Y016596D01*
X022557Y016567D01*
X022550Y016536D01*
X022546Y016505D01*
X022546Y016473D01*
X022550Y016442D01*
X022557Y016411D01*
X022567Y016382D01*
X022581Y016353D01*
X022597Y016326D01*
X022617Y016302D01*
X022639Y016279D01*
X022639Y016280D01*
X022617Y016302D01*
X022598Y016327D01*
X022581Y016354D01*
X022568Y016382D01*
X022558Y016412D01*
X022551Y016442D01*
X022547Y016473D01*
X022547Y016505D01*
X022551Y016536D01*
X022558Y016566D01*
X022568Y016596D01*
X022581Y016624D01*
X022598Y016651D01*
X022617Y016676D01*
X022639Y016698D01*
X022640Y016697D01*
X022618Y016675D01*
X022599Y016650D01*
X022582Y016624D01*
X022569Y016596D01*
X022559Y016566D01*
X022552Y016536D01*
X022548Y016505D01*
X022548Y016473D01*
X022552Y016442D01*
X022559Y016412D01*
X022569Y016382D01*
X022582Y016354D01*
X022599Y016328D01*
X022618Y016303D01*
X022640Y016281D01*
X022641Y016281D01*
X022619Y016304D01*
X022600Y016328D01*
X022583Y016355D01*
X022570Y016383D01*
X022560Y016412D01*
X022553Y016443D01*
X022549Y016473D01*
X022549Y016505D01*
X022553Y016535D01*
X022560Y016566D01*
X022570Y016595D01*
X022583Y016623D01*
X022600Y016650D01*
X022619Y016674D01*
X022641Y016697D01*
X022641Y016696D01*
X022620Y016674D01*
X022600Y016649D01*
X022584Y016623D01*
X022571Y016595D01*
X022561Y016566D01*
X022554Y016535D01*
X022550Y016505D01*
X022550Y016473D01*
X022554Y016443D01*
X022561Y016412D01*
X022571Y016383D01*
X022584Y016355D01*
X022600Y016329D01*
X022620Y016304D01*
X022641Y016282D01*
X022642Y016283D01*
X022620Y016305D01*
X022601Y016329D01*
X022585Y016356D01*
X022572Y016383D01*
X022562Y016413D01*
X022555Y016443D01*
X022551Y016474D01*
X022551Y016504D01*
X022555Y016535D01*
X022562Y016565D01*
X022572Y016595D01*
X022585Y016622D01*
X022601Y016649D01*
X022620Y016673D01*
X022642Y016695D01*
X022643Y016694D01*
X022621Y016672D01*
X022602Y016648D01*
X022586Y016622D01*
X022573Y016594D01*
X022563Y016565D01*
X022556Y016535D01*
X022552Y016504D01*
X022552Y016474D01*
X022556Y016443D01*
X022563Y016413D01*
X022573Y016384D01*
X022586Y016356D01*
X022602Y016330D01*
X022621Y016306D01*
X022643Y016284D01*
X022622Y016306D01*
X022603Y016330D01*
X022587Y016357D01*
X022574Y016384D01*
X022564Y016413D01*
X022557Y016443D01*
X022553Y016474D01*
X022553Y016504D01*
X022557Y016535D01*
X022564Y016565D01*
X022574Y016594D01*
X022587Y016621D01*
X022603Y016648D01*
X022622Y016672D01*
X022643Y016694D01*
X022644Y016693D01*
X022623Y016671D01*
X022604Y016647D01*
X022588Y016621D01*
X022575Y016593D01*
X022565Y016564D01*
X022558Y016535D01*
X022554Y016504D01*
X022554Y016474D01*
X022558Y016443D01*
X022565Y016414D01*
X022575Y016385D01*
X022588Y016357D01*
X022604Y016331D01*
X022623Y016307D01*
X022644Y016285D01*
X022645Y016286D01*
X022623Y016308D01*
X022605Y016332D01*
X022588Y016357D01*
X022575Y016385D01*
X022565Y016414D01*
X022559Y016443D01*
X022555Y016474D01*
X022555Y016504D01*
X022559Y016535D01*
X022565Y016564D01*
X022575Y016593D01*
X022588Y016621D01*
X022605Y016646D01*
X022623Y016670D01*
X022645Y016692D01*
X023040Y016258D02*
X023014Y016287D01*
X023015Y016287D02*
X023036Y016308D01*
X023055Y016332D01*
X023071Y016358D01*
X023084Y016385D01*
X023094Y016414D01*
X023100Y016444D01*
X023104Y016474D01*
X023104Y016504D01*
X023100Y016534D01*
X023094Y016564D01*
X023084Y016593D01*
X023071Y016620D01*
X023055Y016646D01*
X023036Y016670D01*
X023015Y016691D01*
X023040Y016720D01*
X023041Y016720D01*
X023065Y016696D01*
X023087Y016668D01*
X023105Y016639D01*
X023120Y016607D01*
X023131Y016575D01*
X023139Y016541D01*
X023143Y016506D01*
X023143Y016472D01*
X023139Y016437D01*
X023131Y016403D01*
X023120Y016371D01*
X023105Y016339D01*
X023087Y016310D01*
X023065Y016282D01*
X023041Y016258D01*
X023040Y016258D01*
X023064Y016283D01*
X023086Y016310D01*
X023104Y016340D01*
X023119Y016371D01*
X023130Y016404D01*
X023138Y016437D01*
X023142Y016472D01*
X023142Y016506D01*
X023138Y016541D01*
X023130Y016574D01*
X023119Y016607D01*
X023104Y016638D01*
X023086Y016668D01*
X023064Y016695D01*
X023040Y016720D01*
X023040Y016719D01*
X023064Y016694D01*
X023085Y016667D01*
X023103Y016638D01*
X023118Y016607D01*
X023129Y016574D01*
X023137Y016540D01*
X023141Y016506D01*
X023141Y016472D01*
X023137Y016438D01*
X023129Y016404D01*
X023118Y016371D01*
X023103Y016340D01*
X023085Y016311D01*
X023064Y016284D01*
X023040Y016259D01*
X023039Y016260D01*
X023063Y016284D01*
X023084Y016311D01*
X023102Y016341D01*
X023117Y016372D01*
X023128Y016404D01*
X023136Y016438D01*
X023140Y016472D01*
X023140Y016506D01*
X023136Y016540D01*
X023128Y016574D01*
X023117Y016606D01*
X023102Y016637D01*
X023084Y016667D01*
X023063Y016694D01*
X023039Y016718D01*
X023038Y016717D01*
X023062Y016693D01*
X023083Y016666D01*
X023101Y016637D01*
X023116Y016606D01*
X023127Y016574D01*
X023135Y016540D01*
X023139Y016506D01*
X023139Y016472D01*
X023135Y016438D01*
X023127Y016404D01*
X023116Y016372D01*
X023101Y016341D01*
X023083Y016312D01*
X023062Y016285D01*
X023038Y016261D01*
X023061Y016286D01*
X023083Y016313D01*
X023100Y016342D01*
X023115Y016372D01*
X023126Y016405D01*
X023134Y016438D01*
X023138Y016472D01*
X023138Y016506D01*
X023134Y016540D01*
X023126Y016573D01*
X023115Y016606D01*
X023100Y016636D01*
X023083Y016665D01*
X023061Y016692D01*
X023038Y016717D01*
X023037Y016716D01*
X023061Y016692D01*
X023082Y016665D01*
X023100Y016636D01*
X023114Y016605D01*
X023125Y016573D01*
X023133Y016540D01*
X023137Y016506D01*
X023137Y016472D01*
X023133Y016438D01*
X023125Y016405D01*
X023114Y016373D01*
X023100Y016342D01*
X023082Y016313D01*
X023061Y016286D01*
X023037Y016262D01*
X023036Y016263D01*
X023060Y016287D01*
X023081Y016314D01*
X023099Y016343D01*
X023113Y016373D01*
X023124Y016405D01*
X023132Y016438D01*
X023136Y016472D01*
X023136Y016506D01*
X023132Y016540D01*
X023124Y016573D01*
X023113Y016605D01*
X023099Y016635D01*
X023081Y016664D01*
X023060Y016691D01*
X023036Y016715D01*
X023036Y016714D01*
X023059Y016690D01*
X023080Y016664D01*
X023098Y016635D01*
X023112Y016604D01*
X023123Y016572D01*
X023131Y016539D01*
X023135Y016506D01*
X023135Y016472D01*
X023131Y016439D01*
X023123Y016406D01*
X023112Y016374D01*
X023098Y016343D01*
X023080Y016314D01*
X023059Y016288D01*
X023036Y016264D01*
X023035Y016264D01*
X023058Y016288D01*
X023079Y016315D01*
X023097Y016344D01*
X023111Y016374D01*
X023122Y016406D01*
X023130Y016439D01*
X023134Y016472D01*
X023134Y016506D01*
X023130Y016539D01*
X023122Y016572D01*
X023111Y016604D01*
X023097Y016634D01*
X023079Y016663D01*
X023058Y016690D01*
X023035Y016714D01*
X023034Y016713D01*
X023058Y016689D01*
X023078Y016662D01*
X023096Y016634D01*
X023110Y016604D01*
X023121Y016572D01*
X023129Y016539D01*
X023133Y016506D01*
X023133Y016472D01*
X023129Y016439D01*
X023121Y016406D01*
X023110Y016374D01*
X023096Y016344D01*
X023078Y016316D01*
X023058Y016289D01*
X023034Y016265D01*
X023034Y016266D01*
X023057Y016290D01*
X023078Y016316D01*
X023095Y016345D01*
X023110Y016375D01*
X023120Y016406D01*
X023128Y016439D01*
X023132Y016472D01*
X023132Y016506D01*
X023128Y016539D01*
X023120Y016572D01*
X023110Y016603D01*
X023095Y016633D01*
X023078Y016662D01*
X023057Y016688D01*
X023034Y016712D01*
X023033Y016711D01*
X023056Y016688D01*
X023077Y016661D01*
X023094Y016633D01*
X023109Y016603D01*
X023120Y016571D01*
X023127Y016539D01*
X023131Y016506D01*
X023131Y016472D01*
X023127Y016439D01*
X023120Y016407D01*
X023109Y016375D01*
X023094Y016345D01*
X023077Y016317D01*
X023056Y016290D01*
X023033Y016267D01*
X023032Y016267D01*
X023055Y016291D01*
X023076Y016317D01*
X023093Y016345D01*
X023108Y016376D01*
X023119Y016407D01*
X023126Y016439D01*
X023130Y016472D01*
X023130Y016506D01*
X023126Y016539D01*
X023119Y016571D01*
X023108Y016602D01*
X023093Y016633D01*
X023076Y016661D01*
X023055Y016687D01*
X023032Y016711D01*
X023031Y016710D01*
X023055Y016686D01*
X023075Y016660D01*
X023093Y016632D01*
X023107Y016602D01*
X023118Y016571D01*
X023125Y016538D01*
X023129Y016506D01*
X023129Y016472D01*
X023125Y016440D01*
X023118Y016407D01*
X023107Y016376D01*
X023093Y016346D01*
X023075Y016318D01*
X023055Y016292D01*
X023031Y016268D01*
X023031Y016269D01*
X023054Y016292D01*
X023074Y016318D01*
X023092Y016346D01*
X023106Y016376D01*
X023117Y016407D01*
X023124Y016440D01*
X023128Y016472D01*
X023128Y016506D01*
X023124Y016538D01*
X023117Y016571D01*
X023106Y016602D01*
X023092Y016632D01*
X023074Y016660D01*
X023054Y016686D01*
X023031Y016709D01*
X023030Y016708D01*
X023053Y016685D01*
X023074Y016659D01*
X023091Y016631D01*
X023105Y016601D01*
X023116Y016570D01*
X023123Y016538D01*
X023127Y016505D01*
X023127Y016473D01*
X023123Y016440D01*
X023116Y016408D01*
X023105Y016377D01*
X023091Y016347D01*
X023074Y016319D01*
X023053Y016293D01*
X023030Y016270D01*
X023029Y016270D01*
X023052Y016294D01*
X023073Y016320D01*
X023090Y016347D01*
X023104Y016377D01*
X023115Y016408D01*
X023122Y016440D01*
X023126Y016473D01*
X023126Y016505D01*
X023122Y016538D01*
X023115Y016570D01*
X023104Y016601D01*
X023090Y016631D01*
X023073Y016658D01*
X023052Y016684D01*
X023029Y016708D01*
X023029Y016707D01*
X023052Y016684D01*
X023072Y016658D01*
X023089Y016630D01*
X023103Y016601D01*
X023114Y016570D01*
X023121Y016538D01*
X023125Y016505D01*
X023125Y016473D01*
X023121Y016440D01*
X023114Y016408D01*
X023103Y016377D01*
X023089Y016348D01*
X023072Y016320D01*
X023052Y016294D01*
X023029Y016271D01*
X023028Y016272D01*
X023051Y016295D01*
X023071Y016321D01*
X023088Y016348D01*
X023102Y016378D01*
X023113Y016409D01*
X023120Y016440D01*
X023124Y016473D01*
X023124Y016505D01*
X023120Y016538D01*
X023113Y016569D01*
X023102Y016600D01*
X023088Y016630D01*
X023071Y016657D01*
X023051Y016683D01*
X023028Y016706D01*
X023027Y016705D01*
X023050Y016682D01*
X023070Y016657D01*
X023087Y016629D01*
X023101Y016600D01*
X023112Y016569D01*
X023119Y016537D01*
X023123Y016505D01*
X023123Y016473D01*
X023119Y016441D01*
X023112Y016409D01*
X023101Y016378D01*
X023087Y016349D01*
X023070Y016321D01*
X023050Y016296D01*
X023027Y016273D01*
X023049Y016296D01*
X023069Y016322D01*
X023086Y016349D01*
X023100Y016379D01*
X023111Y016409D01*
X023118Y016441D01*
X023122Y016473D01*
X023122Y016505D01*
X023118Y016537D01*
X023111Y016569D01*
X023100Y016599D01*
X023086Y016629D01*
X023069Y016656D01*
X023049Y016682D01*
X023027Y016705D01*
X023026Y016704D01*
X023049Y016681D01*
X023069Y016656D01*
X023086Y016628D01*
X023099Y016599D01*
X023110Y016569D01*
X023117Y016537D01*
X023121Y016505D01*
X023121Y016473D01*
X023117Y016441D01*
X023110Y016409D01*
X023099Y016379D01*
X023086Y016350D01*
X023069Y016322D01*
X023049Y016297D01*
X023026Y016274D01*
X023025Y016275D01*
X023048Y016298D01*
X023068Y016323D01*
X023085Y016350D01*
X023098Y016379D01*
X023109Y016410D01*
X023116Y016441D01*
X023120Y016473D01*
X023120Y016505D01*
X023116Y016537D01*
X023109Y016568D01*
X023098Y016599D01*
X023085Y016628D01*
X023068Y016655D01*
X023048Y016680D01*
X023025Y016703D01*
X023047Y016680D01*
X023067Y016654D01*
X023084Y016627D01*
X023098Y016598D01*
X023108Y016568D01*
X023115Y016537D01*
X023119Y016505D01*
X023119Y016473D01*
X023115Y016441D01*
X023108Y016410D01*
X023098Y016380D01*
X023084Y016351D01*
X023067Y016324D01*
X023047Y016298D01*
X023025Y016275D01*
X023024Y016276D01*
X023046Y016299D01*
X023066Y016324D01*
X023083Y016351D01*
X023097Y016380D01*
X023107Y016410D01*
X023114Y016441D01*
X023118Y016473D01*
X023118Y016505D01*
X023114Y016537D01*
X023107Y016568D01*
X023097Y016598D01*
X023083Y016627D01*
X023066Y016654D01*
X023046Y016679D01*
X023024Y016702D01*
X023023Y016701D01*
X023046Y016678D01*
X023065Y016653D01*
X023082Y016626D01*
X023096Y016598D01*
X023106Y016568D01*
X023113Y016536D01*
X023117Y016505D01*
X023117Y016473D01*
X023113Y016442D01*
X023106Y016410D01*
X023096Y016380D01*
X023082Y016352D01*
X023065Y016325D01*
X023046Y016300D01*
X023023Y016277D01*
X023023Y016278D01*
X023045Y016300D01*
X023064Y016325D01*
X023081Y016352D01*
X023095Y016381D01*
X023105Y016411D01*
X023112Y016442D01*
X023116Y016473D01*
X023116Y016505D01*
X023112Y016536D01*
X023105Y016567D01*
X023095Y016597D01*
X023081Y016626D01*
X023064Y016653D01*
X023045Y016678D01*
X023023Y016700D01*
X023022Y016700D01*
X023044Y016677D01*
X023064Y016652D01*
X023080Y016625D01*
X023094Y016597D01*
X023104Y016567D01*
X023111Y016536D01*
X023115Y016505D01*
X023115Y016473D01*
X023111Y016442D01*
X023104Y016411D01*
X023094Y016381D01*
X023080Y016353D01*
X023064Y016326D01*
X023044Y016301D01*
X023022Y016278D01*
X023021Y016279D01*
X023043Y016302D01*
X023063Y016326D01*
X023079Y016353D01*
X023093Y016382D01*
X023103Y016411D01*
X023110Y016442D01*
X023114Y016473D01*
X023114Y016505D01*
X023110Y016536D01*
X023103Y016567D01*
X023093Y016596D01*
X023079Y016625D01*
X023063Y016652D01*
X023043Y016676D01*
X023021Y016699D01*
X023021Y016698D01*
X023043Y016676D01*
X023062Y016651D01*
X023079Y016624D01*
X023092Y016596D01*
X023102Y016566D01*
X023109Y016536D01*
X023113Y016505D01*
X023113Y016473D01*
X023109Y016442D01*
X023102Y016412D01*
X023092Y016382D01*
X023079Y016354D01*
X023062Y016327D01*
X023043Y016302D01*
X023021Y016280D01*
X023020Y016281D01*
X023042Y016303D01*
X023061Y016328D01*
X023078Y016354D01*
X023091Y016382D01*
X023101Y016412D01*
X023108Y016442D01*
X023112Y016473D01*
X023112Y016505D01*
X023108Y016536D01*
X023101Y016566D01*
X023091Y016596D01*
X023078Y016624D01*
X023061Y016650D01*
X023042Y016675D01*
X023020Y016697D01*
X023019Y016697D01*
X023041Y016674D01*
X023060Y016650D01*
X023077Y016623D01*
X023090Y016595D01*
X023100Y016566D01*
X023107Y016535D01*
X023111Y016505D01*
X023111Y016473D01*
X023107Y016443D01*
X023100Y016412D01*
X023090Y016383D01*
X023077Y016355D01*
X023060Y016328D01*
X023041Y016304D01*
X023019Y016281D01*
X023019Y016282D01*
X023040Y016304D01*
X023060Y016329D01*
X023076Y016355D01*
X023089Y016383D01*
X023099Y016412D01*
X023106Y016443D01*
X023110Y016473D01*
X023110Y016505D01*
X023106Y016535D01*
X023099Y016566D01*
X023089Y016595D01*
X023076Y016623D01*
X023060Y016649D01*
X023040Y016674D01*
X023019Y016696D01*
X023018Y016695D01*
X023040Y016673D01*
X023059Y016649D01*
X023075Y016622D01*
X023088Y016595D01*
X023098Y016565D01*
X023105Y016535D01*
X023109Y016504D01*
X023109Y016474D01*
X023105Y016443D01*
X023098Y016413D01*
X023088Y016383D01*
X023075Y016356D01*
X023059Y016329D01*
X023040Y016305D01*
X023018Y016283D01*
X023017Y016284D01*
X023039Y016306D01*
X023058Y016330D01*
X023074Y016356D01*
X023087Y016384D01*
X023097Y016413D01*
X023104Y016443D01*
X023108Y016474D01*
X023108Y016504D01*
X023104Y016535D01*
X023097Y016565D01*
X023087Y016594D01*
X023074Y016622D01*
X023058Y016648D01*
X023039Y016672D01*
X023017Y016694D01*
X023038Y016672D01*
X023057Y016648D01*
X023073Y016621D01*
X023086Y016594D01*
X023096Y016565D01*
X023103Y016535D01*
X023107Y016504D01*
X023107Y016474D01*
X023103Y016443D01*
X023096Y016413D01*
X023086Y016384D01*
X023073Y016357D01*
X023057Y016330D01*
X023038Y016306D01*
X023017Y016284D01*
X023016Y016285D01*
X023037Y016307D01*
X023056Y016331D01*
X023072Y016357D01*
X023085Y016385D01*
X023095Y016414D01*
X023102Y016443D01*
X023106Y016474D01*
X023106Y016504D01*
X023102Y016535D01*
X023095Y016564D01*
X023085Y016593D01*
X023072Y016621D01*
X023056Y016647D01*
X023037Y016671D01*
X023016Y016693D01*
X023015Y016692D01*
X023037Y016670D01*
X023055Y016646D01*
X023072Y016621D01*
X023085Y016593D01*
X023095Y016564D01*
X023101Y016535D01*
X023105Y016504D01*
X023105Y016474D01*
X023101Y016443D01*
X023095Y016414D01*
X023085Y016385D01*
X023072Y016357D01*
X023055Y016332D01*
X023037Y016308D01*
X023015Y016286D01*
X023420Y016720D02*
X023446Y016691D01*
X023445Y016691D02*
X023424Y016670D01*
X023405Y016646D01*
X023389Y016620D01*
X023376Y016593D01*
X023366Y016564D01*
X023360Y016534D01*
X023356Y016504D01*
X023356Y016474D01*
X023360Y016444D01*
X023366Y016414D01*
X023376Y016385D01*
X023389Y016358D01*
X023405Y016332D01*
X023424Y016308D01*
X023445Y016287D01*
X023420Y016258D01*
X023419Y016258D01*
X023395Y016282D01*
X023373Y016310D01*
X023355Y016339D01*
X023340Y016371D01*
X023329Y016403D01*
X023321Y016437D01*
X023317Y016472D01*
X023317Y016506D01*
X023321Y016541D01*
X023329Y016575D01*
X023340Y016607D01*
X023355Y016639D01*
X023373Y016668D01*
X023395Y016696D01*
X023419Y016720D01*
X023420Y016720D01*
X023396Y016695D01*
X023374Y016668D01*
X023356Y016638D01*
X023341Y016607D01*
X023330Y016574D01*
X023322Y016541D01*
X023318Y016506D01*
X023318Y016472D01*
X023322Y016437D01*
X023330Y016404D01*
X023341Y016371D01*
X023356Y016340D01*
X023374Y016310D01*
X023396Y016283D01*
X023420Y016258D01*
X023420Y016259D01*
X023396Y016284D01*
X023375Y016311D01*
X023357Y016340D01*
X023342Y016371D01*
X023331Y016404D01*
X023323Y016438D01*
X023319Y016472D01*
X023319Y016506D01*
X023323Y016540D01*
X023331Y016574D01*
X023342Y016607D01*
X023357Y016638D01*
X023375Y016667D01*
X023396Y016694D01*
X023420Y016719D01*
X023421Y016718D01*
X023397Y016694D01*
X023376Y016667D01*
X023358Y016637D01*
X023343Y016606D01*
X023332Y016574D01*
X023324Y016540D01*
X023320Y016506D01*
X023320Y016472D01*
X023324Y016438D01*
X023332Y016404D01*
X023343Y016372D01*
X023358Y016341D01*
X023376Y016311D01*
X023397Y016284D01*
X023421Y016260D01*
X023422Y016261D01*
X023398Y016285D01*
X023377Y016312D01*
X023359Y016341D01*
X023344Y016372D01*
X023333Y016404D01*
X023325Y016438D01*
X023321Y016472D01*
X023321Y016506D01*
X023325Y016540D01*
X023333Y016574D01*
X023344Y016606D01*
X023359Y016637D01*
X023377Y016666D01*
X023398Y016693D01*
X023422Y016717D01*
X023399Y016692D01*
X023377Y016665D01*
X023360Y016636D01*
X023345Y016606D01*
X023334Y016573D01*
X023326Y016540D01*
X023322Y016506D01*
X023322Y016472D01*
X023326Y016438D01*
X023334Y016405D01*
X023345Y016372D01*
X023360Y016342D01*
X023377Y016313D01*
X023399Y016286D01*
X023422Y016261D01*
X023423Y016262D01*
X023399Y016286D01*
X023378Y016313D01*
X023360Y016342D01*
X023346Y016373D01*
X023335Y016405D01*
X023327Y016438D01*
X023323Y016472D01*
X023323Y016506D01*
X023327Y016540D01*
X023335Y016573D01*
X023346Y016605D01*
X023360Y016636D01*
X023378Y016665D01*
X023399Y016692D01*
X023423Y016716D01*
X023424Y016715D01*
X023400Y016691D01*
X023379Y016664D01*
X023361Y016635D01*
X023347Y016605D01*
X023336Y016573D01*
X023328Y016540D01*
X023324Y016506D01*
X023324Y016472D01*
X023328Y016438D01*
X023336Y016405D01*
X023347Y016373D01*
X023361Y016343D01*
X023379Y016314D01*
X023400Y016287D01*
X023424Y016263D01*
X023424Y016264D01*
X023401Y016288D01*
X023380Y016314D01*
X023362Y016343D01*
X023348Y016374D01*
X023337Y016406D01*
X023329Y016439D01*
X023325Y016472D01*
X023325Y016506D01*
X023329Y016539D01*
X023337Y016572D01*
X023348Y016604D01*
X023362Y016635D01*
X023380Y016664D01*
X023401Y016690D01*
X023424Y016714D01*
X023425Y016714D01*
X023402Y016690D01*
X023381Y016663D01*
X023363Y016634D01*
X023349Y016604D01*
X023338Y016572D01*
X023330Y016539D01*
X023326Y016506D01*
X023326Y016472D01*
X023330Y016439D01*
X023338Y016406D01*
X023349Y016374D01*
X023363Y016344D01*
X023381Y016315D01*
X023402Y016288D01*
X023425Y016264D01*
X023426Y016265D01*
X023402Y016289D01*
X023382Y016316D01*
X023364Y016344D01*
X023350Y016374D01*
X023339Y016406D01*
X023331Y016439D01*
X023327Y016472D01*
X023327Y016506D01*
X023331Y016539D01*
X023339Y016572D01*
X023350Y016604D01*
X023364Y016634D01*
X023382Y016662D01*
X023402Y016689D01*
X023426Y016713D01*
X023426Y016712D01*
X023403Y016688D01*
X023382Y016662D01*
X023365Y016633D01*
X023350Y016603D01*
X023340Y016572D01*
X023332Y016539D01*
X023328Y016506D01*
X023328Y016472D01*
X023332Y016439D01*
X023340Y016406D01*
X023350Y016375D01*
X023365Y016345D01*
X023382Y016316D01*
X023403Y016290D01*
X023426Y016266D01*
X023427Y016267D01*
X023404Y016290D01*
X023383Y016317D01*
X023366Y016345D01*
X023351Y016375D01*
X023340Y016407D01*
X023333Y016439D01*
X023329Y016472D01*
X023329Y016506D01*
X023333Y016539D01*
X023340Y016571D01*
X023351Y016603D01*
X023366Y016633D01*
X023383Y016661D01*
X023404Y016688D01*
X023427Y016711D01*
X023428Y016711D01*
X023405Y016687D01*
X023384Y016661D01*
X023367Y016633D01*
X023352Y016602D01*
X023341Y016571D01*
X023334Y016539D01*
X023330Y016506D01*
X023330Y016472D01*
X023334Y016439D01*
X023341Y016407D01*
X023352Y016376D01*
X023367Y016345D01*
X023384Y016317D01*
X023405Y016291D01*
X023428Y016267D01*
X023429Y016268D01*
X023405Y016292D01*
X023385Y016318D01*
X023367Y016346D01*
X023353Y016376D01*
X023342Y016407D01*
X023335Y016440D01*
X023331Y016472D01*
X023331Y016506D01*
X023335Y016538D01*
X023342Y016571D01*
X023353Y016602D01*
X023367Y016632D01*
X023385Y016660D01*
X023405Y016686D01*
X023429Y016710D01*
X023429Y016709D01*
X023406Y016686D01*
X023386Y016660D01*
X023368Y016632D01*
X023354Y016602D01*
X023343Y016571D01*
X023336Y016538D01*
X023332Y016506D01*
X023332Y016472D01*
X023336Y016440D01*
X023343Y016407D01*
X023354Y016376D01*
X023368Y016346D01*
X023386Y016318D01*
X023406Y016292D01*
X023429Y016269D01*
X023430Y016270D01*
X023407Y016293D01*
X023386Y016319D01*
X023369Y016347D01*
X023355Y016377D01*
X023344Y016408D01*
X023337Y016440D01*
X023333Y016473D01*
X023333Y016505D01*
X023337Y016538D01*
X023344Y016570D01*
X023355Y016601D01*
X023369Y016631D01*
X023386Y016659D01*
X023407Y016685D01*
X023430Y016708D01*
X023431Y016708D01*
X023408Y016684D01*
X023387Y016658D01*
X023370Y016631D01*
X023356Y016601D01*
X023345Y016570D01*
X023338Y016538D01*
X023334Y016505D01*
X023334Y016473D01*
X023338Y016440D01*
X023345Y016408D01*
X023356Y016377D01*
X023370Y016347D01*
X023387Y016320D01*
X023408Y016294D01*
X023431Y016270D01*
X023431Y016271D01*
X023408Y016294D01*
X023388Y016320D01*
X023371Y016348D01*
X023357Y016377D01*
X023346Y016408D01*
X023339Y016440D01*
X023335Y016473D01*
X023335Y016505D01*
X023339Y016538D01*
X023346Y016570D01*
X023357Y016601D01*
X023371Y016630D01*
X023388Y016658D01*
X023408Y016684D01*
X023431Y016707D01*
X023432Y016706D01*
X023409Y016683D01*
X023389Y016657D01*
X023372Y016630D01*
X023358Y016600D01*
X023347Y016569D01*
X023340Y016538D01*
X023336Y016505D01*
X023336Y016473D01*
X023340Y016440D01*
X023347Y016409D01*
X023358Y016378D01*
X023372Y016348D01*
X023389Y016321D01*
X023409Y016295D01*
X023432Y016272D01*
X023433Y016273D01*
X023410Y016296D01*
X023390Y016321D01*
X023373Y016349D01*
X023359Y016378D01*
X023348Y016409D01*
X023341Y016441D01*
X023337Y016473D01*
X023337Y016505D01*
X023341Y016537D01*
X023348Y016569D01*
X023359Y016600D01*
X023373Y016629D01*
X023390Y016657D01*
X023410Y016682D01*
X023433Y016705D01*
X023411Y016682D01*
X023391Y016656D01*
X023374Y016629D01*
X023360Y016599D01*
X023349Y016569D01*
X023342Y016537D01*
X023338Y016505D01*
X023338Y016473D01*
X023342Y016441D01*
X023349Y016409D01*
X023360Y016379D01*
X023374Y016349D01*
X023391Y016322D01*
X023411Y016296D01*
X023433Y016273D01*
X023434Y016274D01*
X023411Y016297D01*
X023391Y016322D01*
X023374Y016350D01*
X023361Y016379D01*
X023350Y016409D01*
X023343Y016441D01*
X023339Y016473D01*
X023339Y016505D01*
X023343Y016537D01*
X023350Y016569D01*
X023361Y016599D01*
X023374Y016628D01*
X023391Y016656D01*
X023411Y016681D01*
X023434Y016704D01*
X023435Y016703D01*
X023412Y016680D01*
X023392Y016655D01*
X023375Y016628D01*
X023362Y016599D01*
X023351Y016568D01*
X023344Y016537D01*
X023340Y016505D01*
X023340Y016473D01*
X023344Y016441D01*
X023351Y016410D01*
X023362Y016379D01*
X023375Y016350D01*
X023392Y016323D01*
X023412Y016298D01*
X023435Y016275D01*
X023413Y016298D01*
X023393Y016324D01*
X023376Y016351D01*
X023362Y016380D01*
X023352Y016410D01*
X023345Y016441D01*
X023341Y016473D01*
X023341Y016505D01*
X023345Y016537D01*
X023352Y016568D01*
X023362Y016598D01*
X023376Y016627D01*
X023393Y016654D01*
X023413Y016680D01*
X023435Y016703D01*
X023436Y016702D01*
X023414Y016679D01*
X023394Y016654D01*
X023377Y016627D01*
X023363Y016598D01*
X023353Y016568D01*
X023346Y016537D01*
X023342Y016505D01*
X023342Y016473D01*
X023346Y016441D01*
X023353Y016410D01*
X023363Y016380D01*
X023377Y016351D01*
X023394Y016324D01*
X023414Y016299D01*
X023436Y016276D01*
X023437Y016277D01*
X023414Y016300D01*
X023395Y016325D01*
X023378Y016352D01*
X023364Y016380D01*
X023354Y016410D01*
X023347Y016442D01*
X023343Y016473D01*
X023343Y016505D01*
X023347Y016536D01*
X023354Y016568D01*
X023364Y016598D01*
X023378Y016626D01*
X023395Y016653D01*
X023414Y016678D01*
X023437Y016701D01*
X023437Y016700D01*
X023415Y016678D01*
X023396Y016653D01*
X023379Y016626D01*
X023365Y016597D01*
X023355Y016567D01*
X023348Y016536D01*
X023344Y016505D01*
X023344Y016473D01*
X023348Y016442D01*
X023355Y016411D01*
X023365Y016381D01*
X023379Y016352D01*
X023396Y016325D01*
X023415Y016300D01*
X023437Y016278D01*
X023438Y016278D01*
X023416Y016301D01*
X023396Y016326D01*
X023380Y016353D01*
X023366Y016381D01*
X023356Y016411D01*
X023349Y016442D01*
X023345Y016473D01*
X023345Y016505D01*
X023349Y016536D01*
X023356Y016567D01*
X023366Y016597D01*
X023380Y016625D01*
X023396Y016652D01*
X023416Y016677D01*
X023438Y016700D01*
X023439Y016699D01*
X023417Y016676D01*
X023397Y016652D01*
X023381Y016625D01*
X023367Y016596D01*
X023357Y016567D01*
X023350Y016536D01*
X023346Y016505D01*
X023346Y016473D01*
X023350Y016442D01*
X023357Y016411D01*
X023367Y016382D01*
X023381Y016353D01*
X023397Y016326D01*
X023417Y016302D01*
X023439Y016279D01*
X023439Y016280D01*
X023417Y016302D01*
X023398Y016327D01*
X023381Y016354D01*
X023368Y016382D01*
X023358Y016412D01*
X023351Y016442D01*
X023347Y016473D01*
X023347Y016505D01*
X023351Y016536D01*
X023358Y016566D01*
X023368Y016596D01*
X023381Y016624D01*
X023398Y016651D01*
X023417Y016676D01*
X023439Y016698D01*
X023440Y016697D01*
X023418Y016675D01*
X023399Y016650D01*
X023382Y016624D01*
X023369Y016596D01*
X023359Y016566D01*
X023352Y016536D01*
X023348Y016505D01*
X023348Y016473D01*
X023352Y016442D01*
X023359Y016412D01*
X023369Y016382D01*
X023382Y016354D01*
X023399Y016328D01*
X023418Y016303D01*
X023440Y016281D01*
X023441Y016281D01*
X023419Y016304D01*
X023400Y016328D01*
X023383Y016355D01*
X023370Y016383D01*
X023360Y016412D01*
X023353Y016443D01*
X023349Y016473D01*
X023349Y016505D01*
X023353Y016535D01*
X023360Y016566D01*
X023370Y016595D01*
X023383Y016623D01*
X023400Y016650D01*
X023419Y016674D01*
X023441Y016697D01*
X023441Y016696D01*
X023420Y016674D01*
X023400Y016649D01*
X023384Y016623D01*
X023371Y016595D01*
X023361Y016566D01*
X023354Y016535D01*
X023350Y016505D01*
X023350Y016473D01*
X023354Y016443D01*
X023361Y016412D01*
X023371Y016383D01*
X023384Y016355D01*
X023400Y016329D01*
X023420Y016304D01*
X023441Y016282D01*
X023442Y016283D01*
X023420Y016305D01*
X023401Y016329D01*
X023385Y016356D01*
X023372Y016383D01*
X023362Y016413D01*
X023355Y016443D01*
X023351Y016474D01*
X023351Y016504D01*
X023355Y016535D01*
X023362Y016565D01*
X023372Y016595D01*
X023385Y016622D01*
X023401Y016649D01*
X023420Y016673D01*
X023442Y016695D01*
X023443Y016694D01*
X023421Y016672D01*
X023402Y016648D01*
X023386Y016622D01*
X023373Y016594D01*
X023363Y016565D01*
X023356Y016535D01*
X023352Y016504D01*
X023352Y016474D01*
X023356Y016443D01*
X023363Y016413D01*
X023373Y016384D01*
X023386Y016356D01*
X023402Y016330D01*
X023421Y016306D01*
X023443Y016284D01*
X023422Y016306D01*
X023403Y016330D01*
X023387Y016357D01*
X023374Y016384D01*
X023364Y016413D01*
X023357Y016443D01*
X023353Y016474D01*
X023353Y016504D01*
X023357Y016535D01*
X023364Y016565D01*
X023374Y016594D01*
X023387Y016621D01*
X023403Y016648D01*
X023422Y016672D01*
X023443Y016694D01*
X023444Y016693D01*
X023423Y016671D01*
X023404Y016647D01*
X023388Y016621D01*
X023375Y016593D01*
X023365Y016564D01*
X023358Y016535D01*
X023354Y016504D01*
X023354Y016474D01*
X023358Y016443D01*
X023365Y016414D01*
X023375Y016385D01*
X023388Y016357D01*
X023404Y016331D01*
X023423Y016307D01*
X023444Y016285D01*
X023445Y016286D01*
X023423Y016308D01*
X023405Y016332D01*
X023388Y016357D01*
X023375Y016385D01*
X023365Y016414D01*
X023359Y016443D01*
X023355Y016474D01*
X023355Y016504D01*
X023359Y016535D01*
X023365Y016564D01*
X023375Y016593D01*
X023388Y016621D01*
X023405Y016646D01*
X023423Y016670D01*
X023445Y016692D01*
X023840Y016258D02*
X023814Y016287D01*
X023815Y016287D02*
X023836Y016308D01*
X023855Y016332D01*
X023871Y016358D01*
X023884Y016385D01*
X023894Y016414D01*
X023900Y016444D01*
X023904Y016474D01*
X023904Y016504D01*
X023900Y016534D01*
X023894Y016564D01*
X023884Y016593D01*
X023871Y016620D01*
X023855Y016646D01*
X023836Y016670D01*
X023815Y016691D01*
X023840Y016720D01*
X023841Y016720D01*
X023865Y016696D01*
X023887Y016668D01*
X023905Y016639D01*
X023920Y016607D01*
X023931Y016575D01*
X023939Y016541D01*
X023943Y016506D01*
X023943Y016472D01*
X023939Y016437D01*
X023931Y016403D01*
X023920Y016371D01*
X023905Y016339D01*
X023887Y016310D01*
X023865Y016282D01*
X023841Y016258D01*
X023840Y016258D01*
X023864Y016283D01*
X023886Y016310D01*
X023904Y016340D01*
X023919Y016371D01*
X023930Y016404D01*
X023938Y016437D01*
X023942Y016472D01*
X023942Y016506D01*
X023938Y016541D01*
X023930Y016574D01*
X023919Y016607D01*
X023904Y016638D01*
X023886Y016668D01*
X023864Y016695D01*
X023840Y016720D01*
X023840Y016719D01*
X023864Y016694D01*
X023885Y016667D01*
X023903Y016638D01*
X023918Y016607D01*
X023929Y016574D01*
X023937Y016540D01*
X023941Y016506D01*
X023941Y016472D01*
X023937Y016438D01*
X023929Y016404D01*
X023918Y016371D01*
X023903Y016340D01*
X023885Y016311D01*
X023864Y016284D01*
X023840Y016259D01*
X023839Y016260D01*
X023863Y016284D01*
X023884Y016311D01*
X023902Y016341D01*
X023917Y016372D01*
X023928Y016404D01*
X023936Y016438D01*
X023940Y016472D01*
X023940Y016506D01*
X023936Y016540D01*
X023928Y016574D01*
X023917Y016606D01*
X023902Y016637D01*
X023884Y016667D01*
X023863Y016694D01*
X023839Y016718D01*
X023838Y016717D01*
X023862Y016693D01*
X023883Y016666D01*
X023901Y016637D01*
X023916Y016606D01*
X023927Y016574D01*
X023935Y016540D01*
X023939Y016506D01*
X023939Y016472D01*
X023935Y016438D01*
X023927Y016404D01*
X023916Y016372D01*
X023901Y016341D01*
X023883Y016312D01*
X023862Y016285D01*
X023838Y016261D01*
X023861Y016286D01*
X023883Y016313D01*
X023900Y016342D01*
X023915Y016372D01*
X023926Y016405D01*
X023934Y016438D01*
X023938Y016472D01*
X023938Y016506D01*
X023934Y016540D01*
X023926Y016573D01*
X023915Y016606D01*
X023900Y016636D01*
X023883Y016665D01*
X023861Y016692D01*
X023838Y016717D01*
X023837Y016716D01*
X023861Y016692D01*
X023882Y016665D01*
X023900Y016636D01*
X023914Y016605D01*
X023925Y016573D01*
X023933Y016540D01*
X023937Y016506D01*
X023937Y016472D01*
X023933Y016438D01*
X023925Y016405D01*
X023914Y016373D01*
X023900Y016342D01*
X023882Y016313D01*
X023861Y016286D01*
X023837Y016262D01*
X023836Y016263D01*
X023860Y016287D01*
X023881Y016314D01*
X023899Y016343D01*
X023913Y016373D01*
X023924Y016405D01*
X023932Y016438D01*
X023936Y016472D01*
X023936Y016506D01*
X023932Y016540D01*
X023924Y016573D01*
X023913Y016605D01*
X023899Y016635D01*
X023881Y016664D01*
X023860Y016691D01*
X023836Y016715D01*
X023836Y016714D01*
X023859Y016690D01*
X023880Y016664D01*
X023898Y016635D01*
X023912Y016604D01*
X023923Y016572D01*
X023931Y016539D01*
X023935Y016506D01*
X023935Y016472D01*
X023931Y016439D01*
X023923Y016406D01*
X023912Y016374D01*
X023898Y016343D01*
X023880Y016314D01*
X023859Y016288D01*
X023836Y016264D01*
X023835Y016264D01*
X023858Y016288D01*
X023879Y016315D01*
X023897Y016344D01*
X023911Y016374D01*
X023922Y016406D01*
X023930Y016439D01*
X023934Y016472D01*
X023934Y016506D01*
X023930Y016539D01*
X023922Y016572D01*
X023911Y016604D01*
X023897Y016634D01*
X023879Y016663D01*
X023858Y016690D01*
X023835Y016714D01*
X023834Y016713D01*
X023858Y016689D01*
X023878Y016662D01*
X023896Y016634D01*
X023910Y016604D01*
X023921Y016572D01*
X023929Y016539D01*
X023933Y016506D01*
X023933Y016472D01*
X023929Y016439D01*
X023921Y016406D01*
X023910Y016374D01*
X023896Y016344D01*
X023878Y016316D01*
X023858Y016289D01*
X023834Y016265D01*
X023834Y016266D01*
X023857Y016290D01*
X023878Y016316D01*
X023895Y016345D01*
X023910Y016375D01*
X023920Y016406D01*
X023928Y016439D01*
X023932Y016472D01*
X023932Y016506D01*
X023928Y016539D01*
X023920Y016572D01*
X023910Y016603D01*
X023895Y016633D01*
X023878Y016662D01*
X023857Y016688D01*
X023834Y016712D01*
X023833Y016711D01*
X023856Y016688D01*
X023877Y016661D01*
X023894Y016633D01*
X023909Y016603D01*
X023920Y016571D01*
X023927Y016539D01*
X023931Y016506D01*
X023931Y016472D01*
X023927Y016439D01*
X023920Y016407D01*
X023909Y016375D01*
X023894Y016345D01*
X023877Y016317D01*
X023856Y016290D01*
X023833Y016267D01*
X023832Y016267D01*
X023855Y016291D01*
X023876Y016317D01*
X023893Y016345D01*
X023908Y016376D01*
X023919Y016407D01*
X023926Y016439D01*
X023930Y016472D01*
X023930Y016506D01*
X023926Y016539D01*
X023919Y016571D01*
X023908Y016602D01*
X023893Y016633D01*
X023876Y016661D01*
X023855Y016687D01*
X023832Y016711D01*
X023831Y016710D01*
X023855Y016686D01*
X023875Y016660D01*
X023893Y016632D01*
X023907Y016602D01*
X023918Y016571D01*
X023925Y016538D01*
X023929Y016506D01*
X023929Y016472D01*
X023925Y016440D01*
X023918Y016407D01*
X023907Y016376D01*
X023893Y016346D01*
X023875Y016318D01*
X023855Y016292D01*
X023831Y016268D01*
X023831Y016269D01*
X023854Y016292D01*
X023874Y016318D01*
X023892Y016346D01*
X023906Y016376D01*
X023917Y016407D01*
X023924Y016440D01*
X023928Y016472D01*
X023928Y016506D01*
X023924Y016538D01*
X023917Y016571D01*
X023906Y016602D01*
X023892Y016632D01*
X023874Y016660D01*
X023854Y016686D01*
X023831Y016709D01*
X023830Y016708D01*
X023853Y016685D01*
X023874Y016659D01*
X023891Y016631D01*
X023905Y016601D01*
X023916Y016570D01*
X023923Y016538D01*
X023927Y016505D01*
X023927Y016473D01*
X023923Y016440D01*
X023916Y016408D01*
X023905Y016377D01*
X023891Y016347D01*
X023874Y016319D01*
X023853Y016293D01*
X023830Y016270D01*
X023829Y016270D01*
X023852Y016294D01*
X023873Y016320D01*
X023890Y016347D01*
X023904Y016377D01*
X023915Y016408D01*
X023922Y016440D01*
X023926Y016473D01*
X023926Y016505D01*
X023922Y016538D01*
X023915Y016570D01*
X023904Y016601D01*
X023890Y016631D01*
X023873Y016658D01*
X023852Y016684D01*
X023829Y016708D01*
X023829Y016707D01*
X023852Y016684D01*
X023872Y016658D01*
X023889Y016630D01*
X023903Y016601D01*
X023914Y016570D01*
X023921Y016538D01*
X023925Y016505D01*
X023925Y016473D01*
X023921Y016440D01*
X023914Y016408D01*
X023903Y016377D01*
X023889Y016348D01*
X023872Y016320D01*
X023852Y016294D01*
X023829Y016271D01*
X023828Y016272D01*
X023851Y016295D01*
X023871Y016321D01*
X023888Y016348D01*
X023902Y016378D01*
X023913Y016409D01*
X023920Y016440D01*
X023924Y016473D01*
X023924Y016505D01*
X023920Y016538D01*
X023913Y016569D01*
X023902Y016600D01*
X023888Y016630D01*
X023871Y016657D01*
X023851Y016683D01*
X023828Y016706D01*
X023827Y016705D01*
X023850Y016682D01*
X023870Y016657D01*
X023887Y016629D01*
X023901Y016600D01*
X023912Y016569D01*
X023919Y016537D01*
X023923Y016505D01*
X023923Y016473D01*
X023919Y016441D01*
X023912Y016409D01*
X023901Y016378D01*
X023887Y016349D01*
X023870Y016321D01*
X023850Y016296D01*
X023827Y016273D01*
X023849Y016296D01*
X023869Y016322D01*
X023886Y016349D01*
X023900Y016379D01*
X023911Y016409D01*
X023918Y016441D01*
X023922Y016473D01*
X023922Y016505D01*
X023918Y016537D01*
X023911Y016569D01*
X023900Y016599D01*
X023886Y016629D01*
X023869Y016656D01*
X023849Y016682D01*
X023827Y016705D01*
X023826Y016704D01*
X023849Y016681D01*
X023869Y016656D01*
X023886Y016628D01*
X023899Y016599D01*
X023910Y016569D01*
X023917Y016537D01*
X023921Y016505D01*
X023921Y016473D01*
X023917Y016441D01*
X023910Y016409D01*
X023899Y016379D01*
X023886Y016350D01*
X023869Y016322D01*
X023849Y016297D01*
X023826Y016274D01*
X023825Y016275D01*
X023848Y016298D01*
X023868Y016323D01*
X023885Y016350D01*
X023898Y016379D01*
X023909Y016410D01*
X023916Y016441D01*
X023920Y016473D01*
X023920Y016505D01*
X023916Y016537D01*
X023909Y016568D01*
X023898Y016599D01*
X023885Y016628D01*
X023868Y016655D01*
X023848Y016680D01*
X023825Y016703D01*
X023847Y016680D01*
X023867Y016654D01*
X023884Y016627D01*
X023898Y016598D01*
X023908Y016568D01*
X023915Y016537D01*
X023919Y016505D01*
X023919Y016473D01*
X023915Y016441D01*
X023908Y016410D01*
X023898Y016380D01*
X023884Y016351D01*
X023867Y016324D01*
X023847Y016298D01*
X023825Y016275D01*
X023824Y016276D01*
X023846Y016299D01*
X023866Y016324D01*
X023883Y016351D01*
X023897Y016380D01*
X023907Y016410D01*
X023914Y016441D01*
X023918Y016473D01*
X023918Y016505D01*
X023914Y016537D01*
X023907Y016568D01*
X023897Y016598D01*
X023883Y016627D01*
X023866Y016654D01*
X023846Y016679D01*
X023824Y016702D01*
X023823Y016701D01*
X023846Y016678D01*
X023865Y016653D01*
X023882Y016626D01*
X023896Y016598D01*
X023906Y016568D01*
X023913Y016536D01*
X023917Y016505D01*
X023917Y016473D01*
X023913Y016442D01*
X023906Y016410D01*
X023896Y016380D01*
X023882Y016352D01*
X023865Y016325D01*
X023846Y016300D01*
X023823Y016277D01*
X023823Y016278D01*
X023845Y016300D01*
X023864Y016325D01*
X023881Y016352D01*
X023895Y016381D01*
X023905Y016411D01*
X023912Y016442D01*
X023916Y016473D01*
X023916Y016505D01*
X023912Y016536D01*
X023905Y016567D01*
X023895Y016597D01*
X023881Y016626D01*
X023864Y016653D01*
X023845Y016678D01*
X023823Y016700D01*
X023822Y016700D01*
X023844Y016677D01*
X023864Y016652D01*
X023880Y016625D01*
X023894Y016597D01*
X023904Y016567D01*
X023911Y016536D01*
X023915Y016505D01*
X023915Y016473D01*
X023911Y016442D01*
X023904Y016411D01*
X023894Y016381D01*
X023880Y016353D01*
X023864Y016326D01*
X023844Y016301D01*
X023822Y016278D01*
X023821Y016279D01*
X023843Y016302D01*
X023863Y016326D01*
X023879Y016353D01*
X023893Y016382D01*
X023903Y016411D01*
X023910Y016442D01*
X023914Y016473D01*
X023914Y016505D01*
X023910Y016536D01*
X023903Y016567D01*
X023893Y016596D01*
X023879Y016625D01*
X023863Y016652D01*
X023843Y016676D01*
X023821Y016699D01*
X023821Y016698D01*
X023843Y016676D01*
X023862Y016651D01*
X023879Y016624D01*
X023892Y016596D01*
X023902Y016566D01*
X023909Y016536D01*
X023913Y016505D01*
X023913Y016473D01*
X023909Y016442D01*
X023902Y016412D01*
X023892Y016382D01*
X023879Y016354D01*
X023862Y016327D01*
X023843Y016302D01*
X023821Y016280D01*
X023820Y016281D01*
X023842Y016303D01*
X023861Y016328D01*
X023878Y016354D01*
X023891Y016382D01*
X023901Y016412D01*
X023908Y016442D01*
X023912Y016473D01*
X023912Y016505D01*
X023908Y016536D01*
X023901Y016566D01*
X023891Y016596D01*
X023878Y016624D01*
X023861Y016650D01*
X023842Y016675D01*
X023820Y016697D01*
X023819Y016697D01*
X023841Y016674D01*
X023860Y016650D01*
X023877Y016623D01*
X023890Y016595D01*
X023900Y016566D01*
X023907Y016535D01*
X023911Y016505D01*
X023911Y016473D01*
X023907Y016443D01*
X023900Y016412D01*
X023890Y016383D01*
X023877Y016355D01*
X023860Y016328D01*
X023841Y016304D01*
X023819Y016281D01*
X023819Y016282D01*
X023840Y016304D01*
X023860Y016329D01*
X023876Y016355D01*
X023889Y016383D01*
X023899Y016412D01*
X023906Y016443D01*
X023910Y016473D01*
X023910Y016505D01*
X023906Y016535D01*
X023899Y016566D01*
X023889Y016595D01*
X023876Y016623D01*
X023860Y016649D01*
X023840Y016674D01*
X023819Y016696D01*
X023818Y016695D01*
X023840Y016673D01*
X023859Y016649D01*
X023875Y016622D01*
X023888Y016595D01*
X023898Y016565D01*
X023905Y016535D01*
X023909Y016504D01*
X023909Y016474D01*
X023905Y016443D01*
X023898Y016413D01*
X023888Y016383D01*
X023875Y016356D01*
X023859Y016329D01*
X023840Y016305D01*
X023818Y016283D01*
X023817Y016284D01*
X023839Y016306D01*
X023858Y016330D01*
X023874Y016356D01*
X023887Y016384D01*
X023897Y016413D01*
X023904Y016443D01*
X023908Y016474D01*
X023908Y016504D01*
X023904Y016535D01*
X023897Y016565D01*
X023887Y016594D01*
X023874Y016622D01*
X023858Y016648D01*
X023839Y016672D01*
X023817Y016694D01*
X023838Y016672D01*
X023857Y016648D01*
X023873Y016621D01*
X023886Y016594D01*
X023896Y016565D01*
X023903Y016535D01*
X023907Y016504D01*
X023907Y016474D01*
X023903Y016443D01*
X023896Y016413D01*
X023886Y016384D01*
X023873Y016357D01*
X023857Y016330D01*
X023838Y016306D01*
X023817Y016284D01*
X023816Y016285D01*
X023837Y016307D01*
X023856Y016331D01*
X023872Y016357D01*
X023885Y016385D01*
X023895Y016414D01*
X023902Y016443D01*
X023906Y016474D01*
X023906Y016504D01*
X023902Y016535D01*
X023895Y016564D01*
X023885Y016593D01*
X023872Y016621D01*
X023856Y016647D01*
X023837Y016671D01*
X023816Y016693D01*
X023815Y016692D01*
X023837Y016670D01*
X023855Y016646D01*
X023872Y016621D01*
X023885Y016593D01*
X023895Y016564D01*
X023901Y016535D01*
X023905Y016504D01*
X023905Y016474D01*
X023901Y016443D01*
X023895Y016414D01*
X023885Y016385D01*
X023872Y016357D01*
X023855Y016332D01*
X023837Y016308D01*
X023815Y016286D01*
X024220Y016720D02*
X024246Y016691D01*
X024245Y016691D02*
X024224Y016670D01*
X024205Y016646D01*
X024189Y016620D01*
X024176Y016593D01*
X024166Y016564D01*
X024160Y016534D01*
X024156Y016504D01*
X024156Y016474D01*
X024160Y016444D01*
X024166Y016414D01*
X024176Y016385D01*
X024189Y016358D01*
X024205Y016332D01*
X024224Y016308D01*
X024245Y016287D01*
X024220Y016258D01*
X024219Y016258D01*
X024195Y016282D01*
X024173Y016310D01*
X024155Y016339D01*
X024140Y016371D01*
X024129Y016403D01*
X024121Y016437D01*
X024117Y016472D01*
X024117Y016506D01*
X024121Y016541D01*
X024129Y016575D01*
X024140Y016607D01*
X024155Y016639D01*
X024173Y016668D01*
X024195Y016696D01*
X024219Y016720D01*
X024220Y016720D01*
X024196Y016695D01*
X024174Y016668D01*
X024156Y016638D01*
X024141Y016607D01*
X024130Y016574D01*
X024122Y016541D01*
X024118Y016506D01*
X024118Y016472D01*
X024122Y016437D01*
X024130Y016404D01*
X024141Y016371D01*
X024156Y016340D01*
X024174Y016310D01*
X024196Y016283D01*
X024220Y016258D01*
X024220Y016259D01*
X024196Y016284D01*
X024175Y016311D01*
X024157Y016340D01*
X024142Y016371D01*
X024131Y016404D01*
X024123Y016438D01*
X024119Y016472D01*
X024119Y016506D01*
X024123Y016540D01*
X024131Y016574D01*
X024142Y016607D01*
X024157Y016638D01*
X024175Y016667D01*
X024196Y016694D01*
X024220Y016719D01*
X024221Y016718D01*
X024197Y016694D01*
X024176Y016667D01*
X024158Y016637D01*
X024143Y016606D01*
X024132Y016574D01*
X024124Y016540D01*
X024120Y016506D01*
X024120Y016472D01*
X024124Y016438D01*
X024132Y016404D01*
X024143Y016372D01*
X024158Y016341D01*
X024176Y016311D01*
X024197Y016284D01*
X024221Y016260D01*
X024222Y016261D01*
X024198Y016285D01*
X024177Y016312D01*
X024159Y016341D01*
X024144Y016372D01*
X024133Y016404D01*
X024125Y016438D01*
X024121Y016472D01*
X024121Y016506D01*
X024125Y016540D01*
X024133Y016574D01*
X024144Y016606D01*
X024159Y016637D01*
X024177Y016666D01*
X024198Y016693D01*
X024222Y016717D01*
X024199Y016692D01*
X024177Y016665D01*
X024160Y016636D01*
X024145Y016606D01*
X024134Y016573D01*
X024126Y016540D01*
X024122Y016506D01*
X024122Y016472D01*
X024126Y016438D01*
X024134Y016405D01*
X024145Y016372D01*
X024160Y016342D01*
X024177Y016313D01*
X024199Y016286D01*
X024222Y016261D01*
X024223Y016262D01*
X024199Y016286D01*
X024178Y016313D01*
X024160Y016342D01*
X024146Y016373D01*
X024135Y016405D01*
X024127Y016438D01*
X024123Y016472D01*
X024123Y016506D01*
X024127Y016540D01*
X024135Y016573D01*
X024146Y016605D01*
X024160Y016636D01*
X024178Y016665D01*
X024199Y016692D01*
X024223Y016716D01*
X024224Y016715D01*
X024200Y016691D01*
X024179Y016664D01*
X024161Y016635D01*
X024147Y016605D01*
X024136Y016573D01*
X024128Y016540D01*
X024124Y016506D01*
X024124Y016472D01*
X024128Y016438D01*
X024136Y016405D01*
X024147Y016373D01*
X024161Y016343D01*
X024179Y016314D01*
X024200Y016287D01*
X024224Y016263D01*
X024224Y016264D01*
X024201Y016288D01*
X024180Y016314D01*
X024162Y016343D01*
X024148Y016374D01*
X024137Y016406D01*
X024129Y016439D01*
X024125Y016472D01*
X024125Y016506D01*
X024129Y016539D01*
X024137Y016572D01*
X024148Y016604D01*
X024162Y016635D01*
X024180Y016664D01*
X024201Y016690D01*
X024224Y016714D01*
X024225Y016714D01*
X024202Y016690D01*
X024181Y016663D01*
X024163Y016634D01*
X024149Y016604D01*
X024138Y016572D01*
X024130Y016539D01*
X024126Y016506D01*
X024126Y016472D01*
X024130Y016439D01*
X024138Y016406D01*
X024149Y016374D01*
X024163Y016344D01*
X024181Y016315D01*
X024202Y016288D01*
X024225Y016264D01*
X024226Y016265D01*
X024202Y016289D01*
X024182Y016316D01*
X024164Y016344D01*
X024150Y016374D01*
X024139Y016406D01*
X024131Y016439D01*
X024127Y016472D01*
X024127Y016506D01*
X024131Y016539D01*
X024139Y016572D01*
X024150Y016604D01*
X024164Y016634D01*
X024182Y016662D01*
X024202Y016689D01*
X024226Y016713D01*
X024226Y016712D01*
X024203Y016688D01*
X024182Y016662D01*
X024165Y016633D01*
X024150Y016603D01*
X024140Y016572D01*
X024132Y016539D01*
X024128Y016506D01*
X024128Y016472D01*
X024132Y016439D01*
X024140Y016406D01*
X024150Y016375D01*
X024165Y016345D01*
X024182Y016316D01*
X024203Y016290D01*
X024226Y016266D01*
X024227Y016267D01*
X024204Y016290D01*
X024183Y016317D01*
X024166Y016345D01*
X024151Y016375D01*
X024140Y016407D01*
X024133Y016439D01*
X024129Y016472D01*
X024129Y016506D01*
X024133Y016539D01*
X024140Y016571D01*
X024151Y016603D01*
X024166Y016633D01*
X024183Y016661D01*
X024204Y016688D01*
X024227Y016711D01*
X024228Y016711D01*
X024205Y016687D01*
X024184Y016661D01*
X024167Y016633D01*
X024152Y016602D01*
X024141Y016571D01*
X024134Y016539D01*
X024130Y016506D01*
X024130Y016472D01*
X024134Y016439D01*
X024141Y016407D01*
X024152Y016376D01*
X024167Y016345D01*
X024184Y016317D01*
X024205Y016291D01*
X024228Y016267D01*
X024229Y016268D01*
X024205Y016292D01*
X024185Y016318D01*
X024167Y016346D01*
X024153Y016376D01*
X024142Y016407D01*
X024135Y016440D01*
X024131Y016472D01*
X024131Y016506D01*
X024135Y016538D01*
X024142Y016571D01*
X024153Y016602D01*
X024167Y016632D01*
X024185Y016660D01*
X024205Y016686D01*
X024229Y016710D01*
X024229Y016709D01*
X024206Y016686D01*
X024186Y016660D01*
X024168Y016632D01*
X024154Y016602D01*
X024143Y016571D01*
X024136Y016538D01*
X024132Y016506D01*
X024132Y016472D01*
X024136Y016440D01*
X024143Y016407D01*
X024154Y016376D01*
X024168Y016346D01*
X024186Y016318D01*
X024206Y016292D01*
X024229Y016269D01*
X024230Y016270D01*
X024207Y016293D01*
X024186Y016319D01*
X024169Y016347D01*
X024155Y016377D01*
X024144Y016408D01*
X024137Y016440D01*
X024133Y016473D01*
X024133Y016505D01*
X024137Y016538D01*
X024144Y016570D01*
X024155Y016601D01*
X024169Y016631D01*
X024186Y016659D01*
X024207Y016685D01*
X024230Y016708D01*
X024231Y016708D01*
X024208Y016684D01*
X024187Y016658D01*
X024170Y016631D01*
X024156Y016601D01*
X024145Y016570D01*
X024138Y016538D01*
X024134Y016505D01*
X024134Y016473D01*
X024138Y016440D01*
X024145Y016408D01*
X024156Y016377D01*
X024170Y016347D01*
X024187Y016320D01*
X024208Y016294D01*
X024231Y016270D01*
X024231Y016271D01*
X024208Y016294D01*
X024188Y016320D01*
X024171Y016348D01*
X024157Y016377D01*
X024146Y016408D01*
X024139Y016440D01*
X024135Y016473D01*
X024135Y016505D01*
X024139Y016538D01*
X024146Y016570D01*
X024157Y016601D01*
X024171Y016630D01*
X024188Y016658D01*
X024208Y016684D01*
X024231Y016707D01*
X024232Y016706D01*
X024209Y016683D01*
X024189Y016657D01*
X024172Y016630D01*
X024158Y016600D01*
X024147Y016569D01*
X024140Y016538D01*
X024136Y016505D01*
X024136Y016473D01*
X024140Y016440D01*
X024147Y016409D01*
X024158Y016378D01*
X024172Y016348D01*
X024189Y016321D01*
X024209Y016295D01*
X024232Y016272D01*
X024233Y016273D01*
X024210Y016296D01*
X024190Y016321D01*
X024173Y016349D01*
X024159Y016378D01*
X024148Y016409D01*
X024141Y016441D01*
X024137Y016473D01*
X024137Y016505D01*
X024141Y016537D01*
X024148Y016569D01*
X024159Y016600D01*
X024173Y016629D01*
X024190Y016657D01*
X024210Y016682D01*
X024233Y016705D01*
X024211Y016682D01*
X024191Y016656D01*
X024174Y016629D01*
X024160Y016599D01*
X024149Y016569D01*
X024142Y016537D01*
X024138Y016505D01*
X024138Y016473D01*
X024142Y016441D01*
X024149Y016409D01*
X024160Y016379D01*
X024174Y016349D01*
X024191Y016322D01*
X024211Y016296D01*
X024233Y016273D01*
X024234Y016274D01*
X024211Y016297D01*
X024191Y016322D01*
X024174Y016350D01*
X024161Y016379D01*
X024150Y016409D01*
X024143Y016441D01*
X024139Y016473D01*
X024139Y016505D01*
X024143Y016537D01*
X024150Y016569D01*
X024161Y016599D01*
X024174Y016628D01*
X024191Y016656D01*
X024211Y016681D01*
X024234Y016704D01*
X024235Y016703D01*
X024212Y016680D01*
X024192Y016655D01*
X024175Y016628D01*
X024162Y016599D01*
X024151Y016568D01*
X024144Y016537D01*
X024140Y016505D01*
X024140Y016473D01*
X024144Y016441D01*
X024151Y016410D01*
X024162Y016379D01*
X024175Y016350D01*
X024192Y016323D01*
X024212Y016298D01*
X024235Y016275D01*
X024213Y016298D01*
X024193Y016324D01*
X024176Y016351D01*
X024162Y016380D01*
X024152Y016410D01*
X024145Y016441D01*
X024141Y016473D01*
X024141Y016505D01*
X024145Y016537D01*
X024152Y016568D01*
X024162Y016598D01*
X024176Y016627D01*
X024193Y016654D01*
X024213Y016680D01*
X024235Y016703D01*
X024236Y016702D01*
X024214Y016679D01*
X024194Y016654D01*
X024177Y016627D01*
X024163Y016598D01*
X024153Y016568D01*
X024146Y016537D01*
X024142Y016505D01*
X024142Y016473D01*
X024146Y016441D01*
X024153Y016410D01*
X024163Y016380D01*
X024177Y016351D01*
X024194Y016324D01*
X024214Y016299D01*
X024236Y016276D01*
X024237Y016277D01*
X024214Y016300D01*
X024195Y016325D01*
X024178Y016352D01*
X024164Y016380D01*
X024154Y016410D01*
X024147Y016442D01*
X024143Y016473D01*
X024143Y016505D01*
X024147Y016536D01*
X024154Y016568D01*
X024164Y016598D01*
X024178Y016626D01*
X024195Y016653D01*
X024214Y016678D01*
X024237Y016701D01*
X024237Y016700D01*
X024215Y016678D01*
X024196Y016653D01*
X024179Y016626D01*
X024165Y016597D01*
X024155Y016567D01*
X024148Y016536D01*
X024144Y016505D01*
X024144Y016473D01*
X024148Y016442D01*
X024155Y016411D01*
X024165Y016381D01*
X024179Y016352D01*
X024196Y016325D01*
X024215Y016300D01*
X024237Y016278D01*
X024238Y016278D01*
X024216Y016301D01*
X024196Y016326D01*
X024180Y016353D01*
X024166Y016381D01*
X024156Y016411D01*
X024149Y016442D01*
X024145Y016473D01*
X024145Y016505D01*
X024149Y016536D01*
X024156Y016567D01*
X024166Y016597D01*
X024180Y016625D01*
X024196Y016652D01*
X024216Y016677D01*
X024238Y016700D01*
X024239Y016699D01*
X024217Y016676D01*
X024197Y016652D01*
X024181Y016625D01*
X024167Y016596D01*
X024157Y016567D01*
X024150Y016536D01*
X024146Y016505D01*
X024146Y016473D01*
X024150Y016442D01*
X024157Y016411D01*
X024167Y016382D01*
X024181Y016353D01*
X024197Y016326D01*
X024217Y016302D01*
X024239Y016279D01*
X024239Y016280D01*
X024217Y016302D01*
X024198Y016327D01*
X024181Y016354D01*
X024168Y016382D01*
X024158Y016412D01*
X024151Y016442D01*
X024147Y016473D01*
X024147Y016505D01*
X024151Y016536D01*
X024158Y016566D01*
X024168Y016596D01*
X024181Y016624D01*
X024198Y016651D01*
X024217Y016676D01*
X024239Y016698D01*
X024240Y016697D01*
X024218Y016675D01*
X024199Y016650D01*
X024182Y016624D01*
X024169Y016596D01*
X024159Y016566D01*
X024152Y016536D01*
X024148Y016505D01*
X024148Y016473D01*
X024152Y016442D01*
X024159Y016412D01*
X024169Y016382D01*
X024182Y016354D01*
X024199Y016328D01*
X024218Y016303D01*
X024240Y016281D01*
X024241Y016281D01*
X024219Y016304D01*
X024200Y016328D01*
X024183Y016355D01*
X024170Y016383D01*
X024160Y016412D01*
X024153Y016443D01*
X024149Y016473D01*
X024149Y016505D01*
X024153Y016535D01*
X024160Y016566D01*
X024170Y016595D01*
X024183Y016623D01*
X024200Y016650D01*
X024219Y016674D01*
X024241Y016697D01*
X024241Y016696D01*
X024220Y016674D01*
X024200Y016649D01*
X024184Y016623D01*
X024171Y016595D01*
X024161Y016566D01*
X024154Y016535D01*
X024150Y016505D01*
X024150Y016473D01*
X024154Y016443D01*
X024161Y016412D01*
X024171Y016383D01*
X024184Y016355D01*
X024200Y016329D01*
X024220Y016304D01*
X024241Y016282D01*
X024242Y016283D01*
X024220Y016305D01*
X024201Y016329D01*
X024185Y016356D01*
X024172Y016383D01*
X024162Y016413D01*
X024155Y016443D01*
X024151Y016474D01*
X024151Y016504D01*
X024155Y016535D01*
X024162Y016565D01*
X024172Y016595D01*
X024185Y016622D01*
X024201Y016649D01*
X024220Y016673D01*
X024242Y016695D01*
X024243Y016694D01*
X024221Y016672D01*
X024202Y016648D01*
X024186Y016622D01*
X024173Y016594D01*
X024163Y016565D01*
X024156Y016535D01*
X024152Y016504D01*
X024152Y016474D01*
X024156Y016443D01*
X024163Y016413D01*
X024173Y016384D01*
X024186Y016356D01*
X024202Y016330D01*
X024221Y016306D01*
X024243Y016284D01*
X024222Y016306D01*
X024203Y016330D01*
X024187Y016357D01*
X024174Y016384D01*
X024164Y016413D01*
X024157Y016443D01*
X024153Y016474D01*
X024153Y016504D01*
X024157Y016535D01*
X024164Y016565D01*
X024174Y016594D01*
X024187Y016621D01*
X024203Y016648D01*
X024222Y016672D01*
X024243Y016694D01*
X024244Y016693D01*
X024223Y016671D01*
X024204Y016647D01*
X024188Y016621D01*
X024175Y016593D01*
X024165Y016564D01*
X024158Y016535D01*
X024154Y016504D01*
X024154Y016474D01*
X024158Y016443D01*
X024165Y016414D01*
X024175Y016385D01*
X024188Y016357D01*
X024204Y016331D01*
X024223Y016307D01*
X024244Y016285D01*
X024245Y016286D01*
X024223Y016308D01*
X024205Y016332D01*
X024188Y016357D01*
X024175Y016385D01*
X024165Y016414D01*
X024159Y016443D01*
X024155Y016474D01*
X024155Y016504D01*
X024159Y016535D01*
X024165Y016564D01*
X024175Y016593D01*
X024188Y016621D01*
X024205Y016646D01*
X024223Y016670D01*
X024245Y016692D01*
X024640Y016258D02*
X024614Y016287D01*
X024615Y016287D02*
X024636Y016308D01*
X024655Y016332D01*
X024671Y016358D01*
X024684Y016385D01*
X024694Y016414D01*
X024700Y016444D01*
X024704Y016474D01*
X024704Y016504D01*
X024700Y016534D01*
X024694Y016564D01*
X024684Y016593D01*
X024671Y016620D01*
X024655Y016646D01*
X024636Y016670D01*
X024615Y016691D01*
X024640Y016720D01*
X024641Y016720D01*
X024665Y016696D01*
X024687Y016668D01*
X024705Y016639D01*
X024720Y016607D01*
X024731Y016575D01*
X024739Y016541D01*
X024743Y016506D01*
X024743Y016472D01*
X024739Y016437D01*
X024731Y016403D01*
X024720Y016371D01*
X024705Y016339D01*
X024687Y016310D01*
X024665Y016282D01*
X024641Y016258D01*
X024640Y016258D01*
X024664Y016283D01*
X024686Y016310D01*
X024704Y016340D01*
X024719Y016371D01*
X024730Y016404D01*
X024738Y016437D01*
X024742Y016472D01*
X024742Y016506D01*
X024738Y016541D01*
X024730Y016574D01*
X024719Y016607D01*
X024704Y016638D01*
X024686Y016668D01*
X024664Y016695D01*
X024640Y016720D01*
X024640Y016719D01*
X024664Y016694D01*
X024685Y016667D01*
X024703Y016638D01*
X024718Y016607D01*
X024729Y016574D01*
X024737Y016540D01*
X024741Y016506D01*
X024741Y016472D01*
X024737Y016438D01*
X024729Y016404D01*
X024718Y016371D01*
X024703Y016340D01*
X024685Y016311D01*
X024664Y016284D01*
X024640Y016259D01*
X024639Y016260D01*
X024663Y016284D01*
X024684Y016311D01*
X024702Y016341D01*
X024717Y016372D01*
X024728Y016404D01*
X024736Y016438D01*
X024740Y016472D01*
X024740Y016506D01*
X024736Y016540D01*
X024728Y016574D01*
X024717Y016606D01*
X024702Y016637D01*
X024684Y016667D01*
X024663Y016694D01*
X024639Y016718D01*
X024638Y016717D01*
X024662Y016693D01*
X024683Y016666D01*
X024701Y016637D01*
X024716Y016606D01*
X024727Y016574D01*
X024735Y016540D01*
X024739Y016506D01*
X024739Y016472D01*
X024735Y016438D01*
X024727Y016404D01*
X024716Y016372D01*
X024701Y016341D01*
X024683Y016312D01*
X024662Y016285D01*
X024638Y016261D01*
X024661Y016286D01*
X024683Y016313D01*
X024700Y016342D01*
X024715Y016372D01*
X024726Y016405D01*
X024734Y016438D01*
X024738Y016472D01*
X024738Y016506D01*
X024734Y016540D01*
X024726Y016573D01*
X024715Y016606D01*
X024700Y016636D01*
X024683Y016665D01*
X024661Y016692D01*
X024638Y016717D01*
X024637Y016716D01*
X024661Y016692D01*
X024682Y016665D01*
X024700Y016636D01*
X024714Y016605D01*
X024725Y016573D01*
X024733Y016540D01*
X024737Y016506D01*
X024737Y016472D01*
X024733Y016438D01*
X024725Y016405D01*
X024714Y016373D01*
X024700Y016342D01*
X024682Y016313D01*
X024661Y016286D01*
X024637Y016262D01*
X024636Y016263D01*
X024660Y016287D01*
X024681Y016314D01*
X024699Y016343D01*
X024713Y016373D01*
X024724Y016405D01*
X024732Y016438D01*
X024736Y016472D01*
X024736Y016506D01*
X024732Y016540D01*
X024724Y016573D01*
X024713Y016605D01*
X024699Y016635D01*
X024681Y016664D01*
X024660Y016691D01*
X024636Y016715D01*
X024636Y016714D01*
X024659Y016690D01*
X024680Y016664D01*
X024698Y016635D01*
X024712Y016604D01*
X024723Y016572D01*
X024731Y016539D01*
X024735Y016506D01*
X024735Y016472D01*
X024731Y016439D01*
X024723Y016406D01*
X024712Y016374D01*
X024698Y016343D01*
X024680Y016314D01*
X024659Y016288D01*
X024636Y016264D01*
X024635Y016264D01*
X024658Y016288D01*
X024679Y016315D01*
X024697Y016344D01*
X024711Y016374D01*
X024722Y016406D01*
X024730Y016439D01*
X024734Y016472D01*
X024734Y016506D01*
X024730Y016539D01*
X024722Y016572D01*
X024711Y016604D01*
X024697Y016634D01*
X024679Y016663D01*
X024658Y016690D01*
X024635Y016714D01*
X024634Y016713D01*
X024658Y016689D01*
X024678Y016662D01*
X024696Y016634D01*
X024710Y016604D01*
X024721Y016572D01*
X024729Y016539D01*
X024733Y016506D01*
X024733Y016472D01*
X024729Y016439D01*
X024721Y016406D01*
X024710Y016374D01*
X024696Y016344D01*
X024678Y016316D01*
X024658Y016289D01*
X024634Y016265D01*
X024634Y016266D01*
X024657Y016290D01*
X024678Y016316D01*
X024695Y016345D01*
X024710Y016375D01*
X024720Y016406D01*
X024728Y016439D01*
X024732Y016472D01*
X024732Y016506D01*
X024728Y016539D01*
X024720Y016572D01*
X024710Y016603D01*
X024695Y016633D01*
X024678Y016662D01*
X024657Y016688D01*
X024634Y016712D01*
X024633Y016711D01*
X024656Y016688D01*
X024677Y016661D01*
X024694Y016633D01*
X024709Y016603D01*
X024720Y016571D01*
X024727Y016539D01*
X024731Y016506D01*
X024731Y016472D01*
X024727Y016439D01*
X024720Y016407D01*
X024709Y016375D01*
X024694Y016345D01*
X024677Y016317D01*
X024656Y016290D01*
X024633Y016267D01*
X024632Y016267D01*
X024655Y016291D01*
X024676Y016317D01*
X024693Y016345D01*
X024708Y016376D01*
X024719Y016407D01*
X024726Y016439D01*
X024730Y016472D01*
X024730Y016506D01*
X024726Y016539D01*
X024719Y016571D01*
X024708Y016602D01*
X024693Y016633D01*
X024676Y016661D01*
X024655Y016687D01*
X024632Y016711D01*
X024631Y016710D01*
X024655Y016686D01*
X024675Y016660D01*
X024693Y016632D01*
X024707Y016602D01*
X024718Y016571D01*
X024725Y016538D01*
X024729Y016506D01*
X024729Y016472D01*
X024725Y016440D01*
X024718Y016407D01*
X024707Y016376D01*
X024693Y016346D01*
X024675Y016318D01*
X024655Y016292D01*
X024631Y016268D01*
X024631Y016269D01*
X024654Y016292D01*
X024674Y016318D01*
X024692Y016346D01*
X024706Y016376D01*
X024717Y016407D01*
X024724Y016440D01*
X024728Y016472D01*
X024728Y016506D01*
X024724Y016538D01*
X024717Y016571D01*
X024706Y016602D01*
X024692Y016632D01*
X024674Y016660D01*
X024654Y016686D01*
X024631Y016709D01*
X024630Y016708D01*
X024653Y016685D01*
X024674Y016659D01*
X024691Y016631D01*
X024705Y016601D01*
X024716Y016570D01*
X024723Y016538D01*
X024727Y016505D01*
X024727Y016473D01*
X024723Y016440D01*
X024716Y016408D01*
X024705Y016377D01*
X024691Y016347D01*
X024674Y016319D01*
X024653Y016293D01*
X024630Y016270D01*
X024629Y016270D01*
X024652Y016294D01*
X024673Y016320D01*
X024690Y016347D01*
X024704Y016377D01*
X024715Y016408D01*
X024722Y016440D01*
X024726Y016473D01*
X024726Y016505D01*
X024722Y016538D01*
X024715Y016570D01*
X024704Y016601D01*
X024690Y016631D01*
X024673Y016658D01*
X024652Y016684D01*
X024629Y016708D01*
X024629Y016707D01*
X024652Y016684D01*
X024672Y016658D01*
X024689Y016630D01*
X024703Y016601D01*
X024714Y016570D01*
X024721Y016538D01*
X024725Y016505D01*
X024725Y016473D01*
X024721Y016440D01*
X024714Y016408D01*
X024703Y016377D01*
X024689Y016348D01*
X024672Y016320D01*
X024652Y016294D01*
X024629Y016271D01*
X024628Y016272D01*
X024651Y016295D01*
X024671Y016321D01*
X024688Y016348D01*
X024702Y016378D01*
X024713Y016409D01*
X024720Y016440D01*
X024724Y016473D01*
X024724Y016505D01*
X024720Y016538D01*
X024713Y016569D01*
X024702Y016600D01*
X024688Y016630D01*
X024671Y016657D01*
X024651Y016683D01*
X024628Y016706D01*
X024627Y016705D01*
X024650Y016682D01*
X024670Y016657D01*
X024687Y016629D01*
X024701Y016600D01*
X024712Y016569D01*
X024719Y016537D01*
X024723Y016505D01*
X024723Y016473D01*
X024719Y016441D01*
X024712Y016409D01*
X024701Y016378D01*
X024687Y016349D01*
X024670Y016321D01*
X024650Y016296D01*
X024627Y016273D01*
X024649Y016296D01*
X024669Y016322D01*
X024686Y016349D01*
X024700Y016379D01*
X024711Y016409D01*
X024718Y016441D01*
X024722Y016473D01*
X024722Y016505D01*
X024718Y016537D01*
X024711Y016569D01*
X024700Y016599D01*
X024686Y016629D01*
X024669Y016656D01*
X024649Y016682D01*
X024627Y016705D01*
X024626Y016704D01*
X024649Y016681D01*
X024669Y016656D01*
X024686Y016628D01*
X024699Y016599D01*
X024710Y016569D01*
X024717Y016537D01*
X024721Y016505D01*
X024721Y016473D01*
X024717Y016441D01*
X024710Y016409D01*
X024699Y016379D01*
X024686Y016350D01*
X024669Y016322D01*
X024649Y016297D01*
X024626Y016274D01*
X024625Y016275D01*
X024648Y016298D01*
X024668Y016323D01*
X024685Y016350D01*
X024698Y016379D01*
X024709Y016410D01*
X024716Y016441D01*
X024720Y016473D01*
X024720Y016505D01*
X024716Y016537D01*
X024709Y016568D01*
X024698Y016599D01*
X024685Y016628D01*
X024668Y016655D01*
X024648Y016680D01*
X024625Y016703D01*
X024647Y016680D01*
X024667Y016654D01*
X024684Y016627D01*
X024698Y016598D01*
X024708Y016568D01*
X024715Y016537D01*
X024719Y016505D01*
X024719Y016473D01*
X024715Y016441D01*
X024708Y016410D01*
X024698Y016380D01*
X024684Y016351D01*
X024667Y016324D01*
X024647Y016298D01*
X024625Y016275D01*
X024624Y016276D01*
X024646Y016299D01*
X024666Y016324D01*
X024683Y016351D01*
X024697Y016380D01*
X024707Y016410D01*
X024714Y016441D01*
X024718Y016473D01*
X024718Y016505D01*
X024714Y016537D01*
X024707Y016568D01*
X024697Y016598D01*
X024683Y016627D01*
X024666Y016654D01*
X024646Y016679D01*
X024624Y016702D01*
X024623Y016701D01*
X024646Y016678D01*
X024665Y016653D01*
X024682Y016626D01*
X024696Y016598D01*
X024706Y016568D01*
X024713Y016536D01*
X024717Y016505D01*
X024717Y016473D01*
X024713Y016442D01*
X024706Y016410D01*
X024696Y016380D01*
X024682Y016352D01*
X024665Y016325D01*
X024646Y016300D01*
X024623Y016277D01*
X024623Y016278D01*
X024645Y016300D01*
X024664Y016325D01*
X024681Y016352D01*
X024695Y016381D01*
X024705Y016411D01*
X024712Y016442D01*
X024716Y016473D01*
X024716Y016505D01*
X024712Y016536D01*
X024705Y016567D01*
X024695Y016597D01*
X024681Y016626D01*
X024664Y016653D01*
X024645Y016678D01*
X024623Y016700D01*
X024622Y016700D01*
X024644Y016677D01*
X024664Y016652D01*
X024680Y016625D01*
X024694Y016597D01*
X024704Y016567D01*
X024711Y016536D01*
X024715Y016505D01*
X024715Y016473D01*
X024711Y016442D01*
X024704Y016411D01*
X024694Y016381D01*
X024680Y016353D01*
X024664Y016326D01*
X024644Y016301D01*
X024622Y016278D01*
X024621Y016279D01*
X024643Y016302D01*
X024663Y016326D01*
X024679Y016353D01*
X024693Y016382D01*
X024703Y016411D01*
X024710Y016442D01*
X024714Y016473D01*
X024714Y016505D01*
X024710Y016536D01*
X024703Y016567D01*
X024693Y016596D01*
X024679Y016625D01*
X024663Y016652D01*
X024643Y016676D01*
X024621Y016699D01*
X024621Y016698D01*
X024643Y016676D01*
X024662Y016651D01*
X024679Y016624D01*
X024692Y016596D01*
X024702Y016566D01*
X024709Y016536D01*
X024713Y016505D01*
X024713Y016473D01*
X024709Y016442D01*
X024702Y016412D01*
X024692Y016382D01*
X024679Y016354D01*
X024662Y016327D01*
X024643Y016302D01*
X024621Y016280D01*
X024620Y016281D01*
X024642Y016303D01*
X024661Y016328D01*
X024678Y016354D01*
X024691Y016382D01*
X024701Y016412D01*
X024708Y016442D01*
X024712Y016473D01*
X024712Y016505D01*
X024708Y016536D01*
X024701Y016566D01*
X024691Y016596D01*
X024678Y016624D01*
X024661Y016650D01*
X024642Y016675D01*
X024620Y016697D01*
X024619Y016697D01*
X024641Y016674D01*
X024660Y016650D01*
X024677Y016623D01*
X024690Y016595D01*
X024700Y016566D01*
X024707Y016535D01*
X024711Y016505D01*
X024711Y016473D01*
X024707Y016443D01*
X024700Y016412D01*
X024690Y016383D01*
X024677Y016355D01*
X024660Y016328D01*
X024641Y016304D01*
X024619Y016281D01*
X024619Y016282D01*
X024640Y016304D01*
X024660Y016329D01*
X024676Y016355D01*
X024689Y016383D01*
X024699Y016412D01*
X024706Y016443D01*
X024710Y016473D01*
X024710Y016505D01*
X024706Y016535D01*
X024699Y016566D01*
X024689Y016595D01*
X024676Y016623D01*
X024660Y016649D01*
X024640Y016674D01*
X024619Y016696D01*
X024618Y016695D01*
X024640Y016673D01*
X024659Y016649D01*
X024675Y016622D01*
X024688Y016595D01*
X024698Y016565D01*
X024705Y016535D01*
X024709Y016504D01*
X024709Y016474D01*
X024705Y016443D01*
X024698Y016413D01*
X024688Y016383D01*
X024675Y016356D01*
X024659Y016329D01*
X024640Y016305D01*
X024618Y016283D01*
X024617Y016284D01*
X024639Y016306D01*
X024658Y016330D01*
X024674Y016356D01*
X024687Y016384D01*
X024697Y016413D01*
X024704Y016443D01*
X024708Y016474D01*
X024708Y016504D01*
X024704Y016535D01*
X024697Y016565D01*
X024687Y016594D01*
X024674Y016622D01*
X024658Y016648D01*
X024639Y016672D01*
X024617Y016694D01*
X024638Y016672D01*
X024657Y016648D01*
X024673Y016621D01*
X024686Y016594D01*
X024696Y016565D01*
X024703Y016535D01*
X024707Y016504D01*
X024707Y016474D01*
X024703Y016443D01*
X024696Y016413D01*
X024686Y016384D01*
X024673Y016357D01*
X024657Y016330D01*
X024638Y016306D01*
X024617Y016284D01*
X024616Y016285D01*
X024637Y016307D01*
X024656Y016331D01*
X024672Y016357D01*
X024685Y016385D01*
X024695Y016414D01*
X024702Y016443D01*
X024706Y016474D01*
X024706Y016504D01*
X024702Y016535D01*
X024695Y016564D01*
X024685Y016593D01*
X024672Y016621D01*
X024656Y016647D01*
X024637Y016671D01*
X024616Y016693D01*
X024615Y016692D01*
X024637Y016670D01*
X024655Y016646D01*
X024672Y016621D01*
X024685Y016593D01*
X024695Y016564D01*
X024701Y016535D01*
X024705Y016504D01*
X024705Y016474D01*
X024701Y016443D01*
X024695Y016414D01*
X024685Y016385D01*
X024672Y016357D01*
X024655Y016332D01*
X024637Y016308D01*
X024615Y016286D01*
X028420Y017620D02*
X028446Y017591D01*
X028445Y017591D02*
X028424Y017570D01*
X028405Y017546D01*
X028389Y017520D01*
X028376Y017493D01*
X028366Y017464D01*
X028360Y017434D01*
X028356Y017404D01*
X028356Y017374D01*
X028360Y017344D01*
X028366Y017314D01*
X028376Y017285D01*
X028389Y017258D01*
X028405Y017232D01*
X028424Y017208D01*
X028445Y017187D01*
X028420Y017158D01*
X028419Y017158D01*
X028395Y017182D01*
X028373Y017210D01*
X028355Y017239D01*
X028340Y017271D01*
X028329Y017303D01*
X028321Y017337D01*
X028317Y017372D01*
X028317Y017406D01*
X028321Y017441D01*
X028329Y017475D01*
X028340Y017507D01*
X028355Y017539D01*
X028373Y017568D01*
X028395Y017596D01*
X028419Y017620D01*
X028420Y017620D01*
X028396Y017595D01*
X028374Y017568D01*
X028356Y017538D01*
X028341Y017507D01*
X028330Y017474D01*
X028322Y017441D01*
X028318Y017406D01*
X028318Y017372D01*
X028322Y017337D01*
X028330Y017304D01*
X028341Y017271D01*
X028356Y017240D01*
X028374Y017210D01*
X028396Y017183D01*
X028420Y017158D01*
X028420Y017159D01*
X028396Y017184D01*
X028375Y017211D01*
X028357Y017240D01*
X028342Y017271D01*
X028331Y017304D01*
X028323Y017338D01*
X028319Y017372D01*
X028319Y017406D01*
X028323Y017440D01*
X028331Y017474D01*
X028342Y017507D01*
X028357Y017538D01*
X028375Y017567D01*
X028396Y017594D01*
X028420Y017619D01*
X028421Y017618D01*
X028397Y017594D01*
X028376Y017567D01*
X028358Y017537D01*
X028343Y017506D01*
X028332Y017474D01*
X028324Y017440D01*
X028320Y017406D01*
X028320Y017372D01*
X028324Y017338D01*
X028332Y017304D01*
X028343Y017272D01*
X028358Y017241D01*
X028376Y017211D01*
X028397Y017184D01*
X028421Y017160D01*
X028422Y017161D01*
X028398Y017185D01*
X028377Y017212D01*
X028359Y017241D01*
X028344Y017272D01*
X028333Y017304D01*
X028325Y017338D01*
X028321Y017372D01*
X028321Y017406D01*
X028325Y017440D01*
X028333Y017474D01*
X028344Y017506D01*
X028359Y017537D01*
X028377Y017566D01*
X028398Y017593D01*
X028422Y017617D01*
X028399Y017592D01*
X028377Y017565D01*
X028360Y017536D01*
X028345Y017506D01*
X028334Y017473D01*
X028326Y017440D01*
X028322Y017406D01*
X028322Y017372D01*
X028326Y017338D01*
X028334Y017305D01*
X028345Y017272D01*
X028360Y017242D01*
X028377Y017213D01*
X028399Y017186D01*
X028422Y017161D01*
X028423Y017162D01*
X028399Y017186D01*
X028378Y017213D01*
X028360Y017242D01*
X028346Y017273D01*
X028335Y017305D01*
X028327Y017338D01*
X028323Y017372D01*
X028323Y017406D01*
X028327Y017440D01*
X028335Y017473D01*
X028346Y017505D01*
X028360Y017536D01*
X028378Y017565D01*
X028399Y017592D01*
X028423Y017616D01*
X028424Y017615D01*
X028400Y017591D01*
X028379Y017564D01*
X028361Y017535D01*
X028347Y017505D01*
X028336Y017473D01*
X028328Y017440D01*
X028324Y017406D01*
X028324Y017372D01*
X028328Y017338D01*
X028336Y017305D01*
X028347Y017273D01*
X028361Y017243D01*
X028379Y017214D01*
X028400Y017187D01*
X028424Y017163D01*
X028424Y017164D01*
X028401Y017188D01*
X028380Y017214D01*
X028362Y017243D01*
X028348Y017274D01*
X028337Y017306D01*
X028329Y017339D01*
X028325Y017372D01*
X028325Y017406D01*
X028329Y017439D01*
X028337Y017472D01*
X028348Y017504D01*
X028362Y017535D01*
X028380Y017564D01*
X028401Y017590D01*
X028424Y017614D01*
X028425Y017614D01*
X028402Y017590D01*
X028381Y017563D01*
X028363Y017534D01*
X028349Y017504D01*
X028338Y017472D01*
X028330Y017439D01*
X028326Y017406D01*
X028326Y017372D01*
X028330Y017339D01*
X028338Y017306D01*
X028349Y017274D01*
X028363Y017244D01*
X028381Y017215D01*
X028402Y017188D01*
X028425Y017164D01*
X028426Y017165D01*
X028402Y017189D01*
X028382Y017216D01*
X028364Y017244D01*
X028350Y017274D01*
X028339Y017306D01*
X028331Y017339D01*
X028327Y017372D01*
X028327Y017406D01*
X028331Y017439D01*
X028339Y017472D01*
X028350Y017504D01*
X028364Y017534D01*
X028382Y017562D01*
X028402Y017589D01*
X028426Y017613D01*
X028426Y017612D01*
X028403Y017588D01*
X028382Y017562D01*
X028365Y017533D01*
X028350Y017503D01*
X028340Y017472D01*
X028332Y017439D01*
X028328Y017406D01*
X028328Y017372D01*
X028332Y017339D01*
X028340Y017306D01*
X028350Y017275D01*
X028365Y017245D01*
X028382Y017216D01*
X028403Y017190D01*
X028426Y017166D01*
X028427Y017167D01*
X028404Y017190D01*
X028383Y017217D01*
X028366Y017245D01*
X028351Y017275D01*
X028340Y017307D01*
X028333Y017339D01*
X028329Y017372D01*
X028329Y017406D01*
X028333Y017439D01*
X028340Y017471D01*
X028351Y017503D01*
X028366Y017533D01*
X028383Y017561D01*
X028404Y017588D01*
X028427Y017611D01*
X028428Y017611D01*
X028405Y017587D01*
X028384Y017561D01*
X028367Y017533D01*
X028352Y017502D01*
X028341Y017471D01*
X028334Y017439D01*
X028330Y017406D01*
X028330Y017372D01*
X028334Y017339D01*
X028341Y017307D01*
X028352Y017276D01*
X028367Y017245D01*
X028384Y017217D01*
X028405Y017191D01*
X028428Y017167D01*
X028429Y017168D01*
X028405Y017192D01*
X028385Y017218D01*
X028367Y017246D01*
X028353Y017276D01*
X028342Y017307D01*
X028335Y017340D01*
X028331Y017372D01*
X028331Y017406D01*
X028335Y017438D01*
X028342Y017471D01*
X028353Y017502D01*
X028367Y017532D01*
X028385Y017560D01*
X028405Y017586D01*
X028429Y017610D01*
X028429Y017609D01*
X028406Y017586D01*
X028386Y017560D01*
X028368Y017532D01*
X028354Y017502D01*
X028343Y017471D01*
X028336Y017438D01*
X028332Y017406D01*
X028332Y017372D01*
X028336Y017340D01*
X028343Y017307D01*
X028354Y017276D01*
X028368Y017246D01*
X028386Y017218D01*
X028406Y017192D01*
X028429Y017169D01*
X028430Y017170D01*
X028407Y017193D01*
X028386Y017219D01*
X028369Y017247D01*
X028355Y017277D01*
X028344Y017308D01*
X028337Y017340D01*
X028333Y017373D01*
X028333Y017405D01*
X028337Y017438D01*
X028344Y017470D01*
X028355Y017501D01*
X028369Y017531D01*
X028386Y017559D01*
X028407Y017585D01*
X028430Y017608D01*
X028431Y017608D01*
X028408Y017584D01*
X028387Y017558D01*
X028370Y017531D01*
X028356Y017501D01*
X028345Y017470D01*
X028338Y017438D01*
X028334Y017405D01*
X028334Y017373D01*
X028338Y017340D01*
X028345Y017308D01*
X028356Y017277D01*
X028370Y017247D01*
X028387Y017220D01*
X028408Y017194D01*
X028431Y017170D01*
X028431Y017171D01*
X028408Y017194D01*
X028388Y017220D01*
X028371Y017248D01*
X028357Y017277D01*
X028346Y017308D01*
X028339Y017340D01*
X028335Y017373D01*
X028335Y017405D01*
X028339Y017438D01*
X028346Y017470D01*
X028357Y017501D01*
X028371Y017530D01*
X028388Y017558D01*
X028408Y017584D01*
X028431Y017607D01*
X028432Y017606D01*
X028409Y017583D01*
X028389Y017557D01*
X028372Y017530D01*
X028358Y017500D01*
X028347Y017469D01*
X028340Y017438D01*
X028336Y017405D01*
X028336Y017373D01*
X028340Y017340D01*
X028347Y017309D01*
X028358Y017278D01*
X028372Y017248D01*
X028389Y017221D01*
X028409Y017195D01*
X028432Y017172D01*
X028433Y017173D01*
X028410Y017196D01*
X028390Y017221D01*
X028373Y017249D01*
X028359Y017278D01*
X028348Y017309D01*
X028341Y017341D01*
X028337Y017373D01*
X028337Y017405D01*
X028341Y017437D01*
X028348Y017469D01*
X028359Y017500D01*
X028373Y017529D01*
X028390Y017557D01*
X028410Y017582D01*
X028433Y017605D01*
X028411Y017582D01*
X028391Y017556D01*
X028374Y017529D01*
X028360Y017499D01*
X028349Y017469D01*
X028342Y017437D01*
X028338Y017405D01*
X028338Y017373D01*
X028342Y017341D01*
X028349Y017309D01*
X028360Y017279D01*
X028374Y017249D01*
X028391Y017222D01*
X028411Y017196D01*
X028433Y017173D01*
X028434Y017174D01*
X028411Y017197D01*
X028391Y017222D01*
X028374Y017250D01*
X028361Y017279D01*
X028350Y017309D01*
X028343Y017341D01*
X028339Y017373D01*
X028339Y017405D01*
X028343Y017437D01*
X028350Y017469D01*
X028361Y017499D01*
X028374Y017528D01*
X028391Y017556D01*
X028411Y017581D01*
X028434Y017604D01*
X028435Y017603D01*
X028412Y017580D01*
X028392Y017555D01*
X028375Y017528D01*
X028362Y017499D01*
X028351Y017468D01*
X028344Y017437D01*
X028340Y017405D01*
X028340Y017373D01*
X028344Y017341D01*
X028351Y017310D01*
X028362Y017279D01*
X028375Y017250D01*
X028392Y017223D01*
X028412Y017198D01*
X028435Y017175D01*
X028413Y017198D01*
X028393Y017224D01*
X028376Y017251D01*
X028362Y017280D01*
X028352Y017310D01*
X028345Y017341D01*
X028341Y017373D01*
X028341Y017405D01*
X028345Y017437D01*
X028352Y017468D01*
X028362Y017498D01*
X028376Y017527D01*
X028393Y017554D01*
X028413Y017580D01*
X028435Y017603D01*
X028436Y017602D01*
X028414Y017579D01*
X028394Y017554D01*
X028377Y017527D01*
X028363Y017498D01*
X028353Y017468D01*
X028346Y017437D01*
X028342Y017405D01*
X028342Y017373D01*
X028346Y017341D01*
X028353Y017310D01*
X028363Y017280D01*
X028377Y017251D01*
X028394Y017224D01*
X028414Y017199D01*
X028436Y017176D01*
X028437Y017177D01*
X028414Y017200D01*
X028395Y017225D01*
X028378Y017252D01*
X028364Y017280D01*
X028354Y017310D01*
X028347Y017342D01*
X028343Y017373D01*
X028343Y017405D01*
X028347Y017436D01*
X028354Y017468D01*
X028364Y017498D01*
X028378Y017526D01*
X028395Y017553D01*
X028414Y017578D01*
X028437Y017601D01*
X028437Y017600D01*
X028415Y017578D01*
X028396Y017553D01*
X028379Y017526D01*
X028365Y017497D01*
X028355Y017467D01*
X028348Y017436D01*
X028344Y017405D01*
X028344Y017373D01*
X028348Y017342D01*
X028355Y017311D01*
X028365Y017281D01*
X028379Y017252D01*
X028396Y017225D01*
X028415Y017200D01*
X028437Y017178D01*
X028438Y017178D01*
X028416Y017201D01*
X028396Y017226D01*
X028380Y017253D01*
X028366Y017281D01*
X028356Y017311D01*
X028349Y017342D01*
X028345Y017373D01*
X028345Y017405D01*
X028349Y017436D01*
X028356Y017467D01*
X028366Y017497D01*
X028380Y017525D01*
X028396Y017552D01*
X028416Y017577D01*
X028438Y017600D01*
X028439Y017599D01*
X028417Y017576D01*
X028397Y017552D01*
X028381Y017525D01*
X028367Y017496D01*
X028357Y017467D01*
X028350Y017436D01*
X028346Y017405D01*
X028346Y017373D01*
X028350Y017342D01*
X028357Y017311D01*
X028367Y017282D01*
X028381Y017253D01*
X028397Y017226D01*
X028417Y017202D01*
X028439Y017179D01*
X028439Y017180D01*
X028417Y017202D01*
X028398Y017227D01*
X028381Y017254D01*
X028368Y017282D01*
X028358Y017312D01*
X028351Y017342D01*
X028347Y017373D01*
X028347Y017405D01*
X028351Y017436D01*
X028358Y017466D01*
X028368Y017496D01*
X028381Y017524D01*
X028398Y017551D01*
X028417Y017576D01*
X028439Y017598D01*
X028440Y017597D01*
X028418Y017575D01*
X028399Y017550D01*
X028382Y017524D01*
X028369Y017496D01*
X028359Y017466D01*
X028352Y017436D01*
X028348Y017405D01*
X028348Y017373D01*
X028352Y017342D01*
X028359Y017312D01*
X028369Y017282D01*
X028382Y017254D01*
X028399Y017228D01*
X028418Y017203D01*
X028440Y017181D01*
X028441Y017181D01*
X028419Y017204D01*
X028400Y017228D01*
X028383Y017255D01*
X028370Y017283D01*
X028360Y017312D01*
X028353Y017343D01*
X028349Y017373D01*
X028349Y017405D01*
X028353Y017435D01*
X028360Y017466D01*
X028370Y017495D01*
X028383Y017523D01*
X028400Y017550D01*
X028419Y017574D01*
X028441Y017597D01*
X028441Y017596D01*
X028420Y017574D01*
X028400Y017549D01*
X028384Y017523D01*
X028371Y017495D01*
X028361Y017466D01*
X028354Y017435D01*
X028350Y017405D01*
X028350Y017373D01*
X028354Y017343D01*
X028361Y017312D01*
X028371Y017283D01*
X028384Y017255D01*
X028400Y017229D01*
X028420Y017204D01*
X028441Y017182D01*
X028442Y017183D01*
X028420Y017205D01*
X028401Y017229D01*
X028385Y017256D01*
X028372Y017283D01*
X028362Y017313D01*
X028355Y017343D01*
X028351Y017374D01*
X028351Y017404D01*
X028355Y017435D01*
X028362Y017465D01*
X028372Y017495D01*
X028385Y017522D01*
X028401Y017549D01*
X028420Y017573D01*
X028442Y017595D01*
X028443Y017594D01*
X028421Y017572D01*
X028402Y017548D01*
X028386Y017522D01*
X028373Y017494D01*
X028363Y017465D01*
X028356Y017435D01*
X028352Y017404D01*
X028352Y017374D01*
X028356Y017343D01*
X028363Y017313D01*
X028373Y017284D01*
X028386Y017256D01*
X028402Y017230D01*
X028421Y017206D01*
X028443Y017184D01*
X028422Y017206D01*
X028403Y017230D01*
X028387Y017257D01*
X028374Y017284D01*
X028364Y017313D01*
X028357Y017343D01*
X028353Y017374D01*
X028353Y017404D01*
X028357Y017435D01*
X028364Y017465D01*
X028374Y017494D01*
X028387Y017521D01*
X028403Y017548D01*
X028422Y017572D01*
X028443Y017594D01*
X028444Y017593D01*
X028423Y017571D01*
X028404Y017547D01*
X028388Y017521D01*
X028375Y017493D01*
X028365Y017464D01*
X028358Y017435D01*
X028354Y017404D01*
X028354Y017374D01*
X028358Y017343D01*
X028365Y017314D01*
X028375Y017285D01*
X028388Y017257D01*
X028404Y017231D01*
X028423Y017207D01*
X028444Y017185D01*
X028445Y017186D01*
X028423Y017208D01*
X028405Y017232D01*
X028388Y017257D01*
X028375Y017285D01*
X028365Y017314D01*
X028359Y017343D01*
X028355Y017374D01*
X028355Y017404D01*
X028359Y017435D01*
X028365Y017464D01*
X028375Y017493D01*
X028388Y017521D01*
X028405Y017546D01*
X028423Y017570D01*
X028445Y017592D01*
X028840Y017158D02*
X028814Y017187D01*
X028815Y017187D02*
X028836Y017208D01*
X028855Y017232D01*
X028871Y017258D01*
X028884Y017285D01*
X028894Y017314D01*
X028900Y017344D01*
X028904Y017374D01*
X028904Y017404D01*
X028900Y017434D01*
X028894Y017464D01*
X028884Y017493D01*
X028871Y017520D01*
X028855Y017546D01*
X028836Y017570D01*
X028815Y017591D01*
X028840Y017620D01*
X028841Y017620D01*
X028865Y017596D01*
X028887Y017568D01*
X028905Y017539D01*
X028920Y017507D01*
X028931Y017475D01*
X028939Y017441D01*
X028943Y017406D01*
X028943Y017372D01*
X028939Y017337D01*
X028931Y017303D01*
X028920Y017271D01*
X028905Y017239D01*
X028887Y017210D01*
X028865Y017182D01*
X028841Y017158D01*
X028840Y017158D01*
X028864Y017183D01*
X028886Y017210D01*
X028904Y017240D01*
X028919Y017271D01*
X028930Y017304D01*
X028938Y017337D01*
X028942Y017372D01*
X028942Y017406D01*
X028938Y017441D01*
X028930Y017474D01*
X028919Y017507D01*
X028904Y017538D01*
X028886Y017568D01*
X028864Y017595D01*
X028840Y017620D01*
X028840Y017619D01*
X028864Y017594D01*
X028885Y017567D01*
X028903Y017538D01*
X028918Y017507D01*
X028929Y017474D01*
X028937Y017440D01*
X028941Y017406D01*
X028941Y017372D01*
X028937Y017338D01*
X028929Y017304D01*
X028918Y017271D01*
X028903Y017240D01*
X028885Y017211D01*
X028864Y017184D01*
X028840Y017159D01*
X028839Y017160D01*
X028863Y017184D01*
X028884Y017211D01*
X028902Y017241D01*
X028917Y017272D01*
X028928Y017304D01*
X028936Y017338D01*
X028940Y017372D01*
X028940Y017406D01*
X028936Y017440D01*
X028928Y017474D01*
X028917Y017506D01*
X028902Y017537D01*
X028884Y017567D01*
X028863Y017594D01*
X028839Y017618D01*
X028838Y017617D01*
X028862Y017593D01*
X028883Y017566D01*
X028901Y017537D01*
X028916Y017506D01*
X028927Y017474D01*
X028935Y017440D01*
X028939Y017406D01*
X028939Y017372D01*
X028935Y017338D01*
X028927Y017304D01*
X028916Y017272D01*
X028901Y017241D01*
X028883Y017212D01*
X028862Y017185D01*
X028838Y017161D01*
X028861Y017186D01*
X028883Y017213D01*
X028900Y017242D01*
X028915Y017272D01*
X028926Y017305D01*
X028934Y017338D01*
X028938Y017372D01*
X028938Y017406D01*
X028934Y017440D01*
X028926Y017473D01*
X028915Y017506D01*
X028900Y017536D01*
X028883Y017565D01*
X028861Y017592D01*
X028838Y017617D01*
X028837Y017616D01*
X028861Y017592D01*
X028882Y017565D01*
X028900Y017536D01*
X028914Y017505D01*
X028925Y017473D01*
X028933Y017440D01*
X028937Y017406D01*
X028937Y017372D01*
X028933Y017338D01*
X028925Y017305D01*
X028914Y017273D01*
X028900Y017242D01*
X028882Y017213D01*
X028861Y017186D01*
X028837Y017162D01*
X028836Y017163D01*
X028860Y017187D01*
X028881Y017214D01*
X028899Y017243D01*
X028913Y017273D01*
X028924Y017305D01*
X028932Y017338D01*
X028936Y017372D01*
X028936Y017406D01*
X028932Y017440D01*
X028924Y017473D01*
X028913Y017505D01*
X028899Y017535D01*
X028881Y017564D01*
X028860Y017591D01*
X028836Y017615D01*
X028836Y017614D01*
X028859Y017590D01*
X028880Y017564D01*
X028898Y017535D01*
X028912Y017504D01*
X028923Y017472D01*
X028931Y017439D01*
X028935Y017406D01*
X028935Y017372D01*
X028931Y017339D01*
X028923Y017306D01*
X028912Y017274D01*
X028898Y017243D01*
X028880Y017214D01*
X028859Y017188D01*
X028836Y017164D01*
X028835Y017164D01*
X028858Y017188D01*
X028879Y017215D01*
X028897Y017244D01*
X028911Y017274D01*
X028922Y017306D01*
X028930Y017339D01*
X028934Y017372D01*
X028934Y017406D01*
X028930Y017439D01*
X028922Y017472D01*
X028911Y017504D01*
X028897Y017534D01*
X028879Y017563D01*
X028858Y017590D01*
X028835Y017614D01*
X028834Y017613D01*
X028858Y017589D01*
X028878Y017562D01*
X028896Y017534D01*
X028910Y017504D01*
X028921Y017472D01*
X028929Y017439D01*
X028933Y017406D01*
X028933Y017372D01*
X028929Y017339D01*
X028921Y017306D01*
X028910Y017274D01*
X028896Y017244D01*
X028878Y017216D01*
X028858Y017189D01*
X028834Y017165D01*
X028834Y017166D01*
X028857Y017190D01*
X028878Y017216D01*
X028895Y017245D01*
X028910Y017275D01*
X028920Y017306D01*
X028928Y017339D01*
X028932Y017372D01*
X028932Y017406D01*
X028928Y017439D01*
X028920Y017472D01*
X028910Y017503D01*
X028895Y017533D01*
X028878Y017562D01*
X028857Y017588D01*
X028834Y017612D01*
X028833Y017611D01*
X028856Y017588D01*
X028877Y017561D01*
X028894Y017533D01*
X028909Y017503D01*
X028920Y017471D01*
X028927Y017439D01*
X028931Y017406D01*
X028931Y017372D01*
X028927Y017339D01*
X028920Y017307D01*
X028909Y017275D01*
X028894Y017245D01*
X028877Y017217D01*
X028856Y017190D01*
X028833Y017167D01*
X028832Y017167D01*
X028855Y017191D01*
X028876Y017217D01*
X028893Y017245D01*
X028908Y017276D01*
X028919Y017307D01*
X028926Y017339D01*
X028930Y017372D01*
X028930Y017406D01*
X028926Y017439D01*
X028919Y017471D01*
X028908Y017502D01*
X028893Y017533D01*
X028876Y017561D01*
X028855Y017587D01*
X028832Y017611D01*
X028831Y017610D01*
X028855Y017586D01*
X028875Y017560D01*
X028893Y017532D01*
X028907Y017502D01*
X028918Y017471D01*
X028925Y017438D01*
X028929Y017406D01*
X028929Y017372D01*
X028925Y017340D01*
X028918Y017307D01*
X028907Y017276D01*
X028893Y017246D01*
X028875Y017218D01*
X028855Y017192D01*
X028831Y017168D01*
X028831Y017169D01*
X028854Y017192D01*
X028874Y017218D01*
X028892Y017246D01*
X028906Y017276D01*
X028917Y017307D01*
X028924Y017340D01*
X028928Y017372D01*
X028928Y017406D01*
X028924Y017438D01*
X028917Y017471D01*
X028906Y017502D01*
X028892Y017532D01*
X028874Y017560D01*
X028854Y017586D01*
X028831Y017609D01*
X028830Y017608D01*
X028853Y017585D01*
X028874Y017559D01*
X028891Y017531D01*
X028905Y017501D01*
X028916Y017470D01*
X028923Y017438D01*
X028927Y017405D01*
X028927Y017373D01*
X028923Y017340D01*
X028916Y017308D01*
X028905Y017277D01*
X028891Y017247D01*
X028874Y017219D01*
X028853Y017193D01*
X028830Y017170D01*
X028829Y017170D01*
X028852Y017194D01*
X028873Y017220D01*
X028890Y017247D01*
X028904Y017277D01*
X028915Y017308D01*
X028922Y017340D01*
X028926Y017373D01*
X028926Y017405D01*
X028922Y017438D01*
X028915Y017470D01*
X028904Y017501D01*
X028890Y017531D01*
X028873Y017558D01*
X028852Y017584D01*
X028829Y017608D01*
X028829Y017607D01*
X028852Y017584D01*
X028872Y017558D01*
X028889Y017530D01*
X028903Y017501D01*
X028914Y017470D01*
X028921Y017438D01*
X028925Y017405D01*
X028925Y017373D01*
X028921Y017340D01*
X028914Y017308D01*
X028903Y017277D01*
X028889Y017248D01*
X028872Y017220D01*
X028852Y017194D01*
X028829Y017171D01*
X028828Y017172D01*
X028851Y017195D01*
X028871Y017221D01*
X028888Y017248D01*
X028902Y017278D01*
X028913Y017309D01*
X028920Y017340D01*
X028924Y017373D01*
X028924Y017405D01*
X028920Y017438D01*
X028913Y017469D01*
X028902Y017500D01*
X028888Y017530D01*
X028871Y017557D01*
X028851Y017583D01*
X028828Y017606D01*
X028827Y017605D01*
X028850Y017582D01*
X028870Y017557D01*
X028887Y017529D01*
X028901Y017500D01*
X028912Y017469D01*
X028919Y017437D01*
X028923Y017405D01*
X028923Y017373D01*
X028919Y017341D01*
X028912Y017309D01*
X028901Y017278D01*
X028887Y017249D01*
X028870Y017221D01*
X028850Y017196D01*
X028827Y017173D01*
X028849Y017196D01*
X028869Y017222D01*
X028886Y017249D01*
X028900Y017279D01*
X028911Y017309D01*
X028918Y017341D01*
X028922Y017373D01*
X028922Y017405D01*
X028918Y017437D01*
X028911Y017469D01*
X028900Y017499D01*
X028886Y017529D01*
X028869Y017556D01*
X028849Y017582D01*
X028827Y017605D01*
X028826Y017604D01*
X028849Y017581D01*
X028869Y017556D01*
X028886Y017528D01*
X028899Y017499D01*
X028910Y017469D01*
X028917Y017437D01*
X028921Y017405D01*
X028921Y017373D01*
X028917Y017341D01*
X028910Y017309D01*
X028899Y017279D01*
X028886Y017250D01*
X028869Y017222D01*
X028849Y017197D01*
X028826Y017174D01*
X028825Y017175D01*
X028848Y017198D01*
X028868Y017223D01*
X028885Y017250D01*
X028898Y017279D01*
X028909Y017310D01*
X028916Y017341D01*
X028920Y017373D01*
X028920Y017405D01*
X028916Y017437D01*
X028909Y017468D01*
X028898Y017499D01*
X028885Y017528D01*
X028868Y017555D01*
X028848Y017580D01*
X028825Y017603D01*
X028847Y017580D01*
X028867Y017554D01*
X028884Y017527D01*
X028898Y017498D01*
X028908Y017468D01*
X028915Y017437D01*
X028919Y017405D01*
X028919Y017373D01*
X028915Y017341D01*
X028908Y017310D01*
X028898Y017280D01*
X028884Y017251D01*
X028867Y017224D01*
X028847Y017198D01*
X028825Y017175D01*
X028824Y017176D01*
X028846Y017199D01*
X028866Y017224D01*
X028883Y017251D01*
X028897Y017280D01*
X028907Y017310D01*
X028914Y017341D01*
X028918Y017373D01*
X028918Y017405D01*
X028914Y017437D01*
X028907Y017468D01*
X028897Y017498D01*
X028883Y017527D01*
X028866Y017554D01*
X028846Y017579D01*
X028824Y017602D01*
X028823Y017601D01*
X028846Y017578D01*
X028865Y017553D01*
X028882Y017526D01*
X028896Y017498D01*
X028906Y017468D01*
X028913Y017436D01*
X028917Y017405D01*
X028917Y017373D01*
X028913Y017342D01*
X028906Y017310D01*
X028896Y017280D01*
X028882Y017252D01*
X028865Y017225D01*
X028846Y017200D01*
X028823Y017177D01*
X028823Y017178D01*
X028845Y017200D01*
X028864Y017225D01*
X028881Y017252D01*
X028895Y017281D01*
X028905Y017311D01*
X028912Y017342D01*
X028916Y017373D01*
X028916Y017405D01*
X028912Y017436D01*
X028905Y017467D01*
X028895Y017497D01*
X028881Y017526D01*
X028864Y017553D01*
X028845Y017578D01*
X028823Y017600D01*
X028822Y017600D01*
X028844Y017577D01*
X028864Y017552D01*
X028880Y017525D01*
X028894Y017497D01*
X028904Y017467D01*
X028911Y017436D01*
X028915Y017405D01*
X028915Y017373D01*
X028911Y017342D01*
X028904Y017311D01*
X028894Y017281D01*
X028880Y017253D01*
X028864Y017226D01*
X028844Y017201D01*
X028822Y017178D01*
X028821Y017179D01*
X028843Y017202D01*
X028863Y017226D01*
X028879Y017253D01*
X028893Y017282D01*
X028903Y017311D01*
X028910Y017342D01*
X028914Y017373D01*
X028914Y017405D01*
X028910Y017436D01*
X028903Y017467D01*
X028893Y017496D01*
X028879Y017525D01*
X028863Y017552D01*
X028843Y017576D01*
X028821Y017599D01*
X028821Y017598D01*
X028843Y017576D01*
X028862Y017551D01*
X028879Y017524D01*
X028892Y017496D01*
X028902Y017466D01*
X028909Y017436D01*
X028913Y017405D01*
X028913Y017373D01*
X028909Y017342D01*
X028902Y017312D01*
X028892Y017282D01*
X028879Y017254D01*
X028862Y017227D01*
X028843Y017202D01*
X028821Y017180D01*
X028820Y017181D01*
X028842Y017203D01*
X028861Y017228D01*
X028878Y017254D01*
X028891Y017282D01*
X028901Y017312D01*
X028908Y017342D01*
X028912Y017373D01*
X028912Y017405D01*
X028908Y017436D01*
X028901Y017466D01*
X028891Y017496D01*
X028878Y017524D01*
X028861Y017550D01*
X028842Y017575D01*
X028820Y017597D01*
X028819Y017597D01*
X028841Y017574D01*
X028860Y017550D01*
X028877Y017523D01*
X028890Y017495D01*
X028900Y017466D01*
X028907Y017435D01*
X028911Y017405D01*
X028911Y017373D01*
X028907Y017343D01*
X028900Y017312D01*
X028890Y017283D01*
X028877Y017255D01*
X028860Y017228D01*
X028841Y017204D01*
X028819Y017181D01*
X028819Y017182D01*
X028840Y017204D01*
X028860Y017229D01*
X028876Y017255D01*
X028889Y017283D01*
X028899Y017312D01*
X028906Y017343D01*
X028910Y017373D01*
X028910Y017405D01*
X028906Y017435D01*
X028899Y017466D01*
X028889Y017495D01*
X028876Y017523D01*
X028860Y017549D01*
X028840Y017574D01*
X028819Y017596D01*
X028818Y017595D01*
X028840Y017573D01*
X028859Y017549D01*
X028875Y017522D01*
X028888Y017495D01*
X028898Y017465D01*
X028905Y017435D01*
X028909Y017404D01*
X028909Y017374D01*
X028905Y017343D01*
X028898Y017313D01*
X028888Y017283D01*
X028875Y017256D01*
X028859Y017229D01*
X028840Y017205D01*
X028818Y017183D01*
X028817Y017184D01*
X028839Y017206D01*
X028858Y017230D01*
X028874Y017256D01*
X028887Y017284D01*
X028897Y017313D01*
X028904Y017343D01*
X028908Y017374D01*
X028908Y017404D01*
X028904Y017435D01*
X028897Y017465D01*
X028887Y017494D01*
X028874Y017522D01*
X028858Y017548D01*
X028839Y017572D01*
X028817Y017594D01*
X028838Y017572D01*
X028857Y017548D01*
X028873Y017521D01*
X028886Y017494D01*
X028896Y017465D01*
X028903Y017435D01*
X028907Y017404D01*
X028907Y017374D01*
X028903Y017343D01*
X028896Y017313D01*
X028886Y017284D01*
X028873Y017257D01*
X028857Y017230D01*
X028838Y017206D01*
X028817Y017184D01*
X028816Y017185D01*
X028837Y017207D01*
X028856Y017231D01*
X028872Y017257D01*
X028885Y017285D01*
X028895Y017314D01*
X028902Y017343D01*
X028906Y017374D01*
X028906Y017404D01*
X028902Y017435D01*
X028895Y017464D01*
X028885Y017493D01*
X028872Y017521D01*
X028856Y017547D01*
X028837Y017571D01*
X028816Y017593D01*
X028815Y017592D01*
X028837Y017570D01*
X028855Y017546D01*
X028872Y017521D01*
X028885Y017493D01*
X028895Y017464D01*
X028901Y017435D01*
X028905Y017404D01*
X028905Y017374D01*
X028901Y017343D01*
X028895Y017314D01*
X028885Y017285D01*
X028872Y017257D01*
X028855Y017232D01*
X028837Y017208D01*
X028815Y017186D01*
X006599Y018929D02*
X006628Y018955D01*
X006628Y018954D02*
X006649Y018933D01*
X006673Y018914D01*
X006699Y018898D01*
X006726Y018885D01*
X006755Y018875D01*
X006785Y018869D01*
X006815Y018865D01*
X006845Y018865D01*
X006875Y018869D01*
X006905Y018875D01*
X006934Y018885D01*
X006961Y018898D01*
X006987Y018914D01*
X007011Y018933D01*
X007032Y018954D01*
X007061Y018929D01*
X007061Y018928D01*
X007037Y018904D01*
X007009Y018882D01*
X006980Y018864D01*
X006948Y018849D01*
X006916Y018838D01*
X006882Y018830D01*
X006847Y018826D01*
X006813Y018826D01*
X006778Y018830D01*
X006744Y018838D01*
X006712Y018849D01*
X006680Y018864D01*
X006651Y018882D01*
X006623Y018904D01*
X006599Y018928D01*
X006599Y018929D01*
X006624Y018905D01*
X006651Y018883D01*
X006681Y018865D01*
X006712Y018850D01*
X006745Y018839D01*
X006778Y018831D01*
X006813Y018827D01*
X006847Y018827D01*
X006882Y018831D01*
X006915Y018839D01*
X006948Y018850D01*
X006979Y018865D01*
X007009Y018883D01*
X007036Y018905D01*
X007061Y018929D01*
X007060Y018929D01*
X007035Y018905D01*
X007008Y018884D01*
X006979Y018866D01*
X006948Y018851D01*
X006915Y018840D01*
X006881Y018832D01*
X006847Y018828D01*
X006813Y018828D01*
X006779Y018832D01*
X006745Y018840D01*
X006712Y018851D01*
X006681Y018866D01*
X006652Y018884D01*
X006625Y018905D01*
X006600Y018929D01*
X006601Y018930D01*
X006625Y018906D01*
X006652Y018885D01*
X006682Y018867D01*
X006713Y018852D01*
X006745Y018841D01*
X006779Y018833D01*
X006813Y018829D01*
X006847Y018829D01*
X006881Y018833D01*
X006915Y018841D01*
X006947Y018852D01*
X006978Y018867D01*
X007008Y018885D01*
X007035Y018906D01*
X007059Y018930D01*
X007058Y018931D01*
X007034Y018907D01*
X007007Y018886D01*
X006978Y018868D01*
X006947Y018853D01*
X006915Y018842D01*
X006881Y018834D01*
X006847Y018830D01*
X006813Y018830D01*
X006779Y018834D01*
X006745Y018842D01*
X006713Y018853D01*
X006682Y018868D01*
X006653Y018886D01*
X006626Y018907D01*
X006602Y018931D01*
X006627Y018908D01*
X006654Y018886D01*
X006683Y018869D01*
X006713Y018854D01*
X006746Y018843D01*
X006779Y018835D01*
X006813Y018831D01*
X006847Y018831D01*
X006881Y018835D01*
X006914Y018843D01*
X006947Y018854D01*
X006977Y018869D01*
X007006Y018886D01*
X007033Y018908D01*
X007058Y018931D01*
X007057Y018932D01*
X007033Y018908D01*
X007006Y018887D01*
X006977Y018869D01*
X006946Y018855D01*
X006914Y018844D01*
X006881Y018836D01*
X006847Y018832D01*
X006813Y018832D01*
X006779Y018836D01*
X006746Y018844D01*
X006714Y018855D01*
X006683Y018869D01*
X006654Y018887D01*
X006627Y018908D01*
X006603Y018932D01*
X006604Y018933D01*
X006628Y018909D01*
X006655Y018888D01*
X006684Y018870D01*
X006714Y018856D01*
X006746Y018845D01*
X006779Y018837D01*
X006813Y018833D01*
X006847Y018833D01*
X006881Y018837D01*
X006914Y018845D01*
X006946Y018856D01*
X006976Y018870D01*
X007005Y018888D01*
X007032Y018909D01*
X007056Y018933D01*
X007055Y018933D01*
X007031Y018910D01*
X007005Y018889D01*
X006976Y018871D01*
X006945Y018857D01*
X006913Y018846D01*
X006880Y018838D01*
X006847Y018834D01*
X006813Y018834D01*
X006780Y018838D01*
X006747Y018846D01*
X006715Y018857D01*
X006684Y018871D01*
X006655Y018889D01*
X006629Y018910D01*
X006605Y018933D01*
X006605Y018934D01*
X006629Y018911D01*
X006656Y018890D01*
X006685Y018872D01*
X006715Y018858D01*
X006747Y018847D01*
X006780Y018839D01*
X006813Y018835D01*
X006847Y018835D01*
X006880Y018839D01*
X006913Y018847D01*
X006945Y018858D01*
X006975Y018872D01*
X007004Y018890D01*
X007031Y018911D01*
X007055Y018934D01*
X007054Y018935D01*
X007030Y018911D01*
X007003Y018891D01*
X006975Y018873D01*
X006945Y018859D01*
X006913Y018848D01*
X006880Y018840D01*
X006847Y018836D01*
X006813Y018836D01*
X006780Y018840D01*
X006747Y018848D01*
X006715Y018859D01*
X006685Y018873D01*
X006657Y018891D01*
X006630Y018911D01*
X006606Y018935D01*
X006607Y018935D01*
X006631Y018912D01*
X006657Y018891D01*
X006686Y018874D01*
X006716Y018859D01*
X006747Y018849D01*
X006780Y018841D01*
X006813Y018837D01*
X006847Y018837D01*
X006880Y018841D01*
X006913Y018849D01*
X006944Y018859D01*
X006974Y018874D01*
X007003Y018891D01*
X007029Y018912D01*
X007053Y018935D01*
X007052Y018936D01*
X007029Y018913D01*
X007002Y018892D01*
X006974Y018875D01*
X006944Y018860D01*
X006912Y018849D01*
X006880Y018842D01*
X006847Y018838D01*
X006813Y018838D01*
X006780Y018842D01*
X006748Y018849D01*
X006716Y018860D01*
X006686Y018875D01*
X006658Y018892D01*
X006631Y018913D01*
X006608Y018936D01*
X006608Y018937D01*
X006632Y018914D01*
X006658Y018893D01*
X006686Y018876D01*
X006717Y018861D01*
X006748Y018850D01*
X006780Y018843D01*
X006813Y018839D01*
X006847Y018839D01*
X006880Y018843D01*
X006912Y018850D01*
X006943Y018861D01*
X006974Y018876D01*
X007002Y018893D01*
X007028Y018914D01*
X007052Y018937D01*
X007051Y018938D01*
X007027Y018914D01*
X007001Y018894D01*
X006973Y018876D01*
X006943Y018862D01*
X006912Y018851D01*
X006879Y018844D01*
X006847Y018840D01*
X006813Y018840D01*
X006781Y018844D01*
X006748Y018851D01*
X006717Y018862D01*
X006687Y018876D01*
X006659Y018894D01*
X006633Y018914D01*
X006609Y018938D01*
X006610Y018938D01*
X006633Y018915D01*
X006659Y018895D01*
X006687Y018877D01*
X006717Y018863D01*
X006748Y018852D01*
X006781Y018845D01*
X006813Y018841D01*
X006847Y018841D01*
X006879Y018845D01*
X006912Y018852D01*
X006943Y018863D01*
X006973Y018877D01*
X007001Y018895D01*
X007027Y018915D01*
X007050Y018938D01*
X007049Y018939D01*
X007026Y018916D01*
X007000Y018895D01*
X006972Y018878D01*
X006942Y018864D01*
X006911Y018853D01*
X006879Y018846D01*
X006846Y018842D01*
X006814Y018842D01*
X006781Y018846D01*
X006749Y018853D01*
X006718Y018864D01*
X006688Y018878D01*
X006660Y018895D01*
X006634Y018916D01*
X006611Y018939D01*
X006611Y018940D01*
X006635Y018917D01*
X006661Y018896D01*
X006688Y018879D01*
X006718Y018865D01*
X006749Y018854D01*
X006781Y018847D01*
X006814Y018843D01*
X006846Y018843D01*
X006879Y018847D01*
X006911Y018854D01*
X006942Y018865D01*
X006972Y018879D01*
X006999Y018896D01*
X007025Y018917D01*
X007049Y018940D01*
X007048Y018940D01*
X007025Y018917D01*
X006999Y018897D01*
X006971Y018880D01*
X006942Y018866D01*
X006911Y018855D01*
X006879Y018848D01*
X006846Y018844D01*
X006814Y018844D01*
X006781Y018848D01*
X006749Y018855D01*
X006718Y018866D01*
X006689Y018880D01*
X006661Y018897D01*
X006635Y018917D01*
X006612Y018940D01*
X006613Y018941D01*
X006636Y018918D01*
X006662Y018898D01*
X006689Y018881D01*
X006719Y018867D01*
X006750Y018856D01*
X006781Y018849D01*
X006814Y018845D01*
X006846Y018845D01*
X006879Y018849D01*
X006910Y018856D01*
X006941Y018867D01*
X006971Y018881D01*
X006998Y018898D01*
X007024Y018918D01*
X007047Y018941D01*
X007046Y018942D01*
X007023Y018919D01*
X006998Y018899D01*
X006970Y018882D01*
X006941Y018868D01*
X006910Y018857D01*
X006878Y018850D01*
X006846Y018846D01*
X006814Y018846D01*
X006782Y018850D01*
X006750Y018857D01*
X006719Y018868D01*
X006690Y018882D01*
X006662Y018899D01*
X006637Y018919D01*
X006614Y018942D01*
X006637Y018920D01*
X006663Y018900D01*
X006690Y018883D01*
X006720Y018869D01*
X006750Y018858D01*
X006782Y018851D01*
X006814Y018847D01*
X006846Y018847D01*
X006878Y018851D01*
X006910Y018858D01*
X006940Y018869D01*
X006970Y018883D01*
X006997Y018900D01*
X007023Y018920D01*
X007046Y018942D01*
X007045Y018943D01*
X007022Y018920D01*
X006997Y018900D01*
X006969Y018883D01*
X006940Y018870D01*
X006910Y018859D01*
X006878Y018852D01*
X006846Y018848D01*
X006814Y018848D01*
X006782Y018852D01*
X006750Y018859D01*
X006720Y018870D01*
X006691Y018883D01*
X006663Y018900D01*
X006638Y018920D01*
X006615Y018943D01*
X006616Y018944D01*
X006639Y018921D01*
X006664Y018901D01*
X006691Y018884D01*
X006720Y018871D01*
X006751Y018860D01*
X006782Y018853D01*
X006814Y018849D01*
X006846Y018849D01*
X006878Y018853D01*
X006909Y018860D01*
X006940Y018871D01*
X006969Y018884D01*
X006996Y018901D01*
X007021Y018921D01*
X007044Y018944D01*
X007021Y018922D01*
X006995Y018902D01*
X006968Y018885D01*
X006939Y018871D01*
X006909Y018861D01*
X006878Y018854D01*
X006846Y018850D01*
X006814Y018850D01*
X006782Y018854D01*
X006751Y018861D01*
X006721Y018871D01*
X006692Y018885D01*
X006665Y018902D01*
X006639Y018922D01*
X006616Y018944D01*
X006617Y018945D01*
X006640Y018923D01*
X006665Y018903D01*
X006692Y018886D01*
X006721Y018872D01*
X006751Y018862D01*
X006782Y018855D01*
X006814Y018851D01*
X006846Y018851D01*
X006878Y018855D01*
X006909Y018862D01*
X006939Y018872D01*
X006968Y018886D01*
X006995Y018903D01*
X007020Y018923D01*
X007043Y018945D01*
X007042Y018946D01*
X007019Y018923D01*
X006994Y018904D01*
X006967Y018887D01*
X006939Y018873D01*
X006909Y018863D01*
X006877Y018856D01*
X006846Y018852D01*
X006814Y018852D01*
X006783Y018856D01*
X006751Y018863D01*
X006721Y018873D01*
X006693Y018887D01*
X006666Y018904D01*
X006641Y018923D01*
X006618Y018946D01*
X006619Y018946D01*
X006641Y018924D01*
X006666Y018905D01*
X006693Y018888D01*
X006722Y018874D01*
X006752Y018864D01*
X006783Y018857D01*
X006814Y018853D01*
X006846Y018853D01*
X006877Y018857D01*
X006908Y018864D01*
X006938Y018874D01*
X006967Y018888D01*
X006994Y018905D01*
X007019Y018924D01*
X007041Y018946D01*
X007041Y018947D01*
X007018Y018925D01*
X006993Y018905D01*
X006966Y018889D01*
X006938Y018875D01*
X006908Y018865D01*
X006877Y018858D01*
X006846Y018854D01*
X006814Y018854D01*
X006783Y018858D01*
X006752Y018865D01*
X006722Y018875D01*
X006694Y018889D01*
X006667Y018905D01*
X006642Y018925D01*
X006619Y018947D01*
X006620Y018948D01*
X006643Y018926D01*
X006667Y018906D01*
X006694Y018890D01*
X006723Y018876D01*
X006752Y018866D01*
X006783Y018859D01*
X006814Y018855D01*
X006846Y018855D01*
X006877Y018859D01*
X006908Y018866D01*
X006937Y018876D01*
X006966Y018890D01*
X006993Y018906D01*
X007017Y018926D01*
X007040Y018948D01*
X007039Y018948D01*
X007017Y018926D01*
X006992Y018907D01*
X006965Y018890D01*
X006937Y018877D01*
X006907Y018867D01*
X006877Y018860D01*
X006846Y018856D01*
X006814Y018856D01*
X006783Y018860D01*
X006753Y018867D01*
X006723Y018877D01*
X006695Y018890D01*
X006668Y018907D01*
X006643Y018926D01*
X006621Y018948D01*
X006622Y018949D01*
X006644Y018927D01*
X006669Y018908D01*
X006695Y018891D01*
X006723Y018878D01*
X006753Y018868D01*
X006783Y018861D01*
X006814Y018857D01*
X006846Y018857D01*
X006877Y018861D01*
X006907Y018868D01*
X006937Y018878D01*
X006965Y018891D01*
X006991Y018908D01*
X007016Y018927D01*
X007038Y018949D01*
X007038Y018950D01*
X007015Y018928D01*
X006991Y018909D01*
X006964Y018892D01*
X006936Y018879D01*
X006907Y018869D01*
X006876Y018862D01*
X006846Y018858D01*
X006814Y018858D01*
X006784Y018862D01*
X006753Y018869D01*
X006724Y018879D01*
X006696Y018892D01*
X006669Y018909D01*
X006645Y018928D01*
X006622Y018950D01*
X006623Y018950D01*
X006645Y018929D01*
X006670Y018909D01*
X006696Y018893D01*
X006724Y018880D01*
X006753Y018870D01*
X006784Y018863D01*
X006814Y018859D01*
X006846Y018859D01*
X006876Y018863D01*
X006907Y018870D01*
X006936Y018880D01*
X006964Y018893D01*
X006990Y018909D01*
X007015Y018929D01*
X007037Y018950D01*
X007036Y018951D01*
X007014Y018929D01*
X006990Y018910D01*
X006963Y018894D01*
X006936Y018881D01*
X006906Y018871D01*
X006876Y018864D01*
X006845Y018860D01*
X006815Y018860D01*
X006784Y018864D01*
X006754Y018871D01*
X006724Y018881D01*
X006697Y018894D01*
X006670Y018910D01*
X006646Y018929D01*
X006624Y018951D01*
X006625Y018952D01*
X006647Y018930D01*
X006671Y018911D01*
X006697Y018895D01*
X006725Y018882D01*
X006754Y018872D01*
X006784Y018865D01*
X006815Y018861D01*
X006845Y018861D01*
X006876Y018865D01*
X006906Y018872D01*
X006935Y018882D01*
X006963Y018895D01*
X006989Y018911D01*
X007013Y018930D01*
X007035Y018952D01*
X007013Y018931D01*
X006989Y018912D01*
X006962Y018896D01*
X006935Y018883D01*
X006906Y018873D01*
X006876Y018866D01*
X006845Y018862D01*
X006815Y018862D01*
X006784Y018866D01*
X006754Y018873D01*
X006725Y018883D01*
X006698Y018896D01*
X006671Y018912D01*
X006647Y018931D01*
X006625Y018952D01*
X006626Y018953D01*
X006648Y018932D01*
X006672Y018913D01*
X006698Y018897D01*
X006726Y018884D01*
X006755Y018874D01*
X006784Y018867D01*
X006815Y018863D01*
X006845Y018863D01*
X006876Y018867D01*
X006905Y018874D01*
X006934Y018884D01*
X006962Y018897D01*
X006988Y018913D01*
X007012Y018932D01*
X007034Y018953D01*
X007033Y018954D01*
X007011Y018932D01*
X006987Y018914D01*
X006962Y018897D01*
X006934Y018884D01*
X006905Y018874D01*
X006876Y018868D01*
X006845Y018864D01*
X006815Y018864D01*
X006784Y018868D01*
X006755Y018874D01*
X006726Y018884D01*
X006698Y018897D01*
X006673Y018914D01*
X006649Y018932D01*
X006627Y018954D01*
X007061Y019349D02*
X007032Y019323D01*
X007032Y019324D02*
X007011Y019345D01*
X006987Y019364D01*
X006961Y019380D01*
X006934Y019393D01*
X006905Y019403D01*
X006875Y019409D01*
X006845Y019413D01*
X006815Y019413D01*
X006785Y019409D01*
X006755Y019403D01*
X006726Y019393D01*
X006699Y019380D01*
X006673Y019364D01*
X006649Y019345D01*
X006628Y019324D01*
X006599Y019349D01*
X006599Y019350D01*
X006623Y019374D01*
X006651Y019396D01*
X006680Y019414D01*
X006712Y019429D01*
X006744Y019440D01*
X006778Y019448D01*
X006813Y019452D01*
X006847Y019452D01*
X006882Y019448D01*
X006916Y019440D01*
X006948Y019429D01*
X006980Y019414D01*
X007009Y019396D01*
X007037Y019374D01*
X007061Y019350D01*
X007061Y019349D01*
X007036Y019373D01*
X007009Y019395D01*
X006979Y019413D01*
X006948Y019428D01*
X006915Y019439D01*
X006882Y019447D01*
X006847Y019451D01*
X006813Y019451D01*
X006778Y019447D01*
X006745Y019439D01*
X006712Y019428D01*
X006681Y019413D01*
X006651Y019395D01*
X006624Y019373D01*
X006599Y019349D01*
X006600Y019349D01*
X006625Y019373D01*
X006652Y019394D01*
X006681Y019412D01*
X006712Y019427D01*
X006745Y019438D01*
X006779Y019446D01*
X006813Y019450D01*
X006847Y019450D01*
X006881Y019446D01*
X006915Y019438D01*
X006948Y019427D01*
X006979Y019412D01*
X007008Y019394D01*
X007035Y019373D01*
X007060Y019349D01*
X007059Y019348D01*
X007035Y019372D01*
X007008Y019393D01*
X006978Y019411D01*
X006947Y019426D01*
X006915Y019437D01*
X006881Y019445D01*
X006847Y019449D01*
X006813Y019449D01*
X006779Y019445D01*
X006745Y019437D01*
X006713Y019426D01*
X006682Y019411D01*
X006652Y019393D01*
X006625Y019372D01*
X006601Y019348D01*
X006602Y019347D01*
X006626Y019371D01*
X006653Y019392D01*
X006682Y019410D01*
X006713Y019425D01*
X006745Y019436D01*
X006779Y019444D01*
X006813Y019448D01*
X006847Y019448D01*
X006881Y019444D01*
X006915Y019436D01*
X006947Y019425D01*
X006978Y019410D01*
X007007Y019392D01*
X007034Y019371D01*
X007058Y019347D01*
X007033Y019370D01*
X007006Y019392D01*
X006977Y019409D01*
X006947Y019424D01*
X006914Y019435D01*
X006881Y019443D01*
X006847Y019447D01*
X006813Y019447D01*
X006779Y019443D01*
X006746Y019435D01*
X006713Y019424D01*
X006683Y019409D01*
X006654Y019392D01*
X006627Y019370D01*
X006602Y019347D01*
X006603Y019346D01*
X006627Y019370D01*
X006654Y019391D01*
X006683Y019409D01*
X006714Y019423D01*
X006746Y019434D01*
X006779Y019442D01*
X006813Y019446D01*
X006847Y019446D01*
X006881Y019442D01*
X006914Y019434D01*
X006946Y019423D01*
X006977Y019409D01*
X007006Y019391D01*
X007033Y019370D01*
X007057Y019346D01*
X007056Y019345D01*
X007032Y019369D01*
X007005Y019390D01*
X006976Y019408D01*
X006946Y019422D01*
X006914Y019433D01*
X006881Y019441D01*
X006847Y019445D01*
X006813Y019445D01*
X006779Y019441D01*
X006746Y019433D01*
X006714Y019422D01*
X006684Y019408D01*
X006655Y019390D01*
X006628Y019369D01*
X006604Y019345D01*
X006605Y019345D01*
X006629Y019368D01*
X006655Y019389D01*
X006684Y019407D01*
X006715Y019421D01*
X006747Y019432D01*
X006780Y019440D01*
X006813Y019444D01*
X006847Y019444D01*
X006880Y019440D01*
X006913Y019432D01*
X006945Y019421D01*
X006976Y019407D01*
X007005Y019389D01*
X007031Y019368D01*
X007055Y019345D01*
X007055Y019344D01*
X007031Y019367D01*
X007004Y019388D01*
X006975Y019406D01*
X006945Y019420D01*
X006913Y019431D01*
X006880Y019439D01*
X006847Y019443D01*
X006813Y019443D01*
X006780Y019439D01*
X006747Y019431D01*
X006715Y019420D01*
X006685Y019406D01*
X006656Y019388D01*
X006629Y019367D01*
X006605Y019344D01*
X006606Y019343D01*
X006630Y019367D01*
X006657Y019387D01*
X006685Y019405D01*
X006715Y019419D01*
X006747Y019430D01*
X006780Y019438D01*
X006813Y019442D01*
X006847Y019442D01*
X006880Y019438D01*
X006913Y019430D01*
X006945Y019419D01*
X006975Y019405D01*
X007003Y019387D01*
X007030Y019367D01*
X007054Y019343D01*
X007053Y019343D01*
X007029Y019366D01*
X007003Y019387D01*
X006974Y019404D01*
X006944Y019419D01*
X006913Y019429D01*
X006880Y019437D01*
X006847Y019441D01*
X006813Y019441D01*
X006780Y019437D01*
X006747Y019429D01*
X006716Y019419D01*
X006686Y019404D01*
X006657Y019387D01*
X006631Y019366D01*
X006607Y019343D01*
X006608Y019342D01*
X006631Y019365D01*
X006658Y019386D01*
X006686Y019403D01*
X006716Y019418D01*
X006748Y019429D01*
X006780Y019436D01*
X006813Y019440D01*
X006847Y019440D01*
X006880Y019436D01*
X006912Y019429D01*
X006944Y019418D01*
X006974Y019403D01*
X007002Y019386D01*
X007029Y019365D01*
X007052Y019342D01*
X007052Y019341D01*
X007028Y019364D01*
X007002Y019385D01*
X006974Y019402D01*
X006943Y019417D01*
X006912Y019428D01*
X006880Y019435D01*
X006847Y019439D01*
X006813Y019439D01*
X006780Y019435D01*
X006748Y019428D01*
X006717Y019417D01*
X006686Y019402D01*
X006658Y019385D01*
X006632Y019364D01*
X006608Y019341D01*
X006609Y019340D01*
X006633Y019364D01*
X006659Y019384D01*
X006687Y019402D01*
X006717Y019416D01*
X006748Y019427D01*
X006781Y019434D01*
X006813Y019438D01*
X006847Y019438D01*
X006879Y019434D01*
X006912Y019427D01*
X006943Y019416D01*
X006973Y019402D01*
X007001Y019384D01*
X007027Y019364D01*
X007051Y019340D01*
X007050Y019340D01*
X007027Y019363D01*
X007001Y019383D01*
X006973Y019401D01*
X006943Y019415D01*
X006912Y019426D01*
X006879Y019433D01*
X006847Y019437D01*
X006813Y019437D01*
X006781Y019433D01*
X006748Y019426D01*
X006717Y019415D01*
X006687Y019401D01*
X006659Y019383D01*
X006633Y019363D01*
X006610Y019340D01*
X006611Y019339D01*
X006634Y019362D01*
X006660Y019383D01*
X006688Y019400D01*
X006718Y019414D01*
X006749Y019425D01*
X006781Y019432D01*
X006814Y019436D01*
X006846Y019436D01*
X006879Y019432D01*
X006911Y019425D01*
X006942Y019414D01*
X006972Y019400D01*
X007000Y019383D01*
X007026Y019362D01*
X007049Y019339D01*
X007049Y019338D01*
X007025Y019361D01*
X006999Y019382D01*
X006972Y019399D01*
X006942Y019413D01*
X006911Y019424D01*
X006879Y019431D01*
X006846Y019435D01*
X006814Y019435D01*
X006781Y019431D01*
X006749Y019424D01*
X006718Y019413D01*
X006688Y019399D01*
X006661Y019382D01*
X006635Y019361D01*
X006611Y019338D01*
X006612Y019338D01*
X006635Y019361D01*
X006661Y019381D01*
X006689Y019398D01*
X006718Y019412D01*
X006749Y019423D01*
X006781Y019430D01*
X006814Y019434D01*
X006846Y019434D01*
X006879Y019430D01*
X006911Y019423D01*
X006942Y019412D01*
X006971Y019398D01*
X006999Y019381D01*
X007025Y019361D01*
X007048Y019338D01*
X007047Y019337D01*
X007024Y019360D01*
X006998Y019380D01*
X006971Y019397D01*
X006941Y019411D01*
X006910Y019422D01*
X006879Y019429D01*
X006846Y019433D01*
X006814Y019433D01*
X006781Y019429D01*
X006750Y019422D01*
X006719Y019411D01*
X006689Y019397D01*
X006662Y019380D01*
X006636Y019360D01*
X006613Y019337D01*
X006614Y019336D01*
X006637Y019359D01*
X006662Y019379D01*
X006690Y019396D01*
X006719Y019410D01*
X006750Y019421D01*
X006782Y019428D01*
X006814Y019432D01*
X006846Y019432D01*
X006878Y019428D01*
X006910Y019421D01*
X006941Y019410D01*
X006970Y019396D01*
X006998Y019379D01*
X007023Y019359D01*
X007046Y019336D01*
X007023Y019358D01*
X006997Y019378D01*
X006970Y019395D01*
X006940Y019409D01*
X006910Y019420D01*
X006878Y019427D01*
X006846Y019431D01*
X006814Y019431D01*
X006782Y019427D01*
X006750Y019420D01*
X006720Y019409D01*
X006690Y019395D01*
X006663Y019378D01*
X006637Y019358D01*
X006614Y019336D01*
X006615Y019335D01*
X006638Y019358D01*
X006663Y019378D01*
X006691Y019395D01*
X006720Y019408D01*
X006750Y019419D01*
X006782Y019426D01*
X006814Y019430D01*
X006846Y019430D01*
X006878Y019426D01*
X006910Y019419D01*
X006940Y019408D01*
X006969Y019395D01*
X006997Y019378D01*
X007022Y019358D01*
X007045Y019335D01*
X007044Y019334D01*
X007021Y019357D01*
X006996Y019377D01*
X006969Y019394D01*
X006940Y019407D01*
X006909Y019418D01*
X006878Y019425D01*
X006846Y019429D01*
X006814Y019429D01*
X006782Y019425D01*
X006751Y019418D01*
X006720Y019407D01*
X006691Y019394D01*
X006664Y019377D01*
X006639Y019357D01*
X006616Y019334D01*
X006639Y019356D01*
X006665Y019376D01*
X006692Y019393D01*
X006721Y019407D01*
X006751Y019417D01*
X006782Y019424D01*
X006814Y019428D01*
X006846Y019428D01*
X006878Y019424D01*
X006909Y019417D01*
X006939Y019407D01*
X006968Y019393D01*
X006995Y019376D01*
X007021Y019356D01*
X007044Y019334D01*
X007043Y019333D01*
X007020Y019355D01*
X006995Y019375D01*
X006968Y019392D01*
X006939Y019406D01*
X006909Y019416D01*
X006878Y019423D01*
X006846Y019427D01*
X006814Y019427D01*
X006782Y019423D01*
X006751Y019416D01*
X006721Y019406D01*
X006692Y019392D01*
X006665Y019375D01*
X006640Y019355D01*
X006617Y019333D01*
X006618Y019332D01*
X006641Y019355D01*
X006666Y019374D01*
X006693Y019391D01*
X006721Y019405D01*
X006751Y019415D01*
X006783Y019422D01*
X006814Y019426D01*
X006846Y019426D01*
X006877Y019422D01*
X006909Y019415D01*
X006939Y019405D01*
X006967Y019391D01*
X006994Y019374D01*
X007019Y019355D01*
X007042Y019332D01*
X007041Y019332D01*
X007019Y019354D01*
X006994Y019373D01*
X006967Y019390D01*
X006938Y019404D01*
X006908Y019414D01*
X006877Y019421D01*
X006846Y019425D01*
X006814Y019425D01*
X006783Y019421D01*
X006752Y019414D01*
X006722Y019404D01*
X006693Y019390D01*
X006666Y019373D01*
X006641Y019354D01*
X006619Y019332D01*
X006619Y019331D01*
X006642Y019353D01*
X006667Y019373D01*
X006694Y019389D01*
X006722Y019403D01*
X006752Y019413D01*
X006783Y019420D01*
X006814Y019424D01*
X006846Y019424D01*
X006877Y019420D01*
X006908Y019413D01*
X006938Y019403D01*
X006966Y019389D01*
X006993Y019373D01*
X007018Y019353D01*
X007041Y019331D01*
X007040Y019330D01*
X007017Y019352D01*
X006993Y019372D01*
X006966Y019388D01*
X006937Y019402D01*
X006908Y019412D01*
X006877Y019419D01*
X006846Y019423D01*
X006814Y019423D01*
X006783Y019419D01*
X006752Y019412D01*
X006723Y019402D01*
X006694Y019388D01*
X006667Y019372D01*
X006643Y019352D01*
X006620Y019330D01*
X006621Y019330D01*
X006643Y019352D01*
X006668Y019371D01*
X006695Y019388D01*
X006723Y019401D01*
X006753Y019411D01*
X006783Y019418D01*
X006814Y019422D01*
X006846Y019422D01*
X006877Y019418D01*
X006907Y019411D01*
X006937Y019401D01*
X006965Y019388D01*
X006992Y019371D01*
X007017Y019352D01*
X007039Y019330D01*
X007038Y019329D01*
X007016Y019351D01*
X006991Y019370D01*
X006965Y019387D01*
X006937Y019400D01*
X006907Y019410D01*
X006877Y019417D01*
X006846Y019421D01*
X006814Y019421D01*
X006783Y019417D01*
X006753Y019410D01*
X006723Y019400D01*
X006695Y019387D01*
X006669Y019370D01*
X006644Y019351D01*
X006622Y019329D01*
X006622Y019328D01*
X006645Y019350D01*
X006669Y019369D01*
X006696Y019386D01*
X006724Y019399D01*
X006753Y019409D01*
X006784Y019416D01*
X006814Y019420D01*
X006846Y019420D01*
X006876Y019416D01*
X006907Y019409D01*
X006936Y019399D01*
X006964Y019386D01*
X006991Y019369D01*
X007015Y019350D01*
X007038Y019328D01*
X007037Y019328D01*
X007015Y019349D01*
X006990Y019369D01*
X006964Y019385D01*
X006936Y019398D01*
X006907Y019408D01*
X006876Y019415D01*
X006846Y019419D01*
X006814Y019419D01*
X006784Y019415D01*
X006753Y019408D01*
X006724Y019398D01*
X006696Y019385D01*
X006670Y019369D01*
X006645Y019349D01*
X006623Y019328D01*
X006624Y019327D01*
X006646Y019349D01*
X006670Y019368D01*
X006697Y019384D01*
X006724Y019397D01*
X006754Y019407D01*
X006784Y019414D01*
X006815Y019418D01*
X006845Y019418D01*
X006876Y019414D01*
X006906Y019407D01*
X006936Y019397D01*
X006963Y019384D01*
X006990Y019368D01*
X007014Y019349D01*
X007036Y019327D01*
X007035Y019326D01*
X007013Y019348D01*
X006989Y019367D01*
X006963Y019383D01*
X006935Y019396D01*
X006906Y019406D01*
X006876Y019413D01*
X006845Y019417D01*
X006815Y019417D01*
X006784Y019413D01*
X006754Y019406D01*
X006725Y019396D01*
X006697Y019383D01*
X006671Y019367D01*
X006647Y019348D01*
X006625Y019326D01*
X006647Y019347D01*
X006671Y019366D01*
X006698Y019382D01*
X006725Y019395D01*
X006754Y019405D01*
X006784Y019412D01*
X006815Y019416D01*
X006845Y019416D01*
X006876Y019412D01*
X006906Y019405D01*
X006935Y019395D01*
X006962Y019382D01*
X006989Y019366D01*
X007013Y019347D01*
X007035Y019326D01*
X007034Y019325D01*
X007012Y019346D01*
X006988Y019365D01*
X006962Y019381D01*
X006934Y019394D01*
X006905Y019404D01*
X006876Y019411D01*
X006845Y019415D01*
X006815Y019415D01*
X006784Y019411D01*
X006755Y019404D01*
X006726Y019394D01*
X006698Y019381D01*
X006672Y019365D01*
X006648Y019346D01*
X006626Y019325D01*
X006627Y019324D01*
X006649Y019346D01*
X006673Y019364D01*
X006698Y019381D01*
X006726Y019394D01*
X006755Y019404D01*
X006784Y019410D01*
X006815Y019414D01*
X006845Y019414D01*
X006876Y019410D01*
X006905Y019404D01*
X006934Y019394D01*
X006962Y019381D01*
X006987Y019364D01*
X007011Y019346D01*
X007033Y019324D01*
D18*
X006623Y019365D03*
X015287Y001962D03*
D19*
X023056Y016695D03*
X023856Y016695D03*
X024656Y016695D03*
X028856Y017595D03*
D20*
X008730Y006281D02*
X008730Y006277D01*
D21*
X008230Y006529D02*
X008230Y007044D01*
X009234Y007044D01*
X009234Y006529D01*
X008230Y006529D01*
D22*
X026758Y014527D02*
X027702Y014527D01*
X027702Y015550D01*
X026758Y015550D01*
X026758Y014527D01*
M02*
