%
M48
M72
T01C0.0240
T02C0.0320
T03C0.0360
T04C0.0394
T05C0.0400
T06C0.1299
%
T01
X3973Y7502
X3973Y8502
X3973Y10502
X3973Y11502
X5623Y13752
X5873Y12502
X5873Y11502
X6873Y12052
X7673Y12202
X7623Y13302
X6873Y13302
X7073Y15002
X6723Y16652
X7423Y16852
X7423Y18452
X6723Y18352
X6023Y17452
X6023Y15852
X3973Y15002
X3873Y14502
X3873Y16502
X3973Y17002
X3973Y18002
X3873Y18602
X3323Y19052
X3973Y21502
X3873Y22002
X3973Y22502
X3873Y23002
X3973Y23502
X3873Y24002
X3973Y24502
X3873Y25002
X3173Y25202
X2373Y26502
X5723Y29502
X5873Y29002
X5873Y28152
X5973Y27252
X7023Y25552
X7273Y24602
X8423Y25902
X8773Y25202
X9223Y23852
X10423Y22502
X11423Y24602
X10723Y24902
X11423Y25752
X11223Y26252
X11923Y26402
X11573Y27702
X12723Y24752
X12573Y23502
X12573Y22802
X12173Y20752
X13273Y20302
X13223Y19752
X13623Y18802
X13173Y18452
X13573Y18052
X13123Y17502
X12673Y17852
X13573Y17152
X13123Y16802
X13573Y16452
X12873Y15902
X11323Y16702
X10573Y15752
X10073Y15752
X10123Y17002
X9573Y17452
X9273Y16752
X8673Y17452
X8673Y18152
X8673Y18702
X8873Y19202
X9573Y19852
X9923Y19002
X8673Y20252
X7573Y20602
X7573Y19602
X7073Y19702
X6673Y20252
X5673Y20402
X5673Y19102
X7523Y21852
X7923Y21502
X7123Y29152
X7073Y29652
X6573Y29652
X5723Y30202
X5573Y31652
X10423Y31602
X13873Y28402
X14573Y28902
X15073Y29052
X15973Y29052
X16673Y29052
X15973Y27902
X15973Y27402
X17123Y26102
X16023Y25602
X15423Y23652
X14523Y21952
X14023Y22302
X16673Y21902
X16773Y19452
X16773Y18902
X17773Y17802
X16973Y15902
X17273Y14702
X17573Y12352
X16773Y10652
X16373Y7202
X16873Y6102
X16873Y4952
X17173Y3652
X14623Y3302
X14073Y4852
X14073Y5402
X13373Y6102
X13323Y6852
X12173Y6152
X11773Y5702
X11073Y4452
X10073Y4452
X10073Y5002
X9873Y5702
X9373Y5702
X9273Y5002
X11073Y6852
X10123Y7952
X9923Y8902
X10423Y9252
X9423Y10802
X8773Y11452
X8723Y12502
X7123Y10452
X7123Y9702
X5973Y9352
X10923Y11752
X11773Y12102
X13173Y10802
X13523Y11702
X14223Y12252
X14423Y11702
X14023Y9252
X14023Y8752
X12323Y9252
X11723Y9252
X11723Y8752
X12623Y4452
X13173Y4452
X12673Y2852
X13373Y2402
X19523Y18102
X16923Y30302
T02
X11873Y13502
X9973Y13502
X3423Y26752
X3423Y27752
X2423Y28252
X2423Y27252
T03
X7673Y29502
X7673Y30502
X8673Y30502
X8673Y29502
X9673Y29502
X9673Y30502
X10673Y30502
X10673Y29502
X11673Y29502
X11673Y30502
T04
X18673Y30502
X19673Y30502
X19173Y23002
X19173Y22002
X19173Y21002
X19173Y20002
X19173Y19002
X19173Y17502
X19173Y16502
X19173Y15502
X19173Y14502
X19173Y13502
X19173Y12002
X19173Y11002
X19173Y10002
X19173Y9002
X19173Y8002
X19173Y6502
X19173Y5502
X19173Y4502
X19173Y3502
X19173Y2502
T05
X9673Y2502
X8673Y2502
X7673Y2502
X6673Y2502
X5673Y2502
X12673Y26002
X12673Y27002
X12673Y28002
T06
X3423Y3252
X3423Y30752
M30
