G75*
G70*
%OFA0B0*%
%FSLAX24Y24*%
%IPPOS*%
%LPD*%
%AMOC8*
5,1,8,0,0,1.08239X$1,22.5*
%
%ADD10C,0.0110*%
%ADD11R,0.0800X0.0260*%
%ADD12R,0.0433X0.0394*%
%ADD13R,0.0394X0.0433*%
%ADD14C,0.0520*%
%ADD15O,0.1187X0.0594*%
%ADD16OC8,0.0560*%
%ADD17R,0.0460X0.0630*%
%ADD18O,0.0594X0.1187*%
%ADD19O,0.1200X0.0600*%
%ADD20O,0.0600X0.1200*%
%ADD21C,0.0160*%
%ADD22C,0.0200*%
%ADD23C,0.0100*%
%ADD24C,0.0400*%
D10*
X018034Y025307D02*
X017935Y025405D01*
X017935Y025504D01*
X018034Y025602D01*
X018329Y025602D01*
X018580Y025602D02*
X018580Y025799D01*
X018678Y025897D01*
X018974Y025897D01*
X018974Y025307D01*
X018974Y025504D02*
X018678Y025504D01*
X018580Y025602D01*
X018329Y025897D02*
X018034Y025897D01*
X017935Y025799D01*
X017935Y025700D01*
X018034Y025602D01*
X018034Y025307D02*
X018329Y025307D01*
X018329Y025897D01*
X018428Y024897D02*
X018330Y024799D01*
X018330Y024700D01*
X018428Y024602D01*
X018625Y024602D01*
X018724Y024700D01*
X018724Y024799D01*
X018625Y024897D01*
X018428Y024897D01*
X018428Y024602D02*
X018330Y024504D01*
X018330Y024405D01*
X018428Y024307D01*
X018625Y024307D01*
X018724Y024405D01*
X018724Y024504D01*
X018625Y024602D01*
X018974Y024799D02*
X018974Y024405D01*
X019073Y024307D01*
X019270Y024307D01*
X019368Y024405D01*
X018974Y024799D01*
X019073Y024897D01*
X019270Y024897D01*
X019368Y024799D01*
X019368Y024405D01*
X019224Y025307D02*
X019224Y025700D01*
X019421Y025897D01*
X019618Y025700D01*
X019618Y025307D01*
X019618Y025602D02*
X019224Y025602D01*
D11*
X017883Y021252D03*
X017883Y020752D03*
X017883Y020252D03*
X017883Y019752D03*
X017883Y019252D03*
X017883Y018752D03*
X017883Y018252D03*
X015463Y018252D03*
X015463Y018752D03*
X015463Y019252D03*
X015463Y019752D03*
X015463Y020252D03*
X015463Y020752D03*
X015463Y021252D03*
X015463Y005252D03*
X015463Y004752D03*
X015463Y004252D03*
X015463Y003752D03*
X015463Y003252D03*
X015463Y002752D03*
X015463Y002252D03*
X017883Y002252D03*
X017883Y002752D03*
X017883Y003252D03*
X017883Y003752D03*
X017883Y004252D03*
X017883Y004752D03*
X017883Y005252D03*
D12*
X013508Y008102D03*
X012838Y008102D03*
X011258Y008352D03*
X010588Y008352D03*
X010508Y016502D03*
X009838Y016502D03*
X014588Y029552D03*
X015258Y029552D03*
X015838Y029552D03*
X016508Y029552D03*
D13*
X012673Y013836D03*
X012673Y013167D03*
X012838Y009102D03*
X013508Y009102D03*
X009173Y013167D03*
X009173Y013836D03*
X005258Y017502D03*
X004588Y017502D03*
D14*
X009973Y013502D03*
X011873Y013502D03*
X003423Y026752D03*
X003423Y027752D03*
X002423Y028252D03*
X002423Y027252D03*
D15*
X019173Y023002D03*
X019173Y022002D03*
X019173Y021002D03*
X019173Y020002D03*
X019173Y019002D03*
X019173Y017502D03*
X019173Y016502D03*
X019173Y015502D03*
X019173Y014502D03*
X019173Y013502D03*
X019173Y012002D03*
X019173Y011002D03*
X019173Y010002D03*
X019173Y009002D03*
X019173Y008002D03*
X019173Y006502D03*
X019173Y005502D03*
X019173Y004502D03*
X019173Y003502D03*
X019173Y002502D03*
D16*
X011673Y029502D03*
X011673Y030502D03*
X010673Y030502D03*
X010673Y029502D03*
X009673Y029502D03*
X009673Y030502D03*
X008673Y030502D03*
X008673Y029502D03*
X007673Y029502D03*
X007673Y030502D03*
D17*
X007423Y028502D03*
X006823Y028502D03*
X006823Y027752D03*
X007423Y027752D03*
X008023Y027752D03*
X008023Y028502D03*
X008023Y026502D03*
X007423Y026502D03*
X006823Y026502D03*
D18*
X018673Y030502D03*
X019673Y030502D03*
D19*
X012673Y028002D03*
X012673Y027002D03*
X012673Y026002D03*
D20*
X009673Y002502D03*
X008673Y002502D03*
X007673Y002502D03*
X006673Y002502D03*
X005673Y002502D03*
D21*
X006066Y003087D02*
X006280Y003087D01*
X006193Y003001D02*
X006193Y002003D01*
X006214Y001982D01*
X006132Y001982D01*
X006153Y002003D01*
X006153Y003001D01*
X005872Y003282D01*
X005474Y003282D01*
X005193Y003001D01*
X005193Y002003D01*
X005214Y001982D01*
X004668Y001982D01*
X004751Y002067D01*
X004854Y002192D01*
X004854Y002192D01*
X004944Y002327D01*
X005022Y002469D01*
X005086Y002618D01*
X005137Y002771D01*
X005137Y002771D01*
X005174Y002929D01*
X005174Y002929D01*
X005196Y003090D01*
X005203Y003252D01*
X005196Y003414D01*
X005174Y003574D01*
X005137Y003732D01*
X005086Y003886D01*
X005022Y004034D01*
X005022Y004034D01*
X004944Y004177D01*
X004854Y004311D01*
X004751Y004437D01*
X004638Y004553D01*
X004515Y004658D01*
X004382Y004751D01*
X004242Y004832D01*
X004095Y004900D01*
X004034Y004922D01*
X008895Y004922D01*
X008951Y004786D01*
X009058Y004680D01*
X009197Y004622D01*
X009349Y004622D01*
X009488Y004680D01*
X009595Y004786D01*
X009653Y004926D01*
X009653Y005077D01*
X009635Y005122D01*
X009711Y005122D01*
X009693Y005077D01*
X009693Y004926D01*
X009751Y004786D01*
X009811Y004727D01*
X009751Y004667D01*
X009693Y004527D01*
X009693Y004376D01*
X009751Y004236D01*
X009858Y004130D01*
X009997Y004072D01*
X010128Y004072D01*
X011128Y003072D01*
X011318Y003072D01*
X012356Y003072D01*
X012351Y003067D01*
X012293Y002927D01*
X012293Y002776D01*
X012351Y002636D01*
X012458Y002530D01*
X012597Y002472D01*
X012749Y002472D01*
X012888Y002530D01*
X012980Y002622D01*
X013056Y002622D01*
X013051Y002617D01*
X012993Y002477D01*
X012993Y002326D01*
X013051Y002186D01*
X013158Y002080D01*
X013297Y002022D01*
X013449Y002022D01*
X013466Y002029D01*
X013523Y001982D01*
X010132Y001982D01*
X010153Y002003D01*
X010153Y002482D01*
X009693Y002482D01*
X009693Y002522D01*
X009653Y002522D01*
X009653Y003282D01*
X009474Y003282D01*
X009193Y003001D01*
X009193Y002522D01*
X009653Y002522D01*
X009653Y002482D01*
X009193Y002482D01*
X009193Y002003D01*
X009214Y001982D01*
X009132Y001982D01*
X009153Y002003D01*
X009153Y003001D01*
X008872Y003282D01*
X008474Y003282D01*
X008193Y003001D01*
X008193Y002003D01*
X008214Y001982D01*
X008132Y001982D01*
X008153Y002003D01*
X008153Y003001D01*
X007872Y003282D01*
X007474Y003282D01*
X007193Y003001D01*
X007193Y002003D01*
X007214Y001982D01*
X007132Y001982D01*
X007153Y002003D01*
X007153Y003001D01*
X006872Y003282D01*
X006474Y003282D01*
X006193Y003001D01*
X006193Y002929D02*
X006153Y002929D01*
X006153Y002770D02*
X006193Y002770D01*
X006193Y002612D02*
X006153Y002612D01*
X006153Y002453D02*
X006193Y002453D01*
X006193Y002294D02*
X006153Y002294D01*
X006153Y002136D02*
X006193Y002136D01*
X007153Y002136D02*
X007193Y002136D01*
X007193Y002294D02*
X007153Y002294D01*
X007153Y002453D02*
X007193Y002453D01*
X007193Y002612D02*
X007153Y002612D01*
X007153Y002770D02*
X007193Y002770D01*
X007193Y002929D02*
X007153Y002929D01*
X007066Y003087D02*
X007280Y003087D01*
X007438Y003246D02*
X006908Y003246D01*
X006438Y003246D02*
X005908Y003246D01*
X005438Y003246D02*
X005203Y003246D01*
X005196Y003090D02*
X005196Y003090D01*
X005195Y003087D02*
X005280Y003087D01*
X005193Y002929D02*
X005173Y002929D01*
X005193Y002770D02*
X005137Y002770D01*
X005086Y002618D02*
X005086Y002618D01*
X005084Y002612D02*
X005193Y002612D01*
X005193Y002453D02*
X005013Y002453D01*
X005022Y002469D02*
X005022Y002469D01*
X004944Y002327D02*
X004944Y002327D01*
X004922Y002294D02*
X005193Y002294D01*
X005193Y002136D02*
X004808Y002136D01*
X004751Y002067D02*
X004751Y002067D01*
X005196Y003404D02*
X010795Y003404D01*
X010637Y003563D02*
X005175Y003563D01*
X005174Y003574D02*
X005174Y003574D01*
X005139Y003721D02*
X010478Y003721D01*
X010320Y003880D02*
X005088Y003880D01*
X005086Y003886D02*
X005086Y003886D01*
X005137Y003732D02*
X005137Y003732D01*
X005196Y003414D02*
X005196Y003414D01*
X005020Y004038D02*
X010161Y004038D01*
X009790Y004197D02*
X004930Y004197D01*
X004944Y004177D02*
X004944Y004177D01*
X004817Y004356D02*
X009702Y004356D01*
X009693Y004514D02*
X004676Y004514D01*
X004751Y004437D02*
X004751Y004437D01*
X004494Y004673D02*
X009075Y004673D01*
X008932Y004831D02*
X004244Y004831D01*
X003018Y005982D02*
X002953Y006047D01*
X002953Y008272D01*
X003666Y008272D01*
X003758Y008180D01*
X003806Y008160D01*
X003743Y008097D01*
X003743Y007906D01*
X003743Y007809D01*
X003651Y007717D01*
X003593Y007577D01*
X003593Y007426D01*
X003651Y007286D01*
X003758Y007180D01*
X003897Y007122D01*
X004049Y007122D01*
X004188Y007180D01*
X004295Y007286D01*
X004353Y007426D01*
X004353Y007577D01*
X004295Y007717D01*
X004203Y007809D01*
X004203Y007903D01*
X005864Y009472D01*
X006816Y009472D01*
X006908Y009380D01*
X007047Y009322D01*
X007199Y009322D01*
X007338Y009380D01*
X007445Y009486D01*
X007503Y009626D01*
X007503Y009777D01*
X007445Y009917D01*
X007338Y010024D01*
X007199Y010082D01*
X007047Y010082D01*
X006908Y010024D01*
X006816Y009932D01*
X005678Y009932D01*
X005613Y009867D01*
X004323Y008649D01*
X004295Y008717D01*
X004188Y008824D01*
X004049Y008882D01*
X003897Y008882D01*
X003758Y008824D01*
X003666Y008732D01*
X003203Y008732D01*
X003203Y019306D01*
X004618Y020722D01*
X005456Y020722D01*
X005351Y020617D01*
X005293Y020477D01*
X005293Y020326D01*
X005351Y020186D01*
X005458Y020080D01*
X005597Y020022D01*
X005749Y020022D01*
X005888Y020080D01*
X005995Y020186D01*
X006053Y020326D01*
X006053Y020372D01*
X006311Y020372D01*
X006293Y020327D01*
X006293Y020176D01*
X006351Y020036D01*
X006458Y019930D01*
X006597Y019872D01*
X006732Y019872D01*
X006693Y019777D01*
X006693Y019647D01*
X006378Y019332D01*
X005980Y019332D01*
X005888Y019424D01*
X005749Y019482D01*
X005597Y019482D01*
X005458Y019424D01*
X005351Y019317D01*
X005293Y019177D01*
X005293Y019026D01*
X005311Y018982D01*
X004318Y018982D01*
X004253Y019047D01*
X004118Y019182D01*
X003818Y019182D01*
X003628Y019182D01*
X003428Y018982D01*
X003293Y018847D01*
X003293Y014597D01*
X003293Y014406D01*
X003428Y014272D01*
X003566Y014272D01*
X003658Y014180D01*
X003797Y014122D01*
X003949Y014122D01*
X004088Y014180D01*
X004195Y014286D01*
X004253Y014426D01*
X004253Y014577D01*
X004204Y014695D01*
X004280Y014772D01*
X006766Y014772D01*
X006858Y014680D01*
X006997Y014622D01*
X007149Y014622D01*
X007288Y014680D01*
X007395Y014786D01*
X007453Y014926D01*
X007453Y015077D01*
X007395Y015217D01*
X007288Y015324D01*
X007149Y015382D01*
X006997Y015382D01*
X006858Y015324D01*
X006766Y015232D01*
X004280Y015232D01*
X004188Y015324D01*
X004049Y015382D01*
X003897Y015382D01*
X003758Y015324D01*
X003753Y015319D01*
X003753Y016140D01*
X003797Y016122D01*
X003949Y016122D01*
X004088Y016180D01*
X004180Y016272D01*
X006647Y016272D01*
X006799Y016272D01*
X006938Y016330D01*
X007045Y016436D01*
X007103Y016576D01*
X007103Y016634D01*
X007208Y016530D01*
X007347Y016472D01*
X007499Y016472D01*
X007638Y016530D01*
X007745Y016636D01*
X007803Y016776D01*
X007803Y016872D01*
X008911Y016872D01*
X008893Y016827D01*
X008893Y016676D01*
X008951Y016536D01*
X009058Y016430D01*
X009197Y016372D01*
X009349Y016372D01*
X009442Y016410D01*
X009442Y016230D01*
X009547Y016125D01*
X009793Y016125D01*
X009793Y016009D01*
X009751Y015967D01*
X009693Y015827D01*
X009693Y015676D01*
X009751Y015536D01*
X009858Y015430D01*
X009997Y015372D01*
X010149Y015372D01*
X010288Y015430D01*
X010395Y015536D01*
X010453Y015676D01*
X010453Y015827D01*
X010395Y015967D01*
X010288Y016074D01*
X010253Y016088D01*
X010253Y016125D01*
X010489Y016125D01*
X010489Y016483D01*
X010526Y016483D01*
X010526Y016125D01*
X010799Y016125D01*
X010904Y016230D01*
X010904Y016483D01*
X010526Y016483D01*
X010526Y016520D01*
X010489Y016520D01*
X010489Y016879D01*
X010483Y016879D01*
X010503Y016926D01*
X010503Y017077D01*
X010445Y017217D01*
X010338Y017324D01*
X010199Y017382D01*
X010047Y017382D01*
X009936Y017336D01*
X009953Y017376D01*
X009953Y017527D01*
X009935Y017572D01*
X010328Y017572D01*
X010518Y017572D01*
X010718Y017772D01*
X010853Y017906D01*
X010853Y019147D01*
X011493Y018506D01*
X011493Y017306D01*
X011628Y017172D01*
X012578Y016222D01*
X012768Y016222D01*
X013266Y016222D01*
X013358Y016130D01*
X013497Y016072D01*
X013649Y016072D01*
X013788Y016130D01*
X013895Y016236D01*
X013953Y016376D01*
X013953Y016527D01*
X013895Y016667D01*
X013788Y016774D01*
X013721Y016802D01*
X013788Y016830D01*
X013895Y016936D01*
X013953Y017076D01*
X013953Y017227D01*
X013895Y017367D01*
X013788Y017474D01*
X013649Y017532D01*
X013503Y017532D01*
X013503Y017577D01*
X013457Y017689D01*
X013497Y017672D01*
X013649Y017672D01*
X013788Y017730D01*
X013895Y017836D01*
X013953Y017976D01*
X013953Y018127D01*
X013895Y018267D01*
X013788Y018374D01*
X013673Y018422D01*
X013699Y018422D01*
X013838Y018480D01*
X013945Y018586D01*
X014003Y018726D01*
X014003Y018877D01*
X013945Y019017D01*
X013838Y019124D01*
X013699Y019182D01*
X013568Y019182D01*
X013355Y019395D01*
X013438Y019430D01*
X013545Y019536D01*
X013603Y019676D01*
X013603Y019722D01*
X014618Y019722D01*
X014753Y019856D01*
X014753Y020047D01*
X014753Y021644D01*
X014845Y021736D01*
X014903Y021876D01*
X014903Y022027D01*
X014845Y022167D01*
X014738Y022274D01*
X014599Y022332D01*
X014447Y022332D01*
X014403Y022313D01*
X014403Y022377D01*
X014345Y022517D01*
X014238Y022624D01*
X014099Y022682D01*
X013947Y022682D01*
X013808Y022624D01*
X013701Y022517D01*
X013643Y022377D01*
X013643Y022226D01*
X013701Y022086D01*
X013793Y021994D01*
X013793Y021847D01*
X013378Y021432D01*
X013243Y021297D01*
X013243Y020682D01*
X013197Y020682D01*
X013058Y020624D01*
X012951Y020517D01*
X012893Y020377D01*
X012893Y020226D01*
X012951Y020086D01*
X012986Y020052D01*
X012901Y019967D01*
X012866Y019884D01*
X012340Y020410D01*
X012388Y020430D01*
X012495Y020536D01*
X012553Y020676D01*
X012553Y020827D01*
X012495Y020967D01*
X012403Y021059D01*
X012403Y022461D01*
X012497Y022422D01*
X012649Y022422D01*
X012788Y022480D01*
X012895Y022586D01*
X012953Y022726D01*
X012953Y022877D01*
X012935Y022922D01*
X013378Y022922D01*
X013568Y022922D01*
X013768Y023122D01*
X013903Y023256D01*
X013903Y026656D01*
X013903Y026847D01*
X013768Y026982D01*
X013453Y026982D01*
X013453Y027201D01*
X013332Y027322D01*
X015595Y027322D01*
X015651Y027186D01*
X015758Y027080D01*
X015897Y027022D01*
X016049Y027022D01*
X016188Y027080D01*
X016295Y027186D01*
X016353Y027326D01*
X016353Y027477D01*
X016295Y027617D01*
X016260Y027652D01*
X016295Y027686D01*
X016353Y027826D01*
X016353Y027977D01*
X016295Y028117D01*
X016188Y028224D01*
X016049Y028282D01*
X015918Y028282D01*
X015728Y028472D01*
X016228Y028472D01*
X016418Y028472D01*
X016618Y028672D01*
X016749Y028672D01*
X016888Y028730D01*
X016995Y028836D01*
X017053Y028976D01*
X017053Y029127D01*
X016995Y029267D01*
X016953Y029309D01*
X016953Y029497D01*
X016928Y029522D01*
X019028Y029522D01*
X019218Y029522D01*
X019450Y029754D01*
X019476Y029728D01*
X019871Y029728D01*
X019893Y029751D01*
X019893Y029197D01*
X017178Y026482D01*
X017047Y026482D01*
X016908Y026424D01*
X016801Y026317D01*
X016743Y026177D01*
X016743Y026026D01*
X016801Y025886D01*
X016908Y025780D01*
X017047Y025722D01*
X017199Y025722D01*
X017338Y025780D01*
X017445Y025886D01*
X017503Y026026D01*
X017503Y026156D01*
X020193Y028847D01*
X020193Y001982D01*
X019928Y001982D01*
X020018Y002072D01*
X020153Y002206D01*
X020153Y003156D01*
X020153Y003347D01*
X020018Y003482D01*
X019947Y003482D01*
X019947Y003699D01*
X019667Y003979D01*
X018725Y003979D01*
X018768Y004022D01*
X018783Y004022D01*
X018818Y004022D01*
X018821Y004025D01*
X019667Y004025D01*
X019947Y004304D01*
X019947Y004699D01*
X019667Y004979D01*
X018725Y004979D01*
X018768Y005022D01*
X018783Y005022D01*
X018818Y005022D01*
X018821Y005025D01*
X019667Y005025D01*
X019947Y005304D01*
X019947Y005699D01*
X019667Y005979D01*
X018679Y005979D01*
X018399Y005699D01*
X018399Y005520D01*
X018358Y005562D01*
X017638Y005562D01*
X017230Y005970D01*
X017253Y006026D01*
X017253Y006177D01*
X017195Y006317D01*
X017088Y006424D01*
X016949Y006482D01*
X016797Y006482D01*
X016658Y006424D01*
X016566Y006332D01*
X013680Y006332D01*
X013588Y006424D01*
X013449Y006482D01*
X013423Y006482D01*
X013538Y006530D01*
X013645Y006636D01*
X013703Y006776D01*
X013703Y006906D01*
X013768Y006972D01*
X016066Y006972D01*
X016158Y006880D01*
X016297Y006822D01*
X016449Y006822D01*
X016588Y006880D01*
X016695Y006986D01*
X016753Y007126D01*
X016753Y007277D01*
X016735Y007322D01*
X017678Y007322D01*
X017868Y007322D01*
X018399Y007853D01*
X018399Y007804D01*
X018679Y007525D01*
X019667Y007525D01*
X019947Y007804D01*
X019947Y008199D01*
X019796Y008350D01*
X020018Y008572D01*
X020153Y008706D01*
X020153Y009656D01*
X020153Y009847D01*
X020018Y009982D01*
X019947Y009982D01*
X019947Y010199D01*
X019667Y010479D01*
X018679Y010479D01*
X018399Y010199D01*
X018399Y009804D01*
X018679Y009525D01*
X019525Y009525D01*
X019528Y009522D01*
X019563Y009522D01*
X019693Y009522D01*
X019693Y009453D01*
X019667Y009479D01*
X018679Y009479D01*
X018432Y009232D01*
X014603Y009232D01*
X014603Y009506D01*
X014603Y009697D01*
X014578Y009722D01*
X017628Y009722D01*
X017818Y009722D01*
X018650Y010554D01*
X018679Y010525D01*
X019667Y010525D01*
X019947Y010804D01*
X019947Y011199D01*
X019667Y011479D01*
X018679Y011479D01*
X018399Y011199D01*
X018399Y010953D01*
X017628Y010182D01*
X013931Y010182D01*
X017967Y014122D01*
X017968Y014122D01*
X018103Y014256D01*
X018103Y015547D01*
X018193Y015456D01*
X018193Y013656D01*
X018328Y013522D01*
X018399Y013522D01*
X018399Y013304D01*
X018679Y013025D01*
X018821Y013025D01*
X016828Y011032D01*
X016697Y011032D01*
X016558Y010974D01*
X016451Y010867D01*
X016393Y010727D01*
X016393Y010576D01*
X016451Y010436D01*
X016558Y010330D01*
X016697Y010272D01*
X016849Y010272D01*
X016988Y010330D01*
X017095Y010436D01*
X017153Y010576D01*
X017153Y010706D01*
X018399Y011953D01*
X018399Y011804D01*
X018679Y011525D01*
X019155Y011525D01*
X019155Y011983D01*
X019191Y011983D01*
X019191Y011525D01*
X019667Y011525D01*
X019947Y011804D01*
X019947Y011983D01*
X019192Y011983D01*
X019192Y012020D01*
X019947Y012020D01*
X019947Y012199D01*
X019667Y012479D01*
X019191Y012479D01*
X019191Y012020D01*
X019155Y012020D01*
X019155Y012479D01*
X018925Y012479D01*
X019268Y012822D01*
X019578Y012822D01*
X019768Y012822D01*
X020018Y013072D01*
X020153Y013206D01*
X020153Y016956D01*
X020153Y017147D01*
X020018Y017282D01*
X019924Y017282D01*
X019947Y017304D01*
X019947Y017483D01*
X019192Y017483D01*
X019192Y017520D01*
X019947Y017520D01*
X019947Y017699D01*
X019802Y017844D01*
X019845Y017886D01*
X019903Y018026D01*
X019903Y018177D01*
X019845Y018317D01*
X019738Y018424D01*
X019599Y018482D01*
X019447Y018482D01*
X019308Y018424D01*
X019216Y018332D01*
X018918Y018332D01*
X018725Y018525D01*
X019667Y018525D01*
X019947Y018804D01*
X019947Y019199D01*
X019667Y019479D01*
X018821Y019479D01*
X018818Y019482D01*
X018783Y019482D01*
X018768Y019482D01*
X018725Y019525D01*
X019667Y019525D01*
X019947Y019804D01*
X019947Y020199D01*
X019667Y020479D01*
X018679Y020479D01*
X018463Y020263D01*
X018463Y020456D01*
X018418Y020502D01*
X018463Y020547D01*
X018463Y020622D01*
X018528Y020622D01*
X018582Y020622D01*
X018679Y020525D01*
X019667Y020525D01*
X019947Y020804D01*
X019947Y021199D01*
X019667Y021479D01*
X018679Y021479D01*
X018463Y021263D01*
X018463Y021456D01*
X018358Y021562D01*
X017409Y021562D01*
X017303Y021456D01*
X017303Y021382D01*
X016328Y021382D01*
X016193Y021247D01*
X016193Y021056D01*
X016193Y018556D01*
X016328Y018422D01*
X017928Y016822D01*
X018118Y016822D01*
X018522Y016822D01*
X018399Y016699D01*
X018399Y016304D01*
X018679Y016025D01*
X019667Y016025D01*
X019693Y016051D01*
X019693Y015953D01*
X019667Y015979D01*
X018679Y015979D01*
X018500Y015800D01*
X016043Y018257D01*
X016043Y018456D01*
X015998Y018502D01*
X016043Y018547D01*
X016043Y018956D01*
X015998Y019002D01*
X016043Y019047D01*
X016043Y019251D01*
X015463Y019251D01*
X014883Y019251D01*
X014883Y019047D01*
X014929Y019002D01*
X014883Y018956D01*
X014883Y018882D01*
X014778Y018882D01*
X014643Y018747D01*
X014643Y018556D01*
X014643Y017956D01*
X014778Y017822D01*
X016378Y016222D01*
X016568Y016222D01*
X016756Y016222D01*
X016651Y016117D01*
X016593Y015977D01*
X016593Y015847D01*
X013528Y012782D01*
X012956Y012782D01*
X013050Y012876D01*
X013050Y013458D01*
X013006Y013502D01*
X013050Y013545D01*
X013050Y013818D01*
X012692Y013818D01*
X012692Y013855D01*
X013050Y013855D01*
X013050Y014127D01*
X012944Y014233D01*
X012691Y014233D01*
X012691Y013855D01*
X012655Y013855D01*
X012655Y014233D01*
X012402Y014233D01*
X012296Y014127D01*
X012296Y013855D01*
X012654Y013855D01*
X012654Y013818D01*
X012296Y013818D01*
X012296Y013630D01*
X012246Y013751D01*
X012122Y013875D01*
X011961Y013942D01*
X011786Y013942D01*
X011624Y013875D01*
X011500Y013751D01*
X011433Y013589D01*
X011433Y013414D01*
X011500Y013252D01*
X011624Y013129D01*
X011786Y013062D01*
X011961Y013062D01*
X012105Y013122D01*
X012168Y013122D01*
X012296Y013122D01*
X012296Y012876D01*
X012391Y012782D01*
X012128Y012782D01*
X011993Y012647D01*
X011828Y012482D01*
X011697Y012482D01*
X011558Y012424D01*
X011451Y012317D01*
X011393Y012177D01*
X011393Y012026D01*
X011451Y011886D01*
X011558Y011780D01*
X011697Y011722D01*
X011849Y011722D01*
X011988Y011780D01*
X012095Y011886D01*
X012153Y012026D01*
X012153Y012156D01*
X012318Y012322D01*
X012914Y012322D01*
X010330Y009832D01*
X010178Y009832D01*
X009978Y009632D01*
X009978Y009632D01*
X009843Y009497D01*
X009843Y009280D01*
X009708Y009224D01*
X009653Y009169D01*
X009653Y010494D01*
X009745Y010586D01*
X009803Y010726D01*
X009803Y010877D01*
X009745Y011017D01*
X009638Y011124D01*
X009499Y011182D01*
X009347Y011182D01*
X009208Y011124D01*
X009101Y011017D01*
X009043Y010877D01*
X009043Y010726D01*
X009101Y010586D01*
X009193Y010494D01*
X009193Y008647D01*
X009193Y008456D01*
X009328Y008322D01*
X010028Y008322D01*
X010192Y008322D01*
X010192Y008080D01*
X010297Y007975D01*
X010570Y007975D01*
X010570Y008333D01*
X010607Y008333D01*
X010607Y007975D01*
X010879Y007975D01*
X010923Y008018D01*
X010967Y007975D01*
X011549Y007975D01*
X011654Y008080D01*
X011654Y008358D01*
X011668Y008372D01*
X011799Y008372D01*
X011938Y008430D01*
X012045Y008536D01*
X012101Y008672D01*
X012578Y008672D01*
X012768Y008672D01*
X012802Y008705D01*
X013110Y008705D01*
X013173Y008768D01*
X013236Y008705D01*
X013293Y008705D01*
X013293Y008479D01*
X013217Y008479D01*
X013173Y008435D01*
X013129Y008479D01*
X012857Y008479D01*
X012857Y008120D01*
X012820Y008120D01*
X012820Y008083D01*
X012442Y008083D01*
X012442Y007830D01*
X012491Y007782D01*
X011678Y007782D01*
X011543Y007647D01*
X011128Y007232D01*
X010997Y007232D01*
X010858Y007174D01*
X010751Y007067D01*
X010693Y006927D01*
X010693Y006776D01*
X010751Y006636D01*
X010858Y006530D01*
X010997Y006472D01*
X011149Y006472D01*
X011288Y006530D01*
X011395Y006636D01*
X011453Y006776D01*
X011453Y006906D01*
X011868Y007322D01*
X013468Y007322D01*
X013443Y007297D01*
X013378Y007232D01*
X013247Y007232D01*
X013108Y007174D01*
X013001Y007067D01*
X012943Y006927D01*
X012943Y006776D01*
X013001Y006636D01*
X013108Y006530D01*
X013247Y006472D01*
X013273Y006472D01*
X013158Y006424D01*
X013051Y006317D01*
X012993Y006177D01*
X012993Y006026D01*
X013011Y005982D01*
X012668Y005982D01*
X012553Y006097D01*
X012553Y006227D01*
X012495Y006367D01*
X012388Y006474D01*
X012249Y006532D01*
X012097Y006532D01*
X011958Y006474D01*
X011851Y006367D01*
X011793Y006227D01*
X011793Y006076D01*
X011851Y005936D01*
X011958Y005830D01*
X012097Y005772D01*
X012228Y005772D01*
X012343Y005656D01*
X012418Y005582D01*
X010235Y005582D01*
X010253Y005626D01*
X010253Y005777D01*
X010195Y005917D01*
X010088Y006024D01*
X009949Y006082D01*
X009818Y006082D01*
X009618Y006282D01*
X009428Y006282D01*
X009128Y006282D01*
X008993Y006147D01*
X008828Y005982D01*
X003018Y005982D01*
X002953Y006099D02*
X008946Y006099D01*
X009104Y006258D02*
X002953Y006258D01*
X002953Y006417D02*
X011901Y006417D01*
X011806Y006258D02*
X009642Y006258D01*
X009801Y006099D02*
X011793Y006099D01*
X011849Y005941D02*
X010171Y005941D01*
X010251Y005782D02*
X012072Y005782D01*
X012376Y005624D02*
X010252Y005624D01*
X009732Y004831D02*
X009614Y004831D01*
X009653Y004990D02*
X009693Y004990D01*
X009757Y004673D02*
X009471Y004673D01*
X009693Y003282D02*
X009693Y002522D01*
X010153Y002522D01*
X010153Y003001D01*
X009872Y003282D01*
X009693Y003282D01*
X009693Y003246D02*
X009653Y003246D01*
X009653Y003087D02*
X009693Y003087D01*
X009693Y002929D02*
X009653Y002929D01*
X009653Y002770D02*
X009693Y002770D01*
X009693Y002612D02*
X009653Y002612D01*
X009280Y003087D02*
X009066Y003087D01*
X009153Y002929D02*
X009193Y002929D01*
X009193Y002770D02*
X009153Y002770D01*
X009153Y002612D02*
X009193Y002612D01*
X009193Y002453D02*
X009153Y002453D01*
X009153Y002294D02*
X009193Y002294D01*
X009193Y002136D02*
X009153Y002136D01*
X008280Y003087D02*
X008066Y003087D01*
X008153Y002929D02*
X008193Y002929D01*
X008193Y002770D02*
X008153Y002770D01*
X008153Y002612D02*
X008193Y002612D01*
X008193Y002453D02*
X008153Y002453D01*
X008153Y002294D02*
X008193Y002294D01*
X008193Y002136D02*
X008153Y002136D01*
X007908Y003246D02*
X008438Y003246D01*
X008908Y003246D02*
X009438Y003246D01*
X009908Y003246D02*
X010954Y003246D01*
X011112Y003087D02*
X010066Y003087D01*
X010153Y002929D02*
X012294Y002929D01*
X012296Y002770D02*
X010153Y002770D01*
X010153Y002612D02*
X012376Y002612D01*
X012970Y002612D02*
X013049Y002612D01*
X012993Y002453D02*
X010153Y002453D01*
X010153Y002294D02*
X013006Y002294D01*
X013101Y002136D02*
X010153Y002136D01*
X012553Y006099D02*
X012993Y006099D01*
X013027Y006258D02*
X012540Y006258D01*
X012446Y006417D02*
X013151Y006417D01*
X013062Y006575D02*
X011334Y006575D01*
X011435Y006734D02*
X012961Y006734D01*
X012943Y006892D02*
X011453Y006892D01*
X011597Y007051D02*
X012994Y007051D01*
X013193Y007209D02*
X011756Y007209D01*
X011581Y007685D02*
X004309Y007685D01*
X004353Y007526D02*
X011423Y007526D01*
X011264Y007368D02*
X004329Y007368D01*
X004218Y007209D02*
X010943Y007209D01*
X010744Y007051D02*
X002953Y007051D01*
X002953Y007209D02*
X003728Y007209D01*
X003617Y007368D02*
X002953Y007368D01*
X002953Y007526D02*
X003593Y007526D01*
X003638Y007685D02*
X002953Y007685D01*
X002953Y007843D02*
X003743Y007843D01*
X003743Y008002D02*
X002953Y008002D01*
X002953Y008161D02*
X003804Y008161D01*
X004203Y007843D02*
X012442Y007843D01*
X012442Y008002D02*
X011576Y008002D01*
X011654Y008161D02*
X012442Y008161D01*
X012442Y008120D02*
X012820Y008120D01*
X012820Y008479D01*
X012547Y008479D01*
X012442Y008373D01*
X012442Y008120D01*
X012442Y008319D02*
X011654Y008319D01*
X011986Y008478D02*
X012546Y008478D01*
X012820Y008478D02*
X012857Y008478D01*
X012857Y008319D02*
X012820Y008319D01*
X012820Y008161D02*
X012857Y008161D01*
X013130Y008478D02*
X013216Y008478D01*
X013293Y008636D02*
X012086Y008636D01*
X010939Y008002D02*
X010907Y008002D01*
X010607Y008002D02*
X010570Y008002D01*
X010570Y008161D02*
X010607Y008161D01*
X010607Y008319D02*
X010570Y008319D01*
X010270Y008002D02*
X004308Y008002D01*
X004476Y008161D02*
X010192Y008161D01*
X010192Y008319D02*
X004644Y008319D01*
X004812Y008478D02*
X009193Y008478D01*
X009193Y008636D02*
X004980Y008636D01*
X005148Y008795D02*
X009193Y008795D01*
X009193Y008953D02*
X005315Y008953D01*
X005483Y009112D02*
X009193Y009112D01*
X009193Y009270D02*
X005651Y009270D01*
X005819Y009429D02*
X006858Y009429D01*
X007388Y009429D02*
X009193Y009429D01*
X009193Y009587D02*
X007487Y009587D01*
X007503Y009746D02*
X009193Y009746D01*
X009193Y009905D02*
X007450Y009905D01*
X007244Y010063D02*
X009193Y010063D01*
X009193Y010222D02*
X004230Y010222D01*
X004188Y010180D02*
X004295Y010286D01*
X004353Y010426D01*
X004353Y010556D01*
X004568Y010772D01*
X007318Y010772D01*
X007453Y010906D01*
X008668Y012122D01*
X008799Y012122D01*
X008938Y012180D01*
X009045Y012286D01*
X009103Y012426D01*
X009103Y012577D01*
X009045Y012717D01*
X008992Y012771D01*
X009444Y012771D01*
X009550Y012876D01*
X009550Y013122D01*
X009678Y013122D01*
X009741Y013122D01*
X009886Y013062D01*
X010061Y013062D01*
X010222Y013129D01*
X010346Y013252D01*
X010413Y013414D01*
X010413Y013589D01*
X010346Y013751D01*
X010222Y013875D01*
X010061Y013942D01*
X009886Y013942D01*
X009724Y013875D01*
X009600Y013751D01*
X009550Y013630D01*
X009550Y013818D01*
X009192Y013818D01*
X009192Y013855D01*
X009550Y013855D01*
X009550Y014127D01*
X009444Y014233D01*
X009191Y014233D01*
X009191Y013855D01*
X009155Y013855D01*
X009155Y014233D01*
X008902Y014233D01*
X008796Y014127D01*
X008796Y013855D01*
X009154Y013855D01*
X009154Y013818D01*
X008796Y013818D01*
X008796Y013545D01*
X008840Y013502D01*
X008796Y013458D01*
X008796Y012882D01*
X008647Y012882D01*
X008508Y012824D01*
X008401Y012717D01*
X008343Y012577D01*
X008343Y012447D01*
X007128Y011232D01*
X006140Y011232D01*
X006180Y011272D01*
X006418Y011272D01*
X006553Y011406D01*
X006553Y011406D01*
X006818Y011672D01*
X006949Y011672D01*
X007088Y011730D01*
X007195Y011836D01*
X007253Y011976D01*
X007253Y012127D01*
X007195Y012267D01*
X007088Y012374D01*
X007040Y012394D01*
X007568Y012922D01*
X007699Y012922D01*
X007838Y012980D01*
X007945Y013086D01*
X008003Y013226D01*
X008003Y013377D01*
X007945Y013517D01*
X007838Y013624D01*
X007699Y013682D01*
X007547Y013682D01*
X007408Y013624D01*
X007301Y013517D01*
X007248Y013389D01*
X007195Y013517D01*
X007088Y013624D01*
X006949Y013682D01*
X006797Y013682D01*
X006658Y013624D01*
X006551Y013517D01*
X006493Y013377D01*
X006493Y013247D01*
X006075Y012829D01*
X005949Y012882D01*
X005797Y012882D01*
X005658Y012824D01*
X005551Y012717D01*
X005493Y012577D01*
X005493Y012426D01*
X005551Y012286D01*
X005606Y012232D01*
X004378Y012232D01*
X004243Y012097D01*
X004028Y011882D01*
X003897Y011882D01*
X003758Y011824D01*
X003651Y011717D01*
X003593Y011577D01*
X003593Y011426D01*
X003651Y011286D01*
X003758Y011180D01*
X003897Y011122D01*
X004049Y011122D01*
X004188Y011180D01*
X004295Y011286D01*
X004353Y011426D01*
X004353Y011556D01*
X004568Y011772D01*
X005606Y011772D01*
X005551Y011717D01*
X005493Y011577D01*
X005493Y011426D01*
X005551Y011286D01*
X005606Y011232D01*
X004378Y011232D01*
X004243Y011097D01*
X004028Y010882D01*
X003897Y010882D01*
X003758Y010824D01*
X003651Y010717D01*
X003593Y010577D01*
X003593Y010426D01*
X003651Y010286D01*
X003758Y010180D01*
X003897Y010122D01*
X004049Y010122D01*
X004188Y010180D01*
X004334Y010380D02*
X009193Y010380D01*
X009149Y010539D02*
X004353Y010539D01*
X004494Y010697D02*
X009055Y010697D01*
X009043Y010856D02*
X007402Y010856D01*
X007561Y011014D02*
X009100Y011014D01*
X009326Y011173D02*
X007719Y011173D01*
X007878Y011331D02*
X011887Y011331D01*
X011722Y011173D02*
X009520Y011173D01*
X009746Y011014D02*
X011558Y011014D01*
X011393Y010856D02*
X009803Y010856D01*
X009791Y010697D02*
X011229Y010697D01*
X011064Y010539D02*
X009697Y010539D01*
X009653Y010380D02*
X010899Y010380D01*
X010735Y010222D02*
X009653Y010222D01*
X009653Y010063D02*
X010570Y010063D01*
X010406Y009905D02*
X009653Y009905D01*
X009653Y009746D02*
X010092Y009746D01*
X009934Y009587D02*
X009653Y009587D01*
X009653Y009429D02*
X009843Y009429D01*
X009820Y009270D02*
X009653Y009270D01*
X008037Y011490D02*
X012051Y011490D01*
X012216Y011649D02*
X008195Y011649D01*
X008354Y011807D02*
X011530Y011807D01*
X011418Y011966D02*
X008512Y011966D01*
X008804Y012124D02*
X011393Y012124D01*
X011437Y012283D02*
X009041Y012283D01*
X009103Y012441D02*
X011600Y012441D01*
X011946Y012600D02*
X009094Y012600D01*
X009004Y012758D02*
X012104Y012758D01*
X012296Y012917D02*
X009550Y012917D01*
X009550Y013075D02*
X009853Y013075D01*
X010094Y013075D02*
X011753Y013075D01*
X011994Y013075D02*
X012296Y013075D01*
X012263Y013710D02*
X012296Y013710D01*
X012296Y013868D02*
X012129Y013868D01*
X012296Y014027D02*
X009550Y014027D01*
X009550Y013868D02*
X009717Y013868D01*
X009583Y013710D02*
X009550Y013710D01*
X009492Y014185D02*
X012354Y014185D01*
X012655Y014185D02*
X012691Y014185D01*
X012691Y014027D02*
X012655Y014027D01*
X012655Y013868D02*
X012691Y013868D01*
X013050Y013868D02*
X014614Y013868D01*
X014456Y013710D02*
X013050Y013710D01*
X013050Y013551D02*
X014297Y013551D01*
X014139Y013392D02*
X013050Y013392D01*
X013050Y013234D02*
X013980Y013234D01*
X013821Y013075D02*
X013050Y013075D01*
X013050Y012917D02*
X013663Y012917D01*
X013996Y012600D02*
X014070Y012600D01*
X014008Y012574D02*
X013916Y012482D01*
X013878Y012482D01*
X016918Y015522D01*
X017049Y015522D01*
X017188Y015580D01*
X017295Y015686D01*
X017353Y015826D01*
X017353Y015977D01*
X017339Y016010D01*
X017643Y015706D01*
X017643Y014449D01*
X014803Y011676D01*
X014803Y011777D01*
X014745Y011917D01*
X014638Y012024D01*
X014554Y012059D01*
X014603Y012176D01*
X014603Y012327D01*
X014545Y012467D01*
X014438Y012574D01*
X014299Y012632D01*
X014147Y012632D01*
X014008Y012574D01*
X014155Y012758D02*
X015912Y012758D01*
X016074Y012917D02*
X014313Y012917D01*
X014472Y013075D02*
X016236Y013075D01*
X016399Y013234D02*
X014630Y013234D01*
X014789Y013392D02*
X016561Y013392D01*
X016724Y013551D02*
X014948Y013551D01*
X015106Y013710D02*
X016886Y013710D01*
X017048Y013868D02*
X015265Y013868D01*
X015423Y014027D02*
X017211Y014027D01*
X017373Y014185D02*
X015582Y014185D01*
X015740Y014344D02*
X017536Y014344D01*
X017643Y014502D02*
X015899Y014502D01*
X016057Y014661D02*
X017643Y014661D01*
X017643Y014819D02*
X016216Y014819D01*
X016374Y014978D02*
X017643Y014978D01*
X017643Y015136D02*
X016533Y015136D01*
X016692Y015295D02*
X017643Y015295D01*
X017643Y015454D02*
X016850Y015454D01*
X017221Y015612D02*
X017643Y015612D01*
X017579Y015771D02*
X017330Y015771D01*
X017353Y015929D02*
X017420Y015929D01*
X017895Y016405D02*
X018399Y016405D01*
X018399Y016563D02*
X017737Y016563D01*
X017578Y016722D02*
X018422Y016722D01*
X018457Y016246D02*
X018054Y016246D01*
X018212Y016088D02*
X018616Y016088D01*
X018629Y015929D02*
X018371Y015929D01*
X018193Y015454D02*
X018103Y015454D01*
X018103Y015295D02*
X018193Y015295D01*
X018193Y015136D02*
X018103Y015136D01*
X018103Y014978D02*
X018193Y014978D01*
X018193Y014819D02*
X018103Y014819D01*
X018103Y014661D02*
X018193Y014661D01*
X018193Y014502D02*
X018103Y014502D01*
X018103Y014344D02*
X018193Y014344D01*
X018193Y014185D02*
X018032Y014185D01*
X018193Y014027D02*
X017869Y014027D01*
X017707Y013868D02*
X018193Y013868D01*
X018193Y013710D02*
X017544Y013710D01*
X017382Y013551D02*
X018299Y013551D01*
X018399Y013392D02*
X017220Y013392D01*
X017057Y013234D02*
X018470Y013234D01*
X018628Y013075D02*
X016895Y013075D01*
X016732Y012917D02*
X018713Y012917D01*
X018554Y012758D02*
X016570Y012758D01*
X016408Y012600D02*
X018396Y012600D01*
X018237Y012441D02*
X016245Y012441D01*
X016083Y012283D02*
X018079Y012283D01*
X017920Y012124D02*
X015920Y012124D01*
X015758Y011966D02*
X017762Y011966D01*
X017603Y011807D02*
X015595Y011807D01*
X015433Y011649D02*
X017445Y011649D01*
X017286Y011490D02*
X015271Y011490D01*
X015108Y011331D02*
X017128Y011331D01*
X016969Y011173D02*
X014946Y011173D01*
X014783Y011014D02*
X016656Y011014D01*
X016446Y010856D02*
X014621Y010856D01*
X014459Y010697D02*
X016393Y010697D01*
X016409Y010539D02*
X014296Y010539D01*
X014134Y010380D02*
X016507Y010380D01*
X017039Y010380D02*
X017826Y010380D01*
X017668Y010222D02*
X013971Y010222D01*
X014603Y009587D02*
X018616Y009587D01*
X018629Y009429D02*
X014603Y009429D01*
X014603Y009270D02*
X018471Y009270D01*
X018458Y009746D02*
X017843Y009746D01*
X018001Y009905D02*
X018399Y009905D01*
X018399Y010063D02*
X018160Y010063D01*
X018318Y010222D02*
X018422Y010222D01*
X018477Y010380D02*
X018580Y010380D01*
X018635Y010539D02*
X018665Y010539D01*
X018302Y010856D02*
X017302Y010856D01*
X017153Y010697D02*
X018143Y010697D01*
X017985Y010539D02*
X017138Y010539D01*
X017461Y011014D02*
X018399Y011014D01*
X018399Y011173D02*
X017619Y011173D01*
X017778Y011331D02*
X018532Y011331D01*
X018555Y011649D02*
X018095Y011649D01*
X018254Y011807D02*
X018399Y011807D01*
X017936Y011490D02*
X020193Y011490D01*
X020193Y011649D02*
X019791Y011649D01*
X019947Y011807D02*
X020193Y011807D01*
X020193Y011966D02*
X019947Y011966D01*
X019947Y012124D02*
X020193Y012124D01*
X020193Y012283D02*
X019863Y012283D01*
X019705Y012441D02*
X020193Y012441D01*
X020193Y012600D02*
X019046Y012600D01*
X019155Y012441D02*
X019191Y012441D01*
X019191Y012283D02*
X019155Y012283D01*
X019155Y012124D02*
X019191Y012124D01*
X019191Y011966D02*
X019155Y011966D01*
X019155Y011807D02*
X019191Y011807D01*
X019191Y011649D02*
X019155Y011649D01*
X019815Y011331D02*
X020193Y011331D01*
X020193Y011173D02*
X019947Y011173D01*
X019947Y011014D02*
X020193Y011014D01*
X020193Y010856D02*
X019947Y010856D01*
X019840Y010697D02*
X020193Y010697D01*
X020193Y010539D02*
X019681Y010539D01*
X019766Y010380D02*
X020193Y010380D01*
X020193Y010222D02*
X019924Y010222D01*
X019947Y010063D02*
X020193Y010063D01*
X020193Y009905D02*
X020095Y009905D01*
X020153Y009746D02*
X020193Y009746D01*
X020193Y009587D02*
X020153Y009587D01*
X020153Y009429D02*
X020193Y009429D01*
X020193Y009270D02*
X020153Y009270D01*
X020153Y009112D02*
X020193Y009112D01*
X020193Y008953D02*
X020153Y008953D01*
X020153Y008795D02*
X020193Y008795D01*
X020193Y008636D02*
X020083Y008636D01*
X020193Y008478D02*
X019924Y008478D01*
X019827Y008319D02*
X020193Y008319D01*
X020193Y008161D02*
X019947Y008161D01*
X019947Y008002D02*
X020193Y008002D01*
X020193Y007843D02*
X019947Y007843D01*
X019827Y007685D02*
X020193Y007685D01*
X020193Y007526D02*
X019669Y007526D01*
X019667Y006979D02*
X019191Y006979D01*
X019191Y006520D01*
X019155Y006520D01*
X019155Y006979D01*
X018679Y006979D01*
X018399Y006699D01*
X018399Y006520D01*
X019154Y006520D01*
X019154Y006483D01*
X018399Y006483D01*
X018399Y006304D01*
X018679Y006025D01*
X019155Y006025D01*
X019155Y006483D01*
X019191Y006483D01*
X019191Y006025D01*
X019667Y006025D01*
X019947Y006304D01*
X019947Y006483D01*
X019192Y006483D01*
X019192Y006520D01*
X019947Y006520D01*
X019947Y006699D01*
X019667Y006979D01*
X019754Y006892D02*
X020193Y006892D01*
X020193Y006734D02*
X019912Y006734D01*
X019947Y006575D02*
X020193Y006575D01*
X020193Y006417D02*
X019947Y006417D01*
X019901Y006258D02*
X020193Y006258D01*
X020193Y006099D02*
X019742Y006099D01*
X019705Y005941D02*
X020193Y005941D01*
X020193Y005782D02*
X019864Y005782D01*
X019947Y005624D02*
X020193Y005624D01*
X020193Y005465D02*
X019947Y005465D01*
X019947Y005307D02*
X020193Y005307D01*
X020193Y005148D02*
X019791Y005148D01*
X019815Y004831D02*
X020193Y004831D01*
X020193Y004673D02*
X019947Y004673D01*
X019947Y004514D02*
X020193Y004514D01*
X020193Y004356D02*
X019947Y004356D01*
X019839Y004197D02*
X020193Y004197D01*
X020193Y004038D02*
X019681Y004038D01*
X019766Y003880D02*
X020193Y003880D01*
X020193Y003721D02*
X019925Y003721D01*
X019947Y003563D02*
X020193Y003563D01*
X020193Y003404D02*
X020096Y003404D01*
X020153Y003246D02*
X020193Y003246D01*
X020193Y003087D02*
X020153Y003087D01*
X020153Y002929D02*
X020193Y002929D01*
X020193Y002770D02*
X020153Y002770D01*
X020153Y002612D02*
X020193Y002612D01*
X020193Y002453D02*
X020153Y002453D01*
X020153Y002294D02*
X020193Y002294D01*
X020193Y002136D02*
X020082Y002136D01*
X020193Y004990D02*
X018736Y004990D01*
X018399Y005624D02*
X017576Y005624D01*
X017418Y005782D02*
X018483Y005782D01*
X018641Y005941D02*
X017259Y005941D01*
X017253Y006099D02*
X018604Y006099D01*
X018446Y006258D02*
X017220Y006258D01*
X017096Y006417D02*
X018399Y006417D01*
X018399Y006575D02*
X013584Y006575D01*
X013596Y006417D02*
X016651Y006417D01*
X016601Y006892D02*
X018592Y006892D01*
X018434Y006734D02*
X013685Y006734D01*
X013703Y006892D02*
X016145Y006892D01*
X016722Y007051D02*
X020193Y007051D01*
X020193Y007209D02*
X016753Y007209D01*
X017914Y007368D02*
X020193Y007368D01*
X019191Y006892D02*
X019155Y006892D01*
X019155Y006734D02*
X019191Y006734D01*
X019191Y006575D02*
X019155Y006575D01*
X019155Y006417D02*
X019191Y006417D01*
X019191Y006258D02*
X019155Y006258D01*
X019155Y006099D02*
X019191Y006099D01*
X018677Y007526D02*
X018073Y007526D01*
X018231Y007685D02*
X018519Y007685D01*
X018399Y007843D02*
X018390Y007843D01*
X017028Y005522D02*
X017303Y005246D01*
X017303Y005047D01*
X017349Y005002D01*
X017303Y004956D01*
X017303Y004847D01*
X017253Y004897D01*
X017253Y005027D01*
X017195Y005167D01*
X017088Y005274D01*
X016949Y005332D01*
X016797Y005332D01*
X016658Y005274D01*
X016551Y005167D01*
X016493Y005027D01*
X016493Y004876D01*
X016551Y004736D01*
X016658Y004630D01*
X016797Y004572D01*
X016928Y004572D01*
X017243Y004256D01*
X017303Y004196D01*
X017303Y004047D01*
X017349Y004002D01*
X017340Y003994D01*
X017249Y004032D01*
X017097Y004032D01*
X016958Y003974D01*
X016851Y003867D01*
X016793Y003727D01*
X016793Y003597D01*
X016043Y002847D01*
X016043Y002956D01*
X015998Y003002D01*
X016043Y003047D01*
X016043Y003456D01*
X015998Y003502D01*
X016043Y003547D01*
X016043Y003956D01*
X015998Y004002D01*
X016043Y004047D01*
X016043Y004456D01*
X015998Y004502D01*
X016043Y004547D01*
X016043Y004956D01*
X015998Y005002D01*
X016043Y005047D01*
X016043Y005251D01*
X015463Y005251D01*
X014883Y005251D01*
X014883Y005047D01*
X014929Y005002D01*
X014883Y004956D01*
X014883Y004887D01*
X014843Y004847D01*
X014728Y004732D01*
X014435Y004732D01*
X014453Y004776D01*
X014453Y004927D01*
X014395Y005067D01*
X014288Y005174D01*
X014149Y005232D01*
X014018Y005232D01*
X013728Y005522D01*
X014949Y005522D01*
X014883Y005456D01*
X014883Y005252D01*
X015463Y005252D01*
X015463Y005251D01*
X015463Y005252D01*
X016043Y005252D01*
X016043Y005456D01*
X015978Y005522D01*
X017028Y005522D01*
X017084Y005465D02*
X016034Y005465D01*
X016043Y005307D02*
X016737Y005307D01*
X016543Y005148D02*
X016043Y005148D01*
X016010Y004990D02*
X016493Y004990D01*
X016512Y004831D02*
X016043Y004831D01*
X016043Y004673D02*
X016615Y004673D01*
X016985Y004514D02*
X016010Y004514D01*
X016043Y004356D02*
X017144Y004356D01*
X017303Y004197D02*
X016043Y004197D01*
X016034Y004038D02*
X017312Y004038D01*
X016864Y003880D02*
X016043Y003880D01*
X016043Y003721D02*
X016793Y003721D01*
X016759Y003563D02*
X016043Y003563D01*
X016043Y003404D02*
X016600Y003404D01*
X016442Y003246D02*
X016043Y003246D01*
X016043Y003087D02*
X016283Y003087D01*
X016125Y002929D02*
X016043Y002929D01*
X014843Y004847D02*
X014843Y004847D01*
X014827Y004831D02*
X014453Y004831D01*
X014427Y004990D02*
X014917Y004990D01*
X014883Y005148D02*
X014314Y005148D01*
X013943Y005307D02*
X014883Y005307D01*
X014892Y005465D02*
X013785Y005465D01*
X010812Y006575D02*
X002953Y006575D01*
X002953Y006734D02*
X010711Y006734D01*
X010693Y006892D02*
X002953Y006892D01*
X003203Y008795D02*
X003729Y008795D01*
X004217Y008795D02*
X004478Y008795D01*
X004646Y008953D02*
X003203Y008953D01*
X003203Y009112D02*
X004814Y009112D01*
X004981Y009270D02*
X003203Y009270D01*
X003203Y009429D02*
X005149Y009429D01*
X005317Y009587D02*
X003203Y009587D01*
X003203Y009746D02*
X005485Y009746D01*
X005651Y009905D02*
X003203Y009905D01*
X003203Y010063D02*
X007002Y010063D01*
X007228Y011331D02*
X006478Y011331D01*
X006636Y011490D02*
X007386Y011490D01*
X007545Y011649D02*
X006795Y011649D01*
X007166Y011807D02*
X007703Y011807D01*
X007862Y011966D02*
X007249Y011966D01*
X007253Y012124D02*
X008020Y012124D01*
X008179Y012283D02*
X007179Y012283D01*
X007088Y012441D02*
X008337Y012441D01*
X008352Y012600D02*
X007246Y012600D01*
X007405Y012758D02*
X008442Y012758D01*
X008796Y012917D02*
X007563Y012917D01*
X007934Y013075D02*
X008796Y013075D01*
X008796Y013234D02*
X008003Y013234D01*
X007997Y013392D02*
X008796Y013392D01*
X008796Y013551D02*
X007911Y013551D01*
X007335Y013551D02*
X007161Y013551D01*
X007247Y013392D02*
X007249Y013392D01*
X006585Y013551D02*
X003203Y013551D01*
X003203Y013392D02*
X006499Y013392D01*
X006480Y013234D02*
X003203Y013234D01*
X003203Y013075D02*
X006322Y013075D01*
X006163Y012917D02*
X003203Y012917D01*
X003203Y012758D02*
X005592Y012758D01*
X005502Y012600D02*
X003203Y012600D01*
X003203Y012441D02*
X005493Y012441D01*
X005555Y012283D02*
X003203Y012283D01*
X003203Y012124D02*
X004270Y012124D01*
X004112Y011966D02*
X003203Y011966D01*
X003203Y011807D02*
X003741Y011807D01*
X003623Y011649D02*
X003203Y011649D01*
X003203Y011490D02*
X003593Y011490D01*
X003632Y011331D02*
X003203Y011331D01*
X003203Y011173D02*
X003774Y011173D01*
X003835Y010856D02*
X003203Y010856D01*
X003203Y011014D02*
X004160Y011014D01*
X004172Y011173D02*
X004319Y011173D01*
X004314Y011331D02*
X005532Y011331D01*
X005493Y011490D02*
X004353Y011490D01*
X004445Y011649D02*
X005523Y011649D01*
X003716Y010222D02*
X003203Y010222D01*
X003203Y010380D02*
X003612Y010380D01*
X003593Y010539D02*
X003203Y010539D01*
X003203Y010697D02*
X003643Y010697D01*
X003203Y013710D02*
X008796Y013710D01*
X008796Y013868D02*
X003203Y013868D01*
X003203Y014027D02*
X008796Y014027D01*
X008854Y014185D02*
X004094Y014185D01*
X004219Y014344D02*
X015090Y014344D01*
X015248Y014502D02*
X004253Y014502D01*
X004218Y014661D02*
X006903Y014661D01*
X007243Y014661D02*
X015407Y014661D01*
X015565Y014819D02*
X007409Y014819D01*
X007453Y014978D02*
X015724Y014978D01*
X015883Y015136D02*
X007429Y015136D01*
X007317Y015295D02*
X016041Y015295D01*
X016200Y015454D02*
X010312Y015454D01*
X010426Y015612D02*
X016358Y015612D01*
X016517Y015771D02*
X010453Y015771D01*
X010411Y015929D02*
X016593Y015929D01*
X016639Y016088D02*
X013687Y016088D01*
X013459Y016088D02*
X010255Y016088D01*
X010489Y016246D02*
X010526Y016246D01*
X010526Y016405D02*
X010489Y016405D01*
X010526Y016520D02*
X010904Y016520D01*
X010904Y016773D01*
X010799Y016879D01*
X010526Y016879D01*
X010526Y016520D01*
X010526Y016563D02*
X010489Y016563D01*
X010489Y016722D02*
X010526Y016722D01*
X010484Y016880D02*
X011919Y016880D01*
X012078Y016722D02*
X010904Y016722D01*
X010904Y016563D02*
X012236Y016563D01*
X012395Y016405D02*
X010904Y016405D01*
X010904Y016246D02*
X012553Y016246D01*
X011761Y017039D02*
X010503Y017039D01*
X010453Y017198D02*
X011602Y017198D01*
X011493Y017356D02*
X010261Y017356D01*
X009986Y017356D02*
X009945Y017356D01*
X009953Y017515D02*
X011493Y017515D01*
X011493Y017673D02*
X010620Y017673D01*
X010778Y017832D02*
X011493Y017832D01*
X011493Y017990D02*
X010853Y017990D01*
X010853Y018149D02*
X011493Y018149D01*
X011493Y018307D02*
X010853Y018307D01*
X010853Y018466D02*
X011493Y018466D01*
X011375Y018624D02*
X010853Y018624D01*
X010853Y018783D02*
X011217Y018783D01*
X011058Y018941D02*
X010853Y018941D01*
X010853Y019100D02*
X010899Y019100D01*
X012382Y020368D02*
X012893Y020368D01*
X012900Y020210D02*
X012540Y020210D01*
X012699Y020051D02*
X012985Y020051D01*
X012870Y019893D02*
X012857Y019893D01*
X012961Y020527D02*
X012486Y020527D01*
X012553Y020685D02*
X013243Y020685D01*
X013243Y020844D02*
X012546Y020844D01*
X012460Y021003D02*
X013243Y021003D01*
X013243Y021161D02*
X012403Y021161D01*
X012403Y021320D02*
X013266Y021320D01*
X013424Y021478D02*
X012403Y021478D01*
X012403Y021637D02*
X013583Y021637D01*
X013741Y021795D02*
X012403Y021795D01*
X012403Y021954D02*
X013793Y021954D01*
X013690Y022112D02*
X012403Y022112D01*
X012403Y022271D02*
X013643Y022271D01*
X013665Y022429D02*
X012667Y022429D01*
X012479Y022429D02*
X012403Y022429D01*
X012896Y022588D02*
X013772Y022588D01*
X013710Y023064D02*
X018399Y023064D01*
X018399Y023020D02*
X019154Y023020D01*
X019154Y022983D01*
X018399Y022983D01*
X018399Y022804D01*
X018679Y022525D01*
X019155Y022525D01*
X019155Y022983D01*
X019191Y022983D01*
X019191Y022525D01*
X019667Y022525D01*
X019947Y022804D01*
X019947Y022983D01*
X019192Y022983D01*
X019192Y023020D01*
X019947Y023020D01*
X019947Y023199D01*
X019667Y023479D01*
X019191Y023479D01*
X019191Y023020D01*
X019155Y023020D01*
X019155Y023479D01*
X018679Y023479D01*
X018399Y023199D01*
X018399Y023020D01*
X018399Y022905D02*
X012942Y022905D01*
X012953Y022747D02*
X018457Y022747D01*
X018616Y022588D02*
X014274Y022588D01*
X014381Y022429D02*
X018630Y022429D01*
X018679Y022479D02*
X018399Y022199D01*
X018399Y021804D01*
X018679Y021525D01*
X019667Y021525D01*
X019947Y021804D01*
X019947Y022199D01*
X019667Y022479D01*
X018679Y022479D01*
X018471Y022271D02*
X014741Y022271D01*
X014868Y022112D02*
X018399Y022112D01*
X018399Y021954D02*
X014903Y021954D01*
X014870Y021795D02*
X018408Y021795D01*
X018567Y021637D02*
X014753Y021637D01*
X014753Y021478D02*
X014905Y021478D01*
X014883Y021456D02*
X014883Y021252D01*
X015463Y021252D01*
X015463Y021562D01*
X014989Y021562D01*
X014883Y021456D01*
X014883Y021320D02*
X014753Y021320D01*
X014883Y021251D02*
X014883Y021047D01*
X014929Y021002D01*
X014883Y020956D01*
X014883Y020547D01*
X014929Y020502D01*
X014883Y020456D01*
X014883Y020252D01*
X015463Y020252D01*
X015463Y020251D01*
X014883Y020251D01*
X014883Y020047D01*
X014929Y020002D01*
X014883Y019956D01*
X014883Y019547D01*
X014929Y019502D01*
X014883Y019456D01*
X014883Y019252D01*
X015463Y019252D01*
X015463Y019251D01*
X015463Y019252D01*
X016043Y019252D01*
X016043Y019456D01*
X015998Y019502D01*
X016043Y019547D01*
X016043Y019956D01*
X015998Y020002D01*
X016043Y020047D01*
X016043Y020251D01*
X015463Y020251D01*
X015463Y020252D01*
X016043Y020252D01*
X016043Y020456D01*
X015998Y020502D01*
X016043Y020547D01*
X016043Y020956D01*
X015998Y021002D01*
X016043Y021047D01*
X016043Y021251D01*
X015463Y021251D01*
X014883Y021251D01*
X014883Y021161D02*
X014753Y021161D01*
X014753Y021003D02*
X014928Y021003D01*
X014883Y020844D02*
X014753Y020844D01*
X014753Y020685D02*
X014883Y020685D01*
X014903Y020527D02*
X014753Y020527D01*
X014753Y020368D02*
X014883Y020368D01*
X014883Y020210D02*
X014753Y020210D01*
X014753Y020051D02*
X014883Y020051D01*
X014883Y019893D02*
X014753Y019893D01*
X014631Y019734D02*
X014883Y019734D01*
X014883Y019576D02*
X013561Y019576D01*
X013408Y019417D02*
X014883Y019417D01*
X014883Y019259D02*
X013491Y019259D01*
X013862Y019100D02*
X014883Y019100D01*
X014883Y018941D02*
X013976Y018941D01*
X014003Y018783D02*
X014679Y018783D01*
X014643Y018624D02*
X013961Y018624D01*
X013805Y018466D02*
X014643Y018466D01*
X014643Y018307D02*
X013855Y018307D01*
X013944Y018149D02*
X014643Y018149D01*
X014643Y017990D02*
X013953Y017990D01*
X013890Y017832D02*
X014768Y017832D01*
X014926Y017673D02*
X013652Y017673D01*
X013494Y017673D02*
X013463Y017673D01*
X013690Y017515D02*
X015085Y017515D01*
X015243Y017356D02*
X013900Y017356D01*
X013953Y017198D02*
X015402Y017198D01*
X015561Y017039D02*
X013938Y017039D01*
X013839Y016880D02*
X015719Y016880D01*
X015878Y016722D02*
X013840Y016722D01*
X013938Y016563D02*
X016036Y016563D01*
X016195Y016405D02*
X013953Y016405D01*
X013899Y016246D02*
X016353Y016246D01*
X017102Y017198D02*
X017552Y017198D01*
X017393Y017356D02*
X016944Y017356D01*
X016785Y017515D02*
X017235Y017515D01*
X017076Y017673D02*
X016627Y017673D01*
X016468Y017832D02*
X016918Y017832D01*
X016759Y017990D02*
X016310Y017990D01*
X016151Y018149D02*
X016601Y018149D01*
X016442Y018307D02*
X016043Y018307D01*
X016033Y018466D02*
X016284Y018466D01*
X016193Y018624D02*
X016043Y018624D01*
X016043Y018783D02*
X016193Y018783D01*
X016193Y018941D02*
X016043Y018941D01*
X016043Y019100D02*
X016193Y019100D01*
X016193Y019259D02*
X016043Y019259D01*
X016043Y019417D02*
X016193Y019417D01*
X016193Y019576D02*
X016043Y019576D01*
X016043Y019734D02*
X016193Y019734D01*
X016193Y019893D02*
X016043Y019893D01*
X016043Y020051D02*
X016193Y020051D01*
X016193Y020210D02*
X016043Y020210D01*
X016043Y020368D02*
X016193Y020368D01*
X016193Y020527D02*
X016023Y020527D01*
X016043Y020685D02*
X016193Y020685D01*
X016193Y020844D02*
X016043Y020844D01*
X015998Y021003D02*
X016193Y021003D01*
X016193Y021161D02*
X016043Y021161D01*
X016043Y021252D02*
X016043Y021456D01*
X015938Y021562D01*
X015463Y021562D01*
X015463Y021252D01*
X015463Y021252D01*
X015463Y021251D01*
X015463Y021252D01*
X016043Y021252D01*
X016043Y021320D02*
X016266Y021320D01*
X016021Y021478D02*
X017325Y021478D01*
X018441Y021478D02*
X018678Y021478D01*
X018520Y021320D02*
X018463Y021320D01*
X018443Y020527D02*
X018677Y020527D01*
X018569Y020368D02*
X018463Y020368D01*
X019669Y020527D02*
X020193Y020527D01*
X020193Y020685D02*
X019828Y020685D01*
X019947Y020844D02*
X020193Y020844D01*
X020193Y021003D02*
X019947Y021003D01*
X019947Y021161D02*
X020193Y021161D01*
X020193Y021320D02*
X019826Y021320D01*
X019668Y021478D02*
X020193Y021478D01*
X020193Y021637D02*
X019779Y021637D01*
X019938Y021795D02*
X020193Y021795D01*
X020193Y021954D02*
X019947Y021954D01*
X019947Y022112D02*
X020193Y022112D01*
X020193Y022271D02*
X019875Y022271D01*
X019716Y022429D02*
X020193Y022429D01*
X020193Y022588D02*
X019731Y022588D01*
X019889Y022747D02*
X020193Y022747D01*
X020193Y022905D02*
X019947Y022905D01*
X019947Y023064D02*
X020193Y023064D01*
X020193Y023222D02*
X019924Y023222D01*
X019765Y023381D02*
X020193Y023381D01*
X020193Y023539D02*
X013903Y023539D01*
X013903Y023381D02*
X018581Y023381D01*
X018422Y023222D02*
X013869Y023222D01*
X013903Y023698D02*
X020193Y023698D01*
X020193Y023856D02*
X013903Y023856D01*
X013903Y024015D02*
X020193Y024015D01*
X020193Y024173D02*
X019469Y024173D01*
X019465Y024170D02*
X019603Y024308D01*
X019603Y024502D01*
X019603Y024502D01*
X019603Y024701D01*
X019603Y024896D01*
X019505Y024995D01*
X019375Y025125D01*
X019468Y025125D01*
X019421Y025171D02*
X019521Y025072D01*
X019715Y025072D01*
X019853Y025209D01*
X019853Y025505D01*
X019853Y025699D01*
X019853Y025798D01*
X019656Y025995D01*
X019519Y026132D01*
X019324Y026132D01*
X019324Y026132D01*
X019197Y026006D01*
X019071Y026132D01*
X018776Y026132D01*
X018581Y026132D01*
X018504Y026055D01*
X018426Y026132D01*
X018131Y026132D01*
X017936Y026132D01*
X017855Y026051D01*
X017838Y026034D01*
X017770Y025965D01*
X017769Y025965D01*
X017749Y025945D01*
X017700Y025896D01*
X017700Y025798D01*
X017700Y025603D01*
X017701Y025602D01*
X017700Y025601D01*
X017700Y025502D01*
X017700Y025308D01*
X017769Y025239D01*
X017773Y025236D01*
X017838Y025170D01*
X017853Y025155D01*
X017936Y025072D01*
X018271Y025072D01*
X018250Y025051D01*
X018233Y025034D01*
X018233Y025034D01*
X018209Y025010D01*
X018164Y024965D01*
X018095Y024896D01*
X018095Y024701D01*
X018095Y024603D01*
X018096Y024602D01*
X018095Y024601D01*
X018095Y024502D01*
X018095Y024308D01*
X018164Y024239D01*
X018165Y024237D01*
X018233Y024170D01*
X018246Y024156D01*
X018331Y024072D01*
X018528Y024072D01*
X018722Y024072D01*
X018821Y024170D01*
X018849Y024198D01*
X018877Y024170D01*
X018892Y024155D01*
X018975Y024072D01*
X019172Y024072D01*
X019367Y024072D01*
X019465Y024170D01*
X019603Y024332D02*
X020193Y024332D01*
X020193Y024491D02*
X019603Y024491D01*
X019603Y024649D02*
X020193Y024649D01*
X020193Y024808D02*
X019603Y024808D01*
X019533Y024966D02*
X020193Y024966D01*
X020193Y025125D02*
X019768Y025125D01*
X019853Y025283D02*
X020193Y025283D01*
X020193Y025442D02*
X019853Y025442D01*
X019853Y025600D02*
X020193Y025600D01*
X020193Y025759D02*
X019853Y025759D01*
X019733Y025917D02*
X020193Y025917D01*
X020193Y026076D02*
X019575Y026076D01*
X019268Y026076D02*
X019127Y026076D01*
X018581Y026132D02*
X018581Y026132D01*
X018525Y026076D02*
X018483Y026076D01*
X018057Y026710D02*
X020193Y026710D01*
X020193Y026552D02*
X017898Y026552D01*
X017740Y026393D02*
X020193Y026393D01*
X020193Y026234D02*
X017581Y026234D01*
X017503Y026076D02*
X017880Y026076D01*
X017838Y026034D02*
X017838Y026034D01*
X017936Y026132D02*
X017936Y026132D01*
X017722Y025917D02*
X017458Y025917D01*
X017288Y025759D02*
X017700Y025759D01*
X017700Y025600D02*
X013903Y025600D01*
X013903Y025442D02*
X017700Y025442D01*
X017725Y025283D02*
X013903Y025283D01*
X013903Y025125D02*
X017883Y025125D01*
X017838Y025170D02*
X017838Y025170D01*
X018165Y024966D02*
X013903Y024966D01*
X013903Y024808D02*
X018095Y024808D01*
X018095Y024649D02*
X013903Y024649D01*
X013903Y024491D02*
X018095Y024491D01*
X018095Y024332D02*
X013903Y024332D01*
X013903Y024173D02*
X018229Y024173D01*
X018233Y024170D02*
X018233Y024170D01*
X018824Y024173D02*
X018874Y024173D01*
X018877Y024170D02*
X018877Y024170D01*
X019155Y023381D02*
X019191Y023381D01*
X019191Y023222D02*
X019155Y023222D01*
X019155Y023064D02*
X019191Y023064D01*
X019191Y022905D02*
X019155Y022905D01*
X019155Y022747D02*
X019191Y022747D01*
X019191Y022588D02*
X019155Y022588D01*
X019778Y020368D02*
X020193Y020368D01*
X020193Y020210D02*
X019936Y020210D01*
X019947Y020051D02*
X020193Y020051D01*
X020193Y019893D02*
X019947Y019893D01*
X019877Y019734D02*
X020193Y019734D01*
X020193Y019576D02*
X019718Y019576D01*
X019729Y019417D02*
X020193Y019417D01*
X020193Y019259D02*
X019887Y019259D01*
X019947Y019100D02*
X020193Y019100D01*
X020193Y018941D02*
X019947Y018941D01*
X019925Y018783D02*
X020193Y018783D01*
X020193Y018624D02*
X019767Y018624D01*
X019637Y018466D02*
X020193Y018466D01*
X020193Y018307D02*
X019849Y018307D01*
X019903Y018149D02*
X020193Y018149D01*
X020193Y017990D02*
X019888Y017990D01*
X019814Y017832D02*
X020193Y017832D01*
X020193Y017673D02*
X019947Y017673D01*
X020193Y017515D02*
X019192Y017515D01*
X019154Y017515D02*
X018023Y017515D01*
X017988Y017480D02*
X017940Y017460D01*
X018118Y017282D01*
X018422Y017282D01*
X018399Y017304D01*
X018399Y017483D01*
X019154Y017483D01*
X019154Y017520D01*
X018399Y017520D01*
X018399Y017699D01*
X018650Y017950D01*
X018593Y018006D01*
X018463Y018137D01*
X018463Y018047D01*
X018358Y017942D01*
X018126Y017942D01*
X018153Y017877D01*
X018153Y017726D01*
X018095Y017586D01*
X017988Y017480D01*
X018044Y017356D02*
X018399Y017356D01*
X018399Y017673D02*
X018131Y017673D01*
X018153Y017832D02*
X018532Y017832D01*
X018609Y017990D02*
X018406Y017990D01*
X018784Y018466D02*
X019409Y018466D01*
X019947Y017356D02*
X020193Y017356D01*
X020193Y017198D02*
X020102Y017198D01*
X020153Y017039D02*
X020193Y017039D01*
X020193Y016880D02*
X020153Y016880D01*
X020153Y016722D02*
X020193Y016722D01*
X020193Y016563D02*
X020153Y016563D01*
X020153Y016405D02*
X020193Y016405D01*
X020193Y016246D02*
X020153Y016246D01*
X020153Y016088D02*
X020193Y016088D01*
X020193Y015929D02*
X020153Y015929D01*
X020153Y015771D02*
X020193Y015771D01*
X020193Y015612D02*
X020153Y015612D01*
X020153Y015454D02*
X020193Y015454D01*
X020193Y015295D02*
X020153Y015295D01*
X020153Y015136D02*
X020193Y015136D01*
X020193Y014978D02*
X020153Y014978D01*
X020153Y014819D02*
X020193Y014819D01*
X020193Y014661D02*
X020153Y014661D01*
X020153Y014502D02*
X020193Y014502D01*
X020193Y014344D02*
X020153Y014344D01*
X020153Y014185D02*
X020193Y014185D01*
X020193Y014027D02*
X020153Y014027D01*
X020153Y013868D02*
X020193Y013868D01*
X020193Y013710D02*
X020153Y013710D01*
X020153Y013551D02*
X020193Y013551D01*
X020193Y013392D02*
X020153Y013392D01*
X020153Y013234D02*
X020193Y013234D01*
X020193Y013075D02*
X020022Y013075D01*
X019863Y012917D02*
X020193Y012917D01*
X020193Y012758D02*
X019205Y012758D01*
X017869Y016880D02*
X017420Y016880D01*
X017261Y017039D02*
X017711Y017039D01*
X014931Y014185D02*
X012992Y014185D01*
X013050Y014027D02*
X014773Y014027D01*
X014376Y012600D02*
X015749Y012600D01*
X015587Y012441D02*
X014556Y012441D01*
X014603Y012283D02*
X015424Y012283D01*
X015262Y012124D02*
X014581Y012124D01*
X014697Y011966D02*
X015100Y011966D01*
X014937Y011807D02*
X014791Y011807D01*
X012874Y012283D02*
X012279Y012283D01*
X012153Y012124D02*
X012709Y012124D01*
X012545Y011966D02*
X012128Y011966D01*
X012016Y011807D02*
X012380Y011807D01*
X011519Y013234D02*
X010328Y013234D01*
X010404Y013392D02*
X011442Y013392D01*
X011433Y013551D02*
X010413Y013551D01*
X010363Y013710D02*
X011483Y013710D01*
X011617Y013868D02*
X010229Y013868D01*
X009191Y013868D02*
X009155Y013868D01*
X009155Y014027D02*
X009191Y014027D01*
X009191Y014185D02*
X009155Y014185D01*
X009834Y015454D02*
X003753Y015454D01*
X003753Y015612D02*
X009720Y015612D01*
X009693Y015771D02*
X003753Y015771D01*
X003753Y015929D02*
X009735Y015929D01*
X009793Y016088D02*
X003753Y016088D01*
X004155Y016246D02*
X009442Y016246D01*
X009428Y016405D02*
X009442Y016405D01*
X009118Y016405D02*
X007014Y016405D01*
X007098Y016563D02*
X007174Y016563D01*
X007672Y016563D02*
X008940Y016563D01*
X008893Y016722D02*
X007781Y016722D01*
X006829Y015295D02*
X004217Y015295D01*
X003652Y014185D02*
X003203Y014185D01*
X003203Y014344D02*
X003356Y014344D01*
X003293Y014502D02*
X003203Y014502D01*
X003203Y014661D02*
X003293Y014661D01*
X003293Y014819D02*
X003203Y014819D01*
X003203Y014978D02*
X003293Y014978D01*
X003293Y015136D02*
X003203Y015136D01*
X003203Y015295D02*
X003293Y015295D01*
X003293Y015454D02*
X003203Y015454D01*
X003203Y015612D02*
X003293Y015612D01*
X003293Y015771D02*
X003203Y015771D01*
X003203Y015929D02*
X003293Y015929D01*
X003293Y016088D02*
X003203Y016088D01*
X003203Y016246D02*
X003293Y016246D01*
X003293Y016405D02*
X003203Y016405D01*
X003203Y016563D02*
X003293Y016563D01*
X003293Y016722D02*
X003203Y016722D01*
X003203Y016880D02*
X003293Y016880D01*
X003293Y017039D02*
X003203Y017039D01*
X003203Y017198D02*
X003293Y017198D01*
X003293Y017356D02*
X003203Y017356D01*
X003203Y017515D02*
X003293Y017515D01*
X003293Y017673D02*
X003203Y017673D01*
X003203Y017832D02*
X003293Y017832D01*
X003293Y017990D02*
X003203Y017990D01*
X003203Y018149D02*
X003293Y018149D01*
X003293Y018307D02*
X003203Y018307D01*
X003203Y018466D02*
X003293Y018466D01*
X003293Y018624D02*
X003203Y018624D01*
X003203Y018783D02*
X003293Y018783D01*
X003203Y018941D02*
X003388Y018941D01*
X003546Y019100D02*
X003203Y019100D01*
X003203Y019259D02*
X005327Y019259D01*
X005293Y019100D02*
X004200Y019100D01*
X003789Y019893D02*
X006547Y019893D01*
X006693Y019734D02*
X003631Y019734D01*
X003472Y019576D02*
X006622Y019576D01*
X006463Y019417D02*
X005895Y019417D01*
X005451Y019417D02*
X003314Y019417D01*
X003948Y020051D02*
X005526Y020051D01*
X005341Y020210D02*
X004106Y020210D01*
X004265Y020368D02*
X005293Y020368D01*
X005314Y020527D02*
X004424Y020527D01*
X004582Y020685D02*
X005419Y020685D01*
X006053Y020368D02*
X006310Y020368D01*
X006293Y020210D02*
X006005Y020210D01*
X005820Y020051D02*
X006345Y020051D01*
X008894Y023856D02*
X011893Y023856D01*
X012052Y023698D02*
X009052Y023698D01*
X009211Y023539D02*
X012193Y023539D01*
X012193Y023556D02*
X012193Y023426D01*
X012211Y023382D01*
X010978Y023382D01*
X010843Y023247D01*
X010478Y022882D01*
X010347Y022882D01*
X010208Y022824D01*
X010101Y022717D01*
X010081Y022669D01*
X008728Y024022D01*
X011728Y024022D01*
X012193Y023556D01*
X012518Y023882D02*
X012053Y024347D01*
X011918Y024482D01*
X011785Y024482D01*
X011803Y024526D01*
X011803Y024677D01*
X011745Y024817D01*
X011638Y024924D01*
X011499Y024982D01*
X011347Y024982D01*
X011208Y024924D01*
X011101Y024817D01*
X011086Y024782D01*
X011085Y024782D01*
X011103Y024826D01*
X011103Y024956D01*
X011268Y025122D01*
X011528Y025122D01*
X011718Y025122D01*
X012146Y025550D01*
X012174Y025522D01*
X013172Y025522D01*
X013443Y025793D01*
X013443Y023447D01*
X013378Y023382D01*
X012935Y023382D01*
X012953Y023426D01*
X012953Y023577D01*
X012895Y023717D01*
X012788Y023824D01*
X012649Y023882D01*
X012518Y023882D01*
X012385Y024015D02*
X013443Y024015D01*
X013443Y024173D02*
X012227Y024173D01*
X012068Y024332D02*
X013443Y024332D01*
X013443Y024491D02*
X011788Y024491D01*
X011803Y024649D02*
X013443Y024649D01*
X013443Y024808D02*
X011749Y024808D01*
X011536Y024966D02*
X013443Y024966D01*
X013443Y025125D02*
X011721Y025125D01*
X011880Y025283D02*
X013443Y025283D01*
X013443Y025442D02*
X012038Y025442D01*
X011310Y024966D02*
X011113Y024966D01*
X011097Y024808D02*
X011095Y024808D01*
X011735Y024015D02*
X008735Y024015D01*
X009369Y023381D02*
X010977Y023381D01*
X010818Y023222D02*
X009528Y023222D01*
X009686Y023064D02*
X010660Y023064D01*
X010501Y022905D02*
X009845Y022905D01*
X010003Y022747D02*
X010130Y022747D01*
X012710Y023856D02*
X013443Y023856D01*
X013443Y023698D02*
X012903Y023698D01*
X012953Y023539D02*
X013443Y023539D01*
X013443Y025600D02*
X013250Y025600D01*
X013409Y025759D02*
X013443Y025759D01*
X013903Y025759D02*
X016958Y025759D01*
X016788Y025917D02*
X013903Y025917D01*
X013903Y026076D02*
X016743Y026076D01*
X016767Y026234D02*
X013903Y026234D01*
X013903Y026393D02*
X016877Y026393D01*
X017248Y026552D02*
X013903Y026552D01*
X013903Y026710D02*
X017406Y026710D01*
X017565Y026869D02*
X013881Y026869D01*
X013453Y027027D02*
X015884Y027027D01*
X016062Y027027D02*
X017723Y027027D01*
X017882Y027186D02*
X016294Y027186D01*
X016353Y027344D02*
X018040Y027344D01*
X018199Y027503D02*
X016342Y027503D01*
X016270Y027661D02*
X018357Y027661D01*
X018516Y027820D02*
X016350Y027820D01*
X016353Y027978D02*
X018675Y027978D01*
X018833Y028137D02*
X016275Y028137D01*
X015904Y028296D02*
X018992Y028296D01*
X019150Y028454D02*
X015746Y028454D01*
X015413Y028137D02*
X014146Y028137D01*
X014180Y028172D02*
X015378Y028172D01*
X015593Y027956D01*
X015593Y027826D01*
X015611Y027782D01*
X013432Y027782D01*
X013453Y027803D01*
X013453Y027982D01*
X012693Y027982D01*
X012693Y028022D01*
X012653Y028022D01*
X012653Y028482D01*
X012174Y028482D01*
X012153Y028460D01*
X012153Y029006D01*
X012218Y029072D01*
X012353Y029206D01*
X012353Y029956D01*
X012353Y030147D01*
X012218Y030282D01*
X012104Y030282D01*
X012133Y030311D01*
X012133Y030492D01*
X011683Y030492D01*
X011683Y030512D01*
X012133Y030512D01*
X012133Y030692D01*
X012104Y030722D01*
X016178Y030722D01*
X016543Y030356D01*
X016543Y030226D01*
X016601Y030086D01*
X016706Y029982D01*
X016678Y029982D01*
X016625Y029929D01*
X016217Y029929D01*
X016173Y029885D01*
X016129Y029929D01*
X015549Y029929D01*
X014967Y029929D01*
X014923Y029885D01*
X014879Y029929D01*
X014607Y029929D01*
X014607Y029570D01*
X014570Y029570D01*
X014570Y029533D01*
X014192Y029533D01*
X014192Y029280D01*
X014297Y029175D01*
X014309Y029175D01*
X014251Y029117D01*
X014193Y028977D01*
X014193Y028826D01*
X014251Y028686D01*
X014306Y028632D01*
X014180Y028632D01*
X014088Y028724D01*
X013949Y028782D01*
X013797Y028782D01*
X013658Y028724D01*
X013551Y028617D01*
X013493Y028477D01*
X013493Y028326D01*
X013551Y028186D01*
X013658Y028080D01*
X013797Y028022D01*
X013949Y028022D01*
X014088Y028080D01*
X014180Y028172D01*
X014216Y028771D02*
X013974Y028771D01*
X013772Y028771D02*
X012153Y028771D01*
X012153Y028613D02*
X013549Y028613D01*
X013493Y028454D02*
X013199Y028454D01*
X013172Y028482D02*
X012693Y028482D01*
X012693Y028022D01*
X013453Y028022D01*
X013453Y028201D01*
X013172Y028482D01*
X013358Y028296D02*
X013506Y028296D01*
X013453Y028137D02*
X013600Y028137D01*
X013453Y027978D02*
X015571Y027978D01*
X015596Y027820D02*
X013453Y027820D01*
X013453Y027186D02*
X015652Y027186D01*
X016559Y028613D02*
X019309Y028613D01*
X019467Y028771D02*
X016930Y028771D01*
X017034Y028930D02*
X019626Y028930D01*
X019784Y029088D02*
X017053Y029088D01*
X017004Y029247D02*
X019893Y029247D01*
X019893Y029405D02*
X016953Y029405D01*
X017140Y029982D02*
X017245Y030086D01*
X017303Y030226D01*
X017303Y030377D01*
X017245Y030517D01*
X017138Y030624D01*
X016999Y030682D01*
X016868Y030682D01*
X016528Y031022D01*
X018222Y031022D01*
X018196Y030996D01*
X018196Y030520D01*
X018654Y030520D01*
X018654Y030483D01*
X018196Y030483D01*
X018196Y030007D01*
X018222Y029982D01*
X017140Y029982D01*
X017198Y030040D02*
X018196Y030040D01*
X018196Y030198D02*
X017291Y030198D01*
X017303Y030357D02*
X018196Y030357D01*
X018196Y030674D02*
X017018Y030674D01*
X017246Y030515D02*
X018654Y030515D01*
X018692Y030515D02*
X019196Y030515D01*
X019150Y030520D02*
X019150Y030996D01*
X019124Y031022D01*
X019222Y031022D01*
X019196Y030996D01*
X019196Y030150D01*
X019150Y030104D01*
X019150Y030483D01*
X018692Y030483D01*
X018692Y030520D01*
X019150Y030520D01*
X019150Y030674D02*
X019196Y030674D01*
X019196Y030832D02*
X019150Y030832D01*
X019150Y030991D02*
X019196Y030991D01*
X019196Y030357D02*
X019150Y030357D01*
X019150Y030198D02*
X019196Y030198D01*
X019419Y029722D02*
X019893Y029722D01*
X019893Y029564D02*
X019260Y029564D01*
X020118Y028771D02*
X020193Y028771D01*
X020193Y028613D02*
X019959Y028613D01*
X019801Y028454D02*
X020193Y028454D01*
X020193Y028296D02*
X019642Y028296D01*
X019484Y028137D02*
X020193Y028137D01*
X020193Y027978D02*
X019325Y027978D01*
X019166Y027820D02*
X020193Y027820D01*
X020193Y027661D02*
X019008Y027661D01*
X018849Y027503D02*
X020193Y027503D01*
X020193Y027344D02*
X018691Y027344D01*
X018532Y027186D02*
X020193Y027186D01*
X020193Y027027D02*
X018374Y027027D01*
X018215Y026869D02*
X020193Y026869D01*
X019421Y025171D02*
X019375Y025125D01*
X016648Y030040D02*
X012353Y030040D01*
X012353Y029881D02*
X014250Y029881D01*
X014297Y029929D02*
X014192Y029823D01*
X014192Y029570D01*
X014570Y029570D01*
X014570Y029929D01*
X014297Y029929D01*
X014192Y029722D02*
X012353Y029722D01*
X012353Y029564D02*
X014570Y029564D01*
X014570Y029722D02*
X014607Y029722D01*
X014607Y029881D02*
X014570Y029881D01*
X014192Y029405D02*
X012353Y029405D01*
X012353Y029247D02*
X014225Y029247D01*
X014239Y029088D02*
X012235Y029088D01*
X012153Y028930D02*
X014193Y028930D01*
X012693Y028454D02*
X012653Y028454D01*
X012653Y028296D02*
X012693Y028296D01*
X012693Y028137D02*
X012653Y028137D01*
X012302Y030198D02*
X016555Y030198D01*
X016543Y030357D02*
X012133Y030357D01*
X012133Y030515D02*
X016384Y030515D01*
X016226Y030674D02*
X012133Y030674D01*
X011663Y030512D02*
X011663Y030492D01*
X011213Y030492D01*
X011213Y030437D01*
X011153Y030497D01*
X011133Y030517D01*
X011133Y030692D01*
X011104Y030722D01*
X011243Y030722D01*
X011213Y030692D01*
X011213Y030512D01*
X011663Y030512D01*
X011213Y030515D02*
X011135Y030515D01*
X011133Y030674D02*
X011213Y030674D01*
X006868Y031482D02*
X006678Y031482D01*
X005778Y030582D01*
X005647Y030582D01*
X005508Y030524D01*
X005401Y030417D01*
X005343Y030277D01*
X005343Y030126D01*
X005396Y029999D01*
X004078Y028682D01*
X003943Y028547D01*
X003943Y027532D01*
X003808Y027532D01*
X003863Y027664D01*
X003863Y027751D01*
X003423Y027751D01*
X002983Y027751D01*
X002983Y027664D01*
X003038Y027532D01*
X002768Y027532D01*
X002765Y027532D01*
X002672Y027625D01*
X002511Y027692D01*
X002336Y027692D01*
X002174Y027625D01*
X002153Y027604D01*
X002153Y027900D01*
X002174Y027879D01*
X002336Y027812D01*
X002511Y027812D01*
X002672Y027879D01*
X002796Y028002D01*
X002863Y028164D01*
X002863Y028339D01*
X002796Y028501D01*
X002672Y028625D01*
X002511Y028692D01*
X002336Y028692D01*
X002174Y028625D01*
X002153Y028604D01*
X002153Y029505D01*
X002269Y029397D01*
X002397Y029298D01*
X002533Y029210D01*
X002677Y029136D01*
X002827Y029074D01*
X002982Y029027D01*
X003141Y028994D01*
X003302Y028976D01*
X003464Y028972D01*
X003625Y028983D01*
X003785Y029009D01*
X003942Y029049D01*
X004095Y029103D01*
X004242Y029171D01*
X004382Y029252D01*
X004515Y029346D01*
X004638Y029451D01*
X004751Y029567D01*
X004854Y029692D01*
X004854Y029692D01*
X004944Y029827D01*
X005022Y029969D01*
X005086Y030118D01*
X005137Y030271D01*
X005137Y030271D01*
X005174Y030429D01*
X005174Y030429D01*
X005196Y030590D01*
X005203Y030752D01*
X005196Y030914D01*
X005174Y031074D01*
X005137Y031232D01*
X005086Y031386D01*
X005022Y031534D01*
X005022Y031534D01*
X004944Y031677D01*
X004854Y031811D01*
X004751Y031937D01*
X004668Y032022D01*
X020193Y032022D01*
X020193Y031482D01*
X006868Y031482D01*
X006663Y031466D02*
X005051Y031466D01*
X005086Y031386D02*
X005086Y031386D01*
X005112Y031308D02*
X006504Y031308D01*
X006345Y031149D02*
X005156Y031149D01*
X005174Y031074D02*
X005174Y031074D01*
X005185Y030991D02*
X006187Y030991D01*
X006028Y030832D02*
X005199Y030832D01*
X005196Y030914D02*
X005196Y030914D01*
X005199Y030674D02*
X005870Y030674D01*
X005499Y030515D02*
X005185Y030515D01*
X005196Y030590D02*
X005196Y030590D01*
X005157Y030357D02*
X005376Y030357D01*
X005343Y030198D02*
X005113Y030198D01*
X005086Y030118D02*
X005086Y030118D01*
X005052Y030040D02*
X005379Y030040D01*
X005277Y029881D02*
X004974Y029881D01*
X004944Y029827D02*
X004944Y029827D01*
X004874Y029722D02*
X005119Y029722D01*
X004960Y029564D02*
X004749Y029564D01*
X004751Y029567D02*
X004751Y029567D01*
X004638Y029451D02*
X004638Y029451D01*
X004638Y029451D01*
X004585Y029405D02*
X004801Y029405D01*
X004643Y029247D02*
X004373Y029247D01*
X004382Y029252D02*
X004382Y029252D01*
X004242Y029171D02*
X004242Y029171D01*
X004052Y029088D02*
X004484Y029088D01*
X004326Y028930D02*
X002153Y028930D01*
X002153Y029088D02*
X002793Y029088D01*
X002476Y029247D02*
X002153Y029247D01*
X002153Y029405D02*
X002259Y029405D01*
X002269Y029397D02*
X002269Y029397D01*
X002397Y029298D02*
X002397Y029298D01*
X002153Y028771D02*
X004167Y028771D01*
X004009Y028613D02*
X002684Y028613D01*
X002815Y028454D02*
X003943Y028454D01*
X003943Y028296D02*
X002863Y028296D01*
X002852Y028137D02*
X003204Y028137D01*
X003174Y028125D02*
X003050Y028001D01*
X002983Y027839D01*
X002983Y027752D01*
X003423Y027752D01*
X003423Y028192D01*
X003336Y028192D01*
X003174Y028125D01*
X003041Y027978D02*
X002772Y027978D01*
X002983Y027820D02*
X002530Y027820D01*
X002584Y027661D02*
X002984Y027661D01*
X003423Y027752D02*
X003423Y027751D01*
X003423Y027752D01*
X003423Y027752D01*
X003423Y028192D01*
X003511Y028192D01*
X003672Y028125D01*
X003796Y028001D01*
X003863Y027839D01*
X003863Y027752D01*
X003423Y027752D01*
X003423Y027820D02*
X003423Y027820D01*
X003423Y027978D02*
X003423Y027978D01*
X003423Y028137D02*
X003423Y028137D01*
X003643Y028137D02*
X003943Y028137D01*
X003943Y027978D02*
X003805Y027978D01*
X003863Y027820D02*
X003943Y027820D01*
X003943Y027661D02*
X003862Y027661D01*
X004515Y029346D02*
X004515Y029346D01*
X005022Y029969D02*
X005022Y029969D01*
X005137Y031232D02*
X005137Y031232D01*
X004972Y031625D02*
X020193Y031625D01*
X020193Y031784D02*
X004872Y031784D01*
X004854Y031811D02*
X004854Y031811D01*
X004944Y031677D02*
X004944Y031677D01*
X004751Y031937D02*
X004751Y031937D01*
X004751Y031937D01*
X004746Y031942D02*
X020193Y031942D01*
X018196Y030991D02*
X016559Y030991D01*
X016718Y030832D02*
X018196Y030832D01*
X015463Y021478D02*
X015463Y021478D01*
X015463Y021320D02*
X015463Y021320D01*
X017009Y005307D02*
X017243Y005307D01*
X017203Y005148D02*
X017303Y005148D01*
X017337Y004990D02*
X017253Y004990D01*
X002262Y027661D02*
X002153Y027661D01*
X002153Y027820D02*
X002316Y027820D01*
X002162Y028613D02*
X002153Y028613D01*
D22*
X019173Y023002D02*
X020173Y023002D01*
X020173Y017502D01*
X019173Y017502D01*
X020173Y017502D02*
X020173Y012002D01*
X019173Y012002D01*
X020173Y012002D02*
X020173Y007002D01*
X019673Y006502D01*
X019173Y006502D01*
D23*
X009123Y005152D02*
X002623Y005152D01*
X002123Y005652D01*
X002123Y026252D01*
X002373Y026502D01*
X002623Y025952D02*
X004923Y025952D01*
X004923Y028252D01*
X005173Y028502D01*
X006823Y028502D01*
X006623Y028002D02*
X006823Y027752D01*
X006623Y028002D02*
X006023Y028002D01*
X005873Y028152D01*
X005973Y027252D02*
X007223Y027252D01*
X007223Y027452D01*
X007423Y027752D01*
X007423Y028502D02*
X007623Y028802D01*
X007623Y029052D01*
X011073Y029052D01*
X011423Y029402D01*
X011673Y029502D01*
X011573Y029252D01*
X011573Y027702D01*
X011923Y027802D02*
X011923Y029102D01*
X012123Y029302D01*
X012123Y030052D01*
X011273Y030052D01*
X010923Y030402D01*
X010673Y030502D01*
X010423Y031602D02*
X005373Y031602D01*
X005373Y030302D01*
X004123Y029052D01*
X003523Y029052D01*
X003523Y028002D01*
X003423Y027752D01*
X003523Y027002D02*
X003423Y026752D01*
X003523Y027002D02*
X004373Y027002D01*
X004373Y028002D01*
X005723Y029352D01*
X005723Y029502D01*
X005573Y029852D02*
X004173Y028452D01*
X004173Y027302D01*
X002673Y027302D01*
X002423Y027252D01*
X002623Y025952D02*
X002323Y025652D01*
X002323Y005752D01*
X002723Y005352D01*
X013573Y005352D01*
X014073Y004852D01*
X013923Y004502D02*
X014823Y004502D01*
X015073Y004752D01*
X015463Y004752D01*
X015463Y005252D02*
X015073Y005452D01*
X014973Y005552D01*
X014073Y005552D01*
X014073Y005402D01*
X014073Y005552D02*
X011873Y005552D01*
X011748Y005677D01*
X011773Y005702D01*
X011748Y005677D02*
X011398Y006027D01*
X011873Y006502D01*
X019173Y006502D01*
X019173Y005502D02*
X018723Y005252D01*
X018673Y005252D01*
X018273Y004852D01*
X017883Y004752D01*
X017883Y005252D02*
X017623Y005252D01*
X017123Y005752D01*
X012573Y005752D01*
X012173Y006152D01*
X011398Y006027D02*
X010223Y007202D01*
X010223Y007802D01*
X010123Y007952D01*
X009973Y008052D01*
X007373Y008052D01*
X005973Y009352D01*
X005773Y009702D02*
X007123Y009702D01*
X007223Y011002D02*
X004473Y011002D01*
X003973Y010502D01*
X003973Y011502D02*
X004473Y012002D01*
X006323Y012002D01*
X007623Y013302D01*
X007423Y013752D02*
X007423Y015152D01*
X007223Y015352D01*
X006523Y015352D01*
X006023Y015852D01*
X006573Y016502D02*
X003873Y016502D01*
X003973Y017002D02*
X007273Y017002D01*
X007423Y016852D01*
X007673Y017102D02*
X007323Y017452D01*
X006023Y017452D01*
X005523Y017802D02*
X010423Y017802D01*
X010623Y018002D01*
X010623Y019402D01*
X010523Y019402D01*
X008073Y021852D01*
X007523Y021852D01*
X007923Y021502D02*
X009573Y019852D01*
X009023Y019902D02*
X009923Y019002D01*
X009023Y019902D02*
X007773Y019902D01*
X007423Y020252D01*
X006673Y020252D01*
X007073Y019702D02*
X006473Y019102D01*
X005673Y019102D01*
X005873Y018802D02*
X005823Y018752D01*
X004223Y018752D01*
X004023Y018952D01*
X003723Y018952D01*
X003523Y018752D01*
X003523Y014502D01*
X003873Y014502D01*
X003973Y015002D02*
X007073Y015002D01*
X007423Y013752D02*
X005623Y013752D01*
X005523Y013902D01*
X003323Y013902D01*
X003323Y019052D01*
X002973Y019402D02*
X002973Y008502D01*
X003973Y008502D01*
X003973Y008002D02*
X005773Y009702D01*
X005873Y011502D02*
X006323Y011502D01*
X006873Y012052D01*
X007223Y011002D02*
X008723Y012502D01*
X009173Y013167D02*
X009323Y013352D01*
X009773Y013352D01*
X009973Y013502D01*
X010523Y013952D02*
X010523Y015752D01*
X010573Y015752D01*
X010523Y015752D02*
X010523Y016352D01*
X010508Y016502D01*
X012323Y016502D01*
X012723Y016102D01*
X013723Y016102D01*
X014673Y017052D01*
X014673Y019152D01*
X015073Y019152D01*
X015463Y019252D01*
X015073Y019352D01*
X014873Y019552D01*
X014873Y020152D01*
X015073Y020152D01*
X015463Y020252D01*
X015073Y020352D01*
X014873Y020552D01*
X014873Y021152D01*
X015073Y021152D01*
X015463Y021252D01*
X015823Y021352D01*
X016123Y021352D01*
X016673Y021902D01*
X016823Y022002D01*
X018173Y023352D01*
X018223Y023352D01*
X018248Y023377D01*
X016023Y025602D01*
X017123Y026102D02*
X020123Y029102D01*
X020123Y031252D01*
X006773Y031252D01*
X005723Y030202D01*
X005573Y029852D02*
X006373Y029852D01*
X006573Y029652D01*
X007073Y029652D02*
X007373Y029952D01*
X009073Y029952D01*
X009423Y029602D01*
X009673Y029502D01*
X010073Y028252D02*
X008223Y028252D01*
X008023Y028502D01*
X008023Y027752D02*
X008023Y027252D01*
X007773Y027002D01*
X006473Y027002D01*
X005173Y025752D01*
X002723Y025752D01*
X002523Y025552D01*
X002523Y005852D01*
X002823Y005552D01*
X009223Y005552D01*
X009373Y005702D01*
X009223Y006052D02*
X009523Y006052D01*
X009873Y005702D01*
X010073Y005002D02*
X010273Y004802D01*
X013623Y004802D01*
X013923Y004502D01*
X013323Y004302D02*
X013173Y004452D01*
X013323Y004302D02*
X015073Y004302D01*
X015463Y004252D01*
X015463Y003752D02*
X015073Y003902D01*
X013223Y003902D01*
X012623Y004452D01*
X011873Y003652D02*
X011073Y004452D01*
X010073Y004452D02*
X011223Y003302D01*
X014623Y003302D01*
X014773Y003652D02*
X011873Y003652D01*
X012673Y002852D02*
X015073Y002852D01*
X015463Y002752D01*
X015463Y002252D02*
X015823Y002352D01*
X015923Y002452D01*
X015973Y002452D01*
X017173Y003652D01*
X017473Y003152D02*
X017523Y003152D01*
X017883Y003252D01*
X017883Y003752D02*
X018273Y003852D01*
X018673Y004252D01*
X018723Y004252D01*
X019173Y004502D01*
X019173Y003502D02*
X019623Y003252D01*
X019923Y003252D01*
X019923Y002302D01*
X019673Y002052D01*
X018373Y002052D01*
X018273Y002152D01*
X017883Y002252D01*
X017883Y002752D02*
X018273Y002652D01*
X018623Y002652D01*
X019173Y002502D01*
X017883Y004252D02*
X017523Y004352D01*
X017473Y004352D01*
X016873Y004952D01*
X016873Y006102D02*
X013373Y006102D01*
X013323Y006852D02*
X013673Y007202D01*
X016373Y007202D01*
X017773Y007552D02*
X018773Y008552D01*
X019673Y008552D01*
X019923Y008802D01*
X019923Y009752D01*
X019623Y009752D01*
X019173Y010002D01*
X019173Y011002D02*
X018773Y011002D01*
X017723Y009952D01*
X013023Y009952D01*
X012323Y009252D01*
X012673Y008902D02*
X011873Y008902D01*
X011723Y008752D01*
X011573Y008702D01*
X010273Y008702D01*
X010123Y008552D01*
X009423Y008552D01*
X009423Y010802D01*
X010273Y009602D02*
X010073Y009402D01*
X010073Y009052D01*
X009923Y008902D01*
X010423Y009252D02*
X013323Y012052D01*
X013873Y012052D01*
X014223Y011702D01*
X014423Y011702D01*
X014223Y012252D02*
X013173Y012252D01*
X010423Y009602D01*
X010273Y009602D01*
X010573Y008352D02*
X010588Y008352D01*
X010373Y008202D01*
X010123Y007952D01*
X010523Y008202D02*
X010588Y008352D01*
X010573Y008352D02*
X010923Y008002D01*
X012723Y008002D01*
X012823Y008102D01*
X012838Y008102D01*
X012673Y008902D02*
X012838Y009102D01*
X013023Y009302D01*
X013323Y009602D01*
X014373Y009602D01*
X014373Y009002D01*
X014123Y008752D01*
X014023Y008752D01*
X014023Y009252D02*
X013673Y009252D01*
X013508Y009102D01*
X013523Y008902D01*
X013523Y008252D01*
X013508Y008102D01*
X014373Y009002D02*
X019173Y009002D01*
X017773Y007552D02*
X011773Y007552D01*
X011073Y006852D01*
X011258Y008352D02*
X011473Y008502D01*
X011723Y008752D01*
X011723Y009252D02*
X012723Y010252D01*
X013673Y010252D01*
X017873Y014352D01*
X017873Y015802D01*
X017223Y016452D01*
X016473Y016452D01*
X014873Y018052D01*
X014873Y018652D01*
X015073Y018652D01*
X015463Y018752D01*
X015463Y018252D02*
X015823Y018152D01*
X018423Y015552D01*
X018423Y013752D01*
X018723Y013752D01*
X019173Y013502D01*
X019173Y013052D02*
X019673Y013052D01*
X019923Y013302D01*
X019923Y017052D01*
X018023Y017052D01*
X016423Y018652D01*
X016423Y021152D01*
X017523Y021152D01*
X017883Y021252D01*
X017883Y020752D02*
X018273Y020852D01*
X018623Y020852D01*
X019173Y021002D01*
X018273Y019652D02*
X017883Y019752D01*
X017883Y020252D02*
X017523Y020152D01*
X017473Y020152D01*
X016773Y019452D01*
X017123Y019252D02*
X016773Y018902D01*
X017123Y019252D02*
X017883Y019252D01*
X017883Y018752D02*
X018273Y018652D01*
X018823Y018102D01*
X019523Y018102D01*
X019173Y019002D02*
X018723Y019252D01*
X018673Y019252D01*
X018273Y019652D01*
X017883Y018252D02*
X017773Y018152D01*
X017773Y017802D01*
X016973Y015902D02*
X013623Y012552D01*
X012223Y012552D01*
X011773Y012102D01*
X012073Y013352D02*
X011873Y013502D01*
X012073Y013352D02*
X012523Y013352D01*
X012673Y013167D01*
X012673Y013836D02*
X012523Y013952D01*
X010523Y013952D01*
X009323Y013952D01*
X009173Y013836D01*
X009023Y013752D01*
X007423Y013752D01*
X006873Y013302D02*
X006073Y012502D01*
X005873Y012502D01*
X006573Y016502D02*
X006723Y016652D01*
X007673Y017102D02*
X010023Y017102D01*
X010123Y017002D01*
X009838Y016502D02*
X009623Y016652D01*
X009523Y016752D01*
X009273Y016752D01*
X009573Y017452D02*
X008673Y017452D01*
X008523Y018002D02*
X004473Y018002D01*
X003873Y018602D01*
X003973Y018002D02*
X004123Y018002D01*
X004423Y017702D01*
X004588Y017502D01*
X005258Y017502D02*
X005423Y017702D01*
X005523Y017802D01*
X005873Y018802D02*
X008573Y018802D01*
X008673Y018702D01*
X008723Y019052D02*
X008873Y019202D01*
X008723Y019052D02*
X008123Y019052D01*
X007573Y019602D01*
X007573Y020602D02*
X005873Y020602D01*
X005673Y020402D01*
X004523Y020952D02*
X002973Y019402D01*
X004523Y020952D02*
X007973Y020952D01*
X008673Y020252D01*
X007423Y018452D02*
X007323Y018352D01*
X006723Y018352D01*
X008523Y018002D02*
X008673Y018152D01*
X009838Y016502D02*
X010023Y016352D01*
X010023Y015752D01*
X010073Y015752D01*
X011723Y017402D02*
X011723Y018602D01*
X007623Y022702D01*
X005173Y022702D01*
X003973Y021502D01*
X004023Y022002D02*
X003873Y022002D01*
X004023Y022002D02*
X004923Y022902D01*
X007723Y022902D01*
X011923Y018702D01*
X011923Y017502D01*
X012623Y016802D01*
X013123Y016802D01*
X012673Y016452D02*
X011723Y017402D01*
X012123Y017602D02*
X012123Y018802D01*
X007823Y023102D01*
X004573Y023102D01*
X003973Y022502D01*
X003873Y023002D02*
X004123Y023002D01*
X004423Y023302D01*
X007923Y023302D01*
X012323Y018902D01*
X012323Y017702D01*
X012523Y017502D01*
X013123Y017502D01*
X013023Y018052D02*
X012823Y018252D01*
X012823Y019002D01*
X008123Y023702D01*
X004423Y023702D01*
X004123Y024002D01*
X003873Y024002D01*
X003973Y024502D02*
X004573Y023902D01*
X008223Y023902D01*
X013173Y018952D01*
X013173Y018452D01*
X013023Y018052D02*
X013573Y018052D01*
X013623Y018802D02*
X008323Y024102D01*
X004973Y024102D01*
X004073Y025002D01*
X003873Y025002D01*
X003323Y025352D02*
X003173Y025202D01*
X003323Y025352D02*
X005423Y025352D01*
X005573Y025202D01*
X008773Y025202D01*
X009423Y024552D01*
X011373Y024552D01*
X011423Y024602D01*
X011823Y024252D02*
X008473Y024252D01*
X008373Y024352D01*
X007523Y024352D01*
X007273Y024602D01*
X007023Y025552D02*
X011223Y025552D01*
X011423Y025752D01*
X011623Y025352D02*
X011173Y025352D01*
X010723Y024902D01*
X011623Y025352D02*
X012123Y025852D01*
X012673Y026002D01*
X011923Y026402D02*
X010073Y028252D01*
X011223Y026252D02*
X008223Y026252D01*
X008023Y026502D01*
X007623Y026202D02*
X007623Y025902D01*
X008423Y025902D01*
X007623Y026202D02*
X007423Y026502D01*
X006823Y026502D02*
X005873Y025552D01*
X002823Y025552D01*
X002723Y025452D01*
X002723Y005952D01*
X002923Y005752D01*
X008923Y005752D01*
X009223Y006052D01*
X009123Y005152D02*
X009273Y005002D01*
X013173Y010802D02*
X013173Y011352D01*
X013523Y011702D01*
X016773Y010652D02*
X019173Y013052D01*
X014523Y019952D02*
X013423Y019952D01*
X013223Y019752D01*
X013273Y020302D02*
X013473Y020502D01*
X013473Y021202D01*
X014023Y021752D01*
X014023Y022302D01*
X014523Y021952D02*
X014523Y019952D01*
X012623Y017902D02*
X012673Y017852D01*
X012623Y017902D02*
X012623Y018902D01*
X008023Y023502D01*
X003973Y023502D01*
X005873Y029002D02*
X006973Y029002D01*
X007123Y029152D01*
X008673Y030502D02*
X008923Y030602D01*
X009273Y030952D01*
X016273Y030952D01*
X016923Y030302D01*
X016773Y029752D02*
X016723Y029702D01*
X016508Y029552D01*
X016723Y029402D01*
X016773Y029752D02*
X019123Y029752D01*
X019423Y030052D01*
X019673Y030502D01*
X018673Y030502D02*
X018423Y030052D01*
X018323Y029952D01*
X014773Y029952D01*
X014773Y029702D01*
X014588Y029552D01*
X014373Y029402D01*
X014223Y029252D01*
X013923Y029252D01*
X012673Y028002D01*
X012173Y027552D02*
X011923Y027802D01*
X012173Y027552D02*
X015823Y027552D01*
X015973Y027402D01*
X015973Y027902D02*
X015473Y028402D01*
X013873Y028402D01*
X014573Y028902D02*
X014773Y028702D01*
X016323Y028702D01*
X016673Y029052D01*
X015973Y029052D02*
X015973Y029402D01*
X015838Y029552D01*
X015258Y029552D02*
X015073Y029402D01*
X015073Y029052D01*
X014723Y029402D02*
X014588Y029552D01*
X013673Y026752D02*
X013123Y026752D01*
X012673Y027002D01*
X013673Y026752D02*
X013673Y023352D01*
X013473Y023152D01*
X011073Y023152D01*
X010423Y022502D01*
X011823Y024252D02*
X012573Y023502D01*
X012573Y022802D02*
X012173Y022802D01*
X012173Y020752D01*
X012123Y017602D02*
X012573Y017152D01*
X013573Y017152D01*
X013573Y016452D02*
X012673Y016452D01*
X018473Y023152D02*
X018623Y023152D01*
X019173Y023002D01*
X018473Y023152D02*
X018248Y023377D01*
X014773Y003652D02*
X015073Y003352D01*
X015463Y003252D01*
X016273Y001952D02*
X017473Y003152D01*
X016273Y001952D02*
X013923Y001952D01*
X013373Y002402D01*
X003973Y007502D02*
X003973Y008002D01*
D24*
X003973Y008502D03*
X003973Y007502D03*
X005973Y009352D03*
X007123Y009702D03*
X007123Y010452D03*
X006873Y012052D03*
X007673Y012202D03*
X007623Y013302D03*
X006873Y013302D03*
X005873Y012502D03*
X005873Y011502D03*
X005623Y013752D03*
X007073Y015002D03*
X006723Y016652D03*
X007423Y016852D03*
X007423Y018452D03*
X006723Y018352D03*
X006023Y017452D03*
X006023Y015852D03*
X003973Y015002D03*
X003873Y014502D03*
X003873Y016502D03*
X003973Y017002D03*
X003973Y018002D03*
X003873Y018602D03*
X003323Y019052D03*
X003973Y021502D03*
X003873Y022002D03*
X003973Y022502D03*
X003873Y023002D03*
X003973Y023502D03*
X003873Y024002D03*
X003973Y024502D03*
X003873Y025002D03*
X003173Y025202D03*
X002373Y026502D03*
X005723Y029502D03*
X005873Y029002D03*
X005873Y028152D03*
X005973Y027252D03*
X007023Y025552D03*
X007273Y024602D03*
X008423Y025902D03*
X008773Y025202D03*
X009223Y023852D03*
X010423Y022502D03*
X011423Y024602D03*
X010723Y024902D03*
X011423Y025752D03*
X011223Y026252D03*
X011923Y026402D03*
X011573Y027702D03*
X012723Y024752D03*
X012573Y023502D03*
X012573Y022802D03*
X012173Y020752D03*
X013273Y020302D03*
X013223Y019752D03*
X013623Y018802D03*
X013173Y018452D03*
X013573Y018052D03*
X013123Y017502D03*
X012673Y017852D03*
X013573Y017152D03*
X013123Y016802D03*
X013573Y016452D03*
X012873Y015902D03*
X011323Y016702D03*
X010573Y015752D03*
X010073Y015752D03*
X010123Y017002D03*
X009573Y017452D03*
X009273Y016752D03*
X008673Y017452D03*
X008673Y018152D03*
X008673Y018702D03*
X008873Y019202D03*
X009573Y019852D03*
X009923Y019002D03*
X008673Y020252D03*
X007573Y020602D03*
X007573Y019602D03*
X007073Y019702D03*
X006673Y020252D03*
X005673Y020402D03*
X005673Y019102D03*
X007523Y021852D03*
X007923Y021502D03*
X007123Y029152D03*
X007073Y029652D03*
X006573Y029652D03*
X005723Y030202D03*
X005573Y031652D03*
X010423Y031602D03*
X013873Y028402D03*
X014573Y028902D03*
X015073Y029052D03*
X015973Y029052D03*
X016673Y029052D03*
X015973Y027902D03*
X015973Y027402D03*
X017123Y026102D03*
X016023Y025602D03*
X015423Y023652D03*
X014523Y021952D03*
X014023Y022302D03*
X016673Y021902D03*
X016773Y019452D03*
X016773Y018902D03*
X017773Y017802D03*
X016973Y015902D03*
X017273Y014702D03*
X017573Y012352D03*
X016773Y010652D03*
X016373Y007202D03*
X016873Y006102D03*
X016873Y004952D03*
X017173Y003652D03*
X014623Y003302D03*
X014073Y004852D03*
X014073Y005402D03*
X013373Y006102D03*
X013323Y006852D03*
X012173Y006152D03*
X011773Y005702D03*
X011073Y004452D03*
X010073Y004452D03*
X010073Y005002D03*
X009873Y005702D03*
X009373Y005702D03*
X009273Y005002D03*
X011073Y006852D03*
X010123Y007952D03*
X009923Y008902D03*
X010423Y009252D03*
X009423Y010802D03*
X008773Y011452D03*
X008723Y012502D03*
X010923Y011752D03*
X011773Y012102D03*
X013173Y010802D03*
X013523Y011702D03*
X014223Y012252D03*
X014423Y011702D03*
X014023Y009252D03*
X014023Y008752D03*
X012323Y009252D03*
X011723Y009252D03*
X011723Y008752D03*
X012623Y004452D03*
X013173Y004452D03*
X012673Y002852D03*
X013373Y002402D03*
X003973Y010502D03*
X003973Y011502D03*
X016923Y030302D03*
X019523Y018102D03*
M02*
