G75*
G70*
%OFA0B0*%
%FSLAX24Y24*%
%IPPOS*%
%LPD*%
%AMOC8*
5,1,8,0,0,1.08239X$1,22.5*
%
%ADD10C,0.0000*%
%ADD11C,0.0110*%
%ADD12C,0.0100*%
D10*
X000796Y002802D02*
X019796Y002802D01*
X019796Y033802D01*
X000796Y033802D01*
X000796Y002802D01*
X001896Y004552D02*
X001899Y004611D01*
X001907Y004670D01*
X001920Y004727D01*
X001939Y004784D01*
X001962Y004838D01*
X001991Y004890D01*
X002024Y004939D01*
X002061Y004985D01*
X002102Y005027D01*
X002147Y005065D01*
X002196Y005100D01*
X002247Y005129D01*
X002301Y005154D01*
X002356Y005174D01*
X002414Y005188D01*
X002472Y005198D01*
X002531Y005202D01*
X002590Y005200D01*
X002649Y005194D01*
X002707Y005182D01*
X002764Y005164D01*
X002818Y005142D01*
X002871Y005115D01*
X002921Y005083D01*
X002968Y005047D01*
X003011Y005006D01*
X003050Y004962D01*
X003085Y004915D01*
X003116Y004864D01*
X003142Y004811D01*
X003163Y004756D01*
X003179Y004699D01*
X003190Y004641D01*
X003195Y004582D01*
X003195Y004522D01*
X003190Y004463D01*
X003179Y004405D01*
X003163Y004348D01*
X003142Y004293D01*
X003116Y004240D01*
X003085Y004189D01*
X003050Y004142D01*
X003011Y004098D01*
X002968Y004057D01*
X002921Y004021D01*
X002871Y003989D01*
X002818Y003962D01*
X002764Y003940D01*
X002707Y003922D01*
X002649Y003910D01*
X002590Y003904D01*
X002531Y003902D01*
X002472Y003906D01*
X002414Y003916D01*
X002356Y003930D01*
X002301Y003950D01*
X002247Y003975D01*
X002196Y004004D01*
X002147Y004039D01*
X002102Y004077D01*
X002061Y004119D01*
X002024Y004165D01*
X001991Y004214D01*
X001962Y004266D01*
X001939Y004320D01*
X001920Y004377D01*
X001907Y004434D01*
X001899Y004493D01*
X001896Y004552D01*
X001896Y032052D02*
X001899Y032111D01*
X001907Y032170D01*
X001920Y032227D01*
X001939Y032284D01*
X001962Y032338D01*
X001991Y032390D01*
X002024Y032439D01*
X002061Y032485D01*
X002102Y032527D01*
X002147Y032565D01*
X002196Y032600D01*
X002247Y032629D01*
X002301Y032654D01*
X002356Y032674D01*
X002414Y032688D01*
X002472Y032698D01*
X002531Y032702D01*
X002590Y032700D01*
X002649Y032694D01*
X002707Y032682D01*
X002764Y032664D01*
X002818Y032642D01*
X002871Y032615D01*
X002921Y032583D01*
X002968Y032547D01*
X003011Y032506D01*
X003050Y032462D01*
X003085Y032415D01*
X003116Y032364D01*
X003142Y032311D01*
X003163Y032256D01*
X003179Y032199D01*
X003190Y032141D01*
X003195Y032082D01*
X003195Y032022D01*
X003190Y031963D01*
X003179Y031905D01*
X003163Y031848D01*
X003142Y031793D01*
X003116Y031740D01*
X003085Y031689D01*
X003050Y031642D01*
X003011Y031598D01*
X002968Y031557D01*
X002921Y031521D01*
X002871Y031489D01*
X002818Y031462D01*
X002764Y031440D01*
X002707Y031422D01*
X002649Y031410D01*
X002590Y031404D01*
X002531Y031402D01*
X002472Y031406D01*
X002414Y031416D01*
X002356Y031430D01*
X002301Y031450D01*
X002247Y031475D01*
X002196Y031504D01*
X002147Y031539D01*
X002102Y031577D01*
X002061Y031619D01*
X002024Y031665D01*
X001991Y031714D01*
X001962Y031766D01*
X001939Y031820D01*
X001920Y031877D01*
X001907Y031934D01*
X001899Y031993D01*
X001896Y032052D01*
X017396Y004552D02*
X017399Y004611D01*
X017407Y004670D01*
X017420Y004727D01*
X017439Y004784D01*
X017462Y004838D01*
X017491Y004890D01*
X017524Y004939D01*
X017561Y004985D01*
X017602Y005027D01*
X017647Y005065D01*
X017696Y005100D01*
X017747Y005129D01*
X017801Y005154D01*
X017856Y005174D01*
X017914Y005188D01*
X017972Y005198D01*
X018031Y005202D01*
X018090Y005200D01*
X018149Y005194D01*
X018207Y005182D01*
X018264Y005164D01*
X018318Y005142D01*
X018371Y005115D01*
X018421Y005083D01*
X018468Y005047D01*
X018511Y005006D01*
X018550Y004962D01*
X018585Y004915D01*
X018616Y004864D01*
X018642Y004811D01*
X018663Y004756D01*
X018679Y004699D01*
X018690Y004641D01*
X018695Y004582D01*
X018695Y004522D01*
X018690Y004463D01*
X018679Y004405D01*
X018663Y004348D01*
X018642Y004293D01*
X018616Y004240D01*
X018585Y004189D01*
X018550Y004142D01*
X018511Y004098D01*
X018468Y004057D01*
X018421Y004021D01*
X018371Y003989D01*
X018318Y003962D01*
X018264Y003940D01*
X018207Y003922D01*
X018149Y003910D01*
X018090Y003904D01*
X018031Y003902D01*
X017972Y003906D01*
X017914Y003916D01*
X017856Y003930D01*
X017801Y003950D01*
X017747Y003975D01*
X017696Y004004D01*
X017647Y004039D01*
X017602Y004077D01*
X017561Y004119D01*
X017524Y004165D01*
X017491Y004214D01*
X017462Y004266D01*
X017439Y004320D01*
X017420Y004377D01*
X017407Y004434D01*
X017399Y004493D01*
X017396Y004552D01*
D11*
X009337Y029607D02*
X009140Y029804D01*
X009140Y030197D01*
X008889Y030197D02*
X008496Y030197D01*
X008496Y029607D01*
X008889Y029607D01*
X008693Y029902D02*
X008496Y029902D01*
X008245Y029705D02*
X008245Y030099D01*
X008146Y030197D01*
X007851Y030197D01*
X007851Y029607D01*
X008146Y029607D01*
X008245Y029705D01*
X009337Y029607D02*
X009534Y029804D01*
X009534Y030197D01*
D12*
X008908Y028969D02*
X008908Y028702D01*
X008908Y028569D02*
X008908Y028502D01*
X008715Y028902D02*
X008448Y028902D01*
X008581Y028902D02*
X008581Y028502D01*
X008255Y028502D02*
X007988Y028902D01*
X007794Y028902D02*
X007527Y028902D01*
X007527Y028502D01*
X007794Y028502D01*
X007988Y028502D02*
X008255Y028902D01*
X007661Y028702D02*
X007527Y028702D01*
X006873Y028702D02*
X006807Y028769D01*
X006673Y028769D01*
X006607Y028702D01*
X006607Y028569D01*
X006673Y028502D01*
X006807Y028502D01*
X006873Y028569D01*
X006873Y028702D01*
X006413Y028502D02*
X006413Y028902D01*
X006146Y028902D02*
X006413Y028502D01*
X006146Y028502D02*
X006146Y028902D01*
X005896Y028702D02*
X005696Y028752D01*
X005696Y029652D01*
X005846Y029502D01*
X005546Y029502D01*
X005696Y029652D01*
X003996Y030352D02*
X003996Y030552D01*
X003930Y030619D01*
X003663Y030619D01*
X003596Y030552D01*
X003596Y030352D01*
X003996Y030352D01*
X003996Y030812D02*
X003996Y031079D01*
X003863Y031273D02*
X003996Y031406D01*
X003863Y031539D01*
X003596Y031539D01*
X003596Y031733D02*
X003596Y031933D01*
X003663Y032000D01*
X003796Y032000D01*
X003863Y031933D01*
X003863Y031733D01*
X003996Y031733D02*
X003596Y031733D01*
X003596Y032193D02*
X003996Y032193D01*
X003863Y032327D01*
X003996Y032460D01*
X003596Y032460D01*
X003596Y032654D02*
X003596Y032854D01*
X003663Y032921D01*
X003796Y032921D01*
X003863Y032854D01*
X003863Y032654D01*
X003863Y032787D02*
X003996Y032921D01*
X003996Y032654D02*
X003596Y032654D01*
X003596Y031273D02*
X003863Y031273D01*
X003596Y031079D02*
X003596Y030812D01*
X003996Y030812D01*
X003796Y030812D02*
X003796Y030946D01*
X003546Y029552D02*
X003346Y029552D01*
X003346Y029352D01*
X001746Y029064D02*
X001680Y029131D01*
X001546Y029131D01*
X001546Y028997D01*
X001413Y028864D02*
X001680Y028864D01*
X001746Y028931D01*
X001746Y029064D01*
X001746Y028671D02*
X001613Y028537D01*
X001613Y028604D02*
X001613Y028404D01*
X001746Y028404D02*
X001346Y028404D01*
X001346Y028604D01*
X001413Y028671D01*
X001546Y028671D01*
X001613Y028604D01*
X001413Y028864D02*
X001346Y028931D01*
X001346Y029064D01*
X001413Y029131D01*
X001413Y028210D02*
X001546Y028210D01*
X001613Y028143D01*
X001613Y027943D01*
X001746Y027943D02*
X001346Y027943D01*
X001346Y028143D01*
X001413Y028210D01*
X001813Y027750D02*
X001813Y027483D01*
X001680Y027289D02*
X001746Y027223D01*
X001746Y027023D01*
X001346Y027023D01*
X001346Y027223D01*
X001413Y027289D01*
X001479Y027289D01*
X001546Y027223D01*
X001546Y027023D01*
X001546Y027223D02*
X001613Y027289D01*
X001680Y027289D01*
X001680Y026829D02*
X001613Y026829D01*
X001546Y026762D01*
X001546Y026629D01*
X001479Y026562D01*
X001413Y026562D01*
X001346Y026629D01*
X001346Y026762D01*
X001413Y026829D01*
X001346Y026369D02*
X001680Y026369D01*
X001746Y026302D01*
X001746Y026169D01*
X001680Y026102D01*
X001346Y026102D01*
X001680Y026562D02*
X001746Y026629D01*
X001746Y026762D01*
X001680Y026829D01*
X003996Y025302D02*
X004546Y024902D01*
X004546Y025702D01*
X003996Y025302D01*
X002927Y022002D02*
X002727Y022002D01*
X002727Y021602D01*
X002727Y021735D02*
X002927Y021735D01*
X002994Y021802D01*
X002994Y021935D01*
X002927Y022002D01*
X002861Y021735D02*
X002994Y021602D01*
X002534Y021602D02*
X002267Y021602D01*
X002267Y022002D01*
X002534Y022002D01*
X002400Y021802D02*
X002267Y021802D01*
X002073Y021735D02*
X002073Y021669D01*
X002007Y021602D01*
X001873Y021602D01*
X001807Y021669D01*
X001873Y021802D02*
X001807Y021869D01*
X001807Y021935D01*
X001873Y022002D01*
X002007Y022002D01*
X002073Y021935D01*
X002007Y021802D02*
X002073Y021735D01*
X002007Y021802D02*
X001873Y021802D01*
X001613Y021669D02*
X001613Y022002D01*
X001346Y022002D02*
X001346Y021669D01*
X001413Y021602D01*
X001546Y021602D01*
X001613Y021669D01*
X004346Y018616D02*
X004746Y018616D01*
X004746Y018483D02*
X004746Y018750D01*
X004680Y018289D02*
X004413Y018289D01*
X004346Y018223D01*
X004346Y018023D01*
X004746Y018023D01*
X004746Y018223D01*
X004680Y018289D01*
X004479Y018483D02*
X004346Y018616D01*
X004346Y017829D02*
X004346Y017562D01*
X004746Y017562D01*
X004746Y017829D01*
X004546Y017696D02*
X004546Y017562D01*
X004746Y017369D02*
X004746Y017102D01*
X004346Y017102D01*
X007696Y012952D02*
X008046Y012952D01*
X008046Y012602D01*
X009296Y011852D02*
X008896Y011302D01*
X009696Y011302D01*
X009296Y011852D01*
X009296Y013602D02*
X009229Y013669D01*
X009229Y013869D01*
X009096Y013869D02*
X009496Y013869D01*
X009496Y013669D01*
X009430Y013602D01*
X009296Y013602D01*
X009296Y014062D02*
X009229Y014129D01*
X009229Y014262D01*
X009296Y014329D01*
X009363Y014329D01*
X009363Y014062D01*
X009430Y014062D02*
X009296Y014062D01*
X009430Y014062D02*
X009496Y014129D01*
X009496Y014262D01*
X009846Y014262D02*
X009913Y014329D01*
X010046Y014329D01*
X010113Y014262D01*
X010113Y014062D01*
X010246Y014062D02*
X009846Y014062D01*
X009846Y014262D01*
X009846Y014523D02*
X009846Y014723D01*
X009913Y014789D01*
X009979Y014789D01*
X010046Y014723D01*
X010046Y014523D01*
X010046Y014723D02*
X010113Y014789D01*
X010180Y014789D01*
X010246Y014723D01*
X010246Y014523D01*
X009846Y014523D01*
X009496Y014656D02*
X009229Y014789D01*
X009296Y014983D02*
X009296Y015250D01*
X009163Y015443D02*
X009096Y015510D01*
X009096Y015643D01*
X009163Y015710D01*
X009229Y015710D01*
X009496Y015443D01*
X009496Y015710D01*
X009846Y015250D02*
X009846Y014983D01*
X009846Y015116D02*
X010246Y015116D01*
X010180Y015443D02*
X010046Y015443D01*
X009979Y015510D01*
X009979Y015643D01*
X010046Y015710D01*
X010113Y015710D01*
X010113Y015443D01*
X010180Y015443D02*
X010246Y015510D01*
X010246Y015643D01*
X010180Y015904D02*
X010113Y015970D01*
X010113Y016171D01*
X010046Y016171D02*
X010246Y016171D01*
X010246Y015970D01*
X010180Y015904D01*
X009979Y015970D02*
X009979Y016104D01*
X010046Y016171D01*
X009979Y016364D02*
X009979Y016431D01*
X010046Y016497D01*
X009979Y016564D01*
X010046Y016631D01*
X010246Y016631D01*
X010246Y016497D02*
X010046Y016497D01*
X009979Y016364D02*
X010246Y016364D01*
X010246Y017285D02*
X009979Y017552D01*
X009913Y017552D01*
X009846Y017485D01*
X009846Y017351D01*
X009913Y017285D01*
X010246Y017285D02*
X010246Y017552D01*
X010180Y017745D02*
X009913Y018012D01*
X010180Y018012D01*
X010246Y017945D01*
X010246Y017812D01*
X010180Y017745D01*
X009913Y017745D01*
X009846Y017812D01*
X009846Y017945D01*
X009913Y018012D01*
X009913Y018205D02*
X009846Y018272D01*
X009846Y018406D01*
X009913Y018472D01*
X010180Y018205D01*
X010246Y018272D01*
X010246Y018406D01*
X010180Y018472D01*
X009913Y018472D01*
X009913Y018666D02*
X009979Y018666D01*
X010046Y018732D01*
X010046Y018866D01*
X010113Y018933D01*
X010180Y018933D01*
X010246Y018866D01*
X010246Y018732D01*
X010180Y018666D01*
X010113Y018666D01*
X010046Y018732D01*
X010046Y018866D02*
X009979Y018933D01*
X009913Y018933D01*
X009846Y018866D01*
X009846Y018732D01*
X009913Y018666D01*
X009913Y018205D02*
X010180Y018205D01*
X009496Y014656D02*
X009229Y014523D01*
X009979Y013869D02*
X009846Y013735D01*
X009979Y013602D01*
X010246Y013602D01*
X010046Y013602D02*
X010046Y013869D01*
X009979Y013869D02*
X010246Y013869D01*
X011730Y011502D02*
X011863Y011502D01*
X011796Y011502D02*
X011796Y011169D01*
X011730Y011102D01*
X011663Y011102D01*
X011596Y011169D01*
X012057Y011502D02*
X012323Y011502D01*
X012190Y011502D02*
X012190Y011102D01*
X012517Y011102D02*
X012517Y011369D01*
X012650Y011502D01*
X012784Y011369D01*
X012784Y011102D01*
X012784Y011302D02*
X012517Y011302D01*
X012977Y011169D02*
X013044Y011102D01*
X013177Y011102D01*
X013244Y011169D01*
X013244Y011302D01*
X013111Y011302D01*
X013244Y011435D02*
X013177Y011502D01*
X013044Y011502D01*
X012977Y011435D01*
X012977Y011169D01*
X013438Y011035D02*
X013705Y011035D01*
X013898Y011102D02*
X014098Y011102D01*
X014165Y011169D01*
X014165Y011235D01*
X014098Y011302D01*
X013898Y011302D01*
X013898Y011102D02*
X013898Y011502D01*
X014098Y011502D01*
X014165Y011435D01*
X014165Y011369D01*
X014098Y011302D01*
X014358Y011502D02*
X014358Y011102D01*
X014625Y011102D01*
X014846Y011602D02*
X015246Y011602D01*
X015246Y011869D01*
X015246Y012062D02*
X014846Y012329D01*
X014846Y012523D02*
X014846Y012789D01*
X014846Y012656D02*
X015246Y012656D01*
X015246Y012329D02*
X014846Y012062D01*
X014846Y011869D02*
X014846Y011602D01*
X015046Y011602D02*
X015046Y011735D01*
X016746Y010552D02*
X016746Y009952D01*
X016746Y010552D02*
X018296Y010552D01*
X018796Y010052D01*
X018796Y009952D01*
X018796Y009152D02*
X018796Y009052D01*
X018296Y008552D01*
X016746Y008552D01*
X016746Y009152D01*
X016446Y014402D02*
X016196Y014402D01*
X016446Y014652D01*
X016446Y014402D01*
X015746Y015102D01*
X015873Y015352D02*
X015807Y015419D01*
X015807Y015552D01*
X015873Y015619D01*
X016007Y015619D01*
X016073Y015552D01*
X016073Y015419D01*
X016007Y015352D01*
X015873Y015352D01*
X015613Y015352D02*
X015613Y015752D01*
X015346Y015752D02*
X015346Y015352D01*
X015613Y015352D02*
X015346Y015752D01*
X016727Y015752D02*
X016727Y015352D01*
X016927Y015352D01*
X016994Y015419D01*
X016994Y015685D01*
X016927Y015752D01*
X016727Y015752D01*
X017188Y015752D02*
X017188Y015352D01*
X017455Y015352D01*
X017648Y015485D02*
X017781Y015352D01*
X017915Y015485D01*
X017915Y015752D01*
X018108Y015752D02*
X018309Y015752D01*
X018375Y015685D01*
X018375Y015552D01*
X018309Y015485D01*
X018108Y015485D01*
X018108Y015352D02*
X018108Y015752D01*
X017648Y015752D02*
X017648Y015485D01*
X017455Y015752D02*
X017188Y015752D01*
X017188Y015552D02*
X017321Y015552D01*
X018569Y015352D02*
X018702Y015485D01*
X018836Y015352D01*
X018836Y015752D01*
X019029Y015752D02*
X019029Y015352D01*
X019029Y015485D02*
X019229Y015485D01*
X019296Y015552D01*
X019296Y015685D01*
X019229Y015752D01*
X019029Y015752D01*
X019162Y015485D02*
X019296Y015352D01*
X019489Y015352D02*
X019489Y015419D01*
X019489Y015552D02*
X019489Y015819D01*
X018569Y015752D02*
X018569Y015352D01*
X013546Y013852D02*
X013546Y013652D01*
X013346Y013652D01*
X011680Y009091D02*
X011546Y009091D01*
X011546Y008958D01*
X011413Y009091D02*
X011346Y009025D01*
X011346Y008891D01*
X011413Y008824D01*
X011680Y008824D01*
X011746Y008891D01*
X011746Y009025D01*
X011680Y009091D01*
X011746Y008631D02*
X011613Y008497D01*
X011613Y008564D02*
X011613Y008364D01*
X011746Y008364D02*
X011346Y008364D01*
X011346Y008564D01*
X011413Y008631D01*
X011546Y008631D01*
X011613Y008564D01*
X011546Y008171D02*
X011413Y008171D01*
X011346Y008104D01*
X011346Y007904D01*
X011746Y007904D01*
X011613Y007904D02*
X011613Y008104D01*
X011546Y008171D01*
X011813Y007710D02*
X011813Y007443D01*
X011680Y007250D02*
X011546Y007250D01*
X011546Y007116D01*
X011413Y006983D02*
X011680Y006983D01*
X011746Y007050D01*
X011746Y007183D01*
X011680Y007250D01*
X011413Y007250D02*
X011346Y007183D01*
X011346Y007050D01*
X011413Y006983D01*
X011479Y006789D02*
X011746Y006789D01*
X011546Y006789D02*
X011546Y006523D01*
X011479Y006523D02*
X011346Y006656D01*
X011479Y006789D01*
X011479Y006523D02*
X011746Y006523D01*
X011746Y006196D02*
X011346Y006196D01*
X011346Y006329D02*
X011346Y006062D01*
X011346Y005869D02*
X011346Y005735D01*
X011346Y005802D02*
X011680Y005802D01*
X011746Y005735D01*
X011746Y005669D01*
X011680Y005602D01*
X012163Y006352D02*
X012096Y006419D01*
X012096Y006552D01*
X012163Y006619D01*
X012229Y006619D01*
X012296Y006552D01*
X012363Y006619D01*
X012430Y006619D01*
X012496Y006552D01*
X012496Y006419D01*
X012430Y006352D01*
X012296Y006485D02*
X012296Y006552D01*
X012163Y007352D02*
X012096Y007419D01*
X012096Y007552D01*
X012163Y007619D01*
X012229Y007619D01*
X012496Y007352D01*
X012496Y007619D01*
X012496Y008352D02*
X012496Y008619D01*
X012496Y008485D02*
X012096Y008485D01*
X012229Y008352D01*
X012136Y004252D02*
X012136Y003852D01*
X012269Y003985D01*
X012403Y003852D01*
X012403Y004252D01*
X011942Y004185D02*
X011942Y004052D01*
X011876Y003985D01*
X011675Y003985D01*
X011675Y003852D02*
X011675Y004252D01*
X011876Y004252D01*
X011942Y004185D01*
X011482Y004185D02*
X011482Y004119D01*
X011415Y004052D01*
X011215Y004052D01*
X011215Y003852D02*
X011415Y003852D01*
X011482Y003919D01*
X011482Y003985D01*
X011415Y004052D01*
X011482Y004185D02*
X011415Y004252D01*
X011215Y004252D01*
X011215Y003852D01*
X011022Y003919D02*
X010955Y003852D01*
X010821Y003852D01*
X010755Y003919D01*
X010821Y004052D02*
X010955Y004052D01*
X011022Y003985D01*
X011022Y003919D01*
X010821Y004052D02*
X010755Y004119D01*
X010755Y004185D01*
X010821Y004252D01*
X010955Y004252D01*
X011022Y004185D01*
X010561Y004252D02*
X010561Y003919D01*
X010494Y003852D01*
X010361Y003852D01*
X010294Y003919D01*
X010294Y004252D01*
X010346Y024552D02*
X010346Y024752D01*
X010546Y024752D01*
X010913Y027852D02*
X010846Y027919D01*
X010913Y027852D02*
X010980Y027852D01*
X011046Y027919D01*
X011046Y028252D01*
X010980Y028252D02*
X011113Y028252D01*
X011307Y028252D02*
X011573Y028252D01*
X011440Y028252D02*
X011440Y027852D01*
X011767Y027852D02*
X011767Y028119D01*
X011900Y028252D01*
X012034Y028119D01*
X012034Y027852D01*
X012034Y028052D02*
X011767Y028052D01*
X012227Y027919D02*
X012294Y027852D01*
X012427Y027852D01*
X012494Y027919D01*
X012494Y028052D01*
X012361Y028052D01*
X012494Y028185D02*
X012427Y028252D01*
X012294Y028252D01*
X012227Y028185D01*
X012227Y027919D01*
X012688Y027852D02*
X012821Y027852D01*
X012754Y027852D02*
X012754Y028252D01*
X012688Y028252D02*
X012821Y028252D01*
X015396Y028052D02*
X015796Y027502D01*
X016196Y028052D01*
X015396Y028052D01*
X016746Y027202D02*
X017396Y026552D01*
X017646Y026552D01*
X016746Y027202D02*
X016746Y029102D01*
X017646Y029102D01*
X018446Y029102D02*
X019346Y029102D01*
X019346Y027202D01*
X018696Y026552D01*
X018546Y026552D01*
X014496Y032602D02*
X014496Y032802D01*
X014430Y032869D01*
X014163Y032869D01*
X014096Y032802D01*
X014096Y032602D01*
X014496Y032602D01*
X014430Y033062D02*
X014496Y033129D01*
X014496Y033262D01*
X014430Y033329D01*
X014430Y033062D02*
X014163Y033062D01*
X014096Y033129D01*
X014096Y033262D01*
X014163Y033329D01*
M02*
