G75*
G70*
%OFA0B0*%
%FSLAX24Y24*%
%IPPOS*%
%LPD*%
%AMOC8*
5,1,8,0,0,1.08239X$1,22.5*
%
%ADD10C,0.0000*%
%ADD11C,0.0080*%
%ADD12OC8,0.0600*%
%ADD13C,0.0634*%
%ADD14C,0.0100*%
D10*
X000161Y000151D02*
X000161Y006151D01*
X006411Y006151D01*
X006411Y000151D01*
X000161Y000151D01*
D11*
X000451Y000441D02*
X000451Y000721D01*
X000591Y000862D01*
X000731Y000721D01*
X000731Y000441D01*
X000912Y000441D02*
X000912Y000862D01*
X001122Y000862D01*
X001192Y000791D01*
X001192Y000651D01*
X001122Y000581D01*
X000912Y000581D01*
X000731Y000651D02*
X000451Y000651D01*
X001372Y000651D02*
X001582Y000651D01*
X001652Y000581D01*
X001652Y000511D01*
X001582Y000441D01*
X001372Y000441D01*
X001372Y000862D01*
X001582Y000862D01*
X001652Y000791D01*
X001652Y000721D01*
X001582Y000651D01*
X001832Y000862D02*
X002113Y000862D01*
X001972Y000862D02*
X001972Y000441D01*
X002293Y000511D02*
X002293Y000651D01*
X002363Y000721D01*
X002503Y000721D01*
X002573Y000651D01*
X002573Y000581D01*
X002293Y000581D01*
X002293Y000511D02*
X002363Y000441D01*
X002503Y000441D01*
X002753Y000511D02*
X002823Y000581D01*
X003033Y000581D01*
X003033Y000651D02*
X003033Y000441D01*
X002823Y000441D01*
X002753Y000511D01*
X002823Y000721D02*
X002963Y000721D01*
X003033Y000651D01*
X003213Y000721D02*
X003283Y000721D01*
X003354Y000651D01*
X003424Y000721D01*
X003494Y000651D01*
X003494Y000441D01*
X003354Y000441D02*
X003354Y000651D01*
X003213Y000721D02*
X003213Y000441D01*
D12*
X002411Y002151D03*
X001411Y002151D03*
X001411Y003151D03*
X001411Y004151D03*
X002411Y004151D03*
X002411Y003151D03*
D13*
X004844Y003151D02*
X005478Y003151D01*
X005478Y002151D02*
X004844Y002151D01*
X004844Y001151D02*
X005478Y001151D01*
X005478Y004151D02*
X004844Y004151D01*
X004844Y005151D02*
X005478Y005151D01*
D14*
X005210Y005177D02*
X006261Y005177D01*
X006261Y005078D02*
X005939Y005078D01*
X005943Y005103D02*
X005210Y005103D01*
X005210Y005200D01*
X005113Y005200D01*
X005113Y005618D01*
X004808Y005618D01*
X004735Y005606D01*
X004665Y005584D01*
X004600Y005550D01*
X004540Y005507D01*
X004488Y005455D01*
X004445Y005396D01*
X004412Y005330D01*
X004389Y005261D01*
X004379Y005200D01*
X005113Y005200D01*
X005113Y005103D01*
X004379Y005103D01*
X004389Y005042D01*
X004412Y004972D01*
X004445Y004906D01*
X004488Y004847D01*
X004540Y004795D01*
X004600Y004752D01*
X004665Y004719D01*
X004735Y004696D01*
X004808Y004684D01*
X005113Y004684D01*
X005113Y005102D01*
X005210Y005102D01*
X005210Y004684D01*
X005515Y004684D01*
X005587Y004696D01*
X005657Y004719D01*
X005723Y004752D01*
X005782Y004795D01*
X005834Y004847D01*
X005877Y004906D01*
X005911Y004972D01*
X005933Y005042D01*
X005943Y005103D01*
X005943Y005200D02*
X005933Y005261D01*
X005911Y005330D01*
X005877Y005396D01*
X005834Y005455D01*
X005782Y005507D01*
X005723Y005550D01*
X005657Y005584D01*
X005587Y005606D01*
X005515Y005618D01*
X005210Y005618D01*
X005210Y005200D01*
X005943Y005200D01*
X005929Y005275D02*
X006261Y005275D01*
X006261Y005374D02*
X005889Y005374D01*
X005817Y005473D02*
X006261Y005473D01*
X006261Y005571D02*
X005682Y005571D01*
X005210Y005571D02*
X005113Y005571D01*
X005113Y005473D02*
X005210Y005473D01*
X005210Y005374D02*
X005113Y005374D01*
X005113Y005275D02*
X005210Y005275D01*
X005113Y005177D02*
X000311Y005177D01*
X000311Y005078D02*
X004383Y005078D01*
X004409Y004980D02*
X000311Y004980D01*
X000311Y004881D02*
X004463Y004881D01*
X004557Y004783D02*
X000311Y004783D01*
X000311Y004684D02*
X006261Y004684D01*
X006261Y004783D02*
X005765Y004783D01*
X005859Y004881D02*
X006261Y004881D01*
X006261Y004980D02*
X005913Y004980D01*
X005743Y004547D02*
X005571Y004618D01*
X004751Y004618D01*
X004580Y004547D01*
X004449Y004416D01*
X004378Y004244D01*
X004378Y004058D01*
X004449Y003887D01*
X004580Y003755D01*
X004751Y003684D01*
X005571Y003684D01*
X005743Y003755D01*
X005874Y003887D01*
X005945Y004058D01*
X005945Y004244D01*
X005874Y004416D01*
X005743Y004547D01*
X005802Y004487D02*
X006261Y004487D01*
X006261Y004586D02*
X005649Y004586D01*
X005885Y004389D02*
X006261Y004389D01*
X006261Y004290D02*
X005926Y004290D01*
X005945Y004191D02*
X006261Y004191D01*
X006261Y004093D02*
X005945Y004093D01*
X005918Y003994D02*
X006261Y003994D01*
X006261Y003896D02*
X005878Y003896D01*
X005784Y003797D02*
X006261Y003797D01*
X006261Y003699D02*
X005606Y003699D01*
X005571Y003618D02*
X005743Y003547D01*
X005874Y003416D01*
X005945Y003244D01*
X005945Y003058D01*
X005874Y002887D01*
X005743Y002755D01*
X005571Y002684D01*
X004751Y002684D01*
X004580Y002755D01*
X004449Y002887D01*
X004378Y003058D01*
X004378Y003244D01*
X004449Y003416D01*
X004580Y003547D01*
X004751Y003618D01*
X005571Y003618D01*
X005614Y003600D02*
X006261Y003600D01*
X006261Y003502D02*
X005788Y003502D01*
X005879Y003403D02*
X006261Y003403D01*
X006261Y003305D02*
X005920Y003305D01*
X005945Y003206D02*
X006261Y003206D01*
X006261Y003107D02*
X005945Y003107D01*
X005924Y003009D02*
X006261Y003009D01*
X006261Y002910D02*
X005884Y002910D01*
X005799Y002812D02*
X006261Y002812D01*
X006261Y002713D02*
X005641Y002713D01*
X005579Y002615D02*
X006261Y002615D01*
X006261Y002516D02*
X005773Y002516D01*
X005743Y002547D02*
X005571Y002618D01*
X004751Y002618D01*
X004580Y002547D01*
X004449Y002416D01*
X004378Y002244D01*
X004378Y002058D01*
X004449Y001887D01*
X004580Y001755D01*
X004751Y001684D01*
X005571Y001684D01*
X005743Y001755D01*
X005874Y001887D01*
X005945Y002058D01*
X005945Y002244D01*
X005874Y002416D01*
X005743Y002547D01*
X005872Y002418D02*
X006261Y002418D01*
X006261Y002319D02*
X005914Y002319D01*
X005945Y002221D02*
X006261Y002221D01*
X006261Y002122D02*
X005945Y002122D01*
X005931Y002024D02*
X006261Y002024D01*
X006261Y001925D02*
X005890Y001925D01*
X005814Y001826D02*
X006261Y001826D01*
X006261Y001728D02*
X005676Y001728D01*
X005571Y001618D02*
X005743Y001547D01*
X005874Y001416D01*
X005945Y001244D01*
X005945Y001058D01*
X005874Y000887D01*
X005743Y000755D01*
X005571Y000684D01*
X004751Y000684D01*
X004580Y000755D01*
X004449Y000887D01*
X004378Y001058D01*
X004378Y001244D01*
X004449Y001416D01*
X004580Y001547D01*
X004751Y001618D01*
X005571Y001618D01*
X005759Y001531D02*
X006261Y001531D01*
X006261Y001432D02*
X005857Y001432D01*
X005908Y001334D02*
X006261Y001334D01*
X006261Y001235D02*
X005945Y001235D01*
X005945Y001137D02*
X006261Y001137D01*
X006261Y001038D02*
X005937Y001038D01*
X005896Y000940D02*
X006261Y000940D01*
X006261Y000841D02*
X005828Y000841D01*
X005711Y000742D02*
X006261Y000742D01*
X006261Y000644D02*
X003684Y000644D01*
X003684Y000545D02*
X006261Y000545D01*
X006261Y000447D02*
X003684Y000447D01*
X003684Y000362D02*
X003684Y000730D01*
X003572Y000841D01*
X003502Y000911D01*
X003424Y000911D01*
X003345Y000911D01*
X003205Y000911D01*
X003135Y000911D01*
X003088Y000865D01*
X003042Y000911D01*
X002884Y000911D01*
X002744Y000911D01*
X002663Y000830D01*
X002652Y000841D01*
X002674Y000841D01*
X002652Y000841D02*
X002582Y000911D01*
X002441Y000911D01*
X002363Y000911D01*
X002303Y000911D01*
X002303Y000940D01*
X002191Y001051D01*
X001754Y001051D01*
X001707Y001005D01*
X001661Y001051D01*
X001503Y001051D01*
X001293Y001051D01*
X001247Y001005D01*
X001200Y001051D01*
X001043Y001051D01*
X000833Y001051D01*
X000751Y000970D01*
X000670Y001051D01*
X000513Y001051D01*
X000401Y000940D01*
X000311Y000850D01*
X000311Y006001D01*
X006261Y006001D01*
X006261Y000301D01*
X003622Y000301D01*
X003684Y000362D01*
X003669Y000348D02*
X006261Y000348D01*
X006261Y001629D02*
X000311Y001629D01*
X000311Y001728D02*
X001198Y001728D01*
X001225Y001701D02*
X001598Y001701D01*
X001861Y001965D01*
X001861Y002338D01*
X001598Y002601D01*
X001225Y002601D01*
X000961Y002338D01*
X000961Y001965D01*
X001225Y001701D01*
X001100Y001826D02*
X000311Y001826D01*
X000311Y001925D02*
X001001Y001925D01*
X000961Y002024D02*
X000311Y002024D01*
X000311Y002122D02*
X000961Y002122D01*
X000961Y002221D02*
X000311Y002221D01*
X000311Y002319D02*
X000961Y002319D01*
X001041Y002418D02*
X000311Y002418D01*
X000311Y002516D02*
X001140Y002516D01*
X001225Y002701D02*
X000961Y002965D01*
X000961Y003111D01*
X001371Y003111D01*
X001371Y003191D01*
X000961Y003191D01*
X000961Y003338D01*
X001225Y003601D01*
X001371Y003601D01*
X001371Y003191D01*
X001451Y003191D01*
X001451Y003601D01*
X001598Y003601D01*
X001861Y003338D01*
X001861Y003191D01*
X001451Y003191D01*
X001451Y003111D01*
X001451Y002701D01*
X001598Y002701D01*
X001861Y002965D01*
X001861Y003111D01*
X001451Y003111D01*
X001371Y003111D01*
X001371Y002701D01*
X001225Y002701D01*
X001213Y002713D02*
X000311Y002713D01*
X000311Y002615D02*
X004744Y002615D01*
X004682Y002713D02*
X002610Y002713D01*
X002598Y002701D02*
X002861Y002965D01*
X002861Y003338D01*
X002598Y003601D01*
X002225Y003601D01*
X001961Y003338D01*
X001961Y002965D01*
X002225Y002701D01*
X002598Y002701D01*
X002598Y002601D02*
X002225Y002601D01*
X001961Y002338D01*
X001961Y001965D01*
X002225Y001701D01*
X002598Y001701D01*
X002861Y001965D01*
X002861Y002338D01*
X002598Y002601D01*
X002683Y002516D02*
X004549Y002516D01*
X004451Y002418D02*
X002781Y002418D01*
X002861Y002319D02*
X004409Y002319D01*
X004378Y002221D02*
X002861Y002221D01*
X002861Y002122D02*
X004378Y002122D01*
X004392Y002024D02*
X002861Y002024D01*
X002821Y001925D02*
X004433Y001925D01*
X004509Y001826D02*
X002723Y001826D01*
X002624Y001728D02*
X004646Y001728D01*
X004564Y001531D02*
X000311Y001531D01*
X000311Y001432D02*
X004465Y001432D01*
X004415Y001334D02*
X000311Y001334D01*
X000311Y001235D02*
X004378Y001235D01*
X004378Y001137D02*
X000311Y001137D01*
X000311Y001038D02*
X000499Y001038D01*
X000401Y000940D02*
X000311Y000940D01*
X000684Y001038D02*
X000819Y001038D01*
X001214Y001038D02*
X001280Y001038D01*
X001674Y001038D02*
X001740Y001038D01*
X002205Y001038D02*
X004386Y001038D01*
X004427Y000940D02*
X002303Y000940D01*
X002441Y000911D02*
X002441Y000911D01*
X002198Y001728D02*
X001624Y001728D01*
X001723Y001826D02*
X002100Y001826D01*
X002001Y001925D02*
X001821Y001925D01*
X001861Y002024D02*
X001961Y002024D01*
X001961Y002122D02*
X001861Y002122D01*
X001861Y002221D02*
X001961Y002221D01*
X001961Y002319D02*
X001861Y002319D01*
X001781Y002418D02*
X002041Y002418D01*
X002140Y002516D02*
X001683Y002516D01*
X001610Y002713D02*
X002213Y002713D01*
X002114Y002812D02*
X001708Y002812D01*
X001807Y002910D02*
X002016Y002910D01*
X001961Y003009D02*
X001861Y003009D01*
X001861Y003107D02*
X001961Y003107D01*
X001961Y003206D02*
X001861Y003206D01*
X001861Y003305D02*
X001961Y003305D01*
X002027Y003403D02*
X001796Y003403D01*
X001697Y003502D02*
X002125Y003502D01*
X002224Y003600D02*
X001599Y003600D01*
X001598Y003701D02*
X001861Y003965D01*
X001861Y004338D01*
X001598Y004601D01*
X001225Y004601D01*
X000961Y004338D01*
X000961Y003965D01*
X001225Y003701D01*
X001598Y003701D01*
X001694Y003797D02*
X002129Y003797D01*
X002225Y003701D02*
X002598Y003701D01*
X002861Y003965D01*
X002861Y004338D01*
X002598Y004601D01*
X002225Y004601D01*
X001961Y004338D01*
X001961Y003965D01*
X002225Y003701D01*
X002030Y003896D02*
X001792Y003896D01*
X001861Y003994D02*
X001961Y003994D01*
X001961Y004093D02*
X001861Y004093D01*
X001861Y004191D02*
X001961Y004191D01*
X001961Y004290D02*
X001861Y004290D01*
X001810Y004389D02*
X002012Y004389D01*
X002111Y004487D02*
X001712Y004487D01*
X001613Y004586D02*
X002209Y004586D01*
X002613Y004586D02*
X004673Y004586D01*
X004520Y004487D02*
X002712Y004487D01*
X002810Y004389D02*
X004437Y004389D01*
X004397Y004290D02*
X002861Y004290D01*
X002861Y004191D02*
X004378Y004191D01*
X004378Y004093D02*
X002861Y004093D01*
X002861Y003994D02*
X004404Y003994D01*
X004445Y003896D02*
X002792Y003896D01*
X002694Y003797D02*
X004538Y003797D01*
X004717Y003699D02*
X000311Y003699D01*
X000311Y003797D02*
X001129Y003797D01*
X001030Y003896D02*
X000311Y003896D01*
X000311Y003994D02*
X000961Y003994D01*
X000961Y004093D02*
X000311Y004093D01*
X000311Y004191D02*
X000961Y004191D01*
X000961Y004290D02*
X000311Y004290D01*
X000311Y004389D02*
X001012Y004389D01*
X001111Y004487D02*
X000311Y004487D01*
X000311Y004586D02*
X001209Y004586D01*
X000311Y005275D02*
X004394Y005275D01*
X004434Y005374D02*
X000311Y005374D01*
X000311Y005473D02*
X004506Y005473D01*
X004640Y005571D02*
X000311Y005571D01*
X000311Y005670D02*
X006261Y005670D01*
X006261Y005768D02*
X000311Y005768D01*
X000311Y005867D02*
X006261Y005867D01*
X006261Y005965D02*
X000311Y005965D01*
X000311Y003600D02*
X001224Y003600D01*
X001125Y003502D02*
X000311Y003502D01*
X000311Y003403D02*
X001027Y003403D01*
X000961Y003305D02*
X000311Y003305D01*
X000311Y003206D02*
X000961Y003206D01*
X000961Y003107D02*
X000311Y003107D01*
X000311Y003009D02*
X000961Y003009D01*
X001016Y002910D02*
X000311Y002910D01*
X000311Y002812D02*
X001114Y002812D01*
X001371Y002812D02*
X001451Y002812D01*
X001451Y002910D02*
X001371Y002910D01*
X001371Y003009D02*
X001451Y003009D01*
X001451Y003107D02*
X001371Y003107D01*
X001371Y003206D02*
X001451Y003206D01*
X001451Y003305D02*
X001371Y003305D01*
X001371Y003403D02*
X001451Y003403D01*
X001451Y003502D02*
X001371Y003502D01*
X001371Y003600D02*
X001451Y003600D01*
X001451Y002713D02*
X001371Y002713D01*
X002599Y003600D02*
X004709Y003600D01*
X004535Y003502D02*
X002697Y003502D01*
X002796Y003403D02*
X004443Y003403D01*
X004403Y003305D02*
X002861Y003305D01*
X002861Y003206D02*
X004378Y003206D01*
X004378Y003107D02*
X002861Y003107D01*
X002861Y003009D02*
X004398Y003009D01*
X004439Y002910D02*
X002807Y002910D01*
X002708Y002812D02*
X004524Y002812D01*
X003502Y000911D02*
X003502Y000911D01*
X003502Y000911D01*
X003573Y000841D02*
X004494Y000841D01*
X004611Y000742D02*
X003671Y000742D01*
X005113Y004783D02*
X005210Y004783D01*
X005210Y004881D02*
X005113Y004881D01*
X005113Y004980D02*
X005210Y004980D01*
X005210Y005078D02*
X005113Y005078D01*
M02*
