G75*
G70*
%OFA0B0*%
%FSLAX24Y24*%
%IPPOS*%
%LPD*%
%AMOC8*
5,1,8,0,0,1.08239X$1,22.5*
%
%ADD10C,0.0080*%
D10*
X000425Y004691D02*
X000636Y004691D01*
X000706Y004761D01*
X000706Y004901D01*
X000636Y004971D01*
X000425Y004971D01*
X000886Y004901D02*
X000886Y004691D01*
X000886Y004901D02*
X000956Y004971D01*
X001166Y004971D01*
X001166Y004691D01*
X001346Y004831D02*
X001346Y004901D01*
X001416Y004971D01*
X001556Y004971D01*
X001626Y004901D01*
X001626Y004761D01*
X001556Y004691D01*
X001416Y004691D01*
X001346Y004831D02*
X001626Y004831D01*
X001807Y004901D02*
X002087Y004901D01*
X002254Y004691D02*
X002394Y004691D01*
X002324Y004691D02*
X002324Y005112D01*
X002394Y005112D01*
X002574Y004971D02*
X002574Y004691D01*
X002784Y004691D01*
X002854Y004761D01*
X002854Y004971D01*
X003034Y004901D02*
X003034Y004691D01*
X003244Y004691D01*
X003314Y004761D01*
X003244Y004831D01*
X003034Y004831D01*
X003034Y004901D02*
X003104Y004971D01*
X003244Y004971D01*
X003481Y004901D02*
X003621Y004901D01*
X003551Y005041D02*
X003481Y005112D01*
X003551Y005041D02*
X003551Y004691D01*
X003621Y005441D02*
X003621Y005721D01*
X003481Y005862D01*
X003341Y005721D01*
X003341Y005441D01*
X003161Y005441D02*
X003161Y005862D01*
X002951Y005862D01*
X002881Y005791D01*
X002881Y005651D01*
X002951Y005581D01*
X003161Y005581D01*
X003341Y005651D02*
X003621Y005651D01*
X002701Y005651D02*
X002490Y005651D01*
X002420Y005581D01*
X002420Y005511D01*
X002490Y005441D01*
X002701Y005441D01*
X002701Y005862D01*
X002490Y005862D01*
X002420Y005791D01*
X002420Y005721D01*
X002490Y005651D01*
X002240Y005862D02*
X001960Y005862D01*
X002100Y005862D02*
X002100Y005441D01*
X001780Y005511D02*
X001780Y005651D01*
X001710Y005721D01*
X001570Y005721D01*
X001500Y005651D01*
X001500Y005581D01*
X001780Y005581D01*
X001780Y005511D02*
X001710Y005441D01*
X001570Y005441D01*
X001319Y005511D02*
X001249Y005581D01*
X001039Y005581D01*
X001039Y005651D02*
X001039Y005441D01*
X001249Y005441D01*
X001319Y005511D01*
X001249Y005721D02*
X001109Y005721D01*
X001039Y005651D01*
X000859Y005721D02*
X000789Y005721D01*
X000719Y005651D01*
X000649Y005721D01*
X000579Y005651D01*
X000579Y005441D01*
X000719Y005441D02*
X000719Y005651D01*
X000859Y005721D02*
X000859Y005441D01*
M02*
