G75*
G70*
%OFA0B0*%
%FSLAX24Y24*%
%IPPOS*%
%LPD*%
%AMOC8*
5,1,8,0,0,1.08239X$1,22.5*
%
%ADD10C,0.0110*%
%ADD11R,0.0551X0.1496*%
%ADD12R,0.0710X0.0630*%
%ADD13R,0.0236X0.0866*%
%ADD14R,0.1260X0.0709*%
%ADD15R,0.0866X0.0236*%
%ADD16R,0.0709X0.1260*%
%ADD17R,0.0340X0.0400*%
%ADD18R,0.0400X0.0340*%
%ADD19R,0.0236X0.0189*%
%ADD20R,0.0276X0.0157*%
%ADD21C,0.0520*%
%ADD22R,0.0433X0.0394*%
%ADD23R,0.0551X0.0394*%
%ADD24R,0.0394X0.0433*%
%ADD25R,0.0728X0.2165*%
%ADD26O,0.0520X0.1040*%
%ADD27OC8,0.0560*%
%ADD28C,0.0068*%
%ADD29C,0.2300*%
%ADD30O,0.0825X0.1650*%
%ADD31R,0.0591X0.1409*%
%ADD32OC8,0.0600*%
%ADD33OC8,0.0760*%
%ADD34C,0.0160*%
%ADD35C,0.0240*%
%ADD36C,0.0100*%
%ADD37OC8,0.0400*%
%ADD38C,0.0120*%
%ADD39C,0.0500*%
%ADD40C,0.1500*%
%ADD41C,0.0700*%
%ADD42C,0.1000*%
%ADD43C,0.0860*%
%ADD44C,0.0400*%
%ADD45C,0.0660*%
%ADD46OC8,0.0500*%
D10*
X030791Y004897D02*
X030988Y005093D01*
X030791Y005290D01*
X031382Y005290D01*
X031284Y005541D02*
X031087Y005541D01*
X030988Y005640D01*
X030988Y005836D01*
X031087Y005935D01*
X031284Y005935D01*
X031382Y005836D01*
X031382Y005640D01*
X031284Y005541D01*
X030988Y006186D02*
X030988Y006383D01*
X030890Y006284D02*
X031284Y006284D01*
X031382Y006383D01*
X031284Y006615D02*
X031087Y006615D01*
X030988Y006714D01*
X030988Y006911D01*
X031087Y007009D01*
X031284Y007009D01*
X031382Y006911D01*
X031382Y006714D01*
X031284Y006615D01*
X031382Y007260D02*
X030988Y007260D01*
X031185Y007260D02*
X030988Y007457D01*
X030988Y007555D01*
X031087Y007797D02*
X031087Y008191D01*
X030988Y008442D02*
X030988Y008737D01*
X031087Y008835D01*
X031284Y008835D01*
X031382Y008737D01*
X031382Y008442D01*
X031579Y008442D02*
X030988Y008442D01*
X031087Y009086D02*
X031284Y009086D01*
X031382Y009184D01*
X031382Y009381D01*
X031284Y009480D01*
X031087Y009480D01*
X030988Y009381D01*
X030988Y009184D01*
X031087Y009086D01*
X030988Y009731D02*
X031284Y009731D01*
X031382Y009829D01*
X031284Y009927D01*
X031382Y010026D01*
X031284Y010124D01*
X030988Y010124D01*
X031087Y010375D02*
X030988Y010474D01*
X030988Y010670D01*
X031087Y010769D01*
X031185Y010769D01*
X031185Y010375D01*
X031087Y010375D02*
X031284Y010375D01*
X031382Y010474D01*
X031382Y010670D01*
X031382Y011020D02*
X030988Y011020D01*
X030988Y011216D02*
X031185Y011020D01*
X030988Y011216D02*
X030988Y011315D01*
X031480Y011557D02*
X031480Y011950D01*
X031382Y012201D02*
X030988Y012595D01*
X030890Y012595D01*
X030791Y012496D01*
X030791Y012300D01*
X030890Y012201D01*
X031382Y012201D02*
X031382Y012595D01*
X031382Y004897D02*
X030791Y004897D01*
D11*
X029837Y013311D03*
X029837Y015673D03*
X029837Y017461D03*
X029837Y019823D03*
X026337Y019823D03*
X026337Y017461D03*
X026337Y015673D03*
X026337Y013311D03*
D12*
X029687Y012001D03*
X029687Y010882D03*
X020787Y017082D03*
X019937Y017082D03*
X019937Y018201D03*
X020787Y018201D03*
X010887Y018351D03*
X010037Y018351D03*
X010037Y017232D03*
X010887Y017232D03*
D13*
X009187Y010765D03*
X008687Y010765D03*
X008187Y010765D03*
X007687Y010765D03*
X006187Y010715D03*
X005687Y010715D03*
X005187Y010715D03*
X004687Y010715D03*
X003637Y008865D03*
X003137Y008865D03*
X002637Y008865D03*
X002137Y008865D03*
X004687Y008668D03*
X005187Y008668D03*
X005687Y008668D03*
X006187Y008668D03*
X006187Y007565D03*
X005687Y007565D03*
X005187Y007565D03*
X004687Y007565D03*
X003637Y006818D03*
X003137Y006818D03*
X002637Y006818D03*
X002137Y006818D03*
X004687Y005518D03*
X005187Y005518D03*
X005687Y005518D03*
X006187Y005518D03*
X007687Y008718D03*
X008187Y008718D03*
X008687Y008718D03*
X009187Y008718D03*
X010887Y009515D03*
X011387Y009515D03*
X011887Y009515D03*
X012387Y009515D03*
X012387Y007468D03*
X011887Y007468D03*
X011387Y007468D03*
X010887Y007468D03*
X018487Y008418D03*
X018987Y008418D03*
X019487Y008418D03*
X019987Y008418D03*
X020037Y007165D03*
X019537Y007165D03*
X019037Y007165D03*
X018537Y007165D03*
X018537Y005118D03*
X019037Y005118D03*
X019537Y005118D03*
X020037Y005118D03*
X021837Y006518D03*
X022337Y006518D03*
X022837Y006518D03*
X023337Y006518D03*
X024337Y008168D03*
X024837Y008168D03*
X025337Y008168D03*
X025837Y008168D03*
X027487Y008165D03*
X027987Y008165D03*
X028487Y008165D03*
X028987Y008165D03*
X028987Y006118D03*
X028487Y006118D03*
X027987Y006118D03*
X027487Y006118D03*
X023337Y008565D03*
X022837Y008565D03*
X022337Y008565D03*
X021837Y008565D03*
X019987Y010465D03*
X019487Y010465D03*
X018987Y010465D03*
X018487Y010465D03*
X024337Y010215D03*
X024837Y010215D03*
X025337Y010215D03*
X025837Y010215D03*
D14*
X026187Y004444D03*
X026187Y002239D03*
X019137Y002189D03*
X019137Y004394D03*
X005537Y004494D03*
X005537Y002289D03*
D15*
X007813Y006092D03*
X007813Y006592D03*
X007813Y007092D03*
X007813Y007592D03*
X009861Y007592D03*
X009861Y007092D03*
X009861Y006592D03*
X009861Y006092D03*
X024413Y005942D03*
X024413Y006442D03*
X024413Y006942D03*
X024413Y005442D03*
X026461Y005442D03*
X026461Y005942D03*
X026461Y006442D03*
X026461Y006942D03*
D16*
X012839Y005692D03*
X010635Y005692D03*
D17*
X011062Y010492D03*
X011712Y010492D03*
X014662Y013292D03*
X015312Y013292D03*
X015762Y013242D03*
X016412Y013242D03*
X018462Y016092D03*
X018462Y016642D03*
X019112Y016642D03*
X019112Y016092D03*
X011162Y015092D03*
X010512Y015092D03*
X010512Y014492D03*
X011162Y014492D03*
X009362Y014492D03*
X008712Y014492D03*
X008712Y015092D03*
X009362Y015092D03*
X006112Y016392D03*
X005462Y016392D03*
X004562Y015142D03*
X003912Y015142D03*
X003862Y014142D03*
X003862Y013642D03*
X004512Y013642D03*
X004512Y014142D03*
X003012Y009692D03*
X002362Y009692D03*
X021862Y009642D03*
X022512Y009642D03*
X027512Y009142D03*
X028162Y009142D03*
X027962Y002092D03*
X027312Y002092D03*
X030612Y016642D03*
X031262Y016642D03*
D18*
X025087Y011616D03*
X025087Y010967D03*
X022437Y013967D03*
X022437Y014616D03*
X018887Y017717D03*
X018887Y018366D03*
X017437Y015066D03*
X016887Y015066D03*
X016887Y014417D03*
X017437Y014417D03*
X011737Y014516D03*
X011737Y015067D03*
X011737Y015716D03*
X009937Y015716D03*
X009937Y015067D03*
X009937Y014516D03*
X009937Y013867D03*
X011737Y013867D03*
X006887Y010616D03*
X006887Y009967D03*
X003737Y009717D03*
X003737Y010366D03*
X013237Y008166D03*
X013237Y007517D03*
X029137Y009117D03*
X029137Y009766D03*
D19*
X022681Y011466D03*
X022681Y012017D03*
X021893Y012017D03*
X021893Y011466D03*
X007131Y011866D03*
X007131Y012417D03*
X006343Y012417D03*
X006343Y011866D03*
D20*
X007150Y012142D03*
X022700Y011742D03*
D21*
X022837Y019092D03*
X021837Y019092D03*
X022337Y020092D03*
X023337Y020092D03*
X017637Y019492D03*
X015737Y019492D03*
D22*
X022987Y014626D03*
X022987Y013957D03*
D23*
X027654Y016218D03*
X028520Y016592D03*
X027654Y016966D03*
D24*
X013837Y015126D03*
X013837Y014457D03*
X013587Y017557D03*
X013587Y018226D03*
D25*
X022583Y016592D03*
X024591Y016592D03*
D26*
X023837Y014642D03*
X023837Y011642D03*
D27*
X012737Y019092D03*
X011737Y019092D03*
X010737Y019092D03*
X009737Y019092D03*
X008737Y019092D03*
X008737Y020092D03*
X009737Y020092D03*
X010737Y020092D03*
X011737Y020092D03*
X012737Y020092D03*
D28*
X009152Y012140D02*
X009344Y011948D01*
X009110Y011714D01*
X008918Y011906D01*
X009152Y012140D01*
X009177Y011781D02*
X009043Y011781D01*
X008976Y011848D02*
X009244Y011848D01*
X009311Y011915D02*
X008927Y011915D01*
X008994Y011982D02*
X009310Y011982D01*
X009243Y012049D02*
X009061Y012049D01*
X009128Y012116D02*
X009176Y012116D01*
X009611Y011681D02*
X009803Y011489D01*
X009569Y011255D01*
X009377Y011447D01*
X009611Y011681D01*
X009636Y011322D02*
X009502Y011322D01*
X009435Y011389D02*
X009703Y011389D01*
X009770Y011456D02*
X009386Y011456D01*
X009453Y011523D02*
X009769Y011523D01*
X009702Y011590D02*
X009520Y011590D01*
X009587Y011657D02*
X009635Y011657D01*
X016793Y010070D02*
X016985Y009878D01*
X016751Y009644D01*
X016559Y009836D01*
X016793Y010070D01*
X016818Y009711D02*
X016684Y009711D01*
X016617Y009778D02*
X016885Y009778D01*
X016952Y009845D02*
X016568Y009845D01*
X016635Y009912D02*
X016951Y009912D01*
X016884Y009979D02*
X016702Y009979D01*
X016769Y010046D02*
X016817Y010046D01*
X017252Y009610D02*
X017444Y009418D01*
X017210Y009184D01*
X017018Y009376D01*
X017252Y009610D01*
X017277Y009251D02*
X017143Y009251D01*
X017076Y009318D02*
X017344Y009318D01*
X017411Y009385D02*
X017027Y009385D01*
X017094Y009452D02*
X017410Y009452D01*
X017343Y009519D02*
X017161Y009519D01*
X017228Y009586D02*
X017276Y009586D01*
D29*
X030137Y003242D03*
X002637Y003242D03*
D30*
X007737Y004092D03*
X009737Y004092D03*
X014787Y004142D03*
X016787Y004142D03*
X021987Y004142D03*
X023987Y004142D03*
D31*
X006537Y017592D03*
X005537Y017592D03*
X004537Y017592D03*
X003537Y017592D03*
X002537Y017592D03*
X003037Y019592D03*
X004037Y019592D03*
X005037Y019592D03*
X006037Y019592D03*
X002037Y019592D03*
D32*
X014687Y012092D03*
X015687Y012092D03*
X015687Y011092D03*
X014687Y011092D03*
D33*
X021087Y007342D03*
X021087Y003342D03*
X006687Y003642D03*
X006687Y007642D03*
D34*
X005687Y007565D02*
X005187Y007565D01*
X005237Y007565D01*
X005237Y007542D01*
X005237Y007565D02*
X004737Y007565D01*
X004737Y007542D01*
X004737Y007565D02*
X005187Y007565D01*
X004737Y007565D02*
X004687Y007565D01*
X004437Y007742D02*
X004437Y007792D01*
X004387Y007842D01*
X002637Y007842D01*
X002137Y008342D01*
X002137Y008865D01*
X003637Y008865D02*
X003637Y009642D01*
X003737Y009742D01*
X003737Y009717D01*
X003987Y009092D02*
X003987Y008142D01*
X003937Y008142D01*
X004437Y007742D02*
X004687Y007992D01*
X004687Y008668D01*
X004687Y010715D02*
X004637Y010715D01*
X004637Y010742D01*
X008687Y009292D02*
X008687Y008718D01*
X007837Y006592D02*
X007837Y006442D01*
X007837Y006092D01*
X007813Y006092D01*
X007837Y006592D02*
X007813Y006592D01*
X012387Y009492D02*
X012937Y008992D01*
X013037Y008992D01*
X018487Y010465D02*
X018487Y010492D01*
X018513Y010465D01*
X018987Y010465D01*
X019137Y008592D02*
X019311Y008418D01*
X019487Y008418D01*
X019537Y007192D02*
X019563Y007165D01*
X020037Y007165D01*
X020113Y007165D01*
X020137Y007142D01*
X020037Y007165D02*
X019537Y007165D01*
X019537Y007192D01*
X019537Y007165D02*
X019037Y007165D01*
X023387Y008642D02*
X024137Y009392D01*
X026037Y009392D01*
X026337Y009692D01*
X028487Y009692D01*
X028987Y009192D01*
X028987Y009092D01*
X029012Y009117D01*
X029137Y009117D01*
X028987Y009092D02*
X028987Y008165D01*
X028987Y008142D01*
X026937Y007492D02*
X026887Y007542D01*
X026037Y009392D02*
X026037Y009442D01*
X027787Y011192D01*
X027787Y014142D01*
X027287Y014642D01*
X027137Y014492D01*
X025137Y014492D01*
X024437Y013792D01*
X024437Y013092D01*
X023737Y012392D01*
X023587Y012392D01*
X025137Y014492D02*
X025137Y014892D01*
X027537Y015692D02*
X027537Y016142D01*
X027613Y016218D01*
X027654Y016218D01*
X028487Y016642D02*
X028537Y016592D01*
X028520Y016592D01*
X028487Y016642D02*
X028487Y017342D01*
X028237Y017592D01*
X028237Y017642D01*
X021387Y018542D02*
X021387Y016642D01*
X020987Y016242D01*
X019937Y016242D01*
X019387Y015692D01*
X017487Y015692D01*
X017387Y015592D01*
X017437Y015592D01*
X017437Y015542D01*
X014587Y015642D02*
X014487Y015642D01*
X014337Y020142D02*
X014287Y020142D01*
X014137Y020292D01*
X020787Y018942D02*
X020887Y018842D01*
X021087Y018842D01*
X021387Y018542D01*
D35*
X024591Y016592D02*
X024541Y015996D01*
X024641Y015996D01*
X025237Y016592D01*
X026187Y016592D01*
X026187Y016142D01*
X026337Y015673D01*
X026187Y016592D02*
X026187Y016992D01*
X026337Y017092D01*
X026337Y017461D01*
X026337Y017192D02*
X026287Y017142D01*
X026337Y017142D01*
X026387Y017192D01*
X026337Y017192D01*
X026387Y017192D02*
X026437Y017192D01*
X026312Y017067D01*
X026413Y016966D01*
X027654Y016966D01*
X028520Y016592D02*
X028520Y015575D01*
X028487Y015542D01*
X029737Y015542D01*
X029837Y015642D01*
X029837Y015673D01*
X029837Y015942D01*
X029887Y016042D01*
X029912Y016167D01*
X029887Y016642D01*
X029912Y017317D01*
X029887Y017492D02*
X030437Y017492D01*
X030637Y017592D01*
X030612Y017566D01*
X030612Y016642D01*
X028487Y015542D02*
X028187Y015542D01*
X027287Y014642D01*
X026187Y016992D02*
X026312Y017067D01*
X024541Y015996D02*
X023837Y015292D01*
X023837Y014642D01*
X023787Y014592D01*
X023837Y011642D02*
X023837Y010492D01*
X023437Y009492D02*
X023437Y008692D01*
X023387Y008642D01*
X023337Y008592D01*
X023337Y008565D01*
X022837Y008565D02*
X022837Y009142D01*
X022512Y009467D01*
X022512Y009642D01*
X021862Y009642D02*
X021837Y009642D01*
X021787Y009592D01*
X021787Y009442D01*
X021600Y009255D01*
X021600Y009143D01*
X021837Y008906D01*
X021837Y008565D01*
X022337Y008565D02*
X022337Y007942D01*
X022187Y007842D01*
X021537Y007842D01*
X020961Y008418D01*
X019987Y008418D01*
X019137Y008592D02*
X019137Y008792D01*
X019437Y009092D01*
X019487Y009142D01*
X021537Y009142D01*
X019461Y009115D02*
X019437Y009092D01*
X018987Y008442D02*
X018987Y008418D01*
X022837Y007292D02*
X022837Y006518D01*
X023337Y006518D02*
X023337Y005792D01*
X022787Y005192D01*
X021587Y005192D01*
X021463Y005118D01*
X020037Y005118D01*
X025337Y008168D02*
X025337Y008792D01*
X025437Y008892D01*
X027137Y008892D01*
X027387Y009142D01*
X027487Y009142D01*
X027512Y009142D01*
X027487Y009142D02*
X027437Y009142D01*
X027487Y009092D01*
X027487Y008165D01*
X027987Y008165D02*
X027987Y007642D01*
X027837Y007492D01*
X026937Y007492D01*
X026887Y007542D02*
X026261Y008168D01*
X025837Y008168D01*
X026461Y006942D02*
X028637Y006942D01*
X028987Y006592D01*
X028987Y006118D01*
X028487Y006118D02*
X028487Y005342D01*
X026137Y004444D02*
X026137Y004442D01*
X028487Y008165D02*
X028487Y008892D01*
X028237Y009142D01*
X028162Y009142D01*
X014187Y006442D02*
X013887Y006742D01*
X013237Y007092D01*
X013237Y007517D01*
X013787Y006792D02*
X013837Y006792D01*
X013887Y006742D01*
X013787Y006792D02*
X013737Y006742D01*
X012187Y006742D01*
X011887Y007042D01*
X011887Y007468D01*
X012387Y007468D02*
X012387Y007992D01*
X012137Y008242D01*
X010487Y008242D01*
X010037Y007592D01*
X009861Y007592D01*
X009187Y008642D02*
X011113Y008668D01*
X011387Y008942D01*
X011387Y009515D01*
X010887Y009515D02*
X010887Y010392D01*
X011037Y010542D01*
X011062Y010492D01*
X011712Y010492D02*
X011737Y010542D01*
X011887Y010392D01*
X011887Y009515D01*
X012387Y009515D02*
X012984Y008937D01*
X013213Y008715D01*
X013237Y008692D01*
X013237Y008166D01*
X012387Y007468D02*
X012387Y007442D01*
X010887Y009515D02*
X010863Y009515D01*
X010837Y009542D01*
X008937Y009542D01*
X008687Y009292D01*
X009187Y008718D02*
X009187Y008642D01*
X006187Y008668D02*
X006187Y009092D01*
X005787Y009492D01*
X004387Y009492D01*
X003987Y009092D01*
X003137Y008865D02*
X003137Y009542D01*
X002987Y009692D01*
X003012Y009692D01*
X002362Y009692D02*
X002337Y009692D01*
X002137Y009492D01*
X002137Y008865D01*
X002637Y008865D02*
X002637Y008292D01*
X002787Y008142D01*
X003937Y008142D01*
X003637Y006818D02*
X003637Y006792D01*
X003987Y006442D01*
X006037Y006442D01*
X006187Y006292D01*
X006187Y005518D01*
X004537Y004292D02*
X004537Y003292D01*
X005537Y002292D01*
X005537Y002289D01*
X004537Y004292D02*
X003937Y004892D01*
X003937Y005492D01*
X003137Y006292D01*
X003137Y006818D01*
D36*
X001187Y001792D02*
X001187Y020542D01*
X005354Y020542D01*
X005259Y020446D01*
X004679Y020446D01*
X004592Y020359D01*
X004592Y018825D01*
X004679Y018737D01*
X005037Y018737D01*
X004387Y018737D01*
X004394Y018737D01*
X004482Y018825D01*
X004482Y020359D01*
X004394Y020446D01*
X003679Y020446D01*
X003592Y020359D01*
X003592Y018992D01*
X003482Y018992D01*
X003482Y020359D01*
X003394Y020446D01*
X002679Y020446D01*
X002592Y020359D01*
X002592Y018992D01*
X002392Y018992D01*
X002187Y018787D01*
X002187Y018497D01*
X002237Y018446D01*
X002179Y018446D01*
X002092Y018359D01*
X002092Y016825D01*
X002179Y016737D01*
X002894Y016737D01*
X002982Y016825D01*
X002982Y018292D01*
X003092Y018292D01*
X003092Y016825D01*
X003179Y016737D01*
X003894Y016737D01*
X003982Y016825D01*
X003982Y018292D01*
X004182Y018292D01*
X004387Y018497D01*
X004387Y018737D01*
X004387Y018638D02*
X004987Y018638D01*
X004987Y018687D02*
X004987Y018397D01*
X005092Y018292D01*
X005092Y016979D01*
X005004Y016892D01*
X004742Y016892D01*
X004537Y016687D01*
X004537Y016397D01*
X004742Y016192D01*
X005032Y016192D01*
X005142Y016302D01*
X005142Y016129D01*
X005230Y016042D01*
X005694Y016042D01*
X005782Y016129D01*
X005782Y016654D01*
X005737Y016699D01*
X005737Y016737D01*
X005875Y016737D01*
X005792Y016654D01*
X005792Y016129D01*
X005879Y016042D01*
X005937Y016042D01*
X005937Y016037D01*
X005787Y015887D01*
X005787Y015597D01*
X005992Y015392D01*
X006054Y015392D01*
X005654Y014992D01*
X005442Y014992D01*
X005237Y014787D01*
X005237Y014497D01*
X005442Y014292D01*
X005732Y014292D01*
X005937Y014497D01*
X005937Y014709D01*
X006620Y015392D01*
X006737Y015509D01*
X006737Y016259D01*
X007120Y016642D01*
X007237Y016759D01*
X007237Y016892D01*
X007282Y016892D01*
X007487Y017097D01*
X007487Y017387D01*
X007307Y017567D01*
X007487Y017747D01*
X007487Y018037D01*
X007282Y018242D01*
X006992Y018242D01*
X006982Y018232D01*
X006982Y018359D01*
X006894Y018446D01*
X006179Y018446D01*
X006092Y018359D01*
X006092Y016825D01*
X006175Y016742D01*
X005899Y016742D01*
X005982Y016825D01*
X005982Y018359D01*
X005894Y018446D01*
X005687Y018446D01*
X005687Y018687D01*
X005482Y018891D01*
X005482Y020104D01*
X005592Y020214D01*
X005592Y018825D01*
X005679Y018737D01*
X006394Y018737D01*
X006482Y018825D01*
X006482Y019392D01*
X006554Y019392D01*
X006987Y018959D01*
X006987Y018824D01*
X006987Y018659D01*
X007437Y018209D01*
X007554Y018092D01*
X008254Y018092D01*
X008487Y017859D01*
X008604Y017742D01*
X008804Y017742D01*
X008837Y017709D01*
X008837Y017497D01*
X009042Y017292D01*
X009092Y017292D01*
X009037Y017237D01*
X009037Y016947D01*
X009042Y016942D01*
X009004Y016942D01*
X008854Y016792D01*
X008642Y016792D01*
X008437Y016587D01*
X008437Y016297D01*
X008642Y016092D01*
X008932Y016092D01*
X009062Y016222D01*
X009242Y016042D01*
X009532Y016042D01*
X009682Y016192D01*
X010704Y016192D01*
X010504Y015992D01*
X010392Y015992D01*
X010187Y015787D01*
X010187Y015497D01*
X010261Y015423D01*
X010212Y015374D01*
X010199Y015387D01*
X009675Y015387D01*
X009662Y015374D01*
X009594Y015442D01*
X009129Y015442D01*
X009042Y015354D01*
X009042Y014829D01*
X009079Y014792D01*
X009042Y014754D01*
X009042Y014229D01*
X009129Y014142D01*
X009594Y014142D01*
X009662Y014210D01*
X009675Y014196D01*
X010199Y014196D01*
X010212Y014210D01*
X010280Y014142D01*
X010744Y014142D01*
X010832Y014229D01*
X010832Y014754D01*
X010794Y014792D01*
X010832Y014829D01*
X010832Y015354D01*
X010788Y015398D01*
X010887Y015497D01*
X010887Y015787D01*
X010876Y015798D01*
X011020Y015942D01*
X012420Y015942D01*
X012537Y016059D01*
X012770Y016292D01*
X014242Y016292D01*
X014237Y016287D01*
X014237Y015997D01*
X014442Y015792D01*
X014732Y015792D01*
X014937Y015997D01*
X014937Y016092D01*
X014942Y016092D01*
X014937Y016087D01*
X014937Y015797D01*
X015142Y015592D01*
X015432Y015592D01*
X015637Y015797D01*
X015637Y015892D01*
X017242Y015892D01*
X017087Y015737D01*
X017087Y015447D01*
X017161Y015373D01*
X017087Y015298D01*
X017087Y014834D01*
X017175Y014746D01*
X017699Y014746D01*
X017787Y014834D01*
X017787Y015298D01*
X017713Y015373D01*
X017787Y015447D01*
X017787Y015462D01*
X018962Y015462D01*
X018887Y015387D01*
X018887Y015097D01*
X019017Y014967D01*
X018887Y014837D01*
X018887Y014547D01*
X019092Y014342D01*
X019187Y014342D01*
X019187Y014242D01*
X018871Y014242D01*
X018637Y014007D01*
X018637Y013676D01*
X018871Y013442D01*
X019203Y013442D01*
X019437Y013676D01*
X019437Y013792D01*
X019753Y013792D01*
X019987Y014026D01*
X019987Y014347D01*
X020142Y014192D01*
X020154Y014192D01*
X020237Y014109D01*
X020237Y012974D01*
X020154Y012892D01*
X019942Y012892D01*
X019737Y012687D01*
X019737Y012397D01*
X019942Y012192D01*
X020232Y012192D01*
X020287Y012247D01*
X020287Y012247D01*
X020492Y012042D01*
X020782Y012042D01*
X020987Y012247D01*
X020987Y012537D01*
X020837Y012687D01*
X020837Y014697D01*
X020987Y014847D01*
X020987Y015137D01*
X020782Y015342D01*
X020492Y015342D01*
X020287Y015137D01*
X020287Y014892D01*
X020142Y014892D01*
X019937Y014687D01*
X019937Y014407D01*
X019753Y014592D01*
X019587Y014592D01*
X019587Y014809D01*
X019670Y014892D01*
X019787Y015009D01*
X019787Y015059D01*
X020270Y015542D01*
X021054Y015542D01*
X020987Y015474D01*
X020987Y015309D01*
X020987Y013887D01*
X020837Y013737D01*
X020837Y013447D01*
X021042Y013242D01*
X021332Y013242D01*
X021537Y013447D01*
X021537Y013737D01*
X021387Y013887D01*
X021387Y015309D01*
X022120Y016042D01*
X022237Y016159D01*
X022237Y018509D01*
X022420Y018692D01*
X022537Y018809D01*
X022537Y019731D01*
X022569Y019744D01*
X022684Y019859D01*
X022747Y020010D01*
X022747Y020173D01*
X022684Y020324D01*
X022569Y020439D01*
X022418Y020502D01*
X022255Y020502D01*
X022105Y020439D01*
X021989Y020324D01*
X021927Y020173D01*
X021927Y020010D01*
X021989Y019859D01*
X022105Y019744D01*
X022137Y019731D01*
X022137Y019371D01*
X022069Y019439D01*
X021918Y019502D01*
X021755Y019502D01*
X021605Y019439D01*
X021489Y019324D01*
X021430Y019181D01*
X021287Y019324D01*
X021287Y019397D01*
X021437Y019547D01*
X021437Y019837D01*
X021232Y020042D01*
X020942Y020042D01*
X020737Y019837D01*
X020737Y019547D01*
X020887Y019397D01*
X020887Y019292D01*
X020642Y019292D01*
X020437Y019087D01*
X020437Y018797D01*
X020642Y018592D01*
X020932Y018592D01*
X020952Y018612D01*
X020982Y018612D01*
X020992Y018612D01*
X021157Y018446D01*
X021157Y017547D01*
X020370Y017547D01*
X020362Y017539D01*
X020354Y017547D01*
X019520Y017547D01*
X019432Y017459D01*
X019432Y016992D01*
X019254Y016992D01*
X018879Y016992D01*
X018792Y016904D01*
X018792Y016379D01*
X018804Y016367D01*
X018792Y016354D01*
X018792Y015922D01*
X018782Y015922D01*
X018782Y016354D01*
X018769Y016367D01*
X018782Y016379D01*
X018782Y016904D01*
X018694Y016992D01*
X018230Y016992D01*
X018142Y016904D01*
X018142Y016680D01*
X017954Y016492D01*
X017370Y016492D01*
X017920Y017042D01*
X018070Y017042D01*
X018187Y017159D01*
X018187Y017542D01*
X018232Y017542D01*
X018343Y017653D01*
X018479Y017517D01*
X018537Y017517D01*
X018537Y017485D01*
X018625Y017397D01*
X019149Y017397D01*
X019237Y017485D01*
X019237Y017949D01*
X019149Y018037D01*
X018625Y018037D01*
X018575Y017987D01*
X018470Y018092D01*
X018382Y018092D01*
X018232Y018242D01*
X018020Y018242D01*
X018320Y018542D01*
X018404Y018542D01*
X018537Y018409D01*
X018537Y018134D01*
X018625Y018046D01*
X019149Y018046D01*
X019237Y018134D01*
X019237Y018598D01*
X019149Y018686D01*
X018825Y018686D01*
X018737Y018774D01*
X018737Y019037D01*
X018532Y019242D01*
X018242Y019242D01*
X018037Y019037D01*
X018037Y018824D01*
X017054Y017842D01*
X016270Y017842D01*
X016104Y017842D01*
X015854Y017592D01*
X015720Y017592D01*
X015554Y017757D01*
X015389Y017757D01*
X013934Y017757D01*
X013934Y017836D01*
X013846Y017924D01*
X013328Y017924D01*
X013246Y017842D01*
X012282Y017842D01*
X012132Y017992D01*
X011842Y017992D01*
X011637Y017787D01*
X011637Y017497D01*
X011842Y017292D01*
X012132Y017292D01*
X012282Y017442D01*
X013240Y017442D01*
X013240Y017278D01*
X013328Y017190D01*
X013846Y017190D01*
X013934Y017278D01*
X013934Y017357D01*
X015389Y017357D01*
X015437Y017309D01*
X015437Y017097D01*
X015442Y017092D01*
X012370Y017092D01*
X012204Y017092D01*
X012054Y016942D01*
X011882Y016942D01*
X011887Y016947D01*
X011887Y017237D01*
X011682Y017442D01*
X011392Y017442D01*
X011392Y017441D01*
X011392Y017592D01*
X011420Y017592D01*
X011537Y017709D01*
X012524Y018696D01*
X012559Y018662D01*
X012915Y018662D01*
X013167Y018914D01*
X013167Y019089D01*
X013470Y019392D01*
X013732Y019392D01*
X013937Y019597D01*
X013937Y019887D01*
X013732Y020092D01*
X013442Y020092D01*
X013237Y019887D01*
X013237Y019724D01*
X012975Y019462D01*
X012915Y019522D01*
X012559Y019522D01*
X012307Y019270D01*
X012307Y019044D01*
X011254Y017992D01*
X009670Y017992D01*
X009437Y018224D01*
X009320Y018342D01*
X008870Y018342D01*
X008520Y018692D01*
X008354Y018692D01*
X007820Y018692D01*
X007587Y018924D01*
X007587Y019774D01*
X007470Y019892D01*
X006820Y020542D01*
X008904Y020542D01*
X008884Y020522D01*
X008559Y020522D01*
X008307Y020270D01*
X008307Y019914D01*
X008429Y019792D01*
X008354Y019792D01*
X008004Y019442D01*
X007792Y019442D01*
X007587Y019237D01*
X007587Y018947D01*
X007792Y018742D01*
X008082Y018742D01*
X008287Y018947D01*
X008287Y019159D01*
X008307Y019179D01*
X008307Y018914D01*
X008559Y018662D01*
X008837Y018662D01*
X008837Y018547D01*
X009042Y018342D01*
X009332Y018342D01*
X009537Y018547D01*
X009537Y018684D01*
X009559Y018662D01*
X009915Y018662D01*
X010167Y018914D01*
X010167Y019270D01*
X009995Y019442D01*
X010479Y019442D01*
X010307Y019270D01*
X010307Y018914D01*
X010559Y018662D01*
X010915Y018662D01*
X011167Y018914D01*
X011167Y019270D01*
X010995Y019442D01*
X011154Y019442D01*
X011320Y019442D01*
X011549Y019671D01*
X011559Y019662D01*
X011915Y019662D01*
X012167Y019914D01*
X012167Y020270D01*
X012095Y020342D01*
X013754Y020342D01*
X013987Y020109D01*
X013987Y019997D01*
X014192Y019792D01*
X014482Y019792D01*
X014687Y019997D01*
X014687Y020287D01*
X014482Y020492D01*
X014262Y020492D01*
X014232Y020522D01*
X014140Y020522D01*
X014120Y020542D01*
X031587Y020542D01*
X031587Y012134D01*
X031587Y012134D01*
X031587Y012286D01*
X031587Y012680D01*
X031467Y012800D01*
X031297Y012800D01*
X031185Y012688D01*
X031073Y012800D01*
X030975Y012800D01*
X030805Y012800D01*
X030745Y012740D01*
X030741Y012736D01*
X030685Y012680D01*
X030685Y012680D01*
X030665Y012660D01*
X030586Y012581D01*
X030586Y012385D01*
X030586Y012215D01*
X030805Y011996D01*
X030975Y011996D01*
X031095Y012116D01*
X031095Y012199D01*
X031275Y012018D01*
X031275Y011472D01*
X031395Y011352D01*
X031565Y011352D01*
X031587Y011374D01*
X031587Y008646D01*
X031587Y008822D01*
X031508Y008900D01*
X031489Y008920D01*
X031448Y008961D01*
X031467Y008979D01*
X031587Y009100D01*
X031587Y009466D01*
X031489Y009565D01*
X031448Y009605D01*
X031467Y009624D01*
X031587Y009744D01*
X031587Y009914D01*
X031573Y009927D01*
X031587Y009941D01*
X031587Y010111D01*
X031509Y010188D01*
X031489Y010209D01*
X031448Y010250D01*
X031489Y010290D01*
X031587Y010389D01*
X031587Y010558D01*
X031587Y010558D01*
X031587Y010755D01*
X031497Y010845D01*
X031587Y010935D01*
X031587Y011105D01*
X031467Y011225D01*
X031270Y011225D01*
X031193Y011301D01*
X031193Y011400D01*
X031073Y011520D01*
X030903Y011520D01*
X030783Y011400D01*
X030783Y011132D01*
X030797Y011118D01*
X030783Y011105D01*
X030783Y010935D01*
X030873Y010845D01*
X030783Y010755D01*
X027675Y010755D01*
X027774Y010853D02*
X030865Y010853D01*
X030783Y010755D02*
X030783Y010585D01*
X030783Y010389D01*
X030826Y010346D01*
X030843Y010329D01*
X030844Y010328D01*
X030873Y010299D01*
X030783Y010209D01*
X030783Y010039D01*
X030895Y009927D01*
X030783Y009815D01*
X030783Y009646D01*
X030873Y009556D01*
X030783Y009466D01*
X030783Y009269D01*
X030783Y009100D01*
X030843Y009039D01*
X030845Y009038D01*
X030903Y008979D01*
X030922Y008961D01*
X030882Y008920D01*
X030783Y008822D01*
X030783Y008652D01*
X030783Y008357D01*
X030882Y008258D01*
X030882Y007738D01*
X030783Y007640D01*
X030783Y007372D01*
X030797Y007358D01*
X030783Y007345D01*
X030783Y007175D01*
X030873Y007085D01*
X030783Y006996D01*
X030783Y006799D01*
X030783Y006629D01*
X030843Y006569D01*
X030847Y006566D01*
X030864Y006548D01*
X030783Y006467D01*
X030685Y006369D01*
X030685Y006199D01*
X030805Y006079D01*
X030873Y006011D01*
X030783Y005921D01*
X030783Y005724D01*
X030783Y005555D01*
X030843Y005495D01*
X030707Y005495D01*
X030586Y005375D01*
X030586Y005205D01*
X030590Y005202D01*
X030698Y005093D01*
X030586Y004982D01*
X030586Y004812D01*
X030707Y004692D01*
X030876Y004692D01*
X031467Y004692D01*
X031587Y004812D01*
X031587Y004982D01*
X031475Y005093D01*
X031587Y005205D01*
X031587Y005375D01*
X031497Y005465D01*
X031587Y005555D01*
X031587Y005724D01*
X031587Y005751D01*
X031587Y005921D01*
X031587Y005921D01*
X031509Y005999D01*
X031489Y006020D01*
X031399Y006109D01*
X031428Y006139D01*
X031431Y006142D01*
X031489Y006199D01*
X031587Y006298D01*
X031587Y006467D01*
X031506Y006548D01*
X031587Y006629D01*
X031587Y006799D01*
X031587Y006826D01*
X031587Y006995D01*
X031587Y006996D01*
X031510Y007073D01*
X031497Y007085D01*
X031587Y007175D01*
X031587Y007345D01*
X031467Y007465D01*
X031270Y007465D01*
X031193Y007542D01*
X031193Y007614D01*
X031292Y007712D01*
X031292Y008237D01*
X031297Y008237D01*
X031467Y008237D01*
X031587Y008237D01*
X031587Y001792D01*
X028244Y001792D01*
X028282Y001829D01*
X028282Y002354D01*
X028194Y002442D01*
X027973Y002442D01*
X027887Y002574D01*
X027887Y002737D01*
X027682Y002942D01*
X027392Y002942D01*
X027187Y002737D01*
X027187Y002447D01*
X027392Y002242D01*
X027626Y002242D01*
X027642Y002217D01*
X027642Y001829D01*
X027679Y001792D01*
X001187Y001792D01*
X001187Y001886D02*
X027642Y001886D01*
X027642Y001984D02*
X001187Y001984D01*
X001187Y002083D02*
X027642Y002083D01*
X027642Y002181D02*
X001187Y002181D01*
X001187Y002280D02*
X027354Y002280D01*
X027255Y002379D02*
X001187Y002379D01*
X001187Y002477D02*
X027187Y002477D01*
X027187Y002576D02*
X001187Y002576D01*
X001187Y002674D02*
X027187Y002674D01*
X027223Y002773D02*
X021588Y002773D01*
X021577Y002762D02*
X021917Y003101D01*
X021982Y003167D01*
X022220Y003167D01*
X023754Y003167D01*
X024220Y003167D01*
X031587Y003167D01*
X031587Y003265D02*
X024731Y003265D01*
X024727Y003262D02*
X024938Y003472D01*
X025067Y003601D01*
X025067Y003651D01*
X025167Y003751D01*
X025167Y004051D01*
X025167Y004152D01*
X025407Y004152D01*
X025407Y004054D02*
X025167Y004054D01*
X025167Y004152D02*
X025187Y004172D01*
X025187Y004711D01*
X025187Y006822D01*
X025187Y007361D01*
X025187Y007518D01*
X025283Y007518D01*
X025306Y007542D01*
X025349Y007585D01*
X025517Y007585D01*
X025587Y007655D01*
X025657Y007585D01*
X026017Y007585D01*
X026105Y007673D01*
X026105Y007898D01*
X026149Y007898D01*
X026667Y007380D01*
X026825Y007222D01*
X027949Y007222D01*
X028107Y007380D01*
X028257Y007530D01*
X028257Y007632D01*
X028307Y007582D01*
X028667Y007582D01*
X028737Y007652D01*
X028807Y007582D01*
X029167Y007582D01*
X029255Y007670D01*
X029255Y008660D01*
X029217Y008699D01*
X029217Y008797D01*
X029399Y008797D01*
X029487Y008885D01*
X029487Y009349D01*
X029399Y009437D01*
X029067Y009437D01*
X028582Y009922D01*
X028392Y009922D01*
X026842Y009922D01*
X027882Y010962D01*
X028017Y011096D01*
X028017Y014046D01*
X028017Y014237D01*
X027640Y014613D01*
X028299Y015272D01*
X028375Y015272D01*
X028599Y015272D01*
X029411Y015272D01*
X029411Y014863D01*
X029499Y014775D01*
X030175Y014775D01*
X030262Y014863D01*
X030262Y016483D01*
X030179Y016567D01*
X030262Y016650D01*
X030262Y017222D01*
X030325Y017222D01*
X030342Y017222D01*
X030342Y016954D01*
X030292Y016904D01*
X030292Y016379D01*
X030380Y016292D01*
X030844Y016292D01*
X030932Y016379D01*
X030932Y016904D01*
X030882Y016954D01*
X030882Y017455D01*
X030907Y017480D01*
X030907Y017482D01*
X030907Y017703D01*
X030749Y017862D01*
X030525Y017862D01*
X030477Y017813D01*
X030373Y017762D01*
X030262Y017762D01*
X030262Y018271D01*
X030175Y018359D01*
X029499Y018359D01*
X029411Y018271D01*
X029411Y016650D01*
X029495Y016567D01*
X029411Y016483D01*
X029411Y015812D01*
X028790Y015812D01*
X028790Y016245D01*
X028858Y016245D01*
X028946Y016333D01*
X028946Y016851D01*
X028858Y016938D01*
X028717Y016938D01*
X028717Y017437D01*
X028587Y017567D01*
X028587Y017787D01*
X028382Y017992D01*
X028092Y017992D01*
X027887Y017787D01*
X027887Y017497D01*
X028092Y017292D01*
X028212Y017292D01*
X028257Y017246D01*
X028257Y016938D01*
X028182Y016938D01*
X028094Y016851D01*
X028094Y016333D01*
X028182Y016245D01*
X028250Y016245D01*
X028250Y015812D01*
X028075Y015812D01*
X027917Y015653D01*
X027887Y015623D01*
X027887Y015837D01*
X027853Y015871D01*
X027992Y015871D01*
X028079Y015959D01*
X028079Y016477D01*
X027992Y016564D01*
X027864Y016564D01*
X027864Y016619D01*
X027992Y016619D01*
X028079Y016707D01*
X028079Y017225D01*
X027992Y017312D01*
X027316Y017312D01*
X027239Y017236D01*
X026762Y017236D01*
X026762Y018271D01*
X026675Y018359D01*
X025999Y018359D01*
X025911Y018271D01*
X025911Y016862D01*
X025125Y016862D01*
X025105Y016841D01*
X025105Y017736D01*
X025017Y017824D01*
X024165Y017824D01*
X024077Y017736D01*
X024077Y015913D01*
X023725Y015562D01*
X023567Y015403D01*
X023567Y015211D01*
X023427Y015071D01*
X023427Y014826D01*
X023353Y014826D01*
X023353Y014885D01*
X023266Y014973D01*
X022708Y014973D01*
X022620Y014885D01*
X022620Y014367D01*
X022696Y014292D01*
X022691Y014287D01*
X022175Y014287D01*
X022106Y014218D01*
X022032Y014292D01*
X021742Y014292D01*
X021537Y014087D01*
X021537Y013797D01*
X021742Y013592D01*
X022032Y013592D01*
X022131Y013691D01*
X022175Y013647D01*
X022671Y013647D01*
X022708Y013610D01*
X023266Y013610D01*
X023353Y013698D01*
X023353Y014216D01*
X023278Y014292D01*
X023353Y014367D01*
X023353Y014426D01*
X023427Y014426D01*
X023427Y014212D01*
X023667Y013972D01*
X024007Y013972D01*
X024247Y014212D01*
X024247Y015071D01*
X024123Y015196D01*
X024286Y015359D01*
X025017Y015359D01*
X025105Y015447D01*
X025105Y016078D01*
X025349Y016322D01*
X025911Y016322D01*
X025911Y014863D01*
X025999Y014775D01*
X026675Y014775D01*
X026762Y014863D01*
X026762Y016483D01*
X026679Y016567D01*
X026762Y016650D01*
X026762Y016696D01*
X027239Y016696D01*
X027316Y016619D01*
X027444Y016619D01*
X027444Y016564D01*
X027316Y016564D01*
X027228Y016477D01*
X027228Y015959D01*
X027269Y015918D01*
X027187Y015837D01*
X027187Y015547D01*
X027392Y015342D01*
X027605Y015342D01*
X027255Y014992D01*
X027142Y014992D01*
X026937Y014787D01*
X026937Y014722D01*
X025462Y014722D01*
X025487Y014747D01*
X025487Y015037D01*
X025282Y015242D01*
X024992Y015242D01*
X024787Y015037D01*
X024787Y014747D01*
X024907Y014627D01*
X024907Y014587D01*
X024907Y014587D01*
X024342Y014022D01*
X024342Y014022D01*
X024207Y013887D01*
X024207Y013187D01*
X023642Y012622D01*
X023492Y012622D01*
X023357Y012487D01*
X023357Y012444D01*
X023137Y012224D01*
X023137Y012059D01*
X023137Y011674D01*
X022949Y011486D01*
X022949Y011623D01*
X022861Y011711D01*
X022500Y011711D01*
X022413Y011623D01*
X022413Y011392D01*
X022161Y011392D01*
X022161Y011542D01*
X022270Y011542D01*
X022501Y011773D01*
X022861Y011773D01*
X022949Y011861D01*
X022949Y012174D01*
X022861Y012262D01*
X022500Y012262D01*
X022430Y012192D01*
X022370Y012192D01*
X022920Y012742D01*
X023204Y012742D01*
X023370Y012742D01*
X023432Y012804D01*
X023487Y012859D01*
X023487Y012866D01*
X023643Y013042D01*
X023832Y013042D01*
X024037Y013247D01*
X024037Y013537D01*
X023832Y013742D01*
X023542Y013742D01*
X023337Y013537D01*
X023337Y013299D01*
X023197Y013142D01*
X022754Y013142D01*
X022637Y013024D01*
X021874Y012262D01*
X021713Y012262D01*
X021625Y012174D01*
X021625Y011942D01*
X021554Y011942D01*
X021504Y011892D01*
X019604Y011892D01*
X019554Y011842D01*
X017470Y011842D01*
X017254Y011842D01*
X016073Y011842D01*
X016137Y011905D01*
X016137Y012278D01*
X016023Y012392D01*
X016920Y012392D01*
X017037Y012509D01*
X017120Y012592D01*
X017187Y012659D01*
X017187Y012426D01*
X017421Y012192D01*
X017753Y012192D01*
X017912Y012351D01*
X018071Y012192D01*
X018403Y012192D01*
X018637Y012426D01*
X018637Y012757D01*
X018403Y012992D01*
X018071Y012992D01*
X017912Y012832D01*
X017753Y012992D01*
X017421Y012992D01*
X017237Y012807D01*
X017237Y013569D01*
X017256Y013592D01*
X017432Y013592D01*
X017637Y013797D01*
X017637Y014087D01*
X017626Y014097D01*
X017699Y014097D01*
X017787Y014185D01*
X017787Y014649D01*
X017699Y014737D01*
X017175Y014737D01*
X017162Y014724D01*
X017149Y014737D01*
X016625Y014737D01*
X016537Y014649D01*
X016537Y014492D01*
X016520Y014492D01*
X016370Y014492D01*
X016092Y014492D01*
X015987Y014387D01*
X015882Y014492D01*
X015592Y014492D01*
X015387Y014287D01*
X015387Y013997D01*
X015537Y013847D01*
X015537Y013642D01*
X015079Y013642D01*
X014992Y013554D01*
X014992Y013029D01*
X015029Y012992D01*
X013770Y012992D01*
X013387Y013374D01*
X013270Y013492D01*
X012170Y013492D01*
X012087Y013574D01*
X011970Y013692D01*
X011220Y013692D01*
X011054Y013692D01*
X010604Y013242D01*
X009320Y013242D01*
X008837Y013724D01*
X008720Y013842D01*
X005770Y013842D01*
X005604Y013842D01*
X002404Y010642D01*
X002020Y010642D01*
X001854Y010642D01*
X001404Y010192D01*
X001287Y010074D01*
X001287Y006624D01*
X001287Y006459D01*
X001637Y006109D01*
X001754Y005992D01*
X002254Y005992D01*
X002420Y005992D01*
X002663Y006235D01*
X002817Y006235D01*
X002905Y006323D01*
X002905Y007313D01*
X002817Y007401D01*
X002457Y007401D01*
X002387Y007331D01*
X002317Y007401D01*
X001957Y007401D01*
X001908Y007353D01*
X001887Y007374D01*
X001887Y008352D01*
X001907Y008332D01*
X001907Y008246D01*
X002042Y008112D01*
X002542Y007612D01*
X002732Y007612D01*
X004037Y007612D01*
X004037Y007272D01*
X004418Y006892D01*
X006018Y006892D01*
X006856Y006892D01*
X007187Y007222D01*
X007187Y006884D01*
X007163Y006861D01*
X007163Y006196D01*
X007230Y006129D01*
X007230Y005911D01*
X007318Y005824D01*
X007528Y005824D01*
X008137Y005182D01*
X008137Y005172D01*
X008321Y004988D01*
X008321Y004988D01*
X008518Y004792D01*
X009087Y004222D01*
X009087Y003822D01*
X009174Y003735D01*
X009174Y003446D01*
X009504Y003117D01*
X009970Y003117D01*
X010299Y003446D01*
X010299Y003735D01*
X010387Y003822D01*
X010387Y004222D01*
X010387Y004642D01*
X011010Y004642D01*
X011425Y005057D01*
X011937Y004545D01*
X011937Y004347D01*
X012142Y004142D01*
X012432Y004142D01*
X012637Y004347D01*
X012637Y004637D01*
X012432Y004842D01*
X012234Y004842D01*
X011537Y005539D01*
X011537Y005914D01*
X011160Y006292D01*
X011253Y006292D01*
X011337Y006376D01*
X011337Y006276D01*
X011571Y006042D01*
X011903Y006042D01*
X012137Y006276D01*
X012137Y006607D01*
X011903Y006842D01*
X011870Y006842D01*
X011820Y006892D01*
X011655Y007056D01*
X011655Y007963D01*
X011647Y007972D01*
X012025Y007972D01*
X012117Y007880D01*
X012117Y007356D01*
X012117Y007330D01*
X012119Y007328D01*
X012119Y006973D01*
X012207Y006885D01*
X012567Y006885D01*
X012655Y006973D01*
X012655Y007328D01*
X012657Y007330D01*
X012657Y007356D01*
X012657Y008103D01*
X012499Y008262D01*
X012249Y008512D01*
X012025Y008512D01*
X011339Y008512D01*
X011499Y008672D01*
X011657Y008830D01*
X011657Y008982D01*
X011707Y008932D01*
X012067Y008932D01*
X012137Y009002D01*
X012207Y008932D01*
X012567Y008932D01*
X012584Y008949D01*
X012795Y008745D01*
X012862Y008680D01*
X012875Y008667D01*
X012967Y008578D01*
X012967Y008478D01*
X012887Y008398D01*
X012887Y007934D01*
X012975Y007846D01*
X013499Y007846D01*
X013587Y007934D01*
X013587Y008398D01*
X013507Y008478D01*
X013507Y008580D01*
X013507Y008803D01*
X013325Y008985D01*
X013323Y008985D01*
X013267Y009039D01*
X013267Y009087D01*
X013132Y009222D01*
X013078Y009222D01*
X012655Y009631D01*
X012655Y009754D01*
X012772Y009637D01*
X013587Y008782D01*
X013587Y008072D01*
X013968Y007692D01*
X014418Y007242D01*
X014468Y007242D01*
X015087Y006622D01*
X015087Y006422D01*
X015087Y006261D01*
X015087Y005861D01*
X015087Y005761D01*
X015087Y005222D01*
X015468Y004842D01*
X015487Y004822D01*
X015487Y004722D01*
X015537Y004672D01*
X015537Y004311D01*
X015537Y003772D01*
X015737Y003572D01*
X016118Y003192D01*
X016529Y003192D01*
X016554Y003167D01*
X010020Y003167D01*
X010119Y003265D02*
X016044Y003265D01*
X015945Y003364D02*
X010217Y003364D01*
X010299Y003463D02*
X015847Y003463D01*
X015748Y003561D02*
X010299Y003561D01*
X010299Y003660D02*
X015650Y003660D01*
X015551Y003758D02*
X010323Y003758D01*
X010387Y003857D02*
X015537Y003857D01*
X015537Y003955D02*
X010387Y003955D01*
X010387Y004054D02*
X015537Y004054D01*
X015537Y004152D02*
X012443Y004152D01*
X012541Y004251D02*
X015537Y004251D01*
X015537Y004349D02*
X012637Y004349D01*
X012637Y004448D02*
X015537Y004448D01*
X015537Y004546D02*
X012637Y004546D01*
X012628Y004645D02*
X015537Y004645D01*
X015487Y004744D02*
X012530Y004744D01*
X012233Y004842D02*
X015467Y004842D01*
X015468Y004842D02*
X015468Y004842D01*
X015369Y004941D02*
X012135Y004941D01*
X012036Y005039D02*
X015270Y005039D01*
X015172Y005138D02*
X011938Y005138D01*
X011839Y005236D02*
X015087Y005236D01*
X015087Y005335D02*
X011741Y005335D01*
X011642Y005433D02*
X015087Y005433D01*
X015087Y005532D02*
X011544Y005532D01*
X011537Y005630D02*
X015087Y005630D01*
X015087Y005729D02*
X011537Y005729D01*
X011537Y005828D02*
X015087Y005828D01*
X015087Y005926D02*
X011525Y005926D01*
X011427Y006025D02*
X015087Y006025D01*
X015087Y006123D02*
X011984Y006123D01*
X012083Y006222D02*
X015087Y006222D01*
X015087Y006320D02*
X012137Y006320D01*
X012137Y006419D02*
X015087Y006419D01*
X015087Y006517D02*
X012137Y006517D01*
X012128Y006616D02*
X015087Y006616D01*
X014995Y006714D02*
X012030Y006714D01*
X011931Y006813D02*
X014896Y006813D01*
X014798Y006912D02*
X012594Y006912D01*
X012655Y007010D02*
X014699Y007010D01*
X014601Y007109D02*
X012655Y007109D01*
X012655Y007207D02*
X014502Y007207D01*
X014354Y007306D02*
X012655Y007306D01*
X012657Y007404D02*
X014255Y007404D01*
X014157Y007503D02*
X012657Y007503D01*
X012657Y007601D02*
X014058Y007601D01*
X013959Y007700D02*
X012657Y007700D01*
X012657Y007798D02*
X013861Y007798D01*
X013762Y007897D02*
X013550Y007897D01*
X013587Y007996D02*
X013664Y007996D01*
X013587Y008094D02*
X013587Y008094D01*
X013587Y008193D02*
X013587Y008193D01*
X013587Y008291D02*
X013587Y008291D01*
X013587Y008390D02*
X013587Y008390D01*
X013587Y008488D02*
X013507Y008488D01*
X013507Y008587D02*
X013587Y008587D01*
X013587Y008685D02*
X013507Y008685D01*
X013507Y008784D02*
X013585Y008784D01*
X013491Y008882D02*
X013428Y008882D01*
X013397Y008981D02*
X013329Y008981D01*
X013303Y009079D02*
X013267Y009079D01*
X013209Y009178D02*
X013176Y009178D01*
X013116Y009277D02*
X013022Y009277D01*
X013022Y009375D02*
X012920Y009375D01*
X012928Y009474D02*
X012818Y009474D01*
X012834Y009572D02*
X012716Y009572D01*
X012739Y009671D02*
X012655Y009671D01*
X012387Y009492D02*
X012387Y010592D01*
X012137Y010842D01*
X010287Y010842D01*
X009437Y009992D01*
X007987Y009992D01*
X007587Y009592D01*
X006637Y009592D01*
X006237Y009992D01*
X004387Y009992D01*
X004237Y010142D01*
X004237Y011092D01*
X004737Y011592D01*
X008137Y011592D01*
X008987Y012442D01*
X012887Y012442D01*
X014137Y011192D01*
X014137Y010842D01*
X014337Y010642D01*
X017187Y010642D01*
X017987Y011442D01*
X019737Y011442D01*
X019787Y011492D01*
X021387Y011492D01*
X021687Y011192D01*
X022937Y011192D01*
X023337Y011592D01*
X023337Y012142D01*
X023587Y012392D01*
X023399Y012529D02*
X022707Y012529D01*
X022805Y012627D02*
X023647Y012627D01*
X023746Y012726D02*
X022904Y012726D01*
X022837Y012942D02*
X023287Y012942D01*
X023687Y013392D01*
X024037Y013415D02*
X024207Y013415D01*
X024207Y013317D02*
X024037Y013317D01*
X024009Y013218D02*
X024207Y013218D01*
X024140Y013120D02*
X023910Y013120D01*
X024041Y013021D02*
X023625Y013021D01*
X023538Y012923D02*
X023943Y012923D01*
X023844Y012824D02*
X023452Y012824D01*
X023432Y012804D02*
X023432Y012804D01*
X023342Y012430D02*
X022608Y012430D01*
X022509Y012331D02*
X023244Y012331D01*
X023145Y012233D02*
X022890Y012233D01*
X022949Y012134D02*
X023137Y012134D01*
X023137Y012036D02*
X022949Y012036D01*
X022949Y011937D02*
X023137Y011937D01*
X023137Y011839D02*
X022927Y011839D01*
X022930Y011642D02*
X023104Y011642D01*
X023137Y011740D02*
X022468Y011740D01*
X022431Y011642D02*
X022370Y011642D01*
X022413Y011543D02*
X022271Y011543D01*
X022161Y011445D02*
X022413Y011445D01*
X022187Y011742D02*
X021637Y011742D01*
X021587Y011692D01*
X019687Y011692D01*
X019637Y011642D01*
X017337Y011642D01*
X017387Y011642D01*
X017337Y011642D02*
X014037Y011642D01*
X012837Y012842D01*
X011487Y012842D01*
X011137Y012859D02*
X011137Y012697D01*
X011192Y012642D01*
X008904Y012642D01*
X008787Y012524D01*
X008054Y011792D01*
X007399Y011792D01*
X007399Y012023D01*
X007311Y012111D01*
X006950Y012111D01*
X006863Y012023D01*
X006863Y011792D01*
X006611Y011792D01*
X006611Y012023D01*
X006523Y012111D01*
X006163Y012111D01*
X006075Y012023D01*
X006075Y011792D01*
X004654Y011792D01*
X004537Y011674D01*
X004037Y011174D01*
X004037Y011009D01*
X004037Y010224D01*
X004037Y010074D01*
X003999Y010037D01*
X003475Y010037D01*
X003387Y009949D01*
X003387Y009673D01*
X003332Y009729D01*
X003332Y009954D01*
X003244Y010042D01*
X002779Y010042D01*
X002692Y009954D01*
X002692Y009448D01*
X002682Y009448D01*
X002682Y009954D01*
X002594Y010042D01*
X002170Y010042D01*
X002720Y010042D01*
X002837Y010159D01*
X005920Y013242D01*
X008404Y013242D01*
X009004Y012642D01*
X009170Y012642D01*
X010920Y012642D01*
X011037Y012759D01*
X011137Y012859D01*
X011137Y012824D02*
X011102Y012824D01*
X011137Y012726D02*
X011004Y012726D01*
X010837Y012842D02*
X009087Y012842D01*
X008487Y013442D01*
X005837Y013442D01*
X002637Y010242D01*
X002087Y010242D01*
X001687Y009842D01*
X001687Y007292D01*
X002137Y006842D01*
X002137Y006818D01*
X002637Y006818D02*
X002637Y006492D01*
X002337Y006192D01*
X001837Y006192D01*
X001487Y006542D01*
X001487Y009992D01*
X001937Y010442D01*
X002487Y010442D01*
X005687Y013642D01*
X008637Y013642D01*
X009237Y013042D01*
X010687Y013042D01*
X011137Y013492D01*
X011887Y013492D01*
X012087Y013292D01*
X013187Y013292D01*
X013687Y012792D01*
X016637Y012792D01*
X016737Y012892D01*
X016737Y013942D01*
X016737Y014292D02*
X016437Y014292D01*
X016237Y014142D01*
X016237Y013492D01*
X016387Y013342D01*
X016387Y013242D01*
X016412Y013242D01*
X015762Y013242D02*
X015687Y013242D01*
X015662Y013242D01*
X015687Y013242D02*
X015737Y013292D01*
X015712Y013317D01*
X015737Y013342D01*
X015337Y013342D01*
X015312Y013316D01*
X015312Y013292D01*
X014992Y013317D02*
X013444Y013317D01*
X013346Y013415D02*
X014992Y013415D01*
X014992Y013514D02*
X012147Y013514D01*
X012049Y013612D02*
X015050Y013612D01*
X015387Y014007D02*
X013087Y014007D01*
X013087Y014042D02*
X013332Y014042D01*
X013537Y014247D01*
X013537Y014537D01*
X013332Y014742D01*
X013120Y014742D01*
X012787Y015074D01*
X012670Y015192D01*
X012087Y015192D01*
X012087Y015299D01*
X011999Y015387D01*
X011475Y015387D01*
X011462Y015374D01*
X011394Y015442D01*
X010929Y015442D01*
X010842Y015354D01*
X010842Y014829D01*
X010879Y014792D01*
X010842Y014754D01*
X010842Y014229D01*
X010929Y014142D01*
X011394Y014142D01*
X011462Y014210D01*
X011475Y014196D01*
X011999Y014196D01*
X012087Y014284D01*
X012087Y014292D01*
X012254Y014292D01*
X012387Y014159D01*
X012387Y013947D01*
X012592Y013742D01*
X012882Y013742D01*
X013087Y013947D01*
X013087Y014042D01*
X013048Y013908D02*
X015476Y013908D01*
X015537Y013810D02*
X012950Y013810D01*
X012524Y013810D02*
X008752Y013810D01*
X008850Y013711D02*
X015537Y013711D01*
X015387Y014105D02*
X013395Y014105D01*
X013494Y014204D02*
X015387Y014204D01*
X015403Y014302D02*
X013537Y014302D01*
X013537Y014401D02*
X015501Y014401D01*
X015737Y014142D02*
X015737Y013292D01*
X014992Y013218D02*
X013543Y013218D01*
X013642Y013120D02*
X014992Y013120D01*
X015000Y013021D02*
X013740Y013021D01*
X013537Y012592D02*
X013037Y013092D01*
X011887Y013092D01*
X011687Y013292D01*
X011287Y013292D01*
X010837Y012842D01*
X010679Y013317D02*
X009244Y013317D01*
X009146Y013415D02*
X010778Y013415D01*
X010876Y013514D02*
X009047Y013514D01*
X008949Y013612D02*
X010975Y013612D01*
X010867Y014204D02*
X010806Y014204D01*
X010832Y014302D02*
X010842Y014302D01*
X010832Y014401D02*
X010842Y014401D01*
X010832Y014499D02*
X010842Y014499D01*
X010832Y014598D02*
X010842Y014598D01*
X010832Y014696D02*
X010842Y014696D01*
X010876Y014795D02*
X010798Y014795D01*
X010832Y014894D02*
X010842Y014894D01*
X010832Y014992D02*
X010842Y014992D01*
X010832Y015091D02*
X010842Y015091D01*
X010832Y015189D02*
X010842Y015189D01*
X010832Y015288D02*
X010842Y015288D01*
X010874Y015386D02*
X010800Y015386D01*
X010875Y015485D02*
X013570Y015485D01*
X013578Y015493D02*
X013490Y015405D01*
X013490Y014848D01*
X013578Y014760D01*
X014096Y014760D01*
X014184Y014848D01*
X014184Y014900D01*
X014342Y014742D01*
X014632Y014742D01*
X014837Y014947D01*
X014837Y015237D01*
X014632Y015442D01*
X014342Y015442D01*
X014227Y015326D01*
X014184Y015326D01*
X014184Y015405D01*
X014096Y015493D01*
X013578Y015493D01*
X013490Y015386D02*
X012000Y015386D01*
X012087Y015288D02*
X013490Y015288D01*
X013490Y015189D02*
X012672Y015189D01*
X012771Y015091D02*
X013490Y015091D01*
X013490Y014992D02*
X012869Y014992D01*
X012968Y014894D02*
X013490Y014894D01*
X013543Y014795D02*
X013066Y014795D01*
X013377Y014696D02*
X016584Y014696D01*
X016537Y014598D02*
X013476Y014598D01*
X013537Y014499D02*
X016537Y014499D01*
X016737Y014292D02*
X016862Y014417D01*
X016887Y014417D01*
X017437Y014417D01*
X017787Y014401D02*
X019033Y014401D01*
X018934Y014499D02*
X017787Y014499D01*
X017787Y014598D02*
X018887Y014598D01*
X018887Y014696D02*
X017740Y014696D01*
X017748Y014795D02*
X018887Y014795D01*
X018944Y014894D02*
X017787Y014894D01*
X017787Y014992D02*
X018992Y014992D01*
X018893Y015091D02*
X017787Y015091D01*
X017787Y015189D02*
X018887Y015189D01*
X018887Y015288D02*
X017787Y015288D01*
X017726Y015386D02*
X018887Y015386D01*
X019237Y015242D02*
X019387Y015242D01*
X020087Y015942D01*
X021087Y015942D01*
X021637Y016492D01*
X021637Y018692D01*
X021087Y019242D01*
X021087Y019692D01*
X021354Y019919D02*
X021965Y019919D01*
X021927Y020018D02*
X021256Y020018D01*
X021437Y019821D02*
X022028Y019821D01*
X022137Y019722D02*
X021437Y019722D01*
X021437Y019624D02*
X022137Y019624D01*
X022137Y019525D02*
X021415Y019525D01*
X021317Y019427D02*
X021592Y019427D01*
X021493Y019328D02*
X021287Y019328D01*
X021382Y019229D02*
X021450Y019229D01*
X021837Y019092D02*
X021837Y016342D01*
X021237Y015742D01*
X020187Y015742D01*
X019587Y015142D01*
X019587Y015092D01*
X019237Y014742D01*
X019237Y014692D01*
X019587Y014696D02*
X019947Y014696D01*
X019937Y014598D02*
X019587Y014598D01*
X019587Y014795D02*
X020045Y014795D01*
X020287Y014894D02*
X019672Y014894D01*
X019770Y014992D02*
X020287Y014992D01*
X020287Y015091D02*
X019819Y015091D01*
X019917Y015189D02*
X020340Y015189D01*
X020438Y015288D02*
X020016Y015288D01*
X020114Y015386D02*
X020987Y015386D01*
X020987Y015288D02*
X020836Y015288D01*
X020934Y015189D02*
X020987Y015189D01*
X020987Y015091D02*
X020987Y015091D01*
X020987Y014992D02*
X020987Y014992D01*
X020987Y014894D02*
X020987Y014894D01*
X020987Y014795D02*
X020935Y014795D01*
X020987Y014696D02*
X020837Y014696D01*
X020837Y014598D02*
X020987Y014598D01*
X020987Y014499D02*
X020837Y014499D01*
X020837Y014401D02*
X020987Y014401D01*
X020987Y014302D02*
X020837Y014302D01*
X020837Y014204D02*
X020987Y014204D01*
X020987Y014105D02*
X020837Y014105D01*
X020837Y014007D02*
X020987Y014007D01*
X020987Y013908D02*
X020837Y013908D01*
X020837Y013810D02*
X020910Y013810D01*
X020837Y013711D02*
X020837Y013711D01*
X020837Y013612D02*
X020837Y013612D01*
X020837Y013514D02*
X020837Y013514D01*
X020837Y013415D02*
X020868Y013415D01*
X020837Y013317D02*
X020967Y013317D01*
X020837Y013218D02*
X023265Y013218D01*
X023337Y013317D02*
X021407Y013317D01*
X021506Y013415D02*
X023337Y013415D01*
X023337Y013514D02*
X021537Y013514D01*
X021537Y013612D02*
X021721Y013612D01*
X021623Y013711D02*
X021537Y013711D01*
X021537Y013810D02*
X021464Y013810D01*
X021537Y013908D02*
X021387Y013908D01*
X021387Y014007D02*
X021537Y014007D01*
X021556Y014105D02*
X021387Y014105D01*
X021387Y014204D02*
X021654Y014204D01*
X021387Y014302D02*
X022685Y014302D01*
X022620Y014401D02*
X021387Y014401D01*
X021387Y014499D02*
X022620Y014499D01*
X022620Y014598D02*
X021387Y014598D01*
X021387Y014696D02*
X022620Y014696D01*
X022620Y014795D02*
X021387Y014795D01*
X021387Y014894D02*
X022629Y014894D01*
X022987Y014626D02*
X023822Y014626D01*
X023837Y014642D01*
X023427Y014401D02*
X023353Y014401D01*
X023288Y014302D02*
X023427Y014302D01*
X023435Y014204D02*
X023353Y014204D01*
X023353Y014105D02*
X023534Y014105D01*
X023632Y014007D02*
X023353Y014007D01*
X023353Y013908D02*
X024228Y013908D01*
X024207Y013810D02*
X023353Y013810D01*
X023353Y013711D02*
X023511Y013711D01*
X023413Y013612D02*
X023268Y013612D01*
X022987Y013957D02*
X022987Y013992D01*
X022962Y013967D01*
X022437Y013967D01*
X022437Y013942D01*
X021887Y013942D01*
X022053Y013612D02*
X022706Y013612D01*
X022487Y013942D02*
X022462Y013967D01*
X022437Y013967D01*
X022732Y013120D02*
X020837Y013120D01*
X020837Y013021D02*
X022634Y013021D01*
X022535Y012923D02*
X020837Y012923D01*
X020837Y012824D02*
X022437Y012824D01*
X022338Y012726D02*
X020837Y012726D01*
X020896Y012627D02*
X022240Y012627D01*
X022141Y012529D02*
X020987Y012529D01*
X020987Y012430D02*
X022042Y012430D01*
X021944Y012331D02*
X020987Y012331D01*
X020973Y012233D02*
X021684Y012233D01*
X021625Y012134D02*
X020875Y012134D01*
X020637Y012392D02*
X020637Y014992D01*
X020287Y014542D02*
X020287Y014342D01*
X020437Y014192D01*
X020437Y012892D01*
X020087Y012542D01*
X019737Y012529D02*
X018637Y012529D01*
X018637Y012627D02*
X019737Y012627D01*
X019776Y012726D02*
X018637Y012726D01*
X018570Y012824D02*
X019874Y012824D01*
X020185Y012923D02*
X018471Y012923D01*
X018237Y012592D02*
X018287Y012492D01*
X018542Y012331D02*
X019802Y012331D01*
X019737Y012430D02*
X018637Y012430D01*
X018444Y012233D02*
X019901Y012233D01*
X020273Y012233D02*
X020301Y012233D01*
X020399Y012134D02*
X016137Y012134D01*
X016137Y012036D02*
X021625Y012036D01*
X021550Y011937D02*
X016137Y011937D01*
X016137Y012233D02*
X017380Y012233D01*
X017281Y012331D02*
X016084Y012331D01*
X016837Y012592D02*
X013537Y012592D01*
X012911Y012134D02*
X012713Y012134D01*
X012706Y012142D02*
X010156Y012142D01*
X009618Y012142D01*
X008891Y011415D01*
X008243Y011415D01*
X009070Y012242D01*
X012804Y012242D01*
X013937Y011109D01*
X013937Y010924D01*
X013937Y010759D01*
X014137Y010559D01*
X014137Y010559D01*
X014254Y010442D01*
X017270Y010442D01*
X017387Y010559D01*
X018070Y011242D01*
X019654Y011242D01*
X019820Y011242D01*
X019870Y011292D01*
X021304Y011292D01*
X021454Y011142D01*
X020568Y011142D01*
X020541Y011115D01*
X020294Y011115D01*
X020256Y011115D01*
X019218Y011115D01*
X018718Y011115D01*
X018218Y011115D01*
X017837Y010734D01*
X017837Y010711D01*
X016412Y009286D01*
X016387Y009261D01*
X016387Y008722D01*
X016387Y007411D01*
X016287Y007311D01*
X016287Y007261D01*
X016006Y007542D01*
X015387Y008161D01*
X015006Y008542D01*
X014956Y008542D01*
X014887Y008611D01*
X014887Y008772D01*
X014887Y009302D01*
X014887Y009311D01*
X014702Y009496D01*
X013887Y010352D01*
X013887Y010861D01*
X013837Y010911D01*
X013837Y011011D01*
X013087Y011761D01*
X012706Y012142D01*
X012813Y012233D02*
X009061Y012233D01*
X008962Y012134D02*
X009610Y012134D01*
X009512Y012036D02*
X008864Y012036D01*
X008765Y011937D02*
X009413Y011937D01*
X009315Y011839D02*
X008667Y011839D01*
X008568Y011740D02*
X009216Y011740D01*
X009118Y011642D02*
X008470Y011642D01*
X008371Y011543D02*
X009019Y011543D01*
X008921Y011445D02*
X008273Y011445D01*
X008101Y011839D02*
X007399Y011839D01*
X007399Y011937D02*
X008200Y011937D01*
X008298Y012036D02*
X007386Y012036D01*
X007311Y012173D02*
X006950Y012173D01*
X006863Y012261D01*
X006863Y012574D01*
X006950Y012662D01*
X007074Y012662D01*
X007187Y012774D01*
X007187Y013037D01*
X007392Y013242D01*
X007682Y013242D01*
X007887Y013037D01*
X007887Y012747D01*
X007682Y012542D01*
X007520Y012542D01*
X007399Y012421D01*
X007399Y012261D01*
X007311Y012173D01*
X007371Y012233D02*
X008495Y012233D01*
X008397Y012134D02*
X004812Y012134D01*
X004714Y012036D02*
X006088Y012036D01*
X006075Y011937D02*
X004615Y011937D01*
X004517Y011839D02*
X006075Y011839D01*
X006163Y012173D02*
X006523Y012173D01*
X006611Y012261D01*
X006611Y012574D01*
X006563Y012622D01*
X006637Y012697D01*
X006637Y012987D01*
X006432Y013192D01*
X006142Y013192D01*
X005937Y012987D01*
X005937Y012697D01*
X006075Y012559D01*
X006075Y012261D01*
X006163Y012173D01*
X006103Y012233D02*
X004911Y012233D01*
X005009Y012331D02*
X006075Y012331D01*
X006075Y012430D02*
X005108Y012430D01*
X005207Y012529D02*
X006075Y012529D01*
X006007Y012627D02*
X005305Y012627D01*
X005404Y012726D02*
X005937Y012726D01*
X005937Y012824D02*
X005502Y012824D01*
X005601Y012923D02*
X005937Y012923D01*
X005972Y013021D02*
X005699Y013021D01*
X005798Y013120D02*
X006070Y013120D01*
X005896Y013218D02*
X007369Y013218D01*
X007270Y013120D02*
X006504Y013120D01*
X006602Y013021D02*
X007187Y013021D01*
X007187Y012923D02*
X006637Y012923D01*
X006637Y012824D02*
X007187Y012824D01*
X007138Y012726D02*
X006637Y012726D01*
X006567Y012627D02*
X006916Y012627D01*
X006863Y012529D02*
X006611Y012529D01*
X006611Y012430D02*
X006863Y012430D01*
X006863Y012331D02*
X006611Y012331D01*
X006584Y012233D02*
X006890Y012233D01*
X006876Y012036D02*
X006598Y012036D01*
X006611Y011937D02*
X006863Y011937D01*
X006863Y011839D02*
X006611Y011839D01*
X006343Y012417D02*
X006343Y012798D01*
X006287Y012842D01*
X007131Y012435D02*
X007537Y012842D01*
X007537Y012892D01*
X007804Y013120D02*
X008526Y013120D01*
X008427Y013218D02*
X007705Y013218D01*
X007887Y013021D02*
X008625Y013021D01*
X008723Y012923D02*
X007887Y012923D01*
X007887Y012824D02*
X008822Y012824D01*
X008920Y012726D02*
X007866Y012726D01*
X007767Y012627D02*
X008890Y012627D01*
X008791Y012529D02*
X007507Y012529D01*
X007408Y012430D02*
X008692Y012430D01*
X008594Y012331D02*
X007399Y012331D01*
X007131Y012417D02*
X007131Y012435D01*
X005572Y013810D02*
X004237Y013810D01*
X004237Y013824D02*
X004237Y013659D01*
X004182Y013604D01*
X004182Y013379D01*
X004094Y013292D01*
X003630Y013292D01*
X003581Y013341D01*
X003482Y013242D01*
X003220Y013242D01*
X002037Y012059D01*
X002037Y011974D01*
X002037Y011937D01*
X003700Y011937D01*
X003798Y012036D02*
X002037Y012036D01*
X002037Y011937D02*
X002137Y011837D01*
X002137Y011547D01*
X001932Y011342D01*
X001642Y011342D01*
X001437Y011547D01*
X001437Y011837D01*
X001637Y012037D01*
X001637Y012059D01*
X001637Y012224D01*
X002987Y013574D01*
X002987Y013737D01*
X003117Y013867D01*
X002987Y013997D01*
X002987Y014287D01*
X003192Y014492D01*
X003482Y014492D01*
X003556Y014417D01*
X003630Y014492D01*
X004094Y014492D01*
X004182Y014404D01*
X004182Y013904D01*
X004182Y013879D01*
X004237Y013824D01*
X004182Y013908D02*
X012426Y013908D01*
X012387Y014007D02*
X004182Y014007D01*
X004182Y014105D02*
X012387Y014105D01*
X012342Y014204D02*
X012006Y014204D01*
X011737Y014492D02*
X011162Y014492D01*
X011456Y014204D02*
X011467Y014204D01*
X011737Y014492D02*
X012337Y014492D01*
X012737Y014092D01*
X013187Y014392D02*
X012587Y014992D01*
X011837Y014992D01*
X011762Y015067D01*
X011737Y015067D01*
X011737Y015042D01*
X011687Y015092D01*
X011162Y015092D01*
X011449Y015386D02*
X011474Y015386D01*
X010887Y015583D02*
X017087Y015583D01*
X017087Y015485D02*
X014104Y015485D01*
X014184Y015386D02*
X014287Y015386D01*
X014452Y015126D02*
X013837Y015126D01*
X014184Y014894D02*
X014190Y014894D01*
X014131Y014795D02*
X014289Y014795D01*
X014685Y014795D02*
X017126Y014795D01*
X017087Y014894D02*
X014784Y014894D01*
X014837Y014992D02*
X017087Y014992D01*
X017087Y015091D02*
X014837Y015091D01*
X014837Y015189D02*
X017087Y015189D01*
X017087Y015288D02*
X014786Y015288D01*
X014687Y015386D02*
X017147Y015386D01*
X017087Y015682D02*
X015522Y015682D01*
X015621Y015780D02*
X017131Y015780D01*
X017229Y015879D02*
X015637Y015879D01*
X015487Y016092D02*
X018462Y016092D01*
X018782Y016076D02*
X018792Y016076D01*
X018782Y015978D02*
X018792Y015978D01*
X018782Y016175D02*
X018792Y016175D01*
X018782Y016273D02*
X018792Y016273D01*
X018799Y016372D02*
X018774Y016372D01*
X018782Y016470D02*
X018792Y016470D01*
X018782Y016569D02*
X018792Y016569D01*
X018782Y016667D02*
X018792Y016667D01*
X018782Y016766D02*
X018792Y016766D01*
X018782Y016864D02*
X018792Y016864D01*
X018851Y016963D02*
X018723Y016963D01*
X018462Y016642D02*
X018387Y016642D01*
X018037Y016292D01*
X014837Y016292D01*
X014737Y016192D01*
X014587Y016142D01*
X014819Y015879D02*
X014937Y015879D01*
X014937Y015978D02*
X014918Y015978D01*
X014937Y016076D02*
X014937Y016076D01*
X014953Y015780D02*
X010887Y015780D01*
X010887Y015682D02*
X015052Y015682D01*
X015287Y015942D02*
X015337Y015942D01*
X015487Y016092D01*
X016387Y016892D02*
X012287Y016892D01*
X012137Y016742D01*
X009087Y016742D01*
X008787Y016442D01*
X008518Y016667D02*
X008206Y016667D01*
X008287Y016587D02*
X008082Y016792D01*
X007792Y016792D01*
X007687Y016687D01*
X007582Y016792D01*
X007292Y016792D01*
X007087Y016587D01*
X007087Y016374D01*
X006987Y016274D01*
X006987Y014909D01*
X007104Y014792D01*
X007604Y014292D01*
X007770Y014292D01*
X008392Y014292D01*
X008392Y014229D01*
X008480Y014142D01*
X008944Y014142D01*
X009032Y014229D01*
X009032Y014754D01*
X008994Y014792D01*
X009032Y014829D01*
X009032Y015354D01*
X008944Y015442D01*
X008480Y015442D01*
X008392Y015354D01*
X008392Y015342D01*
X008270Y015342D01*
X008104Y015342D01*
X007804Y015042D01*
X007720Y015042D01*
X007587Y015174D01*
X007587Y015809D01*
X007870Y016092D01*
X008082Y016092D01*
X008287Y016297D01*
X008287Y016587D01*
X008287Y016569D02*
X008437Y016569D01*
X008437Y016470D02*
X008287Y016470D01*
X008287Y016372D02*
X008437Y016372D01*
X008460Y016273D02*
X008263Y016273D01*
X008165Y016175D02*
X008559Y016175D01*
X009015Y016175D02*
X009109Y016175D01*
X009208Y016076D02*
X007854Y016076D01*
X007756Y015978D02*
X010378Y015978D01*
X010279Y015879D02*
X007657Y015879D01*
X007587Y015780D02*
X010187Y015780D01*
X010187Y015682D02*
X007587Y015682D01*
X007587Y015583D02*
X010187Y015583D01*
X010199Y015485D02*
X007587Y015485D01*
X007587Y015386D02*
X008425Y015386D01*
X008187Y015142D02*
X007887Y014842D01*
X007637Y014842D01*
X007387Y015092D01*
X007387Y015892D01*
X007937Y016442D01*
X008108Y016766D02*
X008616Y016766D01*
X008927Y016864D02*
X007237Y016864D01*
X007237Y016766D02*
X007266Y016766D01*
X007168Y016667D02*
X007145Y016667D01*
X007087Y016569D02*
X007047Y016569D01*
X007087Y016470D02*
X006948Y016470D01*
X006850Y016372D02*
X007084Y016372D01*
X006987Y016273D02*
X006751Y016273D01*
X006737Y016175D02*
X006987Y016175D01*
X006987Y016076D02*
X006737Y016076D01*
X006737Y015978D02*
X006987Y015978D01*
X006987Y015879D02*
X006737Y015879D01*
X006737Y015780D02*
X006987Y015780D01*
X006987Y015682D02*
X006737Y015682D01*
X006737Y015583D02*
X006987Y015583D01*
X006987Y015485D02*
X006713Y015485D01*
X006614Y015386D02*
X006987Y015386D01*
X006987Y015288D02*
X006516Y015288D01*
X006417Y015189D02*
X006987Y015189D01*
X006987Y015091D02*
X006319Y015091D01*
X006220Y014992D02*
X006987Y014992D01*
X007002Y014894D02*
X006122Y014894D01*
X006023Y014795D02*
X007101Y014795D01*
X007199Y014696D02*
X005937Y014696D01*
X005937Y014598D02*
X007298Y014598D01*
X007396Y014499D02*
X005937Y014499D01*
X005841Y014401D02*
X007495Y014401D01*
X007593Y014302D02*
X005742Y014302D01*
X005431Y014302D02*
X004182Y014302D01*
X004182Y014204D02*
X008418Y014204D01*
X008712Y014492D02*
X007687Y014492D01*
X007187Y014992D01*
X007187Y016192D01*
X007437Y016442D01*
X007608Y016766D02*
X007766Y016766D01*
X007452Y017061D02*
X009037Y017061D01*
X009037Y016963D02*
X007353Y016963D01*
X007487Y017160D02*
X009037Y017160D01*
X009059Y017259D02*
X007487Y017259D01*
X007487Y017357D02*
X008976Y017357D01*
X008878Y017456D02*
X007418Y017456D01*
X007319Y017554D02*
X008837Y017554D01*
X008837Y017653D02*
X007393Y017653D01*
X007487Y017751D02*
X008594Y017751D01*
X008496Y017850D02*
X007487Y017850D01*
X007487Y017948D02*
X008397Y017948D01*
X008299Y018047D02*
X007477Y018047D01*
X007500Y018145D02*
X007378Y018145D01*
X007402Y018244D02*
X006982Y018244D01*
X006982Y018343D02*
X007303Y018343D01*
X007205Y018441D02*
X006900Y018441D01*
X007008Y018638D02*
X005687Y018638D01*
X005687Y018540D02*
X007106Y018540D01*
X007187Y018742D02*
X007637Y018292D01*
X008337Y018292D01*
X008687Y017942D01*
X008887Y017942D01*
X009187Y017642D01*
X009587Y017792D02*
X009237Y018142D01*
X008787Y018142D01*
X008437Y018492D01*
X007737Y018492D01*
X007387Y018842D01*
X007387Y019692D01*
X006587Y020492D01*
X005587Y020492D01*
X005137Y020042D01*
X005137Y019692D01*
X005037Y019592D01*
X004592Y019624D02*
X004482Y019624D01*
X004482Y019722D02*
X004592Y019722D01*
X004592Y019821D02*
X004482Y019821D01*
X004482Y019919D02*
X004592Y019919D01*
X004592Y020018D02*
X004482Y020018D01*
X004482Y020116D02*
X004592Y020116D01*
X004592Y020215D02*
X004482Y020215D01*
X004482Y020313D02*
X004592Y020313D01*
X004645Y020412D02*
X004429Y020412D01*
X005323Y020511D02*
X001187Y020511D01*
X001187Y020412D02*
X002645Y020412D01*
X002592Y020313D02*
X001187Y020313D01*
X001187Y020215D02*
X002592Y020215D01*
X002592Y020116D02*
X001187Y020116D01*
X001187Y020018D02*
X002592Y020018D01*
X002592Y019919D02*
X001187Y019919D01*
X001187Y019821D02*
X002592Y019821D01*
X002592Y019722D02*
X001187Y019722D01*
X001187Y019624D02*
X002592Y019624D01*
X002592Y019525D02*
X001187Y019525D01*
X001187Y019427D02*
X002592Y019427D01*
X002592Y019328D02*
X001187Y019328D01*
X001187Y019229D02*
X002592Y019229D01*
X002592Y019131D02*
X001187Y019131D01*
X001187Y019032D02*
X002592Y019032D01*
X002334Y018934D02*
X001187Y018934D01*
X001187Y018835D02*
X002236Y018835D01*
X002187Y018737D02*
X001187Y018737D01*
X001187Y018638D02*
X002187Y018638D01*
X002187Y018540D02*
X001187Y018540D01*
X001187Y018441D02*
X002174Y018441D01*
X002092Y018343D02*
X001187Y018343D01*
X001187Y018244D02*
X002092Y018244D01*
X002092Y018145D02*
X001187Y018145D01*
X001187Y018047D02*
X002092Y018047D01*
X002092Y017948D02*
X001187Y017948D01*
X001187Y017850D02*
X002092Y017850D01*
X002092Y017751D02*
X001187Y017751D01*
X001187Y017653D02*
X002092Y017653D01*
X002092Y017554D02*
X001187Y017554D01*
X001187Y017456D02*
X002092Y017456D01*
X002092Y017357D02*
X001187Y017357D01*
X001187Y017259D02*
X002092Y017259D01*
X002092Y017160D02*
X001187Y017160D01*
X001187Y017061D02*
X002092Y017061D01*
X002092Y016963D02*
X001187Y016963D01*
X001187Y016864D02*
X002092Y016864D01*
X002151Y016766D02*
X001187Y016766D01*
X001187Y016667D02*
X004537Y016667D01*
X004537Y016569D02*
X001187Y016569D01*
X001187Y016470D02*
X004537Y016470D01*
X004562Y016372D02*
X001187Y016372D01*
X001187Y016273D02*
X004660Y016273D01*
X004887Y016542D02*
X004937Y016542D01*
X005487Y017092D01*
X005537Y017092D01*
X005537Y017592D01*
X005537Y018142D01*
X005337Y018342D01*
X005337Y018542D01*
X004987Y018540D02*
X004387Y018540D01*
X004331Y018441D02*
X004987Y018441D01*
X005041Y018343D02*
X004233Y018343D01*
X003982Y018244D02*
X005092Y018244D01*
X005092Y018145D02*
X003982Y018145D01*
X003982Y018047D02*
X005092Y018047D01*
X005092Y017948D02*
X003982Y017948D01*
X003982Y017850D02*
X005092Y017850D01*
X005092Y017751D02*
X003982Y017751D01*
X003982Y017653D02*
X005092Y017653D01*
X005092Y017554D02*
X003982Y017554D01*
X003982Y017456D02*
X005092Y017456D01*
X005092Y017357D02*
X003982Y017357D01*
X003982Y017259D02*
X005092Y017259D01*
X005092Y017160D02*
X003982Y017160D01*
X003982Y017061D02*
X005092Y017061D01*
X005075Y016963D02*
X003982Y016963D01*
X003982Y016864D02*
X004715Y016864D01*
X004616Y016766D02*
X003923Y016766D01*
X003151Y016766D02*
X002923Y016766D01*
X002982Y016864D02*
X003092Y016864D01*
X003092Y016963D02*
X002982Y016963D01*
X002982Y017061D02*
X003092Y017061D01*
X003092Y017160D02*
X002982Y017160D01*
X002982Y017259D02*
X003092Y017259D01*
X003092Y017357D02*
X002982Y017357D01*
X002982Y017456D02*
X003092Y017456D01*
X003092Y017554D02*
X002982Y017554D01*
X002982Y017653D02*
X003092Y017653D01*
X003092Y017751D02*
X002982Y017751D01*
X002982Y017850D02*
X003092Y017850D01*
X003092Y017948D02*
X002982Y017948D01*
X002982Y018047D02*
X003092Y018047D01*
X003092Y018145D02*
X002982Y018145D01*
X002982Y018244D02*
X003092Y018244D01*
X003037Y018642D02*
X003037Y019592D01*
X003482Y019624D02*
X003592Y019624D01*
X003592Y019722D02*
X003482Y019722D01*
X003482Y019821D02*
X003592Y019821D01*
X003592Y019919D02*
X003482Y019919D01*
X003482Y020018D02*
X003592Y020018D01*
X003592Y020116D02*
X003482Y020116D01*
X003482Y020215D02*
X003592Y020215D01*
X003592Y020313D02*
X003482Y020313D01*
X003429Y020412D02*
X003645Y020412D01*
X003592Y019525D02*
X003482Y019525D01*
X003482Y019427D02*
X003592Y019427D01*
X003592Y019328D02*
X003482Y019328D01*
X003482Y019229D02*
X003592Y019229D01*
X003592Y019131D02*
X003482Y019131D01*
X003482Y019032D02*
X003592Y019032D01*
X003537Y018642D02*
X003537Y017592D01*
X002587Y017592D02*
X002537Y017642D01*
X002537Y018642D01*
X002537Y017592D02*
X002587Y017592D01*
X004037Y018642D02*
X004037Y019242D01*
X004087Y019292D01*
X004087Y019542D01*
X004037Y019592D01*
X004482Y019525D02*
X004592Y019525D01*
X004592Y019427D02*
X004482Y019427D01*
X004482Y019328D02*
X004592Y019328D01*
X004592Y019229D02*
X004482Y019229D01*
X004482Y019131D02*
X004592Y019131D01*
X004592Y019032D02*
X004482Y019032D01*
X004482Y018934D02*
X004592Y018934D01*
X004592Y018835D02*
X004482Y018835D01*
X004987Y018687D02*
X005037Y018737D01*
X005482Y018934D02*
X005592Y018934D01*
X005592Y019032D02*
X005482Y019032D01*
X005482Y019131D02*
X005592Y019131D01*
X005592Y019229D02*
X005482Y019229D01*
X005482Y019328D02*
X005592Y019328D01*
X005592Y019427D02*
X005482Y019427D01*
X005482Y019525D02*
X005592Y019525D01*
X005592Y019624D02*
X005482Y019624D01*
X005482Y019722D02*
X005592Y019722D01*
X005592Y019821D02*
X005482Y019821D01*
X005482Y019919D02*
X005592Y019919D01*
X005592Y020018D02*
X005482Y020018D01*
X005494Y020116D02*
X005592Y020116D01*
X006137Y019592D02*
X006187Y019642D01*
X006237Y019592D01*
X006637Y019592D01*
X007187Y019042D01*
X007187Y018742D01*
X006987Y018737D02*
X005637Y018737D01*
X005592Y018835D02*
X005538Y018835D01*
X005900Y018441D02*
X006174Y018441D01*
X006092Y018343D02*
X005982Y018343D01*
X005982Y018244D02*
X006092Y018244D01*
X006092Y018145D02*
X005982Y018145D01*
X005982Y018047D02*
X006092Y018047D01*
X006092Y017948D02*
X005982Y017948D01*
X005982Y017850D02*
X006092Y017850D01*
X006092Y017751D02*
X005982Y017751D01*
X005982Y017653D02*
X006092Y017653D01*
X006092Y017554D02*
X005982Y017554D01*
X005982Y017456D02*
X006092Y017456D01*
X006092Y017357D02*
X005982Y017357D01*
X005982Y017259D02*
X006092Y017259D01*
X006092Y017160D02*
X005982Y017160D01*
X005982Y017061D02*
X006092Y017061D01*
X006092Y016963D02*
X005982Y016963D01*
X005982Y016864D02*
X006092Y016864D01*
X006151Y016766D02*
X005923Y016766D01*
X005805Y016667D02*
X005769Y016667D01*
X005782Y016569D02*
X005792Y016569D01*
X005782Y016470D02*
X005792Y016470D01*
X005782Y016372D02*
X005792Y016372D01*
X005782Y016273D02*
X005792Y016273D01*
X005782Y016175D02*
X005792Y016175D01*
X005845Y016076D02*
X005729Y016076D01*
X005878Y015978D02*
X001187Y015978D01*
X001187Y016076D02*
X005196Y016076D01*
X005142Y016175D02*
X001187Y016175D01*
X001187Y015879D02*
X005787Y015879D01*
X005787Y015780D02*
X001187Y015780D01*
X001187Y015682D02*
X005787Y015682D01*
X005800Y015583D02*
X001187Y015583D01*
X001187Y015485D02*
X003235Y015485D01*
X003242Y015492D02*
X003037Y015287D01*
X003037Y014997D01*
X003242Y014792D01*
X003532Y014792D01*
X003606Y014866D01*
X003680Y014792D01*
X003804Y014792D01*
X003970Y014792D01*
X004144Y014792D01*
X004232Y014879D01*
X004232Y015404D01*
X004144Y015492D01*
X003680Y015492D01*
X003606Y015417D01*
X003532Y015492D01*
X003242Y015492D01*
X003137Y015386D02*
X001187Y015386D01*
X001187Y015288D02*
X003038Y015288D01*
X003037Y015189D02*
X001187Y015189D01*
X001187Y015091D02*
X003037Y015091D01*
X003042Y014992D02*
X001187Y014992D01*
X001187Y014894D02*
X003140Y014894D01*
X003239Y014795D02*
X001187Y014795D01*
X001187Y014696D02*
X005237Y014696D01*
X005237Y014598D02*
X001187Y014598D01*
X001187Y014499D02*
X005237Y014499D01*
X005333Y014401D02*
X004182Y014401D01*
X003887Y014142D02*
X003862Y014142D01*
X003337Y014142D01*
X003101Y014401D02*
X001187Y014401D01*
X001187Y014302D02*
X003003Y014302D01*
X002987Y014204D02*
X001187Y014204D01*
X001187Y014105D02*
X002987Y014105D01*
X002987Y014007D02*
X001187Y014007D01*
X001187Y013908D02*
X003076Y013908D01*
X003060Y013810D02*
X001187Y013810D01*
X001187Y013711D02*
X002987Y013711D01*
X002987Y013612D02*
X001187Y013612D01*
X001187Y013514D02*
X002926Y013514D01*
X002828Y013415D02*
X001187Y013415D01*
X001187Y013317D02*
X002729Y013317D01*
X002631Y013218D02*
X001187Y013218D01*
X001187Y013120D02*
X002532Y013120D01*
X002434Y013021D02*
X001187Y013021D01*
X001187Y012923D02*
X002335Y012923D01*
X002237Y012824D02*
X001187Y012824D01*
X001187Y012726D02*
X002138Y012726D01*
X002040Y012627D02*
X001187Y012627D01*
X001187Y012529D02*
X001941Y012529D01*
X001842Y012430D02*
X001187Y012430D01*
X001187Y012331D02*
X001744Y012331D01*
X001645Y012233D02*
X001187Y012233D01*
X001187Y012134D02*
X001637Y012134D01*
X001636Y012036D02*
X001187Y012036D01*
X001187Y011937D02*
X001538Y011937D01*
X001439Y011839D02*
X001187Y011839D01*
X001187Y011740D02*
X001437Y011740D01*
X001437Y011642D02*
X001187Y011642D01*
X001187Y011543D02*
X001441Y011543D01*
X001539Y011445D02*
X001187Y011445D01*
X001187Y011346D02*
X001638Y011346D01*
X001936Y011346D02*
X003108Y011346D01*
X003010Y011247D02*
X001187Y011247D01*
X001187Y011149D02*
X002911Y011149D01*
X002813Y011050D02*
X001187Y011050D01*
X001187Y010952D02*
X002714Y010952D01*
X002616Y010853D02*
X001187Y010853D01*
X001187Y010755D02*
X002517Y010755D01*
X002419Y010656D02*
X001187Y010656D01*
X001187Y010558D02*
X001770Y010558D01*
X001672Y010459D02*
X001187Y010459D01*
X001187Y010361D02*
X001573Y010361D01*
X001474Y010262D02*
X001187Y010262D01*
X001187Y010163D02*
X001376Y010163D01*
X001287Y010065D02*
X001187Y010065D01*
X001187Y009966D02*
X001287Y009966D01*
X001287Y009868D02*
X001187Y009868D01*
X001187Y009769D02*
X001287Y009769D01*
X001287Y009671D02*
X001187Y009671D01*
X001187Y009572D02*
X001287Y009572D01*
X001287Y009474D02*
X001187Y009474D01*
X001187Y009375D02*
X001287Y009375D01*
X001287Y009277D02*
X001187Y009277D01*
X001187Y009178D02*
X001287Y009178D01*
X001287Y009079D02*
X001187Y009079D01*
X001187Y008981D02*
X001287Y008981D01*
X001287Y008882D02*
X001187Y008882D01*
X001187Y008784D02*
X001287Y008784D01*
X001287Y008685D02*
X001187Y008685D01*
X001187Y008587D02*
X001287Y008587D01*
X001287Y008488D02*
X001187Y008488D01*
X001187Y008390D02*
X001287Y008390D01*
X001287Y008291D02*
X001187Y008291D01*
X001187Y008193D02*
X001287Y008193D01*
X001287Y008094D02*
X001187Y008094D01*
X001187Y007996D02*
X001287Y007996D01*
X001287Y007897D02*
X001187Y007897D01*
X001187Y007798D02*
X001287Y007798D01*
X001287Y007700D02*
X001187Y007700D01*
X001187Y007601D02*
X001287Y007601D01*
X001287Y007503D02*
X001187Y007503D01*
X001187Y007404D02*
X001287Y007404D01*
X001287Y007306D02*
X001187Y007306D01*
X001187Y007207D02*
X001287Y007207D01*
X001287Y007109D02*
X001187Y007109D01*
X001187Y007010D02*
X001287Y007010D01*
X001287Y006912D02*
X001187Y006912D01*
X001187Y006813D02*
X001287Y006813D01*
X001287Y006714D02*
X001187Y006714D01*
X001187Y006616D02*
X001287Y006616D01*
X001287Y006517D02*
X001187Y006517D01*
X001187Y006419D02*
X001327Y006419D01*
X001425Y006320D02*
X001187Y006320D01*
X001187Y006222D02*
X001524Y006222D01*
X001623Y006123D02*
X001187Y006123D01*
X001187Y006025D02*
X001721Y006025D01*
X001187Y005926D02*
X004419Y005926D01*
X004419Y006013D02*
X004419Y005816D01*
X004287Y005684D01*
X004287Y005352D01*
X004419Y005220D01*
X004419Y005023D01*
X004507Y004935D01*
X004678Y004935D01*
X004757Y004856D01*
X004757Y004078D01*
X004845Y003990D01*
X004940Y003990D01*
X004837Y003887D01*
X004837Y003597D01*
X005042Y003392D01*
X005332Y003392D01*
X005537Y003597D01*
X005537Y003887D01*
X005434Y003990D01*
X006116Y003990D01*
X006087Y003961D01*
X006087Y003422D01*
X006468Y003042D01*
X007006Y003042D01*
X007206Y003042D01*
X007393Y003228D01*
X007504Y003117D01*
X007970Y003117D01*
X008299Y003446D01*
X008299Y003735D01*
X008387Y003822D01*
X008387Y004361D01*
X008299Y004448D01*
X008299Y004737D01*
X007970Y005067D01*
X007504Y005067D01*
X007279Y004842D01*
X006317Y004842D01*
X006317Y004910D02*
X006292Y004935D01*
X006367Y004935D01*
X006455Y005023D01*
X006455Y005404D01*
X006457Y005406D01*
X006457Y006180D01*
X006457Y006403D01*
X006307Y006553D01*
X006149Y006712D01*
X004099Y006712D01*
X003907Y006903D01*
X003907Y006930D01*
X003905Y006932D01*
X003905Y007313D01*
X003817Y007401D01*
X003457Y007401D01*
X003369Y007313D01*
X003369Y006932D01*
X003367Y006930D01*
X003367Y006903D01*
X003367Y006680D01*
X003369Y006678D01*
X003369Y006323D01*
X003457Y006235D01*
X003812Y006235D01*
X003875Y006172D01*
X004099Y006172D01*
X005917Y006172D01*
X005917Y006051D01*
X005867Y006101D01*
X005507Y006101D01*
X005437Y006031D01*
X005367Y006101D01*
X005007Y006101D01*
X004937Y006031D01*
X004867Y006101D01*
X004507Y006101D01*
X004419Y006013D01*
X004430Y006025D02*
X002453Y006025D01*
X002551Y006123D02*
X005917Y006123D01*
X006343Y006517D02*
X007163Y006517D01*
X007163Y006419D02*
X006442Y006419D01*
X006457Y006320D02*
X007163Y006320D01*
X007163Y006222D02*
X006457Y006222D01*
X006457Y006123D02*
X007230Y006123D01*
X007230Y006025D02*
X006457Y006025D01*
X006457Y005926D02*
X007230Y005926D01*
X007314Y005828D02*
X006457Y005828D01*
X006457Y005729D02*
X007617Y005729D01*
X007711Y005630D02*
X006457Y005630D01*
X006457Y005532D02*
X007805Y005532D01*
X007898Y005433D02*
X006457Y005433D01*
X006455Y005335D02*
X007992Y005335D01*
X008085Y005236D02*
X006455Y005236D01*
X006455Y005138D02*
X008172Y005138D01*
X008270Y005039D02*
X007997Y005039D01*
X008096Y004941D02*
X008369Y004941D01*
X008467Y004842D02*
X008194Y004842D01*
X008293Y004744D02*
X008566Y004744D01*
X008664Y004645D02*
X008299Y004645D01*
X008299Y004546D02*
X008763Y004546D01*
X008861Y004448D02*
X008300Y004448D01*
X008387Y004349D02*
X008960Y004349D01*
X009058Y004251D02*
X008387Y004251D01*
X008387Y004152D02*
X009087Y004152D01*
X009087Y004054D02*
X008387Y004054D01*
X008387Y003955D02*
X009087Y003955D01*
X009087Y003857D02*
X008387Y003857D01*
X008323Y003758D02*
X009151Y003758D01*
X009174Y003660D02*
X008299Y003660D01*
X008299Y003561D02*
X009174Y003561D01*
X009174Y003463D02*
X008299Y003463D01*
X008217Y003364D02*
X009257Y003364D01*
X009355Y003265D02*
X008119Y003265D01*
X008020Y003167D02*
X009454Y003167D01*
X010387Y004152D02*
X012131Y004152D01*
X012033Y004251D02*
X010387Y004251D01*
X010387Y004349D02*
X011937Y004349D01*
X011937Y004448D02*
X010387Y004448D01*
X010387Y004546D02*
X011935Y004546D01*
X011837Y004645D02*
X011013Y004645D01*
X011112Y004744D02*
X011738Y004744D01*
X011639Y004842D02*
X011210Y004842D01*
X011309Y004941D02*
X011541Y004941D01*
X011442Y005039D02*
X011407Y005039D01*
X011328Y006123D02*
X011490Y006123D01*
X011391Y006222D02*
X011230Y006222D01*
X011281Y006320D02*
X011337Y006320D01*
X011737Y006442D02*
X011737Y006692D01*
X011387Y007042D01*
X011387Y007468D01*
X011655Y007503D02*
X012117Y007503D01*
X012117Y007601D02*
X011655Y007601D01*
X011655Y007700D02*
X012117Y007700D01*
X012117Y007798D02*
X011655Y007798D01*
X011655Y007897D02*
X012100Y007897D01*
X012117Y007404D02*
X011655Y007404D01*
X011655Y007306D02*
X012119Y007306D01*
X012119Y007207D02*
X011655Y007207D01*
X011655Y007109D02*
X012119Y007109D01*
X012119Y007010D02*
X011701Y007010D01*
X011800Y006912D02*
X012180Y006912D01*
X011137Y006692D02*
X010887Y006942D01*
X010887Y007468D01*
X011087Y006692D02*
X011137Y006692D01*
X009896Y007862D02*
X009749Y007862D01*
X009747Y007860D01*
X009365Y007860D01*
X009277Y007772D01*
X009277Y007411D01*
X009347Y007342D01*
X009277Y007272D01*
X009277Y006911D01*
X009282Y006906D01*
X009237Y006861D01*
X009237Y006414D01*
X009237Y006411D01*
X009211Y006384D01*
X009211Y005939D01*
X009104Y006052D01*
X009137Y006085D01*
X009137Y006999D01*
X008987Y007149D01*
X008987Y007244D01*
X008987Y007994D01*
X008987Y008155D01*
X009007Y008135D01*
X009367Y008135D01*
X009455Y008223D01*
X009455Y008375D01*
X010250Y008386D01*
X010217Y008353D01*
X010217Y008326D01*
X009896Y007862D01*
X009920Y007897D02*
X008987Y007897D01*
X008987Y007996D02*
X009988Y007996D01*
X010056Y008094D02*
X008987Y008094D01*
X008987Y007798D02*
X009304Y007798D01*
X009277Y007700D02*
X008987Y007700D01*
X008987Y007601D02*
X009277Y007601D01*
X009277Y007503D02*
X008987Y007503D01*
X008987Y007404D02*
X009285Y007404D01*
X009311Y007306D02*
X008987Y007306D01*
X008987Y007207D02*
X009277Y007207D01*
X009277Y007109D02*
X009027Y007109D01*
X009126Y007010D02*
X009277Y007010D01*
X009277Y006912D02*
X009137Y006912D01*
X009137Y006813D02*
X009237Y006813D01*
X009237Y006714D02*
X009137Y006714D01*
X009137Y006616D02*
X009237Y006616D01*
X009237Y006517D02*
X009137Y006517D01*
X009137Y006419D02*
X009237Y006419D01*
X009211Y006320D02*
X009137Y006320D01*
X009137Y006222D02*
X009211Y006222D01*
X009211Y006123D02*
X009137Y006123D01*
X009130Y006025D02*
X009211Y006025D01*
X008087Y006742D02*
X007787Y006117D01*
X007813Y006092D01*
X007163Y006616D02*
X006244Y006616D01*
X006876Y006912D02*
X007187Y006912D01*
X007187Y007010D02*
X006975Y007010D01*
X007073Y007109D02*
X007187Y007109D01*
X007187Y007207D02*
X007172Y007207D01*
X007163Y006813D02*
X003997Y006813D01*
X003907Y006912D02*
X004398Y006912D01*
X004299Y007010D02*
X003905Y007010D01*
X003905Y007109D02*
X004201Y007109D01*
X004102Y007207D02*
X003905Y007207D01*
X003905Y007306D02*
X004037Y007306D01*
X004037Y007404D02*
X001887Y007404D01*
X001887Y007503D02*
X004037Y007503D01*
X004037Y007601D02*
X001887Y007601D01*
X001887Y007700D02*
X002453Y007700D01*
X002355Y007798D02*
X001887Y007798D01*
X001887Y007897D02*
X002256Y007897D01*
X002158Y007996D02*
X001887Y007996D01*
X001887Y008094D02*
X002059Y008094D01*
X001961Y008193D02*
X001887Y008193D01*
X001887Y008291D02*
X001907Y008291D01*
X002905Y007306D02*
X003369Y007306D01*
X003369Y007207D02*
X002905Y007207D01*
X002905Y007109D02*
X003369Y007109D01*
X003369Y007010D02*
X002905Y007010D01*
X002905Y006912D02*
X003367Y006912D01*
X003367Y006813D02*
X002905Y006813D01*
X002905Y006714D02*
X003367Y006714D01*
X003369Y006616D02*
X002905Y006616D01*
X002905Y006517D02*
X003369Y006517D01*
X003369Y006419D02*
X002905Y006419D01*
X002902Y006320D02*
X003371Y006320D01*
X003825Y006222D02*
X002650Y006222D01*
X002637Y006818D02*
X002637Y006842D01*
X001187Y005828D02*
X004419Y005828D01*
X004332Y005729D02*
X001187Y005729D01*
X001187Y005630D02*
X004287Y005630D01*
X004287Y005532D02*
X001187Y005532D01*
X001187Y005433D02*
X004287Y005433D01*
X004304Y005335D02*
X001187Y005335D01*
X001187Y005236D02*
X004403Y005236D01*
X004419Y005138D02*
X001187Y005138D01*
X001187Y005039D02*
X004419Y005039D01*
X004501Y004941D02*
X001187Y004941D01*
X001187Y004842D02*
X004757Y004842D01*
X004757Y004744D02*
X001187Y004744D01*
X001187Y004645D02*
X004757Y004645D01*
X004757Y004546D02*
X001187Y004546D01*
X001187Y004448D02*
X004757Y004448D01*
X004757Y004349D02*
X001187Y004349D01*
X001187Y004251D02*
X004757Y004251D01*
X004757Y004152D02*
X001187Y004152D01*
X001187Y004054D02*
X004781Y004054D01*
X004906Y003955D02*
X001187Y003955D01*
X001187Y003857D02*
X004837Y003857D01*
X004837Y003758D02*
X001187Y003758D01*
X001187Y003660D02*
X004837Y003660D01*
X004873Y003561D02*
X001187Y003561D01*
X001187Y003463D02*
X004971Y003463D01*
X005187Y003742D02*
X005187Y004092D01*
X005537Y004442D01*
X005537Y004494D01*
X005537Y004542D01*
X004687Y005392D01*
X004987Y005392D01*
X005437Y004942D01*
X005437Y004292D01*
X005468Y003955D02*
X006087Y003955D01*
X006087Y003857D02*
X005537Y003857D01*
X005537Y003758D02*
X006087Y003758D01*
X006087Y003660D02*
X005537Y003660D01*
X005501Y003561D02*
X006087Y003561D01*
X006087Y003463D02*
X005403Y003463D01*
X006145Y003364D02*
X001187Y003364D01*
X001187Y003265D02*
X006244Y003265D01*
X006342Y003167D02*
X001187Y003167D01*
X001187Y003068D02*
X006441Y003068D01*
X006687Y003642D02*
X006737Y003642D01*
X006737Y003692D01*
X006317Y004191D02*
X006317Y004910D01*
X006373Y004941D02*
X007378Y004941D01*
X007476Y005039D02*
X006455Y005039D01*
X006968Y004842D02*
X006317Y004191D01*
X006317Y004251D02*
X006377Y004251D01*
X006317Y004349D02*
X006476Y004349D01*
X006574Y004448D02*
X006317Y004448D01*
X006317Y004546D02*
X006673Y004546D01*
X006771Y004645D02*
X006317Y004645D01*
X006317Y004744D02*
X006870Y004744D01*
X006968Y004842D02*
X007279Y004842D01*
X007331Y003167D02*
X007454Y003167D01*
X007233Y003068D02*
X020540Y003068D01*
X020507Y003101D02*
X020847Y002762D01*
X021577Y002762D01*
X021687Y002871D02*
X027322Y002871D01*
X027537Y002592D02*
X027637Y002592D01*
X027962Y002092D01*
X027937Y002092D01*
X028282Y002083D02*
X031587Y002083D01*
X031587Y002181D02*
X028282Y002181D01*
X028282Y002280D02*
X031587Y002280D01*
X031587Y002379D02*
X028257Y002379D01*
X027950Y002477D02*
X031587Y002477D01*
X031587Y002576D02*
X027887Y002576D01*
X027887Y002674D02*
X031587Y002674D01*
X031587Y002773D02*
X027851Y002773D01*
X027752Y002871D02*
X031587Y002871D01*
X031587Y002970D02*
X021785Y002970D01*
X021884Y003068D02*
X031587Y003068D01*
X031587Y003364D02*
X025704Y003364D01*
X025682Y003342D02*
X025887Y003547D01*
X025887Y003794D01*
X026456Y003794D01*
X026602Y003940D01*
X026879Y003940D01*
X026967Y004028D01*
X026967Y004860D01*
X026896Y004931D01*
X027137Y005172D01*
X027137Y006211D01*
X027137Y006361D01*
X027044Y006454D01*
X027044Y006622D01*
X026994Y006672D01*
X027277Y006672D01*
X027219Y006613D01*
X027219Y005623D01*
X027287Y005555D01*
X027287Y005537D01*
X027137Y005387D01*
X027137Y005097D01*
X027342Y004892D01*
X027632Y004892D01*
X027737Y004997D01*
X027842Y004892D01*
X028132Y004892D01*
X028337Y005097D01*
X028337Y005387D01*
X028187Y005537D01*
X028187Y005555D01*
X028255Y005623D01*
X028255Y006613D01*
X028197Y006672D01*
X028525Y006672D01*
X028717Y006480D01*
X028717Y006006D01*
X028719Y006004D01*
X028719Y005623D01*
X028807Y005535D01*
X029167Y005535D01*
X029255Y005623D01*
X029255Y006004D01*
X029257Y006006D01*
X029257Y006703D01*
X029099Y006862D01*
X028749Y007212D01*
X028525Y007212D01*
X026349Y007212D01*
X026347Y007210D01*
X025965Y007210D01*
X025877Y007122D01*
X025877Y006761D01*
X025947Y006692D01*
X025877Y006622D01*
X025877Y006401D01*
X025837Y006361D01*
X025837Y006237D01*
X025811Y006211D01*
X025811Y006034D01*
X025487Y005711D01*
X025487Y004940D01*
X025407Y004860D01*
X025407Y004042D01*
X025392Y004042D01*
X025187Y003837D01*
X025187Y003547D01*
X025392Y003342D01*
X025682Y003342D01*
X025803Y003463D02*
X031587Y003463D01*
X031587Y003561D02*
X025887Y003561D01*
X025887Y003660D02*
X031587Y003660D01*
X031587Y003758D02*
X025887Y003758D01*
X025537Y003692D02*
X025537Y003842D01*
X026137Y004442D01*
X026139Y004444D01*
X026187Y004444D01*
X026187Y004492D01*
X026519Y003857D02*
X031587Y003857D01*
X031587Y003955D02*
X026895Y003955D01*
X026967Y004054D02*
X031587Y004054D01*
X031587Y004152D02*
X026967Y004152D01*
X026967Y004251D02*
X031587Y004251D01*
X031587Y004349D02*
X026967Y004349D01*
X026967Y004448D02*
X031587Y004448D01*
X031587Y004546D02*
X026967Y004546D01*
X026967Y004645D02*
X031587Y004645D01*
X031587Y004744D02*
X031519Y004744D01*
X031587Y004842D02*
X031587Y004842D01*
X031587Y004941D02*
X031587Y004941D01*
X031587Y005039D02*
X031529Y005039D01*
X031519Y005138D02*
X031587Y005138D01*
X031587Y005236D02*
X031587Y005236D01*
X031587Y005335D02*
X031587Y005335D01*
X031587Y005433D02*
X031529Y005433D01*
X031564Y005532D02*
X031587Y005532D01*
X031587Y005630D02*
X031587Y005630D01*
X031587Y005729D02*
X031587Y005729D01*
X031587Y005828D02*
X031587Y005828D01*
X031582Y005926D02*
X031587Y005926D01*
X031587Y006025D02*
X031484Y006025D01*
X031489Y006020D02*
X031489Y006020D01*
X031412Y006123D02*
X031587Y006123D01*
X031587Y006222D02*
X031511Y006222D01*
X031489Y006199D02*
X031489Y006199D01*
X031587Y006320D02*
X031587Y006320D01*
X031587Y006419D02*
X031587Y006419D01*
X031587Y006517D02*
X031537Y006517D01*
X031574Y006616D02*
X031587Y006616D01*
X031587Y006714D02*
X031587Y006714D01*
X031587Y006813D02*
X031587Y006813D01*
X031587Y006912D02*
X031587Y006912D01*
X031587Y007010D02*
X031572Y007010D01*
X031587Y007109D02*
X031520Y007109D01*
X031587Y007207D02*
X031587Y007207D01*
X031587Y007306D02*
X031587Y007306D01*
X031587Y007404D02*
X031527Y007404D01*
X031587Y007503D02*
X031232Y007503D01*
X031193Y007601D02*
X031587Y007601D01*
X031587Y007700D02*
X031279Y007700D01*
X031292Y007798D02*
X031587Y007798D01*
X031587Y007897D02*
X031292Y007897D01*
X031292Y007996D02*
X031587Y007996D01*
X031587Y008094D02*
X031292Y008094D01*
X031292Y008193D02*
X031587Y008193D01*
X031587Y008646D02*
X031587Y008646D01*
X031587Y008685D02*
X031587Y008685D01*
X031587Y008784D02*
X031587Y008784D01*
X031587Y008882D02*
X031526Y008882D01*
X031489Y008920D02*
X031489Y008920D01*
X031467Y008979D02*
X031467Y008979D01*
X031468Y008981D02*
X031587Y008981D01*
X031587Y009079D02*
X031567Y009079D01*
X031587Y009178D02*
X031587Y009178D01*
X031587Y009277D02*
X031587Y009277D01*
X031587Y009375D02*
X031587Y009375D01*
X031579Y009474D02*
X031587Y009474D01*
X031587Y009572D02*
X031481Y009572D01*
X031489Y009565D02*
X031489Y009565D01*
X031514Y009671D02*
X031587Y009671D01*
X031587Y009769D02*
X031587Y009769D01*
X031587Y009868D02*
X031587Y009868D01*
X031587Y009914D02*
X031587Y009914D01*
X031587Y009966D02*
X031587Y009966D01*
X031587Y010065D02*
X031587Y010065D01*
X031587Y010111D02*
X031587Y010111D01*
X031587Y010163D02*
X031534Y010163D01*
X031489Y010209D02*
X031489Y010209D01*
X031460Y010262D02*
X031587Y010262D01*
X031587Y010361D02*
X031559Y010361D01*
X031587Y010459D02*
X031587Y010459D01*
X031587Y010656D02*
X031587Y010656D01*
X031587Y010755D02*
X031587Y010755D01*
X031587Y010853D02*
X031505Y010853D01*
X031587Y010952D02*
X031587Y010952D01*
X031587Y011050D02*
X031587Y011050D01*
X031587Y011149D02*
X031543Y011149D01*
X031587Y011247D02*
X031247Y011247D01*
X031193Y011346D02*
X031587Y011346D01*
X031303Y011445D02*
X031148Y011445D01*
X031275Y011543D02*
X030111Y011543D01*
X030104Y011537D02*
X030192Y011624D01*
X030192Y012379D01*
X030104Y012466D01*
X029545Y012466D01*
X029501Y012511D01*
X029537Y012547D01*
X029537Y012837D01*
X029332Y013042D01*
X029042Y013042D01*
X028837Y012837D01*
X028837Y012547D01*
X029042Y012342D01*
X029104Y012342D01*
X029182Y012264D01*
X029182Y011624D01*
X029270Y011537D01*
X030104Y011537D01*
X030192Y011642D02*
X031275Y011642D01*
X031275Y011740D02*
X030192Y011740D01*
X030192Y011839D02*
X031275Y011839D01*
X031275Y011937D02*
X030192Y011937D01*
X030192Y012036D02*
X030765Y012036D01*
X030667Y012134D02*
X030192Y012134D01*
X030192Y012233D02*
X030586Y012233D01*
X030586Y012331D02*
X030192Y012331D01*
X030140Y012430D02*
X030586Y012430D01*
X030586Y012529D02*
X029519Y012529D01*
X029537Y012627D02*
X030632Y012627D01*
X030731Y012726D02*
X029537Y012726D01*
X029537Y012824D02*
X031587Y012824D01*
X031587Y012726D02*
X031541Y012726D01*
X031587Y012627D02*
X031587Y012627D01*
X031587Y012529D02*
X031587Y012529D01*
X031587Y012430D02*
X031587Y012430D01*
X031587Y012331D02*
X031587Y012331D01*
X031587Y012233D02*
X031587Y012233D01*
X031587Y012134D02*
X031587Y012134D01*
X031257Y012036D02*
X031014Y012036D01*
X031095Y012134D02*
X031159Y012134D01*
X031147Y012726D02*
X031223Y012726D01*
X031587Y012923D02*
X029451Y012923D01*
X029352Y013021D02*
X031587Y013021D01*
X031587Y013120D02*
X028017Y013120D01*
X028017Y013218D02*
X031587Y013218D01*
X031587Y013317D02*
X028017Y013317D01*
X028017Y013415D02*
X031587Y013415D01*
X031587Y013514D02*
X028017Y013514D01*
X028017Y013612D02*
X031587Y013612D01*
X031587Y013711D02*
X028017Y013711D01*
X028017Y013810D02*
X031587Y013810D01*
X031587Y013908D02*
X028017Y013908D01*
X028017Y014007D02*
X031587Y014007D01*
X031587Y014105D02*
X028017Y014105D01*
X028017Y014204D02*
X031587Y014204D01*
X031587Y014302D02*
X027951Y014302D01*
X027853Y014401D02*
X031587Y014401D01*
X031587Y014499D02*
X027754Y014499D01*
X027656Y014598D02*
X031587Y014598D01*
X031587Y014696D02*
X027724Y014696D01*
X027822Y014795D02*
X029479Y014795D01*
X029411Y014894D02*
X027921Y014894D01*
X028019Y014992D02*
X029411Y014992D01*
X029411Y015091D02*
X028118Y015091D01*
X028216Y015189D02*
X029411Y015189D01*
X030195Y014795D02*
X031587Y014795D01*
X031587Y014894D02*
X030262Y014894D01*
X030262Y014992D02*
X031587Y014992D01*
X031587Y015091D02*
X030262Y015091D01*
X030262Y015189D02*
X031587Y015189D01*
X031587Y015288D02*
X030262Y015288D01*
X030262Y015386D02*
X031587Y015386D01*
X031587Y015485D02*
X030262Y015485D01*
X030262Y015583D02*
X031587Y015583D01*
X031587Y015682D02*
X030262Y015682D01*
X030262Y015780D02*
X031587Y015780D01*
X031587Y015879D02*
X030262Y015879D01*
X030262Y015978D02*
X031587Y015978D01*
X031587Y016076D02*
X030262Y016076D01*
X030262Y016175D02*
X031587Y016175D01*
X031587Y016273D02*
X030262Y016273D01*
X030262Y016372D02*
X030300Y016372D01*
X030292Y016470D02*
X030262Y016470D01*
X030292Y016569D02*
X030181Y016569D01*
X030262Y016667D02*
X030292Y016667D01*
X030292Y016766D02*
X030262Y016766D01*
X030262Y016864D02*
X030292Y016864D01*
X030262Y016963D02*
X030342Y016963D01*
X030342Y017061D02*
X030262Y017061D01*
X030262Y017160D02*
X030342Y017160D01*
X030882Y017160D02*
X031587Y017160D01*
X031587Y017061D02*
X030882Y017061D01*
X030882Y016963D02*
X031587Y016963D01*
X031587Y016864D02*
X030932Y016864D01*
X030932Y016766D02*
X031587Y016766D01*
X031587Y016667D02*
X030932Y016667D01*
X030932Y016569D02*
X031587Y016569D01*
X031587Y016470D02*
X030932Y016470D01*
X030924Y016372D02*
X031587Y016372D01*
X031587Y017259D02*
X030882Y017259D01*
X030882Y017357D02*
X031587Y017357D01*
X031587Y017456D02*
X030883Y017456D01*
X030907Y017554D02*
X031587Y017554D01*
X031587Y017653D02*
X030907Y017653D01*
X030859Y017751D02*
X031587Y017751D01*
X031587Y017850D02*
X030761Y017850D01*
X030513Y017850D02*
X030262Y017850D01*
X030262Y017948D02*
X031587Y017948D01*
X031587Y018047D02*
X030262Y018047D01*
X030262Y018145D02*
X031587Y018145D01*
X031587Y018244D02*
X030262Y018244D01*
X030191Y018343D02*
X031587Y018343D01*
X031587Y018441D02*
X022237Y018441D01*
X022237Y018343D02*
X025983Y018343D01*
X025911Y018244D02*
X022237Y018244D01*
X022237Y018145D02*
X025911Y018145D01*
X025911Y018047D02*
X022237Y018047D01*
X022237Y017948D02*
X025911Y017948D01*
X025911Y017850D02*
X022237Y017850D01*
X022237Y017751D02*
X024092Y017751D01*
X024077Y017653D02*
X022237Y017653D01*
X022237Y017554D02*
X024077Y017554D01*
X024077Y017456D02*
X022237Y017456D01*
X022237Y017357D02*
X024077Y017357D01*
X024077Y017259D02*
X022237Y017259D01*
X022237Y017160D02*
X024077Y017160D01*
X024077Y017061D02*
X022237Y017061D01*
X022237Y016963D02*
X024077Y016963D01*
X024077Y016864D02*
X022237Y016864D01*
X022237Y016766D02*
X024077Y016766D01*
X024077Y016667D02*
X022237Y016667D01*
X022237Y016569D02*
X024077Y016569D01*
X024077Y016470D02*
X022237Y016470D01*
X022237Y016372D02*
X024077Y016372D01*
X024077Y016273D02*
X022237Y016273D01*
X022237Y016175D02*
X024077Y016175D01*
X024077Y016076D02*
X022154Y016076D01*
X022056Y015978D02*
X024077Y015978D01*
X024042Y015879D02*
X021957Y015879D01*
X021859Y015780D02*
X023944Y015780D01*
X023845Y015682D02*
X021760Y015682D01*
X021661Y015583D02*
X023747Y015583D01*
X023648Y015485D02*
X021563Y015485D01*
X021464Y015386D02*
X023567Y015386D01*
X023567Y015288D02*
X021387Y015288D01*
X021387Y015189D02*
X023545Y015189D01*
X023446Y015091D02*
X021387Y015091D01*
X021387Y014992D02*
X023427Y014992D01*
X023427Y014894D02*
X023345Y014894D01*
X024129Y015189D02*
X024940Y015189D01*
X024841Y015091D02*
X024228Y015091D01*
X024247Y014992D02*
X024787Y014992D01*
X024787Y014894D02*
X024247Y014894D01*
X024247Y014795D02*
X024787Y014795D01*
X024837Y014696D02*
X024247Y014696D01*
X024247Y014598D02*
X024907Y014598D01*
X024819Y014499D02*
X024247Y014499D01*
X024247Y014401D02*
X024721Y014401D01*
X024622Y014302D02*
X024247Y014302D01*
X024239Y014204D02*
X024524Y014204D01*
X024425Y014105D02*
X024140Y014105D01*
X024042Y014007D02*
X024327Y014007D01*
X024207Y013711D02*
X023862Y013711D01*
X023961Y013612D02*
X024207Y013612D01*
X024207Y013514D02*
X024037Y013514D01*
X024667Y013514D02*
X027557Y013514D01*
X027557Y013612D02*
X024667Y013612D01*
X024667Y013696D02*
X025232Y014262D01*
X027232Y014262D01*
X027262Y014292D01*
X027312Y014292D01*
X027557Y014046D01*
X027557Y011287D01*
X026105Y009835D01*
X026105Y010152D01*
X026112Y010159D01*
X026112Y010324D01*
X026105Y010331D01*
X026105Y010710D01*
X026017Y010798D01*
X025799Y010798D01*
X025456Y011142D01*
X025437Y011142D01*
X025437Y011199D01*
X025349Y011287D01*
X024825Y011287D01*
X024737Y011199D01*
X024737Y011142D01*
X024643Y011142D01*
X024568Y011142D01*
X024177Y011142D01*
X024247Y011212D01*
X024247Y012071D01*
X024007Y012312D01*
X023982Y012312D01*
X024667Y012996D01*
X024667Y013187D01*
X024667Y013696D01*
X024681Y013711D02*
X027557Y013711D01*
X027557Y013810D02*
X024780Y013810D01*
X024879Y013908D02*
X027557Y013908D01*
X027557Y014007D02*
X024977Y014007D01*
X025076Y014105D02*
X027498Y014105D01*
X027400Y014204D02*
X025174Y014204D01*
X025487Y014795D02*
X025979Y014795D01*
X025911Y014894D02*
X025487Y014894D01*
X025487Y014992D02*
X025911Y014992D01*
X025911Y015091D02*
X025433Y015091D01*
X025334Y015189D02*
X025911Y015189D01*
X025911Y015288D02*
X024215Y015288D01*
X025044Y015386D02*
X025911Y015386D01*
X025911Y015485D02*
X025105Y015485D01*
X025105Y015583D02*
X025911Y015583D01*
X025911Y015682D02*
X025105Y015682D01*
X025105Y015780D02*
X025911Y015780D01*
X025911Y015879D02*
X025105Y015879D01*
X025105Y015978D02*
X025911Y015978D01*
X025911Y016076D02*
X025105Y016076D01*
X025202Y016175D02*
X025911Y016175D01*
X025911Y016273D02*
X025300Y016273D01*
X025105Y016864D02*
X025911Y016864D01*
X025911Y016963D02*
X025105Y016963D01*
X025105Y017061D02*
X025911Y017061D01*
X025911Y017160D02*
X025105Y017160D01*
X025105Y017259D02*
X025911Y017259D01*
X025911Y017357D02*
X025105Y017357D01*
X025105Y017456D02*
X025911Y017456D01*
X025911Y017554D02*
X025105Y017554D01*
X025105Y017653D02*
X025911Y017653D01*
X025911Y017751D02*
X025090Y017751D01*
X026762Y017751D02*
X027887Y017751D01*
X027887Y017653D02*
X026762Y017653D01*
X026762Y017554D02*
X027887Y017554D01*
X027928Y017456D02*
X026762Y017456D01*
X026762Y017357D02*
X028026Y017357D01*
X028045Y017259D02*
X028245Y017259D01*
X028257Y017160D02*
X028079Y017160D01*
X028079Y017061D02*
X028257Y017061D01*
X028257Y016963D02*
X028079Y016963D01*
X028079Y016864D02*
X028108Y016864D01*
X028094Y016766D02*
X028079Y016766D01*
X028094Y016667D02*
X028040Y016667D01*
X028094Y016569D02*
X027864Y016569D01*
X028079Y016470D02*
X028094Y016470D01*
X028094Y016372D02*
X028079Y016372D01*
X028079Y016273D02*
X028154Y016273D01*
X028079Y016175D02*
X028250Y016175D01*
X028250Y016076D02*
X028079Y016076D01*
X028079Y015978D02*
X028250Y015978D01*
X028250Y015879D02*
X028000Y015879D01*
X028044Y015780D02*
X027887Y015780D01*
X027887Y015682D02*
X027945Y015682D01*
X027551Y015288D02*
X026762Y015288D01*
X026762Y015386D02*
X027347Y015386D01*
X027249Y015485D02*
X026762Y015485D01*
X026762Y015583D02*
X027187Y015583D01*
X027187Y015682D02*
X026762Y015682D01*
X026762Y015780D02*
X027187Y015780D01*
X027229Y015879D02*
X026762Y015879D01*
X026762Y015978D02*
X027228Y015978D01*
X027228Y016076D02*
X026762Y016076D01*
X026762Y016175D02*
X027228Y016175D01*
X027228Y016273D02*
X026762Y016273D01*
X026762Y016372D02*
X027228Y016372D01*
X027228Y016470D02*
X026762Y016470D01*
X026681Y016569D02*
X027444Y016569D01*
X027268Y016667D02*
X026762Y016667D01*
X026762Y017259D02*
X027262Y017259D01*
X026762Y017850D02*
X027950Y017850D01*
X028049Y017948D02*
X026762Y017948D01*
X026762Y018047D02*
X029411Y018047D01*
X029411Y018145D02*
X026762Y018145D01*
X026762Y018244D02*
X029411Y018244D01*
X029483Y018343D02*
X026691Y018343D01*
X028425Y017948D02*
X029411Y017948D01*
X029411Y017850D02*
X028524Y017850D01*
X028587Y017751D02*
X029411Y017751D01*
X029411Y017653D02*
X028587Y017653D01*
X028600Y017554D02*
X029411Y017554D01*
X029411Y017456D02*
X028698Y017456D01*
X028717Y017357D02*
X029411Y017357D01*
X029411Y017259D02*
X028717Y017259D01*
X028717Y017160D02*
X029411Y017160D01*
X029411Y017061D02*
X028717Y017061D01*
X028717Y016963D02*
X029411Y016963D01*
X029411Y016864D02*
X028932Y016864D01*
X028946Y016766D02*
X029411Y016766D01*
X029411Y016667D02*
X028946Y016667D01*
X028946Y016569D02*
X029493Y016569D01*
X029411Y016470D02*
X028946Y016470D01*
X028946Y016372D02*
X029411Y016372D01*
X029411Y016273D02*
X028886Y016273D01*
X028790Y016175D02*
X029411Y016175D01*
X029411Y016076D02*
X028790Y016076D01*
X028790Y015978D02*
X029411Y015978D01*
X029411Y015879D02*
X028790Y015879D01*
X027453Y015189D02*
X026762Y015189D01*
X026762Y015091D02*
X027354Y015091D01*
X027256Y014992D02*
X026762Y014992D01*
X026762Y014894D02*
X027044Y014894D01*
X026945Y014795D02*
X026695Y014795D01*
X027557Y013415D02*
X024667Y013415D01*
X024667Y013317D02*
X027557Y013317D01*
X027557Y013218D02*
X024667Y013218D01*
X024667Y013120D02*
X027557Y013120D01*
X027557Y013021D02*
X024667Y013021D01*
X024593Y012923D02*
X027557Y012923D01*
X027557Y012824D02*
X024495Y012824D01*
X024396Y012726D02*
X027557Y012726D01*
X027557Y012627D02*
X024298Y012627D01*
X024199Y012529D02*
X027557Y012529D01*
X027557Y012430D02*
X024100Y012430D01*
X024002Y012331D02*
X027557Y012331D01*
X027557Y012233D02*
X024085Y012233D01*
X024184Y012134D02*
X027557Y012134D01*
X027557Y012036D02*
X024247Y012036D01*
X024247Y011937D02*
X027557Y011937D01*
X027557Y011839D02*
X024247Y011839D01*
X024247Y011740D02*
X027557Y011740D01*
X027557Y011642D02*
X024247Y011642D01*
X024247Y011543D02*
X027557Y011543D01*
X027557Y011445D02*
X024247Y011445D01*
X024247Y011346D02*
X027557Y011346D01*
X027518Y011247D02*
X025389Y011247D01*
X025437Y011149D02*
X027419Y011149D01*
X027320Y011050D02*
X025547Y011050D01*
X025646Y010952D02*
X027222Y010952D01*
X027123Y010853D02*
X025744Y010853D01*
X026061Y010755D02*
X027025Y010755D01*
X026926Y010656D02*
X026105Y010656D01*
X026105Y010558D02*
X026828Y010558D01*
X026729Y010459D02*
X026105Y010459D01*
X026105Y010361D02*
X026631Y010361D01*
X026532Y010262D02*
X026112Y010262D01*
X026112Y010163D02*
X026434Y010163D01*
X026335Y010065D02*
X026105Y010065D01*
X026105Y009966D02*
X026236Y009966D01*
X026138Y009868D02*
X026105Y009868D01*
X025912Y010242D02*
X025837Y010215D01*
X025912Y010242D02*
X025437Y010242D01*
X024912Y010242D02*
X024912Y010492D01*
X024837Y010492D02*
X024837Y010442D01*
X024987Y010592D01*
X025087Y010967D01*
X024737Y011149D02*
X024184Y011149D01*
X024247Y011247D02*
X024785Y011247D01*
X024412Y010492D02*
X024412Y010242D01*
X024337Y010215D01*
X024837Y010215D02*
X024912Y010242D01*
X025325Y009162D02*
X025167Y009003D01*
X025067Y008903D01*
X025067Y008842D01*
X024856Y008842D01*
X024318Y008842D01*
X024268Y008792D01*
X024227Y008751D01*
X024157Y008751D01*
X024069Y008663D01*
X024069Y008593D01*
X023887Y008411D01*
X023887Y007361D01*
X023737Y007211D01*
X023737Y006911D01*
X023687Y006861D01*
X023687Y006322D01*
X023763Y006246D01*
X023763Y006212D01*
X023762Y006211D01*
X023762Y005737D01*
X023407Y005382D01*
X023407Y004901D01*
X023407Y004432D01*
X023332Y004357D01*
X023332Y004257D01*
X023332Y003776D01*
X023424Y003684D01*
X023424Y003496D01*
X023754Y003167D01*
X023655Y003265D02*
X022319Y003265D01*
X022417Y003364D02*
X023557Y003364D01*
X023458Y003463D02*
X022516Y003463D01*
X022549Y003496D02*
X022220Y003167D01*
X022549Y003496D02*
X022549Y003734D01*
X022567Y003751D01*
X022567Y004232D01*
X022567Y004382D01*
X022549Y004399D01*
X022549Y004787D01*
X022415Y004922D01*
X022675Y004922D01*
X022899Y004922D01*
X022982Y005005D01*
X023057Y005080D01*
X023057Y005087D01*
X023532Y005605D01*
X023607Y005680D01*
X023607Y006630D01*
X023605Y006632D01*
X023605Y007013D01*
X023517Y007101D01*
X023157Y007101D01*
X023069Y007013D01*
X023069Y006632D01*
X023067Y006630D01*
X023067Y005897D01*
X022837Y005646D01*
X022837Y005857D01*
X022605Y006089D01*
X022605Y007013D01*
X022517Y007101D01*
X022157Y007101D01*
X022087Y007031D01*
X022017Y007101D01*
X021657Y007101D01*
X021569Y007013D01*
X021569Y006023D01*
X021586Y006006D01*
X021437Y005857D01*
X021437Y005526D01*
X021501Y005462D01*
X021475Y005462D01*
X021420Y005406D01*
X021389Y005388D01*
X020305Y005388D01*
X020305Y005613D01*
X020217Y005701D01*
X019857Y005701D01*
X019787Y005631D01*
X019717Y005701D01*
X019547Y005701D01*
X019456Y005792D01*
X018918Y005792D01*
X018894Y005768D01*
X018768Y005768D01*
X018268Y005768D01*
X017887Y005387D01*
X017887Y004849D01*
X018268Y004468D01*
X018357Y004468D01*
X018357Y003978D01*
X018445Y003890D01*
X018702Y003890D01*
X018604Y003792D01*
X018342Y003792D01*
X018137Y003587D01*
X018137Y003297D01*
X018342Y003092D01*
X018632Y003092D01*
X018837Y003297D01*
X018837Y003459D01*
X019170Y003792D01*
X019356Y003792D01*
X019454Y003890D01*
X019829Y003890D01*
X019917Y003978D01*
X019917Y004535D01*
X020217Y004535D01*
X020305Y004623D01*
X020305Y004848D01*
X021351Y004848D01*
X021485Y004848D01*
X021424Y004787D01*
X021424Y004399D01*
X021407Y004382D01*
X021407Y004232D01*
X021097Y003922D01*
X020847Y003922D01*
X020507Y003582D01*
X020507Y003101D01*
X020507Y003167D02*
X018707Y003167D01*
X018806Y003265D02*
X020507Y003265D01*
X020507Y003364D02*
X018837Y003364D01*
X018841Y003463D02*
X020507Y003463D01*
X020507Y003561D02*
X018939Y003561D01*
X019038Y003660D02*
X020585Y003660D01*
X020683Y003758D02*
X019136Y003758D01*
X019137Y004042D02*
X018637Y003542D01*
X018587Y003542D01*
X018487Y003442D01*
X018137Y003463D02*
X017477Y003463D01*
X017576Y003561D02*
X018137Y003561D01*
X018210Y003660D02*
X017587Y003660D01*
X017587Y003572D02*
X017587Y004122D01*
X017587Y004872D01*
X017587Y005222D01*
X017587Y005761D01*
X017587Y006261D01*
X017587Y006772D01*
X017687Y006872D01*
X017687Y007172D01*
X017687Y008722D01*
X018462Y009497D01*
X018568Y009392D01*
X019355Y009392D01*
X019167Y009203D01*
X019055Y009092D01*
X018768Y009092D01*
X018718Y009092D01*
X018668Y009092D01*
X018268Y009092D01*
X018244Y009068D01*
X018218Y009068D01*
X017837Y008687D01*
X017837Y008149D01*
X017887Y008099D01*
X017887Y007022D01*
X017887Y006896D01*
X018268Y006515D01*
X018318Y006515D01*
X018744Y006515D01*
X018768Y006492D01*
X019306Y006492D01*
X019397Y006582D01*
X019717Y006582D01*
X019777Y006642D01*
X019797Y006642D01*
X019857Y006582D01*
X020217Y006582D01*
X020277Y006642D01*
X021106Y006642D01*
X021276Y006812D01*
X021306Y006812D01*
X021617Y007122D01*
X021617Y007561D01*
X021606Y007572D01*
X022075Y007572D01*
X022269Y007572D01*
X022299Y007572D01*
X022359Y007632D01*
X022419Y007672D01*
X022449Y007672D01*
X022607Y007830D01*
X022607Y008032D01*
X022657Y007982D01*
X023017Y007982D01*
X023087Y008052D01*
X023157Y007982D01*
X023517Y007982D01*
X023605Y008070D01*
X023605Y008452D01*
X023607Y008453D01*
X023607Y008480D01*
X023707Y008580D01*
X023707Y008636D01*
X024232Y009162D01*
X025942Y009162D01*
X026132Y009162D01*
X026267Y009296D01*
X026267Y009296D01*
X026432Y009462D01*
X027250Y009462D01*
X027192Y009404D01*
X027192Y009329D01*
X027117Y009253D01*
X027025Y009162D01*
X025325Y009162D01*
X025243Y009079D02*
X024150Y009079D01*
X024051Y008981D02*
X025144Y008981D01*
X025067Y008882D02*
X023953Y008882D01*
X023854Y008784D02*
X024260Y008784D01*
X024091Y008685D02*
X023756Y008685D01*
X023707Y008587D02*
X024063Y008587D01*
X023964Y008488D02*
X023615Y008488D01*
X023605Y008390D02*
X023887Y008390D01*
X023887Y008291D02*
X023605Y008291D01*
X023605Y008193D02*
X023887Y008193D01*
X023887Y008094D02*
X023605Y008094D01*
X023530Y007996D02*
X023887Y007996D01*
X023887Y007897D02*
X022607Y007897D01*
X022607Y007996D02*
X022643Y007996D01*
X022576Y007798D02*
X023887Y007798D01*
X023887Y007700D02*
X022477Y007700D01*
X022328Y007601D02*
X023887Y007601D01*
X023887Y007503D02*
X021617Y007503D01*
X021617Y007404D02*
X023887Y007404D01*
X023832Y007306D02*
X021617Y007306D01*
X021617Y007207D02*
X023737Y007207D01*
X023737Y007109D02*
X021603Y007109D01*
X021569Y007010D02*
X021505Y007010D01*
X021569Y006912D02*
X021406Y006912D01*
X021308Y006813D02*
X021569Y006813D01*
X021569Y006714D02*
X021179Y006714D01*
X021569Y006616D02*
X020251Y006616D01*
X019823Y006616D02*
X019751Y006616D01*
X019332Y006517D02*
X021569Y006517D01*
X021569Y006419D02*
X017587Y006419D01*
X017587Y006517D02*
X018266Y006517D01*
X018167Y006616D02*
X017587Y006616D01*
X017587Y006714D02*
X018069Y006714D01*
X017970Y006813D02*
X017627Y006813D01*
X017687Y006912D02*
X017887Y006912D01*
X017887Y007010D02*
X017687Y007010D01*
X017687Y007109D02*
X017887Y007109D01*
X017887Y007207D02*
X017687Y007207D01*
X017687Y007306D02*
X017887Y007306D01*
X017887Y007404D02*
X017687Y007404D01*
X017687Y007503D02*
X017887Y007503D01*
X017887Y007601D02*
X017687Y007601D01*
X017687Y007700D02*
X017887Y007700D01*
X017887Y007798D02*
X017687Y007798D01*
X017687Y007897D02*
X017887Y007897D01*
X017887Y007996D02*
X017687Y007996D01*
X017687Y008094D02*
X017887Y008094D01*
X017837Y008193D02*
X017687Y008193D01*
X017687Y008291D02*
X017837Y008291D01*
X017837Y008390D02*
X017687Y008390D01*
X017687Y008488D02*
X017837Y008488D01*
X017837Y008587D02*
X017687Y008587D01*
X017687Y008685D02*
X017837Y008685D01*
X017748Y008784D02*
X017934Y008784D01*
X017847Y008882D02*
X018032Y008882D01*
X017945Y008981D02*
X018131Y008981D01*
X018044Y009079D02*
X018256Y009079D01*
X018142Y009178D02*
X019142Y009178D01*
X019167Y009203D02*
X019167Y009203D01*
X019240Y009277D02*
X018241Y009277D01*
X018340Y009375D02*
X019339Y009375D01*
X018787Y009617D02*
X018837Y010042D01*
X018486Y009474D02*
X018438Y009474D01*
X017331Y009336D02*
X017037Y009042D01*
X017062Y009017D01*
X017231Y009397D02*
X017331Y009336D01*
X016895Y009769D02*
X014441Y009769D01*
X014348Y009868D02*
X016994Y009868D01*
X017092Y009966D02*
X014254Y009966D01*
X014160Y010065D02*
X017191Y010065D01*
X017290Y010163D02*
X014066Y010163D01*
X013972Y010262D02*
X017388Y010262D01*
X017487Y010361D02*
X013887Y010361D01*
X013887Y010459D02*
X014237Y010459D01*
X014138Y010558D02*
X013887Y010558D01*
X013887Y010656D02*
X014040Y010656D01*
X013941Y010755D02*
X013887Y010755D01*
X013887Y010853D02*
X013937Y010853D01*
X013937Y010952D02*
X013837Y010952D01*
X013797Y011050D02*
X013937Y011050D01*
X013897Y011149D02*
X013699Y011149D01*
X013600Y011247D02*
X013798Y011247D01*
X013700Y011346D02*
X013502Y011346D01*
X013403Y011445D02*
X013601Y011445D01*
X013503Y011543D02*
X013305Y011543D01*
X013206Y011642D02*
X013404Y011642D01*
X013306Y011740D02*
X013108Y011740D01*
X013009Y011839D02*
X013207Y011839D01*
X013109Y011937D02*
X012911Y011937D01*
X012812Y012036D02*
X013010Y012036D01*
X014170Y011442D02*
X017254Y011442D01*
X017470Y011442D01*
X017704Y011442D01*
X017104Y010842D01*
X014420Y010842D01*
X014337Y010924D01*
X014337Y011274D01*
X014220Y011392D01*
X014170Y011442D01*
X014265Y011346D02*
X017609Y011346D01*
X017510Y011247D02*
X014337Y011247D01*
X014337Y011149D02*
X017411Y011149D01*
X017313Y011050D02*
X014337Y011050D01*
X014337Y010952D02*
X017214Y010952D01*
X017116Y010853D02*
X014408Y010853D01*
X014535Y009671D02*
X016797Y009671D01*
X016698Y009572D02*
X014629Y009572D01*
X014724Y009474D02*
X016600Y009474D01*
X016501Y009375D02*
X014823Y009375D01*
X014887Y009277D02*
X016403Y009277D01*
X016387Y009178D02*
X014887Y009178D01*
X014887Y009079D02*
X016387Y009079D01*
X016387Y008981D02*
X014887Y008981D01*
X014887Y008882D02*
X016387Y008882D01*
X016387Y008784D02*
X014887Y008784D01*
X014887Y008685D02*
X016387Y008685D01*
X016387Y008587D02*
X014911Y008587D01*
X015060Y008488D02*
X016387Y008488D01*
X016387Y008390D02*
X015158Y008390D01*
X015257Y008291D02*
X016387Y008291D01*
X016387Y008193D02*
X015355Y008193D01*
X015387Y008161D02*
X015387Y008161D01*
X015454Y008094D02*
X016387Y008094D01*
X016387Y007996D02*
X015552Y007996D01*
X015651Y007897D02*
X016387Y007897D01*
X016387Y007798D02*
X015749Y007798D01*
X015848Y007700D02*
X016387Y007700D01*
X016387Y007601D02*
X015946Y007601D01*
X016006Y007542D02*
X016006Y007542D01*
X016045Y007503D02*
X016387Y007503D01*
X016380Y007404D02*
X016144Y007404D01*
X016242Y007306D02*
X016287Y007306D01*
X015737Y006892D02*
X015787Y006492D01*
X017587Y006320D02*
X021569Y006320D01*
X021569Y006222D02*
X017587Y006222D01*
X017587Y006123D02*
X021569Y006123D01*
X021569Y006025D02*
X017587Y006025D01*
X017587Y005926D02*
X021506Y005926D01*
X021437Y005828D02*
X017587Y005828D01*
X017587Y005729D02*
X018229Y005729D01*
X018130Y005630D02*
X017587Y005630D01*
X017587Y005532D02*
X018032Y005532D01*
X017933Y005433D02*
X017587Y005433D01*
X017587Y005335D02*
X017887Y005335D01*
X017887Y005236D02*
X017587Y005236D01*
X017587Y005138D02*
X017887Y005138D01*
X017887Y005039D02*
X017587Y005039D01*
X017587Y004941D02*
X017887Y004941D01*
X017894Y004842D02*
X017587Y004842D01*
X017587Y004744D02*
X017992Y004744D01*
X018091Y004645D02*
X017587Y004645D01*
X017587Y004546D02*
X018189Y004546D01*
X018357Y004448D02*
X017587Y004448D01*
X017587Y004349D02*
X018357Y004349D01*
X018357Y004251D02*
X017587Y004251D01*
X017587Y004152D02*
X018357Y004152D01*
X018357Y004054D02*
X017587Y004054D01*
X017587Y003955D02*
X018379Y003955D01*
X018309Y003758D02*
X017587Y003758D01*
X017587Y003857D02*
X018669Y003857D01*
X019137Y004042D02*
X019137Y004392D01*
X019087Y004442D01*
X019137Y004394D02*
X019137Y004392D01*
X019421Y003857D02*
X020782Y003857D01*
X021130Y003955D02*
X019895Y003955D01*
X019917Y004054D02*
X021229Y004054D01*
X021327Y004152D02*
X019917Y004152D01*
X019917Y004251D02*
X021407Y004251D01*
X021407Y004349D02*
X019917Y004349D01*
X019917Y004448D02*
X021424Y004448D01*
X021424Y004546D02*
X020229Y004546D01*
X020305Y004645D02*
X021424Y004645D01*
X021424Y004744D02*
X020305Y004744D01*
X020305Y004842D02*
X021479Y004842D01*
X021447Y005433D02*
X020305Y005433D01*
X020305Y005532D02*
X021437Y005532D01*
X021437Y005630D02*
X020288Y005630D01*
X019519Y005729D02*
X021437Y005729D01*
X021837Y005692D02*
X021837Y006518D01*
X022337Y006518D02*
X022337Y005742D01*
X022437Y005692D01*
X022837Y005729D02*
X022913Y005729D01*
X022837Y005828D02*
X023004Y005828D01*
X023067Y005926D02*
X022768Y005926D01*
X022670Y006025D02*
X023067Y006025D01*
X023067Y006123D02*
X022605Y006123D01*
X022605Y006222D02*
X023067Y006222D01*
X023067Y006320D02*
X022605Y006320D01*
X022605Y006419D02*
X023067Y006419D01*
X023067Y006517D02*
X022605Y006517D01*
X022605Y006616D02*
X023067Y006616D01*
X023069Y006714D02*
X022605Y006714D01*
X022605Y006813D02*
X023069Y006813D01*
X023069Y006912D02*
X022605Y006912D01*
X022605Y007010D02*
X023069Y007010D01*
X023605Y007010D02*
X023737Y007010D01*
X023737Y006912D02*
X023605Y006912D01*
X023605Y006813D02*
X023687Y006813D01*
X023687Y006714D02*
X023605Y006714D01*
X023607Y006616D02*
X023687Y006616D01*
X023687Y006517D02*
X023607Y006517D01*
X023607Y006419D02*
X023687Y006419D01*
X023689Y006320D02*
X023607Y006320D01*
X023607Y006222D02*
X023763Y006222D01*
X023762Y006123D02*
X023607Y006123D01*
X023607Y006025D02*
X023762Y006025D01*
X023762Y005926D02*
X023607Y005926D01*
X023607Y005828D02*
X023762Y005828D01*
X023754Y005729D02*
X023607Y005729D01*
X023558Y005630D02*
X023656Y005630D01*
X023557Y005532D02*
X023465Y005532D01*
X023459Y005433D02*
X023375Y005433D01*
X023407Y005335D02*
X023284Y005335D01*
X023194Y005236D02*
X023407Y005236D01*
X023407Y005138D02*
X023104Y005138D01*
X023016Y005039D02*
X023407Y005039D01*
X023407Y004941D02*
X022918Y004941D01*
X022982Y005005D02*
X022982Y005005D01*
X023407Y004842D02*
X022494Y004842D01*
X022549Y004744D02*
X023407Y004744D01*
X023407Y004645D02*
X022549Y004645D01*
X022549Y004546D02*
X023407Y004546D01*
X023407Y004448D02*
X022549Y004448D01*
X022567Y004349D02*
X023332Y004349D01*
X023332Y004251D02*
X022567Y004251D01*
X022567Y004152D02*
X023332Y004152D01*
X023332Y004054D02*
X022567Y004054D01*
X022567Y003955D02*
X023332Y003955D01*
X023332Y003857D02*
X022567Y003857D01*
X022567Y003758D02*
X023350Y003758D01*
X023424Y003660D02*
X022549Y003660D01*
X022549Y003561D02*
X023424Y003561D01*
X024220Y003167D02*
X024315Y003262D01*
X024727Y003262D01*
X024829Y003364D02*
X025370Y003364D01*
X025271Y003463D02*
X024928Y003463D01*
X025027Y003561D02*
X025187Y003561D01*
X025187Y003660D02*
X025075Y003660D01*
X025167Y003758D02*
X025187Y003758D01*
X025167Y003857D02*
X025207Y003857D01*
X025167Y003955D02*
X025306Y003955D01*
X025407Y004251D02*
X025187Y004251D01*
X025187Y004349D02*
X025407Y004349D01*
X025407Y004448D02*
X025187Y004448D01*
X025187Y004546D02*
X025407Y004546D01*
X025407Y004645D02*
X025187Y004645D01*
X025187Y004744D02*
X025407Y004744D01*
X025407Y004842D02*
X025187Y004842D01*
X025187Y004941D02*
X025487Y004941D01*
X025487Y005039D02*
X025187Y005039D01*
X025187Y005138D02*
X025487Y005138D01*
X025487Y005236D02*
X025187Y005236D01*
X025187Y005335D02*
X025487Y005335D01*
X025487Y005433D02*
X025187Y005433D01*
X025187Y005532D02*
X025487Y005532D01*
X025487Y005630D02*
X025187Y005630D01*
X025187Y005729D02*
X025505Y005729D01*
X025604Y005828D02*
X025187Y005828D01*
X025187Y005926D02*
X025702Y005926D01*
X025801Y006025D02*
X025187Y006025D01*
X025187Y006123D02*
X025811Y006123D01*
X025821Y006222D02*
X025187Y006222D01*
X025187Y006320D02*
X025837Y006320D01*
X025877Y006419D02*
X025187Y006419D01*
X025187Y006517D02*
X025877Y006517D01*
X025877Y006616D02*
X025187Y006616D01*
X025187Y006714D02*
X025924Y006714D01*
X025877Y006813D02*
X025187Y006813D01*
X025187Y006912D02*
X025877Y006912D01*
X025877Y007010D02*
X025187Y007010D01*
X025187Y007109D02*
X025877Y007109D01*
X025963Y007207D02*
X025187Y007207D01*
X025187Y007306D02*
X026741Y007306D01*
X026642Y007404D02*
X025187Y007404D01*
X025187Y007503D02*
X026544Y007503D01*
X026445Y007601D02*
X026034Y007601D01*
X026105Y007700D02*
X026347Y007700D01*
X026248Y007798D02*
X026105Y007798D01*
X026105Y007897D02*
X026150Y007897D01*
X026519Y008291D02*
X027217Y008291D01*
X027217Y008193D02*
X026618Y008193D01*
X026716Y008094D02*
X027217Y008094D01*
X027217Y008053D02*
X027217Y008622D01*
X027025Y008622D01*
X026105Y008622D01*
X026105Y008438D01*
X026149Y008438D01*
X026372Y008438D01*
X027049Y007762D01*
X027219Y007762D01*
X027219Y008052D01*
X027217Y008053D01*
X027219Y007996D02*
X026815Y007996D01*
X026913Y007897D02*
X027219Y007897D01*
X027219Y007798D02*
X027012Y007798D01*
X027217Y008390D02*
X026421Y008390D01*
X026105Y008488D02*
X027217Y008488D01*
X027217Y008587D02*
X026105Y008587D01*
X026149Y009178D02*
X027041Y009178D01*
X027140Y009277D02*
X026247Y009277D01*
X026346Y009375D02*
X027192Y009375D01*
X026887Y009966D02*
X030856Y009966D01*
X030836Y009868D02*
X028636Y009868D01*
X028734Y009769D02*
X030783Y009769D01*
X030783Y009671D02*
X028833Y009671D01*
X028932Y009572D02*
X030857Y009572D01*
X030791Y009474D02*
X029030Y009474D01*
X029461Y009375D02*
X030783Y009375D01*
X030783Y009277D02*
X029487Y009277D01*
X029487Y009178D02*
X030783Y009178D01*
X030803Y009079D02*
X029487Y009079D01*
X029487Y008981D02*
X030902Y008981D01*
X030903Y008979D02*
X030903Y008979D01*
X030922Y008961D02*
X030922Y008961D01*
X030844Y008882D02*
X029484Y008882D01*
X029217Y008784D02*
X030783Y008784D01*
X030783Y008685D02*
X029230Y008685D01*
X029255Y008587D02*
X030783Y008587D01*
X030783Y008488D02*
X029255Y008488D01*
X029255Y008390D02*
X030783Y008390D01*
X030849Y008291D02*
X029255Y008291D01*
X029255Y008193D02*
X030882Y008193D01*
X030882Y008094D02*
X029255Y008094D01*
X029255Y007996D02*
X030882Y007996D01*
X030882Y007897D02*
X029255Y007897D01*
X029255Y007798D02*
X030882Y007798D01*
X030843Y007700D02*
X029255Y007700D01*
X029186Y007601D02*
X030783Y007601D01*
X030783Y007503D02*
X028230Y007503D01*
X028257Y007601D02*
X028288Y007601D01*
X028131Y007404D02*
X030783Y007404D01*
X030783Y007306D02*
X028033Y007306D01*
X028686Y007601D02*
X028788Y007601D01*
X028753Y007207D02*
X030783Y007207D01*
X030850Y007109D02*
X028852Y007109D01*
X028950Y007010D02*
X030798Y007010D01*
X030783Y006912D02*
X029049Y006912D01*
X029147Y006813D02*
X030783Y006813D01*
X030783Y006714D02*
X029246Y006714D01*
X029257Y006616D02*
X030796Y006616D01*
X030833Y006517D02*
X029257Y006517D01*
X029257Y006419D02*
X030735Y006419D01*
X030685Y006320D02*
X029257Y006320D01*
X029257Y006222D02*
X030685Y006222D01*
X030761Y006123D02*
X029257Y006123D01*
X029257Y006025D02*
X030859Y006025D01*
X030805Y006079D02*
X030805Y006079D01*
X030788Y005926D02*
X029255Y005926D01*
X029255Y005828D02*
X030783Y005828D01*
X030783Y005729D02*
X029255Y005729D01*
X029255Y005630D02*
X030783Y005630D01*
X030806Y005532D02*
X028192Y005532D01*
X028255Y005630D02*
X028719Y005630D01*
X028719Y005729D02*
X028255Y005729D01*
X028255Y005828D02*
X028719Y005828D01*
X028719Y005926D02*
X028255Y005926D01*
X028255Y006025D02*
X028717Y006025D01*
X028717Y006123D02*
X028255Y006123D01*
X028255Y006222D02*
X028717Y006222D01*
X028717Y006320D02*
X028255Y006320D01*
X028255Y006419D02*
X028717Y006419D01*
X028679Y006517D02*
X028255Y006517D01*
X028252Y006616D02*
X028581Y006616D01*
X027987Y006118D02*
X027987Y005242D01*
X028337Y005236D02*
X030586Y005236D01*
X030586Y005335D02*
X028337Y005335D01*
X028290Y005433D02*
X030645Y005433D01*
X030654Y005138D02*
X028337Y005138D01*
X028279Y005039D02*
X030644Y005039D01*
X030586Y004941D02*
X028181Y004941D01*
X027793Y004941D02*
X027681Y004941D01*
X027487Y005242D02*
X027487Y006118D01*
X027219Y006123D02*
X027137Y006123D01*
X027137Y006025D02*
X027219Y006025D01*
X027219Y005926D02*
X027137Y005926D01*
X027137Y005828D02*
X027219Y005828D01*
X027219Y005729D02*
X027137Y005729D01*
X027137Y005630D02*
X027219Y005630D01*
X027282Y005532D02*
X027137Y005532D01*
X027137Y005433D02*
X027184Y005433D01*
X027137Y005335D02*
X027137Y005335D01*
X027137Y005236D02*
X027137Y005236D01*
X027137Y005138D02*
X027102Y005138D01*
X027194Y005039D02*
X027004Y005039D01*
X026905Y004941D02*
X027293Y004941D01*
X026967Y004842D02*
X030586Y004842D01*
X030655Y004744D02*
X026967Y004744D01*
X027137Y006222D02*
X027219Y006222D01*
X027219Y006320D02*
X027137Y006320D01*
X027079Y006419D02*
X027219Y006419D01*
X027219Y006517D02*
X027044Y006517D01*
X027044Y006616D02*
X027222Y006616D01*
X025640Y007601D02*
X025534Y007601D01*
X025337Y008168D02*
X025412Y008242D01*
X025037Y008192D01*
X024537Y008142D02*
X024412Y008242D01*
X024337Y008168D01*
X023143Y007996D02*
X023030Y007996D01*
X021600Y009143D02*
X021537Y009117D01*
X021537Y009142D01*
X020037Y010042D02*
X020037Y010492D01*
X019987Y010465D01*
X019826Y011247D02*
X021348Y011247D01*
X021447Y011149D02*
X017977Y011149D01*
X017878Y011050D02*
X018153Y011050D01*
X018054Y010952D02*
X017780Y010952D01*
X017681Y010853D02*
X017956Y010853D01*
X017857Y010755D02*
X017583Y010755D01*
X017484Y010656D02*
X017782Y010656D01*
X017684Y010558D02*
X017386Y010558D01*
X017387Y010559D02*
X017387Y010559D01*
X017287Y010459D02*
X017585Y010459D01*
X017794Y012233D02*
X018030Y012233D01*
X017931Y012331D02*
X017892Y012331D01*
X017587Y012592D02*
X017487Y012492D01*
X017187Y012529D02*
X017057Y012529D01*
X017037Y012509D02*
X017037Y012509D01*
X016958Y012430D02*
X017187Y012430D01*
X017120Y012592D02*
X017120Y012592D01*
X017155Y012627D02*
X017187Y012627D01*
X017237Y012824D02*
X017254Y012824D01*
X017237Y012923D02*
X017352Y012923D01*
X017237Y013021D02*
X020237Y013021D01*
X020237Y013120D02*
X017237Y013120D01*
X017237Y013218D02*
X020237Y013218D01*
X020237Y013317D02*
X017237Y013317D01*
X017237Y013415D02*
X020237Y013415D01*
X020237Y013514D02*
X019275Y013514D01*
X019373Y013612D02*
X020237Y013612D01*
X020237Y013711D02*
X019437Y013711D01*
X019770Y013810D02*
X020237Y013810D01*
X020237Y013908D02*
X019869Y013908D01*
X019968Y014007D02*
X020237Y014007D01*
X020237Y014105D02*
X019987Y014105D01*
X019987Y014204D02*
X020130Y014204D01*
X020031Y014302D02*
X019987Y014302D01*
X019937Y014499D02*
X019845Y014499D01*
X019187Y014302D02*
X017787Y014302D01*
X017787Y014204D02*
X018833Y014204D01*
X018735Y014105D02*
X017707Y014105D01*
X017637Y014007D02*
X018637Y014007D01*
X018637Y013908D02*
X017637Y013908D01*
X017637Y013810D02*
X018637Y013810D01*
X018637Y013711D02*
X017551Y013711D01*
X017453Y013612D02*
X018700Y013612D01*
X018799Y013514D02*
X017237Y013514D01*
X017037Y013642D02*
X017037Y012792D01*
X016837Y012592D01*
X017821Y012923D02*
X018002Y012923D01*
X017037Y013642D02*
X017287Y013942D01*
X016837Y014392D02*
X016862Y014417D01*
X017437Y015066D02*
X017437Y015542D01*
X017087Y016492D02*
X012687Y016492D01*
X012337Y016142D01*
X010937Y016142D01*
X010537Y015742D01*
X010537Y015642D01*
X010225Y015386D02*
X010200Y015386D01*
X010087Y015092D02*
X010062Y015067D01*
X009937Y015067D01*
X010087Y015092D02*
X010512Y015092D01*
X010087Y015092D02*
X009362Y015092D01*
X009042Y015091D02*
X009032Y015091D01*
X009032Y015189D02*
X009042Y015189D01*
X009032Y015288D02*
X009042Y015288D01*
X009074Y015386D02*
X009000Y015386D01*
X008702Y015157D02*
X008712Y015092D01*
X008712Y015116D01*
X008687Y015142D01*
X008187Y015142D01*
X008050Y015288D02*
X007587Y015288D01*
X007587Y015189D02*
X007952Y015189D01*
X007853Y015091D02*
X007671Y015091D01*
X008687Y015142D02*
X008702Y015157D01*
X009032Y014992D02*
X009042Y014992D01*
X009032Y014894D02*
X009042Y014894D01*
X009076Y014795D02*
X008998Y014795D01*
X009032Y014696D02*
X009042Y014696D01*
X009032Y014598D02*
X009042Y014598D01*
X009032Y014499D02*
X009042Y014499D01*
X009032Y014401D02*
X009042Y014401D01*
X009032Y014302D02*
X009042Y014302D01*
X009067Y014204D02*
X009006Y014204D01*
X008737Y014492D02*
X008712Y014492D01*
X009362Y014492D02*
X010087Y014492D01*
X010087Y014542D01*
X010062Y014516D01*
X009937Y014516D01*
X010087Y014492D02*
X010437Y014492D01*
X010487Y014542D01*
X010512Y014516D01*
X010512Y014492D01*
X010218Y014204D02*
X010206Y014204D01*
X009667Y014204D02*
X009656Y014204D01*
X009649Y015386D02*
X009674Y015386D01*
X009566Y016076D02*
X010589Y016076D01*
X010687Y016175D02*
X009665Y016175D01*
X009387Y016392D02*
X012187Y016392D01*
X012487Y016692D01*
X016837Y016692D01*
X017287Y017142D01*
X017287Y017242D01*
X017742Y016864D02*
X018142Y016864D01*
X018142Y016766D02*
X017644Y016766D01*
X017545Y016667D02*
X018130Y016667D01*
X018031Y016569D02*
X017447Y016569D01*
X017087Y016492D02*
X017837Y017242D01*
X017987Y017242D01*
X017987Y017792D01*
X018087Y017892D01*
X018387Y017892D01*
X018562Y017717D01*
X018887Y017717D01*
X019237Y017751D02*
X021157Y017751D01*
X021157Y017653D02*
X019237Y017653D01*
X019237Y017554D02*
X021157Y017554D01*
X021157Y017850D02*
X019237Y017850D01*
X019237Y017948D02*
X021157Y017948D01*
X021157Y018047D02*
X019150Y018047D01*
X019237Y018145D02*
X021157Y018145D01*
X021157Y018244D02*
X019237Y018244D01*
X019237Y018343D02*
X021157Y018343D01*
X021157Y018441D02*
X019237Y018441D01*
X019237Y018540D02*
X021064Y018540D01*
X020595Y018638D02*
X019197Y018638D01*
X018887Y018366D02*
X018887Y018342D01*
X018437Y018792D01*
X018387Y018792D01*
X018237Y018742D01*
X017137Y017642D01*
X016187Y017642D01*
X015787Y017242D01*
X015472Y017557D01*
X013587Y017557D01*
X013387Y017642D01*
X012087Y017642D01*
X012087Y017692D01*
X011987Y017642D01*
X011637Y017653D02*
X011481Y017653D01*
X011392Y017554D02*
X011637Y017554D01*
X011678Y017456D02*
X011392Y017456D01*
X011337Y017792D02*
X009587Y017792D01*
X009614Y018047D02*
X011309Y018047D01*
X011408Y018145D02*
X009516Y018145D01*
X009417Y018244D02*
X011507Y018244D01*
X011605Y018343D02*
X009333Y018343D01*
X009431Y018441D02*
X011704Y018441D01*
X011802Y018540D02*
X009530Y018540D01*
X009537Y018638D02*
X011901Y018638D01*
X011915Y018662D02*
X012167Y018914D01*
X012167Y019270D01*
X011915Y019522D01*
X011559Y019522D01*
X011307Y019270D01*
X011307Y018914D01*
X011559Y018662D01*
X011915Y018662D01*
X011990Y018737D02*
X011999Y018737D01*
X012089Y018835D02*
X012098Y018835D01*
X012167Y018934D02*
X012196Y018934D01*
X012167Y019032D02*
X012295Y019032D01*
X012307Y019131D02*
X012167Y019131D01*
X012167Y019229D02*
X012307Y019229D01*
X012365Y019328D02*
X012109Y019328D01*
X012010Y019427D02*
X012464Y019427D01*
X013038Y019525D02*
X011403Y019525D01*
X011464Y019427D02*
X011010Y019427D01*
X011109Y019328D02*
X011365Y019328D01*
X011307Y019229D02*
X011167Y019229D01*
X011167Y019131D02*
X011307Y019131D01*
X011307Y019032D02*
X011167Y019032D01*
X011167Y018934D02*
X011307Y018934D01*
X011385Y018835D02*
X011089Y018835D01*
X010990Y018737D02*
X011484Y018737D01*
X012072Y018244D02*
X017457Y018244D01*
X017555Y018343D02*
X012171Y018343D01*
X012269Y018441D02*
X017654Y018441D01*
X017752Y018540D02*
X012368Y018540D01*
X012466Y018638D02*
X017851Y018638D01*
X017949Y018737D02*
X012990Y018737D01*
X013089Y018835D02*
X018037Y018835D01*
X018037Y018934D02*
X013167Y018934D01*
X013167Y019032D02*
X018037Y019032D01*
X018131Y019131D02*
X017837Y019131D01*
X017869Y019144D02*
X017984Y019259D01*
X018047Y019410D01*
X018047Y019573D01*
X017984Y019724D01*
X017869Y019839D01*
X017718Y019902D01*
X017555Y019902D01*
X017405Y019839D01*
X017289Y019724D01*
X017227Y019573D01*
X017227Y019410D01*
X017289Y019259D01*
X017405Y019144D01*
X017555Y019082D01*
X017718Y019082D01*
X017869Y019144D01*
X017955Y019229D02*
X018230Y019229D01*
X018013Y019328D02*
X020887Y019328D01*
X020857Y019427D02*
X018047Y019427D01*
X018047Y019525D02*
X020759Y019525D01*
X020737Y019624D02*
X018026Y019624D01*
X017985Y019722D02*
X020737Y019722D01*
X020737Y019821D02*
X017888Y019821D01*
X017386Y019821D02*
X015988Y019821D01*
X015969Y019839D02*
X015818Y019902D01*
X015655Y019902D01*
X015505Y019839D01*
X015389Y019724D01*
X015327Y019573D01*
X015327Y019410D01*
X015389Y019259D01*
X015505Y019144D01*
X015655Y019082D01*
X015818Y019082D01*
X015969Y019144D01*
X016084Y019259D01*
X016147Y019410D01*
X016147Y019573D01*
X016084Y019724D01*
X015969Y019839D01*
X016085Y019722D02*
X017289Y019722D01*
X017248Y019624D02*
X016126Y019624D01*
X016147Y019525D02*
X017227Y019525D01*
X017227Y019427D02*
X016147Y019427D01*
X016113Y019328D02*
X017261Y019328D01*
X017319Y019229D02*
X016055Y019229D01*
X015937Y019131D02*
X017436Y019131D01*
X018387Y018892D02*
X018387Y018792D01*
X018406Y018540D02*
X018318Y018540D01*
X018219Y018441D02*
X018505Y018441D01*
X018537Y018343D02*
X018121Y018343D01*
X018022Y018244D02*
X018537Y018244D01*
X018537Y018145D02*
X018328Y018145D01*
X018514Y018047D02*
X018624Y018047D01*
X018343Y017653D02*
X018343Y017653D01*
X018244Y017554D02*
X018442Y017554D01*
X018566Y017456D02*
X018187Y017456D01*
X018187Y017357D02*
X019432Y017357D01*
X019432Y017259D02*
X018187Y017259D01*
X018187Y017160D02*
X019432Y017160D01*
X019432Y017061D02*
X018090Y017061D01*
X018201Y016963D02*
X017841Y016963D01*
X019112Y016642D02*
X019187Y016642D01*
X019337Y016792D01*
X019887Y016792D01*
X020137Y017042D01*
X019937Y017082D01*
X019787Y016542D02*
X020487Y016542D01*
X020987Y017042D01*
X020787Y017082D01*
X019787Y016542D02*
X019337Y016092D01*
X019112Y016092D01*
X020213Y015485D02*
X020997Y015485D01*
X021187Y015392D02*
X022037Y016242D01*
X022037Y018592D01*
X022337Y018892D01*
X022337Y020092D01*
X022709Y019919D02*
X022965Y019919D01*
X022989Y019859D02*
X023105Y019744D01*
X023255Y019682D01*
X023418Y019682D01*
X023569Y019744D01*
X023684Y019859D01*
X023747Y020010D01*
X023747Y020173D01*
X023684Y020324D01*
X023569Y020439D01*
X023418Y020502D01*
X023255Y020502D01*
X023105Y020439D01*
X022989Y020324D01*
X022927Y020173D01*
X022927Y020010D01*
X022989Y019859D01*
X023028Y019821D02*
X022646Y019821D01*
X022537Y019722D02*
X023158Y019722D01*
X023516Y019722D02*
X031587Y019722D01*
X031587Y019624D02*
X022537Y019624D01*
X022537Y019525D02*
X031587Y019525D01*
X031587Y019427D02*
X022537Y019427D01*
X022537Y019328D02*
X031587Y019328D01*
X031587Y019229D02*
X022537Y019229D01*
X022537Y019131D02*
X031587Y019131D01*
X031587Y019032D02*
X022537Y019032D01*
X022537Y018934D02*
X031587Y018934D01*
X031587Y018835D02*
X022537Y018835D01*
X022465Y018737D02*
X031587Y018737D01*
X031587Y018638D02*
X022366Y018638D01*
X022268Y018540D02*
X031587Y018540D01*
X031587Y019821D02*
X023646Y019821D01*
X023709Y019919D02*
X031587Y019919D01*
X031587Y020018D02*
X023747Y020018D01*
X023747Y020116D02*
X031587Y020116D01*
X031587Y020215D02*
X023730Y020215D01*
X023689Y020313D02*
X031587Y020313D01*
X031587Y020412D02*
X023596Y020412D01*
X023077Y020412D02*
X022596Y020412D01*
X022689Y020313D02*
X022985Y020313D01*
X022944Y020215D02*
X022730Y020215D01*
X022747Y020116D02*
X022927Y020116D01*
X022927Y020018D02*
X022747Y020018D01*
X022077Y020412D02*
X014561Y020412D01*
X014660Y020313D02*
X021985Y020313D01*
X021944Y020215D02*
X014687Y020215D01*
X014687Y020116D02*
X021927Y020116D01*
X022082Y019427D02*
X022137Y019427D01*
X020918Y020018D02*
X014687Y020018D01*
X014609Y019919D02*
X020820Y019919D01*
X020580Y019229D02*
X018544Y019229D01*
X018643Y019131D02*
X020481Y019131D01*
X020437Y019032D02*
X018737Y019032D01*
X018737Y018934D02*
X020437Y018934D01*
X020437Y018835D02*
X018737Y018835D01*
X018775Y018737D02*
X020497Y018737D01*
X019432Y017456D02*
X019208Y017456D01*
X017358Y018145D02*
X011974Y018145D01*
X011875Y018047D02*
X017259Y018047D01*
X017161Y017948D02*
X012175Y017948D01*
X012274Y017850D02*
X013254Y017850D01*
X013240Y017357D02*
X012197Y017357D01*
X011865Y017259D02*
X013260Y017259D01*
X013914Y017259D02*
X015437Y017259D01*
X015437Y017160D02*
X011887Y017160D01*
X011887Y017061D02*
X012174Y017061D01*
X012075Y016963D02*
X011887Y016963D01*
X011537Y017092D02*
X011087Y017092D01*
X010887Y017292D01*
X010887Y017232D01*
X011337Y017792D02*
X012537Y018992D01*
X012537Y019092D01*
X012737Y019092D01*
X012887Y019092D01*
X013537Y019742D01*
X013587Y019742D01*
X013937Y019722D02*
X015389Y019722D01*
X015348Y019624D02*
X013937Y019624D01*
X013865Y019525D02*
X015327Y019525D01*
X015327Y019427D02*
X013767Y019427D01*
X013406Y019328D02*
X015361Y019328D01*
X015419Y019229D02*
X013307Y019229D01*
X013209Y019131D02*
X015536Y019131D01*
X015486Y019821D02*
X014511Y019821D01*
X014163Y019821D02*
X013937Y019821D01*
X013904Y019919D02*
X014064Y019919D01*
X013987Y020018D02*
X013806Y020018D01*
X013979Y020116D02*
X012167Y020116D01*
X012167Y020018D02*
X013368Y020018D01*
X013270Y019919D02*
X012167Y019919D01*
X012074Y019821D02*
X013237Y019821D01*
X013235Y019722D02*
X011976Y019722D01*
X011737Y020092D02*
X011687Y020092D01*
X011237Y019642D01*
X009637Y019642D01*
X009187Y019192D01*
X009187Y018692D01*
X008943Y018441D02*
X008770Y018441D01*
X008844Y018540D02*
X008672Y018540D01*
X008573Y018638D02*
X008837Y018638D01*
X008484Y018737D02*
X007775Y018737D01*
X007698Y018835D02*
X007676Y018835D01*
X007600Y018934D02*
X007587Y018934D01*
X007587Y019032D02*
X007587Y019032D01*
X007587Y019131D02*
X007587Y019131D01*
X007587Y019229D02*
X007587Y019229D01*
X007587Y019328D02*
X007678Y019328D01*
X007587Y019427D02*
X007777Y019427D01*
X007587Y019525D02*
X008088Y019525D01*
X008186Y019624D02*
X007587Y019624D01*
X007587Y019722D02*
X008285Y019722D01*
X008400Y019821D02*
X007541Y019821D01*
X007442Y019919D02*
X008307Y019919D01*
X008307Y020018D02*
X007344Y020018D01*
X007245Y020116D02*
X008307Y020116D01*
X008307Y020215D02*
X007146Y020215D01*
X007048Y020313D02*
X008351Y020313D01*
X008449Y020412D02*
X006949Y020412D01*
X006851Y020511D02*
X008548Y020511D01*
X008737Y020092D02*
X009187Y020542D01*
X013837Y020542D01*
X014087Y020292D01*
X014137Y020292D01*
X014243Y020511D02*
X031587Y020511D01*
X022583Y016592D02*
X022533Y016638D01*
X022537Y016642D01*
X022487Y016692D01*
X022537Y016592D01*
X021187Y015392D02*
X021187Y013592D01*
X021913Y012017D02*
X022837Y012942D01*
X022472Y012233D02*
X022411Y012233D01*
X022437Y011992D02*
X022687Y011992D01*
X022681Y011998D01*
X022681Y012017D01*
X022437Y011992D02*
X022187Y011742D01*
X021913Y012017D02*
X021893Y012017D01*
X022949Y011543D02*
X023006Y011543D01*
X026985Y010065D02*
X030783Y010065D01*
X030783Y010163D02*
X027084Y010163D01*
X027182Y010262D02*
X030836Y010262D01*
X030811Y010361D02*
X027281Y010361D01*
X027380Y010459D02*
X030783Y010459D01*
X030783Y010558D02*
X027478Y010558D01*
X027577Y010656D02*
X030783Y010656D01*
X030783Y010952D02*
X027872Y010952D01*
X027971Y011050D02*
X030783Y011050D01*
X030783Y011149D02*
X028017Y011149D01*
X028017Y011247D02*
X030783Y011247D01*
X030783Y011346D02*
X028017Y011346D01*
X028017Y011445D02*
X030828Y011445D01*
X029687Y012001D02*
X029687Y012042D01*
X029187Y012542D01*
X029187Y012692D01*
X028923Y012923D02*
X028017Y012923D01*
X028017Y013021D02*
X029022Y013021D01*
X028837Y012824D02*
X028017Y012824D01*
X028017Y012726D02*
X028837Y012726D01*
X028837Y012627D02*
X028017Y012627D01*
X028017Y012529D02*
X028855Y012529D01*
X028954Y012430D02*
X028017Y012430D01*
X028017Y012331D02*
X029114Y012331D01*
X029182Y012233D02*
X028017Y012233D01*
X028017Y012134D02*
X029182Y012134D01*
X029182Y012036D02*
X028017Y012036D01*
X028017Y011937D02*
X029182Y011937D01*
X029182Y011839D02*
X028017Y011839D01*
X028017Y011740D02*
X029182Y011740D01*
X029182Y011642D02*
X028017Y011642D01*
X028017Y011543D02*
X029263Y011543D01*
X024413Y006442D02*
X024412Y006367D01*
X024412Y005942D01*
X024412Y005492D01*
X024413Y005442D01*
X024249Y004154D02*
X024287Y004117D01*
X026187Y002239D02*
X026787Y002242D01*
X027162Y002242D01*
X027312Y002092D01*
X028282Y001984D02*
X031587Y001984D01*
X031587Y001886D02*
X028282Y001886D01*
X021187Y007292D02*
X021087Y007342D01*
X021187Y007292D02*
X020837Y007292D01*
X019537Y005117D02*
X019537Y005118D01*
X019537Y005117D02*
X019061Y005118D01*
X017587Y003572D02*
X017206Y003192D01*
X017045Y003192D01*
X017020Y003167D01*
X018267Y003167D01*
X018168Y003265D02*
X017280Y003265D01*
X017378Y003364D02*
X018137Y003364D01*
X017020Y003167D02*
X016554Y003167D01*
X020639Y002970D02*
X001187Y002970D01*
X001187Y002871D02*
X020737Y002871D01*
X020836Y002773D02*
X001187Y002773D01*
X004687Y005392D02*
X004687Y005518D01*
X004096Y006714D02*
X007163Y006714D01*
X007787Y007117D02*
X008087Y007117D01*
X008537Y007117D01*
X008637Y006792D01*
X007813Y007092D02*
X007787Y007117D01*
X007813Y007592D02*
X008162Y007617D01*
X008087Y007617D01*
X008087Y008367D02*
X008662Y008367D01*
X008687Y008718D01*
X008087Y008742D02*
X007787Y008742D01*
X007687Y008718D01*
X007187Y008685D02*
X006457Y008685D01*
X006457Y008587D02*
X007187Y008587D01*
X007187Y008488D02*
X006455Y008488D01*
X006455Y008554D02*
X006455Y008192D01*
X006856Y008192D01*
X006876Y008172D01*
X006906Y008172D01*
X007187Y007891D01*
X007187Y007994D01*
X007187Y009114D01*
X007464Y009392D01*
X006554Y009392D01*
X006437Y009509D01*
X006154Y009792D01*
X004320Y009792D01*
X004290Y009762D01*
X004499Y009762D01*
X005899Y009762D01*
X006057Y009603D01*
X006457Y009203D01*
X006457Y008980D01*
X006457Y008556D01*
X006455Y008554D01*
X006455Y008390D02*
X007187Y008390D01*
X007187Y008291D02*
X006455Y008291D01*
X006455Y008193D02*
X007187Y008193D01*
X007187Y008094D02*
X006984Y008094D01*
X007083Y007996D02*
X007187Y007996D01*
X007181Y007897D02*
X007187Y007897D01*
X006687Y007642D02*
X006587Y007642D01*
X006287Y007617D02*
X006287Y007542D01*
X006287Y007617D02*
X006187Y007565D01*
X005687Y008668D02*
X005787Y008742D01*
X005387Y008642D01*
X005187Y008668D02*
X005162Y008742D01*
X004687Y008668D01*
X004297Y009769D02*
X006176Y009769D01*
X006275Y009671D02*
X005990Y009671D01*
X006088Y009572D02*
X006374Y009572D01*
X006472Y009474D02*
X006187Y009474D01*
X006285Y009375D02*
X007448Y009375D01*
X007349Y009277D02*
X006384Y009277D01*
X006457Y009178D02*
X007251Y009178D01*
X007187Y009079D02*
X006457Y009079D01*
X006457Y008981D02*
X007187Y008981D01*
X007187Y008882D02*
X006457Y008882D01*
X006457Y008784D02*
X007187Y008784D01*
X007504Y009792D02*
X006720Y009792D01*
X006396Y010115D01*
X007418Y010115D01*
X007518Y010115D01*
X007828Y010115D01*
X007787Y010074D01*
X007504Y009792D01*
X007580Y009868D02*
X006644Y009868D01*
X006545Y009966D02*
X007679Y009966D01*
X007777Y010065D02*
X006446Y010065D01*
X006412Y010666D02*
X006237Y010842D01*
X006187Y010792D01*
X006187Y010715D01*
X006287Y010742D01*
X006287Y010765D01*
X006412Y010666D02*
X006887Y010616D01*
X007687Y010765D02*
X007787Y010867D01*
X007787Y010765D01*
X008187Y010765D02*
X008287Y010867D01*
X008287Y010765D01*
X008687Y010765D02*
X008787Y010867D01*
X009187Y010792D01*
X009892Y010163D02*
X010617Y010163D01*
X010617Y010065D02*
X009793Y010065D01*
X009694Y009966D02*
X010617Y009966D01*
X010617Y009868D02*
X009596Y009868D01*
X009637Y009909D02*
X009540Y009812D01*
X010617Y009812D01*
X010617Y010280D01*
X010617Y010503D01*
X010742Y010629D01*
X010742Y010642D01*
X010370Y010642D01*
X009637Y009909D01*
X009990Y010262D02*
X010617Y010262D01*
X010617Y010361D02*
X010089Y010361D01*
X010187Y010459D02*
X010617Y010459D01*
X010671Y010558D02*
X010286Y010558D01*
X009963Y011468D02*
X009590Y011468D01*
X009963Y011468D02*
X009987Y011492D01*
X011657Y008981D02*
X011658Y008981D01*
X011657Y008882D02*
X012652Y008882D01*
X012754Y008784D02*
X011611Y008784D01*
X011512Y008685D02*
X012856Y008685D01*
X012795Y008745D02*
X012795Y008745D01*
X012958Y008587D02*
X011414Y008587D01*
X012116Y008981D02*
X012158Y008981D01*
X012272Y008488D02*
X012967Y008488D01*
X012887Y008390D02*
X012371Y008390D01*
X012469Y008291D02*
X012887Y008291D01*
X012887Y008193D02*
X012568Y008193D01*
X012499Y008262D02*
X012499Y008262D01*
X012657Y008094D02*
X012887Y008094D01*
X012887Y007996D02*
X012657Y007996D01*
X012657Y007897D02*
X012924Y007897D01*
X013194Y008734D02*
X013037Y008892D01*
X013037Y008992D01*
X012984Y008937D01*
X010193Y008291D02*
X009455Y008291D01*
X009425Y008193D02*
X010125Y008193D01*
X005787Y010742D02*
X005787Y010765D01*
X005787Y010742D02*
X005687Y010715D01*
X005187Y010742D02*
X004787Y010742D01*
X004687Y010715D01*
X004037Y010755D02*
X003433Y010755D01*
X003531Y010853D02*
X004037Y010853D01*
X004037Y010952D02*
X003630Y010952D01*
X003728Y011050D02*
X004037Y011050D01*
X004037Y011149D02*
X003827Y011149D01*
X003926Y011247D02*
X004110Y011247D01*
X004024Y011346D02*
X004208Y011346D01*
X004123Y011445D02*
X004307Y011445D01*
X004221Y011543D02*
X004406Y011543D01*
X004320Y011642D02*
X004504Y011642D01*
X004418Y011740D02*
X004603Y011740D01*
X003995Y012233D02*
X002211Y012233D01*
X002309Y012331D02*
X004094Y012331D01*
X004192Y012430D02*
X002408Y012430D01*
X002507Y012529D02*
X004291Y012529D01*
X004390Y012627D02*
X002605Y012627D01*
X002704Y012726D02*
X004488Y012726D01*
X004587Y012824D02*
X002802Y012824D01*
X002901Y012923D02*
X004685Y012923D01*
X004784Y013021D02*
X002999Y013021D01*
X003098Y013120D02*
X004882Y013120D01*
X004981Y013218D02*
X003196Y013218D01*
X003557Y013317D02*
X003605Y013317D01*
X003837Y013592D02*
X003337Y013592D01*
X003287Y013592D01*
X001837Y012142D01*
X001837Y011892D01*
X001787Y011692D01*
X002035Y011445D02*
X003207Y011445D01*
X003306Y011543D02*
X002133Y011543D01*
X002137Y011642D02*
X003404Y011642D01*
X003503Y011740D02*
X002137Y011740D01*
X002135Y011839D02*
X003601Y011839D01*
X003897Y012134D02*
X002112Y012134D01*
X003334Y010656D02*
X004037Y010656D01*
X004037Y010558D02*
X003236Y010558D01*
X003137Y010459D02*
X004037Y010459D01*
X004037Y010361D02*
X003039Y010361D01*
X002940Y010262D02*
X004037Y010262D01*
X004037Y010163D02*
X002842Y010163D01*
X002743Y010065D02*
X004027Y010065D01*
X003999Y010037D02*
X003999Y010037D01*
X004237Y009992D02*
X003962Y009717D01*
X003737Y009717D01*
X003387Y009769D02*
X003332Y009769D01*
X003332Y009868D02*
X003387Y009868D01*
X003404Y009966D02*
X003319Y009966D01*
X002704Y009966D02*
X002670Y009966D01*
X002682Y009868D02*
X002692Y009868D01*
X002682Y009769D02*
X002692Y009769D01*
X002682Y009671D02*
X002692Y009671D01*
X002682Y009572D02*
X002692Y009572D01*
X002682Y009474D02*
X002692Y009474D01*
X002170Y010042D02*
X002170Y010042D01*
X004237Y009992D02*
X004237Y010142D01*
X004120Y013317D02*
X005079Y013317D01*
X005178Y013415D02*
X004182Y013415D01*
X004182Y013514D02*
X005276Y013514D01*
X005375Y013612D02*
X004191Y013612D01*
X004237Y013711D02*
X005474Y013711D01*
X005587Y014642D02*
X006537Y015592D01*
X006537Y016342D01*
X007037Y016842D01*
X007037Y017142D01*
X007137Y017242D01*
X006537Y017592D02*
X006537Y017792D01*
X006637Y017792D01*
X006737Y017892D01*
X007137Y017892D01*
X006987Y018835D02*
X006482Y018835D01*
X006482Y018934D02*
X006987Y018934D01*
X006913Y019032D02*
X006482Y019032D01*
X006482Y019131D02*
X006815Y019131D01*
X006716Y019229D02*
X006482Y019229D01*
X006482Y019328D02*
X006618Y019328D01*
X006137Y019592D02*
X006037Y019592D01*
X007937Y019092D02*
X008437Y019592D01*
X009087Y019592D01*
X009587Y020092D01*
X009737Y020092D01*
X010010Y019427D02*
X010464Y019427D01*
X010365Y019328D02*
X010109Y019328D01*
X010167Y019229D02*
X010307Y019229D01*
X010307Y019131D02*
X010167Y019131D01*
X010167Y019032D02*
X010307Y019032D01*
X010307Y018934D02*
X010167Y018934D01*
X010089Y018835D02*
X010385Y018835D01*
X010484Y018737D02*
X009990Y018737D01*
X009041Y018343D02*
X008869Y018343D01*
X008385Y018835D02*
X008175Y018835D01*
X008274Y018934D02*
X008307Y018934D01*
X008307Y019032D02*
X008287Y019032D01*
X008287Y019131D02*
X008307Y019131D01*
X009387Y017092D02*
X009887Y017092D01*
X010087Y017292D01*
X010037Y017232D01*
X011579Y017751D02*
X011637Y017751D01*
X011678Y017850D02*
X011700Y017850D01*
X011776Y017948D02*
X011799Y017948D01*
X011766Y017357D02*
X011776Y017357D01*
X012751Y016273D02*
X014237Y016273D01*
X014237Y016175D02*
X012653Y016175D01*
X012554Y016076D02*
X014237Y016076D01*
X014256Y015978D02*
X012456Y015978D01*
X012537Y016059D02*
X012537Y016059D01*
X010957Y015879D02*
X014355Y015879D01*
X014452Y015126D02*
X014487Y015092D01*
X015973Y014401D02*
X016001Y014401D01*
X016387Y016892D02*
X016737Y017242D01*
X016014Y017751D02*
X015560Y017751D01*
X015659Y017653D02*
X015915Y017653D01*
X017062Y017850D02*
X013920Y017850D01*
X013136Y019624D02*
X011502Y019624D01*
X012167Y020215D02*
X013881Y020215D01*
X013782Y020313D02*
X012123Y020313D01*
X006137Y016392D02*
X006137Y015742D01*
X005899Y015485D02*
X004151Y015485D01*
X004232Y015386D02*
X006049Y015386D01*
X005950Y015288D02*
X004232Y015288D01*
X004232Y015189D02*
X005852Y015189D01*
X005753Y015091D02*
X004232Y015091D01*
X004232Y014992D02*
X005655Y014992D01*
X005344Y014894D02*
X004232Y014894D01*
X004148Y014795D02*
X005245Y014795D01*
X003887Y014992D02*
X003912Y015142D01*
X003387Y015142D01*
X003539Y015485D02*
X003673Y015485D01*
X003677Y014795D02*
X003535Y014795D01*
X003987Y013742D02*
X003887Y013642D01*
X003862Y013642D01*
X003862Y013617D01*
X003837Y013592D01*
X003887Y013642D01*
X003987Y013742D02*
X004037Y013742D01*
X005113Y016273D02*
X005142Y016273D01*
X005462Y016392D02*
X005462Y016417D01*
X005537Y016492D01*
X005537Y017092D01*
X006112Y016392D02*
X006137Y016392D01*
X011737Y014516D02*
X011737Y014492D01*
X005612Y002317D02*
X005537Y002289D01*
X005612Y002317D02*
X005662Y002267D01*
D37*
X005537Y003242D03*
X005187Y003742D03*
X004337Y002042D03*
X001487Y004892D03*
X002137Y007692D03*
X005487Y008092D03*
X006837Y008542D03*
X007387Y009942D03*
X008787Y011692D03*
X008137Y012092D03*
X008337Y012892D03*
X007537Y012892D03*
X006887Y012942D03*
X006287Y012842D03*
X005737Y012792D03*
X004037Y012942D03*
X003337Y013592D03*
X003337Y014142D03*
X003587Y014642D03*
X003387Y015142D03*
X003987Y015642D03*
X004887Y016542D03*
X005637Y015692D03*
X006137Y015742D03*
X005587Y014642D03*
X006987Y014092D03*
X007787Y015242D03*
X007937Y016442D03*
X007437Y016442D03*
X007137Y017242D03*
X007637Y017642D03*
X007137Y017892D03*
X006737Y018892D03*
X007937Y019092D03*
X009187Y018692D03*
X010237Y018692D03*
X009187Y017642D03*
X009387Y017092D03*
X008437Y017642D03*
X008787Y016442D03*
X009387Y016392D03*
X009737Y015992D03*
X010537Y015642D03*
X011537Y017092D03*
X011987Y017642D03*
X013587Y019742D03*
X014337Y020142D03*
X014837Y019692D03*
X018087Y017892D03*
X017287Y017242D03*
X016737Y017242D03*
X015787Y017242D03*
X014587Y016142D03*
X014487Y015642D03*
X014487Y015092D03*
X015287Y015942D03*
X016037Y014942D03*
X016237Y014142D03*
X016737Y013942D03*
X017287Y013942D03*
X015737Y014142D03*
X016537Y015692D03*
X017437Y015592D03*
X017737Y016642D03*
X019237Y015242D03*
X019237Y014692D03*
X019937Y014942D03*
X020287Y014542D03*
X020637Y014992D03*
X021787Y014942D03*
X021887Y013942D03*
X021187Y013592D03*
X022587Y013442D03*
X023687Y013392D03*
X024587Y014692D03*
X025137Y014892D03*
X027187Y013942D03*
X027287Y014642D03*
X027537Y015692D03*
X028237Y017642D03*
X028087Y018292D03*
X025437Y019242D03*
X023887Y017992D03*
X023837Y016692D03*
X022537Y016592D03*
X020787Y018942D03*
X021087Y019692D03*
X020187Y020242D03*
X018487Y019792D03*
X018387Y018892D03*
X013187Y014392D03*
X012737Y014092D03*
X013187Y013642D03*
X011487Y012842D03*
X010537Y013792D03*
X014037Y012192D03*
X016287Y010092D03*
X015187Y008992D03*
X015337Y007442D03*
X016437Y006342D03*
X016887Y005592D03*
X015737Y005592D03*
X014137Y005442D03*
X012287Y004492D03*
X012037Y005692D03*
X010737Y003842D03*
X008987Y002842D03*
X008787Y005442D03*
X006837Y006142D03*
X009737Y008142D03*
X010287Y010092D03*
X003787Y010842D03*
X002687Y011642D03*
X001787Y011692D03*
X001437Y013192D03*
X002187Y016192D03*
X005337Y018542D03*
X004537Y018642D03*
X004037Y018642D03*
X003537Y018642D03*
X003037Y018642D03*
X002537Y018642D03*
X002037Y020092D03*
X007387Y020342D03*
X016987Y012242D03*
X019387Y012042D03*
X020087Y012542D03*
X020637Y012392D03*
X024487Y011642D03*
X026487Y010792D03*
X028237Y010392D03*
X026887Y008342D03*
X025487Y006992D03*
X024387Y005042D03*
X025537Y003692D03*
X024987Y003192D03*
X025037Y002592D03*
X023437Y002592D03*
X020637Y004442D03*
X018487Y003442D03*
X017287Y002342D03*
X016637Y002792D03*
X015137Y002092D03*
X018187Y006142D03*
X017037Y007442D03*
X018487Y009242D03*
X022837Y007292D03*
X023437Y009492D03*
X028787Y007392D03*
X028487Y005342D03*
X027987Y005242D03*
X027487Y005242D03*
X027537Y002592D03*
X028587Y002142D03*
X031337Y004442D03*
X029187Y012692D03*
X028387Y013742D03*
X031087Y013242D03*
D38*
X027654Y016218D02*
X027654Y016225D01*
X027637Y016242D01*
X027654Y016259D01*
X027654Y016966D01*
X029837Y017461D02*
X029868Y017511D01*
X029887Y017492D01*
X029912Y017317D01*
X019437Y004442D02*
X019087Y004442D01*
X012287Y004492D02*
X011287Y005492D01*
X010635Y005692D01*
D39*
X011135Y005494D01*
X011037Y005542D01*
X010637Y005542D01*
X010137Y006042D02*
X009861Y006092D01*
X009887Y006592D02*
X009861Y006592D01*
X009887Y006592D02*
X009887Y007092D01*
X009861Y007092D01*
X006587Y007542D02*
X006587Y007642D01*
X005687Y005542D02*
X005687Y004792D01*
X005637Y004742D01*
X005437Y004742D01*
X004987Y005192D01*
X005337Y005192D01*
X005337Y005342D01*
X005187Y005492D01*
X005187Y005518D01*
X005563Y005518D01*
X005663Y005518D01*
X005687Y005542D01*
X005687Y005518D02*
X005611Y005518D01*
X005587Y005542D01*
X005563Y005518D01*
X005187Y005518D02*
X004687Y005518D01*
X005689Y002294D02*
X005662Y002267D01*
X005587Y002192D01*
X018987Y008418D02*
X019037Y008418D01*
X019037Y008442D01*
X019037Y008592D01*
X019137Y008592D01*
D40*
X010637Y005542D02*
X010137Y006042D01*
X008087Y006742D02*
X008087Y007117D01*
X008087Y007617D01*
X008087Y008367D01*
X008087Y008742D01*
X008111Y008718D01*
X008187Y008718D01*
D41*
X008637Y006792D02*
X008637Y006292D01*
X007137Y004092D02*
X006737Y003692D01*
X005487Y008092D02*
X005387Y008092D01*
X005287Y008092D01*
D42*
X005387Y008092D02*
X005387Y008042D01*
X005487Y007942D01*
X005387Y008092D02*
X005387Y008642D01*
X005361Y008668D01*
X005187Y008668D01*
X004687Y008668D02*
X004687Y007565D01*
X004687Y007542D01*
X006287Y007542D01*
X006587Y007542D01*
X007813Y006592D02*
X007813Y006465D01*
X007837Y006442D01*
X008787Y005442D01*
X009737Y004492D01*
X009737Y004092D01*
X007737Y004092D02*
X007437Y004192D01*
X006937Y003692D01*
X006737Y003692D02*
X007237Y004192D01*
X009861Y006092D02*
X009861Y006115D01*
X009887Y006142D01*
X009887Y006592D01*
X012839Y005692D02*
X013587Y005492D01*
X014187Y005792D01*
X014187Y004192D01*
X014887Y003642D02*
X016239Y002289D01*
X016637Y002289D01*
X016737Y002392D01*
X016637Y002289D02*
X017385Y002289D01*
X017437Y002342D01*
X016937Y003842D02*
X016687Y003842D01*
X016687Y004192D01*
X016787Y004142D01*
X016862Y004317D02*
X016387Y003842D01*
X016187Y004042D01*
X016187Y004942D01*
X016137Y004992D01*
X016137Y005092D01*
X015737Y005492D01*
X016937Y005492D01*
X016937Y004942D01*
X016837Y004842D01*
X016937Y005142D02*
X016537Y005142D01*
X016287Y005392D01*
X016337Y005542D02*
X015937Y005542D01*
X015737Y005742D01*
X015737Y005592D01*
X015737Y005492D01*
X015737Y005592D02*
X015737Y005992D01*
X016937Y005992D01*
X016887Y005942D01*
X016887Y004342D01*
X016862Y004317D01*
X016937Y004317D01*
X016937Y003842D01*
X016887Y004342D02*
X016937Y004392D01*
X016937Y005142D01*
X016937Y005442D02*
X016937Y005492D01*
X016937Y005992D01*
X016937Y007042D01*
X017037Y007142D01*
X017037Y007442D01*
X017037Y008992D01*
X017062Y009017D01*
X018487Y010442D01*
X018487Y010465D01*
X018987Y010465D02*
X018987Y010192D01*
X018837Y010042D01*
X020037Y010042D01*
X020387Y010042D01*
X020687Y010342D01*
X020563Y010465D01*
X019987Y010465D01*
X019487Y010465D01*
X020687Y010342D02*
X020837Y010492D01*
X023837Y010492D01*
X024412Y010492D01*
X024837Y010492D01*
X024912Y010492D01*
X025187Y010492D01*
X025437Y010242D01*
X025411Y010215D01*
X025337Y010215D01*
X025037Y008192D02*
X024587Y008192D01*
X024537Y008142D01*
X024537Y007092D01*
X024387Y006942D01*
X024413Y006942D01*
X024413Y006668D01*
X024337Y006592D01*
X024413Y006515D01*
X024413Y006442D01*
X024412Y005942D02*
X024413Y005942D01*
X026137Y005442D02*
X026137Y004444D01*
X026187Y004444D01*
X026137Y005442D02*
X026461Y005442D01*
X026487Y005442D01*
X026487Y005942D01*
X026461Y005942D01*
X026487Y005942D02*
X026487Y005992D01*
X026487Y006092D01*
X024537Y004442D02*
X024512Y004417D01*
X024249Y004154D01*
X024237Y004142D01*
X024537Y004442D02*
X024537Y008142D01*
X024837Y008168D02*
X025013Y008168D01*
X025037Y008192D01*
X020837Y007292D02*
X018587Y007292D01*
X018537Y007292D01*
X018537Y008418D01*
X018487Y008418D01*
X018937Y008418D01*
X018937Y008442D01*
X018937Y008418D02*
X018987Y008418D01*
X018987Y008442D02*
X019037Y008442D01*
X019037Y007165D01*
X019037Y007142D01*
X018587Y007165D02*
X018587Y007292D01*
X018587Y007165D02*
X018537Y007165D01*
X018537Y008418D02*
X018537Y008442D01*
X015737Y006892D02*
X015737Y006692D01*
X015737Y005992D01*
X015737Y005742D01*
X016387Y005092D01*
X016137Y005092D01*
X016087Y005142D01*
X016637Y005142D01*
X016937Y005442D01*
X016337Y005242D02*
X016337Y004842D01*
X016187Y004692D01*
X016187Y004042D01*
X016387Y005092D02*
X016387Y006042D01*
X015737Y006692D01*
X015737Y006892D02*
X014737Y007892D01*
X014687Y007892D01*
X014237Y008342D01*
X014237Y009042D01*
X013237Y010092D01*
X013237Y010592D01*
X013137Y010692D01*
X013187Y010742D01*
X012437Y011492D01*
X009987Y011492D01*
X009887Y011492D01*
X009187Y010792D01*
X009187Y010765D01*
X008687Y010765D02*
X008287Y010765D01*
X008187Y010765D01*
X007787Y010765D01*
X007687Y010765D01*
X006287Y010765D01*
X005787Y010765D01*
X005211Y010765D01*
X005187Y010742D01*
X005187Y010715D01*
X018537Y005118D02*
X019037Y005118D01*
X019061Y005118D01*
X019187Y004992D01*
X019087Y004892D01*
X019087Y004442D01*
X019061Y005118D02*
X019163Y005118D01*
X019187Y005142D01*
D43*
X021087Y003342D02*
X021337Y003342D01*
X021987Y003992D01*
X021987Y004142D01*
X023912Y004117D02*
X023912Y004017D01*
X024087Y003842D01*
X024487Y003842D01*
X024587Y003992D01*
X024587Y004292D01*
X024512Y004417D01*
X023987Y004142D02*
X023987Y005142D01*
X024287Y005442D01*
X024413Y005442D01*
X026187Y002292D02*
X026187Y002239D01*
X026187Y002292D02*
X017437Y002342D01*
D44*
X026461Y005942D02*
X026461Y005965D01*
X026487Y005992D01*
X026461Y006018D01*
X026461Y006442D01*
X006937Y003692D02*
X006737Y003692D01*
D45*
X024387Y005042D02*
X024387Y005592D01*
X024337Y005642D01*
D46*
X022437Y005692D03*
X021837Y005692D03*
X018237Y012592D03*
X017587Y012592D03*
X019037Y013842D03*
X019587Y014192D03*
X011087Y006692D03*
X011737Y006442D03*
M02*
