%
M48
M72
T01C0.0200
T02C0.0320
T03C0.0360
T04C0.0500
T05C0.1299
%
T01
X9102Y4408
X10552Y5408
X11752Y5458
X12302Y4758
X10902Y3908
X11552Y3458
X11052Y2908
X11002Y2408
X13452Y3258
X14052Y3258
X15202Y2758
X15552Y2358
X17952Y4758
X18352Y5108
X19202Y5408
X19852Y5858
X19902Y6358
X19952Y6858
X21052Y6058
X21402Y5708
X22002Y5708
X22302Y6408
X23852Y6458
X22902Y8108
X21752Y8708
X21652Y8158
X21102Y8158
X20702Y8558
X20352Y8158
X20002Y8558
X19602Y8908
X18902Y9508
X18352Y10408
X17952Y10758
X17402Y10208
X16902Y10008
X16802Y8908
X16802Y8408
X17602Y8058
X18502Y8058
X19302Y8108
X21802Y9358
X21802Y9908
X21602Y10658
X21102Y10658
X20702Y10308
X19652Y10408
X18902Y10758
X19652Y11658
X20702Y12008
X21102Y12408
X21452Y12008
X19902Y12658
X18302Y12658
X17902Y12308
X18302Y11958
X16802Y12108
X16802Y11608
X14602Y11058
X14602Y10558
X14102Y10558
X12902Y10208
X11102Y8808
X10752Y8408
X10402Y8808
X10552Y7708
X10902Y6758
X11502Y6558
X15402Y6158
X15802Y5808
X15352Y5458
X15852Y6508
X16202Y6858
X17952Y5808
X17552Y5458
X22802Y4408
X23252Y2358
X24002Y1758
X27702Y1808
X29052Y5058
X30202Y5258
X29052Y8308
X30452Y9358
X33052Y9208
X30052Y11808
X25202Y10008
X23202Y9258
X22902Y8808
X23202Y11308
X22352Y13958
X24802Y16508
X27302Y16358
X26402Y19308
X19152Y19308
X12702Y15708
X12352Y16058
X12002Y15708
X11652Y16058
X16152Y14008
X17902Y13008
X12052Y13108
X10552Y10908
X6752Y11758
X6752Y13158
X7552Y19308
X11902Y19308
T02
X11802Y18308
X12802Y18308
X13802Y18308
X14802Y18308
X14302Y17308
X13302Y17308
X12302Y17308
X11302Y17308
X10302Y17308
X10802Y18308
X17552Y17308
X18552Y17308
X19552Y17308
X20552Y17308
X21552Y17308
X22052Y18308
X21052Y18308
X20052Y18308
X19052Y18308
X18052Y18308
X24802Y17308
X25802Y17308
X26802Y17308
X27802Y17308
X28802Y17308
X29302Y18308
X28302Y18308
X27302Y18308
X26302Y18308
X25302Y18308
X31052Y10808
X32052Y10308
X31052Y9808
X32052Y9308
X31052Y8808
X32052Y8308
X31052Y7808
X32052Y7308
X31052Y6808
X32052Y6308
X29302Y3808
X28302Y3808
X27302Y3808
X26302Y3808
X25302Y3808
X25802Y2808
X24802Y2808
X26802Y2808
X27802Y2808
X28802Y2808
X8552Y2558
X7552Y2558
X8052Y1558
X7052Y1558
T03
X6052Y7308
X5052Y7308
X5052Y8308
X6052Y8308
X6052Y9308
X5052Y9308
X5052Y10308
X6052Y10308
X6052Y11308
X5052Y11308
X5552Y14308
X4552Y14308
X3552Y14308
T04
X4802Y16058
X4802Y17558
X4802Y19058
T05
X4552Y2808
X32052Y2808
X32052Y14308
X32052Y18308
M30
