G75*
G70*
%OFA0B0*%
%FSLAX24Y24*%
%IPPOS*%
%LPD*%
%AMOC8*
5,1,8,0,0,1.08239X$1,22.5*
%
%ADD10C,0.0000*%
%ADD11C,0.0110*%
%ADD12R,0.0551X0.1024*%
%ADD13R,0.0394X0.0433*%
%ADD14R,0.0710X0.0630*%
%ADD15R,0.0433X0.0394*%
%ADD16R,0.1000X0.0700*%
%ADD17OC8,0.0600*%
%ADD18C,0.0560*%
%ADD19R,0.0470X0.0220*%
%ADD20R,0.0220X0.0470*%
%ADD21R,0.0866X0.0197*%
%ADD22R,0.0390X0.0272*%
%ADD23C,0.0600*%
%ADD24C,0.0750*%
%ADD25R,0.0400X0.0400*%
%ADD26R,0.0138X0.0551*%
%ADD27R,0.0709X0.0748*%
%ADD28R,0.0827X0.0630*%
%ADD29C,0.0400*%
%ADD30C,0.0200*%
%ADD31C,0.0100*%
D10*
X002802Y001058D02*
X002802Y020058D01*
X033802Y020058D01*
X033802Y001058D01*
X002802Y001058D01*
X003902Y002808D02*
X003904Y002858D01*
X003910Y002908D01*
X003920Y002958D01*
X003933Y003006D01*
X003950Y003054D01*
X003971Y003100D01*
X003995Y003144D01*
X004023Y003186D01*
X004054Y003226D01*
X004088Y003263D01*
X004125Y003298D01*
X004164Y003329D01*
X004205Y003358D01*
X004249Y003383D01*
X004295Y003405D01*
X004342Y003423D01*
X004390Y003437D01*
X004439Y003448D01*
X004489Y003455D01*
X004539Y003458D01*
X004590Y003457D01*
X004640Y003452D01*
X004690Y003443D01*
X004738Y003431D01*
X004786Y003414D01*
X004832Y003394D01*
X004877Y003371D01*
X004920Y003344D01*
X004960Y003314D01*
X004998Y003281D01*
X005033Y003245D01*
X005066Y003206D01*
X005095Y003165D01*
X005121Y003122D01*
X005144Y003077D01*
X005163Y003030D01*
X005178Y002982D01*
X005190Y002933D01*
X005198Y002883D01*
X005202Y002833D01*
X005202Y002783D01*
X005198Y002733D01*
X005190Y002683D01*
X005178Y002634D01*
X005163Y002586D01*
X005144Y002539D01*
X005121Y002494D01*
X005095Y002451D01*
X005066Y002410D01*
X005033Y002371D01*
X004998Y002335D01*
X004960Y002302D01*
X004920Y002272D01*
X004877Y002245D01*
X004832Y002222D01*
X004786Y002202D01*
X004738Y002185D01*
X004690Y002173D01*
X004640Y002164D01*
X004590Y002159D01*
X004539Y002158D01*
X004489Y002161D01*
X004439Y002168D01*
X004390Y002179D01*
X004342Y002193D01*
X004295Y002211D01*
X004249Y002233D01*
X004205Y002258D01*
X004164Y002287D01*
X004125Y002318D01*
X004088Y002353D01*
X004054Y002390D01*
X004023Y002430D01*
X003995Y002472D01*
X003971Y002516D01*
X003950Y002562D01*
X003933Y002610D01*
X003920Y002658D01*
X003910Y002708D01*
X003904Y002758D01*
X003902Y002808D01*
X031402Y002808D02*
X031404Y002858D01*
X031410Y002908D01*
X031420Y002958D01*
X031433Y003006D01*
X031450Y003054D01*
X031471Y003100D01*
X031495Y003144D01*
X031523Y003186D01*
X031554Y003226D01*
X031588Y003263D01*
X031625Y003298D01*
X031664Y003329D01*
X031705Y003358D01*
X031749Y003383D01*
X031795Y003405D01*
X031842Y003423D01*
X031890Y003437D01*
X031939Y003448D01*
X031989Y003455D01*
X032039Y003458D01*
X032090Y003457D01*
X032140Y003452D01*
X032190Y003443D01*
X032238Y003431D01*
X032286Y003414D01*
X032332Y003394D01*
X032377Y003371D01*
X032420Y003344D01*
X032460Y003314D01*
X032498Y003281D01*
X032533Y003245D01*
X032566Y003206D01*
X032595Y003165D01*
X032621Y003122D01*
X032644Y003077D01*
X032663Y003030D01*
X032678Y002982D01*
X032690Y002933D01*
X032698Y002883D01*
X032702Y002833D01*
X032702Y002783D01*
X032698Y002733D01*
X032690Y002683D01*
X032678Y002634D01*
X032663Y002586D01*
X032644Y002539D01*
X032621Y002494D01*
X032595Y002451D01*
X032566Y002410D01*
X032533Y002371D01*
X032498Y002335D01*
X032460Y002302D01*
X032420Y002272D01*
X032377Y002245D01*
X032332Y002222D01*
X032286Y002202D01*
X032238Y002185D01*
X032190Y002173D01*
X032140Y002164D01*
X032090Y002159D01*
X032039Y002158D01*
X031989Y002161D01*
X031939Y002168D01*
X031890Y002179D01*
X031842Y002193D01*
X031795Y002211D01*
X031749Y002233D01*
X031705Y002258D01*
X031664Y002287D01*
X031625Y002318D01*
X031588Y002353D01*
X031554Y002390D01*
X031523Y002430D01*
X031495Y002472D01*
X031471Y002516D01*
X031450Y002562D01*
X031433Y002610D01*
X031420Y002658D01*
X031410Y002708D01*
X031404Y002758D01*
X031402Y002808D01*
X031402Y014308D02*
X031404Y014358D01*
X031410Y014408D01*
X031420Y014458D01*
X031433Y014506D01*
X031450Y014554D01*
X031471Y014600D01*
X031495Y014644D01*
X031523Y014686D01*
X031554Y014726D01*
X031588Y014763D01*
X031625Y014798D01*
X031664Y014829D01*
X031705Y014858D01*
X031749Y014883D01*
X031795Y014905D01*
X031842Y014923D01*
X031890Y014937D01*
X031939Y014948D01*
X031989Y014955D01*
X032039Y014958D01*
X032090Y014957D01*
X032140Y014952D01*
X032190Y014943D01*
X032238Y014931D01*
X032286Y014914D01*
X032332Y014894D01*
X032377Y014871D01*
X032420Y014844D01*
X032460Y014814D01*
X032498Y014781D01*
X032533Y014745D01*
X032566Y014706D01*
X032595Y014665D01*
X032621Y014622D01*
X032644Y014577D01*
X032663Y014530D01*
X032678Y014482D01*
X032690Y014433D01*
X032698Y014383D01*
X032702Y014333D01*
X032702Y014283D01*
X032698Y014233D01*
X032690Y014183D01*
X032678Y014134D01*
X032663Y014086D01*
X032644Y014039D01*
X032621Y013994D01*
X032595Y013951D01*
X032566Y013910D01*
X032533Y013871D01*
X032498Y013835D01*
X032460Y013802D01*
X032420Y013772D01*
X032377Y013745D01*
X032332Y013722D01*
X032286Y013702D01*
X032238Y013685D01*
X032190Y013673D01*
X032140Y013664D01*
X032090Y013659D01*
X032039Y013658D01*
X031989Y013661D01*
X031939Y013668D01*
X031890Y013679D01*
X031842Y013693D01*
X031795Y013711D01*
X031749Y013733D01*
X031705Y013758D01*
X031664Y013787D01*
X031625Y013818D01*
X031588Y013853D01*
X031554Y013890D01*
X031523Y013930D01*
X031495Y013972D01*
X031471Y014016D01*
X031450Y014062D01*
X031433Y014110D01*
X031420Y014158D01*
X031410Y014208D01*
X031404Y014258D01*
X031402Y014308D01*
X031402Y018308D02*
X031404Y018358D01*
X031410Y018408D01*
X031420Y018458D01*
X031433Y018506D01*
X031450Y018554D01*
X031471Y018600D01*
X031495Y018644D01*
X031523Y018686D01*
X031554Y018726D01*
X031588Y018763D01*
X031625Y018798D01*
X031664Y018829D01*
X031705Y018858D01*
X031749Y018883D01*
X031795Y018905D01*
X031842Y018923D01*
X031890Y018937D01*
X031939Y018948D01*
X031989Y018955D01*
X032039Y018958D01*
X032090Y018957D01*
X032140Y018952D01*
X032190Y018943D01*
X032238Y018931D01*
X032286Y018914D01*
X032332Y018894D01*
X032377Y018871D01*
X032420Y018844D01*
X032460Y018814D01*
X032498Y018781D01*
X032533Y018745D01*
X032566Y018706D01*
X032595Y018665D01*
X032621Y018622D01*
X032644Y018577D01*
X032663Y018530D01*
X032678Y018482D01*
X032690Y018433D01*
X032698Y018383D01*
X032702Y018333D01*
X032702Y018283D01*
X032698Y018233D01*
X032690Y018183D01*
X032678Y018134D01*
X032663Y018086D01*
X032644Y018039D01*
X032621Y017994D01*
X032595Y017951D01*
X032566Y017910D01*
X032533Y017871D01*
X032498Y017835D01*
X032460Y017802D01*
X032420Y017772D01*
X032377Y017745D01*
X032332Y017722D01*
X032286Y017702D01*
X032238Y017685D01*
X032190Y017673D01*
X032140Y017664D01*
X032090Y017659D01*
X032039Y017658D01*
X031989Y017661D01*
X031939Y017668D01*
X031890Y017679D01*
X031842Y017693D01*
X031795Y017711D01*
X031749Y017733D01*
X031705Y017758D01*
X031664Y017787D01*
X031625Y017818D01*
X031588Y017853D01*
X031554Y017890D01*
X031523Y017930D01*
X031495Y017972D01*
X031471Y018016D01*
X031450Y018062D01*
X031433Y018110D01*
X031420Y018158D01*
X031410Y018208D01*
X031404Y018258D01*
X031402Y018308D01*
D11*
X027324Y010383D02*
X027603Y010104D01*
X027742Y009965D02*
X027811Y009896D01*
X027647Y009731D02*
X027508Y009592D01*
X027577Y009661D02*
X027299Y009940D01*
X027229Y009870D01*
X027160Y010079D02*
X027090Y010148D01*
X026913Y009832D02*
X027330Y009414D01*
X026634Y009554D01*
X027052Y009136D01*
X020226Y002204D02*
X020226Y001613D01*
X020030Y001613D02*
X020423Y001613D01*
X020030Y002007D02*
X020226Y002204D01*
X019582Y002204D02*
X019385Y002007D01*
X019582Y002204D02*
X019582Y001613D01*
X019385Y001613D02*
X019779Y001613D01*
X018490Y001712D02*
X018391Y001613D01*
X018096Y001613D01*
X018096Y002204D01*
X018391Y002204D01*
X018490Y002105D01*
X018490Y002007D01*
X018391Y001909D01*
X018096Y001909D01*
X017845Y001909D02*
X017747Y001810D01*
X017451Y001810D01*
X017451Y001613D02*
X017451Y002204D01*
X017747Y002204D01*
X017845Y002105D01*
X017845Y001909D01*
X018391Y001909D02*
X018490Y001810D01*
X018490Y001712D01*
X017201Y001613D02*
X017201Y002007D01*
X017004Y002204D01*
X016807Y002007D01*
X016807Y001613D01*
X016807Y001909D02*
X017201Y001909D01*
D12*
X006802Y017751D03*
X006802Y019365D03*
D13*
X008302Y019643D03*
X008302Y018974D03*
X014052Y008893D03*
X014052Y008224D03*
X014717Y007558D03*
X015387Y007558D03*
X015052Y008224D03*
X015052Y008893D03*
X014387Y004558D03*
X013717Y004558D03*
X013717Y003808D03*
X014387Y003808D03*
X012052Y003474D03*
X012052Y004143D03*
X008552Y004393D03*
X008552Y003724D03*
X007052Y003724D03*
X007052Y004393D03*
X008052Y007474D03*
X008052Y008143D03*
X026217Y004808D03*
X026887Y004808D03*
X026887Y001808D03*
X026217Y001808D03*
D14*
X007802Y015498D03*
X007802Y016618D03*
D15*
X006802Y016393D03*
X006802Y015724D03*
X012052Y010893D03*
X012052Y010224D03*
X011637Y009308D03*
X010967Y009308D03*
X010137Y009308D03*
X009467Y009308D03*
X018467Y006558D03*
X019137Y006558D03*
X023717Y008308D03*
X024387Y008308D03*
X024387Y011808D03*
X023717Y011808D03*
D16*
X024052Y010858D03*
X024052Y009258D03*
D17*
X006052Y009308D03*
X005052Y009308D03*
X005052Y008308D03*
X006052Y008308D03*
X006052Y007308D03*
X005052Y007308D03*
X005052Y010308D03*
X006052Y010308D03*
X006052Y011308D03*
X005052Y011308D03*
D18*
X010302Y017308D03*
X011302Y017308D03*
X012302Y017308D03*
X013302Y017308D03*
X014302Y017308D03*
X014802Y018308D03*
X013802Y018308D03*
X012802Y018308D03*
X011802Y018308D03*
X010802Y018308D03*
X017552Y017308D03*
X018552Y017308D03*
X019552Y017308D03*
X020552Y017308D03*
X021552Y017308D03*
X022052Y018308D03*
X021052Y018308D03*
X020052Y018308D03*
X019052Y018308D03*
X018052Y018308D03*
X024802Y017308D03*
X025802Y017308D03*
X026802Y017308D03*
X027802Y017308D03*
X028802Y017308D03*
X029302Y018308D03*
X028302Y018308D03*
X027302Y018308D03*
X026302Y018308D03*
X025302Y018308D03*
X031052Y010808D03*
X032052Y010308D03*
X031052Y009808D03*
X032052Y009308D03*
X031052Y008808D03*
X032052Y008308D03*
X031052Y007808D03*
X032052Y007308D03*
X031052Y006808D03*
X032052Y006308D03*
X029302Y003808D03*
X028302Y003808D03*
X027302Y003808D03*
X026302Y003808D03*
X025302Y003808D03*
X025802Y002808D03*
X024802Y002808D03*
X026802Y002808D03*
X027802Y002808D03*
X028802Y002808D03*
X008552Y002558D03*
X007552Y002558D03*
X008052Y001558D03*
X007052Y001558D03*
D19*
X016231Y008196D03*
X016231Y008511D03*
X016231Y008826D03*
X016231Y009141D03*
X016231Y009456D03*
X016231Y009771D03*
X016231Y010086D03*
X016231Y010401D03*
X016231Y010716D03*
X016231Y011031D03*
X016231Y011346D03*
X016231Y011661D03*
X016231Y011976D03*
X016231Y012291D03*
X016231Y012606D03*
X016231Y012920D03*
X022373Y012920D03*
X022373Y012606D03*
X022373Y012291D03*
X022373Y011976D03*
X022373Y011661D03*
X022373Y011346D03*
X022373Y011031D03*
X022373Y010716D03*
X022373Y010401D03*
X022373Y010086D03*
X022373Y009771D03*
X022373Y009456D03*
X022373Y009141D03*
X022373Y008826D03*
X022373Y008511D03*
X022373Y008196D03*
D20*
X021664Y007487D03*
X021349Y007487D03*
X021034Y007487D03*
X020719Y007487D03*
X020404Y007487D03*
X020089Y007487D03*
X019774Y007487D03*
X019459Y007487D03*
X019144Y007487D03*
X018829Y007487D03*
X018514Y007487D03*
X018200Y007487D03*
X017885Y007487D03*
X017570Y007487D03*
X017255Y007487D03*
X016940Y007487D03*
X016940Y013629D03*
X017255Y013629D03*
X017570Y013629D03*
X017885Y013629D03*
X018200Y013629D03*
X018514Y013629D03*
X018829Y013629D03*
X019144Y013629D03*
X019459Y013629D03*
X019774Y013629D03*
X020089Y013629D03*
X020404Y013629D03*
X020719Y013629D03*
X021034Y013629D03*
X021349Y013629D03*
X021664Y013629D03*
D21*
X011794Y008554D03*
X011794Y008054D03*
X011794Y007554D03*
X011794Y007058D03*
X009310Y007058D03*
X009310Y007558D03*
X009310Y008058D03*
X009310Y008558D03*
D22*
X010040Y010184D03*
X011060Y010184D03*
X011060Y010558D03*
X011060Y010932D03*
X010040Y010932D03*
X010044Y006182D03*
X010044Y005808D03*
X010044Y005434D03*
X011064Y005434D03*
X011064Y006182D03*
D23*
X005552Y014008D02*
X005552Y014608D01*
X004552Y014608D02*
X004552Y014008D01*
X003552Y014008D02*
X003552Y014608D01*
D24*
X004427Y016058D02*
X005177Y016058D01*
X005177Y017558D02*
X004427Y017558D01*
X004427Y019058D02*
X005177Y019058D01*
D25*
X010202Y019308D03*
X010802Y019308D03*
X011402Y019308D03*
X017452Y019308D03*
X018052Y019308D03*
X018652Y019308D03*
X024702Y019308D03*
X025302Y019308D03*
X025902Y019308D03*
X033052Y010908D03*
X033052Y010308D03*
X033052Y009708D03*
X029402Y001808D03*
X028802Y001808D03*
X028202Y001808D03*
D26*
X013564Y002602D03*
X013308Y002602D03*
X013052Y002602D03*
X012796Y002602D03*
X012540Y002602D03*
D27*
X011477Y001558D03*
X014627Y001558D03*
D28*
X014272Y002562D03*
X011831Y002562D03*
D29*
X011002Y002408D03*
X011052Y002908D03*
X011552Y003458D03*
X010902Y003908D03*
X012302Y004758D03*
X011752Y005458D03*
X010552Y005408D03*
X009102Y004408D03*
X011502Y006558D03*
X010902Y006758D03*
X010552Y007708D03*
X010752Y008408D03*
X011102Y008808D03*
X010402Y008808D03*
X012902Y010208D03*
X014102Y010558D03*
X014602Y010558D03*
X014602Y011058D03*
X016802Y011608D03*
X016802Y012108D03*
X017902Y012308D03*
X018302Y011958D03*
X018302Y012658D03*
X017902Y013008D03*
X016152Y014008D03*
X012702Y015708D03*
X012352Y016058D03*
X012002Y015708D03*
X011652Y016058D03*
X012052Y013108D03*
X010552Y010908D03*
X006752Y011758D03*
X006752Y013158D03*
X007552Y019308D03*
X011902Y019308D03*
X019152Y019308D03*
X024802Y016508D03*
X027302Y016358D03*
X026402Y019308D03*
X022352Y013958D03*
X021102Y012408D03*
X021452Y012008D03*
X020702Y012008D03*
X019902Y012658D03*
X019652Y011658D03*
X018902Y010758D03*
X018352Y010408D03*
X017952Y010758D03*
X017402Y010208D03*
X016902Y010008D03*
X016802Y008908D03*
X016802Y008408D03*
X017602Y008058D03*
X018502Y008058D03*
X019302Y008108D03*
X020002Y008558D03*
X020352Y008158D03*
X020702Y008558D03*
X021102Y008158D03*
X021652Y008158D03*
X021752Y008708D03*
X021802Y009358D03*
X021802Y009908D03*
X021602Y010658D03*
X021102Y010658D03*
X020702Y010308D03*
X019652Y010408D03*
X018902Y009508D03*
X019602Y008908D03*
X019952Y006858D03*
X019902Y006358D03*
X019852Y005858D03*
X019202Y005408D03*
X018352Y005108D03*
X017952Y004758D03*
X017552Y005458D03*
X017952Y005808D03*
X016202Y006858D03*
X015852Y006508D03*
X015402Y006158D03*
X015802Y005808D03*
X015352Y005458D03*
X014052Y003258D03*
X013452Y003258D03*
X015202Y002758D03*
X015552Y002358D03*
X021052Y006058D03*
X021402Y005708D03*
X022002Y005708D03*
X022302Y006408D03*
X023852Y006458D03*
X022902Y008108D03*
X022902Y008808D03*
X023202Y009258D03*
X025202Y010008D03*
X023202Y011308D03*
X029052Y008308D03*
X030452Y009358D03*
X033052Y009208D03*
X030052Y011808D03*
X030202Y005258D03*
X029052Y005058D03*
X027702Y001808D03*
X024002Y001758D03*
X023252Y002358D03*
X022802Y004408D03*
D30*
X019137Y006558D02*
X018829Y006865D01*
X018829Y007487D01*
X018514Y007487D02*
X018514Y006606D01*
X018467Y006558D01*
X018514Y007487D02*
X018514Y007496D01*
X018502Y007508D01*
X018502Y008058D01*
X017602Y008058D02*
X018702Y009158D01*
X018702Y009308D01*
X018902Y009508D01*
X019652Y010408D02*
X019652Y011658D01*
X021802Y009908D02*
X021939Y009771D01*
X022373Y009771D01*
X022373Y009456D02*
X021900Y009456D01*
X021802Y009358D01*
X017602Y008058D02*
X017502Y007958D01*
X016702Y007958D01*
X016302Y007558D01*
X015387Y007558D01*
X014952Y008008D02*
X014952Y008124D01*
X015052Y008224D01*
X014052Y008224D01*
X014717Y007774D02*
X014952Y008008D01*
X015079Y008196D02*
X015052Y008224D01*
X015079Y008196D02*
X016231Y008196D01*
X016231Y008511D02*
X015799Y008511D01*
X015452Y008858D01*
X015087Y008858D01*
X015052Y008893D01*
X014052Y008893D01*
X014717Y007774D02*
X014717Y007558D01*
X016231Y008511D02*
X016699Y008511D01*
X016802Y008408D01*
X016720Y008826D02*
X016231Y008826D01*
X016720Y008826D02*
X016802Y008908D01*
X017602Y008058D02*
X017570Y008026D01*
X017570Y007487D01*
X012302Y004758D02*
X012052Y004508D01*
X012052Y004143D01*
X012052Y003474D02*
X012037Y003458D01*
X011552Y003458D01*
X010702Y003458D01*
X009202Y004958D01*
X004252Y004958D01*
X003502Y005708D01*
X003502Y012658D01*
X004152Y013308D01*
X005102Y013308D01*
X005552Y013758D01*
X005552Y014308D01*
X004552Y014308D02*
X004552Y014808D01*
X005052Y015308D01*
X005752Y015308D01*
X005902Y015458D01*
X006452Y014908D01*
X006452Y013858D01*
X005402Y012808D01*
X004602Y012808D01*
X004102Y012308D01*
X004102Y008058D01*
X004852Y007308D01*
X005052Y007308D01*
X005552Y007808D01*
X006552Y007808D01*
X006752Y008008D01*
X006752Y010358D01*
X007752Y011358D01*
X010902Y011358D01*
X011052Y011208D01*
X011052Y010940D01*
X011060Y010932D01*
X016231Y011661D02*
X016295Y011661D01*
X016750Y011661D01*
X016802Y011608D01*
X016619Y011976D02*
X016231Y011976D01*
X016619Y011976D02*
X016752Y012108D01*
X016802Y012108D01*
X016152Y014008D02*
X016152Y019808D01*
X017402Y019808D01*
X017452Y019758D01*
X017452Y019308D01*
X017402Y019808D02*
X024702Y019808D01*
X024702Y019308D01*
X024702Y019808D02*
X029552Y019808D01*
X030302Y019058D01*
X030302Y013558D01*
X031302Y012558D01*
X033202Y012558D01*
X033552Y012208D01*
X033552Y010908D01*
X033052Y010908D01*
X033552Y010908D02*
X033552Y004958D01*
X033152Y004558D01*
X031302Y004558D01*
X030302Y003558D01*
X030302Y002708D01*
X029402Y001808D01*
X028802Y001808D02*
X028802Y002808D01*
X028202Y001808D02*
X027702Y001808D01*
X033052Y009208D02*
X033052Y009708D01*
X033052Y010308D02*
X032052Y010308D01*
X025302Y018308D02*
X025302Y019308D01*
X025902Y019308D02*
X026402Y019308D01*
X019152Y019308D02*
X018652Y019308D01*
X018052Y019308D02*
X018052Y018308D01*
X016152Y019808D02*
X010202Y019808D01*
X009252Y019808D01*
X008417Y018974D01*
X008302Y018974D01*
X008217Y018974D01*
X007052Y017808D01*
X006859Y017808D01*
X006802Y017751D01*
X006752Y017701D01*
X006752Y017508D01*
X006052Y016808D01*
X006052Y015608D01*
X005902Y015458D01*
X004452Y017558D02*
X003552Y016658D01*
X003552Y014308D01*
X004452Y017558D02*
X004802Y017558D01*
X004802Y019058D02*
X005109Y019365D01*
X006802Y019365D01*
X006859Y019308D01*
X007552Y019308D01*
X007902Y019658D01*
X008287Y019658D01*
X008302Y019643D01*
X010202Y019808D02*
X010202Y019308D01*
X010802Y019308D02*
X010802Y018308D01*
X011402Y019308D02*
X011902Y019308D01*
D31*
X012147Y019558D02*
X015902Y019558D01*
X015902Y014253D01*
X015855Y014206D01*
X015802Y014078D01*
X015802Y013991D01*
X014652Y015141D01*
X014652Y016625D01*
X014652Y016791D01*
X014513Y016930D01*
X014545Y016944D01*
X014666Y017065D01*
X014732Y017223D01*
X014732Y017394D01*
X014666Y017552D01*
X014545Y017673D01*
X014387Y017738D01*
X014216Y017738D01*
X014058Y017673D01*
X013937Y017552D01*
X013872Y017394D01*
X013872Y017223D01*
X013937Y017065D01*
X014058Y016944D01*
X014102Y016926D01*
X014102Y016775D01*
X014219Y016658D01*
X014252Y016625D01*
X014252Y014975D01*
X014369Y014858D01*
X015798Y013429D01*
X015964Y013429D01*
X016680Y013429D01*
X016680Y013332D01*
X016768Y013244D01*
X017112Y013244D01*
X017397Y013244D01*
X017643Y013244D01*
X017607Y013208D01*
X017319Y013208D01*
X017202Y013091D01*
X017069Y012958D01*
X016952Y012841D01*
X016952Y012425D01*
X016871Y012458D01*
X016732Y012458D01*
X016616Y012410D01*
X016616Y012433D01*
X016616Y012748D01*
X016616Y013093D01*
X016528Y013180D01*
X016012Y013180D01*
X014252Y014941D01*
X014252Y016275D01*
X014252Y016441D01*
X013647Y017046D01*
X013666Y017065D01*
X013732Y017223D01*
X013732Y017394D01*
X013666Y017552D01*
X013545Y017673D01*
X013387Y017738D01*
X013216Y017738D01*
X013058Y017673D01*
X012937Y017552D01*
X012872Y017394D01*
X012872Y017223D01*
X012873Y017220D01*
X012732Y017361D01*
X012732Y017394D01*
X012666Y017552D01*
X012545Y017673D01*
X012387Y017738D01*
X012216Y017738D01*
X012058Y017673D01*
X011937Y017552D01*
X011872Y017394D01*
X011872Y017223D01*
X011937Y017065D01*
X012044Y016958D01*
X011935Y016958D01*
X011714Y017179D01*
X011732Y017223D01*
X011732Y017394D01*
X011666Y017552D01*
X011545Y017673D01*
X011387Y017738D01*
X011216Y017738D01*
X011058Y017673D01*
X010937Y017552D01*
X010872Y017394D01*
X010872Y017223D01*
X010937Y017065D01*
X011058Y016944D01*
X011216Y016878D01*
X011387Y016878D01*
X011431Y016896D01*
X011769Y016558D01*
X011935Y016558D01*
X012369Y016558D01*
X013052Y015875D01*
X013052Y014375D01*
X013169Y014258D01*
X015337Y012091D01*
X015502Y012091D01*
X015846Y012091D01*
X015846Y011803D01*
X015849Y011801D01*
X015846Y011790D01*
X015846Y011666D01*
X016226Y011666D01*
X016226Y011656D01*
X015846Y011656D01*
X015846Y011547D01*
X015735Y011658D01*
X013052Y014341D01*
X013052Y015641D01*
X013052Y015778D01*
X012999Y015906D01*
X012900Y016005D01*
X012771Y016058D01*
X012702Y016058D01*
X012702Y016128D01*
X012649Y016256D01*
X012550Y016355D01*
X012421Y016408D01*
X012282Y016408D01*
X012154Y016355D01*
X012055Y016256D01*
X012002Y016128D01*
X012002Y016058D01*
X012002Y016058D01*
X012002Y016128D01*
X011949Y016256D01*
X011850Y016355D01*
X011721Y016408D01*
X011582Y016408D01*
X011454Y016355D01*
X011355Y016256D01*
X011302Y016128D01*
X011302Y015989D01*
X011355Y015860D01*
X011452Y015763D01*
X011452Y015591D01*
X011452Y015425D01*
X012052Y014825D01*
X012052Y014041D01*
X012052Y013875D01*
X013269Y012658D01*
X013119Y012658D01*
X005605Y012658D01*
X006593Y013646D01*
X006664Y013717D01*
X006702Y013809D01*
X006702Y014859D01*
X006702Y014958D01*
X006664Y015050D01*
X006255Y015458D01*
X006264Y015467D01*
X006302Y015559D01*
X006302Y015658D01*
X006302Y016705D01*
X006602Y017005D01*
X006602Y016740D01*
X006523Y016740D01*
X006435Y016652D01*
X006435Y016134D01*
X006511Y016058D01*
X006435Y015983D01*
X006435Y015465D01*
X006523Y015377D01*
X006866Y015377D01*
X006944Y015298D01*
X007110Y015298D01*
X007297Y015298D01*
X007297Y015121D01*
X007385Y015033D01*
X008219Y015033D01*
X008307Y015121D01*
X008307Y015876D01*
X008219Y015963D01*
X007385Y015963D01*
X007297Y015876D01*
X007297Y015698D01*
X007168Y015698D01*
X007168Y015983D01*
X007093Y016058D01*
X007168Y016134D01*
X007168Y016652D01*
X007081Y016740D01*
X007002Y016740D01*
X007002Y017089D01*
X007140Y017089D01*
X007227Y017177D01*
X007227Y017630D01*
X007264Y017667D01*
X008204Y018607D01*
X008561Y018607D01*
X008649Y018695D01*
X008649Y018852D01*
X009355Y019558D01*
X009852Y019558D01*
X009852Y019046D01*
X009940Y018958D01*
X010464Y018958D01*
X010502Y018996D01*
X010540Y018958D01*
X010552Y018958D01*
X010552Y018666D01*
X010437Y018552D01*
X010372Y018394D01*
X010372Y018223D01*
X010437Y018065D01*
X010558Y017944D01*
X010716Y017878D01*
X010887Y017878D01*
X011045Y017944D01*
X011166Y018065D01*
X011232Y018223D01*
X011232Y018394D01*
X011166Y018552D01*
X011052Y018666D01*
X011052Y018958D01*
X011064Y018958D01*
X011102Y018996D01*
X011140Y018958D01*
X011664Y018958D01*
X011713Y019008D01*
X011832Y018958D01*
X011971Y018958D01*
X012100Y019012D01*
X012199Y019110D01*
X012252Y019239D01*
X012252Y019378D01*
X012199Y019506D01*
X012147Y019558D01*
X012207Y019486D02*
X015902Y019486D01*
X015902Y019387D02*
X012248Y019387D01*
X012252Y019289D02*
X015902Y019289D01*
X015902Y019190D02*
X012232Y019190D01*
X012180Y019092D02*
X015902Y019092D01*
X015902Y018993D02*
X012056Y018993D01*
X011986Y018698D02*
X012618Y018698D01*
X012558Y018673D02*
X012716Y018738D01*
X012887Y018738D01*
X013045Y018673D01*
X013166Y018552D01*
X013232Y018394D01*
X013232Y018223D01*
X013166Y018065D01*
X013045Y017944D01*
X012887Y017878D01*
X012716Y017878D01*
X012558Y017944D01*
X012437Y018065D01*
X012372Y018223D01*
X012372Y018394D01*
X012437Y018552D01*
X012558Y018673D01*
X012485Y018599D02*
X012119Y018599D01*
X012166Y018552D02*
X012045Y018673D01*
X011887Y018738D01*
X011716Y018738D01*
X011558Y018673D01*
X011437Y018552D01*
X011372Y018394D01*
X011372Y018223D01*
X011437Y018065D01*
X011558Y017944D01*
X011716Y017878D01*
X011887Y017878D01*
X012045Y017944D01*
X012166Y018065D01*
X012232Y018223D01*
X012232Y018394D01*
X012166Y018552D01*
X012188Y018500D02*
X012416Y018500D01*
X012375Y018402D02*
X012229Y018402D01*
X012232Y018303D02*
X012372Y018303D01*
X012379Y018205D02*
X012224Y018205D01*
X012184Y018106D02*
X012420Y018106D01*
X012494Y018008D02*
X012109Y018008D01*
X011962Y017909D02*
X012642Y017909D01*
X012451Y017712D02*
X013153Y017712D01*
X012999Y017614D02*
X012605Y017614D01*
X012682Y017515D02*
X012922Y017515D01*
X012881Y017416D02*
X012722Y017416D01*
X012775Y017318D02*
X012872Y017318D01*
X012502Y017308D02*
X012302Y017308D01*
X012502Y017308D02*
X013652Y016158D01*
X013652Y014658D01*
X015705Y012606D01*
X016231Y012606D01*
X016231Y012920D02*
X015990Y012920D01*
X014052Y014858D01*
X014052Y016358D01*
X013302Y017108D01*
X013302Y017308D01*
X013732Y017318D02*
X013872Y017318D01*
X013873Y017219D02*
X013730Y017219D01*
X013690Y017121D02*
X013914Y017121D01*
X013980Y017022D02*
X013671Y017022D01*
X013769Y016924D02*
X014102Y016924D01*
X014102Y016825D02*
X013868Y016825D01*
X013966Y016727D02*
X014151Y016727D01*
X014065Y016628D02*
X014249Y016628D01*
X014252Y016530D02*
X014163Y016530D01*
X014252Y016431D02*
X014252Y016431D01*
X014252Y016332D02*
X014252Y016332D01*
X014252Y016234D02*
X014252Y016234D01*
X014252Y016135D02*
X014252Y016135D01*
X014252Y016037D02*
X014252Y016037D01*
X014252Y015938D02*
X014252Y015938D01*
X014252Y015840D02*
X014252Y015840D01*
X014252Y015741D02*
X014252Y015741D01*
X014252Y015643D02*
X014252Y015643D01*
X014252Y015544D02*
X014252Y015544D01*
X014252Y015446D02*
X014252Y015446D01*
X014252Y015347D02*
X014252Y015347D01*
X014252Y015249D02*
X014252Y015249D01*
X014252Y015150D02*
X014252Y015150D01*
X014252Y015051D02*
X014252Y015051D01*
X014252Y014953D02*
X014274Y014953D01*
X014339Y014854D02*
X014373Y014854D01*
X014437Y014756D02*
X014471Y014756D01*
X014536Y014657D02*
X014570Y014657D01*
X014634Y014559D02*
X014669Y014559D01*
X014733Y014460D02*
X014767Y014460D01*
X014831Y014362D02*
X014866Y014362D01*
X014930Y014263D02*
X014964Y014263D01*
X015028Y014165D02*
X015063Y014165D01*
X015127Y014066D02*
X015161Y014066D01*
X015226Y013967D02*
X015260Y013967D01*
X015324Y013869D02*
X015358Y013869D01*
X015423Y013770D02*
X015457Y013770D01*
X015521Y013672D02*
X015555Y013672D01*
X015620Y013573D02*
X015654Y013573D01*
X015718Y013475D02*
X015753Y013475D01*
X015817Y013376D02*
X016680Y013376D01*
X016734Y013278D02*
X015915Y013278D01*
X015881Y013629D02*
X014452Y015058D01*
X014452Y016708D01*
X014302Y016858D01*
X014302Y017308D01*
X014732Y017318D02*
X015902Y017318D01*
X015902Y017416D02*
X014722Y017416D01*
X014682Y017515D02*
X015902Y017515D01*
X015902Y017614D02*
X014605Y017614D01*
X014451Y017712D02*
X015902Y017712D01*
X015902Y017811D02*
X007408Y017811D01*
X007506Y017909D02*
X010642Y017909D01*
X010494Y018008D02*
X007605Y018008D01*
X007703Y018106D02*
X010420Y018106D01*
X010379Y018205D02*
X007802Y018205D01*
X007900Y018303D02*
X010372Y018303D01*
X010375Y018402D02*
X007999Y018402D01*
X008098Y018500D02*
X010416Y018500D01*
X010485Y018599D02*
X008196Y018599D01*
X008649Y018698D02*
X010552Y018698D01*
X010552Y018796D02*
X008649Y018796D01*
X008692Y018895D02*
X010552Y018895D01*
X010505Y018993D02*
X010499Y018993D01*
X009905Y018993D02*
X008790Y018993D01*
X008889Y019092D02*
X009852Y019092D01*
X009852Y019190D02*
X008987Y019190D01*
X009086Y019289D02*
X009852Y019289D01*
X009852Y019387D02*
X009184Y019387D01*
X009283Y019486D02*
X009852Y019486D01*
X008998Y019908D02*
X008649Y019559D01*
X008649Y019594D01*
X008351Y019594D01*
X008351Y019691D01*
X008649Y019691D01*
X008649Y019879D01*
X008641Y019908D01*
X008998Y019908D01*
X008970Y019880D02*
X008649Y019880D01*
X008649Y019781D02*
X008872Y019781D01*
X008773Y019683D02*
X008351Y019683D01*
X008253Y019683D02*
X007227Y019683D01*
X007227Y019781D02*
X007955Y019781D01*
X007955Y019691D02*
X008253Y019691D01*
X008253Y019594D01*
X007955Y019594D01*
X007955Y019407D01*
X007965Y019368D01*
X007985Y019334D01*
X008011Y019308D01*
X007955Y019252D01*
X007955Y019065D01*
X007221Y018331D01*
X007140Y018413D01*
X006464Y018413D01*
X006376Y018325D01*
X006376Y017486D01*
X005840Y016950D01*
X005802Y016858D01*
X005802Y016759D01*
X005802Y015712D01*
X005690Y015600D01*
X005648Y015558D01*
X005341Y015558D01*
X005474Y015613D01*
X005622Y015761D01*
X005702Y015954D01*
X005702Y016163D01*
X005622Y016356D01*
X005474Y016503D01*
X005281Y016583D01*
X004322Y016583D01*
X004129Y016503D01*
X003982Y016356D01*
X003902Y016163D01*
X003902Y015954D01*
X003982Y015761D01*
X004129Y015613D01*
X004322Y015533D01*
X004942Y015533D01*
X004910Y015520D01*
X004840Y015450D01*
X004438Y015048D01*
X004297Y014990D01*
X004170Y014863D01*
X004102Y014698D01*
X004102Y013919D01*
X004170Y013753D01*
X004297Y013627D01*
X004462Y013558D01*
X004641Y013558D01*
X004807Y013627D01*
X004933Y013753D01*
X005002Y013919D01*
X005002Y014698D01*
X004941Y014844D01*
X005155Y015058D01*
X005702Y015058D01*
X005802Y015058D01*
X005893Y015096D01*
X005902Y015105D01*
X006202Y014805D01*
X006202Y013962D01*
X005298Y013058D01*
X004552Y013058D01*
X004460Y013020D01*
X004390Y012950D01*
X003890Y012450D01*
X003852Y012358D01*
X003852Y012259D01*
X003852Y008009D01*
X003890Y007917D01*
X003960Y007846D01*
X004602Y007205D01*
X004602Y007122D01*
X004865Y006858D01*
X005238Y006858D01*
X005502Y007122D01*
X005502Y007405D01*
X005655Y007558D01*
X005666Y007558D01*
X005602Y007495D01*
X005602Y007122D01*
X005865Y006858D01*
X006238Y006858D01*
X006488Y007108D01*
X007269Y007108D01*
X007402Y006975D01*
X007519Y006858D01*
X008369Y006858D01*
X008535Y006858D01*
X008727Y007051D01*
X008727Y006898D01*
X008815Y006810D01*
X009110Y006810D01*
X009110Y006183D01*
X009110Y006017D01*
X009402Y005725D01*
X009519Y005608D01*
X009701Y005608D01*
X009703Y005606D01*
X009699Y005590D01*
X009699Y005452D01*
X010026Y005452D01*
X010026Y005416D01*
X010062Y005416D01*
X010062Y005148D01*
X010259Y005148D01*
X010297Y005159D01*
X010331Y005178D01*
X010359Y005206D01*
X010379Y005241D01*
X010389Y005279D01*
X010389Y005416D01*
X010062Y005416D01*
X010062Y005452D01*
X010389Y005452D01*
X010389Y005590D01*
X010385Y005606D01*
X010389Y005610D01*
X010389Y006006D01*
X010389Y006162D01*
X010696Y006469D01*
X010704Y006462D01*
X010772Y006433D01*
X010719Y006380D01*
X010719Y005984D01*
X010807Y005896D01*
X011243Y005896D01*
X011067Y005720D01*
X010807Y005720D01*
X010719Y005632D01*
X010719Y005236D01*
X010807Y005148D01*
X011159Y005148D01*
X010702Y004691D01*
X010702Y004525D01*
X010702Y004203D01*
X010605Y004106D01*
X010552Y003978D01*
X010552Y003962D01*
X009343Y005170D01*
X009252Y005208D01*
X009152Y005208D01*
X004355Y005208D01*
X003752Y005812D01*
X003752Y012555D01*
X004255Y013058D01*
X005152Y013058D01*
X005243Y013096D01*
X005314Y013167D01*
X005751Y013604D01*
X005807Y013627D01*
X005933Y013753D01*
X006002Y013919D01*
X006002Y014698D01*
X005933Y014863D01*
X005807Y014990D01*
X005641Y015058D01*
X005462Y015058D01*
X005297Y014990D01*
X005170Y014863D01*
X005102Y014698D01*
X005102Y013919D01*
X005170Y013753D01*
X005182Y013742D01*
X004998Y013558D01*
X004202Y013558D01*
X004102Y013558D01*
X004010Y013520D01*
X003360Y012870D01*
X003290Y012800D01*
X003252Y012708D01*
X003252Y005758D01*
X003252Y005659D01*
X003290Y005567D01*
X004040Y004817D01*
X004110Y004746D01*
X004202Y004708D01*
X006742Y004708D01*
X006735Y004702D01*
X006715Y004667D01*
X006705Y004629D01*
X006705Y004441D01*
X007003Y004441D01*
X007003Y004344D01*
X006705Y004344D01*
X006705Y004157D01*
X006715Y004118D01*
X006735Y004084D01*
X006761Y004058D01*
X006705Y004002D01*
X006705Y003445D01*
X006793Y003357D01*
X006852Y003357D01*
X006852Y001941D01*
X006808Y001923D01*
X006687Y001802D01*
X006622Y001644D01*
X006622Y001473D01*
X006687Y001315D01*
X006794Y001208D01*
X005251Y001208D01*
X005279Y001216D01*
X005698Y001486D01*
X006024Y001862D01*
X006024Y001862D01*
X006231Y002315D01*
X006231Y002315D01*
X006302Y002808D01*
X006231Y003301D01*
X006231Y003301D01*
X006024Y003754D01*
X006024Y003754D01*
X005698Y004131D01*
X005698Y004131D01*
X005279Y004400D01*
X005279Y004400D01*
X004801Y004540D01*
X004303Y004540D01*
X004303Y004540D01*
X003825Y004400D01*
X003825Y004400D01*
X003406Y004131D01*
X003406Y004131D01*
X003406Y004131D01*
X003080Y003754D01*
X002952Y003474D01*
X002952Y019908D01*
X006379Y019908D01*
X006376Y019897D01*
X006376Y019415D01*
X006752Y019415D01*
X006752Y019315D01*
X006852Y019315D01*
X006852Y018704D01*
X007097Y018704D01*
X007135Y018714D01*
X007170Y018734D01*
X007197Y018761D01*
X007217Y018796D01*
X007686Y018796D01*
X007588Y018698D02*
X005559Y018698D01*
X005577Y018716D02*
X005626Y018783D01*
X005663Y018857D01*
X005689Y018935D01*
X005700Y019008D01*
X004852Y019008D01*
X004852Y018533D01*
X005218Y018533D01*
X005300Y018546D01*
X005378Y018572D01*
X005452Y018609D01*
X005519Y018658D01*
X005577Y018716D01*
X005632Y018796D02*
X006386Y018796D01*
X006387Y018796D02*
X006406Y018761D01*
X006434Y018734D01*
X006468Y018714D01*
X006507Y018704D01*
X006752Y018704D01*
X006752Y019315D01*
X006376Y019315D01*
X006376Y018834D01*
X006387Y018796D01*
X006376Y018895D02*
X005676Y018895D01*
X005698Y018993D02*
X006376Y018993D01*
X006376Y019092D02*
X004852Y019092D01*
X004852Y019108D02*
X005700Y019108D01*
X005689Y019181D01*
X005663Y019260D01*
X005626Y019333D01*
X005577Y019400D01*
X005519Y019459D01*
X005452Y019507D01*
X005378Y019545D01*
X005300Y019570D01*
X005218Y019583D01*
X004852Y019583D01*
X004852Y019108D01*
X004852Y019008D01*
X004752Y019008D01*
X004752Y018533D01*
X004386Y018533D01*
X004304Y018546D01*
X004225Y018572D01*
X004152Y018609D01*
X004085Y018658D01*
X004026Y018716D01*
X003978Y018783D01*
X003940Y018857D01*
X003915Y018935D01*
X003903Y019008D01*
X004752Y019008D01*
X004752Y019108D01*
X003903Y019108D01*
X003915Y019181D01*
X003940Y019260D01*
X003978Y019333D01*
X004026Y019400D01*
X004085Y019459D01*
X004152Y019507D01*
X004225Y019545D01*
X004304Y019570D01*
X004386Y019583D01*
X004752Y019583D01*
X004752Y019108D01*
X004852Y019108D01*
X004852Y019190D02*
X004752Y019190D01*
X004752Y019092D02*
X002952Y019092D01*
X002952Y019190D02*
X003918Y019190D01*
X003955Y019289D02*
X002952Y019289D01*
X002952Y019387D02*
X004017Y019387D01*
X004122Y019486D02*
X002952Y019486D01*
X002952Y019584D02*
X006376Y019584D01*
X006376Y019486D02*
X005481Y019486D01*
X005587Y019387D02*
X006752Y019387D01*
X006752Y019289D02*
X006852Y019289D01*
X006852Y019315D02*
X006852Y019415D01*
X007227Y019415D01*
X007227Y019897D01*
X007224Y019908D01*
X007963Y019908D01*
X007955Y019879D01*
X007955Y019691D01*
X007955Y019584D02*
X007227Y019584D01*
X007227Y019486D02*
X007955Y019486D01*
X007960Y019387D02*
X006852Y019387D01*
X006852Y019315D02*
X007227Y019315D01*
X007227Y018834D01*
X007217Y018796D01*
X007227Y018895D02*
X007785Y018895D01*
X007883Y018993D02*
X007227Y018993D01*
X007227Y019092D02*
X007955Y019092D01*
X007955Y019190D02*
X007227Y019190D01*
X007227Y019289D02*
X007992Y019289D01*
X008649Y019584D02*
X008675Y019584D01*
X007955Y019880D02*
X007227Y019880D01*
X006376Y019880D02*
X002952Y019880D01*
X002952Y019781D02*
X006376Y019781D01*
X006376Y019683D02*
X002952Y019683D01*
X002952Y018993D02*
X003906Y018993D01*
X003928Y018895D02*
X002952Y018895D01*
X002952Y018796D02*
X003971Y018796D01*
X004045Y018698D02*
X002952Y018698D01*
X002952Y018599D02*
X004172Y018599D01*
X004752Y018599D02*
X004852Y018599D01*
X004852Y018698D02*
X004752Y018698D01*
X004752Y018796D02*
X004852Y018796D01*
X004852Y018895D02*
X004752Y018895D01*
X004752Y018993D02*
X004852Y018993D01*
X004852Y019289D02*
X004752Y019289D01*
X004752Y019387D02*
X004852Y019387D01*
X004852Y019486D02*
X004752Y019486D01*
X005649Y019289D02*
X006376Y019289D01*
X006376Y019190D02*
X005686Y019190D01*
X005432Y018599D02*
X007489Y018599D01*
X007391Y018500D02*
X002952Y018500D01*
X002952Y018402D02*
X006453Y018402D01*
X006376Y018303D02*
X002952Y018303D01*
X002952Y018205D02*
X006376Y018205D01*
X006376Y018106D02*
X002952Y018106D01*
X002952Y018008D02*
X004140Y018008D01*
X004129Y018003D02*
X003982Y017856D01*
X003902Y017663D01*
X003902Y017454D01*
X003929Y017389D01*
X003410Y016870D01*
X003340Y016800D01*
X003302Y016708D01*
X003302Y014992D01*
X003297Y014990D01*
X003170Y014863D01*
X003102Y014698D01*
X003102Y013919D01*
X003170Y013753D01*
X003297Y013627D01*
X003462Y013558D01*
X003641Y013558D01*
X003807Y013627D01*
X003933Y013753D01*
X004002Y013919D01*
X004002Y014698D01*
X003933Y014863D01*
X003807Y014990D01*
X003802Y014992D01*
X003802Y016555D01*
X004293Y017046D01*
X004322Y017033D01*
X005281Y017033D01*
X005474Y017113D01*
X005622Y017261D01*
X005702Y017454D01*
X005702Y017663D01*
X005622Y017856D01*
X005474Y018003D01*
X005281Y018083D01*
X004322Y018083D01*
X004129Y018003D01*
X004035Y017909D02*
X002952Y017909D01*
X002952Y017811D02*
X003963Y017811D01*
X003922Y017712D02*
X002952Y017712D01*
X002952Y017614D02*
X003902Y017614D01*
X003902Y017515D02*
X002952Y017515D01*
X002952Y017416D02*
X003917Y017416D01*
X003858Y017318D02*
X002952Y017318D01*
X002952Y017219D02*
X003759Y017219D01*
X003661Y017121D02*
X002952Y017121D01*
X002952Y017022D02*
X003562Y017022D01*
X003464Y016924D02*
X002952Y016924D01*
X002952Y016825D02*
X003365Y016825D01*
X003310Y016727D02*
X002952Y016727D01*
X002952Y016628D02*
X003302Y016628D01*
X003302Y016530D02*
X002952Y016530D01*
X002952Y016431D02*
X003302Y016431D01*
X003302Y016332D02*
X002952Y016332D01*
X002952Y016234D02*
X003302Y016234D01*
X003302Y016135D02*
X002952Y016135D01*
X002952Y016037D02*
X003302Y016037D01*
X003302Y015938D02*
X002952Y015938D01*
X002952Y015840D02*
X003302Y015840D01*
X003302Y015741D02*
X002952Y015741D01*
X002952Y015643D02*
X003302Y015643D01*
X003302Y015544D02*
X002952Y015544D01*
X002952Y015446D02*
X003302Y015446D01*
X003302Y015347D02*
X002952Y015347D01*
X002952Y015249D02*
X003302Y015249D01*
X003302Y015150D02*
X002952Y015150D01*
X002952Y015051D02*
X003302Y015051D01*
X003260Y014953D02*
X002952Y014953D01*
X002952Y014854D02*
X003167Y014854D01*
X003126Y014756D02*
X002952Y014756D01*
X002952Y014657D02*
X003102Y014657D01*
X003102Y014559D02*
X002952Y014559D01*
X002952Y014460D02*
X003102Y014460D01*
X003102Y014362D02*
X002952Y014362D01*
X002952Y014263D02*
X003102Y014263D01*
X003102Y014165D02*
X002952Y014165D01*
X002952Y014066D02*
X003102Y014066D01*
X003102Y013967D02*
X002952Y013967D01*
X002952Y013869D02*
X003123Y013869D01*
X003163Y013770D02*
X002952Y013770D01*
X002952Y013672D02*
X003252Y013672D01*
X003426Y013573D02*
X002952Y013573D01*
X002952Y013475D02*
X003965Y013475D01*
X003866Y013376D02*
X002952Y013376D01*
X002952Y013278D02*
X003768Y013278D01*
X003669Y013179D02*
X002952Y013179D01*
X002952Y013081D02*
X003571Y013081D01*
X003472Y012982D02*
X002952Y012982D01*
X002952Y012883D02*
X003374Y012883D01*
X003360Y012870D02*
X003360Y012870D01*
X003284Y012785D02*
X002952Y012785D01*
X002952Y012686D02*
X003252Y012686D01*
X003252Y012588D02*
X002952Y012588D01*
X002952Y012489D02*
X003252Y012489D01*
X003252Y012391D02*
X002952Y012391D01*
X002952Y012292D02*
X003252Y012292D01*
X003252Y012194D02*
X002952Y012194D01*
X002952Y012095D02*
X003252Y012095D01*
X003252Y011997D02*
X002952Y011997D01*
X002952Y011898D02*
X003252Y011898D01*
X003252Y011799D02*
X002952Y011799D01*
X002952Y011701D02*
X003252Y011701D01*
X003252Y011602D02*
X002952Y011602D01*
X002952Y011504D02*
X003252Y011504D01*
X003252Y011405D02*
X002952Y011405D01*
X002952Y011307D02*
X003252Y011307D01*
X003252Y011208D02*
X002952Y011208D01*
X002952Y011110D02*
X003252Y011110D01*
X003252Y011011D02*
X002952Y011011D01*
X002952Y010913D02*
X003252Y010913D01*
X003252Y010814D02*
X002952Y010814D01*
X002952Y010716D02*
X003252Y010716D01*
X003252Y010617D02*
X002952Y010617D01*
X002952Y010518D02*
X003252Y010518D01*
X003252Y010420D02*
X002952Y010420D01*
X002952Y010321D02*
X003252Y010321D01*
X003252Y010223D02*
X002952Y010223D01*
X002952Y010124D02*
X003252Y010124D01*
X003252Y010026D02*
X002952Y010026D01*
X002952Y009927D02*
X003252Y009927D01*
X003252Y009829D02*
X002952Y009829D01*
X002952Y009730D02*
X003252Y009730D01*
X003252Y009632D02*
X002952Y009632D01*
X002952Y009533D02*
X003252Y009533D01*
X003252Y009434D02*
X002952Y009434D01*
X002952Y009336D02*
X003252Y009336D01*
X003252Y009237D02*
X002952Y009237D01*
X002952Y009139D02*
X003252Y009139D01*
X003252Y009040D02*
X002952Y009040D01*
X002952Y008942D02*
X003252Y008942D01*
X003252Y008843D02*
X002952Y008843D01*
X002952Y008745D02*
X003252Y008745D01*
X003252Y008646D02*
X002952Y008646D01*
X002952Y008548D02*
X003252Y008548D01*
X003252Y008449D02*
X002952Y008449D01*
X002952Y008350D02*
X003252Y008350D01*
X003252Y008252D02*
X002952Y008252D01*
X002952Y008153D02*
X003252Y008153D01*
X003252Y008055D02*
X002952Y008055D01*
X002952Y007956D02*
X003252Y007956D01*
X003252Y007858D02*
X002952Y007858D01*
X002952Y007759D02*
X003252Y007759D01*
X003252Y007661D02*
X002952Y007661D01*
X002952Y007562D02*
X003252Y007562D01*
X003252Y007464D02*
X002952Y007464D01*
X002952Y007365D02*
X003252Y007365D01*
X003252Y007266D02*
X002952Y007266D01*
X002952Y007168D02*
X003252Y007168D01*
X003252Y007069D02*
X002952Y007069D01*
X002952Y006971D02*
X003252Y006971D01*
X003252Y006872D02*
X002952Y006872D01*
X002952Y006774D02*
X003252Y006774D01*
X003252Y006675D02*
X002952Y006675D01*
X002952Y006577D02*
X003252Y006577D01*
X003252Y006478D02*
X002952Y006478D01*
X002952Y006380D02*
X003252Y006380D01*
X003252Y006281D02*
X002952Y006281D01*
X002952Y006183D02*
X003252Y006183D01*
X003252Y006084D02*
X002952Y006084D01*
X002952Y005985D02*
X003252Y005985D01*
X003252Y005887D02*
X002952Y005887D01*
X002952Y005788D02*
X003252Y005788D01*
X003252Y005690D02*
X002952Y005690D01*
X002952Y005591D02*
X003280Y005591D01*
X003364Y005493D02*
X002952Y005493D01*
X002952Y005394D02*
X003462Y005394D01*
X003561Y005296D02*
X002952Y005296D01*
X002952Y005197D02*
X003660Y005197D01*
X003758Y005099D02*
X002952Y005099D01*
X002952Y005000D02*
X003857Y005000D01*
X003955Y004901D02*
X002952Y004901D01*
X002952Y004803D02*
X004054Y004803D01*
X004190Y004507D02*
X002952Y004507D01*
X002952Y004409D02*
X003854Y004409D01*
X003685Y004310D02*
X002952Y004310D01*
X002952Y004212D02*
X003532Y004212D01*
X003391Y004113D02*
X002952Y004113D01*
X002952Y004015D02*
X003305Y004015D01*
X003220Y003916D02*
X002952Y003916D01*
X002952Y003817D02*
X003134Y003817D01*
X003080Y003754D02*
X003080Y003754D01*
X003064Y003719D02*
X002952Y003719D01*
X002952Y003620D02*
X003019Y003620D01*
X002974Y003522D02*
X002952Y003522D01*
X002952Y004606D02*
X006705Y004606D01*
X006705Y004507D02*
X004914Y004507D01*
X004801Y004540D02*
X004801Y004540D01*
X005249Y004409D02*
X007003Y004409D01*
X007052Y004393D02*
X007067Y004393D01*
X007552Y003908D01*
X007552Y002558D01*
X007582Y002536D02*
X008122Y002536D01*
X008122Y002473D02*
X008122Y002644D01*
X008187Y002802D01*
X008308Y002923D01*
X008352Y002941D01*
X008352Y003357D01*
X008293Y003357D01*
X008205Y003445D01*
X008205Y004002D01*
X008261Y004058D01*
X008235Y004084D01*
X008215Y004118D01*
X008205Y004157D01*
X008205Y004344D01*
X008503Y004344D01*
X008503Y004441D01*
X008205Y004441D01*
X008205Y004629D01*
X008215Y004667D01*
X008235Y004702D01*
X008242Y004708D01*
X007362Y004708D01*
X007369Y004702D01*
X007388Y004667D01*
X007399Y004629D01*
X007399Y004441D01*
X007101Y004441D01*
X007101Y004344D01*
X007399Y004344D01*
X007399Y004157D01*
X007388Y004118D01*
X007369Y004084D01*
X007343Y004058D01*
X007399Y004002D01*
X007399Y003445D01*
X007311Y003357D01*
X007252Y003357D01*
X007252Y002866D01*
X007272Y002886D01*
X007326Y002926D01*
X007387Y002957D01*
X007451Y002978D01*
X007518Y002988D01*
X007522Y002988D01*
X007522Y002589D01*
X007582Y002589D01*
X007582Y002988D01*
X007586Y002988D01*
X007653Y002978D01*
X007717Y002957D01*
X007777Y002926D01*
X007832Y002886D01*
X007880Y002838D01*
X007920Y002784D01*
X007950Y002723D01*
X007971Y002659D01*
X007982Y002592D01*
X007982Y002588D01*
X007582Y002588D01*
X007582Y002528D01*
X007982Y002528D01*
X007982Y002524D01*
X007971Y002458D01*
X007950Y002393D01*
X007920Y002333D01*
X007880Y002278D01*
X007860Y002258D01*
X008244Y002258D01*
X008187Y002315D01*
X008122Y002473D01*
X008136Y002438D02*
X007965Y002438D01*
X007923Y002339D02*
X008177Y002339D01*
X008122Y002635D02*
X007975Y002635D01*
X007945Y002734D02*
X008159Y002734D01*
X008218Y002832D02*
X007884Y002832D01*
X007768Y002931D02*
X008327Y002931D01*
X008352Y003029D02*
X007252Y003029D01*
X007252Y002931D02*
X007336Y002931D01*
X007522Y002931D02*
X007582Y002931D01*
X007582Y002832D02*
X007522Y002832D01*
X007522Y002734D02*
X007582Y002734D01*
X007582Y002635D02*
X007522Y002635D01*
X007252Y003128D02*
X008352Y003128D01*
X008352Y003226D02*
X007252Y003226D01*
X007252Y003325D02*
X008352Y003325D01*
X008227Y003423D02*
X007377Y003423D01*
X007399Y003522D02*
X008205Y003522D01*
X008205Y003620D02*
X007399Y003620D01*
X007399Y003719D02*
X008205Y003719D01*
X008205Y003817D02*
X007399Y003817D01*
X007399Y003916D02*
X008205Y003916D01*
X008217Y004015D02*
X007386Y004015D01*
X007385Y004113D02*
X008218Y004113D01*
X008205Y004212D02*
X007399Y004212D01*
X007399Y004310D02*
X008205Y004310D01*
X008205Y004507D02*
X007399Y004507D01*
X007399Y004606D02*
X008205Y004606D01*
X008238Y004704D02*
X007366Y004704D01*
X007101Y004409D02*
X008503Y004409D01*
X008552Y004393D02*
X008587Y004393D01*
X008602Y004408D01*
X009102Y004408D01*
X008899Y004441D02*
X008899Y004629D01*
X008888Y004667D01*
X008869Y004702D01*
X008862Y004708D01*
X009098Y004708D01*
X010490Y003317D01*
X010560Y003246D01*
X010652Y003208D01*
X010862Y003208D01*
X010854Y003205D01*
X010757Y003108D01*
X008985Y003108D01*
X008819Y003108D01*
X008752Y003041D01*
X008752Y003357D01*
X008811Y003357D01*
X008899Y003445D01*
X008899Y004002D01*
X008843Y004058D01*
X008869Y004084D01*
X008888Y004118D01*
X008899Y004157D01*
X008899Y004344D01*
X008601Y004344D01*
X008601Y004441D01*
X008899Y004441D01*
X008899Y004507D02*
X009299Y004507D01*
X009201Y004606D02*
X008899Y004606D01*
X008866Y004704D02*
X009102Y004704D01*
X009398Y004409D02*
X008601Y004409D01*
X008552Y004393D02*
X007052Y004393D01*
X006705Y004310D02*
X005419Y004310D01*
X005572Y004212D02*
X006705Y004212D01*
X006718Y004113D02*
X005713Y004113D01*
X005799Y004015D02*
X006717Y004015D01*
X006705Y003916D02*
X005884Y003916D01*
X005969Y003817D02*
X006705Y003817D01*
X006705Y003719D02*
X006040Y003719D01*
X006085Y003620D02*
X006705Y003620D01*
X006705Y003522D02*
X006130Y003522D01*
X006175Y003423D02*
X006727Y003423D01*
X006852Y003325D02*
X006220Y003325D01*
X006242Y003226D02*
X006852Y003226D01*
X006852Y003128D02*
X006256Y003128D01*
X006270Y003029D02*
X006852Y003029D01*
X006852Y002931D02*
X006284Y002931D01*
X006298Y002832D02*
X006852Y002832D01*
X006852Y002734D02*
X006291Y002734D01*
X006277Y002635D02*
X006852Y002635D01*
X006852Y002536D02*
X006263Y002536D01*
X006249Y002438D02*
X006852Y002438D01*
X006852Y002339D02*
X006234Y002339D01*
X006197Y002241D02*
X006852Y002241D01*
X006852Y002142D02*
X006152Y002142D01*
X006107Y002044D02*
X006852Y002044D01*
X006852Y001945D02*
X006062Y001945D01*
X006011Y001847D02*
X006732Y001847D01*
X006665Y001748D02*
X005925Y001748D01*
X005840Y001650D02*
X006624Y001650D01*
X006622Y001551D02*
X005754Y001551D01*
X005698Y001486D02*
X005698Y001486D01*
X005698Y001486D01*
X005646Y001452D02*
X006630Y001452D01*
X006671Y001354D02*
X005493Y001354D01*
X005339Y001255D02*
X006747Y001255D01*
X007052Y001558D02*
X007552Y002058D01*
X009452Y002058D01*
X009802Y002408D01*
X011002Y002408D01*
X011129Y002082D02*
X011200Y002112D01*
X011271Y002182D01*
X011356Y002097D01*
X012307Y002097D01*
X012395Y002185D01*
X012395Y002190D01*
X012409Y002176D01*
X012665Y002176D01*
X012921Y002176D01*
X013177Y002176D01*
X013439Y002176D01*
X013446Y002184D01*
X013475Y002176D01*
X013563Y002176D01*
X013563Y002601D01*
X013564Y002601D01*
X013564Y002176D01*
X013652Y002176D01*
X013690Y002186D01*
X013709Y002197D01*
X013709Y002185D01*
X013797Y002097D01*
X014748Y002097D01*
X014836Y002185D01*
X014836Y002939D01*
X014748Y003027D01*
X014316Y003027D01*
X014349Y003060D01*
X014402Y003189D01*
X014402Y003208D01*
X015002Y003208D01*
X015002Y003053D01*
X014905Y002956D01*
X014852Y002828D01*
X014852Y002689D01*
X014905Y002560D01*
X015004Y002462D01*
X015132Y002408D01*
X015202Y002408D01*
X015202Y002289D01*
X015255Y002160D01*
X015354Y002062D01*
X015482Y002008D01*
X015621Y002008D01*
X015750Y002062D01*
X015849Y002160D01*
X015902Y002289D01*
X015902Y002428D01*
X015849Y002556D01*
X015752Y002653D01*
X015752Y003125D01*
X017185Y004558D01*
X017657Y004558D01*
X017754Y004462D01*
X017882Y004408D01*
X018021Y004408D01*
X018150Y004462D01*
X018249Y004560D01*
X018302Y004689D01*
X018302Y004758D01*
X018421Y004758D01*
X018550Y004812D01*
X018649Y004910D01*
X018698Y005029D01*
X021119Y002608D01*
X021285Y002608D01*
X023007Y002608D01*
X022955Y002556D01*
X022902Y002428D01*
X022902Y002289D01*
X022955Y002160D01*
X023054Y002062D01*
X023182Y002008D01*
X023321Y002008D01*
X023450Y002062D01*
X023547Y002158D01*
X025269Y002158D01*
X025435Y002158D01*
X025673Y002396D01*
X025716Y002378D01*
X025887Y002378D01*
X026045Y002444D01*
X026166Y002565D01*
X026232Y002723D01*
X026232Y002894D01*
X026166Y003052D01*
X026110Y003108D01*
X026219Y003108D01*
X026390Y002937D01*
X026372Y002894D01*
X026372Y002723D01*
X026437Y002565D01*
X026558Y002444D01*
X026644Y002408D01*
X026469Y002408D01*
X026352Y002291D01*
X026236Y002175D01*
X025958Y002175D01*
X025870Y002087D01*
X025870Y001530D01*
X025958Y001442D01*
X026476Y001442D01*
X026552Y001517D01*
X026628Y001442D01*
X026970Y001442D01*
X027204Y001208D01*
X027369Y001208D01*
X029135Y001208D01*
X029252Y001325D01*
X029385Y001458D01*
X029664Y001458D01*
X029752Y001546D01*
X029752Y001805D01*
X030359Y002412D01*
X030373Y002315D01*
X030580Y001862D01*
X030906Y001486D01*
X031325Y001216D01*
X031353Y001208D01*
X015131Y001208D01*
X015131Y001994D01*
X015043Y002082D01*
X014210Y002082D01*
X014122Y001994D01*
X014122Y001208D01*
X011981Y001208D01*
X011981Y001994D01*
X011894Y002082D01*
X011129Y002082D01*
X011231Y002142D02*
X011311Y002142D01*
X011932Y002044D02*
X014172Y002044D01*
X014122Y001945D02*
X011981Y001945D01*
X011981Y001847D02*
X014122Y001847D01*
X014122Y001748D02*
X011981Y001748D01*
X011981Y001650D02*
X014122Y001650D01*
X014122Y001551D02*
X011981Y001551D01*
X011981Y001452D02*
X014122Y001452D01*
X014122Y001354D02*
X011981Y001354D01*
X011981Y001255D02*
X014122Y001255D01*
X015131Y001255D02*
X027157Y001255D01*
X027058Y001354D02*
X015131Y001354D01*
X015131Y001452D02*
X016678Y001452D01*
X016722Y001408D02*
X016892Y001408D01*
X017004Y001520D01*
X017116Y001408D01*
X017285Y001408D01*
X017326Y001449D01*
X017366Y001408D01*
X017536Y001408D01*
X017656Y001528D01*
X017656Y001605D01*
X017832Y001605D01*
X017891Y001665D01*
X017891Y001528D01*
X018011Y001408D01*
X018476Y001408D01*
X018550Y001482D01*
X018574Y001507D01*
X018574Y001507D01*
X018621Y001553D01*
X018695Y001627D01*
X018695Y001796D01*
X018695Y001895D01*
X018681Y001909D01*
X018695Y001922D01*
X018695Y002092D01*
X018695Y002190D01*
X018695Y002190D01*
X018623Y002262D01*
X018574Y002310D01*
X018548Y002337D01*
X018476Y002409D01*
X018306Y002409D01*
X018011Y002409D01*
X017921Y002319D01*
X017903Y002337D01*
X017832Y002409D01*
X017831Y002409D01*
X017662Y002409D01*
X017366Y002409D01*
X017246Y002289D01*
X017246Y002251D01*
X017089Y002409D01*
X016919Y002409D01*
X016799Y002289D01*
X016602Y002092D01*
X016602Y001993D01*
X016602Y001824D01*
X016602Y001528D01*
X016722Y001408D01*
X016602Y001551D02*
X015131Y001551D01*
X015131Y001650D02*
X016602Y001650D01*
X016602Y001748D02*
X015131Y001748D01*
X015131Y001847D02*
X016602Y001847D01*
X016602Y001945D02*
X015131Y001945D01*
X015082Y002044D02*
X015397Y002044D01*
X015273Y002142D02*
X014793Y002142D01*
X014836Y002241D02*
X015222Y002241D01*
X015202Y002339D02*
X014836Y002339D01*
X014836Y002438D02*
X015061Y002438D01*
X014929Y002536D02*
X014836Y002536D01*
X014836Y002635D02*
X014874Y002635D01*
X014852Y002734D02*
X014836Y002734D01*
X014836Y002832D02*
X014854Y002832D01*
X014836Y002931D02*
X014894Y002931D01*
X014978Y003029D02*
X014318Y003029D01*
X014377Y003128D02*
X015002Y003128D01*
X015202Y003258D02*
X015202Y002758D01*
X015202Y003258D02*
X017052Y005108D01*
X018352Y005108D01*
X018686Y005000D02*
X018727Y005000D01*
X018640Y004901D02*
X018826Y004901D01*
X018924Y004803D02*
X018529Y004803D01*
X018302Y004704D02*
X019023Y004704D01*
X019121Y004606D02*
X018268Y004606D01*
X018196Y004507D02*
X019220Y004507D01*
X019319Y004409D02*
X018023Y004409D01*
X017881Y004409D02*
X017035Y004409D01*
X017134Y004507D02*
X017708Y004507D01*
X017952Y004758D02*
X017102Y004758D01*
X015552Y003208D01*
X015552Y002358D01*
X015882Y002241D02*
X016751Y002241D01*
X016849Y002339D02*
X015902Y002339D01*
X015898Y002438D02*
X022906Y002438D01*
X022902Y002339D02*
X020381Y002339D01*
X020431Y002289D02*
X020311Y002409D01*
X020141Y002409D01*
X020021Y002289D01*
X019825Y002092D01*
X019825Y001922D01*
X019936Y001810D01*
X019904Y001778D01*
X019864Y001818D01*
X019787Y001818D01*
X019787Y002289D01*
X019667Y002409D01*
X019497Y002409D01*
X019377Y002289D01*
X019180Y002092D01*
X019180Y001922D01*
X019292Y001810D01*
X019180Y001698D01*
X019180Y001528D01*
X019300Y001408D01*
X019864Y001408D01*
X019904Y001449D01*
X019945Y001408D01*
X020508Y001408D01*
X020628Y001528D01*
X020628Y001698D01*
X020508Y001818D01*
X020431Y001818D01*
X020431Y002289D01*
X020431Y002241D02*
X022922Y002241D01*
X022973Y002142D02*
X020431Y002142D01*
X020431Y002044D02*
X023097Y002044D01*
X023407Y002044D02*
X025870Y002044D01*
X025870Y001945D02*
X020431Y001945D01*
X020431Y001847D02*
X025870Y001847D01*
X025870Y001748D02*
X020578Y001748D01*
X020628Y001650D02*
X025870Y001650D01*
X025870Y001551D02*
X020628Y001551D01*
X020552Y001452D02*
X025948Y001452D01*
X026217Y001808D02*
X026217Y001874D01*
X026552Y002208D01*
X027152Y002208D01*
X027302Y002358D01*
X027302Y003808D01*
X027302Y004408D01*
X026902Y004808D01*
X026887Y004808D01*
X027302Y005208D02*
X027802Y004708D01*
X027802Y002808D01*
X028091Y003128D02*
X028513Y003128D01*
X028558Y003173D02*
X028437Y003052D01*
X028372Y002894D01*
X028372Y002723D01*
X028437Y002565D01*
X028552Y002450D01*
X028552Y002158D01*
X028540Y002158D01*
X028502Y002120D01*
X028464Y002158D01*
X027940Y002158D01*
X027890Y002109D01*
X027771Y002158D01*
X027632Y002158D01*
X027504Y002105D01*
X027405Y002006D01*
X027352Y001878D01*
X027352Y001739D01*
X027405Y001610D01*
X027407Y001608D01*
X027369Y001608D01*
X027233Y001744D01*
X027233Y002008D01*
X027235Y002008D01*
X027385Y002158D01*
X027502Y002275D01*
X027502Y002500D01*
X027558Y002444D01*
X027716Y002378D01*
X027887Y002378D01*
X028045Y002444D01*
X028166Y002565D01*
X028232Y002723D01*
X028232Y002894D01*
X028166Y003052D01*
X028045Y003173D01*
X028002Y003191D01*
X028002Y003500D01*
X028058Y003444D01*
X028216Y003378D01*
X028387Y003378D01*
X028545Y003444D01*
X028666Y003565D01*
X028732Y003723D01*
X028732Y003894D01*
X028666Y004052D01*
X028545Y004173D01*
X028502Y004191D01*
X028502Y004991D01*
X028385Y005108D01*
X027885Y005608D01*
X027719Y005608D01*
X022385Y005608D01*
X022352Y005641D01*
X022352Y005778D01*
X022299Y005906D01*
X022200Y006005D01*
X022071Y006058D01*
X021932Y006058D01*
X021804Y006005D01*
X021705Y005906D01*
X021702Y005899D01*
X021699Y005906D01*
X021600Y006005D01*
X021471Y006058D01*
X021402Y006058D01*
X021402Y006128D01*
X021349Y006256D01*
X021250Y006355D01*
X021121Y006408D01*
X020982Y006408D01*
X020854Y006355D01*
X020755Y006256D01*
X020702Y006128D01*
X020702Y005989D01*
X020755Y005860D01*
X020852Y005763D01*
X020852Y005191D01*
X020852Y005025D01*
X021152Y004725D01*
X021269Y004608D01*
X022507Y004608D01*
X022505Y004606D01*
X020837Y004606D01*
X020739Y004704D02*
X021173Y004704D01*
X021074Y004803D02*
X020640Y004803D01*
X020541Y004901D02*
X020976Y004901D01*
X020877Y005000D02*
X020443Y005000D01*
X020344Y005099D02*
X020852Y005099D01*
X020852Y005197D02*
X020246Y005197D01*
X020147Y005296D02*
X020852Y005296D01*
X020852Y005394D02*
X020049Y005394D01*
X019950Y005493D02*
X020852Y005493D01*
X020852Y005591D02*
X020080Y005591D01*
X020050Y005562D02*
X020149Y005660D01*
X020202Y005789D01*
X020202Y005825D01*
X020902Y006525D01*
X020902Y006691D01*
X020902Y006975D01*
X020969Y006908D01*
X021219Y006658D01*
X021385Y006658D01*
X022085Y006658D01*
X022202Y006775D01*
X022385Y006958D01*
X028519Y006958D01*
X029963Y005514D01*
X029905Y005456D01*
X029852Y005328D01*
X029852Y005189D01*
X029905Y005060D01*
X030004Y004962D01*
X030132Y004908D01*
X030271Y004908D01*
X030400Y004962D01*
X030499Y005060D01*
X030552Y005189D01*
X030552Y005275D01*
X030569Y005258D01*
X032219Y005258D01*
X032385Y005258D01*
X032935Y005808D01*
X033052Y005925D01*
X033052Y008425D01*
X033052Y008591D01*
X032464Y009179D01*
X032482Y009223D01*
X032482Y009394D01*
X032416Y009552D01*
X032295Y009673D01*
X032137Y009738D01*
X031966Y009738D01*
X031808Y009673D01*
X031687Y009552D01*
X031622Y009394D01*
X031622Y009223D01*
X031687Y009065D01*
X031808Y008944D01*
X031966Y008878D01*
X032137Y008878D01*
X032181Y008896D01*
X032652Y008425D01*
X032652Y007991D01*
X032464Y008179D01*
X032482Y008223D01*
X032482Y008394D01*
X032416Y008552D01*
X032295Y008673D01*
X032137Y008738D01*
X031966Y008738D01*
X031808Y008673D01*
X031687Y008552D01*
X031659Y008484D01*
X031464Y008679D01*
X031482Y008723D01*
X031482Y008894D01*
X031416Y009052D01*
X031295Y009173D01*
X031137Y009238D01*
X030966Y009238D01*
X030808Y009173D01*
X030687Y009052D01*
X030622Y008894D01*
X030622Y008723D01*
X030687Y008565D01*
X030808Y008444D01*
X030966Y008378D01*
X031137Y008378D01*
X031181Y008396D01*
X031352Y008225D01*
X031352Y008116D01*
X031295Y008173D01*
X031137Y008238D01*
X030966Y008238D01*
X030923Y008220D01*
X030202Y008941D01*
X030202Y009113D01*
X030254Y009062D01*
X030382Y009008D01*
X030521Y009008D01*
X030650Y009062D01*
X030749Y009160D01*
X030802Y009289D01*
X030802Y009428D01*
X030786Y009466D01*
X030808Y009444D01*
X030966Y009378D01*
X031137Y009378D01*
X031295Y009444D01*
X031416Y009565D01*
X031482Y009723D01*
X031482Y009894D01*
X031416Y010052D01*
X031295Y010173D01*
X031137Y010238D01*
X030966Y010238D01*
X030923Y010220D01*
X027535Y013608D01*
X027369Y013608D01*
X022119Y013608D01*
X022002Y013491D01*
X021924Y013413D01*
X021924Y013926D01*
X021836Y014014D01*
X021521Y014014D01*
X021391Y014014D01*
X021585Y014208D01*
X027769Y014208D01*
X027935Y014208D01*
X029385Y015658D01*
X029502Y015775D01*
X029502Y017926D01*
X029545Y017944D01*
X029666Y018065D01*
X029732Y018223D01*
X029732Y018394D01*
X029666Y018552D01*
X029545Y018673D01*
X029387Y018738D01*
X029216Y018738D01*
X029058Y018673D01*
X028937Y018552D01*
X028872Y018394D01*
X028872Y018223D01*
X028937Y018065D01*
X029058Y017944D01*
X029102Y017926D01*
X029102Y017616D01*
X029045Y017673D01*
X028887Y017738D01*
X028716Y017738D01*
X028558Y017673D01*
X028437Y017552D01*
X028372Y017394D01*
X028372Y017223D01*
X028437Y017065D01*
X028558Y016944D01*
X028602Y016926D01*
X028602Y015941D01*
X027469Y014808D01*
X027035Y014808D01*
X027885Y015658D01*
X028002Y015775D01*
X028002Y016926D01*
X028045Y016944D01*
X028166Y017065D01*
X028232Y017223D01*
X028232Y017394D01*
X028166Y017552D01*
X028045Y017673D01*
X027977Y017701D01*
X028173Y017896D01*
X028216Y017878D01*
X028387Y017878D01*
X028545Y017944D01*
X028666Y018065D01*
X028732Y018223D01*
X028732Y018394D01*
X028666Y018552D01*
X028545Y018673D01*
X028387Y018738D01*
X028216Y018738D01*
X028058Y018673D01*
X027937Y018552D01*
X027872Y018394D01*
X027872Y018223D01*
X027890Y018179D01*
X027719Y018008D01*
X027610Y018008D01*
X027666Y018065D01*
X027732Y018223D01*
X027732Y018394D01*
X027666Y018552D01*
X027545Y018673D01*
X027387Y018738D01*
X027216Y018738D01*
X027058Y018673D01*
X026937Y018552D01*
X026872Y018394D01*
X026872Y018223D01*
X026890Y018179D01*
X026719Y018008D01*
X026610Y018008D01*
X026666Y018065D01*
X026732Y018223D01*
X026732Y018394D01*
X026666Y018552D01*
X026545Y018673D01*
X026387Y018738D01*
X026216Y018738D01*
X026058Y018673D01*
X025937Y018552D01*
X025872Y018394D01*
X025872Y018223D01*
X025890Y018179D01*
X025719Y018008D01*
X025610Y018008D01*
X025666Y018065D01*
X025732Y018223D01*
X025732Y018394D01*
X025666Y018552D01*
X025552Y018666D01*
X025552Y018958D01*
X025564Y018958D01*
X025602Y018996D01*
X025640Y018958D01*
X026164Y018958D01*
X026213Y019008D01*
X026332Y018958D01*
X026471Y018958D01*
X026600Y019012D01*
X026699Y019110D01*
X026752Y019239D01*
X026752Y019378D01*
X026699Y019506D01*
X026647Y019558D01*
X029448Y019558D01*
X030052Y018955D01*
X030052Y013608D01*
X030052Y013509D01*
X030090Y013417D01*
X031090Y012417D01*
X031160Y012346D01*
X031252Y012308D01*
X033098Y012308D01*
X033302Y012105D01*
X033302Y011258D01*
X032790Y011258D01*
X032702Y011170D01*
X032702Y010646D01*
X032740Y010608D01*
X032702Y010570D01*
X032702Y010558D01*
X032410Y010558D01*
X032295Y010673D01*
X032137Y010738D01*
X031966Y010738D01*
X031808Y010673D01*
X031687Y010552D01*
X031622Y010394D01*
X031622Y010223D01*
X031175Y010223D01*
X031153Y010389D02*
X031217Y010410D01*
X031277Y010441D01*
X031332Y010480D01*
X031380Y010528D01*
X031420Y010583D01*
X031450Y010643D01*
X031471Y010708D01*
X031482Y010774D01*
X031482Y010778D01*
X031082Y010778D01*
X031082Y010378D01*
X031086Y010378D01*
X031153Y010389D01*
X031082Y010420D02*
X031022Y010420D01*
X031022Y010378D02*
X031022Y010778D01*
X031082Y010778D01*
X031082Y010838D01*
X031482Y010838D01*
X031482Y010842D01*
X031471Y010909D01*
X031450Y010973D01*
X031420Y011034D01*
X031380Y011088D01*
X031332Y011136D01*
X031277Y011176D01*
X031217Y011207D01*
X031153Y011228D01*
X031086Y011238D01*
X031082Y011238D01*
X031082Y010839D01*
X031022Y010839D01*
X031022Y011238D01*
X031018Y011238D01*
X030951Y011228D01*
X030887Y011207D01*
X030826Y011176D01*
X030772Y011136D01*
X030724Y011088D01*
X030684Y011034D01*
X030653Y010973D01*
X030632Y010909D01*
X030622Y010842D01*
X030622Y010838D01*
X031022Y010838D01*
X031022Y010778D01*
X030622Y010778D01*
X030622Y010774D01*
X030632Y010708D01*
X030653Y010643D01*
X030684Y010583D01*
X030724Y010528D01*
X030772Y010480D01*
X030826Y010441D01*
X030887Y010410D01*
X030951Y010389D01*
X031018Y010378D01*
X031022Y010378D01*
X031022Y010518D02*
X031082Y010518D01*
X031082Y010617D02*
X031022Y010617D01*
X031022Y010716D02*
X031082Y010716D01*
X031082Y010814D02*
X032702Y010814D01*
X032702Y010716D02*
X032192Y010716D01*
X032351Y010617D02*
X032731Y010617D01*
X032702Y010913D02*
X031470Y010913D01*
X031431Y011011D02*
X032702Y011011D01*
X032702Y011110D02*
X031359Y011110D01*
X031212Y011208D02*
X032740Y011208D01*
X033302Y011307D02*
X029836Y011307D01*
X029738Y011405D02*
X033302Y011405D01*
X033302Y011504D02*
X029639Y011504D01*
X029541Y011602D02*
X033302Y011602D01*
X033302Y011701D02*
X029442Y011701D01*
X029343Y011799D02*
X033302Y011799D01*
X033302Y011898D02*
X029245Y011898D01*
X029146Y011997D02*
X033302Y011997D01*
X033302Y012095D02*
X029048Y012095D01*
X028949Y012194D02*
X033213Y012194D01*
X033114Y012292D02*
X028851Y012292D01*
X028752Y012391D02*
X031116Y012391D01*
X031017Y012489D02*
X028654Y012489D01*
X028555Y012588D02*
X030919Y012588D01*
X030820Y012686D02*
X028457Y012686D01*
X028358Y012785D02*
X030722Y012785D01*
X030623Y012883D02*
X028259Y012883D01*
X028161Y012982D02*
X030525Y012982D01*
X030426Y013081D02*
X028062Y013081D01*
X027964Y013179D02*
X030328Y013179D01*
X030229Y013278D02*
X027865Y013278D01*
X027767Y013376D02*
X030130Y013376D01*
X030066Y013475D02*
X027668Y013475D01*
X027570Y013573D02*
X030052Y013573D01*
X030052Y013672D02*
X021924Y013672D01*
X021924Y013770D02*
X030052Y013770D01*
X030052Y013869D02*
X021924Y013869D01*
X021883Y013967D02*
X030052Y013967D01*
X030052Y014066D02*
X021442Y014066D01*
X021541Y014165D02*
X030052Y014165D01*
X030052Y014263D02*
X027990Y014263D01*
X028088Y014362D02*
X030052Y014362D01*
X030052Y014460D02*
X028187Y014460D01*
X028285Y014559D02*
X030052Y014559D01*
X030052Y014657D02*
X028384Y014657D01*
X028482Y014756D02*
X030052Y014756D01*
X030052Y014854D02*
X028581Y014854D01*
X028679Y014953D02*
X030052Y014953D01*
X030052Y015051D02*
X028778Y015051D01*
X028876Y015150D02*
X030052Y015150D01*
X030052Y015249D02*
X028975Y015249D01*
X029074Y015347D02*
X030052Y015347D01*
X030052Y015446D02*
X029172Y015446D01*
X029271Y015544D02*
X030052Y015544D01*
X030052Y015643D02*
X029369Y015643D01*
X029468Y015741D02*
X030052Y015741D01*
X030052Y015840D02*
X029502Y015840D01*
X029502Y015938D02*
X030052Y015938D01*
X030052Y016037D02*
X029502Y016037D01*
X029502Y016135D02*
X030052Y016135D01*
X030052Y016234D02*
X029502Y016234D01*
X029502Y016332D02*
X030052Y016332D01*
X030052Y016431D02*
X029502Y016431D01*
X029502Y016530D02*
X030052Y016530D01*
X030052Y016628D02*
X029502Y016628D01*
X029502Y016727D02*
X030052Y016727D01*
X030052Y016825D02*
X029502Y016825D01*
X029502Y016924D02*
X030052Y016924D01*
X030052Y017022D02*
X029502Y017022D01*
X029502Y017121D02*
X030052Y017121D01*
X030052Y017219D02*
X029502Y017219D01*
X029502Y017318D02*
X030052Y017318D01*
X030052Y017416D02*
X029502Y017416D01*
X029502Y017515D02*
X030052Y017515D01*
X030052Y017614D02*
X029502Y017614D01*
X029502Y017712D02*
X030052Y017712D01*
X030052Y017811D02*
X029502Y017811D01*
X029502Y017909D02*
X030052Y017909D01*
X030052Y018008D02*
X029609Y018008D01*
X029684Y018106D02*
X030052Y018106D01*
X030052Y018205D02*
X029724Y018205D01*
X029732Y018303D02*
X030052Y018303D01*
X030052Y018402D02*
X029729Y018402D01*
X029688Y018500D02*
X030052Y018500D01*
X030052Y018599D02*
X029619Y018599D01*
X029486Y018698D02*
X030052Y018698D01*
X030052Y018796D02*
X025552Y018796D01*
X025552Y018698D02*
X026118Y018698D01*
X025985Y018599D02*
X025619Y018599D01*
X025688Y018500D02*
X025916Y018500D01*
X025875Y018402D02*
X025729Y018402D01*
X025732Y018303D02*
X025872Y018303D01*
X025879Y018205D02*
X025724Y018205D01*
X025684Y018106D02*
X025817Y018106D01*
X025802Y017808D02*
X026302Y018308D01*
X026732Y018303D02*
X026872Y018303D01*
X026879Y018205D02*
X026724Y018205D01*
X026684Y018106D02*
X026817Y018106D01*
X026802Y017808D02*
X027302Y018308D01*
X027732Y018303D02*
X027872Y018303D01*
X027879Y018205D02*
X027724Y018205D01*
X027684Y018106D02*
X027817Y018106D01*
X027802Y017808D02*
X028302Y018308D01*
X028609Y018008D02*
X028994Y018008D01*
X028920Y018106D02*
X028684Y018106D01*
X028724Y018205D02*
X028879Y018205D01*
X028872Y018303D02*
X028732Y018303D01*
X028729Y018402D02*
X028875Y018402D01*
X028916Y018500D02*
X028688Y018500D01*
X028619Y018599D02*
X028985Y018599D01*
X029118Y018698D02*
X028486Y018698D01*
X028118Y018698D02*
X027486Y018698D01*
X027619Y018599D02*
X027985Y018599D01*
X027916Y018500D02*
X027688Y018500D01*
X027729Y018402D02*
X027875Y018402D01*
X027802Y017808D02*
X027602Y017808D01*
X027302Y017508D01*
X027302Y016958D01*
X026802Y016458D01*
X026802Y015858D01*
X026152Y015208D01*
X020902Y015208D01*
X019774Y014081D01*
X019774Y013629D01*
X019459Y013629D02*
X019459Y014116D01*
X020752Y015408D01*
X025852Y015408D01*
X026302Y015858D01*
X026302Y017508D01*
X026602Y017808D01*
X026802Y017808D01*
X026729Y018402D02*
X026875Y018402D01*
X026916Y018500D02*
X026688Y018500D01*
X026619Y018599D02*
X026985Y018599D01*
X027118Y018698D02*
X026486Y018698D01*
X026556Y018993D02*
X030013Y018993D01*
X030052Y018895D02*
X025552Y018895D01*
X025599Y018993D02*
X025605Y018993D01*
X025052Y018958D02*
X025052Y018666D01*
X024937Y018552D01*
X024872Y018394D01*
X024872Y018223D01*
X024937Y018065D01*
X025058Y017944D01*
X025216Y017878D01*
X025387Y017878D01*
X025390Y017879D01*
X025115Y017604D01*
X025082Y017636D01*
X025027Y017676D01*
X024967Y017707D01*
X024903Y017728D01*
X024836Y017738D01*
X024832Y017738D01*
X024832Y017339D01*
X024772Y017339D01*
X024772Y017738D01*
X024768Y017738D01*
X024701Y017728D01*
X024637Y017707D01*
X024576Y017676D01*
X024522Y017636D01*
X024474Y017588D01*
X024434Y017534D01*
X024403Y017473D01*
X024382Y017409D01*
X024372Y017342D01*
X024372Y017338D01*
X024772Y017338D01*
X024772Y017278D01*
X024832Y017278D01*
X024832Y016878D01*
X024836Y016878D01*
X024903Y016889D01*
X024967Y016910D01*
X025027Y016941D01*
X025082Y016980D01*
X025102Y017000D01*
X025102Y016698D01*
X025099Y016706D01*
X025000Y016805D01*
X024871Y016858D01*
X024732Y016858D01*
X024604Y016805D01*
X024505Y016706D01*
X024452Y016578D01*
X024452Y016441D01*
X024019Y016008D01*
X020369Y016008D01*
X020252Y015891D01*
X018629Y014269D01*
X018629Y014103D01*
X018629Y014014D01*
X018399Y014014D01*
X018399Y014073D01*
X021289Y016963D01*
X021308Y016944D01*
X021466Y016878D01*
X021637Y016878D01*
X021795Y016944D01*
X021916Y017065D01*
X021982Y017223D01*
X021982Y017394D01*
X021916Y017552D01*
X021795Y017673D01*
X021637Y017738D01*
X021466Y017738D01*
X021308Y017673D01*
X021187Y017552D01*
X021122Y017394D01*
X021122Y017361D01*
X020981Y017220D01*
X020982Y017223D01*
X020982Y017394D01*
X020916Y017552D01*
X020795Y017673D01*
X020637Y017738D01*
X020466Y017738D01*
X020308Y017673D01*
X020187Y017552D01*
X020122Y017394D01*
X020122Y017223D01*
X020187Y017065D01*
X020306Y016946D01*
X019752Y016391D01*
X019752Y016926D01*
X019795Y016944D01*
X019916Y017065D01*
X019982Y017223D01*
X019982Y017394D01*
X019916Y017552D01*
X019795Y017673D01*
X019637Y017738D01*
X019466Y017738D01*
X019308Y017673D01*
X019187Y017552D01*
X019122Y017394D01*
X019122Y017223D01*
X019187Y017065D01*
X019308Y016944D01*
X019352Y016926D01*
X019352Y016391D01*
X018752Y015791D01*
X018752Y016926D01*
X018795Y016944D01*
X018916Y017065D01*
X018982Y017223D01*
X018982Y017394D01*
X018916Y017552D01*
X018795Y017673D01*
X018637Y017738D01*
X018466Y017738D01*
X018308Y017673D01*
X018187Y017552D01*
X018122Y017394D01*
X018122Y017223D01*
X018187Y017065D01*
X018308Y016944D01*
X018352Y016926D01*
X018352Y015791D01*
X017055Y014494D01*
X017055Y014328D01*
X017055Y014014D01*
X016768Y014014D01*
X016680Y013926D01*
X016680Y013829D01*
X016456Y013829D01*
X016502Y013939D01*
X016502Y014078D01*
X016449Y014206D01*
X016402Y014253D01*
X016402Y019558D01*
X017102Y019558D01*
X017102Y019046D01*
X017190Y018958D01*
X017714Y018958D01*
X017752Y018996D01*
X017790Y018958D01*
X017802Y018958D01*
X017802Y018666D01*
X017687Y018552D01*
X017622Y018394D01*
X017622Y018223D01*
X017687Y018065D01*
X017808Y017944D01*
X017966Y017878D01*
X018137Y017878D01*
X018295Y017944D01*
X018416Y018065D01*
X018482Y018223D01*
X018482Y018394D01*
X018416Y018552D01*
X018302Y018666D01*
X018302Y018958D01*
X018314Y018958D01*
X018352Y018996D01*
X018390Y018958D01*
X018914Y018958D01*
X018963Y019008D01*
X019082Y018958D01*
X019221Y018958D01*
X019350Y019012D01*
X019449Y019110D01*
X019502Y019239D01*
X019502Y019378D01*
X019449Y019506D01*
X019397Y019558D01*
X024352Y019558D01*
X024352Y019046D01*
X024440Y018958D01*
X024964Y018958D01*
X025002Y018996D01*
X025040Y018958D01*
X025052Y018958D01*
X025005Y018993D02*
X024999Y018993D01*
X025052Y018895D02*
X018302Y018895D01*
X018302Y018796D02*
X025052Y018796D01*
X025052Y018698D02*
X022236Y018698D01*
X022295Y018673D02*
X022137Y018738D01*
X021966Y018738D01*
X021808Y018673D01*
X021687Y018552D01*
X021622Y018394D01*
X021622Y018223D01*
X021687Y018065D01*
X021808Y017944D01*
X021966Y017878D01*
X022137Y017878D01*
X022295Y017944D01*
X022416Y018065D01*
X022482Y018223D01*
X022482Y018394D01*
X022416Y018552D01*
X022295Y018673D01*
X022369Y018599D02*
X024985Y018599D01*
X024916Y018500D02*
X022438Y018500D01*
X022479Y018402D02*
X024875Y018402D01*
X024872Y018303D02*
X022482Y018303D01*
X022474Y018205D02*
X024879Y018205D01*
X024920Y018106D02*
X022434Y018106D01*
X022359Y018008D02*
X024994Y018008D01*
X025142Y017909D02*
X022212Y017909D01*
X021892Y017909D02*
X021212Y017909D01*
X021137Y017878D02*
X021295Y017944D01*
X021416Y018065D01*
X021482Y018223D01*
X021482Y018394D01*
X021416Y018552D01*
X021295Y018673D01*
X021137Y018738D01*
X020966Y018738D01*
X020808Y018673D01*
X020687Y018552D01*
X020622Y018394D01*
X020622Y018223D01*
X020687Y018065D01*
X020808Y017944D01*
X020966Y017878D01*
X021137Y017878D01*
X020892Y017909D02*
X020212Y017909D01*
X020137Y017878D02*
X020295Y017944D01*
X020416Y018065D01*
X020482Y018223D01*
X020482Y018394D01*
X020416Y018552D01*
X020295Y018673D01*
X020137Y018738D01*
X019966Y018738D01*
X019808Y018673D01*
X019687Y018552D01*
X019622Y018394D01*
X019622Y018223D01*
X019687Y018065D01*
X019808Y017944D01*
X019966Y017878D01*
X020137Y017878D01*
X019892Y017909D02*
X019212Y017909D01*
X019137Y017878D02*
X019295Y017944D01*
X019416Y018065D01*
X019482Y018223D01*
X019482Y018394D01*
X019416Y018552D01*
X019295Y018673D01*
X019137Y018738D01*
X018966Y018738D01*
X018808Y018673D01*
X018687Y018552D01*
X018622Y018394D01*
X018622Y018223D01*
X018687Y018065D01*
X018808Y017944D01*
X018966Y017878D01*
X019137Y017878D01*
X018892Y017909D02*
X018212Y017909D01*
X018359Y018008D02*
X018744Y018008D01*
X018670Y018106D02*
X018434Y018106D01*
X018474Y018205D02*
X018629Y018205D01*
X018622Y018303D02*
X018482Y018303D01*
X018479Y018402D02*
X018625Y018402D01*
X018666Y018500D02*
X018438Y018500D01*
X018369Y018599D02*
X018735Y018599D01*
X018868Y018698D02*
X018302Y018698D01*
X018349Y018993D02*
X018355Y018993D01*
X018949Y018993D02*
X018998Y018993D01*
X019306Y018993D02*
X024405Y018993D01*
X024352Y019092D02*
X019430Y019092D01*
X019482Y019190D02*
X024352Y019190D01*
X024352Y019289D02*
X019502Y019289D01*
X019498Y019387D02*
X024352Y019387D01*
X024352Y019486D02*
X019457Y019486D01*
X019236Y018698D02*
X019868Y018698D01*
X019735Y018599D02*
X019369Y018599D01*
X019438Y018500D02*
X019666Y018500D01*
X019625Y018402D02*
X019479Y018402D01*
X019482Y018303D02*
X019622Y018303D01*
X019629Y018205D02*
X019474Y018205D01*
X019434Y018106D02*
X019670Y018106D01*
X019744Y018008D02*
X019359Y018008D01*
X019403Y017712D02*
X018701Y017712D01*
X018855Y017614D02*
X019249Y017614D01*
X019172Y017515D02*
X018932Y017515D01*
X018972Y017416D02*
X019131Y017416D01*
X019122Y017318D02*
X018982Y017318D01*
X018980Y017219D02*
X019123Y017219D01*
X019164Y017121D02*
X018940Y017121D01*
X018874Y017022D02*
X019230Y017022D01*
X019352Y016924D02*
X018752Y016924D01*
X018752Y016825D02*
X019352Y016825D01*
X019352Y016727D02*
X018752Y016727D01*
X018752Y016628D02*
X019352Y016628D01*
X019352Y016530D02*
X018752Y016530D01*
X018752Y016431D02*
X019352Y016431D01*
X019293Y016332D02*
X018752Y016332D01*
X018752Y016234D02*
X019195Y016234D01*
X019096Y016135D02*
X018752Y016135D01*
X018752Y016037D02*
X018998Y016037D01*
X018899Y015938D02*
X018752Y015938D01*
X018752Y015840D02*
X018801Y015840D01*
X018552Y015708D02*
X018552Y017308D01*
X018122Y017318D02*
X017582Y017318D01*
X017582Y017338D02*
X017982Y017338D01*
X017982Y017342D01*
X017971Y017409D01*
X017950Y017473D01*
X017920Y017534D01*
X017880Y017588D01*
X017832Y017636D01*
X017777Y017676D01*
X017717Y017707D01*
X017653Y017728D01*
X017586Y017738D01*
X017582Y017738D01*
X017582Y017339D01*
X017522Y017339D01*
X017522Y017738D01*
X017518Y017738D01*
X017451Y017728D01*
X017387Y017707D01*
X017326Y017676D01*
X017272Y017636D01*
X017224Y017588D01*
X017184Y017534D01*
X017153Y017473D01*
X017132Y017409D01*
X017122Y017342D01*
X017122Y017338D01*
X017522Y017338D01*
X017522Y017278D01*
X017582Y017278D01*
X017582Y016878D01*
X017586Y016878D01*
X017653Y016889D01*
X017717Y016910D01*
X017777Y016941D01*
X017832Y016980D01*
X017880Y017028D01*
X017920Y017083D01*
X017950Y017143D01*
X017971Y017208D01*
X017982Y017274D01*
X017982Y017278D01*
X017582Y017278D01*
X017582Y017338D01*
X017522Y017318D02*
X016402Y017318D01*
X016402Y017416D02*
X017135Y017416D01*
X017175Y017515D02*
X016402Y017515D01*
X016402Y017614D02*
X017249Y017614D01*
X017403Y017712D02*
X016402Y017712D01*
X016402Y017811D02*
X025321Y017811D01*
X025223Y017712D02*
X024950Y017712D01*
X024832Y017712D02*
X024772Y017712D01*
X024772Y017614D02*
X024832Y017614D01*
X024832Y017515D02*
X024772Y017515D01*
X024772Y017416D02*
X024832Y017416D01*
X024772Y017318D02*
X021982Y017318D01*
X021980Y017219D02*
X024381Y017219D01*
X024382Y017208D02*
X024403Y017143D01*
X024434Y017083D01*
X024474Y017028D01*
X024522Y016980D01*
X024576Y016941D01*
X024637Y016910D01*
X024701Y016889D01*
X024768Y016878D01*
X024772Y016878D01*
X024772Y017278D01*
X024372Y017278D01*
X024372Y017274D01*
X024382Y017208D01*
X024415Y017121D02*
X021940Y017121D01*
X021874Y017022D02*
X024480Y017022D01*
X024609Y016924D02*
X021747Y016924D01*
X021357Y016924D02*
X021250Y016924D01*
X021152Y016825D02*
X024653Y016825D01*
X024772Y016924D02*
X024832Y016924D01*
X024832Y017022D02*
X024772Y017022D01*
X024772Y017121D02*
X024832Y017121D01*
X024832Y017219D02*
X024772Y017219D01*
X024385Y017416D02*
X021972Y017416D01*
X021932Y017515D02*
X024425Y017515D01*
X024499Y017614D02*
X021855Y017614D01*
X021701Y017712D02*
X024653Y017712D01*
X025105Y017614D02*
X025124Y017614D01*
X025302Y017508D02*
X025602Y017808D01*
X025802Y017808D01*
X025302Y017508D02*
X025302Y015858D01*
X025052Y015608D01*
X020602Y015608D01*
X019144Y014151D01*
X019144Y013629D01*
X018829Y013629D02*
X018829Y014186D01*
X020452Y015808D01*
X024102Y015808D01*
X024802Y016508D01*
X024473Y016628D02*
X020955Y016628D01*
X021053Y016727D02*
X024525Y016727D01*
X024452Y016530D02*
X020856Y016530D01*
X020757Y016431D02*
X024442Y016431D01*
X024343Y016332D02*
X020659Y016332D01*
X020560Y016234D02*
X024245Y016234D01*
X024146Y016135D02*
X020462Y016135D01*
X020363Y016037D02*
X024048Y016037D01*
X025078Y016727D02*
X025102Y016727D01*
X025102Y016825D02*
X024951Y016825D01*
X024994Y016924D02*
X025102Y016924D01*
X027302Y016358D02*
X027302Y015858D01*
X026452Y015008D01*
X021052Y015008D01*
X020089Y014046D01*
X020089Y013629D01*
X020404Y013629D02*
X020404Y014011D01*
X021202Y014808D01*
X026752Y014808D01*
X027802Y015858D01*
X027802Y017308D01*
X028124Y017022D02*
X028480Y017022D01*
X028414Y017121D02*
X028190Y017121D01*
X028230Y017219D02*
X028373Y017219D01*
X028372Y017318D02*
X028232Y017318D01*
X028222Y017416D02*
X028381Y017416D01*
X028422Y017515D02*
X028182Y017515D01*
X028105Y017614D02*
X028499Y017614D01*
X028653Y017712D02*
X027989Y017712D01*
X028087Y017811D02*
X029102Y017811D01*
X029102Y017909D02*
X028462Y017909D01*
X028951Y017712D02*
X029102Y017712D01*
X028802Y017308D02*
X028802Y015858D01*
X027552Y014608D01*
X021352Y014608D01*
X020719Y013976D01*
X020719Y013629D01*
X021034Y013629D02*
X021034Y013941D01*
X021502Y014408D01*
X027852Y014408D01*
X029302Y015858D01*
X029302Y018308D01*
X029915Y019092D02*
X026680Y019092D01*
X026732Y019190D02*
X029816Y019190D01*
X029718Y019289D02*
X026752Y019289D01*
X026748Y019387D02*
X029619Y019387D01*
X029521Y019486D02*
X026707Y019486D01*
X026248Y018993D02*
X026199Y018993D01*
X028002Y016924D02*
X028602Y016924D01*
X028602Y016825D02*
X028002Y016825D01*
X028002Y016727D02*
X028602Y016727D01*
X028602Y016628D02*
X028002Y016628D01*
X028002Y016530D02*
X028602Y016530D01*
X028602Y016431D02*
X028002Y016431D01*
X028002Y016332D02*
X028602Y016332D01*
X028602Y016234D02*
X028002Y016234D01*
X028002Y016135D02*
X028602Y016135D01*
X028602Y016037D02*
X028002Y016037D01*
X028002Y015938D02*
X028599Y015938D01*
X028501Y015840D02*
X028002Y015840D01*
X027968Y015741D02*
X028402Y015741D01*
X028303Y015643D02*
X027869Y015643D01*
X027885Y015658D02*
X027885Y015658D01*
X027771Y015544D02*
X028205Y015544D01*
X028106Y015446D02*
X027672Y015446D01*
X027573Y015347D02*
X028008Y015347D01*
X027909Y015249D02*
X027475Y015249D01*
X027376Y015150D02*
X027811Y015150D01*
X027712Y015051D02*
X027278Y015051D01*
X027179Y014953D02*
X027614Y014953D01*
X027515Y014854D02*
X027081Y014854D01*
X027452Y013408D02*
X031052Y009808D01*
X031444Y009632D02*
X031767Y009632D01*
X031680Y009533D02*
X031385Y009533D01*
X031273Y009434D02*
X031639Y009434D01*
X031622Y009336D02*
X030802Y009336D01*
X030799Y009434D02*
X030831Y009434D01*
X030781Y009237D02*
X030964Y009237D01*
X031140Y009237D02*
X031622Y009237D01*
X031657Y009139D02*
X031329Y009139D01*
X031421Y009040D02*
X031712Y009040D01*
X031813Y008942D02*
X031462Y008942D01*
X031482Y008843D02*
X032234Y008843D01*
X032333Y008745D02*
X031482Y008745D01*
X031497Y008646D02*
X031782Y008646D01*
X031686Y008548D02*
X031595Y008548D01*
X031552Y008308D02*
X031052Y008808D01*
X030654Y008646D02*
X030497Y008646D01*
X030595Y008548D02*
X030704Y008548D01*
X030694Y008449D02*
X030803Y008449D01*
X030792Y008350D02*
X031227Y008350D01*
X031325Y008252D02*
X030891Y008252D01*
X031315Y008153D02*
X031352Y008153D01*
X031552Y008308D02*
X031552Y007558D01*
X031302Y007308D01*
X030752Y007308D01*
X029752Y008308D01*
X029752Y009858D01*
X026802Y012808D01*
X023202Y012808D01*
X022684Y012291D01*
X022373Y012291D01*
X022373Y011976D02*
X021985Y011976D01*
X021852Y012108D01*
X021852Y013058D01*
X022202Y013408D01*
X027452Y013408D01*
X027252Y013208D02*
X030302Y010158D01*
X030302Y009508D01*
X030452Y009358D01*
X030599Y009040D02*
X030683Y009040D01*
X030642Y008942D02*
X030202Y008942D01*
X030202Y009040D02*
X030305Y009040D01*
X030300Y008843D02*
X030622Y008843D01*
X030622Y008745D02*
X030398Y008745D01*
X030002Y008858D02*
X031052Y007808D01*
X030412Y007365D02*
X029728Y007365D01*
X029826Y007266D02*
X030511Y007266D01*
X030552Y007225D02*
X030669Y007108D01*
X030744Y007108D01*
X030687Y007052D01*
X030622Y006894D01*
X030622Y006723D01*
X030687Y006565D01*
X030744Y006508D01*
X030585Y006508D01*
X029135Y007958D01*
X028969Y007958D01*
X023219Y007958D01*
X023252Y008039D01*
X023252Y008178D01*
X023199Y008306D01*
X023100Y008405D01*
X023079Y008414D01*
X023016Y008477D01*
X023100Y008512D01*
X023199Y008610D01*
X023252Y008739D01*
X023252Y008878D01*
X023199Y009006D01*
X023100Y009105D01*
X022971Y009158D01*
X022832Y009158D01*
X022758Y009127D01*
X022758Y009284D01*
X022758Y009628D01*
X022755Y009631D01*
X022758Y009641D01*
X022758Y009766D01*
X022378Y009766D01*
X022378Y009776D01*
X022758Y009776D01*
X022758Y009886D01*
X022991Y009886D01*
X023402Y009475D01*
X023402Y008846D01*
X023490Y008758D01*
X024202Y008758D01*
X024202Y008655D01*
X024108Y008655D01*
X024052Y008599D01*
X024026Y008625D01*
X023992Y008645D01*
X023954Y008655D01*
X023766Y008655D01*
X023766Y008357D01*
X023669Y008357D01*
X023669Y008655D01*
X023481Y008655D01*
X023443Y008645D01*
X023409Y008625D01*
X023381Y008597D01*
X023361Y008563D01*
X023351Y008525D01*
X023351Y008357D01*
X023669Y008357D01*
X023669Y008260D01*
X023766Y008260D01*
X023766Y007961D01*
X023954Y007961D01*
X023992Y007972D01*
X024026Y007991D01*
X024052Y008017D01*
X024108Y007961D01*
X024665Y007961D01*
X024753Y008049D01*
X024753Y008567D01*
X024665Y008655D01*
X024602Y008655D01*
X024602Y008758D01*
X024614Y008758D01*
X024702Y008846D01*
X024702Y009670D01*
X024614Y009758D01*
X023685Y009758D01*
X023242Y010201D01*
X023362Y010201D01*
X023527Y010201D01*
X023685Y010358D01*
X024614Y010358D01*
X024702Y010446D01*
X024702Y011270D01*
X024614Y011358D01*
X024602Y011358D01*
X024602Y011461D01*
X024665Y011461D01*
X024753Y011549D01*
X024753Y012067D01*
X024665Y012155D01*
X024108Y012155D01*
X024052Y012099D01*
X024026Y012125D01*
X023992Y012145D01*
X023954Y012155D01*
X023766Y012155D01*
X023766Y011857D01*
X023669Y011857D01*
X023669Y012155D01*
X023481Y012155D01*
X023443Y012145D01*
X023409Y012125D01*
X023381Y012097D01*
X023361Y012063D01*
X023351Y012025D01*
X023351Y011857D01*
X023669Y011857D01*
X023669Y011760D01*
X023766Y011760D01*
X023766Y011461D01*
X023954Y011461D01*
X023992Y011472D01*
X024026Y011491D01*
X024052Y011517D01*
X024108Y011461D01*
X024202Y011461D01*
X024202Y011358D01*
X023490Y011358D01*
X023402Y011270D01*
X023402Y010641D01*
X023362Y010601D01*
X022758Y010601D01*
X022758Y010859D01*
X022758Y011174D01*
X022758Y011488D01*
X022758Y011803D01*
X022758Y012091D01*
X022767Y012091D01*
X023285Y012608D01*
X026719Y012608D01*
X029552Y009775D01*
X029552Y008391D01*
X029552Y008225D01*
X030552Y007225D01*
X030609Y007168D02*
X029925Y007168D01*
X030024Y007069D02*
X030705Y007069D01*
X030654Y006971D02*
X030122Y006971D01*
X030221Y006872D02*
X030622Y006872D01*
X030622Y006774D02*
X030319Y006774D01*
X030418Y006675D02*
X030642Y006675D01*
X030682Y006577D02*
X030516Y006577D01*
X030502Y006308D02*
X031302Y006308D01*
X032052Y007058D01*
X032052Y007308D01*
X032602Y007758D02*
X032052Y008308D01*
X032459Y008449D02*
X032628Y008449D01*
X032652Y008350D02*
X032482Y008350D01*
X032482Y008252D02*
X032652Y008252D01*
X032652Y008153D02*
X032490Y008153D01*
X032588Y008055D02*
X032652Y008055D01*
X032602Y007758D02*
X032602Y006108D01*
X032202Y005708D01*
X030752Y005708D01*
X028902Y007558D01*
X021735Y007558D01*
X021664Y007487D01*
X021352Y007485D02*
X021352Y007158D01*
X021452Y007058D01*
X021902Y007058D01*
X022202Y007358D01*
X028752Y007358D01*
X030652Y005458D01*
X032302Y005458D01*
X032852Y006008D01*
X032852Y008508D01*
X032052Y009308D01*
X032482Y009336D02*
X032726Y009336D01*
X032702Y009278D02*
X032702Y009139D01*
X032504Y009139D01*
X032482Y009237D02*
X032702Y009237D01*
X032702Y009278D02*
X032751Y009397D01*
X032702Y009446D01*
X032702Y009970D01*
X032740Y010008D01*
X032702Y010046D01*
X032702Y010058D01*
X032410Y010058D01*
X032295Y009944D01*
X032137Y009878D01*
X031966Y009878D01*
X031808Y009944D01*
X031687Y010065D01*
X031622Y010223D01*
X031622Y010321D02*
X030822Y010321D01*
X030867Y010420D02*
X030723Y010420D01*
X030734Y010518D02*
X030625Y010518D01*
X030667Y010617D02*
X030526Y010617D01*
X030427Y010716D02*
X030631Y010716D01*
X030634Y010913D02*
X030230Y010913D01*
X030132Y011011D02*
X030673Y011011D01*
X030745Y011110D02*
X030033Y011110D01*
X029935Y011208D02*
X030891Y011208D01*
X031022Y011208D02*
X031082Y011208D01*
X031082Y011110D02*
X031022Y011110D01*
X031022Y011011D02*
X031082Y011011D01*
X031082Y010913D02*
X031022Y010913D01*
X031022Y010814D02*
X030329Y010814D01*
X030920Y010223D02*
X030929Y010223D01*
X031237Y010420D02*
X031633Y010420D01*
X031674Y010518D02*
X031370Y010518D01*
X031437Y010617D02*
X031753Y010617D01*
X031912Y010716D02*
X031473Y010716D01*
X031344Y010124D02*
X031663Y010124D01*
X031726Y010026D02*
X031427Y010026D01*
X031468Y009927D02*
X031848Y009927D01*
X031947Y009730D02*
X031482Y009730D01*
X031482Y009829D02*
X032702Y009829D01*
X032702Y009927D02*
X032255Y009927D01*
X032377Y010026D02*
X032722Y010026D01*
X032702Y009730D02*
X032157Y009730D01*
X032337Y009632D02*
X032702Y009632D01*
X032702Y009533D02*
X032424Y009533D01*
X032465Y009434D02*
X032714Y009434D01*
X032702Y009139D02*
X032755Y009010D01*
X032854Y008912D01*
X032982Y008858D01*
X033121Y008858D01*
X033250Y008912D01*
X033302Y008963D01*
X033302Y005062D01*
X033048Y004808D01*
X031352Y004808D01*
X031252Y004808D01*
X031160Y004770D01*
X030160Y003770D01*
X030090Y003700D01*
X030052Y003608D01*
X030052Y002812D01*
X029398Y002158D01*
X029140Y002158D01*
X029102Y002120D01*
X029064Y002158D01*
X029052Y002158D01*
X029052Y002450D01*
X029166Y002565D01*
X029232Y002723D01*
X029232Y002894D01*
X029166Y003052D01*
X029045Y003173D01*
X028887Y003238D01*
X028716Y003238D01*
X028558Y003173D01*
X028687Y003226D02*
X028002Y003226D01*
X028002Y003325D02*
X030052Y003325D01*
X030052Y003423D02*
X029493Y003423D01*
X029467Y003410D02*
X029527Y003441D01*
X029582Y003480D01*
X029630Y003528D01*
X029670Y003583D01*
X029700Y003643D01*
X029721Y003708D01*
X029732Y003774D01*
X029732Y003778D01*
X029332Y003778D01*
X029332Y003378D01*
X029336Y003378D01*
X029403Y003389D01*
X029467Y003410D01*
X029332Y003423D02*
X029272Y003423D01*
X029272Y003378D02*
X029272Y003778D01*
X029332Y003778D01*
X029332Y003838D01*
X029732Y003838D01*
X029732Y003842D01*
X029721Y003909D01*
X029700Y003973D01*
X029670Y004034D01*
X029630Y004088D01*
X029582Y004136D01*
X029527Y004176D01*
X029467Y004207D01*
X029403Y004228D01*
X029336Y004238D01*
X029332Y004238D01*
X029332Y003839D01*
X029272Y003839D01*
X029272Y004238D01*
X029268Y004238D01*
X029201Y004228D01*
X029137Y004207D01*
X029076Y004176D01*
X029022Y004136D01*
X028974Y004088D01*
X028934Y004034D01*
X028903Y003973D01*
X028882Y003909D01*
X028872Y003842D01*
X028872Y003838D01*
X029272Y003838D01*
X029272Y003778D01*
X028872Y003778D01*
X028872Y003774D01*
X028882Y003708D01*
X028903Y003643D01*
X028934Y003583D01*
X028974Y003528D01*
X029022Y003480D01*
X029076Y003441D01*
X029137Y003410D01*
X029201Y003389D01*
X029268Y003378D01*
X029272Y003378D01*
X029272Y003522D02*
X029332Y003522D01*
X029332Y003620D02*
X029272Y003620D01*
X029272Y003719D02*
X029332Y003719D01*
X029332Y003817D02*
X030208Y003817D01*
X030109Y003719D02*
X029723Y003719D01*
X029689Y003620D02*
X030057Y003620D01*
X030052Y003522D02*
X029624Y003522D01*
X030052Y003226D02*
X028916Y003226D01*
X029091Y003128D02*
X030052Y003128D01*
X030052Y003029D02*
X029176Y003029D01*
X029217Y002931D02*
X030052Y002931D01*
X030052Y002832D02*
X029232Y002832D01*
X029232Y002734D02*
X029974Y002734D01*
X029875Y002635D02*
X029195Y002635D01*
X029138Y002536D02*
X029777Y002536D01*
X029678Y002438D02*
X029052Y002438D01*
X029052Y002339D02*
X029579Y002339D01*
X029481Y002241D02*
X029052Y002241D01*
X029080Y002142D02*
X029124Y002142D01*
X028552Y002241D02*
X027467Y002241D01*
X027502Y002339D02*
X028552Y002339D01*
X028552Y002438D02*
X028031Y002438D01*
X028138Y002536D02*
X028466Y002536D01*
X028408Y002635D02*
X028195Y002635D01*
X028232Y002734D02*
X028372Y002734D01*
X028372Y002832D02*
X028232Y002832D01*
X028217Y002931D02*
X028387Y002931D01*
X028428Y003029D02*
X028176Y003029D01*
X028108Y003423D02*
X028002Y003423D01*
X028496Y003423D02*
X029110Y003423D01*
X028980Y003522D02*
X028624Y003522D01*
X028689Y003620D02*
X028915Y003620D01*
X028881Y003719D02*
X028730Y003719D01*
X028732Y003817D02*
X029272Y003817D01*
X029272Y003916D02*
X029332Y003916D01*
X029332Y004015D02*
X029272Y004015D01*
X029272Y004113D02*
X029332Y004113D01*
X029332Y004212D02*
X029272Y004212D01*
X029152Y004212D02*
X028502Y004212D01*
X028502Y004310D02*
X030700Y004310D01*
X030602Y004212D02*
X029452Y004212D01*
X029605Y004113D02*
X030503Y004113D01*
X030405Y004015D02*
X029679Y004015D01*
X029719Y003916D02*
X030306Y003916D01*
X030799Y004409D02*
X028502Y004409D01*
X028502Y004507D02*
X030897Y004507D01*
X030996Y004606D02*
X028502Y004606D01*
X028502Y004704D02*
X031094Y004704D01*
X031239Y004803D02*
X028502Y004803D01*
X028502Y004901D02*
X033142Y004901D01*
X033240Y005000D02*
X030439Y005000D01*
X030515Y005099D02*
X033302Y005099D01*
X033302Y005197D02*
X030552Y005197D01*
X030202Y005258D02*
X030202Y005558D01*
X028602Y007158D01*
X022302Y007158D01*
X022002Y006858D01*
X021302Y006858D01*
X021052Y007108D01*
X021052Y007470D01*
X021034Y007487D01*
X020719Y007487D02*
X020702Y007470D01*
X020702Y006608D01*
X019952Y005858D01*
X019852Y005858D01*
X020161Y005690D02*
X020852Y005690D01*
X020827Y005788D02*
X020202Y005788D01*
X020263Y005887D02*
X020744Y005887D01*
X020703Y005985D02*
X020362Y005985D01*
X020460Y006084D02*
X020702Y006084D01*
X020725Y006183D02*
X020559Y006183D01*
X020658Y006281D02*
X020780Y006281D01*
X020756Y006380D02*
X020913Y006380D01*
X020855Y006478D02*
X028999Y006478D01*
X029098Y006380D02*
X021191Y006380D01*
X021324Y006281D02*
X029196Y006281D01*
X029295Y006183D02*
X021379Y006183D01*
X021402Y006084D02*
X029393Y006084D01*
X029492Y005985D02*
X022220Y005985D01*
X022307Y005887D02*
X029590Y005887D01*
X029689Y005788D02*
X022348Y005788D01*
X022352Y005690D02*
X029788Y005690D01*
X029886Y005591D02*
X027902Y005591D01*
X028000Y005493D02*
X029941Y005493D01*
X029879Y005394D02*
X028099Y005394D01*
X028197Y005296D02*
X029852Y005296D01*
X029852Y005197D02*
X028296Y005197D01*
X028394Y005099D02*
X029889Y005099D01*
X029965Y005000D02*
X028493Y005000D01*
X028302Y004908D02*
X028302Y003808D01*
X028605Y004113D02*
X028999Y004113D01*
X028924Y004015D02*
X028682Y004015D01*
X028723Y003916D02*
X028885Y003916D01*
X028302Y004908D02*
X027802Y005408D01*
X022302Y005408D01*
X022002Y005708D01*
X021784Y005985D02*
X021620Y005985D01*
X021402Y005708D02*
X021402Y005508D01*
X021702Y005208D01*
X027302Y005208D01*
X026217Y004808D02*
X021352Y004808D01*
X021052Y005108D01*
X021052Y006058D01*
X020902Y006577D02*
X028901Y006577D01*
X028802Y006675D02*
X022102Y006675D01*
X022200Y006774D02*
X028704Y006774D01*
X028605Y006872D02*
X022299Y006872D01*
X021202Y006675D02*
X020902Y006675D01*
X020902Y006774D02*
X021104Y006774D01*
X021005Y006872D02*
X020902Y006872D01*
X020902Y006971D02*
X020906Y006971D01*
X020402Y006758D02*
X020402Y007485D01*
X020404Y007487D01*
X020089Y007487D02*
X020089Y006996D01*
X019952Y006858D01*
X019552Y006808D02*
X019402Y006958D01*
X019302Y006958D01*
X019144Y007116D01*
X019144Y007487D01*
X019459Y007487D02*
X019459Y007951D01*
X019302Y008108D01*
X019043Y007872D02*
X019002Y007872D01*
X018657Y007872D01*
X018655Y007870D01*
X018644Y007872D01*
X018519Y007872D01*
X018519Y007493D01*
X018509Y007493D01*
X018509Y007872D01*
X018385Y007872D01*
X018374Y007870D01*
X018372Y007872D01*
X018057Y007872D01*
X017904Y007872D01*
X017952Y007989D01*
X017952Y008055D01*
X018952Y008055D01*
X018952Y008039D02*
X019005Y007910D01*
X019043Y007872D01*
X018986Y007956D02*
X017938Y007956D01*
X017952Y008055D02*
X018914Y009017D01*
X018952Y009109D01*
X018952Y009158D01*
X018971Y009158D01*
X019052Y009192D01*
X019052Y008675D01*
X019169Y008558D01*
X019269Y008458D01*
X019232Y008458D01*
X019104Y008405D01*
X019005Y008306D01*
X018952Y008178D01*
X018952Y008039D01*
X018952Y008153D02*
X018050Y008153D01*
X018149Y008252D02*
X018983Y008252D01*
X019049Y008350D02*
X018248Y008350D01*
X018346Y008449D02*
X019210Y008449D01*
X019180Y008548D02*
X018445Y008548D01*
X018543Y008646D02*
X019081Y008646D01*
X019052Y008745D02*
X018642Y008745D01*
X018740Y008843D02*
X019052Y008843D01*
X019052Y008942D02*
X018839Y008942D01*
X018924Y009040D02*
X019052Y009040D01*
X019052Y009139D02*
X018952Y009139D01*
X018452Y009262D02*
X017598Y008408D01*
X017532Y008408D01*
X017404Y008355D01*
X017305Y008256D01*
X017285Y008208D01*
X016752Y008208D01*
X016652Y008208D01*
X016616Y008193D01*
X016616Y008368D01*
X016613Y008371D01*
X016616Y008381D01*
X016616Y008506D01*
X016236Y008506D01*
X016236Y008516D01*
X016616Y008516D01*
X016616Y008576D01*
X016670Y008576D01*
X016689Y008576D01*
X016732Y008558D01*
X016871Y008558D01*
X017000Y008612D01*
X017099Y008710D01*
X017152Y008839D01*
X017152Y008978D01*
X017099Y009106D01*
X017000Y009205D01*
X016871Y009258D01*
X016732Y009258D01*
X016616Y009210D01*
X016616Y009284D01*
X016616Y009599D01*
X016616Y009799D01*
X016704Y009712D01*
X016832Y009658D01*
X016971Y009658D01*
X017135Y009658D01*
X018585Y009658D01*
X018552Y009578D01*
X018552Y009512D01*
X018490Y009450D01*
X018452Y009358D01*
X018452Y009262D01*
X018428Y009237D02*
X016922Y009237D01*
X017066Y009139D02*
X018329Y009139D01*
X018230Y009040D02*
X017126Y009040D01*
X017152Y008942D02*
X018132Y008942D01*
X018033Y008843D02*
X017152Y008843D01*
X017113Y008745D02*
X017935Y008745D01*
X017836Y008646D02*
X017035Y008646D01*
X016616Y008449D02*
X017639Y008449D01*
X017738Y008548D02*
X016616Y008548D01*
X016616Y008350D02*
X017399Y008350D01*
X017303Y008252D02*
X016616Y008252D01*
X016226Y008506D02*
X015846Y008506D01*
X015846Y008446D01*
X015399Y008446D01*
X015399Y008502D01*
X015343Y008558D01*
X015369Y008584D01*
X015388Y008618D01*
X015399Y008657D01*
X015399Y008844D01*
X015101Y008844D01*
X015101Y008941D01*
X015399Y008941D01*
X015399Y009129D01*
X015388Y009167D01*
X015369Y009202D01*
X015341Y009229D01*
X015307Y009249D01*
X015268Y009259D01*
X015100Y009259D01*
X015100Y008942D01*
X015003Y008942D01*
X015003Y009259D01*
X014835Y009259D01*
X014797Y009249D01*
X014763Y009229D01*
X014735Y009202D01*
X014715Y009167D01*
X014705Y009129D01*
X014705Y008941D01*
X015003Y008941D01*
X015003Y008844D01*
X014705Y008844D01*
X014705Y008657D01*
X014715Y008618D01*
X014735Y008584D01*
X014761Y008558D01*
X014705Y008502D01*
X014705Y008474D01*
X014399Y008474D01*
X014399Y008502D01*
X014343Y008558D01*
X014369Y008584D01*
X014388Y008618D01*
X014399Y008657D01*
X014399Y008844D01*
X014101Y008844D01*
X014101Y008941D01*
X014399Y008941D01*
X014399Y009129D01*
X014388Y009167D01*
X014369Y009202D01*
X014341Y009229D01*
X014307Y009249D01*
X014268Y009259D01*
X014100Y009259D01*
X014100Y008942D01*
X014003Y008942D01*
X014003Y009259D01*
X013835Y009259D01*
X013797Y009249D01*
X013763Y009229D01*
X013752Y009218D01*
X013752Y010625D01*
X013752Y010489D01*
X013805Y010360D01*
X013904Y010262D01*
X014032Y010208D01*
X014171Y010208D01*
X014300Y010262D01*
X014352Y010313D01*
X014404Y010262D01*
X014532Y010208D01*
X014671Y010208D01*
X014800Y010262D01*
X014852Y010313D01*
X014852Y009991D01*
X014852Y009825D01*
X015602Y009075D01*
X015719Y008958D01*
X015846Y008958D01*
X015846Y008654D01*
X015849Y008651D01*
X015846Y008641D01*
X015846Y008516D01*
X016226Y008516D01*
X016226Y008506D01*
X015846Y008548D02*
X015353Y008548D01*
X015396Y008646D02*
X015847Y008646D01*
X015846Y008745D02*
X015399Y008745D01*
X015399Y008843D02*
X015846Y008843D01*
X015846Y008942D02*
X015399Y008942D01*
X015399Y009040D02*
X015637Y009040D01*
X015538Y009139D02*
X015396Y009139D01*
X015440Y009237D02*
X015327Y009237D01*
X015341Y009336D02*
X013752Y009336D01*
X013752Y009434D02*
X015243Y009434D01*
X015144Y009533D02*
X013752Y009533D01*
X013752Y009632D02*
X015046Y009632D01*
X014947Y009730D02*
X013752Y009730D01*
X013752Y009829D02*
X014852Y009829D01*
X014852Y009927D02*
X013752Y009927D01*
X013752Y010026D02*
X014852Y010026D01*
X014852Y010124D02*
X013752Y010124D01*
X013752Y010223D02*
X013997Y010223D01*
X013844Y010321D02*
X013752Y010321D01*
X013752Y010420D02*
X013780Y010420D01*
X013752Y010518D02*
X013752Y010518D01*
X013752Y010617D02*
X013752Y010617D01*
X013752Y010625D02*
X013752Y010625D01*
X013552Y010758D02*
X013552Y008008D01*
X014452Y007108D01*
X015902Y007108D01*
X016002Y007208D01*
X016402Y007208D01*
X016552Y007058D01*
X016552Y006658D01*
X016052Y006158D01*
X015402Y006158D01*
X015102Y006458D01*
X012088Y006458D01*
X011064Y005434D01*
X011109Y005099D02*
X009415Y005099D01*
X009514Y005000D02*
X011011Y005000D01*
X010912Y004901D02*
X009612Y004901D01*
X009711Y004803D02*
X010814Y004803D01*
X010715Y004704D02*
X009809Y004704D01*
X009908Y004606D02*
X010702Y004606D01*
X010702Y004507D02*
X010006Y004507D01*
X010105Y004409D02*
X010702Y004409D01*
X010702Y004310D02*
X010203Y004310D01*
X010302Y004212D02*
X010702Y004212D01*
X010612Y004113D02*
X010401Y004113D01*
X010499Y004015D02*
X010567Y004015D01*
X010902Y003908D02*
X010902Y004608D01*
X011752Y005458D01*
X012076Y005591D02*
X015028Y005591D01*
X015002Y005528D02*
X015002Y005389D01*
X015055Y005260D01*
X015154Y005162D01*
X015282Y005108D01*
X015421Y005108D01*
X015550Y005162D01*
X015647Y005258D01*
X015819Y005258D01*
X015069Y004508D01*
X014735Y004508D01*
X014733Y004510D01*
X014733Y004837D01*
X014646Y004925D01*
X014128Y004925D01*
X014052Y004849D01*
X013976Y004925D01*
X013458Y004925D01*
X013370Y004837D01*
X013370Y004508D01*
X013169Y004508D01*
X013052Y004391D01*
X012596Y003935D01*
X012596Y003769D01*
X012596Y003212D01*
X012399Y003410D01*
X012399Y003752D01*
X012343Y003808D01*
X012369Y003834D01*
X012388Y003868D01*
X012399Y003907D01*
X012399Y004094D01*
X012101Y004094D01*
X012101Y004191D01*
X012399Y004191D01*
X012399Y004379D01*
X012388Y004417D01*
X012369Y004452D01*
X012341Y004479D01*
X012307Y004499D01*
X012268Y004509D01*
X012100Y004509D01*
X012100Y004192D01*
X012003Y004192D01*
X012003Y004509D01*
X011835Y004509D01*
X011797Y004499D01*
X011763Y004479D01*
X011735Y004452D01*
X011715Y004417D01*
X011705Y004379D01*
X011705Y004191D01*
X012003Y004191D01*
X012003Y004094D01*
X011705Y004094D01*
X011705Y003907D01*
X011715Y003868D01*
X011735Y003834D01*
X011761Y003808D01*
X011720Y003767D01*
X011621Y003808D01*
X011482Y003808D01*
X011354Y003755D01*
X011307Y003708D01*
X011197Y003708D01*
X011199Y003710D01*
X011252Y003839D01*
X011252Y003978D01*
X011199Y004106D01*
X011102Y004203D01*
X011102Y004525D01*
X011685Y005108D01*
X011821Y005108D01*
X011950Y005162D01*
X012049Y005260D01*
X012102Y005389D01*
X012102Y005528D01*
X012049Y005656D01*
X011950Y005755D01*
X011821Y005808D01*
X011720Y005808D01*
X012171Y006258D01*
X015019Y006258D01*
X015052Y006225D01*
X015052Y006089D01*
X015105Y005960D01*
X015204Y005862D01*
X015332Y005808D01*
X015452Y005808D01*
X015452Y005796D01*
X015421Y005808D01*
X015282Y005808D01*
X015154Y005755D01*
X015055Y005656D01*
X015002Y005528D01*
X015002Y005493D02*
X012102Y005493D01*
X012102Y005394D02*
X015002Y005394D01*
X015040Y005296D02*
X012063Y005296D01*
X011986Y005197D02*
X015118Y005197D01*
X015462Y004901D02*
X014669Y004901D01*
X014733Y004803D02*
X015364Y004803D01*
X015265Y004704D02*
X014733Y004704D01*
X014733Y004606D02*
X015167Y004606D01*
X015561Y005000D02*
X011576Y005000D01*
X011478Y004901D02*
X013435Y004901D01*
X013370Y004803D02*
X011379Y004803D01*
X011281Y004704D02*
X013370Y004704D01*
X013370Y004606D02*
X011182Y004606D01*
X011102Y004507D02*
X011827Y004507D01*
X011713Y004409D02*
X011102Y004409D01*
X011102Y004310D02*
X011705Y004310D01*
X011705Y004212D02*
X011102Y004212D01*
X011192Y004113D02*
X012003Y004113D01*
X012101Y004113D02*
X012774Y004113D01*
X012675Y004015D02*
X012399Y004015D01*
X012399Y003916D02*
X012596Y003916D01*
X012596Y003817D02*
X012352Y003817D01*
X012399Y003719D02*
X012596Y003719D01*
X012596Y003620D02*
X012399Y003620D01*
X012399Y003522D02*
X012596Y003522D01*
X012596Y003423D02*
X012399Y003423D01*
X012484Y003325D02*
X012596Y003325D01*
X012582Y003226D02*
X012596Y003226D01*
X012540Y002985D02*
X012052Y003474D01*
X011752Y003817D02*
X011243Y003817D01*
X011252Y003916D02*
X011705Y003916D01*
X011705Y004015D02*
X011237Y004015D01*
X011202Y003719D02*
X011318Y003719D01*
X010609Y003226D02*
X008752Y003226D01*
X008752Y003128D02*
X010776Y003128D01*
X011052Y002908D02*
X008902Y002908D01*
X008552Y002558D01*
X008552Y003724D01*
X008899Y003719D02*
X010088Y003719D01*
X010186Y003620D02*
X008899Y003620D01*
X008899Y003522D02*
X010285Y003522D01*
X010383Y003423D02*
X008877Y003423D01*
X008752Y003325D02*
X010482Y003325D01*
X009989Y003817D02*
X008899Y003817D01*
X008899Y003916D02*
X009891Y003916D01*
X009792Y004015D02*
X008886Y004015D01*
X008885Y004113D02*
X009694Y004113D01*
X009595Y004212D02*
X008899Y004212D01*
X008899Y004310D02*
X009496Y004310D01*
X009791Y005159D02*
X009829Y005148D01*
X010026Y005148D01*
X010026Y005416D01*
X009699Y005416D01*
X009699Y005279D01*
X009709Y005241D01*
X009729Y005206D01*
X009757Y005178D01*
X009791Y005159D01*
X009738Y005197D02*
X009279Y005197D01*
X009699Y005296D02*
X004268Y005296D01*
X004169Y005394D02*
X009699Y005394D01*
X009699Y005493D02*
X004071Y005493D01*
X003972Y005591D02*
X009700Y005591D01*
X009602Y005808D02*
X010044Y005808D01*
X010389Y005788D02*
X011135Y005788D01*
X011234Y005887D02*
X010389Y005887D01*
X010389Y005985D02*
X010719Y005985D01*
X010719Y006084D02*
X010389Y006084D01*
X010409Y006183D02*
X010719Y006183D01*
X010719Y006281D02*
X010507Y006281D01*
X010606Y006380D02*
X010719Y006380D01*
X011064Y006182D02*
X011440Y006558D01*
X011502Y006558D01*
X010902Y006758D02*
X010702Y006758D01*
X010126Y006182D01*
X010044Y006182D01*
X009602Y005808D02*
X009310Y006100D01*
X009310Y007058D01*
X009110Y006774D02*
X003752Y006774D01*
X003752Y006872D02*
X004851Y006872D01*
X004753Y006971D02*
X003752Y006971D01*
X003752Y007069D02*
X004654Y007069D01*
X004602Y007168D02*
X003752Y007168D01*
X003752Y007266D02*
X004540Y007266D01*
X004442Y007365D02*
X003752Y007365D01*
X003752Y007464D02*
X004343Y007464D01*
X004244Y007562D02*
X003752Y007562D01*
X003752Y007661D02*
X004146Y007661D01*
X004047Y007759D02*
X003752Y007759D01*
X003752Y007858D02*
X003949Y007858D01*
X003874Y007956D02*
X003752Y007956D01*
X003752Y008055D02*
X003852Y008055D01*
X003852Y008153D02*
X003752Y008153D01*
X003752Y008252D02*
X003852Y008252D01*
X003852Y008350D02*
X003752Y008350D01*
X003752Y008449D02*
X003852Y008449D01*
X003852Y008548D02*
X003752Y008548D01*
X003752Y008646D02*
X003852Y008646D01*
X003852Y008745D02*
X003752Y008745D01*
X003752Y008843D02*
X003852Y008843D01*
X003852Y008942D02*
X003752Y008942D01*
X003752Y009040D02*
X003852Y009040D01*
X003852Y009139D02*
X003752Y009139D01*
X003752Y009237D02*
X003852Y009237D01*
X003852Y009336D02*
X003752Y009336D01*
X003752Y009434D02*
X003852Y009434D01*
X003852Y009533D02*
X003752Y009533D01*
X003752Y009632D02*
X003852Y009632D01*
X003852Y009730D02*
X003752Y009730D01*
X003752Y009829D02*
X003852Y009829D01*
X003852Y009927D02*
X003752Y009927D01*
X003752Y010026D02*
X003852Y010026D01*
X003852Y010124D02*
X003752Y010124D01*
X003752Y010223D02*
X003852Y010223D01*
X003852Y010321D02*
X003752Y010321D01*
X003752Y010420D02*
X003852Y010420D01*
X003852Y010518D02*
X003752Y010518D01*
X003752Y010617D02*
X003852Y010617D01*
X003852Y010716D02*
X003752Y010716D01*
X003752Y010814D02*
X003852Y010814D01*
X003852Y010913D02*
X003752Y010913D01*
X003752Y011011D02*
X003852Y011011D01*
X003852Y011110D02*
X003752Y011110D01*
X003752Y011208D02*
X003852Y011208D01*
X003852Y011307D02*
X003752Y011307D01*
X003752Y011405D02*
X003852Y011405D01*
X003852Y011504D02*
X003752Y011504D01*
X003752Y011602D02*
X003852Y011602D01*
X003852Y011701D02*
X003752Y011701D01*
X003752Y011799D02*
X003852Y011799D01*
X003852Y011898D02*
X003752Y011898D01*
X003752Y011997D02*
X003852Y011997D01*
X003852Y012095D02*
X003752Y012095D01*
X003752Y012194D02*
X003852Y012194D01*
X003852Y012292D02*
X003752Y012292D01*
X003752Y012391D02*
X003865Y012391D01*
X003929Y012489D02*
X003752Y012489D01*
X003785Y012588D02*
X004028Y012588D01*
X004126Y012686D02*
X003883Y012686D01*
X003982Y012785D02*
X004225Y012785D01*
X004324Y012883D02*
X004081Y012883D01*
X004179Y012982D02*
X004422Y012982D01*
X004426Y013573D02*
X003678Y013573D01*
X003852Y013672D02*
X004252Y013672D01*
X004163Y013770D02*
X003940Y013770D01*
X003981Y013869D02*
X004123Y013869D01*
X004102Y013967D02*
X004002Y013967D01*
X004002Y014066D02*
X004102Y014066D01*
X004102Y014165D02*
X004002Y014165D01*
X004002Y014263D02*
X004102Y014263D01*
X004102Y014362D02*
X004002Y014362D01*
X004002Y014460D02*
X004102Y014460D01*
X004102Y014559D02*
X004002Y014559D01*
X004002Y014657D02*
X004102Y014657D01*
X004126Y014756D02*
X003978Y014756D01*
X003937Y014854D02*
X004167Y014854D01*
X004260Y014953D02*
X003844Y014953D01*
X003802Y015051D02*
X004442Y015051D01*
X004540Y015150D02*
X003802Y015150D01*
X003802Y015249D02*
X004639Y015249D01*
X004737Y015347D02*
X003802Y015347D01*
X003802Y015446D02*
X004836Y015446D01*
X005149Y015051D02*
X005446Y015051D01*
X005260Y014953D02*
X005050Y014953D01*
X004951Y014854D02*
X005167Y014854D01*
X005126Y014756D02*
X004978Y014756D01*
X005002Y014657D02*
X005102Y014657D01*
X005102Y014559D02*
X005002Y014559D01*
X005002Y014460D02*
X005102Y014460D01*
X005102Y014362D02*
X005002Y014362D01*
X005002Y014263D02*
X005102Y014263D01*
X005102Y014165D02*
X005002Y014165D01*
X005002Y014066D02*
X005102Y014066D01*
X005102Y013967D02*
X005002Y013967D01*
X004981Y013869D02*
X005123Y013869D01*
X005163Y013770D02*
X004940Y013770D01*
X004852Y013672D02*
X005112Y013672D01*
X005013Y013573D02*
X004678Y013573D01*
X005205Y013081D02*
X005321Y013081D01*
X005326Y013179D02*
X005419Y013179D01*
X005425Y013278D02*
X005518Y013278D01*
X005523Y013376D02*
X005616Y013376D01*
X005622Y013475D02*
X005715Y013475D01*
X005720Y013573D02*
X005813Y013573D01*
X005852Y013672D02*
X005912Y013672D01*
X005940Y013770D02*
X006010Y013770D01*
X005981Y013869D02*
X006109Y013869D01*
X006202Y013967D02*
X006002Y013967D01*
X006002Y014066D02*
X006202Y014066D01*
X006202Y014165D02*
X006002Y014165D01*
X006002Y014263D02*
X006202Y014263D01*
X006202Y014362D02*
X006002Y014362D01*
X006002Y014460D02*
X006202Y014460D01*
X006202Y014559D02*
X006002Y014559D01*
X006002Y014657D02*
X006202Y014657D01*
X006202Y014756D02*
X005978Y014756D01*
X005937Y014854D02*
X006152Y014854D01*
X006054Y014953D02*
X005844Y014953D01*
X005955Y015051D02*
X005658Y015051D01*
X006268Y015446D02*
X006454Y015446D01*
X006435Y015544D02*
X006296Y015544D01*
X006302Y015643D02*
X006435Y015643D01*
X006435Y015741D02*
X006302Y015741D01*
X006302Y015840D02*
X006435Y015840D01*
X006435Y015938D02*
X006302Y015938D01*
X006302Y016037D02*
X006490Y016037D01*
X006435Y016135D02*
X006302Y016135D01*
X006302Y016234D02*
X006435Y016234D01*
X006435Y016332D02*
X006302Y016332D01*
X006302Y016431D02*
X006435Y016431D01*
X006435Y016530D02*
X006302Y016530D01*
X006302Y016628D02*
X006435Y016628D01*
X006510Y016727D02*
X006324Y016727D01*
X006422Y016825D02*
X006602Y016825D01*
X006602Y016924D02*
X006521Y016924D01*
X007002Y016924D02*
X007297Y016924D01*
X007297Y016953D02*
X007297Y016668D01*
X007752Y016668D01*
X007752Y017083D01*
X007427Y017083D01*
X007389Y017073D01*
X007355Y017053D01*
X007327Y017025D01*
X007307Y016991D01*
X007297Y016953D01*
X007325Y017022D02*
X007002Y017022D01*
X007171Y017121D02*
X009915Y017121D01*
X009903Y017143D02*
X009934Y017083D01*
X009974Y017028D01*
X010022Y016980D01*
X010076Y016941D01*
X010137Y016910D01*
X010201Y016889D01*
X010268Y016878D01*
X010272Y016878D01*
X010272Y017278D01*
X010332Y017278D01*
X010332Y016878D01*
X010336Y016878D01*
X010403Y016889D01*
X010467Y016910D01*
X010527Y016941D01*
X010582Y016980D01*
X010630Y017028D01*
X010670Y017083D01*
X010700Y017143D01*
X010721Y017208D01*
X010732Y017274D01*
X010732Y017278D01*
X010332Y017278D01*
X010332Y017338D01*
X010732Y017338D01*
X010732Y017342D01*
X010721Y017409D01*
X010700Y017473D01*
X010670Y017534D01*
X010630Y017588D01*
X010582Y017636D01*
X010527Y017676D01*
X010467Y017707D01*
X010403Y017728D01*
X010336Y017738D01*
X010332Y017738D01*
X010332Y017339D01*
X010272Y017339D01*
X010272Y017738D01*
X010268Y017738D01*
X010201Y017728D01*
X010137Y017707D01*
X010076Y017676D01*
X010022Y017636D01*
X009974Y017588D01*
X009934Y017534D01*
X009903Y017473D01*
X009882Y017409D01*
X009872Y017342D01*
X009872Y017338D01*
X010272Y017338D01*
X010272Y017278D01*
X009872Y017278D01*
X009872Y017274D01*
X009882Y017208D01*
X009903Y017143D01*
X009881Y017219D02*
X007227Y017219D01*
X007227Y017318D02*
X010272Y017318D01*
X010302Y017308D02*
X008552Y017308D01*
X007862Y016618D01*
X007802Y016618D01*
X007852Y016628D02*
X011699Y016628D01*
X011601Y016727D02*
X008307Y016727D01*
X008307Y016668D02*
X008307Y016953D01*
X008297Y016991D01*
X008277Y017025D01*
X008249Y017053D01*
X008215Y017073D01*
X008177Y017083D01*
X007852Y017083D01*
X007852Y016668D01*
X008307Y016668D01*
X008307Y016568D02*
X007852Y016568D01*
X007852Y016668D01*
X007752Y016668D01*
X007752Y016568D01*
X007852Y016568D01*
X007852Y016153D01*
X008177Y016153D01*
X008215Y016163D01*
X008249Y016183D01*
X008277Y016211D01*
X008297Y016245D01*
X008307Y016283D01*
X008307Y016568D01*
X008307Y016530D02*
X012398Y016530D01*
X012352Y016558D02*
X011402Y016558D01*
X010652Y017308D01*
X010302Y017308D01*
X010332Y017318D02*
X010872Y017318D01*
X010873Y017219D02*
X010723Y017219D01*
X010689Y017121D02*
X010914Y017121D01*
X010980Y017022D02*
X010624Y017022D01*
X010494Y016924D02*
X011107Y016924D01*
X011502Y016825D02*
X008307Y016825D01*
X008307Y016924D02*
X010109Y016924D01*
X009980Y017022D02*
X008279Y017022D01*
X007852Y017022D02*
X007752Y017022D01*
X007752Y016924D02*
X007852Y016924D01*
X007852Y016825D02*
X007752Y016825D01*
X007752Y016727D02*
X007852Y016727D01*
X007752Y016628D02*
X007168Y016628D01*
X007168Y016530D02*
X007297Y016530D01*
X007297Y016568D02*
X007297Y016283D01*
X007307Y016245D01*
X007327Y016211D01*
X007355Y016183D01*
X007389Y016163D01*
X007427Y016153D01*
X007752Y016153D01*
X007752Y016568D01*
X007297Y016568D01*
X007297Y016431D02*
X007168Y016431D01*
X007168Y016332D02*
X007297Y016332D01*
X007314Y016234D02*
X007168Y016234D01*
X007168Y016135D02*
X011305Y016135D01*
X011302Y016037D02*
X007114Y016037D01*
X007168Y015938D02*
X007360Y015938D01*
X007297Y015840D02*
X007168Y015840D01*
X007168Y015741D02*
X007297Y015741D01*
X007027Y015498D02*
X006802Y015724D01*
X007027Y015498D02*
X007802Y015498D01*
X008307Y015544D02*
X011452Y015544D01*
X011452Y015446D02*
X008307Y015446D01*
X008307Y015347D02*
X011530Y015347D01*
X011629Y015249D02*
X008307Y015249D01*
X008307Y015150D02*
X011727Y015150D01*
X011826Y015051D02*
X008237Y015051D01*
X008307Y015643D02*
X011452Y015643D01*
X011452Y015741D02*
X008307Y015741D01*
X008307Y015840D02*
X011375Y015840D01*
X011323Y015938D02*
X008244Y015938D01*
X008290Y016234D02*
X011346Y016234D01*
X011431Y016332D02*
X008307Y016332D01*
X008307Y016431D02*
X012496Y016431D01*
X012573Y016332D02*
X012595Y016332D01*
X012658Y016234D02*
X012693Y016234D01*
X012699Y016135D02*
X012792Y016135D01*
X012823Y016037D02*
X012890Y016037D01*
X012967Y015938D02*
X012989Y015938D01*
X013052Y015858D02*
X012352Y016558D01*
X012452Y016758D02*
X011852Y016758D01*
X011302Y017308D01*
X011732Y017318D02*
X011872Y017318D01*
X011873Y017219D02*
X011730Y017219D01*
X011772Y017121D02*
X011914Y017121D01*
X011871Y017022D02*
X011980Y017022D01*
X012452Y016758D02*
X013252Y015958D01*
X013252Y014458D01*
X015420Y012291D01*
X016231Y012291D01*
X016616Y012489D02*
X016952Y012489D01*
X016952Y012588D02*
X016616Y012588D01*
X016616Y012686D02*
X016952Y012686D01*
X016952Y012785D02*
X016616Y012785D01*
X016616Y012883D02*
X016994Y012883D01*
X017069Y012958D02*
X017069Y012958D01*
X017093Y012982D02*
X016616Y012982D01*
X016616Y013081D02*
X017191Y013081D01*
X017202Y013091D02*
X017202Y013091D01*
X017290Y013179D02*
X016529Y013179D01*
X017152Y012758D02*
X017152Y011408D01*
X017002Y011258D01*
X016602Y011258D01*
X016552Y011308D01*
X016268Y011308D01*
X016231Y011346D01*
X016236Y011656D02*
X016236Y011666D01*
X016616Y011666D01*
X016616Y011726D01*
X016669Y011726D01*
X016748Y011758D01*
X016871Y011758D01*
X016952Y011792D01*
X016952Y011491D01*
X016919Y011458D01*
X016685Y011458D01*
X016635Y011508D01*
X016616Y011508D01*
X016616Y011518D01*
X016613Y011521D01*
X016616Y011531D01*
X016616Y011656D01*
X016236Y011656D01*
X016295Y011661D02*
X015750Y011661D01*
X013052Y014358D01*
X013052Y015858D01*
X013052Y015840D02*
X013026Y015840D01*
X013052Y015741D02*
X013052Y015741D01*
X013052Y015643D02*
X013052Y015643D01*
X013052Y015544D02*
X013052Y015544D01*
X013052Y015446D02*
X013052Y015446D01*
X013052Y015347D02*
X013052Y015347D01*
X013052Y015249D02*
X013052Y015249D01*
X013052Y015150D02*
X013052Y015150D01*
X013052Y015051D02*
X013052Y015051D01*
X013052Y014953D02*
X013052Y014953D01*
X013052Y014854D02*
X013052Y014854D01*
X013052Y014756D02*
X013052Y014756D01*
X013052Y014657D02*
X013052Y014657D01*
X013052Y014559D02*
X013052Y014559D01*
X013052Y014460D02*
X013052Y014460D01*
X013052Y014362D02*
X013066Y014362D01*
X013130Y014263D02*
X013164Y014263D01*
X013228Y014165D02*
X013263Y014165D01*
X013327Y014066D02*
X013361Y014066D01*
X013426Y013967D02*
X013460Y013967D01*
X013524Y013869D02*
X013558Y013869D01*
X013623Y013770D02*
X013657Y013770D01*
X013721Y013672D02*
X013755Y013672D01*
X013820Y013573D02*
X013854Y013573D01*
X013918Y013475D02*
X013953Y013475D01*
X014017Y013376D02*
X014051Y013376D01*
X014115Y013278D02*
X014150Y013278D01*
X014214Y013179D02*
X014248Y013179D01*
X014312Y013081D02*
X014347Y013081D01*
X014411Y012982D02*
X014445Y012982D01*
X014509Y012883D02*
X014544Y012883D01*
X014608Y012785D02*
X014642Y012785D01*
X014707Y012686D02*
X014741Y012686D01*
X014805Y012588D02*
X014839Y012588D01*
X014904Y012489D02*
X014938Y012489D01*
X015002Y012391D02*
X015037Y012391D01*
X015101Y012292D02*
X015135Y012292D01*
X015199Y012194D02*
X015234Y012194D01*
X015298Y012095D02*
X015332Y012095D01*
X015396Y011997D02*
X015846Y011997D01*
X015846Y011898D02*
X015495Y011898D01*
X015593Y011799D02*
X015849Y011799D01*
X015846Y011701D02*
X015692Y011701D01*
X015791Y011602D02*
X015846Y011602D01*
X015652Y011458D02*
X015652Y010308D01*
X015852Y010108D01*
X016209Y010108D01*
X016231Y010086D01*
X016231Y010401D02*
X016239Y010408D01*
X017052Y010408D01*
X017752Y011108D01*
X017752Y011808D01*
X017902Y011958D01*
X018302Y011958D01*
X018619Y012108D02*
X018599Y012156D01*
X018500Y012255D01*
X018371Y012308D01*
X018500Y012362D01*
X018599Y012460D01*
X018652Y012589D01*
X018652Y012728D01*
X018599Y012856D01*
X018597Y012858D01*
X020469Y012858D01*
X020502Y012825D01*
X020502Y012303D01*
X020405Y012206D01*
X020370Y012123D01*
X020152Y012341D01*
X020035Y012458D01*
X019135Y012458D01*
X018969Y012458D01*
X018619Y012108D01*
X018619Y012108D01*
X018561Y012194D02*
X018704Y012194D01*
X018803Y012292D02*
X018410Y012292D01*
X018371Y012308D02*
X018252Y012308D01*
X018252Y012308D01*
X018371Y012308D01*
X018529Y012391D02*
X018902Y012391D01*
X019052Y012258D02*
X018702Y011908D01*
X018702Y011513D01*
X018704Y011511D01*
X017952Y010758D01*
X018352Y010858D02*
X018352Y010408D01*
X018702Y010420D02*
X019302Y010420D01*
X019302Y010478D02*
X019302Y010339D01*
X019335Y010258D01*
X018669Y010258D01*
X018702Y010339D01*
X018702Y010478D01*
X018649Y010606D01*
X018552Y010703D01*
X018552Y010775D01*
X018985Y011208D01*
X019102Y011325D01*
X019102Y011725D01*
X019235Y011858D01*
X019357Y011858D01*
X019355Y011856D01*
X019302Y011728D01*
X019302Y011589D01*
X019355Y011460D01*
X019402Y011413D01*
X019402Y010653D01*
X019355Y010606D01*
X019302Y010478D01*
X019319Y010518D02*
X018685Y010518D01*
X018638Y010617D02*
X019366Y010617D01*
X019402Y010716D02*
X018552Y010716D01*
X018590Y010814D02*
X019402Y010814D01*
X019402Y010913D02*
X018689Y010913D01*
X018788Y011011D02*
X019402Y011011D01*
X019402Y011110D02*
X018886Y011110D01*
X018985Y011208D02*
X019402Y011208D01*
X019402Y011307D02*
X019083Y011307D01*
X019102Y011405D02*
X019402Y011405D01*
X019337Y011504D02*
X019102Y011504D01*
X019102Y011602D02*
X019302Y011602D01*
X019302Y011701D02*
X019102Y011701D01*
X019176Y011799D02*
X019332Y011799D01*
X019152Y012058D02*
X018902Y011808D01*
X018902Y011408D01*
X018352Y010858D01*
X018695Y010321D02*
X019309Y010321D01*
X019402Y010058D02*
X017552Y010058D01*
X017402Y010208D01*
X017052Y009858D02*
X016902Y010008D01*
X017052Y009858D02*
X019102Y009858D01*
X019252Y009708D01*
X019252Y008758D01*
X019774Y008236D01*
X019774Y007487D01*
X019552Y006808D02*
X019552Y006308D01*
X019402Y006158D01*
X017752Y006158D01*
X015002Y003408D01*
X014202Y003408D01*
X014052Y003258D01*
X013727Y003128D02*
X013252Y003128D01*
X013252Y003226D02*
X013702Y003226D01*
X013702Y003189D02*
X013755Y003060D01*
X013792Y003023D01*
X013746Y002976D01*
X013725Y002997D01*
X013690Y003017D01*
X013652Y003027D01*
X013564Y003027D01*
X013564Y002602D01*
X013563Y002602D01*
X013563Y003027D01*
X013475Y003027D01*
X013446Y003019D01*
X013439Y003027D01*
X013252Y003027D01*
X013252Y003675D01*
X013370Y003794D01*
X013370Y003530D01*
X013458Y003442D01*
X013749Y003442D01*
X013702Y003328D01*
X013702Y003189D01*
X013702Y003325D02*
X013252Y003325D01*
X013252Y003423D02*
X013741Y003423D01*
X013564Y003146D02*
X013452Y003258D01*
X013564Y003146D02*
X013564Y002602D01*
X013563Y002635D02*
X013564Y002635D01*
X013563Y002734D02*
X013564Y002734D01*
X013563Y002832D02*
X013564Y002832D01*
X013563Y002931D02*
X013564Y002931D01*
X013786Y003029D02*
X013252Y003029D01*
X013052Y002602D02*
X013052Y003758D01*
X013352Y004058D01*
X013467Y004058D01*
X013717Y003808D01*
X013370Y003719D02*
X013295Y003719D01*
X013252Y003620D02*
X013370Y003620D01*
X013378Y003522D02*
X013252Y003522D01*
X012796Y003852D02*
X013252Y004308D01*
X013467Y004308D01*
X013717Y004558D01*
X014000Y004901D02*
X014104Y004901D01*
X014387Y004558D02*
X014402Y004558D01*
X014652Y004308D01*
X015152Y004308D01*
X017902Y007058D01*
X017902Y007470D01*
X017885Y007487D01*
X018200Y007487D02*
X018202Y007485D01*
X018202Y007008D01*
X015252Y004058D01*
X014652Y004058D01*
X014402Y003808D01*
X014387Y003808D01*
X013168Y004507D02*
X012276Y004507D01*
X012391Y004409D02*
X013070Y004409D01*
X012971Y004310D02*
X012399Y004310D01*
X012399Y004212D02*
X012872Y004212D01*
X012796Y003852D02*
X012796Y002602D01*
X012540Y002602D02*
X012540Y002985D01*
X013563Y002536D02*
X013564Y002536D01*
X013563Y002438D02*
X013564Y002438D01*
X013563Y002339D02*
X013564Y002339D01*
X013563Y002241D02*
X013564Y002241D01*
X013752Y002142D02*
X012352Y002142D01*
X012100Y004212D02*
X012003Y004212D01*
X012003Y004310D02*
X012100Y004310D01*
X012100Y004409D02*
X012003Y004409D01*
X012003Y004507D02*
X012100Y004507D01*
X011675Y005099D02*
X015659Y005099D01*
X015586Y005197D02*
X015758Y005197D01*
X015952Y005458D02*
X015352Y005458D01*
X015234Y005788D02*
X011870Y005788D01*
X011799Y005887D02*
X015178Y005887D01*
X015095Y005985D02*
X011898Y005985D01*
X011996Y006084D02*
X015054Y006084D01*
X015052Y006183D02*
X012095Y006183D01*
X012015Y005690D02*
X015088Y005690D01*
X015802Y005808D02*
X016002Y005808D01*
X016940Y006746D01*
X016940Y007487D01*
X017255Y007487D02*
X017255Y007206D01*
X017252Y007208D01*
X017252Y006758D01*
X015952Y005458D01*
X015852Y006508D02*
X015702Y006658D01*
X014302Y006658D01*
X013902Y007058D01*
X011794Y007058D01*
X011402Y007058D01*
X011152Y007308D01*
X008702Y007308D01*
X008452Y007058D01*
X007602Y007058D01*
X007352Y007308D01*
X006052Y007308D01*
X006351Y006971D02*
X007406Y006971D01*
X007308Y007069D02*
X006449Y007069D01*
X006252Y006872D02*
X007505Y006872D01*
X007685Y007258D02*
X007435Y007508D01*
X007269Y007508D01*
X006488Y007508D01*
X006438Y007558D01*
X006502Y007558D01*
X006602Y007558D01*
X006693Y007596D01*
X006893Y007796D01*
X006964Y007867D01*
X007002Y007959D01*
X007002Y010255D01*
X007855Y011108D01*
X009695Y011108D01*
X009695Y010734D01*
X009783Y010646D01*
X010297Y010646D01*
X010385Y010734D01*
X010385Y011108D01*
X010715Y011108D01*
X010715Y010734D01*
X010719Y010730D01*
X010715Y010714D01*
X010715Y010576D01*
X011042Y010576D01*
X011042Y010540D01*
X010715Y010540D01*
X010715Y010403D01*
X010719Y010387D01*
X010715Y010382D01*
X010715Y009986D01*
X010803Y009898D01*
X010860Y009898D01*
X010860Y009802D01*
X011016Y009646D01*
X011016Y009357D01*
X010919Y009357D01*
X010919Y009655D01*
X010731Y009655D01*
X010693Y009645D01*
X010659Y009625D01*
X010631Y009597D01*
X010611Y009563D01*
X010601Y009525D01*
X010601Y009357D01*
X010919Y009357D01*
X010919Y009260D01*
X010601Y009260D01*
X010601Y009092D01*
X010611Y009054D01*
X010631Y009019D01*
X010659Y008991D01*
X010693Y008972D01*
X010731Y008961D01*
X010786Y008961D01*
X010752Y008878D01*
X010752Y008758D01*
X010682Y008758D01*
X010554Y008705D01*
X010455Y008606D01*
X010402Y008478D01*
X010402Y008339D01*
X010435Y008258D01*
X009854Y008258D01*
X009805Y008307D01*
X009510Y008307D01*
X009510Y008310D01*
X009805Y008310D01*
X009893Y008398D01*
X009893Y008719D01*
X009805Y008807D01*
X009510Y008807D01*
X009510Y008961D01*
X009746Y008961D01*
X009802Y009017D01*
X009828Y008991D01*
X009862Y008972D01*
X009900Y008961D01*
X010088Y008961D01*
X010088Y009260D01*
X010185Y009260D01*
X010185Y009357D01*
X010088Y009357D01*
X010088Y009655D01*
X009900Y009655D01*
X009862Y009645D01*
X009828Y009625D01*
X009802Y009599D01*
X009746Y009655D01*
X009652Y009655D01*
X009652Y009925D01*
X009704Y009978D01*
X009783Y009898D01*
X010297Y009898D01*
X010385Y009986D01*
X010385Y010382D01*
X010297Y010470D01*
X009783Y010470D01*
X009697Y010384D01*
X009545Y010384D01*
X009369Y010208D01*
X009252Y010091D01*
X009252Y009655D01*
X009189Y009655D01*
X009101Y009567D01*
X009101Y009049D01*
X009110Y009040D01*
X009110Y008807D01*
X008815Y008807D01*
X008727Y008719D01*
X008727Y008398D01*
X008815Y008310D01*
X009110Y008310D01*
X009110Y008307D01*
X008815Y008307D01*
X008766Y008258D01*
X008399Y008258D01*
X008399Y008422D01*
X008311Y008509D01*
X007793Y008509D01*
X007705Y008422D01*
X007705Y007864D01*
X007761Y007808D01*
X007735Y007782D01*
X007715Y007748D01*
X007705Y007710D01*
X007705Y007522D01*
X008003Y007522D01*
X008003Y007425D01*
X007705Y007425D01*
X007705Y007258D01*
X007685Y007258D01*
X007676Y007266D02*
X007705Y007266D01*
X007705Y007365D02*
X007578Y007365D01*
X007479Y007464D02*
X008003Y007464D01*
X008052Y007474D02*
X008137Y007558D01*
X009310Y007558D01*
X008727Y007558D01*
X008727Y007508D01*
X008619Y007508D01*
X008502Y007391D01*
X008399Y007288D01*
X008399Y007425D01*
X008101Y007425D01*
X008101Y007522D01*
X008399Y007522D01*
X008399Y007710D01*
X008388Y007748D01*
X008369Y007782D01*
X008343Y007808D01*
X008393Y007858D01*
X008766Y007858D01*
X008815Y007810D01*
X009805Y007810D01*
X009854Y007858D01*
X011246Y007858D01*
X011298Y007806D01*
X012289Y007806D01*
X012377Y007894D01*
X012377Y008215D01*
X012289Y008303D01*
X011529Y008303D01*
X011532Y008306D01*
X012289Y008306D01*
X012377Y008394D01*
X012377Y008715D01*
X012289Y008803D01*
X012252Y008803D01*
X012252Y009877D01*
X012331Y009877D01*
X012418Y009965D01*
X012418Y010008D01*
X012607Y010008D01*
X012704Y009912D01*
X012832Y009858D01*
X012971Y009858D01*
X013100Y009912D01*
X013152Y009963D01*
X013152Y007991D01*
X012915Y007754D01*
X012337Y007754D01*
X012289Y007803D01*
X011298Y007803D01*
X011211Y007715D01*
X011211Y007508D01*
X011069Y007508D01*
X009893Y007508D01*
X009893Y007558D01*
X009311Y007558D01*
X009311Y007558D01*
X009893Y007558D01*
X009893Y007676D01*
X009883Y007715D01*
X009863Y007749D01*
X009835Y007777D01*
X009801Y007796D01*
X009763Y007807D01*
X009310Y007807D01*
X008857Y007807D01*
X008819Y007796D01*
X008785Y007777D01*
X008757Y007749D01*
X008737Y007715D01*
X008727Y007676D01*
X008727Y007558D01*
X009310Y007558D01*
X009310Y007558D01*
X010402Y007558D01*
X010552Y007708D01*
X009893Y007661D02*
X011211Y007661D01*
X011211Y007562D02*
X009893Y007562D01*
X009853Y007759D02*
X011255Y007759D01*
X011247Y007858D02*
X009853Y007858D01*
X009846Y008350D02*
X010402Y008350D01*
X010402Y008449D02*
X009893Y008449D01*
X009893Y008548D02*
X010431Y008548D01*
X010495Y008646D02*
X009893Y008646D01*
X009867Y008745D02*
X010649Y008745D01*
X010752Y008843D02*
X009510Y008843D01*
X009510Y008942D02*
X010778Y008942D01*
X010619Y009040D02*
X010485Y009040D01*
X010493Y009054D02*
X010503Y009092D01*
X010503Y009260D01*
X010185Y009260D01*
X010185Y008961D01*
X010373Y008961D01*
X010411Y008972D01*
X010445Y008991D01*
X010473Y009019D01*
X010493Y009054D01*
X010503Y009139D02*
X010601Y009139D01*
X010601Y009237D02*
X010503Y009237D01*
X010552Y009308D02*
X010137Y009308D01*
X010185Y009336D02*
X010919Y009336D01*
X010967Y009308D02*
X010552Y009308D01*
X010552Y008958D01*
X010402Y008808D01*
X010185Y009040D02*
X010088Y009040D01*
X010088Y009139D02*
X010185Y009139D01*
X010185Y009237D02*
X010088Y009237D01*
X010185Y009357D02*
X010503Y009357D01*
X010503Y009525D01*
X010493Y009563D01*
X010473Y009597D01*
X010445Y009625D01*
X010411Y009645D01*
X010373Y009655D01*
X010185Y009655D01*
X010185Y009357D01*
X010185Y009434D02*
X010088Y009434D01*
X010088Y009533D02*
X010185Y009533D01*
X010185Y009632D02*
X010088Y009632D01*
X009839Y009632D02*
X009769Y009632D01*
X009652Y009730D02*
X010932Y009730D01*
X010919Y009632D02*
X011016Y009632D01*
X011016Y009533D02*
X010919Y009533D01*
X010919Y009434D02*
X011016Y009434D01*
X010670Y009632D02*
X010434Y009632D01*
X010501Y009533D02*
X010603Y009533D01*
X010601Y009434D02*
X010503Y009434D01*
X010552Y009308D02*
X010552Y010358D01*
X010702Y010508D01*
X010552Y010658D01*
X010552Y010908D01*
X010715Y010913D02*
X010385Y010913D01*
X010385Y011011D02*
X010715Y011011D01*
X010715Y010814D02*
X010385Y010814D01*
X010366Y010716D02*
X010715Y010716D01*
X010715Y010617D02*
X007364Y010617D01*
X007266Y010518D02*
X010715Y010518D01*
X010702Y010508D02*
X010752Y010558D01*
X011060Y010558D01*
X010715Y010420D02*
X010347Y010420D01*
X010385Y010321D02*
X010715Y010321D01*
X010715Y010223D02*
X010385Y010223D01*
X010385Y010124D02*
X010715Y010124D01*
X010715Y010026D02*
X010385Y010026D01*
X010326Y009927D02*
X010774Y009927D01*
X010860Y009829D02*
X009652Y009829D01*
X009654Y009927D02*
X009754Y009927D01*
X009628Y010184D02*
X009452Y010008D01*
X009452Y009324D01*
X009467Y009308D01*
X009310Y009151D01*
X009310Y008558D01*
X009310Y008058D01*
X008137Y008058D01*
X008052Y008143D01*
X007705Y008153D02*
X007002Y008153D01*
X007002Y008055D02*
X007705Y008055D01*
X007705Y007956D02*
X007001Y007956D01*
X006955Y007858D02*
X007711Y007858D01*
X007722Y007759D02*
X006856Y007759D01*
X006758Y007661D02*
X007705Y007661D01*
X007705Y007562D02*
X006611Y007562D01*
X007002Y008252D02*
X007705Y008252D01*
X007705Y008350D02*
X007002Y008350D01*
X007002Y008449D02*
X007732Y008449D01*
X008371Y008449D02*
X008727Y008449D01*
X008727Y008548D02*
X007002Y008548D01*
X007002Y008646D02*
X008727Y008646D01*
X008753Y008745D02*
X007002Y008745D01*
X007002Y008843D02*
X009110Y008843D01*
X009110Y008942D02*
X007002Y008942D01*
X007002Y009040D02*
X009110Y009040D01*
X009101Y009139D02*
X007002Y009139D01*
X007002Y009237D02*
X009101Y009237D01*
X009101Y009336D02*
X007002Y009336D01*
X007002Y009434D02*
X009101Y009434D01*
X009101Y009533D02*
X007002Y009533D01*
X007002Y009632D02*
X009165Y009632D01*
X009252Y009730D02*
X007002Y009730D01*
X007002Y009829D02*
X009252Y009829D01*
X009252Y009927D02*
X007002Y009927D01*
X007002Y010026D02*
X009252Y010026D01*
X009285Y010124D02*
X007002Y010124D01*
X007002Y010223D02*
X009384Y010223D01*
X009482Y010321D02*
X007068Y010321D01*
X007167Y010420D02*
X009733Y010420D01*
X009628Y010184D02*
X010040Y010184D01*
X009714Y010716D02*
X007463Y010716D01*
X007561Y010814D02*
X009695Y010814D01*
X009695Y010913D02*
X007660Y010913D01*
X007758Y011011D02*
X009695Y011011D01*
X011060Y010932D02*
X011328Y010932D01*
X011452Y010808D01*
X011537Y010893D01*
X012052Y010893D01*
X011452Y010808D02*
X011452Y010308D01*
X011352Y010208D01*
X011084Y010208D01*
X011060Y010184D01*
X011060Y009885D01*
X011637Y009308D01*
X011137Y008808D01*
X011102Y008808D01*
X011352Y008408D02*
X010752Y008408D01*
X011352Y008408D02*
X011502Y008558D01*
X011790Y008558D01*
X011794Y008554D01*
X012048Y008554D01*
X012052Y008558D01*
X012052Y010224D01*
X012067Y010208D01*
X012902Y010208D01*
X013116Y009927D02*
X013152Y009927D01*
X013152Y009829D02*
X012252Y009829D01*
X012252Y009730D02*
X013152Y009730D01*
X013152Y009632D02*
X012252Y009632D01*
X012252Y009533D02*
X013152Y009533D01*
X013152Y009434D02*
X012252Y009434D01*
X012252Y009336D02*
X013152Y009336D01*
X013152Y009237D02*
X012252Y009237D01*
X012252Y009139D02*
X013152Y009139D01*
X013152Y009040D02*
X012252Y009040D01*
X012252Y008942D02*
X013152Y008942D01*
X013152Y008843D02*
X012252Y008843D01*
X012347Y008745D02*
X013152Y008745D01*
X013152Y008646D02*
X012377Y008646D01*
X012377Y008548D02*
X013152Y008548D01*
X013152Y008449D02*
X012377Y008449D01*
X012333Y008350D02*
X013152Y008350D01*
X013152Y008252D02*
X012340Y008252D01*
X012377Y008153D02*
X013152Y008153D01*
X013152Y008055D02*
X012377Y008055D01*
X012377Y007956D02*
X013117Y007956D01*
X013019Y007858D02*
X012341Y007858D01*
X012332Y007759D02*
X012920Y007759D01*
X012998Y007554D02*
X013352Y007908D01*
X014402Y006858D01*
X016202Y006858D01*
X017835Y006358D02*
X018101Y006624D01*
X018101Y006607D01*
X018419Y006607D01*
X018419Y006905D01*
X018381Y006905D01*
X018402Y006925D01*
X018402Y007102D01*
X018509Y007102D01*
X018509Y007482D01*
X018519Y007482D01*
X018519Y007102D01*
X018579Y007102D01*
X018579Y006915D01*
X018579Y006905D01*
X018516Y006905D01*
X018516Y006607D01*
X018419Y006607D01*
X018419Y006510D01*
X018101Y006510D01*
X018101Y006358D01*
X017835Y006358D01*
X017835Y006358D01*
X017856Y006380D02*
X018101Y006380D01*
X018101Y006478D02*
X017955Y006478D01*
X018053Y006577D02*
X018419Y006577D01*
X018419Y006675D02*
X018516Y006675D01*
X018516Y006774D02*
X018419Y006774D01*
X018419Y006872D02*
X018516Y006872D01*
X018579Y006971D02*
X018402Y006971D01*
X018402Y007069D02*
X018579Y007069D01*
X018519Y007168D02*
X018509Y007168D01*
X018509Y007266D02*
X018519Y007266D01*
X018509Y007365D02*
X018519Y007365D01*
X018509Y007464D02*
X018519Y007464D01*
X018509Y007562D02*
X018519Y007562D01*
X018509Y007661D02*
X018519Y007661D01*
X018509Y007759D02*
X018519Y007759D01*
X018509Y007858D02*
X018519Y007858D01*
X020002Y008558D02*
X020002Y010858D01*
X020402Y011258D01*
X021802Y011258D01*
X022029Y011031D01*
X022373Y011031D01*
X022373Y010716D02*
X022044Y010716D01*
X021702Y011058D01*
X020602Y011058D01*
X020352Y010808D01*
X020352Y008158D01*
X020702Y008558D02*
X020702Y010308D01*
X021102Y010658D02*
X021102Y008158D01*
X021402Y008408D02*
X021652Y008158D01*
X021402Y008408D02*
X021402Y010458D01*
X021602Y010658D01*
X021602Y010308D02*
X021671Y010308D01*
X021800Y010362D01*
X021899Y010460D01*
X021933Y010544D01*
X021962Y010516D01*
X021988Y010516D01*
X021988Y010229D01*
X021988Y009914D01*
X021991Y009911D01*
X021988Y009901D01*
X021988Y009776D01*
X022367Y009776D01*
X022367Y009766D01*
X021988Y009766D01*
X021988Y009706D01*
X021949Y009706D01*
X021877Y009706D01*
X021871Y009708D01*
X021732Y009708D01*
X021604Y009655D01*
X021602Y009653D01*
X021602Y010308D01*
X021602Y010223D02*
X021988Y010223D01*
X021988Y010321D02*
X021703Y010321D01*
X021858Y010420D02*
X021988Y010420D01*
X021959Y010518D02*
X021923Y010518D01*
X022373Y010401D02*
X023444Y010401D01*
X023802Y010758D01*
X023952Y010758D01*
X024052Y010858D01*
X024402Y010858D01*
X024402Y011793D01*
X024387Y011808D01*
X024753Y011799D02*
X027528Y011799D01*
X027626Y011701D02*
X024753Y011701D01*
X024753Y011602D02*
X027725Y011602D01*
X027823Y011504D02*
X024708Y011504D01*
X024602Y011405D02*
X027922Y011405D01*
X028021Y011307D02*
X024665Y011307D01*
X024702Y011208D02*
X028119Y011208D01*
X028218Y011110D02*
X024702Y011110D01*
X024702Y011011D02*
X028316Y011011D01*
X028415Y010913D02*
X024702Y010913D01*
X024702Y010814D02*
X028513Y010814D01*
X028612Y010716D02*
X024702Y010716D01*
X024702Y010617D02*
X028710Y010617D01*
X028809Y010518D02*
X027478Y010518D01*
X027409Y010588D02*
X027239Y010588D01*
X027119Y010468D01*
X027119Y010353D01*
X027005Y010353D01*
X026885Y010233D01*
X026885Y010064D01*
X026912Y010037D01*
X026828Y010037D01*
X026708Y009917D01*
X026708Y009759D01*
X026655Y009759D01*
X026591Y009771D01*
X026572Y009759D01*
X026549Y009759D01*
X026504Y009713D01*
X026450Y009677D01*
X026445Y009655D01*
X026429Y009638D01*
X026429Y009574D01*
X026417Y009510D01*
X026429Y009491D01*
X026429Y009469D01*
X026475Y009423D01*
X026511Y009369D01*
X026533Y009365D01*
X026967Y008931D01*
X027137Y008931D01*
X027257Y009051D01*
X027257Y009209D01*
X027310Y009209D01*
X027373Y009197D01*
X027392Y009209D01*
X027415Y009209D01*
X027461Y009255D01*
X027515Y009291D01*
X027519Y009313D01*
X027535Y009329D01*
X027535Y009387D01*
X027593Y009387D01*
X027662Y009456D01*
X027780Y009575D01*
X027852Y009646D01*
X027852Y009691D01*
X027896Y009691D01*
X028016Y009811D01*
X028016Y009981D01*
X027827Y010170D01*
X027808Y010170D01*
X027808Y010189D01*
X027409Y010588D01*
X027577Y010420D02*
X028907Y010420D01*
X029006Y010321D02*
X027676Y010321D01*
X027774Y010223D02*
X029104Y010223D01*
X029203Y010124D02*
X027873Y010124D01*
X027971Y010026D02*
X029302Y010026D01*
X029400Y009927D02*
X028016Y009927D01*
X028016Y009829D02*
X029499Y009829D01*
X029552Y009730D02*
X027936Y009730D01*
X027837Y009632D02*
X029552Y009632D01*
X029552Y009533D02*
X027739Y009533D01*
X027662Y009456D02*
X027662Y009456D01*
X027640Y009434D02*
X029552Y009434D01*
X029552Y009336D02*
X027535Y009336D01*
X027443Y009237D02*
X029552Y009237D01*
X029552Y009139D02*
X027257Y009139D01*
X027246Y009040D02*
X029552Y009040D01*
X029552Y008942D02*
X027147Y008942D01*
X026956Y008942D02*
X024702Y008942D01*
X024702Y009040D02*
X026858Y009040D01*
X026759Y009139D02*
X024702Y009139D01*
X024702Y009237D02*
X026661Y009237D01*
X026562Y009336D02*
X024702Y009336D01*
X024702Y009434D02*
X026463Y009434D01*
X026421Y009533D02*
X024702Y009533D01*
X024702Y009632D02*
X026429Y009632D01*
X026521Y009730D02*
X024642Y009730D01*
X024402Y009258D02*
X024052Y009258D01*
X024002Y009308D01*
X023852Y009308D01*
X023074Y010086D01*
X022373Y010086D01*
X021988Y010124D02*
X021602Y010124D01*
X021602Y010026D02*
X021988Y010026D01*
X021988Y009927D02*
X021602Y009927D01*
X021602Y009829D02*
X021988Y009829D01*
X021988Y009730D02*
X021602Y009730D01*
X022085Y009141D02*
X021752Y008808D01*
X021752Y008708D01*
X022352Y008808D02*
X022902Y008808D01*
X023225Y008942D02*
X023402Y008942D01*
X023352Y008908D02*
X023352Y008708D01*
X023702Y008358D01*
X023702Y008308D01*
X023717Y008308D01*
X023669Y008350D02*
X023155Y008350D01*
X023221Y008252D02*
X023351Y008252D01*
X023351Y008260D02*
X023351Y008092D01*
X023361Y008054D01*
X023381Y008019D01*
X023409Y007991D01*
X023443Y007972D01*
X023481Y007961D01*
X023669Y007961D01*
X023669Y008260D01*
X023351Y008260D01*
X023351Y008153D02*
X023252Y008153D01*
X023252Y008055D02*
X023361Y008055D01*
X023669Y008055D02*
X023766Y008055D01*
X023766Y008153D02*
X023669Y008153D01*
X023669Y008252D02*
X023766Y008252D01*
X023766Y008449D02*
X023669Y008449D01*
X023669Y008548D02*
X023766Y008548D01*
X023766Y008646D02*
X023669Y008646D01*
X023448Y008646D02*
X023214Y008646D01*
X023252Y008745D02*
X024202Y008745D01*
X024099Y008646D02*
X023987Y008646D01*
X024387Y008308D02*
X024402Y008324D01*
X024402Y009258D01*
X024699Y008843D02*
X029552Y008843D01*
X029552Y008745D02*
X024602Y008745D01*
X024674Y008646D02*
X029552Y008646D01*
X029552Y008548D02*
X024753Y008548D01*
X024753Y008449D02*
X029552Y008449D01*
X029552Y008350D02*
X024753Y008350D01*
X024753Y008252D02*
X029552Y008252D01*
X029624Y008153D02*
X024753Y008153D01*
X024753Y008055D02*
X029722Y008055D01*
X029821Y007956D02*
X029137Y007956D01*
X029235Y007858D02*
X029920Y007858D01*
X030018Y007759D02*
X029334Y007759D01*
X029432Y007661D02*
X030117Y007661D01*
X030215Y007562D02*
X029531Y007562D01*
X029629Y007464D02*
X030314Y007464D01*
X030502Y006308D02*
X029052Y007758D01*
X022552Y007758D01*
X022352Y007958D01*
X022352Y008175D01*
X022373Y008196D01*
X022373Y008511D02*
X022699Y008511D01*
X022902Y008308D01*
X022902Y008108D01*
X023044Y008449D02*
X023351Y008449D01*
X023357Y008548D02*
X023136Y008548D01*
X023252Y008843D02*
X023405Y008843D01*
X023352Y008908D02*
X023202Y009058D01*
X023202Y009258D01*
X023402Y009237D02*
X022758Y009237D01*
X022758Y009139D02*
X022785Y009139D01*
X022758Y009336D02*
X023402Y009336D01*
X023402Y009434D02*
X022758Y009434D01*
X022758Y009533D02*
X023344Y009533D01*
X023246Y009632D02*
X022755Y009632D01*
X022758Y009730D02*
X023147Y009730D01*
X023049Y009829D02*
X022758Y009829D01*
X023417Y010026D02*
X026817Y010026D01*
X026885Y010124D02*
X023319Y010124D01*
X023549Y010223D02*
X026885Y010223D01*
X026973Y010321D02*
X023648Y010321D01*
X023378Y010617D02*
X022758Y010617D01*
X022758Y010716D02*
X023402Y010716D01*
X023402Y010814D02*
X022758Y010814D01*
X022758Y010913D02*
X023402Y010913D01*
X023402Y011011D02*
X022758Y011011D01*
X022758Y011110D02*
X023402Y011110D01*
X023402Y011208D02*
X022758Y011208D01*
X022758Y011307D02*
X023438Y011307D01*
X023481Y011461D02*
X023669Y011461D01*
X023669Y011760D01*
X023351Y011760D01*
X023351Y011592D01*
X023361Y011554D01*
X023381Y011519D01*
X023409Y011491D01*
X023443Y011472D01*
X023481Y011461D01*
X023396Y011504D02*
X022758Y011504D01*
X022758Y011602D02*
X023351Y011602D01*
X023351Y011701D02*
X022758Y011701D01*
X022758Y011799D02*
X023669Y011799D01*
X023702Y011808D02*
X023717Y011808D01*
X023702Y011808D02*
X023202Y011308D01*
X022758Y011405D02*
X024202Y011405D01*
X024065Y011504D02*
X024038Y011504D01*
X023766Y011504D02*
X023669Y011504D01*
X023669Y011602D02*
X023766Y011602D01*
X023766Y011701D02*
X023669Y011701D01*
X023669Y011898D02*
X023766Y011898D01*
X023766Y011997D02*
X023669Y011997D01*
X023669Y012095D02*
X023766Y012095D01*
X023379Y012095D02*
X022772Y012095D01*
X022758Y011997D02*
X023351Y011997D01*
X023351Y011898D02*
X022758Y011898D01*
X022870Y012194D02*
X027134Y012194D01*
X027232Y012095D02*
X024725Y012095D01*
X024753Y011997D02*
X027331Y011997D01*
X027429Y011898D02*
X024753Y011898D01*
X023264Y012588D02*
X026739Y012588D01*
X026838Y012489D02*
X023166Y012489D01*
X023067Y012391D02*
X026937Y012391D01*
X027035Y012292D02*
X022969Y012292D01*
X022649Y012606D02*
X022373Y012606D01*
X022649Y012606D02*
X023052Y013008D01*
X027052Y013008D01*
X030002Y010008D01*
X030002Y008858D01*
X030727Y009139D02*
X030774Y009139D01*
X032322Y008646D02*
X032431Y008646D01*
X032418Y008548D02*
X032530Y008548D01*
X032898Y008745D02*
X033302Y008745D01*
X033302Y008843D02*
X032800Y008843D01*
X032823Y008942D02*
X032701Y008942D01*
X032743Y009040D02*
X032603Y009040D01*
X032997Y008646D02*
X033302Y008646D01*
X033302Y008548D02*
X033052Y008548D01*
X033052Y008449D02*
X033302Y008449D01*
X033302Y008350D02*
X033052Y008350D01*
X033052Y008252D02*
X033302Y008252D01*
X033302Y008153D02*
X033052Y008153D01*
X033052Y008055D02*
X033302Y008055D01*
X033302Y007956D02*
X033052Y007956D01*
X033052Y007858D02*
X033302Y007858D01*
X033302Y007759D02*
X033052Y007759D01*
X033052Y007661D02*
X033302Y007661D01*
X033302Y007562D02*
X033052Y007562D01*
X033052Y007464D02*
X033302Y007464D01*
X033302Y007365D02*
X033052Y007365D01*
X033052Y007266D02*
X033302Y007266D01*
X033302Y007168D02*
X033052Y007168D01*
X033052Y007069D02*
X033302Y007069D01*
X033302Y006971D02*
X033052Y006971D01*
X033052Y006872D02*
X033302Y006872D01*
X033302Y006774D02*
X033052Y006774D01*
X033052Y006675D02*
X033302Y006675D01*
X033302Y006577D02*
X033052Y006577D01*
X033052Y006478D02*
X033302Y006478D01*
X033302Y006380D02*
X033052Y006380D01*
X033052Y006281D02*
X033302Y006281D01*
X033302Y006183D02*
X033052Y006183D01*
X033052Y006084D02*
X033302Y006084D01*
X033302Y005985D02*
X033052Y005985D01*
X033013Y005887D02*
X033302Y005887D01*
X033302Y005788D02*
X032915Y005788D01*
X032816Y005690D02*
X033302Y005690D01*
X033302Y005591D02*
X032718Y005591D01*
X032619Y005493D02*
X033302Y005493D01*
X033302Y005394D02*
X032521Y005394D01*
X032422Y005296D02*
X033302Y005296D01*
X030369Y002339D02*
X030286Y002339D01*
X030188Y002241D02*
X030407Y002241D01*
X030452Y002142D02*
X030089Y002142D01*
X029991Y002044D02*
X030497Y002044D01*
X030542Y001945D02*
X029892Y001945D01*
X029794Y001847D02*
X030593Y001847D01*
X030679Y001748D02*
X029752Y001748D01*
X029752Y001650D02*
X030764Y001650D01*
X030849Y001551D02*
X029752Y001551D01*
X029379Y001452D02*
X030958Y001452D01*
X030906Y001486D02*
X030906Y001486D01*
X031111Y001354D02*
X029280Y001354D01*
X029182Y001255D02*
X031264Y001255D01*
X031325Y001216D02*
X031325Y001216D01*
X029402Y001758D02*
X029052Y001408D01*
X027287Y001408D01*
X026887Y001808D01*
X027233Y001847D02*
X027352Y001847D01*
X027352Y001748D02*
X027233Y001748D01*
X027328Y001650D02*
X027389Y001650D01*
X027380Y001945D02*
X027233Y001945D01*
X027270Y002044D02*
X027442Y002044D01*
X027369Y002142D02*
X027594Y002142D01*
X027810Y002142D02*
X027924Y002142D01*
X027572Y002438D02*
X027502Y002438D01*
X028480Y002142D02*
X028524Y002142D01*
X029402Y001808D02*
X029402Y001758D01*
X026617Y001452D02*
X026487Y001452D01*
X026302Y002241D02*
X025517Y002241D01*
X025616Y002339D02*
X026400Y002339D01*
X026572Y002438D02*
X026031Y002438D01*
X026138Y002536D02*
X026466Y002536D01*
X026408Y002635D02*
X026195Y002635D01*
X026232Y002734D02*
X026372Y002734D01*
X026372Y002832D02*
X026232Y002832D01*
X026217Y002931D02*
X026387Y002931D01*
X026298Y003029D02*
X026176Y003029D01*
X026302Y003308D02*
X026802Y002808D01*
X026302Y003308D02*
X021302Y003308D01*
X019202Y005408D01*
X019352Y005808D02*
X021352Y003808D01*
X025302Y003808D01*
X025610Y003508D02*
X025666Y003565D01*
X025732Y003723D01*
X025732Y003894D01*
X025666Y004052D01*
X025545Y004173D01*
X025387Y004238D01*
X025216Y004238D01*
X025058Y004173D01*
X024937Y004052D01*
X024919Y004008D01*
X021435Y004008D01*
X019931Y005512D01*
X020050Y005562D01*
X019352Y005808D02*
X017952Y005808D01*
X017552Y005458D02*
X018552Y005458D01*
X021202Y002808D01*
X024802Y002808D01*
X025352Y002358D02*
X025802Y002808D01*
X025352Y002358D02*
X023252Y002358D01*
X023531Y002142D02*
X025926Y002142D01*
X025994Y003508D02*
X025610Y003508D01*
X025624Y003522D02*
X025980Y003522D01*
X025994Y003508D02*
X025937Y003565D01*
X025872Y003723D01*
X025872Y003894D01*
X025890Y003937D01*
X025452Y004375D01*
X025419Y004408D01*
X023152Y004408D01*
X023152Y004339D01*
X023099Y004210D01*
X023000Y004112D01*
X022871Y004058D01*
X022732Y004058D01*
X022604Y004112D01*
X022505Y004210D01*
X022452Y004339D01*
X022452Y004478D01*
X022505Y004606D01*
X022464Y004507D02*
X020936Y004507D01*
X021034Y004409D02*
X022452Y004409D01*
X022464Y004310D02*
X021133Y004310D01*
X021231Y004212D02*
X022504Y004212D01*
X022602Y004113D02*
X021330Y004113D01*
X021428Y004015D02*
X024922Y004015D01*
X024999Y004113D02*
X023002Y004113D01*
X023099Y004212D02*
X025152Y004212D01*
X025452Y004212D02*
X025616Y004212D01*
X025605Y004113D02*
X025714Y004113D01*
X025682Y004015D02*
X025813Y004015D01*
X025881Y003916D02*
X025723Y003916D01*
X025732Y003817D02*
X025872Y003817D01*
X025873Y003719D02*
X025730Y003719D01*
X025689Y003620D02*
X025914Y003620D01*
X026302Y003808D02*
X025652Y004458D01*
X025502Y004608D01*
X023002Y004608D01*
X022802Y004408D01*
X023140Y004310D02*
X025517Y004310D01*
X022947Y002536D02*
X015857Y002536D01*
X015770Y002635D02*
X021092Y002635D01*
X020994Y002734D02*
X015752Y002734D01*
X015752Y002832D02*
X020895Y002832D01*
X020797Y002931D02*
X015752Y002931D01*
X015752Y003029D02*
X020698Y003029D01*
X020600Y003128D02*
X015754Y003128D01*
X015853Y003226D02*
X020501Y003226D01*
X020403Y003325D02*
X015951Y003325D01*
X016050Y003423D02*
X020304Y003423D01*
X020205Y003522D02*
X016148Y003522D01*
X016247Y003620D02*
X020107Y003620D01*
X020008Y003719D02*
X016345Y003719D01*
X016444Y003817D02*
X019910Y003817D01*
X019811Y003916D02*
X016542Y003916D01*
X016641Y004015D02*
X019713Y004015D01*
X019614Y004113D02*
X016740Y004113D01*
X016838Y004212D02*
X019516Y004212D01*
X019417Y004310D02*
X016937Y004310D01*
X017158Y002339D02*
X017297Y002339D01*
X016652Y002142D02*
X015831Y002142D01*
X015707Y002044D02*
X016602Y002044D01*
X016936Y001452D02*
X017071Y001452D01*
X017580Y001452D02*
X017967Y001452D01*
X017891Y001551D02*
X017656Y001551D01*
X017876Y001650D02*
X017891Y001650D01*
X018520Y001452D02*
X019256Y001452D01*
X019180Y001551D02*
X018619Y001551D01*
X018695Y001650D02*
X019180Y001650D01*
X019230Y001748D02*
X018695Y001748D01*
X018695Y001847D02*
X019255Y001847D01*
X019180Y001945D02*
X018695Y001945D01*
X018695Y002044D02*
X019180Y002044D01*
X019230Y002142D02*
X018695Y002142D01*
X018644Y002241D02*
X019329Y002241D01*
X019428Y002339D02*
X018545Y002339D01*
X018574Y002310D02*
X018574Y002310D01*
X018476Y002409D02*
X018476Y002409D01*
X017942Y002339D02*
X017901Y002339D01*
X019736Y002339D02*
X020072Y002339D01*
X019974Y002241D02*
X019787Y002241D01*
X019787Y002142D02*
X019875Y002142D01*
X019825Y002044D02*
X019787Y002044D01*
X019787Y001945D02*
X019825Y001945D01*
X019787Y001847D02*
X019900Y001847D01*
X019902Y006358D02*
X020002Y006358D01*
X020402Y006758D01*
X021349Y007487D02*
X021352Y007485D01*
X022352Y008808D02*
X022370Y008826D01*
X022373Y008826D01*
X022373Y009141D02*
X022085Y009141D01*
X023018Y009139D02*
X023402Y009139D01*
X023402Y009040D02*
X023165Y009040D01*
X023614Y009829D02*
X026708Y009829D01*
X026718Y009927D02*
X023516Y009927D01*
X024676Y010420D02*
X027119Y010420D01*
X027170Y010518D02*
X024702Y010518D01*
X022373Y011346D02*
X022014Y011346D01*
X021902Y011458D01*
X020452Y011458D01*
X019852Y012058D01*
X019152Y012058D01*
X019052Y012258D02*
X019952Y012258D01*
X020550Y011661D01*
X022373Y011661D01*
X021602Y012158D02*
X021452Y012008D01*
X021602Y012158D02*
X021602Y013208D01*
X021664Y013270D01*
X021664Y013629D01*
X021924Y013573D02*
X022084Y013573D01*
X021986Y013475D02*
X021924Y013475D01*
X021352Y013626D02*
X021349Y013629D01*
X021352Y013626D02*
X021352Y012658D01*
X021102Y012408D01*
X020702Y012008D02*
X020702Y012908D01*
X020552Y013058D01*
X018652Y013058D01*
X018514Y013196D01*
X018514Y013629D01*
X018200Y013629D02*
X018200Y014156D01*
X021352Y017308D01*
X021552Y017308D01*
X021172Y017515D02*
X020932Y017515D01*
X020972Y017416D02*
X021131Y017416D01*
X021079Y017318D02*
X020982Y017318D01*
X020552Y017308D02*
X020552Y016908D01*
X017885Y014241D01*
X017885Y013629D01*
X017570Y013629D02*
X017570Y014326D01*
X019552Y016308D01*
X019552Y017308D01*
X019982Y017318D02*
X020122Y017318D01*
X020123Y017219D02*
X019980Y017219D01*
X019940Y017121D02*
X020164Y017121D01*
X020230Y017022D02*
X019874Y017022D01*
X019752Y016924D02*
X020285Y016924D01*
X020186Y016825D02*
X019752Y016825D01*
X019752Y016727D02*
X020087Y016727D01*
X019989Y016628D02*
X019752Y016628D01*
X019752Y016530D02*
X019890Y016530D01*
X019792Y016431D02*
X019752Y016431D01*
X020265Y015938D02*
X020299Y015938D01*
X020201Y015840D02*
X020166Y015840D01*
X020102Y015741D02*
X020068Y015741D01*
X020003Y015643D02*
X019969Y015643D01*
X019905Y015544D02*
X019871Y015544D01*
X019806Y015446D02*
X019772Y015446D01*
X019708Y015347D02*
X019673Y015347D01*
X019609Y015249D02*
X019575Y015249D01*
X019511Y015150D02*
X019476Y015150D01*
X019412Y015051D02*
X019378Y015051D01*
X019314Y014953D02*
X019279Y014953D01*
X019215Y014854D02*
X019181Y014854D01*
X019117Y014756D02*
X019082Y014756D01*
X019018Y014657D02*
X018984Y014657D01*
X018919Y014559D02*
X018885Y014559D01*
X018821Y014460D02*
X018787Y014460D01*
X018722Y014362D02*
X018688Y014362D01*
X018629Y014263D02*
X018589Y014263D01*
X018629Y014165D02*
X018491Y014165D01*
X018399Y014066D02*
X018629Y014066D01*
X017317Y014756D02*
X016402Y014756D01*
X016402Y014854D02*
X017415Y014854D01*
X017514Y014953D02*
X016402Y014953D01*
X016402Y015051D02*
X017612Y015051D01*
X017711Y015150D02*
X016402Y015150D01*
X016402Y015249D02*
X017809Y015249D01*
X017908Y015347D02*
X016402Y015347D01*
X016402Y015446D02*
X018006Y015446D01*
X018105Y015544D02*
X016402Y015544D01*
X016402Y015643D02*
X018203Y015643D01*
X018302Y015741D02*
X016402Y015741D01*
X016402Y015840D02*
X018352Y015840D01*
X018352Y015938D02*
X016402Y015938D01*
X016402Y016037D02*
X018352Y016037D01*
X018352Y016135D02*
X016402Y016135D01*
X016402Y016234D02*
X018352Y016234D01*
X018352Y016332D02*
X016402Y016332D01*
X016402Y016431D02*
X018352Y016431D01*
X018352Y016530D02*
X016402Y016530D01*
X016402Y016628D02*
X018352Y016628D01*
X018352Y016727D02*
X016402Y016727D01*
X016402Y016825D02*
X018352Y016825D01*
X018352Y016924D02*
X017744Y016924D01*
X017582Y016924D02*
X017522Y016924D01*
X017522Y016878D02*
X017522Y017278D01*
X017122Y017278D01*
X017122Y017274D01*
X017132Y017208D01*
X017153Y017143D01*
X017184Y017083D01*
X017224Y017028D01*
X017272Y016980D01*
X017326Y016941D01*
X017387Y016910D01*
X017451Y016889D01*
X017518Y016878D01*
X017522Y016878D01*
X017522Y017022D02*
X017582Y017022D01*
X017582Y017121D02*
X017522Y017121D01*
X017522Y017219D02*
X017582Y017219D01*
X017582Y017416D02*
X017522Y017416D01*
X017522Y017515D02*
X017582Y017515D01*
X017582Y017614D02*
X017522Y017614D01*
X017522Y017712D02*
X017582Y017712D01*
X017700Y017712D02*
X018403Y017712D01*
X018249Y017614D02*
X017855Y017614D01*
X017929Y017515D02*
X018172Y017515D01*
X018131Y017416D02*
X017969Y017416D01*
X017973Y017219D02*
X018123Y017219D01*
X018164Y017121D02*
X017939Y017121D01*
X017874Y017022D02*
X018230Y017022D01*
X017359Y016924D02*
X016402Y016924D01*
X016402Y017022D02*
X017230Y017022D01*
X017165Y017121D02*
X016402Y017121D01*
X016402Y017219D02*
X017131Y017219D01*
X016402Y017909D02*
X017892Y017909D01*
X017744Y018008D02*
X016402Y018008D01*
X016402Y018106D02*
X017670Y018106D01*
X017629Y018205D02*
X016402Y018205D01*
X016402Y018303D02*
X017622Y018303D01*
X017625Y018402D02*
X016402Y018402D01*
X016402Y018500D02*
X017666Y018500D01*
X017735Y018599D02*
X016402Y018599D01*
X016402Y018698D02*
X017802Y018698D01*
X017802Y018796D02*
X016402Y018796D01*
X016402Y018895D02*
X017802Y018895D01*
X017755Y018993D02*
X017749Y018993D01*
X017155Y018993D02*
X016402Y018993D01*
X016402Y019092D02*
X017102Y019092D01*
X017102Y019190D02*
X016402Y019190D01*
X016402Y019289D02*
X017102Y019289D01*
X017102Y019387D02*
X016402Y019387D01*
X016402Y019486D02*
X017102Y019486D01*
X015902Y018895D02*
X011052Y018895D01*
X011052Y018796D02*
X015902Y018796D01*
X015902Y018698D02*
X014986Y018698D01*
X015045Y018673D02*
X014887Y018738D01*
X014716Y018738D01*
X014558Y018673D01*
X014437Y018552D01*
X014372Y018394D01*
X014372Y018223D01*
X014437Y018065D01*
X014558Y017944D01*
X014716Y017878D01*
X014887Y017878D01*
X015045Y017944D01*
X015166Y018065D01*
X015232Y018223D01*
X015232Y018394D01*
X015166Y018552D01*
X015045Y018673D01*
X015119Y018599D02*
X015902Y018599D01*
X015902Y018500D02*
X015188Y018500D01*
X015229Y018402D02*
X015902Y018402D01*
X015902Y018303D02*
X015232Y018303D01*
X015224Y018205D02*
X015902Y018205D01*
X015902Y018106D02*
X015184Y018106D01*
X015109Y018008D02*
X015902Y018008D01*
X015902Y017909D02*
X014962Y017909D01*
X014642Y017909D02*
X013962Y017909D01*
X013887Y017878D02*
X014045Y017944D01*
X014166Y018065D01*
X014232Y018223D01*
X014232Y018394D01*
X014166Y018552D01*
X014045Y018673D01*
X013887Y018738D01*
X013716Y018738D01*
X013558Y018673D01*
X013437Y018552D01*
X013372Y018394D01*
X013372Y018223D01*
X013437Y018065D01*
X013558Y017944D01*
X013716Y017878D01*
X013887Y017878D01*
X013642Y017909D02*
X012962Y017909D01*
X013109Y018008D02*
X013494Y018008D01*
X013420Y018106D02*
X013184Y018106D01*
X013224Y018205D02*
X013379Y018205D01*
X013372Y018303D02*
X013232Y018303D01*
X013229Y018402D02*
X013375Y018402D01*
X013416Y018500D02*
X013188Y018500D01*
X013119Y018599D02*
X013485Y018599D01*
X013618Y018698D02*
X012986Y018698D01*
X013986Y018698D02*
X014618Y018698D01*
X014485Y018599D02*
X014119Y018599D01*
X014188Y018500D02*
X014416Y018500D01*
X014375Y018402D02*
X014229Y018402D01*
X014232Y018303D02*
X014372Y018303D01*
X014379Y018205D02*
X014224Y018205D01*
X014184Y018106D02*
X014420Y018106D01*
X014494Y018008D02*
X014109Y018008D01*
X014153Y017712D02*
X013451Y017712D01*
X013605Y017614D02*
X013999Y017614D01*
X013922Y017515D02*
X013682Y017515D01*
X013722Y017416D02*
X013881Y017416D01*
X014519Y016924D02*
X015902Y016924D01*
X015902Y017022D02*
X014624Y017022D01*
X014690Y017121D02*
X015902Y017121D01*
X015902Y017219D02*
X014730Y017219D01*
X014618Y016825D02*
X015902Y016825D01*
X015902Y016727D02*
X014652Y016727D01*
X014652Y016628D02*
X015902Y016628D01*
X015902Y016530D02*
X014652Y016530D01*
X014652Y016431D02*
X015902Y016431D01*
X015902Y016332D02*
X014652Y016332D01*
X014652Y016234D02*
X015902Y016234D01*
X015902Y016135D02*
X014652Y016135D01*
X014652Y016037D02*
X015902Y016037D01*
X015902Y015938D02*
X014652Y015938D01*
X014652Y015840D02*
X015902Y015840D01*
X015902Y015741D02*
X014652Y015741D01*
X014652Y015643D02*
X015902Y015643D01*
X015902Y015544D02*
X014652Y015544D01*
X014652Y015446D02*
X015902Y015446D01*
X015902Y015347D02*
X014652Y015347D01*
X014652Y015249D02*
X015902Y015249D01*
X015902Y015150D02*
X014652Y015150D01*
X014742Y015051D02*
X015902Y015051D01*
X015902Y014953D02*
X014840Y014953D01*
X014939Y014854D02*
X015902Y014854D01*
X015902Y014756D02*
X015037Y014756D01*
X015136Y014657D02*
X015902Y014657D01*
X015902Y014559D02*
X015234Y014559D01*
X015333Y014460D02*
X015902Y014460D01*
X015902Y014362D02*
X015431Y014362D01*
X015530Y014263D02*
X015902Y014263D01*
X015838Y014165D02*
X015628Y014165D01*
X015727Y014066D02*
X015802Y014066D01*
X015881Y013629D02*
X016940Y013629D01*
X017255Y013629D02*
X017255Y014411D01*
X018552Y015708D01*
X017218Y014657D02*
X016402Y014657D01*
X016402Y014559D02*
X017119Y014559D01*
X017055Y014460D02*
X016402Y014460D01*
X016402Y014362D02*
X017055Y014362D01*
X017055Y014263D02*
X016402Y014263D01*
X016466Y014165D02*
X017055Y014165D01*
X017055Y014066D02*
X016502Y014066D01*
X016502Y013967D02*
X016721Y013967D01*
X016680Y013869D02*
X016473Y013869D01*
X017402Y013008D02*
X017152Y012758D01*
X017352Y012508D02*
X017352Y011308D01*
X017102Y011058D01*
X016259Y011058D01*
X016231Y011031D01*
X016274Y010758D02*
X016231Y010716D01*
X016274Y010758D02*
X017102Y010758D01*
X017552Y011208D01*
X017552Y012208D01*
X017652Y012308D01*
X017902Y012308D01*
X017502Y012658D02*
X017352Y012508D01*
X017502Y012658D02*
X018302Y012658D01*
X018628Y012785D02*
X020502Y012785D01*
X020502Y012686D02*
X018652Y012686D01*
X018651Y012588D02*
X020502Y012588D01*
X020502Y012489D02*
X018611Y012489D01*
X017902Y013008D02*
X017402Y013008D01*
X016952Y011701D02*
X016616Y011701D01*
X016616Y011602D02*
X016952Y011602D01*
X016952Y011504D02*
X016639Y011504D01*
X015652Y011458D02*
X012852Y014258D01*
X012852Y015558D01*
X012702Y015708D01*
X012352Y015508D02*
X012652Y015208D01*
X012652Y014158D01*
X015452Y011358D01*
X015452Y010158D01*
X015802Y009808D01*
X016194Y009808D01*
X016231Y009771D01*
X016179Y009508D02*
X015802Y009508D01*
X015252Y010058D01*
X015252Y011258D01*
X012452Y014058D01*
X012452Y015108D01*
X012002Y015558D01*
X012002Y015708D01*
X012352Y015508D02*
X012352Y016058D01*
X012046Y016234D02*
X011958Y016234D01*
X011999Y016135D02*
X012005Y016135D01*
X012131Y016332D02*
X011873Y016332D01*
X011652Y016058D02*
X011652Y015508D01*
X012252Y014908D01*
X012252Y013958D01*
X015052Y011158D01*
X015052Y009908D01*
X015802Y009158D01*
X016214Y009158D01*
X016231Y009141D01*
X016616Y009237D02*
X016682Y009237D01*
X016616Y009336D02*
X018452Y009336D01*
X018484Y009434D02*
X016616Y009434D01*
X016616Y009533D02*
X018552Y009533D01*
X018574Y009632D02*
X016616Y009632D01*
X016616Y009730D02*
X016685Y009730D01*
X016231Y009456D02*
X016179Y009508D01*
X015100Y009237D02*
X015003Y009237D01*
X015003Y009139D02*
X015100Y009139D01*
X015100Y009040D02*
X015003Y009040D01*
X015003Y008942D02*
X015100Y008942D01*
X014705Y008942D02*
X014399Y008942D01*
X014399Y009040D02*
X014705Y009040D01*
X014708Y009139D02*
X014396Y009139D01*
X014327Y009237D02*
X014777Y009237D01*
X014705Y008843D02*
X014399Y008843D01*
X014399Y008745D02*
X014705Y008745D01*
X014708Y008646D02*
X014396Y008646D01*
X014353Y008548D02*
X014750Y008548D01*
X015399Y008449D02*
X015846Y008449D01*
X014100Y008942D02*
X014003Y008942D01*
X014003Y009040D02*
X014100Y009040D01*
X014100Y009139D02*
X014003Y009139D01*
X014003Y009237D02*
X014100Y009237D01*
X013777Y009237D02*
X013752Y009237D01*
X012688Y009927D02*
X012381Y009927D01*
X013352Y010608D02*
X012302Y011658D01*
X007552Y011658D01*
X006202Y010308D01*
X006052Y010308D01*
X005352Y010645D02*
X005238Y010758D01*
X004885Y010758D01*
X004752Y010891D01*
X004752Y010972D01*
X004865Y010858D01*
X005012Y010858D01*
X005012Y011268D01*
X005092Y011268D01*
X005092Y010858D01*
X005238Y010858D01*
X005352Y010972D01*
X005352Y010645D01*
X005352Y010716D02*
X005281Y010716D01*
X005352Y010814D02*
X004829Y010814D01*
X004811Y010913D02*
X004752Y010913D01*
X004552Y010808D02*
X005052Y010308D01*
X004552Y010808D02*
X004552Y011908D01*
X005102Y012458D01*
X013202Y012458D01*
X014602Y011058D01*
X014602Y010558D02*
X012902Y012258D01*
X006002Y012258D01*
X005552Y011808D01*
X005552Y008808D01*
X005052Y008308D01*
X005561Y007464D02*
X005602Y007464D01*
X005602Y007365D02*
X005502Y007365D01*
X005502Y007266D02*
X005602Y007266D01*
X005602Y007168D02*
X005502Y007168D01*
X005449Y007069D02*
X005654Y007069D01*
X005753Y006971D02*
X005351Y006971D01*
X005252Y006872D02*
X005851Y006872D01*
X003752Y006675D02*
X009110Y006675D01*
X009110Y006577D02*
X003752Y006577D01*
X003752Y006478D02*
X009110Y006478D01*
X009110Y006380D02*
X003752Y006380D01*
X003752Y006281D02*
X009110Y006281D01*
X009110Y006183D02*
X003752Y006183D01*
X003752Y006084D02*
X009110Y006084D01*
X009142Y005985D02*
X003752Y005985D01*
X003752Y005887D02*
X009240Y005887D01*
X009339Y005788D02*
X003775Y005788D01*
X003874Y005690D02*
X009437Y005690D01*
X010044Y005434D02*
X010070Y005408D01*
X010552Y005408D01*
X010389Y005394D02*
X010719Y005394D01*
X010719Y005296D02*
X010389Y005296D01*
X010350Y005197D02*
X010758Y005197D01*
X010719Y005493D02*
X010389Y005493D01*
X010389Y005591D02*
X010719Y005591D01*
X010776Y005690D02*
X010389Y005690D01*
X010062Y005394D02*
X010026Y005394D01*
X010026Y005296D02*
X010062Y005296D01*
X010062Y005197D02*
X010026Y005197D01*
X008752Y006872D02*
X008549Y006872D01*
X008647Y006971D02*
X008727Y006971D01*
X008476Y007365D02*
X008399Y007365D01*
X008399Y007562D02*
X008727Y007562D01*
X008727Y007661D02*
X008399Y007661D01*
X008382Y007759D02*
X008767Y007759D01*
X008767Y007858D02*
X008392Y007858D01*
X008574Y007464D02*
X008101Y007464D01*
X008399Y008350D02*
X008774Y008350D01*
X009310Y008058D02*
X011790Y008058D01*
X011794Y008054D01*
X011794Y007554D02*
X012998Y007554D01*
X013352Y007908D02*
X013352Y010608D01*
X013552Y010758D02*
X012452Y011858D01*
X007402Y011858D01*
X006852Y011308D01*
X006052Y011308D01*
X005352Y011645D02*
X005238Y011758D01*
X005092Y011758D01*
X005092Y011349D01*
X005012Y011349D01*
X005012Y011758D01*
X004865Y011758D01*
X004752Y011645D01*
X004752Y011825D01*
X005185Y012258D01*
X005719Y012258D01*
X005469Y012008D01*
X005352Y011891D01*
X005352Y011645D01*
X005352Y011701D02*
X005296Y011701D01*
X005352Y011799D02*
X004752Y011799D01*
X004752Y011701D02*
X004808Y011701D01*
X004824Y011898D02*
X005359Y011898D01*
X005457Y011997D02*
X004923Y011997D01*
X005022Y012095D02*
X005556Y012095D01*
X005654Y012194D02*
X005120Y012194D01*
X005633Y012686D02*
X013241Y012686D01*
X013142Y012785D02*
X005732Y012785D01*
X005831Y012883D02*
X013044Y012883D01*
X012945Y012982D02*
X005929Y012982D01*
X006028Y013081D02*
X012847Y013081D01*
X012748Y013179D02*
X006126Y013179D01*
X006225Y013278D02*
X012650Y013278D01*
X012551Y013376D02*
X006323Y013376D01*
X006422Y013475D02*
X012453Y013475D01*
X012354Y013573D02*
X006520Y013573D01*
X006619Y013672D02*
X012255Y013672D01*
X012157Y013770D02*
X006686Y013770D01*
X006702Y013869D02*
X012058Y013869D01*
X012052Y013967D02*
X006702Y013967D01*
X006702Y014066D02*
X012052Y014066D01*
X012052Y014165D02*
X006702Y014165D01*
X006702Y014263D02*
X012052Y014263D01*
X012052Y014362D02*
X006702Y014362D01*
X006702Y014460D02*
X012052Y014460D01*
X012052Y014559D02*
X006702Y014559D01*
X006702Y014657D02*
X012052Y014657D01*
X012052Y014756D02*
X006702Y014756D01*
X006702Y014854D02*
X012023Y014854D01*
X011924Y014953D02*
X006702Y014953D01*
X006662Y015051D02*
X007367Y015051D01*
X007297Y015150D02*
X006564Y015150D01*
X006465Y015249D02*
X007297Y015249D01*
X006896Y015347D02*
X006367Y015347D01*
X005802Y015741D02*
X005602Y015741D01*
X005655Y015840D02*
X005802Y015840D01*
X005802Y015938D02*
X005695Y015938D01*
X005702Y016037D02*
X005802Y016037D01*
X005802Y016135D02*
X005702Y016135D01*
X005672Y016234D02*
X005802Y016234D01*
X005802Y016332D02*
X005632Y016332D01*
X005547Y016431D02*
X005802Y016431D01*
X005802Y016530D02*
X005411Y016530D01*
X005802Y016628D02*
X003875Y016628D01*
X003802Y016530D02*
X004193Y016530D01*
X004057Y016431D02*
X003802Y016431D01*
X003802Y016332D02*
X003972Y016332D01*
X003931Y016234D02*
X003802Y016234D01*
X003802Y016135D02*
X003902Y016135D01*
X003902Y016037D02*
X003802Y016037D01*
X003802Y015938D02*
X003908Y015938D01*
X003949Y015840D02*
X003802Y015840D01*
X003802Y015741D02*
X004001Y015741D01*
X004100Y015643D02*
X003802Y015643D01*
X003802Y015544D02*
X004296Y015544D01*
X005504Y015643D02*
X005733Y015643D01*
X006802Y016393D02*
X006802Y017751D01*
X007227Y017614D02*
X009999Y017614D01*
X009925Y017515D02*
X007227Y017515D01*
X007227Y017416D02*
X009885Y017416D01*
X010272Y017416D02*
X010332Y017416D01*
X010332Y017515D02*
X010272Y017515D01*
X010272Y017614D02*
X010332Y017614D01*
X010332Y017712D02*
X010272Y017712D01*
X010153Y017712D02*
X007309Y017712D01*
X007292Y018402D02*
X007151Y018402D01*
X006852Y018796D02*
X006752Y018796D01*
X006752Y018895D02*
X006852Y018895D01*
X006852Y018993D02*
X006752Y018993D01*
X006752Y019092D02*
X006852Y019092D01*
X006852Y019190D02*
X006752Y019190D01*
X006376Y018008D02*
X005464Y018008D01*
X005568Y017909D02*
X006376Y017909D01*
X006376Y017811D02*
X005641Y017811D01*
X005681Y017712D02*
X006376Y017712D01*
X006376Y017614D02*
X005702Y017614D01*
X005702Y017515D02*
X006376Y017515D01*
X006307Y017416D02*
X005686Y017416D01*
X005646Y017318D02*
X006208Y017318D01*
X006110Y017219D02*
X005580Y017219D01*
X005482Y017121D02*
X006011Y017121D01*
X005912Y017022D02*
X004269Y017022D01*
X004171Y016924D02*
X005829Y016924D01*
X005802Y016825D02*
X004072Y016825D01*
X003974Y016727D02*
X005802Y016727D01*
X007002Y016825D02*
X007297Y016825D01*
X007297Y016727D02*
X007094Y016727D01*
X007752Y016530D02*
X007852Y016530D01*
X007852Y016431D02*
X007752Y016431D01*
X007752Y016332D02*
X007852Y016332D01*
X007852Y016234D02*
X007752Y016234D01*
X010272Y016924D02*
X010332Y016924D01*
X010332Y017022D02*
X010272Y017022D01*
X010272Y017121D02*
X010332Y017121D01*
X010332Y017219D02*
X010272Y017219D01*
X010719Y017416D02*
X010881Y017416D01*
X010922Y017515D02*
X010679Y017515D01*
X010605Y017614D02*
X010999Y017614D01*
X011153Y017712D02*
X010450Y017712D01*
X010962Y017909D02*
X011642Y017909D01*
X011494Y018008D02*
X011109Y018008D01*
X011184Y018106D02*
X011420Y018106D01*
X011379Y018205D02*
X011224Y018205D01*
X011232Y018303D02*
X011372Y018303D01*
X011375Y018402D02*
X011229Y018402D01*
X011188Y018500D02*
X011416Y018500D01*
X011485Y018599D02*
X011119Y018599D01*
X011052Y018698D02*
X011618Y018698D01*
X011699Y018993D02*
X011748Y018993D01*
X011105Y018993D02*
X011099Y018993D01*
X011451Y017712D02*
X012153Y017712D01*
X011999Y017614D02*
X011605Y017614D01*
X011682Y017515D02*
X011922Y017515D01*
X011881Y017416D02*
X011722Y017416D01*
X019701Y017712D02*
X020403Y017712D01*
X020249Y017614D02*
X019855Y017614D01*
X019932Y017515D02*
X020172Y017515D01*
X020131Y017416D02*
X019972Y017416D01*
X020701Y017712D02*
X021403Y017712D01*
X021249Y017614D02*
X020855Y017614D01*
X020744Y018008D02*
X020359Y018008D01*
X020434Y018106D02*
X020670Y018106D01*
X020629Y018205D02*
X020474Y018205D01*
X020482Y018303D02*
X020622Y018303D01*
X020625Y018402D02*
X020479Y018402D01*
X020438Y018500D02*
X020666Y018500D01*
X020735Y018599D02*
X020369Y018599D01*
X020236Y018698D02*
X020868Y018698D01*
X021236Y018698D02*
X021868Y018698D01*
X021735Y018599D02*
X021369Y018599D01*
X021438Y018500D02*
X021666Y018500D01*
X021625Y018402D02*
X021479Y018402D01*
X021482Y018303D02*
X021622Y018303D01*
X021629Y018205D02*
X021474Y018205D01*
X021434Y018106D02*
X021670Y018106D01*
X021744Y018008D02*
X021359Y018008D01*
X022752Y013208D02*
X027252Y013208D01*
X022752Y013208D02*
X022464Y012920D01*
X022373Y012920D01*
X020502Y012391D02*
X020102Y012391D01*
X020201Y012292D02*
X020491Y012292D01*
X020400Y012194D02*
X020299Y012194D01*
X018985Y011208D02*
X018985Y011208D01*
X019402Y010058D02*
X019602Y009858D01*
X019602Y008908D01*
X014852Y010223D02*
X014707Y010223D01*
X014497Y010223D02*
X014207Y010223D01*
X014102Y010558D02*
X012602Y012058D01*
X007052Y012058D01*
X006752Y011758D01*
X005352Y010913D02*
X005293Y010913D01*
X005092Y010913D02*
X005012Y010913D01*
X005012Y011011D02*
X005092Y011011D01*
X005092Y011110D02*
X005012Y011110D01*
X005012Y011208D02*
X005092Y011208D01*
X005092Y011405D02*
X005012Y011405D01*
X005012Y011504D02*
X005092Y011504D01*
X005092Y011602D02*
X005012Y011602D01*
X005012Y011701D02*
X005092Y011701D01*
X009310Y007807D02*
X009310Y007559D01*
X009310Y007559D01*
X009310Y007807D01*
X009310Y007759D02*
X009310Y007759D01*
X009310Y007661D02*
X009310Y007661D01*
X009310Y007562D02*
X009310Y007562D01*
X006738Y004704D02*
X002952Y004704D01*
X007052Y003724D02*
X007052Y001558D01*
X005279Y001216D02*
X005279Y001216D01*
X033280Y008942D02*
X033302Y008942D01*
M02*
