G75*
G70*
%OFA0B0*%
%FSLAX24Y24*%
%IPPOS*%
%LPD*%
%AMOC8*
5,1,8,0,0,1.08239X$1,22.5*
%
%ADD10R,0.0631X0.1104*%
%ADD11R,0.0474X0.0513*%
%ADD12R,0.0790X0.0710*%
%ADD13R,0.0513X0.0474*%
%ADD14R,0.1080X0.0780*%
%ADD15OC8,0.0680*%
%ADD16C,0.0640*%
%ADD17C,0.1379*%
%ADD18R,0.0550X0.0300*%
%ADD19R,0.0300X0.0550*%
%ADD20R,0.0946X0.0277*%
%ADD21R,0.0470X0.0352*%
%ADD22C,0.0680*%
%ADD23C,0.0830*%
%ADD24R,0.0480X0.0480*%
%ADD25R,0.0200X0.0400*%
%ADD26R,0.0400X0.0200*%
%ADD27R,0.0218X0.0631*%
%ADD28R,0.0789X0.0828*%
%ADD29R,0.0907X0.0710*%
D10*
X006802Y017751D03*
X006802Y019365D03*
D11*
X008302Y019643D03*
X008302Y018974D03*
X014052Y008893D03*
X014052Y008224D03*
X014717Y007558D03*
X015387Y007558D03*
X015052Y008224D03*
X015052Y008893D03*
X014387Y004558D03*
X013717Y004558D03*
X013717Y003808D03*
X014387Y003808D03*
X012052Y003474D03*
X012052Y004143D03*
X008552Y004393D03*
X008552Y003724D03*
X007052Y003724D03*
X007052Y004393D03*
X008052Y007474D03*
X008052Y008143D03*
X026217Y004808D03*
X026887Y004808D03*
X026887Y001808D03*
X026217Y001808D03*
D12*
X007802Y015498D03*
X007802Y016618D03*
D13*
X006802Y016393D03*
X006802Y015724D03*
X012052Y010893D03*
X012052Y010224D03*
X011637Y009308D03*
X010967Y009308D03*
X010137Y009308D03*
X009467Y009308D03*
X018467Y006558D03*
X019137Y006558D03*
X023717Y008308D03*
X024387Y008308D03*
X024387Y011808D03*
X023717Y011808D03*
D14*
X024052Y010858D03*
X024052Y009258D03*
D15*
X006052Y009308D03*
X005052Y009308D03*
X005052Y008308D03*
X006052Y008308D03*
X006052Y007308D03*
X005052Y007308D03*
X005052Y010308D03*
X006052Y010308D03*
X006052Y011308D03*
X005052Y011308D03*
D16*
X010302Y017308D03*
X011302Y017308D03*
X012302Y017308D03*
X013302Y017308D03*
X014302Y017308D03*
X014802Y018308D03*
X013802Y018308D03*
X012802Y018308D03*
X011802Y018308D03*
X010802Y018308D03*
X017552Y017308D03*
X018552Y017308D03*
X019552Y017308D03*
X020552Y017308D03*
X021552Y017308D03*
X022052Y018308D03*
X021052Y018308D03*
X020052Y018308D03*
X019052Y018308D03*
X018052Y018308D03*
X024802Y017308D03*
X025802Y017308D03*
X026802Y017308D03*
X027802Y017308D03*
X028802Y017308D03*
X029302Y018308D03*
X028302Y018308D03*
X027302Y018308D03*
X026302Y018308D03*
X025302Y018308D03*
X031052Y010808D03*
X032052Y010308D03*
X031052Y009808D03*
X032052Y009308D03*
X031052Y008808D03*
X032052Y008308D03*
X031052Y007808D03*
X032052Y007308D03*
X031052Y006808D03*
X032052Y006308D03*
X029302Y003808D03*
X028302Y003808D03*
X027302Y003808D03*
X026302Y003808D03*
X025302Y003808D03*
X025802Y002808D03*
X024802Y002808D03*
X026802Y002808D03*
X027802Y002808D03*
X028802Y002808D03*
X008552Y002558D03*
X007552Y002558D03*
X008052Y001558D03*
X007052Y001558D03*
D17*
X004552Y002808D03*
X032052Y002808D03*
X032052Y014308D03*
X032052Y018308D03*
D18*
X022373Y012920D03*
X022373Y012606D03*
X022373Y012291D03*
X022373Y011976D03*
X022373Y011661D03*
X022373Y011346D03*
X022373Y011031D03*
X022373Y010716D03*
X022373Y010401D03*
X022373Y010086D03*
X022373Y009771D03*
X022373Y009456D03*
X022373Y009141D03*
X022373Y008826D03*
X022373Y008511D03*
X022373Y008196D03*
X016231Y008196D03*
X016231Y008511D03*
X016231Y008826D03*
X016231Y009141D03*
X016231Y009456D03*
X016231Y009771D03*
X016231Y010086D03*
X016231Y010401D03*
X016231Y010716D03*
X016231Y011031D03*
X016231Y011346D03*
X016231Y011661D03*
X016231Y011976D03*
X016231Y012291D03*
X016231Y012606D03*
X016231Y012920D03*
D19*
X016940Y013629D03*
X017255Y013629D03*
X017570Y013629D03*
X017885Y013629D03*
X018200Y013629D03*
X018514Y013629D03*
X018829Y013629D03*
X019144Y013629D03*
X019459Y013629D03*
X019774Y013629D03*
X020089Y013629D03*
X020404Y013629D03*
X020719Y013629D03*
X021034Y013629D03*
X021349Y013629D03*
X021664Y013629D03*
X021664Y007487D03*
X021349Y007487D03*
X021034Y007487D03*
X020719Y007487D03*
X020404Y007487D03*
X020089Y007487D03*
X019774Y007487D03*
X019459Y007487D03*
X019144Y007487D03*
X018829Y007487D03*
X018514Y007487D03*
X018200Y007487D03*
X017885Y007487D03*
X017570Y007487D03*
X017255Y007487D03*
X016940Y007487D03*
D20*
X011794Y007554D03*
X011794Y008054D03*
X011794Y008554D03*
X011794Y007058D03*
X009310Y007058D03*
X009310Y007558D03*
X009310Y008058D03*
X009310Y008558D03*
D21*
X010040Y010184D03*
X011060Y010184D03*
X011060Y010558D03*
X011060Y010932D03*
X010040Y010932D03*
X010044Y006182D03*
X010044Y005808D03*
X010044Y005434D03*
X011064Y005434D03*
X011064Y006182D03*
D22*
X005552Y014008D02*
X005552Y014608D01*
X004552Y014608D02*
X004552Y014008D01*
X003552Y014008D02*
X003552Y014608D01*
D23*
X004427Y016058D02*
X005177Y016058D01*
X005177Y017558D02*
X004427Y017558D01*
X004427Y019058D02*
X005177Y019058D01*
D24*
X010202Y019308D03*
X010802Y019308D03*
X011402Y019308D03*
X017452Y019308D03*
X018052Y019308D03*
X018652Y019308D03*
X024702Y019308D03*
X025302Y019308D03*
X025902Y019308D03*
X033052Y010908D03*
X033052Y010308D03*
X033052Y009708D03*
X029402Y001808D03*
X028802Y001808D03*
X028202Y001808D03*
D25*
X028502Y001808D03*
X029102Y001808D03*
X025602Y019308D03*
X025002Y019308D03*
X018352Y019308D03*
X017752Y019308D03*
X011102Y019308D03*
X010502Y019308D03*
D26*
X033052Y010608D03*
X033052Y010008D03*
D27*
X013564Y002602D03*
X013308Y002602D03*
X013052Y002602D03*
X012796Y002602D03*
X012540Y002602D03*
D28*
X011477Y001558D03*
X014627Y001558D03*
D29*
X014272Y002562D03*
X011831Y002562D03*
M02*
