G75*
G70*
%OFA0B0*%
%FSLAX24Y24*%
%IPPOS*%
%LPD*%
%AMOC8*
5,1,8,0,0,1.08239X$1,22.5*
%
%ADD10C,0.0080*%
D10*
X009492Y001691D02*
X009562Y001621D01*
X009492Y001691D02*
X009492Y001831D01*
X009562Y001901D01*
X009842Y001901D01*
X009912Y001831D01*
X009912Y001691D01*
X009842Y001621D01*
X009842Y002081D02*
X009912Y002151D01*
X009912Y002291D01*
X009842Y002361D01*
X009912Y002528D02*
X009912Y002668D01*
X009912Y002598D02*
X009492Y002598D01*
X009492Y002668D02*
X009492Y002528D01*
X009492Y002361D02*
X009772Y002081D01*
X009842Y002081D01*
X009492Y002081D02*
X009492Y002361D01*
X007062Y008748D02*
X006642Y008748D01*
X006642Y008958D01*
X006712Y009029D01*
X006992Y009029D01*
X007062Y008958D01*
X007062Y008748D01*
X007062Y009209D02*
X006642Y009209D01*
X006642Y009489D01*
X006642Y009669D02*
X006922Y009669D01*
X007062Y009809D01*
X006922Y009949D01*
X006642Y009949D01*
X007062Y009489D02*
X007062Y009209D01*
X006852Y009209D02*
X006852Y009349D01*
X006802Y012848D02*
X006662Y012848D01*
X006592Y012918D01*
X006662Y013058D02*
X006802Y013058D01*
X006872Y012988D01*
X006872Y012918D01*
X006802Y012848D01*
X006662Y013058D02*
X006592Y013129D01*
X006592Y013199D01*
X006662Y013269D01*
X006802Y013269D01*
X006872Y013199D01*
X007052Y013269D02*
X007052Y012918D01*
X007122Y012848D01*
X007262Y012848D01*
X007332Y012918D01*
X007332Y013269D01*
X007513Y013269D02*
X007723Y013269D01*
X007793Y013199D01*
X007793Y013058D01*
X007723Y012988D01*
X007513Y012988D01*
X007513Y012848D02*
X007513Y013269D01*
X007513Y013598D02*
X007723Y013598D01*
X007793Y013668D01*
X007793Y013738D01*
X007723Y013808D01*
X007513Y013808D01*
X007332Y013738D02*
X007262Y013808D01*
X007122Y013808D01*
X007052Y013879D01*
X007052Y013949D01*
X007122Y014019D01*
X007262Y014019D01*
X007332Y013949D01*
X007513Y014019D02*
X007723Y014019D01*
X007793Y013949D01*
X007793Y013879D01*
X007723Y013808D01*
X007513Y013598D02*
X007513Y014019D01*
X007332Y013738D02*
X007332Y013668D01*
X007262Y013598D01*
X007122Y013598D01*
X007052Y013668D01*
X006872Y013668D02*
X006872Y014019D01*
X006592Y014019D02*
X006592Y013668D01*
X006662Y013598D01*
X006802Y013598D01*
X006872Y013668D01*
X006302Y013558D02*
X005302Y013558D01*
X005052Y013808D01*
X004052Y013808D02*
X005052Y012808D01*
X006302Y012808D01*
X006162Y015417D02*
X005882Y015697D01*
X005812Y015697D01*
X005742Y015627D01*
X005742Y015487D01*
X005812Y015417D01*
X006162Y015417D02*
X006162Y015697D01*
X005952Y015877D02*
X005952Y016158D01*
X006022Y016338D02*
X005742Y016338D01*
X006022Y016338D02*
X006162Y016478D01*
X006022Y016618D01*
X005742Y016618D01*
X005742Y017078D02*
X005952Y017078D01*
X005882Y017218D01*
X005882Y017288D01*
X005952Y017358D01*
X006092Y017358D01*
X006162Y017288D01*
X006162Y017148D01*
X006092Y017078D01*
X005742Y017078D02*
X005742Y017358D01*
X005742Y017538D02*
X006022Y017538D01*
X006162Y017678D01*
X006022Y017818D01*
X005742Y017818D01*
X008392Y016269D02*
X008392Y016058D01*
X008532Y016129D01*
X008602Y016129D01*
X008672Y016058D01*
X008672Y015918D01*
X008602Y015848D01*
X008462Y015848D01*
X008392Y015918D01*
X008392Y016269D02*
X008672Y016269D01*
X008852Y016269D02*
X008852Y015988D01*
X008992Y015848D01*
X009132Y015988D01*
X009132Y016269D01*
X006162Y016088D02*
X005742Y016088D01*
X005952Y015877D01*
X009482Y019098D02*
X009762Y019098D01*
X009762Y019308D01*
X009622Y019238D01*
X009552Y019238D01*
X009482Y019308D01*
X009482Y019448D01*
X009552Y019518D01*
X009692Y019518D01*
X009762Y019448D01*
X011821Y019308D02*
X012102Y019308D01*
X011891Y019098D01*
X011891Y019518D01*
X012282Y019518D02*
X012562Y019518D01*
X012282Y019238D01*
X012282Y019168D01*
X012352Y019098D01*
X012492Y019098D01*
X012562Y019168D01*
X013421Y016518D02*
X013561Y016518D01*
X013631Y016448D01*
X013351Y016168D01*
X013351Y016448D01*
X013421Y016518D01*
X013631Y016448D02*
X013631Y016168D01*
X013561Y016098D01*
X013421Y016098D01*
X013351Y016168D01*
X013811Y016168D02*
X013881Y016098D01*
X014021Y016098D01*
X014091Y016168D01*
X014091Y016448D01*
X014021Y016518D01*
X013881Y016518D01*
X013811Y016448D01*
X014271Y016448D02*
X014271Y016168D01*
X014341Y016098D01*
X014552Y016098D01*
X014552Y016518D01*
X014341Y016518D01*
X014271Y016448D01*
X014732Y016518D02*
X014732Y016238D01*
X014872Y016098D01*
X015012Y016238D01*
X015012Y016518D01*
X015012Y016308D02*
X014732Y016308D01*
X016732Y019098D02*
X017012Y019098D01*
X017012Y019308D01*
X016872Y019238D01*
X016802Y019238D01*
X016732Y019308D01*
X016732Y019448D01*
X016802Y019518D01*
X016942Y019518D01*
X017012Y019448D01*
X019071Y019308D02*
X019352Y019308D01*
X019141Y019098D01*
X019141Y019518D01*
X019532Y019518D02*
X019812Y019518D01*
X019532Y019238D01*
X019532Y019168D01*
X019602Y019098D01*
X019742Y019098D01*
X019812Y019168D01*
X023982Y019098D02*
X024262Y019098D01*
X024262Y019308D01*
X024122Y019238D01*
X024052Y019238D01*
X023982Y019308D01*
X023982Y019448D01*
X024052Y019518D01*
X024192Y019518D01*
X024262Y019448D01*
X026321Y019308D02*
X026602Y019308D01*
X026391Y019098D01*
X026391Y019518D01*
X026782Y019518D02*
X027062Y019518D01*
X026782Y019238D01*
X026782Y019168D01*
X026852Y019098D01*
X026992Y019098D01*
X027062Y019168D01*
X028311Y016518D02*
X028591Y016518D01*
X028451Y016518D02*
X028451Y016098D01*
X028591Y016238D01*
X028771Y016168D02*
X028841Y016098D01*
X028981Y016098D01*
X029052Y016168D01*
X029052Y016448D01*
X028981Y016518D01*
X028841Y016518D01*
X028771Y016448D01*
X029232Y016448D02*
X029232Y016168D01*
X029302Y016098D01*
X029442Y016098D01*
X029512Y016168D01*
X029512Y016448D01*
X029442Y016518D01*
X029302Y016518D01*
X029232Y016448D01*
X026270Y014758D02*
X026270Y014618D01*
X026200Y014548D01*
X025990Y014548D01*
X025990Y014969D01*
X025990Y014829D02*
X026200Y014829D01*
X026270Y014758D01*
X025810Y014829D02*
X025810Y014548D01*
X025600Y014548D01*
X025530Y014618D01*
X025530Y014829D01*
X025350Y014758D02*
X025350Y014548D01*
X025350Y014758D02*
X025280Y014829D01*
X025140Y014829D01*
X025069Y014758D01*
X024889Y014758D02*
X024609Y014758D01*
X024429Y014758D02*
X024429Y014618D01*
X024359Y014548D01*
X024219Y014548D01*
X024149Y014618D01*
X024149Y014758D01*
X024219Y014829D01*
X024359Y014829D01*
X024429Y014758D01*
X023982Y014548D02*
X023842Y014548D01*
X023912Y014548D02*
X023912Y014829D01*
X023842Y014829D01*
X023912Y014969D02*
X023912Y015039D01*
X023982Y014269D02*
X024122Y014129D01*
X024122Y013848D01*
X024302Y013848D02*
X024302Y014269D01*
X024512Y014269D01*
X024582Y014199D01*
X024582Y014058D01*
X024512Y013988D01*
X024302Y013988D01*
X024122Y014058D02*
X023842Y014058D01*
X023842Y014129D02*
X023982Y014269D01*
X023842Y014129D02*
X023842Y013848D01*
X024763Y013848D02*
X024763Y014269D01*
X024973Y014269D01*
X025043Y014199D01*
X025043Y014129D01*
X024973Y014058D01*
X024763Y014058D01*
X024763Y013848D02*
X024973Y013848D01*
X025043Y013918D01*
X025043Y013988D01*
X024973Y014058D01*
X025223Y014269D02*
X025503Y014269D01*
X025363Y014269D02*
X025363Y013848D01*
X025683Y013918D02*
X025683Y014058D01*
X025753Y014129D01*
X025893Y014129D01*
X025964Y014058D01*
X025964Y013988D01*
X025683Y013988D01*
X025683Y013918D02*
X025753Y013848D01*
X025893Y013848D01*
X026144Y013918D02*
X026214Y013988D01*
X026424Y013988D01*
X026424Y014058D02*
X026424Y013848D01*
X026214Y013848D01*
X026144Y013918D01*
X026214Y014129D02*
X026354Y014129D01*
X026424Y014058D01*
X026604Y014129D02*
X026604Y013848D01*
X026744Y013848D02*
X026744Y014058D01*
X026814Y014129D01*
X026884Y014058D01*
X026884Y013848D01*
X026744Y014058D02*
X026674Y014129D01*
X026604Y014129D01*
X027525Y014199D02*
X027595Y014269D01*
X027735Y014269D01*
X027805Y014199D01*
X027805Y014129D01*
X027525Y013848D01*
X027805Y013848D01*
X027985Y013918D02*
X027985Y014199D01*
X028055Y014269D01*
X028195Y014269D01*
X028265Y014199D01*
X027985Y013918D01*
X028055Y013848D01*
X028195Y013848D01*
X028265Y013918D01*
X028265Y014199D01*
X028445Y014129D02*
X028586Y014269D01*
X028586Y013848D01*
X028726Y013848D02*
X028445Y013848D01*
X028906Y013848D02*
X029186Y013848D01*
X029046Y013848D02*
X029046Y014269D01*
X028906Y014129D01*
X025069Y014548D02*
X025069Y014969D01*
X022262Y016238D02*
X022122Y016098D01*
X021982Y016238D01*
X021982Y016518D01*
X021802Y016518D02*
X021591Y016518D01*
X021521Y016448D01*
X021521Y016168D01*
X021591Y016098D01*
X021802Y016098D01*
X021802Y016518D01*
X021982Y016308D02*
X022262Y016308D01*
X022262Y016238D02*
X022262Y016518D01*
X021341Y016448D02*
X021341Y016168D01*
X021271Y016098D01*
X021131Y016098D01*
X021061Y016168D01*
X020881Y016238D02*
X020741Y016098D01*
X020741Y016518D01*
X020881Y016518D02*
X020601Y016518D01*
X021061Y016448D02*
X021131Y016518D01*
X021271Y016518D01*
X021341Y016448D01*
X032842Y011629D02*
X032842Y011348D01*
X033052Y011348D01*
X032982Y011488D01*
X032982Y011558D01*
X033052Y011629D01*
X033192Y011629D01*
X033262Y011558D01*
X033262Y011418D01*
X033192Y011348D01*
X033052Y009289D02*
X033052Y009009D01*
X032842Y009219D01*
X033262Y009219D01*
X033262Y008829D02*
X033262Y008548D01*
X032982Y008829D01*
X032912Y008829D01*
X032842Y008758D01*
X032842Y008618D01*
X032912Y008548D01*
X030262Y006979D02*
X030262Y006839D01*
X030192Y006769D01*
X029912Y007049D01*
X030192Y007049D01*
X030262Y006979D01*
X030192Y006769D02*
X029912Y006769D01*
X029842Y006839D01*
X029842Y006979D01*
X029912Y007049D01*
X029912Y006589D02*
X029842Y006519D01*
X029842Y006379D01*
X029912Y006309D01*
X030192Y006309D01*
X030262Y006379D01*
X030262Y006519D01*
X030192Y006589D01*
X030192Y006129D02*
X029912Y006129D01*
X029842Y006058D01*
X029842Y005918D01*
X029912Y005848D01*
X030192Y005848D01*
X030262Y005918D01*
X030262Y006058D01*
X030192Y006129D01*
X028723Y005339D02*
X028723Y005058D01*
X028723Y004918D02*
X028723Y004848D01*
X028543Y004918D02*
X028473Y004848D01*
X028263Y004848D01*
X028263Y005269D01*
X028473Y005269D01*
X028543Y005199D01*
X028543Y005129D01*
X028473Y005058D01*
X028263Y005058D01*
X028473Y005058D02*
X028543Y004988D01*
X028543Y004918D01*
X028082Y004848D02*
X028082Y005269D01*
X027802Y005269D02*
X027802Y004848D01*
X027942Y004988D01*
X028082Y004848D01*
X027852Y004708D02*
X027302Y004708D01*
X027302Y004308D01*
X027342Y004848D02*
X027342Y005269D01*
X027342Y005058D02*
X027622Y005058D01*
X027622Y004848D02*
X027622Y005269D01*
X025389Y004949D02*
X025389Y004668D01*
X025319Y004598D01*
X025179Y004598D01*
X025109Y004668D01*
X025389Y004949D01*
X025319Y005019D01*
X025179Y005019D01*
X025109Y004949D01*
X025109Y004668D01*
X024929Y004668D02*
X024929Y004949D01*
X024859Y005019D01*
X024719Y005019D01*
X024649Y004949D01*
X024649Y004668D01*
X024719Y004598D01*
X024859Y004598D01*
X024929Y004668D01*
X024482Y004598D02*
X024342Y004598D01*
X024412Y004598D02*
X024412Y005019D01*
X024342Y005019D02*
X024482Y005019D01*
X027502Y002139D02*
X027502Y001859D01*
X027292Y002069D01*
X027712Y002069D01*
X027712Y001679D02*
X027712Y001398D01*
X027432Y001679D01*
X027362Y001679D01*
X027292Y001608D01*
X027292Y001468D01*
X027362Y001398D01*
X029842Y001668D02*
X029912Y001598D01*
X030052Y001598D01*
X030122Y001668D01*
X030122Y001808D01*
X030052Y001879D01*
X029982Y001879D01*
X029842Y001808D01*
X029842Y002019D01*
X030122Y002019D01*
X005772Y019708D02*
X005492Y019708D01*
M02*
