G75*
G70*
%OFA0B0*%
%FSLAX24Y24*%
%IPPOS*%
%LPD*%
%AMOC8*
5,1,8,0,0,1.08239X$1,22.5*
%
%ADD10C,0.0110*%
%ADD11R,0.0394X0.0433*%
%ADD12OC8,0.0600*%
%ADD13C,0.0560*%
%ADD14R,0.0433X0.0394*%
%ADD15C,0.0600*%
%ADD16C,0.0750*%
%ADD17C,0.0200*%
%ADD18C,0.0400*%
%ADD19C,0.0100*%
D10*
X016781Y001613D02*
X017174Y001613D01*
X016977Y001613D02*
X016977Y002204D01*
X017174Y002007D01*
X017622Y002204D02*
X017622Y001613D01*
X017819Y001613D02*
X017425Y001613D01*
X017819Y002007D02*
X017622Y002204D01*
X018714Y002105D02*
X018714Y002007D01*
X018813Y001909D01*
X019108Y001909D01*
X019359Y001909D02*
X019457Y001810D01*
X019752Y001810D01*
X019752Y001613D02*
X019752Y002204D01*
X019457Y002204D01*
X019359Y002105D01*
X019359Y001909D01*
X019108Y002204D02*
X018813Y002204D01*
X018714Y002105D01*
X018813Y001909D02*
X018714Y001810D01*
X018714Y001712D01*
X018813Y001613D01*
X019108Y001613D01*
X019108Y002204D01*
X020003Y002007D02*
X020003Y001613D01*
X020003Y001909D02*
X020397Y001909D01*
X020397Y002007D02*
X020200Y002204D01*
X020003Y002007D01*
X020397Y002007D02*
X020397Y001613D01*
X027402Y008986D02*
X027819Y009404D01*
X027124Y009264D01*
X027541Y009682D01*
X027225Y009720D02*
X027155Y009790D01*
X026877Y009511D01*
X026946Y009442D02*
X026807Y009581D01*
X026642Y009746D02*
X026712Y009815D01*
X026851Y009954D02*
X027129Y010233D01*
X027364Y009998D02*
X027294Y009929D01*
D11*
X022302Y009893D03*
X022302Y009224D03*
X016302Y008893D03*
X016302Y008224D03*
X016302Y011474D03*
X016302Y012143D03*
X010387Y003058D03*
X009717Y003058D03*
X009717Y002308D03*
X010387Y002308D03*
X010387Y001558D03*
X009717Y001558D03*
D12*
X006052Y007308D03*
X005052Y007308D03*
X005052Y008308D03*
X006052Y008308D03*
X006052Y009308D03*
X005052Y009308D03*
X005052Y010308D03*
X006052Y010308D03*
X006052Y011308D03*
X005052Y011308D03*
D13*
X010302Y017308D03*
X011302Y017308D03*
X012302Y017308D03*
X013302Y017308D03*
X014302Y017308D03*
X014802Y018308D03*
X013802Y018308D03*
X012802Y018308D03*
X011802Y018308D03*
X010802Y018308D03*
X017552Y017308D03*
X018552Y017308D03*
X019552Y017308D03*
X020552Y017308D03*
X021552Y017308D03*
X022052Y018308D03*
X021052Y018308D03*
X020052Y018308D03*
X019052Y018308D03*
X018052Y018308D03*
X024802Y017308D03*
X025802Y017308D03*
X026802Y017308D03*
X027802Y017308D03*
X028802Y017308D03*
X029302Y018308D03*
X028302Y018308D03*
X027302Y018308D03*
X026302Y018308D03*
X025302Y018308D03*
X031052Y010808D03*
X032052Y010308D03*
X031052Y009808D03*
X032052Y009308D03*
X031052Y008808D03*
X032052Y008308D03*
X031052Y007808D03*
X032052Y007308D03*
X031052Y006808D03*
X032052Y006308D03*
X029302Y003808D03*
X028302Y003808D03*
X027302Y003808D03*
X026302Y003808D03*
X025302Y003808D03*
X025802Y002808D03*
X024802Y002808D03*
X026802Y002808D03*
X027802Y002808D03*
X028802Y002808D03*
X008552Y002558D03*
X007552Y002558D03*
X008052Y001558D03*
X007052Y001558D03*
D14*
X017717Y008558D03*
X018387Y008558D03*
D15*
X005552Y014008D02*
X005552Y014608D01*
X004552Y014608D02*
X004552Y014008D01*
X003552Y014008D02*
X003552Y014608D01*
D16*
X004427Y016058D02*
X005177Y016058D01*
X005177Y017558D02*
X004427Y017558D01*
X004427Y019058D02*
X005177Y019058D01*
D17*
X003902Y019808D02*
X003252Y019158D01*
X003252Y016558D01*
X003752Y016058D01*
X004802Y016058D01*
X006802Y018558D02*
X006802Y013408D01*
X005602Y012208D01*
X009902Y012208D01*
X010552Y011558D01*
X010552Y010908D01*
X005602Y012208D02*
X005052Y011658D01*
X005052Y011308D01*
X003852Y011308D01*
X003502Y010958D01*
X003502Y005708D01*
X004252Y004958D01*
X009202Y004958D01*
X009502Y004658D01*
X009752Y004408D01*
X011202Y004408D01*
X011352Y004258D01*
X012302Y004258D01*
X012302Y004758D01*
X012302Y004258D02*
X012452Y004258D01*
X013452Y003258D01*
X017602Y008058D02*
X017602Y008443D01*
X017717Y008558D01*
X017252Y008658D02*
X017252Y008858D01*
X017452Y009058D01*
X017652Y009058D01*
X017602Y009108D01*
X017652Y009058D02*
X018152Y009058D01*
X018152Y009508D01*
X018902Y010258D01*
X018902Y010758D01*
X018902Y011208D01*
X019702Y011208D01*
X019902Y011008D01*
X019902Y011108D01*
X020202Y011408D01*
X020202Y012358D01*
X019902Y012658D01*
X019652Y011658D02*
X019552Y011558D01*
X017502Y011558D01*
X016952Y012108D01*
X016802Y012108D01*
X016337Y012108D01*
X016302Y012143D01*
X016152Y012293D01*
X016152Y014008D01*
X015652Y014158D02*
X015652Y011758D01*
X015952Y011458D01*
X016302Y011458D01*
X016302Y011474D02*
X016667Y011474D01*
X016802Y011608D01*
X017202Y011208D01*
X018902Y011208D01*
X019902Y011008D02*
X020202Y010708D01*
X020202Y010108D01*
X020402Y009908D01*
X021802Y009908D01*
X022287Y009908D01*
X022302Y009893D01*
X022302Y009224D02*
X021937Y009224D01*
X021802Y009358D01*
X020102Y009358D01*
X019652Y009808D01*
X019202Y009808D01*
X018902Y009508D01*
X018402Y008908D02*
X018252Y009058D01*
X018152Y009058D01*
X018402Y008908D02*
X018402Y008574D01*
X018387Y008558D01*
X018502Y008443D01*
X018502Y008058D01*
X017252Y008658D02*
X017002Y008408D01*
X016802Y008408D01*
X016617Y008224D01*
X016302Y008224D01*
X016302Y008893D02*
X016787Y008893D01*
X016802Y008908D01*
X019652Y009808D02*
X019652Y010408D01*
X015652Y014158D02*
X016152Y014658D01*
X016152Y018858D01*
X017552Y018858D01*
X017552Y017308D01*
X017552Y018858D02*
X024802Y018858D01*
X024802Y017308D01*
X024802Y018858D02*
X029752Y018858D01*
X029902Y018708D01*
X029902Y013308D01*
X031052Y012158D01*
X031052Y010808D01*
X032202Y012158D02*
X032602Y011758D01*
X032602Y005208D01*
X032352Y004958D01*
X031002Y004958D01*
X029852Y003808D01*
X029302Y003808D01*
X029102Y003808D01*
X028602Y003308D01*
X024202Y003308D01*
X024002Y003108D01*
X024002Y001758D01*
X027702Y001808D02*
X029402Y001808D01*
X030302Y002708D01*
X030302Y003558D01*
X031302Y004558D01*
X033152Y004558D01*
X033552Y004958D01*
X033552Y009208D01*
X033052Y009208D01*
X033552Y009208D02*
X033552Y012208D01*
X033202Y012558D01*
X031302Y012558D01*
X030302Y013558D01*
X030302Y019058D01*
X029552Y019808D01*
X026402Y019808D01*
X026402Y019308D01*
X026402Y019808D02*
X019202Y019808D01*
X019152Y019758D01*
X019152Y019308D01*
X019202Y019808D02*
X011902Y019808D01*
X003902Y019808D01*
X006802Y018558D02*
X007552Y019308D01*
X008002Y018858D01*
X010302Y018858D01*
X016152Y018858D01*
X011902Y019308D02*
X011902Y019808D01*
X010302Y018858D02*
X010302Y017308D01*
X031052Y012158D02*
X032202Y012158D01*
D18*
X030052Y011808D03*
X030452Y009358D03*
X029052Y008308D03*
X025202Y010008D03*
X023202Y009258D03*
X022902Y008808D03*
X021752Y008708D03*
X021652Y008158D03*
X021102Y008158D03*
X020702Y008558D03*
X020352Y008158D03*
X020002Y008558D03*
X019602Y008908D03*
X018902Y009508D03*
X018352Y010408D03*
X017952Y010758D03*
X017402Y010208D03*
X016902Y010008D03*
X016802Y008908D03*
X016802Y008408D03*
X017602Y008058D03*
X018502Y008058D03*
X019302Y008108D03*
X019952Y006858D03*
X019902Y006358D03*
X019852Y005858D03*
X019202Y005408D03*
X018352Y005108D03*
X017952Y004758D03*
X017552Y005458D03*
X017952Y005808D03*
X016202Y006858D03*
X015852Y006508D03*
X015402Y006158D03*
X015802Y005808D03*
X015352Y005458D03*
X012302Y004758D03*
X011752Y005458D03*
X010552Y005408D03*
X009102Y004408D03*
X010902Y003908D03*
X011552Y003458D03*
X011052Y002908D03*
X011002Y002408D03*
X013452Y003258D03*
X014052Y003258D03*
X015202Y002758D03*
X015552Y002358D03*
X021052Y006058D03*
X021402Y005708D03*
X022002Y005708D03*
X022302Y006408D03*
X023852Y006458D03*
X022902Y008108D03*
X021802Y009358D03*
X021802Y009908D03*
X021602Y010658D03*
X021102Y010658D03*
X020702Y010308D03*
X019652Y010408D03*
X018902Y010758D03*
X019652Y011658D03*
X020702Y012008D03*
X021102Y012408D03*
X021452Y012008D03*
X019902Y012658D03*
X018302Y012658D03*
X017902Y012308D03*
X018302Y011958D03*
X016802Y012108D03*
X016802Y011608D03*
X014602Y011058D03*
X014602Y010558D03*
X014102Y010558D03*
X012902Y010208D03*
X011102Y008808D03*
X010752Y008408D03*
X010402Y008808D03*
X010552Y007708D03*
X010902Y006758D03*
X011502Y006558D03*
X010552Y010908D03*
X012052Y013108D03*
X016152Y014008D03*
X017902Y013008D03*
X022352Y013958D03*
X023202Y011308D03*
X024802Y016508D03*
X027302Y016358D03*
X026402Y019308D03*
X019152Y019308D03*
X012702Y015708D03*
X012352Y016058D03*
X012002Y015708D03*
X011652Y016058D03*
X006752Y013158D03*
X006752Y011758D03*
X007552Y019308D03*
X011902Y019308D03*
X033052Y009208D03*
X030202Y005258D03*
X029052Y005058D03*
X027702Y001808D03*
X024002Y001758D03*
X023252Y002358D03*
X022802Y004408D03*
D19*
X005279Y001216D02*
X005251Y001208D01*
X006794Y001208D01*
X006687Y001315D01*
X006622Y001473D01*
X006622Y001644D01*
X006687Y001802D01*
X006808Y001923D01*
X006966Y001988D01*
X007137Y001988D01*
X007181Y001970D01*
X007376Y002165D01*
X007326Y002191D01*
X007272Y002230D01*
X007224Y002278D01*
X007184Y002333D01*
X007153Y002393D01*
X007132Y002458D01*
X007122Y002524D01*
X007122Y002528D01*
X007522Y002528D01*
X007522Y002588D01*
X007122Y002588D01*
X007122Y002592D01*
X007132Y002659D01*
X007153Y002723D01*
X007184Y002784D01*
X007224Y002838D01*
X007272Y002886D01*
X007326Y002926D01*
X007387Y002957D01*
X007451Y002978D01*
X007518Y002988D01*
X007522Y002988D01*
X007522Y002589D01*
X007582Y002589D01*
X007582Y002988D01*
X007586Y002988D01*
X007653Y002978D01*
X007717Y002957D01*
X007777Y002926D01*
X007832Y002886D01*
X007880Y002838D01*
X007920Y002784D01*
X007950Y002723D01*
X007971Y002659D01*
X007982Y002592D01*
X007982Y002588D01*
X007582Y002588D01*
X007582Y002528D01*
X007982Y002528D01*
X007982Y002524D01*
X007971Y002458D01*
X007950Y002393D01*
X007920Y002333D01*
X007880Y002278D01*
X007860Y002258D01*
X008244Y002258D01*
X008187Y002315D01*
X008122Y002473D01*
X008122Y002644D01*
X008187Y002802D01*
X008308Y002923D01*
X008466Y002988D01*
X008637Y002988D01*
X008795Y002923D01*
X008916Y002802D01*
X008934Y002758D01*
X009119Y002758D01*
X009370Y003010D01*
X009370Y003337D01*
X009458Y003425D01*
X009976Y003425D01*
X010052Y003349D01*
X010128Y003425D01*
X010436Y003425D01*
X010452Y003441D01*
X010452Y003575D01*
X010452Y003741D01*
X010552Y003841D01*
X010552Y003978D01*
X010605Y004106D01*
X010704Y004205D01*
X010832Y004258D01*
X010971Y004258D01*
X011100Y004205D01*
X011199Y004106D01*
X011252Y003978D01*
X011252Y003839D01*
X011199Y003710D01*
X011100Y003612D01*
X010971Y003558D01*
X010852Y003558D01*
X010852Y003275D01*
X010735Y003158D01*
X010733Y003157D01*
X010733Y003054D01*
X010755Y003106D01*
X010854Y003205D01*
X010982Y003258D01*
X011121Y003258D01*
X011250Y003205D01*
X011349Y003106D01*
X011402Y002978D01*
X011402Y002841D01*
X011435Y002808D01*
X011919Y002808D01*
X011619Y003108D01*
X011482Y003108D01*
X011354Y003162D01*
X011255Y003260D01*
X011202Y003389D01*
X011202Y003528D01*
X011255Y003656D01*
X011354Y003755D01*
X011482Y003808D01*
X011621Y003808D01*
X011750Y003755D01*
X011849Y003656D01*
X011902Y003528D01*
X011902Y003391D01*
X012285Y003008D01*
X013519Y003008D01*
X013702Y003191D01*
X013702Y003328D01*
X013755Y003456D01*
X013854Y003555D01*
X013982Y003608D01*
X014121Y003608D01*
X014250Y003555D01*
X014349Y003456D01*
X014402Y003328D01*
X014402Y003189D01*
X014349Y003060D01*
X014250Y002962D01*
X014242Y002958D01*
X014907Y002958D01*
X015004Y003055D01*
X015132Y003108D01*
X015271Y003108D01*
X015400Y003055D01*
X015499Y002956D01*
X015552Y002828D01*
X015552Y002708D01*
X015621Y002708D01*
X015750Y002655D01*
X015849Y002556D01*
X015902Y002428D01*
X015902Y002289D01*
X015849Y002160D01*
X015750Y002062D01*
X015621Y002008D01*
X015482Y002008D01*
X015354Y002062D01*
X015257Y002158D01*
X011247Y002158D01*
X011200Y002112D01*
X011071Y002058D01*
X010932Y002058D01*
X010804Y002112D01*
X010733Y002182D01*
X010733Y002030D01*
X010646Y001942D01*
X010586Y001942D01*
X010586Y001925D01*
X010646Y001925D01*
X010733Y001837D01*
X010733Y001280D01*
X010662Y001208D01*
X031353Y001208D01*
X031325Y001216D01*
X030906Y001486D01*
X030580Y001862D01*
X030580Y001862D01*
X030373Y002315D01*
X030373Y002315D01*
X030359Y002412D01*
X029614Y001667D01*
X029543Y001596D01*
X029452Y001558D01*
X027947Y001558D01*
X027900Y001512D01*
X027771Y001458D01*
X027632Y001458D01*
X027504Y001512D01*
X027405Y001610D01*
X027352Y001739D01*
X027352Y001878D01*
X027405Y002006D01*
X027504Y002105D01*
X027632Y002158D01*
X027771Y002158D01*
X027900Y002105D01*
X027947Y002058D01*
X029298Y002058D01*
X030052Y002812D01*
X030052Y003608D01*
X030090Y003700D01*
X030160Y003770D01*
X031160Y004770D01*
X031252Y004808D01*
X031352Y004808D01*
X033048Y004808D01*
X033302Y005062D01*
X033302Y008958D01*
X033297Y008958D01*
X033250Y008912D01*
X033121Y008858D01*
X032982Y008858D01*
X032854Y008912D01*
X032755Y009010D01*
X032702Y009139D01*
X032447Y009139D01*
X032416Y009065D02*
X032482Y009223D01*
X032482Y009394D01*
X032416Y009552D01*
X032295Y009673D01*
X032137Y009738D01*
X031966Y009738D01*
X031808Y009673D01*
X031687Y009552D01*
X031622Y009394D01*
X031622Y009321D01*
X031397Y009546D01*
X031416Y009565D01*
X031482Y009723D01*
X031482Y009894D01*
X031416Y010052D01*
X031295Y010173D01*
X031137Y010238D01*
X030966Y010238D01*
X030808Y010173D01*
X030687Y010052D01*
X030622Y009894D01*
X030622Y009723D01*
X030650Y009655D01*
X030521Y009708D01*
X030382Y009708D01*
X030254Y009655D01*
X030155Y009556D01*
X030102Y009428D01*
X030102Y009289D01*
X030155Y009160D01*
X030254Y009062D01*
X030382Y009008D01*
X030521Y009008D01*
X030650Y009062D01*
X030747Y009158D01*
X030794Y009158D01*
X030687Y009052D01*
X030622Y008894D01*
X030622Y008723D01*
X030687Y008565D01*
X030808Y008444D01*
X030966Y008378D01*
X031137Y008378D01*
X031295Y008444D01*
X031352Y008500D01*
X031352Y008116D01*
X031295Y008173D01*
X031137Y008238D01*
X030966Y008238D01*
X030808Y008173D01*
X030687Y008052D01*
X030622Y007894D01*
X030622Y007723D01*
X030687Y007565D01*
X030808Y007444D01*
X030966Y007378D01*
X031137Y007378D01*
X031295Y007444D01*
X031352Y007500D01*
X031352Y007391D01*
X031181Y007220D01*
X031137Y007238D01*
X030966Y007238D01*
X030808Y007173D01*
X030687Y007052D01*
X030622Y006894D01*
X030622Y006723D01*
X030687Y006565D01*
X030808Y006444D01*
X030966Y006378D01*
X031039Y006378D01*
X030269Y005608D01*
X030132Y005608D01*
X030004Y005555D01*
X029905Y005456D01*
X029852Y005328D01*
X029852Y005189D01*
X029905Y005060D01*
X030004Y004962D01*
X030132Y004908D01*
X030271Y004908D01*
X030400Y004962D01*
X030499Y005060D01*
X030552Y005189D01*
X030552Y005325D01*
X031335Y006108D01*
X031669Y006108D01*
X031687Y006065D01*
X031808Y005944D01*
X031966Y005878D01*
X032137Y005878D01*
X032295Y005944D01*
X032416Y006065D01*
X032482Y006223D01*
X032482Y006394D01*
X032416Y006552D01*
X032295Y006673D01*
X032137Y006738D01*
X031966Y006738D01*
X031808Y006673D01*
X031687Y006552D01*
X031669Y006508D01*
X031360Y006508D01*
X031416Y006565D01*
X031482Y006723D01*
X031482Y006894D01*
X031464Y006937D01*
X031659Y007133D01*
X031687Y007065D01*
X031808Y006944D01*
X031966Y006878D01*
X032137Y006878D01*
X032295Y006944D01*
X032416Y007065D01*
X032482Y007223D01*
X032482Y007394D01*
X032416Y007552D01*
X032295Y007673D01*
X032137Y007738D01*
X031966Y007738D01*
X031808Y007673D01*
X031752Y007616D01*
X031752Y008000D01*
X031808Y007944D01*
X031966Y007878D01*
X032137Y007878D01*
X032295Y007944D01*
X032416Y008065D01*
X032482Y008223D01*
X032482Y008394D01*
X032416Y008552D01*
X032295Y008673D01*
X032137Y008738D01*
X031966Y008738D01*
X031808Y008673D01*
X031752Y008616D01*
X031752Y009000D01*
X031808Y008944D01*
X031966Y008878D01*
X032137Y008878D01*
X032295Y008944D01*
X032416Y009065D01*
X032392Y009040D02*
X032743Y009040D01*
X032702Y009139D02*
X032702Y009278D01*
X032755Y009406D01*
X032854Y009505D01*
X032982Y009558D01*
X033121Y009558D01*
X033250Y009505D01*
X033297Y009458D01*
X033302Y009458D01*
X033302Y012105D01*
X033098Y012308D01*
X031252Y012308D01*
X031160Y012346D01*
X031090Y012417D01*
X030090Y013417D01*
X030052Y013509D01*
X030052Y013608D01*
X030052Y018955D01*
X029448Y019558D01*
X026652Y019558D01*
X026652Y019553D01*
X026699Y019506D01*
X026752Y019378D01*
X026752Y019239D01*
X026699Y019110D01*
X026600Y019012D01*
X026471Y018958D01*
X026332Y018958D01*
X026204Y019012D01*
X026105Y019110D01*
X026052Y019239D01*
X026052Y019378D01*
X026105Y019506D01*
X026152Y019553D01*
X026152Y019558D01*
X019402Y019558D01*
X019402Y019553D01*
X019449Y019506D01*
X019502Y019378D01*
X019502Y019239D01*
X019449Y019110D01*
X019350Y019012D01*
X019221Y018958D01*
X019082Y018958D01*
X018954Y019012D01*
X018855Y019110D01*
X018802Y019239D01*
X018802Y019378D01*
X018855Y019506D01*
X018902Y019553D01*
X018902Y019558D01*
X012152Y019558D01*
X012152Y019553D01*
X012199Y019506D01*
X012252Y019378D01*
X012252Y019239D01*
X012199Y019110D01*
X012100Y019012D01*
X011971Y018958D01*
X011832Y018958D01*
X011704Y019012D01*
X011605Y019110D01*
X011552Y019239D01*
X011552Y019378D01*
X011605Y019506D01*
X011652Y019553D01*
X011652Y019558D01*
X005337Y019558D01*
X005378Y019545D01*
X005452Y019507D01*
X005519Y019459D01*
X005577Y019400D01*
X005626Y019333D01*
X005663Y019260D01*
X005689Y019181D01*
X005700Y019108D01*
X004852Y019108D01*
X004852Y019008D01*
X004852Y018533D01*
X005218Y018533D01*
X005300Y018546D01*
X005378Y018572D01*
X005452Y018609D01*
X005519Y018658D01*
X005577Y018716D01*
X005626Y018783D01*
X005663Y018857D01*
X005689Y018935D01*
X005700Y019008D01*
X004852Y019008D01*
X004752Y019008D01*
X004752Y018533D01*
X004386Y018533D01*
X004304Y018546D01*
X004225Y018572D01*
X004152Y018609D01*
X004085Y018658D01*
X004026Y018716D01*
X003978Y018783D01*
X003940Y018857D01*
X003915Y018935D01*
X003903Y019008D01*
X004752Y019008D01*
X004752Y019108D01*
X003903Y019108D01*
X003915Y019181D01*
X003940Y019260D01*
X003978Y019333D01*
X004026Y019400D01*
X004085Y019459D01*
X004152Y019507D01*
X004225Y019545D01*
X004267Y019558D01*
X004005Y019558D01*
X003502Y019055D01*
X003502Y016662D01*
X003855Y016308D01*
X003962Y016308D01*
X003982Y016356D01*
X004129Y016503D01*
X004322Y016583D01*
X005281Y016583D01*
X005474Y016503D01*
X005622Y016356D01*
X005702Y016163D01*
X005702Y015954D01*
X005622Y015761D01*
X005474Y015613D01*
X005281Y015533D01*
X004322Y015533D01*
X004129Y015613D01*
X003982Y015761D01*
X003962Y015808D01*
X003702Y015808D01*
X003610Y015846D01*
X003540Y015917D01*
X003540Y015917D01*
X003040Y016417D01*
X003002Y016509D01*
X003002Y016608D01*
X003002Y019208D01*
X003040Y019300D01*
X003110Y019370D01*
X003110Y019370D01*
X003648Y019908D01*
X002952Y019908D01*
X002952Y003474D01*
X003080Y003754D01*
X003080Y003754D01*
X003406Y004131D01*
X003406Y004131D01*
X003406Y004131D01*
X003825Y004400D01*
X003825Y004400D01*
X004303Y004540D01*
X004303Y004540D01*
X004801Y004540D01*
X004801Y004540D01*
X005279Y004400D01*
X005279Y004400D01*
X005698Y004131D01*
X005698Y004131D01*
X006024Y003754D01*
X006024Y003754D01*
X006231Y003301D01*
X006231Y003301D01*
X006302Y002808D01*
X006231Y002315D01*
X006231Y002315D01*
X006024Y001862D01*
X006024Y001862D01*
X005698Y001486D01*
X005698Y001486D01*
X005698Y001486D01*
X005279Y001216D01*
X005279Y001216D01*
X005339Y001255D02*
X006747Y001255D01*
X006671Y001354D02*
X005493Y001354D01*
X005646Y001452D02*
X006630Y001452D01*
X006622Y001551D02*
X005754Y001551D01*
X005840Y001650D02*
X006624Y001650D01*
X006665Y001748D02*
X005925Y001748D01*
X006011Y001847D02*
X006732Y001847D01*
X006862Y001945D02*
X006062Y001945D01*
X006107Y002044D02*
X007255Y002044D01*
X007353Y002142D02*
X006152Y002142D01*
X006197Y002241D02*
X007261Y002241D01*
X007181Y002339D02*
X006234Y002339D01*
X006249Y002438D02*
X007139Y002438D01*
X007129Y002635D02*
X006277Y002635D01*
X006291Y002734D02*
X007159Y002734D01*
X007219Y002832D02*
X006298Y002832D01*
X006284Y002931D02*
X007336Y002931D01*
X007522Y002931D02*
X007582Y002931D01*
X007582Y002832D02*
X007522Y002832D01*
X007522Y002734D02*
X007582Y002734D01*
X007582Y002635D02*
X007522Y002635D01*
X007522Y002536D02*
X006263Y002536D01*
X006270Y003029D02*
X009370Y003029D01*
X009370Y003128D02*
X006256Y003128D01*
X006242Y003226D02*
X009370Y003226D01*
X009370Y003325D02*
X006220Y003325D01*
X006175Y003423D02*
X009457Y003423D01*
X009702Y003058D02*
X009202Y002558D01*
X008552Y002558D01*
X008159Y002734D02*
X007945Y002734D01*
X007975Y002635D02*
X008122Y002635D01*
X008122Y002536D02*
X007582Y002536D01*
X007923Y002339D02*
X008177Y002339D01*
X008136Y002438D02*
X007965Y002438D01*
X007884Y002832D02*
X008218Y002832D01*
X008327Y002931D02*
X007768Y002931D01*
X008777Y002931D02*
X009291Y002931D01*
X009193Y002832D02*
X008886Y002832D01*
X009702Y003058D02*
X009717Y003058D01*
X009978Y003423D02*
X010126Y003423D01*
X010452Y003522D02*
X006130Y003522D01*
X006085Y003620D02*
X010452Y003620D01*
X010452Y003719D02*
X006040Y003719D01*
X005969Y003817D02*
X010528Y003817D01*
X010552Y003916D02*
X005884Y003916D01*
X005799Y004015D02*
X010567Y004015D01*
X010612Y004113D02*
X005713Y004113D01*
X005572Y004212D02*
X010720Y004212D01*
X011084Y004212D02*
X022504Y004212D01*
X022505Y004210D02*
X022604Y004112D01*
X022732Y004058D01*
X022871Y004058D01*
X023000Y004112D01*
X023052Y004163D01*
X023052Y002653D01*
X022955Y002556D01*
X022902Y002428D01*
X022902Y002289D01*
X022955Y002160D01*
X023054Y002062D01*
X023182Y002008D01*
X023321Y002008D01*
X023450Y002062D01*
X023549Y002160D01*
X023602Y002289D01*
X023602Y002428D01*
X023549Y002556D01*
X023452Y002653D01*
X023452Y008441D01*
X023335Y008558D01*
X023223Y008670D01*
X023252Y008739D01*
X023252Y008878D01*
X023199Y009006D01*
X023100Y009105D01*
X022971Y009158D01*
X022832Y009158D01*
X022704Y009105D01*
X022649Y009050D01*
X022649Y009502D01*
X022593Y009558D01*
X022619Y009584D01*
X022638Y009618D01*
X022649Y009657D01*
X022649Y009844D01*
X022351Y009844D01*
X022351Y009941D01*
X022649Y009941D01*
X022649Y010129D01*
X022638Y010167D01*
X022619Y010202D01*
X022591Y010229D01*
X022557Y010249D01*
X022518Y010259D01*
X022350Y010259D01*
X022350Y009942D01*
X022253Y009942D01*
X022253Y010259D01*
X022085Y010259D01*
X022047Y010249D01*
X022013Y010229D01*
X021985Y010202D01*
X021965Y010167D01*
X021955Y010129D01*
X021955Y009941D01*
X022253Y009941D01*
X022253Y009844D01*
X021955Y009844D01*
X021955Y009674D01*
X021871Y009708D01*
X021732Y009708D01*
X021604Y009655D01*
X021557Y009608D01*
X020205Y009608D01*
X019902Y009912D01*
X019902Y010163D01*
X019949Y010210D01*
X020002Y010339D01*
X020002Y010478D01*
X019949Y010606D01*
X019850Y010705D01*
X019721Y010758D01*
X019582Y010758D01*
X019454Y010705D01*
X019355Y010606D01*
X019302Y010478D01*
X019302Y010339D01*
X019355Y010210D01*
X019402Y010163D01*
X019402Y010058D01*
X019252Y010058D01*
X019152Y010058D01*
X019060Y010020D01*
X018898Y009858D01*
X018832Y009858D01*
X018704Y009805D01*
X018605Y009706D01*
X018552Y009578D01*
X018552Y009439D01*
X018605Y009310D01*
X018704Y009212D01*
X018832Y009158D01*
X018971Y009158D01*
X019100Y009212D01*
X019199Y009310D01*
X019252Y009439D01*
X019252Y009505D01*
X019305Y009558D01*
X019548Y009558D01*
X019890Y009217D01*
X019960Y009146D01*
X020052Y009108D01*
X021557Y009108D01*
X019897Y009108D01*
X019800Y009205D01*
X019671Y009258D01*
X019532Y009258D01*
X019404Y009205D01*
X019305Y009106D01*
X019252Y008978D01*
X019252Y008839D01*
X019305Y008710D01*
X019404Y008612D01*
X019532Y008558D01*
X019652Y008558D01*
X019652Y008489D01*
X019705Y008360D01*
X019802Y008263D01*
X019802Y007791D01*
X019623Y007970D01*
X019652Y008039D01*
X019652Y008178D01*
X019599Y008306D01*
X019500Y008405D01*
X019371Y008458D01*
X019232Y008458D01*
X019104Y008405D01*
X019005Y008306D01*
X018952Y008178D01*
X018952Y008039D01*
X019005Y007910D01*
X019104Y007812D01*
X019232Y007758D01*
X019269Y007758D01*
X019838Y007190D01*
X019754Y007155D01*
X019657Y007058D01*
X016497Y007058D01*
X016400Y007155D01*
X016271Y007208D01*
X016132Y007208D01*
X016004Y007155D01*
X015905Y007056D01*
X015852Y006928D01*
X015852Y006858D01*
X015782Y006858D01*
X015654Y006805D01*
X015555Y006706D01*
X015502Y006578D01*
X015502Y006496D01*
X015471Y006508D01*
X015332Y006508D01*
X015204Y006455D01*
X015105Y006356D01*
X015052Y006228D01*
X015052Y006089D01*
X015105Y005960D01*
X015204Y005862D01*
X015332Y005808D01*
X015452Y005808D01*
X015452Y005796D01*
X015421Y005808D01*
X015282Y005808D01*
X015154Y005755D01*
X015055Y005656D01*
X015002Y005528D01*
X015002Y005389D01*
X015055Y005260D01*
X015154Y005162D01*
X015282Y005108D01*
X015421Y005108D01*
X015550Y005162D01*
X015647Y005258D01*
X017257Y005258D01*
X017354Y005162D01*
X017482Y005108D01*
X017621Y005108D01*
X017750Y005162D01*
X017849Y005260D01*
X017902Y005389D01*
X017902Y005458D01*
X018021Y005458D01*
X018150Y005512D01*
X018249Y005610D01*
X018302Y005739D01*
X018302Y005878D01*
X018269Y005958D01*
X019469Y005958D01*
X019502Y005925D01*
X019502Y005789D01*
X019555Y005660D01*
X019607Y005608D01*
X019497Y005608D01*
X019400Y005705D01*
X019271Y005758D01*
X019132Y005758D01*
X019004Y005705D01*
X018905Y005606D01*
X018852Y005478D01*
X018852Y005339D01*
X018885Y005258D01*
X018669Y005258D01*
X018649Y005306D01*
X018550Y005405D01*
X018421Y005458D01*
X018282Y005458D01*
X018154Y005405D01*
X018055Y005306D01*
X018002Y005178D01*
X018002Y005108D01*
X017882Y005108D01*
X017754Y005055D01*
X017655Y004956D01*
X017602Y004828D01*
X017602Y004689D01*
X017655Y004560D01*
X017754Y004462D01*
X017882Y004408D01*
X018021Y004408D01*
X018150Y004462D01*
X018247Y004558D01*
X020285Y004558D01*
X020402Y004675D01*
X020902Y005175D01*
X020902Y005341D01*
X020902Y005742D01*
X020982Y005708D01*
X021052Y005708D01*
X021052Y005639D01*
X021105Y005510D01*
X021204Y005412D01*
X021332Y005358D01*
X021471Y005358D01*
X021600Y005412D01*
X021699Y005510D01*
X021702Y005518D01*
X021705Y005510D01*
X021804Y005412D01*
X021932Y005358D01*
X022071Y005358D01*
X022200Y005412D01*
X022299Y005510D01*
X022352Y005639D01*
X022352Y005778D01*
X022299Y005906D01*
X022200Y006005D01*
X022071Y006058D01*
X021935Y006058D01*
X021852Y006141D01*
X021852Y007863D01*
X021949Y007960D01*
X022002Y008089D01*
X022002Y008228D01*
X021949Y008356D01*
X021910Y008395D01*
X021950Y008412D01*
X022049Y008510D01*
X022102Y008639D01*
X022102Y008778D01*
X022069Y008857D01*
X022552Y008857D01*
X022552Y008739D01*
X022605Y008610D01*
X022704Y008512D01*
X022832Y008458D01*
X022704Y008405D01*
X022605Y008306D01*
X022552Y008178D01*
X022552Y008039D01*
X022605Y007910D01*
X022702Y007813D01*
X022702Y004746D01*
X022604Y004705D01*
X022505Y004606D01*
X020332Y004606D01*
X020431Y004704D02*
X022603Y004704D01*
X022505Y004606D02*
X022452Y004478D01*
X022452Y004339D01*
X022505Y004210D01*
X022464Y004310D02*
X005419Y004310D01*
X005249Y004409D02*
X017881Y004409D01*
X018023Y004409D02*
X022452Y004409D01*
X022464Y004507D02*
X018196Y004507D01*
X017952Y004758D02*
X020202Y004758D01*
X020702Y005258D01*
X020702Y007208D01*
X020352Y007558D01*
X020352Y008158D01*
X019802Y008153D02*
X019652Y008153D01*
X019652Y008055D02*
X019802Y008055D01*
X019802Y007956D02*
X019637Y007956D01*
X019735Y007858D02*
X019802Y007858D01*
X020002Y007608D02*
X020502Y007108D01*
X020502Y005508D01*
X020052Y005058D01*
X018402Y005058D01*
X018352Y005108D01*
X018010Y005197D02*
X017786Y005197D01*
X017859Y005099D02*
X002952Y005099D01*
X002952Y005197D02*
X011518Y005197D01*
X011554Y005162D02*
X011455Y005260D01*
X011402Y005389D01*
X011402Y005528D01*
X011455Y005656D01*
X011552Y005753D01*
X011552Y006208D01*
X011432Y006208D01*
X011304Y006262D01*
X011205Y006360D01*
X011152Y006489D01*
X011152Y006513D01*
X011100Y006462D01*
X010971Y006408D01*
X010832Y006408D01*
X010704Y006462D01*
X010605Y006560D01*
X010552Y006689D01*
X010552Y006828D01*
X010605Y006956D01*
X010702Y007053D01*
X010702Y008058D01*
X010682Y008058D01*
X010554Y008112D01*
X010455Y008210D01*
X010402Y008339D01*
X010402Y008478D01*
X010455Y008606D01*
X010554Y008705D01*
X010682Y008758D01*
X010752Y008758D01*
X010752Y008878D01*
X010805Y009006D01*
X010904Y009105D01*
X011032Y009158D01*
X011171Y009158D01*
X011300Y009105D01*
X011399Y009006D01*
X011452Y008878D01*
X011452Y008739D01*
X011452Y008575D01*
X011452Y006908D01*
X011571Y006908D01*
X011700Y006855D01*
X011799Y006756D01*
X011852Y006628D01*
X011852Y006491D01*
X011952Y006391D01*
X011952Y006225D01*
X011952Y005753D01*
X012049Y005656D01*
X012102Y005528D01*
X012102Y005389D01*
X012049Y005260D01*
X011950Y005162D01*
X011821Y005108D01*
X011682Y005108D01*
X011554Y005162D01*
X011440Y005296D02*
X002952Y005296D01*
X002952Y005394D02*
X011402Y005394D01*
X011402Y005493D02*
X002952Y005493D01*
X002952Y005591D02*
X011428Y005591D01*
X011488Y005690D02*
X002952Y005690D01*
X002952Y005788D02*
X011552Y005788D01*
X011552Y005887D02*
X002952Y005887D01*
X002952Y005985D02*
X011552Y005985D01*
X011552Y006084D02*
X002952Y006084D01*
X002952Y006183D02*
X011552Y006183D01*
X011752Y006308D02*
X011502Y006558D01*
X011452Y006558D01*
X011252Y006758D01*
X011252Y008658D01*
X011102Y008808D01*
X011425Y008942D02*
X015955Y008942D01*
X015955Y009040D02*
X011365Y009040D01*
X011218Y009139D02*
X015955Y009139D01*
X015955Y009172D02*
X015955Y008614D01*
X016011Y008558D01*
X015985Y008532D01*
X015965Y008498D01*
X015955Y008460D01*
X015955Y008272D01*
X016253Y008272D01*
X016253Y008175D01*
X015955Y008175D01*
X015955Y007987D01*
X015965Y007949D01*
X015985Y007915D01*
X016013Y007887D01*
X016047Y007867D01*
X016085Y007857D01*
X016253Y007857D01*
X016253Y008175D01*
X016350Y008175D01*
X016350Y007857D01*
X016518Y007857D01*
X016557Y007867D01*
X016591Y007887D01*
X016619Y007915D01*
X016638Y007949D01*
X016649Y007987D01*
X016649Y008175D01*
X016351Y008175D01*
X016351Y008272D01*
X016649Y008272D01*
X016649Y008460D01*
X016638Y008498D01*
X016619Y008532D01*
X016593Y008558D01*
X016634Y008599D01*
X016732Y008558D01*
X016871Y008558D01*
X017000Y008612D01*
X017099Y008710D01*
X017152Y008839D01*
X017152Y008978D01*
X017099Y009106D01*
X017000Y009205D01*
X016871Y009258D01*
X016732Y009258D01*
X016612Y009208D01*
X016561Y009259D01*
X016043Y009259D01*
X015955Y009172D01*
X016021Y009237D02*
X006502Y009237D01*
X006502Y009139D02*
X010985Y009139D01*
X010839Y009040D02*
X006420Y009040D01*
X006502Y009122D02*
X006238Y008858D01*
X005865Y008858D01*
X005602Y009122D01*
X005602Y009495D01*
X005865Y009758D01*
X006219Y009758D01*
X006552Y010091D01*
X006552Y011463D01*
X006455Y011560D01*
X006402Y011689D01*
X006402Y011828D01*
X006455Y011956D01*
X006554Y012055D01*
X006682Y012108D01*
X006821Y012108D01*
X006950Y012055D01*
X007049Y011956D01*
X007102Y011828D01*
X007102Y011689D01*
X007049Y011560D01*
X006952Y011463D01*
X006952Y010091D01*
X006952Y009925D01*
X006502Y009475D01*
X006502Y009122D01*
X006502Y009336D02*
X018594Y009336D01*
X018554Y009434D02*
X006502Y009434D01*
X006559Y009533D02*
X018552Y009533D01*
X018574Y009632D02*
X006658Y009632D01*
X006757Y009730D02*
X016685Y009730D01*
X016704Y009712D02*
X016832Y009658D01*
X016971Y009658D01*
X017100Y009712D01*
X017199Y009810D01*
X017235Y009898D01*
X017332Y009858D01*
X017471Y009858D01*
X017600Y009912D01*
X017699Y010010D01*
X017752Y010139D01*
X017752Y010208D01*
X017835Y010208D01*
X018057Y010208D01*
X018154Y010112D01*
X018282Y010058D01*
X018421Y010058D01*
X018550Y010112D01*
X018649Y010210D01*
X018702Y010339D01*
X018702Y010478D01*
X018649Y010606D01*
X018550Y010705D01*
X018421Y010758D01*
X018302Y010758D01*
X018302Y010828D01*
X018249Y010956D01*
X018150Y011055D01*
X018021Y011108D01*
X017882Y011108D01*
X017754Y011055D01*
X017657Y010958D01*
X014985Y010958D01*
X014952Y010991D01*
X014952Y011128D01*
X014899Y011256D01*
X014800Y011355D01*
X014671Y011408D01*
X014532Y011408D01*
X014404Y011355D01*
X014305Y011256D01*
X014252Y011128D01*
X014252Y010989D01*
X014305Y010860D01*
X014357Y010808D01*
X014352Y010803D01*
X014300Y010855D01*
X014171Y010908D01*
X014032Y010908D01*
X013904Y010855D01*
X013805Y010756D01*
X013752Y010628D01*
X013752Y010489D01*
X013805Y010360D01*
X013904Y010262D01*
X014032Y010208D01*
X014169Y010208D01*
X013252Y010208D01*
X013252Y010278D01*
X013199Y010406D01*
X013100Y010505D01*
X012971Y010558D01*
X012832Y010558D01*
X012704Y010505D01*
X012605Y010406D01*
X012552Y010278D01*
X012552Y010139D01*
X012605Y010010D01*
X012704Y009912D01*
X012832Y009858D01*
X012969Y009858D01*
X013019Y009808D01*
X013185Y009808D01*
X014935Y009808D01*
X015052Y009925D01*
X015085Y009958D01*
X016552Y009958D01*
X016552Y009939D01*
X016605Y009810D01*
X016704Y009712D01*
X016597Y009829D02*
X014955Y009829D01*
X015054Y009927D02*
X016557Y009927D01*
X016752Y010158D02*
X015002Y010158D01*
X014852Y010008D01*
X013102Y010008D01*
X012902Y010208D01*
X012552Y010223D02*
X006952Y010223D01*
X006952Y010321D02*
X012570Y010321D01*
X012619Y010420D02*
X006952Y010420D01*
X006952Y010518D02*
X012736Y010518D01*
X013068Y010518D02*
X013752Y010518D01*
X013752Y010617D02*
X006952Y010617D01*
X006952Y010716D02*
X013788Y010716D01*
X013863Y010814D02*
X006952Y010814D01*
X006952Y010913D02*
X014283Y010913D01*
X014252Y011011D02*
X006952Y011011D01*
X006952Y011110D02*
X014252Y011110D01*
X014285Y011208D02*
X006952Y011208D01*
X006952Y011307D02*
X014355Y011307D01*
X014525Y011405D02*
X006952Y011405D01*
X006992Y011504D02*
X016253Y011504D01*
X016253Y011522D02*
X016253Y011425D01*
X015955Y011425D01*
X015955Y011237D01*
X015965Y011199D01*
X015985Y011165D01*
X016013Y011137D01*
X016047Y011117D01*
X016085Y011107D01*
X016253Y011107D01*
X016253Y011425D01*
X016350Y011425D01*
X016350Y011107D01*
X016518Y011107D01*
X016557Y011117D01*
X016591Y011137D01*
X016619Y011165D01*
X016638Y011199D01*
X016649Y011237D01*
X016649Y011425D01*
X016351Y011425D01*
X016351Y011522D01*
X016649Y011522D01*
X016649Y011710D01*
X016638Y011748D01*
X016619Y011782D01*
X016593Y011808D01*
X016600Y011815D01*
X016604Y011812D01*
X016732Y011758D01*
X016871Y011758D01*
X016926Y011781D01*
X017290Y011417D01*
X017360Y011346D01*
X017452Y011308D01*
X019502Y011308D01*
X019582Y011308D01*
X019721Y011308D01*
X019850Y011362D01*
X019949Y011460D01*
X020002Y011589D01*
X020002Y011728D01*
X019949Y011856D01*
X019850Y011955D01*
X019721Y012008D01*
X019582Y012008D01*
X019454Y011955D01*
X019355Y011856D01*
X019335Y011808D01*
X018619Y011808D01*
X018652Y011889D01*
X018652Y012028D01*
X018599Y012156D01*
X018500Y012255D01*
X018371Y012308D01*
X018500Y012362D01*
X018599Y012460D01*
X018652Y012589D01*
X018652Y012728D01*
X018599Y012856D01*
X018500Y012955D01*
X018371Y013008D01*
X018252Y013008D01*
X018252Y013078D01*
X018199Y013206D01*
X018100Y013305D01*
X017971Y013358D01*
X017832Y013358D01*
X017704Y013305D01*
X017607Y013208D01*
X017435Y013208D01*
X017302Y013341D01*
X017302Y015875D01*
X017335Y015908D01*
X018785Y015908D01*
X018902Y016025D01*
X019285Y016408D01*
X020685Y016408D01*
X020802Y016525D01*
X021252Y016975D01*
X021252Y017000D01*
X021308Y016944D01*
X021466Y016878D01*
X021637Y016878D01*
X021795Y016944D01*
X021916Y017065D01*
X021982Y017223D01*
X021982Y017394D01*
X021916Y017552D01*
X021795Y017673D01*
X021637Y017738D01*
X021515Y017738D01*
X021764Y017988D01*
X021808Y017944D01*
X021966Y017878D01*
X022137Y017878D01*
X022295Y017944D01*
X022416Y018065D01*
X022482Y018223D01*
X022482Y018394D01*
X022416Y018552D01*
X022295Y018673D01*
X022137Y018738D01*
X021966Y018738D01*
X021808Y018673D01*
X021687Y018552D01*
X021634Y018423D01*
X021482Y018271D01*
X021482Y018394D01*
X021416Y018552D01*
X021295Y018673D01*
X021137Y018738D01*
X020966Y018738D01*
X020808Y018673D01*
X020687Y018552D01*
X020634Y018423D01*
X020482Y018271D01*
X020482Y018394D01*
X020416Y018552D01*
X020295Y018673D01*
X020137Y018738D01*
X019966Y018738D01*
X019808Y018673D01*
X019687Y018552D01*
X019634Y018423D01*
X019482Y018271D01*
X019482Y018394D01*
X019416Y018552D01*
X019295Y018673D01*
X019137Y018738D01*
X018966Y018738D01*
X018808Y018673D01*
X018687Y018552D01*
X018634Y018423D01*
X018482Y018271D01*
X018482Y018394D01*
X018416Y018552D01*
X018295Y018673D01*
X018137Y018738D01*
X017966Y018738D01*
X017808Y018673D01*
X017687Y018552D01*
X017622Y018394D01*
X017622Y018223D01*
X017687Y018065D01*
X017808Y017944D01*
X017966Y017878D01*
X018089Y017878D01*
X017969Y017758D01*
X017852Y017641D01*
X017852Y017616D01*
X017832Y017636D01*
X017777Y017676D01*
X017717Y017707D01*
X017653Y017728D01*
X017586Y017738D01*
X017582Y017738D01*
X017582Y017339D01*
X017522Y017339D01*
X017522Y017738D01*
X017518Y017738D01*
X017451Y017728D01*
X017387Y017707D01*
X017326Y017676D01*
X017272Y017636D01*
X017224Y017588D01*
X017184Y017534D01*
X017153Y017473D01*
X017132Y017409D01*
X017122Y017342D01*
X017122Y017338D01*
X017522Y017338D01*
X017522Y017278D01*
X017122Y017278D01*
X017122Y017274D01*
X017132Y017208D01*
X017153Y017143D01*
X017184Y017083D01*
X017224Y017028D01*
X017272Y016980D01*
X017326Y016941D01*
X017387Y016910D01*
X017392Y016908D01*
X017035Y016908D01*
X016869Y016908D01*
X016419Y016458D01*
X016302Y016341D01*
X016302Y014325D01*
X016221Y014358D01*
X016082Y014358D01*
X015954Y014305D01*
X015855Y014206D01*
X015802Y014078D01*
X015802Y013939D01*
X015855Y013810D01*
X015902Y013763D01*
X015902Y012343D01*
X015902Y012243D01*
X015940Y012151D01*
X015955Y012136D01*
X015955Y011864D01*
X016011Y011808D01*
X015985Y011782D01*
X015965Y011748D01*
X015955Y011710D01*
X015955Y011522D01*
X016253Y011522D01*
X016351Y011504D02*
X017203Y011504D01*
X017301Y011405D02*
X016649Y011405D01*
X016649Y011307D02*
X020502Y011307D01*
X020502Y011405D02*
X019894Y011405D01*
X019967Y011504D02*
X020502Y011504D01*
X020502Y011602D02*
X020002Y011602D01*
X020002Y011701D02*
X020502Y011701D01*
X020502Y011713D02*
X020502Y010603D01*
X020405Y010506D01*
X020352Y010378D01*
X020352Y010239D01*
X020405Y010110D01*
X020504Y010012D01*
X020632Y009958D01*
X020771Y009958D01*
X020900Y010012D01*
X020999Y010110D01*
X021052Y010239D01*
X021052Y010308D01*
X021171Y010308D01*
X021300Y010362D01*
X021352Y010413D01*
X021404Y010362D01*
X021532Y010308D01*
X021671Y010308D01*
X021800Y010362D01*
X021899Y010460D01*
X021952Y010589D01*
X021952Y010728D01*
X021899Y010856D01*
X021800Y010955D01*
X021671Y011008D01*
X021652Y011008D01*
X021652Y011713D01*
X021749Y011810D01*
X021802Y011939D01*
X021802Y012078D01*
X021749Y012206D01*
X021650Y012305D01*
X021521Y012358D01*
X021452Y012358D01*
X021452Y012478D01*
X021399Y012606D01*
X021300Y012705D01*
X021171Y012758D01*
X021032Y012758D01*
X020904Y012705D01*
X020805Y012606D01*
X020752Y012478D01*
X020752Y012358D01*
X020632Y012358D01*
X020504Y012305D01*
X020405Y012206D01*
X020352Y012078D01*
X020352Y011939D01*
X020405Y011810D01*
X020502Y011713D01*
X020416Y011799D02*
X019972Y011799D01*
X019907Y011898D02*
X020369Y011898D01*
X020352Y011997D02*
X019750Y011997D01*
X019554Y011997D02*
X018652Y011997D01*
X018652Y011898D02*
X019397Y011898D01*
X018624Y012095D02*
X020359Y012095D01*
X020400Y012194D02*
X018561Y012194D01*
X018410Y012292D02*
X020491Y012292D01*
X020752Y012391D02*
X018529Y012391D01*
X018611Y012489D02*
X020757Y012489D01*
X020797Y012588D02*
X018651Y012588D01*
X018652Y012686D02*
X020885Y012686D01*
X021102Y012408D02*
X021102Y010658D01*
X021203Y010321D02*
X021501Y010321D01*
X021703Y010321D02*
X026928Y010321D01*
X026830Y010223D02*
X022597Y010223D01*
X022649Y010124D02*
X026731Y010124D01*
X026646Y010039D02*
X026646Y010020D01*
X026627Y010020D01*
X026437Y009831D01*
X026437Y009661D01*
X026557Y009541D01*
X026602Y009541D01*
X026602Y009496D01*
X026673Y009425D01*
X026792Y009306D01*
X026861Y009237D01*
X026919Y009237D01*
X026919Y009179D01*
X026935Y009163D01*
X026939Y009141D01*
X026993Y009105D01*
X027039Y009059D01*
X027061Y009059D01*
X027080Y009047D01*
X027144Y009059D01*
X027197Y009059D01*
X027197Y008901D01*
X027317Y008781D01*
X027487Y008781D01*
X027921Y009215D01*
X027943Y009219D01*
X027979Y009273D01*
X028024Y009319D01*
X028024Y009341D01*
X028037Y009360D01*
X028024Y009424D01*
X028024Y009488D01*
X028008Y009505D01*
X028004Y009527D01*
X027950Y009563D01*
X027904Y009609D01*
X027881Y009609D01*
X027863Y009621D01*
X027799Y009609D01*
X027746Y009609D01*
X027746Y009767D01*
X027626Y009887D01*
X027542Y009887D01*
X027569Y009914D01*
X027569Y010083D01*
X027449Y010203D01*
X027334Y010203D01*
X027334Y010318D01*
X027214Y010438D01*
X027045Y010438D01*
X026646Y010039D01*
X026646Y010026D02*
X022649Y010026D01*
X022649Y009829D02*
X026437Y009829D01*
X026437Y009730D02*
X022649Y009730D01*
X022642Y009632D02*
X026466Y009632D01*
X026602Y009533D02*
X022618Y009533D01*
X022649Y009434D02*
X026664Y009434D01*
X026762Y009336D02*
X022649Y009336D01*
X022649Y009237D02*
X026861Y009237D01*
X026792Y009306D02*
X026792Y009306D01*
X026942Y009139D02*
X023018Y009139D01*
X023165Y009040D02*
X027197Y009040D01*
X027197Y008942D02*
X023225Y008942D01*
X023252Y008843D02*
X027255Y008843D01*
X027549Y008843D02*
X030622Y008843D01*
X030622Y008745D02*
X023252Y008745D01*
X023247Y008646D02*
X030654Y008646D01*
X030704Y008548D02*
X023345Y008548D01*
X023444Y008449D02*
X030803Y008449D01*
X030789Y008153D02*
X023452Y008153D01*
X023452Y008055D02*
X030690Y008055D01*
X030648Y007956D02*
X023452Y007956D01*
X023452Y007858D02*
X030622Y007858D01*
X030622Y007759D02*
X023452Y007759D01*
X023452Y007661D02*
X030648Y007661D01*
X030690Y007562D02*
X023452Y007562D01*
X023452Y007464D02*
X030788Y007464D01*
X030804Y007168D02*
X023452Y007168D01*
X023452Y007266D02*
X031227Y007266D01*
X031326Y007365D02*
X023452Y007365D01*
X023452Y007069D02*
X030705Y007069D01*
X030654Y006971D02*
X023452Y006971D01*
X023452Y006872D02*
X030622Y006872D01*
X030622Y006774D02*
X023452Y006774D01*
X023452Y006675D02*
X030642Y006675D01*
X030682Y006577D02*
X023452Y006577D01*
X023452Y006478D02*
X030774Y006478D01*
X030963Y006380D02*
X023452Y006380D01*
X023452Y006281D02*
X030942Y006281D01*
X030843Y006183D02*
X023452Y006183D01*
X023452Y006084D02*
X030745Y006084D01*
X030646Y005985D02*
X023452Y005985D01*
X023452Y005887D02*
X030548Y005887D01*
X030449Y005788D02*
X023452Y005788D01*
X023452Y005690D02*
X030351Y005690D01*
X030091Y005591D02*
X023452Y005591D01*
X023452Y005493D02*
X029941Y005493D01*
X029879Y005394D02*
X023452Y005394D01*
X023452Y005296D02*
X029852Y005296D01*
X029852Y005197D02*
X023452Y005197D01*
X023452Y005099D02*
X029889Y005099D01*
X029965Y005000D02*
X023452Y005000D01*
X023452Y004901D02*
X033142Y004901D01*
X033240Y005000D02*
X030439Y005000D01*
X030515Y005099D02*
X033302Y005099D01*
X033302Y005197D02*
X030552Y005197D01*
X030552Y005296D02*
X033302Y005296D01*
X033302Y005394D02*
X030621Y005394D01*
X030719Y005493D02*
X033302Y005493D01*
X033302Y005591D02*
X030818Y005591D01*
X030916Y005690D02*
X033302Y005690D01*
X033302Y005788D02*
X031015Y005788D01*
X031113Y005887D02*
X031946Y005887D01*
X031767Y005985D02*
X031212Y005985D01*
X031310Y006084D02*
X031679Y006084D01*
X032052Y006308D02*
X031252Y006308D01*
X030202Y005258D01*
X030996Y004606D02*
X023452Y004606D01*
X023452Y004704D02*
X031094Y004704D01*
X031239Y004803D02*
X023452Y004803D01*
X023452Y004507D02*
X030897Y004507D01*
X030799Y004409D02*
X023452Y004409D01*
X023452Y004310D02*
X030700Y004310D01*
X030602Y004212D02*
X029452Y004212D01*
X029467Y004207D02*
X029403Y004228D01*
X029336Y004238D01*
X029332Y004238D01*
X029332Y003839D01*
X029272Y003839D01*
X029272Y004238D01*
X029268Y004238D01*
X029201Y004228D01*
X029137Y004207D01*
X029076Y004176D01*
X029022Y004136D01*
X028974Y004088D01*
X028934Y004034D01*
X028903Y003973D01*
X028882Y003909D01*
X028872Y003842D01*
X028872Y003838D01*
X029272Y003838D01*
X029272Y003778D01*
X029332Y003778D01*
X029332Y003378D01*
X029336Y003378D01*
X029403Y003389D01*
X029467Y003410D01*
X029527Y003441D01*
X029582Y003480D01*
X029630Y003528D01*
X029670Y003583D01*
X029700Y003643D01*
X029721Y003708D01*
X029732Y003774D01*
X029732Y003778D01*
X029332Y003778D01*
X029332Y003838D01*
X029732Y003838D01*
X029732Y003842D01*
X029721Y003909D01*
X029700Y003973D01*
X029670Y004034D01*
X029630Y004088D01*
X029582Y004136D01*
X029527Y004176D01*
X029467Y004207D01*
X029332Y004212D02*
X029272Y004212D01*
X029272Y004113D02*
X029332Y004113D01*
X029332Y004015D02*
X029272Y004015D01*
X029272Y003916D02*
X029332Y003916D01*
X029332Y003817D02*
X030208Y003817D01*
X030109Y003719D02*
X029723Y003719D01*
X029689Y003620D02*
X030057Y003620D01*
X030052Y003522D02*
X029624Y003522D01*
X029493Y003423D02*
X030052Y003423D01*
X030052Y003325D02*
X023452Y003325D01*
X023452Y003423D02*
X025108Y003423D01*
X025058Y003444D02*
X025216Y003378D01*
X025387Y003378D01*
X025545Y003444D01*
X025666Y003565D01*
X025732Y003723D01*
X025732Y003894D01*
X025666Y004052D01*
X025545Y004173D01*
X025387Y004238D01*
X025216Y004238D01*
X025058Y004173D01*
X024937Y004052D01*
X024872Y003894D01*
X024872Y003723D01*
X024937Y003565D01*
X025058Y003444D01*
X024980Y003522D02*
X023452Y003522D01*
X023452Y003620D02*
X024914Y003620D01*
X024873Y003719D02*
X023452Y003719D01*
X023452Y003817D02*
X024872Y003817D01*
X024881Y003916D02*
X023452Y003916D01*
X023452Y004015D02*
X024922Y004015D01*
X024999Y004113D02*
X023452Y004113D01*
X023452Y004212D02*
X025152Y004212D01*
X025452Y004212D02*
X026152Y004212D01*
X026216Y004238D02*
X026058Y004173D01*
X025937Y004052D01*
X025872Y003894D01*
X025872Y003723D01*
X025937Y003565D01*
X026058Y003444D01*
X026216Y003378D01*
X026387Y003378D01*
X026545Y003444D01*
X026666Y003565D01*
X026732Y003723D01*
X026732Y003894D01*
X026666Y004052D01*
X026545Y004173D01*
X026387Y004238D01*
X026216Y004238D01*
X026452Y004212D02*
X027152Y004212D01*
X027216Y004238D02*
X027058Y004173D01*
X026937Y004052D01*
X026872Y003894D01*
X026872Y003723D01*
X026937Y003565D01*
X027058Y003444D01*
X027216Y003378D01*
X027387Y003378D01*
X027545Y003444D01*
X027666Y003565D01*
X027732Y003723D01*
X027732Y003894D01*
X027666Y004052D01*
X027545Y004173D01*
X027387Y004238D01*
X027216Y004238D01*
X027452Y004212D02*
X028152Y004212D01*
X028216Y004238D02*
X028058Y004173D01*
X027937Y004052D01*
X027872Y003894D01*
X027872Y003723D01*
X027937Y003565D01*
X028058Y003444D01*
X028216Y003378D01*
X028387Y003378D01*
X028545Y003444D01*
X028666Y003565D01*
X028732Y003723D01*
X028732Y003894D01*
X028666Y004052D01*
X028545Y004173D01*
X028387Y004238D01*
X028216Y004238D01*
X028452Y004212D02*
X029152Y004212D01*
X028999Y004113D02*
X028605Y004113D01*
X028682Y004015D02*
X028924Y004015D01*
X028885Y003916D02*
X028723Y003916D01*
X028732Y003817D02*
X029272Y003817D01*
X029272Y003778D02*
X028872Y003778D01*
X028872Y003774D01*
X028882Y003708D01*
X028903Y003643D01*
X028934Y003583D01*
X028974Y003528D01*
X029022Y003480D01*
X029076Y003441D01*
X029137Y003410D01*
X029201Y003389D01*
X029268Y003378D01*
X029272Y003378D01*
X029272Y003778D01*
X029272Y003719D02*
X029332Y003719D01*
X029332Y003620D02*
X029272Y003620D01*
X029272Y003522D02*
X029332Y003522D01*
X029332Y003423D02*
X029272Y003423D01*
X029110Y003423D02*
X028496Y003423D01*
X028624Y003522D02*
X028980Y003522D01*
X028915Y003620D02*
X028689Y003620D01*
X028730Y003719D02*
X028881Y003719D01*
X028887Y003238D02*
X028716Y003238D01*
X028558Y003173D01*
X028437Y003052D01*
X028372Y002894D01*
X028372Y002723D01*
X028437Y002565D01*
X028558Y002444D01*
X028716Y002378D01*
X028887Y002378D01*
X029045Y002444D01*
X029166Y002565D01*
X029232Y002723D01*
X029232Y002894D01*
X029166Y003052D01*
X029045Y003173D01*
X028887Y003238D01*
X028916Y003226D02*
X030052Y003226D01*
X030052Y003128D02*
X029091Y003128D01*
X029176Y003029D02*
X030052Y003029D01*
X030052Y002931D02*
X029217Y002931D01*
X029232Y002832D02*
X030052Y002832D01*
X029974Y002734D02*
X029232Y002734D01*
X029195Y002635D02*
X029875Y002635D01*
X029777Y002536D02*
X029138Y002536D01*
X029031Y002438D02*
X029678Y002438D01*
X029579Y002339D02*
X023602Y002339D01*
X023598Y002438D02*
X024572Y002438D01*
X024558Y002444D02*
X024716Y002378D01*
X024887Y002378D01*
X025045Y002444D01*
X025166Y002565D01*
X025232Y002723D01*
X025232Y002894D01*
X025166Y003052D01*
X025045Y003173D01*
X024887Y003238D01*
X024716Y003238D01*
X024558Y003173D01*
X024437Y003052D01*
X024372Y002894D01*
X024372Y002723D01*
X024437Y002565D01*
X024558Y002444D01*
X024466Y002536D02*
X023557Y002536D01*
X023470Y002635D02*
X024408Y002635D01*
X024372Y002734D02*
X023452Y002734D01*
X023452Y002832D02*
X024372Y002832D01*
X024387Y002931D02*
X023452Y002931D01*
X023452Y003029D02*
X024428Y003029D01*
X024513Y003128D02*
X023452Y003128D01*
X023452Y003226D02*
X024687Y003226D01*
X024916Y003226D02*
X025687Y003226D01*
X025716Y003238D02*
X025558Y003173D01*
X025437Y003052D01*
X025372Y002894D01*
X025372Y002723D01*
X025437Y002565D01*
X025558Y002444D01*
X025716Y002378D01*
X025887Y002378D01*
X026045Y002444D01*
X026166Y002565D01*
X026232Y002723D01*
X026232Y002894D01*
X026166Y003052D01*
X026045Y003173D01*
X025887Y003238D01*
X025716Y003238D01*
X025916Y003226D02*
X026687Y003226D01*
X026716Y003238D02*
X026558Y003173D01*
X026437Y003052D01*
X026372Y002894D01*
X026372Y002723D01*
X026437Y002565D01*
X026558Y002444D01*
X026716Y002378D01*
X026887Y002378D01*
X027045Y002444D01*
X027166Y002565D01*
X027232Y002723D01*
X027232Y002894D01*
X027166Y003052D01*
X027045Y003173D01*
X026887Y003238D01*
X026716Y003238D01*
X026916Y003226D02*
X027687Y003226D01*
X027716Y003238D02*
X027558Y003173D01*
X027437Y003052D01*
X027372Y002894D01*
X027372Y002723D01*
X027437Y002565D01*
X027558Y002444D01*
X027716Y002378D01*
X027887Y002378D01*
X028045Y002444D01*
X028166Y002565D01*
X028232Y002723D01*
X028232Y002894D01*
X028166Y003052D01*
X028045Y003173D01*
X027887Y003238D01*
X027716Y003238D01*
X027916Y003226D02*
X028687Y003226D01*
X028513Y003128D02*
X028091Y003128D01*
X028176Y003029D02*
X028428Y003029D01*
X028387Y002931D02*
X028217Y002931D01*
X028232Y002832D02*
X028372Y002832D01*
X028372Y002734D02*
X028232Y002734D01*
X028195Y002635D02*
X028408Y002635D01*
X028466Y002536D02*
X028138Y002536D01*
X028031Y002438D02*
X028572Y002438D01*
X027810Y002142D02*
X029382Y002142D01*
X029481Y002241D02*
X023582Y002241D01*
X023531Y002142D02*
X027594Y002142D01*
X027442Y002044D02*
X023407Y002044D01*
X023097Y002044D02*
X020602Y002044D01*
X020602Y002092D02*
X020405Y002289D01*
X020285Y002409D01*
X020115Y002409D01*
X019957Y002251D01*
X019957Y002289D01*
X019837Y002409D01*
X019542Y002409D01*
X019372Y002409D01*
X019300Y002337D01*
X019282Y002319D01*
X019193Y002409D01*
X018898Y002409D01*
X018728Y002409D01*
X018728Y002409D01*
X018656Y002337D01*
X018629Y002310D01*
X018581Y002262D01*
X018509Y002190D01*
X018509Y002092D01*
X018509Y001922D01*
X018523Y001909D01*
X018509Y001895D01*
X018509Y001796D01*
X018509Y001627D01*
X018583Y001553D01*
X018629Y001507D01*
X018629Y001507D01*
X018654Y001482D01*
X018728Y001408D01*
X019193Y001408D01*
X019313Y001528D01*
X019313Y001665D01*
X019372Y001605D01*
X019547Y001605D01*
X019547Y001528D01*
X019667Y001408D01*
X019837Y001408D01*
X019878Y001449D01*
X019918Y001408D01*
X020088Y001408D01*
X020200Y001520D01*
X020312Y001408D01*
X020482Y001408D01*
X020602Y001528D01*
X020602Y001824D01*
X020602Y001993D01*
X020602Y002092D01*
X020551Y002142D02*
X022973Y002142D01*
X022922Y002241D02*
X020453Y002241D01*
X020354Y002339D02*
X022902Y002339D01*
X022906Y002438D02*
X015898Y002438D01*
X015902Y002339D02*
X016823Y002339D01*
X016772Y002289D02*
X016893Y002409D01*
X017062Y002409D01*
X017182Y002289D01*
X017182Y002289D01*
X017379Y002092D01*
X017379Y001922D01*
X017267Y001810D01*
X017300Y001778D01*
X017340Y001818D01*
X017417Y001818D01*
X017417Y002289D01*
X017537Y002409D01*
X017707Y002409D01*
X017827Y002289D01*
X018024Y002092D01*
X018024Y001922D01*
X017912Y001810D01*
X018024Y001698D01*
X018024Y001528D01*
X017904Y001408D01*
X017340Y001408D01*
X017300Y001449D01*
X017259Y001408D01*
X016696Y001408D01*
X016576Y001528D01*
X016576Y001698D01*
X016696Y001818D01*
X016772Y001818D01*
X016772Y002289D01*
X016772Y002241D02*
X015882Y002241D01*
X015831Y002142D02*
X016772Y002142D01*
X016772Y002044D02*
X015707Y002044D01*
X015397Y002044D02*
X010733Y002044D01*
X010733Y002142D02*
X010773Y002142D01*
X010649Y001945D02*
X016772Y001945D01*
X016772Y001847D02*
X010724Y001847D01*
X010733Y001748D02*
X016626Y001748D01*
X016576Y001650D02*
X010733Y001650D01*
X010733Y001551D02*
X016576Y001551D01*
X016651Y001452D02*
X010733Y001452D01*
X010733Y001354D02*
X031111Y001354D01*
X030958Y001452D02*
X020526Y001452D01*
X020602Y001551D02*
X027464Y001551D01*
X027389Y001650D02*
X020602Y001650D01*
X020602Y001748D02*
X027352Y001748D01*
X027352Y001847D02*
X020602Y001847D01*
X020602Y001945D02*
X027380Y001945D01*
X027572Y002438D02*
X027031Y002438D01*
X027138Y002536D02*
X027466Y002536D01*
X027408Y002635D02*
X027195Y002635D01*
X027232Y002734D02*
X027372Y002734D01*
X027372Y002832D02*
X027232Y002832D01*
X027217Y002931D02*
X027387Y002931D01*
X027428Y003029D02*
X027176Y003029D01*
X027091Y003128D02*
X027513Y003128D01*
X027496Y003423D02*
X028108Y003423D01*
X027980Y003522D02*
X027624Y003522D01*
X027689Y003620D02*
X027914Y003620D01*
X027873Y003719D02*
X027730Y003719D01*
X027732Y003817D02*
X027872Y003817D01*
X027881Y003916D02*
X027723Y003916D01*
X027682Y004015D02*
X027922Y004015D01*
X027999Y004113D02*
X027605Y004113D01*
X026999Y004113D02*
X026605Y004113D01*
X026682Y004015D02*
X026922Y004015D01*
X026881Y003916D02*
X026723Y003916D01*
X026732Y003817D02*
X026872Y003817D01*
X026873Y003719D02*
X026730Y003719D01*
X026689Y003620D02*
X026914Y003620D01*
X026980Y003522D02*
X026624Y003522D01*
X026496Y003423D02*
X027108Y003423D01*
X026513Y003128D02*
X026091Y003128D01*
X026176Y003029D02*
X026428Y003029D01*
X026387Y002931D02*
X026217Y002931D01*
X026232Y002832D02*
X026372Y002832D01*
X026372Y002734D02*
X026232Y002734D01*
X026195Y002635D02*
X026408Y002635D01*
X026466Y002536D02*
X026138Y002536D01*
X026031Y002438D02*
X026572Y002438D01*
X025572Y002438D02*
X025031Y002438D01*
X025138Y002536D02*
X025466Y002536D01*
X025408Y002635D02*
X025195Y002635D01*
X025232Y002734D02*
X025372Y002734D01*
X025372Y002832D02*
X025232Y002832D01*
X025217Y002931D02*
X025387Y002931D01*
X025428Y003029D02*
X025176Y003029D01*
X025091Y003128D02*
X025513Y003128D01*
X025496Y003423D02*
X026108Y003423D01*
X025980Y003522D02*
X025624Y003522D01*
X025689Y003620D02*
X025914Y003620D01*
X025873Y003719D02*
X025730Y003719D01*
X025732Y003817D02*
X025872Y003817D01*
X025881Y003916D02*
X025723Y003916D01*
X025682Y004015D02*
X025922Y004015D01*
X025999Y004113D02*
X025605Y004113D01*
X023052Y004113D02*
X023002Y004113D01*
X023052Y004015D02*
X011237Y004015D01*
X011252Y003916D02*
X023052Y003916D01*
X023052Y003817D02*
X011243Y003817D01*
X011202Y003719D02*
X011318Y003719D01*
X011240Y003620D02*
X011109Y003620D01*
X011202Y003522D02*
X010852Y003522D01*
X010852Y003423D02*
X011202Y003423D01*
X011228Y003325D02*
X010852Y003325D01*
X010803Y003226D02*
X010905Y003226D01*
X010776Y003128D02*
X010733Y003128D01*
X010652Y003358D02*
X010387Y003093D01*
X010387Y003058D01*
X010387Y002308D01*
X010387Y001558D01*
X010709Y001255D02*
X031264Y001255D01*
X030849Y001551D02*
X027940Y001551D01*
X029597Y001650D02*
X030764Y001650D01*
X030679Y001748D02*
X029695Y001748D01*
X029794Y001847D02*
X030593Y001847D01*
X030542Y001945D02*
X029892Y001945D01*
X029991Y002044D02*
X030497Y002044D01*
X030452Y002142D02*
X030089Y002142D01*
X030188Y002241D02*
X030407Y002241D01*
X030369Y002339D02*
X030286Y002339D01*
X030306Y003916D02*
X029719Y003916D01*
X029679Y004015D02*
X030405Y004015D01*
X030503Y004113D02*
X029605Y004113D01*
X032158Y005887D02*
X033302Y005887D01*
X033302Y005985D02*
X032337Y005985D01*
X032424Y006084D02*
X033302Y006084D01*
X033302Y006183D02*
X032465Y006183D01*
X032482Y006281D02*
X033302Y006281D01*
X033302Y006380D02*
X032482Y006380D01*
X032447Y006478D02*
X033302Y006478D01*
X033302Y006577D02*
X032391Y006577D01*
X032289Y006675D02*
X033302Y006675D01*
X033302Y006774D02*
X031482Y006774D01*
X031482Y006872D02*
X033302Y006872D01*
X033302Y006971D02*
X032323Y006971D01*
X032418Y007069D02*
X033302Y007069D01*
X033302Y007168D02*
X032459Y007168D01*
X032482Y007266D02*
X033302Y007266D01*
X033302Y007365D02*
X032482Y007365D01*
X032453Y007464D02*
X033302Y007464D01*
X033302Y007562D02*
X032406Y007562D01*
X032308Y007661D02*
X033302Y007661D01*
X033302Y007759D02*
X031752Y007759D01*
X031752Y007661D02*
X031796Y007661D01*
X031752Y007858D02*
X033302Y007858D01*
X033302Y007956D02*
X032308Y007956D01*
X032407Y008055D02*
X033302Y008055D01*
X033302Y008153D02*
X032453Y008153D01*
X032482Y008252D02*
X033302Y008252D01*
X033302Y008350D02*
X032482Y008350D01*
X032459Y008449D02*
X033302Y008449D01*
X033302Y008548D02*
X032418Y008548D01*
X032322Y008646D02*
X033302Y008646D01*
X033302Y008745D02*
X031752Y008745D01*
X031752Y008843D02*
X033302Y008843D01*
X033302Y008942D02*
X033280Y008942D01*
X032823Y008942D02*
X032291Y008942D01*
X032482Y009237D02*
X032702Y009237D01*
X032726Y009336D02*
X032482Y009336D01*
X032465Y009434D02*
X032783Y009434D01*
X032921Y009533D02*
X032424Y009533D01*
X032337Y009632D02*
X033302Y009632D01*
X033302Y009730D02*
X032157Y009730D01*
X032137Y009878D02*
X032295Y009944D01*
X032416Y010065D01*
X032482Y010223D01*
X033302Y010223D01*
X033302Y010321D02*
X032482Y010321D01*
X032482Y010394D02*
X032416Y010552D01*
X032295Y010673D01*
X032137Y010738D01*
X031966Y010738D01*
X031808Y010673D01*
X031687Y010552D01*
X031622Y010394D01*
X031622Y010223D01*
X031175Y010223D01*
X031153Y010389D02*
X031217Y010410D01*
X031277Y010441D01*
X031332Y010480D01*
X031380Y010528D01*
X031420Y010583D01*
X031450Y010643D01*
X031471Y010708D01*
X031482Y010774D01*
X031482Y010778D01*
X031082Y010778D01*
X031082Y010378D01*
X031086Y010378D01*
X031153Y010389D01*
X031082Y010420D02*
X031022Y010420D01*
X031022Y010378D02*
X031022Y010778D01*
X031082Y010778D01*
X031082Y010838D01*
X031482Y010838D01*
X031482Y010842D01*
X031471Y010909D01*
X031450Y010973D01*
X031420Y011034D01*
X031380Y011088D01*
X031332Y011136D01*
X031277Y011176D01*
X031217Y011207D01*
X031153Y011228D01*
X031086Y011238D01*
X031082Y011238D01*
X031082Y010839D01*
X031022Y010839D01*
X031022Y011238D01*
X031018Y011238D01*
X030951Y011228D01*
X030887Y011207D01*
X030826Y011176D01*
X030772Y011136D01*
X030724Y011088D01*
X030684Y011034D01*
X030653Y010973D01*
X030632Y010909D01*
X030622Y010842D01*
X030622Y010838D01*
X031022Y010838D01*
X031022Y010778D01*
X030622Y010778D01*
X030622Y010774D01*
X030632Y010708D01*
X030653Y010643D01*
X030684Y010583D01*
X030724Y010528D01*
X030772Y010480D01*
X030826Y010441D01*
X030887Y010410D01*
X030951Y010389D01*
X031018Y010378D01*
X031022Y010378D01*
X031022Y010518D02*
X031082Y010518D01*
X031082Y010617D02*
X031022Y010617D01*
X031022Y010716D02*
X031082Y010716D01*
X031082Y010814D02*
X033302Y010814D01*
X033302Y010716D02*
X032192Y010716D01*
X032351Y010617D02*
X033302Y010617D01*
X033302Y010518D02*
X032430Y010518D01*
X032471Y010420D02*
X033302Y010420D01*
X033302Y010124D02*
X032441Y010124D01*
X032482Y010223D02*
X032482Y010394D01*
X032377Y010026D02*
X033302Y010026D01*
X033302Y009927D02*
X032255Y009927D01*
X032137Y009878D02*
X031966Y009878D01*
X031808Y009944D01*
X031687Y010065D01*
X031622Y010223D01*
X031622Y010321D02*
X027331Y010321D01*
X027334Y010223D02*
X030929Y010223D01*
X030760Y010124D02*
X027528Y010124D01*
X027569Y010026D02*
X030677Y010026D01*
X030636Y009927D02*
X027569Y009927D01*
X027684Y009829D02*
X030622Y009829D01*
X030622Y009730D02*
X027746Y009730D01*
X027746Y009632D02*
X030230Y009632D01*
X030145Y009533D02*
X027995Y009533D01*
X028024Y009434D02*
X030105Y009434D01*
X030102Y009336D02*
X028024Y009336D01*
X027955Y009237D02*
X030123Y009237D01*
X030176Y009139D02*
X027845Y009139D01*
X027746Y009040D02*
X030305Y009040D01*
X030599Y009040D02*
X030683Y009040D01*
X030642Y008942D02*
X027647Y008942D01*
X026534Y009927D02*
X022351Y009927D01*
X022287Y009908D02*
X023202Y009908D01*
X023202Y011308D01*
X021916Y010814D02*
X031022Y010814D01*
X031022Y010913D02*
X031082Y010913D01*
X031082Y011011D02*
X031022Y011011D01*
X031022Y011110D02*
X031082Y011110D01*
X031082Y011208D02*
X031022Y011208D01*
X030891Y011208D02*
X021652Y011208D01*
X021652Y011110D02*
X030745Y011110D01*
X030673Y011011D02*
X021652Y011011D01*
X021842Y010913D02*
X030634Y010913D01*
X030631Y010716D02*
X021952Y010716D01*
X021952Y010617D02*
X030667Y010617D01*
X030734Y010518D02*
X021923Y010518D01*
X021858Y010420D02*
X027027Y010420D01*
X027232Y010420D02*
X030867Y010420D01*
X031237Y010420D02*
X031633Y010420D01*
X031674Y010518D02*
X031370Y010518D01*
X031437Y010617D02*
X031753Y010617D01*
X031912Y010716D02*
X031473Y010716D01*
X031470Y010913D02*
X033302Y010913D01*
X033302Y011011D02*
X031431Y011011D01*
X031359Y011110D02*
X033302Y011110D01*
X033302Y011208D02*
X031212Y011208D01*
X031344Y010124D02*
X031663Y010124D01*
X031726Y010026D02*
X031427Y010026D01*
X031468Y009927D02*
X031848Y009927D01*
X031947Y009730D02*
X031482Y009730D01*
X031482Y009829D02*
X033302Y009829D01*
X033302Y009533D02*
X033182Y009533D01*
X031767Y009632D02*
X031444Y009632D01*
X031410Y009533D02*
X031680Y009533D01*
X031639Y009434D02*
X031508Y009434D01*
X031607Y009336D02*
X031622Y009336D01*
X031552Y009108D02*
X031552Y007308D01*
X031052Y006808D01*
X031462Y006675D02*
X031814Y006675D01*
X031712Y006577D02*
X031421Y006577D01*
X031497Y006971D02*
X031781Y006971D01*
X031685Y007069D02*
X031596Y007069D01*
X031352Y007464D02*
X031315Y007464D01*
X031752Y007956D02*
X031796Y007956D01*
X031352Y008153D02*
X031315Y008153D01*
X031352Y008252D02*
X023452Y008252D01*
X023452Y008350D02*
X031352Y008350D01*
X031352Y008449D02*
X031301Y008449D01*
X031752Y008646D02*
X031782Y008646D01*
X031752Y008942D02*
X031813Y008942D01*
X031552Y009108D02*
X031302Y009358D01*
X030452Y009358D01*
X030727Y009139D02*
X030774Y009139D01*
X033302Y011307D02*
X021652Y011307D01*
X021652Y011405D02*
X033302Y011405D01*
X033302Y011504D02*
X021652Y011504D01*
X021652Y011602D02*
X033302Y011602D01*
X033302Y011701D02*
X021652Y011701D01*
X021738Y011799D02*
X033302Y011799D01*
X033302Y011898D02*
X021785Y011898D01*
X021802Y011997D02*
X033302Y011997D01*
X033302Y012095D02*
X021795Y012095D01*
X021754Y012194D02*
X033213Y012194D01*
X033114Y012292D02*
X021663Y012292D01*
X021452Y012391D02*
X031116Y012391D01*
X031017Y012489D02*
X021447Y012489D01*
X021406Y012588D02*
X030919Y012588D01*
X030820Y012686D02*
X021319Y012686D01*
X021452Y012008D02*
X021452Y010808D01*
X021602Y010658D01*
X022006Y010223D02*
X021045Y010223D01*
X021004Y010124D02*
X021955Y010124D01*
X021955Y010026D02*
X020914Y010026D01*
X020489Y010026D02*
X019902Y010026D01*
X019902Y010124D02*
X020399Y010124D01*
X020358Y010223D02*
X019954Y010223D01*
X019995Y010321D02*
X020352Y010321D01*
X020369Y010420D02*
X020002Y010420D01*
X019985Y010518D02*
X020417Y010518D01*
X020502Y010617D02*
X019938Y010617D01*
X019825Y010716D02*
X020502Y010716D01*
X020502Y010814D02*
X018302Y010814D01*
X018267Y010913D02*
X020502Y010913D01*
X020502Y011011D02*
X018194Y011011D01*
X017952Y010758D02*
X014902Y010758D01*
X014602Y011058D01*
X014351Y010814D02*
X014341Y010814D01*
X014102Y010558D02*
X014452Y010208D01*
X014752Y010208D01*
X014902Y010358D01*
X017252Y010358D01*
X017402Y010208D01*
X017616Y009927D02*
X018967Y009927D01*
X019074Y010026D02*
X017705Y010026D01*
X017746Y010124D02*
X018141Y010124D01*
X018352Y010408D02*
X017752Y010408D01*
X017602Y010558D01*
X014602Y010558D01*
X014169Y010208D02*
X014169Y010208D01*
X013997Y010223D02*
X013252Y010223D01*
X013234Y010321D02*
X013844Y010321D01*
X013780Y010420D02*
X013185Y010420D01*
X012558Y010124D02*
X006952Y010124D01*
X006952Y010026D02*
X012599Y010026D01*
X012688Y009927D02*
X006952Y009927D01*
X006855Y009829D02*
X012999Y009829D01*
X011452Y008843D02*
X015955Y008843D01*
X015955Y008745D02*
X011452Y008745D01*
X011452Y008646D02*
X015955Y008646D01*
X016000Y008548D02*
X011452Y008548D01*
X011452Y008449D02*
X015955Y008449D01*
X015955Y008350D02*
X011452Y008350D01*
X011452Y008252D02*
X016253Y008252D01*
X016351Y008252D02*
X017303Y008252D01*
X017305Y008256D02*
X017252Y008128D01*
X017252Y007989D01*
X017305Y007860D01*
X017404Y007762D01*
X017532Y007708D01*
X017671Y007708D01*
X017800Y007762D01*
X017899Y007860D01*
X017952Y007989D01*
X017952Y008128D01*
X017917Y008211D01*
X017996Y008211D01*
X018052Y008267D01*
X018078Y008241D01*
X018112Y008222D01*
X018150Y008211D01*
X018338Y008211D01*
X018338Y008510D01*
X018435Y008510D01*
X018435Y008607D01*
X018338Y008607D01*
X018338Y008905D01*
X018150Y008905D01*
X018112Y008895D01*
X018078Y008875D01*
X018052Y008849D01*
X017996Y008905D01*
X017439Y008905D01*
X017351Y008817D01*
X017351Y008302D01*
X017305Y008256D01*
X017351Y008350D02*
X016649Y008350D01*
X016649Y008449D02*
X017351Y008449D01*
X017351Y008548D02*
X016603Y008548D01*
X016649Y008153D02*
X017262Y008153D01*
X017252Y008055D02*
X016649Y008055D01*
X016640Y007956D02*
X017265Y007956D01*
X017307Y007858D02*
X016521Y007858D01*
X016350Y007858D02*
X016253Y007858D01*
X016253Y007956D02*
X016350Y007956D01*
X016350Y008055D02*
X016253Y008055D01*
X016253Y008153D02*
X016350Y008153D01*
X016083Y007858D02*
X011452Y007858D01*
X011452Y007956D02*
X015963Y007956D01*
X015955Y008055D02*
X011452Y008055D01*
X011452Y008153D02*
X015955Y008153D01*
X016035Y007168D02*
X011452Y007168D01*
X011452Y007266D02*
X019761Y007266D01*
X019785Y007168D02*
X016369Y007168D01*
X016486Y007069D02*
X019668Y007069D01*
X019952Y006858D02*
X016202Y006858D01*
X015852Y006872D02*
X011658Y006872D01*
X011781Y006774D02*
X015622Y006774D01*
X015542Y006675D02*
X011832Y006675D01*
X011852Y006577D02*
X015502Y006577D01*
X015260Y006478D02*
X011865Y006478D01*
X011952Y006380D02*
X015128Y006380D01*
X015074Y006281D02*
X011952Y006281D01*
X011952Y006183D02*
X015052Y006183D01*
X015054Y006084D02*
X011952Y006084D01*
X011952Y005985D02*
X015095Y005985D01*
X015178Y005887D02*
X011952Y005887D01*
X011952Y005788D02*
X015234Y005788D01*
X015088Y005690D02*
X012015Y005690D01*
X012076Y005591D02*
X015028Y005591D01*
X015002Y005493D02*
X012102Y005493D01*
X012102Y005394D02*
X015002Y005394D01*
X015040Y005296D02*
X012063Y005296D01*
X011986Y005197D02*
X015118Y005197D01*
X015586Y005197D02*
X017318Y005197D01*
X017699Y005000D02*
X002952Y005000D01*
X002952Y004901D02*
X017632Y004901D01*
X017602Y004803D02*
X002952Y004803D01*
X002952Y004704D02*
X017602Y004704D01*
X017636Y004606D02*
X002952Y004606D01*
X002952Y004507D02*
X004190Y004507D01*
X003854Y004409D02*
X002952Y004409D01*
X002952Y004310D02*
X003685Y004310D01*
X003532Y004212D02*
X002952Y004212D01*
X002952Y004113D02*
X003391Y004113D01*
X003305Y004015D02*
X002952Y004015D01*
X002952Y003916D02*
X003220Y003916D01*
X003134Y003817D02*
X002952Y003817D01*
X002952Y003719D02*
X003064Y003719D01*
X003019Y003620D02*
X002952Y003620D01*
X002952Y003522D02*
X002974Y003522D01*
X004914Y004507D02*
X017708Y004507D01*
X017863Y005296D02*
X018051Y005296D01*
X018143Y005394D02*
X017902Y005394D01*
X018105Y005493D02*
X018858Y005493D01*
X018852Y005394D02*
X018561Y005394D01*
X018653Y005296D02*
X018870Y005296D01*
X018899Y005591D02*
X018230Y005591D01*
X018282Y005690D02*
X018988Y005690D01*
X019202Y005408D02*
X019952Y005408D01*
X020302Y005758D01*
X020302Y007008D01*
X019302Y008008D01*
X019302Y008108D01*
X019057Y007858D02*
X017896Y007858D01*
X017938Y007956D02*
X018986Y007956D01*
X018952Y008055D02*
X017952Y008055D01*
X017941Y008153D02*
X018952Y008153D01*
X018983Y008252D02*
X018706Y008252D01*
X018695Y008241D02*
X018723Y008269D01*
X018743Y008304D01*
X018753Y008342D01*
X018753Y008510D01*
X018435Y008510D01*
X018435Y008211D01*
X018623Y008211D01*
X018661Y008222D01*
X018695Y008241D01*
X018753Y008350D02*
X019049Y008350D01*
X019210Y008449D02*
X018753Y008449D01*
X018753Y008607D02*
X018435Y008607D01*
X018435Y008905D01*
X018623Y008905D01*
X018661Y008895D01*
X018695Y008875D01*
X018723Y008847D01*
X018743Y008813D01*
X018753Y008775D01*
X018753Y008607D01*
X018753Y008646D02*
X019369Y008646D01*
X019291Y008745D02*
X018753Y008745D01*
X018725Y008843D02*
X019252Y008843D01*
X019252Y008942D02*
X017152Y008942D01*
X017152Y008843D02*
X017377Y008843D01*
X017351Y008745D02*
X017113Y008745D01*
X017035Y008646D02*
X017351Y008646D01*
X017126Y009040D02*
X019278Y009040D01*
X019337Y009139D02*
X017066Y009139D01*
X016922Y009237D02*
X018678Y009237D01*
X019126Y009237D02*
X019482Y009237D01*
X019722Y009237D02*
X019869Y009237D01*
X019866Y009139D02*
X019978Y009139D01*
X019771Y009336D02*
X019209Y009336D01*
X019250Y009434D02*
X019672Y009434D01*
X019574Y009533D02*
X019280Y009533D01*
X018761Y009829D02*
X017206Y009829D01*
X017119Y009730D02*
X018629Y009730D01*
X018563Y010124D02*
X019402Y010124D01*
X019350Y010223D02*
X018654Y010223D01*
X018695Y010321D02*
X019309Y010321D01*
X019302Y010420D02*
X018702Y010420D01*
X018685Y010518D02*
X019319Y010518D01*
X019366Y010617D02*
X018638Y010617D01*
X018525Y010716D02*
X019479Y010716D01*
X020502Y011110D02*
X016528Y011110D01*
X016641Y011208D02*
X020502Y011208D01*
X020702Y012008D02*
X020702Y010308D01*
X019902Y009927D02*
X022253Y009927D01*
X022253Y010026D02*
X022350Y010026D01*
X022350Y010124D02*
X022253Y010124D01*
X022253Y010223D02*
X022350Y010223D01*
X021955Y009829D02*
X019985Y009829D01*
X020084Y009730D02*
X021955Y009730D01*
X021580Y009632D02*
X020182Y009632D01*
X019602Y008908D02*
X021552Y008908D01*
X021752Y008708D01*
X022075Y008843D02*
X022552Y008843D01*
X022552Y008745D02*
X022102Y008745D01*
X022102Y008646D02*
X022590Y008646D01*
X022668Y008548D02*
X022064Y008548D01*
X021988Y008449D02*
X022810Y008449D01*
X022832Y008458D02*
X022869Y008458D01*
X022869Y008458D01*
X022832Y008458D01*
X022649Y008350D02*
X021951Y008350D01*
X021992Y008252D02*
X022583Y008252D01*
X022552Y008153D02*
X022002Y008153D01*
X021988Y008055D02*
X022552Y008055D01*
X022586Y007956D02*
X021945Y007956D01*
X021852Y007858D02*
X022657Y007858D01*
X022702Y007759D02*
X021852Y007759D01*
X021852Y007661D02*
X022702Y007661D01*
X022702Y007562D02*
X021852Y007562D01*
X021852Y007464D02*
X022702Y007464D01*
X022702Y007365D02*
X021852Y007365D01*
X021852Y007266D02*
X022702Y007266D01*
X022702Y007168D02*
X021852Y007168D01*
X021852Y007069D02*
X022702Y007069D01*
X022702Y006971D02*
X021852Y006971D01*
X021852Y006872D02*
X022702Y006872D01*
X022702Y006774D02*
X021852Y006774D01*
X021852Y006675D02*
X022702Y006675D01*
X022702Y006577D02*
X021852Y006577D01*
X021852Y006478D02*
X022702Y006478D01*
X022702Y006380D02*
X021852Y006380D01*
X021852Y006281D02*
X022702Y006281D01*
X022702Y006183D02*
X021852Y006183D01*
X021909Y006084D02*
X022702Y006084D01*
X022702Y005985D02*
X022220Y005985D01*
X022307Y005887D02*
X022702Y005887D01*
X022702Y005788D02*
X022348Y005788D01*
X022352Y005690D02*
X022702Y005690D01*
X022702Y005591D02*
X022332Y005591D01*
X022281Y005493D02*
X022702Y005493D01*
X022702Y005394D02*
X022158Y005394D01*
X021846Y005394D02*
X021558Y005394D01*
X021681Y005493D02*
X021722Y005493D01*
X022002Y005708D02*
X021652Y006058D01*
X021652Y008158D01*
X021102Y008158D02*
X021102Y006558D01*
X021402Y006258D01*
X021402Y005708D01*
X021071Y005591D02*
X020902Y005591D01*
X020902Y005493D02*
X021122Y005493D01*
X021246Y005394D02*
X020902Y005394D01*
X020902Y005296D02*
X022702Y005296D01*
X022702Y005197D02*
X020902Y005197D01*
X020825Y005099D02*
X022702Y005099D01*
X022702Y005000D02*
X020726Y005000D01*
X020628Y004901D02*
X022702Y004901D01*
X022702Y004803D02*
X020529Y004803D01*
X020902Y005690D02*
X021052Y005690D01*
X021052Y006058D02*
X020902Y006208D01*
X020902Y007358D01*
X020702Y007558D01*
X020702Y008558D01*
X020002Y008558D02*
X020002Y007608D01*
X019662Y007365D02*
X011452Y007365D01*
X011452Y007464D02*
X019564Y007464D01*
X019465Y007562D02*
X011452Y007562D01*
X011452Y007661D02*
X019367Y007661D01*
X019230Y007759D02*
X017794Y007759D01*
X017409Y007759D02*
X011452Y007759D01*
X010902Y008258D02*
X010752Y008408D01*
X010902Y008258D02*
X010902Y006758D01*
X010552Y006774D02*
X002952Y006774D01*
X002952Y006872D02*
X004851Y006872D01*
X004865Y006858D02*
X005238Y006858D01*
X005502Y007122D01*
X005502Y007495D01*
X005238Y007758D01*
X004865Y007758D01*
X004602Y007495D01*
X004602Y007122D01*
X004865Y006858D01*
X004753Y006971D02*
X002952Y006971D01*
X002952Y007069D02*
X004654Y007069D01*
X004602Y007168D02*
X002952Y007168D01*
X002952Y007266D02*
X004602Y007266D01*
X004602Y007365D02*
X002952Y007365D01*
X002952Y007464D02*
X004602Y007464D01*
X004669Y007562D02*
X002952Y007562D01*
X002952Y007661D02*
X004768Y007661D01*
X004865Y007858D02*
X005238Y007858D01*
X005502Y008122D01*
X005502Y008495D01*
X005238Y008758D01*
X004865Y008758D01*
X004602Y008495D01*
X004602Y008122D01*
X004865Y007858D01*
X004767Y007956D02*
X002952Y007956D01*
X002952Y007858D02*
X010702Y007858D01*
X010702Y007956D02*
X006336Y007956D01*
X006238Y007858D02*
X005865Y007858D01*
X005602Y008122D01*
X005602Y008495D01*
X005865Y008758D01*
X006238Y008758D01*
X006502Y008495D01*
X006502Y008122D01*
X006238Y007858D01*
X006238Y007758D02*
X005865Y007758D01*
X005602Y007495D01*
X005602Y007122D01*
X005865Y006858D01*
X006238Y006858D01*
X006502Y007122D01*
X006502Y007495D01*
X006238Y007758D01*
X006336Y007661D02*
X010702Y007661D01*
X010702Y007759D02*
X002952Y007759D01*
X002952Y008055D02*
X004669Y008055D01*
X004602Y008153D02*
X002952Y008153D01*
X002952Y008252D02*
X004602Y008252D01*
X004602Y008350D02*
X002952Y008350D01*
X002952Y008449D02*
X004602Y008449D01*
X004655Y008548D02*
X002952Y008548D01*
X002952Y008646D02*
X004753Y008646D01*
X004852Y008745D02*
X002952Y008745D01*
X002952Y008843D02*
X010752Y008843D01*
X010778Y008942D02*
X006322Y008942D01*
X006252Y008745D02*
X010649Y008745D01*
X010495Y008646D02*
X006350Y008646D01*
X006449Y008548D02*
X010431Y008548D01*
X010402Y008449D02*
X006502Y008449D01*
X006502Y008350D02*
X010402Y008350D01*
X010438Y008252D02*
X006502Y008252D01*
X006502Y008153D02*
X010512Y008153D01*
X010702Y008055D02*
X006435Y008055D01*
X006434Y007562D02*
X010702Y007562D01*
X010702Y007464D02*
X006502Y007464D01*
X006502Y007365D02*
X010702Y007365D01*
X010702Y007266D02*
X006502Y007266D01*
X006502Y007168D02*
X010702Y007168D01*
X010702Y007069D02*
X006449Y007069D01*
X006351Y006971D02*
X010620Y006971D01*
X010570Y006872D02*
X006252Y006872D01*
X005851Y006872D02*
X005252Y006872D01*
X005351Y006971D02*
X005753Y006971D01*
X005654Y007069D02*
X005449Y007069D01*
X005502Y007168D02*
X005602Y007168D01*
X005602Y007266D02*
X005502Y007266D01*
X005502Y007365D02*
X005602Y007365D01*
X005602Y007464D02*
X005502Y007464D01*
X005434Y007562D02*
X005669Y007562D01*
X005768Y007661D02*
X005336Y007661D01*
X005336Y007956D02*
X005767Y007956D01*
X005669Y008055D02*
X005435Y008055D01*
X005502Y008153D02*
X005602Y008153D01*
X005602Y008252D02*
X005502Y008252D01*
X005502Y008350D02*
X005602Y008350D01*
X005602Y008449D02*
X005502Y008449D01*
X005449Y008548D02*
X005655Y008548D01*
X005753Y008646D02*
X005350Y008646D01*
X005252Y008745D02*
X005852Y008745D01*
X005782Y008942D02*
X005322Y008942D01*
X005238Y008858D02*
X005502Y009122D01*
X005502Y009495D01*
X005238Y009758D01*
X004865Y009758D01*
X004602Y009495D01*
X004602Y009122D01*
X004865Y008858D01*
X005238Y008858D01*
X005420Y009040D02*
X005683Y009040D01*
X005602Y009139D02*
X005502Y009139D01*
X005502Y009237D02*
X005602Y009237D01*
X005602Y009336D02*
X005502Y009336D01*
X005502Y009434D02*
X005602Y009434D01*
X005640Y009533D02*
X005464Y009533D01*
X005365Y009632D02*
X005739Y009632D01*
X005837Y009730D02*
X005266Y009730D01*
X005238Y009858D02*
X004865Y009858D01*
X004602Y010122D01*
X004602Y010495D01*
X004865Y010758D01*
X005238Y010758D01*
X005502Y010495D01*
X005502Y010122D01*
X005238Y009858D01*
X005307Y009927D02*
X005797Y009927D01*
X005865Y009858D02*
X006238Y009858D01*
X006502Y010122D01*
X006502Y010495D01*
X006238Y010758D01*
X005865Y010758D01*
X005602Y010495D01*
X005602Y010122D01*
X005865Y009858D01*
X005698Y010026D02*
X005406Y010026D01*
X005502Y010124D02*
X005602Y010124D01*
X005602Y010223D02*
X005502Y010223D01*
X005502Y010321D02*
X005602Y010321D01*
X005602Y010420D02*
X005502Y010420D01*
X005478Y010518D02*
X005626Y010518D01*
X005724Y010617D02*
X005380Y010617D01*
X005281Y010716D02*
X005823Y010716D01*
X005865Y010858D02*
X006238Y010858D01*
X006502Y011122D01*
X006502Y011495D01*
X006238Y011758D01*
X005865Y011758D01*
X005602Y011495D01*
X005602Y011122D01*
X005865Y010858D01*
X005811Y010913D02*
X005293Y010913D01*
X005238Y010858D02*
X005092Y010858D01*
X005092Y011268D01*
X005012Y011268D01*
X005012Y010858D01*
X004865Y010858D01*
X004602Y011122D01*
X004602Y011268D01*
X005012Y011268D01*
X005012Y011348D01*
X004602Y011348D01*
X004602Y011495D01*
X004865Y011758D01*
X005012Y011758D01*
X005012Y011349D01*
X005092Y011349D01*
X005092Y011758D01*
X005238Y011758D01*
X005502Y011495D01*
X005502Y011348D01*
X005092Y011348D01*
X005092Y011268D01*
X005502Y011268D01*
X005502Y011122D01*
X005238Y010858D01*
X005092Y010913D02*
X005012Y010913D01*
X005012Y011011D02*
X005092Y011011D01*
X005092Y011110D02*
X005012Y011110D01*
X005012Y011208D02*
X005092Y011208D01*
X005092Y011307D02*
X005602Y011307D01*
X005602Y011405D02*
X005502Y011405D01*
X005493Y011504D02*
X005611Y011504D01*
X005710Y011602D02*
X005394Y011602D01*
X005296Y011701D02*
X005808Y011701D01*
X006296Y011701D02*
X006402Y011701D01*
X006402Y011799D02*
X002952Y011799D01*
X002952Y011701D02*
X004808Y011701D01*
X004710Y011602D02*
X002952Y011602D01*
X002952Y011504D02*
X004611Y011504D01*
X004602Y011405D02*
X002952Y011405D01*
X002952Y011307D02*
X005012Y011307D01*
X005012Y011405D02*
X005092Y011405D01*
X005092Y011504D02*
X005012Y011504D01*
X005012Y011602D02*
X005092Y011602D01*
X005092Y011701D02*
X005012Y011701D01*
X004602Y011208D02*
X002952Y011208D01*
X002952Y011110D02*
X004614Y011110D01*
X004713Y011011D02*
X002952Y011011D01*
X002952Y010913D02*
X004811Y010913D01*
X004823Y010716D02*
X002952Y010716D01*
X002952Y010814D02*
X006552Y010814D01*
X006552Y010716D02*
X006281Y010716D01*
X006380Y010617D02*
X006552Y010617D01*
X006552Y010518D02*
X006478Y010518D01*
X006502Y010420D02*
X006552Y010420D01*
X006552Y010321D02*
X006502Y010321D01*
X006502Y010223D02*
X006552Y010223D01*
X006552Y010124D02*
X006502Y010124D01*
X006486Y010026D02*
X006406Y010026D01*
X006388Y009927D02*
X006307Y009927D01*
X006289Y009829D02*
X002952Y009829D01*
X002952Y009927D02*
X004797Y009927D01*
X004698Y010026D02*
X002952Y010026D01*
X002952Y010124D02*
X004602Y010124D01*
X004602Y010223D02*
X002952Y010223D01*
X002952Y010321D02*
X004602Y010321D01*
X004602Y010420D02*
X002952Y010420D01*
X002952Y010518D02*
X004626Y010518D01*
X004724Y010617D02*
X002952Y010617D01*
X002952Y009730D02*
X004837Y009730D01*
X004739Y009632D02*
X002952Y009632D01*
X002952Y009533D02*
X004640Y009533D01*
X004602Y009434D02*
X002952Y009434D01*
X002952Y009336D02*
X004602Y009336D01*
X004602Y009237D02*
X002952Y009237D01*
X002952Y009139D02*
X004602Y009139D01*
X004683Y009040D02*
X002952Y009040D01*
X002952Y008942D02*
X004782Y008942D01*
X006052Y009308D02*
X006752Y010008D01*
X006752Y011758D01*
X007073Y011898D02*
X015955Y011898D01*
X015955Y011997D02*
X007009Y011997D01*
X006853Y012095D02*
X015955Y012095D01*
X015922Y012194D02*
X002952Y012194D01*
X002952Y012292D02*
X015902Y012292D01*
X015902Y012391D02*
X002952Y012391D01*
X002952Y012489D02*
X015902Y012489D01*
X015902Y012588D02*
X002952Y012588D01*
X002952Y012686D02*
X015902Y012686D01*
X015902Y012785D02*
X002952Y012785D01*
X002952Y012883D02*
X015902Y012883D01*
X015902Y012982D02*
X002952Y012982D01*
X002952Y013081D02*
X015902Y013081D01*
X015902Y013179D02*
X002952Y013179D01*
X002952Y013278D02*
X015902Y013278D01*
X015902Y013376D02*
X002952Y013376D01*
X002952Y013475D02*
X015902Y013475D01*
X015902Y013573D02*
X005678Y013573D01*
X005641Y013558D02*
X005807Y013627D01*
X005933Y013753D01*
X006002Y013919D01*
X006002Y014698D01*
X005933Y014863D01*
X005807Y014990D01*
X005641Y015058D01*
X005462Y015058D01*
X005297Y014990D01*
X005170Y014863D01*
X005102Y014698D01*
X005102Y013919D01*
X005170Y013753D01*
X005297Y013627D01*
X005462Y013558D01*
X005641Y013558D01*
X005426Y013573D02*
X004678Y013573D01*
X004641Y013558D02*
X004807Y013627D01*
X004933Y013753D01*
X005002Y013919D01*
X005002Y014698D01*
X004933Y014863D01*
X004807Y014990D01*
X004641Y015058D01*
X004462Y015058D01*
X004297Y014990D01*
X004170Y014863D01*
X004102Y014698D01*
X004102Y013919D01*
X004170Y013753D01*
X004297Y013627D01*
X004462Y013558D01*
X004641Y013558D01*
X004426Y013573D02*
X003678Y013573D01*
X003641Y013558D02*
X003807Y013627D01*
X003933Y013753D01*
X004002Y013919D01*
X004002Y014698D01*
X003933Y014863D01*
X003807Y014990D01*
X003641Y015058D01*
X003462Y015058D01*
X003297Y014990D01*
X003170Y014863D01*
X003102Y014698D01*
X003102Y013919D01*
X003170Y013753D01*
X003297Y013627D01*
X003462Y013558D01*
X003641Y013558D01*
X003426Y013573D02*
X002952Y013573D01*
X002952Y013672D02*
X003252Y013672D01*
X003163Y013770D02*
X002952Y013770D01*
X002952Y013869D02*
X003123Y013869D01*
X003102Y013967D02*
X002952Y013967D01*
X002952Y014066D02*
X003102Y014066D01*
X003102Y014165D02*
X002952Y014165D01*
X002952Y014263D02*
X003102Y014263D01*
X003102Y014362D02*
X002952Y014362D01*
X002952Y014460D02*
X003102Y014460D01*
X003102Y014559D02*
X002952Y014559D01*
X002952Y014657D02*
X003102Y014657D01*
X003126Y014756D02*
X002952Y014756D01*
X002952Y014854D02*
X003167Y014854D01*
X003260Y014953D02*
X002952Y014953D01*
X002952Y015051D02*
X003446Y015051D01*
X003658Y015051D02*
X004446Y015051D01*
X004260Y014953D02*
X003844Y014953D01*
X003937Y014854D02*
X004167Y014854D01*
X004126Y014756D02*
X003978Y014756D01*
X004002Y014657D02*
X004102Y014657D01*
X004102Y014559D02*
X004002Y014559D01*
X004002Y014460D02*
X004102Y014460D01*
X004102Y014362D02*
X004002Y014362D01*
X004002Y014263D02*
X004102Y014263D01*
X004102Y014165D02*
X004002Y014165D01*
X004002Y014066D02*
X004102Y014066D01*
X004102Y013967D02*
X004002Y013967D01*
X003981Y013869D02*
X004123Y013869D01*
X004163Y013770D02*
X003940Y013770D01*
X003852Y013672D02*
X004252Y013672D01*
X004852Y013672D02*
X005252Y013672D01*
X005163Y013770D02*
X004940Y013770D01*
X004981Y013869D02*
X005123Y013869D01*
X005102Y013967D02*
X005002Y013967D01*
X005002Y014066D02*
X005102Y014066D01*
X005102Y014165D02*
X005002Y014165D01*
X005002Y014263D02*
X005102Y014263D01*
X005102Y014362D02*
X005002Y014362D01*
X005002Y014460D02*
X005102Y014460D01*
X005102Y014559D02*
X005002Y014559D01*
X005002Y014657D02*
X005102Y014657D01*
X005126Y014756D02*
X004978Y014756D01*
X004937Y014854D02*
X005167Y014854D01*
X005260Y014953D02*
X004844Y014953D01*
X004658Y015051D02*
X005446Y015051D01*
X005658Y015051D02*
X016302Y015051D01*
X016302Y014953D02*
X005844Y014953D01*
X005937Y014854D02*
X016302Y014854D01*
X016302Y014756D02*
X005978Y014756D01*
X006002Y014657D02*
X016302Y014657D01*
X016302Y014559D02*
X006002Y014559D01*
X006002Y014460D02*
X016302Y014460D01*
X016302Y014362D02*
X006002Y014362D01*
X006002Y014263D02*
X015912Y014263D01*
X015838Y014165D02*
X006002Y014165D01*
X006002Y014066D02*
X015802Y014066D01*
X015802Y013967D02*
X006002Y013967D01*
X005981Y013869D02*
X015831Y013869D01*
X015895Y013770D02*
X005940Y013770D01*
X005852Y013672D02*
X015902Y013672D01*
X016702Y013058D02*
X017452Y012308D01*
X017902Y012308D01*
X018252Y012308D02*
X018371Y012308D01*
X018252Y012308D01*
X018252Y012308D01*
X018302Y011958D02*
X017502Y011958D01*
X016502Y012958D01*
X016502Y016258D01*
X016952Y016708D01*
X017802Y016708D01*
X018052Y016958D01*
X018052Y017558D01*
X018802Y018308D01*
X019052Y018308D01*
X019482Y018303D02*
X019514Y018303D01*
X019479Y018402D02*
X019613Y018402D01*
X019666Y018500D02*
X019438Y018500D01*
X019369Y018599D02*
X019735Y018599D01*
X019868Y018698D02*
X019236Y018698D01*
X019306Y018993D02*
X026248Y018993D01*
X026123Y019092D02*
X019430Y019092D01*
X019482Y019190D02*
X026072Y019190D01*
X026052Y019289D02*
X019502Y019289D01*
X019498Y019387D02*
X026056Y019387D01*
X026097Y019486D02*
X019457Y019486D01*
X018847Y019486D02*
X012207Y019486D01*
X012248Y019387D02*
X018806Y019387D01*
X018802Y019289D02*
X012252Y019289D01*
X012232Y019190D02*
X018822Y019190D01*
X018873Y019092D02*
X012180Y019092D01*
X012056Y018993D02*
X018998Y018993D01*
X018868Y018698D02*
X018236Y018698D01*
X018369Y018599D02*
X018735Y018599D01*
X018666Y018500D02*
X018438Y018500D01*
X018479Y018402D02*
X018613Y018402D01*
X018514Y018303D02*
X018482Y018303D01*
X018021Y017811D02*
X014337Y017811D01*
X014387Y017738D02*
X014265Y017738D01*
X014514Y017988D01*
X014558Y017944D01*
X014716Y017878D01*
X014887Y017878D01*
X015045Y017944D01*
X015166Y018065D01*
X015232Y018223D01*
X015232Y018394D01*
X015166Y018552D01*
X015045Y018673D01*
X014887Y018738D01*
X014716Y018738D01*
X014558Y018673D01*
X014437Y018552D01*
X014384Y018423D01*
X014232Y018271D01*
X014232Y018394D01*
X014166Y018552D01*
X014045Y018673D01*
X013887Y018738D01*
X013716Y018738D01*
X013558Y018673D01*
X013437Y018552D01*
X013384Y018423D01*
X013232Y018271D01*
X013232Y018394D01*
X013166Y018552D01*
X013045Y018673D01*
X012887Y018738D01*
X012716Y018738D01*
X012558Y018673D01*
X012437Y018552D01*
X012384Y018423D01*
X012232Y018271D01*
X012232Y018394D01*
X012166Y018552D01*
X012045Y018673D01*
X011887Y018738D01*
X011716Y018738D01*
X011558Y018673D01*
X011437Y018552D01*
X011384Y018423D01*
X011232Y018271D01*
X011232Y018394D01*
X011166Y018552D01*
X011045Y018673D01*
X010887Y018738D01*
X010716Y018738D01*
X010558Y018673D01*
X010437Y018552D01*
X010372Y018394D01*
X010372Y018223D01*
X010437Y018065D01*
X010558Y017944D01*
X010716Y017878D01*
X010839Y017878D01*
X010719Y017758D01*
X010602Y017641D01*
X010602Y017616D01*
X010582Y017636D01*
X010527Y017676D01*
X010467Y017707D01*
X010403Y017728D01*
X010336Y017738D01*
X010332Y017738D01*
X010332Y017339D01*
X010272Y017339D01*
X010272Y017738D01*
X010268Y017738D01*
X010201Y017728D01*
X010137Y017707D01*
X010076Y017676D01*
X010022Y017636D01*
X009974Y017588D01*
X009934Y017534D01*
X009903Y017473D01*
X009882Y017409D01*
X009872Y017342D01*
X009872Y017338D01*
X010272Y017338D01*
X010272Y017278D01*
X010332Y017278D01*
X010332Y016878D01*
X010336Y016878D01*
X010403Y016889D01*
X010467Y016910D01*
X010527Y016941D01*
X010582Y016980D01*
X010602Y017000D01*
X010602Y016791D01*
X010602Y016625D01*
X011252Y015975D01*
X011347Y015881D01*
X011355Y015860D01*
X011454Y015762D01*
X011582Y015708D01*
X011652Y015708D01*
X011652Y015639D01*
X011705Y015510D01*
X011804Y015412D01*
X011932Y015358D01*
X012071Y015358D01*
X012200Y015412D01*
X012299Y015510D01*
X012352Y015639D01*
X012405Y015510D01*
X012504Y015412D01*
X012632Y015358D01*
X012771Y015358D01*
X012900Y015412D01*
X012999Y015510D01*
X013052Y015639D01*
X013052Y015778D01*
X012999Y015906D01*
X012991Y015914D01*
X014002Y016925D01*
X014002Y017000D01*
X014058Y016944D01*
X014216Y016878D01*
X014387Y016878D01*
X014545Y016944D01*
X014666Y017065D01*
X014732Y017223D01*
X014732Y017394D01*
X014666Y017552D01*
X014545Y017673D01*
X014387Y017738D01*
X014451Y017712D02*
X017403Y017712D01*
X017522Y017712D02*
X017582Y017712D01*
X017582Y017614D02*
X017522Y017614D01*
X017522Y017515D02*
X017582Y017515D01*
X017582Y017416D02*
X017522Y017416D01*
X017522Y017318D02*
X014732Y017318D01*
X014730Y017219D02*
X017131Y017219D01*
X017165Y017121D02*
X014690Y017121D01*
X014624Y017022D02*
X017230Y017022D01*
X017359Y016924D02*
X014497Y016924D01*
X014107Y016924D02*
X014000Y016924D01*
X013902Y016825D02*
X016786Y016825D01*
X016687Y016727D02*
X013803Y016727D01*
X013705Y016628D02*
X016589Y016628D01*
X016490Y016530D02*
X013606Y016530D01*
X013507Y016431D02*
X016392Y016431D01*
X016302Y016332D02*
X013409Y016332D01*
X013310Y016234D02*
X016302Y016234D01*
X016302Y016135D02*
X013212Y016135D01*
X013113Y016037D02*
X016302Y016037D01*
X016302Y015938D02*
X013015Y015938D01*
X013026Y015840D02*
X016302Y015840D01*
X016302Y015741D02*
X013052Y015741D01*
X013052Y015643D02*
X016302Y015643D01*
X016302Y015544D02*
X013013Y015544D01*
X012934Y015446D02*
X016302Y015446D01*
X016302Y015347D02*
X002952Y015347D01*
X002952Y015249D02*
X016302Y015249D01*
X016302Y015150D02*
X002952Y015150D01*
X002952Y015446D02*
X011770Y015446D01*
X011691Y015544D02*
X005308Y015544D01*
X005504Y015643D02*
X011652Y015643D01*
X011503Y015741D02*
X005602Y015741D01*
X005655Y015840D02*
X011375Y015840D01*
X011289Y015938D02*
X005695Y015938D01*
X005702Y016037D02*
X011190Y016037D01*
X011092Y016135D02*
X005702Y016135D01*
X005672Y016234D02*
X010993Y016234D01*
X010895Y016332D02*
X005632Y016332D01*
X005547Y016431D02*
X010796Y016431D01*
X010698Y016530D02*
X005411Y016530D01*
X005281Y017033D02*
X005474Y017113D01*
X005622Y017261D01*
X005702Y017454D01*
X005702Y017663D01*
X005622Y017856D01*
X005474Y018003D01*
X005281Y018083D01*
X004322Y018083D01*
X004129Y018003D01*
X003982Y017856D01*
X003902Y017663D01*
X003902Y017454D01*
X003982Y017261D01*
X004129Y017113D01*
X004322Y017033D01*
X005281Y017033D01*
X005482Y017121D02*
X009915Y017121D01*
X009903Y017143D02*
X009934Y017083D01*
X009974Y017028D01*
X010022Y016980D01*
X010076Y016941D01*
X010137Y016910D01*
X010201Y016889D01*
X010268Y016878D01*
X010272Y016878D01*
X010272Y017278D01*
X009872Y017278D01*
X009872Y017274D01*
X009882Y017208D01*
X009903Y017143D01*
X009881Y017219D02*
X005580Y017219D01*
X005646Y017318D02*
X010272Y017318D01*
X010272Y017416D02*
X010332Y017416D01*
X010332Y017515D02*
X010272Y017515D01*
X010272Y017614D02*
X010332Y017614D01*
X010332Y017712D02*
X010272Y017712D01*
X010153Y017712D02*
X005681Y017712D01*
X005702Y017614D02*
X009999Y017614D01*
X009925Y017515D02*
X005702Y017515D01*
X005686Y017416D02*
X009885Y017416D01*
X010272Y017219D02*
X010332Y017219D01*
X010332Y017121D02*
X010272Y017121D01*
X010272Y017022D02*
X010332Y017022D01*
X010332Y016924D02*
X010272Y016924D01*
X010109Y016924D02*
X003502Y016924D01*
X003502Y017022D02*
X009980Y017022D01*
X010494Y016924D02*
X010602Y016924D01*
X010602Y016825D02*
X003502Y016825D01*
X003502Y016727D02*
X010602Y016727D01*
X010602Y016628D02*
X003536Y016628D01*
X003634Y016530D02*
X004193Y016530D01*
X004057Y016431D02*
X003733Y016431D01*
X003831Y016332D02*
X003972Y016332D01*
X003518Y015938D02*
X002952Y015938D01*
X002952Y015840D02*
X003626Y015840D01*
X003420Y016037D02*
X002952Y016037D01*
X002952Y016135D02*
X003321Y016135D01*
X003223Y016234D02*
X002952Y016234D01*
X002952Y016332D02*
X003124Y016332D01*
X003034Y016431D02*
X002952Y016431D01*
X002952Y016530D02*
X003002Y016530D01*
X003002Y016628D02*
X002952Y016628D01*
X002952Y016727D02*
X003002Y016727D01*
X003002Y016825D02*
X002952Y016825D01*
X002952Y016924D02*
X003002Y016924D01*
X003002Y017022D02*
X002952Y017022D01*
X002952Y017121D02*
X003002Y017121D01*
X003002Y017219D02*
X002952Y017219D01*
X002952Y017318D02*
X003002Y017318D01*
X003002Y017416D02*
X002952Y017416D01*
X002952Y017515D02*
X003002Y017515D01*
X003002Y017614D02*
X002952Y017614D01*
X002952Y017712D02*
X003002Y017712D01*
X003002Y017811D02*
X002952Y017811D01*
X002952Y017909D02*
X003002Y017909D01*
X003002Y018008D02*
X002952Y018008D01*
X002952Y018106D02*
X003002Y018106D01*
X003002Y018205D02*
X002952Y018205D01*
X002952Y018303D02*
X003002Y018303D01*
X003002Y018402D02*
X002952Y018402D01*
X002952Y018500D02*
X003002Y018500D01*
X003002Y018599D02*
X002952Y018599D01*
X002952Y018698D02*
X003002Y018698D01*
X003002Y018796D02*
X002952Y018796D01*
X002952Y018895D02*
X003002Y018895D01*
X003002Y018993D02*
X002952Y018993D01*
X002952Y019092D02*
X003002Y019092D01*
X003002Y019190D02*
X002952Y019190D01*
X002952Y019289D02*
X003035Y019289D01*
X002952Y019387D02*
X003127Y019387D01*
X003226Y019486D02*
X002952Y019486D01*
X002952Y019584D02*
X003325Y019584D01*
X003423Y019683D02*
X002952Y019683D01*
X002952Y019781D02*
X003522Y019781D01*
X003620Y019880D02*
X002952Y019880D01*
X003736Y019289D02*
X003955Y019289D01*
X003918Y019190D02*
X003637Y019190D01*
X003539Y019092D02*
X004752Y019092D01*
X004752Y018993D02*
X004852Y018993D01*
X004852Y018895D02*
X004752Y018895D01*
X004752Y018796D02*
X004852Y018796D01*
X004852Y018698D02*
X004752Y018698D01*
X004752Y018599D02*
X004852Y018599D01*
X005432Y018599D02*
X010485Y018599D01*
X010416Y018500D02*
X003502Y018500D01*
X003502Y018402D02*
X010375Y018402D01*
X010372Y018303D02*
X003502Y018303D01*
X003502Y018205D02*
X010379Y018205D01*
X010420Y018106D02*
X003502Y018106D01*
X003502Y018008D02*
X004140Y018008D01*
X004035Y017909D02*
X003502Y017909D01*
X003502Y017811D02*
X003963Y017811D01*
X003922Y017712D02*
X003502Y017712D01*
X003502Y017614D02*
X003902Y017614D01*
X003902Y017515D02*
X003502Y017515D01*
X003502Y017416D02*
X003917Y017416D01*
X003958Y017318D02*
X003502Y017318D01*
X003502Y017219D02*
X004023Y017219D01*
X004122Y017121D02*
X003502Y017121D01*
X004001Y015741D02*
X002952Y015741D01*
X002952Y015643D02*
X004100Y015643D01*
X004296Y015544D02*
X002952Y015544D01*
X005641Y017811D02*
X010771Y017811D01*
X010719Y017758D02*
X010719Y017758D01*
X010673Y017712D02*
X010450Y017712D01*
X010642Y017909D02*
X005568Y017909D01*
X005464Y018008D02*
X010494Y018008D01*
X011188Y018500D02*
X011416Y018500D01*
X011363Y018402D02*
X011229Y018402D01*
X011232Y018303D02*
X011264Y018303D01*
X011552Y018308D02*
X010802Y017558D01*
X010802Y016708D01*
X011452Y016058D01*
X011652Y016058D01*
X012002Y016208D02*
X012002Y015708D01*
X012352Y015708D02*
X012352Y015639D01*
X012352Y015708D01*
X012352Y015708D01*
X012352Y015643D02*
X012352Y015643D01*
X012313Y015544D02*
X012391Y015544D01*
X012470Y015446D02*
X012234Y015446D01*
X012702Y015708D02*
X012702Y015908D01*
X013802Y017008D01*
X013802Y017558D01*
X014552Y018308D01*
X014802Y018308D01*
X015109Y018008D02*
X017744Y018008D01*
X017670Y018106D02*
X015184Y018106D01*
X015224Y018205D02*
X017629Y018205D01*
X017622Y018303D02*
X015232Y018303D01*
X015229Y018402D02*
X017625Y018402D01*
X017666Y018500D02*
X015188Y018500D01*
X015119Y018599D02*
X017735Y018599D01*
X017868Y018698D02*
X014986Y018698D01*
X014618Y018698D02*
X013986Y018698D01*
X014119Y018599D02*
X014485Y018599D01*
X014416Y018500D02*
X014188Y018500D01*
X014229Y018402D02*
X014363Y018402D01*
X014264Y018303D02*
X014232Y018303D01*
X013802Y018308D02*
X013552Y018308D01*
X012802Y017558D01*
X012802Y017008D01*
X012352Y016558D01*
X012352Y016058D01*
X012002Y016208D02*
X011802Y016408D01*
X011802Y017558D01*
X012552Y018308D01*
X012802Y018308D01*
X013232Y018303D02*
X013264Y018303D01*
X013229Y018402D02*
X013363Y018402D01*
X013416Y018500D02*
X013188Y018500D01*
X013119Y018599D02*
X013485Y018599D01*
X013618Y018698D02*
X012986Y018698D01*
X012618Y018698D02*
X011986Y018698D01*
X012119Y018599D02*
X012485Y018599D01*
X012416Y018500D02*
X012188Y018500D01*
X012229Y018402D02*
X012363Y018402D01*
X012264Y018303D02*
X012232Y018303D01*
X011802Y018308D02*
X011552Y018308D01*
X011485Y018599D02*
X011119Y018599D01*
X010986Y018698D02*
X011618Y018698D01*
X011748Y018993D02*
X005698Y018993D01*
X005676Y018895D02*
X030052Y018895D01*
X030052Y018796D02*
X005632Y018796D01*
X005559Y018698D02*
X010618Y018698D01*
X011572Y019190D02*
X005686Y019190D01*
X005649Y019289D02*
X011552Y019289D01*
X011556Y019387D02*
X005587Y019387D01*
X005481Y019486D02*
X011597Y019486D01*
X011623Y019092D02*
X004852Y019092D01*
X004122Y019486D02*
X003933Y019486D01*
X004017Y019387D02*
X003834Y019387D01*
X003906Y018993D02*
X003502Y018993D01*
X003502Y018895D02*
X003928Y018895D01*
X003971Y018796D02*
X003502Y018796D01*
X003502Y018698D02*
X004045Y018698D01*
X004172Y018599D02*
X003502Y018599D01*
X002952Y012095D02*
X006651Y012095D01*
X006495Y011997D02*
X002952Y011997D01*
X002952Y011898D02*
X006431Y011898D01*
X006438Y011602D02*
X006394Y011602D01*
X006493Y011504D02*
X006511Y011504D01*
X006502Y011405D02*
X006552Y011405D01*
X006552Y011307D02*
X006502Y011307D01*
X006502Y011208D02*
X006552Y011208D01*
X006552Y011110D02*
X006490Y011110D01*
X006552Y011011D02*
X006391Y011011D01*
X006293Y010913D02*
X006552Y010913D01*
X005713Y011011D02*
X005391Y011011D01*
X005490Y011110D02*
X005614Y011110D01*
X005602Y011208D02*
X005502Y011208D01*
X007066Y011602D02*
X015955Y011602D01*
X015955Y011701D02*
X007102Y011701D01*
X007102Y011799D02*
X016002Y011799D01*
X016601Y011799D02*
X016633Y011799D01*
X016649Y011701D02*
X017006Y011701D01*
X017104Y011602D02*
X016649Y011602D01*
X016350Y011405D02*
X016253Y011405D01*
X016253Y011307D02*
X016350Y011307D01*
X016350Y011208D02*
X016253Y011208D01*
X016253Y011110D02*
X016350Y011110D01*
X016076Y011110D02*
X014952Y011110D01*
X014952Y011011D02*
X017710Y011011D01*
X016752Y010158D02*
X016902Y010008D01*
X016682Y009237D02*
X016583Y009237D01*
X018036Y008252D02*
X018067Y008252D01*
X018338Y008252D02*
X018435Y008252D01*
X018435Y008350D02*
X018338Y008350D01*
X018338Y008449D02*
X018435Y008449D01*
X018435Y008548D02*
X019652Y008548D01*
X019668Y008449D02*
X019394Y008449D01*
X019555Y008350D02*
X019715Y008350D01*
X019802Y008252D02*
X019621Y008252D01*
X018435Y008646D02*
X018338Y008646D01*
X018338Y008745D02*
X018435Y008745D01*
X018435Y008843D02*
X018338Y008843D01*
X015918Y007069D02*
X011452Y007069D01*
X011452Y006971D02*
X015870Y006971D01*
X015852Y006508D02*
X019752Y006508D01*
X019902Y006358D01*
X019552Y006158D02*
X019852Y005858D01*
X019502Y005887D02*
X018298Y005887D01*
X018302Y005788D02*
X019502Y005788D01*
X019543Y005690D02*
X019415Y005690D01*
X019552Y006158D02*
X015402Y006158D01*
X015802Y005808D02*
X017952Y005808D01*
X017552Y005458D02*
X015352Y005458D01*
X014283Y003522D02*
X023052Y003522D01*
X023052Y003620D02*
X011864Y003620D01*
X011902Y003522D02*
X013821Y003522D01*
X013741Y003423D02*
X011902Y003423D01*
X011968Y003325D02*
X013702Y003325D01*
X013702Y003226D02*
X012067Y003226D01*
X012165Y003128D02*
X013638Y003128D01*
X013540Y003029D02*
X012264Y003029D01*
X012202Y002808D02*
X013602Y002808D01*
X014052Y003258D01*
X014377Y003128D02*
X023052Y003128D01*
X023052Y003226D02*
X014402Y003226D01*
X014402Y003325D02*
X023052Y003325D01*
X023052Y003423D02*
X014362Y003423D01*
X014318Y003029D02*
X014978Y003029D01*
X015202Y002758D02*
X013952Y002758D01*
X013802Y002608D01*
X011352Y002608D01*
X011052Y002908D01*
X011381Y003029D02*
X011698Y003029D01*
X011797Y002931D02*
X011402Y002931D01*
X011411Y002832D02*
X011895Y002832D01*
X012202Y002808D02*
X011552Y003458D01*
X011786Y003719D02*
X023052Y003719D01*
X022602Y004113D02*
X011192Y004113D01*
X010902Y003908D02*
X010652Y003658D01*
X010652Y003358D01*
X011199Y003226D02*
X011289Y003226D01*
X011327Y003128D02*
X011435Y003128D01*
X011002Y002408D02*
X011052Y002358D01*
X015552Y002358D01*
X015770Y002635D02*
X023034Y002635D01*
X023052Y002734D02*
X015552Y002734D01*
X015550Y002832D02*
X023052Y002832D01*
X023052Y002931D02*
X015509Y002931D01*
X015426Y003029D02*
X023052Y003029D01*
X022947Y002536D02*
X015857Y002536D01*
X015273Y002142D02*
X011231Y002142D01*
X009717Y002308D02*
X009702Y002308D01*
X009452Y002058D01*
X007552Y002058D01*
X007052Y001558D01*
X008052Y001558D02*
X009717Y001558D01*
X009252Y004408D02*
X009102Y004408D01*
X009252Y004408D02*
X009502Y004658D01*
X010552Y005408D02*
X010552Y007708D01*
X010402Y007858D01*
X010402Y008808D01*
X010557Y006675D02*
X002952Y006675D01*
X002952Y006577D02*
X010598Y006577D01*
X010687Y006478D02*
X002952Y006478D01*
X002952Y006380D02*
X011197Y006380D01*
X011156Y006478D02*
X011117Y006478D01*
X011284Y006281D02*
X002952Y006281D01*
X011752Y006308D02*
X011752Y005458D01*
X017132Y002339D02*
X017468Y002339D01*
X017417Y002241D02*
X017230Y002241D01*
X017329Y002142D02*
X017417Y002142D01*
X017417Y002044D02*
X017379Y002044D01*
X017379Y001945D02*
X017417Y001945D01*
X017417Y001847D02*
X017304Y001847D01*
X017948Y001847D02*
X018509Y001847D01*
X018509Y001945D02*
X018024Y001945D01*
X018024Y002044D02*
X018509Y002044D01*
X018509Y002142D02*
X017973Y002142D01*
X017875Y002241D02*
X018560Y002241D01*
X018509Y002190D02*
X018509Y002190D01*
X018629Y002310D02*
X018629Y002310D01*
X018658Y002339D02*
X017776Y002339D01*
X017974Y001748D02*
X018509Y001748D01*
X018509Y001650D02*
X018024Y001650D01*
X018024Y001551D02*
X018585Y001551D01*
X018684Y001452D02*
X017948Y001452D01*
X019237Y001452D02*
X019623Y001452D01*
X019547Y001551D02*
X019313Y001551D01*
X019313Y001650D02*
X019328Y001650D01*
X020132Y001452D02*
X020268Y001452D01*
X020046Y002339D02*
X019907Y002339D01*
X019372Y002409D02*
X019372Y002409D01*
X019303Y002339D02*
X019262Y002339D01*
X022802Y004408D02*
X022902Y004508D01*
X022902Y008108D01*
X023252Y008358D02*
X023252Y002358D01*
X023252Y008358D02*
X022902Y008708D01*
X022902Y008808D01*
X022785Y009139D02*
X022649Y009139D01*
X023202Y009258D02*
X023202Y009908D01*
X021557Y009108D02*
X021557Y009108D01*
X015963Y011208D02*
X014919Y011208D01*
X014848Y011307D02*
X015955Y011307D01*
X015955Y011405D02*
X014679Y011405D01*
X016702Y013058D02*
X016702Y016158D01*
X017052Y016508D01*
X018502Y016508D01*
X019052Y017058D01*
X019052Y017558D01*
X019802Y018308D01*
X020052Y018308D01*
X020482Y018303D02*
X020514Y018303D01*
X020479Y018402D02*
X020613Y018402D01*
X020666Y018500D02*
X020438Y018500D01*
X020369Y018599D02*
X020735Y018599D01*
X020868Y018698D02*
X020236Y018698D01*
X020802Y018308D02*
X020052Y017558D01*
X020052Y017058D01*
X019802Y016808D01*
X019102Y016808D01*
X018602Y016308D01*
X017152Y016308D01*
X016902Y016058D01*
X016902Y013158D01*
X017402Y012658D01*
X018302Y012658D01*
X018628Y012785D02*
X030722Y012785D01*
X030623Y012883D02*
X018572Y012883D01*
X018435Y012982D02*
X030525Y012982D01*
X030426Y013081D02*
X018251Y013081D01*
X018210Y013179D02*
X030328Y013179D01*
X030229Y013278D02*
X018127Y013278D01*
X017902Y013008D02*
X017352Y013008D01*
X017102Y013258D01*
X017102Y015958D01*
X017252Y016108D01*
X018702Y016108D01*
X019202Y016608D01*
X020602Y016608D01*
X021052Y017058D01*
X021052Y017558D01*
X021802Y018308D01*
X022052Y018308D01*
X022359Y018008D02*
X024994Y018008D01*
X024937Y018065D02*
X025058Y017944D01*
X025216Y017878D01*
X025387Y017878D01*
X025545Y017944D01*
X025666Y018065D01*
X025732Y018223D01*
X025732Y018394D01*
X025666Y018552D01*
X025545Y018673D01*
X025387Y018738D01*
X025216Y018738D01*
X025058Y018673D01*
X024937Y018552D01*
X024872Y018394D01*
X024872Y018223D01*
X024937Y018065D01*
X024920Y018106D02*
X022434Y018106D01*
X022474Y018205D02*
X024879Y018205D01*
X024872Y018303D02*
X022482Y018303D01*
X022479Y018402D02*
X024875Y018402D01*
X024916Y018500D02*
X022438Y018500D01*
X022369Y018599D02*
X024985Y018599D01*
X025118Y018698D02*
X022236Y018698D01*
X021868Y018698D02*
X021236Y018698D01*
X021369Y018599D02*
X021735Y018599D01*
X021666Y018500D02*
X021438Y018500D01*
X021479Y018402D02*
X021613Y018402D01*
X021514Y018303D02*
X021482Y018303D01*
X021052Y018308D02*
X020802Y018308D01*
X021587Y017811D02*
X030052Y017811D01*
X030052Y017909D02*
X029462Y017909D01*
X029387Y017878D02*
X029545Y017944D01*
X029666Y018065D01*
X029732Y018223D01*
X029732Y018394D01*
X029666Y018552D01*
X029545Y018673D01*
X029387Y018738D01*
X029216Y018738D01*
X029058Y018673D01*
X028937Y018552D01*
X028872Y018394D01*
X028872Y018223D01*
X028937Y018065D01*
X029058Y017944D01*
X029216Y017878D01*
X029387Y017878D01*
X029142Y017909D02*
X028462Y017909D01*
X028387Y017878D02*
X028545Y017944D01*
X028666Y018065D01*
X028732Y018223D01*
X028732Y018394D01*
X028666Y018552D01*
X028545Y018673D01*
X028387Y018738D01*
X028216Y018738D01*
X028058Y018673D01*
X027937Y018552D01*
X027872Y018394D01*
X027872Y018223D01*
X027937Y018065D01*
X028058Y017944D01*
X028216Y017878D01*
X028387Y017878D01*
X028142Y017909D02*
X027462Y017909D01*
X027387Y017878D02*
X027545Y017944D01*
X027666Y018065D01*
X027732Y018223D01*
X027732Y018394D01*
X027666Y018552D01*
X027545Y018673D01*
X027387Y018738D01*
X027216Y018738D01*
X027058Y018673D01*
X026937Y018552D01*
X026872Y018394D01*
X026872Y018223D01*
X026937Y018065D01*
X027058Y017944D01*
X027216Y017878D01*
X027387Y017878D01*
X027142Y017909D02*
X026462Y017909D01*
X026387Y017878D02*
X026545Y017944D01*
X026666Y018065D01*
X026732Y018223D01*
X026732Y018394D01*
X026666Y018552D01*
X026545Y018673D01*
X026387Y018738D01*
X026216Y018738D01*
X026058Y018673D01*
X025937Y018552D01*
X025872Y018394D01*
X025872Y018223D01*
X025937Y018065D01*
X026058Y017944D01*
X026216Y017878D01*
X026387Y017878D01*
X026142Y017909D02*
X025462Y017909D01*
X025609Y018008D02*
X025994Y018008D01*
X025920Y018106D02*
X025684Y018106D01*
X025724Y018205D02*
X025879Y018205D01*
X025872Y018303D02*
X025732Y018303D01*
X025729Y018402D02*
X025875Y018402D01*
X025916Y018500D02*
X025688Y018500D01*
X025619Y018599D02*
X025985Y018599D01*
X026118Y018698D02*
X025486Y018698D01*
X026486Y018698D02*
X027118Y018698D01*
X026985Y018599D02*
X026619Y018599D01*
X026688Y018500D02*
X026916Y018500D01*
X026875Y018402D02*
X026729Y018402D01*
X026732Y018303D02*
X026872Y018303D01*
X026879Y018205D02*
X026724Y018205D01*
X026684Y018106D02*
X026920Y018106D01*
X026994Y018008D02*
X026609Y018008D01*
X026716Y017738D02*
X026558Y017673D01*
X026437Y017552D01*
X026372Y017394D01*
X026372Y017223D01*
X026437Y017065D01*
X026558Y016944D01*
X026716Y016878D01*
X026887Y016878D01*
X026931Y016896D01*
X027102Y016725D01*
X027102Y016653D01*
X027005Y016556D01*
X026952Y016428D01*
X026952Y016289D01*
X027005Y016160D01*
X027104Y016062D01*
X027232Y016008D01*
X027371Y016008D01*
X027500Y016062D01*
X027599Y016160D01*
X027652Y016289D01*
X027652Y016428D01*
X027599Y016556D01*
X027502Y016653D01*
X027502Y016725D01*
X027502Y016891D01*
X027214Y017179D01*
X027232Y017223D01*
X027232Y017394D01*
X027166Y017552D01*
X027045Y017673D01*
X026887Y017738D01*
X026716Y017738D01*
X026653Y017712D02*
X025951Y017712D01*
X025887Y017738D02*
X025716Y017738D01*
X025558Y017673D01*
X025437Y017552D01*
X025372Y017394D01*
X025372Y017223D01*
X025437Y017065D01*
X025558Y016944D01*
X025602Y016926D01*
X025602Y016708D01*
X025097Y016708D01*
X025000Y016805D01*
X024871Y016858D01*
X024732Y016858D01*
X024604Y016805D01*
X024505Y016706D01*
X024452Y016578D01*
X024452Y016439D01*
X024505Y016310D01*
X024604Y016212D01*
X024732Y016158D01*
X024871Y016158D01*
X025000Y016212D01*
X025097Y016308D01*
X025719Y016308D01*
X025885Y016308D01*
X026002Y016425D01*
X026002Y016926D01*
X026045Y016944D01*
X026166Y017065D01*
X026232Y017223D01*
X026232Y017394D01*
X026166Y017552D01*
X026045Y017673D01*
X025887Y017738D01*
X025653Y017712D02*
X024950Y017712D01*
X024967Y017707D02*
X024903Y017728D01*
X024836Y017738D01*
X024832Y017738D01*
X024832Y017339D01*
X024772Y017339D01*
X024772Y017738D01*
X024768Y017738D01*
X024701Y017728D01*
X024637Y017707D01*
X024576Y017676D01*
X024522Y017636D01*
X024474Y017588D01*
X024434Y017534D01*
X024403Y017473D01*
X024382Y017409D01*
X024372Y017342D01*
X024372Y017338D01*
X024772Y017338D01*
X024772Y017278D01*
X024832Y017278D01*
X024832Y016878D01*
X024836Y016878D01*
X024903Y016889D01*
X024967Y016910D01*
X025027Y016941D01*
X025082Y016980D01*
X025130Y017028D01*
X025170Y017083D01*
X025200Y017143D01*
X025221Y017208D01*
X025232Y017274D01*
X025232Y017278D01*
X024832Y017278D01*
X024832Y017338D01*
X025232Y017338D01*
X025232Y017342D01*
X025221Y017409D01*
X025200Y017473D01*
X025170Y017534D01*
X025130Y017588D01*
X025082Y017636D01*
X025027Y017676D01*
X024967Y017707D01*
X024832Y017712D02*
X024772Y017712D01*
X024772Y017614D02*
X024832Y017614D01*
X024832Y017515D02*
X024772Y017515D01*
X024772Y017416D02*
X024832Y017416D01*
X024832Y017318D02*
X025372Y017318D01*
X025373Y017219D02*
X025223Y017219D01*
X025189Y017121D02*
X025414Y017121D01*
X025480Y017022D02*
X025124Y017022D01*
X024994Y016924D02*
X025602Y016924D01*
X025602Y016825D02*
X024951Y016825D01*
X024832Y016924D02*
X024772Y016924D01*
X024772Y016878D02*
X024772Y017278D01*
X024372Y017278D01*
X024372Y017274D01*
X024382Y017208D01*
X024403Y017143D01*
X024434Y017083D01*
X024474Y017028D01*
X024522Y016980D01*
X024576Y016941D01*
X024637Y016910D01*
X024701Y016889D01*
X024768Y016878D01*
X024772Y016878D01*
X024653Y016825D02*
X021102Y016825D01*
X021200Y016924D02*
X021357Y016924D01*
X021003Y016727D02*
X024525Y016727D01*
X024473Y016628D02*
X020905Y016628D01*
X020806Y016530D02*
X024452Y016530D01*
X024455Y016431D02*
X020707Y016431D01*
X021747Y016924D02*
X024609Y016924D01*
X024480Y017022D02*
X021874Y017022D01*
X021940Y017121D02*
X024415Y017121D01*
X024381Y017219D02*
X021980Y017219D01*
X021982Y017318D02*
X024772Y017318D01*
X024772Y017219D02*
X024832Y017219D01*
X024832Y017121D02*
X024772Y017121D01*
X024772Y017022D02*
X024832Y017022D01*
X025078Y016727D02*
X025602Y016727D01*
X025802Y016508D02*
X025802Y017308D01*
X026124Y017022D02*
X026480Y017022D01*
X026414Y017121D02*
X026190Y017121D01*
X026230Y017219D02*
X026373Y017219D01*
X026372Y017318D02*
X026232Y017318D01*
X026222Y017416D02*
X026381Y017416D01*
X026422Y017515D02*
X026182Y017515D01*
X026105Y017614D02*
X026499Y017614D01*
X026951Y017712D02*
X027653Y017712D01*
X027716Y017738D02*
X027558Y017673D01*
X027437Y017552D01*
X027372Y017394D01*
X027372Y017223D01*
X027437Y017065D01*
X027558Y016944D01*
X027716Y016878D01*
X027887Y016878D01*
X028045Y016944D01*
X028166Y017065D01*
X028232Y017223D01*
X028232Y017394D01*
X028166Y017552D01*
X028045Y017673D01*
X027887Y017738D01*
X027716Y017738D01*
X027951Y017712D02*
X028653Y017712D01*
X028716Y017738D02*
X028558Y017673D01*
X028437Y017552D01*
X028372Y017394D01*
X028372Y017223D01*
X028437Y017065D01*
X028558Y016944D01*
X028716Y016878D01*
X028887Y016878D01*
X029045Y016944D01*
X029166Y017065D01*
X029232Y017223D01*
X029232Y017394D01*
X029166Y017552D01*
X029045Y017673D01*
X028887Y017738D01*
X028716Y017738D01*
X028951Y017712D02*
X030052Y017712D01*
X030052Y017614D02*
X029105Y017614D01*
X029182Y017515D02*
X030052Y017515D01*
X030052Y017416D02*
X029222Y017416D01*
X029232Y017318D02*
X030052Y017318D01*
X030052Y017219D02*
X029230Y017219D01*
X029190Y017121D02*
X030052Y017121D01*
X030052Y017022D02*
X029124Y017022D01*
X028997Y016924D02*
X030052Y016924D01*
X030052Y016825D02*
X027502Y016825D01*
X027502Y016727D02*
X030052Y016727D01*
X030052Y016628D02*
X027527Y016628D01*
X027610Y016530D02*
X030052Y016530D01*
X030052Y016431D02*
X027651Y016431D01*
X027652Y016332D02*
X030052Y016332D01*
X030052Y016234D02*
X027629Y016234D01*
X027574Y016135D02*
X030052Y016135D01*
X030052Y016037D02*
X027441Y016037D01*
X027163Y016037D02*
X018913Y016037D01*
X018815Y015938D02*
X030052Y015938D01*
X030052Y015840D02*
X017302Y015840D01*
X017302Y015741D02*
X030052Y015741D01*
X030052Y015643D02*
X017302Y015643D01*
X017302Y015544D02*
X030052Y015544D01*
X030052Y015446D02*
X017302Y015446D01*
X017302Y015347D02*
X030052Y015347D01*
X030052Y015249D02*
X017302Y015249D01*
X017302Y015150D02*
X030052Y015150D01*
X030052Y015051D02*
X017302Y015051D01*
X017302Y014953D02*
X030052Y014953D01*
X030052Y014854D02*
X017302Y014854D01*
X017302Y014756D02*
X030052Y014756D01*
X030052Y014657D02*
X017302Y014657D01*
X017302Y014559D02*
X030052Y014559D01*
X030052Y014460D02*
X017302Y014460D01*
X017302Y014362D02*
X030052Y014362D01*
X030052Y014263D02*
X017302Y014263D01*
X017302Y014165D02*
X030052Y014165D01*
X030052Y014066D02*
X017302Y014066D01*
X017302Y013967D02*
X030052Y013967D01*
X030052Y013869D02*
X017302Y013869D01*
X017302Y013770D02*
X030052Y013770D01*
X030052Y013672D02*
X017302Y013672D01*
X017302Y013573D02*
X030052Y013573D01*
X030066Y013475D02*
X017302Y013475D01*
X017302Y013376D02*
X030130Y013376D01*
X027030Y016135D02*
X019012Y016135D01*
X019110Y016234D02*
X024581Y016234D01*
X024496Y016332D02*
X019209Y016332D01*
X017923Y017712D02*
X017700Y017712D01*
X017892Y017909D02*
X014962Y017909D01*
X014642Y017909D02*
X014436Y017909D01*
X014605Y017614D02*
X017249Y017614D01*
X017175Y017515D02*
X014682Y017515D01*
X014722Y017416D02*
X017135Y017416D01*
X021701Y017712D02*
X024653Y017712D01*
X024499Y017614D02*
X021855Y017614D01*
X021932Y017515D02*
X024425Y017515D01*
X024385Y017416D02*
X021972Y017416D01*
X021892Y017909D02*
X021686Y017909D01*
X022212Y017909D02*
X025142Y017909D01*
X025105Y017614D02*
X025499Y017614D01*
X025422Y017515D02*
X025179Y017515D01*
X025219Y017416D02*
X025381Y017416D01*
X026002Y016924D02*
X026607Y016924D01*
X027002Y016825D02*
X026002Y016825D01*
X026002Y016727D02*
X027101Y016727D01*
X027077Y016628D02*
X026002Y016628D01*
X026002Y016530D02*
X026994Y016530D01*
X026953Y016431D02*
X026002Y016431D01*
X025909Y016332D02*
X026952Y016332D01*
X026975Y016234D02*
X025023Y016234D01*
X024802Y016508D02*
X025802Y016508D01*
X026802Y017308D02*
X027302Y016808D01*
X027302Y016358D01*
X027469Y016924D02*
X027607Y016924D01*
X027480Y017022D02*
X027371Y017022D01*
X027414Y017121D02*
X027272Y017121D01*
X027230Y017219D02*
X027373Y017219D01*
X027372Y017318D02*
X027232Y017318D01*
X027222Y017416D02*
X027381Y017416D01*
X027422Y017515D02*
X027182Y017515D01*
X027105Y017614D02*
X027499Y017614D01*
X027609Y018008D02*
X027994Y018008D01*
X027920Y018106D02*
X027684Y018106D01*
X027724Y018205D02*
X027879Y018205D01*
X027872Y018303D02*
X027732Y018303D01*
X027729Y018402D02*
X027875Y018402D01*
X027916Y018500D02*
X027688Y018500D01*
X027619Y018599D02*
X027985Y018599D01*
X028118Y018698D02*
X027486Y018698D01*
X026680Y019092D02*
X029915Y019092D01*
X029816Y019190D02*
X026732Y019190D01*
X026752Y019289D02*
X029718Y019289D01*
X029619Y019387D02*
X026748Y019387D01*
X026707Y019486D02*
X029521Y019486D01*
X030013Y018993D02*
X026556Y018993D01*
X028486Y018698D02*
X029118Y018698D01*
X028985Y018599D02*
X028619Y018599D01*
X028688Y018500D02*
X028916Y018500D01*
X028875Y018402D02*
X028729Y018402D01*
X028732Y018303D02*
X028872Y018303D01*
X028879Y018205D02*
X028724Y018205D01*
X028684Y018106D02*
X028920Y018106D01*
X028994Y018008D02*
X028609Y018008D01*
X028499Y017614D02*
X028105Y017614D01*
X028182Y017515D02*
X028422Y017515D01*
X028381Y017416D02*
X028222Y017416D01*
X028232Y017318D02*
X028372Y017318D01*
X028373Y017219D02*
X028230Y017219D01*
X028190Y017121D02*
X028414Y017121D01*
X028480Y017022D02*
X028124Y017022D01*
X027997Y016924D02*
X028607Y016924D01*
X029609Y018008D02*
X030052Y018008D01*
X030052Y018106D02*
X029684Y018106D01*
X029724Y018205D02*
X030052Y018205D01*
X030052Y018303D02*
X029732Y018303D01*
X029729Y018402D02*
X030052Y018402D01*
X030052Y018500D02*
X029688Y018500D01*
X029619Y018599D02*
X030052Y018599D01*
X030052Y018698D02*
X029486Y018698D01*
X017676Y013278D02*
X017365Y013278D01*
M02*
