G75*
G70*
%OFA0B0*%
%FSLAX24Y24*%
%IPPOS*%
%LPD*%
%AMOC8*
5,1,8,0,0,1.08239X$1,22.5*
%
%ADD10C,0.1379*%
%ADD11C,0.0640*%
%ADD12C,0.0830*%
%ADD13R,0.0470X0.0200*%
%ADD14R,0.1261X0.1261*%
%ADD15R,0.0513X0.0474*%
%ADD16R,0.0474X0.0513*%
%ADD17OC8,0.0710*%
%ADD18C,0.0710*%
%ADD19R,0.0480X0.0480*%
%ADD20R,0.0200X0.0400*%
%ADD21R,0.0400X0.0200*%
D10*
X002274Y002274D03*
X013774Y002274D03*
D11*
X010274Y002274D03*
X009274Y002274D03*
X008274Y002274D03*
X007274Y002274D03*
X006274Y002274D03*
X005774Y001274D03*
X006774Y001274D03*
X007774Y001274D03*
X008774Y001274D03*
X009774Y001274D03*
D12*
X008774Y007649D02*
X008774Y008399D01*
X007274Y008399D02*
X007274Y007649D01*
X004524Y007649D02*
X004524Y008399D01*
X003024Y008399D02*
X003024Y007649D01*
X011524Y007649D02*
X011524Y008399D01*
X013024Y008399D02*
X013024Y007649D01*
D13*
X013673Y006670D03*
X013673Y006414D03*
X013673Y006158D03*
X013673Y005902D03*
X013673Y005646D03*
X013673Y005390D03*
X013673Y005134D03*
X013673Y004878D03*
X011375Y004878D03*
X011375Y005134D03*
X011375Y005390D03*
X011375Y005646D03*
X011375Y005902D03*
X011375Y006158D03*
X011375Y006414D03*
X011375Y006670D03*
X005173Y006670D03*
X005173Y006414D03*
X005173Y006158D03*
X005173Y005902D03*
X005173Y005646D03*
X005173Y005390D03*
X005173Y005134D03*
X005173Y004878D03*
X002875Y004878D03*
X002875Y005134D03*
X002875Y005390D03*
X002875Y005646D03*
X002875Y005902D03*
X002875Y006158D03*
X002875Y006414D03*
X002875Y006670D03*
D14*
X004024Y005774D03*
X012524Y005774D03*
D15*
X014224Y005009D03*
X014774Y005039D03*
X014774Y005709D03*
X014224Y004339D03*
X005724Y005039D03*
X005724Y005709D03*
D16*
X005859Y004474D03*
X005189Y004474D03*
X002024Y005939D03*
X001524Y005939D03*
X001024Y005939D03*
X001024Y006609D03*
X001524Y006609D03*
X002024Y006609D03*
X009524Y006609D03*
X010024Y006609D03*
X010524Y006609D03*
X010524Y005939D03*
X010024Y005939D03*
X009524Y005939D03*
D17*
X007774Y004574D03*
D18*
X007774Y005974D03*
D19*
X006224Y003674D03*
X005624Y003674D03*
X005024Y003674D03*
X011674Y002624D03*
X011674Y002024D03*
X011674Y001424D03*
D20*
X005924Y003674D03*
X005324Y003674D03*
D21*
X011674Y002324D03*
X011674Y001724D03*
M02*
