G75*
G70*
%OFA0B0*%
%FSLAX24Y24*%
%IPPOS*%
%LPD*%
%AMOC8*
5,1,8,0,0,1.08239X$1,22.5*
%
%ADD10C,0.0100*%
%ADD11C,0.0634*%
%ADD12R,0.0394X0.0433*%
%ADD13R,0.0354X0.0551*%
%ADD14C,0.0560*%
%ADD15C,0.0200*%
%ADD16C,0.0400*%
D10*
X002600Y000674D02*
X002628Y000682D01*
X002628Y000682D01*
X003047Y000952D01*
X003373Y001328D01*
X003580Y001781D01*
X003651Y002274D01*
X003580Y002767D01*
X003373Y003220D01*
X003373Y003220D01*
X003047Y003597D01*
X002628Y003866D01*
X002260Y003974D01*
X003518Y003974D01*
X004318Y003174D01*
X004484Y003174D01*
X006168Y003174D01*
X006201Y003141D01*
X006201Y002582D01*
X006145Y002639D01*
X005987Y002704D01*
X005816Y002704D01*
X005658Y002639D01*
X005537Y002518D01*
X005471Y002360D01*
X005471Y002189D01*
X005537Y002031D01*
X005658Y001910D01*
X005816Y001844D01*
X005987Y001844D01*
X006145Y001910D01*
X006201Y001966D01*
X006201Y001657D01*
X006158Y001639D01*
X006037Y001518D01*
X005971Y001360D01*
X005971Y001189D01*
X006037Y001031D01*
X006158Y000910D01*
X006316Y000844D01*
X006487Y000844D01*
X006645Y000910D01*
X006766Y001031D01*
X006831Y001189D01*
X006831Y001360D01*
X006766Y001518D01*
X006645Y001639D01*
X006601Y001657D01*
X006601Y001966D01*
X006658Y001910D01*
X006816Y001844D01*
X006987Y001844D01*
X007145Y001910D01*
X007201Y001966D01*
X007201Y001657D01*
X007158Y001639D01*
X007037Y001518D01*
X006971Y001360D01*
X006971Y001189D01*
X007037Y001031D01*
X007158Y000910D01*
X007316Y000844D01*
X007487Y000844D01*
X007645Y000910D01*
X007766Y001031D01*
X007831Y001189D01*
X007831Y001360D01*
X007766Y001518D01*
X007645Y001639D01*
X007601Y001657D01*
X007601Y001966D01*
X007658Y001910D01*
X007816Y001844D01*
X007987Y001844D01*
X008145Y001910D01*
X008201Y001966D01*
X008201Y001657D01*
X008158Y001639D01*
X008037Y001518D01*
X007971Y001360D01*
X007971Y001189D01*
X008037Y001031D01*
X008158Y000910D01*
X008316Y000844D01*
X008487Y000844D01*
X008645Y000910D01*
X008766Y001031D01*
X008831Y001189D01*
X008831Y001360D01*
X008766Y001518D01*
X008645Y001639D01*
X008601Y001657D01*
X008601Y001966D01*
X008658Y001910D01*
X008816Y001844D01*
X008987Y001844D01*
X009145Y001910D01*
X009201Y001966D01*
X009201Y001657D01*
X009158Y001639D01*
X009037Y001518D01*
X008971Y001360D01*
X008971Y001189D01*
X009037Y001031D01*
X009158Y000910D01*
X009316Y000844D01*
X009487Y000844D01*
X009645Y000910D01*
X009766Y001031D01*
X009831Y001189D01*
X009831Y001360D01*
X009766Y001518D01*
X009645Y001639D01*
X009601Y001657D01*
X009601Y001966D01*
X009658Y001910D01*
X009816Y001844D01*
X009987Y001844D01*
X010145Y001910D01*
X010266Y002031D01*
X010331Y002189D01*
X010331Y002360D01*
X010313Y002403D01*
X011884Y003974D01*
X012001Y004091D01*
X012001Y004658D01*
X012076Y004658D01*
X012156Y004738D01*
X012169Y004715D01*
X012197Y004688D01*
X012231Y004668D01*
X012269Y004658D01*
X012437Y004658D01*
X012437Y004975D01*
X012534Y004975D01*
X012534Y004658D01*
X012702Y004658D01*
X012741Y004668D01*
X012775Y004688D01*
X012803Y004715D01*
X012822Y004750D01*
X012833Y004788D01*
X012833Y004976D01*
X012534Y004976D01*
X012534Y005073D01*
X012437Y005073D01*
X012437Y005391D01*
X012269Y005391D01*
X012231Y005380D01*
X012197Y005361D01*
X012169Y005333D01*
X012156Y005310D01*
X012076Y005391D01*
X012016Y005391D01*
X012016Y005408D01*
X012076Y005408D01*
X012151Y005483D01*
X012227Y005408D01*
X012745Y005408D01*
X012833Y005495D01*
X012833Y005574D01*
X012912Y005574D01*
X012939Y005510D01*
X013070Y005378D01*
X013241Y005307D01*
X014061Y005307D01*
X014232Y005378D01*
X014364Y005510D01*
X014435Y005681D01*
X014435Y005867D01*
X014364Y006039D01*
X014232Y006170D01*
X014061Y006241D01*
X013241Y006241D01*
X013201Y006224D01*
X013201Y006324D01*
X013241Y006307D01*
X014061Y006307D01*
X014232Y006378D01*
X014364Y006510D01*
X014435Y006681D01*
X014435Y006867D01*
X014364Y007039D01*
X014232Y007170D01*
X014061Y007241D01*
X013241Y007241D01*
X013070Y007170D01*
X012939Y007039D01*
X012912Y006974D01*
X012833Y006974D01*
X012833Y007053D01*
X012745Y007141D01*
X012686Y007141D01*
X012686Y007158D01*
X012745Y007158D01*
X012833Y007245D01*
X012833Y007803D01*
X012745Y007891D01*
X012402Y007891D01*
X012377Y007915D01*
X012390Y007915D01*
X012478Y008003D01*
X012478Y008679D01*
X012390Y008767D01*
X011997Y008767D01*
X011997Y008782D01*
X012036Y008782D01*
X012124Y008869D01*
X012124Y009545D01*
X012036Y009633D01*
X011558Y009633D01*
X011470Y009545D01*
X011470Y008869D01*
X011558Y008782D01*
X011597Y008782D01*
X011597Y007891D01*
X011558Y007891D01*
X011470Y007803D01*
X011470Y007460D01*
X011201Y007192D01*
X011201Y007026D01*
X011201Y004557D01*
X009214Y002569D01*
X009145Y002639D01*
X009101Y002657D01*
X009101Y003891D01*
X009101Y004057D01*
X008501Y004657D01*
X008501Y004658D01*
X008576Y004658D01*
X008656Y004738D01*
X008669Y004715D01*
X008697Y004688D01*
X008731Y004668D01*
X008769Y004658D01*
X008937Y004658D01*
X008937Y004975D01*
X009034Y004975D01*
X009034Y004658D01*
X009202Y004658D01*
X009241Y004668D01*
X009275Y004688D01*
X009303Y004715D01*
X009322Y004750D01*
X009333Y004788D01*
X009333Y004976D01*
X009034Y004976D01*
X009034Y005073D01*
X008937Y005073D01*
X008937Y005391D01*
X008769Y005391D01*
X008731Y005380D01*
X008697Y005361D01*
X008669Y005333D01*
X008656Y005310D01*
X008576Y005391D01*
X008516Y005391D01*
X008516Y005408D01*
X008576Y005408D01*
X008651Y005483D01*
X008727Y005408D01*
X009245Y005408D01*
X009333Y005495D01*
X009333Y005574D01*
X009412Y005574D01*
X009439Y005510D01*
X009570Y005378D01*
X009741Y005307D01*
X010561Y005307D01*
X010732Y005378D01*
X010864Y005510D01*
X010935Y005681D01*
X010935Y005867D01*
X010864Y006039D01*
X010732Y006170D01*
X010561Y006241D01*
X009741Y006241D01*
X009701Y006224D01*
X009701Y006324D01*
X009741Y006307D01*
X010561Y006307D01*
X010732Y006378D01*
X010864Y006510D01*
X010935Y006681D01*
X010935Y006867D01*
X010864Y007039D01*
X010732Y007170D01*
X010561Y007241D01*
X009741Y007241D01*
X009570Y007170D01*
X009439Y007039D01*
X009412Y006974D01*
X009333Y006974D01*
X009333Y007053D01*
X009245Y007141D01*
X009186Y007141D01*
X009186Y007158D01*
X009245Y007158D01*
X009333Y007245D01*
X009333Y007803D01*
X009245Y007891D01*
X008902Y007891D01*
X008877Y007915D01*
X008890Y007915D01*
X008978Y008003D01*
X008978Y008679D01*
X008890Y008767D01*
X008497Y008767D01*
X008497Y008782D01*
X008536Y008782D01*
X008624Y008869D01*
X008624Y009545D01*
X008536Y009633D01*
X008058Y009633D01*
X007970Y009545D01*
X007970Y008869D01*
X008058Y008782D01*
X008097Y008782D01*
X008097Y007891D01*
X008058Y007891D01*
X007970Y007803D01*
X007970Y007460D01*
X007701Y007192D01*
X007701Y007026D01*
X007701Y004241D01*
X007818Y004124D01*
X008201Y003741D01*
X008201Y002582D01*
X008145Y002639D01*
X008101Y002657D01*
X008101Y003591D01*
X008101Y003757D01*
X007201Y004657D01*
X007084Y004774D01*
X005829Y004774D01*
X005833Y004788D01*
X005833Y004976D01*
X005534Y004976D01*
X005534Y005073D01*
X005437Y005073D01*
X005437Y005391D01*
X005269Y005391D01*
X005231Y005380D01*
X005197Y005361D01*
X005169Y005333D01*
X005156Y005310D01*
X005076Y005391D01*
X005016Y005391D01*
X005016Y005408D01*
X005076Y005408D01*
X005151Y005483D01*
X005227Y005408D01*
X005745Y005408D01*
X005833Y005495D01*
X005833Y005574D01*
X005912Y005574D01*
X005939Y005510D01*
X006070Y005378D01*
X006241Y005307D01*
X007061Y005307D01*
X007232Y005378D01*
X007364Y005510D01*
X007435Y005681D01*
X007435Y005867D01*
X007364Y006039D01*
X007232Y006170D01*
X007061Y006241D01*
X006241Y006241D01*
X006201Y006224D01*
X006201Y006324D01*
X006241Y006307D01*
X007061Y006307D01*
X007232Y006378D01*
X007364Y006510D01*
X007435Y006681D01*
X007435Y006867D01*
X007364Y007039D01*
X007232Y007170D01*
X007061Y007241D01*
X006241Y007241D01*
X006070Y007170D01*
X005939Y007039D01*
X005912Y006974D01*
X005833Y006974D01*
X005833Y007053D01*
X005745Y007141D01*
X005686Y007141D01*
X005686Y007158D01*
X005745Y007158D01*
X005833Y007245D01*
X005833Y007803D01*
X005745Y007891D01*
X005402Y007891D01*
X005377Y007915D01*
X005390Y007915D01*
X005478Y008003D01*
X005478Y008679D01*
X005390Y008767D01*
X004997Y008767D01*
X004997Y008782D01*
X005036Y008782D01*
X005124Y008869D01*
X005124Y009545D01*
X005036Y009633D01*
X004558Y009633D01*
X004470Y009545D01*
X004470Y008869D01*
X004558Y008782D01*
X004597Y008782D01*
X004597Y007891D01*
X004558Y007891D01*
X004470Y007803D01*
X004470Y007460D01*
X004201Y007192D01*
X004201Y007026D01*
X004201Y004541D01*
X004318Y004424D01*
X004318Y004424D01*
X004651Y004091D01*
X004768Y003974D01*
X006718Y003974D01*
X007201Y003491D01*
X007201Y002582D01*
X007145Y002639D01*
X007101Y002657D01*
X007101Y003341D01*
X007101Y003507D01*
X006751Y003857D01*
X006634Y003974D01*
X004684Y003974D01*
X004001Y004657D01*
X003884Y004774D01*
X002329Y004774D01*
X002333Y004788D01*
X002333Y004976D01*
X002034Y004976D01*
X002034Y005073D01*
X001937Y005073D01*
X001937Y005391D01*
X001769Y005391D01*
X001731Y005380D01*
X001697Y005361D01*
X001669Y005333D01*
X001656Y005310D01*
X001576Y005391D01*
X001516Y005391D01*
X001516Y005408D01*
X001576Y005408D01*
X001651Y005483D01*
X001727Y005408D01*
X002245Y005408D01*
X002333Y005495D01*
X002333Y005574D01*
X002412Y005574D01*
X002439Y005510D01*
X002570Y005378D01*
X002741Y005307D01*
X003561Y005307D01*
X003732Y005378D01*
X003864Y005510D01*
X003935Y005681D01*
X003935Y005867D01*
X003864Y006039D01*
X003732Y006170D01*
X003561Y006241D01*
X002741Y006241D01*
X002701Y006224D01*
X002701Y006324D01*
X002741Y006307D01*
X003561Y006307D01*
X003732Y006378D01*
X003864Y006510D01*
X003935Y006681D01*
X003935Y006867D01*
X003864Y007039D01*
X003732Y007170D01*
X003561Y007241D01*
X002741Y007241D01*
X002570Y007170D01*
X002439Y007039D01*
X002412Y006974D01*
X002333Y006974D01*
X002333Y007053D01*
X002245Y007141D01*
X002186Y007141D01*
X002186Y007158D01*
X002245Y007158D01*
X002333Y007245D01*
X002333Y007803D01*
X002245Y007891D01*
X001902Y007891D01*
X001877Y007915D01*
X001890Y007915D01*
X001978Y008003D01*
X001978Y008679D01*
X001890Y008767D01*
X001497Y008767D01*
X001497Y008782D01*
X001536Y008782D01*
X001624Y008869D01*
X001624Y009545D01*
X001536Y009633D01*
X001058Y009633D01*
X000970Y009545D01*
X000970Y008869D01*
X001058Y008782D01*
X001097Y008782D01*
X001097Y007891D01*
X001058Y007891D01*
X000970Y007803D01*
X000970Y007460D01*
X000701Y007192D01*
X000701Y007026D01*
X000701Y004541D01*
X000818Y004424D01*
X001268Y003974D01*
X001434Y003974D01*
X001543Y003974D01*
X001174Y003866D01*
X000755Y003597D01*
X000755Y003597D01*
X000429Y003220D01*
X000301Y002940D01*
X000301Y009874D01*
X013478Y009874D01*
X013462Y009858D01*
X013345Y009741D01*
X013345Y009674D01*
X013345Y009540D01*
X013345Y009474D01*
X013345Y009474D01*
X013345Y009390D01*
X013345Y009308D01*
X013346Y009307D01*
X013412Y009241D01*
X013298Y009241D01*
X013225Y009229D01*
X013155Y009207D01*
X013090Y009173D01*
X013030Y009130D01*
X012978Y009078D01*
X012935Y009019D01*
X012902Y008953D01*
X012879Y008883D01*
X012869Y008823D01*
X013602Y008823D01*
X013602Y008726D01*
X012869Y008726D01*
X012879Y008665D01*
X012902Y008595D01*
X012935Y008529D01*
X012978Y008470D01*
X013030Y008418D01*
X013090Y008375D01*
X013155Y008341D01*
X013225Y008319D01*
X013298Y008307D01*
X013603Y008307D01*
X013603Y008725D01*
X013700Y008725D01*
X013700Y008307D01*
X014005Y008307D01*
X014077Y008319D01*
X014147Y008341D01*
X014213Y008375D01*
X014272Y008418D01*
X014324Y008470D01*
X014367Y008529D01*
X014401Y008595D01*
X014423Y008665D01*
X014433Y008726D01*
X013700Y008726D01*
X013700Y008823D01*
X014433Y008823D01*
X014423Y008883D01*
X014401Y008953D01*
X014367Y009019D01*
X014324Y009078D01*
X014278Y009124D01*
X014355Y009124D01*
X014369Y009138D01*
X014383Y009124D01*
X014548Y009124D01*
X014599Y009175D01*
X014649Y009124D01*
X014815Y009124D01*
X014932Y009241D01*
X014932Y009441D01*
X014932Y009607D01*
X014932Y009674D01*
X014741Y009865D01*
X014732Y009874D01*
X015001Y009874D01*
X015001Y002940D01*
X014873Y003220D01*
X014873Y003220D01*
X014547Y003597D01*
X014128Y003866D01*
X013650Y004006D01*
X013152Y004006D01*
X012674Y003866D01*
X012255Y003597D01*
X012255Y003597D01*
X012255Y003597D01*
X011929Y003220D01*
X011722Y002767D01*
X011651Y002274D01*
X011722Y001781D01*
X011929Y001328D01*
X012255Y000952D01*
X012255Y000952D01*
X012674Y000682D01*
X012702Y000674D01*
X002600Y000674D01*
X002689Y000721D02*
X012614Y000721D01*
X012674Y000682D02*
X012674Y000682D01*
X012460Y000820D02*
X002842Y000820D01*
X002995Y000918D02*
X005159Y000918D01*
X005176Y000906D02*
X005236Y000876D01*
X005300Y000855D01*
X005367Y000844D01*
X005371Y000844D01*
X005371Y001244D01*
X004971Y001244D01*
X004971Y001240D01*
X004982Y001173D01*
X005003Y001109D01*
X005033Y001049D01*
X005073Y000994D01*
X005121Y000946D01*
X005176Y000906D01*
X005057Y001017D02*
X003104Y001017D01*
X003047Y000952D02*
X003047Y000952D01*
X003047Y000952D01*
X003189Y001115D02*
X005001Y001115D01*
X004975Y001214D02*
X003274Y001214D01*
X003360Y001312D02*
X004972Y001312D01*
X004971Y001308D02*
X004971Y001304D01*
X005371Y001304D01*
X005371Y001244D01*
X005431Y001244D01*
X005431Y000844D01*
X005435Y000844D01*
X005502Y000855D01*
X005566Y000876D01*
X005627Y000906D01*
X005681Y000946D01*
X005729Y000994D01*
X005769Y001049D01*
X005800Y001109D01*
X005821Y001173D01*
X005831Y001240D01*
X005831Y001244D01*
X005431Y001244D01*
X005431Y001304D01*
X005371Y001304D01*
X005371Y001704D01*
X005367Y001704D01*
X005300Y001693D01*
X005236Y001673D01*
X005176Y001642D01*
X005121Y001602D01*
X005073Y001554D01*
X005033Y001499D01*
X005003Y001439D01*
X004982Y001375D01*
X004971Y001308D01*
X004994Y001411D02*
X003411Y001411D01*
X003373Y001328D02*
X003373Y001328D01*
X003456Y001510D02*
X005041Y001510D01*
X005129Y001608D02*
X003501Y001608D01*
X003546Y001707D02*
X006201Y001707D01*
X006201Y001805D02*
X003584Y001805D01*
X003580Y001781D02*
X003580Y001781D01*
X003598Y001904D02*
X005672Y001904D01*
X005565Y002002D02*
X003612Y002002D01*
X003626Y002101D02*
X005508Y002101D01*
X005471Y002199D02*
X003640Y002199D01*
X003648Y002298D02*
X005471Y002298D01*
X005486Y002396D02*
X003634Y002396D01*
X003619Y002495D02*
X005527Y002495D01*
X005613Y002594D02*
X003605Y002594D01*
X003591Y002692D02*
X005787Y002692D01*
X006016Y002692D02*
X006201Y002692D01*
X006190Y002594D02*
X006201Y002594D01*
X006201Y002791D02*
X003570Y002791D01*
X003580Y002767D02*
X003580Y002767D01*
X003525Y002889D02*
X006201Y002889D01*
X006201Y002988D02*
X003480Y002988D01*
X003435Y003086D02*
X006201Y003086D01*
X006401Y003224D02*
X006251Y003374D01*
X004401Y003374D01*
X003601Y004174D01*
X001351Y004174D01*
X000901Y004624D01*
X000901Y007109D01*
X001317Y007524D01*
X001297Y007544D01*
X001297Y009207D01*
X001624Y009196D02*
X001967Y009196D01*
X001967Y009169D02*
X001678Y009169D01*
X001678Y008912D01*
X001689Y008874D01*
X001708Y008839D01*
X001736Y008812D01*
X001770Y008792D01*
X001809Y008782D01*
X001967Y008782D01*
X001967Y009168D01*
X002044Y009168D01*
X002044Y008782D01*
X002202Y008782D01*
X002241Y008792D01*
X002275Y008812D01*
X002303Y008839D01*
X002322Y008874D01*
X002333Y008912D01*
X002333Y009169D01*
X002044Y009169D01*
X002044Y009246D01*
X001967Y009246D01*
X001967Y009633D01*
X001809Y009633D01*
X001770Y009622D01*
X001736Y009603D01*
X001708Y009575D01*
X001689Y009541D01*
X001678Y009502D01*
X001678Y009246D01*
X001967Y009246D01*
X001967Y009169D01*
X002006Y009207D02*
X002006Y009120D01*
X002351Y008774D01*
X003151Y008774D01*
X003102Y008802D02*
X002258Y008802D01*
X002369Y008823D02*
X002379Y008883D01*
X002402Y008953D01*
X002435Y009019D01*
X002478Y009078D01*
X002530Y009130D01*
X002590Y009173D01*
X002655Y009207D01*
X002725Y009229D01*
X002798Y009241D01*
X003103Y009241D01*
X003103Y008823D01*
X003200Y008823D01*
X003200Y009241D01*
X003505Y009241D01*
X003577Y009229D01*
X003647Y009207D01*
X003713Y009173D01*
X003772Y009130D01*
X003824Y009078D01*
X003867Y009019D01*
X003901Y008953D01*
X003923Y008883D01*
X003933Y008823D01*
X003200Y008823D01*
X003200Y008726D01*
X003933Y008726D01*
X003923Y008665D01*
X003901Y008595D01*
X003867Y008529D01*
X003824Y008470D01*
X003772Y008418D01*
X003713Y008375D01*
X003647Y008341D01*
X003577Y008319D01*
X003505Y008307D01*
X003200Y008307D01*
X003200Y008725D01*
X003103Y008725D01*
X003103Y008307D01*
X002798Y008307D01*
X002725Y008319D01*
X002655Y008341D01*
X002590Y008375D01*
X002530Y008418D01*
X002478Y008470D01*
X002435Y008529D01*
X002402Y008595D01*
X002379Y008665D01*
X002369Y008726D01*
X003102Y008726D01*
X003102Y008823D01*
X002369Y008823D01*
X002384Y008900D02*
X002330Y008900D01*
X002333Y008999D02*
X002425Y008999D01*
X002497Y009097D02*
X002333Y009097D01*
X002333Y009246D02*
X002333Y009502D01*
X002322Y009541D01*
X002303Y009575D01*
X002275Y009603D01*
X002241Y009622D01*
X002202Y009633D01*
X002044Y009633D01*
X002044Y009246D01*
X002333Y009246D01*
X002333Y009294D02*
X004470Y009294D01*
X004470Y009196D02*
X003668Y009196D01*
X003805Y009097D02*
X004470Y009097D01*
X004470Y008999D02*
X003877Y008999D01*
X003918Y008900D02*
X004470Y008900D01*
X004537Y008802D02*
X003200Y008802D01*
X003200Y008900D02*
X003103Y008900D01*
X003103Y008999D02*
X003200Y008999D01*
X003200Y009097D02*
X003103Y009097D01*
X003103Y009196D02*
X003200Y009196D01*
X002634Y009196D02*
X002044Y009196D01*
X002044Y009294D02*
X001967Y009294D01*
X001967Y009393D02*
X002044Y009393D01*
X002044Y009492D02*
X001967Y009492D01*
X001967Y009590D02*
X002044Y009590D01*
X002287Y009590D02*
X004515Y009590D01*
X004470Y009492D02*
X002333Y009492D01*
X002333Y009393D02*
X004470Y009393D01*
X004797Y009207D02*
X004797Y007544D01*
X004817Y007524D01*
X004401Y007109D01*
X004401Y004624D01*
X004851Y004174D01*
X006801Y004174D01*
X007401Y003574D01*
X007401Y001274D01*
X007001Y001115D02*
X006801Y001115D01*
X006831Y001214D02*
X006971Y001214D01*
X006971Y001312D02*
X006831Y001312D01*
X006810Y001411D02*
X006992Y001411D01*
X007033Y001510D02*
X006769Y001510D01*
X006675Y001608D02*
X007127Y001608D01*
X007201Y001707D02*
X006601Y001707D01*
X006601Y001805D02*
X007201Y001805D01*
X007201Y001904D02*
X007131Y001904D01*
X006672Y001904D02*
X006601Y001904D01*
X006201Y001904D02*
X006131Y001904D01*
X006127Y001608D02*
X005673Y001608D01*
X005681Y001602D02*
X005627Y001642D01*
X005566Y001673D01*
X005502Y001693D01*
X005435Y001704D01*
X005431Y001704D01*
X005431Y001304D01*
X005831Y001304D01*
X005831Y001308D01*
X005821Y001375D01*
X005800Y001439D01*
X005769Y001499D01*
X005729Y001554D01*
X005681Y001602D01*
X005762Y001510D02*
X006033Y001510D01*
X005992Y001411D02*
X005809Y001411D01*
X005830Y001312D02*
X005971Y001312D01*
X005971Y001214D02*
X005827Y001214D01*
X005802Y001115D02*
X006001Y001115D01*
X006050Y001017D02*
X005746Y001017D01*
X005643Y000918D02*
X006149Y000918D01*
X006401Y001274D02*
X006401Y003224D01*
X006901Y003424D02*
X006551Y003774D01*
X004601Y003774D01*
X003801Y004574D01*
X001651Y004574D01*
X001401Y004824D01*
X001401Y004939D01*
X001317Y005024D01*
X001317Y005774D01*
X001619Y005451D02*
X001683Y005451D01*
X001689Y005353D02*
X001613Y005353D01*
X001937Y005353D02*
X002034Y005353D01*
X002034Y005391D02*
X002034Y005073D01*
X002333Y005073D01*
X002333Y005260D01*
X002322Y005299D01*
X002303Y005333D01*
X002275Y005361D01*
X002241Y005380D01*
X002202Y005391D01*
X002034Y005391D01*
X002034Y005254D02*
X001937Y005254D01*
X001937Y005156D02*
X002034Y005156D01*
X002034Y005057D02*
X004201Y005057D01*
X004201Y004959D02*
X002333Y004959D01*
X002333Y004860D02*
X004201Y004860D01*
X004201Y004761D02*
X003897Y004761D01*
X003995Y004663D02*
X004201Y004663D01*
X004201Y004564D02*
X004094Y004564D01*
X004192Y004466D02*
X004277Y004466D01*
X004291Y004367D02*
X004375Y004367D01*
X004389Y004269D02*
X004474Y004269D01*
X004488Y004170D02*
X004572Y004170D01*
X004586Y004072D02*
X004671Y004072D01*
X004651Y004091D02*
X004651Y004091D01*
X005201Y004574D02*
X004951Y004824D01*
X004951Y004889D01*
X004817Y005024D01*
X004817Y005774D01*
X005119Y005451D02*
X005183Y005451D01*
X005189Y005353D02*
X005113Y005353D01*
X005437Y005353D02*
X005534Y005353D01*
X005534Y005391D02*
X005534Y005073D01*
X005833Y005073D01*
X005833Y005260D01*
X005822Y005299D01*
X005803Y005333D01*
X005775Y005361D01*
X005741Y005380D01*
X005702Y005391D01*
X005534Y005391D01*
X005534Y005254D02*
X005437Y005254D01*
X005437Y005156D02*
X005534Y005156D01*
X005534Y005057D02*
X007701Y005057D01*
X007701Y004959D02*
X005833Y004959D01*
X005833Y004860D02*
X007701Y004860D01*
X007701Y004761D02*
X007097Y004761D01*
X007195Y004663D02*
X007701Y004663D01*
X007701Y004564D02*
X007294Y004564D01*
X007392Y004466D02*
X007701Y004466D01*
X007701Y004367D02*
X007491Y004367D01*
X007589Y004269D02*
X007701Y004269D01*
X007688Y004170D02*
X007772Y004170D01*
X007786Y004072D02*
X007871Y004072D01*
X007885Y003973D02*
X007969Y003973D01*
X007984Y003875D02*
X008068Y003875D01*
X008082Y003776D02*
X008166Y003776D01*
X008201Y003677D02*
X008101Y003677D01*
X008101Y003579D02*
X008201Y003579D01*
X008201Y003480D02*
X008101Y003480D01*
X008101Y003382D02*
X008201Y003382D01*
X008201Y003283D02*
X008101Y003283D01*
X008101Y003185D02*
X008201Y003185D01*
X008201Y003086D02*
X008101Y003086D01*
X008101Y002988D02*
X008201Y002988D01*
X008201Y002889D02*
X008101Y002889D01*
X008101Y002791D02*
X008201Y002791D01*
X008201Y002692D02*
X008101Y002692D01*
X008190Y002594D02*
X008201Y002594D01*
X007901Y002274D02*
X007901Y003674D01*
X007001Y004574D01*
X005201Y004574D01*
X005486Y005024D02*
X007551Y005024D01*
X007701Y005156D02*
X005833Y005156D01*
X005833Y005254D02*
X007701Y005254D01*
X007701Y005353D02*
X007171Y005353D01*
X007305Y005451D02*
X007701Y005451D01*
X007701Y005550D02*
X007380Y005550D01*
X007421Y005648D02*
X007701Y005648D01*
X007701Y005747D02*
X007435Y005747D01*
X007435Y005845D02*
X007701Y005845D01*
X007701Y005944D02*
X007403Y005944D01*
X007360Y006043D02*
X007701Y006043D01*
X007701Y006141D02*
X007261Y006141D01*
X007064Y006240D02*
X007701Y006240D01*
X007701Y006338D02*
X007135Y006338D01*
X007291Y006437D02*
X007701Y006437D01*
X007701Y006535D02*
X007374Y006535D01*
X007415Y006634D02*
X007701Y006634D01*
X007701Y006732D02*
X007435Y006732D01*
X007435Y006831D02*
X007701Y006831D01*
X007701Y006929D02*
X007409Y006929D01*
X007368Y007028D02*
X007701Y007028D01*
X007701Y007126D02*
X007276Y007126D01*
X007099Y007225D02*
X007735Y007225D01*
X007833Y007324D02*
X007100Y007324D01*
X007061Y007307D02*
X007232Y007378D01*
X007364Y007510D01*
X007435Y007681D01*
X007435Y007867D01*
X007364Y008039D01*
X007232Y008170D01*
X007061Y008241D01*
X006241Y008241D01*
X006070Y008170D01*
X005939Y008039D01*
X005867Y007867D01*
X005867Y007681D01*
X005939Y007510D01*
X006070Y007378D01*
X006241Y007307D01*
X007061Y007307D01*
X007276Y007422D02*
X007932Y007422D01*
X007970Y007521D02*
X007368Y007521D01*
X007409Y007619D02*
X007970Y007619D01*
X007970Y007718D02*
X007435Y007718D01*
X007435Y007816D02*
X007983Y007816D01*
X008097Y007915D02*
X007415Y007915D01*
X007374Y008013D02*
X008097Y008013D01*
X008097Y008112D02*
X007290Y008112D01*
X007134Y008210D02*
X008097Y008210D01*
X008097Y008309D02*
X007016Y008309D01*
X007005Y008307D02*
X007077Y008319D01*
X007147Y008341D01*
X007213Y008375D01*
X007272Y008418D01*
X007324Y008470D01*
X007367Y008529D01*
X007401Y008595D01*
X007423Y008665D01*
X007433Y008726D01*
X006700Y008726D01*
X006700Y008823D01*
X006603Y008823D01*
X006603Y009241D01*
X006298Y009241D01*
X006225Y009229D01*
X006155Y009207D01*
X006090Y009173D01*
X006030Y009130D01*
X005978Y009078D01*
X005935Y009019D01*
X005902Y008953D01*
X005879Y008883D01*
X005869Y008823D01*
X006602Y008823D01*
X006602Y008726D01*
X005869Y008726D01*
X005879Y008665D01*
X005902Y008595D01*
X005935Y008529D01*
X005978Y008470D01*
X006030Y008418D01*
X006090Y008375D01*
X006155Y008341D01*
X006225Y008319D01*
X006298Y008307D01*
X006603Y008307D01*
X006603Y008725D01*
X006700Y008725D01*
X006700Y008307D01*
X007005Y008307D01*
X007258Y008408D02*
X008097Y008408D01*
X008097Y008506D02*
X007350Y008506D01*
X007404Y008605D02*
X008097Y008605D01*
X008097Y008703D02*
X007429Y008703D01*
X007433Y008823D02*
X007423Y008883D01*
X007401Y008953D01*
X007367Y009019D01*
X007324Y009078D01*
X007272Y009130D01*
X007213Y009173D01*
X007147Y009207D01*
X007077Y009229D01*
X007005Y009241D01*
X006700Y009241D01*
X006700Y008823D01*
X007433Y008823D01*
X007418Y008900D02*
X007970Y008900D01*
X007970Y008999D02*
X007377Y008999D01*
X007305Y009097D02*
X007970Y009097D01*
X007970Y009196D02*
X007168Y009196D01*
X006700Y009196D02*
X006603Y009196D01*
X006603Y009097D02*
X006700Y009097D01*
X006700Y008999D02*
X006603Y008999D01*
X006603Y008900D02*
X006700Y008900D01*
X006700Y008802D02*
X008037Y008802D01*
X008297Y009207D02*
X008297Y007544D01*
X008317Y007524D01*
X007901Y007109D01*
X007901Y004324D01*
X008401Y003824D01*
X008401Y001274D01*
X008801Y001115D02*
X009001Y001115D01*
X008971Y001214D02*
X008831Y001214D01*
X008831Y001312D02*
X008971Y001312D01*
X008992Y001411D02*
X008810Y001411D01*
X008769Y001510D02*
X009033Y001510D01*
X009127Y001608D02*
X008675Y001608D01*
X008601Y001707D02*
X009201Y001707D01*
X009201Y001805D02*
X008601Y001805D01*
X008601Y001904D02*
X008672Y001904D01*
X009131Y001904D02*
X009201Y001904D01*
X009601Y001904D02*
X009672Y001904D01*
X009601Y001805D02*
X011719Y001805D01*
X011722Y001781D02*
X011722Y001781D01*
X011756Y001707D02*
X009601Y001707D01*
X009675Y001608D02*
X011801Y001608D01*
X011846Y001510D02*
X009769Y001510D01*
X009810Y001411D02*
X011891Y001411D01*
X011929Y001328D02*
X011929Y001328D01*
X011942Y001312D02*
X009831Y001312D01*
X009831Y001214D02*
X012028Y001214D01*
X012113Y001115D02*
X009801Y001115D01*
X009752Y001017D02*
X012199Y001017D01*
X012307Y000918D02*
X009653Y000918D01*
X009401Y001274D02*
X009401Y002474D01*
X011401Y004474D01*
X011401Y007109D01*
X011817Y007524D01*
X011797Y007544D01*
X011797Y009207D01*
X012124Y009196D02*
X012467Y009196D01*
X012467Y009169D02*
X012178Y009169D01*
X012178Y008912D01*
X012189Y008874D01*
X012208Y008839D01*
X012236Y008812D01*
X012270Y008792D01*
X012309Y008782D01*
X012467Y008782D01*
X012467Y009168D01*
X012544Y009168D01*
X012544Y008782D01*
X012702Y008782D01*
X012741Y008792D01*
X012775Y008812D01*
X012803Y008839D01*
X012822Y008874D01*
X012833Y008912D01*
X012833Y009169D01*
X012544Y009169D01*
X012544Y009246D01*
X012467Y009246D01*
X012467Y009633D01*
X012309Y009633D01*
X012270Y009622D01*
X012236Y009603D01*
X012208Y009575D01*
X012189Y009541D01*
X012178Y009502D01*
X012178Y009246D01*
X012467Y009246D01*
X012467Y009169D01*
X012506Y009207D02*
X012506Y009120D01*
X012851Y008774D01*
X013651Y008774D01*
X013602Y008802D02*
X012758Y008802D01*
X012830Y008900D02*
X012884Y008900D01*
X012925Y008999D02*
X012833Y008999D01*
X012833Y009097D02*
X012997Y009097D01*
X013134Y009196D02*
X012544Y009196D01*
X012544Y009246D02*
X012833Y009246D01*
X012833Y009502D01*
X012822Y009541D01*
X012803Y009575D01*
X012775Y009603D01*
X012741Y009622D01*
X012702Y009633D01*
X012544Y009633D01*
X012544Y009246D01*
X012544Y009294D02*
X012467Y009294D01*
X012467Y009393D02*
X012544Y009393D01*
X012544Y009492D02*
X012467Y009492D01*
X012467Y009590D02*
X012544Y009590D01*
X012787Y009590D02*
X013345Y009590D01*
X013345Y009492D02*
X012833Y009492D01*
X012833Y009393D02*
X013345Y009393D01*
X013345Y009308D02*
X013345Y009308D01*
X013358Y009294D02*
X012833Y009294D01*
X012544Y009097D02*
X012467Y009097D01*
X012467Y008999D02*
X012544Y008999D01*
X012544Y008900D02*
X012467Y008900D01*
X012467Y008802D02*
X012544Y008802D01*
X012454Y008703D02*
X012873Y008703D01*
X012899Y008605D02*
X012478Y008605D01*
X012478Y008506D02*
X012952Y008506D01*
X013045Y008408D02*
X012478Y008408D01*
X012478Y008309D02*
X013286Y008309D01*
X013241Y008241D02*
X013070Y008170D01*
X012939Y008039D01*
X012867Y007867D01*
X012867Y007681D01*
X012939Y007510D01*
X013070Y007378D01*
X013241Y007307D01*
X014061Y007307D01*
X014232Y007378D01*
X014364Y007510D01*
X014435Y007681D01*
X014435Y007867D01*
X014364Y008039D01*
X014232Y008170D01*
X014061Y008241D01*
X013241Y008241D01*
X013168Y008210D02*
X012478Y008210D01*
X012478Y008112D02*
X013012Y008112D01*
X012928Y008013D02*
X012478Y008013D01*
X012378Y007915D02*
X012887Y007915D01*
X012867Y007816D02*
X012819Y007816D01*
X012833Y007718D02*
X012867Y007718D01*
X012893Y007619D02*
X012833Y007619D01*
X012833Y007521D02*
X012934Y007521D01*
X013026Y007422D02*
X012833Y007422D01*
X012833Y007324D02*
X013202Y007324D01*
X013203Y007225D02*
X012812Y007225D01*
X012759Y007126D02*
X013027Y007126D01*
X012934Y007028D02*
X012833Y007028D01*
X012486Y006774D02*
X013651Y006774D01*
X014099Y007225D02*
X015001Y007225D01*
X015001Y007126D02*
X014276Y007126D01*
X014368Y007028D02*
X015001Y007028D01*
X015001Y006929D02*
X014409Y006929D01*
X014435Y006831D02*
X015001Y006831D01*
X015001Y006732D02*
X014435Y006732D01*
X014415Y006634D02*
X015001Y006634D01*
X015001Y006535D02*
X014374Y006535D01*
X014291Y006437D02*
X015001Y006437D01*
X015001Y006338D02*
X014135Y006338D01*
X014064Y006240D02*
X015001Y006240D01*
X015001Y006141D02*
X014261Y006141D01*
X014360Y006043D02*
X015001Y006043D01*
X015001Y005944D02*
X014403Y005944D01*
X014435Y005845D02*
X015001Y005845D01*
X015001Y005747D02*
X014435Y005747D01*
X014421Y005648D02*
X015001Y005648D01*
X015001Y005550D02*
X014380Y005550D01*
X014305Y005451D02*
X015001Y005451D01*
X015001Y005353D02*
X014171Y005353D01*
X014551Y005024D02*
X012486Y005024D01*
X012534Y005057D02*
X015001Y005057D01*
X015001Y004959D02*
X012833Y004959D01*
X012833Y004860D02*
X015001Y004860D01*
X015001Y004761D02*
X012826Y004761D01*
X012722Y004663D02*
X015001Y004663D01*
X015001Y004564D02*
X012001Y004564D01*
X012001Y004466D02*
X015001Y004466D01*
X015001Y004367D02*
X012001Y004367D01*
X012001Y004269D02*
X015001Y004269D01*
X015001Y004170D02*
X012001Y004170D01*
X011982Y004072D02*
X015001Y004072D01*
X015001Y003973D02*
X013763Y003973D01*
X013650Y004006D02*
X013650Y004006D01*
X014099Y003875D02*
X015001Y003875D01*
X015001Y003776D02*
X014268Y003776D01*
X014128Y003866D02*
X014128Y003866D01*
X014421Y003677D02*
X015001Y003677D01*
X015001Y003579D02*
X014563Y003579D01*
X014547Y003597D02*
X014547Y003597D01*
X014648Y003480D02*
X015001Y003480D01*
X015001Y003382D02*
X014733Y003382D01*
X014819Y003283D02*
X015001Y003283D01*
X015001Y003185D02*
X014890Y003185D01*
X014935Y003086D02*
X015001Y003086D01*
X015001Y002988D02*
X014980Y002988D01*
X013152Y004006D02*
X013152Y004006D01*
X013039Y003973D02*
X011883Y003973D01*
X011784Y003875D02*
X012704Y003875D01*
X012674Y003866D02*
X012674Y003866D01*
X012534Y003776D02*
X011686Y003776D01*
X011587Y003677D02*
X012381Y003677D01*
X012240Y003579D02*
X011489Y003579D01*
X011390Y003480D02*
X012154Y003480D01*
X012069Y003382D02*
X011292Y003382D01*
X011193Y003283D02*
X011984Y003283D01*
X011929Y003220D02*
X011929Y003220D01*
X011913Y003185D02*
X011095Y003185D01*
X010996Y003086D02*
X011868Y003086D01*
X011823Y002988D02*
X010898Y002988D01*
X010799Y002889D02*
X011778Y002889D01*
X011733Y002791D02*
X010700Y002791D01*
X010602Y002692D02*
X011711Y002692D01*
X011722Y002767D02*
X011722Y002767D01*
X011697Y002594D02*
X010503Y002594D01*
X010405Y002495D02*
X011683Y002495D01*
X011669Y002396D02*
X010316Y002396D01*
X010331Y002298D02*
X011655Y002298D01*
X011651Y002274D02*
X011651Y002274D01*
X011662Y002199D02*
X010331Y002199D01*
X010295Y002101D02*
X011676Y002101D01*
X011690Y002002D02*
X010237Y002002D01*
X010131Y001904D02*
X011704Y001904D01*
X009901Y002274D02*
X011801Y004174D01*
X011801Y005009D01*
X011817Y005024D01*
X011817Y005774D01*
X012119Y005451D02*
X012183Y005451D01*
X012189Y005353D02*
X012113Y005353D01*
X012437Y005353D02*
X012534Y005353D01*
X012534Y005391D02*
X012702Y005391D01*
X012741Y005380D01*
X012775Y005361D01*
X012803Y005333D01*
X012822Y005299D01*
X012833Y005260D01*
X012833Y005073D01*
X012534Y005073D01*
X012534Y005391D01*
X012534Y005254D02*
X012437Y005254D01*
X012437Y005156D02*
X012534Y005156D01*
X012534Y004959D02*
X012437Y004959D01*
X012437Y004860D02*
X012534Y004860D01*
X012534Y004761D02*
X012437Y004761D01*
X012437Y004663D02*
X012534Y004663D01*
X012249Y004663D02*
X012081Y004663D01*
X011201Y004663D02*
X009222Y004663D01*
X009326Y004761D02*
X011201Y004761D01*
X011201Y004860D02*
X009333Y004860D01*
X009333Y004959D02*
X011201Y004959D01*
X011201Y005057D02*
X009034Y005057D01*
X009034Y005073D02*
X009333Y005073D01*
X009333Y005260D01*
X009322Y005299D01*
X009303Y005333D01*
X009275Y005361D01*
X009241Y005380D01*
X009202Y005391D01*
X009034Y005391D01*
X009034Y005073D01*
X008986Y005024D02*
X011051Y005024D01*
X011201Y005156D02*
X009333Y005156D01*
X009333Y005254D02*
X011201Y005254D01*
X011201Y005353D02*
X010671Y005353D01*
X010805Y005451D02*
X011201Y005451D01*
X011201Y005550D02*
X010880Y005550D01*
X010921Y005648D02*
X011201Y005648D01*
X011201Y005747D02*
X010935Y005747D01*
X010935Y005845D02*
X011201Y005845D01*
X011201Y005944D02*
X010903Y005944D01*
X010860Y006043D02*
X011201Y006043D01*
X011201Y006141D02*
X010761Y006141D01*
X010564Y006240D02*
X011201Y006240D01*
X011201Y006338D02*
X010635Y006338D01*
X010791Y006437D02*
X011201Y006437D01*
X011201Y006535D02*
X010874Y006535D01*
X010915Y006634D02*
X011201Y006634D01*
X011201Y006732D02*
X010935Y006732D01*
X010935Y006831D02*
X011201Y006831D01*
X011201Y006929D02*
X010909Y006929D01*
X010868Y007028D02*
X011201Y007028D01*
X011201Y007126D02*
X010776Y007126D01*
X010599Y007225D02*
X011235Y007225D01*
X011333Y007324D02*
X010600Y007324D01*
X010561Y007307D02*
X010732Y007378D01*
X010864Y007510D01*
X010935Y007681D01*
X010935Y007867D01*
X010864Y008039D01*
X010732Y008170D01*
X010561Y008241D01*
X009741Y008241D01*
X009570Y008170D01*
X009439Y008039D01*
X009367Y007867D01*
X009367Y007681D01*
X009439Y007510D01*
X009570Y007378D01*
X009741Y007307D01*
X010561Y007307D01*
X010776Y007422D02*
X011432Y007422D01*
X011470Y007521D02*
X010868Y007521D01*
X010909Y007619D02*
X011470Y007619D01*
X011470Y007718D02*
X010935Y007718D01*
X010935Y007816D02*
X011483Y007816D01*
X011597Y007915D02*
X010915Y007915D01*
X010874Y008013D02*
X011597Y008013D01*
X011597Y008112D02*
X010790Y008112D01*
X010634Y008210D02*
X011597Y008210D01*
X011597Y008309D02*
X010516Y008309D01*
X010505Y008307D02*
X010577Y008319D01*
X010647Y008341D01*
X010713Y008375D01*
X010772Y008418D01*
X010824Y008470D01*
X010867Y008529D01*
X010901Y008595D01*
X010923Y008665D01*
X010933Y008726D01*
X010200Y008726D01*
X010200Y008823D01*
X010103Y008823D01*
X010103Y009241D01*
X009798Y009241D01*
X009725Y009229D01*
X009655Y009207D01*
X009590Y009173D01*
X009530Y009130D01*
X009478Y009078D01*
X009435Y009019D01*
X009402Y008953D01*
X009379Y008883D01*
X009369Y008823D01*
X010102Y008823D01*
X010102Y008726D01*
X009369Y008726D01*
X009379Y008665D01*
X009402Y008595D01*
X009435Y008529D01*
X009478Y008470D01*
X009530Y008418D01*
X009590Y008375D01*
X009655Y008341D01*
X009725Y008319D01*
X009798Y008307D01*
X010103Y008307D01*
X010103Y008725D01*
X010200Y008725D01*
X010200Y008307D01*
X010505Y008307D01*
X010758Y008408D02*
X011597Y008408D01*
X011597Y008506D02*
X010850Y008506D01*
X010904Y008605D02*
X011597Y008605D01*
X011597Y008703D02*
X010929Y008703D01*
X010933Y008823D02*
X010923Y008883D01*
X010901Y008953D01*
X010867Y009019D01*
X010824Y009078D01*
X010772Y009130D01*
X010713Y009173D01*
X010647Y009207D01*
X010577Y009229D01*
X010505Y009241D01*
X010200Y009241D01*
X010200Y008823D01*
X010933Y008823D01*
X010918Y008900D02*
X011470Y008900D01*
X011470Y008999D02*
X010877Y008999D01*
X010805Y009097D02*
X011470Y009097D01*
X011470Y009196D02*
X010668Y009196D01*
X010200Y009196D02*
X010103Y009196D01*
X010103Y009097D02*
X010200Y009097D01*
X010200Y008999D02*
X010103Y008999D01*
X010103Y008900D02*
X010200Y008900D01*
X010200Y008802D02*
X011537Y008802D01*
X012056Y008802D02*
X012253Y008802D01*
X012181Y008900D02*
X012124Y008900D01*
X012124Y008999D02*
X012178Y008999D01*
X012178Y009097D02*
X012124Y009097D01*
X012124Y009294D02*
X012178Y009294D01*
X012178Y009393D02*
X012124Y009393D01*
X012124Y009492D02*
X012178Y009492D01*
X012224Y009590D02*
X012079Y009590D01*
X011515Y009590D02*
X009287Y009590D01*
X009275Y009603D02*
X009241Y009622D01*
X009202Y009633D01*
X009044Y009633D01*
X009044Y009246D01*
X008967Y009246D01*
X008967Y009633D01*
X008809Y009633D01*
X008770Y009622D01*
X008736Y009603D01*
X008708Y009575D01*
X008689Y009541D01*
X008678Y009502D01*
X008678Y009246D01*
X008967Y009246D01*
X008967Y009169D01*
X008678Y009169D01*
X008678Y008912D01*
X008689Y008874D01*
X008708Y008839D01*
X008736Y008812D01*
X008770Y008792D01*
X008809Y008782D01*
X008967Y008782D01*
X008967Y009168D01*
X009044Y009168D01*
X009044Y008782D01*
X009202Y008782D01*
X009241Y008792D01*
X009275Y008812D01*
X009303Y008839D01*
X009322Y008874D01*
X009333Y008912D01*
X009333Y009169D01*
X009044Y009169D01*
X009044Y009246D01*
X009333Y009246D01*
X009333Y009502D01*
X009322Y009541D01*
X009303Y009575D01*
X009275Y009603D01*
X009333Y009492D02*
X011470Y009492D01*
X011470Y009393D02*
X009333Y009393D01*
X009333Y009294D02*
X011470Y009294D01*
X010200Y008703D02*
X010103Y008703D01*
X010151Y008774D02*
X009351Y008774D01*
X009006Y009120D01*
X009006Y009207D01*
X009044Y009196D02*
X009634Y009196D01*
X009497Y009097D02*
X009333Y009097D01*
X009333Y008999D02*
X009425Y008999D01*
X009384Y008900D02*
X009330Y008900D01*
X009258Y008802D02*
X010102Y008802D01*
X010103Y008605D02*
X010200Y008605D01*
X010200Y008506D02*
X010103Y008506D01*
X010103Y008408D02*
X010200Y008408D01*
X010200Y008309D02*
X010103Y008309D01*
X009786Y008309D02*
X008978Y008309D01*
X008978Y008210D02*
X009668Y008210D01*
X009512Y008112D02*
X008978Y008112D01*
X008978Y008013D02*
X009428Y008013D01*
X009387Y007915D02*
X008878Y007915D01*
X008651Y007859D02*
X008986Y007524D01*
X008986Y006774D01*
X010151Y006774D01*
X009703Y007225D02*
X009312Y007225D01*
X009333Y007324D02*
X009702Y007324D01*
X009526Y007422D02*
X009333Y007422D01*
X009333Y007521D02*
X009434Y007521D01*
X009393Y007619D02*
X009333Y007619D01*
X009333Y007718D02*
X009367Y007718D01*
X009367Y007816D02*
X009319Y007816D01*
X008651Y007859D02*
X008651Y008341D01*
X008978Y008408D02*
X009545Y008408D01*
X009452Y008506D02*
X008978Y008506D01*
X008978Y008605D02*
X009399Y008605D01*
X009373Y008703D02*
X008954Y008703D01*
X008967Y008802D02*
X009044Y008802D01*
X009044Y008900D02*
X008967Y008900D01*
X008967Y008999D02*
X009044Y008999D01*
X009044Y009097D02*
X008967Y009097D01*
X008967Y009196D02*
X008624Y009196D01*
X008624Y009294D02*
X008678Y009294D01*
X008678Y009393D02*
X008624Y009393D01*
X008624Y009492D02*
X008678Y009492D01*
X008724Y009590D02*
X008579Y009590D01*
X008967Y009590D02*
X009044Y009590D01*
X009044Y009492D02*
X008967Y009492D01*
X008967Y009393D02*
X009044Y009393D01*
X009044Y009294D02*
X008967Y009294D01*
X008678Y009097D02*
X008624Y009097D01*
X008624Y008999D02*
X008678Y008999D01*
X008681Y008900D02*
X008624Y008900D01*
X008556Y008802D02*
X008753Y008802D01*
X007970Y009294D02*
X005833Y009294D01*
X005833Y009246D02*
X005833Y009502D01*
X005822Y009541D01*
X005803Y009575D01*
X005775Y009603D01*
X005741Y009622D01*
X005702Y009633D01*
X005544Y009633D01*
X005544Y009246D01*
X005467Y009246D01*
X005467Y009633D01*
X005309Y009633D01*
X005270Y009622D01*
X005236Y009603D01*
X005208Y009575D01*
X005189Y009541D01*
X005178Y009502D01*
X005178Y009246D01*
X005467Y009246D01*
X005467Y009169D01*
X005178Y009169D01*
X005178Y008912D01*
X005189Y008874D01*
X005208Y008839D01*
X005236Y008812D01*
X005270Y008792D01*
X005309Y008782D01*
X005467Y008782D01*
X005467Y009168D01*
X005544Y009168D01*
X005544Y008782D01*
X005702Y008782D01*
X005741Y008792D01*
X005775Y008812D01*
X005803Y008839D01*
X005822Y008874D01*
X005833Y008912D01*
X005833Y009169D01*
X005544Y009169D01*
X005544Y009246D01*
X005833Y009246D01*
X005833Y009097D02*
X005997Y009097D01*
X005925Y008999D02*
X005833Y008999D01*
X005830Y008900D02*
X005884Y008900D01*
X005851Y008774D02*
X006651Y008774D01*
X006602Y008802D02*
X005758Y008802D01*
X005851Y008774D02*
X005506Y009120D01*
X005506Y009207D01*
X005544Y009196D02*
X006134Y009196D01*
X005833Y009393D02*
X007970Y009393D01*
X007970Y009492D02*
X005833Y009492D01*
X005787Y009590D02*
X008015Y009590D01*
X006700Y008703D02*
X006603Y008703D01*
X006603Y008605D02*
X006700Y008605D01*
X006700Y008506D02*
X006603Y008506D01*
X006603Y008408D02*
X006700Y008408D01*
X006700Y008309D02*
X006603Y008309D01*
X006286Y008309D02*
X005478Y008309D01*
X005478Y008210D02*
X006168Y008210D01*
X006012Y008112D02*
X005478Y008112D01*
X005478Y008013D02*
X005928Y008013D01*
X005887Y007915D02*
X005378Y007915D01*
X005151Y007859D02*
X005486Y007524D01*
X005486Y006774D01*
X006651Y006774D01*
X006203Y007225D02*
X005812Y007225D01*
X005833Y007324D02*
X006202Y007324D01*
X006026Y007422D02*
X005833Y007422D01*
X005833Y007521D02*
X005934Y007521D01*
X005893Y007619D02*
X005833Y007619D01*
X005833Y007718D02*
X005867Y007718D01*
X005867Y007816D02*
X005819Y007816D01*
X005151Y007859D02*
X005151Y008341D01*
X005478Y008408D02*
X006045Y008408D01*
X005952Y008506D02*
X005478Y008506D01*
X005478Y008605D02*
X005899Y008605D01*
X005873Y008703D02*
X005454Y008703D01*
X005467Y008802D02*
X005544Y008802D01*
X005544Y008900D02*
X005467Y008900D01*
X005467Y008999D02*
X005544Y008999D01*
X005544Y009097D02*
X005467Y009097D01*
X005467Y009196D02*
X005124Y009196D01*
X005124Y009294D02*
X005178Y009294D01*
X005178Y009393D02*
X005124Y009393D01*
X005124Y009492D02*
X005178Y009492D01*
X005224Y009590D02*
X005079Y009590D01*
X005467Y009590D02*
X005544Y009590D01*
X005544Y009492D02*
X005467Y009492D01*
X005467Y009393D02*
X005544Y009393D01*
X005544Y009294D02*
X005467Y009294D01*
X005178Y009097D02*
X005124Y009097D01*
X005124Y008999D02*
X005178Y008999D01*
X005181Y008900D02*
X005124Y008900D01*
X005056Y008802D02*
X005253Y008802D01*
X004597Y008703D02*
X003929Y008703D01*
X003904Y008605D02*
X004597Y008605D01*
X004597Y008506D02*
X003850Y008506D01*
X003758Y008408D02*
X004597Y008408D01*
X004597Y008309D02*
X003516Y008309D01*
X003561Y008241D02*
X003732Y008170D01*
X003864Y008039D01*
X003935Y007867D01*
X003935Y007681D01*
X003864Y007510D01*
X003732Y007378D01*
X003561Y007307D01*
X002741Y007307D01*
X002570Y007378D01*
X002439Y007510D01*
X002367Y007681D01*
X002367Y007867D01*
X002439Y008039D01*
X002570Y008170D01*
X002741Y008241D01*
X003561Y008241D01*
X003634Y008210D02*
X004597Y008210D01*
X004597Y008112D02*
X003790Y008112D01*
X003874Y008013D02*
X004597Y008013D01*
X004597Y007915D02*
X003915Y007915D01*
X003935Y007816D02*
X004483Y007816D01*
X004470Y007718D02*
X003935Y007718D01*
X003909Y007619D02*
X004470Y007619D01*
X004470Y007521D02*
X003868Y007521D01*
X003776Y007422D02*
X004432Y007422D01*
X004333Y007324D02*
X003600Y007324D01*
X003599Y007225D02*
X004235Y007225D01*
X004201Y007126D02*
X003776Y007126D01*
X003868Y007028D02*
X004201Y007028D01*
X004201Y006929D02*
X003909Y006929D01*
X003935Y006831D02*
X004201Y006831D01*
X004201Y006732D02*
X003935Y006732D01*
X003915Y006634D02*
X004201Y006634D01*
X004201Y006535D02*
X003874Y006535D01*
X003791Y006437D02*
X004201Y006437D01*
X004201Y006338D02*
X003635Y006338D01*
X003564Y006240D02*
X004201Y006240D01*
X004201Y006141D02*
X003761Y006141D01*
X003860Y006043D02*
X004201Y006043D01*
X004201Y005944D02*
X003903Y005944D01*
X003935Y005845D02*
X004201Y005845D01*
X004201Y005747D02*
X003935Y005747D01*
X003921Y005648D02*
X004201Y005648D01*
X004201Y005550D02*
X003880Y005550D01*
X003805Y005451D02*
X004201Y005451D01*
X004201Y005353D02*
X003671Y005353D01*
X004051Y005024D02*
X001986Y005024D01*
X002333Y005156D02*
X004201Y005156D01*
X004201Y005254D02*
X002333Y005254D01*
X002283Y005353D02*
X002632Y005353D01*
X002497Y005451D02*
X002289Y005451D01*
X002333Y005550D02*
X002422Y005550D01*
X001986Y005774D02*
X003151Y005774D01*
X002738Y006240D02*
X002701Y006240D01*
X002351Y006274D02*
X001751Y006274D01*
X001317Y006709D01*
X001317Y006774D01*
X000701Y006732D02*
X000301Y006732D01*
X000301Y006634D02*
X000701Y006634D01*
X000701Y006535D02*
X000301Y006535D01*
X000301Y006437D02*
X000701Y006437D01*
X000701Y006338D02*
X000301Y006338D01*
X000301Y006240D02*
X000701Y006240D01*
X000701Y006141D02*
X000301Y006141D01*
X000301Y006043D02*
X000701Y006043D01*
X000701Y005944D02*
X000301Y005944D01*
X000301Y005845D02*
X000701Y005845D01*
X000701Y005747D02*
X000301Y005747D01*
X000301Y005648D02*
X000701Y005648D01*
X000701Y005550D02*
X000301Y005550D01*
X000301Y005451D02*
X000701Y005451D01*
X000701Y005353D02*
X000301Y005353D01*
X000301Y005254D02*
X000701Y005254D01*
X000701Y005156D02*
X000301Y005156D01*
X000301Y005057D02*
X000701Y005057D01*
X000701Y004959D02*
X000301Y004959D01*
X000301Y004860D02*
X000701Y004860D01*
X000701Y004761D02*
X000301Y004761D01*
X000301Y004663D02*
X000701Y004663D01*
X000701Y004564D02*
X000301Y004564D01*
X000301Y004466D02*
X000777Y004466D01*
X000875Y004367D02*
X000301Y004367D01*
X000301Y004269D02*
X000974Y004269D01*
X001072Y004170D02*
X000301Y004170D01*
X000301Y004072D02*
X001171Y004072D01*
X001204Y003875D02*
X000301Y003875D01*
X000301Y003973D02*
X001539Y003973D01*
X001174Y003866D02*
X001174Y003866D01*
X001034Y003776D02*
X000301Y003776D01*
X000301Y003677D02*
X000881Y003677D01*
X000740Y003579D02*
X000301Y003579D01*
X000301Y003480D02*
X000654Y003480D01*
X000569Y003382D02*
X000301Y003382D01*
X000301Y003283D02*
X000484Y003283D01*
X000413Y003185D02*
X000301Y003185D01*
X000301Y003086D02*
X000368Y003086D01*
X000323Y002988D02*
X000301Y002988D01*
X002263Y003973D02*
X003519Y003973D01*
X003618Y003875D02*
X002599Y003875D01*
X002628Y003866D02*
X002628Y003866D01*
X002768Y003776D02*
X003716Y003776D01*
X003815Y003677D02*
X002921Y003677D01*
X003047Y003597D02*
X003047Y003597D01*
X003063Y003579D02*
X003913Y003579D01*
X004012Y003480D02*
X003148Y003480D01*
X003233Y003382D02*
X004111Y003382D01*
X004209Y003283D02*
X003319Y003283D01*
X003390Y003185D02*
X004308Y003185D01*
X006635Y003973D02*
X006719Y003973D01*
X006734Y003875D02*
X006818Y003875D01*
X006832Y003776D02*
X006916Y003776D01*
X006931Y003677D02*
X007015Y003677D01*
X007029Y003579D02*
X007113Y003579D01*
X007101Y003480D02*
X007201Y003480D01*
X007201Y003382D02*
X007101Y003382D01*
X007101Y003283D02*
X007201Y003283D01*
X007201Y003185D02*
X007101Y003185D01*
X007101Y003086D02*
X007201Y003086D01*
X007201Y002988D02*
X007101Y002988D01*
X007101Y002889D02*
X007201Y002889D01*
X007201Y002791D02*
X007101Y002791D01*
X007101Y002692D02*
X007201Y002692D01*
X007190Y002594D02*
X007201Y002594D01*
X006901Y002274D02*
X006901Y003424D01*
X008301Y004574D02*
X008301Y005009D01*
X008317Y005024D01*
X008317Y005774D01*
X008619Y005451D02*
X008683Y005451D01*
X008689Y005353D02*
X008613Y005353D01*
X008937Y005353D02*
X009034Y005353D01*
X009034Y005254D02*
X008937Y005254D01*
X008937Y005156D02*
X009034Y005156D01*
X009034Y004959D02*
X008937Y004959D01*
X008937Y004860D02*
X009034Y004860D01*
X009034Y004761D02*
X008937Y004761D01*
X008937Y004663D02*
X009034Y004663D01*
X008749Y004663D02*
X008581Y004663D01*
X008594Y004564D02*
X011201Y004564D01*
X011110Y004466D02*
X008692Y004466D01*
X008791Y004367D02*
X011012Y004367D01*
X010913Y004269D02*
X008889Y004269D01*
X008988Y004170D02*
X010814Y004170D01*
X010716Y004072D02*
X009086Y004072D01*
X009101Y003973D02*
X010617Y003973D01*
X010519Y003875D02*
X009101Y003875D01*
X009101Y003776D02*
X010420Y003776D01*
X010322Y003677D02*
X009101Y003677D01*
X009101Y003579D02*
X010223Y003579D01*
X010125Y003480D02*
X009101Y003480D01*
X009101Y003382D02*
X010026Y003382D01*
X009928Y003283D02*
X009101Y003283D01*
X009101Y003185D02*
X009829Y003185D01*
X009731Y003086D02*
X009101Y003086D01*
X009101Y002988D02*
X009632Y002988D01*
X009533Y002889D02*
X009101Y002889D01*
X009101Y002791D02*
X009435Y002791D01*
X009336Y002692D02*
X009101Y002692D01*
X009190Y002594D02*
X009238Y002594D01*
X008901Y002274D02*
X008901Y003974D01*
X008301Y004574D01*
X009283Y005353D02*
X009632Y005353D01*
X009497Y005451D02*
X009289Y005451D01*
X009333Y005550D02*
X009422Y005550D01*
X008986Y005774D02*
X010151Y005774D01*
X009738Y006240D02*
X009701Y006240D01*
X009351Y006274D02*
X008751Y006274D01*
X008317Y006709D01*
X008317Y006774D01*
X009259Y007126D02*
X009527Y007126D01*
X009434Y007028D02*
X009333Y007028D01*
X011817Y006774D02*
X011817Y006709D01*
X012251Y006274D01*
X012851Y006274D01*
X013201Y006240D02*
X013238Y006240D01*
X013651Y005774D02*
X012486Y005774D01*
X012833Y005550D02*
X012922Y005550D01*
X012997Y005451D02*
X012789Y005451D01*
X012783Y005353D02*
X013132Y005353D01*
X012833Y005254D02*
X015001Y005254D01*
X015001Y005156D02*
X012833Y005156D01*
X012486Y006774D02*
X012486Y007524D01*
X012151Y007859D01*
X012151Y008341D01*
X013603Y008309D02*
X013700Y008309D01*
X013700Y008408D02*
X013603Y008408D01*
X013603Y008506D02*
X013700Y008506D01*
X013700Y008605D02*
X013603Y008605D01*
X013603Y008703D02*
X013700Y008703D01*
X013700Y008802D02*
X015001Y008802D01*
X015001Y008900D02*
X014418Y008900D01*
X014377Y008999D02*
X015001Y008999D01*
X015001Y009097D02*
X014305Y009097D01*
X014272Y009324D02*
X014272Y009724D01*
X014072Y009724D01*
X014005Y009658D01*
X014005Y009524D01*
X014072Y009458D01*
X014272Y009458D01*
X014465Y009524D02*
X014732Y009524D01*
X014732Y009591D02*
X014599Y009724D01*
X014465Y009591D01*
X014465Y009324D01*
X014732Y009324D02*
X014732Y009591D01*
X014917Y009689D02*
X015001Y009689D01*
X015001Y009787D02*
X014819Y009787D01*
X014932Y009590D02*
X015001Y009590D01*
X015001Y009492D02*
X014932Y009492D01*
X014932Y009393D02*
X015001Y009393D01*
X015001Y009294D02*
X014932Y009294D01*
X014887Y009196D02*
X015001Y009196D01*
X015001Y008703D02*
X014429Y008703D01*
X014404Y008605D02*
X015001Y008605D01*
X015001Y008506D02*
X014350Y008506D01*
X014258Y008408D02*
X015001Y008408D01*
X015001Y008309D02*
X014016Y008309D01*
X014134Y008210D02*
X015001Y008210D01*
X015001Y008112D02*
X014290Y008112D01*
X014374Y008013D02*
X015001Y008013D01*
X015001Y007915D02*
X014415Y007915D01*
X014435Y007816D02*
X015001Y007816D01*
X015001Y007718D02*
X014435Y007718D01*
X014409Y007619D02*
X015001Y007619D01*
X015001Y007521D02*
X014368Y007521D01*
X014276Y007422D02*
X015001Y007422D01*
X015001Y007324D02*
X014100Y007324D01*
X013812Y009324D02*
X013611Y009324D01*
X013545Y009391D01*
X013545Y009458D01*
X013611Y009524D01*
X013812Y009524D01*
X013611Y009524D02*
X013545Y009591D01*
X013545Y009658D01*
X013611Y009724D01*
X013812Y009724D01*
X013812Y009324D01*
X013345Y009689D02*
X000301Y009689D01*
X000301Y009787D02*
X013391Y009787D01*
X006651Y005774D02*
X005486Y005774D01*
X005833Y005550D02*
X005922Y005550D01*
X005997Y005451D02*
X005789Y005451D01*
X005783Y005353D02*
X006132Y005353D01*
X006201Y006240D02*
X006238Y006240D01*
X005851Y006274D02*
X005251Y006274D01*
X004817Y006709D01*
X004817Y006774D01*
X005759Y007126D02*
X006027Y007126D01*
X005934Y007028D02*
X005833Y007028D01*
X003151Y006774D02*
X001986Y006774D01*
X001986Y007524D01*
X001651Y007859D01*
X001651Y008341D01*
X001978Y008309D02*
X002786Y008309D01*
X002668Y008210D02*
X001978Y008210D01*
X001978Y008112D02*
X002512Y008112D01*
X002428Y008013D02*
X001978Y008013D01*
X001878Y007915D02*
X002387Y007915D01*
X002367Y007816D02*
X002319Y007816D01*
X002333Y007718D02*
X002367Y007718D01*
X002393Y007619D02*
X002333Y007619D01*
X002333Y007521D02*
X002434Y007521D01*
X002526Y007422D02*
X002333Y007422D01*
X002333Y007324D02*
X002702Y007324D01*
X002703Y007225D02*
X002312Y007225D01*
X002259Y007126D02*
X002527Y007126D01*
X002434Y007028D02*
X002333Y007028D01*
X001097Y007915D02*
X000301Y007915D01*
X000301Y008013D02*
X001097Y008013D01*
X001097Y008112D02*
X000301Y008112D01*
X000301Y008210D02*
X001097Y008210D01*
X001097Y008309D02*
X000301Y008309D01*
X000301Y008408D02*
X001097Y008408D01*
X001097Y008506D02*
X000301Y008506D01*
X000301Y008605D02*
X001097Y008605D01*
X001097Y008703D02*
X000301Y008703D01*
X000301Y008802D02*
X001037Y008802D01*
X000970Y008900D02*
X000301Y008900D01*
X000301Y008999D02*
X000970Y008999D01*
X000970Y009097D02*
X000301Y009097D01*
X000301Y009196D02*
X000970Y009196D01*
X000970Y009294D02*
X000301Y009294D01*
X000301Y009393D02*
X000970Y009393D01*
X000970Y009492D02*
X000301Y009492D01*
X000301Y009590D02*
X001015Y009590D01*
X001579Y009590D02*
X001724Y009590D01*
X001678Y009492D02*
X001624Y009492D01*
X001624Y009393D02*
X001678Y009393D01*
X001678Y009294D02*
X001624Y009294D01*
X001624Y009097D02*
X001678Y009097D01*
X001678Y008999D02*
X001624Y008999D01*
X001624Y008900D02*
X001681Y008900D01*
X001753Y008802D02*
X001556Y008802D01*
X001954Y008703D02*
X002373Y008703D01*
X002399Y008605D02*
X001978Y008605D01*
X001978Y008506D02*
X002452Y008506D01*
X002545Y008408D02*
X001978Y008408D01*
X001967Y008802D02*
X002044Y008802D01*
X002044Y008900D02*
X001967Y008900D01*
X001967Y008999D02*
X002044Y008999D01*
X002044Y009097D02*
X001967Y009097D01*
X003103Y008703D02*
X003200Y008703D01*
X003200Y008605D02*
X003103Y008605D01*
X003103Y008506D02*
X003200Y008506D01*
X003200Y008408D02*
X003103Y008408D01*
X003103Y008309D02*
X003200Y008309D01*
X000983Y007816D02*
X000301Y007816D01*
X000301Y007718D02*
X000970Y007718D01*
X000970Y007619D02*
X000301Y007619D01*
X000301Y007521D02*
X000970Y007521D01*
X000932Y007422D02*
X000301Y007422D01*
X000301Y007324D02*
X000833Y007324D01*
X000735Y007225D02*
X000301Y007225D01*
X000301Y007126D02*
X000701Y007126D01*
X000701Y007028D02*
X000301Y007028D01*
X000301Y006929D02*
X000701Y006929D01*
X000701Y006831D02*
X000301Y006831D01*
X007601Y001904D02*
X007672Y001904D01*
X007601Y001805D02*
X008201Y001805D01*
X008201Y001707D02*
X007601Y001707D01*
X007675Y001608D02*
X008127Y001608D01*
X008033Y001510D02*
X007769Y001510D01*
X007810Y001411D02*
X007992Y001411D01*
X007971Y001312D02*
X007831Y001312D01*
X007831Y001214D02*
X007971Y001214D01*
X008001Y001115D02*
X007801Y001115D01*
X007752Y001017D02*
X008050Y001017D01*
X008149Y000918D02*
X007653Y000918D01*
X007149Y000918D02*
X006653Y000918D01*
X006752Y001017D02*
X007050Y001017D01*
X008131Y001904D02*
X008201Y001904D01*
X008752Y001017D02*
X009050Y001017D01*
X009149Y000918D02*
X008653Y000918D01*
X005431Y000918D02*
X005371Y000918D01*
X005371Y001017D02*
X005431Y001017D01*
X005431Y001115D02*
X005371Y001115D01*
X005371Y001214D02*
X005431Y001214D01*
X005431Y001312D02*
X005371Y001312D01*
X005371Y001411D02*
X005431Y001411D01*
X005431Y001510D02*
X005371Y001510D01*
X005371Y001608D02*
X005431Y001608D01*
D11*
X006334Y005774D02*
X006968Y005774D01*
X006968Y006774D02*
X006334Y006774D01*
X006334Y007774D02*
X006968Y007774D01*
X006968Y008774D02*
X006334Y008774D01*
X003468Y008774D02*
X002834Y008774D01*
X002834Y007774D02*
X003468Y007774D01*
X003468Y006774D02*
X002834Y006774D01*
X002834Y005774D02*
X003468Y005774D01*
X009834Y005774D02*
X010468Y005774D01*
X010468Y006774D02*
X009834Y006774D01*
X009834Y007774D02*
X010468Y007774D01*
X010468Y008774D02*
X009834Y008774D01*
X013334Y008774D02*
X013968Y008774D01*
X013968Y007774D02*
X013334Y007774D01*
X013334Y006774D02*
X013968Y006774D01*
X013968Y005774D02*
X013334Y005774D01*
D12*
X012486Y005774D03*
X011817Y005774D03*
X011817Y005024D03*
X012486Y005024D03*
X012486Y006774D03*
X011817Y006774D03*
X011817Y007524D03*
X012486Y007524D03*
X008986Y007524D03*
X008317Y007524D03*
X008317Y006774D03*
X008986Y006774D03*
X008986Y005774D03*
X008317Y005774D03*
X008317Y005024D03*
X008986Y005024D03*
X005486Y005024D03*
X004817Y005024D03*
X004817Y005774D03*
X005486Y005774D03*
X005486Y006774D03*
X004817Y006774D03*
X004817Y007524D03*
X005486Y007524D03*
X001986Y007524D03*
X001317Y007524D03*
X001317Y006774D03*
X001986Y006774D03*
X001986Y005774D03*
X001317Y005774D03*
X001317Y005024D03*
X001986Y005024D03*
D13*
X001651Y008341D03*
X001297Y009207D03*
X002006Y009207D03*
X004797Y009207D03*
X005506Y009207D03*
X005151Y008341D03*
X008297Y009207D03*
X009006Y009207D03*
X008651Y008341D03*
X011797Y009207D03*
X012506Y009207D03*
X012151Y008341D03*
D14*
X009901Y002274D03*
X008901Y002274D03*
X007901Y002274D03*
X006901Y002274D03*
X005901Y002274D03*
X005401Y001274D03*
X006401Y001274D03*
X007401Y001274D03*
X008401Y001274D03*
X009401Y001274D03*
D15*
X011051Y005024D02*
X011051Y008424D01*
X010701Y008774D01*
X010151Y008774D01*
X007551Y008424D02*
X007201Y008774D01*
X006651Y008774D01*
X007551Y008424D02*
X007551Y005024D01*
X004051Y005024D02*
X004051Y008424D01*
X003701Y008774D01*
X003151Y008774D01*
X013651Y008774D02*
X014251Y008774D01*
X014551Y008474D01*
X014551Y005024D01*
D16*
X014551Y005024D03*
X012851Y006274D03*
X011051Y005024D03*
X009351Y006274D03*
X007551Y005024D03*
X005851Y006274D03*
X004051Y005024D03*
X002351Y006274D03*
M02*
