G75*
G70*
%OFA0B0*%
%FSLAX24Y24*%
%IPPOS*%
%LPD*%
%AMOC8*
5,1,8,0,0,1.08239X$1,22.5*
%
%ADD10C,0.0000*%
%ADD11C,0.0100*%
%ADD12C,0.0634*%
%ADD13C,0.0560*%
%ADD14C,0.0200*%
%ADD15C,0.0400*%
D10*
X000151Y000524D02*
X000151Y010024D01*
X015151Y010024D01*
X015151Y000524D01*
X000151Y000524D01*
X001251Y002274D02*
X001253Y002324D01*
X001259Y002374D01*
X001269Y002424D01*
X001282Y002472D01*
X001299Y002520D01*
X001320Y002566D01*
X001344Y002610D01*
X001372Y002652D01*
X001403Y002692D01*
X001437Y002729D01*
X001474Y002764D01*
X001513Y002795D01*
X001554Y002824D01*
X001598Y002849D01*
X001644Y002871D01*
X001691Y002889D01*
X001739Y002903D01*
X001788Y002914D01*
X001838Y002921D01*
X001888Y002924D01*
X001939Y002923D01*
X001989Y002918D01*
X002039Y002909D01*
X002087Y002897D01*
X002135Y002880D01*
X002181Y002860D01*
X002226Y002837D01*
X002269Y002810D01*
X002309Y002780D01*
X002347Y002747D01*
X002382Y002711D01*
X002415Y002672D01*
X002444Y002631D01*
X002470Y002588D01*
X002493Y002543D01*
X002512Y002496D01*
X002527Y002448D01*
X002539Y002399D01*
X002547Y002349D01*
X002551Y002299D01*
X002551Y002249D01*
X002547Y002199D01*
X002539Y002149D01*
X002527Y002100D01*
X002512Y002052D01*
X002493Y002005D01*
X002470Y001960D01*
X002444Y001917D01*
X002415Y001876D01*
X002382Y001837D01*
X002347Y001801D01*
X002309Y001768D01*
X002269Y001738D01*
X002226Y001711D01*
X002181Y001688D01*
X002135Y001668D01*
X002087Y001651D01*
X002039Y001639D01*
X001989Y001630D01*
X001939Y001625D01*
X001888Y001624D01*
X001838Y001627D01*
X001788Y001634D01*
X001739Y001645D01*
X001691Y001659D01*
X001644Y001677D01*
X001598Y001699D01*
X001554Y001724D01*
X001513Y001753D01*
X001474Y001784D01*
X001437Y001819D01*
X001403Y001856D01*
X001372Y001896D01*
X001344Y001938D01*
X001320Y001982D01*
X001299Y002028D01*
X001282Y002076D01*
X001269Y002124D01*
X001259Y002174D01*
X001253Y002224D01*
X001251Y002274D01*
X012751Y002274D02*
X012753Y002324D01*
X012759Y002374D01*
X012769Y002424D01*
X012782Y002472D01*
X012799Y002520D01*
X012820Y002566D01*
X012844Y002610D01*
X012872Y002652D01*
X012903Y002692D01*
X012937Y002729D01*
X012974Y002764D01*
X013013Y002795D01*
X013054Y002824D01*
X013098Y002849D01*
X013144Y002871D01*
X013191Y002889D01*
X013239Y002903D01*
X013288Y002914D01*
X013338Y002921D01*
X013388Y002924D01*
X013439Y002923D01*
X013489Y002918D01*
X013539Y002909D01*
X013587Y002897D01*
X013635Y002880D01*
X013681Y002860D01*
X013726Y002837D01*
X013769Y002810D01*
X013809Y002780D01*
X013847Y002747D01*
X013882Y002711D01*
X013915Y002672D01*
X013944Y002631D01*
X013970Y002588D01*
X013993Y002543D01*
X014012Y002496D01*
X014027Y002448D01*
X014039Y002399D01*
X014047Y002349D01*
X014051Y002299D01*
X014051Y002249D01*
X014047Y002199D01*
X014039Y002149D01*
X014027Y002100D01*
X014012Y002052D01*
X013993Y002005D01*
X013970Y001960D01*
X013944Y001917D01*
X013915Y001876D01*
X013882Y001837D01*
X013847Y001801D01*
X013809Y001768D01*
X013769Y001738D01*
X013726Y001711D01*
X013681Y001688D01*
X013635Y001668D01*
X013587Y001651D01*
X013539Y001639D01*
X013489Y001630D01*
X013439Y001625D01*
X013388Y001624D01*
X013338Y001627D01*
X013288Y001634D01*
X013239Y001645D01*
X013191Y001659D01*
X013144Y001677D01*
X013098Y001699D01*
X013054Y001724D01*
X013013Y001753D01*
X012974Y001784D01*
X012937Y001819D01*
X012903Y001856D01*
X012872Y001896D01*
X012844Y001938D01*
X012820Y001982D01*
X012799Y002028D01*
X012782Y002076D01*
X012769Y002124D01*
X012759Y002174D01*
X012753Y002224D01*
X012751Y002274D01*
D11*
X011676Y002101D02*
X010295Y002101D01*
X010266Y002031D02*
X010331Y002189D01*
X010331Y002360D01*
X010266Y002518D01*
X010145Y002639D01*
X009987Y002704D01*
X009816Y002704D01*
X009658Y002639D01*
X009537Y002518D01*
X009471Y002360D01*
X009471Y002189D01*
X009537Y002031D01*
X009658Y001910D01*
X009816Y001844D01*
X009987Y001844D01*
X010145Y001910D01*
X010266Y002031D01*
X010237Y002002D02*
X011690Y002002D01*
X011704Y001904D02*
X010131Y001904D01*
X010331Y002199D02*
X011662Y002199D01*
X011651Y002274D02*
X011722Y001781D01*
X011929Y001328D01*
X012255Y000952D01*
X012255Y000952D01*
X012674Y000682D01*
X012702Y000674D01*
X004234Y000674D01*
X004301Y000741D01*
X004301Y000907D01*
X004301Y001174D01*
X004254Y001221D01*
X004301Y001268D01*
X004301Y001434D01*
X004301Y001455D01*
X004301Y001567D01*
X004301Y001567D01*
X004301Y001567D01*
X004256Y001613D01*
X004254Y001615D01*
X004301Y001662D01*
X004301Y002095D01*
X004287Y002108D01*
X004301Y002122D01*
X004301Y002555D01*
X004184Y002672D01*
X004018Y002672D01*
X003901Y002555D01*
X003901Y002539D01*
X003618Y002539D01*
X003614Y002534D01*
X003580Y002767D01*
X003373Y003220D01*
X003373Y003220D01*
X003047Y003597D01*
X002628Y003866D01*
X002150Y004006D01*
X001652Y004006D01*
X001174Y003866D01*
X000755Y003597D01*
X000755Y003597D01*
X000755Y003597D01*
X000429Y003220D01*
X000301Y002940D01*
X000301Y009874D01*
X013570Y009874D01*
X013561Y009865D01*
X013370Y009674D01*
X013370Y009607D01*
X013370Y009441D01*
X013370Y009241D01*
X013370Y009241D01*
X013298Y009241D01*
X013225Y009229D01*
X013155Y009207D01*
X013090Y009173D01*
X013030Y009130D01*
X012978Y009078D01*
X012935Y009019D01*
X012902Y008953D01*
X012879Y008883D01*
X012869Y008823D01*
X013602Y008823D01*
X013602Y008726D01*
X012869Y008726D01*
X012879Y008665D01*
X012902Y008595D01*
X012935Y008529D01*
X012978Y008470D01*
X013030Y008418D01*
X013090Y008375D01*
X013155Y008341D01*
X013225Y008319D01*
X013298Y008307D01*
X013603Y008307D01*
X013603Y008725D01*
X013700Y008725D01*
X013700Y008307D01*
X014005Y008307D01*
X014077Y008319D01*
X014147Y008341D01*
X014213Y008375D01*
X014272Y008418D01*
X014324Y008470D01*
X014367Y008529D01*
X014401Y008595D01*
X014423Y008665D01*
X014433Y008726D01*
X013700Y008726D01*
X013700Y008823D01*
X014433Y008823D01*
X014423Y008883D01*
X014401Y008953D01*
X014367Y009019D01*
X014324Y009078D01*
X014272Y009130D01*
X014213Y009173D01*
X014179Y009190D01*
X014230Y009241D01*
X014230Y009258D01*
X014291Y009258D01*
X014291Y009241D01*
X014408Y009124D01*
X014692Y009124D01*
X014774Y009124D01*
X014840Y009191D01*
X014840Y009191D01*
X014956Y009307D01*
X014958Y009308D01*
X014958Y009390D01*
X014958Y009474D01*
X014958Y009540D01*
X014958Y009674D01*
X014958Y009741D01*
X014840Y009858D01*
X014824Y009874D01*
X015001Y009874D01*
X015001Y002940D01*
X014873Y003220D01*
X014873Y003220D01*
X014547Y003597D01*
X014128Y003866D01*
X013650Y004006D01*
X013152Y004006D01*
X012674Y003866D01*
X012255Y003597D01*
X012255Y003597D01*
X012255Y003597D01*
X011929Y003220D01*
X011722Y002767D01*
X011651Y002274D01*
X011651Y002274D01*
X011655Y002298D02*
X010331Y002298D01*
X010316Y002396D02*
X011669Y002396D01*
X011683Y002495D02*
X010275Y002495D01*
X010190Y002594D02*
X011697Y002594D01*
X011711Y002692D02*
X010016Y002692D01*
X009787Y002692D02*
X009016Y002692D01*
X008987Y002704D02*
X008816Y002704D01*
X008658Y002639D01*
X008537Y002518D01*
X008471Y002360D01*
X008471Y002189D01*
X008537Y002031D01*
X008658Y001910D01*
X008816Y001844D01*
X008987Y001844D01*
X009145Y001910D01*
X009266Y002031D01*
X009331Y002189D01*
X009331Y002360D01*
X009266Y002518D01*
X009145Y002639D01*
X008987Y002704D01*
X008787Y002692D02*
X008016Y002692D01*
X007987Y002704D02*
X007816Y002704D01*
X007658Y002639D01*
X007537Y002518D01*
X007471Y002360D01*
X007471Y002189D01*
X007537Y002031D01*
X007658Y001910D01*
X007816Y001844D01*
X007987Y001844D01*
X008145Y001910D01*
X008266Y002031D01*
X008331Y002189D01*
X008331Y002360D01*
X008266Y002518D01*
X008145Y002639D01*
X007987Y002704D01*
X007787Y002692D02*
X007016Y002692D01*
X006987Y002704D02*
X007145Y002639D01*
X007266Y002518D01*
X007331Y002360D01*
X007331Y002189D01*
X007266Y002031D01*
X007145Y001910D01*
X006987Y001844D01*
X006816Y001844D01*
X006658Y001910D01*
X006537Y002031D01*
X006471Y002189D01*
X006471Y002360D01*
X006537Y002518D01*
X006658Y002639D01*
X006816Y002704D01*
X006987Y002704D01*
X006787Y002692D02*
X006151Y002692D01*
X006151Y002632D02*
X006151Y003874D01*
X006151Y003974D01*
X006113Y004066D01*
X004301Y005878D01*
X004301Y007524D01*
X005651Y007524D01*
X005651Y006569D01*
X005554Y006472D01*
X005501Y006344D01*
X005501Y006204D01*
X005554Y006076D01*
X005653Y005977D01*
X005782Y005924D01*
X005891Y005924D01*
X005867Y005867D01*
X005867Y005681D01*
X005939Y005510D01*
X006070Y005378D01*
X006241Y005307D01*
X007061Y005307D01*
X007232Y005378D01*
X007364Y005510D01*
X007435Y005681D01*
X007435Y005867D01*
X007364Y006039D01*
X007232Y006170D01*
X007061Y006241D01*
X006241Y006241D01*
X006201Y006224D01*
X006201Y006324D01*
X006241Y006307D01*
X007061Y006307D01*
X007232Y006378D01*
X007364Y006510D01*
X007435Y006681D01*
X007435Y006867D01*
X007364Y007039D01*
X007232Y007170D01*
X007061Y007241D01*
X006241Y007241D01*
X006070Y007170D01*
X006051Y007151D01*
X006051Y007397D01*
X006070Y007378D01*
X006241Y007307D01*
X007061Y007307D01*
X007232Y007378D01*
X007364Y007510D01*
X007370Y007524D01*
X009151Y007524D01*
X009151Y006569D01*
X009054Y006472D01*
X009001Y006344D01*
X009001Y006204D01*
X009054Y006076D01*
X009153Y005977D01*
X009282Y005924D01*
X009391Y005924D01*
X009367Y005867D01*
X009367Y005681D01*
X009439Y005510D01*
X009570Y005378D01*
X009741Y005307D01*
X010561Y005307D01*
X010732Y005378D01*
X010864Y005510D01*
X010935Y005681D01*
X010935Y005867D01*
X010864Y006039D01*
X010732Y006170D01*
X010561Y006241D01*
X009741Y006241D01*
X009701Y006224D01*
X009701Y006324D01*
X009741Y006307D01*
X010561Y006307D01*
X010732Y006378D01*
X010864Y006510D01*
X010935Y006681D01*
X010935Y006867D01*
X010864Y007039D01*
X010732Y007170D01*
X010561Y007241D01*
X009741Y007241D01*
X009570Y007170D01*
X009551Y007151D01*
X009551Y007397D01*
X009570Y007378D01*
X009741Y007307D01*
X010561Y007307D01*
X010732Y007378D01*
X010864Y007510D01*
X010870Y007524D01*
X012651Y007524D01*
X012651Y006569D01*
X012554Y006472D01*
X012501Y006344D01*
X012501Y006204D01*
X012554Y006076D01*
X012653Y005977D01*
X012782Y005924D01*
X012891Y005924D01*
X012867Y005867D01*
X012867Y005681D01*
X012939Y005510D01*
X013070Y005378D01*
X013241Y005307D01*
X014061Y005307D01*
X014232Y005378D01*
X014364Y005510D01*
X014435Y005681D01*
X014435Y005867D01*
X014364Y006039D01*
X014232Y006170D01*
X014061Y006241D01*
X013241Y006241D01*
X013201Y006224D01*
X013201Y006324D01*
X013241Y006307D01*
X014061Y006307D01*
X014232Y006378D01*
X014364Y006510D01*
X014435Y006681D01*
X014435Y006867D01*
X014364Y007039D01*
X014232Y007170D01*
X014061Y007241D01*
X013241Y007241D01*
X013070Y007170D01*
X013051Y007151D01*
X013051Y007397D01*
X013070Y007378D01*
X013241Y007307D01*
X014061Y007307D01*
X014232Y007378D01*
X014364Y007510D01*
X014435Y007681D01*
X014435Y007867D01*
X014364Y008039D01*
X014232Y008170D01*
X014061Y008241D01*
X013241Y008241D01*
X013070Y008170D01*
X012939Y008039D01*
X012933Y008024D01*
X012801Y008024D01*
X010870Y008024D01*
X010864Y008039D01*
X010732Y008170D01*
X010561Y008241D01*
X009741Y008241D01*
X009570Y008170D01*
X009439Y008039D01*
X009433Y008024D01*
X009301Y008024D01*
X007370Y008024D01*
X007364Y008039D01*
X007232Y008170D01*
X007061Y008241D01*
X006241Y008241D01*
X006070Y008170D01*
X005939Y008039D01*
X005933Y008024D01*
X005801Y008024D01*
X004001Y008024D01*
X003870Y008024D01*
X003864Y008039D01*
X003732Y008170D01*
X003561Y008241D01*
X002741Y008241D01*
X002570Y008170D01*
X002439Y008039D01*
X002412Y007974D01*
X002368Y007974D01*
X002251Y007857D01*
X002151Y007757D01*
X002151Y007591D01*
X002151Y006569D01*
X002054Y006472D01*
X002001Y006344D01*
X002001Y006204D01*
X002054Y006076D01*
X002153Y005977D01*
X002282Y005924D01*
X002391Y005924D01*
X002367Y005867D01*
X002367Y005681D01*
X002439Y005510D01*
X002570Y005378D01*
X002741Y005307D01*
X003561Y005307D01*
X003732Y005378D01*
X003864Y005510D01*
X003893Y005579D01*
X003910Y005562D01*
X005651Y003821D01*
X005651Y002632D01*
X005537Y002518D01*
X005471Y002360D01*
X005471Y002189D01*
X005537Y002031D01*
X005658Y001910D01*
X005816Y001844D01*
X005987Y001844D01*
X006145Y001910D01*
X006266Y002031D01*
X006331Y002189D01*
X006331Y002360D01*
X006266Y002518D01*
X006151Y002632D01*
X006190Y002594D02*
X006613Y002594D01*
X006527Y002495D02*
X006275Y002495D01*
X006316Y002396D02*
X006486Y002396D01*
X006471Y002298D02*
X006331Y002298D01*
X006331Y002199D02*
X006471Y002199D01*
X006508Y002101D02*
X006295Y002101D01*
X006237Y002002D02*
X006565Y002002D01*
X006672Y001904D02*
X006131Y001904D01*
X006158Y001639D02*
X006037Y001518D01*
X005971Y001360D01*
X005971Y001189D01*
X006037Y001031D01*
X006158Y000910D01*
X006316Y000844D01*
X006487Y000844D01*
X006645Y000910D01*
X006766Y001031D01*
X006831Y001189D01*
X006831Y001360D01*
X006766Y001518D01*
X006645Y001639D01*
X006487Y001704D01*
X006316Y001704D01*
X006158Y001639D01*
X006127Y001608D02*
X005673Y001608D01*
X005681Y001602D02*
X005627Y001642D01*
X005566Y001673D01*
X005502Y001693D01*
X005435Y001704D01*
X005431Y001704D01*
X005431Y001304D01*
X005371Y001304D01*
X005371Y001244D01*
X004971Y001244D01*
X004971Y001240D01*
X004982Y001173D01*
X005003Y001109D01*
X005033Y001049D01*
X005073Y000994D01*
X005121Y000946D01*
X005176Y000906D01*
X005236Y000876D01*
X005300Y000855D01*
X005367Y000844D01*
X005371Y000844D01*
X005371Y001244D01*
X005431Y001244D01*
X005431Y000844D01*
X005435Y000844D01*
X005502Y000855D01*
X005566Y000876D01*
X005627Y000906D01*
X005681Y000946D01*
X005729Y000994D01*
X005769Y001049D01*
X005800Y001109D01*
X005821Y001173D01*
X005831Y001240D01*
X005831Y001244D01*
X005431Y001244D01*
X005431Y001304D01*
X005831Y001304D01*
X005831Y001308D01*
X005821Y001375D01*
X005800Y001439D01*
X005769Y001499D01*
X005729Y001554D01*
X005681Y001602D01*
X005762Y001510D02*
X006033Y001510D01*
X005992Y001411D02*
X005809Y001411D01*
X005830Y001312D02*
X005971Y001312D01*
X005971Y001214D02*
X005827Y001214D01*
X005802Y001115D02*
X006001Y001115D01*
X006050Y001017D02*
X005746Y001017D01*
X005643Y000918D02*
X006149Y000918D01*
X006653Y000918D02*
X007149Y000918D01*
X007158Y000910D02*
X007037Y001031D01*
X006971Y001189D01*
X006971Y001360D01*
X007037Y001518D01*
X007158Y001639D01*
X007316Y001704D01*
X007487Y001704D01*
X007645Y001639D01*
X007766Y001518D01*
X007831Y001360D01*
X007831Y001189D01*
X007766Y001031D01*
X007645Y000910D01*
X007487Y000844D01*
X007316Y000844D01*
X007158Y000910D01*
X007050Y001017D02*
X006752Y001017D01*
X006801Y001115D02*
X007001Y001115D01*
X006971Y001214D02*
X006831Y001214D01*
X006831Y001312D02*
X006971Y001312D01*
X006992Y001411D02*
X006810Y001411D01*
X006769Y001510D02*
X007033Y001510D01*
X007127Y001608D02*
X006675Y001608D01*
X007131Y001904D02*
X007672Y001904D01*
X007565Y002002D02*
X007237Y002002D01*
X007295Y002101D02*
X007508Y002101D01*
X007471Y002199D02*
X007331Y002199D01*
X007331Y002298D02*
X007471Y002298D01*
X007486Y002396D02*
X007316Y002396D01*
X007275Y002495D02*
X007527Y002495D01*
X007613Y002594D02*
X007190Y002594D01*
X008190Y002594D02*
X008613Y002594D01*
X008527Y002495D02*
X008275Y002495D01*
X008316Y002396D02*
X008486Y002396D01*
X008471Y002298D02*
X008331Y002298D01*
X008331Y002199D02*
X008471Y002199D01*
X008508Y002101D02*
X008295Y002101D01*
X008237Y002002D02*
X008565Y002002D01*
X008672Y001904D02*
X008131Y001904D01*
X008158Y001639D02*
X008037Y001518D01*
X007971Y001360D01*
X007971Y001189D01*
X008037Y001031D01*
X008158Y000910D01*
X008316Y000844D01*
X008487Y000844D01*
X008645Y000910D01*
X008766Y001031D01*
X008831Y001189D01*
X008831Y001360D01*
X008766Y001518D01*
X008645Y001639D01*
X008487Y001704D01*
X008316Y001704D01*
X008158Y001639D01*
X008127Y001608D02*
X007675Y001608D01*
X007769Y001510D02*
X008033Y001510D01*
X007992Y001411D02*
X007810Y001411D01*
X007831Y001312D02*
X007971Y001312D01*
X007971Y001214D02*
X007831Y001214D01*
X007801Y001115D02*
X008001Y001115D01*
X008050Y001017D02*
X007752Y001017D01*
X007653Y000918D02*
X008149Y000918D01*
X008653Y000918D02*
X009149Y000918D01*
X009158Y000910D02*
X009316Y000844D01*
X009487Y000844D01*
X009645Y000910D01*
X009766Y001031D01*
X009831Y001189D01*
X009831Y001360D01*
X009766Y001518D01*
X009645Y001639D01*
X009487Y001704D01*
X009316Y001704D01*
X009158Y001639D01*
X009037Y001518D01*
X008971Y001360D01*
X008971Y001189D01*
X009037Y001031D01*
X009158Y000910D01*
X009050Y001017D02*
X008752Y001017D01*
X008801Y001115D02*
X009001Y001115D01*
X008971Y001214D02*
X008831Y001214D01*
X008831Y001312D02*
X008971Y001312D01*
X008992Y001411D02*
X008810Y001411D01*
X008769Y001510D02*
X009033Y001510D01*
X009127Y001608D02*
X008675Y001608D01*
X009131Y001904D02*
X009672Y001904D01*
X009565Y002002D02*
X009237Y002002D01*
X009295Y002101D02*
X009508Y002101D01*
X009471Y002199D02*
X009331Y002199D01*
X009331Y002298D02*
X009471Y002298D01*
X009486Y002396D02*
X009316Y002396D01*
X009275Y002495D02*
X009527Y002495D01*
X009613Y002594D02*
X009190Y002594D01*
X009675Y001608D02*
X011801Y001608D01*
X011846Y001510D02*
X009769Y001510D01*
X009810Y001411D02*
X011891Y001411D01*
X011929Y001328D02*
X011929Y001328D01*
X011942Y001312D02*
X009831Y001312D01*
X009831Y001214D02*
X012028Y001214D01*
X012113Y001115D02*
X009801Y001115D01*
X009752Y001017D02*
X012199Y001017D01*
X012307Y000918D02*
X009653Y000918D01*
X011722Y001781D02*
X011722Y001781D01*
X011719Y001805D02*
X004301Y001805D01*
X004301Y001707D02*
X011756Y001707D01*
X012460Y000820D02*
X004301Y000820D01*
X004301Y000918D02*
X005159Y000918D01*
X005057Y001017D02*
X004301Y001017D01*
X004301Y001115D02*
X005001Y001115D01*
X004975Y001214D02*
X004261Y001214D01*
X004301Y001312D02*
X004972Y001312D01*
X004971Y001308D02*
X004971Y001304D01*
X005371Y001304D01*
X005371Y001704D01*
X005367Y001704D01*
X005300Y001693D01*
X005236Y001673D01*
X005176Y001642D01*
X005121Y001602D01*
X005073Y001554D01*
X005033Y001499D01*
X005003Y001439D01*
X004982Y001375D01*
X004971Y001308D01*
X004994Y001411D02*
X004301Y001411D01*
X004301Y001510D02*
X005041Y001510D01*
X005129Y001608D02*
X004261Y001608D01*
X004101Y001485D02*
X004101Y001351D01*
X004034Y001284D01*
X003768Y001551D01*
X004034Y001551D01*
X004101Y001485D01*
X004034Y001284D02*
X003768Y001284D01*
X003701Y001351D01*
X003701Y001485D01*
X003768Y001551D01*
X003834Y001745D02*
X003701Y001878D01*
X004101Y001878D01*
X004101Y001745D02*
X004101Y002012D01*
X004301Y002002D02*
X005565Y002002D01*
X005508Y002101D02*
X004295Y002101D01*
X004301Y002199D02*
X005471Y002199D01*
X005471Y002298D02*
X004301Y002298D01*
X004301Y002396D02*
X005486Y002396D01*
X005527Y002495D02*
X004301Y002495D01*
X004263Y002594D02*
X005613Y002594D01*
X005651Y002692D02*
X003591Y002692D01*
X003580Y002767D02*
X003580Y002767D01*
X003570Y002791D02*
X005651Y002791D01*
X005651Y002889D02*
X003525Y002889D01*
X003480Y002988D02*
X005651Y002988D01*
X005651Y003086D02*
X003435Y003086D01*
X003390Y003185D02*
X005651Y003185D01*
X005651Y003283D02*
X003319Y003283D01*
X003233Y003382D02*
X005651Y003382D01*
X005651Y003480D02*
X003148Y003480D01*
X003063Y003579D02*
X005651Y003579D01*
X005651Y003677D02*
X002921Y003677D01*
X003047Y003597D02*
X003047Y003597D01*
X002768Y003776D02*
X005651Y003776D01*
X005597Y003875D02*
X002599Y003875D01*
X002628Y003866D02*
X002628Y003866D01*
X002263Y003973D02*
X005499Y003973D01*
X005400Y004072D02*
X000301Y004072D01*
X000301Y004170D02*
X005302Y004170D01*
X005203Y004269D02*
X000301Y004269D01*
X000301Y004367D02*
X005104Y004367D01*
X005006Y004466D02*
X000301Y004466D01*
X000301Y004564D02*
X004907Y004564D01*
X004809Y004663D02*
X000301Y004663D01*
X000301Y004761D02*
X004710Y004761D01*
X004612Y004860D02*
X000301Y004860D01*
X000301Y004959D02*
X004513Y004959D01*
X004415Y005057D02*
X000301Y005057D01*
X000301Y005156D02*
X004316Y005156D01*
X004218Y005254D02*
X000301Y005254D01*
X000301Y005353D02*
X002632Y005353D01*
X002497Y005451D02*
X000301Y005451D01*
X000301Y005550D02*
X002422Y005550D01*
X002381Y005648D02*
X000301Y005648D01*
X000301Y005747D02*
X002367Y005747D01*
X002367Y005845D02*
X000301Y005845D01*
X000301Y005944D02*
X002234Y005944D01*
X002088Y006043D02*
X000301Y006043D01*
X000301Y006141D02*
X002027Y006141D01*
X002001Y006240D02*
X000301Y006240D01*
X000301Y006338D02*
X002001Y006338D01*
X002040Y006437D02*
X000301Y006437D01*
X000301Y006535D02*
X002117Y006535D01*
X002151Y006634D02*
X000301Y006634D01*
X000301Y006732D02*
X002151Y006732D01*
X002151Y006831D02*
X000301Y006831D01*
X000301Y006929D02*
X002151Y006929D01*
X002151Y007028D02*
X000301Y007028D01*
X000301Y007126D02*
X002151Y007126D01*
X002151Y007225D02*
X000301Y007225D01*
X000301Y007324D02*
X002151Y007324D01*
X002151Y007422D02*
X000301Y007422D01*
X000301Y007521D02*
X002151Y007521D01*
X002151Y007619D02*
X000301Y007619D01*
X000301Y007718D02*
X002151Y007718D01*
X002211Y007816D02*
X000301Y007816D01*
X000301Y007915D02*
X002309Y007915D01*
X002428Y008013D02*
X000301Y008013D01*
X000301Y008112D02*
X002512Y008112D01*
X002668Y008210D02*
X000301Y008210D01*
X000301Y008309D02*
X002786Y008309D01*
X002798Y008307D02*
X003103Y008307D01*
X003103Y008725D01*
X003200Y008725D01*
X003200Y008307D01*
X003505Y008307D01*
X003577Y008319D01*
X003647Y008341D01*
X003713Y008375D01*
X003772Y008418D01*
X003824Y008470D01*
X003867Y008529D01*
X003901Y008595D01*
X003923Y008665D01*
X003933Y008726D01*
X003200Y008726D01*
X003200Y008823D01*
X003103Y008823D01*
X003103Y009241D01*
X002798Y009241D01*
X002725Y009229D01*
X002655Y009207D01*
X002590Y009173D01*
X002530Y009130D01*
X002478Y009078D01*
X002435Y009019D01*
X002402Y008953D01*
X002379Y008883D01*
X002369Y008823D01*
X003102Y008823D01*
X003102Y008726D01*
X002369Y008726D01*
X002379Y008665D01*
X002402Y008595D01*
X002435Y008529D01*
X002478Y008470D01*
X002530Y008418D01*
X002590Y008375D01*
X002655Y008341D01*
X002725Y008319D01*
X002798Y008307D01*
X002545Y008408D02*
X000301Y008408D01*
X000301Y008506D02*
X002452Y008506D01*
X002399Y008605D02*
X000301Y008605D01*
X000301Y008703D02*
X002373Y008703D01*
X002384Y008900D02*
X000301Y008900D01*
X000301Y008802D02*
X003102Y008802D01*
X003200Y008802D02*
X006602Y008802D01*
X006602Y008823D02*
X006602Y008726D01*
X005869Y008726D01*
X005879Y008665D01*
X005902Y008595D01*
X005935Y008529D01*
X005978Y008470D01*
X006030Y008418D01*
X006090Y008375D01*
X006155Y008341D01*
X006225Y008319D01*
X006298Y008307D01*
X006603Y008307D01*
X006603Y008725D01*
X006700Y008725D01*
X006700Y008307D01*
X007005Y008307D01*
X007077Y008319D01*
X007147Y008341D01*
X007213Y008375D01*
X007272Y008418D01*
X007324Y008470D01*
X007367Y008529D01*
X007401Y008595D01*
X007423Y008665D01*
X007433Y008726D01*
X006700Y008726D01*
X006700Y008823D01*
X006603Y008823D01*
X006603Y009241D01*
X006298Y009241D01*
X006225Y009229D01*
X006155Y009207D01*
X006090Y009173D01*
X006030Y009130D01*
X005978Y009078D01*
X005935Y009019D01*
X005902Y008953D01*
X005879Y008883D01*
X005869Y008823D01*
X006602Y008823D01*
X006603Y008900D02*
X006700Y008900D01*
X006700Y008823D02*
X006700Y009241D01*
X007005Y009241D01*
X007077Y009229D01*
X007147Y009207D01*
X007213Y009173D01*
X007272Y009130D01*
X007324Y009078D01*
X007367Y009019D01*
X007401Y008953D01*
X007423Y008883D01*
X007433Y008823D01*
X006700Y008823D01*
X006700Y008802D02*
X010102Y008802D01*
X010102Y008823D02*
X010102Y008726D01*
X009369Y008726D01*
X009379Y008665D01*
X009402Y008595D01*
X009435Y008529D01*
X009478Y008470D01*
X009530Y008418D01*
X009590Y008375D01*
X009655Y008341D01*
X009725Y008319D01*
X009798Y008307D01*
X010103Y008307D01*
X010103Y008725D01*
X010200Y008725D01*
X010200Y008307D01*
X010505Y008307D01*
X010577Y008319D01*
X010647Y008341D01*
X010713Y008375D01*
X010772Y008418D01*
X010824Y008470D01*
X010867Y008529D01*
X010901Y008595D01*
X010923Y008665D01*
X010933Y008726D01*
X010200Y008726D01*
X010200Y008823D01*
X010103Y008823D01*
X010103Y009241D01*
X009798Y009241D01*
X009725Y009229D01*
X009655Y009207D01*
X009590Y009173D01*
X009530Y009130D01*
X009478Y009078D01*
X009435Y009019D01*
X009402Y008953D01*
X009379Y008883D01*
X009369Y008823D01*
X010102Y008823D01*
X010103Y008900D02*
X010200Y008900D01*
X010200Y008823D02*
X010200Y009241D01*
X010505Y009241D01*
X010577Y009229D01*
X010647Y009207D01*
X010713Y009173D01*
X010772Y009130D01*
X010824Y009078D01*
X010867Y009019D01*
X010901Y008953D01*
X010923Y008883D01*
X010933Y008823D01*
X010200Y008823D01*
X010200Y008802D02*
X013602Y008802D01*
X013700Y008802D02*
X015001Y008802D01*
X015001Y008900D02*
X014418Y008900D01*
X014377Y008999D02*
X015001Y008999D01*
X015001Y009097D02*
X014305Y009097D01*
X014336Y009196D02*
X014185Y009196D01*
X014030Y009324D02*
X014030Y009724D01*
X014231Y009724D01*
X014297Y009658D01*
X014297Y009524D01*
X014231Y009458D01*
X014030Y009458D01*
X013837Y009524D02*
X013570Y009524D01*
X013570Y009591D02*
X013703Y009724D01*
X013837Y009591D01*
X013837Y009324D01*
X013570Y009324D02*
X013570Y009591D01*
X013385Y009689D02*
X000301Y009689D01*
X000301Y009787D02*
X013483Y009787D01*
X013370Y009590D02*
X000301Y009590D01*
X000301Y009492D02*
X013370Y009492D01*
X013370Y009393D02*
X000301Y009393D01*
X000301Y009294D02*
X013370Y009294D01*
X013134Y009196D02*
X010668Y009196D01*
X010805Y009097D02*
X012997Y009097D01*
X012925Y008999D02*
X010877Y008999D01*
X010918Y008900D02*
X012884Y008900D01*
X012873Y008703D02*
X010929Y008703D01*
X010904Y008605D02*
X012899Y008605D01*
X012952Y008506D02*
X010850Y008506D01*
X010758Y008408D02*
X013045Y008408D01*
X013168Y008210D02*
X010634Y008210D01*
X010516Y008309D02*
X013286Y008309D01*
X013603Y008309D02*
X013700Y008309D01*
X013700Y008408D02*
X013603Y008408D01*
X013603Y008506D02*
X013700Y008506D01*
X013700Y008605D02*
X013603Y008605D01*
X013603Y008703D02*
X013700Y008703D01*
X014258Y008408D02*
X015001Y008408D01*
X015001Y008506D02*
X014350Y008506D01*
X014404Y008605D02*
X015001Y008605D01*
X015001Y008703D02*
X014429Y008703D01*
X014774Y009124D02*
X014774Y009124D01*
X014774Y009124D01*
X014846Y009196D02*
X015001Y009196D01*
X015001Y009294D02*
X014944Y009294D01*
X014958Y009308D02*
X014958Y009308D01*
X014958Y009393D02*
X015001Y009393D01*
X014958Y009474D02*
X014958Y009474D01*
X014958Y009492D02*
X015001Y009492D01*
X015001Y009590D02*
X014958Y009590D01*
X014958Y009689D02*
X015001Y009689D01*
X015001Y009787D02*
X014911Y009787D01*
X014758Y009658D02*
X014691Y009724D01*
X014491Y009724D01*
X014491Y009324D01*
X014691Y009324D01*
X014758Y009391D01*
X014758Y009458D01*
X014691Y009524D01*
X014491Y009524D01*
X014691Y009524D02*
X014758Y009591D01*
X014758Y009658D01*
X015001Y008309D02*
X014016Y008309D01*
X014134Y008210D02*
X015001Y008210D01*
X015001Y008112D02*
X014290Y008112D01*
X014374Y008013D02*
X015001Y008013D01*
X015001Y007915D02*
X014415Y007915D01*
X014435Y007816D02*
X015001Y007816D01*
X015001Y007718D02*
X014435Y007718D01*
X014409Y007619D02*
X015001Y007619D01*
X015001Y007521D02*
X014368Y007521D01*
X014276Y007422D02*
X015001Y007422D01*
X015001Y007324D02*
X014100Y007324D01*
X014099Y007225D02*
X015001Y007225D01*
X015001Y007126D02*
X014276Y007126D01*
X014368Y007028D02*
X015001Y007028D01*
X015001Y006929D02*
X014409Y006929D01*
X014435Y006831D02*
X015001Y006831D01*
X015001Y006732D02*
X014435Y006732D01*
X014415Y006634D02*
X015001Y006634D01*
X015001Y006535D02*
X014374Y006535D01*
X014291Y006437D02*
X015001Y006437D01*
X015001Y006338D02*
X014135Y006338D01*
X014064Y006240D02*
X015001Y006240D01*
X015001Y006141D02*
X014261Y006141D01*
X014360Y006043D02*
X015001Y006043D01*
X015001Y005944D02*
X014403Y005944D01*
X014435Y005845D02*
X015001Y005845D01*
X015001Y005747D02*
X014435Y005747D01*
X014421Y005648D02*
X015001Y005648D01*
X015001Y005550D02*
X014380Y005550D01*
X014305Y005451D02*
X015001Y005451D01*
X015001Y005353D02*
X014171Y005353D01*
X015001Y005254D02*
X004925Y005254D01*
X005023Y005156D02*
X015001Y005156D01*
X015001Y005057D02*
X005122Y005057D01*
X005220Y004959D02*
X015001Y004959D01*
X015001Y004860D02*
X005319Y004860D01*
X005417Y004761D02*
X015001Y004761D01*
X015001Y004663D02*
X005516Y004663D01*
X005614Y004564D02*
X015001Y004564D01*
X015001Y004466D02*
X005713Y004466D01*
X005811Y004367D02*
X015001Y004367D01*
X015001Y004269D02*
X005910Y004269D01*
X006009Y004170D02*
X015001Y004170D01*
X015001Y004072D02*
X006107Y004072D01*
X006151Y003973D02*
X013039Y003973D01*
X013152Y004006D02*
X013152Y004006D01*
X012704Y003875D02*
X006151Y003875D01*
X006151Y003776D02*
X012534Y003776D01*
X012674Y003866D02*
X012674Y003866D01*
X012381Y003677D02*
X006151Y003677D01*
X006151Y003579D02*
X012240Y003579D01*
X012154Y003480D02*
X006151Y003480D01*
X006151Y003382D02*
X012069Y003382D01*
X011984Y003283D02*
X006151Y003283D01*
X006151Y003185D02*
X011913Y003185D01*
X011929Y003220D02*
X011929Y003220D01*
X011868Y003086D02*
X006151Y003086D01*
X006151Y002988D02*
X011823Y002988D01*
X011778Y002889D02*
X006151Y002889D01*
X006151Y002791D02*
X011733Y002791D01*
X011722Y002767D02*
X011722Y002767D01*
X013650Y004006D02*
X013650Y004006D01*
X013763Y003973D02*
X015001Y003973D01*
X015001Y003875D02*
X014099Y003875D01*
X014128Y003866D02*
X014128Y003866D01*
X014268Y003776D02*
X015001Y003776D01*
X015001Y003677D02*
X014421Y003677D01*
X014547Y003597D02*
X014547Y003597D01*
X014563Y003579D02*
X015001Y003579D01*
X015001Y003480D02*
X014648Y003480D01*
X014733Y003382D02*
X015001Y003382D01*
X015001Y003283D02*
X014819Y003283D01*
X014890Y003185D02*
X015001Y003185D01*
X015001Y003086D02*
X014935Y003086D01*
X014980Y002988D02*
X015001Y002988D01*
X012614Y000721D02*
X004281Y000721D01*
X004101Y000824D02*
X003834Y001091D01*
X003768Y001091D01*
X003701Y001024D01*
X003701Y000891D01*
X003768Y000824D01*
X004101Y000824D02*
X004101Y001091D01*
X004301Y001904D02*
X005672Y001904D01*
X005431Y001608D02*
X005371Y001608D01*
X005371Y001510D02*
X005431Y001510D01*
X005431Y001411D02*
X005371Y001411D01*
X005371Y001312D02*
X005431Y001312D01*
X005431Y001214D02*
X005371Y001214D01*
X005371Y001115D02*
X005431Y001115D01*
X005431Y001017D02*
X005371Y001017D01*
X005371Y000918D02*
X005431Y000918D01*
X004101Y002205D02*
X004101Y002472D01*
X003940Y002594D02*
X003605Y002594D01*
X003701Y002339D02*
X004101Y002339D01*
X003834Y002205D02*
X003701Y002339D01*
X001204Y003875D02*
X000301Y003875D01*
X000301Y003973D02*
X001539Y003973D01*
X001652Y004006D02*
X001652Y004006D01*
X001174Y003866D02*
X001174Y003866D01*
X001034Y003776D02*
X000301Y003776D01*
X000301Y003677D02*
X000881Y003677D01*
X000740Y003579D02*
X000301Y003579D01*
X000301Y003480D02*
X000654Y003480D01*
X000569Y003382D02*
X000301Y003382D01*
X000301Y003283D02*
X000484Y003283D01*
X000429Y003220D02*
X000429Y003220D01*
X000413Y003185D02*
X000301Y003185D01*
X000301Y003086D02*
X000368Y003086D01*
X000323Y002988D02*
X000301Y002988D01*
X002150Y004006D02*
X002150Y004006D01*
X003671Y005353D02*
X004119Y005353D01*
X004020Y005451D02*
X003805Y005451D01*
X003880Y005550D02*
X003922Y005550D01*
X004333Y005845D02*
X005867Y005845D01*
X005867Y005747D02*
X004432Y005747D01*
X004530Y005648D02*
X005881Y005648D01*
X005922Y005550D02*
X004629Y005550D01*
X004727Y005451D02*
X005997Y005451D01*
X006132Y005353D02*
X004826Y005353D01*
X004301Y005944D02*
X005734Y005944D01*
X005588Y006043D02*
X004301Y006043D01*
X004301Y006141D02*
X005527Y006141D01*
X005501Y006240D02*
X004301Y006240D01*
X004301Y006338D02*
X005501Y006338D01*
X005540Y006437D02*
X004301Y006437D01*
X004301Y006535D02*
X005617Y006535D01*
X005651Y006634D02*
X004301Y006634D01*
X004301Y006732D02*
X005651Y006732D01*
X005651Y006831D02*
X004301Y006831D01*
X004301Y006929D02*
X005651Y006929D01*
X005651Y007028D02*
X004301Y007028D01*
X004301Y007126D02*
X005651Y007126D01*
X005651Y007225D02*
X004301Y007225D01*
X004301Y007324D02*
X005651Y007324D01*
X005651Y007422D02*
X004301Y007422D01*
X004301Y007521D02*
X005651Y007521D01*
X006051Y007324D02*
X006202Y007324D01*
X006203Y007225D02*
X006051Y007225D01*
X005851Y007774D02*
X005851Y006274D01*
X006201Y006240D02*
X006238Y006240D01*
X007064Y006240D02*
X009001Y006240D01*
X009001Y006338D02*
X007135Y006338D01*
X007291Y006437D02*
X009040Y006437D01*
X009117Y006535D02*
X007374Y006535D01*
X007415Y006634D02*
X009151Y006634D01*
X009151Y006732D02*
X007435Y006732D01*
X007435Y006831D02*
X009151Y006831D01*
X009151Y006929D02*
X007409Y006929D01*
X007368Y007028D02*
X009151Y007028D01*
X009151Y007126D02*
X007276Y007126D01*
X007099Y007225D02*
X009151Y007225D01*
X009151Y007324D02*
X007100Y007324D01*
X007276Y007422D02*
X009151Y007422D01*
X009151Y007521D02*
X007368Y007521D01*
X007290Y008112D02*
X009512Y008112D01*
X009668Y008210D02*
X007134Y008210D01*
X007016Y008309D02*
X009786Y008309D01*
X009545Y008408D02*
X007258Y008408D01*
X007350Y008506D02*
X009452Y008506D01*
X009399Y008605D02*
X007404Y008605D01*
X007429Y008703D02*
X009373Y008703D01*
X009384Y008900D02*
X007418Y008900D01*
X007377Y008999D02*
X009425Y008999D01*
X009497Y009097D02*
X007305Y009097D01*
X007168Y009196D02*
X009634Y009196D01*
X010103Y009196D02*
X010200Y009196D01*
X010200Y009097D02*
X010103Y009097D01*
X010103Y008999D02*
X010200Y008999D01*
X010200Y008703D02*
X010103Y008703D01*
X010103Y008605D02*
X010200Y008605D01*
X010200Y008506D02*
X010103Y008506D01*
X010103Y008408D02*
X010200Y008408D01*
X010200Y008309D02*
X010103Y008309D01*
X010790Y008112D02*
X013012Y008112D01*
X012851Y007774D02*
X012851Y006274D01*
X012527Y006141D02*
X010761Y006141D01*
X010860Y006043D02*
X012588Y006043D01*
X012734Y005944D02*
X010903Y005944D01*
X010935Y005845D02*
X012867Y005845D01*
X012867Y005747D02*
X010935Y005747D01*
X010921Y005648D02*
X012881Y005648D01*
X012922Y005550D02*
X010880Y005550D01*
X010805Y005451D02*
X012997Y005451D01*
X013132Y005353D02*
X010671Y005353D01*
X009632Y005353D02*
X007171Y005353D01*
X007305Y005451D02*
X009497Y005451D01*
X009422Y005550D02*
X007380Y005550D01*
X007421Y005648D02*
X009381Y005648D01*
X009367Y005747D02*
X007435Y005747D01*
X007435Y005845D02*
X009367Y005845D01*
X009234Y005944D02*
X007403Y005944D01*
X007360Y006043D02*
X009088Y006043D01*
X009027Y006141D02*
X007261Y006141D01*
X009351Y006274D02*
X009351Y007774D01*
X009551Y007324D02*
X009702Y007324D01*
X009703Y007225D02*
X009551Y007225D01*
X010599Y007225D02*
X012651Y007225D01*
X012651Y007126D02*
X010776Y007126D01*
X010868Y007028D02*
X012651Y007028D01*
X012651Y006929D02*
X010909Y006929D01*
X010935Y006831D02*
X012651Y006831D01*
X012651Y006732D02*
X010935Y006732D01*
X010915Y006634D02*
X012651Y006634D01*
X012617Y006535D02*
X010874Y006535D01*
X010791Y006437D02*
X012540Y006437D01*
X012501Y006338D02*
X010635Y006338D01*
X010564Y006240D02*
X012501Y006240D01*
X013201Y006240D02*
X013238Y006240D01*
X013203Y007225D02*
X013051Y007225D01*
X013051Y007324D02*
X013202Y007324D01*
X012651Y007324D02*
X010600Y007324D01*
X010776Y007422D02*
X012651Y007422D01*
X012651Y007521D02*
X010868Y007521D01*
X009738Y006240D02*
X009701Y006240D01*
X006700Y008309D02*
X006603Y008309D01*
X006603Y008408D02*
X006700Y008408D01*
X006700Y008506D02*
X006603Y008506D01*
X006603Y008605D02*
X006700Y008605D01*
X006700Y008703D02*
X006603Y008703D01*
X006603Y008999D02*
X006700Y008999D01*
X006700Y009097D02*
X006603Y009097D01*
X006603Y009196D02*
X006700Y009196D01*
X006134Y009196D02*
X003668Y009196D01*
X003647Y009207D02*
X003577Y009229D01*
X003505Y009241D01*
X003200Y009241D01*
X003200Y008823D01*
X003933Y008823D01*
X003923Y008883D01*
X003901Y008953D01*
X003867Y009019D01*
X003824Y009078D01*
X003772Y009130D01*
X003713Y009173D01*
X003647Y009207D01*
X003805Y009097D02*
X005997Y009097D01*
X005925Y008999D02*
X003877Y008999D01*
X003918Y008900D02*
X005884Y008900D01*
X005873Y008703D02*
X003929Y008703D01*
X003904Y008605D02*
X005899Y008605D01*
X005952Y008506D02*
X003850Y008506D01*
X003758Y008408D02*
X006045Y008408D01*
X006168Y008210D02*
X003634Y008210D01*
X003516Y008309D02*
X006286Y008309D01*
X006012Y008112D02*
X003790Y008112D01*
X003200Y008309D02*
X003103Y008309D01*
X003103Y008408D02*
X003200Y008408D01*
X003200Y008506D02*
X003103Y008506D01*
X003103Y008605D02*
X003200Y008605D01*
X003200Y008703D02*
X003103Y008703D01*
X003103Y008900D02*
X003200Y008900D01*
X003200Y008999D02*
X003103Y008999D01*
X003103Y009097D02*
X003200Y009097D01*
X003200Y009196D02*
X003103Y009196D01*
X002634Y009196D02*
X000301Y009196D01*
X000301Y009097D02*
X002497Y009097D01*
X002425Y008999D02*
X000301Y008999D01*
X002351Y007674D02*
X002451Y007774D01*
X003151Y007774D01*
X002351Y007674D02*
X002351Y006274D01*
X012674Y000682D02*
X012674Y000682D01*
D12*
X013334Y005774D02*
X013968Y005774D01*
X013968Y006774D02*
X013334Y006774D01*
X013334Y007774D02*
X013968Y007774D01*
X013968Y008774D02*
X013334Y008774D01*
X010468Y008774D02*
X009834Y008774D01*
X009834Y007774D02*
X010468Y007774D01*
X010468Y006774D02*
X009834Y006774D01*
X009834Y005774D02*
X010468Y005774D01*
X006968Y005774D02*
X006334Y005774D01*
X006334Y006774D02*
X006968Y006774D01*
X006968Y007774D02*
X006334Y007774D01*
X006334Y008774D02*
X006968Y008774D01*
X003468Y008774D02*
X002834Y008774D01*
X002834Y007774D02*
X003468Y007774D01*
X003468Y006774D02*
X002834Y006774D01*
X002834Y005774D02*
X003468Y005774D01*
D13*
X005901Y002274D03*
X006901Y002274D03*
X007901Y002274D03*
X008901Y002274D03*
X009901Y002274D03*
X009401Y001274D03*
X008401Y001274D03*
X007401Y001274D03*
X006401Y001274D03*
X005401Y001274D03*
D14*
X005901Y001774D01*
X007401Y001774D01*
X010551Y001774D01*
X011051Y002274D01*
X011051Y005024D01*
X014551Y005024D01*
X013651Y007774D02*
X012851Y007774D01*
X010151Y007774D01*
X009351Y007774D01*
X006651Y007774D01*
X005851Y007774D01*
X004051Y007774D01*
X004051Y005774D01*
X005901Y003924D01*
X005901Y002274D01*
X005401Y001274D02*
X005401Y003674D01*
X004051Y005024D01*
X007401Y004874D02*
X007551Y005024D01*
X007401Y004874D02*
X007401Y001774D01*
X004051Y007774D02*
X003151Y007774D01*
X003151Y008774D02*
X006651Y008774D01*
X010151Y008774D01*
X013651Y008774D01*
D15*
X012851Y006274D03*
X014551Y005024D03*
X011051Y005024D03*
X009351Y006274D03*
X007551Y005024D03*
X005851Y006274D03*
X004051Y005024D03*
X002351Y006274D03*
M02*
