G75*
G70*
%OFA0B0*%
%FSLAX24Y24*%
%IPPOS*%
%LPD*%
%AMOC8*
5,1,8,0,0,1.08239X$1,22.5*
%
%ADD10C,0.1379*%
%ADD11C,0.0640*%
%ADD12C,0.0714*%
D10*
X001901Y002274D03*
X013401Y002274D03*
D11*
X009901Y002274D03*
X008901Y002274D03*
X007901Y002274D03*
X006901Y002274D03*
X005901Y002274D03*
X005401Y001274D03*
X006401Y001274D03*
X007401Y001274D03*
X008401Y001274D03*
X009401Y001274D03*
D12*
X009401Y005207D02*
X009401Y005841D01*
X010401Y005841D02*
X010401Y005207D01*
X011901Y005207D02*
X011901Y005841D01*
X012901Y005841D02*
X012901Y005207D01*
X013901Y005207D02*
X013901Y005841D01*
X013901Y007707D02*
X013901Y008341D01*
X012901Y008341D02*
X012901Y007707D01*
X011901Y007707D02*
X011901Y008341D01*
X010401Y008341D02*
X010401Y007707D01*
X009401Y007707D02*
X009401Y008341D01*
X008401Y008341D02*
X008401Y007707D01*
X006901Y007707D02*
X006901Y008341D01*
X005901Y008341D02*
X005901Y007707D01*
X004901Y007707D02*
X004901Y008341D01*
X003401Y008341D02*
X003401Y007707D01*
X002401Y007707D02*
X002401Y008341D01*
X001401Y008341D02*
X001401Y007707D01*
X001401Y005841D02*
X001401Y005207D01*
X002401Y005207D02*
X002401Y005841D01*
X003401Y005841D02*
X003401Y005207D01*
X004901Y005207D02*
X004901Y005841D01*
X005901Y005841D02*
X005901Y005207D01*
X006901Y005207D02*
X006901Y005841D01*
X008401Y005841D02*
X008401Y005207D01*
M02*
