G75*
G70*
%OFA0B0*%
%FSLAX24Y24*%
%IPPOS*%
%LPD*%
%AMOC8*
5,1,8,0,0,1.08239X$1,22.5*
%
%ADD10C,0.0100*%
%ADD11C,0.0560*%
%ADD12C,0.0634*%
%ADD13C,0.0200*%
D10*
X002600Y000674D02*
X002628Y000682D01*
X002628Y000682D01*
X003047Y000952D01*
X003373Y001328D01*
X003580Y001781D01*
X003651Y002274D01*
X003580Y002767D01*
X003373Y003220D01*
X003373Y003220D01*
X003047Y003597D01*
X002628Y003866D01*
X002150Y004006D01*
X001652Y004006D01*
X001174Y003866D01*
X000755Y003597D01*
X000755Y003597D01*
X000429Y003220D01*
X000301Y002940D01*
X000301Y009874D01*
X013728Y009874D01*
X013712Y009858D01*
X013595Y009741D01*
X013595Y009674D01*
X013595Y009540D01*
X013595Y009474D01*
X013595Y009474D01*
X013595Y009390D01*
X013595Y009308D01*
X013596Y009307D01*
X013712Y009191D01*
X013779Y009124D01*
X013861Y009124D01*
X014144Y009124D01*
X014262Y009241D01*
X014262Y009258D01*
X014322Y009258D01*
X014322Y009241D01*
X014439Y009124D01*
X014605Y009124D01*
X014619Y009138D01*
X014633Y009124D01*
X014798Y009124D01*
X014849Y009175D01*
X014899Y009124D01*
X015001Y009124D01*
X015001Y002940D01*
X014873Y003220D01*
X014873Y003220D01*
X014547Y003597D01*
X014128Y003866D01*
X013650Y004006D01*
X013152Y004006D01*
X012674Y003866D01*
X012255Y003597D01*
X012255Y003597D01*
X012255Y003597D01*
X011929Y003220D01*
X011722Y002767D01*
X011651Y002274D01*
X011722Y001781D01*
X011929Y001328D01*
X012255Y000952D01*
X012255Y000952D01*
X012674Y000682D01*
X012702Y000674D01*
X002600Y000674D01*
X002689Y000721D02*
X012614Y000721D01*
X012674Y000682D02*
X012674Y000682D01*
X012460Y000820D02*
X002842Y000820D01*
X002995Y000918D02*
X005159Y000918D01*
X005176Y000906D02*
X005121Y000946D01*
X005073Y000994D01*
X005033Y001049D01*
X005003Y001109D01*
X004982Y001173D01*
X004971Y001240D01*
X004971Y001244D01*
X005371Y001244D01*
X005371Y001304D01*
X004971Y001304D01*
X004971Y001308D01*
X004982Y001375D01*
X005003Y001439D01*
X005033Y001499D01*
X005073Y001554D01*
X005121Y001602D01*
X005176Y001642D01*
X005236Y001673D01*
X005300Y001693D01*
X005367Y001704D01*
X005371Y001704D01*
X005371Y001304D01*
X005431Y001304D01*
X005431Y001704D01*
X005435Y001704D01*
X005502Y001693D01*
X005566Y001673D01*
X005627Y001642D01*
X005681Y001602D01*
X005729Y001554D01*
X005769Y001499D01*
X005800Y001439D01*
X005821Y001375D01*
X005831Y001308D01*
X005831Y001304D01*
X005431Y001304D01*
X005431Y001244D01*
X005431Y000844D01*
X005435Y000844D01*
X005502Y000855D01*
X005566Y000876D01*
X005627Y000906D01*
X005681Y000946D01*
X005729Y000994D01*
X005769Y001049D01*
X005800Y001109D01*
X005821Y001173D01*
X005831Y001240D01*
X005831Y001244D01*
X005431Y001244D01*
X005371Y001244D01*
X005371Y000844D01*
X005367Y000844D01*
X005300Y000855D01*
X005236Y000876D01*
X005176Y000906D01*
X005057Y001017D02*
X003104Y001017D01*
X003047Y000952D02*
X003047Y000952D01*
X003047Y000952D01*
X003189Y001115D02*
X005001Y001115D01*
X004975Y001214D02*
X003274Y001214D01*
X003360Y001312D02*
X004972Y001312D01*
X004994Y001411D02*
X003411Y001411D01*
X003373Y001328D02*
X003373Y001328D01*
X003456Y001510D02*
X005041Y001510D01*
X005129Y001608D02*
X003501Y001608D01*
X003546Y001707D02*
X011756Y001707D01*
X011722Y001781D02*
X011722Y001781D01*
X011719Y001805D02*
X003584Y001805D01*
X003580Y001781D02*
X003580Y001781D01*
X003598Y001904D02*
X005672Y001904D01*
X005658Y001910D02*
X005816Y001844D01*
X005987Y001844D01*
X006145Y001910D01*
X006266Y002031D01*
X006331Y002189D01*
X006331Y002360D01*
X006266Y002518D01*
X006145Y002639D01*
X005987Y002704D01*
X005816Y002704D01*
X005658Y002639D01*
X005537Y002518D01*
X005471Y002360D01*
X005471Y002189D01*
X005537Y002031D01*
X005658Y001910D01*
X005565Y002002D02*
X003612Y002002D01*
X003626Y002101D02*
X005508Y002101D01*
X005471Y002199D02*
X003640Y002199D01*
X003648Y002298D02*
X005471Y002298D01*
X005486Y002396D02*
X003634Y002396D01*
X003619Y002495D02*
X005527Y002495D01*
X005613Y002594D02*
X003605Y002594D01*
X003591Y002692D02*
X005787Y002692D01*
X006016Y002692D02*
X006787Y002692D01*
X006816Y002704D02*
X006658Y002639D01*
X006537Y002518D01*
X006471Y002360D01*
X006471Y002189D01*
X006537Y002031D01*
X006658Y001910D01*
X006816Y001844D01*
X006987Y001844D01*
X007145Y001910D01*
X007266Y002031D01*
X007331Y002189D01*
X007331Y002360D01*
X007266Y002518D01*
X007145Y002639D01*
X006987Y002704D01*
X006816Y002704D01*
X007016Y002692D02*
X007787Y002692D01*
X007816Y002704D02*
X007658Y002639D01*
X007537Y002518D01*
X007471Y002360D01*
X007471Y002189D01*
X007537Y002031D01*
X007658Y001910D01*
X007816Y001844D01*
X007987Y001844D01*
X008145Y001910D01*
X008266Y002031D01*
X008331Y002189D01*
X008331Y002360D01*
X008266Y002518D01*
X008145Y002639D01*
X007987Y002704D01*
X007816Y002704D01*
X008016Y002692D02*
X008787Y002692D01*
X008816Y002704D02*
X008658Y002639D01*
X008537Y002518D01*
X008471Y002360D01*
X008471Y002189D01*
X008537Y002031D01*
X008658Y001910D01*
X008816Y001844D01*
X008987Y001844D01*
X009145Y001910D01*
X009266Y002031D01*
X009331Y002189D01*
X009331Y002360D01*
X009266Y002518D01*
X009145Y002639D01*
X008987Y002704D01*
X008816Y002704D01*
X009016Y002692D02*
X009787Y002692D01*
X009816Y002704D02*
X009658Y002639D01*
X009537Y002518D01*
X009471Y002360D01*
X009471Y002189D01*
X009537Y002031D01*
X009658Y001910D01*
X009816Y001844D01*
X009987Y001844D01*
X010145Y001910D01*
X010266Y002031D01*
X010331Y002189D01*
X010331Y002360D01*
X010266Y002518D01*
X010145Y002639D01*
X009987Y002704D01*
X009816Y002704D01*
X010016Y002692D02*
X011711Y002692D01*
X011722Y002767D02*
X011722Y002767D01*
X011733Y002791D02*
X003570Y002791D01*
X003580Y002767D02*
X003580Y002767D01*
X003525Y002889D02*
X011778Y002889D01*
X011823Y002988D02*
X003480Y002988D01*
X003435Y003086D02*
X011868Y003086D01*
X011913Y003185D02*
X003390Y003185D01*
X003319Y003283D02*
X011984Y003283D01*
X011929Y003220D02*
X011929Y003220D01*
X012069Y003382D02*
X003233Y003382D01*
X003148Y003480D02*
X012154Y003480D01*
X012240Y003579D02*
X003063Y003579D01*
X003047Y003597D02*
X003047Y003597D01*
X002921Y003677D02*
X012381Y003677D01*
X012534Y003776D02*
X002768Y003776D01*
X002628Y003866D02*
X002628Y003866D01*
X002599Y003875D02*
X012704Y003875D01*
X012674Y003866D02*
X012674Y003866D01*
X013039Y003973D02*
X002263Y003973D01*
X002150Y004006D02*
X002150Y004006D01*
X001652Y004006D02*
X001652Y004006D01*
X001539Y003973D02*
X000301Y003973D01*
X000301Y003875D02*
X001204Y003875D01*
X001174Y003866D02*
X001174Y003866D01*
X001034Y003776D02*
X000301Y003776D01*
X000301Y003677D02*
X000881Y003677D01*
X000740Y003579D02*
X000301Y003579D01*
X000301Y003480D02*
X000654Y003480D01*
X000569Y003382D02*
X000301Y003382D01*
X000301Y003283D02*
X000484Y003283D01*
X000413Y003185D02*
X000301Y003185D01*
X000301Y003086D02*
X000368Y003086D01*
X000323Y002988D02*
X000301Y002988D01*
X000301Y004072D02*
X015001Y004072D01*
X015001Y004170D02*
X000301Y004170D01*
X000301Y004269D02*
X015001Y004269D01*
X015001Y004367D02*
X000301Y004367D01*
X000301Y004466D02*
X015001Y004466D01*
X015001Y004564D02*
X000301Y004564D01*
X000301Y004663D02*
X015001Y004663D01*
X015001Y004761D02*
X014045Y004761D01*
X013994Y004740D02*
X014166Y004811D01*
X014297Y004943D01*
X014368Y005114D01*
X014368Y005934D01*
X014297Y006105D01*
X014166Y006237D01*
X013994Y006308D01*
X013808Y006308D01*
X013637Y006237D01*
X013505Y006105D01*
X013434Y005934D01*
X013434Y005114D01*
X013505Y004943D01*
X013637Y004811D01*
X013808Y004740D01*
X013994Y004740D01*
X014214Y004860D02*
X015001Y004860D01*
X015001Y004959D02*
X014303Y004959D01*
X014344Y005057D02*
X015001Y005057D01*
X015001Y005156D02*
X014368Y005156D01*
X014368Y005254D02*
X015001Y005254D01*
X015001Y005353D02*
X014368Y005353D01*
X014368Y005451D02*
X015001Y005451D01*
X015001Y005550D02*
X014368Y005550D01*
X014368Y005648D02*
X015001Y005648D01*
X015001Y005747D02*
X014368Y005747D01*
X014368Y005845D02*
X015001Y005845D01*
X015001Y005944D02*
X014364Y005944D01*
X014323Y006043D02*
X015001Y006043D01*
X015001Y006141D02*
X014261Y006141D01*
X014159Y006240D02*
X015001Y006240D01*
X015001Y006338D02*
X000301Y006338D01*
X000301Y006240D02*
X001156Y006240D01*
X001097Y006197D01*
X001045Y006145D01*
X001002Y006086D01*
X000969Y006020D01*
X000946Y005950D01*
X000934Y005878D01*
X000934Y005573D01*
X001352Y005573D01*
X001352Y005476D01*
X000934Y005476D01*
X000934Y005170D01*
X000946Y005098D01*
X000969Y005028D01*
X001002Y004963D01*
X001045Y004903D01*
X001097Y004851D01*
X001156Y004808D01*
X001222Y004775D01*
X001292Y004752D01*
X001353Y004742D01*
X001353Y005475D01*
X001450Y005475D01*
X001450Y004742D01*
X001511Y004752D01*
X001580Y004775D01*
X001646Y004808D01*
X001705Y004851D01*
X001757Y004903D01*
X001800Y004963D01*
X001834Y005028D01*
X001856Y005098D01*
X001868Y005170D01*
X001868Y005476D01*
X001450Y005476D01*
X001450Y005573D01*
X001353Y005573D01*
X001353Y006306D01*
X001292Y006296D01*
X001222Y006274D01*
X001156Y006240D01*
X001042Y006141D02*
X000301Y006141D01*
X000301Y006043D02*
X000980Y006043D01*
X000945Y005944D02*
X000301Y005944D01*
X000301Y005845D02*
X000934Y005845D01*
X000934Y005747D02*
X000301Y005747D01*
X000301Y005648D02*
X000934Y005648D01*
X000934Y005451D02*
X000301Y005451D01*
X000301Y005353D02*
X000934Y005353D01*
X000934Y005254D02*
X000301Y005254D01*
X000301Y005156D02*
X000937Y005156D01*
X000959Y005057D02*
X000301Y005057D01*
X000301Y004959D02*
X001005Y004959D01*
X001088Y004860D02*
X000301Y004860D01*
X000301Y004761D02*
X001262Y004761D01*
X001353Y004761D02*
X001450Y004761D01*
X001540Y004761D02*
X002257Y004761D01*
X002308Y004740D02*
X002137Y004811D01*
X002005Y004943D01*
X001934Y005114D01*
X001934Y005934D01*
X002005Y006105D01*
X002137Y006237D01*
X002308Y006308D01*
X002494Y006308D01*
X002666Y006237D01*
X002797Y006105D01*
X002868Y005934D01*
X002868Y005114D01*
X002797Y004943D01*
X002666Y004811D01*
X002494Y004740D01*
X002308Y004740D01*
X002545Y004761D02*
X003257Y004761D01*
X003308Y004740D02*
X003494Y004740D01*
X003666Y004811D01*
X003797Y004943D01*
X003868Y005114D01*
X003868Y005934D01*
X003797Y006105D01*
X003666Y006237D01*
X003494Y006308D01*
X003308Y006308D01*
X003137Y006237D01*
X003005Y006105D01*
X002934Y005934D01*
X002934Y005114D01*
X003005Y004943D01*
X003137Y004811D01*
X003308Y004740D01*
X003088Y004860D02*
X002714Y004860D01*
X002803Y004959D02*
X002999Y004959D01*
X002958Y005057D02*
X002844Y005057D01*
X002868Y005156D02*
X002934Y005156D01*
X002934Y005254D02*
X002868Y005254D01*
X002868Y005353D02*
X002934Y005353D01*
X002934Y005451D02*
X002868Y005451D01*
X002868Y005550D02*
X002934Y005550D01*
X002934Y005648D02*
X002868Y005648D01*
X002868Y005747D02*
X002934Y005747D01*
X002934Y005845D02*
X002868Y005845D01*
X002864Y005944D02*
X002939Y005944D01*
X002979Y006043D02*
X002823Y006043D01*
X002761Y006141D02*
X003041Y006141D01*
X003144Y006240D02*
X002659Y006240D01*
X002144Y006240D02*
X001647Y006240D01*
X001646Y006240D02*
X001580Y006274D01*
X001511Y006296D01*
X001450Y006306D01*
X001450Y005573D01*
X001868Y005573D01*
X001868Y005878D01*
X001856Y005950D01*
X001834Y006020D01*
X001800Y006086D01*
X001757Y006145D01*
X001705Y006197D01*
X001646Y006240D01*
X001760Y006141D02*
X002041Y006141D01*
X001979Y006043D02*
X001822Y006043D01*
X001858Y005944D02*
X001939Y005944D01*
X001934Y005845D02*
X001868Y005845D01*
X001868Y005747D02*
X001934Y005747D01*
X001934Y005648D02*
X001868Y005648D01*
X001934Y005550D02*
X001450Y005550D01*
X001352Y005550D02*
X000301Y005550D01*
X001353Y005648D02*
X001450Y005648D01*
X001450Y005747D02*
X001353Y005747D01*
X001353Y005845D02*
X001450Y005845D01*
X001450Y005944D02*
X001353Y005944D01*
X001353Y006043D02*
X001450Y006043D01*
X001450Y006141D02*
X001353Y006141D01*
X001353Y006240D02*
X001450Y006240D01*
X001450Y005451D02*
X001353Y005451D01*
X001353Y005353D02*
X001450Y005353D01*
X001450Y005254D02*
X001353Y005254D01*
X001353Y005156D02*
X001450Y005156D01*
X001450Y005057D02*
X001353Y005057D01*
X001353Y004959D02*
X001450Y004959D01*
X001450Y004860D02*
X001353Y004860D01*
X001714Y004860D02*
X002088Y004860D01*
X001999Y004959D02*
X001797Y004959D01*
X001843Y005057D02*
X001958Y005057D01*
X001934Y005156D02*
X001866Y005156D01*
X001868Y005254D02*
X001934Y005254D01*
X001934Y005353D02*
X001868Y005353D01*
X001868Y005451D02*
X001934Y005451D01*
X003545Y004761D02*
X004762Y004761D01*
X004792Y004752D02*
X004853Y004742D01*
X004853Y005475D01*
X004950Y005475D01*
X004950Y004742D01*
X005011Y004752D01*
X005080Y004775D01*
X005146Y004808D01*
X005205Y004851D01*
X005257Y004903D01*
X005300Y004963D01*
X005334Y005028D01*
X005356Y005098D01*
X005368Y005170D01*
X005368Y005476D01*
X004950Y005476D01*
X004950Y005573D01*
X004853Y005573D01*
X004853Y006306D01*
X004792Y006296D01*
X004722Y006274D01*
X004656Y006240D01*
X003659Y006240D01*
X003761Y006141D02*
X004542Y006141D01*
X004545Y006145D02*
X004502Y006086D01*
X004469Y006020D01*
X004446Y005950D01*
X004434Y005878D01*
X004434Y005573D01*
X004852Y005573D01*
X004852Y005476D01*
X004434Y005476D01*
X004434Y005170D01*
X004446Y005098D01*
X004469Y005028D01*
X004502Y004963D01*
X004545Y004903D01*
X004597Y004851D01*
X004656Y004808D01*
X004722Y004775D01*
X004792Y004752D01*
X004853Y004761D02*
X004950Y004761D01*
X005040Y004761D02*
X005757Y004761D01*
X005808Y004740D02*
X005994Y004740D01*
X006166Y004811D01*
X006297Y004943D01*
X006368Y005114D01*
X006368Y005934D01*
X006297Y006105D01*
X006166Y006237D01*
X005994Y006308D01*
X005808Y006308D01*
X005637Y006237D01*
X005505Y006105D01*
X005434Y005934D01*
X005434Y005114D01*
X005505Y004943D01*
X005637Y004811D01*
X005808Y004740D01*
X005588Y004860D02*
X005214Y004860D01*
X005297Y004959D02*
X005499Y004959D01*
X005458Y005057D02*
X005343Y005057D01*
X005366Y005156D02*
X005434Y005156D01*
X005434Y005254D02*
X005368Y005254D01*
X005368Y005353D02*
X005434Y005353D01*
X005434Y005451D02*
X005368Y005451D01*
X005434Y005550D02*
X004950Y005550D01*
X004950Y005573D02*
X005368Y005573D01*
X005368Y005878D01*
X005356Y005950D01*
X005334Y006020D01*
X005300Y006086D01*
X005257Y006145D01*
X005205Y006197D01*
X005146Y006240D01*
X005080Y006274D01*
X005011Y006296D01*
X004950Y006306D01*
X004950Y005573D01*
X004950Y005648D02*
X004853Y005648D01*
X004852Y005550D02*
X003868Y005550D01*
X003868Y005648D02*
X004434Y005648D01*
X004434Y005747D02*
X003868Y005747D01*
X003868Y005845D02*
X004434Y005845D01*
X004445Y005944D02*
X003864Y005944D01*
X003823Y006043D02*
X004480Y006043D01*
X004545Y006145D02*
X004597Y006197D01*
X004656Y006240D01*
X004853Y006240D02*
X004950Y006240D01*
X004950Y006141D02*
X004853Y006141D01*
X004853Y006043D02*
X004950Y006043D01*
X004950Y005944D02*
X004853Y005944D01*
X004853Y005845D02*
X004950Y005845D01*
X004950Y005747D02*
X004853Y005747D01*
X004853Y005451D02*
X004950Y005451D01*
X004950Y005353D02*
X004853Y005353D01*
X004853Y005254D02*
X004950Y005254D01*
X004950Y005156D02*
X004853Y005156D01*
X004853Y005057D02*
X004950Y005057D01*
X004950Y004959D02*
X004853Y004959D01*
X004853Y004860D02*
X004950Y004860D01*
X004588Y004860D02*
X003714Y004860D01*
X003803Y004959D02*
X004505Y004959D01*
X004459Y005057D02*
X003844Y005057D01*
X003868Y005156D02*
X004437Y005156D01*
X004434Y005254D02*
X003868Y005254D01*
X003868Y005353D02*
X004434Y005353D01*
X004434Y005451D02*
X003868Y005451D01*
X005147Y006240D02*
X005644Y006240D01*
X005541Y006141D02*
X005260Y006141D01*
X005322Y006043D02*
X005479Y006043D01*
X005439Y005944D02*
X005358Y005944D01*
X005368Y005845D02*
X005434Y005845D01*
X005434Y005747D02*
X005368Y005747D01*
X005368Y005648D02*
X005434Y005648D01*
X006261Y006141D02*
X006541Y006141D01*
X006505Y006105D02*
X006434Y005934D01*
X006434Y005114D01*
X006505Y004943D01*
X006637Y004811D01*
X006808Y004740D01*
X006994Y004740D01*
X007166Y004811D01*
X007297Y004943D01*
X007368Y005114D01*
X007368Y005934D01*
X007297Y006105D01*
X007166Y006237D01*
X006994Y006308D01*
X006808Y006308D01*
X006637Y006237D01*
X006505Y006105D01*
X006479Y006043D02*
X006323Y006043D01*
X006364Y005944D02*
X006439Y005944D01*
X006434Y005845D02*
X006368Y005845D01*
X006368Y005747D02*
X006434Y005747D01*
X006434Y005648D02*
X006368Y005648D01*
X006368Y005550D02*
X006434Y005550D01*
X006434Y005451D02*
X006368Y005451D01*
X006368Y005353D02*
X006434Y005353D01*
X006434Y005254D02*
X006368Y005254D01*
X006368Y005156D02*
X006434Y005156D01*
X006458Y005057D02*
X006344Y005057D01*
X006303Y004959D02*
X006499Y004959D01*
X006588Y004860D02*
X006214Y004860D01*
X006045Y004761D02*
X006757Y004761D01*
X007045Y004761D02*
X008262Y004761D01*
X008292Y004752D02*
X008222Y004775D01*
X008156Y004808D01*
X008097Y004851D01*
X008045Y004903D01*
X008002Y004963D01*
X007969Y005028D01*
X007946Y005098D01*
X007934Y005170D01*
X007934Y005476D01*
X008352Y005476D01*
X008352Y005573D01*
X007934Y005573D01*
X007934Y005878D01*
X007946Y005950D01*
X007969Y006020D01*
X008002Y006086D01*
X008045Y006145D01*
X008097Y006197D01*
X008156Y006240D01*
X007159Y006240D01*
X007261Y006141D02*
X008042Y006141D01*
X007980Y006043D02*
X007323Y006043D01*
X007364Y005944D02*
X007945Y005944D01*
X007934Y005845D02*
X007368Y005845D01*
X007368Y005747D02*
X007934Y005747D01*
X007934Y005648D02*
X007368Y005648D01*
X007368Y005550D02*
X008352Y005550D01*
X008353Y005573D02*
X008353Y006306D01*
X008292Y006296D01*
X008222Y006274D01*
X008156Y006240D01*
X008353Y006240D02*
X008450Y006240D01*
X008450Y006306D02*
X008450Y005573D01*
X008353Y005573D01*
X008353Y005648D02*
X008450Y005648D01*
X008450Y005573D02*
X008868Y005573D01*
X008868Y005878D01*
X008856Y005950D01*
X008834Y006020D01*
X008800Y006086D01*
X008757Y006145D01*
X008705Y006197D01*
X008646Y006240D01*
X008580Y006274D01*
X008511Y006296D01*
X008450Y006306D01*
X008450Y006141D02*
X008353Y006141D01*
X008353Y006043D02*
X008450Y006043D01*
X008450Y005944D02*
X008353Y005944D01*
X008353Y005845D02*
X008450Y005845D01*
X008450Y005747D02*
X008353Y005747D01*
X008450Y005573D02*
X008450Y005476D01*
X008868Y005476D01*
X008868Y005170D01*
X008856Y005098D01*
X008834Y005028D01*
X008800Y004963D01*
X008757Y004903D01*
X008705Y004851D01*
X008646Y004808D01*
X008580Y004775D01*
X008511Y004752D01*
X008450Y004742D01*
X008450Y005475D01*
X008353Y005475D01*
X008353Y004742D01*
X008292Y004752D01*
X008353Y004761D02*
X008450Y004761D01*
X008540Y004761D02*
X009257Y004761D01*
X009308Y004740D02*
X009494Y004740D01*
X009666Y004811D01*
X009797Y004943D01*
X009868Y005114D01*
X009868Y005934D01*
X009797Y006105D01*
X009666Y006237D01*
X009494Y006308D01*
X009308Y006308D01*
X009137Y006237D01*
X009005Y006105D01*
X008934Y005934D01*
X008934Y005114D01*
X009005Y004943D01*
X009137Y004811D01*
X009308Y004740D01*
X009088Y004860D02*
X008714Y004860D01*
X008797Y004959D02*
X008999Y004959D01*
X008958Y005057D02*
X008843Y005057D01*
X008866Y005156D02*
X008934Y005156D01*
X008934Y005254D02*
X008868Y005254D01*
X008868Y005353D02*
X008934Y005353D01*
X008934Y005451D02*
X008868Y005451D01*
X008934Y005550D02*
X008450Y005550D01*
X008450Y005451D02*
X008353Y005451D01*
X008353Y005353D02*
X008450Y005353D01*
X008450Y005254D02*
X008353Y005254D01*
X008353Y005156D02*
X008450Y005156D01*
X008450Y005057D02*
X008353Y005057D01*
X008353Y004959D02*
X008450Y004959D01*
X008450Y004860D02*
X008353Y004860D01*
X008088Y004860D02*
X007214Y004860D01*
X007303Y004959D02*
X008005Y004959D01*
X007959Y005057D02*
X007344Y005057D01*
X007368Y005156D02*
X007937Y005156D01*
X007934Y005254D02*
X007368Y005254D01*
X007368Y005353D02*
X007934Y005353D01*
X007934Y005451D02*
X007368Y005451D01*
X006644Y006240D02*
X006159Y006240D01*
X005994Y007240D02*
X005808Y007240D01*
X005637Y007311D01*
X005505Y007443D01*
X005434Y007614D01*
X005434Y008434D01*
X005505Y008605D01*
X005287Y008605D01*
X005300Y008586D02*
X005257Y008645D01*
X005205Y008697D01*
X005146Y008740D01*
X005080Y008774D01*
X005011Y008796D01*
X004950Y008806D01*
X004950Y008073D01*
X004853Y008073D01*
X004853Y008806D01*
X004792Y008796D01*
X004722Y008774D01*
X004656Y008740D01*
X004597Y008697D01*
X004545Y008645D01*
X004502Y008586D01*
X004469Y008520D01*
X004446Y008450D01*
X004434Y008378D01*
X004434Y008073D01*
X004852Y008073D01*
X004852Y007976D01*
X004434Y007976D01*
X004434Y007670D01*
X004446Y007598D01*
X004469Y007528D01*
X004502Y007463D01*
X004545Y007403D01*
X004597Y007351D01*
X004656Y007308D01*
X004722Y007275D01*
X004792Y007252D01*
X004853Y007242D01*
X004853Y007975D01*
X004950Y007975D01*
X004950Y007242D01*
X005011Y007252D01*
X005080Y007275D01*
X005146Y007308D01*
X005205Y007351D01*
X005257Y007403D01*
X005300Y007463D01*
X005334Y007528D01*
X005356Y007598D01*
X005368Y007670D01*
X005368Y007976D01*
X004950Y007976D01*
X004950Y008073D01*
X005368Y008073D01*
X005368Y008378D01*
X005356Y008450D01*
X005334Y008520D01*
X005300Y008586D01*
X005338Y008506D02*
X005464Y008506D01*
X005434Y008408D02*
X005363Y008408D01*
X005368Y008309D02*
X005434Y008309D01*
X005434Y008210D02*
X005368Y008210D01*
X005368Y008112D02*
X005434Y008112D01*
X005434Y008013D02*
X004950Y008013D01*
X004852Y008013D02*
X003868Y008013D01*
X003868Y007915D02*
X004434Y007915D01*
X004434Y007816D02*
X003868Y007816D01*
X003868Y007718D02*
X004434Y007718D01*
X004442Y007619D02*
X003868Y007619D01*
X003868Y007614D02*
X003868Y008434D01*
X003797Y008605D01*
X003666Y008737D01*
X003494Y008808D01*
X003308Y008808D01*
X003137Y008737D01*
X003005Y008605D01*
X002797Y008605D01*
X002666Y008737D01*
X002494Y008808D01*
X002308Y008808D01*
X002137Y008737D01*
X002005Y008605D01*
X001787Y008605D01*
X001800Y008586D02*
X001757Y008645D01*
X001705Y008697D01*
X001646Y008740D01*
X001580Y008774D01*
X001511Y008796D01*
X001450Y008806D01*
X001450Y008073D01*
X001353Y008073D01*
X001353Y008806D01*
X001292Y008796D01*
X001222Y008774D01*
X001156Y008740D01*
X001097Y008697D01*
X001045Y008645D01*
X001002Y008586D01*
X000969Y008520D01*
X000946Y008450D01*
X000934Y008378D01*
X000934Y008073D01*
X001352Y008073D01*
X001352Y007976D01*
X000934Y007976D01*
X000934Y007670D01*
X000946Y007598D01*
X000969Y007528D01*
X001002Y007463D01*
X001045Y007403D01*
X001097Y007351D01*
X001156Y007308D01*
X001222Y007275D01*
X001292Y007252D01*
X001353Y007242D01*
X001353Y007975D01*
X001450Y007975D01*
X001450Y007242D01*
X001511Y007252D01*
X001580Y007275D01*
X001646Y007308D01*
X001705Y007351D01*
X001757Y007403D01*
X001800Y007463D01*
X001834Y007528D01*
X001856Y007598D01*
X001868Y007670D01*
X001868Y007976D01*
X001450Y007976D01*
X001450Y008073D01*
X001868Y008073D01*
X001868Y008378D01*
X001856Y008450D01*
X001834Y008520D01*
X001800Y008586D01*
X001838Y008506D02*
X001964Y008506D01*
X001934Y008434D02*
X002005Y008605D01*
X002103Y008703D02*
X001697Y008703D01*
X001476Y008802D02*
X002294Y008802D01*
X002509Y008802D02*
X003294Y008802D01*
X003509Y008802D02*
X004826Y008802D01*
X004853Y008802D02*
X004950Y008802D01*
X004976Y008802D02*
X005794Y008802D01*
X005808Y008808D02*
X005637Y008737D01*
X005505Y008605D01*
X005603Y008703D02*
X005197Y008703D01*
X004950Y008703D02*
X004853Y008703D01*
X004853Y008605D02*
X004950Y008605D01*
X004950Y008506D02*
X004853Y008506D01*
X004853Y008408D02*
X004950Y008408D01*
X004950Y008309D02*
X004853Y008309D01*
X004853Y008210D02*
X004950Y008210D01*
X004950Y008112D02*
X004853Y008112D01*
X004853Y007915D02*
X004950Y007915D01*
X004950Y007816D02*
X004853Y007816D01*
X004853Y007718D02*
X004950Y007718D01*
X004950Y007619D02*
X004853Y007619D01*
X004853Y007521D02*
X004950Y007521D01*
X004950Y007422D02*
X004853Y007422D01*
X004853Y007324D02*
X004950Y007324D01*
X005167Y007324D02*
X005625Y007324D01*
X005526Y007422D02*
X005271Y007422D01*
X005330Y007521D02*
X005473Y007521D01*
X005434Y007619D02*
X005360Y007619D01*
X005368Y007718D02*
X005434Y007718D01*
X005434Y007816D02*
X005368Y007816D01*
X005368Y007915D02*
X005434Y007915D01*
X005994Y007240D02*
X006166Y007311D01*
X006297Y007443D01*
X006368Y007614D01*
X006368Y008434D01*
X006297Y008605D01*
X006166Y008737D01*
X005994Y008808D01*
X005808Y008808D01*
X006009Y008802D02*
X006794Y008802D01*
X006808Y008808D02*
X006637Y008737D01*
X006505Y008605D01*
X006297Y008605D01*
X006338Y008506D02*
X006464Y008506D01*
X006434Y008434D02*
X006505Y008605D01*
X006603Y008703D02*
X006199Y008703D01*
X006368Y008408D02*
X006434Y008408D01*
X006434Y008434D02*
X006434Y007614D01*
X006505Y007443D01*
X006637Y007311D01*
X006808Y007240D01*
X006994Y007240D01*
X007166Y007311D01*
X007297Y007443D01*
X007368Y007614D01*
X007368Y008434D01*
X007297Y008605D01*
X007166Y008737D01*
X006994Y008808D01*
X006808Y008808D01*
X007009Y008802D02*
X008326Y008802D01*
X008353Y008802D02*
X008450Y008802D01*
X008450Y008806D02*
X008450Y008073D01*
X008353Y008073D01*
X008353Y008806D01*
X008292Y008796D01*
X008222Y008774D01*
X008156Y008740D01*
X008097Y008697D01*
X008045Y008645D01*
X008002Y008586D01*
X007969Y008520D01*
X007946Y008450D01*
X007934Y008378D01*
X007934Y008073D01*
X008352Y008073D01*
X008352Y007976D01*
X007934Y007976D01*
X007934Y007670D01*
X007946Y007598D01*
X007969Y007528D01*
X008002Y007463D01*
X008045Y007403D01*
X008097Y007351D01*
X008156Y007308D01*
X008222Y007275D01*
X008292Y007252D01*
X008353Y007242D01*
X008353Y007975D01*
X008450Y007975D01*
X008450Y007242D01*
X008511Y007252D01*
X008580Y007275D01*
X008646Y007308D01*
X008705Y007351D01*
X008757Y007403D01*
X008800Y007463D01*
X008834Y007528D01*
X008856Y007598D01*
X008868Y007670D01*
X008868Y007976D01*
X008450Y007976D01*
X008450Y008073D01*
X008868Y008073D01*
X008868Y008378D01*
X008856Y008450D01*
X008834Y008520D01*
X008800Y008586D01*
X008757Y008645D01*
X008705Y008697D01*
X008646Y008740D01*
X008580Y008774D01*
X008511Y008796D01*
X008450Y008806D01*
X008476Y008802D02*
X009294Y008802D01*
X009308Y008808D02*
X009137Y008737D01*
X009005Y008605D01*
X008787Y008605D01*
X008838Y008506D02*
X008964Y008506D01*
X008934Y008434D02*
X009005Y008605D01*
X009103Y008703D02*
X008697Y008703D01*
X008450Y008703D02*
X008353Y008703D01*
X008353Y008605D02*
X008450Y008605D01*
X008450Y008506D02*
X008353Y008506D01*
X008353Y008408D02*
X008450Y008408D01*
X008450Y008309D02*
X008353Y008309D01*
X008353Y008210D02*
X008450Y008210D01*
X008450Y008112D02*
X008353Y008112D01*
X008352Y008013D02*
X007368Y008013D01*
X007368Y007915D02*
X007934Y007915D01*
X007934Y007816D02*
X007368Y007816D01*
X007368Y007718D02*
X007934Y007718D01*
X007942Y007619D02*
X007368Y007619D01*
X007329Y007521D02*
X007972Y007521D01*
X008031Y007422D02*
X007276Y007422D01*
X007178Y007324D02*
X008135Y007324D01*
X008353Y007324D02*
X008450Y007324D01*
X008450Y007422D02*
X008353Y007422D01*
X008353Y007521D02*
X008450Y007521D01*
X008450Y007619D02*
X008353Y007619D01*
X008353Y007718D02*
X008450Y007718D01*
X008450Y007816D02*
X008353Y007816D01*
X008353Y007915D02*
X008450Y007915D01*
X008450Y008013D02*
X008934Y008013D01*
X008934Y007915D02*
X008868Y007915D01*
X008868Y007816D02*
X008934Y007816D01*
X008934Y007718D02*
X008868Y007718D01*
X008860Y007619D02*
X008934Y007619D01*
X008934Y007614D02*
X009005Y007443D01*
X009137Y007311D01*
X009308Y007240D01*
X009494Y007240D01*
X009666Y007311D01*
X009797Y007443D01*
X009868Y007614D01*
X009868Y008434D01*
X009797Y008605D01*
X009666Y008737D01*
X009494Y008808D01*
X009308Y008808D01*
X009509Y008802D02*
X010294Y008802D01*
X010308Y008808D02*
X010137Y008737D01*
X010005Y008605D01*
X009797Y008605D01*
X009838Y008506D02*
X009964Y008506D01*
X009934Y008434D02*
X010005Y008605D01*
X010103Y008703D02*
X009699Y008703D01*
X009868Y008408D02*
X009934Y008408D01*
X009934Y008434D02*
X009934Y007614D01*
X010005Y007443D01*
X010137Y007311D01*
X010308Y007240D01*
X010494Y007240D01*
X010666Y007311D01*
X010797Y007443D01*
X010868Y007614D01*
X010868Y008434D01*
X010797Y008605D01*
X010666Y008737D01*
X010494Y008808D01*
X010308Y008808D01*
X010509Y008802D02*
X011826Y008802D01*
X011853Y008802D02*
X011950Y008802D01*
X011950Y008806D02*
X011950Y008073D01*
X011853Y008073D01*
X011853Y008806D01*
X011792Y008796D01*
X011722Y008774D01*
X011656Y008740D01*
X011597Y008697D01*
X011545Y008645D01*
X011502Y008586D01*
X011469Y008520D01*
X011446Y008450D01*
X011434Y008378D01*
X011434Y008073D01*
X011852Y008073D01*
X011852Y007976D01*
X011434Y007976D01*
X011434Y007670D01*
X011446Y007598D01*
X011469Y007528D01*
X011502Y007463D01*
X011545Y007403D01*
X011597Y007351D01*
X011656Y007308D01*
X011722Y007275D01*
X011792Y007252D01*
X011853Y007242D01*
X011853Y007975D01*
X011950Y007975D01*
X011950Y007242D01*
X012011Y007252D01*
X012080Y007275D01*
X012146Y007308D01*
X012205Y007351D01*
X012257Y007403D01*
X012300Y007463D01*
X012334Y007528D01*
X012356Y007598D01*
X012368Y007670D01*
X012368Y007976D01*
X011950Y007976D01*
X011950Y008073D01*
X012368Y008073D01*
X012368Y008378D01*
X012356Y008450D01*
X012334Y008520D01*
X012300Y008586D01*
X012257Y008645D01*
X012205Y008697D01*
X012146Y008740D01*
X012080Y008774D01*
X012011Y008796D01*
X011950Y008806D01*
X011976Y008802D02*
X012794Y008802D01*
X012808Y008808D02*
X012637Y008737D01*
X012505Y008605D01*
X012287Y008605D01*
X012338Y008506D02*
X012464Y008506D01*
X012434Y008434D02*
X012505Y008605D01*
X012603Y008703D02*
X012197Y008703D01*
X011950Y008703D02*
X011853Y008703D01*
X011853Y008605D02*
X011950Y008605D01*
X011950Y008506D02*
X011853Y008506D01*
X011853Y008408D02*
X011950Y008408D01*
X011950Y008309D02*
X011853Y008309D01*
X011853Y008210D02*
X011950Y008210D01*
X011950Y008112D02*
X011853Y008112D01*
X011852Y008013D02*
X010868Y008013D01*
X010868Y007915D02*
X011434Y007915D01*
X011434Y007816D02*
X010868Y007816D01*
X010868Y007718D02*
X011434Y007718D01*
X011442Y007619D02*
X010868Y007619D01*
X010829Y007521D02*
X011472Y007521D01*
X011531Y007422D02*
X010776Y007422D01*
X010678Y007324D02*
X011635Y007324D01*
X011853Y007324D02*
X011950Y007324D01*
X011950Y007422D02*
X011853Y007422D01*
X011853Y007521D02*
X011950Y007521D01*
X011950Y007619D02*
X011853Y007619D01*
X011853Y007718D02*
X011950Y007718D01*
X011950Y007816D02*
X011853Y007816D01*
X011853Y007915D02*
X011950Y007915D01*
X011950Y008013D02*
X012434Y008013D01*
X012434Y007915D02*
X012368Y007915D01*
X012368Y007816D02*
X012434Y007816D01*
X012434Y007718D02*
X012368Y007718D01*
X012360Y007619D02*
X012434Y007619D01*
X012434Y007614D02*
X012505Y007443D01*
X012637Y007311D01*
X012808Y007240D01*
X012994Y007240D01*
X013166Y007311D01*
X013297Y007443D01*
X013368Y007614D01*
X013368Y008434D01*
X013297Y008605D01*
X013166Y008737D01*
X012994Y008808D01*
X012808Y008808D01*
X013009Y008802D02*
X013794Y008802D01*
X013808Y008808D02*
X013637Y008737D01*
X013505Y008605D01*
X013297Y008605D01*
X013338Y008506D02*
X013464Y008506D01*
X013434Y008434D02*
X013505Y008605D01*
X013603Y008703D02*
X013199Y008703D01*
X013368Y008408D02*
X013434Y008408D01*
X013434Y008434D02*
X013434Y007614D01*
X013505Y007443D01*
X013637Y007311D01*
X013808Y007240D01*
X013994Y007240D01*
X014166Y007311D01*
X014297Y007443D01*
X014368Y007614D01*
X014368Y008434D01*
X014297Y008605D01*
X014166Y008737D01*
X013994Y008808D01*
X013808Y008808D01*
X014009Y008802D02*
X015001Y008802D01*
X015001Y008900D02*
X000301Y008900D01*
X000301Y008802D02*
X001326Y008802D01*
X001353Y008802D02*
X001450Y008802D01*
X001450Y008703D02*
X001353Y008703D01*
X001353Y008605D02*
X001450Y008605D01*
X001450Y008506D02*
X001353Y008506D01*
X001353Y008408D02*
X001450Y008408D01*
X001450Y008309D02*
X001353Y008309D01*
X001353Y008210D02*
X001450Y008210D01*
X001450Y008112D02*
X001353Y008112D01*
X001352Y008013D02*
X000301Y008013D01*
X000301Y007915D02*
X000934Y007915D01*
X000934Y007816D02*
X000301Y007816D01*
X000301Y007718D02*
X000934Y007718D01*
X000942Y007619D02*
X000301Y007619D01*
X000301Y007521D02*
X000972Y007521D01*
X001031Y007422D02*
X000301Y007422D01*
X000301Y007324D02*
X001135Y007324D01*
X001353Y007324D02*
X001450Y007324D01*
X001450Y007422D02*
X001353Y007422D01*
X001353Y007521D02*
X001450Y007521D01*
X001450Y007619D02*
X001353Y007619D01*
X001353Y007718D02*
X001450Y007718D01*
X001450Y007816D02*
X001353Y007816D01*
X001353Y007915D02*
X001450Y007915D01*
X001450Y008013D02*
X001934Y008013D01*
X001934Y007915D02*
X001868Y007915D01*
X001868Y007816D02*
X001934Y007816D01*
X001934Y007718D02*
X001868Y007718D01*
X001860Y007619D02*
X001934Y007619D01*
X001934Y007614D02*
X002005Y007443D01*
X002137Y007311D01*
X002308Y007240D01*
X002494Y007240D01*
X002666Y007311D01*
X002797Y007443D01*
X002868Y007614D01*
X002868Y008434D01*
X002797Y008605D01*
X002838Y008506D02*
X002964Y008506D01*
X002934Y008434D02*
X003005Y008605D01*
X003103Y008703D02*
X002699Y008703D01*
X002868Y008408D02*
X002934Y008408D01*
X002934Y008434D02*
X002934Y007614D01*
X003005Y007443D01*
X003137Y007311D01*
X003308Y007240D01*
X003494Y007240D01*
X003666Y007311D01*
X003797Y007443D01*
X003868Y007614D01*
X003829Y007521D02*
X004472Y007521D01*
X004531Y007422D02*
X003776Y007422D01*
X003678Y007324D02*
X004635Y007324D01*
X004434Y008112D02*
X003868Y008112D01*
X003868Y008210D02*
X004434Y008210D01*
X004434Y008309D02*
X003868Y008309D01*
X003868Y008408D02*
X004439Y008408D01*
X004464Y008506D02*
X003838Y008506D01*
X003797Y008605D02*
X004516Y008605D01*
X004606Y008703D02*
X003699Y008703D01*
X002934Y008309D02*
X002868Y008309D01*
X002868Y008210D02*
X002934Y008210D01*
X002934Y008112D02*
X002868Y008112D01*
X002868Y008013D02*
X002934Y008013D01*
X002934Y007915D02*
X002868Y007915D01*
X002868Y007816D02*
X002934Y007816D01*
X002934Y007718D02*
X002868Y007718D01*
X002868Y007619D02*
X002934Y007619D01*
X002973Y007521D02*
X002829Y007521D01*
X002776Y007422D02*
X003026Y007422D01*
X003125Y007324D02*
X002678Y007324D01*
X002125Y007324D02*
X001667Y007324D01*
X001771Y007422D02*
X002026Y007422D01*
X001973Y007521D02*
X001830Y007521D01*
X001934Y007614D02*
X001934Y008434D01*
X001934Y008408D02*
X001863Y008408D01*
X001868Y008309D02*
X001934Y008309D01*
X001934Y008210D02*
X001868Y008210D01*
X001868Y008112D02*
X001934Y008112D01*
X000934Y008112D02*
X000301Y008112D01*
X000301Y008210D02*
X000934Y008210D01*
X000934Y008309D02*
X000301Y008309D01*
X000301Y008408D02*
X000939Y008408D01*
X000964Y008506D02*
X000301Y008506D01*
X000301Y008605D02*
X001016Y008605D01*
X001106Y008703D02*
X000301Y008703D01*
X000301Y008999D02*
X015001Y008999D01*
X015001Y009097D02*
X000301Y009097D01*
X000301Y009196D02*
X013707Y009196D01*
X013712Y009191D02*
X013712Y009191D01*
X013779Y009124D02*
X013779Y009124D01*
X013779Y009124D01*
X013861Y009324D02*
X014062Y009324D01*
X014062Y009724D01*
X013861Y009724D01*
X013795Y009658D01*
X013795Y009591D01*
X013861Y009524D01*
X014062Y009524D01*
X013861Y009524D02*
X013795Y009458D01*
X013795Y009391D01*
X013861Y009324D01*
X013608Y009294D02*
X000301Y009294D01*
X000301Y009393D02*
X013595Y009393D01*
X013595Y009308D02*
X013595Y009308D01*
X013595Y009492D02*
X000301Y009492D01*
X000301Y009590D02*
X013595Y009590D01*
X013595Y009689D02*
X000301Y009689D01*
X000301Y009787D02*
X013641Y009787D01*
X014255Y009658D02*
X014255Y009524D01*
X014322Y009458D01*
X014522Y009458D01*
X014522Y009324D02*
X014522Y009724D01*
X014322Y009724D01*
X014255Y009658D01*
X014715Y009591D02*
X014715Y009324D01*
X014982Y009324D02*
X014982Y009591D01*
X014849Y009724D01*
X014715Y009591D01*
X014715Y009524D02*
X014982Y009524D01*
X014367Y009196D02*
X014216Y009196D01*
X014199Y008703D02*
X015001Y008703D01*
X015001Y008605D02*
X014297Y008605D01*
X014338Y008506D02*
X015001Y008506D01*
X015001Y008408D02*
X014368Y008408D01*
X014368Y008309D02*
X015001Y008309D01*
X015001Y008210D02*
X014368Y008210D01*
X014368Y008112D02*
X015001Y008112D01*
X015001Y008013D02*
X014368Y008013D01*
X014368Y007915D02*
X015001Y007915D01*
X015001Y007816D02*
X014368Y007816D01*
X014368Y007718D02*
X015001Y007718D01*
X015001Y007619D02*
X014368Y007619D01*
X014329Y007521D02*
X015001Y007521D01*
X015001Y007422D02*
X014276Y007422D01*
X014178Y007324D02*
X015001Y007324D01*
X015001Y007225D02*
X000301Y007225D01*
X000301Y007126D02*
X015001Y007126D01*
X015001Y007028D02*
X000301Y007028D01*
X000301Y006929D02*
X015001Y006929D01*
X015001Y006831D02*
X000301Y006831D01*
X000301Y006732D02*
X015001Y006732D01*
X015001Y006634D02*
X000301Y006634D01*
X000301Y006535D02*
X015001Y006535D01*
X015001Y006437D02*
X000301Y006437D01*
X006178Y007324D02*
X006625Y007324D01*
X006526Y007422D02*
X006276Y007422D01*
X006329Y007521D02*
X006473Y007521D01*
X006434Y007619D02*
X006368Y007619D01*
X006368Y007718D02*
X006434Y007718D01*
X006434Y007816D02*
X006368Y007816D01*
X006368Y007915D02*
X006434Y007915D01*
X006434Y008013D02*
X006368Y008013D01*
X006368Y008112D02*
X006434Y008112D01*
X006434Y008210D02*
X006368Y008210D01*
X006368Y008309D02*
X006434Y008309D01*
X007199Y008703D02*
X008106Y008703D01*
X008016Y008605D02*
X007297Y008605D01*
X007338Y008506D02*
X007964Y008506D01*
X007939Y008408D02*
X007368Y008408D01*
X007368Y008309D02*
X007934Y008309D01*
X007934Y008210D02*
X007368Y008210D01*
X007368Y008112D02*
X007934Y008112D01*
X008868Y008112D02*
X008934Y008112D01*
X008934Y008210D02*
X008868Y008210D01*
X008868Y008309D02*
X008934Y008309D01*
X008934Y008408D02*
X008863Y008408D01*
X008934Y008434D02*
X008934Y007614D01*
X008973Y007521D02*
X008830Y007521D01*
X008771Y007422D02*
X009026Y007422D01*
X009125Y007324D02*
X008667Y007324D01*
X009678Y007324D02*
X010125Y007324D01*
X010026Y007422D02*
X009776Y007422D01*
X009829Y007521D02*
X009973Y007521D01*
X009934Y007619D02*
X009868Y007619D01*
X009868Y007718D02*
X009934Y007718D01*
X009934Y007816D02*
X009868Y007816D01*
X009868Y007915D02*
X009934Y007915D01*
X009934Y008013D02*
X009868Y008013D01*
X009868Y008112D02*
X009934Y008112D01*
X009934Y008210D02*
X009868Y008210D01*
X009868Y008309D02*
X009934Y008309D01*
X010699Y008703D02*
X011606Y008703D01*
X011516Y008605D02*
X010797Y008605D01*
X010838Y008506D02*
X011464Y008506D01*
X011439Y008408D02*
X010868Y008408D01*
X010868Y008309D02*
X011434Y008309D01*
X011434Y008210D02*
X010868Y008210D01*
X010868Y008112D02*
X011434Y008112D01*
X012368Y008112D02*
X012434Y008112D01*
X012434Y008210D02*
X012368Y008210D01*
X012368Y008309D02*
X012434Y008309D01*
X012434Y008408D02*
X012363Y008408D01*
X012434Y008434D02*
X012434Y007614D01*
X012473Y007521D02*
X012330Y007521D01*
X012271Y007422D02*
X012526Y007422D01*
X012625Y007324D02*
X012167Y007324D01*
X013178Y007324D02*
X013625Y007324D01*
X013526Y007422D02*
X013276Y007422D01*
X013329Y007521D02*
X013473Y007521D01*
X013434Y007619D02*
X013368Y007619D01*
X013368Y007718D02*
X013434Y007718D01*
X013434Y007816D02*
X013368Y007816D01*
X013368Y007915D02*
X013434Y007915D01*
X013434Y008013D02*
X013368Y008013D01*
X013368Y008112D02*
X013434Y008112D01*
X013434Y008210D02*
X013368Y008210D01*
X013368Y008309D02*
X013434Y008309D01*
X012994Y006308D02*
X012808Y006308D01*
X012637Y006237D01*
X012505Y006105D01*
X012434Y005934D01*
X012434Y005114D01*
X012505Y004943D01*
X012637Y004811D01*
X012808Y004740D01*
X012994Y004740D01*
X013166Y004811D01*
X013297Y004943D01*
X013368Y005114D01*
X013368Y005934D01*
X013297Y006105D01*
X013166Y006237D01*
X012994Y006308D01*
X013159Y006240D02*
X013644Y006240D01*
X013541Y006141D02*
X013261Y006141D01*
X013323Y006043D02*
X013479Y006043D01*
X013439Y005944D02*
X013364Y005944D01*
X013368Y005845D02*
X013434Y005845D01*
X013434Y005747D02*
X013368Y005747D01*
X013368Y005648D02*
X013434Y005648D01*
X013434Y005550D02*
X013368Y005550D01*
X013368Y005451D02*
X013434Y005451D01*
X013434Y005353D02*
X013368Y005353D01*
X013368Y005254D02*
X013434Y005254D01*
X013434Y005156D02*
X013368Y005156D01*
X013344Y005057D02*
X013458Y005057D01*
X013499Y004959D02*
X013303Y004959D01*
X013214Y004860D02*
X013588Y004860D01*
X013757Y004761D02*
X013045Y004761D01*
X012757Y004761D02*
X012040Y004761D01*
X012011Y004752D02*
X012080Y004775D01*
X012146Y004808D01*
X012205Y004851D01*
X012257Y004903D01*
X012300Y004963D01*
X012334Y005028D01*
X012356Y005098D01*
X012368Y005170D01*
X012368Y005476D01*
X011950Y005476D01*
X011950Y005573D01*
X011853Y005573D01*
X011853Y006306D01*
X011792Y006296D01*
X011722Y006274D01*
X011656Y006240D01*
X010659Y006240D01*
X010666Y006237D02*
X010494Y006308D01*
X010308Y006308D01*
X010137Y006237D01*
X010005Y006105D01*
X009934Y005934D01*
X009934Y005114D01*
X010005Y004943D01*
X010137Y004811D01*
X010308Y004740D01*
X010494Y004740D01*
X010666Y004811D01*
X010797Y004943D01*
X010868Y005114D01*
X010868Y005934D01*
X010797Y006105D01*
X010666Y006237D01*
X010761Y006141D02*
X011542Y006141D01*
X011545Y006145D02*
X011502Y006086D01*
X011469Y006020D01*
X011446Y005950D01*
X011434Y005878D01*
X011434Y005573D01*
X011852Y005573D01*
X011852Y005476D01*
X011434Y005476D01*
X011434Y005170D01*
X011446Y005098D01*
X011469Y005028D01*
X011502Y004963D01*
X011545Y004903D01*
X011597Y004851D01*
X011656Y004808D01*
X011722Y004775D01*
X011792Y004752D01*
X011853Y004742D01*
X011853Y005475D01*
X011950Y005475D01*
X011950Y004742D01*
X012011Y004752D01*
X011950Y004761D02*
X011853Y004761D01*
X011762Y004761D02*
X010545Y004761D01*
X010714Y004860D02*
X011588Y004860D01*
X011505Y004959D02*
X010803Y004959D01*
X010844Y005057D02*
X011459Y005057D01*
X011437Y005156D02*
X010868Y005156D01*
X010868Y005254D02*
X011434Y005254D01*
X011434Y005353D02*
X010868Y005353D01*
X010868Y005451D02*
X011434Y005451D01*
X011434Y005648D02*
X010868Y005648D01*
X010868Y005550D02*
X011852Y005550D01*
X011950Y005550D02*
X012434Y005550D01*
X012368Y005573D02*
X012368Y005878D01*
X012356Y005950D01*
X012334Y006020D01*
X012300Y006086D01*
X012257Y006145D01*
X012205Y006197D01*
X012146Y006240D01*
X012080Y006274D01*
X012011Y006296D01*
X011950Y006306D01*
X011950Y005573D01*
X012368Y005573D01*
X012368Y005648D02*
X012434Y005648D01*
X012434Y005747D02*
X012368Y005747D01*
X012368Y005845D02*
X012434Y005845D01*
X012439Y005944D02*
X012358Y005944D01*
X012322Y006043D02*
X012479Y006043D01*
X012541Y006141D02*
X012260Y006141D01*
X012147Y006240D02*
X012644Y006240D01*
X011950Y006240D02*
X011853Y006240D01*
X011853Y006141D02*
X011950Y006141D01*
X011950Y006043D02*
X011853Y006043D01*
X011853Y005944D02*
X011950Y005944D01*
X011950Y005845D02*
X011853Y005845D01*
X011853Y005747D02*
X011950Y005747D01*
X011950Y005648D02*
X011853Y005648D01*
X011853Y005451D02*
X011950Y005451D01*
X011950Y005353D02*
X011853Y005353D01*
X011853Y005254D02*
X011950Y005254D01*
X011950Y005156D02*
X011853Y005156D01*
X011853Y005057D02*
X011950Y005057D01*
X011950Y004959D02*
X011853Y004959D01*
X011853Y004860D02*
X011950Y004860D01*
X012214Y004860D02*
X012588Y004860D01*
X012499Y004959D02*
X012297Y004959D01*
X012343Y005057D02*
X012458Y005057D01*
X012434Y005156D02*
X012366Y005156D01*
X012368Y005254D02*
X012434Y005254D01*
X012434Y005353D02*
X012368Y005353D01*
X012368Y005451D02*
X012434Y005451D01*
X011434Y005747D02*
X010868Y005747D01*
X010868Y005845D02*
X011434Y005845D01*
X011445Y005944D02*
X010864Y005944D01*
X010823Y006043D02*
X011480Y006043D01*
X011545Y006145D02*
X011597Y006197D01*
X011656Y006240D01*
X010144Y006240D02*
X009659Y006240D01*
X009761Y006141D02*
X010041Y006141D01*
X009979Y006043D02*
X009823Y006043D01*
X009864Y005944D02*
X009939Y005944D01*
X009934Y005845D02*
X009868Y005845D01*
X009868Y005747D02*
X009934Y005747D01*
X009934Y005648D02*
X009868Y005648D01*
X009868Y005550D02*
X009934Y005550D01*
X009934Y005451D02*
X009868Y005451D01*
X009868Y005353D02*
X009934Y005353D01*
X009934Y005254D02*
X009868Y005254D01*
X009868Y005156D02*
X009934Y005156D01*
X009958Y005057D02*
X009844Y005057D01*
X009803Y004959D02*
X009999Y004959D01*
X010088Y004860D02*
X009714Y004860D01*
X009545Y004761D02*
X010257Y004761D01*
X008934Y005648D02*
X008868Y005648D01*
X008868Y005747D02*
X008934Y005747D01*
X008934Y005845D02*
X008868Y005845D01*
X008858Y005944D02*
X008939Y005944D01*
X008979Y006043D02*
X008822Y006043D01*
X008760Y006141D02*
X009041Y006141D01*
X009144Y006240D02*
X008647Y006240D01*
X013152Y004006D02*
X013152Y004006D01*
X013650Y004006D02*
X013650Y004006D01*
X013763Y003973D02*
X015001Y003973D01*
X015001Y003875D02*
X014099Y003875D01*
X014128Y003866D02*
X014128Y003866D01*
X014268Y003776D02*
X015001Y003776D01*
X015001Y003677D02*
X014421Y003677D01*
X014547Y003597D02*
X014547Y003597D01*
X014563Y003579D02*
X015001Y003579D01*
X015001Y003480D02*
X014648Y003480D01*
X014733Y003382D02*
X015001Y003382D01*
X015001Y003283D02*
X014819Y003283D01*
X014890Y003185D02*
X015001Y003185D01*
X015001Y003086D02*
X014935Y003086D01*
X014980Y002988D02*
X015001Y002988D01*
X012113Y001115D02*
X009801Y001115D01*
X009831Y001189D02*
X009766Y001031D01*
X009645Y000910D01*
X009487Y000844D01*
X009316Y000844D01*
X009158Y000910D01*
X009037Y001031D01*
X008971Y001189D01*
X008971Y001360D01*
X009037Y001518D01*
X009158Y001639D01*
X009316Y001704D01*
X009487Y001704D01*
X009645Y001639D01*
X009766Y001518D01*
X009831Y001360D01*
X009831Y001189D01*
X009831Y001214D02*
X012028Y001214D01*
X011942Y001312D02*
X009831Y001312D01*
X009810Y001411D02*
X011891Y001411D01*
X011929Y001328D02*
X011929Y001328D01*
X011846Y001510D02*
X009769Y001510D01*
X009675Y001608D02*
X011801Y001608D01*
X011704Y001904D02*
X010131Y001904D01*
X010237Y002002D02*
X011690Y002002D01*
X011676Y002101D02*
X010295Y002101D01*
X010331Y002199D02*
X011662Y002199D01*
X011651Y002274D02*
X011651Y002274D01*
X011655Y002298D02*
X010331Y002298D01*
X010316Y002396D02*
X011669Y002396D01*
X011683Y002495D02*
X010275Y002495D01*
X010190Y002594D02*
X011697Y002594D01*
X009672Y001904D02*
X009131Y001904D01*
X009237Y002002D02*
X009565Y002002D01*
X009508Y002101D02*
X009295Y002101D01*
X009331Y002199D02*
X009471Y002199D01*
X009471Y002298D02*
X009331Y002298D01*
X009316Y002396D02*
X009486Y002396D01*
X009527Y002495D02*
X009275Y002495D01*
X009190Y002594D02*
X009613Y002594D01*
X008613Y002594D02*
X008190Y002594D01*
X008275Y002495D02*
X008527Y002495D01*
X008486Y002396D02*
X008316Y002396D01*
X008331Y002298D02*
X008471Y002298D01*
X008471Y002199D02*
X008331Y002199D01*
X008295Y002101D02*
X008508Y002101D01*
X008565Y002002D02*
X008237Y002002D01*
X008131Y001904D02*
X008672Y001904D01*
X008645Y001639D02*
X008487Y001704D01*
X008316Y001704D01*
X008158Y001639D01*
X008037Y001518D01*
X007971Y001360D01*
X007971Y001189D01*
X008037Y001031D01*
X008158Y000910D01*
X008316Y000844D01*
X008487Y000844D01*
X008645Y000910D01*
X008766Y001031D01*
X008831Y001189D01*
X008831Y001360D01*
X008766Y001518D01*
X008645Y001639D01*
X008675Y001608D02*
X009127Y001608D01*
X009033Y001510D02*
X008769Y001510D01*
X008810Y001411D02*
X008992Y001411D01*
X008971Y001312D02*
X008831Y001312D01*
X008831Y001214D02*
X008971Y001214D01*
X009001Y001115D02*
X008801Y001115D01*
X008752Y001017D02*
X009050Y001017D01*
X009149Y000918D02*
X008653Y000918D01*
X008149Y000918D02*
X007653Y000918D01*
X007645Y000910D02*
X007487Y000844D01*
X007316Y000844D01*
X007158Y000910D01*
X007037Y001031D01*
X006971Y001189D01*
X006971Y001360D01*
X007037Y001518D01*
X007158Y001639D01*
X007316Y001704D01*
X007487Y001704D01*
X007645Y001639D01*
X007766Y001518D01*
X007831Y001360D01*
X007831Y001189D01*
X007766Y001031D01*
X007645Y000910D01*
X007752Y001017D02*
X008050Y001017D01*
X008001Y001115D02*
X007801Y001115D01*
X007831Y001214D02*
X007971Y001214D01*
X007971Y001312D02*
X007831Y001312D01*
X007810Y001411D02*
X007992Y001411D01*
X008033Y001510D02*
X007769Y001510D01*
X007675Y001608D02*
X008127Y001608D01*
X007672Y001904D02*
X007131Y001904D01*
X007237Y002002D02*
X007565Y002002D01*
X007508Y002101D02*
X007295Y002101D01*
X007331Y002199D02*
X007471Y002199D01*
X007471Y002298D02*
X007331Y002298D01*
X007316Y002396D02*
X007486Y002396D01*
X007527Y002495D02*
X007275Y002495D01*
X007190Y002594D02*
X007613Y002594D01*
X006613Y002594D02*
X006190Y002594D01*
X006275Y002495D02*
X006527Y002495D01*
X006486Y002396D02*
X006316Y002396D01*
X006331Y002298D02*
X006471Y002298D01*
X006471Y002199D02*
X006331Y002199D01*
X006295Y002101D02*
X006508Y002101D01*
X006565Y002002D02*
X006237Y002002D01*
X006131Y001904D02*
X006672Y001904D01*
X006645Y001639D02*
X006487Y001704D01*
X006316Y001704D01*
X006158Y001639D01*
X006037Y001518D01*
X005971Y001360D01*
X005971Y001189D01*
X006037Y001031D01*
X006158Y000910D01*
X006316Y000844D01*
X006487Y000844D01*
X006645Y000910D01*
X006766Y001031D01*
X006831Y001189D01*
X006831Y001360D01*
X006766Y001518D01*
X006645Y001639D01*
X006675Y001608D02*
X007127Y001608D01*
X007033Y001510D02*
X006769Y001510D01*
X006810Y001411D02*
X006992Y001411D01*
X006971Y001312D02*
X006831Y001312D01*
X006831Y001214D02*
X006971Y001214D01*
X007001Y001115D02*
X006801Y001115D01*
X006752Y001017D02*
X007050Y001017D01*
X007149Y000918D02*
X006653Y000918D01*
X006149Y000918D02*
X005643Y000918D01*
X005746Y001017D02*
X006050Y001017D01*
X006001Y001115D02*
X005802Y001115D01*
X005827Y001214D02*
X005971Y001214D01*
X005971Y001312D02*
X005830Y001312D01*
X005809Y001411D02*
X005992Y001411D01*
X006033Y001510D02*
X005762Y001510D01*
X005673Y001608D02*
X006127Y001608D01*
X005431Y001608D02*
X005371Y001608D01*
X005371Y001510D02*
X005431Y001510D01*
X005431Y001411D02*
X005371Y001411D01*
X005371Y001312D02*
X005431Y001312D01*
X005431Y001214D02*
X005371Y001214D01*
X005371Y001115D02*
X005431Y001115D01*
X005431Y001017D02*
X005371Y001017D01*
X005371Y000918D02*
X005431Y000918D01*
X009653Y000918D02*
X012307Y000918D01*
X012199Y001017D02*
X009752Y001017D01*
D11*
X009401Y001274D03*
X008401Y001274D03*
X007401Y001274D03*
X006401Y001274D03*
X005401Y001274D03*
X005901Y002274D03*
X006901Y002274D03*
X007901Y002274D03*
X008901Y002274D03*
X009901Y002274D03*
D12*
X009401Y005207D02*
X009401Y005841D01*
X010401Y005841D02*
X010401Y005207D01*
X011901Y005207D02*
X011901Y005841D01*
X012901Y005841D02*
X012901Y005207D01*
X013901Y005207D02*
X013901Y005841D01*
X013901Y007707D02*
X013901Y008341D01*
X012901Y008341D02*
X012901Y007707D01*
X011901Y007707D02*
X011901Y008341D01*
X010401Y008341D02*
X010401Y007707D01*
X009401Y007707D02*
X009401Y008341D01*
X008401Y008341D02*
X008401Y007707D01*
X006901Y007707D02*
X006901Y008341D01*
X005901Y008341D02*
X005901Y007707D01*
X004901Y007707D02*
X004901Y008341D01*
X003401Y008341D02*
X003401Y007707D01*
X002401Y007707D02*
X002401Y008341D01*
X001401Y008341D02*
X001401Y007707D01*
X001401Y005841D02*
X001401Y005207D01*
X002401Y005207D02*
X002401Y005841D01*
X003401Y005841D02*
X003401Y005207D01*
X004901Y005207D02*
X004901Y005841D01*
X005901Y005841D02*
X005901Y005207D01*
X006901Y005207D02*
X006901Y005841D01*
X008401Y005841D02*
X008401Y005207D01*
D13*
X008401Y005524D02*
X008401Y008024D01*
X008401Y009274D01*
X011651Y009274D01*
X011901Y009024D01*
X011901Y008024D01*
X011901Y005524D01*
X008401Y009274D02*
X004901Y009274D01*
X004901Y008024D01*
X004901Y005524D01*
X001401Y005524D02*
X001401Y005274D01*
X005401Y001274D01*
X001401Y005524D02*
X001401Y008024D01*
X001401Y009024D01*
X001651Y009274D01*
X004901Y009274D01*
M02*
