G75*
G70*
%OFA0B0*%
%FSLAX24Y24*%
%IPPOS*%
%LPD*%
%AMOC8*
5,1,8,0,0,1.08239X$1,22.5*
%
%ADD10C,0.0000*%
%ADD11C,0.0100*%
%ADD12C,0.0560*%
%ADD13C,0.0750*%
%ADD14R,0.0390X0.0120*%
%ADD15R,0.1181X0.1181*%
%ADD16R,0.0433X0.0394*%
%ADD17R,0.0394X0.0433*%
%ADD18OC8,0.0630*%
%ADD19C,0.0630*%
%ADD20R,0.0400X0.0400*%
%ADD21C,0.0160*%
%ADD22C,0.0400*%
%ADD23C,0.0320*%
D10*
X000524Y000524D02*
X000524Y010024D01*
X015524Y010024D01*
X015524Y000524D01*
X000524Y000524D01*
X001624Y002274D02*
X001626Y002324D01*
X001632Y002374D01*
X001642Y002424D01*
X001655Y002472D01*
X001672Y002520D01*
X001693Y002566D01*
X001717Y002610D01*
X001745Y002652D01*
X001776Y002692D01*
X001810Y002729D01*
X001847Y002764D01*
X001886Y002795D01*
X001927Y002824D01*
X001971Y002849D01*
X002017Y002871D01*
X002064Y002889D01*
X002112Y002903D01*
X002161Y002914D01*
X002211Y002921D01*
X002261Y002924D01*
X002312Y002923D01*
X002362Y002918D01*
X002412Y002909D01*
X002460Y002897D01*
X002508Y002880D01*
X002554Y002860D01*
X002599Y002837D01*
X002642Y002810D01*
X002682Y002780D01*
X002720Y002747D01*
X002755Y002711D01*
X002788Y002672D01*
X002817Y002631D01*
X002843Y002588D01*
X002866Y002543D01*
X002885Y002496D01*
X002900Y002448D01*
X002912Y002399D01*
X002920Y002349D01*
X002924Y002299D01*
X002924Y002249D01*
X002920Y002199D01*
X002912Y002149D01*
X002900Y002100D01*
X002885Y002052D01*
X002866Y002005D01*
X002843Y001960D01*
X002817Y001917D01*
X002788Y001876D01*
X002755Y001837D01*
X002720Y001801D01*
X002682Y001768D01*
X002642Y001738D01*
X002599Y001711D01*
X002554Y001688D01*
X002508Y001668D01*
X002460Y001651D01*
X002412Y001639D01*
X002362Y001630D01*
X002312Y001625D01*
X002261Y001624D01*
X002211Y001627D01*
X002161Y001634D01*
X002112Y001645D01*
X002064Y001659D01*
X002017Y001677D01*
X001971Y001699D01*
X001927Y001724D01*
X001886Y001753D01*
X001847Y001784D01*
X001810Y001819D01*
X001776Y001856D01*
X001745Y001896D01*
X001717Y001938D01*
X001693Y001982D01*
X001672Y002028D01*
X001655Y002076D01*
X001642Y002124D01*
X001632Y002174D01*
X001626Y002224D01*
X001624Y002274D01*
X013124Y002274D02*
X013126Y002324D01*
X013132Y002374D01*
X013142Y002424D01*
X013155Y002472D01*
X013172Y002520D01*
X013193Y002566D01*
X013217Y002610D01*
X013245Y002652D01*
X013276Y002692D01*
X013310Y002729D01*
X013347Y002764D01*
X013386Y002795D01*
X013427Y002824D01*
X013471Y002849D01*
X013517Y002871D01*
X013564Y002889D01*
X013612Y002903D01*
X013661Y002914D01*
X013711Y002921D01*
X013761Y002924D01*
X013812Y002923D01*
X013862Y002918D01*
X013912Y002909D01*
X013960Y002897D01*
X014008Y002880D01*
X014054Y002860D01*
X014099Y002837D01*
X014142Y002810D01*
X014182Y002780D01*
X014220Y002747D01*
X014255Y002711D01*
X014288Y002672D01*
X014317Y002631D01*
X014343Y002588D01*
X014366Y002543D01*
X014385Y002496D01*
X014400Y002448D01*
X014412Y002399D01*
X014420Y002349D01*
X014424Y002299D01*
X014424Y002249D01*
X014420Y002199D01*
X014412Y002149D01*
X014400Y002100D01*
X014385Y002052D01*
X014366Y002005D01*
X014343Y001960D01*
X014317Y001917D01*
X014288Y001876D01*
X014255Y001837D01*
X014220Y001801D01*
X014182Y001768D01*
X014142Y001738D01*
X014099Y001711D01*
X014054Y001688D01*
X014008Y001668D01*
X013960Y001651D01*
X013912Y001639D01*
X013862Y001630D01*
X013812Y001625D01*
X013761Y001624D01*
X013711Y001627D01*
X013661Y001634D01*
X013612Y001645D01*
X013564Y001659D01*
X013517Y001677D01*
X013471Y001699D01*
X013427Y001724D01*
X013386Y001753D01*
X013347Y001784D01*
X013310Y001819D01*
X013276Y001856D01*
X013245Y001896D01*
X013217Y001938D01*
X013193Y001982D01*
X013172Y002028D01*
X013155Y002076D01*
X013142Y002124D01*
X013132Y002174D01*
X013126Y002224D01*
X013124Y002274D01*
D11*
X012274Y002974D02*
X013074Y003774D01*
X014824Y003774D01*
X015374Y004324D01*
X015374Y005874D01*
X015090Y006158D01*
X013673Y006158D01*
X013673Y005902D02*
X014581Y005902D01*
X014774Y005709D01*
X014408Y005702D02*
X014408Y005574D01*
X013956Y005574D01*
X013930Y005600D01*
X013416Y005600D01*
X013328Y005512D01*
X013328Y005311D01*
X013191Y005174D01*
X013074Y005057D01*
X013074Y004574D01*
X012857Y004574D01*
X012691Y004574D01*
X011791Y003674D01*
X011291Y003674D01*
X011174Y003557D01*
X010974Y003357D01*
X010974Y003191D01*
X010974Y002391D01*
X011091Y002274D01*
X011324Y002041D01*
X011324Y001762D01*
X011412Y001674D01*
X011874Y001674D01*
X011874Y001207D01*
X011791Y001124D01*
X010860Y001124D01*
X010179Y001848D01*
X010189Y001844D01*
X010360Y001844D01*
X010518Y001910D01*
X010639Y002031D01*
X010704Y002189D01*
X010704Y002360D01*
X010639Y002518D01*
X010518Y002639D01*
X010360Y002704D01*
X010189Y002704D01*
X010031Y002639D01*
X009910Y002518D01*
X009844Y002360D01*
X009844Y002189D01*
X009910Y002031D01*
X009966Y001974D01*
X009897Y001976D01*
X009895Y001974D01*
X009582Y001974D01*
X009639Y002031D01*
X009704Y002189D01*
X009704Y002360D01*
X009639Y002518D01*
X009518Y002639D01*
X009360Y002704D01*
X009189Y002704D01*
X009031Y002639D01*
X008910Y002518D01*
X008844Y002360D01*
X008844Y002189D01*
X008910Y002031D01*
X008966Y001974D01*
X008582Y001974D01*
X008639Y002031D01*
X008704Y002189D01*
X008704Y002360D01*
X008639Y002518D01*
X008518Y002639D01*
X008360Y002704D01*
X008189Y002704D01*
X008031Y002639D01*
X007910Y002518D01*
X007856Y002389D01*
X007704Y002237D01*
X007704Y002360D01*
X007639Y002518D01*
X007518Y002639D01*
X007360Y002704D01*
X007277Y002704D01*
X007174Y002807D01*
X007174Y004291D01*
X007174Y004457D01*
X006474Y005157D01*
X006474Y005891D01*
X006474Y006057D01*
X006374Y006157D01*
X006173Y006358D01*
X006007Y006358D01*
X005733Y006358D01*
X005804Y006429D01*
X005804Y006666D01*
X005837Y006698D01*
X005884Y006812D01*
X005884Y006912D01*
X005884Y007036D01*
X005837Y007150D01*
X005049Y007937D01*
X005049Y008504D01*
X004969Y008696D01*
X004821Y008844D01*
X004629Y008924D01*
X004420Y008924D01*
X004227Y008844D01*
X004079Y008696D01*
X003999Y008504D01*
X003999Y007545D01*
X004079Y007352D01*
X004227Y007204D01*
X004420Y007124D01*
X004629Y007124D01*
X004821Y007204D01*
X004864Y007246D01*
X005264Y006846D01*
X005264Y006812D01*
X005311Y006698D01*
X005344Y006666D01*
X005344Y006644D01*
X005078Y006644D01*
X005058Y006624D01*
X004916Y006624D01*
X004828Y006536D01*
X004828Y006292D01*
X004834Y006286D01*
X004828Y006280D01*
X004828Y006036D01*
X004834Y006030D01*
X004828Y006024D01*
X004828Y005780D01*
X004916Y005692D01*
X005358Y005692D01*
X005358Y005600D01*
X004916Y005600D01*
X004828Y005512D01*
X004828Y005311D01*
X004741Y005224D01*
X004624Y005107D01*
X004624Y004257D01*
X004624Y004091D01*
X004724Y003991D01*
X004841Y003874D01*
X005274Y003874D01*
X005274Y003412D01*
X005362Y003324D01*
X005886Y003324D01*
X005924Y003362D01*
X005962Y003324D01*
X006024Y003324D01*
X006024Y002632D01*
X005910Y002518D01*
X005844Y002360D01*
X005844Y002189D01*
X005910Y002031D01*
X006031Y001910D01*
X006189Y001844D01*
X006360Y001844D01*
X006518Y001910D01*
X006574Y001966D01*
X006574Y001657D01*
X006531Y001639D01*
X006410Y001518D01*
X006344Y001360D01*
X006344Y001189D01*
X006410Y001031D01*
X006531Y000910D01*
X006689Y000844D01*
X006860Y000844D01*
X007018Y000910D01*
X007124Y001016D01*
X007124Y000941D01*
X007391Y000674D01*
X004607Y000674D01*
X004674Y000741D01*
X004674Y000907D01*
X004674Y001174D01*
X004627Y001221D01*
X004674Y001268D01*
X004674Y001434D01*
X004674Y001455D01*
X004674Y001567D01*
X004674Y001567D01*
X004674Y001567D01*
X004629Y001613D01*
X004627Y001615D01*
X004674Y001662D01*
X004674Y002095D01*
X004660Y002108D01*
X004674Y002122D01*
X004674Y002555D01*
X004557Y002672D01*
X004391Y002672D01*
X004274Y002555D01*
X004274Y002539D01*
X003991Y002539D01*
X003987Y002534D01*
X003953Y002767D01*
X003746Y003220D01*
X003420Y003597D01*
X003001Y003866D01*
X002523Y004006D01*
X002025Y004006D01*
X001547Y003866D01*
X001128Y003597D01*
X001128Y003597D01*
X001128Y003597D01*
X000802Y003220D01*
X000674Y002940D01*
X000674Y009874D01*
X014720Y009874D01*
X014691Y009845D01*
X014624Y009778D01*
X014624Y009612D01*
X014624Y009412D01*
X014671Y009365D01*
X014624Y009317D01*
X014624Y009152D01*
X014624Y008952D01*
X014704Y008871D01*
X014624Y008790D01*
X014624Y008625D01*
X014683Y008565D01*
X014874Y008374D01*
X014941Y008374D01*
X015107Y008374D01*
X015307Y008374D01*
X015374Y008441D01*
X015374Y006157D01*
X015173Y006358D01*
X015007Y006358D01*
X014233Y006358D01*
X014304Y006429D01*
X014304Y006666D01*
X014337Y006698D01*
X014384Y006812D01*
X014384Y006912D01*
X014384Y007036D01*
X014337Y007150D01*
X013549Y007937D01*
X013549Y008504D01*
X013469Y008696D01*
X013321Y008844D01*
X013129Y008924D01*
X012920Y008924D01*
X012727Y008844D01*
X012579Y008696D01*
X012499Y008504D01*
X012499Y007545D01*
X012579Y007352D01*
X012727Y007204D01*
X012920Y007124D01*
X013129Y007124D01*
X013321Y007204D01*
X013364Y007246D01*
X013764Y006846D01*
X013764Y006812D01*
X013811Y006698D01*
X013844Y006666D01*
X013844Y006644D01*
X013578Y006644D01*
X013558Y006624D01*
X013416Y006624D01*
X013328Y006536D01*
X013328Y006292D01*
X013334Y006286D01*
X013328Y006280D01*
X013328Y006036D01*
X013334Y006030D01*
X013328Y006024D01*
X013328Y005780D01*
X013416Y005692D01*
X013930Y005692D01*
X013940Y005702D01*
X014408Y005702D01*
X014408Y005648D02*
X010859Y005648D01*
X010871Y005661D02*
X010871Y005672D01*
X011471Y005672D01*
X011491Y005692D01*
X011632Y005692D01*
X011720Y005780D01*
X011720Y006024D01*
X011714Y006030D01*
X011720Y006036D01*
X011720Y006184D01*
X011809Y006184D01*
X011919Y006294D01*
X012054Y006429D01*
X012054Y006716D01*
X012087Y006748D01*
X012134Y006862D01*
X012134Y007662D01*
X012134Y007786D01*
X012087Y007900D01*
X012049Y007937D01*
X012049Y008504D01*
X011969Y008696D01*
X011821Y008844D01*
X011629Y008924D01*
X011420Y008924D01*
X011227Y008844D01*
X011079Y008696D01*
X010999Y008504D01*
X010999Y007545D01*
X011079Y007352D01*
X011227Y007204D01*
X011420Y007124D01*
X011514Y007124D01*
X011514Y006880D01*
X011491Y006880D01*
X011471Y006900D01*
X011274Y006900D01*
X011054Y007119D01*
X010919Y007254D01*
X010219Y007254D01*
X010029Y007254D01*
X009929Y007154D01*
X009794Y007019D01*
X009794Y006975D01*
X009765Y006975D01*
X009265Y006975D01*
X009224Y006934D01*
X008362Y006934D01*
X008248Y006887D01*
X008161Y006800D01*
X007801Y006439D01*
X007747Y006439D01*
X007584Y006602D01*
X007584Y007217D01*
X007719Y007352D01*
X007799Y007545D01*
X007799Y008504D01*
X007719Y008696D01*
X007584Y008832D01*
X007584Y008836D01*
X007537Y008950D01*
X006787Y009700D01*
X006700Y009787D01*
X006586Y009834D01*
X002836Y009834D01*
X002712Y009834D01*
X002598Y009787D01*
X001848Y009037D01*
X001761Y008950D01*
X001714Y008836D01*
X001714Y007254D01*
X001529Y007254D01*
X001429Y007154D01*
X001294Y007019D01*
X001294Y006975D01*
X001265Y006975D01*
X000765Y006975D01*
X000677Y006887D01*
X000677Y006330D01*
X000733Y006274D01*
X000677Y006218D01*
X000677Y005661D01*
X000765Y005573D01*
X000794Y005573D01*
X000794Y005529D01*
X000929Y005394D01*
X001379Y004944D01*
X001569Y004944D01*
X002279Y004944D01*
X002469Y004944D01*
X002534Y005009D01*
X002618Y004924D01*
X003132Y004924D01*
X003220Y005012D01*
X003220Y005256D01*
X003214Y005262D01*
X003220Y005268D01*
X003220Y005512D01*
X003132Y005600D01*
X002991Y005600D01*
X002971Y005620D01*
X002685Y005620D01*
X002495Y005620D01*
X002279Y005404D01*
X001569Y005404D01*
X001342Y005632D01*
X001371Y005661D01*
X001371Y006218D01*
X001347Y006242D01*
X001701Y006242D01*
X001677Y006218D01*
X001677Y005661D01*
X001765Y005573D01*
X002283Y005573D01*
X002371Y005661D01*
X002371Y005672D01*
X002971Y005672D01*
X002991Y005692D01*
X003132Y005692D01*
X003220Y005780D01*
X003220Y006024D01*
X003214Y006030D01*
X003220Y006036D01*
X003220Y006184D01*
X003309Y006184D01*
X003419Y006294D01*
X003554Y006429D01*
X003554Y006716D01*
X003587Y006748D01*
X003634Y006862D01*
X003634Y007662D01*
X003634Y007786D01*
X003587Y007900D01*
X003549Y007937D01*
X003549Y008504D01*
X003469Y008696D01*
X003321Y008844D01*
X003129Y008924D01*
X002920Y008924D01*
X002727Y008844D01*
X002579Y008696D01*
X002499Y008504D01*
X002499Y007545D01*
X002579Y007352D01*
X002727Y007204D01*
X002920Y007124D01*
X003014Y007124D01*
X003014Y006880D01*
X002991Y006880D01*
X002971Y006900D01*
X002774Y006900D01*
X002419Y007254D01*
X002334Y007254D01*
X002334Y008646D01*
X002902Y009214D01*
X006396Y009214D01*
X006871Y008739D01*
X006829Y008696D01*
X006749Y008504D01*
X006749Y007545D01*
X006829Y007352D01*
X006964Y007217D01*
X006964Y006536D01*
X006964Y006412D01*
X007011Y006298D01*
X007309Y006001D01*
X007309Y005882D01*
X007380Y005711D01*
X007511Y005580D01*
X007682Y005509D01*
X007867Y005509D01*
X008037Y005580D01*
X008168Y005711D01*
X008239Y005882D01*
X008239Y006001D01*
X008552Y006314D01*
X009193Y006314D01*
X009233Y006274D01*
X009177Y006218D01*
X009177Y005661D01*
X009265Y005573D01*
X009294Y005573D01*
X009294Y005529D01*
X009429Y005394D01*
X009879Y004944D01*
X010069Y004944D01*
X010969Y004944D01*
X011034Y005009D01*
X011118Y004924D01*
X011632Y004924D01*
X011720Y005012D01*
X011720Y005256D01*
X011714Y005262D01*
X011720Y005268D01*
X011720Y005512D01*
X011632Y005600D01*
X011491Y005600D01*
X011471Y005620D01*
X011185Y005620D01*
X010995Y005620D01*
X010779Y005404D01*
X010069Y005404D01*
X009842Y005632D01*
X009871Y005661D01*
X009871Y006218D01*
X009847Y006242D01*
X010201Y006242D01*
X010177Y006218D01*
X010177Y005661D01*
X010265Y005573D01*
X010783Y005573D01*
X010871Y005661D01*
X010925Y005550D02*
X009924Y005550D01*
X009858Y005648D02*
X010190Y005648D01*
X010177Y005747D02*
X009871Y005747D01*
X009871Y005845D02*
X010177Y005845D01*
X010177Y005944D02*
X009871Y005944D01*
X009871Y006043D02*
X010177Y006043D01*
X010177Y006141D02*
X009871Y006141D01*
X009849Y006240D02*
X010199Y006240D01*
X009294Y005550D02*
X007965Y005550D01*
X008106Y005648D02*
X009190Y005648D01*
X009177Y005747D02*
X008183Y005747D01*
X008224Y005845D02*
X009177Y005845D01*
X009177Y005944D02*
X008239Y005944D01*
X008281Y006043D02*
X009177Y006043D01*
X009177Y006141D02*
X008379Y006141D01*
X008478Y006240D02*
X009199Y006240D01*
X008351Y006929D02*
X007584Y006929D01*
X007584Y006831D02*
X008192Y006831D01*
X008094Y006732D02*
X007584Y006732D01*
X007584Y006634D02*
X007995Y006634D01*
X007897Y006535D02*
X007651Y006535D01*
X007169Y006141D02*
X006390Y006141D01*
X006474Y006043D02*
X007267Y006043D01*
X007309Y005944D02*
X006474Y005944D01*
X006474Y005845D02*
X007324Y005845D01*
X007365Y005747D02*
X006474Y005747D01*
X006474Y005648D02*
X007442Y005648D01*
X007583Y005550D02*
X006474Y005550D01*
X006474Y005451D02*
X009372Y005451D01*
X009470Y005353D02*
X006474Y005353D01*
X006474Y005254D02*
X009569Y005254D01*
X009667Y005156D02*
X006475Y005156D01*
X006574Y005057D02*
X009766Y005057D01*
X009864Y004959D02*
X006672Y004959D01*
X006771Y004860D02*
X013074Y004860D01*
X013074Y004761D02*
X006870Y004761D01*
X006968Y004663D02*
X013074Y004663D01*
X013274Y004474D02*
X013174Y004374D01*
X012774Y004374D01*
X011874Y003474D01*
X011374Y003474D01*
X011174Y003274D01*
X011174Y002474D01*
X011624Y002024D01*
X011674Y002024D01*
X011324Y002002D02*
X010610Y002002D01*
X010668Y002101D02*
X011265Y002101D01*
X011166Y002199D02*
X010704Y002199D01*
X010704Y002298D02*
X011067Y002298D01*
X010974Y002396D02*
X010689Y002396D01*
X010648Y002495D02*
X010974Y002495D01*
X010974Y002594D02*
X010563Y002594D01*
X010389Y002692D02*
X010974Y002692D01*
X010974Y002791D02*
X007190Y002791D01*
X007174Y002889D02*
X010974Y002889D01*
X010974Y002988D02*
X007174Y002988D01*
X007174Y003086D02*
X010974Y003086D01*
X010974Y003185D02*
X007174Y003185D01*
X007174Y003283D02*
X010974Y003283D01*
X010999Y003382D02*
X007174Y003382D01*
X007174Y003480D02*
X011098Y003480D01*
X011196Y003579D02*
X007174Y003579D01*
X007174Y003677D02*
X011795Y003677D01*
X011893Y003776D02*
X007174Y003776D01*
X007174Y003875D02*
X011992Y003875D01*
X012090Y003973D02*
X007174Y003973D01*
X007174Y004072D02*
X012189Y004072D01*
X012287Y004170D02*
X007174Y004170D01*
X007174Y004269D02*
X012386Y004269D01*
X012484Y004367D02*
X007174Y004367D01*
X007165Y004466D02*
X012583Y004466D01*
X012682Y004564D02*
X007067Y004564D01*
X006974Y004374D02*
X006274Y005074D01*
X006274Y005974D01*
X006174Y006074D01*
X006090Y006158D01*
X005173Y006158D01*
X005173Y005902D02*
X005531Y005902D01*
X005724Y005709D01*
X005358Y005648D02*
X002359Y005648D01*
X002425Y005550D02*
X001424Y005550D01*
X001358Y005648D02*
X001690Y005648D01*
X001677Y005747D02*
X001371Y005747D01*
X001371Y005845D02*
X001677Y005845D01*
X001677Y005944D02*
X001371Y005944D01*
X001371Y006043D02*
X001677Y006043D01*
X001677Y006141D02*
X001371Y006141D01*
X001349Y006240D02*
X001699Y006240D01*
X000699Y006240D02*
X000674Y006240D01*
X000674Y006338D02*
X000677Y006338D01*
X000674Y006437D02*
X000677Y006437D01*
X000674Y006535D02*
X000677Y006535D01*
X000674Y006634D02*
X000677Y006634D01*
X000674Y006732D02*
X000677Y006732D01*
X000674Y006831D02*
X000677Y006831D01*
X000674Y006929D02*
X000719Y006929D01*
X000674Y007028D02*
X001303Y007028D01*
X001401Y007126D02*
X000674Y007126D01*
X000674Y007225D02*
X001500Y007225D01*
X001714Y007324D02*
X000674Y007324D01*
X000674Y007422D02*
X001714Y007422D01*
X001714Y007521D02*
X000674Y007521D01*
X000674Y007619D02*
X001714Y007619D01*
X001714Y007718D02*
X000674Y007718D01*
X000674Y007816D02*
X001714Y007816D01*
X001714Y007915D02*
X000674Y007915D01*
X000674Y008013D02*
X001714Y008013D01*
X001714Y008112D02*
X000674Y008112D01*
X000674Y008210D02*
X001714Y008210D01*
X001714Y008309D02*
X000674Y008309D01*
X000674Y008408D02*
X001714Y008408D01*
X001714Y008506D02*
X000674Y008506D01*
X000674Y008605D02*
X001714Y008605D01*
X001714Y008703D02*
X000674Y008703D01*
X000674Y008802D02*
X001714Y008802D01*
X001741Y008900D02*
X000674Y008900D01*
X000674Y008999D02*
X001810Y008999D01*
X001909Y009097D02*
X000674Y009097D01*
X000674Y009196D02*
X002008Y009196D01*
X002106Y009294D02*
X000674Y009294D01*
X000674Y009393D02*
X002205Y009393D01*
X002303Y009492D02*
X000674Y009492D01*
X000674Y009590D02*
X002402Y009590D01*
X002500Y009689D02*
X000674Y009689D01*
X000674Y009787D02*
X002599Y009787D01*
X002884Y009196D02*
X006414Y009196D01*
X006512Y009097D02*
X002786Y009097D01*
X002687Y008999D02*
X006611Y008999D01*
X006709Y008900D02*
X004686Y008900D01*
X004864Y008802D02*
X006808Y008802D01*
X006836Y008703D02*
X004962Y008703D01*
X005007Y008605D02*
X006791Y008605D01*
X006750Y008506D02*
X005048Y008506D01*
X005049Y008408D02*
X006749Y008408D01*
X006749Y008309D02*
X005049Y008309D01*
X005049Y008210D02*
X006749Y008210D01*
X006749Y008112D02*
X005049Y008112D01*
X005049Y008013D02*
X006749Y008013D01*
X006749Y007915D02*
X005072Y007915D01*
X005170Y007816D02*
X006749Y007816D01*
X006749Y007718D02*
X005269Y007718D01*
X005367Y007619D02*
X006749Y007619D01*
X006759Y007521D02*
X005466Y007521D01*
X005564Y007422D02*
X006800Y007422D01*
X006857Y007324D02*
X005663Y007324D01*
X005761Y007225D02*
X006956Y007225D01*
X006964Y007126D02*
X005846Y007126D01*
X005884Y007028D02*
X006964Y007028D01*
X006964Y006929D02*
X005884Y006929D01*
X005884Y006831D02*
X006964Y006831D01*
X006964Y006732D02*
X005851Y006732D01*
X005804Y006634D02*
X006964Y006634D01*
X006964Y006535D02*
X005804Y006535D01*
X005804Y006437D02*
X006964Y006437D01*
X006995Y006338D02*
X006193Y006338D01*
X006291Y006240D02*
X007070Y006240D01*
X007584Y007028D02*
X009803Y007028D01*
X009901Y007126D02*
X007584Y007126D01*
X007592Y007225D02*
X010000Y007225D01*
X010948Y007225D02*
X011206Y007225D01*
X011107Y007324D02*
X007691Y007324D01*
X007748Y007422D02*
X011050Y007422D01*
X011009Y007521D02*
X007789Y007521D01*
X007799Y007619D02*
X010999Y007619D01*
X010999Y007718D02*
X007799Y007718D01*
X007799Y007816D02*
X010999Y007816D01*
X010999Y007915D02*
X007799Y007915D01*
X007799Y008013D02*
X010999Y008013D01*
X010999Y008112D02*
X007799Y008112D01*
X007799Y008210D02*
X010999Y008210D01*
X010999Y008309D02*
X007799Y008309D01*
X007799Y008408D02*
X010999Y008408D01*
X011000Y008506D02*
X007798Y008506D01*
X007757Y008605D02*
X011041Y008605D01*
X011086Y008703D02*
X007712Y008703D01*
X007614Y008802D02*
X011184Y008802D01*
X011362Y008900D02*
X007557Y008900D01*
X007488Y008999D02*
X014624Y008999D01*
X014624Y009097D02*
X007389Y009097D01*
X007291Y009196D02*
X014624Y009196D01*
X014624Y009294D02*
X007192Y009294D01*
X007094Y009393D02*
X014643Y009393D01*
X014624Y009492D02*
X006995Y009492D01*
X006896Y009590D02*
X014624Y009590D01*
X014624Y009689D02*
X006798Y009689D01*
X006699Y009787D02*
X014633Y009787D01*
X014824Y009695D02*
X014891Y009762D01*
X014957Y009762D01*
X015024Y009695D01*
X015024Y009495D01*
X015024Y009301D02*
X014891Y009301D01*
X014824Y009235D01*
X014824Y009034D01*
X015224Y009034D01*
X015091Y009034D02*
X015091Y009235D01*
X015024Y009301D01*
X015224Y009495D02*
X014824Y009495D01*
X014824Y009695D01*
X015024Y009695D02*
X015091Y009762D01*
X015157Y009762D01*
X015224Y009695D01*
X015224Y009495D01*
X015224Y008841D02*
X014957Y008841D01*
X014824Y008708D01*
X014957Y008574D01*
X015224Y008574D01*
X015340Y008408D02*
X015374Y008408D01*
X015374Y008309D02*
X013549Y008309D01*
X013549Y008210D02*
X015374Y008210D01*
X015374Y008112D02*
X013549Y008112D01*
X013549Y008013D02*
X015374Y008013D01*
X015374Y007915D02*
X013572Y007915D01*
X013670Y007816D02*
X015374Y007816D01*
X015374Y007718D02*
X013769Y007718D01*
X013867Y007619D02*
X015374Y007619D01*
X015374Y007521D02*
X013966Y007521D01*
X014064Y007422D02*
X015374Y007422D01*
X015374Y007324D02*
X014163Y007324D01*
X014261Y007225D02*
X015374Y007225D01*
X015374Y007126D02*
X014346Y007126D01*
X014384Y007028D02*
X015374Y007028D01*
X015374Y006929D02*
X014384Y006929D01*
X014384Y006831D02*
X015374Y006831D01*
X015374Y006732D02*
X014351Y006732D01*
X014304Y006634D02*
X015374Y006634D01*
X015374Y006535D02*
X014304Y006535D01*
X014304Y006437D02*
X015374Y006437D01*
X015374Y006338D02*
X015193Y006338D01*
X015291Y006240D02*
X015374Y006240D01*
X015074Y005374D02*
X013824Y005374D01*
X013808Y005390D01*
X013673Y005390D01*
X013673Y005134D02*
X013434Y005134D01*
X013274Y004974D01*
X013274Y004474D01*
X012874Y004174D02*
X011874Y003174D01*
X011874Y002824D01*
X011674Y002624D01*
X011674Y002974D01*
X011524Y003124D01*
X012074Y003074D02*
X012974Y003974D01*
X014674Y003974D01*
X015174Y004474D01*
X015174Y005274D01*
X015074Y005374D01*
X014774Y005039D02*
X014774Y004889D01*
X014224Y004339D01*
X014189Y004339D01*
X014024Y004174D01*
X012874Y004174D01*
X013074Y004959D02*
X011667Y004959D01*
X011628Y004878D02*
X012174Y005424D01*
X011720Y005451D02*
X013328Y005451D01*
X013328Y005353D02*
X011720Y005353D01*
X011720Y005254D02*
X013271Y005254D01*
X013173Y005156D02*
X011720Y005156D01*
X011720Y005057D02*
X013074Y005057D01*
X013673Y004878D02*
X014094Y004878D01*
X014224Y005009D01*
X013365Y005550D02*
X011683Y005550D01*
X011687Y005747D02*
X013361Y005747D01*
X013328Y005845D02*
X011720Y005845D01*
X011720Y005944D02*
X013328Y005944D01*
X013328Y006043D02*
X011720Y006043D01*
X011720Y006141D02*
X013328Y006141D01*
X013328Y006240D02*
X011865Y006240D01*
X011963Y006338D02*
X013328Y006338D01*
X013328Y006437D02*
X012054Y006437D01*
X012054Y006535D02*
X013328Y006535D01*
X013568Y006634D02*
X012054Y006634D01*
X012071Y006732D02*
X013797Y006732D01*
X013764Y006831D02*
X012121Y006831D01*
X012134Y006929D02*
X013680Y006929D01*
X013582Y007028D02*
X012134Y007028D01*
X012134Y007126D02*
X012914Y007126D01*
X013134Y007126D02*
X013483Y007126D01*
X013385Y007225D02*
X013342Y007225D01*
X012706Y007225D02*
X012134Y007225D01*
X012134Y007324D02*
X012607Y007324D01*
X012550Y007422D02*
X012134Y007422D01*
X012134Y007521D02*
X012509Y007521D01*
X012499Y007619D02*
X012134Y007619D01*
X012134Y007718D02*
X012499Y007718D01*
X012499Y007816D02*
X012121Y007816D01*
X012072Y007915D02*
X012499Y007915D01*
X012499Y008013D02*
X012049Y008013D01*
X012049Y008112D02*
X012499Y008112D01*
X012499Y008210D02*
X012049Y008210D01*
X012049Y008309D02*
X012499Y008309D01*
X012499Y008408D02*
X012049Y008408D01*
X012048Y008506D02*
X012500Y008506D01*
X012541Y008605D02*
X012007Y008605D01*
X011962Y008703D02*
X012586Y008703D01*
X012684Y008802D02*
X011864Y008802D01*
X011686Y008900D02*
X012862Y008900D01*
X013186Y008900D02*
X014675Y008900D01*
X014635Y008802D02*
X013364Y008802D01*
X013462Y008703D02*
X014624Y008703D01*
X014624Y008790D02*
X014624Y008790D01*
X014644Y008605D02*
X013507Y008605D01*
X013548Y008506D02*
X014742Y008506D01*
X014841Y008408D02*
X013549Y008408D01*
X015024Y008574D02*
X015024Y008841D01*
X011514Y007028D02*
X011145Y007028D01*
X011047Y007126D02*
X011414Y007126D01*
X011514Y006929D02*
X011244Y006929D01*
X010826Y005451D02*
X010022Y005451D01*
X010984Y004959D02*
X011084Y004959D01*
X011375Y004878D02*
X011628Y004878D01*
X012074Y003074D02*
X012074Y001124D01*
X011874Y000924D01*
X010774Y000924D01*
X009974Y001774D01*
X008274Y001774D01*
X007774Y001274D01*
X007324Y001024D02*
X007624Y000724D01*
X012024Y000724D01*
X012274Y000974D01*
X012274Y002974D01*
X011324Y001904D02*
X010503Y001904D01*
X010312Y001707D02*
X011379Y001707D01*
X011324Y001805D02*
X010219Y001805D01*
X010405Y001608D02*
X011874Y001608D01*
X011874Y001510D02*
X010498Y001510D01*
X010590Y001411D02*
X011874Y001411D01*
X011874Y001312D02*
X010683Y001312D01*
X010776Y001214D02*
X011874Y001214D01*
X011674Y001424D02*
X011174Y001424D01*
X009938Y002002D02*
X009610Y002002D01*
X009668Y002101D02*
X009880Y002101D01*
X009844Y002199D02*
X009704Y002199D01*
X009704Y002298D02*
X009844Y002298D01*
X009859Y002396D02*
X009689Y002396D01*
X009648Y002495D02*
X009900Y002495D01*
X009985Y002594D02*
X009563Y002594D01*
X009389Y002692D02*
X010160Y002692D01*
X009160Y002692D02*
X008389Y002692D01*
X008563Y002594D02*
X008985Y002594D01*
X008900Y002495D02*
X008648Y002495D01*
X008689Y002396D02*
X008859Y002396D01*
X008844Y002298D02*
X008704Y002298D01*
X008704Y002199D02*
X008844Y002199D01*
X008880Y002101D02*
X008668Y002101D01*
X008610Y002002D02*
X008938Y002002D01*
X008274Y002274D02*
X008024Y002274D01*
X007324Y001574D01*
X007324Y001024D01*
X007147Y000918D02*
X007026Y000918D01*
X007246Y000820D02*
X004674Y000820D01*
X004674Y000918D02*
X006522Y000918D01*
X006423Y001017D02*
X004674Y001017D01*
X004674Y001115D02*
X006374Y001115D01*
X006344Y001214D02*
X004634Y001214D01*
X004674Y001312D02*
X006344Y001312D01*
X006365Y001411D02*
X004674Y001411D01*
X004674Y001510D02*
X006406Y001510D01*
X006500Y001608D02*
X004633Y001608D01*
X004674Y001707D02*
X006574Y001707D01*
X006574Y001805D02*
X004674Y001805D01*
X004674Y001904D02*
X006045Y001904D01*
X005938Y002002D02*
X004674Y002002D01*
X004668Y002101D02*
X005880Y002101D01*
X005844Y002199D02*
X004674Y002199D01*
X004674Y002298D02*
X005844Y002298D01*
X005859Y002396D02*
X004674Y002396D01*
X004674Y002495D02*
X005900Y002495D01*
X005985Y002594D02*
X004635Y002594D01*
X004474Y002472D02*
X004474Y002205D01*
X004474Y002339D02*
X004074Y002339D01*
X004207Y002205D01*
X004474Y002012D02*
X004474Y001745D01*
X004474Y001878D02*
X004074Y001878D01*
X004207Y001745D01*
X004141Y001551D02*
X004074Y001485D01*
X004074Y001351D01*
X004141Y001284D01*
X004407Y001284D01*
X004141Y001551D01*
X004407Y001551D01*
X004474Y001485D01*
X004474Y001351D01*
X004407Y001284D01*
X004474Y001091D02*
X004474Y000824D01*
X004207Y001091D01*
X004141Y001091D01*
X004074Y001024D01*
X004074Y000891D01*
X004141Y000824D01*
X004654Y000721D02*
X007344Y000721D01*
X006774Y001274D02*
X006774Y004124D01*
X006774Y004274D01*
X006074Y004974D01*
X006074Y005374D01*
X005189Y005374D01*
X005173Y005390D01*
X005173Y005134D02*
X004934Y005134D01*
X004824Y005024D01*
X004824Y004174D01*
X004924Y004074D01*
X005524Y004074D01*
X005624Y003974D01*
X005624Y003674D01*
X005274Y003677D02*
X003294Y003677D01*
X003420Y003597D02*
X003420Y003597D01*
X003435Y003579D02*
X005274Y003579D01*
X005274Y003480D02*
X003521Y003480D01*
X003606Y003382D02*
X005304Y003382D01*
X005274Y003776D02*
X003141Y003776D01*
X003001Y003866D02*
X003001Y003866D01*
X002972Y003875D02*
X004841Y003875D01*
X004742Y003973D02*
X002636Y003973D01*
X002523Y004006D02*
X002523Y004006D01*
X002025Y004006D02*
X002025Y004006D01*
X001912Y003973D02*
X000674Y003973D01*
X000674Y003875D02*
X001577Y003875D01*
X001547Y003866D02*
X001547Y003866D01*
X001407Y003776D02*
X000674Y003776D01*
X000674Y003677D02*
X001254Y003677D01*
X001113Y003579D02*
X000674Y003579D01*
X000674Y003480D02*
X001027Y003480D01*
X000942Y003382D02*
X000674Y003382D01*
X000674Y003283D02*
X000857Y003283D01*
X000802Y003220D02*
X000802Y003220D01*
X000786Y003185D02*
X000674Y003185D01*
X000674Y003086D02*
X000741Y003086D01*
X000696Y002988D02*
X000674Y002988D01*
X000674Y004072D02*
X004644Y004072D01*
X004624Y004170D02*
X000674Y004170D01*
X000674Y004269D02*
X004624Y004269D01*
X004624Y004367D02*
X000674Y004367D01*
X000674Y004466D02*
X004624Y004466D01*
X004624Y004564D02*
X000674Y004564D01*
X000674Y004663D02*
X004624Y004663D01*
X004624Y004761D02*
X000674Y004761D01*
X000674Y004860D02*
X004624Y004860D01*
X004624Y004959D02*
X003167Y004959D01*
X003128Y004878D02*
X003674Y005424D01*
X003220Y005451D02*
X004828Y005451D01*
X004828Y005353D02*
X003220Y005353D01*
X003220Y005254D02*
X004771Y005254D01*
X004673Y005156D02*
X003220Y005156D01*
X003220Y005057D02*
X004624Y005057D01*
X005173Y004878D02*
X005173Y004491D01*
X005189Y004474D01*
X005859Y004474D02*
X005859Y004905D01*
X005724Y005039D01*
X005859Y004474D02*
X005859Y004439D01*
X005909Y004439D01*
X006224Y004124D01*
X006224Y003674D01*
X006224Y002324D01*
X006274Y002274D01*
X006024Y002692D02*
X003964Y002692D01*
X003953Y002767D02*
X003953Y002767D01*
X003942Y002791D02*
X006024Y002791D01*
X006024Y002889D02*
X003897Y002889D01*
X003852Y002988D02*
X006024Y002988D01*
X006024Y003086D02*
X003807Y003086D01*
X003762Y003185D02*
X006024Y003185D01*
X006024Y003283D02*
X003692Y003283D01*
X003746Y003220D02*
X003746Y003220D01*
X003978Y002594D02*
X004313Y002594D01*
X006503Y001904D02*
X006574Y001904D01*
X007274Y002274D02*
X007274Y002424D01*
X006974Y002724D01*
X006974Y004374D01*
X004865Y005550D02*
X003183Y005550D01*
X003187Y005747D02*
X004861Y005747D01*
X004828Y005845D02*
X003220Y005845D01*
X003220Y005944D02*
X004828Y005944D01*
X004828Y006043D02*
X003220Y006043D01*
X003220Y006141D02*
X004828Y006141D01*
X004828Y006240D02*
X003365Y006240D01*
X003463Y006338D02*
X004828Y006338D01*
X004828Y006437D02*
X003554Y006437D01*
X003554Y006535D02*
X004828Y006535D01*
X005068Y006634D02*
X003554Y006634D01*
X003571Y006732D02*
X005297Y006732D01*
X005264Y006831D02*
X003621Y006831D01*
X003634Y006929D02*
X005180Y006929D01*
X005082Y007028D02*
X003634Y007028D01*
X003634Y007126D02*
X004414Y007126D01*
X004634Y007126D02*
X004983Y007126D01*
X004885Y007225D02*
X004842Y007225D01*
X004206Y007225D02*
X003634Y007225D01*
X003634Y007324D02*
X004107Y007324D01*
X004050Y007422D02*
X003634Y007422D01*
X003634Y007521D02*
X004009Y007521D01*
X003999Y007619D02*
X003634Y007619D01*
X003634Y007718D02*
X003999Y007718D01*
X003999Y007816D02*
X003621Y007816D01*
X003572Y007915D02*
X003999Y007915D01*
X003999Y008013D02*
X003549Y008013D01*
X003549Y008112D02*
X003999Y008112D01*
X003999Y008210D02*
X003549Y008210D01*
X003549Y008309D02*
X003999Y008309D01*
X003999Y008408D02*
X003549Y008408D01*
X003548Y008506D02*
X004000Y008506D01*
X004041Y008605D02*
X003507Y008605D01*
X003462Y008703D02*
X004086Y008703D01*
X004184Y008802D02*
X003364Y008802D01*
X003186Y008900D02*
X004362Y008900D01*
X002862Y008900D02*
X002589Y008900D01*
X002684Y008802D02*
X002490Y008802D01*
X002586Y008703D02*
X002392Y008703D01*
X002334Y008605D02*
X002541Y008605D01*
X002500Y008506D02*
X002334Y008506D01*
X002334Y008408D02*
X002499Y008408D01*
X002499Y008309D02*
X002334Y008309D01*
X002334Y008210D02*
X002499Y008210D01*
X002499Y008112D02*
X002334Y008112D01*
X002334Y008013D02*
X002499Y008013D01*
X002499Y007915D02*
X002334Y007915D01*
X002334Y007816D02*
X002499Y007816D01*
X002499Y007718D02*
X002334Y007718D01*
X002334Y007619D02*
X002499Y007619D01*
X002509Y007521D02*
X002334Y007521D01*
X002334Y007422D02*
X002550Y007422D01*
X002607Y007324D02*
X002334Y007324D01*
X002448Y007225D02*
X002706Y007225D01*
X002547Y007126D02*
X002914Y007126D01*
X003014Y007028D02*
X002645Y007028D01*
X002744Y006929D02*
X003014Y006929D01*
X002326Y005451D02*
X001522Y005451D01*
X001167Y005156D02*
X000674Y005156D01*
X000674Y005254D02*
X001069Y005254D01*
X000970Y005353D02*
X000674Y005353D01*
X000674Y005451D02*
X000872Y005451D01*
X000929Y005394D02*
X000929Y005394D01*
X000794Y005550D02*
X000674Y005550D01*
X000674Y005648D02*
X000690Y005648D01*
X000677Y005747D02*
X000674Y005747D01*
X000674Y005845D02*
X000677Y005845D01*
X000674Y005944D02*
X000677Y005944D01*
X000674Y006043D02*
X000677Y006043D01*
X000674Y006141D02*
X000677Y006141D01*
X000674Y005057D02*
X001266Y005057D01*
X001364Y004959D02*
X000674Y004959D01*
X002484Y004959D02*
X002584Y004959D01*
X002875Y004878D02*
X003128Y004878D01*
X007389Y002692D02*
X008160Y002692D01*
X007985Y002594D02*
X007563Y002594D01*
X007648Y002495D02*
X007900Y002495D01*
X007859Y002396D02*
X007689Y002396D01*
X007704Y002298D02*
X007765Y002298D01*
D12*
X007274Y002274D03*
X006274Y002274D03*
X005774Y001274D03*
X006774Y001274D03*
X007774Y001274D03*
X008774Y001274D03*
X009774Y001274D03*
X009274Y002274D03*
X010274Y002274D03*
X008274Y002274D03*
D13*
X008774Y007649D02*
X008774Y008399D01*
X007274Y008399D02*
X007274Y007649D01*
X004524Y007649D02*
X004524Y008399D01*
X003024Y008399D02*
X003024Y007649D01*
X011524Y007649D02*
X011524Y008399D01*
X013024Y008399D02*
X013024Y007649D01*
D14*
X013673Y006670D03*
X013673Y006414D03*
X013673Y006158D03*
X013673Y005902D03*
X013673Y005646D03*
X013673Y005390D03*
X013673Y005134D03*
X013673Y004878D03*
X011375Y004878D03*
X011375Y005134D03*
X011375Y005390D03*
X011375Y005646D03*
X011375Y005902D03*
X011375Y006158D03*
X011375Y006414D03*
X011375Y006670D03*
X005173Y006670D03*
X005173Y006414D03*
X005173Y006158D03*
X005173Y005902D03*
X005173Y005646D03*
X005173Y005390D03*
X005173Y005134D03*
X005173Y004878D03*
X002875Y004878D03*
X002875Y005134D03*
X002875Y005390D03*
X002875Y005646D03*
X002875Y005902D03*
X002875Y006158D03*
X002875Y006414D03*
X002875Y006670D03*
D15*
X004024Y005774D03*
X012524Y005774D03*
D16*
X014224Y005009D03*
X014774Y005039D03*
X014774Y005709D03*
X014224Y004339D03*
X005724Y005039D03*
X005724Y005709D03*
D17*
X005859Y004474D03*
X005189Y004474D03*
X002024Y005939D03*
X001524Y005939D03*
X001024Y005939D03*
X001024Y006609D03*
X001524Y006609D03*
X002024Y006609D03*
X009524Y006609D03*
X010024Y006609D03*
X010524Y006609D03*
X010524Y005939D03*
X010024Y005939D03*
X009524Y005939D03*
D18*
X007774Y004574D03*
D19*
X007774Y005974D03*
D20*
X006224Y003674D03*
X005624Y003674D03*
X005024Y003674D03*
X011674Y002624D03*
X011674Y002024D03*
X011674Y001424D03*
D21*
X010874Y005174D02*
X009974Y005174D01*
X009524Y005624D01*
X009524Y005939D01*
X010024Y005939D02*
X010024Y005624D01*
X010124Y005524D01*
X010874Y005524D01*
X010996Y005646D01*
X011375Y005646D01*
X012374Y005646D01*
X012174Y005446D01*
X012174Y005424D01*
X012374Y005646D02*
X012396Y005646D01*
X012524Y005774D01*
X012174Y006124D01*
X012524Y005774D02*
X012874Y005424D01*
X012652Y005646D02*
X012524Y005774D01*
X012874Y006124D01*
X012974Y006224D01*
X012974Y006424D01*
X013220Y006670D01*
X013673Y006670D01*
X013673Y006414D02*
X013964Y006414D01*
X014074Y006524D01*
X014074Y006874D01*
X013673Y005646D02*
X012652Y005646D01*
X011824Y006524D02*
X011714Y006414D01*
X011375Y006414D01*
X011375Y006670D02*
X011178Y006670D01*
X010824Y007024D01*
X010124Y007024D01*
X010024Y006924D01*
X010024Y006609D01*
X010524Y006609D02*
X010975Y006158D01*
X011375Y006158D01*
X011375Y005902D02*
X010561Y005902D01*
X010524Y005939D01*
X011090Y005390D02*
X010874Y005174D01*
X011090Y005390D02*
X011375Y005390D01*
X011824Y006524D02*
X011824Y006924D01*
X005574Y006874D02*
X005574Y006524D01*
X005464Y006414D01*
X005173Y006414D01*
X005173Y006670D02*
X004720Y006670D01*
X004474Y006424D01*
X004474Y006224D01*
X004374Y006124D01*
X004024Y005774D01*
X004374Y005424D01*
X004152Y005646D02*
X004024Y005774D01*
X003674Y006124D01*
X004024Y005774D02*
X003896Y005646D01*
X003874Y005646D01*
X003674Y005446D01*
X003674Y005424D01*
X003874Y005646D02*
X002875Y005646D01*
X002496Y005646D01*
X002374Y005524D01*
X001624Y005524D01*
X001524Y005624D01*
X001524Y005939D01*
X001024Y005939D02*
X001024Y005624D01*
X001474Y005174D01*
X002374Y005174D01*
X002590Y005390D01*
X002875Y005390D01*
X002875Y005902D02*
X002061Y005902D01*
X002024Y005939D01*
X002475Y006158D02*
X002024Y006609D01*
X001524Y006609D02*
X001524Y006924D01*
X001624Y007024D01*
X002024Y007024D01*
X002024Y007124D01*
X002024Y007024D02*
X002324Y007024D01*
X002678Y006670D01*
X002875Y006670D01*
X002875Y006414D02*
X003214Y006414D01*
X003324Y006524D01*
X003324Y006924D01*
X002875Y006158D02*
X002475Y006158D01*
X001524Y006609D02*
X001024Y006609D01*
X004152Y005646D02*
X005173Y005646D01*
D22*
X004374Y005424D03*
X004024Y005774D03*
X003674Y006124D03*
X004374Y006124D03*
X003674Y005424D03*
X011174Y001424D03*
X011524Y003124D03*
X012174Y005424D03*
X012524Y005774D03*
X012174Y006124D03*
X012874Y006124D03*
X012874Y005424D03*
D23*
X014074Y006874D02*
X014074Y006974D01*
X013024Y008024D01*
X011824Y007724D02*
X011524Y008024D01*
X011824Y007724D02*
X011824Y006924D01*
X010024Y006609D02*
X009524Y006609D01*
X009509Y006624D01*
X008424Y006624D01*
X007774Y005974D01*
X007274Y006474D01*
X007274Y008024D01*
X007274Y008774D01*
X006524Y009524D01*
X002774Y009524D01*
X002024Y008774D01*
X002024Y007124D01*
X003024Y008024D02*
X003324Y007724D01*
X003324Y006924D01*
X004524Y008024D02*
X005574Y006974D01*
X005574Y006874D01*
X009489Y006574D02*
X009524Y006609D01*
M02*
