%
M48
M72
T01C0.0200
T02C0.0320
T03C0.0500
T04C0.1299
%
T01
X3674Y5424
X4024Y5774
X3674Y6124
X4374Y6124
X4374Y5424
X11174Y1424
X11524Y3124
X12174Y5424
X12524Y5774
X12174Y6124
X12874Y6124
X12874Y5424
T02
X10274Y2274
X9274Y2274
X8274Y2274
X7274Y2274
X6274Y2274
X5774Y1274
X6774Y1274
X7774Y1274
X8774Y1274
X9774Y1274
X7774Y4574
X7774Y5974
T03
X7274Y8024
X8774Y8024
X11524Y8024
X13024Y8024
X4524Y8024
X3024Y8024
T04
X2274Y2274
X13774Y2274
M30
