G75*
G70*
%OFA0B0*%
%FSLAX24Y24*%
%IPPOS*%
%LPD*%
%AMOC8*
5,1,8,0,0,1.08239X$1,22.5*
%
%ADD10C,0.1379*%
%ADD11C,0.0714*%
%ADD12R,0.0474X0.0513*%
%ADD13R,0.0434X0.0631*%
%ADD14C,0.0640*%
D10*
X001901Y002274D03*
X013401Y002274D03*
D11*
X013334Y005774D02*
X013968Y005774D01*
X013968Y006774D02*
X013334Y006774D01*
X013334Y007774D02*
X013968Y007774D01*
X013968Y008774D02*
X013334Y008774D01*
X010468Y008774D02*
X009834Y008774D01*
X009834Y007774D02*
X010468Y007774D01*
X010468Y006774D02*
X009834Y006774D01*
X009834Y005774D02*
X010468Y005774D01*
X006968Y005774D02*
X006334Y005774D01*
X006334Y006774D02*
X006968Y006774D01*
X006968Y007774D02*
X006334Y007774D01*
X006334Y008774D02*
X006968Y008774D01*
X003468Y008774D02*
X002834Y008774D01*
X002834Y007774D02*
X003468Y007774D01*
X003468Y006774D02*
X002834Y006774D01*
X002834Y005774D02*
X003468Y005774D01*
D12*
X004817Y005774D03*
X005486Y005774D03*
X005486Y005024D03*
X004817Y005024D03*
X004817Y006774D03*
X005486Y006774D03*
X005486Y007524D03*
X004817Y007524D03*
X001986Y007524D03*
X001317Y007524D03*
X001317Y006774D03*
X001986Y006774D03*
X001986Y005774D03*
X001317Y005774D03*
X001317Y005024D03*
X001986Y005024D03*
X008317Y005024D03*
X008986Y005024D03*
X008986Y005774D03*
X008317Y005774D03*
X008317Y006774D03*
X008986Y006774D03*
X008986Y007524D03*
X008317Y007524D03*
X011817Y007524D03*
X012486Y007524D03*
X012486Y006774D03*
X011817Y006774D03*
X011817Y005774D03*
X012486Y005774D03*
X012486Y005024D03*
X011817Y005024D03*
D13*
X012151Y008341D03*
X011797Y009207D03*
X012506Y009207D03*
X009006Y009207D03*
X008297Y009207D03*
X008651Y008341D03*
X005506Y009207D03*
X004797Y009207D03*
X005151Y008341D03*
X002006Y009207D03*
X001297Y009207D03*
X001651Y008341D03*
D14*
X005901Y002274D03*
X006901Y002274D03*
X007901Y002274D03*
X008901Y002274D03*
X009901Y002274D03*
X009401Y001274D03*
X008401Y001274D03*
X007401Y001274D03*
X006401Y001274D03*
X005401Y001274D03*
M02*
