%
M48
M72
T01C0.0320
T02C0.0394
T03C0.1299
%
T01
X5401Y1274
X6401Y1274
X7401Y1274
X8401Y1274
X9401Y1274
X8901Y2274
X9901Y2274
X7901Y2274
X6901Y2274
X5901Y2274
T02
X5901Y5524
X4901Y5524
X3401Y5524
X2401Y5524
X1401Y5524
X1401Y8024
X2401Y8024
X3401Y8024
X4901Y8024
X5901Y8024
X6901Y8024
X8401Y8024
X9401Y8024
X10401Y8024
X11901Y8024
X12901Y8024
X13901Y8024
X13901Y5524
X12901Y5524
X11901Y5524
X10401Y5524
X9401Y5524
X8401Y5524
X6901Y5524
T03
X1901Y2274
X13401Y2274
M30
