G75*
G70*
%OFA0B0*%
%FSLAX24Y24*%
%IPPOS*%
%LPD*%
%AMOC8*
5,1,8,0,0,1.08239X$1,22.5*
%
%ADD10C,0.0100*%
%ADD11C,0.0560*%
%ADD12C,0.0750*%
%ADD13OC8,0.0630*%
%ADD14C,0.0630*%
%ADD15C,0.0400*%
D10*
X002973Y000674D02*
X003001Y000682D01*
X003420Y000952D01*
X003746Y001328D01*
X003953Y001781D01*
X004024Y002274D01*
X003953Y002767D01*
X003746Y003220D01*
X003420Y003597D01*
X003001Y003866D01*
X002523Y004006D01*
X002025Y004006D01*
X001547Y003866D01*
X001128Y003597D01*
X001128Y003597D01*
X000802Y003220D01*
X000674Y002940D01*
X000674Y009874D01*
X014752Y009874D01*
X014691Y009813D01*
X014624Y009747D01*
X014624Y009747D01*
X014624Y009747D01*
X014624Y009665D01*
X014624Y009381D01*
X014741Y009264D01*
X014758Y009264D01*
X014758Y009203D01*
X014741Y009203D01*
X014624Y009086D01*
X014624Y008920D01*
X014638Y008907D01*
X014624Y008893D01*
X014624Y008727D01*
X014675Y008676D01*
X014624Y008626D01*
X014624Y008460D01*
X014741Y008343D01*
X014941Y008343D01*
X015107Y008343D01*
X015174Y008343D01*
X015365Y008534D01*
X015374Y008543D01*
X015374Y002940D01*
X015246Y003220D01*
X014920Y003597D01*
X014501Y003866D01*
X014023Y004006D01*
X013525Y004006D01*
X013047Y003866D01*
X012628Y003597D01*
X012628Y003597D01*
X012628Y003597D01*
X012302Y003220D01*
X012095Y002767D01*
X012024Y002274D01*
X012095Y001781D01*
X012302Y001328D01*
X012628Y000952D01*
X013047Y000682D01*
X013075Y000674D01*
X002973Y000674D01*
X003001Y000682D02*
X003001Y000682D01*
X003062Y000721D02*
X012986Y000721D01*
X013047Y000682D02*
X013047Y000682D01*
X012833Y000820D02*
X003215Y000820D01*
X003368Y000918D02*
X006522Y000918D01*
X006531Y000910D02*
X006689Y000844D01*
X006860Y000844D01*
X007018Y000910D01*
X007139Y001031D01*
X007204Y001189D01*
X007204Y001360D01*
X007139Y001518D01*
X007082Y001574D01*
X007466Y001574D01*
X007410Y001518D01*
X007344Y001360D01*
X007344Y001189D01*
X007410Y001031D01*
X007531Y000910D01*
X007689Y000844D01*
X007860Y000844D01*
X008018Y000910D01*
X008139Y001031D01*
X008204Y001189D01*
X008204Y001360D01*
X008139Y001518D01*
X008082Y001574D01*
X008466Y001574D01*
X008410Y001518D01*
X008344Y001360D01*
X008344Y001189D01*
X008410Y001031D01*
X008531Y000910D01*
X008689Y000844D01*
X008860Y000844D01*
X009018Y000910D01*
X009139Y001031D01*
X009204Y001189D01*
X009204Y001360D01*
X009139Y001518D01*
X009082Y001574D01*
X009466Y001574D01*
X009410Y001518D01*
X009344Y001360D01*
X009344Y001189D01*
X009410Y001031D01*
X009531Y000910D01*
X009689Y000844D01*
X009860Y000844D01*
X010018Y000910D01*
X010139Y001031D01*
X010204Y001189D01*
X010204Y001360D01*
X010139Y001518D01*
X010082Y001574D01*
X011607Y001574D01*
X011724Y001691D01*
X011874Y001841D01*
X011874Y002007D01*
X011874Y003057D01*
X011874Y003194D01*
X011821Y003322D01*
X011722Y003421D01*
X011594Y003474D01*
X011454Y003474D01*
X011326Y003421D01*
X011227Y003322D01*
X011174Y003194D01*
X011174Y003054D01*
X011227Y002926D01*
X011326Y002827D01*
X011454Y002774D01*
X011474Y002774D01*
X011474Y002007D01*
X011441Y001974D01*
X010582Y001974D01*
X010639Y002031D01*
X010704Y002189D01*
X010704Y002360D01*
X010639Y002518D01*
X010518Y002639D01*
X010360Y002704D01*
X010189Y002704D01*
X010031Y002639D01*
X009910Y002518D01*
X009844Y002360D01*
X009844Y002189D01*
X009910Y002031D01*
X009966Y001974D01*
X009582Y001974D01*
X009639Y002031D01*
X009704Y002189D01*
X009704Y002360D01*
X009639Y002518D01*
X009518Y002639D01*
X009360Y002704D01*
X009189Y002704D01*
X009031Y002639D01*
X008910Y002518D01*
X008844Y002360D01*
X008844Y002189D01*
X008910Y002031D01*
X008966Y001974D01*
X008582Y001974D01*
X008639Y002031D01*
X008704Y002189D01*
X008704Y002360D01*
X008639Y002518D01*
X008518Y002639D01*
X008360Y002704D01*
X008189Y002704D01*
X008031Y002639D01*
X007910Y002518D01*
X007844Y002360D01*
X007844Y002189D01*
X007910Y002031D01*
X007966Y001974D01*
X007582Y001974D01*
X007639Y002031D01*
X007704Y002189D01*
X007704Y002360D01*
X007639Y002518D01*
X007518Y002639D01*
X007360Y002704D01*
X007189Y002704D01*
X007031Y002639D01*
X006910Y002518D01*
X006844Y002360D01*
X006844Y002189D01*
X006910Y002031D01*
X006966Y001974D01*
X006857Y001974D01*
X006686Y002145D01*
X006704Y002189D01*
X006704Y002360D01*
X006639Y002518D01*
X006518Y002639D01*
X006360Y002704D01*
X006189Y002704D01*
X006031Y002639D01*
X005910Y002518D01*
X005844Y002360D01*
X005844Y002189D01*
X005910Y002031D01*
X006031Y001910D01*
X006189Y001844D01*
X006360Y001844D01*
X006403Y001862D01*
X006599Y001667D01*
X006531Y001639D01*
X006410Y001518D01*
X006344Y001360D01*
X006344Y001189D01*
X006410Y001031D01*
X006531Y000910D01*
X006423Y001017D02*
X003477Y001017D01*
X003420Y000952D02*
X003420Y000952D01*
X003420Y000952D01*
X003562Y001115D02*
X006374Y001115D01*
X006344Y001214D02*
X003647Y001214D01*
X003733Y001312D02*
X006344Y001312D01*
X006365Y001411D02*
X003784Y001411D01*
X003746Y001328D02*
X003746Y001328D01*
X003829Y001510D02*
X006406Y001510D01*
X006500Y001608D02*
X003874Y001608D01*
X003919Y001707D02*
X006559Y001707D01*
X006460Y001805D02*
X003957Y001805D01*
X003953Y001781D02*
X003953Y001781D01*
X003971Y001904D02*
X006045Y001904D01*
X005938Y002002D02*
X003985Y002002D01*
X003999Y002101D02*
X005880Y002101D01*
X005844Y002199D02*
X004013Y002199D01*
X004021Y002298D02*
X005844Y002298D01*
X005859Y002396D02*
X004006Y002396D01*
X003992Y002495D02*
X005900Y002495D01*
X005985Y002594D02*
X003978Y002594D01*
X003964Y002692D02*
X006160Y002692D01*
X006389Y002692D02*
X007160Y002692D01*
X006985Y002594D02*
X006563Y002594D01*
X006648Y002495D02*
X006900Y002495D01*
X006859Y002396D02*
X006689Y002396D01*
X006704Y002298D02*
X006844Y002298D01*
X006844Y002199D02*
X006704Y002199D01*
X006730Y002101D02*
X006880Y002101D01*
X006829Y002002D02*
X006938Y002002D01*
X006774Y001774D02*
X006274Y002274D01*
X006774Y001774D02*
X011524Y001774D01*
X011674Y001924D01*
X011674Y002974D01*
X011524Y003124D01*
X011202Y002988D02*
X003852Y002988D01*
X003807Y003086D02*
X011174Y003086D01*
X011174Y003185D02*
X003762Y003185D01*
X003746Y003220D02*
X003746Y003220D01*
X003692Y003283D02*
X011211Y003283D01*
X011287Y003382D02*
X003606Y003382D01*
X003521Y003480D02*
X012527Y003480D01*
X012442Y003382D02*
X011761Y003382D01*
X011837Y003283D02*
X012357Y003283D01*
X012302Y003220D02*
X012302Y003220D01*
X012286Y003185D02*
X011874Y003185D01*
X011874Y003086D02*
X012241Y003086D01*
X012196Y002988D02*
X011874Y002988D01*
X011874Y002889D02*
X012151Y002889D01*
X012106Y002791D02*
X011874Y002791D01*
X011874Y002692D02*
X012084Y002692D01*
X012095Y002767D02*
X012095Y002767D01*
X012070Y002594D02*
X011874Y002594D01*
X011874Y002495D02*
X012056Y002495D01*
X012042Y002396D02*
X011874Y002396D01*
X011874Y002298D02*
X012028Y002298D01*
X012024Y002274D02*
X012024Y002274D01*
X012035Y002199D02*
X011874Y002199D01*
X011874Y002101D02*
X012049Y002101D01*
X012063Y002002D02*
X011874Y002002D01*
X011874Y001904D02*
X012077Y001904D01*
X012091Y001805D02*
X011838Y001805D01*
X011739Y001707D02*
X012129Y001707D01*
X012095Y001781D02*
X012095Y001781D01*
X012174Y001608D02*
X011641Y001608D01*
X011469Y002002D02*
X010610Y002002D01*
X010668Y002101D02*
X011474Y002101D01*
X011474Y002199D02*
X010704Y002199D01*
X010704Y002298D02*
X011474Y002298D01*
X011474Y002396D02*
X010689Y002396D01*
X010648Y002495D02*
X011474Y002495D01*
X011474Y002594D02*
X010563Y002594D01*
X010389Y002692D02*
X011474Y002692D01*
X011415Y002791D02*
X003942Y002791D01*
X003953Y002767D02*
X003953Y002767D01*
X003897Y002889D02*
X011264Y002889D01*
X010160Y002692D02*
X009389Y002692D01*
X009563Y002594D02*
X009985Y002594D01*
X009900Y002495D02*
X009648Y002495D01*
X009689Y002396D02*
X009859Y002396D01*
X009844Y002298D02*
X009704Y002298D01*
X009704Y002199D02*
X009844Y002199D01*
X009880Y002101D02*
X009668Y002101D01*
X009610Y002002D02*
X009938Y002002D01*
X010142Y001510D02*
X012219Y001510D01*
X012264Y001411D02*
X010183Y001411D01*
X010204Y001312D02*
X012315Y001312D01*
X012302Y001328D02*
X012302Y001328D01*
X012401Y001214D02*
X010204Y001214D01*
X010174Y001115D02*
X012486Y001115D01*
X012571Y001017D02*
X010125Y001017D01*
X010026Y000918D02*
X012680Y000918D01*
X012628Y000952D02*
X012628Y000952D01*
X015352Y002988D02*
X015374Y002988D01*
X015374Y003086D02*
X015307Y003086D01*
X015262Y003185D02*
X015374Y003185D01*
X015374Y003283D02*
X015192Y003283D01*
X015246Y003220D02*
X015246Y003220D01*
X015374Y003382D02*
X015106Y003382D01*
X015021Y003480D02*
X015374Y003480D01*
X015374Y003579D02*
X014935Y003579D01*
X014920Y003597D02*
X014920Y003597D01*
X014794Y003677D02*
X015374Y003677D01*
X015374Y003776D02*
X014641Y003776D01*
X014501Y003866D02*
X014501Y003866D01*
X014472Y003875D02*
X015374Y003875D01*
X015374Y003973D02*
X014136Y003973D01*
X014023Y004006D02*
X014023Y004006D01*
X013525Y004006D02*
X013525Y004006D01*
X013412Y003973D02*
X002636Y003973D01*
X002523Y004006D02*
X002523Y004006D01*
X002972Y003875D02*
X013077Y003875D01*
X013047Y003866D02*
X013047Y003866D01*
X012907Y003776D02*
X003141Y003776D01*
X003001Y003866D02*
X003001Y003866D01*
X003294Y003677D02*
X012754Y003677D01*
X012613Y003579D02*
X003435Y003579D01*
X003420Y003597D02*
X003420Y003597D01*
X002025Y004006D02*
X002025Y004006D01*
X001912Y003973D02*
X000674Y003973D01*
X000674Y003875D02*
X001577Y003875D01*
X001547Y003866D02*
X001547Y003866D01*
X001407Y003776D02*
X000674Y003776D01*
X000674Y003677D02*
X001254Y003677D01*
X001113Y003579D02*
X000674Y003579D01*
X000674Y003480D02*
X001027Y003480D01*
X000942Y003382D02*
X000674Y003382D01*
X000674Y003283D02*
X000857Y003283D01*
X000786Y003185D02*
X000674Y003185D01*
X000674Y003086D02*
X000741Y003086D01*
X000696Y002988D02*
X000674Y002988D01*
X000674Y004072D02*
X015374Y004072D01*
X015374Y004170D02*
X000674Y004170D01*
X000674Y004269D02*
X015374Y004269D01*
X015374Y004367D02*
X000674Y004367D01*
X000674Y004466D02*
X015374Y004466D01*
X015374Y004564D02*
X000674Y004564D01*
X000674Y004663D02*
X015374Y004663D01*
X015374Y004761D02*
X000674Y004761D01*
X000674Y004860D02*
X015374Y004860D01*
X015374Y004959D02*
X000674Y004959D01*
X000674Y005057D02*
X015374Y005057D01*
X015374Y005156D02*
X000674Y005156D01*
X000674Y005254D02*
X015374Y005254D01*
X015374Y005353D02*
X000674Y005353D01*
X000674Y005451D02*
X015374Y005451D01*
X015374Y005550D02*
X007965Y005550D01*
X008037Y005580D02*
X007867Y005509D01*
X007682Y005509D01*
X007511Y005580D01*
X007380Y005711D01*
X007309Y005882D01*
X007309Y006067D01*
X007380Y006237D01*
X007511Y006368D01*
X007682Y006439D01*
X007867Y006439D01*
X008037Y006368D01*
X008168Y006237D01*
X008239Y006067D01*
X008239Y005882D01*
X008168Y005711D01*
X008037Y005580D01*
X008106Y005648D02*
X015374Y005648D01*
X015374Y005747D02*
X008183Y005747D01*
X008224Y005845D02*
X015374Y005845D01*
X015374Y005944D02*
X008239Y005944D01*
X008239Y006043D02*
X015374Y006043D01*
X015374Y006141D02*
X008208Y006141D01*
X008166Y006240D02*
X015374Y006240D01*
X015374Y006338D02*
X008068Y006338D01*
X007872Y006437D02*
X015374Y006437D01*
X015374Y006535D02*
X000674Y006535D01*
X000674Y006437D02*
X007676Y006437D01*
X007481Y006338D02*
X000674Y006338D01*
X000674Y006240D02*
X007382Y006240D01*
X007340Y006141D02*
X000674Y006141D01*
X000674Y006043D02*
X007309Y006043D01*
X007309Y005944D02*
X000674Y005944D01*
X000674Y005845D02*
X007324Y005845D01*
X007365Y005747D02*
X000674Y005747D01*
X000674Y005648D02*
X007442Y005648D01*
X007583Y005550D02*
X000674Y005550D01*
X000674Y006634D02*
X015374Y006634D01*
X015374Y006732D02*
X000674Y006732D01*
X000674Y006831D02*
X015374Y006831D01*
X015374Y006929D02*
X000674Y006929D01*
X000674Y007028D02*
X015374Y007028D01*
X015374Y007126D02*
X013134Y007126D01*
X013129Y007124D02*
X013321Y007204D01*
X013469Y007352D01*
X013549Y007545D01*
X013549Y008504D01*
X013469Y008696D01*
X013321Y008844D01*
X013129Y008924D01*
X012920Y008924D01*
X012727Y008844D01*
X012579Y008696D01*
X012499Y008504D01*
X012499Y007545D01*
X012579Y007352D01*
X012727Y007204D01*
X012920Y007124D01*
X013129Y007124D01*
X012914Y007126D02*
X011634Y007126D01*
X011629Y007124D02*
X011821Y007204D01*
X011969Y007352D01*
X012049Y007545D01*
X012049Y008504D01*
X011969Y008696D01*
X011821Y008844D01*
X011629Y008924D01*
X011420Y008924D01*
X011227Y008844D01*
X011079Y008696D01*
X010999Y008504D01*
X010999Y007545D01*
X011079Y007352D01*
X011227Y007204D01*
X011420Y007124D01*
X011629Y007124D01*
X011842Y007225D02*
X012706Y007225D01*
X012607Y007324D02*
X011941Y007324D01*
X011998Y007422D02*
X012550Y007422D01*
X012509Y007521D02*
X012039Y007521D01*
X012049Y007619D02*
X012499Y007619D01*
X012499Y007718D02*
X012049Y007718D01*
X012049Y007816D02*
X012499Y007816D01*
X012499Y007915D02*
X012049Y007915D01*
X012049Y008013D02*
X012499Y008013D01*
X012499Y008112D02*
X012049Y008112D01*
X012049Y008210D02*
X012499Y008210D01*
X012499Y008309D02*
X012049Y008309D01*
X012049Y008408D02*
X012499Y008408D01*
X012500Y008506D02*
X012048Y008506D01*
X012007Y008605D02*
X012541Y008605D01*
X012586Y008703D02*
X011962Y008703D01*
X011864Y008802D02*
X012684Y008802D01*
X012862Y008900D02*
X011686Y008900D01*
X011362Y008900D02*
X007436Y008900D01*
X007379Y008924D02*
X007170Y008924D01*
X006977Y008844D01*
X006829Y008696D01*
X006749Y008504D01*
X006749Y007545D01*
X006829Y007352D01*
X006977Y007204D01*
X007170Y007124D01*
X007379Y007124D01*
X007571Y007204D01*
X007719Y007352D01*
X007799Y007545D01*
X007799Y008504D01*
X007719Y008696D01*
X007571Y008844D01*
X007379Y008924D01*
X007614Y008802D02*
X011184Y008802D01*
X011086Y008703D02*
X007712Y008703D01*
X007757Y008605D02*
X011041Y008605D01*
X011000Y008506D02*
X007798Y008506D01*
X007799Y008408D02*
X010999Y008408D01*
X010999Y008309D02*
X007799Y008309D01*
X007799Y008210D02*
X010999Y008210D01*
X010999Y008112D02*
X007799Y008112D01*
X007799Y008013D02*
X010999Y008013D01*
X010999Y007915D02*
X007799Y007915D01*
X007799Y007816D02*
X010999Y007816D01*
X010999Y007718D02*
X007799Y007718D01*
X007799Y007619D02*
X010999Y007619D01*
X011009Y007521D02*
X007789Y007521D01*
X007748Y007422D02*
X011050Y007422D01*
X011107Y007324D02*
X007691Y007324D01*
X007592Y007225D02*
X011206Y007225D01*
X011414Y007126D02*
X007384Y007126D01*
X007164Y007126D02*
X004634Y007126D01*
X004629Y007124D02*
X004821Y007204D01*
X004969Y007352D01*
X005049Y007545D01*
X005049Y008504D01*
X004969Y008696D01*
X004821Y008844D01*
X004629Y008924D01*
X004420Y008924D01*
X004227Y008844D01*
X004079Y008696D01*
X003999Y008504D01*
X003999Y007545D01*
X004079Y007352D01*
X004227Y007204D01*
X004420Y007124D01*
X004629Y007124D01*
X004414Y007126D02*
X003134Y007126D01*
X003129Y007124D02*
X003321Y007204D01*
X003469Y007352D01*
X003549Y007545D01*
X003549Y008504D01*
X003469Y008696D01*
X003321Y008844D01*
X003129Y008924D01*
X002920Y008924D01*
X002727Y008844D01*
X002579Y008696D01*
X002499Y008504D01*
X002499Y007545D01*
X002579Y007352D01*
X002727Y007204D01*
X002920Y007124D01*
X003129Y007124D01*
X002914Y007126D02*
X000674Y007126D01*
X000674Y007225D02*
X002706Y007225D01*
X002607Y007324D02*
X000674Y007324D01*
X000674Y007422D02*
X002550Y007422D01*
X002509Y007521D02*
X000674Y007521D01*
X000674Y007619D02*
X002499Y007619D01*
X002499Y007718D02*
X000674Y007718D01*
X000674Y007816D02*
X002499Y007816D01*
X002499Y007915D02*
X000674Y007915D01*
X000674Y008013D02*
X002499Y008013D01*
X002499Y008112D02*
X000674Y008112D01*
X000674Y008210D02*
X002499Y008210D01*
X002499Y008309D02*
X000674Y008309D01*
X000674Y008408D02*
X002499Y008408D01*
X002500Y008506D02*
X000674Y008506D01*
X000674Y008605D02*
X002541Y008605D01*
X002586Y008703D02*
X000674Y008703D01*
X000674Y008802D02*
X002684Y008802D01*
X002862Y008900D02*
X000674Y008900D01*
X000674Y008999D02*
X014624Y008999D01*
X014635Y009097D02*
X000674Y009097D01*
X000674Y009196D02*
X014734Y009196D01*
X014710Y009294D02*
X000674Y009294D01*
X000674Y009393D02*
X014624Y009393D01*
X014624Y009492D02*
X000674Y009492D01*
X000674Y009590D02*
X014624Y009590D01*
X014624Y009689D02*
X000674Y009689D01*
X000674Y009787D02*
X014665Y009787D01*
X014691Y009813D02*
X014691Y009813D01*
X014824Y009664D02*
X014824Y009464D01*
X015224Y009464D01*
X015224Y009664D01*
X015158Y009731D01*
X015091Y009731D01*
X015024Y009664D01*
X015024Y009464D01*
X015024Y009270D02*
X014958Y009203D01*
X014958Y009003D01*
X014824Y009003D02*
X015224Y009003D01*
X015224Y009203D01*
X015158Y009270D01*
X015024Y009270D01*
X014632Y008900D02*
X013186Y008900D01*
X013364Y008802D02*
X014624Y008802D01*
X014648Y008703D02*
X013462Y008703D01*
X013507Y008605D02*
X014624Y008605D01*
X014624Y008506D02*
X013548Y008506D01*
X013549Y008408D02*
X014677Y008408D01*
X014824Y008543D02*
X015091Y008543D01*
X015224Y008676D01*
X015091Y008810D01*
X014824Y008810D01*
X015024Y008810D02*
X015024Y008543D01*
X015238Y008408D02*
X015374Y008408D01*
X015374Y008506D02*
X015337Y008506D01*
X015374Y008309D02*
X013549Y008309D01*
X013549Y008210D02*
X015374Y008210D01*
X015374Y008112D02*
X013549Y008112D01*
X013549Y008013D02*
X015374Y008013D01*
X015374Y007915D02*
X013549Y007915D01*
X013549Y007816D02*
X015374Y007816D01*
X015374Y007718D02*
X013549Y007718D01*
X013549Y007619D02*
X015374Y007619D01*
X015374Y007521D02*
X013539Y007521D01*
X013498Y007422D02*
X015374Y007422D01*
X015374Y007324D02*
X013441Y007324D01*
X013342Y007225D02*
X015374Y007225D01*
X015024Y009664D02*
X014958Y009731D01*
X014891Y009731D01*
X014824Y009664D01*
X007112Y008900D02*
X004686Y008900D01*
X004864Y008802D02*
X006934Y008802D01*
X006836Y008703D02*
X004962Y008703D01*
X005007Y008605D02*
X006791Y008605D01*
X006750Y008506D02*
X005048Y008506D01*
X005049Y008408D02*
X006749Y008408D01*
X006749Y008309D02*
X005049Y008309D01*
X005049Y008210D02*
X006749Y008210D01*
X006749Y008112D02*
X005049Y008112D01*
X005049Y008013D02*
X006749Y008013D01*
X006749Y007915D02*
X005049Y007915D01*
X005049Y007816D02*
X006749Y007816D01*
X006749Y007718D02*
X005049Y007718D01*
X005049Y007619D02*
X006749Y007619D01*
X006759Y007521D02*
X005039Y007521D01*
X004998Y007422D02*
X006800Y007422D01*
X006857Y007324D02*
X004941Y007324D01*
X004842Y007225D02*
X006956Y007225D01*
X004362Y008900D02*
X003186Y008900D01*
X003364Y008802D02*
X004184Y008802D01*
X004086Y008703D02*
X003462Y008703D01*
X003507Y008605D02*
X004041Y008605D01*
X004000Y008506D02*
X003548Y008506D01*
X003549Y008408D02*
X003999Y008408D01*
X003999Y008309D02*
X003549Y008309D01*
X003549Y008210D02*
X003999Y008210D01*
X003999Y008112D02*
X003549Y008112D01*
X003549Y008013D02*
X003999Y008013D01*
X003999Y007915D02*
X003549Y007915D01*
X003549Y007816D02*
X003999Y007816D01*
X003999Y007718D02*
X003549Y007718D01*
X003549Y007619D02*
X003999Y007619D01*
X004009Y007521D02*
X003539Y007521D01*
X003498Y007422D02*
X004050Y007422D01*
X004107Y007324D02*
X003441Y007324D01*
X003342Y007225D02*
X004206Y007225D01*
X007389Y002692D02*
X008160Y002692D01*
X008389Y002692D02*
X009160Y002692D01*
X008985Y002594D02*
X008563Y002594D01*
X008648Y002495D02*
X008900Y002495D01*
X008859Y002396D02*
X008689Y002396D01*
X008704Y002298D02*
X008844Y002298D01*
X008844Y002199D02*
X008704Y002199D01*
X008668Y002101D02*
X008880Y002101D01*
X008938Y002002D02*
X008610Y002002D01*
X008406Y001510D02*
X008142Y001510D01*
X008183Y001411D02*
X008365Y001411D01*
X008344Y001312D02*
X008204Y001312D01*
X008204Y001214D02*
X008344Y001214D01*
X008374Y001115D02*
X008174Y001115D01*
X008125Y001017D02*
X008423Y001017D01*
X008522Y000918D02*
X008026Y000918D01*
X007522Y000918D02*
X007026Y000918D01*
X007125Y001017D02*
X007423Y001017D01*
X007374Y001115D02*
X007174Y001115D01*
X007204Y001214D02*
X007344Y001214D01*
X007344Y001312D02*
X007204Y001312D01*
X007183Y001411D02*
X007365Y001411D01*
X007406Y001510D02*
X007142Y001510D01*
X007610Y002002D02*
X007938Y002002D01*
X007880Y002101D02*
X007668Y002101D01*
X007704Y002199D02*
X007844Y002199D01*
X007844Y002298D02*
X007704Y002298D01*
X007689Y002396D02*
X007859Y002396D01*
X007900Y002495D02*
X007648Y002495D01*
X007563Y002594D02*
X007985Y002594D01*
X009142Y001510D02*
X009406Y001510D01*
X009365Y001411D02*
X009183Y001411D01*
X009204Y001312D02*
X009344Y001312D01*
X009344Y001214D02*
X009204Y001214D01*
X009174Y001115D02*
X009374Y001115D01*
X009423Y001017D02*
X009125Y001017D01*
X009026Y000918D02*
X009522Y000918D01*
D11*
X009774Y001274D03*
X008774Y001274D03*
X007774Y001274D03*
X006774Y001274D03*
X005774Y001274D03*
X006274Y002274D03*
X007274Y002274D03*
X008274Y002274D03*
X009274Y002274D03*
X010274Y002274D03*
D12*
X011524Y007649D02*
X011524Y008399D01*
X013024Y008399D02*
X013024Y007649D01*
X008774Y007649D02*
X008774Y008399D01*
X007274Y008399D02*
X007274Y007649D01*
X004524Y007649D02*
X004524Y008399D01*
X003024Y008399D02*
X003024Y007649D01*
D13*
X007774Y004574D03*
D14*
X007774Y005974D03*
D15*
X004374Y006124D03*
X004024Y005774D03*
X003674Y006124D03*
X003674Y005424D03*
X004374Y005424D03*
X011174Y001424D03*
X011524Y003124D03*
X012174Y005424D03*
X012524Y005774D03*
X012174Y006124D03*
X012874Y006124D03*
X012874Y005424D03*
M02*
