G75*
G70*
%OFA0B0*%
%FSLAX24Y24*%
%IPPOS*%
%LPD*%
%AMOC8*
5,1,8,0,0,1.08239X$1,22.5*
%
%ADD10C,0.0100*%
D10*
X000651Y004880D02*
X000584Y004947D01*
X000584Y005147D01*
X000718Y005080D02*
X000718Y004947D01*
X000651Y004880D01*
X000851Y004880D02*
X000851Y005080D01*
X000784Y005147D01*
X000718Y005080D01*
X000851Y005340D02*
X000851Y005541D01*
X000784Y005607D01*
X000651Y005607D01*
X000584Y005541D01*
X000584Y005340D01*
X000985Y005340D01*
X000784Y005801D02*
X000651Y005801D01*
X000584Y005867D01*
X000584Y006001D01*
X000651Y006068D01*
X000784Y006068D01*
X000851Y006001D01*
X000851Y005867D01*
X000784Y005801D01*
X001151Y005880D02*
X001151Y006147D01*
X001151Y006340D02*
X001084Y006407D01*
X001084Y006607D01*
X001218Y006541D02*
X001218Y006407D01*
X001151Y006340D01*
X001351Y006340D02*
X001351Y006541D01*
X001284Y006607D01*
X001218Y006541D01*
X000851Y006461D02*
X000718Y006261D01*
X000584Y006461D01*
X000651Y006645D02*
X000584Y006711D01*
X000584Y006845D01*
X000651Y006912D01*
X000718Y006912D01*
X000718Y006645D01*
X000784Y006645D02*
X000651Y006645D01*
X000784Y006645D02*
X000851Y006711D01*
X000851Y006845D01*
X001084Y006867D02*
X001084Y007001D01*
X001151Y007068D01*
X001218Y007068D01*
X001218Y006801D01*
X001284Y006801D02*
X001151Y006801D01*
X001084Y006867D01*
X001284Y006801D02*
X001351Y006867D01*
X001351Y007001D01*
X001351Y007261D02*
X001084Y007261D01*
X001084Y007394D02*
X001084Y007461D01*
X001084Y007394D02*
X001218Y007261D01*
X001084Y007645D02*
X001351Y007778D01*
X001084Y007912D01*
X001151Y008105D02*
X001284Y008105D01*
X001351Y008172D01*
X001351Y008305D01*
X001284Y008372D01*
X001151Y008372D01*
X001084Y008305D01*
X001084Y008172D01*
X001151Y008105D01*
X003201Y008214D02*
X003201Y007947D01*
X003468Y008214D01*
X003468Y007947D01*
X003401Y007880D01*
X003268Y007880D01*
X003201Y007947D01*
X003201Y008214D02*
X003268Y008280D01*
X003401Y008280D01*
X003468Y008214D01*
X000851Y006261D02*
X000451Y006261D01*
X015401Y007880D02*
X015401Y007947D01*
X015668Y008214D01*
X015668Y008280D01*
X015401Y008280D01*
X017184Y008092D02*
X017251Y008026D01*
X017451Y008026D01*
X017451Y007892D02*
X017184Y007892D01*
X017184Y007959D01*
X017251Y008026D01*
X017184Y008092D02*
X017251Y008159D01*
X017451Y008159D01*
X017451Y007699D02*
X017251Y007699D01*
X017184Y007632D01*
X017184Y007498D01*
X017318Y007498D02*
X017318Y007699D01*
X017451Y007699D02*
X017451Y007498D01*
X017384Y007432D01*
X017318Y007498D01*
X017318Y007238D02*
X017318Y006971D01*
X017384Y006971D02*
X017251Y006971D01*
X017184Y007038D01*
X017184Y007172D01*
X017251Y007238D01*
X017318Y007238D01*
X017451Y007172D02*
X017451Y007038D01*
X017384Y006971D01*
X017051Y006778D02*
X017051Y006511D01*
X017051Y006644D02*
X017451Y006644D01*
X017801Y006644D02*
X017934Y006511D01*
X017801Y006644D02*
X018201Y006644D01*
X018201Y006511D02*
X018201Y006778D01*
X018201Y006318D02*
X018201Y006051D01*
X018201Y006184D02*
X017801Y006184D01*
X017934Y006051D01*
X017868Y005857D02*
X018134Y005590D01*
X018201Y005657D01*
X018201Y005791D01*
X018134Y005857D01*
X017868Y005857D01*
X017801Y005791D01*
X017801Y005657D01*
X017868Y005590D01*
X018134Y005590D01*
X018201Y005397D02*
X018201Y005130D01*
X017934Y005397D01*
X017868Y005397D01*
X017801Y005330D01*
X017801Y005197D01*
X017868Y005130D01*
X017451Y005130D02*
X017184Y005130D01*
X017051Y005263D01*
X017184Y005397D01*
X017451Y005397D01*
X017251Y005397D02*
X017251Y005130D01*
X017318Y005590D02*
X017318Y005791D01*
X017251Y005857D01*
X017118Y005857D01*
X017051Y005791D01*
X017051Y005590D01*
X017451Y005590D01*
X017451Y006051D02*
X017051Y006051D01*
X017051Y006251D01*
X017118Y006318D01*
X017184Y006318D01*
X017251Y006251D01*
X017251Y006051D01*
X017451Y006051D02*
X017451Y006251D01*
X017384Y006318D01*
X017318Y006318D01*
X017251Y006251D01*
M02*
