G75*
G70*
%OFA0B0*%
%FSLAX24Y24*%
%IPPOS*%
%LPD*%
%AMOC8*
5,1,8,0,0,1.08239X$1,22.5*
%
%ADD10C,0.1379*%
%ADD11C,0.0640*%
%ADD12C,0.0830*%
%ADD13C,0.0720*%
D10*
X001901Y003030D03*
X017401Y003030D03*
D11*
X013901Y003030D03*
X012901Y003030D03*
X011901Y003030D03*
X010901Y003030D03*
X009901Y003030D03*
X009401Y002030D03*
X010401Y002030D03*
X011401Y002030D03*
X012401Y002030D03*
X013401Y002030D03*
D12*
X005151Y002905D02*
X005151Y003655D01*
X006651Y003655D02*
X006651Y002905D01*
D13*
X006831Y005280D02*
X007471Y005280D01*
X008581Y005280D02*
X009221Y005280D01*
X010331Y005280D02*
X010971Y005280D01*
X012081Y005280D02*
X012721Y005280D01*
X013831Y005280D02*
X014471Y005280D01*
X015581Y005280D02*
X016221Y005280D01*
X016221Y006280D02*
X015581Y006280D01*
X014471Y006280D02*
X013831Y006280D01*
X012721Y006280D02*
X012081Y006280D01*
X010971Y006280D02*
X010331Y006280D01*
X009221Y006280D02*
X008581Y006280D01*
X007471Y006280D02*
X006831Y006280D01*
X005721Y006280D02*
X005081Y006280D01*
X003971Y006280D02*
X003331Y006280D01*
X003331Y005280D02*
X003971Y005280D01*
X005081Y005280D02*
X005721Y005280D01*
X005721Y007280D02*
X005081Y007280D01*
X003971Y007280D02*
X003331Y007280D01*
X006831Y007280D02*
X007471Y007280D01*
X008581Y007280D02*
X009221Y007280D01*
X010331Y007280D02*
X010971Y007280D01*
X012081Y007280D02*
X012721Y007280D01*
X013831Y007280D02*
X014471Y007280D01*
X015581Y007280D02*
X016221Y007280D01*
M02*
