%
M48
M72
T01C0.0320
T02C0.0400
T03C0.0500
T04C0.1299
%
T01
X9401Y2030
X10401Y2030
X11401Y2030
X12401Y2030
X13401Y2030
X12901Y3030
X11901Y3030
X10901Y3030
X9901Y3030
X13901Y3030
T02
X14151Y5280
X12401Y5280
X10651Y5280
X8901Y5280
X7151Y5280
X5401Y5280
X3651Y5280
X3651Y6280
X5401Y6280
X7151Y6280
X8901Y6280
X10651Y6280
X12401Y6280
X14151Y6280
X15901Y6280
X15901Y5280
X15901Y7280
X14151Y7280
X12401Y7280
X10651Y7280
X8901Y7280
X7151Y7280
X5401Y7280
X3651Y7280
T03
X5151Y3280
X6651Y3280
T04
X1901Y3030
X17401Y3030
M30
