%
M48
M72
T01C0.0200
T02C0.0320
T03C0.0394
T04C0.1299
%
T01
X4051Y5024
X2351Y6274
X5851Y6274
X7551Y5024
X9351Y6274
X11051Y5024
X12851Y6274
X14551Y5024
T02
X9901Y2274
X8901Y2274
X7901Y2274
X6901Y2274
X5901Y2274
X5401Y1274
X6401Y1274
X7401Y1274
X8401Y1274
X9401Y1274
T03
X10151Y5774
X10151Y6774
X10151Y7774
X10151Y8774
X13651Y8774
X13651Y7774
X13651Y6774
X13651Y5774
X6651Y5774
X6651Y6774
X6651Y7774
X6651Y8774
X3151Y8774
X3151Y7774
X3151Y6774
X3151Y5774
T04
X1901Y2274
X13401Y2274
M30
