G75*
G70*
%OFA0B0*%
%FSLAX24Y24*%
%IPPOS*%
%LPD*%
%AMOC8*
5,1,8,0,0,1.08239X$1,22.5*
%
%ADD10C,0.0100*%
D10*
X001041Y004124D02*
X000974Y004191D01*
X000974Y004258D01*
X001041Y004324D01*
X001174Y004324D01*
X001241Y004258D01*
X001241Y004191D01*
X001174Y004124D01*
X001041Y004124D01*
X001041Y004324D02*
X000974Y004391D01*
X000974Y004458D01*
X001041Y004524D01*
X001174Y004524D01*
X001241Y004458D01*
X001241Y004391D01*
X001174Y004324D01*
X001434Y004324D02*
X001701Y004324D01*
X001895Y004191D02*
X001961Y004124D01*
X002095Y004124D01*
X002162Y004191D01*
X002162Y004258D01*
X002095Y004324D01*
X002028Y004324D01*
X002095Y004324D02*
X002162Y004391D01*
X002162Y004458D01*
X002095Y004524D01*
X001961Y004524D01*
X001895Y004458D01*
X002355Y004458D02*
X002355Y004391D01*
X002422Y004324D01*
X002555Y004324D01*
X002622Y004258D01*
X002622Y004191D01*
X002555Y004124D01*
X002422Y004124D01*
X002355Y004191D01*
X002355Y004258D01*
X002422Y004324D01*
X002555Y004324D02*
X002622Y004391D01*
X002622Y004458D01*
X002555Y004524D01*
X002422Y004524D01*
X002355Y004458D01*
X002816Y004524D02*
X002816Y004258D01*
X002949Y004124D01*
X003082Y004258D01*
X003082Y004524D01*
X003624Y004458D02*
X003691Y004524D01*
X003824Y004524D01*
X003891Y004458D01*
X003891Y004391D01*
X003624Y004124D01*
X003891Y004124D01*
X004084Y004124D02*
X004084Y004391D01*
X004218Y004524D01*
X004351Y004391D01*
X004351Y004124D01*
X004351Y004324D02*
X004084Y004324D01*
X006024Y006724D02*
X006224Y006724D01*
X006291Y006791D01*
X006291Y006858D01*
X006224Y006924D01*
X006024Y006924D01*
X006224Y006924D02*
X006291Y006991D01*
X006291Y007058D01*
X006224Y007124D01*
X006024Y007124D01*
X006024Y006724D01*
X006484Y006724D02*
X006484Y006991D01*
X006618Y007124D01*
X006751Y006991D01*
X006751Y006724D01*
X006751Y006924D02*
X006484Y006924D01*
X006945Y007124D02*
X007212Y007124D01*
X007078Y007124D02*
X007078Y006724D01*
X009124Y007124D02*
X009391Y007124D01*
X011924Y007274D02*
X011924Y006874D01*
X012191Y006874D02*
X012191Y007274D01*
X012058Y007141D01*
X011924Y007274D01*
X012384Y007208D02*
X012451Y007274D01*
X012585Y007274D01*
X012651Y007208D01*
X012651Y007141D01*
X012384Y006874D01*
X012651Y006874D01*
X010972Y004424D02*
X010705Y004424D01*
X010839Y004424D02*
X010839Y004024D01*
X010839Y003774D02*
X010839Y003374D01*
X010972Y003374D02*
X010705Y003374D01*
X010512Y003374D02*
X010245Y003374D01*
X010378Y003374D02*
X010378Y003774D01*
X010245Y003641D01*
X010051Y003708D02*
X009784Y003441D01*
X009851Y003374D01*
X009985Y003374D01*
X010051Y003441D01*
X010051Y003708D01*
X009985Y003774D01*
X009851Y003774D01*
X009784Y003708D01*
X009784Y003441D01*
X009591Y003374D02*
X009324Y003374D01*
X009591Y003641D01*
X009591Y003708D01*
X009524Y003774D01*
X009391Y003774D01*
X009324Y003708D01*
X009324Y004024D02*
X009324Y004291D01*
X009458Y004424D01*
X009591Y004291D01*
X009591Y004024D01*
X009784Y004024D02*
X009784Y004424D01*
X009985Y004424D01*
X010051Y004358D01*
X010051Y004224D01*
X009985Y004158D01*
X009784Y004158D01*
X009591Y004224D02*
X009324Y004224D01*
X010245Y004224D02*
X010445Y004224D01*
X010512Y004158D01*
X010512Y004091D01*
X010445Y004024D01*
X010245Y004024D01*
X010245Y004424D01*
X010445Y004424D01*
X010512Y004358D01*
X010512Y004291D01*
X010445Y004224D01*
X010839Y003774D02*
X010705Y003641D01*
X011166Y004091D02*
X011232Y004024D01*
X011366Y004024D01*
X011432Y004158D02*
X011166Y004158D01*
X011166Y004224D02*
X011166Y004091D01*
X011166Y004224D02*
X011232Y004291D01*
X011366Y004291D01*
X011432Y004224D01*
X011432Y004158D01*
X011626Y004091D02*
X011693Y004024D01*
X011893Y004024D01*
X011893Y004224D01*
X011826Y004291D01*
X011693Y004291D01*
X011693Y004158D02*
X011893Y004158D01*
X011693Y004158D02*
X011626Y004091D01*
X012086Y004024D02*
X012086Y004291D01*
X012153Y004291D01*
X012220Y004224D01*
X012286Y004291D01*
X012353Y004224D01*
X012353Y004024D01*
X012220Y004024D02*
X012220Y004224D01*
X004201Y006874D02*
X003934Y006874D01*
X004068Y006874D02*
X004068Y007274D01*
X003934Y007141D01*
X003741Y007274D02*
X003608Y007141D01*
X003474Y007274D01*
X003474Y006874D01*
X003741Y006874D02*
X003741Y007274D01*
X001774Y007884D02*
X001507Y007884D01*
X001507Y007951D01*
X001574Y008018D01*
X001507Y008085D01*
X001574Y008151D01*
X001774Y008151D01*
X001707Y008345D02*
X001774Y008411D01*
X001774Y008545D01*
X001707Y008612D01*
X001574Y008612D01*
X001507Y008545D01*
X001507Y008411D01*
X001574Y008345D01*
X001707Y008345D01*
X001774Y008018D02*
X001574Y008018D01*
X001574Y007691D02*
X001574Y007424D01*
X001358Y007634D02*
X000957Y007634D01*
X000957Y007835D01*
X001024Y007901D01*
X001157Y007901D01*
X001224Y007835D01*
X001224Y007634D01*
X001157Y007441D02*
X001091Y007374D01*
X001091Y007241D01*
X001024Y007174D01*
X000957Y007241D01*
X000957Y007441D01*
X001157Y007441D02*
X001224Y007374D01*
X001224Y007174D01*
X001157Y008095D02*
X001024Y008095D01*
X000957Y008161D01*
X000957Y008295D01*
X001024Y008362D01*
X001157Y008362D01*
X001224Y008295D01*
X001224Y008161D01*
X001157Y008095D01*
X001091Y008555D02*
X000957Y008755D01*
X001091Y008555D02*
X001224Y008755D01*
X001157Y008939D02*
X001024Y008939D01*
X000957Y009005D01*
X000957Y009139D01*
X001024Y009206D01*
X001091Y009206D01*
X001091Y008939D01*
X001157Y008939D02*
X001224Y009005D01*
X001224Y009139D01*
X001507Y009179D02*
X001507Y009312D01*
X001574Y009379D01*
X001707Y009379D01*
X001774Y009312D01*
X001774Y009179D01*
X001707Y009112D01*
X001574Y009112D01*
X001507Y009179D01*
X001507Y008939D02*
X001507Y008805D01*
X001441Y008872D02*
X001707Y008872D01*
X001774Y008939D01*
X001224Y008555D02*
X000824Y008555D01*
X001507Y009572D02*
X001774Y009572D01*
X001641Y009572D02*
X001507Y009706D01*
X001507Y009773D01*
M02*
