G75*
G70*
%OFA0B0*%
%FSLAX24Y24*%
%IPPOS*%
%LPD*%
%AMOC8*
5,1,8,0,0,1.08239X$1,22.5*
%
%ADD10R,0.0390X0.0120*%
%ADD11R,0.1181X0.1181*%
%ADD12R,0.0433X0.0394*%
%ADD13R,0.0394X0.0433*%
%ADD14R,0.0400X0.0400*%
D10*
X002875Y004878D03*
X002875Y005134D03*
X002875Y005390D03*
X002875Y005646D03*
X002875Y005902D03*
X002875Y006158D03*
X002875Y006414D03*
X002875Y006670D03*
X005173Y006670D03*
X005173Y006414D03*
X005173Y006158D03*
X005173Y005902D03*
X005173Y005646D03*
X005173Y005390D03*
X005173Y005134D03*
X005173Y004878D03*
X011375Y004878D03*
X011375Y005134D03*
X011375Y005390D03*
X011375Y005646D03*
X011375Y005902D03*
X011375Y006158D03*
X011375Y006414D03*
X011375Y006670D03*
X013673Y006670D03*
X013673Y006414D03*
X013673Y006158D03*
X013673Y005902D03*
X013673Y005646D03*
X013673Y005390D03*
X013673Y005134D03*
X013673Y004878D03*
D11*
X012524Y005774D03*
X004024Y005774D03*
D12*
X005724Y005709D03*
X005724Y005039D03*
X014224Y005009D03*
X014774Y005039D03*
X014774Y005709D03*
X014224Y004339D03*
D13*
X010524Y005939D03*
X010024Y005939D03*
X009524Y005939D03*
X009524Y006609D03*
X010024Y006609D03*
X010524Y006609D03*
X005859Y004474D03*
X005189Y004474D03*
X002024Y005939D03*
X001524Y005939D03*
X001024Y005939D03*
X001024Y006609D03*
X001524Y006609D03*
X002024Y006609D03*
D14*
X005024Y003674D03*
X005624Y003674D03*
X006224Y003674D03*
X011674Y002624D03*
X011674Y002024D03*
X011674Y001424D03*
M02*
